<?xml version="1.0" encoding="UTF-8" standalone="no"?>
<!DOCTYPE svg PUBLIC "-//W3C//DTD SVG 1.1//EN"
 "http://www.w3.org/Graphics/SVG/1.1/DTD/svg11.dtd">
<!-- Generated by graphviz version 2.43.0 (0)
 -->
<!-- Title: opp Pages: 1 -->
<svg width="338pt" height="82pt"
 viewBox="0.00 0.00 338.00 82.00" xmlns="http://www.w3.org/2000/svg" xmlns:xlink="http://www.w3.org/1999/xlink">
<g id="graph0" class="graph" transform="scale(1 1) rotate(0) translate(4 78)">
<title>opp</title>
<polygon fill="transparent" stroke="transparent" points="-4,4 -4,-78 334,-78 334,4 -4,4"/>
<!-- BridgingLayerWithPairwiseDelay -->
<g id="node1" class="node">
<title>BridgingLayerWithPairwiseDelay</title>
<g id="a_node1"><a xlink:href="d6g.pairwise.BridgingLayerWithPairwiseDelay.html" xlink:title="Compound Module BridgingLayerWithPairwiseDelay" target="_parent">
<polygon fill="#fff700" stroke="black" points="274,-74 98,-74 98,-55 274,-55 274,-74"/>
<text text-anchor="middle" x="186" y="-62" font-family="Helvetica,sans-Serif" font-size="10.00">BridgingLayerWithPairwiseDelay</text>
</a>
</g>
</g>
<!-- IProcessingDelayLayer -->
<g id="node2" class="node">
<title>IProcessingDelayLayer</title>
<g id="a_node2"><a xlink:href="../../../inet/doc/neddoc/inet.protocolelement.processing.IProcessingDelayLayer.html" xlink:title="Module Interface IProcessingDelayLayer" target="_parent">
<polygon fill="#fffcaf" stroke="black" stroke-dasharray="5,2" points="128,-19 0,-19 0,0 128,0 128,-19"/>
<text text-anchor="middle" x="64" y="-7" font-family="Helvetica,sans-Serif" font-size="10.00">IProcessingDelayLayer</text>
</a>
</g>
</g>
<!-- BridgingLayerWithPairwiseDelay&#45;&gt;IProcessingDelayLayer -->
<g id="edge1" class="edge">
<title>BridgingLayerWithPairwiseDelay&#45;&gt;IProcessingDelayLayer</title>
<path fill="none" stroke="black" d="M166.4,-54.98C146.68,-46.42 116.05,-33.11 93.42,-23.28"/>
<polygon fill="black" stroke="black" points="94.52,-19.94 83.96,-19.17 91.74,-26.37 94.52,-19.94"/>
</g>
<!-- IdealChannel -->
<g id="node3" class="node">
<title>IdealChannel</title>
<g id="a_node3"><a xlink:href="ned.IdealChannel.html" xlink:title="Channel IdealChannel" target="_parent">
<polygon fill="#d0ffd0" stroke="black" points="226,-19 146,-19 146,0 226,0 226,-19"/>
<text text-anchor="middle" x="186" y="-7" font-family="Helvetica,sans-Serif" font-size="10.00">IdealChannel</text>
</a>
</g>
</g>
<!-- BridgingLayerWithPairwiseDelay&#45;&gt;IdealChannel -->
<g id="edge2" class="edge">
<title>BridgingLayerWithPairwiseDelay&#45;&gt;IdealChannel</title>
<path fill="none" stroke="black" d="M186,-54.75C186,-47.8 186,-37.85 186,-29.13"/>
<polygon fill="black" stroke="black" points="189.5,-29.09 186,-19.09 182.5,-29.09 189.5,-29.09"/>
</g>
<!-- IProtocolLayer -->
<g id="node4" class="node">
<title>IProtocolLayer</title>
<g id="a_node4"><a xlink:href="../../../inet/doc/neddoc/inet.protocolelement.contract.IProtocolLayer.html" xlink:title="Module Interface IProtocolLayer" target="_parent">
<polygon fill="#fffcaf" stroke="black" stroke-dasharray="5,2" points="330,-19 244,-19 244,0 330,0 330,-19"/>
<text text-anchor="middle" x="287" y="-7" font-family="Helvetica,sans-Serif" font-size="10.00">IProtocolLayer</text>
</a>
</g>
</g>
<!-- BridgingLayerWithPairwiseDelay&#45;&gt;IProtocolLayer -->
<g id="edge3" class="edge">
<title>BridgingLayerWithPairwiseDelay&#45;&gt;IProtocolLayer</title>
<path fill="none" stroke="black" d="M202.23,-54.98C218.18,-46.61 242.78,-33.7 261.38,-23.95"/>
<polygon fill="black" stroke="black" points="263.25,-26.92 270.48,-19.17 260,-20.72 263.25,-26.92"/>
</g>
</g>
</svg>
