<?xml version="1.0" encoding="UTF-8" standalone="no"?>
<!DOCTYPE svg PUBLIC "-//W3C//DTD SVG 1.1//EN"
 "http://www.w3.org/Graphics/SVG/1.1/DTD/svg11.dtd">
<!-- Generated by graphviz version 2.43.0 (0)
 -->
<!-- Title: opp Pages: 1 -->
<svg width="232pt" height="137pt"
 viewBox="0.00 0.00 232.00 137.00" xmlns="http://www.w3.org/2000/svg" xmlns:xlink="http://www.w3.org/1999/xlink">
<g id="graph0" class="graph" transform="scale(1 1) rotate(0) translate(4 133)">
<title>opp</title>
<polygon fill="transparent" stroke="transparent" points="-4,4 -4,-133 228,-133 228,4 -4,4"/>
<!-- ProcessingCell -->
<g id="node1" class="node">
<title>ProcessingCell</title>
<g id="a_node1"><a xlink:href="d6g.simulations.cooperativemanufacturing.ProcessingCell.html" xlink:title="Compound Module ProcessingCell" target="_parent">
<polygon fill="#fff700" stroke="black" points="168,-74 80,-74 80,-55 168,-55 168,-74"/>
<text text-anchor="middle" x="124" y="-62" font-family="Helvetica,sans-Serif" font-size="10.00">ProcessingCell</text>
</a>
</g>
</g>
<!-- IEthernetNetworkNode -->
<g id="node2" class="node">
<title>IEthernetNetworkNode</title>
<g id="a_node2"><a xlink:href="../../../inet/doc/neddoc/inet.node.contract.IEthernetNetworkNode.html" xlink:title="Module Interface IEthernetNetworkNode" target="_parent">
<polygon fill="#fffcaf" stroke="black" stroke-dasharray="5,2" points="128,-19 0,-19 0,0 128,0 128,-19"/>
<text text-anchor="middle" x="64" y="-7" font-family="Helvetica,sans-Serif" font-size="10.00">IEthernetNetworkNode</text>
</a>
</g>
</g>
<!-- ProcessingCell&#45;&gt;IEthernetNetworkNode -->
<g id="edge1" class="edge">
<title>ProcessingCell&#45;&gt;IEthernetNetworkNode</title>
<path fill="none" stroke="black" d="M114.36,-54.98C105.49,-47.15 92.13,-35.34 81.39,-25.86"/>
<polygon fill="black" stroke="black" points="83.63,-23.17 73.82,-19.17 78.99,-28.41 83.63,-23.17"/>
</g>
<!-- EthernetLink -->
<g id="node3" class="node">
<title>EthernetLink</title>
<g id="a_node3"><a xlink:href="../../../inet/doc/neddoc/inet.node.ethernet.EthernetLink.html" xlink:title="Channel EthernetLink" target="_parent">
<polygon fill="#d0ffd0" stroke="black" points="224,-19 146,-19 146,0 224,0 224,-19"/>
<text text-anchor="middle" x="185" y="-7" font-family="Helvetica,sans-Serif" font-size="10.00">EthernetLink</text>
</a>
</g>
</g>
<!-- ProcessingCell&#45;&gt;EthernetLink -->
<g id="edge2" class="edge">
<title>ProcessingCell&#45;&gt;EthernetLink</title>
<path fill="none" stroke="black" d="M133.8,-54.98C142.82,-47.15 156.41,-35.34 167.32,-25.86"/>
<polygon fill="black" stroke="black" points="169.77,-28.37 175.02,-19.17 165.18,-23.09 169.77,-28.37"/>
</g>
<!-- CooperativeManufacturing -->
<g id="node4" class="node">
<title>CooperativeManufacturing</title>
<g id="a_node4"><a xlink:href="d6g.simulations.cooperativemanufacturing.CooperativeManufacturing.html" xlink:title="Network CooperativeManufacturing" target="_parent">
<polygon fill="#d0d0ff" stroke="black" points="197,-129 51,-129 51,-110 197,-110 197,-129"/>
<text text-anchor="middle" x="124" y="-117" font-family="Helvetica,sans-Serif" font-size="10.00">CooperativeManufacturing</text>
</a>
</g>
</g>
<!-- CooperativeManufacturing&#45;&gt;ProcessingCell -->
<g id="edge3" class="edge">
<title>CooperativeManufacturing&#45;&gt;ProcessingCell</title>
<path fill="none" stroke="black" d="M124,-109.75C124,-102.8 124,-92.85 124,-84.13"/>
<polygon fill="black" stroke="black" points="127.5,-84.09 124,-74.09 120.5,-84.09 127.5,-84.09"/>
</g>
</g>
</svg>
