<?xml version="1.0" encoding="UTF-8" standalone="no"?>
<!DOCTYPE svg PUBLIC "-//W3C//DTD SVG 1.1//EN"
 "http://www.w3.org/Graphics/SVG/1.1/DTD/svg11.dtd">
<!-- Generated by graphviz version 2.43.0 (0)
 -->
<!-- Title: opp Pages: 1 -->
<svg width="430pt" height="82pt"
 viewBox="0.00 0.00 430.00 82.00" xmlns="http://www.w3.org/2000/svg" xmlns:xlink="http://www.w3.org/1999/xlink">
<g id="graph0" class="graph" transform="scale(1 1) rotate(0) translate(4 78)">
<title>opp</title>
<polygon fill="transparent" stroke="transparent" points="-4,4 -4,-78 426,-78 426,4 -4,4"/>
<!-- CooperativeManufacturing -->
<g id="node1" class="node">
<title>CooperativeManufacturing</title>
<g id="a_node1"><a xlink:href="d6g.simulations.cooperativemanufacturing.CooperativeManufacturing.html" xlink:title="Network CooperativeManufacturing" target="_parent">
<polygon fill="#9090ff" stroke="black" points="302,-74 156,-74 156,-55 302,-55 302,-74"/>
<text text-anchor="middle" x="229" y="-62" font-family="Helvetica,sans-Serif" font-size="10.00">CooperativeManufacturing</text>
</a>
</g>
</g>
<!-- ProcessingCell -->
<g id="node2" class="node">
<title>ProcessingCell</title>
<g id="a_node2"><a xlink:href="d6g.simulations.cooperativemanufacturing.ProcessingCell.html" xlink:title="Compound Module ProcessingCell" target="_parent">
<polygon fill="#fffcaf" stroke="black" points="88,-19 0,-19 0,0 88,0 88,-19"/>
<text text-anchor="middle" x="44" y="-7" font-family="Helvetica,sans-Serif" font-size="10.00">ProcessingCell</text>
</a>
</g>
</g>
<!-- CooperativeManufacturing&#45;&gt;ProcessingCell -->
<g id="edge1" class="edge">
<title>CooperativeManufacturing&#45;&gt;ProcessingCell</title>
<path fill="none" stroke="black" d="M199.28,-54.98C167.95,-46.01 118.43,-31.82 83.76,-21.89"/>
<polygon fill="black" stroke="black" points="84.53,-18.47 73.96,-19.08 82.61,-25.2 84.53,-18.47"/>
</g>
<!-- EthernetLink -->
<g id="node3" class="node">
<title>EthernetLink</title>
<g id="a_node3"><a xlink:href="../../../inet/doc/neddoc/inet.node.ethernet.EthernetLink.html" xlink:title="Channel EthernetLink" target="_parent">
<polygon fill="#d0ffd0" stroke="black" points="184,-19 106,-19 106,0 184,0 184,-19"/>
<text text-anchor="middle" x="145" y="-7" font-family="Helvetica,sans-Serif" font-size="10.00">EthernetLink</text>
</a>
</g>
</g>
<!-- CooperativeManufacturing&#45;&gt;EthernetLink -->
<g id="edge2" class="edge">
<title>CooperativeManufacturing&#45;&gt;EthernetLink</title>
<path fill="none" stroke="black" d="M215.5,-54.98C202.6,-46.84 182.9,-34.41 167.6,-24.76"/>
<polygon fill="black" stroke="black" points="169.07,-21.55 158.74,-19.17 165.33,-27.47 169.07,-21.55"/>
</g>
<!-- AGV -->
<g id="node4" class="node">
<title>AGV</title>
<g id="a_node4"><a xlink:href="d6g.simulations.cooperativemanufacturing.AGV.html" xlink:title="Compound Module AGV" target="_parent">
<polygon fill="#fffcaf" stroke="black" points="256,-19 202,-19 202,0 256,0 256,-19"/>
<text text-anchor="middle" x="229" y="-7" font-family="Helvetica,sans-Serif" font-size="10.00">AGV</text>
</a>
</g>
</g>
<!-- CooperativeManufacturing&#45;&gt;AGV -->
<g id="edge3" class="edge">
<title>CooperativeManufacturing&#45;&gt;AGV</title>
<path fill="none" stroke="black" d="M229,-54.75C229,-47.8 229,-37.85 229,-29.13"/>
<polygon fill="black" stroke="black" points="232.5,-29.09 229,-19.09 225.5,-29.09 232.5,-29.09"/>
</g>
<!-- DetCom -->
<g id="node5" class="node">
<title>DetCom</title>
<g id="a_node5"><a xlink:href="d6g.devices.sixg.DetCom.html" xlink:title="Compound Module DetCom" target="_parent">
<polygon fill="#fffcaf" stroke="black" points="330,-19 274,-19 274,0 330,0 330,-19"/>
<text text-anchor="middle" x="302" y="-7" font-family="Helvetica,sans-Serif" font-size="10.00">DetCom</text>
</a>
</g>
</g>
<!-- CooperativeManufacturing&#45;&gt;DetCom -->
<g id="edge4" class="edge">
<title>CooperativeManufacturing&#45;&gt;DetCom</title>
<path fill="none" stroke="black" d="M240.73,-54.98C251.73,-47 268.42,-34.88 281.6,-25.31"/>
<polygon fill="black" stroke="black" points="284.02,-27.88 290.06,-19.17 279.91,-22.21 284.02,-27.88"/>
</g>
<!-- NNIChannel -->
<g id="node6" class="node">
<title>NNIChannel</title>
<g id="a_node6"><a xlink:href="d6g.devices.sixg.NNIChannel.html" xlink:title="Channel NNIChannel" target="_parent">
<polygon fill="#d0ffd0" stroke="black" points="422,-19 348,-19 348,0 422,0 422,-19"/>
<text text-anchor="middle" x="385" y="-7" font-family="Helvetica,sans-Serif" font-size="10.00">NNIChannel</text>
</a>
</g>
</g>
<!-- CooperativeManufacturing&#45;&gt;NNIChannel -->
<g id="edge5" class="edge">
<title>CooperativeManufacturing&#45;&gt;NNIChannel</title>
<path fill="none" stroke="black" d="M254.06,-54.98C280.03,-46.16 320.81,-32.31 349.96,-22.41"/>
<polygon fill="black" stroke="black" points="351.4,-25.61 359.74,-19.08 349.15,-18.99 351.4,-25.61"/>
</g>
</g>
</svg>
