<?xml version="1.0" encoding="UTF-8" standalone="no"?>
<!DOCTYPE svg PUBLIC "-//W3C//DTD SVG 1.1//EN"
 "http://www.w3.org/Graphics/SVG/1.1/DTD/svg11.dtd">
<!-- Generated by graphviz version 2.43.0 (0)
 -->
<!-- Title: opp Pages: 1 -->
<svg width="619pt" height="82pt"
 viewBox="0.00 0.00 618.50 82.00" xmlns="http://www.w3.org/2000/svg" xmlns:xlink="http://www.w3.org/1999/xlink">
<g id="graph0" class="graph" transform="scale(1 1) rotate(0) translate(4 78)">
<title>opp</title>
<polygon fill="transparent" stroke="transparent" points="-4,4 -4,-78 614.5,-78 614.5,4 -4,4"/>
<!-- EdgeCloudNetwork -->
<g id="node1" class="node">
<title>EdgeCloudNetwork</title>
<g id="a_node1"><a xlink:href="d6g.simulations.edgecloud.EdgeCloudNetwork.html" xlink:title="Network EdgeCloudNetwork" target="_parent">
<polygon fill="#9090ff" stroke="black" points="381.5,-74 271.5,-74 271.5,-55 381.5,-55 381.5,-74"/>
<text text-anchor="middle" x="326.5" y="-62" font-family="Helvetica,sans-Serif" font-size="10.00">EdgeCloudNetwork</text>
</a>
</g>
</g>
<!-- DetComAdapter -->
<g id="node2" class="node">
<title>DetComAdapter</title>
<g id="a_node2"><a xlink:href="d6g.devices.sixg.DetComAdapter.html" xlink:title="Compound Module DetComAdapter" target="_parent">
<polygon fill="#fffcaf" stroke="black" points="95,-19 0,-19 0,0 95,0 95,-19"/>
<text text-anchor="middle" x="47.5" y="-7" font-family="Helvetica,sans-Serif" font-size="10.00">DetComAdapter</text>
</a>
</g>
</g>
<!-- EdgeCloudNetwork&#45;&gt;DetComAdapter -->
<g id="edge1" class="edge">
<title>EdgeCloudNetwork&#45;&gt;DetComAdapter</title>
<path fill="none" stroke="black" d="M281.67,-54.98C233.01,-45.74 155.24,-30.97 102.81,-21.01"/>
<polygon fill="black" stroke="black" points="103.16,-17.51 92.68,-19.08 101.85,-24.39 103.16,-17.51"/>
</g>
<!-- TsnSwitch -->
<g id="node3" class="node">
<title>TsnSwitch</title>
<g id="a_node3"><a xlink:href="../../../inet/doc/neddoc/inet.node.tsn.TsnSwitch.html" xlink:title="Compound Module TsnSwitch" target="_parent">
<polygon fill="#fffcaf" stroke="black" points="178,-19 113,-19 113,0 178,0 178,-19"/>
<text text-anchor="middle" x="145.5" y="-7" font-family="Helvetica,sans-Serif" font-size="10.00">TsnSwitch</text>
</a>
</g>
</g>
<!-- EdgeCloudNetwork&#45;&gt;TsnSwitch -->
<g id="edge2" class="edge">
<title>EdgeCloudNetwork&#45;&gt;TsnSwitch</title>
<path fill="none" stroke="black" d="M297.42,-54.98C266.9,-46.05 218.74,-31.94 184.84,-22.02"/>
<polygon fill="black" stroke="black" points="185.39,-18.53 174.81,-19.08 183.42,-25.25 185.39,-18.53"/>
</g>
<!-- EthernetLink -->
<g id="node4" class="node">
<title>EthernetLink</title>
<g id="a_node4"><a xlink:href="../../../inet/doc/neddoc/inet.node.ethernet.EthernetLink.html" xlink:title="Channel EthernetLink" target="_parent">
<polygon fill="#d0ffd0" stroke="black" points="274.5,-19 196.5,-19 196.5,0 274.5,0 274.5,-19"/>
<text text-anchor="middle" x="235.5" y="-7" font-family="Helvetica,sans-Serif" font-size="10.00">EthernetLink</text>
</a>
</g>
</g>
<!-- EdgeCloudNetwork&#45;&gt;EthernetLink -->
<g id="edge3" class="edge">
<title>EdgeCloudNetwork&#45;&gt;EthernetLink</title>
<path fill="none" stroke="black" d="M311.88,-54.98C297.64,-46.69 275.75,-33.94 259.05,-24.22"/>
<polygon fill="black" stroke="black" points="260.79,-21.18 250.39,-19.17 257.27,-27.23 260.79,-21.18"/>
</g>
<!-- Histogram -->
<g id="node5" class="node">
<title>Histogram</title>
<g id="a_node5"><a xlink:href="d6g.distribution.histogram.Histogram.html" xlink:title="Simple Module Histogram" target="_parent">
<polygon fill="#fffcaf" stroke="black" points="360.5,-19 292.5,-19 292.5,0 360.5,0 360.5,-19"/>
<text text-anchor="middle" x="326.5" y="-7" font-family="Helvetica,sans-Serif" font-size="10.00">Histogram</text>
</a>
</g>
</g>
<!-- EdgeCloudNetwork&#45;&gt;Histogram -->
<g id="edge4" class="edge">
<title>EdgeCloudNetwork&#45;&gt;Histogram</title>
<path fill="none" stroke="black" d="M326.5,-54.75C326.5,-47.8 326.5,-37.85 326.5,-29.13"/>
<polygon fill="black" stroke="black" points="330,-29.09 326.5,-19.09 323,-29.09 330,-29.09"/>
</g>
<!-- TsnDevice -->
<g id="node6" class="node">
<title>TsnDevice</title>
<g id="a_node6"><a xlink:href="../../../inet/doc/neddoc/inet.node.tsn.TsnDevice.html" xlink:title="Compound Module TsnDevice" target="_parent">
<polygon fill="#fffcaf" stroke="black" points="444.5,-19 378.5,-19 378.5,0 444.5,0 444.5,-19"/>
<text text-anchor="middle" x="411.5" y="-7" font-family="Helvetica,sans-Serif" font-size="10.00">TsnDevice</text>
</a>
</g>
</g>
<!-- EdgeCloudNetwork&#45;&gt;TsnDevice -->
<g id="edge5" class="edge">
<title>EdgeCloudNetwork&#45;&gt;TsnDevice</title>
<path fill="none" stroke="black" d="M340.16,-54.98C353.34,-46.77 373.53,-34.18 389.07,-24.49"/>
<polygon fill="black" stroke="black" points="390.96,-27.43 397.59,-19.17 387.26,-21.49 390.96,-27.43"/>
</g>
<!-- DetCom -->
<g id="node7" class="node">
<title>DetCom</title>
<g id="a_node7"><a xlink:href="d6g.devices.sixg.DetCom.html" xlink:title="Compound Module DetCom" target="_parent">
<polygon fill="#fffcaf" stroke="black" points="518.5,-19 462.5,-19 462.5,0 518.5,0 518.5,-19"/>
<text text-anchor="middle" x="490.5" y="-7" font-family="Helvetica,sans-Serif" font-size="10.00">DetCom</text>
</a>
</g>
</g>
<!-- EdgeCloudNetwork&#45;&gt;DetCom -->
<g id="edge6" class="edge">
<title>EdgeCloudNetwork&#45;&gt;DetCom</title>
<path fill="none" stroke="black" d="M352.85,-54.98C380.26,-46.13 423.39,-32.19 454.06,-22.28"/>
<polygon fill="black" stroke="black" points="455.5,-25.49 463.94,-19.08 453.35,-18.83 455.5,-25.49"/>
</g>
<!-- NNIChannel -->
<g id="node8" class="node">
<title>NNIChannel</title>
<g id="a_node8"><a xlink:href="d6g.devices.sixg.NNIChannel.html" xlink:title="Channel NNIChannel" target="_parent">
<polygon fill="#d0ffd0" stroke="black" points="610.5,-19 536.5,-19 536.5,0 610.5,0 610.5,-19"/>
<text text-anchor="middle" x="573.5" y="-7" font-family="Helvetica,sans-Serif" font-size="10.00">NNIChannel</text>
</a>
</g>
</g>
<!-- EdgeCloudNetwork&#45;&gt;NNIChannel -->
<g id="edge7" class="edge">
<title>EdgeCloudNetwork&#45;&gt;NNIChannel</title>
<path fill="none" stroke="black" d="M366.18,-54.98C409.89,-45.61 480.11,-30.54 526.52,-20.58"/>
<polygon fill="black" stroke="black" points="527.29,-23.99 536.34,-18.47 525.83,-17.15 527.29,-23.99"/>
</g>
</g>
</svg>
