<?xml version="1.0" encoding="UTF-8" standalone="no"?>
<!DOCTYPE svg PUBLIC "-//W3C//DTD SVG 1.1//EN"
 "http://www.w3.org/Graphics/SVG/1.1/DTD/svg11.dtd">
<!-- Generated by graphviz version 2.43.0 (0)
 -->
<!-- Title: opp Pages: 1 -->
<svg width="533pt" height="82pt"
 viewBox="0.00 0.00 532.50 82.00" xmlns="http://www.w3.org/2000/svg" xmlns:xlink="http://www.w3.org/1999/xlink">
<g id="graph0" class="graph" transform="scale(1 1) rotate(0) translate(4 78)">
<title>opp</title>
<polygon fill="transparent" stroke="transparent" points="-4,4 -4,-78 528.5,-78 528.5,4 -4,4"/>
<!-- Baseline -->
<g id="node1" class="node">
<title>Baseline</title>
<g id="a_node1"><a xlink:href="d6g.simulations.baseline.Baseline.html" xlink:title="Network Baseline" target="_parent">
<polygon fill="#9090ff" stroke="black" points="310,-74 251,-74 251,-55 310,-55 310,-74"/>
<text text-anchor="middle" x="280.5" y="-62" font-family="Helvetica,sans-Serif" font-size="10.00">Baseline</text>
</a>
</g>
</g>
<!-- DetComAdapter -->
<g id="node2" class="node">
<title>DetComAdapter</title>
<g id="a_node2"><a xlink:href="d6g.devices.sixg.DetComAdapter.html" xlink:title="Compound Module DetComAdapter" target="_parent">
<polygon fill="#fffcaf" stroke="black" points="95,-19 0,-19 0,0 95,0 95,-19"/>
<text text-anchor="middle" x="47.5" y="-7" font-family="Helvetica,sans-Serif" font-size="10.00">DetComAdapter</text>
</a>
</g>
</g>
<!-- Baseline&#45;&gt;DetComAdapter -->
<g id="edge1" class="edge">
<title>Baseline&#45;&gt;DetComAdapter</title>
<path fill="none" stroke="black" d="M250.99,-56.79C211.75,-47.86 141.9,-31.97 95.14,-21.34"/>
<polygon fill="black" stroke="black" points="95.77,-17.89 85.24,-19.09 94.22,-24.72 95.77,-17.89"/>
</g>
<!-- TsnSwitch -->
<g id="node3" class="node">
<title>TsnSwitch</title>
<g id="a_node3"><a xlink:href="../../../inet/doc/neddoc/inet.node.tsn.TsnSwitch.html" xlink:title="Compound Module TsnSwitch" target="_parent">
<polygon fill="#fffcaf" stroke="black" points="178,-19 113,-19 113,0 178,0 178,-19"/>
<text text-anchor="middle" x="145.5" y="-7" font-family="Helvetica,sans-Serif" font-size="10.00">TsnSwitch</text>
</a>
</g>
</g>
<!-- Baseline&#45;&gt;TsnSwitch -->
<g id="edge2" class="edge">
<title>Baseline&#45;&gt;TsnSwitch</title>
<path fill="none" stroke="black" d="M258.81,-54.98C236.7,-46.3 202.18,-32.75 177.05,-22.88"/>
<polygon fill="black" stroke="black" points="178.17,-19.57 167.58,-19.17 175.61,-26.08 178.17,-19.57"/>
</g>
<!-- EthernetLink -->
<g id="node4" class="node">
<title>EthernetLink</title>
<g id="a_node4"><a xlink:href="../../../inet/doc/neddoc/inet.node.ethernet.EthernetLink.html" xlink:title="Channel EthernetLink" target="_parent">
<polygon fill="#d0ffd0" stroke="black" points="274.5,-19 196.5,-19 196.5,0 274.5,0 274.5,-19"/>
<text text-anchor="middle" x="235.5" y="-7" font-family="Helvetica,sans-Serif" font-size="10.00">EthernetLink</text>
</a>
</g>
</g>
<!-- Baseline&#45;&gt;EthernetLink -->
<g id="edge3" class="edge">
<title>Baseline&#45;&gt;EthernetLink</title>
<path fill="none" stroke="black" d="M273.07,-54.75C266.65,-47.18 257.19,-36.05 249.38,-26.84"/>
<polygon fill="black" stroke="black" points="251.93,-24.45 242.79,-19.09 246.6,-28.98 251.93,-24.45"/>
</g>
<!-- TsnDevice -->
<g id="node5" class="node">
<title>TsnDevice</title>
<g id="a_node5"><a xlink:href="../../../inet/doc/neddoc/inet.node.tsn.TsnDevice.html" xlink:title="Compound Module TsnDevice" target="_parent">
<polygon fill="#fffcaf" stroke="black" points="358.5,-19 292.5,-19 292.5,0 358.5,0 358.5,-19"/>
<text text-anchor="middle" x="325.5" y="-7" font-family="Helvetica,sans-Serif" font-size="10.00">TsnDevice</text>
</a>
</g>
</g>
<!-- Baseline&#45;&gt;TsnDevice -->
<g id="edge4" class="edge">
<title>Baseline&#45;&gt;TsnDevice</title>
<path fill="none" stroke="black" d="M287.93,-54.75C294.35,-47.18 303.81,-36.05 311.62,-26.84"/>
<polygon fill="black" stroke="black" points="314.4,-28.98 318.21,-19.09 309.07,-24.45 314.4,-28.98"/>
</g>
<!-- DetCom -->
<g id="node6" class="node">
<title>DetCom</title>
<g id="a_node6"><a xlink:href="d6g.devices.sixg.DetCom.html" xlink:title="Compound Module DetCom" target="_parent">
<polygon fill="#fffcaf" stroke="black" points="432.5,-19 376.5,-19 376.5,0 432.5,0 432.5,-19"/>
<text text-anchor="middle" x="404.5" y="-7" font-family="Helvetica,sans-Serif" font-size="10.00">DetCom</text>
</a>
</g>
</g>
<!-- Baseline&#45;&gt;DetCom -->
<g id="edge5" class="edge">
<title>Baseline&#45;&gt;DetCom</title>
<path fill="none" stroke="black" d="M300.42,-54.98C320.55,-46.38 351.88,-32.99 374.91,-23.15"/>
<polygon fill="black" stroke="black" points="376.4,-26.32 384.21,-19.17 373.64,-19.88 376.4,-26.32"/>
</g>
<!-- NNIChannel -->
<g id="node7" class="node">
<title>NNIChannel</title>
<g id="a_node7"><a xlink:href="d6g.devices.sixg.NNIChannel.html" xlink:title="Channel NNIChannel" target="_parent">
<polygon fill="#d0ffd0" stroke="black" points="524.5,-19 450.5,-19 450.5,0 524.5,0 524.5,-19"/>
<text text-anchor="middle" x="487.5" y="-7" font-family="Helvetica,sans-Serif" font-size="10.00">NNIChannel</text>
</a>
</g>
</g>
<!-- Baseline&#45;&gt;NNIChannel -->
<g id="edge6" class="edge">
<title>Baseline&#45;&gt;NNIChannel</title>
<path fill="none" stroke="black" d="M310.16,-55.91C345.3,-46.91 404.14,-31.84 444.33,-21.55"/>
<polygon fill="black" stroke="black" points="445.31,-24.92 454.13,-19.05 443.57,-18.14 445.31,-24.92"/>
</g>
</g>
</svg>
