<?xml version="1.0" encoding="UTF-8" standalone="no"?>
<!DOCTYPE svg PUBLIC "-//W3C//DTD SVG 1.1//EN"
 "http://www.w3.org/Graphics/SVG/1.1/DTD/svg11.dtd">
<!-- Generated by graphviz version 2.43.0 (0)
 -->
<!-- Title: opp Pages: 1 -->
<svg width="541pt" height="82pt"
 viewBox="0.00 0.00 541.00 82.00" xmlns="http://www.w3.org/2000/svg" xmlns:xlink="http://www.w3.org/1999/xlink">
<g id="graph0" class="graph" transform="scale(1 1) rotate(0) translate(4 78)">
<title>opp</title>
<polygon fill="transparent" stroke="transparent" points="-4,4 -4,-78 537,-78 537,4 -4,4"/>
<!-- DirectionReverserLayer -->
<g id="node1" class="node">
<title>DirectionReverserLayer</title>
<g id="a_node1"><a xlink:href="inet.linklayer.ethernet.common.DirectionReverserLayer.html" xlink:title="Compound Module DirectionReverserLayer" target="_parent">
<polygon fill="#fff700" stroke="black" points="334,-74 203,-74 203,-55 334,-55 334,-74"/>
<text text-anchor="middle" x="268.5" y="-62" font-family="Helvetica,sans-Serif" font-size="10.00">DirectionReverserLayer</text>
</a>
</g>
</g>
<!-- MessageDispatcher -->
<g id="node2" class="node">
<title>MessageDispatcher</title>
<g id="a_node2"><a xlink:href="inet.common.MessageDispatcher.html" xlink:title="Simple Module MessageDispatcher" target="_parent">
<polygon fill="#fffcaf" stroke="black" points="113,-19 0,-19 0,0 113,0 113,-19"/>
<text text-anchor="middle" x="56.5" y="-7" font-family="Helvetica,sans-Serif" font-size="10.00">MessageDispatcher</text>
</a>
</g>
</g>
<!-- DirectionReverserLayer&#45;&gt;MessageDispatcher -->
<g id="edge1" class="edge">
<title>DirectionReverserLayer&#45;&gt;MessageDispatcher</title>
<path fill="none" stroke="black" d="M234.44,-54.98C198.08,-45.89 140.33,-31.46 100.53,-21.51"/>
<polygon fill="black" stroke="black" points="101.38,-18.11 90.83,-19.08 99.68,-24.9 101.38,-18.11"/>
</g>
<!-- IPacketFlow -->
<g id="node3" class="node">
<title>IPacketFlow</title>
<g id="a_node3"><a xlink:href="inet.queueing.contract.IPacketFlow.html" xlink:title="Module Interface IPacketFlow" target="_parent">
<polygon fill="#fffcaf" stroke="black" stroke-dasharray="5,2" points="205.5,-19 131.5,-19 131.5,0 205.5,0 205.5,-19"/>
<text text-anchor="middle" x="168.5" y="-7" font-family="Helvetica,sans-Serif" font-size="10.00">IPacketFlow</text>
</a>
</g>
</g>
<!-- DirectionReverserLayer&#45;&gt;IPacketFlow -->
<g id="edge2" class="edge">
<title>DirectionReverserLayer&#45;&gt;IPacketFlow</title>
<path fill="none" stroke="black" d="M252.43,-54.98C236.64,-46.61 212.28,-33.7 193.87,-23.95"/>
<polygon fill="black" stroke="black" points="195.33,-20.76 184.86,-19.17 192.06,-26.95 195.33,-20.76"/>
</g>
<!-- IPacketDelayer -->
<g id="node4" class="node">
<title>IPacketDelayer</title>
<g id="a_node4"><a xlink:href="inet.queueing.contract.IPacketDelayer.html" xlink:title="Module Interface IPacketDelayer" target="_parent">
<polygon fill="#fffcaf" stroke="black" stroke-dasharray="5,2" points="313,-19 224,-19 224,0 313,0 313,-19"/>
<text text-anchor="middle" x="268.5" y="-7" font-family="Helvetica,sans-Serif" font-size="10.00">IPacketDelayer</text>
</a>
</g>
</g>
<!-- DirectionReverserLayer&#45;&gt;IPacketDelayer -->
<g id="edge3" class="edge">
<title>DirectionReverserLayer&#45;&gt;IPacketDelayer</title>
<path fill="none" stroke="black" d="M268.5,-54.75C268.5,-47.8 268.5,-37.85 268.5,-29.13"/>
<polygon fill="black" stroke="black" points="272,-29.09 268.5,-19.09 265,-29.09 272,-29.09"/>
</g>
<!-- IdealChannel -->
<g id="node5" class="node">
<title>IdealChannel</title>
<g id="a_node5"><a xlink:href="ned.IdealChannel.html" xlink:title="Channel IdealChannel" target="_parent">
<polygon fill="#d0ffd0" stroke="black" points="411.5,-19 331.5,-19 331.5,0 411.5,0 411.5,-19"/>
<text text-anchor="middle" x="371.5" y="-7" font-family="Helvetica,sans-Serif" font-size="10.00">IdealChannel</text>
</a>
</g>
</g>
<!-- DirectionReverserLayer&#45;&gt;IdealChannel -->
<g id="edge4" class="edge">
<title>DirectionReverserLayer&#45;&gt;IdealChannel</title>
<path fill="none" stroke="black" d="M285.05,-54.98C301.39,-46.57 326.63,-33.59 345.63,-23.81"/>
<polygon fill="black" stroke="black" points="347.36,-26.86 354.65,-19.17 344.16,-20.63 347.36,-26.86"/>
</g>
<!-- PacketMultiplexer -->
<g id="node6" class="node">
<title>PacketMultiplexer</title>
<g id="a_node6"><a xlink:href="inet.queueing.common.PacketMultiplexer.html" xlink:title="Simple Module PacketMultiplexer" target="_parent">
<polygon fill="#fffcaf" stroke="black" points="533,-19 430,-19 430,0 533,0 533,-19"/>
<text text-anchor="middle" x="481.5" y="-7" font-family="Helvetica,sans-Serif" font-size="10.00">PacketMultiplexer</text>
</a>
</g>
</g>
<!-- DirectionReverserLayer&#45;&gt;PacketMultiplexer -->
<g id="edge5" class="edge">
<title>DirectionReverserLayer&#45;&gt;PacketMultiplexer</title>
<path fill="none" stroke="black" d="M302.72,-54.98C339.26,-45.89 397.28,-31.46 437.26,-21.51"/>
<polygon fill="black" stroke="black" points="438.15,-24.89 447.01,-19.08 436.46,-18.1 438.15,-24.89"/>
</g>
</g>
</svg>
