<?xml version="1.0" encoding="UTF-8" standalone="no"?>
<!DOCTYPE svg PUBLIC "-//W3C//DTD SVG 1.1//EN"
 "http://www.w3.org/Graphics/SVG/1.1/DTD/svg11.dtd">
<!-- Generated by graphviz version 2.43.0 (0)
 -->
<!-- Title: opp Pages: 1 -->
<svg width="438pt" height="82pt"
 viewBox="0.00 0.00 438.00 82.00" xmlns="http://www.w3.org/2000/svg" xmlns:xlink="http://www.w3.org/1999/xlink">
<g id="graph0" class="graph" transform="scale(1 1) rotate(0) translate(4 78)">
<title>opp</title>
<polygon fill="transparent" stroke="transparent" points="-4,4 -4,-78 434,-78 434,4 -4,4"/>
<!-- LeakyBucketTutorialStep -->
<g id="node1" class="node">
<title>LeakyBucketTutorialStep</title>
<g id="a_node1"><a xlink:href="inet.tutorials.queueing.LeakyBucketTutorialStep.html" xlink:title="Network LeakyBucketTutorialStep" target="_parent">
<polygon fill="#9090ff" stroke="black" points="272,-74 136,-74 136,-55 272,-55 272,-74"/>
<text text-anchor="middle" x="204" y="-62" font-family="Helvetica,sans-Serif" font-size="10.00">LeakyBucketTutorialStep</text>
</a>
</g>
</g>
<!-- LeakyBucket -->
<g id="node2" class="node">
<title>LeakyBucket</title>
<g id="a_node2"><a xlink:href="inet.queueing.shaper.LeakyBucket.html" xlink:title="Compound Module LeakyBucket" target="_parent">
<polygon fill="#fffcaf" stroke="black" points="78,-19 0,-19 0,0 78,0 78,-19"/>
<text text-anchor="middle" x="39" y="-7" font-family="Helvetica,sans-Serif" font-size="10.00">LeakyBucket</text>
</a>
</g>
</g>
<!-- LeakyBucketTutorialStep&#45;&gt;LeakyBucket -->
<g id="edge1" class="edge">
<title>LeakyBucketTutorialStep&#45;&gt;LeakyBucket</title>
<path fill="none" stroke="black" d="M177.49,-54.98C149.79,-46.09 106.14,-32.07 75.26,-22.15"/>
<polygon fill="black" stroke="black" points="76.31,-18.81 65.72,-19.08 74.17,-25.47 76.31,-18.81"/>
</g>
<!-- PassivePacketSink -->
<g id="node3" class="node">
<title>PassivePacketSink</title>
<g id="a_node3"><a xlink:href="inet.queueing.sink.PassivePacketSink.html" xlink:title="Simple Module PassivePacketSink" target="_parent">
<polygon fill="#fffcaf" stroke="black" points="202,-19 96,-19 96,0 202,0 202,-19"/>
<text text-anchor="middle" x="149" y="-7" font-family="Helvetica,sans-Serif" font-size="10.00">PassivePacketSink</text>
</a>
</g>
</g>
<!-- LeakyBucketTutorialStep&#45;&gt;PassivePacketSink -->
<g id="edge2" class="edge">
<title>LeakyBucketTutorialStep&#45;&gt;PassivePacketSink</title>
<path fill="none" stroke="black" d="M194.92,-54.75C186.91,-47.03 175.04,-35.6 165.38,-26.28"/>
<polygon fill="black" stroke="black" points="167.54,-23.51 157.91,-19.09 162.69,-28.55 167.54,-23.51"/>
</g>
<!-- IdealChannel -->
<g id="node4" class="node">
<title>IdealChannel</title>
<g id="a_node4"><a xlink:href="ned.IdealChannel.html" xlink:title="Channel IdealChannel" target="_parent">
<polygon fill="#d0ffd0" stroke="black" points="300,-19 220,-19 220,0 300,0 300,-19"/>
<text text-anchor="middle" x="260" y="-7" font-family="Helvetica,sans-Serif" font-size="10.00">IdealChannel</text>
</a>
</g>
</g>
<!-- LeakyBucketTutorialStep&#45;&gt;IdealChannel -->
<g id="edge3" class="edge">
<title>LeakyBucketTutorialStep&#45;&gt;IdealChannel</title>
<path fill="none" stroke="black" d="M213,-54.98C221.19,-47.23 233.51,-35.58 243.47,-26.14"/>
<polygon fill="black" stroke="black" points="245.98,-28.59 250.84,-19.17 241.17,-23.5 245.98,-28.59"/>
</g>
<!-- ActivePacketSource -->
<g id="node5" class="node">
<title>ActivePacketSource</title>
<g id="a_node5"><a xlink:href="inet.queueing.source.ActivePacketSource.html" xlink:title="Simple Module ActivePacketSource" target="_parent">
<polygon fill="#fffcaf" stroke="black" points="430,-19 318,-19 318,0 430,0 430,-19"/>
<text text-anchor="middle" x="374" y="-7" font-family="Helvetica,sans-Serif" font-size="10.00">ActivePacketSource</text>
</a>
</g>
</g>
<!-- LeakyBucketTutorialStep&#45;&gt;ActivePacketSource -->
<g id="edge4" class="edge">
<title>LeakyBucketTutorialStep&#45;&gt;ActivePacketSource</title>
<path fill="none" stroke="black" d="M231.31,-54.98C259.85,-46.09 304.83,-32.07 336.64,-22.15"/>
<polygon fill="black" stroke="black" points="337.97,-25.4 346.47,-19.08 335.88,-18.72 337.97,-25.4"/>
</g>
</g>
</svg>
