<?xml version="1.0" encoding="UTF-8" standalone="no"?>
<!DOCTYPE svg PUBLIC "-//W3C//DTD SVG 1.1//EN"
 "http://www.w3.org/Graphics/SVG/1.1/DTD/svg11.dtd">
<!-- Generated by graphviz version 2.43.0 (0)
 -->
<!-- Title: opp Pages: 1 -->
<svg width="548pt" height="82pt"
 viewBox="0.00 0.00 548.00 82.00" xmlns="http://www.w3.org/2000/svg" xmlns:xlink="http://www.w3.org/1999/xlink">
<g id="graph0" class="graph" transform="scale(1 1) rotate(0) translate(4 78)">
<title>opp</title>
<polygon fill="transparent" stroke="transparent" points="-4,4 -4,-78 544,-78 544,4 -4,4"/>
<!-- AnalogModelShowcaseRoutingNetwork -->
<g id="node1" class="node">
<title>AnalogModelShowcaseRoutingNetwork</title>
<g id="a_node1"><a xlink:href="inet.showcases.wireless.analogmodel.AnalogModelShowcaseRoutingNetwork.html" xlink:title="Network AnalogModelShowcaseRoutingNetwork" target="_parent">
<polygon fill="#9090ff" stroke="black" points="352,-74 144,-74 144,-55 352,-55 352,-74"/>
<text text-anchor="middle" x="248" y="-62" font-family="Helvetica,sans-Serif" font-size="10.00">AnalogModelShowcaseRoutingNetwork</text>
</a>
</g>
</g>
<!-- UnitDiskRadioMedium -->
<g id="node2" class="node">
<title>UnitDiskRadioMedium</title>
<g id="a_node2"><a xlink:href="inet.physicallayer.wireless.unitdisk.UnitDiskRadioMedium.html" xlink:title="Compound Module UnitDiskRadioMedium" target="_parent">
<polygon fill="#fffcaf" stroke="black" points="126,-19 0,-19 0,0 126,0 126,-19"/>
<text text-anchor="middle" x="63" y="-7" font-family="Helvetica,sans-Serif" font-size="10.00">UnitDiskRadioMedium</text>
</a>
</g>
</g>
<!-- AnalogModelShowcaseRoutingNetwork&#45;&gt;UnitDiskRadioMedium -->
<g id="edge1" class="edge">
<title>AnalogModelShowcaseRoutingNetwork&#45;&gt;UnitDiskRadioMedium</title>
<path fill="none" stroke="black" d="M218.28,-54.98C186.95,-46.01 137.43,-31.82 102.76,-21.89"/>
<polygon fill="black" stroke="black" points="103.53,-18.47 92.96,-19.08 101.61,-25.2 103.53,-18.47"/>
</g>
<!-- ManetRouter -->
<g id="node3" class="node">
<title>ManetRouter</title>
<g id="a_node3"><a xlink:href="inet.node.inet.ManetRouter.html" xlink:title="Compound Module ManetRouter" target="_parent">
<polygon fill="#fffcaf" stroke="black" points="224,-19 144,-19 144,0 224,0 224,-19"/>
<text text-anchor="middle" x="184" y="-7" font-family="Helvetica,sans-Serif" font-size="10.00">ManetRouter</text>
</a>
</g>
</g>
<!-- AnalogModelShowcaseRoutingNetwork&#45;&gt;ManetRouter -->
<g id="edge2" class="edge">
<title>AnalogModelShowcaseRoutingNetwork&#45;&gt;ManetRouter</title>
<path fill="none" stroke="black" d="M237.72,-54.98C228.16,-47.07 213.72,-35.11 202.22,-25.58"/>
<polygon fill="black" stroke="black" points="204.4,-22.85 194.47,-19.17 199.94,-28.24 204.4,-22.85"/>
</g>
<!-- Ipv4NetworkConfigurator -->
<g id="node4" class="node">
<title>Ipv4NetworkConfigurator</title>
<g id="a_node4"><a xlink:href="inet.networklayer.configurator.ipv4.Ipv4NetworkConfigurator.html" xlink:title="Simple Module Ipv4NetworkConfigurator" target="_parent">
<polygon fill="#fffcaf" stroke="black" points="381.5,-19 242.5,-19 242.5,0 381.5,0 381.5,-19"/>
<text text-anchor="middle" x="312" y="-7" font-family="Helvetica,sans-Serif" font-size="10.00">Ipv4NetworkConfigurator</text>
</a>
</g>
</g>
<!-- AnalogModelShowcaseRoutingNetwork&#45;&gt;Ipv4NetworkConfigurator -->
<g id="edge3" class="edge">
<title>AnalogModelShowcaseRoutingNetwork&#45;&gt;Ipv4NetworkConfigurator</title>
<path fill="none" stroke="black" d="M258.28,-54.98C267.84,-47.07 282.28,-35.11 293.78,-25.58"/>
<polygon fill="black" stroke="black" points="296.06,-28.24 301.53,-19.17 291.6,-22.85 296.06,-28.24"/>
</g>
<!-- IntegratedMultiVisualizer -->
<g id="node5" class="node">
<title>IntegratedMultiVisualizer</title>
<g id="a_node5"><a xlink:href="inet.visualizer.common.IntegratedMultiVisualizer.html" xlink:title="Compound Module IntegratedMultiVisualizer" target="_parent">
<polygon fill="#fffcaf" stroke="black" points="540,-19 400,-19 400,0 540,0 540,-19"/>
<text text-anchor="middle" x="470" y="-7" font-family="Helvetica,sans-Serif" font-size="10.00">IntegratedMultiVisualizer</text>
</a>
</g>
</g>
<!-- AnalogModelShowcaseRoutingNetwork&#45;&gt;IntegratedMultiVisualizer -->
<g id="edge4" class="edge">
<title>AnalogModelShowcaseRoutingNetwork&#45;&gt;IntegratedMultiVisualizer</title>
<path fill="none" stroke="black" d="M283.67,-54.98C321.83,-45.87 382.47,-31.4 424.15,-21.45"/>
<polygon fill="black" stroke="black" points="425.14,-24.81 434.05,-19.08 423.51,-18 425.14,-24.81"/>
</g>
</g>
</svg>
