<?xml version="1.0" encoding="UTF-8" standalone="no"?>
<!DOCTYPE svg PUBLIC "-//W3C//DTD SVG 1.1//EN"
 "http://www.w3.org/Graphics/SVG/1.1/DTD/svg11.dtd">
<!-- Generated by graphviz version 2.43.0 (0)
 -->
<!-- Title: opp Pages: 1 -->
<svg width="184pt" height="137pt"
 viewBox="0.00 0.00 184.00 137.00" xmlns="http://www.w3.org/2000/svg" xmlns:xlink="http://www.w3.org/1999/xlink">
<g id="graph0" class="graph" transform="scale(1 1) rotate(0) translate(4 133)">
<title>opp</title>
<polygon fill="transparent" stroke="transparent" points="-4,4 -4,-133 180,-133 180,4 -4,4"/>
<!-- IIeee8021rTagEpdHeaderInserter -->
<g id="node1" class="node">
<title>IIeee8021rTagEpdHeaderInserter</title>
<g id="a_node1"><a xlink:href="inet.linklayer.ieee8021r.IIeee8021rTagEpdHeaderInserter.html" xlink:title="Module Interface IIeee8021rTagEpdHeaderInserter" target="_parent">
<polygon fill="#fff700" stroke="black" stroke-dasharray="5,2" points="176,-74 0,-74 0,-55 176,-55 176,-74"/>
<text text-anchor="middle" x="88" y="-62" font-family="Helvetica,sans-Serif" font-size="10.00">IIeee8021rTagEpdHeaderInserter</text>
</a>
</g>
</g>
<!-- Ieee8021rTagEpdHeaderInserter -->
<g id="node3" class="node">
<title>Ieee8021rTagEpdHeaderInserter</title>
<g id="a_node3"><a xlink:href="inet.linklayer.ieee8021r.Ieee8021rTagEpdHeaderInserter.html" xlink:title="Simple Module Ieee8021rTagEpdHeaderInserter" target="_parent">
<polygon fill="#fffcaf" stroke="black" points="174.5,-19 1.5,-19 1.5,0 174.5,0 174.5,-19"/>
<text text-anchor="middle" x="88" y="-7" font-family="Helvetica,sans-Serif" font-size="10.00">Ieee8021rTagEpdHeaderInserter</text>
</a>
</g>
</g>
<!-- IIeee8021rTagEpdHeaderInserter&#45;&gt;Ieee8021rTagEpdHeaderInserter -->
<g id="edge2" class="edge">
<title>IIeee8021rTagEpdHeaderInserter&#45;&gt;Ieee8021rTagEpdHeaderInserter</title>
<path fill="none" stroke="black" stroke-dasharray="5,2" d="M88,-54.75C88,-44.87 88,-28.9 88,-19.09"/>
</g>
<!-- IProtocolHeaderInserter -->
<g id="node2" class="node">
<title>IProtocolHeaderInserter</title>
<g id="a_node2"><a xlink:href="inet.protocolelement.contract.IProtocolHeaderInserter.html" xlink:title="Module Interface IProtocolHeaderInserter" target="_parent">
<polygon fill="#fffcaf" stroke="black" stroke-dasharray="5,2" points="154,-129 22,-129 22,-110 154,-110 154,-129"/>
<text text-anchor="middle" x="88" y="-117" font-family="Helvetica,sans-Serif" font-size="10.00">IProtocolHeaderInserter</text>
</a>
</g>
</g>
<!-- IProtocolHeaderInserter&#45;&gt;IIeee8021rTagEpdHeaderInserter -->
<g id="edge1" class="edge">
<title>IProtocolHeaderInserter&#45;&gt;IIeee8021rTagEpdHeaderInserter</title>
<path fill="none" stroke="black" d="M88,-109.75C88,-99.87 88,-83.9 88,-74.09"/>
</g>
</g>
</svg>
