<?xml version="1.0" encoding="UTF-8" standalone="no"?>
<!DOCTYPE svg PUBLIC "-//W3C//DTD SVG 1.1//EN"
 "http://www.w3.org/Graphics/SVG/1.1/DTD/svg11.dtd">
<!-- Generated by graphviz version 2.43.0 (0)
 -->
<!-- Title: opp Pages: 1 -->
<svg width="391pt" height="82pt"
 viewBox="0.00 0.00 391.00 82.00" xmlns="http://www.w3.org/2000/svg" xmlns:xlink="http://www.w3.org/1999/xlink">
<g id="graph0" class="graph" transform="scale(1 1) rotate(0) translate(4 78)">
<title>opp</title>
<polygon fill="transparent" stroke="transparent" points="-4,4 -4,-78 387,-78 387,4 -4,4"/>
<!-- CorruptionModeExample -->
<g id="node1" class="node">
<title>CorruptionModeExample</title>
<g id="a_node1"><a xlink:href="inet.examples.wireless.corruptionmode.CorruptionModeExample.html" xlink:title="Network CorruptionModeExample" target="_parent">
<polygon fill="#9090ff" stroke="black" points="295,-74 158,-74 158,-55 295,-55 295,-74"/>
<text text-anchor="middle" x="226.5" y="-62" font-family="Helvetica,sans-Serif" font-size="10.00">CorruptionModeExample</text>
</a>
</g>
</g>
<!-- Ipv4NetworkConfigurator -->
<g id="node2" class="node">
<title>Ipv4NetworkConfigurator</title>
<g id="a_node2"><a xlink:href="inet.networklayer.configurator.ipv4.Ipv4NetworkConfigurator.html" xlink:title="Simple Module Ipv4NetworkConfigurator" target="_parent">
<polygon fill="#fffcaf" stroke="black" points="139,-19 0,-19 0,0 139,0 139,-19"/>
<text text-anchor="middle" x="69.5" y="-7" font-family="Helvetica,sans-Serif" font-size="10.00">Ipv4NetworkConfigurator</text>
</a>
</g>
</g>
<!-- CorruptionModeExample&#45;&gt;Ipv4NetworkConfigurator -->
<g id="edge1" class="edge">
<title>CorruptionModeExample&#45;&gt;Ipv4NetworkConfigurator</title>
<path fill="none" stroke="black" d="M201.28,-54.98C175.14,-46.16 134.1,-32.31 104.77,-22.41"/>
<polygon fill="black" stroke="black" points="105.52,-18.96 94.92,-19.08 103.28,-25.6 105.52,-18.96"/>
</g>
<!-- ApskScalarRadioMedium -->
<g id="node3" class="node">
<title>ApskScalarRadioMedium</title>
<g id="a_node3"><a xlink:href="inet.physicallayer.wireless.apsk.packetlevel.ApskScalarRadioMedium.html" xlink:title="Compound Module ApskScalarRadioMedium" target="_parent">
<polygon fill="#fffcaf" stroke="black" points="295.5,-19 157.5,-19 157.5,0 295.5,0 295.5,-19"/>
<text text-anchor="middle" x="226.5" y="-7" font-family="Helvetica,sans-Serif" font-size="10.00">ApskScalarRadioMedium</text>
</a>
</g>
</g>
<!-- CorruptionModeExample&#45;&gt;ApskScalarRadioMedium -->
<g id="edge2" class="edge">
<title>CorruptionModeExample&#45;&gt;ApskScalarRadioMedium</title>
<path fill="none" stroke="black" d="M226.5,-54.75C226.5,-47.8 226.5,-37.85 226.5,-29.13"/>
<polygon fill="black" stroke="black" points="230,-29.09 226.5,-19.09 223,-29.09 230,-29.09"/>
</g>
<!-- AdhocHost -->
<g id="node4" class="node">
<title>AdhocHost</title>
<g id="a_node4"><a xlink:href="inet.node.inet.AdhocHost.html" xlink:title="Compound Module AdhocHost" target="_parent">
<polygon fill="#fffcaf" stroke="black" points="383,-19 314,-19 314,0 383,0 383,-19"/>
<text text-anchor="middle" x="348.5" y="-7" font-family="Helvetica,sans-Serif" font-size="10.00">AdhocHost</text>
</a>
</g>
</g>
<!-- CorruptionModeExample&#45;&gt;AdhocHost -->
<g id="edge3" class="edge">
<title>CorruptionModeExample&#45;&gt;AdhocHost</title>
<path fill="none" stroke="black" d="M246.1,-54.98C265.82,-46.42 296.45,-33.11 319.08,-23.28"/>
<polygon fill="black" stroke="black" points="320.76,-26.37 328.54,-19.17 317.98,-19.94 320.76,-26.37"/>
</g>
</g>
</svg>
