<?xml version="1.0" encoding="UTF-8" standalone="no"?>
<!DOCTYPE svg PUBLIC "-//W3C//DTD SVG 1.1//EN"
 "http://www.w3.org/Graphics/SVG/1.1/DTD/svg11.dtd">
<!-- Generated by graphviz version 2.43.0 (0)
 -->
<!-- Title: opp Pages: 1 -->
<svg width="222pt" height="82pt"
 viewBox="0.00 0.00 221.50 82.00" xmlns="http://www.w3.org/2000/svg" xmlns:xlink="http://www.w3.org/1999/xlink">
<g id="graph0" class="graph" transform="scale(1 1) rotate(0) translate(4 78)">
<title>opp</title>
<polygon fill="transparent" stroke="transparent" points="-4,4 -4,-78 217.5,-78 217.5,4 -4,4"/>
<!-- SourceApp -->
<g id="node1" class="node">
<title>SourceApp</title>
<g id="a_node1"><a xlink:href="inet.applications.common.SourceApp.html" xlink:title="Compound Module SourceApp" target="_parent">
<polygon fill="#fff700" stroke="black" points="149.5,-74 81.5,-74 81.5,-55 149.5,-55 149.5,-74"/>
<text text-anchor="middle" x="115.5" y="-62" font-family="Helvetica,sans-Serif" font-size="10.00">SourceApp</text>
</a>
</g>
</g>
<!-- IActivePacketSource -->
<g id="node2" class="node">
<title>IActivePacketSource</title>
<g id="a_node2"><a xlink:href="inet.queueing.contract.IActivePacketSource.html" xlink:title="Module Interface IActivePacketSource" target="_parent">
<polygon fill="#fffcaf" stroke="black" stroke-dasharray="5,2" points="115,-19 0,-19 0,0 115,0 115,-19"/>
<text text-anchor="middle" x="57.5" y="-7" font-family="Helvetica,sans-Serif" font-size="10.00">IActivePacketSource</text>
</a>
</g>
</g>
<!-- SourceApp&#45;&gt;IActivePacketSource -->
<g id="edge1" class="edge">
<title>SourceApp&#45;&gt;IActivePacketSource</title>
<path fill="none" stroke="black" d="M106.18,-54.98C97.69,-47.23 84.94,-35.58 74.62,-26.14"/>
<polygon fill="black" stroke="black" points="76.73,-23.33 66.99,-19.17 72.01,-28.5 76.73,-23.33"/>
</g>
<!-- IdealChannel -->
<g id="node3" class="node">
<title>IdealChannel</title>
<g id="a_node3"><a xlink:href="ned.IdealChannel.html" xlink:title="Channel IdealChannel" target="_parent">
<polygon fill="#d0ffd0" stroke="black" points="213.5,-19 133.5,-19 133.5,0 213.5,0 213.5,-19"/>
<text text-anchor="middle" x="173.5" y="-7" font-family="Helvetica,sans-Serif" font-size="10.00">IdealChannel</text>
</a>
</g>
</g>
<!-- SourceApp&#45;&gt;IdealChannel -->
<g id="edge2" class="edge">
<title>SourceApp&#45;&gt;IdealChannel</title>
<path fill="none" stroke="black" d="M124.82,-54.98C133.31,-47.23 146.06,-35.58 156.38,-26.14"/>
<polygon fill="black" stroke="black" points="158.99,-28.5 164.01,-19.17 154.27,-23.33 158.99,-28.5"/>
</g>
</g>
</svg>
