<?xml version="1.0" encoding="UTF-8" standalone="no"?>
<!DOCTYPE svg PUBLIC "-//W3C//DTD SVG 1.1//EN"
 "http://www.w3.org/Graphics/SVG/1.1/DTD/svg11.dtd">
<!-- Generated by graphviz version 2.43.0 (0)
 -->
<!-- Title: opp Pages: 1 -->
<svg width="750pt" height="137pt"
 viewBox="0.00 0.00 749.50 137.00" xmlns="http://www.w3.org/2000/svg" xmlns:xlink="http://www.w3.org/1999/xlink">
<g id="graph0" class="graph" transform="scale(1 1) rotate(0) translate(4 133)">
<title>opp</title>
<polygon fill="transparent" stroke="transparent" points="-4,4 -4,-133 745.5,-133 745.5,4 -4,4"/>
<!-- IProtocolHeaderInserter -->
<g id="node1" class="node">
<title>IProtocolHeaderInserter</title>
<g id="a_node1"><a xlink:href="inet.protocolelement.contract.IProtocolHeaderInserter.html" xlink:title="Module Interface IProtocolHeaderInserter" target="_parent">
<polygon fill="#fff700" stroke="black" stroke-dasharray="5,2" points="423.5,-74 291.5,-74 291.5,-55 423.5,-55 423.5,-74"/>
<text text-anchor="middle" x="357.5" y="-62" font-family="Helvetica,sans-Serif" font-size="10.00">IProtocolHeaderInserter</text>
</a>
</g>
</g>
<!-- EthernetMacHeaderInserter -->
<g id="node3" class="node">
<title>EthernetMacHeaderInserter</title>
<g id="a_node3"><a xlink:href="inet.linklayer.ethernet.modular.EthernetMacHeaderInserter.html" xlink:title="Simple Module EthernetMacHeaderInserter" target="_parent">
<polygon fill="#fffcaf" stroke="black" points="151,-19 0,-19 0,0 151,0 151,-19"/>
<text text-anchor="middle" x="75.5" y="-7" font-family="Helvetica,sans-Serif" font-size="10.00">EthernetMacHeaderInserter</text>
</a>
</g>
</g>
<!-- IProtocolHeaderInserter&#45;&gt;EthernetMacHeaderInserter -->
<g id="edge2" class="edge">
<title>IProtocolHeaderInserter&#45;&gt;EthernetMacHeaderInserter</title>
<path fill="none" stroke="black" stroke-dasharray="5,2" d="M312.19,-54.98C259.72,-45.12 173.78,-28.97 121.16,-19.08"/>
</g>
<!-- IIeee8021qTagEpdHeaderInserter -->
<g id="node4" class="node">
<title>IIeee8021qTagEpdHeaderInserter</title>
<g id="a_node4"><a xlink:href="inet.linklayer.ieee8021q.IIeee8021qTagEpdHeaderInserter.html" xlink:title="Module Interface IIeee8021qTagEpdHeaderInserter" target="_parent">
<polygon fill="#fffcaf" stroke="black" stroke-dasharray="5,2" points="347.5,-19 169.5,-19 169.5,0 347.5,0 347.5,-19"/>
<text text-anchor="middle" x="258.5" y="-7" font-family="Helvetica,sans-Serif" font-size="10.00">IIeee8021qTagEpdHeaderInserter</text>
</a>
</g>
</g>
<!-- IProtocolHeaderInserter&#45;&gt;IIeee8021qTagEpdHeaderInserter -->
<g id="edge3" class="edge">
<title>IProtocolHeaderInserter&#45;&gt;IIeee8021qTagEpdHeaderInserter</title>
<path fill="none" stroke="black" d="M341.59,-54.98C323.23,-45.15 293.18,-29.07 274.7,-19.17"/>
</g>
<!-- IIeee8021qTagTpidHeaderInserter -->
<g id="node5" class="node">
<title>IIeee8021qTagTpidHeaderInserter</title>
<g id="a_node5"><a xlink:href="inet.linklayer.ieee8021q.IIeee8021qTagTpidHeaderInserter.html" xlink:title="Module Interface IIeee8021qTagTpidHeaderInserter" target="_parent">
<polygon fill="#fffcaf" stroke="black" stroke-dasharray="5,2" points="547,-19 366,-19 366,0 547,0 547,-19"/>
<text text-anchor="middle" x="456.5" y="-7" font-family="Helvetica,sans-Serif" font-size="10.00">IIeee8021qTagTpidHeaderInserter</text>
</a>
</g>
</g>
<!-- IProtocolHeaderInserter&#45;&gt;IIeee8021qTagTpidHeaderInserter -->
<g id="edge4" class="edge">
<title>IProtocolHeaderInserter&#45;&gt;IIeee8021qTagTpidHeaderInserter</title>
<path fill="none" stroke="black" d="M373.41,-54.98C391.77,-45.15 421.82,-29.07 440.3,-19.17"/>
</g>
<!-- IIeee8021rTagEpdHeaderInserter -->
<g id="node6" class="node">
<title>IIeee8021rTagEpdHeaderInserter</title>
<g id="a_node6"><a xlink:href="inet.linklayer.ieee8021r.IIeee8021rTagEpdHeaderInserter.html" xlink:title="Module Interface IIeee8021rTagEpdHeaderInserter" target="_parent">
<polygon fill="#fffcaf" stroke="black" stroke-dasharray="5,2" points="741.5,-19 565.5,-19 565.5,0 741.5,0 741.5,-19"/>
<text text-anchor="middle" x="653.5" y="-7" font-family="Helvetica,sans-Serif" font-size="10.00">IIeee8021rTagEpdHeaderInserter</text>
</a>
</g>
</g>
<!-- IProtocolHeaderInserter&#45;&gt;IIeee8021rTagEpdHeaderInserter -->
<g id="edge5" class="edge">
<title>IProtocolHeaderInserter&#45;&gt;IIeee8021rTagEpdHeaderInserter</title>
<path fill="none" stroke="black" d="M405.06,-54.98C460.13,-45.12 550.34,-28.97 605.57,-19.08"/>
</g>
<!-- IPacketFlow -->
<g id="node2" class="node">
<title>IPacketFlow</title>
<g id="a_node2"><a xlink:href="inet.queueing.contract.IPacketFlow.html" xlink:title="Module Interface IPacketFlow" target="_parent">
<polygon fill="#fffcaf" stroke="black" stroke-dasharray="5,2" points="394.5,-129 320.5,-129 320.5,-110 394.5,-110 394.5,-129"/>
<text text-anchor="middle" x="357.5" y="-117" font-family="Helvetica,sans-Serif" font-size="10.00">IPacketFlow</text>
</a>
</g>
</g>
<!-- IPacketFlow&#45;&gt;IProtocolHeaderInserter -->
<g id="edge1" class="edge">
<title>IPacketFlow&#45;&gt;IProtocolHeaderInserter</title>
<path fill="none" stroke="black" d="M357.5,-109.75C357.5,-99.87 357.5,-83.9 357.5,-74.09"/>
</g>
</g>
</svg>
