<?xml version="1.0" encoding="UTF-8" standalone="no"?>
<!DOCTYPE svg PUBLIC "-//W3C//DTD SVG 1.1//EN"
 "http://www.w3.org/Graphics/SVG/1.1/DTD/svg11.dtd">
<!-- Generated by graphviz version 2.43.0 (0)
 -->
<!-- Title: opp Pages: 1 -->
<svg width="645pt" height="82pt"
 viewBox="0.00 0.00 645.00 82.00" xmlns="http://www.w3.org/2000/svg" xmlns:xlink="http://www.w3.org/1999/xlink">
<g id="graph0" class="graph" transform="scale(1 1) rotate(0) translate(4 78)">
<title>opp</title>
<polygon fill="transparent" stroke="transparent" points="-4,4 -4,-78 641,-78 641,4 -4,4"/>
<!-- IIntegratedVisualizer -->
<g id="node1" class="node">
<title>IIntegratedVisualizer</title>
<g id="a_node1"><a xlink:href="inet.visualizer.contract.IIntegratedVisualizer.html" xlink:title="Module Interface IIntegratedVisualizer" target="_parent">
<polygon fill="#fff700" stroke="black" stroke-dasharray="5,2" points="404.5,-74 286.5,-74 286.5,-55 404.5,-55 404.5,-74"/>
<text text-anchor="middle" x="345.5" y="-62" font-family="Helvetica,sans-Serif" font-size="10.00">IIntegratedVisualizer</text>
</a>
</g>
</g>
<!-- IntegratedCanvasVisualizer -->
<g id="node2" class="node">
<title>IntegratedCanvasVisualizer</title>
<g id="a_node2"><a xlink:href="inet.visualizer.canvas.integrated.IntegratedCanvasVisualizer.html" xlink:title="Compound Module IntegratedCanvasVisualizer" target="_parent">
<polygon fill="#fffcaf" stroke="black" points="151,-19 0,-19 0,0 151,0 151,-19"/>
<text text-anchor="middle" x="75.5" y="-7" font-family="Helvetica,sans-Serif" font-size="10.00">IntegratedCanvasVisualizer</text>
</a>
</g>
</g>
<!-- IIntegratedVisualizer&#45;&gt;IntegratedCanvasVisualizer -->
<g id="edge1" class="edge">
<title>IIntegratedVisualizer&#45;&gt;IntegratedCanvasVisualizer</title>
<path fill="none" stroke="black" stroke-dasharray="5,2" d="M302.12,-54.98C251.88,-45.12 169.6,-28.97 119.22,-19.08"/>
</g>
<!-- IntegratedMultiCanvasVisualizer -->
<g id="node3" class="node">
<title>IntegratedMultiCanvasVisualizer</title>
<g id="a_node3"><a xlink:href="inet.visualizer.canvas.integrated.IntegratedMultiCanvasVisualizer.html" xlink:title="Compound Module IntegratedMultiCanvasVisualizer" target="_parent">
<polygon fill="#fffcaf" stroke="black" points="345.5,-19 169.5,-19 169.5,0 345.5,0 345.5,-19"/>
<text text-anchor="middle" x="257.5" y="-7" font-family="Helvetica,sans-Serif" font-size="10.00">IntegratedMultiCanvasVisualizer</text>
</a>
</g>
</g>
<!-- IIntegratedVisualizer&#45;&gt;IntegratedMultiCanvasVisualizer -->
<g id="edge2" class="edge">
<title>IIntegratedVisualizer&#45;&gt;IntegratedMultiCanvasVisualizer</title>
<path fill="none" stroke="black" stroke-dasharray="5,2" d="M331.36,-54.98C315.04,-45.15 288.33,-29.07 271.9,-19.17"/>
</g>
<!-- IntegratedMultiVisualizer -->
<g id="node4" class="node">
<title>IntegratedMultiVisualizer</title>
<g id="a_node4"><a xlink:href="inet.visualizer.common.IntegratedMultiVisualizer.html" xlink:title="Compound Module IntegratedMultiVisualizer" target="_parent">
<polygon fill="#fffcaf" stroke="black" points="503.5,-19 363.5,-19 363.5,0 503.5,0 503.5,-19"/>
<text text-anchor="middle" x="433.5" y="-7" font-family="Helvetica,sans-Serif" font-size="10.00">IntegratedMultiVisualizer</text>
</a>
</g>
</g>
<!-- IIntegratedVisualizer&#45;&gt;IntegratedMultiVisualizer -->
<g id="edge3" class="edge">
<title>IIntegratedVisualizer&#45;&gt;IntegratedMultiVisualizer</title>
<path fill="none" stroke="black" stroke-dasharray="5,2" d="M359.64,-54.98C375.96,-45.15 402.67,-29.07 419.1,-19.17"/>
</g>
<!-- IntegratedVisualizer -->
<g id="node5" class="node">
<title>IntegratedVisualizer</title>
<g id="a_node5"><a xlink:href="inet.visualizer.common.IntegratedVisualizer.html" xlink:title="Compound Module IntegratedVisualizer" target="_parent">
<polygon fill="#fffcaf" stroke="black" points="637,-19 522,-19 522,0 637,0 637,-19"/>
<text text-anchor="middle" x="579.5" y="-7" font-family="Helvetica,sans-Serif" font-size="10.00">IntegratedVisualizer</text>
</a>
</g>
</g>
<!-- IIntegratedVisualizer&#45;&gt;IntegratedVisualizer -->
<g id="edge4" class="edge">
<title>IIntegratedVisualizer&#45;&gt;IntegratedVisualizer</title>
<path fill="none" stroke="black" stroke-dasharray="5,2" d="M383.1,-54.98C426.63,-45.12 497.95,-28.97 541.61,-19.08"/>
</g>
</g>
</svg>
