<?xml version="1.0" encoding="UTF-8" standalone="no"?>
<!DOCTYPE svg PUBLIC "-//W3C//DTD SVG 1.1//EN"
 "http://www.w3.org/Graphics/SVG/1.1/DTD/svg11.dtd">
<!-- Generated by graphviz version 2.43.0 (0)
 -->
<!-- Title: opp Pages: 1 -->
<svg width="324pt" height="82pt"
 viewBox="0.00 0.00 324.00 82.00" xmlns="http://www.w3.org/2000/svg" xmlns:xlink="http://www.w3.org/1999/xlink">
<g id="graph0" class="graph" transform="scale(1 1) rotate(0) translate(4 78)">
<title>opp</title>
<polygon fill="transparent" stroke="transparent" points="-4,4 -4,-78 320,-78 320,4 -4,4"/>
<!-- INetworkNodeVisualizer -->
<g id="node1" class="node">
<title>INetworkNodeVisualizer</title>
<g id="a_node1"><a xlink:href="inet.visualizer.contract.INetworkNodeVisualizer.html" xlink:title="Module Interface INetworkNodeVisualizer" target="_parent">
<polygon fill="#fff700" stroke="black" stroke-dasharray="5,2" points="233.5,-74 99.5,-74 99.5,-55 233.5,-55 233.5,-74"/>
<text text-anchor="middle" x="166.5" y="-62" font-family="Helvetica,sans-Serif" font-size="10.00">INetworkNodeVisualizer</text>
</a>
</g>
</g>
<!-- NetworkNodeCanvasVisualizer -->
<g id="node2" class="node">
<title>NetworkNodeCanvasVisualizer</title>
<g id="a_node2"><a xlink:href="inet.visualizer.canvas.scene.NetworkNodeCanvasVisualizer.html" xlink:title="Simple Module NetworkNodeCanvasVisualizer" target="_parent">
<polygon fill="#fffcaf" stroke="black" points="167,-19 0,-19 0,0 167,0 167,-19"/>
<text text-anchor="middle" x="83.5" y="-7" font-family="Helvetica,sans-Serif" font-size="10.00">NetworkNodeCanvasVisualizer</text>
</a>
</g>
</g>
<!-- INetworkNodeVisualizer&#45;&gt;NetworkNodeCanvasVisualizer -->
<g id="edge1" class="edge">
<title>INetworkNodeVisualizer&#45;&gt;NetworkNodeCanvasVisualizer</title>
<path fill="none" stroke="black" stroke-dasharray="5,2" d="M153.16,-54.98C137.77,-45.15 112.58,-29.07 97.08,-19.17"/>
</g>
<!-- NetworkNodeVisualizer -->
<g id="node3" class="node">
<title>NetworkNodeVisualizer</title>
<g id="a_node3"><a xlink:href="inet.visualizer.common.NetworkNodeVisualizer.html" xlink:title="Compound Module NetworkNodeVisualizer" target="_parent">
<polygon fill="#fffcaf" stroke="black" points="316,-19 185,-19 185,0 316,0 316,-19"/>
<text text-anchor="middle" x="250.5" y="-7" font-family="Helvetica,sans-Serif" font-size="10.00">NetworkNodeVisualizer</text>
</a>
</g>
</g>
<!-- INetworkNodeVisualizer&#45;&gt;NetworkNodeVisualizer -->
<g id="edge2" class="edge">
<title>INetworkNodeVisualizer&#45;&gt;NetworkNodeVisualizer</title>
<path fill="none" stroke="black" stroke-dasharray="5,2" d="M180,-54.98C195.58,-45.15 221.07,-29.07 236.76,-19.17"/>
</g>
</g>
</svg>
