<?xml version="1.0" encoding="UTF-8" standalone="no"?>
<!DOCTYPE svg PUBLIC "-//W3C//DTD SVG 1.1//EN"
 "http://www.w3.org/Graphics/SVG/1.1/DTD/svg11.dtd">
<!-- Generated by graphviz version 2.43.0 (0)
 -->
<!-- Title: opp Pages: 1 -->
<svg width="527pt" height="82pt"
 viewBox="0.00 0.00 526.50 82.00" xmlns="http://www.w3.org/2000/svg" xmlns:xlink="http://www.w3.org/1999/xlink">
<g id="graph0" class="graph" transform="scale(1 1) rotate(0) translate(4 78)">
<title>opp</title>
<polygon fill="transparent" stroke="transparent" points="-4,4 -4,-78 522.5,-78 522.5,4 -4,4"/>
<!-- IpApp -->
<g id="node1" class="node">
<title>IpApp</title>
<g id="a_node1"><a xlink:href="inet.applications.ipapp.IpApp.html" xlink:title="Compound Module IpApp" target="_parent">
<polygon fill="#fff700" stroke="black" points="280.5,-74 226.5,-74 226.5,-55 280.5,-55 280.5,-74"/>
<text text-anchor="middle" x="253.5" y="-62" font-family="Helvetica,sans-Serif" font-size="10.00">IpApp</text>
</a>
</g>
</g>
<!-- IPassivePacketSink -->
<g id="node2" class="node">
<title>IPassivePacketSink</title>
<g id="a_node2"><a xlink:href="inet.queueing.contract.IPassivePacketSink.html" xlink:title="Module Interface IPassivePacketSink" target="_parent">
<polygon fill="#fffcaf" stroke="black" stroke-dasharray="5,2" points="109,-19 0,-19 0,0 109,0 109,-19"/>
<text text-anchor="middle" x="54.5" y="-7" font-family="Helvetica,sans-Serif" font-size="10.00">IPassivePacketSink</text>
</a>
</g>
</g>
<!-- IpApp&#45;&gt;IPassivePacketSink -->
<g id="edge1" class="edge">
<title>IpApp&#45;&gt;IPassivePacketSink</title>
<path fill="none" stroke="black" d="M226.25,-56.24C192.76,-47.32 135.58,-32.09 96.46,-21.68"/>
<polygon fill="black" stroke="black" points="97.25,-18.26 86.69,-19.07 95.45,-25.03 97.25,-18.26"/>
</g>
<!-- IPacketFlow -->
<g id="node3" class="node">
<title>IPacketFlow</title>
<g id="a_node3"><a xlink:href="inet.queueing.contract.IPacketFlow.html" xlink:title="Module Interface IPacketFlow" target="_parent">
<polygon fill="#fffcaf" stroke="black" stroke-dasharray="5,2" points="201.5,-19 127.5,-19 127.5,0 201.5,0 201.5,-19"/>
<text text-anchor="middle" x="164.5" y="-7" font-family="Helvetica,sans-Serif" font-size="10.00">IPacketFlow</text>
</a>
</g>
</g>
<!-- IpApp&#45;&gt;IPacketFlow -->
<g id="edge2" class="edge">
<title>IpApp&#45;&gt;IPacketFlow</title>
<path fill="none" stroke="black" d="M239.2,-54.98C225.4,-46.77 204.26,-34.18 187.99,-24.49"/>
<polygon fill="black" stroke="black" points="189.44,-21.28 179.06,-19.17 185.86,-27.29 189.44,-21.28"/>
</g>
<!-- IpSocketIo -->
<g id="node4" class="node">
<title>IpSocketIo</title>
<g id="a_node4"><a xlink:href="inet.applications.ipapp.IpSocketIo.html" xlink:title="Simple Module IpSocketIo" target="_parent">
<polygon fill="#fffcaf" stroke="black" points="287,-19 220,-19 220,0 287,0 287,-19"/>
<text text-anchor="middle" x="253.5" y="-7" font-family="Helvetica,sans-Serif" font-size="10.00">IpSocketIo</text>
</a>
</g>
</g>
<!-- IpApp&#45;&gt;IpSocketIo -->
<g id="edge3" class="edge">
<title>IpApp&#45;&gt;IpSocketIo</title>
<path fill="none" stroke="black" d="M253.5,-54.75C253.5,-47.8 253.5,-37.85 253.5,-29.13"/>
<polygon fill="black" stroke="black" points="257,-29.09 253.5,-19.09 250,-29.09 257,-29.09"/>
</g>
<!-- IActivePacketSource -->
<g id="node5" class="node">
<title>IActivePacketSource</title>
<g id="a_node5"><a xlink:href="inet.queueing.contract.IActivePacketSource.html" xlink:title="Module Interface IActivePacketSource" target="_parent">
<polygon fill="#fffcaf" stroke="black" stroke-dasharray="5,2" points="420,-19 305,-19 305,0 420,0 420,-19"/>
<text text-anchor="middle" x="362.5" y="-7" font-family="Helvetica,sans-Serif" font-size="10.00">IActivePacketSource</text>
</a>
</g>
</g>
<!-- IpApp&#45;&gt;IActivePacketSource -->
<g id="edge4" class="edge">
<title>IpApp&#45;&gt;IActivePacketSource</title>
<path fill="none" stroke="black" d="M271.01,-54.98C288.47,-46.5 315.51,-33.35 335.67,-23.54"/>
<polygon fill="black" stroke="black" points="337.21,-26.69 344.67,-19.17 334.14,-20.4 337.21,-26.69"/>
</g>
<!-- IdealChannel -->
<g id="node6" class="node">
<title>IdealChannel</title>
<g id="a_node6"><a xlink:href="ned.IdealChannel.html" xlink:title="Channel IdealChannel" target="_parent">
<polygon fill="#d0ffd0" stroke="black" points="518.5,-19 438.5,-19 438.5,0 518.5,0 518.5,-19"/>
<text text-anchor="middle" x="478.5" y="-7" font-family="Helvetica,sans-Serif" font-size="10.00">IdealChannel</text>
</a>
</g>
</g>
<!-- IpApp&#45;&gt;IdealChannel -->
<g id="edge5" class="edge">
<title>IpApp&#45;&gt;IdealChannel</title>
<path fill="none" stroke="black" d="M280.64,-57.11C318.24,-48.25 386.69,-32.13 432.39,-21.36"/>
<polygon fill="black" stroke="black" points="433.41,-24.72 442.34,-19.02 431.81,-17.9 433.41,-24.72"/>
</g>
</g>
</svg>
