<?xml version="1.0" encoding="UTF-8" standalone="no"?>
<!DOCTYPE svg PUBLIC "-//W3C//DTD SVG 1.1//EN"
 "http://www.w3.org/Graphics/SVG/1.1/DTD/svg11.dtd">
<!-- Generated by graphviz version 2.43.0 (0)
 -->
<!-- Title: opp Pages: 1 -->
<svg width="374pt" height="82pt"
 viewBox="0.00 0.00 373.50 82.00" xmlns="http://www.w3.org/2000/svg" xmlns:xlink="http://www.w3.org/1999/xlink">
<g id="graph0" class="graph" transform="scale(1 1) rotate(0) translate(4 78)">
<title>opp</title>
<polygon fill="transparent" stroke="transparent" points="-4,4 -4,-78 369.5,-78 369.5,4 -4,4"/>
<!-- OpenStreetMapExample -->
<g id="node1" class="node">
<title>OpenStreetMapExample</title>
<g id="a_node1"><a xlink:href="inet.examples.openstreetmap.OpenStreetMapExample.html" xlink:title="Network OpenStreetMapExample" target="_parent">
<polygon fill="#9090ff" stroke="black" points="261.5,-74 126.5,-74 126.5,-55 261.5,-55 261.5,-74"/>
<text text-anchor="middle" x="194" y="-62" font-family="Helvetica,sans-Serif" font-size="10.00">OpenStreetMapExample</text>
</a>
</g>
</g>
<!-- SimpleGeographicCoordinateSystem -->
<g id="node2" class="node">
<title>SimpleGeographicCoordinateSystem</title>
<g id="a_node2"><a xlink:href="inet.common.geometry.common.SimpleGeographicCoordinateSystem.html" xlink:title="Simple Module SimpleGeographicCoordinateSystem" target="_parent">
<polygon fill="#fffcaf" stroke="black" points="196,-19 0,-19 0,0 196,0 196,-19"/>
<text text-anchor="middle" x="98" y="-7" font-family="Helvetica,sans-Serif" font-size="10.00">SimpleGeographicCoordinateSystem</text>
</a>
</g>
</g>
<!-- OpenStreetMapExample&#45;&gt;SimpleGeographicCoordinateSystem -->
<g id="edge1" class="edge">
<title>OpenStreetMapExample&#45;&gt;SimpleGeographicCoordinateSystem</title>
<path fill="none" stroke="black" d="M178.58,-54.98C163.55,-46.69 140.46,-33.94 122.84,-24.22"/>
<polygon fill="black" stroke="black" points="124.15,-20.94 113.7,-19.17 120.77,-27.07 124.15,-20.94"/>
</g>
<!-- IntegratedCanvasVisualizer -->
<g id="node3" class="node">
<title>IntegratedCanvasVisualizer</title>
<g id="a_node3"><a xlink:href="inet.visualizer.canvas.integrated.IntegratedCanvasVisualizer.html" xlink:title="Compound Module IntegratedCanvasVisualizer" target="_parent">
<polygon fill="#fffcaf" stroke="black" points="365.5,-19 214.5,-19 214.5,0 365.5,0 365.5,-19"/>
<text text-anchor="middle" x="290" y="-7" font-family="Helvetica,sans-Serif" font-size="10.00">IntegratedCanvasVisualizer</text>
</a>
</g>
</g>
<!-- OpenStreetMapExample&#45;&gt;IntegratedCanvasVisualizer -->
<g id="edge2" class="edge">
<title>OpenStreetMapExample&#45;&gt;IntegratedCanvasVisualizer</title>
<path fill="none" stroke="black" d="M209.42,-54.98C224.45,-46.69 247.54,-33.94 265.16,-24.22"/>
<polygon fill="black" stroke="black" points="267.23,-27.07 274.3,-19.17 263.85,-20.94 267.23,-27.07"/>
</g>
</g>
</svg>
