<?xml version="1.0" encoding="UTF-8" standalone="no"?>
<!DOCTYPE svg PUBLIC "-//W3C//DTD SVG 1.1//EN"
 "http://www.w3.org/Graphics/SVG/1.1/DTD/svg11.dtd">
<!-- Generated by graphviz version 2.43.0 (0)
 -->
<!-- Title: opp Pages: 1 -->
<svg width="230pt" height="137pt"
 viewBox="0.00 0.00 229.50 137.00" xmlns="http://www.w3.org/2000/svg" xmlns:xlink="http://www.w3.org/1999/xlink">
<g id="graph0" class="graph" transform="scale(1 1) rotate(0) translate(4 133)">
<title>opp</title>
<polygon fill="transparent" stroke="transparent" points="-4,4 -4,-133 225.5,-133 225.5,4 -4,4"/>
<!-- IEthernetNetworkNode -->
<g id="node1" class="node">
<title>IEthernetNetworkNode</title>
<g id="a_node1"><a xlink:href="inet.node.contract.IEthernetNetworkNode.html" xlink:title="Module Interface IEthernetNetworkNode" target="_parent">
<polygon fill="#fff700" stroke="black" stroke-dasharray="5,2" points="169,-74 41,-74 41,-55 169,-55 169,-74"/>
<text text-anchor="middle" x="105" y="-62" font-family="Helvetica,sans-Serif" font-size="10.00">IEthernetNetworkNode</text>
</a>
</g>
</g>
<!-- EthernetSwitch -->
<g id="node3" class="node">
<title>EthernetSwitch</title>
<g id="a_node3"><a xlink:href="inet.node.ethernet.EthernetSwitch.html" xlink:title="Compound Module EthernetSwitch" target="_parent">
<polygon fill="#fffcaf" stroke="black" points="90,-19 0,-19 0,0 90,0 90,-19"/>
<text text-anchor="middle" x="45" y="-7" font-family="Helvetica,sans-Serif" font-size="10.00">EthernetSwitch</text>
</a>
</g>
</g>
<!-- IEthernetNetworkNode&#45;&gt;EthernetSwitch -->
<g id="edge2" class="edge">
<title>IEthernetNetworkNode&#45;&gt;EthernetSwitch</title>
<path fill="none" stroke="black" stroke-dasharray="5,2" d="M95.36,-54.98C84.23,-45.15 66.02,-29.07 54.82,-19.17"/>
</g>
<!-- LinkLayerNodeBase -->
<g id="node4" class="node">
<title>LinkLayerNodeBase</title>
<g id="a_node4"><a xlink:href="inet.node.base.LinkLayerNodeBase.html" xlink:title="Compound Module LinkLayerNodeBase" target="_parent">
<polygon fill="#fffcaf" stroke="black" points="221.5,-19 108.5,-19 108.5,0 221.5,0 221.5,-19"/>
<text text-anchor="middle" x="165" y="-7" font-family="Helvetica,sans-Serif" font-size="10.00">LinkLayerNodeBase</text>
</a>
</g>
</g>
<!-- IEthernetNetworkNode&#45;&gt;LinkLayerNodeBase -->
<g id="edge3" class="edge">
<title>IEthernetNetworkNode&#45;&gt;LinkLayerNodeBase</title>
<path fill="none" stroke="black" stroke-dasharray="5,2" d="M114.64,-54.98C125.77,-45.15 143.98,-29.07 155.18,-19.17"/>
</g>
<!-- INetworkNode -->
<g id="node2" class="node">
<title>INetworkNode</title>
<g id="a_node2"><a xlink:href="inet.node.contract.INetworkNode.html" xlink:title="Module Interface INetworkNode" target="_parent">
<polygon fill="#fffcaf" stroke="black" stroke-dasharray="5,2" points="148,-129 62,-129 62,-110 148,-110 148,-129"/>
<text text-anchor="middle" x="105" y="-117" font-family="Helvetica,sans-Serif" font-size="10.00">INetworkNode</text>
</a>
</g>
</g>
<!-- INetworkNode&#45;&gt;IEthernetNetworkNode -->
<g id="edge1" class="edge">
<title>INetworkNode&#45;&gt;IEthernetNetworkNode</title>
<path fill="none" stroke="black" d="M105,-109.75C105,-99.87 105,-83.9 105,-74.09"/>
</g>
</g>
</svg>
