<?xml version="1.0" encoding="UTF-8" standalone="no"?>
<!DOCTYPE svg PUBLIC "-//W3C//DTD SVG 1.1//EN"
 "http://www.w3.org/Graphics/SVG/1.1/DTD/svg11.dtd">
<!-- Generated by graphviz version 2.43.0 (0)
 -->
<!-- Title: opp Pages: 1 -->
<svg width="73pt" height="137pt"
 viewBox="0.00 0.00 73.00 137.00" xmlns="http://www.w3.org/2000/svg" xmlns:xlink="http://www.w3.org/1999/xlink">
<g id="graph0" class="graph" transform="scale(1 1) rotate(0) translate(4 133)">
<title>opp</title>
<polygon fill="transparent" stroke="transparent" points="-4,4 -4,-133 69,-133 69,4 -4,4"/>
<!-- WirelessB -->
<g id="node1" class="node">
<title>WirelessB</title>
<g id="a_node1"><a xlink:href="inet.tutorials.wireless.WirelessB.html" xlink:title="Network WirelessB" target="_parent">
<polygon fill="#9090ff" stroke="black" points="65,-74 0,-74 0,-55 65,-55 65,-74"/>
<text text-anchor="middle" x="32.5" y="-62" font-family="Helvetica,sans-Serif" font-size="10.00">WirelessB</text>
</a>
</g>
</g>
<!-- WirelessC -->
<g id="node3" class="node">
<title>WirelessC</title>
<g id="a_node3"><a xlink:href="inet.tutorials.wireless.WirelessC.html" xlink:title="Network WirelessC" target="_parent">
<polygon fill="#d0d0ff" stroke="black" points="65,-19 0,-19 0,0 65,0 65,-19"/>
<text text-anchor="middle" x="32.5" y="-7" font-family="Helvetica,sans-Serif" font-size="10.00">WirelessC</text>
</a>
</g>
</g>
<!-- WirelessB&#45;&gt;WirelessC -->
<g id="edge2" class="edge">
<title>WirelessB&#45;&gt;WirelessC</title>
<path fill="none" stroke="black" d="M32.5,-54.75C32.5,-44.87 32.5,-28.9 32.5,-19.09"/>
</g>
<!-- WirelessA -->
<g id="node2" class="node">
<title>WirelessA</title>
<g id="a_node2"><a xlink:href="inet.tutorials.wireless.WirelessA.html" xlink:title="Network WirelessA" target="_parent">
<polygon fill="#d0d0ff" stroke="black" points="65,-129 0,-129 0,-110 65,-110 65,-129"/>
<text text-anchor="middle" x="32.5" y="-117" font-family="Helvetica,sans-Serif" font-size="10.00">WirelessA</text>
</a>
</g>
</g>
<!-- WirelessA&#45;&gt;WirelessB -->
<g id="edge1" class="edge">
<title>WirelessA&#45;&gt;WirelessB</title>
<path fill="none" stroke="black" d="M32.5,-109.75C32.5,-99.87 32.5,-83.9 32.5,-74.09"/>
</g>
</g>
</svg>
