<?xml version="1.0" encoding="UTF-8" standalone="no"?>
<!DOCTYPE svg PUBLIC "-//W3C//DTD SVG 1.1//EN"
 "http://www.w3.org/Graphics/SVG/1.1/DTD/svg11.dtd">
<!-- Generated by graphviz version 2.43.0 (0)
 -->
<!-- Title: opp Pages: 1 -->
<svg width="118pt" height="137pt"
 viewBox="0.00 0.00 118.00 137.00" xmlns="http://www.w3.org/2000/svg" xmlns:xlink="http://www.w3.org/1999/xlink">
<g id="graph0" class="graph" transform="scale(1 1) rotate(0) translate(4 133)">
<title>opp</title>
<polygon fill="transparent" stroke="transparent" points="-4,4 -4,-133 114,-133 114,4 -4,4"/>
<!-- ILoopbackInterface -->
<g id="node1" class="node">
<title>ILoopbackInterface</title>
<g id="a_node1"><a xlink:href="inet.linklayer.contract.ILoopbackInterface.html" xlink:title="Module Interface ILoopbackInterface" target="_parent">
<polygon fill="#fff700" stroke="black" stroke-dasharray="5,2" points="110,-74 0,-74 0,-55 110,-55 110,-74"/>
<text text-anchor="middle" x="55" y="-62" font-family="Helvetica,sans-Serif" font-size="10.00">ILoopbackInterface</text>
</a>
</g>
</g>
<!-- LoopbackInterface -->
<g id="node3" class="node">
<title>LoopbackInterface</title>
<g id="a_node3"><a xlink:href="inet.linklayer.loopback.LoopbackInterface.html" xlink:title="Compound Module LoopbackInterface" target="_parent">
<polygon fill="#fffcaf" stroke="black" points="108.5,-19 1.5,-19 1.5,0 108.5,0 108.5,-19"/>
<text text-anchor="middle" x="55" y="-7" font-family="Helvetica,sans-Serif" font-size="10.00">LoopbackInterface</text>
</a>
</g>
</g>
<!-- ILoopbackInterface&#45;&gt;LoopbackInterface -->
<g id="edge2" class="edge">
<title>ILoopbackInterface&#45;&gt;LoopbackInterface</title>
<path fill="none" stroke="black" stroke-dasharray="5,2" d="M55,-54.75C55,-44.87 55,-28.9 55,-19.09"/>
</g>
<!-- INetworkInterface -->
<g id="node2" class="node">
<title>INetworkInterface</title>
<g id="a_node2"><a xlink:href="inet.linklayer.contract.INetworkInterface.html" xlink:title="Module Interface INetworkInterface" target="_parent">
<polygon fill="#fffcaf" stroke="black" stroke-dasharray="5,2" points="107,-129 3,-129 3,-110 107,-110 107,-129"/>
<text text-anchor="middle" x="55" y="-117" font-family="Helvetica,sans-Serif" font-size="10.00">INetworkInterface</text>
</a>
</g>
</g>
<!-- INetworkInterface&#45;&gt;ILoopbackInterface -->
<g id="edge1" class="edge">
<title>INetworkInterface&#45;&gt;ILoopbackInterface</title>
<path fill="none" stroke="black" d="M55,-109.75C55,-99.87 55,-83.9 55,-74.09"/>
</g>
</g>
</svg>
