<?xml version="1.0" encoding="UTF-8" standalone="no"?>
<!DOCTYPE svg PUBLIC "-//W3C//DTD SVG 1.1//EN"
 "http://www.w3.org/Graphics/SVG/1.1/DTD/svg11.dtd">
<!-- Generated by graphviz version 2.43.0 (0)
 -->
<!-- Title: opp Pages: 1 -->
<svg width="121pt" height="137pt"
 viewBox="0.00 0.00 121.00 137.00" xmlns="http://www.w3.org/2000/svg" xmlns:xlink="http://www.w3.org/1999/xlink">
<g id="graph0" class="graph" transform="scale(1 1) rotate(0) translate(4 133)">
<title>opp</title>
<polygon fill="transparent" stroke="transparent" points="-4,4 -4,-133 117,-133 117,4 -4,4"/>
<!-- NodeBase -->
<g id="node1" class="node">
<title>NodeBase</title>
<g id="a_node1"><a xlink:href="inet.node.base.NodeBase.html" xlink:title="Compound Module NodeBase" target="_parent">
<polygon fill="#fff700" stroke="black" points="89.5,-74 23.5,-74 23.5,-55 89.5,-55 89.5,-74"/>
<text text-anchor="middle" x="56.5" y="-62" font-family="Helvetica,sans-Serif" font-size="10.00">NodeBase</text>
</a>
</g>
</g>
<!-- LinkLayerNodeBase -->
<g id="node3" class="node">
<title>LinkLayerNodeBase</title>
<g id="a_node3"><a xlink:href="inet.node.base.LinkLayerNodeBase.html" xlink:title="Compound Module LinkLayerNodeBase" target="_parent">
<polygon fill="#fffcaf" stroke="black" points="113,-19 0,-19 0,0 113,0 113,-19"/>
<text text-anchor="middle" x="56.5" y="-7" font-family="Helvetica,sans-Serif" font-size="10.00">LinkLayerNodeBase</text>
</a>
</g>
</g>
<!-- NodeBase&#45;&gt;LinkLayerNodeBase -->
<g id="edge2" class="edge">
<title>NodeBase&#45;&gt;LinkLayerNodeBase</title>
<path fill="none" stroke="black" d="M56.5,-54.75C56.5,-44.87 56.5,-28.9 56.5,-19.09"/>
</g>
<!-- INetworkNode -->
<g id="node2" class="node">
<title>INetworkNode</title>
<g id="a_node2"><a xlink:href="inet.node.contract.INetworkNode.html" xlink:title="Module Interface INetworkNode" target="_parent">
<polygon fill="#fffcaf" stroke="black" stroke-dasharray="5,2" points="99.5,-129 13.5,-129 13.5,-110 99.5,-110 99.5,-129"/>
<text text-anchor="middle" x="56.5" y="-117" font-family="Helvetica,sans-Serif" font-size="10.00">INetworkNode</text>
</a>
</g>
</g>
<!-- INetworkNode&#45;&gt;NodeBase -->
<g id="edge1" class="edge">
<title>INetworkNode&#45;&gt;NodeBase</title>
<path fill="none" stroke="black" stroke-dasharray="5,2" d="M56.5,-109.75C56.5,-99.87 56.5,-83.9 56.5,-74.09"/>
</g>
</g>
</svg>
