<?xml version="1.0" encoding="UTF-8" standalone="no"?>
<!DOCTYPE svg PUBLIC "-//W3C//DTD SVG 1.1//EN"
 "http://www.w3.org/Graphics/SVG/1.1/DTD/svg11.dtd">
<!-- Generated by graphviz version 2.43.0 (0)
 -->
<!-- Title: opp Pages: 1 -->
<svg width="560pt" height="82pt"
 viewBox="0.00 0.00 560.00 82.00" xmlns="http://www.w3.org/2000/svg" xmlns:xlink="http://www.w3.org/1999/xlink">
<g id="graph0" class="graph" transform="scale(1 1) rotate(0) translate(4 78)">
<title>opp</title>
<polygon fill="transparent" stroke="transparent" points="-4,4 -4,-78 556,-78 556,4 -4,4"/>
<!-- GPSRNetworkManual -->
<g id="node1" class="node">
<title>GPSRNetworkManual</title>
<g id="a_node1"><a xlink:href="inet.examples.manetrouting.gpsr.GPSRNetworkManual.html" xlink:title="Network GPSRNetworkManual" target="_parent">
<polygon fill="#9090ff" stroke="black" points="361.5,-74 241.5,-74 241.5,-55 361.5,-55 361.5,-74"/>
<text text-anchor="middle" x="301.5" y="-62" font-family="Helvetica,sans-Serif" font-size="10.00">GPSRNetworkManual</text>
</a>
</g>
</g>
<!-- Ieee80211ScalarRadioMedium -->
<g id="node2" class="node">
<title>Ieee80211ScalarRadioMedium</title>
<g id="a_node2"><a xlink:href="inet.physicallayer.wireless.ieee80211.packetlevel.Ieee80211ScalarRadioMedium.html" xlink:title="Compound Module Ieee80211ScalarRadioMedium" target="_parent">
<polygon fill="#fffcaf" stroke="black" points="165,-19 0,-19 0,0 165,0 165,-19"/>
<text text-anchor="middle" x="82.5" y="-7" font-family="Helvetica,sans-Serif" font-size="10.00">Ieee80211ScalarRadioMedium</text>
</a>
</g>
</g>
<!-- GPSRNetworkManual&#45;&gt;Ieee80211ScalarRadioMedium -->
<g id="edge1" class="edge">
<title>GPSRNetworkManual&#45;&gt;Ieee80211ScalarRadioMedium</title>
<path fill="none" stroke="black" d="M266.31,-54.98C228.67,-45.87 168.84,-31.4 127.73,-21.45"/>
<polygon fill="black" stroke="black" points="128.5,-18.03 117.96,-19.08 126.86,-24.84 128.5,-18.03"/>
</g>
<!-- RoutingTableRecorder -->
<g id="node3" class="node">
<title>RoutingTableRecorder</title>
<g id="a_node3"><a xlink:href="inet.networklayer.ipv4.RoutingTableRecorder.html" xlink:title="Simple Module RoutingTableRecorder" target="_parent">
<polygon fill="#fffcaf" stroke="black" points="306,-19 183,-19 183,0 306,0 306,-19"/>
<text text-anchor="middle" x="244.5" y="-7" font-family="Helvetica,sans-Serif" font-size="10.00">RoutingTableRecorder</text>
</a>
</g>
</g>
<!-- GPSRNetworkManual&#45;&gt;RoutingTableRecorder -->
<g id="edge2" class="edge">
<title>GPSRNetworkManual&#45;&gt;RoutingTableRecorder</title>
<path fill="none" stroke="black" d="M292.34,-54.98C284,-47.23 271.47,-35.58 261.32,-26.14"/>
<polygon fill="black" stroke="black" points="263.53,-23.42 253.82,-19.17 258.76,-28.54 263.53,-23.42"/>
</g>
<!-- GpsrRouter -->
<g id="node4" class="node">
<title>GpsrRouter</title>
<g id="a_node4"><a xlink:href="inet.node.gpsr.GpsrRouter.html" xlink:title="Compound Module GpsrRouter" target="_parent">
<polygon fill="#fffcaf" stroke="black" points="395,-19 324,-19 324,0 395,0 395,-19"/>
<text text-anchor="middle" x="359.5" y="-7" font-family="Helvetica,sans-Serif" font-size="10.00">GpsrRouter</text>
</a>
</g>
</g>
<!-- GPSRNetworkManual&#45;&gt;GpsrRouter -->
<g id="edge3" class="edge">
<title>GPSRNetworkManual&#45;&gt;GpsrRouter</title>
<path fill="none" stroke="black" d="M310.82,-54.98C319.31,-47.23 332.06,-35.58 342.38,-26.14"/>
<polygon fill="black" stroke="black" points="344.99,-28.5 350.01,-19.17 340.27,-23.33 344.99,-28.5"/>
</g>
<!-- Ipv4NetworkConfigurator -->
<g id="node5" class="node">
<title>Ipv4NetworkConfigurator</title>
<g id="a_node5"><a xlink:href="inet.networklayer.configurator.ipv4.Ipv4NetworkConfigurator.html" xlink:title="Simple Module Ipv4NetworkConfigurator" target="_parent">
<polygon fill="#fffcaf" stroke="black" points="552,-19 413,-19 413,0 552,0 552,-19"/>
<text text-anchor="middle" x="482.5" y="-7" font-family="Helvetica,sans-Serif" font-size="10.00">Ipv4NetworkConfigurator</text>
</a>
</g>
</g>
<!-- GPSRNetworkManual&#45;&gt;Ipv4NetworkConfigurator -->
<g id="edge4" class="edge">
<title>GPSRNetworkManual&#45;&gt;Ipv4NetworkConfigurator</title>
<path fill="none" stroke="black" d="M330.58,-54.98C361.1,-46.05 409.26,-31.94 443.16,-22.02"/>
<polygon fill="black" stroke="black" points="444.58,-25.25 453.19,-19.08 442.61,-18.53 444.58,-25.25"/>
</g>
</g>
</svg>
