<?xml version="1.0" encoding="UTF-8" standalone="no"?>
<!DOCTYPE svg PUBLIC "-//W3C//DTD SVG 1.1//EN"
 "http://www.w3.org/Graphics/SVG/1.1/DTD/svg11.dtd">
<!-- Generated by graphviz version 2.43.0 (0)
 -->
<!-- Title: opp Pages: 1 -->
<svg width="295pt" height="82pt"
 viewBox="0.00 0.00 294.50 82.00" xmlns="http://www.w3.org/2000/svg" xmlns:xlink="http://www.w3.org/1999/xlink">
<g id="graph0" class="graph" transform="scale(1 1) rotate(0) translate(4 78)">
<title>opp</title>
<polygon fill="transparent" stroke="transparent" points="-4,4 -4,-78 290.5,-78 290.5,4 -4,4"/>
<!-- Network7 -->
<g id="node1" class="node">
<title>Network7</title>
<g id="a_node1"><a xlink:href="inet.tutorials.protocol.Network7.html" xlink:title="Network Network7" target="_parent">
<polygon fill="#9090ff" stroke="black" points="176.5,-74 112.5,-74 112.5,-55 176.5,-55 176.5,-74"/>
<text text-anchor="middle" x="144.5" y="-62" font-family="Helvetica,sans-Serif" font-size="10.00">Network7</text>
</a>
</g>
</g>
<!-- ServerHost7 -->
<g id="node2" class="node">
<title>ServerHost7</title>
<g id="a_node2"><a xlink:href="inet.tutorials.protocol.ServerHost7.html" xlink:title="Compound Module ServerHost7" target="_parent">
<polygon fill="#fffcaf" stroke="black" points="77,-19 0,-19 0,0 77,0 77,-19"/>
<text text-anchor="middle" x="38.5" y="-7" font-family="Helvetica,sans-Serif" font-size="10.00">ServerHost7</text>
</a>
</g>
</g>
<!-- Network7&#45;&gt;ServerHost7 -->
<g id="edge1" class="edge">
<title>Network7&#45;&gt;ServerHost7</title>
<path fill="none" stroke="black" d="M127.47,-54.98C110.57,-46.54 84.44,-33.47 64.86,-23.68"/>
<polygon fill="black" stroke="black" points="66.35,-20.51 55.84,-19.17 63.22,-26.77 66.35,-20.51"/>
</g>
<!-- DatarateChannel -->
<g id="node3" class="node">
<title>DatarateChannel</title>
<g id="a_node3"><a xlink:href="ned.DatarateChannel.html" xlink:title="Channel DatarateChannel" target="_parent">
<polygon fill="#d0ffd0" stroke="black" points="194,-19 95,-19 95,0 194,0 194,-19"/>
<text text-anchor="middle" x="144.5" y="-7" font-family="Helvetica,sans-Serif" font-size="10.00">DatarateChannel</text>
</a>
</g>
</g>
<!-- Network7&#45;&gt;DatarateChannel -->
<g id="edge2" class="edge">
<title>Network7&#45;&gt;DatarateChannel</title>
<path fill="none" stroke="black" d="M144.5,-54.75C144.5,-47.8 144.5,-37.85 144.5,-29.13"/>
<polygon fill="black" stroke="black" points="148,-29.09 144.5,-19.09 141,-29.09 148,-29.09"/>
</g>
<!-- ClientHost7 -->
<g id="node4" class="node">
<title>ClientHost7</title>
<g id="a_node4"><a xlink:href="inet.tutorials.protocol.ClientHost7.html" xlink:title="Compound Module ClientHost7" target="_parent">
<polygon fill="#fffcaf" stroke="black" points="286.5,-19 212.5,-19 212.5,0 286.5,0 286.5,-19"/>
<text text-anchor="middle" x="249.5" y="-7" font-family="Helvetica,sans-Serif" font-size="10.00">ClientHost7</text>
</a>
</g>
</g>
<!-- Network7&#45;&gt;ClientHost7 -->
<g id="edge3" class="edge">
<title>Network7&#45;&gt;ClientHost7</title>
<path fill="none" stroke="black" d="M161.37,-54.98C178.11,-46.54 204,-33.47 223.39,-23.68"/>
<polygon fill="black" stroke="black" points="224.97,-26.8 232.32,-19.17 221.82,-20.55 224.97,-26.8"/>
</g>
</g>
</svg>
