<?xml version="1.0" encoding="UTF-8" standalone="no"?>
<!DOCTYPE svg PUBLIC "-//W3C//DTD SVG 1.1//EN"
 "http://www.w3.org/Graphics/SVG/1.1/DTD/svg11.dtd">
<!-- Generated by graphviz version 2.43.0 (0)
 -->
<!-- Title: opp Pages: 1 -->
<svg width="180pt" height="82pt"
 viewBox="0.00 0.00 179.50 82.00" xmlns="http://www.w3.org/2000/svg" xmlns:xlink="http://www.w3.org/1999/xlink">
<g id="graph0" class="graph" transform="scale(1 1) rotate(0) translate(4 78)">
<title>opp</title>
<polygon fill="transparent" stroke="transparent" points="-4,4 -4,-78 175.5,-78 175.5,4 -4,4"/>
<!-- IdealOscillator -->
<g id="node1" class="node">
<title>IdealOscillator</title>
<g id="a_node1"><a xlink:href="inet.clock.oscillator.IdealOscillator.html" xlink:title="Simple Module IdealOscillator" target="_parent">
<polygon fill="#fff700" stroke="black" points="134,-19 47,-19 47,0 134,0 134,-19"/>
<text text-anchor="middle" x="90.5" y="-7" font-family="Helvetica,sans-Serif" font-size="10.00">IdealOscillator</text>
</a>
</g>
</g>
<!-- OscillatorBase -->
<g id="node2" class="node">
<title>OscillatorBase</title>
<g id="a_node2"><a xlink:href="inet.clock.base.OscillatorBase.html" xlink:title="Simple Module OscillatorBase" target="_parent">
<polygon fill="#fffcaf" stroke="black" points="87,-74 0,-74 0,-55 87,-55 87,-74"/>
<text text-anchor="middle" x="43.5" y="-62" font-family="Helvetica,sans-Serif" font-size="10.00">OscillatorBase</text>
</a>
</g>
</g>
<!-- OscillatorBase&#45;&gt;IdealOscillator -->
<g id="edge1" class="edge">
<title>OscillatorBase&#45;&gt;IdealOscillator</title>
<path fill="none" stroke="black" d="M51.26,-54.75C60.02,-44.87 74.18,-28.9 82.88,-19.09"/>
</g>
<!-- IOscillator -->
<g id="node3" class="node">
<title>IOscillator</title>
<g id="a_node3"><a xlink:href="inet.clock.contract.IOscillator.html" xlink:title="Module Interface IOscillator" target="_parent">
<polygon fill="#fffcaf" stroke="black" stroke-dasharray="5,2" points="171.5,-74 105.5,-74 105.5,-55 171.5,-55 171.5,-74"/>
<text text-anchor="middle" x="138.5" y="-62" font-family="Helvetica,sans-Serif" font-size="10.00">IOscillator</text>
</a>
</g>
</g>
<!-- IOscillator&#45;&gt;IdealOscillator -->
<g id="edge2" class="edge">
<title>IOscillator&#45;&gt;IdealOscillator</title>
<path fill="none" stroke="black" stroke-dasharray="5,2" d="M130.57,-54.75C121.63,-44.87 107.16,-28.9 98.28,-19.09"/>
</g>
</g>
</svg>
