<?xml version="1.0" encoding="UTF-8" standalone="no"?>
<!DOCTYPE svg PUBLIC "-//W3C//DTD SVG 1.1//EN"
 "http://www.w3.org/Graphics/SVG/1.1/DTD/svg11.dtd">
<!-- Generated by graphviz version 2.43.0 (0)
 -->
<!-- Title: opp Pages: 1 -->
<svg width="864pt" height="137pt"
 viewBox="0.00 0.00 863.50 137.00" xmlns="http://www.w3.org/2000/svg" xmlns:xlink="http://www.w3.org/1999/xlink">
<g id="graph0" class="graph" transform="scale(1 1) rotate(0) translate(4 133)">
<title>opp</title>
<polygon fill="transparent" stroke="transparent" points="-4,4 -4,-133 859.5,-133 859.5,4 -4,4"/>
<!-- Ieee80211Interface -->
<g id="node1" class="node">
<title>Ieee80211Interface</title>
<g id="a_node1"><a xlink:href="inet.linklayer.ieee80211.Ieee80211Interface.html" xlink:title="Compound Module Ieee80211Interface" target="_parent">
<polygon fill="#fff700" stroke="black" points="508,-74 397,-74 397,-55 508,-55 508,-74"/>
<text text-anchor="middle" x="452.5" y="-62" font-family="Helvetica,sans-Serif" font-size="10.00">Ieee80211Interface</text>
</a>
</g>
</g>
<!-- IIeee80211Mac -->
<g id="node2" class="node">
<title>IIeee80211Mac</title>
<g id="a_node2"><a xlink:href="inet.linklayer.ieee80211.IIeee80211Mac.html" xlink:title="Module Interface IIeee80211Mac" target="_parent">
<polygon fill="#fffcaf" stroke="black" stroke-dasharray="5,2" points="91,-19 0,-19 0,0 91,0 91,-19"/>
<text text-anchor="middle" x="45.5" y="-7" font-family="Helvetica,sans-Serif" font-size="10.00">IIeee80211Mac</text>
</a>
</g>
</g>
<!-- Ieee80211Interface&#45;&gt;IIeee80211Mac -->
<g id="edge1" class="edge">
<title>Ieee80211Interface&#45;&gt;IIeee80211Mac</title>
<path fill="none" stroke="black" d="M396.96,-56.96C329.57,-48.91 212.24,-34.57 101.14,-19.05"/>
<polygon fill="black" stroke="black" points="101.49,-15.57 91.1,-17.65 100.52,-22.5 101.49,-15.57"/>
</g>
<!-- IIeee80211Llc -->
<g id="node3" class="node">
<title>IIeee80211Llc</title>
<g id="a_node3"><a xlink:href="inet.linklayer.ieee80211.llc.IIeee80211Llc.html" xlink:title="Module Interface IIeee80211Llc" target="_parent">
<polygon fill="#fffcaf" stroke="black" stroke-dasharray="5,2" points="193.5,-19 109.5,-19 109.5,0 193.5,0 193.5,-19"/>
<text text-anchor="middle" x="151.5" y="-7" font-family="Helvetica,sans-Serif" font-size="10.00">IIeee80211Llc</text>
</a>
</g>
</g>
<!-- Ieee80211Interface&#45;&gt;IIeee80211Llc -->
<g id="edge2" class="edge">
<title>Ieee80211Interface&#45;&gt;IIeee80211Llc</title>
<path fill="none" stroke="black" d="M404.14,-54.98C349.38,-45.34 260.47,-29.69 204.05,-19.75"/>
<polygon fill="black" stroke="black" points="204.36,-16.25 193.9,-17.97 203.14,-23.15 204.36,-16.25"/>
</g>
<!-- IIeee80211Mgmt -->
<g id="node4" class="node">
<title>IIeee80211Mgmt</title>
<g id="a_node4"><a xlink:href="inet.linklayer.ieee80211.mgmt.IIeee80211Mgmt.html" xlink:title="Module Interface IIeee80211Mgmt" target="_parent">
<polygon fill="#fffcaf" stroke="black" stroke-dasharray="5,2" points="311,-19 212,-19 212,0 311,0 311,-19"/>
<text text-anchor="middle" x="261.5" y="-7" font-family="Helvetica,sans-Serif" font-size="10.00">IIeee80211Mgmt</text>
</a>
</g>
</g>
<!-- Ieee80211Interface&#45;&gt;IIeee80211Mgmt -->
<g id="edge3" class="edge">
<title>Ieee80211Interface&#45;&gt;IIeee80211Mgmt</title>
<path fill="none" stroke="black" d="M421.81,-54.98C389.33,-45.97 337.9,-31.7 302.09,-21.76"/>
<polygon fill="black" stroke="black" points="303,-18.38 292.43,-19.08 301.13,-25.13 303,-18.38"/>
</g>
<!-- IIeee8021dQosClassifier -->
<g id="node5" class="node">
<title>IIeee8021dQosClassifier</title>
<g id="a_node5"><a xlink:href="inet.linklayer.common.IIeee8021dQosClassifier.html" xlink:title="Module Interface IIeee8021dQosClassifier" target="_parent">
<polygon fill="#fffcaf" stroke="black" stroke-dasharray="5,2" points="463.5,-19 329.5,-19 329.5,0 463.5,0 463.5,-19"/>
<text text-anchor="middle" x="396.5" y="-7" font-family="Helvetica,sans-Serif" font-size="10.00">IIeee8021dQosClassifier</text>
</a>
</g>
</g>
<!-- Ieee80211Interface&#45;&gt;IIeee8021dQosClassifier -->
<g id="edge4" class="edge">
<title>Ieee80211Interface&#45;&gt;IIeee8021dQosClassifier</title>
<path fill="none" stroke="black" d="M443.5,-54.98C435.31,-47.23 422.99,-35.58 413.03,-26.14"/>
<polygon fill="black" stroke="black" points="415.33,-23.5 405.66,-19.17 410.52,-28.59 415.33,-23.5"/>
</g>
<!-- IRadio -->
<g id="node6" class="node">
<title>IRadio</title>
<g id="a_node6"><a xlink:href="inet.physicallayer.wireless.common.contract.packetlevel.IRadio.html" xlink:title="Module Interface IRadio" target="_parent">
<polygon fill="#fffcaf" stroke="black" stroke-dasharray="5,2" points="535.5,-19 481.5,-19 481.5,0 535.5,0 535.5,-19"/>
<text text-anchor="middle" x="508.5" y="-7" font-family="Helvetica,sans-Serif" font-size="10.00">IRadio</text>
</a>
</g>
</g>
<!-- Ieee80211Interface&#45;&gt;IRadio -->
<g id="edge5" class="edge">
<title>Ieee80211Interface&#45;&gt;IRadio</title>
<path fill="none" stroke="black" d="M461.5,-54.98C469.69,-47.23 482.01,-35.58 491.97,-26.14"/>
<polygon fill="black" stroke="black" points="494.48,-28.59 499.34,-19.17 489.67,-23.5 494.48,-28.59"/>
</g>
<!-- IIeee80211Agent -->
<g id="node7" class="node">
<title>IIeee80211Agent</title>
<g id="a_node7"><a xlink:href="inet.linklayer.ieee80211.mgmt.IIeee80211Agent.html" xlink:title="Module Interface IIeee80211Agent" target="_parent">
<polygon fill="#fffcaf" stroke="black" stroke-dasharray="5,2" points="653,-19 554,-19 554,0 653,0 653,-19"/>
<text text-anchor="middle" x="603.5" y="-7" font-family="Helvetica,sans-Serif" font-size="10.00">IIeee80211Agent</text>
</a>
</g>
</g>
<!-- Ieee80211Interface&#45;&gt;IIeee80211Agent -->
<g id="edge6" class="edge">
<title>Ieee80211Interface&#45;&gt;IIeee80211Agent</title>
<path fill="none" stroke="black" d="M476.76,-54.98C501.82,-46.19 541.13,-32.39 569.33,-22.49"/>
<polygon fill="black" stroke="black" points="570.52,-25.78 578.8,-19.17 568.2,-19.18 570.52,-25.78"/>
</g>
<!-- IdealChannel -->
<g id="node8" class="node">
<title>IdealChannel</title>
<g id="a_node8"><a xlink:href="ned.IdealChannel.html" xlink:title="Channel IdealChannel" target="_parent">
<polygon fill="#d0ffd0" stroke="black" points="751.5,-19 671.5,-19 671.5,0 751.5,0 751.5,-19"/>
<text text-anchor="middle" x="711.5" y="-7" font-family="Helvetica,sans-Serif" font-size="10.00">IdealChannel</text>
</a>
</g>
</g>
<!-- Ieee80211Interface&#45;&gt;IdealChannel -->
<g id="edge7" class="edge">
<title>Ieee80211Interface&#45;&gt;IdealChannel</title>
<path fill="none" stroke="black" d="M494.11,-54.98C539.64,-45.67 612.59,-30.74 661.27,-20.78"/>
<polygon fill="black" stroke="black" points="662.17,-24.17 671.27,-18.73 660.77,-17.31 662.17,-24.17"/>
</g>
<!-- Ieee80211Mib -->
<g id="node9" class="node">
<title>Ieee80211Mib</title>
<g id="a_node9"><a xlink:href="inet.linklayer.ieee80211.mib.Ieee80211Mib.html" xlink:title="Simple Module Ieee80211Mib" target="_parent">
<polygon fill="#fffcaf" stroke="black" points="855.5,-19 769.5,-19 769.5,0 855.5,0 855.5,-19"/>
<text text-anchor="middle" x="812.5" y="-7" font-family="Helvetica,sans-Serif" font-size="10.00">Ieee80211Mib</text>
</a>
</g>
</g>
<!-- Ieee80211Interface&#45;&gt;Ieee80211Mib -->
<g id="edge8" class="edge">
<title>Ieee80211Interface&#45;&gt;Ieee80211Mib</title>
<path fill="none" stroke="black" d="M508.19,-55.77C567.8,-47.43 665.43,-33.55 759.42,-19.14"/>
<polygon fill="black" stroke="black" points="760.03,-22.59 769.38,-17.61 758.96,-15.67 760.03,-22.59"/>
</g>
<!-- Client -->
<g id="node10" class="node">
<title>Client</title>
<g id="a_node10"><a xlink:href="inet.examples.wireless.ratecontrol.Client.html" xlink:title="Compound Module Client" target="_parent">
<polygon fill="#fffcaf" stroke="black" points="146.5,-129 92.5,-129 92.5,-110 146.5,-110 146.5,-129"/>
<text text-anchor="middle" x="119.5" y="-117" font-family="Helvetica,sans-Serif" font-size="10.00">Client</text>
</a>
</g>
</g>
<!-- Client&#45;&gt;Ieee80211Interface -->
<g id="edge9" class="edge">
<title>Client&#45;&gt;Ieee80211Interface</title>
<path fill="none" stroke="black" d="M146.57,-111.85C149.58,-111.19 152.6,-110.56 155.5,-110 234.63,-94.76 326.47,-81.7 386.83,-73.74"/>
<polygon fill="black" stroke="black" points="387.52,-77.18 396.98,-72.42 386.61,-70.24 387.52,-77.18"/>
</g>
<!-- Node -->
<g id="node11" class="node">
<title>Node</title>
<g id="a_node11"><a xlink:href="inet.examples.wireless.hiddennode.Node.html" xlink:title="Compound Module Node" target="_parent">
<polygon fill="#fffcaf" stroke="black" points="218.5,-129 164.5,-129 164.5,-110 218.5,-110 218.5,-129"/>
<text text-anchor="middle" x="191.5" y="-117" font-family="Helvetica,sans-Serif" font-size="10.00">Node</text>
</a>
</g>
</g>
<!-- Node&#45;&gt;Ieee80211Interface -->
<g id="edge10" class="edge">
<title>Node&#45;&gt;Ieee80211Interface</title>
<path fill="none" stroke="black" d="M218.6,-111.99C221.6,-111.3 224.61,-110.63 227.5,-110 285.02,-97.52 351.14,-84.62 396.74,-75.94"/>
<polygon fill="black" stroke="black" points="397.55,-79.35 406.72,-74.05 396.24,-72.47 397.55,-79.35"/>
</g>
<!-- SinkClient -->
<g id="node12" class="node">
<title>SinkClient</title>
<g id="a_node12"><a xlink:href="inet.examples.wireless.ratecontrol.SinkClient.html" xlink:title="Compound Module SinkClient" target="_parent">
<polygon fill="#fffcaf" stroke="black" points="302.5,-129 236.5,-129 236.5,-110 302.5,-110 302.5,-129"/>
<text text-anchor="middle" x="269.5" y="-117" font-family="Helvetica,sans-Serif" font-size="10.00">SinkClient</text>
</a>
</g>
</g>
<!-- SinkClient&#45;&gt;Ieee80211Interface -->
<g id="edge11" class="edge">
<title>SinkClient&#45;&gt;Ieee80211Interface</title>
<path fill="none" stroke="black" d="M298.9,-109.98C329.89,-101.01 378.88,-86.82 413.17,-76.89"/>
<polygon fill="black" stroke="black" points="414.24,-80.23 422.87,-74.08 412.29,-73.5 414.24,-80.23"/>
</g>
<!-- SinkNode -->
<g id="node13" class="node">
<title>SinkNode</title>
<g id="a_node13"><a xlink:href="inet.examples.wireless.hiddennode.SinkNode.html" xlink:title="Compound Module SinkNode" target="_parent">
<polygon fill="#fffcaf" stroke="black" points="384,-129 321,-129 321,-110 384,-110 384,-129"/>
<text text-anchor="middle" x="352.5" y="-117" font-family="Helvetica,sans-Serif" font-size="10.00">SinkNode</text>
</a>
</g>
</g>
<!-- SinkNode&#45;&gt;Ieee80211Interface -->
<g id="edge12" class="edge">
<title>SinkNode&#45;&gt;Ieee80211Interface</title>
<path fill="none" stroke="black" d="M368.57,-109.98C384.36,-101.61 408.72,-88.7 427.13,-78.95"/>
<polygon fill="black" stroke="black" points="428.94,-81.95 436.14,-74.17 425.67,-75.76 428.94,-81.95"/>
</g>
<!-- ThroughputClient -->
<g id="node14" class="node">
<title>ThroughputClient</title>
<g id="a_node14"><a xlink:href="inet.examples.wireless.throughput.ThroughputClient.html" xlink:title="Compound Module ThroughputClient" target="_parent">
<polygon fill="#fffcaf" stroke="black" points="503,-129 402,-129 402,-110 503,-110 503,-129"/>
<text text-anchor="middle" x="452.5" y="-117" font-family="Helvetica,sans-Serif" font-size="10.00">ThroughputClient</text>
</a>
</g>
</g>
<!-- ThroughputClient&#45;&gt;Ieee80211Interface -->
<g id="edge13" class="edge">
<title>ThroughputClient&#45;&gt;Ieee80211Interface</title>
<path fill="none" stroke="black" d="M442.17,-109.75C439.15,-102.72 438.29,-92.62 439.58,-83.84"/>
<polygon fill="black" stroke="black" points="442.99,-84.66 442.24,-74.09 436.24,-82.82 442.99,-84.66"/>
</g>
<!-- ThroughputClient&#45;&gt;Ieee80211Interface -->
<g id="edge14" class="edge">
<title>ThroughputClient&#45;&gt;Ieee80211Interface</title>
<path fill="none" stroke="black" d="M452.5,-109.75C452.5,-102.8 452.5,-92.85 452.5,-84.13"/>
<polygon fill="black" stroke="black" points="456,-84.09 452.5,-74.09 449,-84.09 456,-84.09"/>
</g>
<!-- ThroughputClient&#45;&gt;Ieee80211Interface -->
<g id="edge15" class="edge">
<title>ThroughputClient&#45;&gt;Ieee80211Interface</title>
<path fill="none" stroke="black" d="M462.83,-109.75C465.85,-102.72 466.71,-92.62 465.42,-83.84"/>
<polygon fill="black" stroke="black" points="468.76,-82.82 462.76,-74.09 462.01,-84.66 468.76,-82.82"/>
</g>
<!-- ThroughputServer -->
<g id="node15" class="node">
<title>ThroughputServer</title>
<g id="a_node15"><a xlink:href="inet.examples.wireless.testnewmac.ThroughputServer.html" xlink:title="Compound Module ThroughputServer" target="_parent">
<polygon fill="#fffcaf" stroke="black" points="625.5,-129 521.5,-129 521.5,-110 625.5,-110 625.5,-129"/>
<text text-anchor="middle" x="573.5" y="-117" font-family="Helvetica,sans-Serif" font-size="10.00">ThroughputServer</text>
</a>
</g>
</g>
<!-- ThroughputServer&#45;&gt;Ieee80211Interface -->
<g id="edge16" class="edge">
<title>ThroughputServer&#45;&gt;Ieee80211Interface</title>
<path fill="none" stroke="black" d="M548.94,-109.98C527.69,-101.5 497.41,-88.35 476.37,-78.54"/>
<polygon fill="black" stroke="black" points="477.68,-75.29 467.15,-74.17 474.68,-81.62 477.68,-75.29"/>
</g>
<!-- ThroughputServer&#45;&gt;Ieee80211Interface -->
<g id="edge17" class="edge">
<title>ThroughputServer&#45;&gt;Ieee80211Interface</title>
<path fill="none" stroke="black" d="M559.17,-109.98C541.35,-101.34 510.83,-87.87 486.91,-78.02"/>
<polygon fill="black" stroke="black" points="488.03,-74.69 477.44,-74.17 485.39,-81.18 488.03,-74.69"/>
</g>
<!-- WirelessAPWithSink -->
<g id="node16" class="node">
<title>WirelessAPWithSink</title>
<g id="a_node16"><a xlink:href="inet.examples.wireless.throughput.WirelessAPWithSink.html" xlink:title="Compound Module WirelessAPWithSink" target="_parent">
<polygon fill="#fffcaf" stroke="black" points="759,-129 644,-129 644,-110 759,-110 759,-129"/>
<text text-anchor="middle" x="701.5" y="-117" font-family="Helvetica,sans-Serif" font-size="10.00">WirelessAPWithSink</text>
</a>
</g>
</g>
<!-- WirelessAPWithSink&#45;&gt;Ieee80211Interface -->
<g id="edge18" class="edge">
<title>WirelessAPWithSink&#45;&gt;Ieee80211Interface</title>
<path fill="none" stroke="black" d="M661.49,-109.98C618.33,-100.8 549.52,-86.15 502.74,-76.19"/>
<polygon fill="black" stroke="black" points="503.33,-72.74 492.82,-74.08 501.87,-79.59 503.33,-72.74"/>
</g>
</g>
</svg>
