<?xml version="1.0" encoding="UTF-8" standalone="no"?>
<!DOCTYPE svg PUBLIC "-//W3C//DTD SVG 1.1//EN"
 "http://www.w3.org/Graphics/SVG/1.1/DTD/svg11.dtd">
<!-- Generated by graphviz version 2.43.0 (0)
 -->
<!-- Title: opp Pages: 1 -->
<svg width="323pt" height="82pt"
 viewBox="0.00 0.00 322.50 82.00" xmlns="http://www.w3.org/2000/svg" xmlns:xlink="http://www.w3.org/1999/xlink">
<g id="graph0" class="graph" transform="scale(1 1) rotate(0) translate(4 78)">
<title>opp</title>
<polygon fill="transparent" stroke="transparent" points="-4,4 -4,-78 318.5,-78 318.5,4 -4,4"/>
<!-- tcpwindowscale -->
<g id="node1" class="node">
<title>tcpwindowscale</title>
<g id="a_node1"><a xlink:href="inet.examples.inet.tcpwindowscale.tcpwindowscale.html" xlink:title="Network tcpwindowscale" target="_parent">
<polygon fill="#9090ff" stroke="black" points="218,-74 123,-74 123,-55 218,-55 218,-74"/>
<text text-anchor="middle" x="170.5" y="-62" font-family="Helvetica,sans-Serif" font-size="10.00">tcpwindowscale</text>
</a>
</g>
</g>
<!-- StandardHost -->
<g id="node2" class="node">
<title>StandardHost</title>
<g id="a_node2"><a xlink:href="inet.node.inet.StandardHost.html" xlink:title="Compound Module StandardHost" target="_parent">
<polygon fill="#fffcaf" stroke="black" points="83,-19 0,-19 0,0 83,0 83,-19"/>
<text text-anchor="middle" x="41.5" y="-7" font-family="Helvetica,sans-Serif" font-size="10.00">StandardHost</text>
</a>
</g>
</g>
<!-- tcpwindowscale&#45;&gt;StandardHost -->
<g id="edge1" class="edge">
<title>tcpwindowscale&#45;&gt;StandardHost</title>
<path fill="none" stroke="black" d="M149.77,-54.98C128.74,-46.34 95.95,-32.87 71.96,-23.02"/>
<polygon fill="black" stroke="black" points="73.18,-19.73 62.6,-19.17 70.52,-26.21 73.18,-19.73"/>
</g>
<!-- Ipv4NetworkConfigurator -->
<g id="node3" class="node">
<title>Ipv4NetworkConfigurator</title>
<g id="a_node3"><a xlink:href="inet.networklayer.configurator.ipv4.Ipv4NetworkConfigurator.html" xlink:title="Simple Module Ipv4NetworkConfigurator" target="_parent">
<polygon fill="#fffcaf" stroke="black" points="240,-19 101,-19 101,0 240,0 240,-19"/>
<text text-anchor="middle" x="170.5" y="-7" font-family="Helvetica,sans-Serif" font-size="10.00">Ipv4NetworkConfigurator</text>
</a>
</g>
</g>
<!-- tcpwindowscale&#45;&gt;Ipv4NetworkConfigurator -->
<g id="edge2" class="edge">
<title>tcpwindowscale&#45;&gt;Ipv4NetworkConfigurator</title>
<path fill="none" stroke="black" d="M170.5,-54.75C170.5,-47.8 170.5,-37.85 170.5,-29.13"/>
<polygon fill="black" stroke="black" points="174,-29.09 170.5,-19.09 167,-29.09 174,-29.09"/>
</g>
<!-- LFNPath -->
<g id="node4" class="node">
<title>LFNPath</title>
<g id="a_node4"><a xlink:href="inet.examples.inet.tcpwindowscale.tcpwindowscale.LFNPath.html" xlink:title="Channel LFNPath" target="_parent">
<polygon fill="#d0ffd0" stroke="black" points="314.5,-19 258.5,-19 258.5,0 314.5,0 314.5,-19"/>
<text text-anchor="middle" x="286.5" y="-7" font-family="Helvetica,sans-Serif" font-size="10.00">LFNPath</text>
</a>
</g>
</g>
<!-- tcpwindowscale&#45;&gt;LFNPath -->
<g id="edge3" class="edge">
<title>tcpwindowscale&#45;&gt;LFNPath</title>
<path fill="none" stroke="black" d="M189.14,-54.98C207.8,-46.46 236.75,-33.23 258.24,-23.41"/>
<polygon fill="black" stroke="black" points="259.88,-26.51 267.52,-19.17 256.97,-20.14 259.88,-26.51"/>
</g>
</g>
</svg>
