<?xml version="1.0" encoding="UTF-8" standalone="no"?>
<!DOCTYPE svg PUBLIC "-//W3C//DTD SVG 1.1//EN"
 "http://www.w3.org/Graphics/SVG/1.1/DTD/svg11.dtd">
<!-- Generated by graphviz version 2.43.0 (0)
 -->
<!-- Title: opp Pages: 1 -->
<svg width="357pt" height="137pt"
 viewBox="0.00 0.00 357.00 137.00" xmlns="http://www.w3.org/2000/svg" xmlns:xlink="http://www.w3.org/1999/xlink">
<g id="graph0" class="graph" transform="scale(1 1) rotate(0) translate(4 133)">
<title>opp</title>
<polygon fill="transparent" stroke="transparent" points="-4,4 -4,-133 353,-133 353,4 -4,4"/>
<!-- Edca -->
<g id="node1" class="node">
<title>Edca</title>
<g id="a_node1"><a xlink:href="inet.linklayer.ieee80211.mac.channelaccess.Edca.html" xlink:title="Compound Module Edca" target="_parent">
<polygon fill="#fff700" stroke="black" points="230,-74 176,-74 176,-55 230,-55 230,-74"/>
<text text-anchor="middle" x="203" y="-62" font-family="Helvetica,sans-Serif" font-size="10.00">Edca</text>
</a>
</g>
</g>
<!-- ICollisionController -->
<g id="node2" class="node">
<title>ICollisionController</title>
<g id="a_node2"><a xlink:href="inet.linklayer.ieee80211.mac.contract.ICollisionController.html" xlink:title="Module Interface ICollisionController" target="_parent">
<polygon fill="#fffcaf" stroke="black" stroke-dasharray="5,2" points="110,-19 0,-19 0,0 110,0 110,-19"/>
<text text-anchor="middle" x="55" y="-7" font-family="Helvetica,sans-Serif" font-size="10.00">ICollisionController</text>
</a>
</g>
</g>
<!-- Edca&#45;&gt;ICollisionController -->
<g id="edge1" class="edge">
<title>Edca&#45;&gt;ICollisionController</title>
<path fill="none" stroke="black" d="M179.22,-54.98C154.77,-46.23 116.47,-32.51 88.85,-22.62"/>
<polygon fill="black" stroke="black" points="89.81,-19.25 79.21,-19.17 87.45,-25.84 89.81,-19.25"/>
</g>
<!-- NonQosRecoveryProcedure -->
<g id="node3" class="node">
<title>NonQosRecoveryProcedure</title>
<g id="a_node3"><a xlink:href="inet.linklayer.ieee80211.mac.originator.NonQosRecoveryProcedure.html" xlink:title="Simple Module NonQosRecoveryProcedure" target="_parent">
<polygon fill="#fffcaf" stroke="black" points="277.5,-19 128.5,-19 128.5,0 277.5,0 277.5,-19"/>
<text text-anchor="middle" x="203" y="-7" font-family="Helvetica,sans-Serif" font-size="10.00">NonQosRecoveryProcedure</text>
</a>
</g>
</g>
<!-- Edca&#45;&gt;NonQosRecoveryProcedure -->
<g id="edge2" class="edge">
<title>Edca&#45;&gt;NonQosRecoveryProcedure</title>
<path fill="none" stroke="black" d="M203,-54.75C203,-47.8 203,-37.85 203,-29.13"/>
<polygon fill="black" stroke="black" points="206.5,-29.09 203,-19.09 199.5,-29.09 206.5,-29.09"/>
</g>
<!-- Edcaf -->
<g id="node4" class="node">
<title>Edcaf</title>
<g id="a_node4"><a xlink:href="inet.linklayer.ieee80211.mac.channelaccess.Edcaf.html" xlink:title="Compound Module Edcaf" target="_parent">
<polygon fill="#fffcaf" stroke="black" points="349,-19 295,-19 295,0 349,0 349,-19"/>
<text text-anchor="middle" x="322" y="-7" font-family="Helvetica,sans-Serif" font-size="10.00">Edcaf</text>
</a>
</g>
</g>
<!-- Edca&#45;&gt;Edcaf -->
<g id="edge3" class="edge">
<title>Edca&#45;&gt;Edcaf</title>
<path fill="none" stroke="black" d="M222.12,-54.98C241.35,-46.42 271.23,-33.11 293.31,-23.28"/>
<polygon fill="black" stroke="black" points="294.82,-26.44 302.53,-19.17 291.97,-20.04 294.82,-26.44"/>
</g>
<!-- Hcf -->
<g id="node5" class="node">
<title>Hcf</title>
<g id="a_node5"><a xlink:href="inet.linklayer.ieee80211.mac.coordinationfunction.Hcf.html" xlink:title="Compound Module Hcf" target="_parent">
<polygon fill="#fffcaf" stroke="black" points="230,-129 176,-129 176,-110 230,-110 230,-129"/>
<text text-anchor="middle" x="203" y="-117" font-family="Helvetica,sans-Serif" font-size="10.00">Hcf</text>
</a>
</g>
</g>
<!-- Hcf&#45;&gt;Edca -->
<g id="edge4" class="edge">
<title>Hcf&#45;&gt;Edca</title>
<path fill="none" stroke="black" d="M203,-109.75C203,-102.8 203,-92.85 203,-84.13"/>
<polygon fill="black" stroke="black" points="206.5,-84.09 203,-74.09 199.5,-84.09 206.5,-84.09"/>
</g>
</g>
</svg>
