<?xml version="1.0" encoding="UTF-8" standalone="no"?>
<!DOCTYPE svg PUBLIC "-//W3C//DTD SVG 1.1//EN"
 "http://www.w3.org/Graphics/SVG/1.1/DTD/svg11.dtd">
<!-- Generated by graphviz version 2.43.0 (0)
 -->
<!-- Title: opp Pages: 1 -->
<svg width="153pt" height="137pt"
 viewBox="0.00 0.00 153.00 137.00" xmlns="http://www.w3.org/2000/svg" xmlns:xlink="http://www.w3.org/1999/xlink">
<g id="graph0" class="graph" transform="scale(1 1) rotate(0) translate(4 133)">
<title>opp</title>
<polygon fill="transparent" stroke="transparent" points="-4,4 -4,-133 149,-133 149,4 -4,4"/>
<!-- OriginatorMacDataService -->
<g id="node1" class="node">
<title>OriginatorMacDataService</title>
<g id="a_node1"><a xlink:href="inet.linklayer.ieee80211.mac.originator.OriginatorMacDataService.html" xlink:title="Compound Module OriginatorMacDataService" target="_parent">
<polygon fill="#fff700" stroke="black" points="145,-74 0,-74 0,-55 145,-55 145,-74"/>
<text text-anchor="middle" x="72.5" y="-62" font-family="Helvetica,sans-Serif" font-size="10.00">OriginatorMacDataService</text>
</a>
</g>
</g>
<!-- IFragmentationPolicy -->
<g id="node2" class="node">
<title>IFragmentationPolicy</title>
<g id="a_node2"><a xlink:href="inet.linklayer.ieee80211.mac.contract.IFragmentationPolicy.html" xlink:title="Module Interface IFragmentationPolicy" target="_parent">
<polygon fill="#fffcaf" stroke="black" stroke-dasharray="5,2" points="132.5,-19 12.5,-19 12.5,0 132.5,0 132.5,-19"/>
<text text-anchor="middle" x="72.5" y="-7" font-family="Helvetica,sans-Serif" font-size="10.00">IFragmentationPolicy</text>
</a>
</g>
</g>
<!-- OriginatorMacDataService&#45;&gt;IFragmentationPolicy -->
<g id="edge1" class="edge">
<title>OriginatorMacDataService&#45;&gt;IFragmentationPolicy</title>
<path fill="none" stroke="black" d="M72.5,-54.75C72.5,-47.8 72.5,-37.85 72.5,-29.13"/>
<polygon fill="black" stroke="black" points="76,-29.09 72.5,-19.09 69,-29.09 76,-29.09"/>
</g>
<!-- Dcf -->
<g id="node3" class="node">
<title>Dcf</title>
<g id="a_node3"><a xlink:href="inet.linklayer.ieee80211.mac.coordinationfunction.Dcf.html" xlink:title="Compound Module Dcf" target="_parent">
<polygon fill="#fffcaf" stroke="black" points="99.5,-129 45.5,-129 45.5,-110 99.5,-110 99.5,-129"/>
<text text-anchor="middle" x="72.5" y="-117" font-family="Helvetica,sans-Serif" font-size="10.00">Dcf</text>
</a>
</g>
</g>
<!-- Dcf&#45;&gt;OriginatorMacDataService -->
<g id="edge2" class="edge">
<title>Dcf&#45;&gt;OriginatorMacDataService</title>
<path fill="none" stroke="black" d="M72.5,-109.75C72.5,-102.8 72.5,-92.85 72.5,-84.13"/>
<polygon fill="black" stroke="black" points="76,-84.09 72.5,-74.09 69,-84.09 76,-84.09"/>
</g>
</g>
</svg>
