<?xml version="1.0" encoding="UTF-8" standalone="no"?>
<!DOCTYPE svg PUBLIC "-//W3C//DTD SVG 1.1//EN"
 "http://www.w3.org/Graphics/SVG/1.1/DTD/svg11.dtd">
<!-- Generated by graphviz version 2.43.0 (0)
 -->
<!-- Title: opp Pages: 1 -->
<svg width="280pt" height="82pt"
 viewBox="0.00 0.00 279.50 82.00" xmlns="http://www.w3.org/2000/svg" xmlns:xlink="http://www.w3.org/1999/xlink">
<g id="graph0" class="graph" transform="scale(1 1) rotate(0) translate(4 78)">
<title>opp</title>
<polygon fill="transparent" stroke="transparent" points="-4,4 -4,-78 275.5,-78 275.5,4 -4,4"/>
<!-- StreamingTransmitter -->
<g id="node1" class="node">
<title>StreamingTransmitter</title>
<g id="a_node1"><a xlink:href="inet.protocolelement.transceiver.StreamingTransmitter.html" xlink:title="Simple Module StreamingTransmitter" target="_parent">
<polygon fill="#fff700" stroke="black" points="206,-19 84,-19 84,0 206,0 206,-19"/>
<text text-anchor="middle" x="145" y="-7" font-family="Helvetica,sans-Serif" font-size="10.00">StreamingTransmitter</text>
</a>
</g>
</g>
<!-- StreamingTransmitterBase -->
<g id="node2" class="node">
<title>StreamingTransmitterBase</title>
<g id="a_node2"><a xlink:href="inet.protocolelement.transceiver.base.StreamingTransmitterBase.html" xlink:title="Simple Module StreamingTransmitterBase" target="_parent">
<polygon fill="#fffcaf" stroke="black" points="146,-74 0,-74 0,-55 146,-55 146,-74"/>
<text text-anchor="middle" x="73" y="-62" font-family="Helvetica,sans-Serif" font-size="10.00">StreamingTransmitterBase</text>
</a>
</g>
</g>
<!-- StreamingTransmitterBase&#45;&gt;StreamingTransmitter -->
<g id="edge1" class="edge">
<title>StreamingTransmitterBase&#45;&gt;StreamingTransmitter</title>
<path fill="none" stroke="black" d="M84.57,-54.98C97.92,-45.15 119.78,-29.07 133.22,-19.17"/>
</g>
<!-- IPacketTransmitter -->
<g id="node3" class="node">
<title>IPacketTransmitter</title>
<g id="a_node3"><a xlink:href="inet.protocolelement.transceiver.contract.IPacketTransmitter.html" xlink:title="Module Interface IPacketTransmitter" target="_parent">
<polygon fill="#fffcaf" stroke="black" stroke-dasharray="5,2" points="271.5,-74 164.5,-74 164.5,-55 271.5,-55 271.5,-74"/>
<text text-anchor="middle" x="218" y="-62" font-family="Helvetica,sans-Serif" font-size="10.00">IPacketTransmitter</text>
</a>
</g>
</g>
<!-- IPacketTransmitter&#45;&gt;StreamingTransmitter -->
<g id="edge2" class="edge">
<title>IPacketTransmitter&#45;&gt;StreamingTransmitter</title>
<path fill="none" stroke="black" stroke-dasharray="5,2" d="M206.27,-54.98C192.73,-45.15 170.57,-29.07 156.94,-19.17"/>
</g>
</g>
</svg>
