<?xml version="1.0" encoding="UTF-8" standalone="no"?>
<!DOCTYPE svg PUBLIC "-//W3C//DTD SVG 1.1//EN"
 "http://www.w3.org/Graphics/SVG/1.1/DTD/svg11.dtd">
<!-- Generated by graphviz version 2.43.0 (0)
 -->
<!-- Title: opp Pages: 1 -->
<svg width="671pt" height="82pt"
 viewBox="0.00 0.00 671.00 82.00" xmlns="http://www.w3.org/2000/svg" xmlns:xlink="http://www.w3.org/1999/xlink">
<g id="graph0" class="graph" transform="scale(1 1) rotate(0) translate(4 78)">
<title>opp</title>
<polygon fill="transparent" stroke="transparent" points="-4,4 -4,-78 667,-78 667,4 -4,4"/>
<!-- PeekingUnderTheHoodShowcase -->
<g id="node1" class="node">
<title>PeekingUnderTheHoodShowcase</title>
<g id="a_node1"><a xlink:href="inet.showcases.tsn.streamfiltering.underthehood.PeekingUnderTheHoodShowcase.html" xlink:title="Network PeekingUnderTheHoodShowcase" target="_parent">
<polygon fill="#9090ff" stroke="black" points="404,-74 227,-74 227,-55 404,-55 404,-74"/>
<text text-anchor="middle" x="315.5" y="-62" font-family="Helvetica,sans-Serif" font-size="10.00">PeekingUnderTheHoodShowcase</text>
</a>
</g>
</g>
<!-- StreamIdentifier -->
<g id="node2" class="node">
<title>StreamIdentifier</title>
<g id="a_node2"><a xlink:href="inet.protocolelement.redundancy.StreamIdentifier.html" xlink:title="Simple Module StreamIdentifier" target="_parent">
<polygon fill="#fffcaf" stroke="black" points="95,-19 0,-19 0,0 95,0 95,-19"/>
<text text-anchor="middle" x="47.5" y="-7" font-family="Helvetica,sans-Serif" font-size="10.00">StreamIdentifier</text>
</a>
</g>
</g>
<!-- PeekingUnderTheHoodShowcase&#45;&gt;StreamIdentifier -->
<g id="edge1" class="edge">
<title>PeekingUnderTheHoodShowcase&#45;&gt;StreamIdentifier</title>
<path fill="none" stroke="black" d="M272.44,-54.98C225.79,-45.76 151.3,-31.03 100.94,-21.07"/>
<polygon fill="black" stroke="black" points="101.39,-17.59 90.9,-19.08 100.03,-24.46 101.39,-17.59"/>
</g>
<!-- IPacketFilter -->
<g id="node3" class="node">
<title>IPacketFilter</title>
<g id="a_node3"><a xlink:href="inet.queueing.contract.IPacketFilter.html" xlink:title="Module Interface IPacketFilter" target="_parent">
<polygon fill="#fffcaf" stroke="black" stroke-dasharray="5,2" points="189.5,-19 113.5,-19 113.5,0 189.5,0 189.5,-19"/>
<text text-anchor="middle" x="151.5" y="-7" font-family="Helvetica,sans-Serif" font-size="10.00">IPacketFilter</text>
</a>
</g>
</g>
<!-- PeekingUnderTheHoodShowcase&#45;&gt;IPacketFilter -->
<g id="edge2" class="edge">
<title>PeekingUnderTheHoodShowcase&#45;&gt;IPacketFilter</title>
<path fill="none" stroke="black" d="M289.15,-54.98C261.74,-46.13 218.61,-32.19 187.94,-22.28"/>
<polygon fill="black" stroke="black" points="188.65,-18.83 178.06,-19.08 186.5,-25.49 188.65,-18.83"/>
</g>
<!-- PassivePacketSink -->
<g id="node4" class="node">
<title>PassivePacketSink</title>
<g id="a_node4"><a xlink:href="inet.queueing.sink.PassivePacketSink.html" xlink:title="Simple Module PassivePacketSink" target="_parent">
<polygon fill="#fffcaf" stroke="black" points="313.5,-19 207.5,-19 207.5,0 313.5,0 313.5,-19"/>
<text text-anchor="middle" x="260.5" y="-7" font-family="Helvetica,sans-Serif" font-size="10.00">PassivePacketSink</text>
</a>
</g>
</g>
<!-- PeekingUnderTheHoodShowcase&#45;&gt;PassivePacketSink -->
<g id="edge3" class="edge">
<title>PeekingUnderTheHoodShowcase&#45;&gt;PassivePacketSink</title>
<path fill="none" stroke="black" d="M306.42,-54.75C298.41,-47.03 286.54,-35.6 276.88,-26.28"/>
<polygon fill="black" stroke="black" points="279.04,-23.51 269.41,-19.09 274.19,-28.55 279.04,-23.51"/>
</g>
<!-- IdealChannel -->
<g id="node5" class="node">
<title>IdealChannel</title>
<g id="a_node5"><a xlink:href="ned.IdealChannel.html" xlink:title="Channel IdealChannel" target="_parent">
<polygon fill="#d0ffd0" stroke="black" points="411.5,-19 331.5,-19 331.5,0 411.5,0 411.5,-19"/>
<text text-anchor="middle" x="371.5" y="-7" font-family="Helvetica,sans-Serif" font-size="10.00">IdealChannel</text>
</a>
</g>
</g>
<!-- PeekingUnderTheHoodShowcase&#45;&gt;IdealChannel -->
<g id="edge4" class="edge">
<title>PeekingUnderTheHoodShowcase&#45;&gt;IdealChannel</title>
<path fill="none" stroke="black" d="M324.5,-54.98C332.69,-47.23 345.01,-35.58 354.97,-26.14"/>
<polygon fill="black" stroke="black" points="357.48,-28.59 362.34,-19.17 352.67,-23.5 357.48,-28.59"/>
</g>
<!-- ActivePacketSource -->
<g id="node6" class="node">
<title>ActivePacketSource</title>
<g id="a_node6"><a xlink:href="inet.queueing.source.ActivePacketSource.html" xlink:title="Simple Module ActivePacketSource" target="_parent">
<polygon fill="#fffcaf" stroke="black" points="541.5,-19 429.5,-19 429.5,0 541.5,0 541.5,-19"/>
<text text-anchor="middle" x="485.5" y="-7" font-family="Helvetica,sans-Serif" font-size="10.00">ActivePacketSource</text>
</a>
</g>
</g>
<!-- PeekingUnderTheHoodShowcase&#45;&gt;ActivePacketSource -->
<g id="edge5" class="edge">
<title>PeekingUnderTheHoodShowcase&#45;&gt;ActivePacketSource</title>
<path fill="none" stroke="black" d="M342.81,-54.98C371.35,-46.09 416.33,-32.07 448.14,-22.15"/>
<polygon fill="black" stroke="black" points="449.47,-25.4 457.97,-19.08 447.38,-18.72 449.47,-25.4"/>
</g>
<!-- PacketMultiplexer -->
<g id="node7" class="node">
<title>PacketMultiplexer</title>
<g id="a_node7"><a xlink:href="inet.queueing.common.PacketMultiplexer.html" xlink:title="Simple Module PacketMultiplexer" target="_parent">
<polygon fill="#fffcaf" stroke="black" points="663,-19 560,-19 560,0 663,0 663,-19"/>
<text text-anchor="middle" x="611.5" y="-7" font-family="Helvetica,sans-Serif" font-size="10.00">PacketMultiplexer</text>
</a>
</g>
</g>
<!-- PeekingUnderTheHoodShowcase&#45;&gt;PacketMultiplexer -->
<g id="edge6" class="edge">
<title>PeekingUnderTheHoodShowcase&#45;&gt;PacketMultiplexer</title>
<path fill="none" stroke="black" d="M363.06,-54.98C414.9,-45.7 497.89,-30.84 553.51,-20.88"/>
<polygon fill="black" stroke="black" points="554.34,-24.29 563.57,-19.08 553.11,-17.4 554.34,-24.29"/>
</g>
</g>
</svg>
