<?xml version="1.0" encoding="UTF-8" standalone="no"?>
<!DOCTYPE svg PUBLIC "-//W3C//DTD SVG 1.1//EN"
 "http://www.w3.org/Graphics/SVG/1.1/DTD/svg11.dtd">
<!-- Generated by graphviz version 2.43.0 (0)
 -->
<!-- Title: opp Pages: 1 -->
<svg width="186pt" height="82pt"
 viewBox="0.00 0.00 186.00 82.00" xmlns="http://www.w3.org/2000/svg" xmlns:xlink="http://www.w3.org/1999/xlink">
<g id="graph0" class="graph" transform="scale(1 1) rotate(0) translate(4 78)">
<title>opp</title>
<polygon fill="transparent" stroke="transparent" points="-4,4 -4,-78 182,-78 182,4 -4,4"/>
<!-- VirtualInterface -->
<g id="node1" class="node">
<title>VirtualInterface</title>
<g id="a_node1"><a xlink:href="inet.linklayer.virtual.VirtualInterface.html" xlink:title="Compound Module VirtualInterface" target="_parent">
<polygon fill="#fff700" stroke="black" points="135,-74 43,-74 43,-55 135,-55 135,-74"/>
<text text-anchor="middle" x="89" y="-62" font-family="Helvetica,sans-Serif" font-size="10.00">VirtualInterface</text>
</a>
</g>
</g>
<!-- VirtualTunnel -->
<g id="node2" class="node">
<title>VirtualTunnel</title>
<g id="a_node2"><a xlink:href="inet.linklayer.virtual.VirtualTunnel.html" xlink:title="Simple Module VirtualTunnel" target="_parent">
<polygon fill="#fffcaf" stroke="black" points="80,-19 0,-19 0,0 80,0 80,-19"/>
<text text-anchor="middle" x="40" y="-7" font-family="Helvetica,sans-Serif" font-size="10.00">VirtualTunnel</text>
</a>
</g>
</g>
<!-- VirtualInterface&#45;&gt;VirtualTunnel -->
<g id="edge1" class="edge">
<title>VirtualInterface&#45;&gt;VirtualTunnel</title>
<path fill="none" stroke="black" d="M80.91,-54.75C73.84,-47.11 63.41,-35.82 54.85,-26.56"/>
<polygon fill="black" stroke="black" points="57.3,-24.06 47.94,-19.09 52.16,-28.81 57.3,-24.06"/>
</g>
<!-- IdealChannel -->
<g id="node3" class="node">
<title>IdealChannel</title>
<g id="a_node3"><a xlink:href="ned.IdealChannel.html" xlink:title="Channel IdealChannel" target="_parent">
<polygon fill="#d0ffd0" stroke="black" points="178,-19 98,-19 98,0 178,0 178,-19"/>
<text text-anchor="middle" x="138" y="-7" font-family="Helvetica,sans-Serif" font-size="10.00">IdealChannel</text>
</a>
</g>
</g>
<!-- VirtualInterface&#45;&gt;IdealChannel -->
<g id="edge2" class="edge">
<title>VirtualInterface&#45;&gt;IdealChannel</title>
<path fill="none" stroke="black" d="M97.09,-54.75C104.16,-47.11 114.59,-35.82 123.15,-26.56"/>
<polygon fill="black" stroke="black" points="125.84,-28.81 130.06,-19.09 120.7,-24.06 125.84,-28.81"/>
</g>
</g>
</svg>
