<?xml version="1.0" encoding="UTF-8" standalone="no"?>
<!DOCTYPE svg PUBLIC "-//W3C//DTD SVG 1.1//EN"
 "http://www.w3.org/Graphics/SVG/1.1/DTD/svg11.dtd">
<!-- Generated by graphviz version 2.43.0 (0)
 -->
<!-- Title: opp Pages: 1 -->
<svg width="553pt" height="137pt"
 viewBox="0.00 0.00 552.50 137.00" xmlns="http://www.w3.org/2000/svg" xmlns:xlink="http://www.w3.org/1999/xlink">
<g id="graph0" class="graph" transform="scale(1 1) rotate(0) translate(4 133)">
<title>opp</title>
<polygon fill="transparent" stroke="transparent" points="-4,4 -4,-133 548.5,-133 548.5,4 -4,4"/>
<!-- Client -->
<g id="node1" class="node">
<title>Client</title>
<g id="a_node1"><a xlink:href="inet.examples.wireless.ratecontrol.Client.html" xlink:title="Compound Module Client" target="_parent">
<polygon fill="#fff700" stroke="black" points="313,-74 259,-74 259,-55 313,-55 313,-74"/>
<text text-anchor="middle" x="286" y="-62" font-family="Helvetica,sans-Serif" font-size="10.00">Client</text>
</a>
</g>
</g>
<!-- InterfaceTable -->
<g id="node2" class="node">
<title>InterfaceTable</title>
<g id="a_node2"><a xlink:href="inet.networklayer.common.InterfaceTable.html" xlink:title="Simple Module InterfaceTable" target="_parent">
<polygon fill="#fffcaf" stroke="black" points="86,-19 0,-19 0,0 86,0 86,-19"/>
<text text-anchor="middle" x="43" y="-7" font-family="Helvetica,sans-Serif" font-size="10.00">InterfaceTable</text>
</a>
</g>
</g>
<!-- Client&#45;&gt;InterfaceTable -->
<g id="edge1" class="edge">
<title>Client&#45;&gt;InterfaceTable</title>
<path fill="none" stroke="black" d="M258.6,-57.52C218.3,-48.73 142.43,-32.19 92.3,-21.25"/>
<polygon fill="black" stroke="black" points="92.84,-17.79 82.32,-19.08 91.35,-24.63 92.84,-17.79"/>
</g>
<!-- Ieee80211Interface -->
<g id="node3" class="node">
<title>Ieee80211Interface</title>
<g id="a_node3"><a xlink:href="inet.linklayer.ieee80211.Ieee80211Interface.html" xlink:title="Compound Module Ieee80211Interface" target="_parent">
<polygon fill="#fffcaf" stroke="black" points="215.5,-19 104.5,-19 104.5,0 215.5,0 215.5,-19"/>
<text text-anchor="middle" x="160" y="-7" font-family="Helvetica,sans-Serif" font-size="10.00">Ieee80211Interface</text>
</a>
</g>
</g>
<!-- Client&#45;&gt;Ieee80211Interface -->
<g id="edge2" class="edge">
<title>Client&#45;&gt;Ieee80211Interface</title>
<path fill="none" stroke="black" d="M265.76,-54.98C245.3,-46.38 213.47,-32.99 190.07,-23.15"/>
<polygon fill="black" stroke="black" points="191.19,-19.82 180.61,-19.17 188.47,-26.27 191.19,-19.82"/>
</g>
<!-- RectangleMobility -->
<g id="node4" class="node">
<title>RectangleMobility</title>
<g id="a_node4"><a xlink:href="inet.mobility.single.RectangleMobility.html" xlink:title="Simple Module RectangleMobility" target="_parent">
<polygon fill="#fffcaf" stroke="black" points="338.5,-19 233.5,-19 233.5,0 338.5,0 338.5,-19"/>
<text text-anchor="middle" x="286" y="-7" font-family="Helvetica,sans-Serif" font-size="10.00">RectangleMobility</text>
</a>
</g>
</g>
<!-- Client&#45;&gt;RectangleMobility -->
<g id="edge3" class="edge">
<title>Client&#45;&gt;RectangleMobility</title>
<path fill="none" stroke="black" d="M286,-54.75C286,-47.8 286,-37.85 286,-29.13"/>
<polygon fill="black" stroke="black" points="289.5,-29.09 286,-19.09 282.5,-29.09 289.5,-29.09"/>
</g>
<!-- IdealChannel -->
<g id="node5" class="node">
<title>IdealChannel</title>
<g id="a_node5"><a xlink:href="ned.IdealChannel.html" xlink:title="Channel IdealChannel" target="_parent">
<polygon fill="#d0ffd0" stroke="black" points="437,-19 357,-19 357,0 437,0 437,-19"/>
<text text-anchor="middle" x="397" y="-7" font-family="Helvetica,sans-Serif" font-size="10.00">IdealChannel</text>
</a>
</g>
</g>
<!-- Client&#45;&gt;IdealChannel -->
<g id="edge4" class="edge">
<title>Client&#45;&gt;IdealChannel</title>
<path fill="none" stroke="black" d="M303.83,-54.98C321.61,-46.5 349.15,-33.35 369.68,-23.54"/>
<polygon fill="black" stroke="black" points="371.33,-26.64 378.84,-19.17 368.31,-20.32 371.33,-26.64"/>
</g>
<!-- EtherAppClient -->
<g id="node6" class="node">
<title>EtherAppClient</title>
<g id="a_node6"><a xlink:href="inet.applications.ethernet.EtherAppClient.html" xlink:title="Simple Module EtherAppClient" target="_parent">
<polygon fill="#fffcaf" stroke="black" points="544.5,-19 455.5,-19 455.5,0 544.5,0 544.5,-19"/>
<text text-anchor="middle" x="500" y="-7" font-family="Helvetica,sans-Serif" font-size="10.00">EtherAppClient</text>
</a>
</g>
</g>
<!-- Client&#45;&gt;EtherAppClient -->
<g id="edge5" class="edge">
<title>Client&#45;&gt;EtherAppClient</title>
<path fill="none" stroke="black" d="M313.1,-56.79C348.92,-47.92 412.49,-32.17 455.43,-21.54"/>
<polygon fill="black" stroke="black" points="456.47,-24.89 465.33,-19.09 454.79,-18.09 456.47,-24.89"/>
</g>
<!-- RateControlTest -->
<g id="node7" class="node">
<title>RateControlTest</title>
<g id="a_node7"><a xlink:href="inet.examples.wireless.ratecontrol.RateControlTest.html" xlink:title="Network RateControlTest" target="_parent">
<polygon fill="#d0d0ff" stroke="black" points="333,-129 239,-129 239,-110 333,-110 333,-129"/>
<text text-anchor="middle" x="286" y="-117" font-family="Helvetica,sans-Serif" font-size="10.00">RateControlTest</text>
</a>
</g>
</g>
<!-- RateControlTest&#45;&gt;Client -->
<g id="edge6" class="edge">
<title>RateControlTest&#45;&gt;Client</title>
<path fill="none" stroke="black" d="M286,-109.75C286,-102.8 286,-92.85 286,-84.13"/>
<polygon fill="black" stroke="black" points="289.5,-84.09 286,-74.09 282.5,-84.09 289.5,-84.09"/>
</g>
</g>
</svg>
