<?xml version="1.0" encoding="UTF-8" standalone="no"?>
<!DOCTYPE svg PUBLIC "-//W3C//DTD SVG 1.1//EN"
 "http://www.w3.org/Graphics/SVG/1.1/DTD/svg11.dtd">
<!-- Generated by graphviz version 2.43.0 (0)
 -->
<!-- Title: opp Pages: 1 -->
<svg width="270pt" height="82pt"
 viewBox="0.00 0.00 270.00 82.00" xmlns="http://www.w3.org/2000/svg" xmlns:xlink="http://www.w3.org/1999/xlink">
<g id="graph0" class="graph" transform="scale(1 1) rotate(0) translate(4 78)">
<title>opp</title>
<polygon fill="transparent" stroke="transparent" points="-4,4 -4,-78 266,-78 266,4 -4,4"/>
<!-- IIeee8022LlcLayer -->
<g id="node1" class="node">
<title>IIeee8022LlcLayer</title>
<g id="a_node1"><a xlink:href="inet.linklayer.ieee8022.IIeee8022LlcLayer.html" xlink:title="Module Interface IIeee8022LlcLayer" target="_parent">
<polygon fill="#fff700" stroke="black" stroke-dasharray="5,2" points="173.5,-74 68.5,-74 68.5,-55 173.5,-55 173.5,-74"/>
<text text-anchor="middle" x="121" y="-62" font-family="Helvetica,sans-Serif" font-size="10.00">IIeee8022LlcLayer</text>
</a>
</g>
</g>
<!-- Ieee8022LlcLayer -->
<g id="node2" class="node">
<title>Ieee8022LlcLayer</title>
<g id="a_node2"><a xlink:href="inet.linklayer.ieee8022.Ieee8022LlcLayer.html" xlink:title="Compound Module Ieee8022LlcLayer" target="_parent">
<polygon fill="#fffcaf" stroke="black" points="102,-19 0,-19 0,0 102,0 102,-19"/>
<text text-anchor="middle" x="51" y="-7" font-family="Helvetica,sans-Serif" font-size="10.00">Ieee8022LlcLayer</text>
</a>
</g>
</g>
<!-- IIeee8022LlcLayer&#45;&gt;Ieee8022LlcLayer -->
<g id="edge1" class="edge">
<title>IIeee8022LlcLayer&#45;&gt;Ieee8022LlcLayer</title>
<path fill="none" stroke="black" stroke-dasharray="5,2" d="M109.75,-54.98C96.77,-45.15 75.52,-29.07 62.45,-19.17"/>
</g>
<!-- OmittedIeee8022LlcLayer -->
<g id="node3" class="node">
<title>OmittedIeee8022LlcLayer</title>
<g id="a_node3"><a xlink:href="inet.linklayer.ieee8022.OmittedIeee8022LlcLayer.html" xlink:title="Compound Module OmittedIeee8022LlcLayer" target="_parent">
<polygon fill="#fffcaf" stroke="black" points="262,-19 120,-19 120,0 262,0 262,-19"/>
<text text-anchor="middle" x="191" y="-7" font-family="Helvetica,sans-Serif" font-size="10.00">OmittedIeee8022LlcLayer</text>
</a>
</g>
</g>
<!-- IIeee8022LlcLayer&#45;&gt;OmittedIeee8022LlcLayer -->
<g id="edge2" class="edge">
<title>IIeee8022LlcLayer&#45;&gt;OmittedIeee8022LlcLayer</title>
<path fill="none" stroke="black" stroke-dasharray="5,2" d="M132.25,-54.98C145.23,-45.15 166.48,-29.07 179.55,-19.17"/>
</g>
</g>
</svg>
