<?xml version="1.0" encoding="UTF-8" standalone="no"?>
<!DOCTYPE svg PUBLIC "-//W3C//DTD SVG 1.1//EN"
 "http://www.w3.org/Graphics/SVG/1.1/DTD/svg11.dtd">
<!-- Generated by graphviz version 2.43.0 (0)
 -->
<!-- Title: opp Pages: 1 -->
<svg width="574pt" height="137pt"
 viewBox="0.00 0.00 573.50 137.00" xmlns="http://www.w3.org/2000/svg" xmlns:xlink="http://www.w3.org/1999/xlink">
<g id="graph0" class="graph" transform="scale(1 1) rotate(0) translate(4 133)">
<title>opp</title>
<polygon fill="transparent" stroke="transparent" points="-4,4 -4,-133 569.5,-133 569.5,4 -4,4"/>
<!-- LargeLAN -->
<g id="node1" class="node">
<title>LargeLAN</title>
<g id="a_node1"><a xlink:href="inet.examples.ethernet.lans.LargeLAN.html" xlink:title="Compound Module LargeLAN" target="_parent">
<polygon fill="#fff700" stroke="black" points="305.5,-74 241.5,-74 241.5,-55 305.5,-55 305.5,-74"/>
<text text-anchor="middle" x="273.5" y="-62" font-family="Helvetica,sans-Serif" font-size="10.00">LargeLAN</text>
</a>
</g>
</g>
<!-- EthernetHub -->
<g id="node2" class="node">
<title>EthernetHub</title>
<g id="a_node2"><a xlink:href="inet.node.ethernet.EthernetHub.html" xlink:title="Simple Module EthernetHub" target="_parent">
<polygon fill="#fffcaf" stroke="black" points="77,-19 0,-19 0,0 77,0 77,-19"/>
<text text-anchor="middle" x="38.5" y="-7" font-family="Helvetica,sans-Serif" font-size="10.00">EthernetHub</text>
</a>
</g>
</g>
<!-- LargeLAN&#45;&gt;EthernetHub -->
<g id="edge1" class="edge">
<title>LargeLAN&#45;&gt;EthernetHub</title>
<path fill="none" stroke="black" d="M241.32,-56.24C201.26,-47.21 132.52,-31.7 86.3,-21.28"/>
<polygon fill="black" stroke="black" points="87.04,-17.86 76.51,-19.07 85.5,-24.69 87.04,-17.86"/>
</g>
<!-- cabletobus -->
<g id="node3" class="node">
<title>cabletobus</title>
<g id="a_node3"><a xlink:href="inet.examples.ethernet.lans.LargeLAN.cabletobus.html" xlink:title="Channel cabletobus" target="_parent">
<polygon fill="#d0ffd0" stroke="black" points="165.5,-19 95.5,-19 95.5,0 165.5,0 165.5,-19"/>
<text text-anchor="middle" x="130.5" y="-7" font-family="Helvetica,sans-Serif" font-size="10.00">cabletobus</text>
</a>
</g>
</g>
<!-- LargeLAN&#45;&gt;cabletobus -->
<g id="edge2" class="edge">
<title>LargeLAN&#45;&gt;cabletobus</title>
<path fill="none" stroke="black" d="M250.52,-54.98C227,-46.27 190.21,-32.63 163.56,-22.75"/>
<polygon fill="black" stroke="black" points="164.49,-19.36 153.89,-19.17 162.05,-25.93 164.49,-19.36"/>
</g>
<!-- WireJunction -->
<g id="node4" class="node">
<title>WireJunction</title>
<g id="a_node4"><a xlink:href="inet.physicallayer.wired.common.WireJunction.html" xlink:title="Simple Module WireJunction" target="_parent">
<polygon fill="#fffcaf" stroke="black" points="261.5,-19 183.5,-19 183.5,0 261.5,0 261.5,-19"/>
<text text-anchor="middle" x="222.5" y="-7" font-family="Helvetica,sans-Serif" font-size="10.00">WireJunction</text>
</a>
</g>
</g>
<!-- LargeLAN&#45;&gt;WireJunction -->
<g id="edge3" class="edge">
<title>LargeLAN&#45;&gt;WireJunction</title>
<path fill="none" stroke="black" d="M265.08,-54.75C257.73,-47.11 246.87,-35.82 237.96,-26.56"/>
<polygon fill="black" stroke="black" points="240.22,-23.87 230.76,-19.09 235.18,-28.72 240.22,-23.87"/>
</g>
<!-- EthernetSwitch -->
<g id="node5" class="node">
<title>EthernetSwitch</title>
<g id="a_node5"><a xlink:href="inet.node.ethernet.EthernetSwitch.html" xlink:title="Compound Module EthernetSwitch" target="_parent">
<polygon fill="#fffcaf" stroke="black" points="369.5,-19 279.5,-19 279.5,0 369.5,0 369.5,-19"/>
<text text-anchor="middle" x="324.5" y="-7" font-family="Helvetica,sans-Serif" font-size="10.00">EthernetSwitch</text>
</a>
</g>
</g>
<!-- LargeLAN&#45;&gt;EthernetSwitch -->
<g id="edge4" class="edge">
<title>LargeLAN&#45;&gt;EthernetSwitch</title>
<path fill="none" stroke="black" d="M281.92,-54.75C289.27,-47.11 300.13,-35.82 309.04,-26.56"/>
<polygon fill="black" stroke="black" points="311.82,-28.72 316.24,-19.09 306.78,-23.87 311.82,-28.72"/>
</g>
<!-- IdealChannel -->
<g id="node6" class="node">
<title>IdealChannel</title>
<g id="a_node6"><a xlink:href="ned.IdealChannel.html" xlink:title="Channel IdealChannel" target="_parent">
<polygon fill="#d0ffd0" stroke="black" points="467.5,-19 387.5,-19 387.5,0 467.5,0 467.5,-19"/>
<text text-anchor="middle" x="427.5" y="-7" font-family="Helvetica,sans-Serif" font-size="10.00">IdealChannel</text>
</a>
</g>
</g>
<!-- LargeLAN&#45;&gt;IdealChannel -->
<g id="edge5" class="edge">
<title>LargeLAN&#45;&gt;IdealChannel</title>
<path fill="none" stroke="black" d="M298.24,-54.98C323.87,-46.16 364.13,-32.31 392.91,-22.41"/>
<polygon fill="black" stroke="black" points="394.25,-25.65 402.56,-19.08 391.97,-19.03 394.25,-25.65"/>
</g>
<!-- EthernetHost -->
<g id="node7" class="node">
<title>EthernetHost</title>
<g id="a_node7"><a xlink:href="inet.node.ethernet.EthernetHost.html" xlink:title="Compound Module EthernetHost" target="_parent">
<polygon fill="#fffcaf" stroke="black" points="565.5,-19 485.5,-19 485.5,0 565.5,0 565.5,-19"/>
<text text-anchor="middle" x="525.5" y="-7" font-family="Helvetica,sans-Serif" font-size="10.00">EthernetHost</text>
</a>
</g>
</g>
<!-- LargeLAN&#45;&gt;EthernetHost -->
<g id="edge6" class="edge">
<title>LargeLAN&#45;&gt;EthernetHost</title>
<path fill="none" stroke="black" d="M305.67,-56.73C348.5,-47.73 424.69,-31.7 475.16,-21.09"/>
<polygon fill="black" stroke="black" points="476.14,-24.46 485.21,-18.97 474.7,-17.61 476.14,-24.46"/>
</g>
<!-- LargeNet -->
<g id="node8" class="node">
<title>LargeNet</title>
<g id="a_node8"><a xlink:href="inet.examples.ethernet.lans.LargeNet.html" xlink:title="Network LargeNet" target="_parent">
<polygon fill="#d0d0ff" stroke="black" points="304,-129 243,-129 243,-110 304,-110 304,-129"/>
<text text-anchor="middle" x="273.5" y="-117" font-family="Helvetica,sans-Serif" font-size="10.00">LargeNet</text>
</a>
</g>
</g>
<!-- LargeNet&#45;&gt;LargeLAN -->
<g id="edge7" class="edge">
<title>LargeNet&#45;&gt;LargeLAN</title>
<path fill="none" stroke="black" d="M273.5,-109.75C273.5,-102.8 273.5,-92.85 273.5,-84.13"/>
<polygon fill="black" stroke="black" points="277,-84.09 273.5,-74.09 270,-84.09 277,-84.09"/>
</g>
</g>
</svg>
