<?xml version="1.0" encoding="UTF-8" standalone="no"?>
<!DOCTYPE svg PUBLIC "-//W3C//DTD SVG 1.1//EN"
 "http://www.w3.org/Graphics/SVG/1.1/DTD/svg11.dtd">
<!-- Generated by graphviz version 2.43.0 (0)
 -->
<!-- Title: opp Pages: 1 -->
<svg width="229pt" height="82pt"
 viewBox="0.00 0.00 229.00 82.00" xmlns="http://www.w3.org/2000/svg" xmlns:xlink="http://www.w3.org/1999/xlink">
<g id="graph0" class="graph" transform="scale(1 1) rotate(0) translate(4 78)">
<title>opp</title>
<polygon fill="transparent" stroke="transparent" points="-4,4 -4,-78 225,-78 225,4 -4,4"/>
<!-- SubpacketLengthHeaderBasedAggregator -->
<g id="node1" class="node">
<title>SubpacketLengthHeaderBasedAggregator</title>
<g id="a_node1"><a xlink:href="inet.protocolelement.aggregation.SubpacketLengthHeaderBasedAggregator.html" xlink:title="Compound Module SubpacketLengthHeaderBasedAggregator" target="_parent">
<polygon fill="#fff700" stroke="black" points="219,-19 0,-19 0,0 219,0 219,-19"/>
<text text-anchor="middle" x="109.5" y="-7" font-family="Helvetica,sans-Serif" font-size="10.00">SubpacketLengthHeaderBasedAggregator</text>
</a>
</g>
</g>
<!-- AggregatorBase -->
<g id="node2" class="node">
<title>AggregatorBase</title>
<g id="a_node2"><a xlink:href="inet.protocolelement.aggregation.base.AggregatorBase.html" xlink:title="Compound Module AggregatorBase" target="_parent">
<polygon fill="#fffcaf" stroke="black" points="98,-74 3,-74 3,-55 98,-55 98,-74"/>
<text text-anchor="middle" x="50.5" y="-62" font-family="Helvetica,sans-Serif" font-size="10.00">AggregatorBase</text>
</a>
</g>
</g>
<!-- AggregatorBase&#45;&gt;SubpacketLengthHeaderBasedAggregator -->
<g id="edge1" class="edge">
<title>AggregatorBase&#45;&gt;SubpacketLengthHeaderBasedAggregator</title>
<path fill="none" stroke="black" d="M59.98,-54.98C70.92,-45.15 88.83,-29.07 99.85,-19.17"/>
</g>
<!-- IPacketAggregator -->
<g id="node3" class="node">
<title>IPacketAggregator</title>
<g id="a_node3"><a xlink:href="inet.protocolelement.aggregation.contract.IPacketAggregator.html" xlink:title="Module Interface IPacketAggregator" target="_parent">
<polygon fill="#fffcaf" stroke="black" stroke-dasharray="5,2" points="221,-74 116,-74 116,-55 221,-55 221,-74"/>
<text text-anchor="middle" x="168.5" y="-62" font-family="Helvetica,sans-Serif" font-size="10.00">IPacketAggregator</text>
</a>
</g>
</g>
<!-- IPacketAggregator&#45;&gt;SubpacketLengthHeaderBasedAggregator -->
<g id="edge2" class="edge">
<title>IPacketAggregator&#45;&gt;SubpacketLengthHeaderBasedAggregator</title>
<path fill="none" stroke="black" stroke-dasharray="5,2" d="M159.02,-54.98C148.08,-45.15 130.17,-29.07 119.15,-19.17"/>
</g>
</g>
</svg>
