<?xml version="1.0" encoding="UTF-8" standalone="no"?>
<!DOCTYPE svg PUBLIC "-//W3C//DTD SVG 1.1//EN"
 "http://www.w3.org/Graphics/SVG/1.1/DTD/svg11.dtd">
<!-- Generated by graphviz version 2.43.0 (0)
 -->
<!-- Title: opp Pages: 1 -->
<svg width="3941pt" height="137pt"
 viewBox="0.00 0.00 3940.50 137.00" xmlns="http://www.w3.org/2000/svg" xmlns:xlink="http://www.w3.org/1999/xlink">
<g id="graph0" class="graph" transform="scale(1 1) rotate(0) translate(4 133)">
<title>opp</title>
<polygon fill="transparent" stroke="transparent" points="-4,4 -4,-133 3936.5,-133 3936.5,4 -4,4"/>
<!-- AccessPoint -->
<g id="node1" class="node">
<title>AccessPoint</title>
<g id="a_node1"><a xlink:href="inet.node.wireless.AccessPoint.html" xlink:title="Compound Module AccessPoint" target="_parent">
<polygon fill="#fff700" stroke="black" points="2262,-74 2187,-74 2187,-55 2262,-55 2262,-74"/>
<text text-anchor="middle" x="2224.5" y="-62" font-family="Helvetica,sans-Serif" font-size="10.00">AccessPoint</text>
</a>
</g>
</g>
<!-- InterfaceTable -->
<g id="node2" class="node">
<title>InterfaceTable</title>
<g id="a_node2"><a xlink:href="inet.networklayer.common.InterfaceTable.html" xlink:title="Simple Module InterfaceTable" target="_parent">
<polygon fill="#fffcaf" stroke="black" points="1739.5,-19 1653.5,-19 1653.5,0 1739.5,0 1739.5,-19"/>
<text text-anchor="middle" x="1696.5" y="-7" font-family="Helvetica,sans-Serif" font-size="10.00">InterfaceTable</text>
</a>
</g>
</g>
<!-- AccessPoint&#45;&gt;InterfaceTable -->
<g id="edge1" class="edge">
<title>AccessPoint&#45;&gt;InterfaceTable</title>
<path fill="none" stroke="black" d="M2186.76,-60.86C2107.69,-55.14 1918.66,-40.45 1749.67,-19.07"/>
<polygon fill="black" stroke="black" points="1749.96,-15.57 1739.6,-17.78 1749.07,-22.52 1749.96,-15.57"/>
</g>
<!-- IMacForwardingTable -->
<g id="node3" class="node">
<title>IMacForwardingTable</title>
<g id="a_node3"><a xlink:href="inet.linklayer.contract.IMacForwardingTable.html" xlink:title="Module Interface IMacForwardingTable" target="_parent">
<polygon fill="#fffcaf" stroke="black" stroke-dasharray="5,2" points="1877,-19 1758,-19 1758,0 1877,0 1877,-19"/>
<text text-anchor="middle" x="1817.5" y="-7" font-family="Helvetica,sans-Serif" font-size="10.00">IMacForwardingTable</text>
</a>
</g>
</g>
<!-- AccessPoint&#45;&gt;IMacForwardingTable -->
<g id="edge2" class="edge">
<title>AccessPoint&#45;&gt;IMacForwardingTable</title>
<path fill="none" stroke="black" d="M2186.94,-58.61C2118.79,-49.73 1973.83,-30.86 1887.13,-19.57"/>
<polygon fill="black" stroke="black" points="1887.49,-16.08 1877.12,-18.26 1886.58,-23.03 1887.49,-16.08"/>
</g>
<!-- IWirelessInterface -->
<g id="node4" class="node">
<title>IWirelessInterface</title>
<g id="a_node4"><a xlink:href="inet.linklayer.contract.IWirelessInterface.html" xlink:title="Module Interface IWirelessInterface" target="_parent">
<polygon fill="#fffcaf" stroke="black" stroke-dasharray="5,2" points="2000,-19 1895,-19 1895,0 2000,0 2000,-19"/>
<text text-anchor="middle" x="1947.5" y="-7" font-family="Helvetica,sans-Serif" font-size="10.00">IWirelessInterface</text>
</a>
</g>
</g>
<!-- AccessPoint&#45;&gt;IWirelessInterface -->
<g id="edge3" class="edge">
<title>AccessPoint&#45;&gt;IWirelessInterface</title>
<path fill="none" stroke="black" d="M2186.85,-56.3C2139.09,-47.16 2056.37,-31.33 2001.78,-20.89"/>
<polygon fill="black" stroke="black" points="2002.41,-17.44 1991.93,-19 2001.1,-24.32 2002.41,-17.44"/>
</g>
<!-- MessageDispatcher -->
<g id="node5" class="node">
<title>MessageDispatcher</title>
<g id="a_node5"><a xlink:href="inet.common.MessageDispatcher.html" xlink:title="Simple Module MessageDispatcher" target="_parent">
<polygon fill="#fffcaf" stroke="black" points="2131,-19 2018,-19 2018,0 2131,0 2131,-19"/>
<text text-anchor="middle" x="2074.5" y="-7" font-family="Helvetica,sans-Serif" font-size="10.00">MessageDispatcher</text>
</a>
</g>
</g>
<!-- AccessPoint&#45;&gt;MessageDispatcher -->
<g id="edge4" class="edge">
<title>AccessPoint&#45;&gt;MessageDispatcher</title>
<path fill="none" stroke="black" d="M2200.4,-54.98C2175.62,-46.23 2136.8,-32.51 2108.81,-22.62"/>
<polygon fill="black" stroke="black" points="2109.63,-19.2 2099.04,-19.17 2107.3,-25.8 2109.63,-19.2"/>
</g>
<!-- IMobility -->
<g id="node6" class="node">
<title>IMobility</title>
<g id="a_node6"><a xlink:href="inet.mobility.contract.IMobility.html" xlink:title="Module Interface IMobility" target="_parent">
<polygon fill="#fffcaf" stroke="black" stroke-dasharray="5,2" points="2208,-19 2149,-19 2149,0 2208,0 2208,-19"/>
<text text-anchor="middle" x="2178.5" y="-7" font-family="Helvetica,sans-Serif" font-size="10.00">IMobility</text>
</a>
</g>
</g>
<!-- AccessPoint&#45;&gt;IMobility -->
<g id="edge5" class="edge">
<title>AccessPoint&#45;&gt;IMobility</title>
<path fill="none" stroke="black" d="M2216.9,-54.75C2210.34,-47.18 2200.68,-36.05 2192.69,-26.84"/>
<polygon fill="black" stroke="black" points="2195.15,-24.35 2185.95,-19.09 2189.87,-28.94 2195.15,-24.35"/>
</g>
<!-- IMacRelayUnit -->
<g id="node7" class="node">
<title>IMacRelayUnit</title>
<g id="a_node7"><a xlink:href="inet.linklayer.contract.IMacRelayUnit.html" xlink:title="Module Interface IMacRelayUnit" target="_parent">
<polygon fill="#fffcaf" stroke="black" stroke-dasharray="5,2" points="2314.5,-19 2226.5,-19 2226.5,0 2314.5,0 2314.5,-19"/>
<text text-anchor="middle" x="2270.5" y="-7" font-family="Helvetica,sans-Serif" font-size="10.00">IMacRelayUnit</text>
</a>
</g>
</g>
<!-- AccessPoint&#45;&gt;IMacRelayUnit -->
<g id="edge6" class="edge">
<title>AccessPoint&#45;&gt;IMacRelayUnit</title>
<path fill="none" stroke="black" d="M2232.1,-54.75C2238.66,-47.18 2248.32,-36.05 2256.31,-26.84"/>
<polygon fill="black" stroke="black" points="2259.13,-28.94 2263.05,-19.09 2253.85,-24.35 2259.13,-28.94"/>
</g>
<!-- NodeStatus -->
<g id="node8" class="node">
<title>NodeStatus</title>
<g id="a_node8"><a xlink:href="inet.common.lifecycle.NodeStatus.html" xlink:title="Simple Module NodeStatus" target="_parent">
<polygon fill="#fffcaf" stroke="black" points="2406,-19 2333,-19 2333,0 2406,0 2406,-19"/>
<text text-anchor="middle" x="2369.5" y="-7" font-family="Helvetica,sans-Serif" font-size="10.00">NodeStatus</text>
</a>
</g>
</g>
<!-- AccessPoint&#45;&gt;NodeStatus -->
<g id="edge7" class="edge">
<title>AccessPoint&#45;&gt;NodeStatus</title>
<path fill="none" stroke="black" d="M2247.8,-54.98C2271.75,-46.23 2309.28,-32.51 2336.33,-22.62"/>
<polygon fill="black" stroke="black" points="2337.59,-25.89 2345.78,-19.17 2335.19,-19.32 2337.59,-25.89"/>
</g>
<!-- IEthernetLayer -->
<g id="node9" class="node">
<title>IEthernetLayer</title>
<g id="a_node9"><a xlink:href="inet.linklayer.ethernet.contract.IEthernetLayer.html" xlink:title="Module Interface IEthernetLayer" target="_parent">
<polygon fill="#fffcaf" stroke="black" stroke-dasharray="5,2" points="2512.5,-19 2424.5,-19 2424.5,0 2512.5,0 2512.5,-19"/>
<text text-anchor="middle" x="2468.5" y="-7" font-family="Helvetica,sans-Serif" font-size="10.00">IEthernetLayer</text>
</a>
</g>
</g>
<!-- AccessPoint&#45;&gt;IEthernetLayer -->
<g id="edge8" class="edge">
<title>AccessPoint&#45;&gt;IEthernetLayer</title>
<path fill="none" stroke="black" d="M2262.09,-55.33C2304.31,-46.16 2372.98,-31.25 2419.41,-21.16"/>
<polygon fill="black" stroke="black" points="2420.22,-24.57 2429.25,-19.03 2418.73,-17.73 2420.22,-24.57"/>
</g>
<!-- IdealChannel -->
<g id="node10" class="node">
<title>IdealChannel</title>
<g id="a_node10"><a xlink:href="ned.IdealChannel.html" xlink:title="Channel IdealChannel" target="_parent">
<polygon fill="#d0ffd0" stroke="black" points="2610.5,-19 2530.5,-19 2530.5,0 2610.5,0 2610.5,-19"/>
<text text-anchor="middle" x="2570.5" y="-7" font-family="Helvetica,sans-Serif" font-size="10.00">IdealChannel</text>
</a>
</g>
</g>
<!-- AccessPoint&#45;&gt;IdealChannel -->
<g id="edge9" class="edge">
<title>AccessPoint&#45;&gt;IdealChannel</title>
<path fill="none" stroke="black" d="M2262.05,-58.16C2316.63,-50.33 2421.31,-35.08 2520.51,-19.13"/>
<polygon fill="black" stroke="black" points="2521.09,-22.58 2530.4,-17.53 2519.97,-15.67 2521.09,-22.58"/>
</g>
<!-- IEthernetInterface -->
<g id="node11" class="node">
<title>IEthernetInterface</title>
<g id="a_node11"><a xlink:href="inet.linklayer.contract.IEthernetInterface.html" xlink:title="Module Interface IEthernetInterface" target="_parent">
<polygon fill="#fffcaf" stroke="black" stroke-dasharray="5,2" points="2732.5,-19 2628.5,-19 2628.5,0 2732.5,0 2732.5,-19"/>
<text text-anchor="middle" x="2680.5" y="-7" font-family="Helvetica,sans-Serif" font-size="10.00">IEthernetInterface</text>
</a>
</g>
</g>
<!-- AccessPoint&#45;&gt;IEthernetInterface -->
<g id="edge10" class="edge">
<title>AccessPoint&#45;&gt;IEthernetInterface</title>
<path fill="none" stroke="black" d="M2262.12,-59.59C2330.68,-52.4 2480.82,-36.33 2618,-19.16"/>
<polygon fill="black" stroke="black" points="2618.78,-22.59 2628.27,-17.87 2617.91,-15.64 2618.78,-22.59"/>
</g>
<!-- AnnotationShowcase -->
<g id="node12" class="node">
<title>AnnotationShowcase</title>
<g id="a_node12"><a xlink:href="inet.showcases.visualizer.canvas.styling.AnnotationShowcase.html" xlink:title="Network AnnotationShowcase" target="_parent">
<polygon fill="#d0d0ff" stroke="black" points="119,-129 0,-129 0,-110 119,-110 119,-129"/>
<text text-anchor="middle" x="59.5" y="-117" font-family="Helvetica,sans-Serif" font-size="10.00">AnnotationShowcase</text>
</a>
</g>
</g>
<!-- AnnotationShowcase&#45;&gt;AccessPoint -->
<g id="edge11" class="edge">
<title>AnnotationShowcase&#45;&gt;AccessPoint</title>
<path fill="none" stroke="black" d="M119.17,-110.69C121.98,-110.43 124.77,-110.2 127.5,-110 544.8,-79.57 1902.71,-67.91 2176.23,-65.85"/>
<polygon fill="black" stroke="black" points="2176.64,-69.34 2186.61,-65.77 2176.58,-62.34 2176.64,-69.34"/>
</g>
<!-- ConfiguratorC -->
<g id="node13" class="node">
<title>ConfiguratorC</title>
<g id="a_node13"><a xlink:href="inet.tutorials.configurator.ConfiguratorC.html" xlink:title="Network ConfiguratorC" target="_parent">
<polygon fill="#d0d0ff" stroke="black" points="220,-129 137,-129 137,-110 220,-110 220,-129"/>
<text text-anchor="middle" x="178.5" y="-117" font-family="Helvetica,sans-Serif" font-size="10.00">ConfiguratorC</text>
</a>
</g>
</g>
<!-- ConfiguratorC&#45;&gt;AccessPoint -->
<g id="edge12" class="edge">
<title>ConfiguratorC&#45;&gt;AccessPoint</title>
<path fill="none" stroke="black" d="M220.18,-110.95C222.99,-110.58 225.78,-110.26 228.5,-110 624.11,-72.17 1912.51,-66.41 2176.84,-65.62"/>
<polygon fill="black" stroke="black" points="2176.89,-69.12 2186.88,-65.59 2176.87,-62.12 2176.89,-69.12"/>
</g>
<!-- ConfiguratorE -->
<g id="node14" class="node">
<title>ConfiguratorE</title>
<g id="a_node14"><a xlink:href="inet.tutorials.configurator.ConfiguratorE.html" xlink:title="Network ConfiguratorE" target="_parent">
<polygon fill="#d0d0ff" stroke="black" points="321,-129 238,-129 238,-110 321,-110 321,-129"/>
<text text-anchor="middle" x="279.5" y="-117" font-family="Helvetica,sans-Serif" font-size="10.00">ConfiguratorE</text>
</a>
</g>
</g>
<!-- ConfiguratorE&#45;&gt;AccessPoint -->
<g id="edge13" class="edge">
<title>ConfiguratorE&#45;&gt;AccessPoint</title>
<path fill="none" stroke="black" d="M321.18,-110.95C323.99,-110.58 326.78,-110.26 329.5,-110 703.88,-73.97 1920.51,-66.8 2176.83,-65.68"/>
<polygon fill="black" stroke="black" points="2176.94,-69.18 2186.93,-65.64 2176.91,-62.18 2176.94,-69.18"/>
</g>
<!-- HandoverNetwork -->
<g id="node15" class="node">
<title>HandoverNetwork</title>
<g id="a_node15"><a xlink:href="inet.examples.wireless.handover.HandoverNetwork.html" xlink:title="Network HandoverNetwork" target="_parent">
<polygon fill="#d0d0ff" stroke="black" points="444,-129 339,-129 339,-110 444,-110 444,-129"/>
<text text-anchor="middle" x="391.5" y="-117" font-family="Helvetica,sans-Serif" font-size="10.00">HandoverNetwork</text>
</a>
</g>
</g>
<!-- HandoverNetwork&#45;&gt;AccessPoint -->
<g id="edge14" class="edge">
<title>HandoverNetwork&#45;&gt;AccessPoint</title>
<path fill="none" stroke="black" d="M444.03,-110.8C446.89,-110.5 449.73,-110.23 452.5,-110 801.54,-81.39 1930.64,-68.48 2176.82,-65.97"/>
<polygon fill="black" stroke="black" points="2176.91,-69.46 2186.88,-65.86 2176.84,-62.46 2176.91,-69.46"/>
</g>
<!-- HandoverShowcase -->
<g id="node16" class="node">
<title>HandoverShowcase</title>
<g id="a_node16"><a xlink:href="inet.showcases.wireless.handover.HandoverShowcase.html" xlink:title="Network HandoverShowcase" target="_parent">
<polygon fill="#d0d0ff" stroke="black" points="575,-129 462,-129 462,-110 575,-110 575,-129"/>
<text text-anchor="middle" x="518.5" y="-117" font-family="Helvetica,sans-Serif" font-size="10.00">HandoverShowcase</text>
</a>
</g>
</g>
<!-- HandoverShowcase&#45;&gt;AccessPoint -->
<g id="edge15" class="edge">
<title>HandoverShowcase&#45;&gt;AccessPoint</title>
<path fill="none" stroke="black" d="M575.18,-110.74C577.99,-110.46 580.78,-110.21 583.5,-110 905.12,-84.68 1941.29,-69.34 2176.64,-66.13"/>
<polygon fill="black" stroke="black" points="2176.97,-69.63 2186.92,-65.99 2176.87,-62.63 2176.97,-69.63"/>
</g>
<!-- Ieee80211VisualizationAdvancedFeaturesShowcase -->
<g id="node17" class="node">
<title>Ieee80211VisualizationAdvancedFeaturesShowcase</title>
<g id="a_node17"><a xlink:href="inet.showcases.visualizer.canvas.ieee80211.Ieee80211VisualizationAdvancedFeaturesShowcase.html" xlink:title="Network Ieee80211VisualizationAdvancedFeaturesShowcase" target="_parent">
<polygon fill="#d0d0ff" stroke="black" points="862,-129 593,-129 593,-110 862,-110 862,-129"/>
<text text-anchor="middle" x="727.5" y="-117" font-family="Helvetica,sans-Serif" font-size="10.00">Ieee80211VisualizationAdvancedFeaturesShowcase</text>
</a>
</g>
</g>
<!-- Ieee80211VisualizationAdvancedFeaturesShowcase&#45;&gt;AccessPoint -->
<g id="edge16" class="edge">
<title>Ieee80211VisualizationAdvancedFeaturesShowcase&#45;&gt;AccessPoint</title>
<path fill="none" stroke="black" d="M862.22,-110.39C865.01,-110.26 867.77,-110.13 870.5,-110 1381.64,-86.41 2001.89,-70.78 2176.65,-66.61"/>
<polygon fill="black" stroke="black" points="2176.88,-70.11 2186.79,-66.37 2176.71,-63.11 2176.88,-70.11"/>
</g>
<!-- Ieee80211VisualizationDisplayingAssociationsShowcase -->
<g id="node18" class="node">
<title>Ieee80211VisualizationDisplayingAssociationsShowcase</title>
<g id="a_node18"><a xlink:href="inet.showcases.visualizer.canvas.ieee80211.Ieee80211VisualizationDisplayingAssociationsShowcase.html" xlink:title="Network Ieee80211VisualizationDisplayingAssociationsShowcase" target="_parent">
<polygon fill="#d0d0ff" stroke="black" points="1173,-129 880,-129 880,-110 1173,-110 1173,-129"/>
<text text-anchor="middle" x="1026.5" y="-117" font-family="Helvetica,sans-Serif" font-size="10.00">Ieee80211VisualizationDisplayingAssociationsShowcase</text>
</a>
</g>
</g>
<!-- Ieee80211VisualizationDisplayingAssociationsShowcase&#45;&gt;AccessPoint -->
<g id="edge17" class="edge">
<title>Ieee80211VisualizationDisplayingAssociationsShowcase&#45;&gt;AccessPoint</title>
<path fill="none" stroke="black" d="M1173.35,-110.4C1176.09,-110.27 1178.81,-110.13 1181.5,-110 1565.12,-91.3 2028.33,-73.07 2176.49,-67.34"/>
<polygon fill="black" stroke="black" points="2176.75,-70.83 2186.61,-66.95 2176.48,-63.84 2176.75,-70.83"/>
</g>
<!-- Ieee80211VisualizationSignalLevelsShowcase -->
<g id="node19" class="node">
<title>Ieee80211VisualizationSignalLevelsShowcase</title>
<g id="a_node19"><a xlink:href="inet.showcases.visualizer.canvas.ieee80211.Ieee80211VisualizationSignalLevelsShowcase.html" xlink:title="Network Ieee80211VisualizationSignalLevelsShowcase" target="_parent">
<polygon fill="#d0d0ff" stroke="black" points="1432,-129 1191,-129 1191,-110 1432,-110 1432,-129"/>
<text text-anchor="middle" x="1311.5" y="-117" font-family="Helvetica,sans-Serif" font-size="10.00">Ieee80211VisualizationSignalLevelsShowcase</text>
</a>
</g>
</g>
<!-- Ieee80211VisualizationSignalLevelsShowcase&#45;&gt;AccessPoint -->
<g id="edge18" class="edge">
<title>Ieee80211VisualizationSignalLevelsShowcase&#45;&gt;AccessPoint</title>
<path fill="none" stroke="black" d="M1432.25,-110.57C1435.36,-110.38 1438.45,-110.19 1441.5,-110 1719.8,-92.99 2053.89,-74.72 2176.43,-68.09"/>
<polygon fill="black" stroke="black" points="2176.81,-71.57 2186.6,-67.54 2176.43,-64.58 2176.81,-71.57"/>
</g>
<!-- Ieee80211VisualizationVisualizingHandoverShowcase -->
<g id="node20" class="node">
<title>Ieee80211VisualizationVisualizingHandoverShowcase</title>
<g id="a_node20"><a xlink:href="inet.showcases.visualizer.canvas.ieee80211.Ieee80211VisualizationVisualizingHandoverShowcase.html" xlink:title="Network Ieee80211VisualizationVisualizingHandoverShowcase" target="_parent">
<polygon fill="#d0d0ff" stroke="black" points="1730.5,-129 1450.5,-129 1450.5,-110 1730.5,-110 1730.5,-129"/>
<text text-anchor="middle" x="1590.5" y="-117" font-family="Helvetica,sans-Serif" font-size="10.00">Ieee80211VisualizationVisualizingHandoverShowcase</text>
</a>
</g>
</g>
<!-- Ieee80211VisualizationVisualizingHandoverShowcase&#45;&gt;AccessPoint -->
<g id="edge19" class="edge">
<title>Ieee80211VisualizationVisualizingHandoverShowcase&#45;&gt;AccessPoint</title>
<path fill="none" stroke="black" d="M1692.36,-109.98C1831.28,-98.37 2074.57,-78.03 2176.95,-69.47"/>
<polygon fill="black" stroke="black" points="2177.32,-72.96 2186.99,-68.64 2176.74,-65.98 2177.32,-72.96"/>
</g>
<!-- InterfaceTableVisualizationAdvancedFeaturesShowcase -->
<g id="node21" class="node">
<title>InterfaceTableVisualizationAdvancedFeaturesShowcase</title>
<g id="a_node21"><a xlink:href="inet.showcases.visualizer.canvas.interfacetable.InterfaceTableVisualizationAdvancedFeaturesShowcase.html" xlink:title="Network InterfaceTableVisualizationAdvancedFeaturesShowcase" target="_parent">
<polygon fill="#d0d0ff" stroke="black" points="2036,-129 1749,-129 1749,-110 2036,-110 2036,-129"/>
<text text-anchor="middle" x="1892.5" y="-117" font-family="Helvetica,sans-Serif" font-size="10.00">InterfaceTableVisualizationAdvancedFeaturesShowcase</text>
</a>
</g>
</g>
<!-- InterfaceTableVisualizationAdvancedFeaturesShowcase&#45;&gt;AccessPoint -->
<g id="edge20" class="edge">
<title>InterfaceTableVisualizationAdvancedFeaturesShowcase&#45;&gt;AccessPoint</title>
<path fill="none" stroke="black" d="M1945.84,-109.98C2009.61,-99.81 2115.36,-82.92 2176.61,-73.14"/>
<polygon fill="black" stroke="black" points="2177.46,-76.55 2186.78,-71.52 2176.35,-69.64 2177.46,-76.55"/>
</g>
<!-- Lan80211 -->
<g id="node22" class="node">
<title>Lan80211</title>
<g id="a_node22"><a xlink:href="inet.examples.wireless.lan80211.Lan80211.html" xlink:title="Network Lan80211" target="_parent">
<polygon fill="#d0d0ff" stroke="black" points="2118.5,-129 2054.5,-129 2054.5,-110 2118.5,-110 2118.5,-129"/>
<text text-anchor="middle" x="2086.5" y="-117" font-family="Helvetica,sans-Serif" font-size="10.00">Lan80211</text>
</a>
</g>
</g>
<!-- Lan80211&#45;&gt;AccessPoint -->
<g id="edge21" class="edge">
<title>Lan80211&#45;&gt;AccessPoint</title>
<path fill="none" stroke="black" d="M2108.67,-109.98C2131.27,-101.3 2166.56,-87.75 2192.25,-77.88"/>
<polygon fill="black" stroke="black" points="2193.84,-81.02 2201.92,-74.17 2191.33,-74.49 2193.84,-81.02"/>
</g>
<!-- Lan80211ac -->
<g id="node23" class="node">
<title>Lan80211ac</title>
<g id="a_node23"><a xlink:href="inet.examples.wireless.lan80211ac.Lan80211ac.html" xlink:title="Network Lan80211ac" target="_parent">
<polygon fill="#d0d0ff" stroke="black" points="2212,-129 2137,-129 2137,-110 2212,-110 2212,-129"/>
<text text-anchor="middle" x="2174.5" y="-117" font-family="Helvetica,sans-Serif" font-size="10.00">Lan80211ac</text>
</a>
</g>
</g>
<!-- Lan80211ac&#45;&gt;AccessPoint -->
<g id="edge22" class="edge">
<title>Lan80211ac&#45;&gt;AccessPoint</title>
<path fill="none" stroke="black" d="M2182.76,-109.75C2189.96,-102.11 2200.61,-90.82 2209.35,-81.56"/>
<polygon fill="black" stroke="black" points="2212.08,-83.76 2216.4,-74.09 2206.99,-78.96 2212.08,-83.76"/>
</g>
<!-- mIPv6Network -->
<g id="node24" class="node">
<title>mIPv6Network</title>
<g id="a_node24"><a xlink:href="inet.examples.mobileipv6.mIPv6Network.html" xlink:title="Network mIPv6Network" target="_parent">
<polygon fill="#d0d0ff" stroke="black" points="2319,-129 2230,-129 2230,-110 2319,-110 2319,-129"/>
<text text-anchor="middle" x="2274.5" y="-117" font-family="Helvetica,sans-Serif" font-size="10.00">mIPv6Network</text>
</a>
</g>
</g>
<!-- mIPv6Network&#45;&gt;AccessPoint -->
<g id="edge23" class="edge">
<title>mIPv6Network&#45;&gt;AccessPoint</title>
<path fill="none" stroke="black" d="M2266.24,-109.75C2259.04,-102.11 2248.39,-90.82 2239.65,-81.56"/>
<polygon fill="black" stroke="black" points="2242.01,-78.96 2232.6,-74.09 2236.92,-83.76 2242.01,-78.96"/>
</g>
<!-- MultiRadio -->
<g id="node25" class="node">
<title>MultiRadio</title>
<g id="a_node25"><a xlink:href="inet.examples.wireless.multiradio.MultiRadio.html" xlink:title="Network MultiRadio" target="_parent">
<polygon fill="#d0d0ff" stroke="black" points="2406,-129 2337,-129 2337,-110 2406,-110 2406,-129"/>
<text text-anchor="middle" x="2371.5" y="-117" font-family="Helvetica,sans-Serif" font-size="10.00">MultiRadio</text>
</a>
</g>
</g>
<!-- MultiRadio&#45;&gt;AccessPoint -->
<g id="edge24" class="edge">
<title>MultiRadio&#45;&gt;AccessPoint</title>
<path fill="none" stroke="black" d="M2347.88,-109.98C2323.6,-101.23 2285.55,-87.51 2258.13,-77.62"/>
<polygon fill="black" stroke="black" points="2259.14,-74.27 2248.55,-74.17 2256.77,-80.85 2259.14,-74.27"/>
</g>
<!-- MultiRadioShowcase -->
<g id="node26" class="node">
<title>MultiRadioShowcase</title>
<g id="a_node26"><a xlink:href="inet.showcases.wireless.multiradio.MultiRadioShowcase.html" xlink:title="Network MultiRadioShowcase" target="_parent">
<polygon fill="#d0d0ff" stroke="black" points="2542.5,-129 2424.5,-129 2424.5,-110 2542.5,-110 2542.5,-129"/>
<text text-anchor="middle" x="2483.5" y="-117" font-family="Helvetica,sans-Serif" font-size="10.00">MultiRadioShowcase</text>
</a>
</g>
</g>
<!-- MultiRadioShowcase&#45;&gt;AccessPoint -->
<g id="edge25" class="edge">
<title>MultiRadioShowcase&#45;&gt;AccessPoint</title>
<path fill="none" stroke="black" d="M2441.89,-109.98C2395.56,-100.51 2320.83,-85.21 2272.18,-75.26"/>
<polygon fill="black" stroke="black" points="2272.72,-71.79 2262.22,-73.22 2271.31,-78.65 2272.72,-71.79"/>
</g>
<!-- NetworkPathRIPShowcase -->
<g id="node27" class="node">
<title>NetworkPathRIPShowcase</title>
<g id="a_node27"><a xlink:href="inet.showcases.visualizer.canvas.networkpathactivity.NetworkPathRIPShowcase.html" xlink:title="Network NetworkPathRIPShowcase" target="_parent">
<polygon fill="#d0d0ff" stroke="black" points="2704,-129 2561,-129 2561,-110 2704,-110 2704,-129"/>
<text text-anchor="middle" x="2632.5" y="-117" font-family="Helvetica,sans-Serif" font-size="10.00">NetworkPathRIPShowcase</text>
</a>
</g>
</g>
<!-- NetworkPathRIPShowcase&#45;&gt;AccessPoint -->
<g id="edge26" class="edge">
<title>NetworkPathRIPShowcase&#45;&gt;AccessPoint</title>
<path fill="none" stroke="black" d="M2566.95,-109.98C2484.61,-99.29 2345.3,-81.19 2272.33,-71.71"/>
<polygon fill="black" stroke="black" points="2272.43,-68.2 2262.06,-70.38 2271.53,-75.14 2272.43,-68.2"/>
</g>
<!-- PacketDropQueueOverflowShowcase -->
<g id="node28" class="node">
<title>PacketDropQueueOverflowShowcase</title>
<g id="a_node28"><a xlink:href="inet.showcases.visualizer.canvas.packetdrop.PacketDropQueueOverflowShowcase.html" xlink:title="Network PacketDropQueueOverflowShowcase" target="_parent">
<polygon fill="#d0d0ff" stroke="black" points="2917,-129 2722,-129 2722,-110 2917,-110 2917,-129"/>
<text text-anchor="middle" x="2819.5" y="-117" font-family="Helvetica,sans-Serif" font-size="10.00">PacketDropQueueOverflowShowcase</text>
</a>
</g>
</g>
<!-- PacketDropQueueOverflowShowcase&#45;&gt;AccessPoint -->
<g id="edge27" class="edge">
<title>PacketDropQueueOverflowShowcase&#45;&gt;AccessPoint</title>
<path fill="none" stroke="black" d="M2723.9,-109.98C2594.9,-98.49 2370.01,-78.46 2272.2,-69.75"/>
<polygon fill="black" stroke="black" points="2272.3,-66.24 2262.03,-68.84 2271.68,-73.22 2272.3,-66.24"/>
</g>
<!-- PhysicalLinkVisualizerFilteringShowcase -->
<g id="node29" class="node">
<title>PhysicalLinkVisualizerFilteringShowcase</title>
<g id="a_node29"><a xlink:href="inet.showcases.visualizer.canvas.physicallinkactivity.PhysicalLinkVisualizerFilteringShowcase.html" xlink:title="Network PhysicalLinkVisualizerFilteringShowcase" target="_parent">
<polygon fill="#d0d0ff" stroke="black" points="3148.5,-129 2934.5,-129 2934.5,-110 3148.5,-110 3148.5,-129"/>
<text text-anchor="middle" x="3041.5" y="-117" font-family="Helvetica,sans-Serif" font-size="10.00">PhysicalLinkVisualizerFilteringShowcase</text>
</a>
</g>
</g>
<!-- PhysicalLinkVisualizerFilteringShowcase&#45;&gt;AccessPoint -->
<g id="edge28" class="edge">
<title>PhysicalLinkVisualizerFilteringShowcase&#45;&gt;AccessPoint</title>
<path fill="none" stroke="black" d="M2934.38,-110.55C2931.73,-110.36 2929.1,-110.18 2926.5,-110 2680.46,-93.11 2385.76,-75.18 2272.27,-68.36"/>
<polygon fill="black" stroke="black" points="2272.37,-64.85 2262.18,-67.75 2271.95,-71.84 2272.37,-64.85"/>
</g>
<!-- QosShowcase -->
<g id="node30" class="node">
<title>QosShowcase</title>
<g id="a_node30"><a xlink:href="inet.showcases.wireless.qos.QosShowcase.html" xlink:title="Network QosShowcase" target="_parent">
<polygon fill="#d0d0ff" stroke="black" points="3250.5,-129 3166.5,-129 3166.5,-110 3250.5,-110 3250.5,-129"/>
<text text-anchor="middle" x="3208.5" y="-117" font-family="Helvetica,sans-Serif" font-size="10.00">QosShowcase</text>
</a>
</g>
</g>
<!-- QosShowcase&#45;&gt;AccessPoint -->
<g id="edge29" class="edge">
<title>QosShowcase&#45;&gt;AccessPoint</title>
<path fill="none" stroke="black" d="M3166.25,-111.07C3163.3,-110.67 3160.36,-110.31 3157.5,-110 2820.02,-73.95 2410.73,-67.1 2272.63,-65.8"/>
<polygon fill="black" stroke="black" points="2272.42,-62.3 2262.39,-65.71 2272.36,-69.3 2272.42,-62.3"/>
</g>
<!-- QosThroughput -->
<g id="node31" class="node">
<title>QosThroughput</title>
<g id="a_node31"><a xlink:href="inet.examples.wireless.qos.QosThroughput.html" xlink:title="Network QosThroughput" target="_parent">
<polygon fill="#d0d0ff" stroke="black" points="3360,-129 3269,-129 3269,-110 3360,-110 3360,-129"/>
<text text-anchor="middle" x="3314.5" y="-117" font-family="Helvetica,sans-Serif" font-size="10.00">QosThroughput</text>
</a>
</g>
</g>
<!-- QosThroughput&#45;&gt;AccessPoint -->
<g id="edge30" class="edge">
<title>QosThroughput&#45;&gt;AccessPoint</title>
<path fill="none" stroke="black" d="M3268.93,-111.06C3265.74,-110.66 3262.58,-110.3 3259.5,-110 2880.2,-72.65 2419.64,-66.64 2272.27,-65.68"/>
<polygon fill="black" stroke="black" points="2272.22,-62.18 2262.2,-65.62 2272.18,-69.18 2272.22,-62.18"/>
</g>
<!-- Throughput -->
<g id="node32" class="node">
<title>Throughput</title>
<g id="a_node32"><a xlink:href="inet.examples.wireless.hosttohost.Throughput.html" xlink:title="Network Throughput" target="_parent">
<polygon fill="#d0d0ff" stroke="black" points="3450.5,-129 3378.5,-129 3378.5,-110 3450.5,-110 3450.5,-129"/>
<text text-anchor="middle" x="3414.5" y="-117" font-family="Helvetica,sans-Serif" font-size="10.00">Throughput</text>
</a>
</g>
</g>
<!-- Throughput&#45;&gt;AccessPoint -->
<g id="edge31" class="edge">
<title>Throughput&#45;&gt;AccessPoint</title>
<path fill="none" stroke="black" d="M3378.22,-111.17C3375.28,-110.72 3372.34,-110.32 3369.5,-110 3151.73,-85.34 2460.64,-70.16 2272.3,-66.41"/>
<polygon fill="black" stroke="black" points="2272.23,-62.91 2262.16,-66.21 2272.09,-69.91 2272.23,-62.91"/>
</g>
<!-- WiredAndWirelessHostsWithAP -->
<g id="node33" class="node">
<title>WiredAndWirelessHostsWithAP</title>
<g id="a_node33"><a xlink:href="inet.examples.wireless.wiredandwirelesshostswithap.WiredAndWirelessHostsWithAP.html" xlink:title="Network WiredAndWirelessHostsWithAP" target="_parent">
<polygon fill="#d0d0ff" stroke="black" points="3638,-129 3469,-129 3469,-110 3638,-110 3638,-129"/>
<text text-anchor="middle" x="3553.5" y="-117" font-family="Helvetica,sans-Serif" font-size="10.00">WiredAndWirelessHostsWithAP</text>
</a>
</g>
</g>
<!-- WiredAndWirelessHostsWithAP&#45;&gt;AccessPoint -->
<g id="edge32" class="edge">
<title>WiredAndWirelessHostsWithAP&#45;&gt;AccessPoint</title>
<path fill="none" stroke="black" d="M3468.97,-110.64C3465.77,-110.41 3462.61,-110.2 3459.5,-110 2997.77,-80.83 2437.62,-69.23 2272.48,-66.29"/>
<polygon fill="black" stroke="black" points="2272.24,-62.79 2262.18,-66.11 2272.12,-69.79 2272.24,-62.79"/>
</g>
<!-- WirelessNetWith2DHCP -->
<g id="node34" class="node">
<title>WirelessNetWith2DHCP</title>
<g id="a_node34"><a xlink:href="inet.examples.dhcp.WirelessNetWith2DHCP.html" xlink:title="Network WirelessNetWith2DHCP" target="_parent">
<polygon fill="#d0d0ff" stroke="black" points="3788.5,-129 3656.5,-129 3656.5,-110 3788.5,-110 3788.5,-129"/>
<text text-anchor="middle" x="3722.5" y="-117" font-family="Helvetica,sans-Serif" font-size="10.00">WirelessNetWith2DHCP</text>
</a>
</g>
</g>
<!-- WirelessNetWith2DHCP&#45;&gt;AccessPoint -->
<g id="edge33" class="edge">
<title>WirelessNetWith2DHCP&#45;&gt;AccessPoint</title>
<path fill="none" stroke="black" d="M3656.27,-110.7C3653.31,-110.44 3650.38,-110.21 3647.5,-110 3108.78,-71.11 2452.92,-66.19 2272.43,-65.58"/>
<polygon fill="black" stroke="black" points="2272.22,-62.08 2262.21,-65.55 2272.2,-69.08 2272.22,-62.08"/>
</g>
<!-- WirelessNetWithDHCP -->
<g id="node35" class="node">
<title>WirelessNetWithDHCP</title>
<g id="a_node35"><a xlink:href="inet.examples.dhcp.WirelessNetWithDHCP.html" xlink:title="Network WirelessNetWithDHCP" target="_parent">
<polygon fill="#d0d0ff" stroke="black" points="3932.5,-129 3806.5,-129 3806.5,-110 3932.5,-110 3932.5,-129"/>
<text text-anchor="middle" x="3869.5" y="-117" font-family="Helvetica,sans-Serif" font-size="10.00">WirelessNetWithDHCP</text>
</a>
</g>
</g>
<!-- WirelessNetWithDHCP&#45;&gt;AccessPoint -->
<g id="edge34" class="edge">
<title>WirelessNetWithDHCP&#45;&gt;AccessPoint</title>
<path fill="none" stroke="black" d="M3806.31,-110.72C3803.34,-110.45 3800.39,-110.21 3797.5,-110 3196.51,-66.11 2463.44,-64.82 2272.02,-65.3"/>
<polygon fill="black" stroke="black" points="2272,-61.8 2262.01,-65.33 2272.02,-68.8 2272,-61.8"/>
</g>
</g>
</svg>
