<?xml version="1.0" encoding="UTF-8" standalone="no"?>
<!DOCTYPE svg PUBLIC "-//W3C//DTD SVG 1.1//EN"
 "http://www.w3.org/Graphics/SVG/1.1/DTD/svg11.dtd">
<!-- Generated by graphviz version 2.43.0 (0)
 -->
<!-- Title: opp Pages: 1 -->
<svg width="322pt" height="137pt"
 viewBox="0.00 0.00 322.00 137.00" xmlns="http://www.w3.org/2000/svg" xmlns:xlink="http://www.w3.org/1999/xlink">
<g id="graph0" class="graph" transform="scale(1 1) rotate(0) translate(4 133)">
<title>opp</title>
<polygon fill="transparent" stroke="transparent" points="-4,4 -4,-133 318,-133 318,4 -4,4"/>
<!-- ServerHost3 -->
<g id="node1" class="node">
<title>ServerHost3</title>
<g id="a_node1"><a xlink:href="inet.tutorials.protocol.ServerHost3.html" xlink:title="Compound Module ServerHost3" target="_parent">
<polygon fill="#fff700" stroke="black" points="208.5,-74 131.5,-74 131.5,-55 208.5,-55 208.5,-74"/>
<text text-anchor="middle" x="170" y="-62" font-family="Helvetica,sans-Serif" font-size="10.00">ServerHost3</text>
</a>
</g>
</g>
<!-- PassivePacketSink -->
<g id="node2" class="node">
<title>PassivePacketSink</title>
<g id="a_node2"><a xlink:href="inet.queueing.sink.PassivePacketSink.html" xlink:title="Simple Module PassivePacketSink" target="_parent">
<polygon fill="#fffcaf" stroke="black" points="106,-19 0,-19 0,0 106,0 106,-19"/>
<text text-anchor="middle" x="53" y="-7" font-family="Helvetica,sans-Serif" font-size="10.00">PassivePacketSink</text>
</a>
</g>
</g>
<!-- ServerHost3&#45;&gt;PassivePacketSink -->
<g id="edge1" class="edge">
<title>ServerHost3&#45;&gt;PassivePacketSink</title>
<path fill="none" stroke="black" d="M151.2,-54.98C132.38,-46.46 103.18,-33.23 81.5,-23.41"/>
<polygon fill="black" stroke="black" points="82.69,-20.11 72.14,-19.17 79.8,-26.48 82.69,-20.11"/>
</g>
<!-- PacketReceiver -->
<g id="node3" class="node">
<title>PacketReceiver</title>
<g id="a_node3"><a xlink:href="inet.protocolelement.transceiver.PacketReceiver.html" xlink:title="Simple Module PacketReceiver" target="_parent">
<polygon fill="#fffcaf" stroke="black" points="215.5,-19 124.5,-19 124.5,0 215.5,0 215.5,-19"/>
<text text-anchor="middle" x="170" y="-7" font-family="Helvetica,sans-Serif" font-size="10.00">PacketReceiver</text>
</a>
</g>
</g>
<!-- ServerHost3&#45;&gt;PacketReceiver -->
<g id="edge2" class="edge">
<title>ServerHost3&#45;&gt;PacketReceiver</title>
<path fill="none" stroke="black" d="M170,-54.75C170,-47.8 170,-37.85 170,-29.13"/>
<polygon fill="black" stroke="black" points="173.5,-29.09 170,-19.09 166.5,-29.09 173.5,-29.09"/>
</g>
<!-- IdealChannel -->
<g id="node4" class="node">
<title>IdealChannel</title>
<g id="a_node4"><a xlink:href="ned.IdealChannel.html" xlink:title="Channel IdealChannel" target="_parent">
<polygon fill="#d0ffd0" stroke="black" points="314,-19 234,-19 234,0 314,0 314,-19"/>
<text text-anchor="middle" x="274" y="-7" font-family="Helvetica,sans-Serif" font-size="10.00">IdealChannel</text>
</a>
</g>
</g>
<!-- ServerHost3&#45;&gt;IdealChannel -->
<g id="edge3" class="edge">
<title>ServerHost3&#45;&gt;IdealChannel</title>
<path fill="none" stroke="black" d="M186.71,-54.98C203.21,-46.57 228.7,-33.59 247.88,-23.81"/>
<polygon fill="black" stroke="black" points="249.67,-26.83 256.99,-19.17 246.49,-20.59 249.67,-26.83"/>
</g>
<!-- Network3 -->
<g id="node5" class="node">
<title>Network3</title>
<g id="a_node5"><a xlink:href="inet.tutorials.protocol.Network3.html" xlink:title="Network Network3" target="_parent">
<polygon fill="#d0d0ff" stroke="black" points="202,-129 138,-129 138,-110 202,-110 202,-129"/>
<text text-anchor="middle" x="170" y="-117" font-family="Helvetica,sans-Serif" font-size="10.00">Network3</text>
</a>
</g>
</g>
<!-- Network3&#45;&gt;ServerHost3 -->
<g id="edge4" class="edge">
<title>Network3&#45;&gt;ServerHost3</title>
<path fill="none" stroke="black" d="M170,-109.75C170,-102.8 170,-92.85 170,-84.13"/>
<polygon fill="black" stroke="black" points="173.5,-84.09 170,-74.09 166.5,-84.09 173.5,-84.09"/>
</g>
</g>
</svg>
