<?xml version="1.0" encoding="UTF-8" standalone="no"?>
<!DOCTYPE svg PUBLIC "-//W3C//DTD SVG 1.1//EN"
 "http://www.w3.org/Graphics/SVG/1.1/DTD/svg11.dtd">
<!-- Generated by graphviz version 2.43.0 (0)
 -->
<!-- Title: opp Pages: 1 -->
<svg width="434pt" height="137pt"
 viewBox="0.00 0.00 434.00 137.00" xmlns="http://www.w3.org/2000/svg" xmlns:xlink="http://www.w3.org/1999/xlink">
<g id="graph0" class="graph" transform="scale(1 1) rotate(0) translate(4 133)">
<title>opp</title>
<polygon fill="transparent" stroke="transparent" points="-4,4 -4,-133 430,-133 430,4 -4,4"/>
<!-- OriginatorQosMacDataService -->
<g id="node1" class="node">
<title>OriginatorQosMacDataService</title>
<g id="a_node1"><a xlink:href="inet.linklayer.ieee80211.mac.originator.OriginatorQosMacDataService.html" xlink:title="Compound Module OriginatorQosMacDataService" target="_parent">
<polygon fill="#fff700" stroke="black" points="302,-74 138,-74 138,-55 302,-55 302,-74"/>
<text text-anchor="middle" x="220" y="-62" font-family="Helvetica,sans-Serif" font-size="10.00">OriginatorQosMacDataService</text>
</a>
</g>
</g>
<!-- IMsduAggregationPolicy -->
<g id="node2" class="node">
<title>IMsduAggregationPolicy</title>
<g id="a_node2"><a xlink:href="inet.linklayer.ieee80211.mac.contract.IMsduAggregationPolicy.html" xlink:title="Module Interface IMsduAggregationPolicy" target="_parent">
<polygon fill="#fffcaf" stroke="black" stroke-dasharray="5,2" points="134,-19 0,-19 0,0 134,0 134,-19"/>
<text text-anchor="middle" x="67" y="-7" font-family="Helvetica,sans-Serif" font-size="10.00">IMsduAggregationPolicy</text>
</a>
</g>
</g>
<!-- OriginatorQosMacDataService&#45;&gt;IMsduAggregationPolicy -->
<g id="edge1" class="edge">
<title>OriginatorQosMacDataService&#45;&gt;IMsduAggregationPolicy</title>
<path fill="none" stroke="black" d="M195.42,-54.98C169.95,-46.16 129.96,-32.31 101.37,-22.41"/>
<polygon fill="black" stroke="black" points="102.37,-19.05 91.77,-19.08 100.08,-25.66 102.37,-19.05"/>
</g>
<!-- IMpduAggregationPolicy -->
<g id="node3" class="node">
<title>IMpduAggregationPolicy</title>
<g id="a_node3"><a xlink:href="inet.linklayer.ieee80211.mac.contract.IMpduAggregationPolicy.html" xlink:title="Module Interface IMpduAggregationPolicy" target="_parent">
<polygon fill="#fffcaf" stroke="black" stroke-dasharray="5,2" points="287.5,-19 152.5,-19 152.5,0 287.5,0 287.5,-19"/>
<text text-anchor="middle" x="220" y="-7" font-family="Helvetica,sans-Serif" font-size="10.00">IMpduAggregationPolicy</text>
</a>
</g>
</g>
<!-- OriginatorQosMacDataService&#45;&gt;IMpduAggregationPolicy -->
<g id="edge2" class="edge">
<title>OriginatorQosMacDataService&#45;&gt;IMpduAggregationPolicy</title>
<path fill="none" stroke="black" d="M220,-54.75C220,-47.8 220,-37.85 220,-29.13"/>
<polygon fill="black" stroke="black" points="223.5,-29.09 220,-19.09 216.5,-29.09 223.5,-29.09"/>
</g>
<!-- IFragmentationPolicy -->
<g id="node4" class="node">
<title>IFragmentationPolicy</title>
<g id="a_node4"><a xlink:href="inet.linklayer.ieee80211.mac.contract.IFragmentationPolicy.html" xlink:title="Module Interface IFragmentationPolicy" target="_parent">
<polygon fill="#fffcaf" stroke="black" stroke-dasharray="5,2" points="426,-19 306,-19 306,0 426,0 426,-19"/>
<text text-anchor="middle" x="366" y="-7" font-family="Helvetica,sans-Serif" font-size="10.00">IFragmentationPolicy</text>
</a>
</g>
</g>
<!-- OriginatorQosMacDataService&#45;&gt;IFragmentationPolicy -->
<g id="edge3" class="edge">
<title>OriginatorQosMacDataService&#45;&gt;IFragmentationPolicy</title>
<path fill="none" stroke="black" d="M243.46,-54.98C267.58,-46.23 305.37,-32.51 332.6,-22.62"/>
<polygon fill="black" stroke="black" points="333.91,-25.87 342.12,-19.17 331.52,-19.29 333.91,-25.87"/>
</g>
<!-- Hcf -->
<g id="node5" class="node">
<title>Hcf</title>
<g id="a_node5"><a xlink:href="inet.linklayer.ieee80211.mac.coordinationfunction.Hcf.html" xlink:title="Compound Module Hcf" target="_parent">
<polygon fill="#fffcaf" stroke="black" points="247,-129 193,-129 193,-110 247,-110 247,-129"/>
<text text-anchor="middle" x="220" y="-117" font-family="Helvetica,sans-Serif" font-size="10.00">Hcf</text>
</a>
</g>
</g>
<!-- Hcf&#45;&gt;OriginatorQosMacDataService -->
<g id="edge4" class="edge">
<title>Hcf&#45;&gt;OriginatorQosMacDataService</title>
<path fill="none" stroke="black" d="M220,-109.75C220,-102.8 220,-92.85 220,-84.13"/>
<polygon fill="black" stroke="black" points="223.5,-84.09 220,-74.09 216.5,-84.09 223.5,-84.09"/>
</g>
</g>
</svg>
