<?xml version="1.0" encoding="UTF-8" standalone="no"?>
<!DOCTYPE svg PUBLIC "-//W3C//DTD SVG 1.1//EN"
 "http://www.w3.org/Graphics/SVG/1.1/DTD/svg11.dtd">
<!-- Generated by graphviz version 2.43.0 (0)
 -->
<!-- Title: opp Pages: 1 -->
<svg width="250pt" height="82pt"
 viewBox="0.00 0.00 249.50 82.00" xmlns="http://www.w3.org/2000/svg" xmlns:xlink="http://www.w3.org/1999/xlink">
<g id="graph0" class="graph" transform="scale(1 1) rotate(0) translate(4 78)">
<title>opp</title>
<polygon fill="transparent" stroke="transparent" points="-4,4 -4,-78 245.5,-78 245.5,4 -4,4"/>
<!-- CombiningMobilityShowcase -->
<g id="node1" class="node">
<title>CombiningMobilityShowcase</title>
<g id="a_node1"><a xlink:href="inet.showcases.mobility.combining.CombiningMobilityShowcase.html" xlink:title="Network CombiningMobilityShowcase" target="_parent">
<polygon fill="#9090ff" stroke="black" points="185.5,-74 27.5,-74 27.5,-55 185.5,-55 185.5,-74"/>
<text text-anchor="middle" x="106.5" y="-62" font-family="Helvetica,sans-Serif" font-size="10.00">CombiningMobilityShowcase</text>
</a>
</g>
</g>
<!-- StandardHost -->
<g id="node2" class="node">
<title>StandardHost</title>
<g id="a_node2"><a xlink:href="inet.node.inet.StandardHost.html" xlink:title="Compound Module StandardHost" target="_parent">
<polygon fill="#fffcaf" stroke="black" points="83,-19 0,-19 0,0 83,0 83,-19"/>
<text text-anchor="middle" x="41.5" y="-7" font-family="Helvetica,sans-Serif" font-size="10.00">StandardHost</text>
</a>
</g>
</g>
<!-- CombiningMobilityShowcase&#45;&gt;StandardHost -->
<g id="edge1" class="edge">
<title>CombiningMobilityShowcase&#45;&gt;StandardHost</title>
<path fill="none" stroke="black" d="M96.06,-54.98C86.35,-47.07 71.68,-35.11 60,-25.58"/>
<polygon fill="black" stroke="black" points="62.1,-22.78 52.13,-19.17 57.67,-28.2 62.1,-22.78"/>
</g>
<!-- IntegratedMultiVisualizer -->
<g id="node3" class="node">
<title>IntegratedMultiVisualizer</title>
<g id="a_node3"><a xlink:href="inet.visualizer.common.IntegratedMultiVisualizer.html" xlink:title="Compound Module IntegratedMultiVisualizer" target="_parent">
<polygon fill="#fffcaf" stroke="black" points="241.5,-19 101.5,-19 101.5,0 241.5,0 241.5,-19"/>
<text text-anchor="middle" x="171.5" y="-7" font-family="Helvetica,sans-Serif" font-size="10.00">IntegratedMultiVisualizer</text>
</a>
</g>
</g>
<!-- CombiningMobilityShowcase&#45;&gt;IntegratedMultiVisualizer -->
<g id="edge2" class="edge">
<title>CombiningMobilityShowcase&#45;&gt;IntegratedMultiVisualizer</title>
<path fill="none" stroke="black" d="M116.94,-54.98C126.65,-47.07 141.32,-35.11 153,-25.58"/>
<polygon fill="black" stroke="black" points="155.33,-28.2 160.87,-19.17 150.9,-22.78 155.33,-28.2"/>
</g>
</g>
</svg>
