<?xml version="1.0" encoding="UTF-8" standalone="no"?>
<!DOCTYPE svg PUBLIC "-//W3C//DTD SVG 1.1//EN"
 "http://www.w3.org/Graphics/SVG/1.1/DTD/svg11.dtd">
<!-- Generated by graphviz version 2.43.0 (0)
 -->
<!-- Title: opp Pages: 1 -->
<svg width="240pt" height="137pt"
 viewBox="0.00 0.00 239.50 137.00" xmlns="http://www.w3.org/2000/svg" xmlns:xlink="http://www.w3.org/1999/xlink">
<g id="graph0" class="graph" transform="scale(1 1) rotate(0) translate(4 133)">
<title>opp</title>
<polygon fill="transparent" stroke="transparent" points="-4,4 -4,-133 235.5,-133 235.5,4 -4,4"/>
<!-- TransportLayerNodeBase -->
<g id="node1" class="node">
<title>TransportLayerNodeBase</title>
<g id="a_node1"><a xlink:href="inet.node.base.TransportLayerNodeBase.html" xlink:title="Compound Module TransportLayerNodeBase" target="_parent">
<polygon fill="#fff700" stroke="black" points="205,-74 67,-74 67,-55 205,-55 205,-74"/>
<text text-anchor="middle" x="136" y="-62" font-family="Helvetica,sans-Serif" font-size="10.00">TransportLayerNodeBase</text>
</a>
</g>
</g>
<!-- ApplicationLayerNodeBase -->
<g id="node3" class="node">
<title>ApplicationLayerNodeBase</title>
<g id="a_node3"><a xlink:href="inet.node.base.ApplicationLayerNodeBase.html" xlink:title="Compound Module ApplicationLayerNodeBase" target="_parent">
<polygon fill="#fffcaf" stroke="black" points="148,-19 0,-19 0,0 148,0 148,-19"/>
<text text-anchor="middle" x="74" y="-7" font-family="Helvetica,sans-Serif" font-size="10.00">ApplicationLayerNodeBase</text>
</a>
</g>
</g>
<!-- TransportLayerNodeBase&#45;&gt;ApplicationLayerNodeBase -->
<g id="edge2" class="edge">
<title>TransportLayerNodeBase&#45;&gt;ApplicationLayerNodeBase</title>
<path fill="none" stroke="black" d="M126.04,-54.98C114.54,-45.15 95.72,-29.07 84.14,-19.17"/>
</g>
<!-- BurstHost -->
<g id="node4" class="node">
<title>BurstHost</title>
<g id="a_node4"><a xlink:href="inet.examples.inet.routerperf.BurstHost.html" xlink:title="Compound Module BurstHost" target="_parent">
<polygon fill="#fffcaf" stroke="black" points="231.5,-19 166.5,-19 166.5,0 231.5,0 231.5,-19"/>
<text text-anchor="middle" x="199" y="-7" font-family="Helvetica,sans-Serif" font-size="10.00">BurstHost</text>
</a>
</g>
</g>
<!-- TransportLayerNodeBase&#45;&gt;BurstHost -->
<g id="edge3" class="edge">
<title>TransportLayerNodeBase&#45;&gt;BurstHost</title>
<path fill="none" stroke="black" d="M146.12,-54.98C157.81,-45.15 176.93,-29.07 188.69,-19.17"/>
</g>
<!-- NetworkLayerNodeBase -->
<g id="node2" class="node">
<title>NetworkLayerNodeBase</title>
<g id="a_node2"><a xlink:href="inet.node.base.NetworkLayerNodeBase.html" xlink:title="Compound Module NetworkLayerNodeBase" target="_parent">
<polygon fill="#fffcaf" stroke="black" points="203,-129 69,-129 69,-110 203,-110 203,-129"/>
<text text-anchor="middle" x="136" y="-117" font-family="Helvetica,sans-Serif" font-size="10.00">NetworkLayerNodeBase</text>
</a>
</g>
</g>
<!-- NetworkLayerNodeBase&#45;&gt;TransportLayerNodeBase -->
<g id="edge1" class="edge">
<title>NetworkLayerNodeBase&#45;&gt;TransportLayerNodeBase</title>
<path fill="none" stroke="black" d="M136,-109.75C136,-99.87 136,-83.9 136,-74.09"/>
</g>
</g>
</svg>
