<?xml version="1.0" encoding="UTF-8" standalone="no"?>
<!DOCTYPE svg PUBLIC "-//W3C//DTD SVG 1.1//EN"
 "http://www.w3.org/Graphics/SVG/1.1/DTD/svg11.dtd">
<!-- Generated by graphviz version 2.43.0 (0)
 -->
<!-- Title: opp Pages: 1 -->
<svg width="232pt" height="82pt"
 viewBox="0.00 0.00 232.00 82.00" xmlns="http://www.w3.org/2000/svg" xmlns:xlink="http://www.w3.org/1999/xlink">
<g id="graph0" class="graph" transform="scale(1 1) rotate(0) translate(4 78)">
<title>opp</title>
<polygon fill="transparent" stroke="transparent" points="-4,4 -4,-78 228,-78 228,4 -4,4"/>
<!-- Ieee802154NarrowbandInterface -->
<g id="node1" class="node">
<title>Ieee802154NarrowbandInterface</title>
<g id="a_node1"><a xlink:href="inet.linklayer.ieee802154.Ieee802154NarrowbandInterface.html" xlink:title="Compound Module Ieee802154NarrowbandInterface" target="_parent">
<polygon fill="#fff700" stroke="black" points="198.5,-19 22.5,-19 22.5,0 198.5,0 198.5,-19"/>
<text text-anchor="middle" x="110.5" y="-7" font-family="Helvetica,sans-Serif" font-size="10.00">Ieee802154NarrowbandInterface</text>
</a>
</g>
</g>
<!-- NetworkInterface -->
<g id="node2" class="node">
<title>NetworkInterface</title>
<g id="a_node2"><a xlink:href="inet.networklayer.common.NetworkInterface.html" xlink:title="Compound Module NetworkInterface" target="_parent">
<polygon fill="#fffcaf" stroke="black" points="101,-74 0,-74 0,-55 101,-55 101,-74"/>
<text text-anchor="middle" x="50.5" y="-62" font-family="Helvetica,sans-Serif" font-size="10.00">NetworkInterface</text>
</a>
</g>
</g>
<!-- NetworkInterface&#45;&gt;Ieee802154NarrowbandInterface -->
<g id="edge1" class="edge">
<title>NetworkInterface&#45;&gt;Ieee802154NarrowbandInterface</title>
<path fill="none" stroke="black" d="M60.14,-54.98C71.27,-45.15 89.48,-29.07 100.68,-19.17"/>
</g>
<!-- IWirelessInterface -->
<g id="node3" class="node">
<title>IWirelessInterface</title>
<g id="a_node3"><a xlink:href="inet.linklayer.contract.IWirelessInterface.html" xlink:title="Module Interface IWirelessInterface" target="_parent">
<polygon fill="#fffcaf" stroke="black" stroke-dasharray="5,2" points="224,-74 119,-74 119,-55 224,-55 224,-74"/>
<text text-anchor="middle" x="171.5" y="-62" font-family="Helvetica,sans-Serif" font-size="10.00">IWirelessInterface</text>
</a>
</g>
</g>
<!-- IWirelessInterface&#45;&gt;Ieee802154NarrowbandInterface -->
<g id="edge2" class="edge">
<title>IWirelessInterface&#45;&gt;Ieee802154NarrowbandInterface</title>
<path fill="none" stroke="black" stroke-dasharray="5,2" d="M161.7,-54.98C150.38,-45.15 131.87,-29.07 120.48,-19.17"/>
</g>
</g>
</svg>
