<?xml version="1.0" encoding="UTF-8" standalone="no"?>
<!DOCTYPE svg PUBLIC "-//W3C//DTD SVG 1.1//EN"
 "http://www.w3.org/Graphics/SVG/1.1/DTD/svg11.dtd">
<!-- Generated by graphviz version 2.43.0 (0)
 -->
<!-- Title: opp Pages: 1 -->
<svg width="1463pt" height="82pt"
 viewBox="0.00 0.00 1462.50 82.00" xmlns="http://www.w3.org/2000/svg" xmlns:xlink="http://www.w3.org/1999/xlink">
<g id="graph0" class="graph" transform="scale(1 1) rotate(0) translate(4 78)">
<title>opp</title>
<polygon fill="transparent" stroke="transparent" points="-4,4 -4,-78 1458.5,-78 1458.5,4 -4,4"/>
<!-- Dcf -->
<g id="node1" class="node">
<title>Dcf</title>
<g id="a_node1"><a xlink:href="inet.linklayer.ieee80211.mac.coordinationfunction.Dcf.html" xlink:title="Compound Module Dcf" target="_parent">
<polygon fill="#fff700" stroke="black" points="753,-74 699,-74 699,-55 753,-55 753,-74"/>
<text text-anchor="middle" x="726" y="-62" font-family="Helvetica,sans-Serif" font-size="10.00">Dcf</text>
</a>
</g>
</g>
<!-- Dcaf -->
<g id="node2" class="node">
<title>Dcaf</title>
<g id="a_node2"><a xlink:href="inet.linklayer.ieee80211.mac.channelaccess.Dcaf.html" xlink:title="Compound Module Dcaf" target="_parent">
<polygon fill="#fffcaf" stroke="black" points="54,-19 0,-19 0,0 54,0 54,-19"/>
<text text-anchor="middle" x="27" y="-7" font-family="Helvetica,sans-Serif" font-size="10.00">Dcaf</text>
</a>
</g>
</g>
<!-- Dcf&#45;&gt;Dcaf -->
<g id="edge1" class="edge">
<title>Dcf&#45;&gt;Dcaf</title>
<path fill="none" stroke="black" d="M698.99,-63.28C609.69,-62.22 315.87,-56.05 64.1,-18.89"/>
<polygon fill="black" stroke="black" points="64.44,-15.41 54.03,-17.39 63.41,-22.33 64.44,-15.41"/>
</g>
<!-- AckHandler -->
<g id="node3" class="node">
<title>AckHandler</title>
<g id="a_node3"><a xlink:href="inet.linklayer.ieee80211.mac.originator.AckHandler.html" xlink:title="Simple Module AckHandler" target="_parent">
<polygon fill="#fffcaf" stroke="black" points="145.5,-19 72.5,-19 72.5,0 145.5,0 145.5,-19"/>
<text text-anchor="middle" x="109" y="-7" font-family="Helvetica,sans-Serif" font-size="10.00">AckHandler</text>
</a>
</g>
</g>
<!-- Dcf&#45;&gt;AckHandler -->
<g id="edge2" class="edge">
<title>Dcf&#45;&gt;AckHandler</title>
<path fill="none" stroke="black" d="M698.8,-62.44C617.71,-59.05 370.47,-47.11 155.97,-19.13"/>
<polygon fill="black" stroke="black" points="156.16,-15.62 145.78,-17.79 155.24,-22.56 156.16,-15.62"/>
</g>
<!-- OriginatorMacDataService -->
<g id="node4" class="node">
<title>OriginatorMacDataService</title>
<g id="a_node4"><a xlink:href="inet.linklayer.ieee80211.mac.originator.OriginatorMacDataService.html" xlink:title="Compound Module OriginatorMacDataService" target="_parent">
<polygon fill="#fffcaf" stroke="black" points="308.5,-19 163.5,-19 163.5,0 308.5,0 308.5,-19"/>
<text text-anchor="middle" x="236" y="-7" font-family="Helvetica,sans-Serif" font-size="10.00">OriginatorMacDataService</text>
</a>
</g>
</g>
<!-- Dcf&#45;&gt;OriginatorMacDataService -->
<g id="edge3" class="edge">
<title>Dcf&#45;&gt;OriginatorMacDataService</title>
<path fill="none" stroke="black" d="M698.96,-60.57C627.48,-52.84 431.34,-31.63 318.62,-19.44"/>
<polygon fill="black" stroke="black" points="318.96,-15.95 308.65,-18.36 318.21,-22.91 318.96,-15.95"/>
</g>
<!-- RateSelection -->
<g id="node5" class="node">
<title>RateSelection</title>
<g id="a_node5"><a xlink:href="inet.linklayer.ieee80211.mac.rateselection.RateSelection.html" xlink:title="Simple Module RateSelection" target="_parent">
<polygon fill="#fffcaf" stroke="black" points="411,-19 327,-19 327,0 411,0 411,-19"/>
<text text-anchor="middle" x="369" y="-7" font-family="Helvetica,sans-Serif" font-size="10.00">RateSelection</text>
</a>
</g>
</g>
<!-- Dcf&#45;&gt;RateSelection -->
<g id="edge4" class="edge">
<title>Dcf&#45;&gt;RateSelection</title>
<path fill="none" stroke="black" d="M698.96,-59.76C647.19,-52.56 530.27,-36.09 421.2,-19.16"/>
<polygon fill="black" stroke="black" points="421.43,-15.65 411.01,-17.57 420.36,-22.57 421.43,-15.65"/>
</g>
<!-- RecipientMacDataService -->
<g id="node6" class="node">
<title>RecipientMacDataService</title>
<g id="a_node6"><a xlink:href="inet.linklayer.ieee80211.mac.recipient.RecipientMacDataService.html" xlink:title="Compound Module RecipientMacDataService" target="_parent">
<polygon fill="#fffcaf" stroke="black" points="571,-19 429,-19 429,0 571,0 571,-19"/>
<text text-anchor="middle" x="500" y="-7" font-family="Helvetica,sans-Serif" font-size="10.00">RecipientMacDataService</text>
</a>
</g>
</g>
<!-- Dcf&#45;&gt;RecipientMacDataService -->
<g id="edge5" class="edge">
<title>Dcf&#45;&gt;RecipientMacDataService</title>
<path fill="none" stroke="black" d="M698.74,-57.11C660.97,-48.25 592.22,-32.13 546.32,-21.36"/>
<polygon fill="black" stroke="black" points="546.85,-17.89 536.32,-19.02 545.25,-24.71 546.85,-17.89"/>
</g>
<!-- NonQosRecoveryProcedure -->
<g id="node7" class="node">
<title>NonQosRecoveryProcedure</title>
<g id="a_node7"><a xlink:href="inet.linklayer.ieee80211.mac.originator.NonQosRecoveryProcedure.html" xlink:title="Simple Module NonQosRecoveryProcedure" target="_parent">
<polygon fill="#fffcaf" stroke="black" points="738.5,-19 589.5,-19 589.5,0 738.5,0 738.5,-19"/>
<text text-anchor="middle" x="664" y="-7" font-family="Helvetica,sans-Serif" font-size="10.00">NonQosRecoveryProcedure</text>
</a>
</g>
</g>
<!-- Dcf&#45;&gt;NonQosRecoveryProcedure -->
<g id="edge6" class="edge">
<title>Dcf&#45;&gt;NonQosRecoveryProcedure</title>
<path fill="none" stroke="black" d="M716.04,-54.98C706.87,-47.15 693.06,-35.34 681.97,-25.86"/>
<polygon fill="black" stroke="black" points="684.02,-23.01 674.14,-19.17 679.47,-28.33 684.02,-23.01"/>
</g>
<!-- ICtsPolicy -->
<g id="node8" class="node">
<title>ICtsPolicy</title>
<g id="a_node8"><a xlink:href="inet.linklayer.ieee80211.mac.contract.ICtsPolicy.html" xlink:title="Module Interface ICtsPolicy" target="_parent">
<polygon fill="#fffcaf" stroke="black" stroke-dasharray="5,2" points="821.5,-19 756.5,-19 756.5,0 821.5,0 821.5,-19"/>
<text text-anchor="middle" x="789" y="-7" font-family="Helvetica,sans-Serif" font-size="10.00">ICtsPolicy</text>
</a>
</g>
</g>
<!-- Dcf&#45;&gt;ICtsPolicy -->
<g id="edge7" class="edge">
<title>Dcf&#45;&gt;ICtsPolicy</title>
<path fill="none" stroke="black" d="M736.12,-54.98C745.44,-47.15 759.47,-35.34 770.74,-25.86"/>
<polygon fill="black" stroke="black" points="773.29,-28.29 778.69,-19.17 768.79,-22.93 773.29,-28.29"/>
</g>
<!-- IRecipientAckPolicy -->
<g id="node9" class="node">
<title>IRecipientAckPolicy</title>
<g id="a_node9"><a xlink:href="inet.linklayer.ieee80211.mac.contract.IRecipientAckPolicy.html" xlink:title="Module Interface IRecipientAckPolicy" target="_parent">
<polygon fill="#fffcaf" stroke="black" stroke-dasharray="5,2" points="952.5,-19 839.5,-19 839.5,0 952.5,0 952.5,-19"/>
<text text-anchor="middle" x="896" y="-7" font-family="Helvetica,sans-Serif" font-size="10.00">IRecipientAckPolicy</text>
</a>
</g>
</g>
<!-- Dcf&#45;&gt;IRecipientAckPolicy -->
<g id="edge8" class="edge">
<title>Dcf&#45;&gt;IRecipientAckPolicy</title>
<path fill="none" stroke="black" d="M753.31,-54.98C781.85,-46.09 826.83,-32.07 858.64,-22.15"/>
<polygon fill="black" stroke="black" points="859.97,-25.4 868.47,-19.08 857.88,-18.72 859.97,-25.4"/>
</g>
<!-- IRateControl -->
<g id="node10" class="node">
<title>IRateControl</title>
<g id="a_node10"><a xlink:href="inet.linklayer.ieee80211.mac.contract.IRateControl.html" xlink:title="Module Interface IRateControl" target="_parent">
<polygon fill="#fffcaf" stroke="black" stroke-dasharray="5,2" points="1047.5,-19 970.5,-19 970.5,0 1047.5,0 1047.5,-19"/>
<text text-anchor="middle" x="1009" y="-7" font-family="Helvetica,sans-Serif" font-size="10.00">IRateControl</text>
</a>
</g>
</g>
<!-- Dcf&#45;&gt;IRateControl -->
<g id="edge9" class="edge">
<title>Dcf&#45;&gt;IRateControl</title>
<path fill="none" stroke="black" d="M753.14,-58.42C800.87,-49.48 900.47,-30.83 960.35,-19.61"/>
<polygon fill="black" stroke="black" points="961.14,-23.02 970.32,-17.74 959.85,-16.14 961.14,-23.02"/>
</g>
<!-- OriginatorProtectionMechanism -->
<g id="node11" class="node">
<title>OriginatorProtectionMechanism</title>
<g id="a_node11"><a xlink:href="inet.linklayer.ieee80211.mac.protectionmechanism.OriginatorProtectionMechanism.html" xlink:title="Simple Module OriginatorProtectionMechanism" target="_parent">
<polygon fill="#fffcaf" stroke="black" points="1236.5,-19 1065.5,-19 1065.5,0 1236.5,0 1236.5,-19"/>
<text text-anchor="middle" x="1151" y="-7" font-family="Helvetica,sans-Serif" font-size="10.00">OriginatorProtectionMechanism</text>
</a>
</g>
</g>
<!-- Dcf&#45;&gt;OriginatorProtectionMechanism -->
<g id="edge10" class="edge">
<title>Dcf&#45;&gt;OriginatorProtectionMechanism</title>
<path fill="none" stroke="black" d="M753.23,-60.1C816.58,-52.2 975.77,-32.35 1072.47,-20.29"/>
<polygon fill="black" stroke="black" points="1073,-23.75 1082.49,-19.04 1072.14,-16.81 1073,-23.75"/>
</g>
<!-- IOriginatorAckPolicy -->
<g id="node12" class="node">
<title>IOriginatorAckPolicy</title>
<g id="a_node12"><a xlink:href="inet.linklayer.ieee80211.mac.contract.IOriginatorAckPolicy.html" xlink:title="Module Interface IOriginatorAckPolicy" target="_parent">
<polygon fill="#fffcaf" stroke="black" stroke-dasharray="5,2" points="1371,-19 1255,-19 1255,0 1371,0 1371,-19"/>
<text text-anchor="middle" x="1313" y="-7" font-family="Helvetica,sans-Serif" font-size="10.00">IOriginatorAckPolicy</text>
</a>
</g>
</g>
<!-- Dcf&#45;&gt;IOriginatorAckPolicy -->
<g id="edge11" class="edge">
<title>Dcf&#45;&gt;IOriginatorAckPolicy</title>
<path fill="none" stroke="black" d="M753.1,-61.57C828.95,-56.1 1049.96,-39.57 1244.78,-19.09"/>
<polygon fill="black" stroke="black" points="1245.34,-22.55 1254.91,-18.02 1244.6,-15.59 1245.34,-22.55"/>
</g>
<!-- IRtsPolicy -->
<g id="node13" class="node">
<title>IRtsPolicy</title>
<g id="a_node13"><a xlink:href="inet.linklayer.ieee80211.mac.contract.IRtsPolicy.html" xlink:title="Module Interface IRtsPolicy" target="_parent">
<polygon fill="#fffcaf" stroke="black" stroke-dasharray="5,2" points="1454.5,-19 1389.5,-19 1389.5,0 1454.5,0 1454.5,-19"/>
<text text-anchor="middle" x="1422" y="-7" font-family="Helvetica,sans-Serif" font-size="10.00">IRtsPolicy</text>
</a>
</g>
</g>
<!-- Dcf&#45;&gt;IRtsPolicy -->
<g id="edge12" class="edge">
<title>Dcf&#45;&gt;IRtsPolicy</title>
<path fill="none" stroke="black" d="M753.23,-62.93C841.92,-60.81 1130.6,-51.77 1379.12,-18.92"/>
<polygon fill="black" stroke="black" points="1379.61,-22.39 1389.05,-17.59 1378.68,-15.45 1379.61,-22.39"/>
</g>
</g>
</svg>
