<?xml version="1.0" encoding="UTF-8" standalone="no"?>
<!DOCTYPE svg PUBLIC "-//W3C//DTD SVG 1.1//EN"
 "http://www.w3.org/Graphics/SVG/1.1/DTD/svg11.dtd">
<!-- Generated by graphviz version 2.43.0 (0)
 -->
<!-- Title: opp Pages: 1 -->
<svg width="894pt" height="137pt"
 viewBox="0.00 0.00 894.00 137.00" xmlns="http://www.w3.org/2000/svg" xmlns:xlink="http://www.w3.org/1999/xlink">
<g id="graph0" class="graph" transform="scale(1 1) rotate(0) translate(4 133)">
<title>opp</title>
<polygon fill="transparent" stroke="transparent" points="-4,4 -4,-133 890,-133 890,4 -4,4"/>
<!-- ClientHost6 -->
<g id="node1" class="node">
<title>ClientHost6</title>
<g id="a_node1"><a xlink:href="inet.tutorials.protocol.ClientHost6.html" xlink:title="Compound Module ClientHost6" target="_parent">
<polygon fill="#fff700" stroke="black" points="514,-74 440,-74 440,-55 514,-55 514,-74"/>
<text text-anchor="middle" x="477" y="-62" font-family="Helvetica,sans-Serif" font-size="10.00">ClientHost6</text>
</a>
</g>
</g>
<!-- FcsHeaderInserter -->
<g id="node2" class="node">
<title>FcsHeaderInserter</title>
<g id="a_node2"><a xlink:href="inet.protocolelement.checksum.FcsHeaderInserter.html" xlink:title="Simple Module FcsHeaderInserter" target="_parent">
<polygon fill="#fffcaf" stroke="black" points="106,-19 0,-19 0,0 106,0 106,-19"/>
<text text-anchor="middle" x="53" y="-7" font-family="Helvetica,sans-Serif" font-size="10.00">FcsHeaderInserter</text>
</a>
</g>
</g>
<!-- ClientHost6&#45;&gt;FcsHeaderInserter -->
<g id="edge1" class="edge">
<title>ClientHost6&#45;&gt;FcsHeaderInserter</title>
<path fill="none" stroke="black" d="M439.98,-59.12C376.16,-51.54 241.05,-35.31 116.21,-19.14"/>
<polygon fill="black" stroke="black" points="116.46,-15.65 106.09,-17.83 115.56,-22.59 116.46,-15.65"/>
</g>
<!-- InstantServer -->
<g id="node3" class="node">
<title>InstantServer</title>
<g id="a_node3"><a xlink:href="inet.queueing.server.InstantServer.html" xlink:title="Simple Module InstantServer" target="_parent">
<polygon fill="#fffcaf" stroke="black" points="206,-19 124,-19 124,0 206,0 206,-19"/>
<text text-anchor="middle" x="165" y="-7" font-family="Helvetica,sans-Serif" font-size="10.00">InstantServer</text>
</a>
</g>
</g>
<!-- ClientHost6&#45;&gt;InstantServer -->
<g id="edge2" class="edge">
<title>ClientHost6&#45;&gt;InstantServer</title>
<path fill="none" stroke="black" d="M439.69,-57.16C390.76,-48.86 301.96,-33.78 216.11,-19.19"/>
<polygon fill="black" stroke="black" points="216.65,-15.73 206.2,-17.5 215.47,-22.63 216.65,-15.73"/>
</g>
<!-- InterpacketGapInserter -->
<g id="node4" class="node">
<title>InterpacketGapInserter</title>
<g id="a_node4"><a xlink:href="inet.protocolelement.common.InterpacketGapInserter.html" xlink:title="Simple Module InterpacketGapInserter" target="_parent">
<polygon fill="#fffcaf" stroke="black" points="352,-19 224,-19 224,0 352,0 352,-19"/>
<text text-anchor="middle" x="288" y="-7" font-family="Helvetica,sans-Serif" font-size="10.00">InterpacketGapInserter</text>
</a>
</g>
</g>
<!-- ClientHost6&#45;&gt;InterpacketGapInserter -->
<g id="edge3" class="edge">
<title>ClientHost6&#45;&gt;InterpacketGapInserter</title>
<path fill="none" stroke="black" d="M446.63,-54.98C414.63,-46.01 364.04,-31.82 328.62,-21.89"/>
<polygon fill="black" stroke="black" points="329.18,-18.41 318.6,-19.08 327.29,-25.15 329.18,-18.41"/>
</g>
<!-- PacketTransmitter -->
<g id="node5" class="node">
<title>PacketTransmitter</title>
<g id="a_node5"><a xlink:href="inet.protocolelement.transceiver.PacketTransmitter.html" xlink:title="Simple Module PacketTransmitter" target="_parent">
<polygon fill="#fffcaf" stroke="black" points="474,-19 370,-19 370,0 474,0 474,-19"/>
<text text-anchor="middle" x="422" y="-7" font-family="Helvetica,sans-Serif" font-size="10.00">PacketTransmitter</text>
</a>
</g>
</g>
<!-- ClientHost6&#45;&gt;PacketTransmitter -->
<g id="edge4" class="edge">
<title>ClientHost6&#45;&gt;PacketTransmitter</title>
<path fill="none" stroke="black" d="M467.92,-54.75C459.91,-47.03 448.04,-35.6 438.38,-26.28"/>
<polygon fill="black" stroke="black" points="440.54,-23.51 430.91,-19.09 435.69,-28.55 440.54,-23.51"/>
</g>
<!-- PacketQueue -->
<g id="node6" class="node">
<title>PacketQueue</title>
<g id="a_node6"><a xlink:href="inet.queueing.queue.PacketQueue.html" xlink:title="Simple Module PacketQueue" target="_parent">
<polygon fill="#fffcaf" stroke="black" points="572,-19 492,-19 492,0 572,0 572,-19"/>
<text text-anchor="middle" x="532" y="-7" font-family="Helvetica,sans-Serif" font-size="10.00">PacketQueue</text>
</a>
</g>
</g>
<!-- ClientHost6&#45;&gt;PacketQueue -->
<g id="edge5" class="edge">
<title>ClientHost6&#45;&gt;PacketQueue</title>
<path fill="none" stroke="black" d="M486.08,-54.75C494.09,-47.03 505.96,-35.6 515.62,-26.28"/>
<polygon fill="black" stroke="black" points="518.31,-28.55 523.09,-19.09 513.46,-23.51 518.31,-28.55"/>
</g>
<!-- IdealChannel -->
<g id="node7" class="node">
<title>IdealChannel</title>
<g id="a_node7"><a xlink:href="ned.IdealChannel.html" xlink:title="Channel IdealChannel" target="_parent">
<polygon fill="#d0ffd0" stroke="black" points="670,-19 590,-19 590,0 670,0 670,-19"/>
<text text-anchor="middle" x="630" y="-7" font-family="Helvetica,sans-Serif" font-size="10.00">IdealChannel</text>
</a>
</g>
</g>
<!-- ClientHost6&#45;&gt;IdealChannel -->
<g id="edge6" class="edge">
<title>ClientHost6&#45;&gt;IdealChannel</title>
<path fill="none" stroke="black" d="M501.58,-54.98C527.05,-46.16 567.04,-32.31 595.63,-22.41"/>
<polygon fill="black" stroke="black" points="596.92,-25.66 605.23,-19.08 594.63,-19.05 596.92,-25.66"/>
</g>
<!-- ActivePacketSource -->
<g id="node8" class="node">
<title>ActivePacketSource</title>
<g id="a_node8"><a xlink:href="inet.queueing.source.ActivePacketSource.html" xlink:title="Simple Module ActivePacketSource" target="_parent">
<polygon fill="#fffcaf" stroke="black" points="800,-19 688,-19 688,0 800,0 800,-19"/>
<text text-anchor="middle" x="744" y="-7" font-family="Helvetica,sans-Serif" font-size="10.00">ActivePacketSource</text>
</a>
</g>
</g>
<!-- ClientHost6&#45;&gt;ActivePacketSource -->
<g id="edge7" class="edge">
<title>ClientHost6&#45;&gt;ActivePacketSource</title>
<path fill="none" stroke="black" d="M514.13,-56.13C560.07,-47.01 638.62,-31.42 690.92,-21.04"/>
<polygon fill="black" stroke="black" points="691.88,-24.41 701.01,-19.03 690.52,-17.55 691.88,-24.41"/>
</g>
<!-- Resending -->
<g id="node9" class="node">
<title>Resending</title>
<g id="a_node9"><a xlink:href="inet.protocolelement.acknowledgement.Resending.html" xlink:title="Simple Module Resending" target="_parent">
<polygon fill="#fffcaf" stroke="black" points="886,-19 818,-19 818,0 886,0 886,-19"/>
<text text-anchor="middle" x="852" y="-7" font-family="Helvetica,sans-Serif" font-size="10.00">Resending</text>
</a>
</g>
</g>
<!-- ClientHost6&#45;&gt;Resending -->
<g id="edge8" class="edge">
<title>ClientHost6&#45;&gt;Resending</title>
<path fill="none" stroke="black" d="M514.45,-59.25C574.26,-52.29 695.22,-37.53 807.62,-19.14"/>
<polygon fill="black" stroke="black" points="808.47,-22.55 817.77,-17.47 807.33,-15.64 808.47,-22.55"/>
</g>
<!-- Network6 -->
<g id="node10" class="node">
<title>Network6</title>
<g id="a_node10"><a xlink:href="inet.tutorials.protocol.Network6.html" xlink:title="Network Network6" target="_parent">
<polygon fill="#d0d0ff" stroke="black" points="509,-129 445,-129 445,-110 509,-110 509,-129"/>
<text text-anchor="middle" x="477" y="-117" font-family="Helvetica,sans-Serif" font-size="10.00">Network6</text>
</a>
</g>
</g>
<!-- Network6&#45;&gt;ClientHost6 -->
<g id="edge9" class="edge">
<title>Network6&#45;&gt;ClientHost6</title>
<path fill="none" stroke="black" d="M477,-109.75C477,-102.8 477,-92.85 477,-84.13"/>
<polygon fill="black" stroke="black" points="480.5,-84.09 477,-74.09 473.5,-84.09 480.5,-84.09"/>
</g>
</g>
</svg>
