<?xml version="1.0" encoding="UTF-8" standalone="no"?>
<!DOCTYPE svg PUBLIC "-//W3C//DTD SVG 1.1//EN"
 "http://www.w3.org/Graphics/SVG/1.1/DTD/svg11.dtd">
<!-- Generated by graphviz version 2.43.0 (0)
 -->
<!-- Title: opp Pages: 1 -->
<svg width="855pt" height="82pt"
 viewBox="0.00 0.00 855.00 82.00" xmlns="http://www.w3.org/2000/svg" xmlns:xlink="http://www.w3.org/1999/xlink">
<g id="graph0" class="graph" transform="scale(1 1) rotate(0) translate(4 78)">
<title>opp</title>
<polygon fill="transparent" stroke="transparent" points="-4,4 -4,-78 851,-78 851,4 -4,4"/>
<!-- Ipv6NetworkLayer -->
<g id="node1" class="node">
<title>Ipv6NetworkLayer</title>
<g id="a_node1"><a xlink:href="inet.networklayer.ipv6.Ipv6NetworkLayer.html" xlink:title="Compound Module Ipv6NetworkLayer" target="_parent">
<polygon fill="#fff700" stroke="black" points="476.5,-74 370.5,-74 370.5,-55 476.5,-55 476.5,-74"/>
<text text-anchor="middle" x="423.5" y="-62" font-family="Helvetica,sans-Serif" font-size="10.00">Ipv6NetworkLayer</text>
</a>
</g>
</g>
<!-- Ipv6RoutingTable -->
<g id="node2" class="node">
<title>Ipv6RoutingTable</title>
<g id="a_node2"><a xlink:href="inet.networklayer.ipv6.Ipv6RoutingTable.html" xlink:title="Simple Module Ipv6RoutingTable" target="_parent">
<polygon fill="#fffcaf" stroke="black" points="101,-19 0,-19 0,0 101,0 101,-19"/>
<text text-anchor="middle" x="50.5" y="-7" font-family="Helvetica,sans-Serif" font-size="10.00">Ipv6RoutingTable</text>
</a>
</g>
</g>
<!-- Ipv6NetworkLayer&#45;&gt;Ipv6RoutingTable -->
<g id="edge1" class="edge">
<title>Ipv6NetworkLayer&#45;&gt;Ipv6RoutingTable</title>
<path fill="none" stroke="black" d="M370.44,-56.02C310.07,-47.5 208.25,-33.1 111.03,-19.22"/>
<polygon fill="black" stroke="black" points="111.42,-15.74 101.03,-17.79 110.43,-22.67 111.42,-15.74"/>
</g>
<!-- MessageDispatcher -->
<g id="node3" class="node">
<title>MessageDispatcher</title>
<g id="a_node3"><a xlink:href="inet.common.MessageDispatcher.html" xlink:title="Simple Module MessageDispatcher" target="_parent">
<polygon fill="#fffcaf" stroke="black" points="232,-19 119,-19 119,0 232,0 232,-19"/>
<text text-anchor="middle" x="175.5" y="-7" font-family="Helvetica,sans-Serif" font-size="10.00">MessageDispatcher</text>
</a>
</g>
</g>
<!-- Ipv6NetworkLayer&#45;&gt;MessageDispatcher -->
<g id="edge2" class="edge">
<title>Ipv6NetworkLayer&#45;&gt;MessageDispatcher</title>
<path fill="none" stroke="black" d="M383.65,-54.98C340.67,-45.8 272.13,-31.15 225.54,-21.19"/>
<polygon fill="black" stroke="black" points="226.17,-17.75 215.66,-19.08 224.71,-24.59 226.17,-17.75"/>
</g>
<!-- Icmpv6 -->
<g id="node4" class="node">
<title>Icmpv6</title>
<g id="a_node4"><a xlink:href="inet.networklayer.icmpv6.Icmpv6.html" xlink:title="Simple Module Icmpv6" target="_parent">
<polygon fill="#fffcaf" stroke="black" points="304.5,-19 250.5,-19 250.5,0 304.5,0 304.5,-19"/>
<text text-anchor="middle" x="277.5" y="-7" font-family="Helvetica,sans-Serif" font-size="10.00">Icmpv6</text>
</a>
</g>
</g>
<!-- Ipv6NetworkLayer&#45;&gt;Icmpv6 -->
<g id="edge3" class="edge">
<title>Ipv6NetworkLayer&#45;&gt;Icmpv6</title>
<path fill="none" stroke="black" d="M400.04,-54.98C375.92,-46.23 338.13,-32.51 310.9,-22.62"/>
<polygon fill="black" stroke="black" points="311.98,-19.29 301.38,-19.17 309.59,-25.87 311.98,-19.29"/>
</g>
<!-- IxMIPv6Support -->
<g id="node5" class="node">
<title>IxMIPv6Support</title>
<g id="a_node5"><a xlink:href="inet.networklayer.contract.IxMIPv6Support.html" xlink:title="Module Interface IxMIPv6Support" target="_parent">
<polygon fill="#fffcaf" stroke="black" stroke-dasharray="5,2" points="416,-19 323,-19 323,0 416,0 416,-19"/>
<text text-anchor="middle" x="369.5" y="-7" font-family="Helvetica,sans-Serif" font-size="10.00">IxMIPv6Support</text>
</a>
</g>
</g>
<!-- Ipv6NetworkLayer&#45;&gt;IxMIPv6Support -->
<g id="edge4" class="edge">
<title>Ipv6NetworkLayer&#45;&gt;IxMIPv6Support</title>
<path fill="none" stroke="black" d="M414.58,-54.75C406.72,-47.03 395.07,-35.6 385.58,-26.28"/>
<polygon fill="black" stroke="black" points="387.84,-23.6 378.25,-19.09 382.94,-28.59 387.84,-23.6"/>
</g>
<!-- IIpv6Tunneling -->
<g id="node6" class="node">
<title>IIpv6Tunneling</title>
<g id="a_node6"><a xlink:href="inet.networklayer.contract.IIpv6Tunneling.html" xlink:title="Module Interface IIpv6Tunneling" target="_parent">
<polygon fill="#fffcaf" stroke="black" stroke-dasharray="5,2" points="521,-19 434,-19 434,0 521,0 521,-19"/>
<text text-anchor="middle" x="477.5" y="-7" font-family="Helvetica,sans-Serif" font-size="10.00">IIpv6Tunneling</text>
</a>
</g>
</g>
<!-- Ipv6NetworkLayer&#45;&gt;IIpv6Tunneling -->
<g id="edge5" class="edge">
<title>Ipv6NetworkLayer&#45;&gt;IIpv6Tunneling</title>
<path fill="none" stroke="black" d="M432.42,-54.75C440.28,-47.03 451.93,-35.6 461.42,-26.28"/>
<polygon fill="black" stroke="black" points="464.06,-28.59 468.75,-19.09 459.16,-23.6 464.06,-28.59"/>
</g>
<!-- IdealChannel -->
<g id="node7" class="node">
<title>IdealChannel</title>
<g id="a_node7"><a xlink:href="ned.IdealChannel.html" xlink:title="Channel IdealChannel" target="_parent">
<polygon fill="#d0ffd0" stroke="black" points="619.5,-19 539.5,-19 539.5,0 619.5,0 619.5,-19"/>
<text text-anchor="middle" x="579.5" y="-7" font-family="Helvetica,sans-Serif" font-size="10.00">IdealChannel</text>
</a>
</g>
</g>
<!-- Ipv6NetworkLayer&#45;&gt;IdealChannel -->
<g id="edge6" class="edge">
<title>Ipv6NetworkLayer&#45;&gt;IdealChannel</title>
<path fill="none" stroke="black" d="M448.56,-54.98C474.53,-46.16 515.31,-32.31 544.46,-22.41"/>
<polygon fill="black" stroke="black" points="545.9,-25.61 554.24,-19.08 543.65,-18.99 545.9,-25.61"/>
</g>
<!-- Ipv6 -->
<g id="node8" class="node">
<title>Ipv6</title>
<g id="a_node8"><a xlink:href="inet.networklayer.ipv6.Ipv6.html" xlink:title="Simple Module Ipv6" target="_parent">
<polygon fill="#fffcaf" stroke="black" points="691.5,-19 637.5,-19 637.5,0 691.5,0 691.5,-19"/>
<text text-anchor="middle" x="664.5" y="-7" font-family="Helvetica,sans-Serif" font-size="10.00">Ipv6</text>
</a>
</g>
</g>
<!-- Ipv6NetworkLayer&#45;&gt;Ipv6 -->
<g id="edge7" class="edge">
<title>Ipv6NetworkLayer&#45;&gt;Ipv6</title>
<path fill="none" stroke="black" d="M464,-54.93C503.29,-46.58 564.84,-33.35 627.35,-19.23"/>
<polygon fill="black" stroke="black" points="628.41,-22.58 637.39,-16.96 626.86,-15.75 628.41,-22.58"/>
</g>
<!-- Ipv6NeighbourDiscovery -->
<g id="node9" class="node">
<title>Ipv6NeighbourDiscovery</title>
<g id="a_node9"><a xlink:href="inet.networklayer.icmpv6.Ipv6NeighbourDiscovery.html" xlink:title="Simple Module Ipv6NeighbourDiscovery" target="_parent">
<polygon fill="#fffcaf" stroke="black" points="847,-19 710,-19 710,0 847,0 847,-19"/>
<text text-anchor="middle" x="778.5" y="-7" font-family="Helvetica,sans-Serif" font-size="10.00">Ipv6NeighbourDiscovery</text>
</a>
</g>
</g>
<!-- Ipv6NetworkLayer&#45;&gt;Ipv6NeighbourDiscovery -->
<g id="edge8" class="edge">
<title>Ipv6NetworkLayer&#45;&gt;Ipv6NeighbourDiscovery</title>
<path fill="none" stroke="black" d="M476.65,-55.57C539.2,-46.23 643.16,-30.71 711.26,-20.54"/>
<polygon fill="black" stroke="black" points="712.08,-23.95 721.46,-19.02 711.05,-17.03 712.08,-23.95"/>
</g>
</g>
</svg>
