<?xml version="1.0" encoding="UTF-8" standalone="no"?>
<!DOCTYPE svg PUBLIC "-//W3C//DTD SVG 1.1//EN"
 "http://www.w3.org/Graphics/SVG/1.1/DTD/svg11.dtd">
<!-- Generated by graphviz version 2.43.0 (0)
 -->
<!-- Title: opp Pages: 1 -->
<svg width="352pt" height="82pt"
 viewBox="0.00 0.00 352.00 82.00" xmlns="http://www.w3.org/2000/svg" xmlns:xlink="http://www.w3.org/1999/xlink">
<g id="graph0" class="graph" transform="scale(1 1) rotate(0) translate(4 78)">
<title>opp</title>
<polygon fill="transparent" stroke="transparent" points="-4,4 -4,-78 348,-78 348,4 -4,4"/>
<!-- R37orig -->
<g id="node1" class="node">
<title>R37orig</title>
<g id="a_node1"><a xlink:href="inet.examples.mpls.net37.R37orig.html" xlink:title="Network R37orig" target="_parent">
<polygon fill="#9090ff" stroke="black" points="220,-74 166,-74 166,-55 220,-55 220,-74"/>
<text text-anchor="middle" x="193" y="-62" font-family="Helvetica,sans-Serif" font-size="10.00">R37orig</text>
</a>
</g>
</g>
<!-- RsvpMplsRouter -->
<g id="node2" class="node">
<title>RsvpMplsRouter</title>
<g id="a_node2"><a xlink:href="inet.node.mpls.RsvpMplsRouter.html" xlink:title="Compound Module RsvpMplsRouter" target="_parent">
<polygon fill="#fffcaf" stroke="black" points="96,-19 0,-19 0,0 96,0 96,-19"/>
<text text-anchor="middle" x="48" y="-7" font-family="Helvetica,sans-Serif" font-size="10.00">RsvpMplsRouter</text>
</a>
</g>
</g>
<!-- R37orig&#45;&gt;RsvpMplsRouter -->
<g id="edge1" class="edge">
<title>R37orig&#45;&gt;RsvpMplsRouter</title>
<path fill="none" stroke="black" d="M169.7,-54.98C145.75,-46.23 108.22,-32.51 81.17,-22.62"/>
<polygon fill="black" stroke="black" points="82.31,-19.32 71.72,-19.17 79.91,-25.89 82.31,-19.32"/>
</g>
<!-- Ipv4FlatNetworkConfigurator -->
<g id="node3" class="node">
<title>Ipv4FlatNetworkConfigurator</title>
<g id="a_node3"><a xlink:href="inet.networklayer.configurator.ipv4.Ipv4FlatNetworkConfigurator.html" xlink:title="Simple Module Ipv4FlatNetworkConfigurator" target="_parent">
<polygon fill="#fffcaf" stroke="black" points="272,-19 114,-19 114,0 272,0 272,-19"/>
<text text-anchor="middle" x="193" y="-7" font-family="Helvetica,sans-Serif" font-size="10.00">Ipv4FlatNetworkConfigurator</text>
</a>
</g>
</g>
<!-- R37orig&#45;&gt;Ipv4FlatNetworkConfigurator -->
<g id="edge2" class="edge">
<title>R37orig&#45;&gt;Ipv4FlatNetworkConfigurator</title>
<path fill="none" stroke="black" d="M193,-54.75C193,-47.8 193,-37.85 193,-29.13"/>
<polygon fill="black" stroke="black" points="196.5,-29.09 193,-19.09 189.5,-29.09 196.5,-29.09"/>
</g>
<!-- line -->
<g id="node4" class="node">
<title>line</title>
<g id="a_node4"><a xlink:href="inet.examples.mpls.net37.R37orig.line.html" xlink:title="Channel line" target="_parent">
<polygon fill="#d0ffd0" stroke="black" points="344,-19 290,-19 290,0 344,0 344,-19"/>
<text text-anchor="middle" x="317" y="-7" font-family="Helvetica,sans-Serif" font-size="10.00">line</text>
</a>
</g>
</g>
<!-- R37orig&#45;&gt;line -->
<g id="edge3" class="edge">
<title>R37orig&#45;&gt;line</title>
<path fill="none" stroke="black" d="M212.92,-54.98C233.05,-46.38 264.38,-32.99 287.41,-23.15"/>
<polygon fill="black" stroke="black" points="288.9,-26.32 296.71,-19.17 286.14,-19.88 288.9,-26.32"/>
</g>
</g>
</svg>
