<?xml version="1.0" encoding="UTF-8" standalone="no"?>
<!DOCTYPE svg PUBLIC "-//W3C//DTD SVG 1.1//EN"
 "http://www.w3.org/Graphics/SVG/1.1/DTD/svg11.dtd">
<!-- Generated by graphviz version 2.43.0 (0)
 -->
<!-- Title: opp Pages: 1 -->
<svg width="438pt" height="82pt"
 viewBox="0.00 0.00 437.50 82.00" xmlns="http://www.w3.org/2000/svg" xmlns:xlink="http://www.w3.org/1999/xlink">
<g id="graph0" class="graph" transform="scale(1 1) rotate(0) translate(4 78)">
<title>opp</title>
<polygon fill="transparent" stroke="transparent" points="-4,4 -4,-78 433.5,-78 433.5,4 -4,4"/>
<!-- PriorityQueueTutorialStep -->
<g id="node1" class="node">
<title>PriorityQueueTutorialStep</title>
<g id="a_node1"><a xlink:href="inet.tutorials.queueing.PriorityQueueTutorialStep.html" xlink:title="Network PriorityQueueTutorialStep" target="_parent">
<polygon fill="#9090ff" stroke="black" points="269,-74 128,-74 128,-55 269,-55 269,-74"/>
<text text-anchor="middle" x="198.5" y="-62" font-family="Helvetica,sans-Serif" font-size="10.00">PriorityQueueTutorialStep</text>
</a>
</g>
</g>
<!-- PriorityQueue -->
<g id="node2" class="node">
<title>PriorityQueue</title>
<g id="a_node2"><a xlink:href="inet.queueing.queue.PriorityQueue.html" xlink:title="Compound Module PriorityQueue" target="_parent">
<polygon fill="#fffcaf" stroke="black" points="83,-19 0,-19 0,0 83,0 83,-19"/>
<text text-anchor="middle" x="41.5" y="-7" font-family="Helvetica,sans-Serif" font-size="10.00">PriorityQueue</text>
</a>
</g>
</g>
<!-- PriorityQueueTutorialStep&#45;&gt;PriorityQueue -->
<g id="edge1" class="edge">
<title>PriorityQueueTutorialStep&#45;&gt;PriorityQueue</title>
<path fill="none" stroke="black" d="M173.28,-54.98C147.14,-46.16 106.1,-32.31 76.77,-22.41"/>
<polygon fill="black" stroke="black" points="77.52,-18.96 66.92,-19.08 75.28,-25.6 77.52,-18.96"/>
</g>
<!-- IdealChannel -->
<g id="node3" class="node">
<title>IdealChannel</title>
<g id="a_node3"><a xlink:href="ned.IdealChannel.html" xlink:title="Channel IdealChannel" target="_parent">
<polygon fill="#d0ffd0" stroke="black" points="181.5,-19 101.5,-19 101.5,0 181.5,0 181.5,-19"/>
<text text-anchor="middle" x="141.5" y="-7" font-family="Helvetica,sans-Serif" font-size="10.00">IdealChannel</text>
</a>
</g>
</g>
<!-- PriorityQueueTutorialStep&#45;&gt;IdealChannel -->
<g id="edge2" class="edge">
<title>PriorityQueueTutorialStep&#45;&gt;IdealChannel</title>
<path fill="none" stroke="black" d="M189.34,-54.98C181,-47.23 168.47,-35.58 158.32,-26.14"/>
<polygon fill="black" stroke="black" points="160.53,-23.42 150.82,-19.17 155.76,-28.54 160.53,-23.42"/>
</g>
<!-- ActivePacketSource -->
<g id="node4" class="node">
<title>ActivePacketSource</title>
<g id="a_node4"><a xlink:href="inet.queueing.source.ActivePacketSource.html" xlink:title="Simple Module ActivePacketSource" target="_parent">
<polygon fill="#fffcaf" stroke="black" points="311.5,-19 199.5,-19 199.5,0 311.5,0 311.5,-19"/>
<text text-anchor="middle" x="255.5" y="-7" font-family="Helvetica,sans-Serif" font-size="10.00">ActivePacketSource</text>
</a>
</g>
</g>
<!-- PriorityQueueTutorialStep&#45;&gt;ActivePacketSource -->
<g id="edge3" class="edge">
<title>PriorityQueueTutorialStep&#45;&gt;ActivePacketSource</title>
<path fill="none" stroke="black" d="M207.66,-54.98C216,-47.23 228.53,-35.58 238.68,-26.14"/>
<polygon fill="black" stroke="black" points="241.24,-28.54 246.18,-19.17 236.47,-23.42 241.24,-28.54"/>
</g>
<!-- ActivePacketSink -->
<g id="node5" class="node">
<title>ActivePacketSink</title>
<g id="a_node5"><a xlink:href="inet.queueing.sink.ActivePacketSink.html" xlink:title="Simple Module ActivePacketSink" target="_parent">
<polygon fill="#fffcaf" stroke="black" points="429.5,-19 329.5,-19 329.5,0 429.5,0 429.5,-19"/>
<text text-anchor="middle" x="379.5" y="-7" font-family="Helvetica,sans-Serif" font-size="10.00">ActivePacketSink</text>
</a>
</g>
</g>
<!-- PriorityQueueTutorialStep&#45;&gt;ActivePacketSink -->
<g id="edge4" class="edge">
<title>PriorityQueueTutorialStep&#45;&gt;ActivePacketSink</title>
<path fill="none" stroke="black" d="M227.58,-54.98C258.1,-46.05 306.26,-31.94 340.16,-22.02"/>
<polygon fill="black" stroke="black" points="341.58,-25.25 350.19,-19.08 339.61,-18.53 341.58,-25.25"/>
</g>
</g>
</svg>
