<?xml version="1.0" encoding="UTF-8" standalone="no"?>
<!DOCTYPE svg PUBLIC "-//W3C//DTD SVG 1.1//EN"
 "http://www.w3.org/Graphics/SVG/1.1/DTD/svg11.dtd">
<!-- Generated by graphviz version 2.43.0 (0)
 -->
<!-- Title: opp Pages: 1 -->
<svg width="5644pt" height="137pt"
 viewBox="0.00 0.00 5644.00 137.00" xmlns="http://www.w3.org/2000/svg" xmlns:xlink="http://www.w3.org/1999/xlink">
<g id="graph0" class="graph" transform="scale(1 1) rotate(0) translate(4 133)">
<title>opp</title>
<polygon fill="transparent" stroke="transparent" points="-4,4 -4,-133 5640,-133 5640,4 -4,4"/>
<!-- PacketFlowBase -->
<g id="node1" class="node">
<title>PacketFlowBase</title>
<g id="a_node1"><a xlink:href="inet.queueing.base.PacketFlowBase.html" xlink:title="Simple Module PacketFlowBase" target="_parent">
<polygon fill="#fff700" stroke="black" points="3211.5,-74 3116.5,-74 3116.5,-55 3211.5,-55 3211.5,-74"/>
<text text-anchor="middle" x="3164" y="-62" font-family="Helvetica,sans-Serif" font-size="10.00">PacketFlowBase</text>
</a>
</g>
</g>
<!-- BackPressureBarrier -->
<g id="node3" class="node">
<title>BackPressureBarrier</title>
<g id="a_node3"><a xlink:href="inet.queueing.common.BackPressureBarrier.html" xlink:title="Simple Module BackPressureBarrier" target="_parent">
<polygon fill="#fffcaf" stroke="black" points="116,-19 0,-19 0,0 116,0 116,-19"/>
<text text-anchor="middle" x="58" y="-7" font-family="Helvetica,sans-Serif" font-size="10.00">BackPressureBarrier</text>
</a>
</g>
</g>
<!-- PacketFlowBase&#45;&gt;BackPressureBarrier -->
<g id="edge2" class="edge">
<title>PacketFlowBase&#45;&gt;BackPressureBarrier</title>
<path fill="none" stroke="black" d="M3116.35,-63.53C2778.64,-63.65 742.15,-62.53 125,-19 122.08,-18.79 119.08,-18.55 116.07,-18.27"/>
</g>
<!-- CrcInserterBase -->
<g id="node4" class="node">
<title>CrcInserterBase</title>
<g id="a_node4"><a xlink:href="inet.protocolelement.checksum.base.CrcInserterBase.html" xlink:title="Simple Module CrcInserterBase" target="_parent">
<polygon fill="#fffcaf" stroke="black" points="228,-19 134,-19 134,0 228,0 228,-19"/>
<text text-anchor="middle" x="181" y="-7" font-family="Helvetica,sans-Serif" font-size="10.00">CrcInserterBase</text>
</a>
</g>
</g>
<!-- PacketFlowBase&#45;&gt;CrcInserterBase -->
<g id="edge3" class="edge">
<title>PacketFlowBase&#45;&gt;CrcInserterBase</title>
<path fill="none" stroke="black" d="M3116.26,-63.66C2785.43,-64.64 829.73,-68.26 237,-19 234.16,-18.76 231.24,-18.47 228.3,-18.14"/>
</g>
<!-- EthernetAddressInserter -->
<g id="node5" class="node">
<title>EthernetAddressInserter</title>
<g id="a_node5"><a xlink:href="inet.linklayer.ethernet.modular.EthernetAddressInserter.html" xlink:title="Simple Module EthernetAddressInserter" target="_parent">
<polygon fill="#fffcaf" stroke="black" points="380,-19 246,-19 246,0 380,0 380,-19"/>
<text text-anchor="middle" x="313" y="-7" font-family="Helvetica,sans-Serif" font-size="10.00">EthernetAddressInserter</text>
</a>
</g>
</g>
<!-- PacketFlowBase&#45;&gt;EthernetAddressInserter -->
<g id="edge4" class="edge">
<title>PacketFlowBase&#45;&gt;EthernetAddressInserter</title>
<path fill="none" stroke="black" d="M3116.47,-63.36C2796.33,-62.32 950.4,-54.81 389,-19 386.09,-18.81 383.11,-18.6 380.11,-18.36"/>
</g>
<!-- EthernetFcsInserter -->
<g id="node6" class="node">
<title>EthernetFcsInserter</title>
<g id="a_node6"><a xlink:href="inet.linklayer.ethernet.modular.EthernetFcsInserter.html" xlink:title="Simple Module EthernetFcsInserter" target="_parent">
<polygon fill="#fffcaf" stroke="black" points="510,-19 398,-19 398,0 510,0 510,-19"/>
<text text-anchor="middle" x="454" y="-7" font-family="Helvetica,sans-Serif" font-size="10.00">EthernetFcsInserter</text>
</a>
</g>
</g>
<!-- PacketFlowBase&#45;&gt;EthernetFcsInserter -->
<g id="edge5" class="edge">
<title>PacketFlowBase&#45;&gt;EthernetFcsInserter</title>
<path fill="none" stroke="black" d="M3116.46,-63.44C2805.02,-62.91 1052.46,-58.24 519,-19 516.16,-18.79 513.26,-18.54 510.33,-18.26"/>
</g>
<!-- EthernetFragmentFcsInserter -->
<g id="node7" class="node">
<title>EthernetFragmentFcsInserter</title>
<g id="a_node7"><a xlink:href="inet.linklayer.ethernet.modular.EthernetFragmentFcsInserter.html" xlink:title="Simple Module EthernetFragmentFcsInserter" target="_parent">
<polygon fill="#fffcaf" stroke="black" points="686,-19 528,-19 528,0 686,0 686,-19"/>
<text text-anchor="middle" x="607" y="-7" font-family="Helvetica,sans-Serif" font-size="10.00">EthernetFragmentFcsInserter</text>
</a>
</g>
</g>
<!-- PacketFlowBase&#45;&gt;EthernetFragmentFcsInserter -->
<g id="edge6" class="edge">
<title>PacketFlowBase&#45;&gt;EthernetFragmentFcsInserter</title>
<path fill="none" stroke="black" d="M3116.04,-63.16C2815.71,-60.93 1190.68,-47.69 694,-19 691.42,-18.85 688.81,-18.68 686.17,-18.5"/>
</g>
<!-- EthernetFragmentPhyHeaderInserter -->
<g id="node8" class="node">
<title>EthernetFragmentPhyHeaderInserter</title>
<g id="a_node8"><a xlink:href="inet.physicallayer.wired.ethernet.EthernetFragmentPhyHeaderInserter.html" xlink:title="Simple Module EthernetFragmentPhyHeaderInserter" target="_parent">
<polygon fill="#fffcaf" stroke="black" points="898.5,-19 703.5,-19 703.5,0 898.5,0 898.5,-19"/>
<text text-anchor="middle" x="801" y="-7" font-family="Helvetica,sans-Serif" font-size="10.00">EthernetFragmentPhyHeaderInserter</text>
</a>
</g>
</g>
<!-- PacketFlowBase&#45;&gt;EthernetFragmentPhyHeaderInserter -->
<g id="edge7" class="edge">
<title>PacketFlowBase&#45;&gt;EthernetFragmentPhyHeaderInserter</title>
<path fill="none" stroke="black" d="M3116.31,-63.63C2878.13,-64.03 1793.59,-63.25 907,-19 904.23,-18.86 901.43,-18.71 898.6,-18.55"/>
</g>
<!-- EthernetMacHeaderInserter -->
<g id="node9" class="node">
<title>EthernetMacHeaderInserter</title>
<g id="a_node9"><a xlink:href="inet.linklayer.ethernet.modular.EthernetMacHeaderInserter.html" xlink:title="Simple Module EthernetMacHeaderInserter" target="_parent">
<polygon fill="#fffcaf" stroke="black" points="1067.5,-19 916.5,-19 916.5,0 1067.5,0 1067.5,-19"/>
<text text-anchor="middle" x="992" y="-7" font-family="Helvetica,sans-Serif" font-size="10.00">EthernetMacHeaderInserter</text>
</a>
</g>
</g>
<!-- PacketFlowBase&#45;&gt;EthernetMacHeaderInserter -->
<g id="edge8" class="edge">
<title>PacketFlowBase&#45;&gt;EthernetMacHeaderInserter</title>
<path fill="none" stroke="black" d="M3116.2,-63C2844.48,-60.07 1491.97,-44.44 1076,-19 1073.22,-18.83 1070.39,-18.64 1067.53,-18.43"/>
</g>
<!-- EthernetPhyHeaderInserter -->
<g id="node10" class="node">
<title>EthernetPhyHeaderInserter</title>
<g id="a_node10"><a xlink:href="inet.physicallayer.wired.ethernet.EthernetPhyHeaderInserter.html" xlink:title="Simple Module EthernetPhyHeaderInserter" target="_parent">
<polygon fill="#fffcaf" stroke="black" points="1234.5,-19 1085.5,-19 1085.5,0 1234.5,0 1234.5,-19"/>
<text text-anchor="middle" x="1160" y="-7" font-family="Helvetica,sans-Serif" font-size="10.00">EthernetPhyHeaderInserter</text>
</a>
</g>
</g>
<!-- PacketFlowBase&#45;&gt;EthernetPhyHeaderInserter -->
<g id="edge9" class="edge">
<title>PacketFlowBase&#45;&gt;EthernetPhyHeaderInserter</title>
<path fill="none" stroke="black" d="M3116.44,-63.76C2900.36,-64.64 1989.43,-65.28 1244,-19 1240.93,-18.81 1237.79,-18.59 1234.63,-18.36"/>
</g>
<!-- EthernetSocketCommandProcessor -->
<g id="node11" class="node">
<title>EthernetSocketCommandProcessor</title>
<g id="a_node11"><a xlink:href="inet.linklayer.ethernet.modular.EthernetSocketCommandProcessor.html" xlink:title="Simple Module EthernetSocketCommandProcessor" target="_parent">
<polygon fill="#fffcaf" stroke="black" points="1441,-19 1253,-19 1253,0 1441,0 1441,-19"/>
<text text-anchor="middle" x="1347" y="-7" font-family="Helvetica,sans-Serif" font-size="10.00">EthernetSocketCommandProcessor</text>
</a>
</g>
</g>
<!-- PacketFlowBase&#45;&gt;EthernetSocketCommandProcessor -->
<g id="edge10" class="edge">
<title>PacketFlowBase&#45;&gt;EthernetSocketCommandProcessor</title>
<path fill="none" stroke="black" d="M3116.25,-63.25C2914.23,-61.96 2109.86,-54.76 1450,-19 1447.04,-18.84 1444.04,-18.66 1441.01,-18.48"/>
</g>
<!-- EthernetTypeOrLengthInserter -->
<g id="node12" class="node">
<title>EthernetTypeOrLengthInserter</title>
<g id="a_node12"><a xlink:href="inet.linklayer.ethernet.modular.EthernetTypeOrLengthInserter.html" xlink:title="Simple Module EthernetTypeOrLengthInserter" target="_parent">
<polygon fill="#fffcaf" stroke="black" points="1621,-19 1459,-19 1459,0 1621,0 1621,-19"/>
<text text-anchor="middle" x="1540" y="-7" font-family="Helvetica,sans-Serif" font-size="10.00">EthernetTypeOrLengthInserter</text>
</a>
</g>
</g>
<!-- PacketFlowBase&#45;&gt;EthernetTypeOrLengthInserter -->
<g id="edge11" class="edge">
<title>PacketFlowBase&#45;&gt;EthernetTypeOrLengthInserter</title>
<path fill="none" stroke="black" d="M3116.23,-63.25C2927.44,-62.01 2215.04,-55.07 1630,-19 1627.18,-18.83 1624.31,-18.63 1621.42,-18.43"/>
</g>
<!-- FcsInserterBase -->
<g id="node13" class="node">
<title>FcsInserterBase</title>
<g id="a_node13"><a xlink:href="inet.protocolelement.checksum.base.FcsInserterBase.html" xlink:title="Simple Module FcsInserterBase" target="_parent">
<polygon fill="#fffcaf" stroke="black" points="1734.5,-19 1639.5,-19 1639.5,0 1734.5,0 1734.5,-19"/>
<text text-anchor="middle" x="1687" y="-7" font-family="Helvetica,sans-Serif" font-size="10.00">FcsInserterBase</text>
</a>
</g>
</g>
<!-- PacketFlowBase&#45;&gt;FcsInserterBase -->
<g id="edge12" class="edge">
<title>PacketFlowBase&#45;&gt;FcsInserterBase</title>
<path fill="none" stroke="black" d="M3116.21,-62.77C2900.76,-59.37 2018.45,-44.13 1743,-19 1740.26,-18.75 1737.45,-18.45 1734.61,-18.12"/>
</g>
<!-- FlowMeasurementRecorder -->
<g id="node14" class="node">
<title>FlowMeasurementRecorder</title>
<g id="a_node14"><a xlink:href="inet.queueing.flow.FlowMeasurementRecorder.html" xlink:title="Simple Module FlowMeasurementRecorder" target="_parent">
<polygon fill="#fffcaf" stroke="black" points="1903.5,-19 1752.5,-19 1752.5,0 1903.5,0 1903.5,-19"/>
<text text-anchor="middle" x="1828" y="-7" font-family="Helvetica,sans-Serif" font-size="10.00">FlowMeasurementRecorder</text>
</a>
</g>
</g>
<!-- PacketFlowBase&#45;&gt;FlowMeasurementRecorder -->
<g id="edge13" class="edge">
<title>PacketFlowBase&#45;&gt;FlowMeasurementRecorder</title>
<path fill="none" stroke="black" d="M3116.22,-62.9C2949.96,-60.59 2381.35,-50.71 1913,-19 1909.89,-18.79 1906.72,-18.56 1903.52,-18.31"/>
</g>
<!-- FlowMeasurementStarter -->
<g id="node15" class="node">
<title>FlowMeasurementStarter</title>
<g id="a_node15"><a xlink:href="inet.queueing.flow.FlowMeasurementStarter.html" xlink:title="Simple Module FlowMeasurementStarter" target="_parent">
<polygon fill="#fffcaf" stroke="black" points="2062,-19 1922,-19 1922,0 2062,0 2062,-19"/>
<text text-anchor="middle" x="1992" y="-7" font-family="Helvetica,sans-Serif" font-size="10.00">FlowMeasurementStarter</text>
</a>
</g>
</g>
<!-- PacketFlowBase&#45;&gt;FlowMeasurementStarter -->
<g id="edge14" class="edge">
<title>PacketFlowBase&#45;&gt;FlowMeasurementStarter</title>
<path fill="none" stroke="black" d="M3116.26,-62.69C2963.75,-59.86 2474.65,-48.9 2071,-19 2068.11,-18.79 2065.16,-18.55 2062.19,-18.3"/>
</g>
<!-- FragmentNumberHeaderInserter -->
<g id="node16" class="node">
<title>FragmentNumberHeaderInserter</title>
<g id="a_node16"><a xlink:href="inet.protocolelement.fragmentation.FragmentNumberHeaderInserter.html" xlink:title="Simple Module FragmentNumberHeaderInserter" target="_parent">
<polygon fill="#fffcaf" stroke="black" points="2255.5,-19 2080.5,-19 2080.5,0 2255.5,0 2255.5,-19"/>
<text text-anchor="middle" x="2168" y="-7" font-family="Helvetica,sans-Serif" font-size="10.00">FragmentNumberHeaderInserter</text>
</a>
</g>
</g>
<!-- PacketFlowBase&#45;&gt;FragmentNumberHeaderInserter -->
<g id="edge15" class="edge">
<title>PacketFlowBase&#45;&gt;FragmentNumberHeaderInserter</title>
<path fill="none" stroke="black" d="M3116.15,-61.79C2981.76,-56.85 2589.41,-41.44 2264,-19 2261.25,-18.81 2258.45,-18.61 2255.62,-18.4"/>
</g>
<!-- Ieee8021aeTagEpdHeaderInserter -->
<g id="node17" class="node">
<title>Ieee8021aeTagEpdHeaderInserter</title>
<g id="a_node17"><a xlink:href="inet.linklayer.ieee8021ae.Ieee8021aeTagEpdHeaderInserter.html" xlink:title="Simple Module Ieee8021aeTagEpdHeaderInserter" target="_parent">
<polygon fill="#fffcaf" stroke="black" points="2454.5,-19 2273.5,-19 2273.5,0 2454.5,0 2454.5,-19"/>
<text text-anchor="middle" x="2364" y="-7" font-family="Helvetica,sans-Serif" font-size="10.00">Ieee8021aeTagEpdHeaderInserter</text>
</a>
</g>
</g>
<!-- PacketFlowBase&#45;&gt;Ieee8021aeTagEpdHeaderInserter -->
<g id="edge16" class="edge">
<title>PacketFlowBase&#45;&gt;Ieee8021aeTagEpdHeaderInserter</title>
<path fill="none" stroke="black" d="M3116.38,-60.84C3003.09,-54.44 2708.65,-37.34 2463,-19 2460.25,-18.79 2457.45,-18.58 2454.63,-18.36"/>
</g>
<!-- Ieee8021qSocketCommandProcessor -->
<g id="node18" class="node">
<title>Ieee8021qSocketCommandProcessor</title>
<g id="a_node18"><a xlink:href="inet.linklayer.ieee8021q.Ieee8021qSocketCommandProcessor.html" xlink:title="Simple Module Ieee8021qSocketCommandProcessor" target="_parent">
<polygon fill="#fffcaf" stroke="black" points="2669.5,-19 2472.5,-19 2472.5,0 2669.5,0 2669.5,-19"/>
<text text-anchor="middle" x="2571" y="-7" font-family="Helvetica,sans-Serif" font-size="10.00">Ieee8021qSocketCommandProcessor</text>
</a>
</g>
</g>
<!-- PacketFlowBase&#45;&gt;Ieee8021qSocketCommandProcessor -->
<g id="edge17" class="edge">
<title>PacketFlowBase&#45;&gt;Ieee8021qSocketCommandProcessor</title>
<path fill="none" stroke="black" d="M3116.47,-59.25C3018.98,-50.54 2794.72,-30.5 2666.16,-19.01"/>
</g>
<!-- Ieee8021qTagEpdHeaderInserter -->
<g id="node19" class="node">
<title>Ieee8021qTagEpdHeaderInserter</title>
<g id="a_node19"><a xlink:href="inet.linklayer.ieee8021q.Ieee8021qTagEpdHeaderInserter.html" xlink:title="Simple Module Ieee8021qTagEpdHeaderInserter" target="_parent">
<polygon fill="#fffcaf" stroke="black" points="2862.5,-19 2687.5,-19 2687.5,0 2862.5,0 2862.5,-19"/>
<text text-anchor="middle" x="2775" y="-7" font-family="Helvetica,sans-Serif" font-size="10.00">Ieee8021qTagEpdHeaderInserter</text>
</a>
</g>
</g>
<!-- PacketFlowBase&#45;&gt;Ieee8021qTagEpdHeaderInserter -->
<g id="edge18" class="edge">
<title>PacketFlowBase&#45;&gt;Ieee8021qTagEpdHeaderInserter</title>
<path fill="none" stroke="black" d="M3116.3,-57C3046.21,-47.45 2915.3,-29.61 2837.57,-19.02"/>
</g>
<!-- Ieee8021qTagTpidHeaderInserter -->
<g id="node20" class="node">
<title>Ieee8021qTagTpidHeaderInserter</title>
<g id="a_node20"><a xlink:href="inet.linklayer.ieee8021q.Ieee8021qTagTpidHeaderInserter.html" xlink:title="Simple Module Ieee8021qTagTpidHeaderInserter" target="_parent">
<polygon fill="#fffcaf" stroke="black" points="3059,-19 2881,-19 2881,0 3059,0 3059,-19"/>
<text text-anchor="middle" x="2970" y="-7" font-family="Helvetica,sans-Serif" font-size="10.00">Ieee8021qTagTpidHeaderInserter</text>
</a>
</g>
</g>
<!-- PacketFlowBase&#45;&gt;Ieee8021qTagTpidHeaderInserter -->
<g id="edge19" class="edge">
<title>PacketFlowBase&#45;&gt;Ieee8021qTagTpidHeaderInserter</title>
<path fill="none" stroke="black" d="M3132.83,-54.98C3096.74,-45.12 3037.61,-28.97 3001.41,-19.08"/>
</g>
<!-- Ieee8021rTagEpdHeaderInserter -->
<g id="node21" class="node">
<title>Ieee8021rTagEpdHeaderInserter</title>
<g id="a_node21"><a xlink:href="inet.linklayer.ieee8021r.Ieee8021rTagEpdHeaderInserter.html" xlink:title="Simple Module Ieee8021rTagEpdHeaderInserter" target="_parent">
<polygon fill="#fffcaf" stroke="black" points="3250.5,-19 3077.5,-19 3077.5,0 3250.5,0 3250.5,-19"/>
<text text-anchor="middle" x="3164" y="-7" font-family="Helvetica,sans-Serif" font-size="10.00">Ieee8021rTagEpdHeaderInserter</text>
</a>
</g>
</g>
<!-- PacketFlowBase&#45;&gt;Ieee8021rTagEpdHeaderInserter -->
<g id="edge20" class="edge">
<title>PacketFlowBase&#45;&gt;Ieee8021rTagEpdHeaderInserter</title>
<path fill="none" stroke="black" d="M3164,-54.75C3164,-44.87 3164,-28.9 3164,-19.09"/>
</g>
<!-- Ieee8022LlcInserter -->
<g id="node22" class="node">
<title>Ieee8022LlcInserter</title>
<g id="a_node22"><a xlink:href="inet.linklayer.ieee8022.Ieee8022LlcInserter.html" xlink:title="Simple Module Ieee8022LlcInserter" target="_parent">
<polygon fill="#fffcaf" stroke="black" points="3381.5,-19 3268.5,-19 3268.5,0 3381.5,0 3381.5,-19"/>
<text text-anchor="middle" x="3325" y="-7" font-family="Helvetica,sans-Serif" font-size="10.00">Ieee8022LlcInserter</text>
</a>
</g>
</g>
<!-- PacketFlowBase&#45;&gt;Ieee8022LlcInserter -->
<g id="edge21" class="edge">
<title>PacketFlowBase&#45;&gt;Ieee8022LlcInserter</title>
<path fill="none" stroke="black" d="M3189.87,-54.98C3219.82,-45.12 3268.89,-28.97 3298.93,-19.08"/>
</g>
<!-- Ieee8022LlcSocketCommandProcessor -->
<g id="node23" class="node">
<title>Ieee8022LlcSocketCommandProcessor</title>
<g id="a_node23"><a xlink:href="inet.linklayer.ieee8022.Ieee8022LlcSocketCommandProcessor.html" xlink:title="Simple Module Ieee8022LlcSocketCommandProcessor" target="_parent">
<polygon fill="#fffcaf" stroke="black" points="3604.5,-19 3399.5,-19 3399.5,0 3604.5,0 3604.5,-19"/>
<text text-anchor="middle" x="3502" y="-7" font-family="Helvetica,sans-Serif" font-size="10.00">Ieee8022LlcSocketCommandProcessor</text>
</a>
</g>
</g>
<!-- PacketFlowBase&#45;&gt;Ieee8022LlcSocketCommandProcessor -->
<g id="edge22" class="edge">
<title>PacketFlowBase&#45;&gt;Ieee8022LlcSocketCommandProcessor</title>
<path fill="none" stroke="black" d="M3211.71,-56.02C3273.85,-46.27 3382.24,-29.28 3447.54,-19.04"/>
</g>
<!-- Ieee8022LlcSocketPacketProcessor -->
<g id="node24" class="node">
<title>Ieee8022LlcSocketPacketProcessor</title>
<g id="a_node24"><a xlink:href="inet.linklayer.ieee8022.Ieee8022LlcSocketPacketProcessor.html" xlink:title="Simple Module Ieee8022LlcSocketPacketProcessor" target="_parent">
<polygon fill="#fffcaf" stroke="black" points="3808,-19 3622,-19 3622,0 3808,0 3808,-19"/>
<text text-anchor="middle" x="3715" y="-7" font-family="Helvetica,sans-Serif" font-size="10.00">Ieee8022LlcSocketPacketProcessor</text>
</a>
</g>
</g>
<!-- PacketFlowBase&#45;&gt;Ieee8022LlcSocketPacketProcessor -->
<g id="edge23" class="edge">
<title>PacketFlowBase&#45;&gt;Ieee8022LlcSocketPacketProcessor</title>
<path fill="none" stroke="black" d="M3211.93,-58.89C3304.42,-49.99 3508.76,-30.34 3626.58,-19.01"/>
</g>
<!-- Ieee8022SnapInserter -->
<g id="node25" class="node">
<title>Ieee8022SnapInserter</title>
<g id="a_node25"><a xlink:href="inet.linklayer.ieee8022.Ieee8022SnapInserter.html" xlink:title="Simple Module Ieee8022SnapInserter" target="_parent">
<polygon fill="#fffcaf" stroke="black" points="3949.5,-19 3826.5,-19 3826.5,0 3949.5,0 3949.5,-19"/>
<text text-anchor="middle" x="3888" y="-7" font-family="Helvetica,sans-Serif" font-size="10.00">Ieee8022SnapInserter</text>
</a>
</g>
</g>
<!-- PacketFlowBase&#45;&gt;Ieee8022SnapInserter -->
<g id="edge24" class="edge">
<title>PacketFlowBase&#45;&gt;Ieee8022SnapInserter</title>
<path fill="none" stroke="black" d="M3211.59,-61.09C3319.45,-55.45 3590.73,-40.24 3817,-19 3820.09,-18.71 3823.25,-18.4 3826.45,-18.06"/>
</g>
<!-- PacketDeserializer -->
<g id="node26" class="node">
<title>PacketDeserializer</title>
<g id="a_node26"><a xlink:href="inet.protocolelement.common.PacketDeserializer.html" xlink:title="Simple Module PacketDeserializer" target="_parent">
<polygon fill="#fffcaf" stroke="black" points="4074.5,-19 3967.5,-19 3967.5,0 4074.5,0 4074.5,-19"/>
<text text-anchor="middle" x="4021" y="-7" font-family="Helvetica,sans-Serif" font-size="10.00">PacketDeserializer</text>
</a>
</g>
</g>
<!-- PacketFlowBase&#45;&gt;PacketDeserializer -->
<g id="edge25" class="edge">
<title>PacketFlowBase&#45;&gt;PacketDeserializer</title>
<path fill="none" stroke="black" d="M3211.59,-62.17C3335.16,-58.43 3676.23,-46.25 3959,-19 3961.7,-18.74 3964.47,-18.45 3967.26,-18.14"/>
</g>
<!-- PacketDirectionReverser -->
<g id="node27" class="node">
<title>PacketDirectionReverser</title>
<g id="a_node27"><a xlink:href="inet.linklayer.ethernet.common.PacketDirectionReverser.html" xlink:title="Simple Module PacketDirectionReverser" target="_parent">
<polygon fill="#fffcaf" stroke="black" points="4229,-19 4093,-19 4093,0 4229,0 4229,-19"/>
<text text-anchor="middle" x="4161" y="-7" font-family="Helvetica,sans-Serif" font-size="10.00">PacketDirectionReverser</text>
</a>
</g>
</g>
<!-- PacketFlowBase&#45;&gt;PacketDirectionReverser -->
<g id="edge26" class="edge">
<title>PacketFlowBase&#45;&gt;PacketDirectionReverser</title>
<path fill="none" stroke="black" d="M3211.95,-62.22C3348.47,-58.36 3750.84,-45.42 4084,-19 4086.82,-18.78 4089.69,-18.53 4092.59,-18.27"/>
</g>
<!-- PacketEmitter -->
<g id="node28" class="node">
<title>PacketEmitter</title>
<g id="a_node28"><a xlink:href="inet.protocolelement.common.PacketEmitter.html" xlink:title="Simple Module PacketEmitter" target="_parent">
<polygon fill="#fffcaf" stroke="black" points="4331,-19 4247,-19 4247,0 4331,0 4331,-19"/>
<text text-anchor="middle" x="4289" y="-7" font-family="Helvetica,sans-Serif" font-size="10.00">PacketEmitter</text>
</a>
</g>
</g>
<!-- PacketFlowBase&#45;&gt;PacketEmitter -->
<g id="edge27" class="edge">
<title>PacketFlowBase&#45;&gt;PacketEmitter</title>
<path fill="none" stroke="black" d="M3211.52,-63.62C3362.24,-63.57 3842.85,-59.96 4238,-19 4240.86,-18.7 4243.8,-18.35 4246.75,-17.95"/>
</g>
<!-- PacketGateBase -->
<g id="node29" class="node">
<title>PacketGateBase</title>
<g id="a_node29"><a xlink:href="inet.queueing.base.PacketGateBase.html" xlink:title="Simple Module PacketGateBase" target="_parent">
<polygon fill="#fffcaf" stroke="black" points="4444.5,-19 4349.5,-19 4349.5,0 4444.5,0 4444.5,-19"/>
<text text-anchor="middle" x="4397" y="-7" font-family="Helvetica,sans-Serif" font-size="10.00">PacketGateBase</text>
</a>
</g>
</g>
<!-- PacketFlowBase&#45;&gt;PacketGateBase -->
<g id="edge28" class="edge">
<title>PacketFlowBase&#45;&gt;PacketGateBase</title>
<path fill="none" stroke="black" d="M3211.73,-63.58C3371.66,-63.44 3903.13,-59.71 4340,-19 4343.09,-18.71 4346.26,-18.37 4349.46,-17.99"/>
</g>
<!-- PacketMarkerBase -->
<g id="node30" class="node">
<title>PacketMarkerBase</title>
<g id="a_node30"><a xlink:href="inet.queueing.base.PacketMarkerBase.html" xlink:title="Simple Module PacketMarkerBase" target="_parent">
<polygon fill="#fffcaf" stroke="black" points="4569,-19 4463,-19 4463,0 4569,0 4569,-19"/>
<text text-anchor="middle" x="4516" y="-7" font-family="Helvetica,sans-Serif" font-size="10.00">PacketMarkerBase</text>
</a>
</g>
</g>
<!-- PacketFlowBase&#45;&gt;PacketMarkerBase -->
<g id="edge29" class="edge">
<title>PacketFlowBase&#45;&gt;PacketMarkerBase</title>
<path fill="none" stroke="black" d="M3211.55,-63.6C3380.84,-63.6 3970.05,-60.41 4454,-19 4456.92,-18.75 4459.92,-18.46 4462.94,-18.14"/>
</g>
<!-- PacketMeterBase -->
<g id="node31" class="node">
<title>PacketMeterBase</title>
<g id="a_node31"><a xlink:href="inet.queueing.base.PacketMeterBase.html" xlink:title="Simple Module PacketMeterBase" target="_parent">
<polygon fill="#fffcaf" stroke="black" points="4688.5,-19 4587.5,-19 4587.5,0 4688.5,0 4688.5,-19"/>
<text text-anchor="middle" x="4638" y="-7" font-family="Helvetica,sans-Serif" font-size="10.00">PacketMeterBase</text>
</a>
</g>
</g>
<!-- PacketFlowBase&#45;&gt;PacketMeterBase -->
<g id="edge30" class="edge">
<title>PacketFlowBase&#45;&gt;PacketMeterBase</title>
<path fill="none" stroke="black" d="M3211.72,-63.89C3391.28,-64.94 4043.34,-65.15 4578,-19 4581.04,-18.74 4584.16,-18.43 4587.31,-18.08"/>
</g>
<!-- PacketSerializer -->
<g id="node32" class="node">
<title>PacketSerializer</title>
<g id="a_node32"><a xlink:href="inet.protocolelement.common.PacketSerializer.html" xlink:title="Simple Module PacketSerializer" target="_parent">
<polygon fill="#fffcaf" stroke="black" points="4801,-19 4707,-19 4707,0 4801,0 4801,-19"/>
<text text-anchor="middle" x="4754" y="-7" font-family="Helvetica,sans-Serif" font-size="10.00">PacketSerializer</text>
</a>
</g>
</g>
<!-- PacketFlowBase&#45;&gt;PacketSerializer -->
<g id="edge31" class="edge">
<title>PacketFlowBase&#45;&gt;PacketSerializer</title>
<path fill="none" stroke="black" d="M3211.77,-62.9C3437.52,-59.93 4398.98,-45.93 4698,-19 4700.94,-18.74 4703.96,-18.42 4707,-18.06"/>
</g>
<!-- PaddingInserter -->
<g id="node33" class="node">
<title>PaddingInserter</title>
<g id="a_node33"><a xlink:href="inet.protocolelement.common.PaddingInserter.html" xlink:title="Simple Module PaddingInserter" target="_parent">
<polygon fill="#fffcaf" stroke="black" points="4911,-19 4819,-19 4819,0 4911,0 4911,-19"/>
<text text-anchor="middle" x="4865" y="-7" font-family="Helvetica,sans-Serif" font-size="10.00">PaddingInserter</text>
</a>
</g>
</g>
<!-- PacketFlowBase&#45;&gt;PaddingInserter -->
<g id="edge32" class="edge">
<title>PacketFlowBase&#45;&gt;PaddingInserter</title>
<path fill="none" stroke="black" d="M3211.69,-63.02C3447.18,-60.55 4487.57,-48.16 4810,-19 4812.89,-18.74 4815.85,-18.42 4818.84,-18.07"/>
</g>
<!-- RelayInterfaceLearner -->
<g id="node34" class="node">
<title>RelayInterfaceLearner</title>
<g id="a_node34"><a xlink:href="inet.linklayer.ethernet.common.RelayInterfaceLearner.html" xlink:title="Simple Module RelayInterfaceLearner" target="_parent">
<polygon fill="#fffcaf" stroke="black" points="5054.5,-19 4929.5,-19 4929.5,0 5054.5,0 5054.5,-19"/>
<text text-anchor="middle" x="4992" y="-7" font-family="Helvetica,sans-Serif" font-size="10.00">RelayInterfaceLearner</text>
</a>
</g>
</g>
<!-- PacketFlowBase&#45;&gt;RelayInterfaceLearner -->
<g id="edge33" class="edge">
<title>PacketFlowBase&#45;&gt;RelayInterfaceLearner</title>
<path fill="none" stroke="black" d="M3211.57,-63.9C3416.38,-65.29 4243.2,-67.42 4920,-19 4923.01,-18.78 4926.09,-18.53 4929.2,-18.26"/>
</g>
<!-- SequenceNumbering -->
<g id="node35" class="node">
<title>SequenceNumbering</title>
<g id="a_node35"><a xlink:href="inet.protocolelement.ordering.SequenceNumbering.html" xlink:title="Simple Module SequenceNumbering" target="_parent">
<polygon fill="#fffcaf" stroke="black" points="5191,-19 5073,-19 5073,0 5191,0 5191,-19"/>
<text text-anchor="middle" x="5132" y="-7" font-family="Helvetica,sans-Serif" font-size="10.00">SequenceNumbering</text>
</a>
</g>
</g>
<!-- PacketFlowBase&#45;&gt;SequenceNumbering -->
<g id="edge34" class="edge">
<title>PacketFlowBase&#45;&gt;SequenceNumbering</title>
<path fill="none" stroke="black" d="M3211.63,-63.04C3468.18,-60.45 4687.85,-46.84 5064,-19 5066.85,-18.79 5069.76,-18.54 5072.7,-18.27"/>
</g>
<!-- StreamDecoder -->
<g id="node36" class="node">
<title>StreamDecoder</title>
<g id="a_node36"><a xlink:href="inet.protocolelement.redundancy.StreamDecoder.html" xlink:title="Simple Module StreamDecoder" target="_parent">
<polygon fill="#fffcaf" stroke="black" points="5301,-19 5209,-19 5209,0 5301,0 5301,-19"/>
<text text-anchor="middle" x="5255" y="-7" font-family="Helvetica,sans-Serif" font-size="10.00">StreamDecoder</text>
</a>
</g>
</g>
<!-- PacketFlowBase&#45;&gt;StreamDecoder -->
<g id="edge35" class="edge">
<title>PacketFlowBase&#45;&gt;StreamDecoder</title>
<path fill="none" stroke="black" d="M3211.5,-63.31C3478.59,-62.12 4795.63,-54.51 5200,-19 5202.89,-18.75 5205.85,-18.44 5208.84,-18.08"/>
</g>
<!-- StreamEncoder -->
<g id="node37" class="node">
<title>StreamEncoder</title>
<g id="a_node37"><a xlink:href="inet.protocolelement.redundancy.StreamEncoder.html" xlink:title="Simple Module StreamEncoder" target="_parent">
<polygon fill="#fffcaf" stroke="black" points="5410.5,-19 5319.5,-19 5319.5,0 5410.5,0 5410.5,-19"/>
<text text-anchor="middle" x="5365" y="-7" font-family="Helvetica,sans-Serif" font-size="10.00">StreamEncoder</text>
</a>
</g>
</g>
<!-- PacketFlowBase&#45;&gt;StreamEncoder -->
<g id="edge36" class="edge">
<title>PacketFlowBase&#45;&gt;StreamEncoder</title>
<path fill="none" stroke="black" d="M3211.8,-63.37C3488.02,-62.5 4882.61,-56.29 5310,-19 5313.08,-18.73 5316.25,-18.4 5319.44,-18.02"/>
</g>
<!-- StreamIdentifier -->
<g id="node38" class="node">
<title>StreamIdentifier</title>
<g id="a_node38"><a xlink:href="inet.protocolelement.redundancy.StreamIdentifier.html" xlink:title="Simple Module StreamIdentifier" target="_parent">
<polygon fill="#fffcaf" stroke="black" points="5523.5,-19 5428.5,-19 5428.5,0 5523.5,0 5523.5,-19"/>
<text text-anchor="middle" x="5476" y="-7" font-family="Helvetica,sans-Serif" font-size="10.00">StreamIdentifier</text>
</a>
</g>
</g>
<!-- PacketFlowBase&#45;&gt;StreamIdentifier -->
<g id="edge37" class="edge">
<title>PacketFlowBase&#45;&gt;StreamIdentifier</title>
<path fill="none" stroke="black" d="M3211.91,-63.41C3496.65,-62.75 4969.42,-57.47 5420,-19 5422.74,-18.77 5425.56,-18.48 5428.39,-18.16"/>
</g>
<!-- VlanReqMapper -->
<g id="node39" class="node">
<title>VlanReqMapper</title>
<g id="a_node39"><a xlink:href="inet.linklayer.vlan.VlanReqMapper.html" xlink:title="Simple Module VlanReqMapper" target="_parent">
<polygon fill="#fffcaf" stroke="black" points="5636,-19 5542,-19 5542,0 5636,0 5636,-19"/>
<text text-anchor="middle" x="5589" y="-7" font-family="Helvetica,sans-Serif" font-size="10.00">VlanReqMapper</text>
</a>
</g>
</g>
<!-- PacketFlowBase&#45;&gt;VlanReqMapper -->
<g id="edge38" class="edge">
<title>PacketFlowBase&#45;&gt;VlanReqMapper</title>
<path fill="none" stroke="black" d="M3211.9,-63.46C3504.93,-63.1 5058.56,-59.29 5533,-19 5535.94,-18.75 5538.96,-18.44 5542,-18.09"/>
</g>
<!-- PacketProcessorBase -->
<g id="node2" class="node">
<title>PacketProcessorBase</title>
<g id="a_node2"><a xlink:href="inet.queueing.base.PacketProcessorBase.html" xlink:title="Simple Module PacketProcessorBase" target="_parent">
<polygon fill="#fffcaf" stroke="black" points="3223.5,-129 3104.5,-129 3104.5,-110 3223.5,-110 3223.5,-129"/>
<text text-anchor="middle" x="3164" y="-117" font-family="Helvetica,sans-Serif" font-size="10.00">PacketProcessorBase</text>
</a>
</g>
</g>
<!-- PacketProcessorBase&#45;&gt;PacketFlowBase -->
<g id="edge1" class="edge">
<title>PacketProcessorBase&#45;&gt;PacketFlowBase</title>
<path fill="none" stroke="black" d="M3164,-109.75C3164,-99.87 3164,-83.9 3164,-74.09"/>
</g>
</g>
</svg>
