<?xml version="1.0" encoding="UTF-8" standalone="no"?>
<!DOCTYPE svg PUBLIC "-//W3C//DTD SVG 1.1//EN"
 "http://www.w3.org/Graphics/SVG/1.1/DTD/svg11.dtd">
<!-- Generated by graphviz version 2.43.0 (0)
 -->
<!-- Title: opp Pages: 1 -->
<svg width="292pt" height="82pt"
 viewBox="0.00 0.00 292.00 82.00" xmlns="http://www.w3.org/2000/svg" xmlns:xlink="http://www.w3.org/1999/xlink">
<g id="graph0" class="graph" transform="scale(1 1) rotate(0) translate(4 78)">
<title>opp</title>
<polygon fill="transparent" stroke="transparent" points="-4,4 -4,-78 288,-78 288,4 -4,4"/>
<!-- INetworkNode -->
<g id="node1" class="node">
<title>INetworkNode</title>
<g id="a_node1"><a xlink:href="inet.node.contract.INetworkNode.html" xlink:title="Module Interface INetworkNode" target="_parent">
<polygon fill="#fff700" stroke="black" stroke-dasharray="5,2" points="154,-74 68,-74 68,-55 154,-55 154,-74"/>
<text text-anchor="middle" x="111" y="-62" font-family="Helvetica,sans-Serif" font-size="10.00">INetworkNode</text>
</a>
</g>
</g>
<!-- NodeBase -->
<g id="node2" class="node">
<title>NodeBase</title>
<g id="a_node2"><a xlink:href="inet.node.base.NodeBase.html" xlink:title="Compound Module NodeBase" target="_parent">
<polygon fill="#fffcaf" stroke="black" points="66,-19 0,-19 0,0 66,0 66,-19"/>
<text text-anchor="middle" x="33" y="-7" font-family="Helvetica,sans-Serif" font-size="10.00">NodeBase</text>
</a>
</g>
</g>
<!-- INetworkNode&#45;&gt;NodeBase -->
<g id="edge1" class="edge">
<title>INetworkNode&#45;&gt;NodeBase</title>
<path fill="none" stroke="black" stroke-dasharray="5,2" d="M98.47,-54.98C84,-45.15 60.33,-29.07 45.76,-19.17"/>
</g>
<!-- Probe -->
<g id="node3" class="node">
<title>Probe</title>
<g id="a_node3"><a xlink:href="inet.node.wireless.Probe.html" xlink:title="Compound Module Probe" target="_parent">
<polygon fill="#fffcaf" stroke="black" points="138,-19 84,-19 84,0 138,0 138,-19"/>
<text text-anchor="middle" x="111" y="-7" font-family="Helvetica,sans-Serif" font-size="10.00">Probe</text>
</a>
</g>
</g>
<!-- INetworkNode&#45;&gt;Probe -->
<g id="edge2" class="edge">
<title>INetworkNode&#45;&gt;Probe</title>
<path fill="none" stroke="black" stroke-dasharray="5,2" d="M111,-54.75C111,-44.87 111,-28.9 111,-19.09"/>
</g>
<!-- IEthernetNetworkNode -->
<g id="node4" class="node">
<title>IEthernetNetworkNode</title>
<g id="a_node4"><a xlink:href="inet.node.contract.IEthernetNetworkNode.html" xlink:title="Module Interface IEthernetNetworkNode" target="_parent">
<polygon fill="#fffcaf" stroke="black" stroke-dasharray="5,2" points="284,-19 156,-19 156,0 284,0 284,-19"/>
<text text-anchor="middle" x="220" y="-7" font-family="Helvetica,sans-Serif" font-size="10.00">IEthernetNetworkNode</text>
</a>
</g>
</g>
<!-- INetworkNode&#45;&gt;IEthernetNetworkNode -->
<g id="edge3" class="edge">
<title>INetworkNode&#45;&gt;IEthernetNetworkNode</title>
<path fill="none" stroke="black" d="M128.51,-54.98C148.73,-45.15 181.81,-29.07 202.17,-19.17"/>
</g>
</g>
</svg>
