<?xml version="1.0" encoding="UTF-8" standalone="no"?>
<!DOCTYPE svg PUBLIC "-//W3C//DTD SVG 1.1//EN"
 "http://www.w3.org/Graphics/SVG/1.1/DTD/svg11.dtd">
<!-- Generated by graphviz version 2.43.0 (0)
 -->
<!-- Title: opp Pages: 1 -->
<svg width="194pt" height="137pt"
 viewBox="0.00 0.00 194.00 137.00" xmlns="http://www.w3.org/2000/svg" xmlns:xlink="http://www.w3.org/1999/xlink">
<g id="graph0" class="graph" transform="scale(1 1) rotate(0) translate(4 133)">
<title>opp</title>
<polygon fill="transparent" stroke="transparent" points="-4,4 -4,-133 190,-133 190,4 -4,4"/>
<!-- ManetSensorNode -->
<g id="node1" class="node">
<title>ManetSensorNode</title>
<g id="a_node1"><a xlink:href="inet.showcases.wireless.sensornetwork.ManetSensorNode.html" xlink:title="Compound Module ManetSensorNode" target="_parent">
<polygon fill="#fff700" stroke="black" points="148,-74 42,-74 42,-55 148,-55 148,-74"/>
<text text-anchor="middle" x="95" y="-62" font-family="Helvetica,sans-Serif" font-size="10.00">ManetSensorNode</text>
</a>
</g>
</g>
<!-- IManetRouting -->
<g id="node2" class="node">
<title>IManetRouting</title>
<g id="a_node2"><a xlink:href="inet.routing.contract.IManetRouting.html" xlink:title="Module Interface IManetRouting" target="_parent">
<polygon fill="#fffcaf" stroke="black" stroke-dasharray="5,2" points="88,-19 0,-19 0,0 88,0 88,-19"/>
<text text-anchor="middle" x="44" y="-7" font-family="Helvetica,sans-Serif" font-size="10.00">IManetRouting</text>
</a>
</g>
</g>
<!-- ManetSensorNode&#45;&gt;IManetRouting -->
<g id="edge1" class="edge">
<title>ManetSensorNode&#45;&gt;IManetRouting</title>
<path fill="none" stroke="black" d="M86.58,-54.75C79.23,-47.11 68.37,-35.82 59.46,-26.56"/>
<polygon fill="black" stroke="black" points="61.72,-23.87 52.26,-19.09 56.68,-28.72 61.72,-23.87"/>
</g>
<!-- IdealChannel -->
<g id="node3" class="node">
<title>IdealChannel</title>
<g id="a_node3"><a xlink:href="ned.IdealChannel.html" xlink:title="Channel IdealChannel" target="_parent">
<polygon fill="#d0ffd0" stroke="black" points="186,-19 106,-19 106,0 186,0 186,-19"/>
<text text-anchor="middle" x="146" y="-7" font-family="Helvetica,sans-Serif" font-size="10.00">IdealChannel</text>
</a>
</g>
</g>
<!-- ManetSensorNode&#45;&gt;IdealChannel -->
<g id="edge2" class="edge">
<title>ManetSensorNode&#45;&gt;IdealChannel</title>
<path fill="none" stroke="black" d="M103.42,-54.75C110.77,-47.11 121.63,-35.82 130.54,-26.56"/>
<polygon fill="black" stroke="black" points="133.32,-28.72 137.74,-19.09 128.28,-23.87 133.32,-28.72"/>
</g>
<!-- ManetSensorNetwork -->
<g id="node4" class="node">
<title>ManetSensorNetwork</title>
<g id="a_node4"><a xlink:href="inet.showcases.wireless.sensornetwork.ManetSensorNetwork.html" xlink:title="Network ManetSensorNetwork" target="_parent">
<polygon fill="#d0d0ff" stroke="black" points="156,-129 34,-129 34,-110 156,-110 156,-129"/>
<text text-anchor="middle" x="95" y="-117" font-family="Helvetica,sans-Serif" font-size="10.00">ManetSensorNetwork</text>
</a>
</g>
</g>
<!-- ManetSensorNetwork&#45;&gt;ManetSensorNode -->
<g id="edge3" class="edge">
<title>ManetSensorNetwork&#45;&gt;ManetSensorNode</title>
<path fill="none" stroke="black" d="M95,-109.75C95,-102.8 95,-92.85 95,-84.13"/>
<polygon fill="black" stroke="black" points="98.5,-84.09 95,-74.09 91.5,-84.09 98.5,-84.09"/>
</g>
</g>
</svg>
