<?xml version="1.0" encoding="UTF-8" standalone="no"?>
<!DOCTYPE svg PUBLIC "-//W3C//DTD SVG 1.1//EN"
 "http://www.w3.org/Graphics/SVG/1.1/DTD/svg11.dtd">
<!-- Generated by graphviz version 2.43.0 (0)
 -->
<!-- Title: opp Pages: 1 -->
<svg width="210pt" height="82pt"
 viewBox="0.00 0.00 210.00 82.00" xmlns="http://www.w3.org/2000/svg" xmlns:xlink="http://www.w3.org/1999/xlink">
<g id="graph0" class="graph" transform="scale(1 1) rotate(0) translate(4 78)">
<title>opp</title>
<polygon fill="transparent" stroke="transparent" points="-4,4 -4,-78 206,-78 206,4 -4,4"/>
<!-- MobilityVisualizerShowcase -->
<g id="node1" class="node">
<title>MobilityVisualizerShowcase</title>
<g id="a_node1"><a xlink:href="inet.showcases.visualizer.canvas.mobility.MobilityVisualizerShowcase.html" xlink:title="Network MobilityVisualizerShowcase" target="_parent">
<polygon fill="#9090ff" stroke="black" points="189,-74 36,-74 36,-55 189,-55 189,-74"/>
<text text-anchor="middle" x="112.5" y="-62" font-family="Helvetica,sans-Serif" font-size="10.00">MobilityVisualizerShowcase</text>
</a>
</g>
</g>
<!-- IntegratedVisualizer -->
<g id="node2" class="node">
<title>IntegratedVisualizer</title>
<g id="a_node2"><a xlink:href="inet.visualizer.common.IntegratedVisualizer.html" xlink:title="Compound Module IntegratedVisualizer" target="_parent">
<polygon fill="#fffcaf" stroke="black" points="115,-19 0,-19 0,0 115,0 115,-19"/>
<text text-anchor="middle" x="57.5" y="-7" font-family="Helvetica,sans-Serif" font-size="10.00">IntegratedVisualizer</text>
</a>
</g>
</g>
<!-- MobilityVisualizerShowcase&#45;&gt;IntegratedVisualizer -->
<g id="edge1" class="edge">
<title>MobilityVisualizerShowcase&#45;&gt;IntegratedVisualizer</title>
<path fill="none" stroke="black" d="M103.42,-54.75C95.41,-47.03 83.54,-35.6 73.88,-26.28"/>
<polygon fill="black" stroke="black" points="76.04,-23.51 66.41,-19.09 71.19,-28.55 76.04,-23.51"/>
</g>
<!-- AdhocHost -->
<g id="node3" class="node">
<title>AdhocHost</title>
<g id="a_node3"><a xlink:href="inet.node.inet.AdhocHost.html" xlink:title="Compound Module AdhocHost" target="_parent">
<polygon fill="#fffcaf" stroke="black" points="202,-19 133,-19 133,0 202,0 202,-19"/>
<text text-anchor="middle" x="167.5" y="-7" font-family="Helvetica,sans-Serif" font-size="10.00">AdhocHost</text>
</a>
</g>
</g>
<!-- MobilityVisualizerShowcase&#45;&gt;AdhocHost -->
<g id="edge2" class="edge">
<title>MobilityVisualizerShowcase&#45;&gt;AdhocHost</title>
<path fill="none" stroke="black" d="M121.58,-54.75C129.59,-47.03 141.46,-35.6 151.12,-26.28"/>
<polygon fill="black" stroke="black" points="153.81,-28.55 158.59,-19.09 148.96,-23.51 153.81,-28.55"/>
</g>
</g>
</svg>
