<?xml version="1.0" encoding="UTF-8" standalone="no"?>
<!DOCTYPE svg PUBLIC "-//W3C//DTD SVG 1.1//EN"
 "http://www.w3.org/Graphics/SVG/1.1/DTD/svg11.dtd">
<!-- Generated by graphviz version 2.43.0 (0)
 -->
<!-- Title: opp Pages: 1 -->
<svg width="284pt" height="137pt"
 viewBox="0.00 0.00 284.00 137.00" xmlns="http://www.w3.org/2000/svg" xmlns:xlink="http://www.w3.org/1999/xlink">
<g id="graph0" class="graph" transform="scale(1 1) rotate(0) translate(4 133)">
<title>opp</title>
<polygon fill="transparent" stroke="transparent" points="-4,4 -4,-133 280,-133 280,4 -4,4"/>
<!-- EpEnergyStorageBase -->
<g id="node1" class="node">
<title>EpEnergyStorageBase</title>
<g id="a_node1"><a xlink:href="inet.power.base.EpEnergyStorageBase.html" xlink:title="Simple Module EpEnergyStorageBase" target="_parent">
<polygon fill="#fff700" stroke="black" points="197,-74 73,-74 73,-55 197,-55 197,-74"/>
<text text-anchor="middle" x="135" y="-62" font-family="Helvetica,sans-Serif" font-size="10.00">EpEnergyStorageBase</text>
</a>
</g>
</g>
<!-- IdealEpEnergyStorage -->
<g id="node3" class="node">
<title>IdealEpEnergyStorage</title>
<g id="a_node3"><a xlink:href="inet.power.storage.IdealEpEnergyStorage.html" xlink:title="Simple Module IdealEpEnergyStorage" target="_parent">
<polygon fill="#fffcaf" stroke="black" points="124,-19 0,-19 0,0 124,0 124,-19"/>
<text text-anchor="middle" x="62" y="-7" font-family="Helvetica,sans-Serif" font-size="10.00">IdealEpEnergyStorage</text>
</a>
</g>
</g>
<!-- EpEnergyStorageBase&#45;&gt;IdealEpEnergyStorage -->
<g id="edge2" class="edge">
<title>EpEnergyStorageBase&#45;&gt;IdealEpEnergyStorage</title>
<path fill="none" stroke="black" d="M123.27,-54.98C109.73,-45.15 87.57,-29.07 73.94,-19.17"/>
</g>
<!-- SimpleEpEnergyStorage -->
<g id="node4" class="node">
<title>SimpleEpEnergyStorage</title>
<g id="a_node4"><a xlink:href="inet.power.storage.SimpleEpEnergyStorage.html" xlink:title="Simple Module SimpleEpEnergyStorage" target="_parent">
<polygon fill="#fffcaf" stroke="black" points="276,-19 142,-19 142,0 276,0 276,-19"/>
<text text-anchor="middle" x="209" y="-7" font-family="Helvetica,sans-Serif" font-size="10.00">SimpleEpEnergyStorage</text>
</a>
</g>
</g>
<!-- EpEnergyStorageBase&#45;&gt;SimpleEpEnergyStorage -->
<g id="edge3" class="edge">
<title>EpEnergyStorageBase&#45;&gt;SimpleEpEnergyStorage</title>
<path fill="none" stroke="black" d="M146.89,-54.98C160.62,-45.15 183.08,-29.07 196.89,-19.17"/>
</g>
<!-- IEpEnergyStorage -->
<g id="node2" class="node">
<title>IEpEnergyStorage</title>
<g id="a_node2"><a xlink:href="inet.power.contract.IEpEnergyStorage.html" xlink:title="Module Interface IEpEnergyStorage" target="_parent">
<polygon fill="#fffcaf" stroke="black" stroke-dasharray="5,2" points="186.5,-129 83.5,-129 83.5,-110 186.5,-110 186.5,-129"/>
<text text-anchor="middle" x="135" y="-117" font-family="Helvetica,sans-Serif" font-size="10.00">IEpEnergyStorage</text>
</a>
</g>
</g>
<!-- IEpEnergyStorage&#45;&gt;EpEnergyStorageBase -->
<g id="edge1" class="edge">
<title>IEpEnergyStorage&#45;&gt;EpEnergyStorageBase</title>
<path fill="none" stroke="black" stroke-dasharray="5,2" d="M135,-109.75C135,-99.87 135,-83.9 135,-74.09"/>
</g>
</g>
</svg>
