<?xml version="1.0" encoding="UTF-8" standalone="no"?>
<!DOCTYPE svg PUBLIC "-//W3C//DTD SVG 1.1//EN"
 "http://www.w3.org/Graphics/SVG/1.1/DTD/svg11.dtd">
<!-- Generated by graphviz version 2.43.0 (0)
 -->
<!-- Title: opp Pages: 1 -->
<svg width="342pt" height="82pt"
 viewBox="0.00 0.00 342.00 82.00" xmlns="http://www.w3.org/2000/svg" xmlns:xlink="http://www.w3.org/1999/xlink">
<g id="graph0" class="graph" transform="scale(1 1) rotate(0) translate(4 78)">
<title>opp</title>
<polygon fill="transparent" stroke="transparent" points="-4,4 -4,-78 338,-78 338,4 -4,4"/>
<!-- ProducerConsumerTutorialStep -->
<g id="node1" class="node">
<title>ProducerConsumerTutorialStep</title>
<g id="a_node1"><a xlink:href="inet.tutorials.queueing.ProducerConsumerTutorialStep.html" xlink:title="Network ProducerConsumerTutorialStep" target="_parent">
<polygon fill="#9090ff" stroke="black" points="247.5,-74 80.5,-74 80.5,-55 247.5,-55 247.5,-74"/>
<text text-anchor="middle" x="164" y="-62" font-family="Helvetica,sans-Serif" font-size="10.00">ProducerConsumerTutorialStep</text>
</a>
</g>
</g>
<!-- PassivePacketSink -->
<g id="node2" class="node">
<title>PassivePacketSink</title>
<g id="a_node2"><a xlink:href="inet.queueing.sink.PassivePacketSink.html" xlink:title="Simple Module PassivePacketSink" target="_parent">
<polygon fill="#fffcaf" stroke="black" points="106,-19 0,-19 0,0 106,0 106,-19"/>
<text text-anchor="middle" x="53" y="-7" font-family="Helvetica,sans-Serif" font-size="10.00">PassivePacketSink</text>
</a>
</g>
</g>
<!-- ProducerConsumerTutorialStep&#45;&gt;PassivePacketSink -->
<g id="edge1" class="edge">
<title>ProducerConsumerTutorialStep&#45;&gt;PassivePacketSink</title>
<path fill="none" stroke="black" d="M146.17,-54.98C128.39,-46.5 100.85,-33.35 80.32,-23.54"/>
<polygon fill="black" stroke="black" points="81.69,-20.32 71.16,-19.17 78.67,-26.64 81.69,-20.32"/>
</g>
<!-- IdealChannel -->
<g id="node3" class="node">
<title>IdealChannel</title>
<g id="a_node3"><a xlink:href="ned.IdealChannel.html" xlink:title="Channel IdealChannel" target="_parent">
<polygon fill="#d0ffd0" stroke="black" points="204,-19 124,-19 124,0 204,0 204,-19"/>
<text text-anchor="middle" x="164" y="-7" font-family="Helvetica,sans-Serif" font-size="10.00">IdealChannel</text>
</a>
</g>
</g>
<!-- ProducerConsumerTutorialStep&#45;&gt;IdealChannel -->
<g id="edge2" class="edge">
<title>ProducerConsumerTutorialStep&#45;&gt;IdealChannel</title>
<path fill="none" stroke="black" d="M164,-54.75C164,-47.8 164,-37.85 164,-29.13"/>
<polygon fill="black" stroke="black" points="167.5,-29.09 164,-19.09 160.5,-29.09 167.5,-29.09"/>
</g>
<!-- ActivePacketSource -->
<g id="node4" class="node">
<title>ActivePacketSource</title>
<g id="a_node4"><a xlink:href="inet.queueing.source.ActivePacketSource.html" xlink:title="Simple Module ActivePacketSource" target="_parent">
<polygon fill="#fffcaf" stroke="black" points="334,-19 222,-19 222,0 334,0 334,-19"/>
<text text-anchor="middle" x="278" y="-7" font-family="Helvetica,sans-Serif" font-size="10.00">ActivePacketSource</text>
</a>
</g>
</g>
<!-- ProducerConsumerTutorialStep&#45;&gt;ActivePacketSource -->
<g id="edge3" class="edge">
<title>ProducerConsumerTutorialStep&#45;&gt;ActivePacketSource</title>
<path fill="none" stroke="black" d="M182.32,-54.98C200.66,-46.46 229.11,-33.23 250.23,-23.41"/>
<polygon fill="black" stroke="black" points="251.76,-26.56 259.35,-19.17 248.81,-20.21 251.76,-26.56"/>
</g>
</g>
</svg>
