<?xml version="1.0" encoding="UTF-8" standalone="no"?>
<!DOCTYPE svg PUBLIC "-//W3C//DTD SVG 1.1//EN"
 "http://www.w3.org/Graphics/SVG/1.1/DTD/svg11.dtd">
<!-- Generated by graphviz version 2.43.0 (0)
 -->
<!-- Title: opp Pages: 1 -->
<svg width="488pt" height="82pt"
 viewBox="0.00 0.00 488.00 82.00" xmlns="http://www.w3.org/2000/svg" xmlns:xlink="http://www.w3.org/1999/xlink">
<g id="graph0" class="graph" transform="scale(1 1) rotate(0) translate(4 78)">
<title>opp</title>
<polygon fill="transparent" stroke="transparent" points="-4,4 -4,-78 484,-78 484,4 -4,4"/>
<!-- TestRadioScaling -->
<g id="node1" class="node">
<title>TestRadioScaling</title>
<g id="a_node1"><a xlink:href="inet.examples.wireless.scaling.TestRadioScaling.html" xlink:title="Network TestRadioScaling" target="_parent">
<polygon fill="#9090ff" stroke="black" points="273,-74 174,-74 174,-55 273,-55 273,-74"/>
<text text-anchor="middle" x="223.5" y="-62" font-family="Helvetica,sans-Serif" font-size="10.00">TestRadioScaling</text>
</a>
</g>
</g>
<!-- IRadioMedium -->
<g id="node2" class="node">
<title>IRadioMedium</title>
<g id="a_node2"><a xlink:href="inet.physicallayer.wireless.common.contract.packetlevel.IRadioMedium.html" xlink:title="Module Interface IRadioMedium" target="_parent">
<polygon fill="#fffcaf" stroke="black" stroke-dasharray="5,2" points="87,-19 0,-19 0,0 87,0 87,-19"/>
<text text-anchor="middle" x="43.5" y="-7" font-family="Helvetica,sans-Serif" font-size="10.00">IRadioMedium</text>
</a>
</g>
</g>
<!-- TestRadioScaling&#45;&gt;IRadioMedium -->
<g id="edge1" class="edge">
<title>TestRadioScaling&#45;&gt;IRadioMedium</title>
<path fill="none" stroke="black" d="M194.58,-54.98C164.23,-46.05 116.33,-31.94 82.62,-22.02"/>
<polygon fill="black" stroke="black" points="83.23,-18.55 72.65,-19.08 81.25,-25.26 83.23,-18.55"/>
</g>
<!-- IIntegratedVisualizer -->
<g id="node3" class="node">
<title>IIntegratedVisualizer</title>
<g id="a_node3"><a xlink:href="inet.visualizer.contract.IIntegratedVisualizer.html" xlink:title="Module Interface IIntegratedVisualizer" target="_parent">
<polygon fill="#fffcaf" stroke="black" stroke-dasharray="5,2" points="223.5,-19 105.5,-19 105.5,0 223.5,0 223.5,-19"/>
<text text-anchor="middle" x="164.5" y="-7" font-family="Helvetica,sans-Serif" font-size="10.00">IIntegratedVisualizer</text>
</a>
</g>
</g>
<!-- TestRadioScaling&#45;&gt;IIntegratedVisualizer -->
<g id="edge2" class="edge">
<title>TestRadioScaling&#45;&gt;IIntegratedVisualizer</title>
<path fill="none" stroke="black" d="M214.02,-54.98C205.3,-47.15 192.16,-35.34 181.6,-25.86"/>
<polygon fill="black" stroke="black" points="183.93,-23.25 174.15,-19.17 179.25,-28.46 183.93,-23.25"/>
</g>
<!-- WirelessHost -->
<g id="node4" class="node">
<title>WirelessHost</title>
<g id="a_node4"><a xlink:href="inet.node.inet.WirelessHost.html" xlink:title="Compound Module WirelessHost" target="_parent">
<polygon fill="#fffcaf" stroke="black" points="323,-19 242,-19 242,0 323,0 323,-19"/>
<text text-anchor="middle" x="282.5" y="-7" font-family="Helvetica,sans-Serif" font-size="10.00">WirelessHost</text>
</a>
</g>
</g>
<!-- TestRadioScaling&#45;&gt;WirelessHost -->
<g id="edge3" class="edge">
<title>TestRadioScaling&#45;&gt;WirelessHost</title>
<path fill="none" stroke="black" d="M232.98,-54.98C241.7,-47.15 254.84,-35.34 265.4,-25.86"/>
<polygon fill="black" stroke="black" points="267.75,-28.46 272.85,-19.17 263.07,-23.25 267.75,-28.46"/>
</g>
<!-- Ipv4NetworkConfigurator -->
<g id="node5" class="node">
<title>Ipv4NetworkConfigurator</title>
<g id="a_node5"><a xlink:href="inet.networklayer.configurator.ipv4.Ipv4NetworkConfigurator.html" xlink:title="Simple Module Ipv4NetworkConfigurator" target="_parent">
<polygon fill="#fffcaf" stroke="black" points="480,-19 341,-19 341,0 480,0 480,-19"/>
<text text-anchor="middle" x="410.5" y="-7" font-family="Helvetica,sans-Serif" font-size="10.00">Ipv4NetworkConfigurator</text>
</a>
</g>
</g>
<!-- TestRadioScaling&#45;&gt;Ipv4NetworkConfigurator -->
<g id="edge4" class="edge">
<title>TestRadioScaling&#45;&gt;Ipv4NetworkConfigurator</title>
<path fill="none" stroke="black" d="M253.54,-54.98C285.21,-46.01 335.27,-31.82 370.31,-21.89"/>
<polygon fill="black" stroke="black" points="371.55,-25.18 380.22,-19.08 369.64,-18.44 371.55,-25.18"/>
</g>
</g>
</svg>
