<?xml version="1.0" encoding="UTF-8" standalone="no"?>
<!DOCTYPE svg PUBLIC "-//W3C//DTD SVG 1.1//EN"
 "http://www.w3.org/Graphics/SVG/1.1/DTD/svg11.dtd">
<!-- Generated by graphviz version 2.43.0 (0)
 -->
<!-- Title: opp Pages: 1 -->
<svg width="1416pt" height="137pt"
 viewBox="0.00 0.00 1415.50 137.00" xmlns="http://www.w3.org/2000/svg" xmlns:xlink="http://www.w3.org/1999/xlink">
<g id="graph0" class="graph" transform="scale(1 1) rotate(0) translate(4 133)">
<title>opp</title>
<polygon fill="transparent" stroke="transparent" points="-4,4 -4,-133 1411.5,-133 1411.5,4 -4,4"/>
<!-- AodvRouter -->
<g id="node1" class="node">
<title>AodvRouter</title>
<g id="a_node1"><a xlink:href="inet.node.aodv.AodvRouter.html" xlink:title="Compound Module AodvRouter" target="_parent">
<polygon fill="#fff700" stroke="black" points="741,-74 667,-74 667,-55 741,-55 741,-74"/>
<text text-anchor="middle" x="704" y="-62" font-family="Helvetica,sans-Serif" font-size="10.00">AodvRouter</text>
</a>
</g>
</g>
<!-- Aodv -->
<g id="node2" class="node">
<title>Aodv</title>
<g id="a_node2"><a xlink:href="inet.routing.aodv.Aodv.html" xlink:title="Simple Module Aodv" target="_parent">
<polygon fill="#fffcaf" stroke="black" points="689,-19 635,-19 635,0 689,0 689,-19"/>
<text text-anchor="middle" x="662" y="-7" font-family="Helvetica,sans-Serif" font-size="10.00">Aodv</text>
</a>
</g>
</g>
<!-- AodvRouter&#45;&gt;Aodv -->
<g id="edge1" class="edge">
<title>AodvRouter&#45;&gt;Aodv</title>
<path fill="none" stroke="black" d="M697.06,-54.75C691.13,-47.26 682.43,-36.28 675.18,-27.13"/>
<polygon fill="black" stroke="black" points="677.76,-24.75 668.81,-19.09 672.27,-29.1 677.76,-24.75"/>
</g>
<!-- IdealChannel -->
<g id="node3" class="node">
<title>IdealChannel</title>
<g id="a_node3"><a xlink:href="ned.IdealChannel.html" xlink:title="Channel IdealChannel" target="_parent">
<polygon fill="#d0ffd0" stroke="black" points="787,-19 707,-19 707,0 787,0 787,-19"/>
<text text-anchor="middle" x="747" y="-7" font-family="Helvetica,sans-Serif" font-size="10.00">IdealChannel</text>
</a>
</g>
</g>
<!-- AodvRouter&#45;&gt;IdealChannel -->
<g id="edge2" class="edge">
<title>AodvRouter&#45;&gt;IdealChannel</title>
<path fill="none" stroke="black" d="M711.1,-54.75C717.17,-47.26 726.09,-36.28 733.51,-27.13"/>
<polygon fill="black" stroke="black" points="736.45,-29.06 740.03,-19.09 731.01,-24.65 736.45,-29.06"/>
</g>
<!-- AODVNetwork -->
<g id="node4" class="node">
<title>AODVNetwork</title>
<g id="a_node4"><a xlink:href="inet.examples.aodv.AODVNetwork.html" xlink:title="Network AODVNetwork" target="_parent">
<polygon fill="#d0d0ff" stroke="black" points="86,-129 0,-129 0,-110 86,-110 86,-129"/>
<text text-anchor="middle" x="43" y="-117" font-family="Helvetica,sans-Serif" font-size="10.00">AODVNetwork</text>
</a>
</g>
</g>
<!-- AODVNetwork&#45;&gt;AodvRouter -->
<g id="edge3" class="edge">
<title>AODVNetwork&#45;&gt;AodvRouter</title>
<path fill="none" stroke="black" d="M86.09,-111.15C89.1,-110.73 92.09,-110.34 95,-110 303.66,-85.37 554.25,-72.21 656.78,-67.52"/>
<polygon fill="black" stroke="black" points="656.99,-71.01 666.82,-67.06 656.67,-64.02 656.99,-71.01"/>
</g>
<!-- ConfiguratorD -->
<g id="node5" class="node">
<title>ConfiguratorD</title>
<g id="a_node5"><a xlink:href="inet.tutorials.configurator.ConfiguratorD.html" xlink:title="Network ConfiguratorD" target="_parent">
<polygon fill="#d0d0ff" stroke="black" points="188,-129 104,-129 104,-110 188,-110 188,-129"/>
<text text-anchor="middle" x="146" y="-117" font-family="Helvetica,sans-Serif" font-size="10.00">ConfiguratorD</text>
</a>
</g>
</g>
<!-- ConfiguratorD&#45;&gt;AodvRouter -->
<g id="edge4" class="edge">
<title>ConfiguratorD&#45;&gt;AodvRouter</title>
<path fill="none" stroke="black" d="M188.26,-111.2C191.22,-110.77 194.15,-110.36 197,-110 365.63,-88.58 567.14,-74.22 656.87,-68.41"/>
<polygon fill="black" stroke="black" points="657.24,-71.89 667,-67.76 656.79,-64.91 657.24,-71.89"/>
</g>
<!-- DataLinkVisualizerMobileShowcase -->
<g id="node6" class="node">
<title>DataLinkVisualizerMobileShowcase</title>
<g id="a_node6"><a xlink:href="inet.showcases.visualizer.canvas.datalinkactivity.DataLinkVisualizerMobileShowcase.html" xlink:title="Network DataLinkVisualizerMobileShowcase" target="_parent">
<polygon fill="#d0d0ff" stroke="black" points="396,-129 206,-129 206,-110 396,-110 396,-129"/>
<text text-anchor="middle" x="301" y="-117" font-family="Helvetica,sans-Serif" font-size="10.00">DataLinkVisualizerMobileShowcase</text>
</a>
</g>
</g>
<!-- DataLinkVisualizerMobileShowcase&#45;&gt;AodvRouter -->
<g id="edge5" class="edge">
<title>DataLinkVisualizerMobileShowcase&#45;&gt;AodvRouter</title>
<path fill="none" stroke="black" d="M365.75,-109.98C447.08,-99.29 584.68,-81.19 656.76,-71.71"/>
<polygon fill="black" stroke="black" points="657.44,-75.15 666.9,-70.38 656.53,-68.21 657.44,-75.15"/>
</g>
<!-- FilteringExampleNetwork -->
<g id="node7" class="node">
<title>FilteringExampleNetwork</title>
<g id="a_node7"><a xlink:href="inet.examples.wireless.filtering.FilteringExampleNetwork.html" xlink:title="Network FilteringExampleNetwork" target="_parent">
<polygon fill="#d0d0ff" stroke="black" points="554,-129 414,-129 414,-110 554,-110 554,-129"/>
<text text-anchor="middle" x="484" y="-117" font-family="Helvetica,sans-Serif" font-size="10.00">FilteringExampleNetwork</text>
</a>
</g>
</g>
<!-- FilteringExampleNetwork&#45;&gt;AodvRouter -->
<g id="edge6" class="edge">
<title>FilteringExampleNetwork&#45;&gt;AodvRouter</title>
<path fill="none" stroke="black" d="M519.35,-109.98C557.16,-100.87 617.26,-86.4 658.57,-76.45"/>
<polygon fill="black" stroke="black" points="659.47,-79.83 668.38,-74.08 657.83,-73.02 659.47,-79.83"/>
</g>
<!-- NeighborCacheTest -->
<g id="node8" class="node">
<title>NeighborCacheTest</title>
<g id="a_node8"><a xlink:href="inet.examples.neighborcache.NeighborCacheTest.html" xlink:title="Network NeighborCacheTest" target="_parent">
<polygon fill="#d0d0ff" stroke="black" points="682,-129 572,-129 572,-110 682,-110 682,-129"/>
<text text-anchor="middle" x="627" y="-117" font-family="Helvetica,sans-Serif" font-size="10.00">NeighborCacheTest</text>
</a>
</g>
</g>
<!-- NeighborCacheTest&#45;&gt;AodvRouter -->
<g id="edge7" class="edge">
<title>NeighborCacheTest&#45;&gt;AodvRouter</title>
<path fill="none" stroke="black" d="M639.37,-109.98C651.09,-101.92 668.92,-89.65 682.89,-80.03"/>
<polygon fill="black" stroke="black" points="685.15,-82.72 691.4,-74.17 681.18,-76.96 685.15,-82.72"/>
</g>
<!-- NetworkPathMobileShowcase -->
<g id="node9" class="node">
<title>NetworkPathMobileShowcase</title>
<g id="a_node9"><a xlink:href="inet.showcases.visualizer.canvas.networkpathactivity.NetworkPathMobileShowcase.html" xlink:title="Network NetworkPathMobileShowcase" target="_parent">
<polygon fill="#d0d0ff" stroke="black" points="861.5,-129 700.5,-129 700.5,-110 861.5,-110 861.5,-129"/>
<text text-anchor="middle" x="781" y="-117" font-family="Helvetica,sans-Serif" font-size="10.00">NetworkPathMobileShowcase</text>
</a>
</g>
</g>
<!-- NetworkPathMobileShowcase&#45;&gt;AodvRouter -->
<g id="edge8" class="edge">
<title>NetworkPathMobileShowcase&#45;&gt;AodvRouter</title>
<path fill="none" stroke="black" d="M768.63,-109.98C756.91,-101.92 739.08,-89.65 725.11,-80.03"/>
<polygon fill="black" stroke="black" points="726.82,-76.96 716.6,-74.17 722.85,-82.72 726.82,-76.96"/>
</g>
<!-- RoutingTableVisualizationDynamicShowcase -->
<g id="node10" class="node">
<title>RoutingTableVisualizationDynamicShowcase</title>
<g id="a_node10"><a xlink:href="inet.showcases.visualizer.canvas.routingtable.RoutingTableVisualizationDynamicShowcase.html" xlink:title="Network RoutingTableVisualizationDynamicShowcase" target="_parent">
<polygon fill="#d0d0ff" stroke="black" points="1114.5,-129 879.5,-129 879.5,-110 1114.5,-110 1114.5,-129"/>
<text text-anchor="middle" x="997" y="-117" font-family="Helvetica,sans-Serif" font-size="10.00">RoutingTableVisualizationDynamicShowcase</text>
</a>
</g>
</g>
<!-- RoutingTableVisualizationDynamicShowcase&#45;&gt;AodvRouter -->
<g id="edge9" class="edge">
<title>RoutingTableVisualizationDynamicShowcase&#45;&gt;AodvRouter</title>
<path fill="none" stroke="black" d="M949.92,-109.98C895.37,-100.12 805.98,-83.95 751.32,-74.06"/>
<polygon fill="black" stroke="black" points="751.66,-70.56 741.2,-72.23 750.42,-77.45 751.66,-70.56"/>
</g>
<!-- ShortestPath -->
<g id="node11" class="node">
<title>ShortestPath</title>
<g id="a_node11"><a xlink:href="inet.examples.aodv.ShortestPath.html" xlink:title="Network ShortestPath" target="_parent">
<polygon fill="#d0d0ff" stroke="black" points="1211,-129 1133,-129 1133,-110 1211,-110 1211,-129"/>
<text text-anchor="middle" x="1172" y="-117" font-family="Helvetica,sans-Serif" font-size="10.00">ShortestPath</text>
</a>
</g>
</g>
<!-- ShortestPath&#45;&gt;AodvRouter -->
<g id="edge10" class="edge">
<title>ShortestPath&#45;&gt;AodvRouter</title>
<path fill="none" stroke="black" d="M1132.74,-111.32C1129.79,-110.85 1126.85,-110.4 1124,-110 989.2,-90.95 829.01,-76.12 751.17,-69.42"/>
<polygon fill="black" stroke="black" points="751.45,-65.93 741.19,-68.56 750.85,-72.9 751.45,-65.93"/>
</g>
<!-- SimpleRREQ -->
<g id="node12" class="node">
<title>SimpleRREQ</title>
<g id="a_node12"><a xlink:href="inet.examples.aodv.SimpleRREQ.html" xlink:title="Network SimpleRREQ" target="_parent">
<polygon fill="#d0d0ff" stroke="black" points="1306.5,-129 1229.5,-129 1229.5,-110 1306.5,-110 1306.5,-129"/>
<text text-anchor="middle" x="1268" y="-117" font-family="Helvetica,sans-Serif" font-size="10.00">SimpleRREQ</text>
</a>
</g>
</g>
<!-- SimpleRREQ&#45;&gt;AodvRouter -->
<g id="edge11" class="edge">
<title>SimpleRREQ&#45;&gt;AodvRouter</title>
<path fill="none" stroke="black" d="M1229.27,-111.34C1226.14,-110.85 1223.02,-110.4 1220,-110 1047.89,-87.39 841.91,-73.57 751.02,-68.15"/>
<polygon fill="black" stroke="black" points="751.23,-64.65 741.04,-67.56 750.81,-71.64 751.23,-64.65"/>
</g>
<!-- SimpleRREQ2 -->
<g id="node13" class="node">
<title>SimpleRREQ2</title>
<g id="a_node13"><a xlink:href="inet.examples.aodv.SimpleRREQ2.html" xlink:title="Network SimpleRREQ2" target="_parent">
<polygon fill="#d0d0ff" stroke="black" points="1407.5,-129 1324.5,-129 1324.5,-110 1407.5,-110 1407.5,-129"/>
<text text-anchor="middle" x="1366" y="-117" font-family="Helvetica,sans-Serif" font-size="10.00">SimpleRREQ2</text>
</a>
</g>
</g>
<!-- SimpleRREQ2&#45;&gt;AodvRouter -->
<g id="edge12" class="edge">
<title>SimpleRREQ2&#45;&gt;AodvRouter</title>
<path fill="none" stroke="black" d="M1324.3,-111.1C1321.5,-110.7 1318.71,-110.33 1316,-110 1106.14,-84.59 853.91,-71.84 751.08,-67.38"/>
<polygon fill="black" stroke="black" points="751.17,-63.88 741.03,-66.95 750.87,-70.88 751.17,-63.88"/>
</g>
</g>
</svg>
