<?xml version="1.0" encoding="UTF-8" standalone="no"?>
<!DOCTYPE svg PUBLIC "-//W3C//DTD SVG 1.1//EN"
 "http://www.w3.org/Graphics/SVG/1.1/DTD/svg11.dtd">
<!-- Generated by graphviz version 2.43.0 (0)
 -->
<!-- Title: opp Pages: 1 -->
<svg width="963pt" height="137pt"
 viewBox="0.00 0.00 963.00 137.00" xmlns="http://www.w3.org/2000/svg" xmlns:xlink="http://www.w3.org/1999/xlink">
<g id="graph0" class="graph" transform="scale(1 1) rotate(0) translate(4 133)">
<title>opp</title>
<polygon fill="transparent" stroke="transparent" points="-4,4 -4,-133 959,-133 959,4 -4,4"/>
<!-- TelnetServerTraffic -->
<g id="node1" class="node">
<title>TelnetServerTraffic</title>
<g id="a_node1"><a xlink:href="inet.tutorials.queueing.TelnetServerTraffic.html" xlink:title="Compound Module TelnetServerTraffic" target="_parent">
<polygon fill="#fff700" stroke="black" points="503,-74 396,-74 396,-55 503,-55 503,-74"/>
<text text-anchor="middle" x="449.5" y="-62" font-family="Helvetica,sans-Serif" font-size="10.00">TelnetServerTraffic</text>
</a>
</g>
</g>
<!-- IPassivePacketSink -->
<g id="node2" class="node">
<title>IPassivePacketSink</title>
<g id="a_node2"><a xlink:href="inet.queueing.contract.IPassivePacketSink.html" xlink:title="Module Interface IPassivePacketSink" target="_parent">
<polygon fill="#fffcaf" stroke="black" stroke-dasharray="5,2" points="109,-19 0,-19 0,0 109,0 109,-19"/>
<text text-anchor="middle" x="54.5" y="-7" font-family="Helvetica,sans-Serif" font-size="10.00">IPassivePacketSink</text>
</a>
</g>
</g>
<!-- TelnetServerTraffic&#45;&gt;IPassivePacketSink -->
<g id="edge1" class="edge">
<title>TelnetServerTraffic&#45;&gt;IPassivePacketSink</title>
<path fill="none" stroke="black" d="M395.82,-56.3C323.85,-46.64 196.23,-29.52 119.09,-19.17"/>
<polygon fill="black" stroke="black" points="119.39,-15.68 109.02,-17.81 118.46,-22.61 119.39,-15.68"/>
</g>
<!-- PacketCloner -->
<g id="node3" class="node">
<title>PacketCloner</title>
<g id="a_node3"><a xlink:href="inet.queueing.common.PacketCloner.html" xlink:title="Simple Module PacketCloner" target="_parent">
<polygon fill="#fffcaf" stroke="black" points="207.5,-19 127.5,-19 127.5,0 207.5,0 207.5,-19"/>
<text text-anchor="middle" x="167.5" y="-7" font-family="Helvetica,sans-Serif" font-size="10.00">PacketCloner</text>
</a>
</g>
</g>
<!-- TelnetServerTraffic&#45;&gt;PacketCloner -->
<g id="edge2" class="edge">
<title>TelnetServerTraffic&#45;&gt;PacketCloner</title>
<path fill="none" stroke="black" d="M404.19,-54.98C353.14,-45.39 270.41,-29.84 217.51,-19.9"/>
<polygon fill="black" stroke="black" points="218.15,-16.46 207.67,-18.05 216.85,-23.34 218.15,-16.46"/>
</g>
<!-- IPacketClassifier -->
<g id="node4" class="node">
<title>IPacketClassifier</title>
<g id="a_node4"><a xlink:href="inet.queueing.contract.IPacketClassifier.html" xlink:title="Module Interface IPacketClassifier" target="_parent">
<polygon fill="#fffcaf" stroke="black" stroke-dasharray="5,2" points="321.5,-19 225.5,-19 225.5,0 321.5,0 321.5,-19"/>
<text text-anchor="middle" x="273.5" y="-7" font-family="Helvetica,sans-Serif" font-size="10.00">IPacketClassifier</text>
</a>
</g>
</g>
<!-- TelnetServerTraffic&#45;&gt;IPacketClassifier -->
<g id="edge3" class="edge">
<title>TelnetServerTraffic&#45;&gt;IPacketClassifier</title>
<path fill="none" stroke="black" d="M421.22,-54.98C391.55,-46.05 344.71,-31.94 311.75,-22.02"/>
<polygon fill="black" stroke="black" points="312.58,-18.61 302,-19.08 310.57,-25.32 312.58,-18.61"/>
</g>
<!-- IPacketServer -->
<g id="node5" class="node">
<title>IPacketServer</title>
<g id="a_node5"><a xlink:href="inet.queueing.contract.IPacketServer.html" xlink:title="Module Interface IPacketServer" target="_parent">
<polygon fill="#fffcaf" stroke="black" stroke-dasharray="5,2" points="423,-19 340,-19 340,0 423,0 423,-19"/>
<text text-anchor="middle" x="381.5" y="-7" font-family="Helvetica,sans-Serif" font-size="10.00">IPacketServer</text>
</a>
</g>
</g>
<!-- TelnetServerTraffic&#45;&gt;IPacketServer -->
<g id="edge4" class="edge">
<title>TelnetServerTraffic&#45;&gt;IPacketServer</title>
<path fill="none" stroke="black" d="M438.57,-54.98C428.42,-47.07 413.08,-35.11 400.85,-25.58"/>
<polygon fill="black" stroke="black" points="402.66,-22.56 392.62,-19.17 398.36,-28.08 402.66,-22.56"/>
</g>
<!-- PacketBasedTokenGenerator -->
<g id="node6" class="node">
<title>PacketBasedTokenGenerator</title>
<g id="a_node6"><a xlink:href="inet.queueing.tokengenerator.PacketBasedTokenGenerator.html" xlink:title="Simple Module PacketBasedTokenGenerator" target="_parent">
<polygon fill="#fffcaf" stroke="black" points="596,-19 441,-19 441,0 596,0 596,-19"/>
<text text-anchor="middle" x="518.5" y="-7" font-family="Helvetica,sans-Serif" font-size="10.00">PacketBasedTokenGenerator</text>
</a>
</g>
</g>
<!-- TelnetServerTraffic&#45;&gt;PacketBasedTokenGenerator -->
<g id="edge5" class="edge">
<title>TelnetServerTraffic&#45;&gt;PacketBasedTokenGenerator</title>
<path fill="none" stroke="black" d="M460.59,-54.98C470.99,-47 486.76,-34.88 499.22,-25.31"/>
<polygon fill="black" stroke="black" points="501.41,-28.04 507.21,-19.17 497.15,-22.49 501.41,-28.04"/>
</g>
<!-- IdealChannel -->
<g id="node7" class="node">
<title>IdealChannel</title>
<g id="a_node7"><a xlink:href="ned.IdealChannel.html" xlink:title="Channel IdealChannel" target="_parent">
<polygon fill="#d0ffd0" stroke="black" points="694.5,-19 614.5,-19 614.5,0 694.5,0 694.5,-19"/>
<text text-anchor="middle" x="654.5" y="-7" font-family="Helvetica,sans-Serif" font-size="10.00">IdealChannel</text>
</a>
</g>
</g>
<!-- TelnetServerTraffic&#45;&gt;IdealChannel -->
<g id="edge6" class="edge">
<title>TelnetServerTraffic&#45;&gt;IdealChannel</title>
<path fill="none" stroke="black" d="M482.44,-54.98C517.45,-45.93 572.97,-31.58 611.43,-21.64"/>
<polygon fill="black" stroke="black" points="612.5,-24.97 621.31,-19.08 610.75,-18.2 612.5,-24.97"/>
</g>
<!-- IPassivePacketSource -->
<g id="node8" class="node">
<title>IPassivePacketSource</title>
<g id="a_node8"><a xlink:href="inet.queueing.contract.IPassivePacketSource.html" xlink:title="Module Interface IPassivePacketSource" target="_parent">
<polygon fill="#fffcaf" stroke="black" stroke-dasharray="5,2" points="834,-19 713,-19 713,0 834,0 834,-19"/>
<text text-anchor="middle" x="773.5" y="-7" font-family="Helvetica,sans-Serif" font-size="10.00">IPassivePacketSource</text>
</a>
</g>
</g>
<!-- TelnetServerTraffic&#45;&gt;IPassivePacketSource -->
<g id="edge7" class="edge">
<title>TelnetServerTraffic&#45;&gt;IPassivePacketSource</title>
<path fill="none" stroke="black" d="M501.56,-54.98C558.74,-45.63 650.54,-30.61 711.43,-20.65"/>
<polygon fill="black" stroke="black" points="712,-24.11 721.3,-19.04 710.87,-17.2 712,-24.11"/>
</g>
<!-- PacketMultiplexer -->
<g id="node9" class="node">
<title>PacketMultiplexer</title>
<g id="a_node9"><a xlink:href="inet.queueing.common.PacketMultiplexer.html" xlink:title="Simple Module PacketMultiplexer" target="_parent">
<polygon fill="#fffcaf" stroke="black" points="955,-19 852,-19 852,0 955,0 955,-19"/>
<text text-anchor="middle" x="903.5" y="-7" font-family="Helvetica,sans-Serif" font-size="10.00">PacketMultiplexer</text>
</a>
</g>
</g>
<!-- TelnetServerTraffic&#45;&gt;PacketMultiplexer -->
<g id="edge8" class="edge">
<title>TelnetServerTraffic&#45;&gt;PacketMultiplexer</title>
<path fill="none" stroke="black" d="M503.09,-57.93C576.95,-50.15 714.46,-35.28 841.5,-19.23"/>
<polygon fill="black" stroke="black" points="842.32,-22.65 851.8,-17.92 841.44,-15.71 842.32,-22.65"/>
</g>
<!-- TelnetTutorialStep -->
<g id="node10" class="node">
<title>TelnetTutorialStep</title>
<g id="a_node10"><a xlink:href="inet.tutorials.queueing.TelnetTutorialStep.html" xlink:title="Network TelnetTutorialStep" target="_parent">
<polygon fill="#d0d0ff" stroke="black" points="501.5,-129 397.5,-129 397.5,-110 501.5,-110 501.5,-129"/>
<text text-anchor="middle" x="449.5" y="-117" font-family="Helvetica,sans-Serif" font-size="10.00">TelnetTutorialStep</text>
</a>
</g>
</g>
<!-- TelnetTutorialStep&#45;&gt;TelnetServerTraffic -->
<g id="edge9" class="edge">
<title>TelnetTutorialStep&#45;&gt;TelnetServerTraffic</title>
<path fill="none" stroke="black" d="M449.5,-109.75C449.5,-102.8 449.5,-92.85 449.5,-84.13"/>
<polygon fill="black" stroke="black" points="453,-84.09 449.5,-74.09 446,-84.09 453,-84.09"/>
</g>
</g>
</svg>
