<?xml version="1.0" encoding="UTF-8" standalone="no"?>
<!DOCTYPE svg PUBLIC "-//W3C//DTD SVG 1.1//EN"
 "http://www.w3.org/Graphics/SVG/1.1/DTD/svg11.dtd">
<!-- Generated by graphviz version 2.43.0 (0)
 -->
<!-- Title: opp Pages: 1 -->
<svg width="554pt" height="82pt"
 viewBox="0.00 0.00 554.00 82.00" xmlns="http://www.w3.org/2000/svg" xmlns:xlink="http://www.w3.org/1999/xlink">
<g id="graph0" class="graph" transform="scale(1 1) rotate(0) translate(4 78)">
<title>opp</title>
<polygon fill="transparent" stroke="transparent" points="-4,4 -4,-78 550,-78 550,4 -4,4"/>
<!-- ObstacleIntersectionTest -->
<g id="node1" class="node">
<title>ObstacleIntersectionTest</title>
<g id="a_node1"><a xlink:href="inet.examples.geometry.ObstacleIntersectionTest.html" xlink:title="Network ObstacleIntersectionTest" target="_parent">
<polygon fill="#9090ff" stroke="black" points="394,-74 257,-74 257,-55 394,-55 394,-74"/>
<text text-anchor="middle" x="325.5" y="-62" font-family="Helvetica,sans-Serif" font-size="10.00">ObstacleIntersectionTest</text>
</a>
</g>
</g>
<!-- Ieee80211ScalarRadioMedium -->
<g id="node2" class="node">
<title>Ieee80211ScalarRadioMedium</title>
<g id="a_node2"><a xlink:href="inet.physicallayer.wireless.ieee80211.packetlevel.Ieee80211ScalarRadioMedium.html" xlink:title="Compound Module Ieee80211ScalarRadioMedium" target="_parent">
<polygon fill="#fffcaf" stroke="black" points="165,-19 0,-19 0,0 165,0 165,-19"/>
<text text-anchor="middle" x="82.5" y="-7" font-family="Helvetica,sans-Serif" font-size="10.00">Ieee80211ScalarRadioMedium</text>
</a>
</g>
</g>
<!-- ObstacleIntersectionTest&#45;&gt;Ieee80211ScalarRadioMedium -->
<g id="edge1" class="edge">
<title>ObstacleIntersectionTest&#45;&gt;Ieee80211ScalarRadioMedium</title>
<path fill="none" stroke="black" d="M286.46,-54.98C244.42,-45.82 177.46,-31.21 131.82,-21.26"/>
<polygon fill="black" stroke="black" points="132.36,-17.79 121.85,-19.08 130.87,-24.63 132.36,-17.79"/>
</g>
<!-- Ipv4NetworkConfigurator -->
<g id="node3" class="node">
<title>Ipv4NetworkConfigurator</title>
<g id="a_node3"><a xlink:href="inet.networklayer.configurator.ipv4.Ipv4NetworkConfigurator.html" xlink:title="Simple Module Ipv4NetworkConfigurator" target="_parent">
<polygon fill="#fffcaf" stroke="black" points="322,-19 183,-19 183,0 322,0 322,-19"/>
<text text-anchor="middle" x="252.5" y="-7" font-family="Helvetica,sans-Serif" font-size="10.00">Ipv4NetworkConfigurator</text>
</a>
</g>
</g>
<!-- ObstacleIntersectionTest&#45;&gt;Ipv4NetworkConfigurator -->
<g id="edge2" class="edge">
<title>ObstacleIntersectionTest&#45;&gt;Ipv4NetworkConfigurator</title>
<path fill="none" stroke="black" d="M313.77,-54.98C302.77,-47 286.08,-34.88 272.9,-25.31"/>
<polygon fill="black" stroke="black" points="274.59,-22.21 264.44,-19.17 270.48,-27.88 274.59,-22.21"/>
</g>
<!-- PhysicalEnvironment -->
<g id="node4" class="node">
<title>PhysicalEnvironment</title>
<g id="a_node4"><a xlink:href="inet.environment.common.PhysicalEnvironment.html" xlink:title="Compound Module PhysicalEnvironment" target="_parent">
<polygon fill="#fffcaf" stroke="black" points="459,-19 340,-19 340,0 459,0 459,-19"/>
<text text-anchor="middle" x="399.5" y="-7" font-family="Helvetica,sans-Serif" font-size="10.00">PhysicalEnvironment</text>
</a>
</g>
</g>
<!-- ObstacleIntersectionTest&#45;&gt;PhysicalEnvironment -->
<g id="edge3" class="edge">
<title>ObstacleIntersectionTest&#45;&gt;PhysicalEnvironment</title>
<path fill="none" stroke="black" d="M337.39,-54.98C348.65,-46.92 365.79,-34.65 379.21,-25.03"/>
<polygon fill="black" stroke="black" points="381.3,-27.84 387.39,-19.17 377.23,-22.15 381.3,-27.84"/>
</g>
<!-- AdhocHost -->
<g id="node5" class="node">
<title>AdhocHost</title>
<g id="a_node5"><a xlink:href="inet.node.inet.AdhocHost.html" xlink:title="Compound Module AdhocHost" target="_parent">
<polygon fill="#fffcaf" stroke="black" points="546,-19 477,-19 477,0 546,0 546,-19"/>
<text text-anchor="middle" x="511.5" y="-7" font-family="Helvetica,sans-Serif" font-size="10.00">AdhocHost</text>
</a>
</g>
</g>
<!-- ObstacleIntersectionTest&#45;&gt;AdhocHost -->
<g id="edge4" class="edge">
<title>ObstacleIntersectionTest&#45;&gt;AdhocHost</title>
<path fill="none" stroke="black" d="M355.38,-54.98C386.88,-46.01 436.67,-31.82 471.53,-21.89"/>
<polygon fill="black" stroke="black" points="472.72,-25.19 481.38,-19.08 470.81,-18.46 472.72,-25.19"/>
</g>
</g>
</svg>
