<?xml version="1.0" encoding="UTF-8" standalone="no"?>
<!DOCTYPE svg PUBLIC "-//W3C//DTD SVG 1.1//EN"
 "http://www.w3.org/Graphics/SVG/1.1/DTD/svg11.dtd">
<!-- Generated by graphviz version 2.43.0 (0)
 -->
<!-- Title: opp Pages: 1 -->
<svg width="529pt" height="82pt"
 viewBox="0.00 0.00 529.00 82.00" xmlns="http://www.w3.org/2000/svg" xmlns:xlink="http://www.w3.org/1999/xlink">
<g id="graph0" class="graph" transform="scale(1 1) rotate(0) translate(4 78)">
<title>opp</title>
<polygon fill="transparent" stroke="transparent" points="-4,4 -4,-78 525,-78 525,4 -4,4"/>
<!-- OSPF_mininet -->
<g id="node1" class="node">
<title>OSPF_mininet</title>
<g id="a_node1"><a xlink:href="inet.examples.ospfv2.areatests.OSPF_mininet.html" xlink:title="Network OSPF_mininet" target="_parent">
<polygon fill="#9090ff" stroke="black" points="302,-74 217,-74 217,-55 302,-55 302,-74"/>
<text text-anchor="middle" x="259.5" y="-62" font-family="Helvetica,sans-Serif" font-size="10.00">OSPF_mininet</text>
</a>
</g>
</g>
<!-- OspfRouter -->
<g id="node2" class="node">
<title>OspfRouter</title>
<g id="a_node2"><a xlink:href="inet.node.ospfv2.OspfRouter.html" xlink:title="Compound Module OspfRouter" target="_parent">
<polygon fill="#fffcaf" stroke="black" points="71,-19 0,-19 0,0 71,0 71,-19"/>
<text text-anchor="middle" x="35.5" y="-7" font-family="Helvetica,sans-Serif" font-size="10.00">OspfRouter</text>
</a>
</g>
</g>
<!-- OSPF_mininet&#45;&gt;OspfRouter -->
<g id="edge1" class="edge">
<title>OSPF_mininet&#45;&gt;OspfRouter</title>
<path fill="none" stroke="black" d="M223.51,-54.98C184.78,-45.82 123.09,-31.22 81.01,-21.27"/>
<polygon fill="black" stroke="black" points="81.57,-17.8 71.03,-18.91 79.96,-24.62 81.57,-17.8"/>
</g>
<!-- StandardHost -->
<g id="node3" class="node">
<title>StandardHost</title>
<g id="a_node3"><a xlink:href="inet.node.inet.StandardHost.html" xlink:title="Compound Module StandardHost" target="_parent">
<polygon fill="#fffcaf" stroke="black" points="172,-19 89,-19 89,0 172,0 172,-19"/>
<text text-anchor="middle" x="130.5" y="-7" font-family="Helvetica,sans-Serif" font-size="10.00">StandardHost</text>
</a>
</g>
</g>
<!-- OSPF_mininet&#45;&gt;StandardHost -->
<g id="edge2" class="edge">
<title>OSPF_mininet&#45;&gt;StandardHost</title>
<path fill="none" stroke="black" d="M238.77,-54.98C217.74,-46.34 184.95,-32.87 160.96,-23.02"/>
<polygon fill="black" stroke="black" points="162.18,-19.73 151.6,-19.17 159.52,-26.21 162.18,-19.73"/>
</g>
<!-- Ipv4NetworkConfigurator -->
<g id="node4" class="node">
<title>Ipv4NetworkConfigurator</title>
<g id="a_node4"><a xlink:href="inet.networklayer.configurator.ipv4.Ipv4NetworkConfigurator.html" xlink:title="Simple Module Ipv4NetworkConfigurator" target="_parent">
<polygon fill="#fffcaf" stroke="black" points="329,-19 190,-19 190,0 329,0 329,-19"/>
<text text-anchor="middle" x="259.5" y="-7" font-family="Helvetica,sans-Serif" font-size="10.00">Ipv4NetworkConfigurator</text>
</a>
</g>
</g>
<!-- OSPF_mininet&#45;&gt;Ipv4NetworkConfigurator -->
<g id="edge3" class="edge">
<title>OSPF_mininet&#45;&gt;Ipv4NetworkConfigurator</title>
<path fill="none" stroke="black" d="M259.5,-54.75C259.5,-47.8 259.5,-37.85 259.5,-29.13"/>
<polygon fill="black" stroke="black" points="263,-29.09 259.5,-19.09 256,-29.09 263,-29.09"/>
</g>
<!-- C -->
<g id="node5" class="node">
<title>C</title>
<g id="a_node5"><a xlink:href="inet.examples.ospfv2.areatests.OSPF_mininet.C.html" xlink:title="Channel C" target="_parent">
<polygon fill="#d0ffd0" stroke="black" points="401.5,-19 347.5,-19 347.5,0 401.5,0 401.5,-19"/>
<text text-anchor="middle" x="374.5" y="-7" font-family="Helvetica,sans-Serif" font-size="10.00">C</text>
</a>
</g>
</g>
<!-- OSPF_mininet&#45;&gt;C -->
<g id="edge4" class="edge">
<title>OSPF_mininet&#45;&gt;C</title>
<path fill="none" stroke="black" d="M277.98,-54.98C296.48,-46.46 325.18,-33.23 346.48,-23.41"/>
<polygon fill="black" stroke="black" points="348.07,-26.53 355.69,-19.17 345.14,-20.18 348.07,-26.53"/>
</g>
<!-- ScenarioManager -->
<g id="node6" class="node">
<title>ScenarioManager</title>
<g id="a_node6"><a xlink:href="inet.common.scenario.ScenarioManager.html" xlink:title="Simple Module ScenarioManager" target="_parent">
<polygon fill="#fffcaf" stroke="black" points="521,-19 420,-19 420,0 521,0 521,-19"/>
<text text-anchor="middle" x="470.5" y="-7" font-family="Helvetica,sans-Serif" font-size="10.00">ScenarioManager</text>
</a>
</g>
</g>
<!-- OSPF_mininet&#45;&gt;ScenarioManager -->
<g id="edge5" class="edge">
<title>OSPF_mininet&#45;&gt;ScenarioManager</title>
<path fill="none" stroke="black" d="M293.4,-54.98C329.52,-45.91 386.82,-31.52 426.42,-21.57"/>
<polygon fill="black" stroke="black" points="427.49,-24.91 436.33,-19.08 425.78,-18.12 427.49,-24.91"/>
</g>
</g>
</svg>
