<?xml version="1.0" encoding="UTF-8" standalone="no"?>
<!DOCTYPE svg PUBLIC "-//W3C//DTD SVG 1.1//EN"
 "http://www.w3.org/Graphics/SVG/1.1/DTD/svg11.dtd">
<!-- Generated by graphviz version 2.43.0 (0)
 -->
<!-- Title: opp Pages: 1 -->
<svg width="2280pt" height="137pt"
 viewBox="0.00 0.00 2280.00 137.00" xmlns="http://www.w3.org/2000/svg" xmlns:xlink="http://www.w3.org/1999/xlink">
<g id="graph0" class="graph" transform="scale(1 1) rotate(0) translate(4 133)">
<title>opp</title>
<polygon fill="transparent" stroke="transparent" points="-4,4 -4,-133 2276,-133 2276,4 -4,4"/>
<!-- PhysicalEnvironment -->
<g id="node1" class="node">
<title>PhysicalEnvironment</title>
<g id="a_node1"><a xlink:href="inet.environment.common.PhysicalEnvironment.html" xlink:title="Compound Module PhysicalEnvironment" target="_parent">
<polygon fill="#fff700" stroke="black" points="1195,-74 1076,-74 1076,-55 1195,-55 1195,-74"/>
<text text-anchor="middle" x="1135.5" y="-62" font-family="Helvetica,sans-Serif" font-size="10.00">PhysicalEnvironment</text>
</a>
</g>
</g>
<!-- IGround -->
<g id="node2" class="node">
<title>IGround</title>
<g id="a_node2"><a xlink:href="inet.environment.contract.IGround.html" xlink:title="Module Interface IGround" target="_parent">
<polygon fill="#fffcaf" stroke="black" stroke-dasharray="5,2" points="1120,-19 1065,-19 1065,0 1120,0 1120,-19"/>
<text text-anchor="middle" x="1092.5" y="-7" font-family="Helvetica,sans-Serif" font-size="10.00">IGround</text>
</a>
</g>
</g>
<!-- PhysicalEnvironment&#45;&gt;IGround -->
<g id="edge1" class="edge">
<title>PhysicalEnvironment&#45;&gt;IGround</title>
<path fill="none" stroke="black" d="M1128.4,-54.75C1122.33,-47.26 1113.41,-36.28 1105.99,-27.13"/>
<polygon fill="black" stroke="black" points="1108.49,-24.65 1099.47,-19.09 1103.05,-29.06 1108.49,-24.65"/>
</g>
<!-- IObjectCache -->
<g id="node3" class="node">
<title>IObjectCache</title>
<g id="a_node3"><a xlink:href="inet.environment.contract.IObjectCache.html" xlink:title="Module Interface IObjectCache" target="_parent">
<polygon fill="#fffcaf" stroke="black" stroke-dasharray="5,2" points="1219,-19 1138,-19 1138,0 1219,0 1219,-19"/>
<text text-anchor="middle" x="1178.5" y="-7" font-family="Helvetica,sans-Serif" font-size="10.00">IObjectCache</text>
</a>
</g>
</g>
<!-- PhysicalEnvironment&#45;&gt;IObjectCache -->
<g id="edge2" class="edge">
<title>PhysicalEnvironment&#45;&gt;IObjectCache</title>
<path fill="none" stroke="black" d="M1142.6,-54.75C1148.67,-47.26 1157.59,-36.28 1165.01,-27.13"/>
<polygon fill="black" stroke="black" points="1167.95,-29.06 1171.53,-19.09 1162.51,-24.65 1167.95,-29.06"/>
</g>
<!-- ErrorRateShowcase -->
<g id="node4" class="node">
<title>ErrorRateShowcase</title>
<g id="a_node4"><a xlink:href="inet.showcases.wireless.errorrate.ErrorRateShowcase.html" xlink:title="Network ErrorRateShowcase" target="_parent">
<polygon fill="#d0d0ff" stroke="black" points="111,-129 0,-129 0,-110 111,-110 111,-129"/>
<text text-anchor="middle" x="55.5" y="-117" font-family="Helvetica,sans-Serif" font-size="10.00">ErrorRateShowcase</text>
</a>
</g>
</g>
<!-- ErrorRateShowcase&#45;&gt;PhysicalEnvironment -->
<g id="edge3" class="edge">
<title>ErrorRateShowcase&#45;&gt;PhysicalEnvironment</title>
<path fill="none" stroke="black" d="M111.32,-110.79C114.08,-110.5 116.82,-110.24 119.5,-110 474.38,-78.72 901.01,-69.11 1065.83,-66.43"/>
<polygon fill="black" stroke="black" points="1065.89,-69.93 1075.83,-66.28 1065.78,-62.93 1065.89,-69.93"/>
</g>
<!-- HiddenNodeShowcase -->
<g id="node5" class="node">
<title>HiddenNodeShowcase</title>
<g id="a_node5"><a xlink:href="inet.showcases.wireless.hiddennode.HiddenNodeShowcase.html" xlink:title="Network HiddenNodeShowcase" target="_parent">
<polygon fill="#d0d0ff" stroke="black" points="254,-129 129,-129 129,-110 254,-110 254,-129"/>
<text text-anchor="middle" x="191.5" y="-117" font-family="Helvetica,sans-Serif" font-size="10.00">HiddenNodeShowcase</text>
</a>
</g>
</g>
<!-- HiddenNodeShowcase&#45;&gt;PhysicalEnvironment -->
<g id="edge4" class="edge">
<title>HiddenNodeShowcase&#45;&gt;PhysicalEnvironment</title>
<path fill="none" stroke="black" d="M254.2,-110.76C257,-110.49 259.78,-110.23 262.5,-110 560.6,-84.59 917.3,-71.92 1065.55,-67.45"/>
<polygon fill="black" stroke="black" points="1065.97,-70.93 1075.87,-67.14 1065.77,-63.94 1065.97,-70.93"/>
</g>
<!-- Ieee80211VisualizationSignalLevelsShowcase -->
<g id="node6" class="node">
<title>Ieee80211VisualizationSignalLevelsShowcase</title>
<g id="a_node6"><a xlink:href="inet.showcases.visualizer.canvas.ieee80211.Ieee80211VisualizationSignalLevelsShowcase.html" xlink:title="Network Ieee80211VisualizationSignalLevelsShowcase" target="_parent">
<polygon fill="#d0d0ff" stroke="black" points="513,-129 272,-129 272,-110 513,-110 513,-129"/>
<text text-anchor="middle" x="392.5" y="-117" font-family="Helvetica,sans-Serif" font-size="10.00">Ieee80211VisualizationSignalLevelsShowcase</text>
</a>
</g>
</g>
<!-- Ieee80211VisualizationSignalLevelsShowcase&#45;&gt;PhysicalEnvironment -->
<g id="edge5" class="edge">
<title>Ieee80211VisualizationSignalLevelsShowcase&#45;&gt;PhysicalEnvironment</title>
<path fill="none" stroke="black" d="M511.88,-109.98C668.64,-98.8 938.81,-79.53 1065.76,-70.47"/>
<polygon fill="black" stroke="black" points="1066.03,-73.96 1075.76,-69.76 1065.53,-66.98 1066.03,-73.96"/>
</g>
<!-- MediumActivityInterferingSignalsShowcase -->
<g id="node7" class="node">
<title>MediumActivityInterferingSignalsShowcase</title>
<g id="a_node7"><a xlink:href="inet.showcases.visualizer.canvas.radiomediumactivity.MediumActivityInterferingSignalsShowcase.html" xlink:title="Network MediumActivityInterferingSignalsShowcase" target="_parent">
<polygon fill="#d0d0ff" stroke="black" points="760,-129 531,-129 531,-110 760,-110 760,-129"/>
<text text-anchor="middle" x="645.5" y="-117" font-family="Helvetica,sans-Serif" font-size="10.00">MediumActivityInterferingSignalsShowcase</text>
</a>
</g>
</g>
<!-- MediumActivityInterferingSignalsShowcase&#45;&gt;PhysicalEnvironment -->
<g id="edge6" class="edge">
<title>MediumActivityInterferingSignalsShowcase&#45;&gt;PhysicalEnvironment</title>
<path fill="none" stroke="black" d="M724.23,-109.98C818.66,-99.77 975.48,-82.81 1065.73,-73.05"/>
<polygon fill="black" stroke="black" points="1066.3,-76.51 1075.87,-71.95 1065.55,-69.55 1066.3,-76.51"/>
</g>
<!-- MobileNetwork -->
<g id="node8" class="node">
<title>MobileNetwork</title>
<g id="a_node8"><a xlink:href="inet.examples.mobility.MobileNetwork.html" xlink:title="Network MobileNetwork" target="_parent">
<polygon fill="#d0d0ff" stroke="black" points="869,-129 778,-129 778,-110 869,-110 869,-129"/>
<text text-anchor="middle" x="823.5" y="-117" font-family="Helvetica,sans-Serif" font-size="10.00">MobileNetwork</text>
</a>
</g>
</g>
<!-- MobileNetwork&#45;&gt;PhysicalEnvironment -->
<g id="edge7" class="edge">
<title>MobileNetwork&#45;&gt;PhysicalEnvironment</title>
<path fill="none" stroke="black" d="M869.2,-110.74C923.68,-101.48 1014.91,-85.98 1075.15,-75.75"/>
<polygon fill="black" stroke="black" points="1076.01,-79.16 1085.28,-74.03 1074.84,-72.26 1076.01,-79.16"/>
</g>
<!-- ObjectCacheTest -->
<g id="node9" class="node">
<title>ObjectCacheTest</title>
<g id="a_node9"><a xlink:href="inet.examples.objectcache.ObjectCacheTest.html" xlink:title="Network ObjectCacheTest" target="_parent">
<polygon fill="#d0d0ff" stroke="black" points="985.5,-129 887.5,-129 887.5,-110 985.5,-110 985.5,-129"/>
<text text-anchor="middle" x="936.5" y="-117" font-family="Helvetica,sans-Serif" font-size="10.00">ObjectCacheTest</text>
</a>
</g>
</g>
<!-- ObjectCacheTest&#45;&gt;PhysicalEnvironment -->
<g id="edge8" class="edge">
<title>ObjectCacheTest&#45;&gt;PhysicalEnvironment</title>
<path fill="none" stroke="black" d="M968.47,-109.98C1002.32,-100.97 1055.9,-86.7 1093.21,-76.76"/>
<polygon fill="black" stroke="black" points="1094.51,-80.04 1103.28,-74.08 1092.71,-73.27 1094.51,-80.04"/>
</g>
<!-- ObstacleIntersectionTest -->
<g id="node10" class="node">
<title>ObstacleIntersectionTest</title>
<g id="a_node10"><a xlink:href="inet.examples.geometry.ObstacleIntersectionTest.html" xlink:title="Network ObstacleIntersectionTest" target="_parent">
<polygon fill="#d0d0ff" stroke="black" points="1141,-129 1004,-129 1004,-110 1141,-110 1141,-129"/>
<text text-anchor="middle" x="1072.5" y="-117" font-family="Helvetica,sans-Serif" font-size="10.00">ObstacleIntersectionTest</text>
</a>
</g>
</g>
<!-- ObstacleIntersectionTest&#45;&gt;PhysicalEnvironment -->
<g id="edge9" class="edge">
<title>ObstacleIntersectionTest&#45;&gt;PhysicalEnvironment</title>
<path fill="none" stroke="black" d="M1082.62,-109.98C1091.94,-102.15 1105.97,-90.34 1117.24,-80.86"/>
<polygon fill="black" stroke="black" points="1119.79,-83.29 1125.19,-74.17 1115.29,-77.93 1119.79,-83.29"/>
</g>
<!-- ObstacleTest -->
<g id="node11" class="node">
<title>ObstacleTest</title>
<g id="a_node11"><a xlink:href="inet.examples.wireless.obstacle.ObstacleTest.html" xlink:title="Network ObstacleTest" target="_parent">
<polygon fill="#d0d0ff" stroke="black" points="1238,-129 1159,-129 1159,-110 1238,-110 1238,-129"/>
<text text-anchor="middle" x="1198.5" y="-117" font-family="Helvetica,sans-Serif" font-size="10.00">ObstacleTest</text>
</a>
</g>
</g>
<!-- ObstacleTest&#45;&gt;PhysicalEnvironment -->
<g id="edge10" class="edge">
<title>ObstacleTest&#45;&gt;PhysicalEnvironment</title>
<path fill="none" stroke="black" d="M1188.38,-109.98C1179.06,-102.15 1165.03,-90.34 1153.76,-80.86"/>
<polygon fill="black" stroke="black" points="1155.71,-77.93 1145.81,-74.17 1151.21,-83.29 1155.71,-77.93"/>
</g>
<!-- PathLossShowcase -->
<g id="node12" class="node">
<title>PathLossShowcase</title>
<g id="a_node12"><a xlink:href="inet.showcases.wireless.pathloss.PathLossShowcase.html" xlink:title="Network PathLossShowcase" target="_parent">
<polygon fill="#d0d0ff" stroke="black" points="1364.5,-129 1256.5,-129 1256.5,-110 1364.5,-110 1364.5,-129"/>
<text text-anchor="middle" x="1310.5" y="-117" font-family="Helvetica,sans-Serif" font-size="10.00">PathLossShowcase</text>
</a>
</g>
</g>
<!-- PathLossShowcase&#45;&gt;PhysicalEnvironment -->
<g id="edge11" class="edge">
<title>PathLossShowcase&#45;&gt;PhysicalEnvironment</title>
<path fill="none" stroke="black" d="M1282.38,-109.98C1252.88,-101.05 1206.31,-86.94 1173.53,-77.02"/>
<polygon fill="black" stroke="black" points="1174.42,-73.63 1163.84,-74.08 1172.39,-80.33 1174.42,-73.63"/>
</g>
<!-- RateControlShowcase -->
<g id="node13" class="node">
<title>RateControlShowcase</title>
<g id="a_node13"><a xlink:href="inet.showcases.wireless.ratecontrol.RateControlShowcase.html" xlink:title="Network RateControlShowcase" target="_parent">
<polygon fill="#d0d0ff" stroke="black" points="1506,-129 1383,-129 1383,-110 1506,-110 1506,-129"/>
<text text-anchor="middle" x="1444.5" y="-117" font-family="Helvetica,sans-Serif" font-size="10.00">RateControlShowcase</text>
</a>
</g>
</g>
<!-- RateControlShowcase&#45;&gt;PhysicalEnvironment -->
<g id="edge12" class="edge">
<title>RateControlShowcase&#45;&gt;PhysicalEnvironment</title>
<path fill="none" stroke="black" d="M1394.85,-109.98C1340.54,-100.67 1253.48,-85.74 1195.41,-75.78"/>
<polygon fill="black" stroke="black" points="1195.73,-72.28 1185.28,-74.04 1194.54,-79.18 1195.73,-72.28"/>
</g>
<!-- RateControlTest -->
<g id="node14" class="node">
<title>RateControlTest</title>
<g id="a_node14"><a xlink:href="inet.examples.wireless.ratecontrol.RateControlTest.html" xlink:title="Network RateControlTest" target="_parent">
<polygon fill="#d0d0ff" stroke="black" points="1618.5,-129 1524.5,-129 1524.5,-110 1618.5,-110 1618.5,-129"/>
<text text-anchor="middle" x="1571.5" y="-117" font-family="Helvetica,sans-Serif" font-size="10.00">RateControlTest</text>
</a>
</g>
</g>
<!-- RateControlTest&#45;&gt;PhysicalEnvironment -->
<g id="edge13" class="edge">
<title>RateControlTest&#45;&gt;PhysicalEnvironment</title>
<path fill="none" stroke="black" d="M1524.46,-111.24C1521.43,-110.81 1518.42,-110.39 1515.5,-110 1407.29,-95.46 1281.38,-81.24 1205.11,-72.93"/>
<polygon fill="black" stroke="black" points="1205.46,-69.45 1195.14,-71.85 1204.71,-76.41 1205.46,-69.45"/>
</g>
<!-- SpectrumShowcasePowerDensityMapNetwork -->
<g id="node15" class="node">
<title>SpectrumShowcasePowerDensityMapNetwork</title>
<g id="a_node15"><a xlink:href="inet.showcases.visualizer.canvas.spectrum.SpectrumShowcasePowerDensityMapNetwork.html" xlink:title="Network SpectrumShowcasePowerDensityMapNetwork" target="_parent">
<polygon fill="#d0d0ff" stroke="black" points="1878.5,-129 1636.5,-129 1636.5,-110 1878.5,-110 1878.5,-129"/>
<text text-anchor="middle" x="1757.5" y="-117" font-family="Helvetica,sans-Serif" font-size="10.00">SpectrumShowcasePowerDensityMapNetwork</text>
</a>
</g>
</g>
<!-- SpectrumShowcasePowerDensityMapNetwork&#45;&gt;PhysicalEnvironment -->
<g id="edge14" class="edge">
<title>SpectrumShowcasePowerDensityMapNetwork&#45;&gt;PhysicalEnvironment</title>
<path fill="none" stroke="black" d="M1657.56,-109.98C1530.85,-99.19 1315.64,-80.85 1205.29,-71.45"/>
<polygon fill="black" stroke="black" points="1205.53,-67.95 1195.27,-70.59 1204.93,-74.93 1205.53,-67.95"/>
</g>
<!-- SpectrumShowcaseSpectrumFigureSpectrogramNetwork -->
<g id="node16" class="node">
<title>SpectrumShowcaseSpectrumFigureSpectrogramNetwork</title>
<g id="a_node16"><a xlink:href="inet.showcases.visualizer.canvas.spectrum.SpectrumShowcaseSpectrumFigureSpectrogramNetwork.html" xlink:title="Network SpectrumShowcaseSpectrumFigureSpectrogramNetwork" target="_parent">
<polygon fill="#d0d0ff" stroke="black" points="2188.5,-129 1896.5,-129 1896.5,-110 2188.5,-110 2188.5,-129"/>
<text text-anchor="middle" x="2042.5" y="-117" font-family="Helvetica,sans-Serif" font-size="10.00">SpectrumShowcaseSpectrumFigureSpectrogramNetwork</text>
</a>
</g>
</g>
<!-- SpectrumShowcaseSpectrumFigureSpectrogramNetwork&#45;&gt;PhysicalEnvironment -->
<g id="edge15" class="edge">
<title>SpectrumShowcaseSpectrumFigureSpectrogramNetwork&#45;&gt;PhysicalEnvironment</title>
<path fill="none" stroke="black" d="M1897.03,-110C1699.16,-98.44 1352.94,-78.21 1205.35,-69.58"/>
<polygon fill="black" stroke="black" points="1205.26,-66.07 1195.07,-68.98 1204.85,-73.06 1205.26,-66.07"/>
</g>
<!-- WirelessC -->
<g id="node17" class="node">
<title>WirelessC</title>
<g id="a_node17"><a xlink:href="inet.tutorials.wireless.WirelessC.html" xlink:title="Network WirelessC" target="_parent">
<polygon fill="#d0d0ff" stroke="black" points="2272,-129 2207,-129 2207,-110 2272,-110 2272,-129"/>
<text text-anchor="middle" x="2239.5" y="-117" font-family="Helvetica,sans-Serif" font-size="10.00">WirelessC</text>
</a>
</g>
</g>
<!-- WirelessC&#45;&gt;PhysicalEnvironment -->
<g id="edge16" class="edge">
<title>WirelessC&#45;&gt;PhysicalEnvironment</title>
<path fill="none" stroke="black" d="M2206.56,-111.32C2203.51,-110.81 2200.45,-110.36 2197.5,-110 2004.4,-86.56 1409.14,-71.55 1205.03,-66.98"/>
<polygon fill="black" stroke="black" points="1205.1,-63.48 1195.03,-66.76 1204.95,-70.48 1205.1,-63.48"/>
</g>
</g>
</svg>
