<?xml version="1.0" encoding="UTF-8" standalone="no"?>
<!DOCTYPE svg PUBLIC "-//W3C//DTD SVG 1.1//EN"
 "http://www.w3.org/Graphics/SVG/1.1/DTD/svg11.dtd">
<!-- Generated by graphviz version 2.43.0 (0)
 -->
<!-- Title: opp Pages: 1 -->
<svg width="238pt" height="82pt"
 viewBox="0.00 0.00 237.50 82.00" xmlns="http://www.w3.org/2000/svg" xmlns:xlink="http://www.w3.org/1999/xlink">
<g id="graph0" class="graph" transform="scale(1 1) rotate(0) translate(4 78)">
<title>opp</title>
<polygon fill="transparent" stroke="transparent" points="-4,4 -4,-78 233.5,-78 233.5,4 -4,4"/>
<!-- LoopbackInterface -->
<g id="node1" class="node">
<title>LoopbackInterface</title>
<g id="a_node1"><a xlink:href="inet.linklayer.loopback.LoopbackInterface.html" xlink:title="Compound Module LoopbackInterface" target="_parent">
<polygon fill="#fff700" stroke="black" points="166,-19 59,-19 59,0 166,0 166,-19"/>
<text text-anchor="middle" x="112.5" y="-7" font-family="Helvetica,sans-Serif" font-size="10.00">LoopbackInterface</text>
</a>
</g>
</g>
<!-- NetworkInterface -->
<g id="node2" class="node">
<title>NetworkInterface</title>
<g id="a_node2"><a xlink:href="inet.networklayer.common.NetworkInterface.html" xlink:title="Compound Module NetworkInterface" target="_parent">
<polygon fill="#fffcaf" stroke="black" points="101,-74 0,-74 0,-55 101,-55 101,-74"/>
<text text-anchor="middle" x="50.5" y="-62" font-family="Helvetica,sans-Serif" font-size="10.00">NetworkInterface</text>
</a>
</g>
</g>
<!-- NetworkInterface&#45;&gt;LoopbackInterface -->
<g id="edge1" class="edge">
<title>NetworkInterface&#45;&gt;LoopbackInterface</title>
<path fill="none" stroke="black" d="M60.46,-54.98C71.96,-45.15 90.78,-29.07 102.36,-19.17"/>
</g>
<!-- ILoopbackInterface -->
<g id="node3" class="node">
<title>ILoopbackInterface</title>
<g id="a_node3"><a xlink:href="inet.linklayer.contract.ILoopbackInterface.html" xlink:title="Module Interface ILoopbackInterface" target="_parent">
<polygon fill="#fffcaf" stroke="black" stroke-dasharray="5,2" points="229.5,-74 119.5,-74 119.5,-55 229.5,-55 229.5,-74"/>
<text text-anchor="middle" x="174.5" y="-62" font-family="Helvetica,sans-Serif" font-size="10.00">ILoopbackInterface</text>
</a>
</g>
</g>
<!-- ILoopbackInterface&#45;&gt;LoopbackInterface -->
<g id="edge2" class="edge">
<title>ILoopbackInterface&#45;&gt;LoopbackInterface</title>
<path fill="none" stroke="black" stroke-dasharray="5,2" d="M164.54,-54.98C153.04,-45.15 134.22,-29.07 122.64,-19.17"/>
</g>
</g>
</svg>
