<?xml version="1.0" encoding="UTF-8" standalone="no"?>
<!DOCTYPE svg PUBLIC "-//W3C//DTD SVG 1.1//EN"
 "http://www.w3.org/Graphics/SVG/1.1/DTD/svg11.dtd">
<!-- Generated by graphviz version 2.43.0 (0)
 -->
<!-- Title: opp Pages: 1 -->
<svg width="282pt" height="137pt"
 viewBox="0.00 0.00 282.00 137.00" xmlns="http://www.w3.org/2000/svg" xmlns:xlink="http://www.w3.org/1999/xlink">
<g id="graph0" class="graph" transform="scale(1 1) rotate(0) translate(4 133)">
<title>opp</title>
<polygon fill="transparent" stroke="transparent" points="-4,4 -4,-133 278,-133 278,4 -4,4"/>
<!-- PacketReceiverBase -->
<g id="node1" class="node">
<title>PacketReceiverBase</title>
<g id="a_node1"><a xlink:href="inet.protocolelement.transceiver.base.PacketReceiverBase.html" xlink:title="Simple Module PacketReceiverBase" target="_parent">
<polygon fill="#fff700" stroke="black" points="191.5,-74 76.5,-74 76.5,-55 191.5,-55 191.5,-74"/>
<text text-anchor="middle" x="134" y="-62" font-family="Helvetica,sans-Serif" font-size="10.00">PacketReceiverBase</text>
</a>
</g>
</g>
<!-- DestreamingReceiver -->
<g id="node3" class="node">
<title>DestreamingReceiver</title>
<g id="a_node3"><a xlink:href="inet.protocolelement.transceiver.DestreamingReceiver.html" xlink:title="Simple Module DestreamingReceiver" target="_parent">
<polygon fill="#fffcaf" stroke="black" points="122,-19 0,-19 0,0 122,0 122,-19"/>
<text text-anchor="middle" x="61" y="-7" font-family="Helvetica,sans-Serif" font-size="10.00">DestreamingReceiver</text>
</a>
</g>
</g>
<!-- PacketReceiverBase&#45;&gt;DestreamingReceiver -->
<g id="edge2" class="edge">
<title>PacketReceiverBase&#45;&gt;DestreamingReceiver</title>
<path fill="none" stroke="black" d="M122.27,-54.98C108.73,-45.15 86.57,-29.07 72.94,-19.17"/>
</g>
<!-- StreamingReceiverBase -->
<g id="node4" class="node">
<title>StreamingReceiverBase</title>
<g id="a_node4"><a xlink:href="inet.protocolelement.transceiver.base.StreamingReceiverBase.html" xlink:title="Simple Module StreamingReceiverBase" target="_parent">
<polygon fill="#fffcaf" stroke="black" points="274,-19 140,-19 140,0 274,0 274,-19"/>
<text text-anchor="middle" x="207" y="-7" font-family="Helvetica,sans-Serif" font-size="10.00">StreamingReceiverBase</text>
</a>
</g>
</g>
<!-- PacketReceiverBase&#45;&gt;StreamingReceiverBase -->
<g id="edge3" class="edge">
<title>PacketReceiverBase&#45;&gt;StreamingReceiverBase</title>
<path fill="none" stroke="black" d="M145.73,-54.98C159.27,-45.15 181.43,-29.07 195.06,-19.17"/>
</g>
<!-- PacketProcessorBase -->
<g id="node2" class="node">
<title>PacketProcessorBase</title>
<g id="a_node2"><a xlink:href="inet.queueing.base.PacketProcessorBase.html" xlink:title="Simple Module PacketProcessorBase" target="_parent">
<polygon fill="#fffcaf" stroke="black" points="193.5,-129 74.5,-129 74.5,-110 193.5,-110 193.5,-129"/>
<text text-anchor="middle" x="134" y="-117" font-family="Helvetica,sans-Serif" font-size="10.00">PacketProcessorBase</text>
</a>
</g>
</g>
<!-- PacketProcessorBase&#45;&gt;PacketReceiverBase -->
<g id="edge1" class="edge">
<title>PacketProcessorBase&#45;&gt;PacketReceiverBase</title>
<path fill="none" stroke="black" d="M134,-109.75C134,-99.87 134,-83.9 134,-74.09"/>
</g>
</g>
</svg>
