<?xml version="1.0" encoding="UTF-8" standalone="no"?>
<!DOCTYPE svg PUBLIC "-//W3C//DTD SVG 1.1//EN"
 "http://www.w3.org/Graphics/SVG/1.1/DTD/svg11.dtd">
<!-- Generated by graphviz version 2.43.0 (0)
 -->
<!-- Title: opp Pages: 1 -->
<svg width="510pt" height="82pt"
 viewBox="0.00 0.00 509.50 82.00" xmlns="http://www.w3.org/2000/svg" xmlns:xlink="http://www.w3.org/1999/xlink">
<g id="graph0" class="graph" transform="scale(1 1) rotate(0) translate(4 78)">
<title>opp</title>
<polygon fill="transparent" stroke="transparent" points="-4,4 -4,-78 505.5,-78 505.5,4 -4,4"/>
<!-- Tunnel -->
<g id="node1" class="node">
<title>Tunnel</title>
<g id="a_node1"><a xlink:href="inet.examples.inet.tunnel.Tunnel.html" xlink:title="Network Tunnel" target="_parent">
<polygon fill="#9090ff" stroke="black" points="314.5,-74 260.5,-74 260.5,-55 314.5,-55 314.5,-74"/>
<text text-anchor="middle" x="287.5" y="-62" font-family="Helvetica,sans-Serif" font-size="10.00">Tunnel</text>
</a>
</g>
</g>
<!-- StandardHost -->
<g id="node2" class="node">
<title>StandardHost</title>
<g id="a_node2"><a xlink:href="inet.node.inet.StandardHost.html" xlink:title="Compound Module StandardHost" target="_parent">
<polygon fill="#fffcaf" stroke="black" points="83,-19 0,-19 0,0 83,0 83,-19"/>
<text text-anchor="middle" x="41.5" y="-7" font-family="Helvetica,sans-Serif" font-size="10.00">StandardHost</text>
</a>
</g>
</g>
<!-- Tunnel&#45;&gt;StandardHost -->
<g id="edge1" class="edge">
<title>Tunnel&#45;&gt;StandardHost</title>
<path fill="none" stroke="black" d="M260.23,-57.63C219.42,-48.83 141.81,-32.11 90.86,-21.14"/>
<polygon fill="black" stroke="black" points="91.56,-17.71 81.05,-19.02 90.09,-24.55 91.56,-17.71"/>
</g>
<!-- DatarateChannel -->
<g id="node3" class="node">
<title>DatarateChannel</title>
<g id="a_node3"><a xlink:href="ned.DatarateChannel.html" xlink:title="Channel DatarateChannel" target="_parent">
<polygon fill="#d0ffd0" stroke="black" points="200,-19 101,-19 101,0 200,0 200,-19"/>
<text text-anchor="middle" x="150.5" y="-7" font-family="Helvetica,sans-Serif" font-size="10.00">DatarateChannel</text>
</a>
</g>
</g>
<!-- Tunnel&#45;&gt;DatarateChannel -->
<g id="edge2" class="edge">
<title>Tunnel&#45;&gt;DatarateChannel</title>
<path fill="none" stroke="black" d="M265.49,-54.98C243.05,-46.3 208.02,-32.75 182.51,-22.88"/>
<polygon fill="black" stroke="black" points="183.5,-19.51 172.91,-19.17 180.98,-26.04 183.5,-19.51"/>
</g>
<!-- Ipv4NetworkConfigurator -->
<g id="node4" class="node">
<title>Ipv4NetworkConfigurator</title>
<g id="a_node4"><a xlink:href="inet.networklayer.configurator.ipv4.Ipv4NetworkConfigurator.html" xlink:title="Simple Module Ipv4NetworkConfigurator" target="_parent">
<polygon fill="#fffcaf" stroke="black" points="357,-19 218,-19 218,0 357,0 357,-19"/>
<text text-anchor="middle" x="287.5" y="-7" font-family="Helvetica,sans-Serif" font-size="10.00">Ipv4NetworkConfigurator</text>
</a>
</g>
</g>
<!-- Tunnel&#45;&gt;Ipv4NetworkConfigurator -->
<g id="edge3" class="edge">
<title>Tunnel&#45;&gt;Ipv4NetworkConfigurator</title>
<path fill="none" stroke="black" d="M287.5,-54.75C287.5,-47.8 287.5,-37.85 287.5,-29.13"/>
<polygon fill="black" stroke="black" points="291,-29.09 287.5,-19.09 284,-29.09 291,-29.09"/>
</g>
<!-- Router -->
<g id="node5" class="node">
<title>Router</title>
<g id="a_node5"><a xlink:href="inet.node.inet.Router.html" xlink:title="Compound Module Router" target="_parent">
<polygon fill="#fffcaf" stroke="black" points="429.5,-19 375.5,-19 375.5,0 429.5,0 429.5,-19"/>
<text text-anchor="middle" x="402.5" y="-7" font-family="Helvetica,sans-Serif" font-size="10.00">Router</text>
</a>
</g>
</g>
<!-- Tunnel&#45;&gt;Router -->
<g id="edge4" class="edge">
<title>Tunnel&#45;&gt;Router</title>
<path fill="none" stroke="black" d="M305.98,-54.98C324.48,-46.46 353.18,-33.23 374.48,-23.41"/>
<polygon fill="black" stroke="black" points="376.07,-26.53 383.69,-19.17 373.14,-20.18 376.07,-26.53"/>
</g>
<!-- Eth1G -->
<g id="node6" class="node">
<title>Eth1G</title>
<g id="a_node6"><a xlink:href="inet.node.ethernet.Eth1G.html" xlink:title="Channel Eth1G" target="_parent">
<polygon fill="#d0ffd0" stroke="black" points="501.5,-19 447.5,-19 447.5,0 501.5,0 501.5,-19"/>
<text text-anchor="middle" x="474.5" y="-7" font-family="Helvetica,sans-Serif" font-size="10.00">Eth1G</text>
</a>
</g>
</g>
<!-- Tunnel&#45;&gt;Eth1G -->
<g id="edge5" class="edge">
<title>Tunnel&#45;&gt;Eth1G</title>
<path fill="none" stroke="black" d="M314.69,-55.79C347.1,-46.61 401.4,-31.22 437.58,-20.96"/>
<polygon fill="black" stroke="black" points="438.61,-24.31 447.28,-18.22 436.7,-17.58 438.61,-24.31"/>
</g>
</g>
</svg>
