<?xml version="1.0" encoding="UTF-8" standalone="no"?>
<!DOCTYPE svg PUBLIC "-//W3C//DTD SVG 1.1//EN"
 "http://www.w3.org/Graphics/SVG/1.1/DTD/svg11.dtd">
<!-- Generated by graphviz version 2.43.0 (0)
 -->
<!-- Title: opp Pages: 1 -->
<svg width="537pt" height="137pt"
 viewBox="0.00 0.00 536.50 137.00" xmlns="http://www.w3.org/2000/svg" xmlns:xlink="http://www.w3.org/1999/xlink">
<g id="graph0" class="graph" transform="scale(1 1) rotate(0) translate(4 133)">
<title>opp</title>
<polygon fill="transparent" stroke="transparent" points="-4,4 -4,-133 532.5,-133 532.5,4 -4,4"/>
<!-- IPv4MediumLAN -->
<g id="node1" class="node">
<title>IPv4MediumLAN</title>
<g id="a_node1"><a xlink:href="inet.examples.inet.ipv4largenet.IPv4MediumLAN.html" xlink:title="Compound Module IPv4MediumLAN" target="_parent">
<polygon fill="#fff700" stroke="black" points="341.5,-74 243.5,-74 243.5,-55 341.5,-55 341.5,-74"/>
<text text-anchor="middle" x="292.5" y="-62" font-family="Helvetica,sans-Serif" font-size="10.00">IPv4MediumLAN</text>
</a>
</g>
</g>
<!-- EthernetHub -->
<g id="node2" class="node">
<title>EthernetHub</title>
<g id="a_node2"><a xlink:href="inet.node.ethernet.EthernetHub.html" xlink:title="Simple Module EthernetHub" target="_parent">
<polygon fill="#fffcaf" stroke="black" points="77,-19 0,-19 0,0 77,0 77,-19"/>
<text text-anchor="middle" x="38.5" y="-7" font-family="Helvetica,sans-Serif" font-size="10.00">EthernetHub</text>
</a>
</g>
</g>
<!-- IPv4MediumLAN&#45;&gt;EthernetHub -->
<g id="edge1" class="edge">
<title>IPv4MediumLAN&#45;&gt;EthernetHub</title>
<path fill="none" stroke="black" d="M251.69,-54.98C206.78,-45.61 134.66,-30.56 86.92,-20.6"/>
<polygon fill="black" stroke="black" points="87.63,-17.18 77.13,-18.56 86.2,-24.03 87.63,-17.18"/>
</g>
<!-- StandardHost -->
<g id="node3" class="node">
<title>StandardHost</title>
<g id="a_node3"><a xlink:href="inet.node.inet.StandardHost.html" xlink:title="Compound Module StandardHost" target="_parent">
<polygon fill="#fffcaf" stroke="black" points="178,-19 95,-19 95,0 178,0 178,-19"/>
<text text-anchor="middle" x="136.5" y="-7" font-family="Helvetica,sans-Serif" font-size="10.00">StandardHost</text>
</a>
</g>
</g>
<!-- IPv4MediumLAN&#45;&gt;StandardHost -->
<g id="edge2" class="edge">
<title>IPv4MediumLAN&#45;&gt;StandardHost</title>
<path fill="none" stroke="black" d="M267.44,-54.98C241.47,-46.16 200.69,-32.31 171.54,-22.41"/>
<polygon fill="black" stroke="black" points="172.35,-18.99 161.76,-19.08 170.1,-25.61 172.35,-18.99"/>
</g>
<!-- EthernetSwitch -->
<g id="node4" class="node">
<title>EthernetSwitch</title>
<g id="a_node4"><a xlink:href="inet.node.ethernet.EthernetSwitch.html" xlink:title="Compound Module EthernetSwitch" target="_parent">
<polygon fill="#fffcaf" stroke="black" points="286.5,-19 196.5,-19 196.5,0 286.5,0 286.5,-19"/>
<text text-anchor="middle" x="241.5" y="-7" font-family="Helvetica,sans-Serif" font-size="10.00">EthernetSwitch</text>
</a>
</g>
</g>
<!-- IPv4MediumLAN&#45;&gt;EthernetSwitch -->
<g id="edge3" class="edge">
<title>IPv4MediumLAN&#45;&gt;EthernetSwitch</title>
<path fill="none" stroke="black" d="M284.08,-54.75C276.73,-47.11 265.87,-35.82 256.96,-26.56"/>
<polygon fill="black" stroke="black" points="259.22,-23.87 249.76,-19.09 254.18,-28.72 259.22,-23.87"/>
</g>
<!-- IdealChannel -->
<g id="node5" class="node">
<title>IdealChannel</title>
<g id="a_node5"><a xlink:href="ned.IdealChannel.html" xlink:title="Channel IdealChannel" target="_parent">
<polygon fill="#d0ffd0" stroke="black" points="384.5,-19 304.5,-19 304.5,0 384.5,0 384.5,-19"/>
<text text-anchor="middle" x="344.5" y="-7" font-family="Helvetica,sans-Serif" font-size="10.00">IdealChannel</text>
</a>
</g>
</g>
<!-- IPv4MediumLAN&#45;&gt;IdealChannel -->
<g id="edge4" class="edge">
<title>IPv4MediumLAN&#45;&gt;IdealChannel</title>
<path fill="none" stroke="black" d="M301.09,-54.75C308.66,-47.03 319.88,-35.6 329.01,-26.28"/>
<polygon fill="black" stroke="black" points="331.57,-28.68 336.07,-19.09 326.57,-23.78 331.57,-28.68"/>
</g>
<!-- Router -->
<g id="node6" class="node">
<title>Router</title>
<g id="a_node6"><a xlink:href="inet.node.inet.Router.html" xlink:title="Compound Module Router" target="_parent">
<polygon fill="#fffcaf" stroke="black" points="456.5,-19 402.5,-19 402.5,0 456.5,0 456.5,-19"/>
<text text-anchor="middle" x="429.5" y="-7" font-family="Helvetica,sans-Serif" font-size="10.00">Router</text>
</a>
</g>
</g>
<!-- IPv4MediumLAN&#45;&gt;Router -->
<g id="edge5" class="edge">
<title>IPv4MediumLAN&#45;&gt;Router</title>
<path fill="none" stroke="black" d="M314.51,-54.98C336.95,-46.3 371.98,-32.75 397.49,-22.88"/>
<polygon fill="black" stroke="black" points="399.02,-26.04 407.09,-19.17 396.5,-19.51 399.02,-26.04"/>
</g>
<!-- cable -->
<g id="node7" class="node">
<title>cable</title>
<g id="a_node7"><a xlink:href="inet.examples.inet.ipv4largenet.cable.html" xlink:title="Channel cable" target="_parent">
<polygon fill="#d0ffd0" stroke="black" points="528.5,-19 474.5,-19 474.5,0 528.5,0 528.5,-19"/>
<text text-anchor="middle" x="501.5" y="-7" font-family="Helvetica,sans-Serif" font-size="10.00">cable</text>
</a>
</g>
</g>
<!-- IPv4MediumLAN&#45;&gt;cable -->
<g id="edge6" class="edge">
<title>IPv4MediumLAN&#45;&gt;cable</title>
<path fill="none" stroke="black" d="M326.08,-54.98C363.97,-45.37 425.43,-29.79 464.63,-19.85"/>
<polygon fill="black" stroke="black" points="465.5,-23.24 474.33,-17.39 463.78,-16.46 465.5,-23.24"/>
</g>
<!-- IPv4LargeNet -->
<g id="node8" class="node">
<title>IPv4LargeNet</title>
<g id="a_node8"><a xlink:href="inet.examples.inet.ipv4largenet.IPv4LargeNet.html" xlink:title="Network IPv4LargeNet" target="_parent">
<polygon fill="#d0d0ff" stroke="black" points="333.5,-129 251.5,-129 251.5,-110 333.5,-110 333.5,-129"/>
<text text-anchor="middle" x="292.5" y="-117" font-family="Helvetica,sans-Serif" font-size="10.00">IPv4LargeNet</text>
</a>
</g>
</g>
<!-- IPv4LargeNet&#45;&gt;IPv4MediumLAN -->
<g id="edge7" class="edge">
<title>IPv4LargeNet&#45;&gt;IPv4MediumLAN</title>
<path fill="none" stroke="black" d="M292.5,-109.75C292.5,-102.8 292.5,-92.85 292.5,-84.13"/>
<polygon fill="black" stroke="black" points="296,-84.09 292.5,-74.09 289,-84.09 296,-84.09"/>
</g>
</g>
</svg>
