<?xml version="1.0" encoding="UTF-8" standalone="no"?>
<!DOCTYPE svg PUBLIC "-//W3C//DTD SVG 1.1//EN"
 "http://www.w3.org/Graphics/SVG/1.1/DTD/svg11.dtd">
<!-- Generated by graphviz version 2.43.0 (0)
 -->
<!-- Title: opp Pages: 1 -->
<svg width="632pt" height="82pt"
 viewBox="0.00 0.00 631.50 82.00" xmlns="http://www.w3.org/2000/svg" xmlns:xlink="http://www.w3.org/1999/xlink">
<g id="graph0" class="graph" transform="scale(1 1) rotate(0) translate(4 78)">
<title>opp</title>
<polygon fill="transparent" stroke="transparent" points="-4,4 -4,-78 627.5,-78 627.5,4 -4,4"/>
<!-- LargeNet -->
<g id="node1" class="node">
<title>LargeNet</title>
<g id="a_node1"><a xlink:href="inet.examples.ethernet.lans.LargeNet.html" xlink:title="Network LargeNet" target="_parent">
<polygon fill="#9090ff" stroke="black" points="358,-74 297,-74 297,-55 358,-55 358,-74"/>
<text text-anchor="middle" x="327.5" y="-62" font-family="Helvetica,sans-Serif" font-size="10.00">LargeNet</text>
</a>
</g>
</g>
<!-- MediumLAN -->
<g id="node2" class="node">
<title>MediumLAN</title>
<g id="a_node2"><a xlink:href="inet.examples.ethernet.lans.MediumLAN.html" xlink:title="Compound Module MediumLAN" target="_parent">
<polygon fill="#fffcaf" stroke="black" points="77,-19 0,-19 0,0 77,0 77,-19"/>
<text text-anchor="middle" x="38.5" y="-7" font-family="Helvetica,sans-Serif" font-size="10.00">MediumLAN</text>
</a>
</g>
</g>
<!-- LargeNet&#45;&gt;MediumLAN -->
<g id="edge1" class="edge">
<title>LargeNet&#45;&gt;MediumLAN</title>
<path fill="none" stroke="black" d="M296.85,-57.88C246.72,-48.69 146.83,-30.37 87.01,-19.4"/>
<polygon fill="black" stroke="black" points="87.51,-15.93 77.05,-17.57 86.25,-22.82 87.51,-15.93"/>
</g>
<!-- EthernetSwitch -->
<g id="node3" class="node">
<title>EthernetSwitch</title>
<g id="a_node3"><a xlink:href="inet.node.ethernet.EthernetSwitch.html" xlink:title="Compound Module EthernetSwitch" target="_parent">
<polygon fill="#fffcaf" stroke="black" points="185.5,-19 95.5,-19 95.5,0 185.5,0 185.5,-19"/>
<text text-anchor="middle" x="140.5" y="-7" font-family="Helvetica,sans-Serif" font-size="10.00">EthernetSwitch</text>
</a>
</g>
</g>
<!-- LargeNet&#45;&gt;EthernetSwitch -->
<g id="edge2" class="edge">
<title>LargeNet&#45;&gt;EthernetSwitch</title>
<path fill="none" stroke="black" d="M297.46,-54.98C265.79,-46.01 215.73,-31.82 180.69,-21.89"/>
<polygon fill="black" stroke="black" points="181.36,-18.44 170.78,-19.08 179.45,-25.18 181.36,-18.44"/>
</g>
<!-- LargeLAN -->
<g id="node4" class="node">
<title>LargeLAN</title>
<g id="a_node4"><a xlink:href="inet.examples.ethernet.lans.LargeLAN.html" xlink:title="Compound Module LargeLAN" target="_parent">
<polygon fill="#fffcaf" stroke="black" points="267.5,-19 203.5,-19 203.5,0 267.5,0 267.5,-19"/>
<text text-anchor="middle" x="235.5" y="-7" font-family="Helvetica,sans-Serif" font-size="10.00">LargeLAN</text>
</a>
</g>
</g>
<!-- LargeNet&#45;&gt;LargeLAN -->
<g id="edge3" class="edge">
<title>LargeNet&#45;&gt;LargeLAN</title>
<path fill="none" stroke="black" d="M312.72,-54.98C298.32,-46.69 276.19,-33.94 259.31,-24.22"/>
<polygon fill="black" stroke="black" points="260.96,-21.13 250.55,-19.17 257.47,-27.19 260.96,-21.13"/>
</g>
<!-- cabletoserver -->
<g id="node5" class="node">
<title>cabletoserver</title>
<g id="a_node5"><a xlink:href="inet.examples.ethernet.lans.LargeNet.cabletoserver.html" xlink:title="Channel cabletoserver" target="_parent">
<polygon fill="#d0ffd0" stroke="black" points="369,-19 286,-19 286,0 369,0 369,-19"/>
<text text-anchor="middle" x="327.5" y="-7" font-family="Helvetica,sans-Serif" font-size="10.00">cabletoserver</text>
</a>
</g>
</g>
<!-- LargeNet&#45;&gt;cabletoserver -->
<g id="edge4" class="edge">
<title>LargeNet&#45;&gt;cabletoserver</title>
<path fill="none" stroke="black" d="M327.5,-54.75C327.5,-47.8 327.5,-37.85 327.5,-29.13"/>
<polygon fill="black" stroke="black" points="331,-29.09 327.5,-19.09 324,-29.09 331,-29.09"/>
</g>
<!-- cable -->
<g id="node6" class="node">
<title>cable</title>
<g id="a_node6"><a xlink:href="inet.examples.ethernet.lans.cable.html" xlink:title="Channel cable" target="_parent">
<polygon fill="#d0ffd0" stroke="black" points="441.5,-19 387.5,-19 387.5,0 441.5,0 441.5,-19"/>
<text text-anchor="middle" x="414.5" y="-7" font-family="Helvetica,sans-Serif" font-size="10.00">cable</text>
</a>
</g>
</g>
<!-- LargeNet&#45;&gt;cable -->
<g id="edge5" class="edge">
<title>LargeNet&#45;&gt;cable</title>
<path fill="none" stroke="black" d="M341.48,-54.98C354.97,-46.77 375.63,-34.18 391.54,-24.49"/>
<polygon fill="black" stroke="black" points="393.55,-27.36 400.27,-19.17 389.91,-21.38 393.55,-27.36"/>
</g>
<!-- SmallLAN -->
<g id="node7" class="node">
<title>SmallLAN</title>
<g id="a_node7"><a xlink:href="inet.examples.ethernet.lans.SmallLAN.html" xlink:title="Compound Module SmallLAN" target="_parent">
<polygon fill="#fffcaf" stroke="black" points="525,-19 460,-19 460,0 525,0 525,-19"/>
<text text-anchor="middle" x="492.5" y="-7" font-family="Helvetica,sans-Serif" font-size="10.00">SmallLAN</text>
</a>
</g>
</g>
<!-- LargeNet&#45;&gt;SmallLAN -->
<g id="edge6" class="edge">
<title>LargeNet&#45;&gt;SmallLAN</title>
<path fill="none" stroke="black" d="M354.01,-54.98C381.71,-46.09 425.36,-32.07 456.24,-22.15"/>
<polygon fill="black" stroke="black" points="457.33,-25.47 465.78,-19.08 455.19,-18.81 457.33,-25.47"/>
</g>
<!-- EthernetHost -->
<g id="node8" class="node">
<title>EthernetHost</title>
<g id="a_node8"><a xlink:href="inet.node.ethernet.EthernetHost.html" xlink:title="Compound Module EthernetHost" target="_parent">
<polygon fill="#fffcaf" stroke="black" points="623.5,-19 543.5,-19 543.5,0 623.5,0 623.5,-19"/>
<text text-anchor="middle" x="583.5" y="-7" font-family="Helvetica,sans-Serif" font-size="10.00">EthernetHost</text>
</a>
</g>
</g>
<!-- LargeNet&#45;&gt;EthernetHost -->
<g id="edge7" class="edge">
<title>LargeNet&#45;&gt;EthernetHost</title>
<path fill="none" stroke="black" d="M358.13,-57.16C401.42,-48.2 481.05,-31.71 533.13,-20.93"/>
<polygon fill="black" stroke="black" points="534.08,-24.31 543.16,-18.85 532.66,-17.45 534.08,-24.31"/>
</g>
</g>
</svg>
