<?xml version="1.0" encoding="UTF-8" standalone="no"?>
<!DOCTYPE svg PUBLIC "-//W3C//DTD SVG 1.1//EN"
 "http://www.w3.org/Graphics/SVG/1.1/DTD/svg11.dtd">
<!-- Generated by graphviz version 2.43.0 (0)
 -->
<!-- Title: opp Pages: 1 -->
<svg width="710pt" height="82pt"
 viewBox="0.00 0.00 710.00 82.00" xmlns="http://www.w3.org/2000/svg" xmlns:xlink="http://www.w3.org/1999/xlink">
<g id="graph0" class="graph" transform="scale(1 1) rotate(0) translate(4 78)">
<title>opp</title>
<polygon fill="transparent" stroke="transparent" points="-4,4 -4,-78 706,-78 706,4 -4,4"/>
<!-- EthernetLayer -->
<g id="node1" class="node">
<title>EthernetLayer</title>
<g id="a_node1"><a xlink:href="inet.linklayer.ethernet.modular.EthernetLayer.html" xlink:title="Compound Module EthernetLayer" target="_parent">
<polygon fill="#fff700" stroke="black" points="409.5,-74 324.5,-74 324.5,-55 409.5,-55 409.5,-74"/>
<text text-anchor="middle" x="367" y="-62" font-family="Helvetica,sans-Serif" font-size="10.00">EthernetLayer</text>
</a>
</g>
</g>
<!-- IProtocolHeaderInserter -->
<g id="node2" class="node">
<title>IProtocolHeaderInserter</title>
<g id="a_node2"><a xlink:href="inet.protocolelement.contract.IProtocolHeaderInserter.html" xlink:title="Module Interface IProtocolHeaderInserter" target="_parent">
<polygon fill="#fffcaf" stroke="black" stroke-dasharray="5,2" points="132,-19 0,-19 0,0 132,0 132,-19"/>
<text text-anchor="middle" x="66" y="-7" font-family="Helvetica,sans-Serif" font-size="10.00">IProtocolHeaderInserter</text>
</a>
</g>
</g>
<!-- EthernetLayer&#45;&gt;IProtocolHeaderInserter -->
<g id="edge1" class="edge">
<title>EthernetLayer&#45;&gt;IProtocolHeaderInserter</title>
<path fill="none" stroke="black" d="M324.19,-55.96C271.8,-46.74 182.83,-31.07 124.24,-20.75"/>
<polygon fill="black" stroke="black" points="124.84,-17.31 114.39,-19.02 123.63,-24.2 124.84,-17.31"/>
</g>
<!-- EthernetSocketTable -->
<g id="node3" class="node">
<title>EthernetSocketTable</title>
<g id="a_node3"><a xlink:href="inet.linklayer.ethernet.modular.EthernetSocketTable.html" xlink:title="Simple Module EthernetSocketTable" target="_parent">
<polygon fill="#fffcaf" stroke="black" points="266,-19 150,-19 150,0 266,0 266,-19"/>
<text text-anchor="middle" x="208" y="-7" font-family="Helvetica,sans-Serif" font-size="10.00">EthernetSocketTable</text>
</a>
</g>
</g>
<!-- EthernetLayer&#45;&gt;EthernetSocketTable -->
<g id="edge2" class="edge">
<title>EthernetLayer&#45;&gt;EthernetSocketTable</title>
<path fill="none" stroke="black" d="M341.45,-54.98C314.88,-46.13 273.06,-32.19 243.33,-22.28"/>
<polygon fill="black" stroke="black" points="244.34,-18.92 233.75,-19.08 242.13,-25.56 244.34,-18.92"/>
</g>
<!-- IPacketFlow -->
<g id="node4" class="node">
<title>IPacketFlow</title>
<g id="a_node4"><a xlink:href="inet.queueing.contract.IPacketFlow.html" xlink:title="Module Interface IPacketFlow" target="_parent">
<polygon fill="#fffcaf" stroke="black" stroke-dasharray="5,2" points="358,-19 284,-19 284,0 358,0 358,-19"/>
<text text-anchor="middle" x="321" y="-7" font-family="Helvetica,sans-Serif" font-size="10.00">IPacketFlow</text>
</a>
</g>
</g>
<!-- EthernetLayer&#45;&gt;IPacketFlow -->
<g id="edge3" class="edge">
<title>EthernetLayer&#45;&gt;IPacketFlow</title>
<path fill="none" stroke="black" d="M359.4,-54.75C352.84,-47.18 343.18,-36.05 335.19,-26.84"/>
<polygon fill="black" stroke="black" points="337.65,-24.35 328.45,-19.09 332.37,-28.94 337.65,-24.35"/>
</g>
<!-- IPacketFilter -->
<g id="node5" class="node">
<title>IPacketFilter</title>
<g id="a_node5"><a xlink:href="inet.queueing.contract.IPacketFilter.html" xlink:title="Module Interface IPacketFilter" target="_parent">
<polygon fill="#fffcaf" stroke="black" stroke-dasharray="5,2" points="452,-19 376,-19 376,0 452,0 452,-19"/>
<text text-anchor="middle" x="414" y="-7" font-family="Helvetica,sans-Serif" font-size="10.00">IPacketFilter</text>
</a>
</g>
</g>
<!-- EthernetLayer&#45;&gt;IPacketFilter -->
<g id="edge4" class="edge">
<title>EthernetLayer&#45;&gt;IPacketFilter</title>
<path fill="none" stroke="black" d="M374.76,-54.75C381.47,-47.18 391.34,-36.05 399.51,-26.84"/>
<polygon fill="black" stroke="black" points="402.37,-28.89 406.38,-19.09 397.13,-24.25 402.37,-28.89"/>
</g>
<!-- IdealChannel -->
<g id="node6" class="node">
<title>IdealChannel</title>
<g id="a_node6"><a xlink:href="ned.IdealChannel.html" xlink:title="Channel IdealChannel" target="_parent">
<polygon fill="#d0ffd0" stroke="black" points="550,-19 470,-19 470,0 550,0 550,-19"/>
<text text-anchor="middle" x="510" y="-7" font-family="Helvetica,sans-Serif" font-size="10.00">IdealChannel</text>
</a>
</g>
</g>
<!-- EthernetLayer&#45;&gt;IdealChannel -->
<g id="edge5" class="edge">
<title>EthernetLayer&#45;&gt;IdealChannel</title>
<path fill="none" stroke="black" d="M389.98,-54.98C413.5,-46.27 450.29,-32.63 476.94,-22.75"/>
<polygon fill="black" stroke="black" points="478.45,-25.93 486.61,-19.17 476.01,-19.36 478.45,-25.93"/>
</g>
<!-- IProtocolHeaderChecker -->
<g id="node7" class="node">
<title>IProtocolHeaderChecker</title>
<g id="a_node7"><a xlink:href="inet.protocolelement.contract.IProtocolHeaderChecker.html" xlink:title="Module Interface IProtocolHeaderChecker" target="_parent">
<polygon fill="#fffcaf" stroke="black" stroke-dasharray="5,2" points="702,-19 568,-19 568,0 702,0 702,-19"/>
<text text-anchor="middle" x="635" y="-7" font-family="Helvetica,sans-Serif" font-size="10.00">IProtocolHeaderChecker</text>
</a>
</g>
</g>
<!-- EthernetLayer&#45;&gt;IProtocolHeaderChecker -->
<g id="edge6" class="edge">
<title>EthernetLayer&#45;&gt;IProtocolHeaderChecker</title>
<path fill="none" stroke="black" d="M409.76,-55.04C456.49,-45.8 531.42,-30.99 581.88,-21"/>
<polygon fill="black" stroke="black" points="582.82,-24.39 591.95,-19.01 581.46,-17.52 582.82,-24.39"/>
</g>
</g>
</svg>
