<?xml version="1.0" encoding="UTF-8" standalone="no"?>
<!DOCTYPE svg PUBLIC "-//W3C//DTD SVG 1.1//EN"
 "http://www.w3.org/Graphics/SVG/1.1/DTD/svg11.dtd">
<!-- Generated by graphviz version 2.43.0 (0)
 -->
<!-- Title: opp Pages: 1 -->
<svg width="731pt" height="82pt"
 viewBox="0.00 0.00 731.00 82.00" xmlns="http://www.w3.org/2000/svg" xmlns:xlink="http://www.w3.org/1999/xlink">
<g id="graph0" class="graph" transform="scale(1 1) rotate(0) translate(4 78)">
<title>opp</title>
<polygon fill="transparent" stroke="transparent" points="-4,4 -4,-78 727,-78 727,4 -4,4"/>
<!-- IRTPPayloadReceiver -->
<g id="node1" class="node">
<title>IRTPPayloadReceiver</title>
<g id="a_node1"><a xlink:href="inet.transportlayer.rtp.IRTPPayloadReceiver.html" xlink:title="Module Interface IRTPPayloadReceiver" target="_parent">
<polygon fill="#fff700" stroke="black" stroke-dasharray="5,2" points="437.5,-74 318.5,-74 318.5,-55 437.5,-55 437.5,-74"/>
<text text-anchor="middle" x="378" y="-62" font-family="Helvetica,sans-Serif" font-size="10.00">IRTPPayloadReceiver</text>
</a>
</g>
</g>
<!-- RTPAVProfilePayload10Receiver -->
<g id="node2" class="node">
<title>RTPAVProfilePayload10Receiver</title>
<g id="a_node2"><a xlink:href="inet.transportlayer.rtp.RTPAVProfilePayload10Receiver.html" xlink:title="Simple Module RTPAVProfilePayload10Receiver" target="_parent">
<polygon fill="#fffcaf" stroke="black" points="170,-19 0,-19 0,0 170,0 170,-19"/>
<text text-anchor="middle" x="85" y="-7" font-family="Helvetica,sans-Serif" font-size="10.00">RTPAVProfilePayload10Receiver</text>
</a>
</g>
</g>
<!-- IRTPPayloadReceiver&#45;&gt;RTPAVProfilePayload10Receiver -->
<g id="edge1" class="edge">
<title>IRTPPayloadReceiver&#45;&gt;RTPAVProfilePayload10Receiver</title>
<path fill="none" stroke="black" stroke-dasharray="5,2" d="M330.92,-54.98C276.41,-45.12 187.12,-28.97 132.44,-19.08"/>
</g>
<!-- RtpAvProfilePayload32Receiver -->
<g id="node3" class="node">
<title>RtpAvProfilePayload32Receiver</title>
<g id="a_node3"><a xlink:href="inet.transportlayer.rtp.RtpAvProfilePayload32Receiver.html" xlink:title="Simple Module RtpAvProfilePayload32Receiver" target="_parent">
<polygon fill="#fffcaf" stroke="black" points="357.5,-19 188.5,-19 188.5,0 357.5,0 357.5,-19"/>
<text text-anchor="middle" x="273" y="-7" font-family="Helvetica,sans-Serif" font-size="10.00">RtpAvProfilePayload32Receiver</text>
</a>
</g>
</g>
<!-- IRTPPayloadReceiver&#45;&gt;RtpAvProfilePayload32Receiver -->
<g id="edge2" class="edge">
<title>IRTPPayloadReceiver&#45;&gt;RtpAvProfilePayload32Receiver</title>
<path fill="none" stroke="black" stroke-dasharray="5,2" d="M361.13,-54.98C341.65,-45.15 309.78,-29.07 290.18,-19.17"/>
</g>
<!-- RTPAVProfileSampleBasedAudioReceiver -->
<g id="node4" class="node">
<title>RTPAVProfileSampleBasedAudioReceiver</title>
<g id="a_node4"><a xlink:href="inet.transportlayer.rtp.RTPAVProfileSampleBasedAudioReceiver.html" xlink:title="Simple Module RTPAVProfileSampleBasedAudioReceiver" target="_parent">
<polygon fill="#fffcaf" stroke="black" points="590.5,-19 375.5,-19 375.5,0 590.5,0 590.5,-19"/>
<text text-anchor="middle" x="483" y="-7" font-family="Helvetica,sans-Serif" font-size="10.00">RTPAVProfileSampleBasedAudioReceiver</text>
</a>
</g>
</g>
<!-- IRTPPayloadReceiver&#45;&gt;RTPAVProfileSampleBasedAudioReceiver -->
<g id="edge3" class="edge">
<title>IRTPPayloadReceiver&#45;&gt;RTPAVProfileSampleBasedAudioReceiver</title>
<path fill="none" stroke="black" stroke-dasharray="5,2" d="M394.87,-54.98C414.35,-45.15 446.22,-29.07 465.82,-19.17"/>
</g>
<!-- RtpPayloadReceiver -->
<g id="node5" class="node">
<title>RtpPayloadReceiver</title>
<g id="a_node5"><a xlink:href="inet.transportlayer.rtp.RtpPayloadReceiver.html" xlink:title="Simple Module RtpPayloadReceiver" target="_parent">
<polygon fill="#fffcaf" stroke="black" points="723,-19 609,-19 609,0 723,0 723,-19"/>
<text text-anchor="middle" x="666" y="-7" font-family="Helvetica,sans-Serif" font-size="10.00">RtpPayloadReceiver</text>
</a>
</g>
</g>
<!-- IRTPPayloadReceiver&#45;&gt;RtpPayloadReceiver -->
<g id="edge4" class="edge">
<title>IRTPPayloadReceiver&#45;&gt;RtpPayloadReceiver</title>
<path fill="none" stroke="black" stroke-dasharray="5,2" d="M424.27,-54.98C477.86,-45.12 565.63,-28.97 619.37,-19.08"/>
</g>
</g>
</svg>
