<?xml version="1.0" encoding="UTF-8" standalone="no"?>
<!DOCTYPE svg PUBLIC "-//W3C//DTD SVG 1.1//EN"
 "http://www.w3.org/Graphics/SVG/1.1/DTD/svg11.dtd">
<!-- Generated by graphviz version 2.43.0 (0)
 -->
<!-- Title: opp Pages: 1 -->
<svg width="288pt" height="82pt"
 viewBox="0.00 0.00 288.00 82.00" xmlns="http://www.w3.org/2000/svg" xmlns:xlink="http://www.w3.org/1999/xlink">
<g id="graph0" class="graph" transform="scale(1 1) rotate(0) translate(4 78)">
<title>opp</title>
<polygon fill="transparent" stroke="transparent" points="-4,4 -4,-78 284,-78 284,4 -4,4"/>
<!-- IEthernetPhyLayer -->
<g id="node1" class="node">
<title>IEthernetPhyLayer</title>
<g id="a_node1"><a xlink:href="inet.physicallayer.wired.ethernet.IEthernetPhyLayer.html" xlink:title="Module Interface IEthernetPhyLayer" target="_parent">
<polygon fill="#fff700" stroke="black" stroke-dasharray="5,2" points="178.5,-74 72.5,-74 72.5,-55 178.5,-55 178.5,-74"/>
<text text-anchor="middle" x="125.5" y="-62" font-family="Helvetica,sans-Serif" font-size="10.00">IEthernetPhyLayer</text>
</a>
</g>
</g>
<!-- EthernetPhyLayer -->
<g id="node2" class="node">
<title>EthernetPhyLayer</title>
<g id="a_node2"><a xlink:href="inet.physicallayer.wired.ethernet.EthernetPhyLayer.html" xlink:title="Compound Module EthernetPhyLayer" target="_parent">
<polygon fill="#fffcaf" stroke="black" points="103,-19 0,-19 0,0 103,0 103,-19"/>
<text text-anchor="middle" x="51.5" y="-7" font-family="Helvetica,sans-Serif" font-size="10.00">EthernetPhyLayer</text>
</a>
</g>
</g>
<!-- IEthernetPhyLayer&#45;&gt;EthernetPhyLayer -->
<g id="edge1" class="edge">
<title>IEthernetPhyLayer&#45;&gt;EthernetPhyLayer</title>
<path fill="none" stroke="black" stroke-dasharray="5,2" d="M113.61,-54.98C99.88,-45.15 77.42,-29.07 63.61,-19.17"/>
</g>
<!-- EthernetPreemptingPhyLayer -->
<g id="node3" class="node">
<title>EthernetPreemptingPhyLayer</title>
<g id="a_node3"><a xlink:href="inet.physicallayer.wired.ethernet.EthernetPreemptingPhyLayer.html" xlink:title="Compound Module EthernetPreemptingPhyLayer" target="_parent">
<polygon fill="#fffcaf" stroke="black" points="280,-19 121,-19 121,0 280,0 280,-19"/>
<text text-anchor="middle" x="200.5" y="-7" font-family="Helvetica,sans-Serif" font-size="10.00">EthernetPreemptingPhyLayer</text>
</a>
</g>
</g>
<!-- IEthernetPhyLayer&#45;&gt;EthernetPreemptingPhyLayer -->
<g id="edge2" class="edge">
<title>IEthernetPhyLayer&#45;&gt;EthernetPreemptingPhyLayer</title>
<path fill="none" stroke="black" stroke-dasharray="5,2" d="M137.55,-54.98C151.46,-45.15 174.23,-29.07 188.23,-19.17"/>
</g>
</g>
</svg>
