<?xml version="1.0" encoding="UTF-8" standalone="no"?>
<!DOCTYPE svg PUBLIC "-//W3C//DTD SVG 1.1//EN"
 "http://www.w3.org/Graphics/SVG/1.1/DTD/svg11.dtd">
<!-- Generated by graphviz version 2.43.0 (0)
 -->
<!-- Title: opp Pages: 1 -->
<svg width="202pt" height="137pt"
 viewBox="0.00 0.00 202.00 137.00" xmlns="http://www.w3.org/2000/svg" xmlns:xlink="http://www.w3.org/1999/xlink">
<g id="graph0" class="graph" transform="scale(1 1) rotate(0) translate(4 133)">
<title>opp</title>
<polygon fill="transparent" stroke="transparent" points="-4,4 -4,-133 198,-133 198,4 -4,4"/>
<!-- DropTailQueue -->
<g id="node1" class="node">
<title>DropTailQueue</title>
<g id="a_node1"><a xlink:href="inet.queueing.queue.DropTailQueue.html" xlink:title="Simple Module DropTailQueue" target="_parent">
<polygon fill="#fff700" stroke="black" points="141.5,-74 53.5,-74 53.5,-55 141.5,-55 141.5,-74"/>
<text text-anchor="middle" x="97.5" y="-62" font-family="Helvetica,sans-Serif" font-size="10.00">DropTailQueue</text>
</a>
</g>
</g>
<!-- EthernetQueue -->
<g id="node3" class="node">
<title>EthernetQueue</title>
<g id="a_node3"><a xlink:href="inet.linklayer.ethernet.common.EthernetQueue.html" xlink:title="Compound Module EthernetQueue" target="_parent">
<polygon fill="#fffcaf" stroke="black" points="89,-19 0,-19 0,0 89,0 89,-19"/>
<text text-anchor="middle" x="44.5" y="-7" font-family="Helvetica,sans-Serif" font-size="10.00">EthernetQueue</text>
</a>
</g>
</g>
<!-- DropTailQueue&#45;&gt;EthernetQueue -->
<g id="edge2" class="edge">
<title>DropTailQueue&#45;&gt;EthernetQueue</title>
<path fill="none" stroke="black" d="M88.75,-54.75C78.87,-44.87 62.9,-28.9 53.09,-19.09"/>
</g>
<!-- PendingQueue -->
<g id="node4" class="node">
<title>PendingQueue</title>
<g id="a_node4"><a xlink:href="inet.linklayer.ieee80211.mac.queue.PendingQueue.html" xlink:title="Simple Module PendingQueue" target="_parent">
<polygon fill="#fffcaf" stroke="black" points="194,-19 107,-19 107,0 194,0 194,-19"/>
<text text-anchor="middle" x="150.5" y="-7" font-family="Helvetica,sans-Serif" font-size="10.00">PendingQueue</text>
</a>
</g>
</g>
<!-- DropTailQueue&#45;&gt;PendingQueue -->
<g id="edge3" class="edge">
<title>DropTailQueue&#45;&gt;PendingQueue</title>
<path fill="none" stroke="black" d="M106.25,-54.75C116.13,-44.87 132.1,-28.9 141.91,-19.09"/>
</g>
<!-- PacketQueue -->
<g id="node2" class="node">
<title>PacketQueue</title>
<g id="a_node2"><a xlink:href="inet.queueing.queue.PacketQueue.html" xlink:title="Simple Module PacketQueue" target="_parent">
<polygon fill="#fffcaf" stroke="black" points="137.5,-129 57.5,-129 57.5,-110 137.5,-110 137.5,-129"/>
<text text-anchor="middle" x="97.5" y="-117" font-family="Helvetica,sans-Serif" font-size="10.00">PacketQueue</text>
</a>
</g>
</g>
<!-- PacketQueue&#45;&gt;DropTailQueue -->
<g id="edge1" class="edge">
<title>PacketQueue&#45;&gt;DropTailQueue</title>
<path fill="none" stroke="black" d="M97.5,-109.75C97.5,-99.87 97.5,-83.9 97.5,-74.09"/>
</g>
</g>
</svg>
