<?xml version="1.0" encoding="UTF-8" standalone="no"?>
<!DOCTYPE svg PUBLIC "-//W3C//DTD SVG 1.1//EN"
 "http://www.w3.org/Graphics/SVG/1.1/DTD/svg11.dtd">
<!-- Generated by graphviz version 2.43.0 (0)
 -->
<!-- Title: opp Pages: 1 -->
<svg width="587pt" height="137pt"
 viewBox="0.00 0.00 587.00 137.00" xmlns="http://www.w3.org/2000/svg" xmlns:xlink="http://www.w3.org/1999/xlink">
<g id="graph0" class="graph" transform="scale(1 1) rotate(0) translate(4 133)">
<title>opp</title>
<polygon fill="transparent" stroke="transparent" points="-4,4 -4,-133 583,-133 583,4 -4,4"/>
<!-- PeerService -->
<g id="node1" class="node">
<title>PeerService</title>
<g id="a_node1"><a xlink:href="inet.protocolelement.service.PeerService.html" xlink:title="Compound Module PeerService" target="_parent">
<polygon fill="#fff700" stroke="black" points="366.5,-74 292.5,-74 292.5,-55 366.5,-55 366.5,-74"/>
<text text-anchor="middle" x="329.5" y="-62" font-family="Helvetica,sans-Serif" font-size="10.00">PeerService</text>
</a>
</g>
</g>
<!-- DynamicClassifier -->
<g id="node2" class="node">
<title>DynamicClassifier</title>
<g id="a_node2"><a xlink:href="inet.queueing.classifier.DynamicClassifier.html" xlink:title="Simple Module DynamicClassifier" target="_parent">
<polygon fill="#fffcaf" stroke="black" points="105,-19 0,-19 0,0 105,0 105,-19"/>
<text text-anchor="middle" x="52.5" y="-7" font-family="Helvetica,sans-Serif" font-size="10.00">DynamicClassifier</text>
</a>
</g>
</g>
<!-- PeerService&#45;&gt;DynamicClassifier -->
<g id="edge1" class="edge">
<title>PeerService&#45;&gt;DynamicClassifier</title>
<path fill="none" stroke="black" d="M292.43,-56.41C244.83,-47.3 161.84,-31.42 107.03,-20.93"/>
<polygon fill="black" stroke="black" points="107.62,-17.48 97.14,-19.04 106.3,-24.36 107.62,-17.48"/>
</g>
<!-- FragmentNumberHeaderBasedDefragmenter -->
<g id="node3" class="node">
<title>FragmentNumberHeaderBasedDefragmenter</title>
<g id="a_node3"><a xlink:href="inet.protocolelement.fragmentation.FragmentNumberHeaderBasedDefragmenter.html" xlink:title="Simple Module FragmentNumberHeaderBasedDefragmenter" target="_parent">
<polygon fill="#fffcaf" stroke="black" points="359.5,-19 123.5,-19 123.5,0 359.5,0 359.5,-19"/>
<text text-anchor="middle" x="241.5" y="-7" font-family="Helvetica,sans-Serif" font-size="10.00">FragmentNumberHeaderBasedDefragmenter</text>
</a>
</g>
</g>
<!-- PeerService&#45;&gt;FragmentNumberHeaderBasedDefragmenter -->
<g id="edge2" class="edge">
<title>PeerService&#45;&gt;FragmentNumberHeaderBasedDefragmenter</title>
<path fill="none" stroke="black" d="M315.36,-54.98C301.71,-46.77 280.81,-34.18 264.72,-24.49"/>
<polygon fill="black" stroke="black" points="266.27,-21.33 255.9,-19.17 262.66,-27.33 266.27,-21.33"/>
</g>
<!-- IdealChannel -->
<g id="node4" class="node">
<title>IdealChannel</title>
<g id="a_node4"><a xlink:href="ned.IdealChannel.html" xlink:title="Channel IdealChannel" target="_parent">
<polygon fill="#d0ffd0" stroke="black" points="457.5,-19 377.5,-19 377.5,0 457.5,0 457.5,-19"/>
<text text-anchor="middle" x="417.5" y="-7" font-family="Helvetica,sans-Serif" font-size="10.00">IdealChannel</text>
</a>
</g>
</g>
<!-- PeerService&#45;&gt;IdealChannel -->
<g id="edge3" class="edge">
<title>PeerService&#45;&gt;IdealChannel</title>
<path fill="none" stroke="black" d="M343.64,-54.98C357.29,-46.77 378.19,-34.18 394.28,-24.49"/>
<polygon fill="black" stroke="black" points="396.34,-27.33 403.1,-19.17 392.73,-21.33 396.34,-27.33"/>
</g>
<!-- PacketMultiplexer -->
<g id="node5" class="node">
<title>PacketMultiplexer</title>
<g id="a_node5"><a xlink:href="inet.queueing.common.PacketMultiplexer.html" xlink:title="Simple Module PacketMultiplexer" target="_parent">
<polygon fill="#fffcaf" stroke="black" points="579,-19 476,-19 476,0 579,0 579,-19"/>
<text text-anchor="middle" x="527.5" y="-7" font-family="Helvetica,sans-Serif" font-size="10.00">PacketMultiplexer</text>
</a>
</g>
</g>
<!-- PeerService&#45;&gt;PacketMultiplexer -->
<g id="edge4" class="edge">
<title>PeerService&#45;&gt;PacketMultiplexer</title>
<path fill="none" stroke="black" d="M361.31,-54.98C394.99,-45.97 448.3,-31.7 485.42,-21.76"/>
<polygon fill="black" stroke="black" points="486.68,-25.05 495.44,-19.08 484.87,-18.29 486.68,-25.05"/>
</g>
<!-- MacService -->
<g id="node6" class="node">
<title>MacService</title>
<g id="a_node6"><a xlink:href="inet.protocolelement.service.MacService.html" xlink:title="Compound Module MacService" target="_parent">
<polygon fill="#fffcaf" stroke="black" points="366,-129 293,-129 293,-110 366,-110 366,-129"/>
<text text-anchor="middle" x="329.5" y="-117" font-family="Helvetica,sans-Serif" font-size="10.00">MacService</text>
</a>
</g>
</g>
<!-- MacService&#45;&gt;PeerService -->
<g id="edge5" class="edge">
<title>MacService&#45;&gt;PeerService</title>
<path fill="none" stroke="black" d="M329.5,-109.75C329.5,-102.8 329.5,-92.85 329.5,-84.13"/>
<polygon fill="black" stroke="black" points="333,-84.09 329.5,-74.09 326,-84.09 333,-84.09"/>
</g>
</g>
</svg>
