<?xml version="1.0" encoding="UTF-8" standalone="no"?>
<!DOCTYPE svg PUBLIC "-//W3C//DTD SVG 1.1//EN"
 "http://www.w3.org/Graphics/SVG/1.1/DTD/svg11.dtd">
<!-- Generated by graphviz version 2.43.0 (0)
 -->
<!-- Title: opp Pages: 1 -->
<svg width="422pt" height="82pt"
 viewBox="0.00 0.00 421.50 82.00" xmlns="http://www.w3.org/2000/svg" xmlns:xlink="http://www.w3.org/1999/xlink">
<g id="graph0" class="graph" transform="scale(1 1) rotate(0) translate(4 78)">
<title>opp</title>
<polygon fill="transparent" stroke="transparent" points="-4,4 -4,-78 417.5,-78 417.5,4 -4,4"/>
<!-- CloudAndHosts -->
<g id="node1" class="node">
<title>CloudAndHosts</title>
<g id="a_node1"><a xlink:href="inet.examples.internetcloud.cloudandhosts.CloudAndHosts.html" xlink:title="Network CloudAndHosts" target="_parent">
<polygon fill="#9090ff" stroke="black" points="252,-74 161,-74 161,-55 252,-55 252,-74"/>
<text text-anchor="middle" x="206.5" y="-62" font-family="Helvetica,sans-Serif" font-size="10.00">CloudAndHosts</text>
</a>
</g>
</g>
<!-- InternetCloud -->
<g id="node2" class="node">
<title>InternetCloud</title>
<g id="a_node2"><a xlink:href="inet.node.internetcloud.InternetCloud.html" xlink:title="Compound Module InternetCloud" target="_parent">
<polygon fill="#fffcaf" stroke="black" points="83,-19 0,-19 0,0 83,0 83,-19"/>
<text text-anchor="middle" x="41.5" y="-7" font-family="Helvetica,sans-Serif" font-size="10.00">InternetCloud</text>
</a>
</g>
</g>
<!-- CloudAndHosts&#45;&gt;InternetCloud -->
<g id="edge1" class="edge">
<title>CloudAndHosts&#45;&gt;InternetCloud</title>
<path fill="none" stroke="black" d="M179.99,-54.98C152.29,-46.09 108.64,-32.07 77.76,-22.15"/>
<polygon fill="black" stroke="black" points="78.81,-18.81 68.22,-19.08 76.67,-25.47 78.81,-18.81"/>
</g>
<!-- StandardHost -->
<g id="node3" class="node">
<title>StandardHost</title>
<g id="a_node3"><a xlink:href="inet.node.inet.StandardHost.html" xlink:title="Compound Module StandardHost" target="_parent">
<polygon fill="#fffcaf" stroke="black" points="184,-19 101,-19 101,0 184,0 184,-19"/>
<text text-anchor="middle" x="142.5" y="-7" font-family="Helvetica,sans-Serif" font-size="10.00">StandardHost</text>
</a>
</g>
</g>
<!-- CloudAndHosts&#45;&gt;StandardHost -->
<g id="edge2" class="edge">
<title>CloudAndHosts&#45;&gt;StandardHost</title>
<path fill="none" stroke="black" d="M196.22,-54.98C186.66,-47.07 172.22,-35.11 160.72,-25.58"/>
<polygon fill="black" stroke="black" points="162.9,-22.85 152.97,-19.17 158.44,-28.24 162.9,-22.85"/>
</g>
<!-- Ipv4NetworkConfigurator -->
<g id="node4" class="node">
<title>Ipv4NetworkConfigurator</title>
<g id="a_node4"><a xlink:href="inet.networklayer.configurator.ipv4.Ipv4NetworkConfigurator.html" xlink:title="Simple Module Ipv4NetworkConfigurator" target="_parent">
<polygon fill="#fffcaf" stroke="black" points="341,-19 202,-19 202,0 341,0 341,-19"/>
<text text-anchor="middle" x="271.5" y="-7" font-family="Helvetica,sans-Serif" font-size="10.00">Ipv4NetworkConfigurator</text>
</a>
</g>
</g>
<!-- CloudAndHosts&#45;&gt;Ipv4NetworkConfigurator -->
<g id="edge3" class="edge">
<title>CloudAndHosts&#45;&gt;Ipv4NetworkConfigurator</title>
<path fill="none" stroke="black" d="M216.94,-54.98C226.65,-47.07 241.32,-35.11 253,-25.58"/>
<polygon fill="black" stroke="black" points="255.33,-28.2 260.87,-19.17 250.9,-22.78 255.33,-28.2"/>
</g>
<!-- C -->
<g id="node5" class="node">
<title>C</title>
<g id="a_node5"><a xlink:href="inet.examples.internetcloud.cloudandhosts.CloudAndHosts.C.html" xlink:title="Channel C" target="_parent">
<polygon fill="#d0ffd0" stroke="black" points="413.5,-19 359.5,-19 359.5,0 413.5,0 413.5,-19"/>
<text text-anchor="middle" x="386.5" y="-7" font-family="Helvetica,sans-Serif" font-size="10.00">C</text>
</a>
</g>
</g>
<!-- CloudAndHosts&#45;&gt;C -->
<g id="edge4" class="edge">
<title>CloudAndHosts&#45;&gt;C</title>
<path fill="none" stroke="black" d="M235.42,-54.98C266.4,-45.86 315.67,-31.36 349.46,-21.41"/>
<polygon fill="black" stroke="black" points="350.81,-24.66 359.42,-18.47 348.84,-17.94 350.81,-24.66"/>
</g>
</g>
</svg>
