<?xml version="1.0" encoding="UTF-8" standalone="no"?>
<!DOCTYPE svg PUBLIC "-//W3C//DTD SVG 1.1//EN"
 "http://www.w3.org/Graphics/SVG/1.1/DTD/svg11.dtd">
<!-- Generated by graphviz version 2.43.0 (0)
 -->
<!-- Title: opp Pages: 1 -->
<svg width="562pt" height="82pt"
 viewBox="0.00 0.00 561.50 82.00" xmlns="http://www.w3.org/2000/svg" xmlns:xlink="http://www.w3.org/1999/xlink">
<g id="graph0" class="graph" transform="scale(1 1) rotate(0) translate(4 78)">
<title>opp</title>
<polygon fill="transparent" stroke="transparent" points="-4,4 -4,-78 557.5,-78 557.5,4 -4,4"/>
<!-- TcpClientApp -->
<g id="node1" class="node">
<title>TcpClientApp</title>
<g id="a_node1"><a xlink:href="inet.applications.tcpapp.TcpClientApp.html" xlink:title="Compound Module TcpClientApp" target="_parent">
<polygon fill="#fff700" stroke="black" points="310.5,-74 230.5,-74 230.5,-55 310.5,-55 310.5,-74"/>
<text text-anchor="middle" x="270.5" y="-62" font-family="Helvetica,sans-Serif" font-size="10.00">TcpClientApp</text>
</a>
</g>
</g>
<!-- IPassivePacketSink -->
<g id="node2" class="node">
<title>IPassivePacketSink</title>
<g id="a_node2"><a xlink:href="inet.queueing.contract.IPassivePacketSink.html" xlink:title="Module Interface IPassivePacketSink" target="_parent">
<polygon fill="#fffcaf" stroke="black" stroke-dasharray="5,2" points="109,-19 0,-19 0,0 109,0 109,-19"/>
<text text-anchor="middle" x="54.5" y="-7" font-family="Helvetica,sans-Serif" font-size="10.00">IPassivePacketSink</text>
</a>
</g>
</g>
<!-- TcpClientApp&#45;&gt;IPassivePacketSink -->
<g id="edge1" class="edge">
<title>TcpClientApp&#45;&gt;IPassivePacketSink</title>
<path fill="none" stroke="black" d="M235.8,-54.98C198.75,-45.89 139.91,-31.46 99.37,-21.51"/>
<polygon fill="black" stroke="black" points="100.02,-18.07 89.48,-19.08 98.35,-24.86 100.02,-18.07"/>
</g>
<!-- IPacketFlow -->
<g id="node3" class="node">
<title>IPacketFlow</title>
<g id="a_node3"><a xlink:href="inet.queueing.contract.IPacketFlow.html" xlink:title="Module Interface IPacketFlow" target="_parent">
<polygon fill="#fffcaf" stroke="black" stroke-dasharray="5,2" points="201.5,-19 127.5,-19 127.5,0 201.5,0 201.5,-19"/>
<text text-anchor="middle" x="164.5" y="-7" font-family="Helvetica,sans-Serif" font-size="10.00">IPacketFlow</text>
</a>
</g>
</g>
<!-- TcpClientApp&#45;&gt;IPacketFlow -->
<g id="edge2" class="edge">
<title>TcpClientApp&#45;&gt;IPacketFlow</title>
<path fill="none" stroke="black" d="M253.47,-54.98C236.57,-46.54 210.44,-33.47 190.86,-23.68"/>
<polygon fill="black" stroke="black" points="192.35,-20.51 181.84,-19.17 189.22,-26.77 192.35,-20.51"/>
</g>
<!-- TcpClientSocketIo -->
<g id="node4" class="node">
<title>TcpClientSocketIo</title>
<g id="a_node4"><a xlink:href="inet.applications.tcpapp.TcpClientSocketIo.html" xlink:title="Simple Module TcpClientSocketIo" target="_parent">
<polygon fill="#fffcaf" stroke="black" points="321.5,-19 219.5,-19 219.5,0 321.5,0 321.5,-19"/>
<text text-anchor="middle" x="270.5" y="-7" font-family="Helvetica,sans-Serif" font-size="10.00">TcpClientSocketIo</text>
</a>
</g>
</g>
<!-- TcpClientApp&#45;&gt;TcpClientSocketIo -->
<g id="edge3" class="edge">
<title>TcpClientApp&#45;&gt;TcpClientSocketIo</title>
<path fill="none" stroke="black" d="M270.5,-54.75C270.5,-47.8 270.5,-37.85 270.5,-29.13"/>
<polygon fill="black" stroke="black" points="274,-29.09 270.5,-19.09 267,-29.09 274,-29.09"/>
</g>
<!-- IActivePacketSource -->
<g id="node5" class="node">
<title>IActivePacketSource</title>
<g id="a_node5"><a xlink:href="inet.queueing.contract.IActivePacketSource.html" xlink:title="Module Interface IActivePacketSource" target="_parent">
<polygon fill="#fffcaf" stroke="black" stroke-dasharray="5,2" points="455,-19 340,-19 340,0 455,0 455,-19"/>
<text text-anchor="middle" x="397.5" y="-7" font-family="Helvetica,sans-Serif" font-size="10.00">IActivePacketSource</text>
</a>
</g>
</g>
<!-- TcpClientApp&#45;&gt;IActivePacketSource -->
<g id="edge4" class="edge">
<title>TcpClientApp&#45;&gt;IActivePacketSource</title>
<path fill="none" stroke="black" d="M290.9,-54.98C311.52,-46.38 343.61,-32.99 367.19,-23.15"/>
<polygon fill="black" stroke="black" points="368.84,-26.25 376.72,-19.17 366.15,-19.79 368.84,-26.25"/>
</g>
<!-- IdealChannel -->
<g id="node6" class="node">
<title>IdealChannel</title>
<g id="a_node6"><a xlink:href="ned.IdealChannel.html" xlink:title="Channel IdealChannel" target="_parent">
<polygon fill="#d0ffd0" stroke="black" points="553.5,-19 473.5,-19 473.5,0 553.5,0 553.5,-19"/>
<text text-anchor="middle" x="513.5" y="-7" font-family="Helvetica,sans-Serif" font-size="10.00">IdealChannel</text>
</a>
</g>
</g>
<!-- TcpClientApp&#45;&gt;IdealChannel -->
<g id="edge5" class="edge">
<title>TcpClientApp&#45;&gt;IdealChannel</title>
<path fill="none" stroke="black" d="M309.54,-54.98C351.58,-45.82 418.54,-31.21 464.18,-21.26"/>
<polygon fill="black" stroke="black" points="465.13,-24.63 474.15,-19.08 463.64,-17.79 465.13,-24.63"/>
</g>
</g>
</svg>
