<?xml version="1.0" encoding="UTF-8" standalone="no"?>
<!DOCTYPE svg PUBLIC "-//W3C//DTD SVG 1.1//EN"
 "http://www.w3.org/Graphics/SVG/1.1/DTD/svg11.dtd">
<!-- Generated by graphviz version 2.43.0 (0)
 -->
<!-- Title: opp Pages: 1 -->
<svg width="330pt" height="82pt"
 viewBox="0.00 0.00 330.00 82.00" xmlns="http://www.w3.org/2000/svg" xmlns:xlink="http://www.w3.org/1999/xlink">
<g id="graph0" class="graph" transform="scale(1 1) rotate(0) translate(4 78)">
<title>opp</title>
<polygon fill="transparent" stroke="transparent" points="-4,4 -4,-78 326,-78 326,4 -4,4"/>
<!-- INetworkRouteVisualizer -->
<g id="node1" class="node">
<title>INetworkRouteVisualizer</title>
<g id="a_node1"><a xlink:href="inet.visualizer.contract.INetworkRouteVisualizer.html" xlink:title="Module Interface INetworkRouteVisualizer" target="_parent">
<polygon fill="#fff700" stroke="black" stroke-dasharray="5,2" points="238.5,-74 101.5,-74 101.5,-55 238.5,-55 238.5,-74"/>
<text text-anchor="middle" x="170" y="-62" font-family="Helvetica,sans-Serif" font-size="10.00">INetworkRouteVisualizer</text>
</a>
</g>
</g>
<!-- NetworkRouteCanvasVisualizer -->
<g id="node2" class="node">
<title>NetworkRouteCanvasVisualizer</title>
<g id="a_node2"><a xlink:href="inet.visualizer.canvas.networklayer.NetworkRouteCanvasVisualizer.html" xlink:title="Simple Module NetworkRouteCanvasVisualizer" target="_parent">
<polygon fill="#fffcaf" stroke="black" points="170,-19 0,-19 0,0 170,0 170,-19"/>
<text text-anchor="middle" x="85" y="-7" font-family="Helvetica,sans-Serif" font-size="10.00">NetworkRouteCanvasVisualizer</text>
</a>
</g>
</g>
<!-- INetworkRouteVisualizer&#45;&gt;NetworkRouteCanvasVisualizer -->
<g id="edge1" class="edge">
<title>INetworkRouteVisualizer&#45;&gt;NetworkRouteCanvasVisualizer</title>
<path fill="none" stroke="black" stroke-dasharray="5,2" d="M156.34,-54.98C140.58,-45.15 114.78,-29.07 98.91,-19.17"/>
</g>
<!-- NetworkRouteVisualizer -->
<g id="node3" class="node">
<title>NetworkRouteVisualizer</title>
<g id="a_node3"><a xlink:href="inet.visualizer.common.NetworkRouteVisualizer.html" xlink:title="Compound Module NetworkRouteVisualizer" target="_parent">
<polygon fill="#fffcaf" stroke="black" points="322,-19 188,-19 188,0 322,0 322,-19"/>
<text text-anchor="middle" x="255" y="-7" font-family="Helvetica,sans-Serif" font-size="10.00">NetworkRouteVisualizer</text>
</a>
</g>
</g>
<!-- INetworkRouteVisualizer&#45;&gt;NetworkRouteVisualizer -->
<g id="edge2" class="edge">
<title>INetworkRouteVisualizer&#45;&gt;NetworkRouteVisualizer</title>
<path fill="none" stroke="black" stroke-dasharray="5,2" d="M183.66,-54.98C199.42,-45.15 225.22,-29.07 241.09,-19.17"/>
</g>
</g>
</svg>
