<?xml version="1.0" encoding="UTF-8" standalone="no"?>
<!DOCTYPE svg PUBLIC "-//W3C//DTD SVG 1.1//EN"
 "http://www.w3.org/Graphics/SVG/1.1/DTD/svg11.dtd">
<!-- Generated by graphviz version 2.43.0 (0)
 -->
<!-- Title: opp Pages: 1 -->
<svg width="350pt" height="137pt"
 viewBox="0.00 0.00 350.00 137.00" xmlns="http://www.w3.org/2000/svg" xmlns:xlink="http://www.w3.org/1999/xlink">
<g id="graph0" class="graph" transform="scale(1 1) rotate(0) translate(4 133)">
<title>opp</title>
<polygon fill="transparent" stroke="transparent" points="-4,4 -4,-133 346,-133 346,4 -4,4"/>
<!-- UdpApp -->
<g id="node1" class="node">
<title>UdpApp</title>
<g id="a_node1"><a xlink:href="inet.applications.udpapp.UdpApp.html" xlink:title="Compound Module UdpApp" target="_parent">
<polygon fill="#fff700" stroke="black" points="225.5,-74 170.5,-74 170.5,-55 225.5,-55 225.5,-74"/>
<text text-anchor="middle" x="198" y="-62" font-family="Helvetica,sans-Serif" font-size="10.00">UdpApp</text>
</a>
</g>
</g>
<!-- UdpRequestResponseApp -->
<g id="node3" class="node">
<title>UdpRequestResponseApp</title>
<g id="a_node3"><a xlink:href="inet.applications.udpapp.UdpRequestResponseApp.html" xlink:title="Compound Module UdpRequestResponseApp" target="_parent">
<polygon fill="#fffcaf" stroke="black" points="142,-19 0,-19 0,0 142,0 142,-19"/>
<text text-anchor="middle" x="71" y="-7" font-family="Helvetica,sans-Serif" font-size="10.00">UdpRequestResponseApp</text>
</a>
</g>
</g>
<!-- UdpApp&#45;&gt;UdpRequestResponseApp -->
<g id="edge2" class="edge">
<title>UdpApp&#45;&gt;UdpRequestResponseApp</title>
<path fill="none" stroke="black" d="M177.6,-54.98C154.04,-45.15 115.49,-29.07 91.78,-19.17"/>
</g>
<!-- UdpSinkApp -->
<g id="node4" class="node">
<title>UdpSinkApp</title>
<g id="a_node4"><a xlink:href="inet.applications.udpapp.UdpSinkApp.html" xlink:title="Compound Module UdpSinkApp" target="_parent">
<polygon fill="#fffcaf" stroke="black" points="236,-19 160,-19 160,0 236,0 236,-19"/>
<text text-anchor="middle" x="198" y="-7" font-family="Helvetica,sans-Serif" font-size="10.00">UdpSinkApp</text>
</a>
</g>
</g>
<!-- UdpApp&#45;&gt;UdpSinkApp -->
<g id="edge3" class="edge">
<title>UdpApp&#45;&gt;UdpSinkApp</title>
<path fill="none" stroke="black" d="M198,-54.75C198,-44.87 198,-28.9 198,-19.09"/>
</g>
<!-- UdpSourceApp -->
<g id="node5" class="node">
<title>UdpSourceApp</title>
<g id="a_node5"><a xlink:href="inet.applications.udpapp.UdpSourceApp.html" xlink:title="Compound Module UdpSourceApp" target="_parent">
<polygon fill="#fffcaf" stroke="black" points="342,-19 254,-19 254,0 342,0 342,-19"/>
<text text-anchor="middle" x="298" y="-7" font-family="Helvetica,sans-Serif" font-size="10.00">UdpSourceApp</text>
</a>
</g>
</g>
<!-- UdpApp&#45;&gt;UdpSourceApp -->
<g id="edge4" class="edge">
<title>UdpApp&#45;&gt;UdpSourceApp</title>
<path fill="none" stroke="black" d="M214.07,-54.98C232.62,-45.15 262.97,-29.07 281.64,-19.17"/>
</g>
<!-- IApp -->
<g id="node2" class="node">
<title>IApp</title>
<g id="a_node2"><a xlink:href="inet.applications.contract.IApp.html" xlink:title="Module Interface IApp" target="_parent">
<polygon fill="#fffcaf" stroke="black" stroke-dasharray="5,2" points="225,-129 171,-129 171,-110 225,-110 225,-129"/>
<text text-anchor="middle" x="198" y="-117" font-family="Helvetica,sans-Serif" font-size="10.00">IApp</text>
</a>
</g>
</g>
<!-- IApp&#45;&gt;UdpApp -->
<g id="edge1" class="edge">
<title>IApp&#45;&gt;UdpApp</title>
<path fill="none" stroke="black" stroke-dasharray="5,2" d="M198,-109.75C198,-99.87 198,-83.9 198,-74.09"/>
</g>
</g>
</svg>
