<?xml version="1.0" encoding="UTF-8" standalone="no"?>
<!DOCTYPE svg PUBLIC "-//W3C//DTD SVG 1.1//EN"
 "http://www.w3.org/Graphics/SVG/1.1/DTD/svg11.dtd">
<!-- Generated by graphviz version 2.43.0 (0)
 -->
<!-- Title: opp Pages: 1 -->
<svg width="206pt" height="82pt"
 viewBox="0.00 0.00 206.00 82.00" xmlns="http://www.w3.org/2000/svg" xmlns:xlink="http://www.w3.org/1999/xlink">
<g id="graph0" class="graph" transform="scale(1 1) rotate(0) translate(4 78)">
<title>opp</title>
<polygon fill="transparent" stroke="transparent" points="-4,4 -4,-78 202,-78 202,4 -4,4"/>
<!-- IManetRouting -->
<g id="node1" class="node">
<title>IManetRouting</title>
<g id="a_node1"><a xlink:href="inet.routing.contract.IManetRouting.html" xlink:title="Module Interface IManetRouting" target="_parent">
<polygon fill="#fff700" stroke="black" stroke-dasharray="5,2" points="143,-74 55,-74 55,-55 143,-55 143,-74"/>
<text text-anchor="middle" x="99" y="-62" font-family="Helvetica,sans-Serif" font-size="10.00">IManetRouting</text>
</a>
</g>
</g>
<!-- Dsdv -->
<g id="node2" class="node">
<title>Dsdv</title>
<g id="a_node2"><a xlink:href="inet.routing.dsdv.Dsdv.html" xlink:title="Simple Module Dsdv" target="_parent">
<polygon fill="#fffcaf" stroke="black" points="54,-19 0,-19 0,0 54,0 54,-19"/>
<text text-anchor="middle" x="27" y="-7" font-family="Helvetica,sans-Serif" font-size="10.00">Dsdv</text>
</a>
</g>
</g>
<!-- IManetRouting&#45;&gt;Dsdv -->
<g id="edge1" class="edge">
<title>IManetRouting&#45;&gt;Dsdv</title>
<path fill="none" stroke="black" stroke-dasharray="5,2" d="M87.43,-54.98C74.08,-45.15 52.22,-29.07 38.78,-19.17"/>
</g>
<!-- Dymo -->
<g id="node3" class="node">
<title>Dymo</title>
<g id="a_node3"><a xlink:href="inet.routing.dymo.Dymo.html" xlink:title="Simple Module Dymo" target="_parent">
<polygon fill="#fffcaf" stroke="black" points="126,-19 72,-19 72,0 126,0 126,-19"/>
<text text-anchor="middle" x="99" y="-7" font-family="Helvetica,sans-Serif" font-size="10.00">Dymo</text>
</a>
</g>
</g>
<!-- IManetRouting&#45;&gt;Dymo -->
<g id="edge2" class="edge">
<title>IManetRouting&#45;&gt;Dymo</title>
<path fill="none" stroke="black" stroke-dasharray="5,2" d="M99,-54.75C99,-44.87 99,-28.9 99,-19.09"/>
</g>
<!-- Gpsr -->
<g id="node4" class="node">
<title>Gpsr</title>
<g id="a_node4"><a xlink:href="inet.routing.gpsr.Gpsr.html" xlink:title="Simple Module Gpsr" target="_parent">
<polygon fill="#fffcaf" stroke="black" points="198,-19 144,-19 144,0 198,0 198,-19"/>
<text text-anchor="middle" x="171" y="-7" font-family="Helvetica,sans-Serif" font-size="10.00">Gpsr</text>
</a>
</g>
</g>
<!-- IManetRouting&#45;&gt;Gpsr -->
<g id="edge3" class="edge">
<title>IManetRouting&#45;&gt;Gpsr</title>
<path fill="none" stroke="black" stroke-dasharray="5,2" d="M110.57,-54.98C123.92,-45.15 145.78,-29.07 159.22,-19.17"/>
</g>
</g>
</svg>
