<?xml version="1.0" encoding="UTF-8" standalone="no"?>
<!DOCTYPE svg PUBLIC "-//W3C//DTD SVG 1.1//EN"
 "http://www.w3.org/Graphics/SVG/1.1/DTD/svg11.dtd">
<!-- Generated by graphviz version 2.43.0 (0)
 -->
<!-- Title: opp Pages: 1 -->
<svg width="458pt" height="137pt"
 viewBox="0.00 0.00 458.00 137.00" xmlns="http://www.w3.org/2000/svg" xmlns:xlink="http://www.w3.org/1999/xlink">
<g id="graph0" class="graph" transform="scale(1 1) rotate(0) translate(4 133)">
<title>opp</title>
<polygon fill="transparent" stroke="transparent" points="-4,4 -4,-133 454,-133 454,4 -4,4"/>
<!-- AdhocHost -->
<g id="node1" class="node">
<title>AdhocHost</title>
<g id="a_node1"><a xlink:href="inet.node.inet.AdhocHost.html" xlink:title="Compound Module AdhocHost" target="_parent">
<polygon fill="#fff700" stroke="black" points="257.5,-74 188.5,-74 188.5,-55 257.5,-55 257.5,-74"/>
<text text-anchor="middle" x="223" y="-62" font-family="Helvetica,sans-Serif" font-size="10.00">AdhocHost</text>
</a>
</g>
</g>
<!-- AodvRouter -->
<g id="node3" class="node">
<title>AodvRouter</title>
<g id="a_node3"><a xlink:href="inet.node.aodv.AodvRouter.html" xlink:title="Compound Module AodvRouter" target="_parent">
<polygon fill="#fffcaf" stroke="black" points="74,-19 0,-19 0,0 74,0 74,-19"/>
<text text-anchor="middle" x="37" y="-7" font-family="Helvetica,sans-Serif" font-size="10.00">AodvRouter</text>
</a>
</g>
</g>
<!-- AdhocHost&#45;&gt;AodvRouter -->
<g id="edge2" class="edge">
<title>AdhocHost&#45;&gt;AodvRouter</title>
<path fill="none" stroke="black" d="M193.12,-54.98C158.51,-45.12 101.82,-28.97 67.12,-19.08"/>
</g>
<!-- DsdvRouter -->
<g id="node4" class="node">
<title>DsdvRouter</title>
<g id="a_node4"><a xlink:href="inet.node.dsdv.DsdvRouter.html" xlink:title="Compound Module DsdvRouter" target="_parent">
<polygon fill="#fffcaf" stroke="black" points="166,-19 92,-19 92,0 166,0 166,-19"/>
<text text-anchor="middle" x="129" y="-7" font-family="Helvetica,sans-Serif" font-size="10.00">DsdvRouter</text>
</a>
</g>
</g>
<!-- AdhocHost&#45;&gt;DsdvRouter -->
<g id="edge3" class="edge">
<title>AdhocHost&#45;&gt;DsdvRouter</title>
<path fill="none" stroke="black" d="M207.9,-54.98C190.46,-45.15 161.93,-29.07 144.38,-19.17"/>
</g>
<!-- DymoRouter -->
<g id="node5" class="node">
<title>DymoRouter</title>
<g id="a_node5"><a xlink:href="inet.node.dymo.DymoRouter.html" xlink:title="Compound Module DymoRouter" target="_parent">
<polygon fill="#fffcaf" stroke="black" points="262,-19 184,-19 184,0 262,0 262,-19"/>
<text text-anchor="middle" x="223" y="-7" font-family="Helvetica,sans-Serif" font-size="10.00">DymoRouter</text>
</a>
</g>
</g>
<!-- AdhocHost&#45;&gt;DymoRouter -->
<g id="edge4" class="edge">
<title>AdhocHost&#45;&gt;DymoRouter</title>
<path fill="none" stroke="black" d="M223,-54.75C223,-44.87 223,-28.9 223,-19.09"/>
</g>
<!-- GpsrRouter -->
<g id="node6" class="node">
<title>GpsrRouter</title>
<g id="a_node6"><a xlink:href="inet.node.gpsr.GpsrRouter.html" xlink:title="Compound Module GpsrRouter" target="_parent">
<polygon fill="#fffcaf" stroke="black" points="351.5,-19 280.5,-19 280.5,0 351.5,0 351.5,-19"/>
<text text-anchor="middle" x="316" y="-7" font-family="Helvetica,sans-Serif" font-size="10.00">GpsrRouter</text>
</a>
</g>
</g>
<!-- AdhocHost&#45;&gt;GpsrRouter -->
<g id="edge5" class="edge">
<title>AdhocHost&#45;&gt;GpsrRouter</title>
<path fill="none" stroke="black" d="M237.94,-54.98C255.19,-45.15 283.42,-29.07 300.79,-19.17"/>
</g>
<!-- ManetRouter -->
<g id="node7" class="node">
<title>ManetRouter</title>
<g id="a_node7"><a xlink:href="inet.node.inet.ManetRouter.html" xlink:title="Compound Module ManetRouter" target="_parent">
<polygon fill="#fffcaf" stroke="black" points="450,-19 370,-19 370,0 450,0 450,-19"/>
<text text-anchor="middle" x="410" y="-7" font-family="Helvetica,sans-Serif" font-size="10.00">ManetRouter</text>
</a>
</g>
</g>
<!-- AdhocHost&#45;&gt;ManetRouter -->
<g id="edge6" class="edge">
<title>AdhocHost&#45;&gt;ManetRouter</title>
<path fill="none" stroke="black" d="M253.04,-54.98C287.84,-45.12 344.83,-28.97 379.72,-19.08"/>
</g>
<!-- WirelessHost -->
<g id="node2" class="node">
<title>WirelessHost</title>
<g id="a_node2"><a xlink:href="inet.node.inet.WirelessHost.html" xlink:title="Compound Module WirelessHost" target="_parent">
<polygon fill="#fffcaf" stroke="black" points="263.5,-129 182.5,-129 182.5,-110 263.5,-110 263.5,-129"/>
<text text-anchor="middle" x="223" y="-117" font-family="Helvetica,sans-Serif" font-size="10.00">WirelessHost</text>
</a>
</g>
</g>
<!-- WirelessHost&#45;&gt;AdhocHost -->
<g id="edge1" class="edge">
<title>WirelessHost&#45;&gt;AdhocHost</title>
<path fill="none" stroke="black" d="M223,-109.75C223,-99.87 223,-83.9 223,-74.09"/>
</g>
</g>
</svg>
