<?xml version="1.0" encoding="UTF-8" standalone="no"?>
<!DOCTYPE svg PUBLIC "-//W3C//DTD SVG 1.1//EN"
 "http://www.w3.org/Graphics/SVG/1.1/DTD/svg11.dtd">
<!-- Generated by graphviz version 2.43.0 (0)
 -->
<!-- Title: opp Pages: 1 -->
<svg width="593pt" height="82pt"
 viewBox="0.00 0.00 593.00 82.00" xmlns="http://www.w3.org/2000/svg" xmlns:xlink="http://www.w3.org/1999/xlink">
<g id="graph0" class="graph" transform="scale(1 1) rotate(0) translate(4 78)">
<title>opp</title>
<polygon fill="transparent" stroke="transparent" points="-4,4 -4,-78 589,-78 589,4 -4,4"/>
<!-- EthernetMacLayer -->
<g id="node1" class="node">
<title>EthernetMacLayer</title>
<g id="a_node1"><a xlink:href="inet.linklayer.ethernet.modular.EthernetMacLayer.html" xlink:title="Compound Module EthernetMacLayer" target="_parent">
<polygon fill="#fff700" stroke="black" points="347.5,-74 242.5,-74 242.5,-55 347.5,-55 347.5,-74"/>
<text text-anchor="middle" x="295" y="-62" font-family="Helvetica,sans-Serif" font-size="10.00">EthernetMacLayer</text>
</a>
</g>
</g>
<!-- IPacketLifeTimer -->
<g id="node2" class="node">
<title>IPacketLifeTimer</title>
<g id="a_node2"><a xlink:href="inet.protocolelement.contract.IPacketLifeTimer.html" xlink:title="Module Interface IPacketLifeTimer" target="_parent">
<polygon fill="#fffcaf" stroke="black" stroke-dasharray="5,2" points="98,-19 0,-19 0,0 98,0 98,-19"/>
<text text-anchor="middle" x="49" y="-7" font-family="Helvetica,sans-Serif" font-size="10.00">IPacketLifeTimer</text>
</a>
</g>
</g>
<!-- EthernetMacLayer&#45;&gt;IPacketLifeTimer -->
<g id="edge1" class="edge">
<title>EthernetMacLayer&#45;&gt;IPacketLifeTimer</title>
<path fill="none" stroke="black" d="M255.48,-54.98C212.83,-45.8 144.85,-31.15 98.64,-21.19"/>
<polygon fill="black" stroke="black" points="99.35,-17.77 88.83,-19.08 97.87,-24.61 99.35,-17.77"/>
</g>
<!-- IPacketFlow -->
<g id="node3" class="node">
<title>IPacketFlow</title>
<g id="a_node3"><a xlink:href="inet.queueing.contract.IPacketFlow.html" xlink:title="Module Interface IPacketFlow" target="_parent">
<polygon fill="#fffcaf" stroke="black" stroke-dasharray="5,2" points="190,-19 116,-19 116,0 190,0 190,-19"/>
<text text-anchor="middle" x="153" y="-7" font-family="Helvetica,sans-Serif" font-size="10.00">IPacketFlow</text>
</a>
</g>
</g>
<!-- EthernetMacLayer&#45;&gt;IPacketFlow -->
<g id="edge2" class="edge">
<title>EthernetMacLayer&#45;&gt;IPacketFlow</title>
<path fill="none" stroke="black" d="M272.19,-54.98C248.83,-46.27 212.3,-32.63 185.83,-22.75"/>
<polygon fill="black" stroke="black" points="186.82,-19.39 176.23,-19.17 184.37,-25.95 186.82,-19.39"/>
</g>
<!-- IPacketFilter -->
<g id="node4" class="node">
<title>IPacketFilter</title>
<g id="a_node4"><a xlink:href="inet.queueing.contract.IPacketFilter.html" xlink:title="Module Interface IPacketFilter" target="_parent">
<polygon fill="#fffcaf" stroke="black" stroke-dasharray="5,2" points="284,-19 208,-19 208,0 284,0 284,-19"/>
<text text-anchor="middle" x="246" y="-7" font-family="Helvetica,sans-Serif" font-size="10.00">IPacketFilter</text>
</a>
</g>
</g>
<!-- EthernetMacLayer&#45;&gt;IPacketFilter -->
<g id="edge3" class="edge">
<title>EthernetMacLayer&#45;&gt;IPacketFilter</title>
<path fill="none" stroke="black" d="M286.91,-54.75C279.84,-47.11 269.41,-35.82 260.85,-26.56"/>
<polygon fill="black" stroke="black" points="263.3,-24.06 253.94,-19.09 258.16,-28.81 263.3,-24.06"/>
</g>
<!-- IPacketServer -->
<g id="node5" class="node">
<title>IPacketServer</title>
<g id="a_node5"><a xlink:href="inet.queueing.contract.IPacketServer.html" xlink:title="Module Interface IPacketServer" target="_parent">
<polygon fill="#fffcaf" stroke="black" stroke-dasharray="5,2" points="385.5,-19 302.5,-19 302.5,0 385.5,0 385.5,-19"/>
<text text-anchor="middle" x="344" y="-7" font-family="Helvetica,sans-Serif" font-size="10.00">IPacketServer</text>
</a>
</g>
</g>
<!-- EthernetMacLayer&#45;&gt;IPacketServer -->
<g id="edge4" class="edge">
<title>EthernetMacLayer&#45;&gt;IPacketServer</title>
<path fill="none" stroke="black" d="M303.09,-54.75C310.16,-47.11 320.59,-35.82 329.15,-26.56"/>
<polygon fill="black" stroke="black" points="331.84,-28.81 336.06,-19.09 326.7,-24.06 331.84,-28.81"/>
</g>
<!-- IPacketQueue -->
<g id="node6" class="node">
<title>IPacketQueue</title>
<g id="a_node6"><a xlink:href="inet.queueing.contract.IPacketQueue.html" xlink:title="Module Interface IPacketQueue" target="_parent">
<polygon fill="#fffcaf" stroke="black" stroke-dasharray="5,2" points="486.5,-19 403.5,-19 403.5,0 486.5,0 486.5,-19"/>
<text text-anchor="middle" x="445" y="-7" font-family="Helvetica,sans-Serif" font-size="10.00">IPacketQueue</text>
</a>
</g>
</g>
<!-- EthernetMacLayer&#45;&gt;IPacketQueue -->
<g id="edge5" class="edge">
<title>EthernetMacLayer&#45;&gt;IPacketQueue</title>
<path fill="none" stroke="black" d="M319.1,-54.98C343.88,-46.23 382.7,-32.51 410.69,-22.62"/>
<polygon fill="black" stroke="black" points="412.2,-25.8 420.46,-19.17 409.87,-19.2 412.2,-25.8"/>
</g>
<!-- IdealChannel -->
<g id="node7" class="node">
<title>IdealChannel</title>
<g id="a_node7"><a xlink:href="ned.IdealChannel.html" xlink:title="Channel IdealChannel" target="_parent">
<polygon fill="#d0ffd0" stroke="black" points="585,-19 505,-19 505,0 585,0 585,-19"/>
<text text-anchor="middle" x="545" y="-7" font-family="Helvetica,sans-Serif" font-size="10.00">IdealChannel</text>
</a>
</g>
</g>
<!-- EthernetMacLayer&#45;&gt;IdealChannel -->
<g id="edge6" class="edge">
<title>EthernetMacLayer&#45;&gt;IdealChannel</title>
<path fill="none" stroke="black" d="M335.17,-54.98C378.63,-45.77 448,-31.06 494.97,-21.11"/>
<polygon fill="black" stroke="black" points="495.88,-24.49 504.93,-18.99 494.42,-17.64 495.88,-24.49"/>
</g>
</g>
</svg>
