<?xml version="1.0" encoding="UTF-8" standalone="no"?>
<!DOCTYPE svg PUBLIC "-//W3C//DTD SVG 1.1//EN"
 "http://www.w3.org/Graphics/SVG/1.1/DTD/svg11.dtd">
<!-- Generated by graphviz version 2.43.0 (0)
 -->
<!-- Title: opp Pages: 1 -->
<svg width="680pt" height="82pt"
 viewBox="0.00 0.00 679.50 82.00" xmlns="http://www.w3.org/2000/svg" xmlns:xlink="http://www.w3.org/1999/xlink">
<g id="graph0" class="graph" transform="scale(1 1) rotate(0) translate(4 78)">
<title>opp</title>
<polygon fill="transparent" stroke="transparent" points="-4,4 -4,-78 675.5,-78 675.5,4 -4,4"/>
<!-- NodeBase -->
<g id="node1" class="node">
<title>NodeBase</title>
<g id="a_node1"><a xlink:href="inet.node.base.NodeBase.html" xlink:title="Compound Module NodeBase" target="_parent">
<polygon fill="#fff700" stroke="black" points="355,-74 289,-74 289,-55 355,-55 355,-74"/>
<text text-anchor="middle" x="322" y="-62" font-family="Helvetica,sans-Serif" font-size="10.00">NodeBase</text>
</a>
</g>
</g>
<!-- IClock -->
<g id="node2" class="node">
<title>IClock</title>
<g id="a_node2"><a xlink:href="inet.clock.contract.IClock.html" xlink:title="Module Interface IClock" target="_parent">
<polygon fill="#fffcaf" stroke="black" stroke-dasharray="5,2" points="54,-19 0,-19 0,0 54,0 54,-19"/>
<text text-anchor="middle" x="27" y="-7" font-family="Helvetica,sans-Serif" font-size="10.00">IClock</text>
</a>
</g>
</g>
<!-- NodeBase&#45;&gt;IClock -->
<g id="edge1" class="edge">
<title>NodeBase&#45;&gt;IClock</title>
<path fill="none" stroke="black" d="M288.76,-58.46C241.19,-51.1 150.73,-36.57 64.09,-19.12"/>
<polygon fill="black" stroke="black" points="64.58,-15.65 54.09,-17.08 63.19,-22.51 64.58,-15.65"/>
</g>
<!-- IEnergyManagement -->
<g id="node3" class="node">
<title>IEnergyManagement</title>
<g id="a_node3"><a xlink:href="inet.power.contract.IEnergyManagement.html" xlink:title="Module Interface IEnergyManagement" target="_parent">
<polygon fill="#fffcaf" stroke="black" stroke-dasharray="5,2" points="190,-19 72,-19 72,0 190,0 190,-19"/>
<text text-anchor="middle" x="131" y="-7" font-family="Helvetica,sans-Serif" font-size="10.00">IEnergyManagement</text>
</a>
</g>
</g>
<!-- NodeBase&#45;&gt;IEnergyManagement -->
<g id="edge2" class="edge">
<title>NodeBase&#45;&gt;IEnergyManagement</title>
<path fill="none" stroke="black" d="M291.31,-54.98C258.83,-45.97 207.4,-31.7 171.59,-21.76"/>
<polygon fill="black" stroke="black" points="172.5,-18.38 161.93,-19.08 170.63,-25.13 172.5,-18.38"/>
</g>
<!-- IMobility -->
<g id="node4" class="node">
<title>IMobility</title>
<g id="a_node4"><a xlink:href="inet.mobility.contract.IMobility.html" xlink:title="Module Interface IMobility" target="_parent">
<polygon fill="#fffcaf" stroke="black" stroke-dasharray="5,2" points="267.5,-19 208.5,-19 208.5,0 267.5,0 267.5,-19"/>
<text text-anchor="middle" x="238" y="-7" font-family="Helvetica,sans-Serif" font-size="10.00">IMobility</text>
</a>
</g>
</g>
<!-- NodeBase&#45;&gt;IMobility -->
<g id="edge3" class="edge">
<title>NodeBase&#45;&gt;IMobility</title>
<path fill="none" stroke="black" d="M308.5,-54.98C295.6,-46.84 275.9,-34.41 260.6,-24.76"/>
<polygon fill="black" stroke="black" points="262.07,-21.55 251.74,-19.17 258.33,-27.47 262.07,-21.55"/>
</g>
<!-- NodeStatus -->
<g id="node5" class="node">
<title>NodeStatus</title>
<g id="a_node5"><a xlink:href="inet.common.lifecycle.NodeStatus.html" xlink:title="Simple Module NodeStatus" target="_parent">
<polygon fill="#fffcaf" stroke="black" points="358.5,-19 285.5,-19 285.5,0 358.5,0 358.5,-19"/>
<text text-anchor="middle" x="322" y="-7" font-family="Helvetica,sans-Serif" font-size="10.00">NodeStatus</text>
</a>
</g>
</g>
<!-- NodeBase&#45;&gt;NodeStatus -->
<g id="edge4" class="edge">
<title>NodeBase&#45;&gt;NodeStatus</title>
<path fill="none" stroke="black" d="M322,-54.75C322,-47.8 322,-37.85 322,-29.13"/>
<polygon fill="black" stroke="black" points="325.5,-29.09 322,-19.09 318.5,-29.09 325.5,-29.09"/>
</g>
<!-- IMeasurer -->
<g id="node6" class="node">
<title>IMeasurer</title>
<g id="a_node6"><a xlink:href="inet.common.IMeasurer.html" xlink:title="Module Interface IMeasurer" target="_parent">
<polygon fill="#fffcaf" stroke="black" stroke-dasharray="5,2" points="441.5,-19 376.5,-19 376.5,0 441.5,0 441.5,-19"/>
<text text-anchor="middle" x="409" y="-7" font-family="Helvetica,sans-Serif" font-size="10.00">IMeasurer</text>
</a>
</g>
</g>
<!-- NodeBase&#45;&gt;IMeasurer -->
<g id="edge5" class="edge">
<title>NodeBase&#45;&gt;IMeasurer</title>
<path fill="none" stroke="black" d="M335.98,-54.98C349.47,-46.77 370.13,-34.18 386.04,-24.49"/>
<polygon fill="black" stroke="black" points="388.05,-27.36 394.77,-19.17 384.41,-21.38 388.05,-27.36"/>
</g>
<!-- IEnergyGenerator -->
<g id="node7" class="node">
<title>IEnergyGenerator</title>
<g id="a_node7"><a xlink:href="inet.power.contract.IEnergyGenerator.html" xlink:title="Module Interface IEnergyGenerator" target="_parent">
<polygon fill="#fffcaf" stroke="black" stroke-dasharray="5,2" points="562,-19 460,-19 460,0 562,0 562,-19"/>
<text text-anchor="middle" x="511" y="-7" font-family="Helvetica,sans-Serif" font-size="10.00">IEnergyGenerator</text>
</a>
</g>
</g>
<!-- NodeBase&#45;&gt;IEnergyGenerator -->
<g id="edge6" class="edge">
<title>NodeBase&#45;&gt;IEnergyGenerator</title>
<path fill="none" stroke="black" d="M352.37,-54.98C384.37,-46.01 434.96,-31.82 470.38,-21.89"/>
<polygon fill="black" stroke="black" points="471.71,-25.15 480.4,-19.08 469.82,-18.41 471.71,-25.15"/>
</g>
<!-- IEnergyStorage -->
<g id="node8" class="node">
<title>IEnergyStorage</title>
<g id="a_node8"><a xlink:href="inet.power.contract.IEnergyStorage.html" xlink:title="Module Interface IEnergyStorage" target="_parent">
<polygon fill="#fffcaf" stroke="black" stroke-dasharray="5,2" points="671.5,-19 580.5,-19 580.5,0 671.5,0 671.5,-19"/>
<text text-anchor="middle" x="626" y="-7" font-family="Helvetica,sans-Serif" font-size="10.00">IEnergyStorage</text>
</a>
</g>
</g>
<!-- NodeBase&#45;&gt;IEnergyStorage -->
<g id="edge7" class="edge">
<title>NodeBase&#45;&gt;IEnergyStorage</title>
<path fill="none" stroke="black" d="M355.11,-57.73C406.79,-48.72 507.21,-31.21 570.2,-20.23"/>
<polygon fill="black" stroke="black" points="571.11,-23.62 580.36,-18.46 569.9,-16.73 571.11,-23.62"/>
</g>
</g>
</svg>
