<?xml version="1.0" encoding="UTF-8" standalone="no"?>
<!DOCTYPE svg PUBLIC "-//W3C//DTD SVG 1.1//EN"
 "http://www.w3.org/Graphics/SVG/1.1/DTD/svg11.dtd">
<!-- Generated by graphviz version 2.43.0 (0)
 -->
<!-- Title: opp Pages: 1 -->
<svg width="276pt" height="137pt"
 viewBox="0.00 0.00 276.00 137.00" xmlns="http://www.w3.org/2000/svg" xmlns:xlink="http://www.w3.org/1999/xlink">
<g id="graph0" class="graph" transform="scale(1 1) rotate(0) translate(4 133)">
<title>opp</title>
<polygon fill="transparent" stroke="transparent" points="-4,4 -4,-133 272,-133 272,4 -4,4"/>
<!-- PacketTransmitterBase -->
<g id="node1" class="node">
<title>PacketTransmitterBase</title>
<g id="a_node1"><a xlink:href="inet.protocolelement.transceiver.base.PacketTransmitterBase.html" xlink:title="Simple Module PacketTransmitterBase" target="_parent">
<polygon fill="#fff700" stroke="black" points="187,-74 59,-74 59,-55 187,-55 187,-74"/>
<text text-anchor="middle" x="123" y="-62" font-family="Helvetica,sans-Serif" font-size="10.00">PacketTransmitterBase</text>
</a>
</g>
</g>
<!-- PacketTransmitter -->
<g id="node3" class="node">
<title>PacketTransmitter</title>
<g id="a_node3"><a xlink:href="inet.protocolelement.transceiver.PacketTransmitter.html" xlink:title="Simple Module PacketTransmitter" target="_parent">
<polygon fill="#fffcaf" stroke="black" points="104,-19 0,-19 0,0 104,0 104,-19"/>
<text text-anchor="middle" x="52" y="-7" font-family="Helvetica,sans-Serif" font-size="10.00">PacketTransmitter</text>
</a>
</g>
</g>
<!-- PacketTransmitterBase&#45;&gt;PacketTransmitter -->
<g id="edge2" class="edge">
<title>PacketTransmitterBase&#45;&gt;PacketTransmitter</title>
<path fill="none" stroke="black" d="M111.59,-54.98C98.42,-45.15 76.87,-29.07 63.61,-19.17"/>
</g>
<!-- StreamingTransmitterBase -->
<g id="node4" class="node">
<title>StreamingTransmitterBase</title>
<g id="a_node4"><a xlink:href="inet.protocolelement.transceiver.base.StreamingTransmitterBase.html" xlink:title="Simple Module StreamingTransmitterBase" target="_parent">
<polygon fill="#fffcaf" stroke="black" points="268,-19 122,-19 122,0 268,0 268,-19"/>
<text text-anchor="middle" x="195" y="-7" font-family="Helvetica,sans-Serif" font-size="10.00">StreamingTransmitterBase</text>
</a>
</g>
</g>
<!-- PacketTransmitterBase&#45;&gt;StreamingTransmitterBase -->
<g id="edge3" class="edge">
<title>PacketTransmitterBase&#45;&gt;StreamingTransmitterBase</title>
<path fill="none" stroke="black" d="M134.57,-54.98C147.92,-45.15 169.78,-29.07 183.22,-19.17"/>
</g>
<!-- PacketProcessorBase -->
<g id="node2" class="node">
<title>PacketProcessorBase</title>
<g id="a_node2"><a xlink:href="inet.queueing.base.PacketProcessorBase.html" xlink:title="Simple Module PacketProcessorBase" target="_parent">
<polygon fill="#fffcaf" stroke="black" points="182.5,-129 63.5,-129 63.5,-110 182.5,-110 182.5,-129"/>
<text text-anchor="middle" x="123" y="-117" font-family="Helvetica,sans-Serif" font-size="10.00">PacketProcessorBase</text>
</a>
</g>
</g>
<!-- PacketProcessorBase&#45;&gt;PacketTransmitterBase -->
<g id="edge1" class="edge">
<title>PacketProcessorBase&#45;&gt;PacketTransmitterBase</title>
<path fill="none" stroke="black" d="M123,-109.75C123,-99.87 123,-83.9 123,-74.09"/>
</g>
</g>
</svg>
