<?xml version="1.0" encoding="UTF-8" standalone="no"?>
<!DOCTYPE svg PUBLIC "-//W3C//DTD SVG 1.1//EN"
 "http://www.w3.org/Graphics/SVG/1.1/DTD/svg11.dtd">
<!-- Generated by graphviz version 2.43.0 (0)
 -->
<!-- Title: opp Pages: 1 -->
<svg width="232pt" height="137pt"
 viewBox="0.00 0.00 231.50 137.00" xmlns="http://www.w3.org/2000/svg" xmlns:xlink="http://www.w3.org/1999/xlink">
<g id="graph0" class="graph" transform="scale(1 1) rotate(0) translate(4 133)">
<title>opp</title>
<polygon fill="transparent" stroke="transparent" points="-4,4 -4,-133 227.5,-133 227.5,4 -4,4"/>
<!-- LayeredEthernetInterface -->
<g id="node1" class="node">
<title>LayeredEthernetInterface</title>
<g id="a_node1"><a xlink:href="inet.linklayer.ethernet.LayeredEthernetInterface.html" xlink:title="Compound Module LayeredEthernetInterface" target="_parent">
<polygon fill="#fff700" stroke="black" points="180.5,-74 40.5,-74 40.5,-55 180.5,-55 180.5,-74"/>
<text text-anchor="middle" x="110.5" y="-62" font-family="Helvetica,sans-Serif" font-size="10.00">LayeredEthernetInterface</text>
</a>
</g>
</g>
<!-- EthernetCutthroughInterface -->
<g id="node4" class="node">
<title>EthernetCutthroughInterface</title>
<g id="a_node4"><a xlink:href="inet.linklayer.ethernet.modular.EthernetCutthroughInterface.html" xlink:title="Compound Module EthernetCutthroughInterface" target="_parent">
<polygon fill="#fffcaf" stroke="black" points="188,-19 33,-19 33,0 188,0 188,-19"/>
<text text-anchor="middle" x="110.5" y="-7" font-family="Helvetica,sans-Serif" font-size="10.00">EthernetCutthroughInterface</text>
</a>
</g>
</g>
<!-- LayeredEthernetInterface&#45;&gt;EthernetCutthroughInterface -->
<g id="edge3" class="edge">
<title>LayeredEthernetInterface&#45;&gt;EthernetCutthroughInterface</title>
<path fill="none" stroke="black" d="M110.5,-54.75C110.5,-44.87 110.5,-28.9 110.5,-19.09"/>
</g>
<!-- NetworkInterface -->
<g id="node2" class="node">
<title>NetworkInterface</title>
<g id="a_node2"><a xlink:href="inet.networklayer.common.NetworkInterface.html" xlink:title="Compound Module NetworkInterface" target="_parent">
<polygon fill="#fffcaf" stroke="black" points="101,-129 0,-129 0,-110 101,-110 101,-129"/>
<text text-anchor="middle" x="50.5" y="-117" font-family="Helvetica,sans-Serif" font-size="10.00">NetworkInterface</text>
</a>
</g>
</g>
<!-- NetworkInterface&#45;&gt;LayeredEthernetInterface -->
<g id="edge1" class="edge">
<title>NetworkInterface&#45;&gt;LayeredEthernetInterface</title>
<path fill="none" stroke="black" d="M60.14,-109.98C71.27,-100.15 89.48,-84.07 100.68,-74.17"/>
</g>
<!-- IEthernetInterface -->
<g id="node3" class="node">
<title>IEthernetInterface</title>
<g id="a_node3"><a xlink:href="inet.linklayer.contract.IEthernetInterface.html" xlink:title="Module Interface IEthernetInterface" target="_parent">
<polygon fill="#fffcaf" stroke="black" stroke-dasharray="5,2" points="223.5,-129 119.5,-129 119.5,-110 223.5,-110 223.5,-129"/>
<text text-anchor="middle" x="171.5" y="-117" font-family="Helvetica,sans-Serif" font-size="10.00">IEthernetInterface</text>
</a>
</g>
</g>
<!-- IEthernetInterface&#45;&gt;LayeredEthernetInterface -->
<g id="edge2" class="edge">
<title>IEthernetInterface&#45;&gt;LayeredEthernetInterface</title>
<path fill="none" stroke="black" stroke-dasharray="5,2" d="M161.7,-109.98C150.38,-100.15 131.87,-84.07 120.48,-74.17"/>
</g>
</g>
</svg>
