<?xml version="1.0" encoding="UTF-8" standalone="no"?>
<!DOCTYPE svg PUBLIC "-//W3C//DTD SVG 1.1//EN"
 "http://www.w3.org/Graphics/SVG/1.1/DTD/svg11.dtd">
<!-- Generated by graphviz version 2.43.0 (0)
 -->
<!-- Title: opp Pages: 1 -->
<svg width="495pt" height="82pt"
 viewBox="0.00 0.00 495.00 82.00" xmlns="http://www.w3.org/2000/svg" xmlns:xlink="http://www.w3.org/1999/xlink">
<g id="graph0" class="graph" transform="scale(1 1) rotate(0) translate(4 78)">
<title>opp</title>
<polygon fill="transparent" stroke="transparent" points="-4,4 -4,-78 491,-78 491,4 -4,4"/>
<!-- OSPF_AreaTest -->
<g id="node1" class="node">
<title>OSPF_AreaTest</title>
<g id="a_node1"><a xlink:href="inet.examples.ospfv2.areas.OSPF_AreaTest.html" xlink:title="Network OSPF_AreaTest" target="_parent">
<polygon fill="#9090ff" stroke="black" points="288,-74 199,-74 199,-55 288,-55 288,-74"/>
<text text-anchor="middle" x="243.5" y="-62" font-family="Helvetica,sans-Serif" font-size="10.00">OSPF_AreaTest</text>
</a>
</g>
</g>
<!-- ThruputMeteringChannel -->
<g id="node2" class="node">
<title>ThruputMeteringChannel</title>
<g id="a_node2"><a xlink:href="inet.common.misc.ThruputMeteringChannel.html" xlink:title="Channel ThruputMeteringChannel" target="_parent">
<polygon fill="#d0ffd0" stroke="black" points="137,-19 0,-19 0,0 137,0 137,-19"/>
<text text-anchor="middle" x="68.5" y="-7" font-family="Helvetica,sans-Serif" font-size="10.00">ThruputMeteringChannel</text>
</a>
</g>
</g>
<!-- OSPF_AreaTest&#45;&gt;ThruputMeteringChannel -->
<g id="edge1" class="edge">
<title>OSPF_AreaTest&#45;&gt;ThruputMeteringChannel</title>
<path fill="none" stroke="black" d="M215.38,-54.98C185.88,-46.05 139.31,-31.94 106.53,-22.02"/>
<polygon fill="black" stroke="black" points="107.42,-18.63 96.84,-19.08 105.39,-25.33 107.42,-18.63"/>
</g>
<!-- TwoNetsArea -->
<g id="node3" class="node">
<title>TwoNetsArea</title>
<g id="a_node3"><a xlink:href="inet.examples.ospfv2.areas.TwoNetsArea.html" xlink:title="Compound Module TwoNetsArea" target="_parent">
<polygon fill="#fffcaf" stroke="black" points="235.5,-19 155.5,-19 155.5,0 235.5,0 235.5,-19"/>
<text text-anchor="middle" x="195.5" y="-7" font-family="Helvetica,sans-Serif" font-size="10.00">TwoNetsArea</text>
</a>
</g>
</g>
<!-- OSPF_AreaTest&#45;&gt;TwoNetsArea -->
<g id="edge2" class="edge">
<title>OSPF_AreaTest&#45;&gt;TwoNetsArea</title>
<path fill="none" stroke="black" d="M235.57,-54.75C228.65,-47.11 218.43,-35.82 210.05,-26.56"/>
<polygon fill="black" stroke="black" points="212.59,-24.15 203.28,-19.09 207.4,-28.85 212.59,-24.15"/>
</g>
<!-- OneNetArea -->
<g id="node4" class="node">
<title>OneNetArea</title>
<g id="a_node4"><a xlink:href="inet.examples.ospfv2.areas.OneNetArea.html" xlink:title="Compound Module OneNetArea" target="_parent">
<polygon fill="#fffcaf" stroke="black" points="329.5,-19 253.5,-19 253.5,0 329.5,0 329.5,-19"/>
<text text-anchor="middle" x="291.5" y="-7" font-family="Helvetica,sans-Serif" font-size="10.00">OneNetArea</text>
</a>
</g>
</g>
<!-- OSPF_AreaTest&#45;&gt;OneNetArea -->
<g id="edge3" class="edge">
<title>OSPF_AreaTest&#45;&gt;OneNetArea</title>
<path fill="none" stroke="black" d="M251.43,-54.75C258.35,-47.11 268.57,-35.82 276.95,-26.56"/>
<polygon fill="black" stroke="black" points="279.6,-28.85 283.72,-19.09 274.41,-24.15 279.6,-28.85"/>
</g>
<!-- Ipv4NetworkConfigurator -->
<g id="node5" class="node">
<title>Ipv4NetworkConfigurator</title>
<g id="a_node5"><a xlink:href="inet.networklayer.configurator.ipv4.Ipv4NetworkConfigurator.html" xlink:title="Simple Module Ipv4NetworkConfigurator" target="_parent">
<polygon fill="#fffcaf" stroke="black" points="487,-19 348,-19 348,0 487,0 487,-19"/>
<text text-anchor="middle" x="417.5" y="-7" font-family="Helvetica,sans-Serif" font-size="10.00">Ipv4NetworkConfigurator</text>
</a>
</g>
</g>
<!-- OSPF_AreaTest&#45;&gt;Ipv4NetworkConfigurator -->
<g id="edge4" class="edge">
<title>OSPF_AreaTest&#45;&gt;Ipv4NetworkConfigurator</title>
<path fill="none" stroke="black" d="M271.46,-54.98C300.8,-46.05 347.1,-31.94 379.69,-22.02"/>
<polygon fill="black" stroke="black" points="380.78,-25.34 389.32,-19.08 378.74,-18.65 380.78,-25.34"/>
</g>
</g>
</svg>
