<?xml version="1.0" encoding="UTF-8" standalone="no"?>
<!DOCTYPE svg PUBLIC "-//W3C//DTD SVG 1.1//EN"
 "http://www.w3.org/Graphics/SVG/1.1/DTD/svg11.dtd">
<!-- Generated by graphviz version 2.43.0 (0)
 -->
<!-- Title: opp Pages: 1 -->
<svg width="535pt" height="82pt"
 viewBox="0.00 0.00 534.50 82.00" xmlns="http://www.w3.org/2000/svg" xmlns:xlink="http://www.w3.org/1999/xlink">
<g id="graph0" class="graph" transform="scale(1 1) rotate(0) translate(4 78)">
<title>opp</title>
<polygon fill="transparent" stroke="transparent" points="-4,4 -4,-78 530.5,-78 530.5,4 -4,4"/>
<!-- SelectivityService -->
<g id="node1" class="node">
<title>SelectivityService</title>
<g id="a_node1"><a xlink:href="inet.protocolelement.service.SelectivityService.html" xlink:title="Compound Module SelectivityService" target="_parent">
<polygon fill="#fff700" stroke="black" points="318.5,-74 214.5,-74 214.5,-55 318.5,-55 318.5,-74"/>
<text text-anchor="middle" x="266.5" y="-62" font-family="Helvetica,sans-Serif" font-size="10.00">SelectivityService</text>
</a>
</g>
</g>
<!-- SendToPort -->
<g id="node2" class="node">
<title>SendToPort</title>
<g id="a_node2"><a xlink:href="inet.protocolelement.selectivity.SendToPort.html" xlink:title="Simple Module SendToPort" target="_parent">
<polygon fill="#fffcaf" stroke="black" points="71,-19 0,-19 0,0 71,0 71,-19"/>
<text text-anchor="middle" x="35.5" y="-7" font-family="Helvetica,sans-Serif" font-size="10.00">SendToPort</text>
</a>
</g>
</g>
<!-- SelectivityService&#45;&gt;SendToPort -->
<g id="edge1" class="edge">
<title>SelectivityService&#45;&gt;SendToPort</title>
<path fill="none" stroke="black" d="M229.39,-54.98C189.01,-45.72 124.42,-30.9 81.01,-20.94"/>
<polygon fill="black" stroke="black" points="81.53,-17.47 71,-18.65 79.97,-24.29 81.53,-17.47"/>
</g>
<!-- SendToL3Address -->
<g id="node3" class="node">
<title>SendToL3Address</title>
<g id="a_node3"><a xlink:href="inet.protocolelement.selectivity.SendToL3Address.html" xlink:title="Simple Module SendToL3Address" target="_parent">
<polygon fill="#fffcaf" stroke="black" points="190,-19 89,-19 89,0 190,0 190,-19"/>
<text text-anchor="middle" x="139.5" y="-7" font-family="Helvetica,sans-Serif" font-size="10.00">SendToL3Address</text>
</a>
</g>
</g>
<!-- SelectivityService&#45;&gt;SendToL3Address -->
<g id="edge2" class="edge">
<title>SelectivityService&#45;&gt;SendToL3Address</title>
<path fill="none" stroke="black" d="M246.1,-54.98C225.48,-46.38 193.39,-32.99 169.81,-23.15"/>
<polygon fill="black" stroke="black" points="170.85,-19.79 160.28,-19.17 168.16,-26.25 170.85,-19.79"/>
</g>
<!-- ReceiveAtL3Address -->
<g id="node4" class="node">
<title>ReceiveAtL3Address</title>
<g id="a_node4"><a xlink:href="inet.protocolelement.selectivity.ReceiveAtL3Address.html" xlink:title="Simple Module ReceiveAtL3Address" target="_parent">
<polygon fill="#fffcaf" stroke="black" points="324.5,-19 208.5,-19 208.5,0 324.5,0 324.5,-19"/>
<text text-anchor="middle" x="266.5" y="-7" font-family="Helvetica,sans-Serif" font-size="10.00">ReceiveAtL3Address</text>
</a>
</g>
</g>
<!-- SelectivityService&#45;&gt;ReceiveAtL3Address -->
<g id="edge3" class="edge">
<title>SelectivityService&#45;&gt;ReceiveAtL3Address</title>
<path fill="none" stroke="black" d="M266.5,-54.75C266.5,-47.8 266.5,-37.85 266.5,-29.13"/>
<polygon fill="black" stroke="black" points="270,-29.09 266.5,-19.09 263,-29.09 270,-29.09"/>
</g>
<!-- IdealChannel -->
<g id="node5" class="node">
<title>IdealChannel</title>
<g id="a_node5"><a xlink:href="ned.IdealChannel.html" xlink:title="Channel IdealChannel" target="_parent">
<polygon fill="#d0ffd0" stroke="black" points="422.5,-19 342.5,-19 342.5,0 422.5,0 422.5,-19"/>
<text text-anchor="middle" x="382.5" y="-7" font-family="Helvetica,sans-Serif" font-size="10.00">IdealChannel</text>
</a>
</g>
</g>
<!-- SelectivityService&#45;&gt;IdealChannel -->
<g id="edge4" class="edge">
<title>SelectivityService&#45;&gt;IdealChannel</title>
<path fill="none" stroke="black" d="M285.14,-54.98C303.8,-46.46 332.75,-33.23 354.24,-23.41"/>
<polygon fill="black" stroke="black" points="355.88,-26.51 363.52,-19.17 352.97,-20.14 355.88,-26.51"/>
</g>
<!-- ReceiveAtPort -->
<g id="node6" class="node">
<title>ReceiveAtPort</title>
<g id="a_node6"><a xlink:href="inet.protocolelement.selectivity.ReceiveAtPort.html" xlink:title="Simple Module ReceiveAtPort" target="_parent">
<polygon fill="#fffcaf" stroke="black" points="526.5,-19 440.5,-19 440.5,0 526.5,0 526.5,-19"/>
<text text-anchor="middle" x="483.5" y="-7" font-family="Helvetica,sans-Serif" font-size="10.00">ReceiveAtPort</text>
</a>
</g>
</g>
<!-- SelectivityService&#45;&gt;ReceiveAtPort -->
<g id="edge5" class="edge">
<title>SelectivityService&#45;&gt;ReceiveAtPort</title>
<path fill="none" stroke="black" d="M301.36,-54.98C338.59,-45.89 397.7,-31.46 438.43,-21.51"/>
<polygon fill="black" stroke="black" points="439.48,-24.85 448.36,-19.08 437.82,-18.05 439.48,-24.85"/>
</g>
</g>
</svg>
