<?xml version="1.0" encoding="UTF-8" standalone="no"?>
<!DOCTYPE svg PUBLIC "-//W3C//DTD SVG 1.1//EN"
 "http://www.w3.org/Graphics/SVG/1.1/DTD/svg11.dtd">
<!-- Generated by graphviz version 2.43.0 (0)
 -->
<!-- Title: opp Pages: 1 -->
<svg width="448pt" height="137pt"
 viewBox="0.00 0.00 447.50 137.00" xmlns="http://www.w3.org/2000/svg" xmlns:xlink="http://www.w3.org/1999/xlink">
<g id="graph0" class="graph" transform="scale(1 1) rotate(0) translate(4 133)">
<title>opp</title>
<polygon fill="transparent" stroke="transparent" points="-4,4 -4,-133 443.5,-133 443.5,4 -4,4"/>
<!-- ServerHost4 -->
<g id="node1" class="node">
<title>ServerHost4</title>
<g id="a_node1"><a xlink:href="inet.tutorials.protocol.ServerHost4.html" xlink:title="Compound Module ServerHost4" target="_parent">
<polygon fill="#fff700" stroke="black" points="275,-74 198,-74 198,-55 275,-55 275,-74"/>
<text text-anchor="middle" x="236.5" y="-62" font-family="Helvetica,sans-Serif" font-size="10.00">ServerHost4</text>
</a>
</g>
</g>
<!-- FcsHeaderChecker -->
<g id="node2" class="node">
<title>FcsHeaderChecker</title>
<g id="a_node2"><a xlink:href="inet.protocolelement.checksum.FcsHeaderChecker.html" xlink:title="Simple Module FcsHeaderChecker" target="_parent">
<polygon fill="#fffcaf" stroke="black" points="107,-19 0,-19 0,0 107,0 107,-19"/>
<text text-anchor="middle" x="53.5" y="-7" font-family="Helvetica,sans-Serif" font-size="10.00">FcsHeaderChecker</text>
</a>
</g>
</g>
<!-- ServerHost4&#45;&gt;FcsHeaderChecker -->
<g id="edge1" class="edge">
<title>ServerHost4&#45;&gt;FcsHeaderChecker</title>
<path fill="none" stroke="black" d="M207.1,-54.98C176.11,-46.01 127.12,-31.82 92.83,-21.89"/>
<polygon fill="black" stroke="black" points="93.71,-18.5 83.13,-19.08 91.76,-25.23 93.71,-18.5"/>
</g>
<!-- PassivePacketSink -->
<g id="node3" class="node">
<title>PassivePacketSink</title>
<g id="a_node3"><a xlink:href="inet.queueing.sink.PassivePacketSink.html" xlink:title="Simple Module PassivePacketSink" target="_parent">
<polygon fill="#fffcaf" stroke="black" points="231.5,-19 125.5,-19 125.5,0 231.5,0 231.5,-19"/>
<text text-anchor="middle" x="178.5" y="-7" font-family="Helvetica,sans-Serif" font-size="10.00">PassivePacketSink</text>
</a>
</g>
</g>
<!-- ServerHost4&#45;&gt;PassivePacketSink -->
<g id="edge2" class="edge">
<title>ServerHost4&#45;&gt;PassivePacketSink</title>
<path fill="none" stroke="black" d="M227.18,-54.98C218.69,-47.23 205.94,-35.58 195.62,-26.14"/>
<polygon fill="black" stroke="black" points="197.73,-23.33 187.99,-19.17 193.01,-28.5 197.73,-23.33"/>
</g>
<!-- PacketReceiver -->
<g id="node4" class="node">
<title>PacketReceiver</title>
<g id="a_node4"><a xlink:href="inet.protocolelement.transceiver.PacketReceiver.html" xlink:title="Simple Module PacketReceiver" target="_parent">
<polygon fill="#fffcaf" stroke="black" points="341,-19 250,-19 250,0 341,0 341,-19"/>
<text text-anchor="middle" x="295.5" y="-7" font-family="Helvetica,sans-Serif" font-size="10.00">PacketReceiver</text>
</a>
</g>
</g>
<!-- ServerHost4&#45;&gt;PacketReceiver -->
<g id="edge3" class="edge">
<title>ServerHost4&#45;&gt;PacketReceiver</title>
<path fill="none" stroke="black" d="M245.98,-54.98C254.7,-47.15 267.84,-35.34 278.4,-25.86"/>
<polygon fill="black" stroke="black" points="280.75,-28.46 285.85,-19.17 276.07,-23.25 280.75,-28.46"/>
</g>
<!-- IdealChannel -->
<g id="node5" class="node">
<title>IdealChannel</title>
<g id="a_node5"><a xlink:href="ned.IdealChannel.html" xlink:title="Channel IdealChannel" target="_parent">
<polygon fill="#d0ffd0" stroke="black" points="439.5,-19 359.5,-19 359.5,0 439.5,0 439.5,-19"/>
<text text-anchor="middle" x="399.5" y="-7" font-family="Helvetica,sans-Serif" font-size="10.00">IdealChannel</text>
</a>
</g>
</g>
<!-- ServerHost4&#45;&gt;IdealChannel -->
<g id="edge4" class="edge">
<title>ServerHost4&#45;&gt;IdealChannel</title>
<path fill="none" stroke="black" d="M262.69,-54.98C289.94,-46.13 332.8,-32.19 363.28,-22.28"/>
<polygon fill="black" stroke="black" points="364.68,-25.5 373.11,-19.08 362.51,-18.85 364.68,-25.5"/>
</g>
<!-- Network4 -->
<g id="node6" class="node">
<title>Network4</title>
<g id="a_node6"><a xlink:href="inet.tutorials.protocol.Network4.html" xlink:title="Network Network4" target="_parent">
<polygon fill="#d0d0ff" stroke="black" points="268.5,-129 204.5,-129 204.5,-110 268.5,-110 268.5,-129"/>
<text text-anchor="middle" x="236.5" y="-117" font-family="Helvetica,sans-Serif" font-size="10.00">Network4</text>
</a>
</g>
</g>
<!-- Network4&#45;&gt;ServerHost4 -->
<g id="edge5" class="edge">
<title>Network4&#45;&gt;ServerHost4</title>
<path fill="none" stroke="black" d="M236.5,-109.75C236.5,-102.8 236.5,-92.85 236.5,-84.13"/>
<polygon fill="black" stroke="black" points="240,-84.09 236.5,-74.09 233,-84.09 240,-84.09"/>
</g>
</g>
</svg>
