<?xml version="1.0" encoding="UTF-8" standalone="no"?>
<!DOCTYPE svg PUBLIC "-//W3C//DTD SVG 1.1//EN"
 "http://www.w3.org/Graphics/SVG/1.1/DTD/svg11.dtd">
<!-- Generated by graphviz version 2.43.0 (0)
 -->
<!-- Title: opp Pages: 1 -->
<svg width="416pt" height="82pt"
 viewBox="0.00 0.00 416.00 82.00" xmlns="http://www.w3.org/2000/svg" xmlns:xlink="http://www.w3.org/1999/xlink">
<g id="graph0" class="graph" transform="scale(1 1) rotate(0) translate(4 78)">
<title>opp</title>
<polygon fill="transparent" stroke="transparent" points="-4,4 -4,-78 412,-78 412,4 -4,4"/>
<!-- IPacketFragmenter -->
<g id="node1" class="node">
<title>IPacketFragmenter</title>
<g id="a_node1"><a xlink:href="inet.protocolelement.fragmentation.contract.IPacketFragmenter.html" xlink:title="Module Interface IPacketFragmenter" target="_parent">
<polygon fill="#fff700" stroke="black" stroke-dasharray="5,2" points="271.5,-74 164.5,-74 164.5,-55 271.5,-55 271.5,-74"/>
<text text-anchor="middle" x="218" y="-62" font-family="Helvetica,sans-Serif" font-size="10.00">IPacketFragmenter</text>
</a>
</g>
</g>
<!-- FragmentNumberHeaderBasedFragmenter -->
<g id="node2" class="node">
<title>FragmentNumberHeaderBasedFragmenter</title>
<g id="a_node2"><a xlink:href="inet.protocolelement.fragmentation.FragmentNumberHeaderBasedFragmenter.html" xlink:title="Compound Module FragmentNumberHeaderBasedFragmenter" target="_parent">
<polygon fill="#fffcaf" stroke="black" points="224,-19 0,-19 0,0 224,0 224,-19"/>
<text text-anchor="middle" x="112" y="-7" font-family="Helvetica,sans-Serif" font-size="10.00">FragmentNumberHeaderBasedFragmenter</text>
</a>
</g>
</g>
<!-- IPacketFragmenter&#45;&gt;FragmentNumberHeaderBasedFragmenter -->
<g id="edge1" class="edge">
<title>IPacketFragmenter&#45;&gt;FragmentNumberHeaderBasedFragmenter</title>
<path fill="none" stroke="black" stroke-dasharray="5,2" d="M200.97,-54.98C181.31,-45.15 149.13,-29.07 129.34,-19.17"/>
</g>
<!-- FragmentTagBasedFragmenter -->
<g id="node3" class="node">
<title>FragmentTagBasedFragmenter</title>
<g id="a_node3"><a xlink:href="inet.protocolelement.fragmentation.FragmentTagBasedFragmenter.html" xlink:title="Compound Module FragmentTagBasedFragmenter" target="_parent">
<polygon fill="#fffcaf" stroke="black" points="408,-19 242,-19 242,0 408,0 408,-19"/>
<text text-anchor="middle" x="325" y="-7" font-family="Helvetica,sans-Serif" font-size="10.00">FragmentTagBasedFragmenter</text>
</a>
</g>
</g>
<!-- IPacketFragmenter&#45;&gt;FragmentTagBasedFragmenter -->
<g id="edge2" class="edge">
<title>IPacketFragmenter&#45;&gt;FragmentTagBasedFragmenter</title>
<path fill="none" stroke="black" stroke-dasharray="5,2" d="M235.19,-54.98C255.04,-45.15 287.52,-29.07 307.5,-19.17"/>
</g>
</g>
</svg>
