<?xml version="1.0" encoding="UTF-8" standalone="no"?>
<!DOCTYPE svg PUBLIC "-//W3C//DTD SVG 1.1//EN"
 "http://www.w3.org/Graphics/SVG/1.1/DTD/svg11.dtd">
<!-- Generated by graphviz version 2.43.0 (0)
 -->
<!-- Title: opp Pages: 1 -->
<svg width="169pt" height="137pt"
 viewBox="0.00 0.00 169.00 137.00" xmlns="http://www.w3.org/2000/svg" xmlns:xlink="http://www.w3.org/1999/xlink">
<g id="graph0" class="graph" transform="scale(1 1) rotate(0) translate(4 133)">
<title>opp</title>
<polygon fill="transparent" stroke="transparent" points="-4,4 -4,-133 165,-133 165,4 -4,4"/>
<!-- Ieee8021qCreditBasedGate -->
<g id="node1" class="node">
<title>Ieee8021qCreditBasedGate</title>
<g id="a_node1"><a xlink:href="inet.linklayer.ieee8021q.Ieee8021qCreditBasedGate.html" xlink:title="Simple Module Ieee8021qCreditBasedGate" target="_parent">
<polygon fill="#fff700" stroke="black" points="155.5,-74 5.5,-74 5.5,-55 155.5,-55 155.5,-74"/>
<text text-anchor="middle" x="80.5" y="-62" font-family="Helvetica,sans-Serif" font-size="10.00">Ieee8021qCreditBasedGate</text>
</a>
</g>
</g>
<!-- Ieee8021qCreditBasedShaper -->
<g id="node3" class="node">
<title>Ieee8021qCreditBasedShaper</title>
<g id="a_node3"><a xlink:href="inet.linklayer.ieee8021q.Ieee8021qCreditBasedShaper.html" xlink:title="Compound Module Ieee8021qCreditBasedShaper" target="_parent">
<polygon fill="#fffcaf" stroke="black" points="161,-19 0,-19 0,0 161,0 161,-19"/>
<text text-anchor="middle" x="80.5" y="-7" font-family="Helvetica,sans-Serif" font-size="10.00">Ieee8021qCreditBasedShaper</text>
</a>
</g>
</g>
<!-- Ieee8021qCreditBasedGate&#45;&gt;Ieee8021qCreditBasedShaper -->
<g id="edge2" class="edge">
<title>Ieee8021qCreditBasedGate&#45;&gt;Ieee8021qCreditBasedShaper</title>
<path fill="none" stroke="black" d="M80.5,-54.75C80.5,-44.87 80.5,-28.9 80.5,-19.09"/>
</g>
<!-- CreditBasedGate -->
<g id="node2" class="node">
<title>CreditBasedGate</title>
<g id="a_node2"><a xlink:href="inet.queueing.gate.CreditBasedGate.html" xlink:title="Simple Module CreditBasedGate" target="_parent">
<polygon fill="#fffcaf" stroke="black" points="130,-129 31,-129 31,-110 130,-110 130,-129"/>
<text text-anchor="middle" x="80.5" y="-117" font-family="Helvetica,sans-Serif" font-size="10.00">CreditBasedGate</text>
</a>
</g>
</g>
<!-- CreditBasedGate&#45;&gt;Ieee8021qCreditBasedGate -->
<g id="edge1" class="edge">
<title>CreditBasedGate&#45;&gt;Ieee8021qCreditBasedGate</title>
<path fill="none" stroke="black" d="M80.5,-109.75C80.5,-99.87 80.5,-83.9 80.5,-74.09"/>
</g>
</g>
</svg>
