<?xml version="1.0" encoding="UTF-8" standalone="no"?>
<!DOCTYPE svg PUBLIC "-//W3C//DTD SVG 1.1//EN"
 "http://www.w3.org/Graphics/SVG/1.1/DTD/svg11.dtd">
<!-- Generated by graphviz version 2.43.0 (0)
 -->
<!-- Title: opp Pages: 1 -->
<svg width="156pt" height="137pt"
 viewBox="0.00 0.00 156.00 137.00" xmlns="http://www.w3.org/2000/svg" xmlns:xlink="http://www.w3.org/1999/xlink">
<g id="graph0" class="graph" transform="scale(1 1) rotate(0) translate(4 133)">
<title>opp</title>
<polygon fill="transparent" stroke="transparent" points="-4,4 -4,-133 152,-133 152,4 -4,4"/>
<!-- SensorNode -->
<g id="node1" class="node">
<title>SensorNode</title>
<g id="a_node1"><a xlink:href="inet.node.inet.SensorNode.html" xlink:title="Compound Module SensorNode" target="_parent">
<polygon fill="#fff700" stroke="black" points="111.5,-74 36.5,-74 36.5,-55 111.5,-55 111.5,-74"/>
<text text-anchor="middle" x="74" y="-62" font-family="Helvetica,sans-Serif" font-size="10.00">SensorNode</text>
</a>
</g>
</g>
<!-- ManetSensorNode -->
<g id="node3" class="node">
<title>ManetSensorNode</title>
<g id="a_node3"><a xlink:href="inet.showcases.wireless.sensornetwork.ManetSensorNode.html" xlink:title="Compound Module ManetSensorNode" target="_parent">
<polygon fill="#fffcaf" stroke="black" points="127,-19 21,-19 21,0 127,0 127,-19"/>
<text text-anchor="middle" x="74" y="-7" font-family="Helvetica,sans-Serif" font-size="10.00">ManetSensorNode</text>
</a>
</g>
</g>
<!-- SensorNode&#45;&gt;ManetSensorNode -->
<g id="edge2" class="edge">
<title>SensorNode&#45;&gt;ManetSensorNode</title>
<path fill="none" stroke="black" d="M74,-54.75C74,-44.87 74,-28.9 74,-19.09"/>
</g>
<!-- ApplicationLayerNodeBase -->
<g id="node2" class="node">
<title>ApplicationLayerNodeBase</title>
<g id="a_node2"><a xlink:href="inet.node.base.ApplicationLayerNodeBase.html" xlink:title="Compound Module ApplicationLayerNodeBase" target="_parent">
<polygon fill="#fffcaf" stroke="black" points="148,-129 0,-129 0,-110 148,-110 148,-129"/>
<text text-anchor="middle" x="74" y="-117" font-family="Helvetica,sans-Serif" font-size="10.00">ApplicationLayerNodeBase</text>
</a>
</g>
</g>
<!-- ApplicationLayerNodeBase&#45;&gt;SensorNode -->
<g id="edge1" class="edge">
<title>ApplicationLayerNodeBase&#45;&gt;SensorNode</title>
<path fill="none" stroke="black" d="M74,-109.75C74,-99.87 74,-83.9 74,-74.09"/>
</g>
</g>
</svg>
