<?xml version="1.0" encoding="UTF-8" standalone="no"?>
<!DOCTYPE svg PUBLIC "-//W3C//DTD SVG 1.1//EN"
 "http://www.w3.org/Graphics/SVG/1.1/DTD/svg11.dtd">
<!-- Generated by graphviz version 2.43.0 (0)
 -->
<!-- Title: opp Pages: 1 -->
<svg width="338pt" height="82pt"
 viewBox="0.00 0.00 337.50 82.00" xmlns="http://www.w3.org/2000/svg" xmlns:xlink="http://www.w3.org/1999/xlink">
<g id="graph0" class="graph" transform="scale(1 1) rotate(0) translate(4 78)">
<title>opp</title>
<polygon fill="transparent" stroke="transparent" points="-4,4 -4,-78 333.5,-78 333.5,4 -4,4"/>
<!-- BurstyPacketProducer -->
<g id="node1" class="node">
<title>BurstyPacketProducer</title>
<g id="a_node1"><a xlink:href="inet.queueing.source.BurstyPacketProducer.html" xlink:title="Compound Module BurstyPacketProducer" target="_parent">
<polygon fill="#fff700" stroke="black" points="215,-74 93,-74 93,-55 215,-55 215,-74"/>
<text text-anchor="middle" x="154" y="-62" font-family="Helvetica,sans-Serif" font-size="10.00">BurstyPacketProducer</text>
</a>
</g>
</g>
<!-- IdealChannel -->
<g id="node2" class="node">
<title>IdealChannel</title>
<g id="a_node2"><a xlink:href="ned.IdealChannel.html" xlink:title="Channel IdealChannel" target="_parent">
<polygon fill="#d0ffd0" stroke="black" points="80,-19 0,-19 0,0 80,0 80,-19"/>
<text text-anchor="middle" x="40" y="-7" font-family="Helvetica,sans-Serif" font-size="10.00">IdealChannel</text>
</a>
</g>
</g>
<!-- BurstyPacketProducer&#45;&gt;IdealChannel -->
<g id="edge1" class="edge">
<title>BurstyPacketProducer&#45;&gt;IdealChannel</title>
<path fill="none" stroke="black" d="M135.68,-54.98C117.34,-46.46 88.89,-33.23 67.77,-23.41"/>
<polygon fill="black" stroke="black" points="69.19,-20.21 58.65,-19.17 66.24,-26.56 69.19,-20.21"/>
</g>
<!-- ActivePacketSource -->
<g id="node3" class="node">
<title>ActivePacketSource</title>
<g id="a_node3"><a xlink:href="inet.queueing.source.ActivePacketSource.html" xlink:title="Simple Module ActivePacketSource" target="_parent">
<polygon fill="#fffcaf" stroke="black" points="210,-19 98,-19 98,0 210,0 210,-19"/>
<text text-anchor="middle" x="154" y="-7" font-family="Helvetica,sans-Serif" font-size="10.00">ActivePacketSource</text>
</a>
</g>
</g>
<!-- BurstyPacketProducer&#45;&gt;ActivePacketSource -->
<g id="edge2" class="edge">
<title>BurstyPacketProducer&#45;&gt;ActivePacketSource</title>
<path fill="none" stroke="black" d="M154,-54.75C154,-47.8 154,-37.85 154,-29.13"/>
<polygon fill="black" stroke="black" points="157.5,-29.09 154,-19.09 150.5,-29.09 157.5,-29.09"/>
</g>
<!-- MarkovScheduler -->
<g id="node4" class="node">
<title>MarkovScheduler</title>
<g id="a_node4"><a xlink:href="inet.queueing.scheduler.MarkovScheduler.html" xlink:title="Simple Module MarkovScheduler" target="_parent">
<polygon fill="#fffcaf" stroke="black" points="329.5,-19 228.5,-19 228.5,0 329.5,0 329.5,-19"/>
<text text-anchor="middle" x="279" y="-7" font-family="Helvetica,sans-Serif" font-size="10.00">MarkovScheduler</text>
</a>
</g>
</g>
<!-- BurstyPacketProducer&#45;&gt;MarkovScheduler -->
<g id="edge3" class="edge">
<title>BurstyPacketProducer&#45;&gt;MarkovScheduler</title>
<path fill="none" stroke="black" d="M174.08,-54.98C194.37,-46.38 225.96,-32.99 249.17,-23.15"/>
<polygon fill="black" stroke="black" points="250.71,-26.3 258.55,-19.17 247.98,-19.85 250.71,-26.3"/>
</g>
</g>
</svg>
