<?xml version="1.0" encoding="UTF-8" standalone="no"?>
<!DOCTYPE svg PUBLIC "-//W3C//DTD SVG 1.1//EN"
 "http://www.w3.org/Graphics/SVG/1.1/DTD/svg11.dtd">
<!-- Generated by graphviz version 2.43.0 (0)
 -->
<!-- Title: opp Pages: 1 -->
<svg width="559pt" height="82pt"
 viewBox="0.00 0.00 558.50 82.00" xmlns="http://www.w3.org/2000/svg" xmlns:xlink="http://www.w3.org/1999/xlink">
<g id="graph0" class="graph" transform="scale(1 1) rotate(0) translate(4 78)">
<title>opp</title>
<polygon fill="transparent" stroke="transparent" points="-4,4 -4,-78 554.5,-78 554.5,4 -4,4"/>
<!-- EthernetApp -->
<g id="node1" class="node">
<title>EthernetApp</title>
<g id="a_node1"><a xlink:href="inet.applications.ethernet.EthernetApp.html" xlink:title="Compound Module EthernetApp" target="_parent">
<polygon fill="#fff700" stroke="black" points="308,-74 231,-74 231,-55 308,-55 308,-74"/>
<text text-anchor="middle" x="269.5" y="-62" font-family="Helvetica,sans-Serif" font-size="10.00">EthernetApp</text>
</a>
</g>
</g>
<!-- IPassivePacketSink -->
<g id="node2" class="node">
<title>IPassivePacketSink</title>
<g id="a_node2"><a xlink:href="inet.queueing.contract.IPassivePacketSink.html" xlink:title="Module Interface IPassivePacketSink" target="_parent">
<polygon fill="#fffcaf" stroke="black" stroke-dasharray="5,2" points="109,-19 0,-19 0,0 109,0 109,-19"/>
<text text-anchor="middle" x="54.5" y="-7" font-family="Helvetica,sans-Serif" font-size="10.00">IPassivePacketSink</text>
</a>
</g>
</g>
<!-- EthernetApp&#45;&gt;IPassivePacketSink -->
<g id="edge1" class="edge">
<title>EthernetApp&#45;&gt;IPassivePacketSink</title>
<path fill="none" stroke="black" d="M234.96,-54.98C198.08,-45.89 139.51,-31.46 99.16,-21.51"/>
<polygon fill="black" stroke="black" points="99.86,-18.08 89.31,-19.08 98.19,-24.87 99.86,-18.08"/>
</g>
<!-- IPacketFlow -->
<g id="node3" class="node">
<title>IPacketFlow</title>
<g id="a_node3"><a xlink:href="inet.queueing.contract.IPacketFlow.html" xlink:title="Module Interface IPacketFlow" target="_parent">
<polygon fill="#fffcaf" stroke="black" stroke-dasharray="5,2" points="201.5,-19 127.5,-19 127.5,0 201.5,0 201.5,-19"/>
<text text-anchor="middle" x="164.5" y="-7" font-family="Helvetica,sans-Serif" font-size="10.00">IPacketFlow</text>
</a>
</g>
</g>
<!-- EthernetApp&#45;&gt;IPacketFlow -->
<g id="edge2" class="edge">
<title>EthernetApp&#45;&gt;IPacketFlow</title>
<path fill="none" stroke="black" d="M252.63,-54.98C235.89,-46.54 210,-33.47 190.61,-23.68"/>
<polygon fill="black" stroke="black" points="192.18,-20.55 181.68,-19.17 189.03,-26.8 192.18,-20.55"/>
</g>
<!-- EthernetSocketIo -->
<g id="node4" class="node">
<title>EthernetSocketIo</title>
<g id="a_node4"><a xlink:href="inet.applications.ethernet.EthernetSocketIo.html" xlink:title="Simple Module EthernetSocketIo" target="_parent">
<polygon fill="#fffcaf" stroke="black" points="319,-19 220,-19 220,0 319,0 319,-19"/>
<text text-anchor="middle" x="269.5" y="-7" font-family="Helvetica,sans-Serif" font-size="10.00">EthernetSocketIo</text>
</a>
</g>
</g>
<!-- EthernetApp&#45;&gt;EthernetSocketIo -->
<g id="edge3" class="edge">
<title>EthernetApp&#45;&gt;EthernetSocketIo</title>
<path fill="none" stroke="black" d="M269.5,-54.75C269.5,-47.8 269.5,-37.85 269.5,-29.13"/>
<polygon fill="black" stroke="black" points="273,-29.09 269.5,-19.09 266,-29.09 273,-29.09"/>
</g>
<!-- IActivePacketSource -->
<g id="node5" class="node">
<title>IActivePacketSource</title>
<g id="a_node5"><a xlink:href="inet.queueing.contract.IActivePacketSource.html" xlink:title="Module Interface IActivePacketSource" target="_parent">
<polygon fill="#fffcaf" stroke="black" stroke-dasharray="5,2" points="452,-19 337,-19 337,0 452,0 452,-19"/>
<text text-anchor="middle" x="394.5" y="-7" font-family="Helvetica,sans-Serif" font-size="10.00">IActivePacketSource</text>
</a>
</g>
</g>
<!-- EthernetApp&#45;&gt;IActivePacketSource -->
<g id="edge4" class="edge">
<title>EthernetApp&#45;&gt;IActivePacketSource</title>
<path fill="none" stroke="black" d="M289.58,-54.98C309.87,-46.38 341.46,-32.99 364.67,-23.15"/>
<polygon fill="black" stroke="black" points="366.21,-26.3 374.05,-19.17 363.48,-19.85 366.21,-26.3"/>
</g>
<!-- IdealChannel -->
<g id="node6" class="node">
<title>IdealChannel</title>
<g id="a_node6"><a xlink:href="ned.IdealChannel.html" xlink:title="Channel IdealChannel" target="_parent">
<polygon fill="#d0ffd0" stroke="black" points="550.5,-19 470.5,-19 470.5,0 550.5,0 550.5,-19"/>
<text text-anchor="middle" x="510.5" y="-7" font-family="Helvetica,sans-Serif" font-size="10.00">IdealChannel</text>
</a>
</g>
</g>
<!-- EthernetApp&#45;&gt;IdealChannel -->
<g id="edge5" class="edge">
<title>EthernetApp&#45;&gt;IdealChannel</title>
<path fill="none" stroke="black" d="M308.22,-54.98C349.91,-45.82 416.32,-31.21 461.59,-21.26"/>
<polygon fill="black" stroke="black" points="462.46,-24.65 471.48,-19.08 460.96,-17.81 462.46,-24.65"/>
</g>
</g>
</svg>
