<?xml version="1.0" encoding="UTF-8" standalone="no"?>
<!DOCTYPE svg PUBLIC "-//W3C//DTD SVG 1.1//EN"
 "http://www.w3.org/Graphics/SVG/1.1/DTD/svg11.dtd">
<!-- Generated by graphviz version 2.43.0 (0)
 -->
<!-- Title: opp Pages: 1 -->
<svg width="508pt" height="82pt"
 viewBox="0.00 0.00 508.00 82.00" xmlns="http://www.w3.org/2000/svg" xmlns:xlink="http://www.w3.org/1999/xlink">
<g id="graph0" class="graph" transform="scale(1 1) rotate(0) translate(4 78)">
<title>opp</title>
<polygon fill="transparent" stroke="transparent" points="-4,4 -4,-78 504,-78 504,4 -4,4"/>
<!-- Ieee80211LevelofDetailShowcase -->
<g id="node1" class="node">
<title>Ieee80211LevelofDetailShowcase</title>
<g id="a_node1"><a xlink:href="inet.examples.wireless.ieee80211levelofdetail.Ieee80211LevelofDetailShowcase.html" xlink:title="Network Ieee80211LevelofDetailShowcase" target="_parent">
<polygon fill="#9090ff" stroke="black" points="352.5,-74 170.5,-74 170.5,-55 352.5,-55 352.5,-74"/>
<text text-anchor="middle" x="261.5" y="-62" font-family="Helvetica,sans-Serif" font-size="10.00">Ieee80211LevelofDetailShowcase</text>
</a>
</g>
</g>
<!-- IRadioMedium -->
<g id="node2" class="node">
<title>IRadioMedium</title>
<g id="a_node2"><a xlink:href="inet.physicallayer.wireless.common.contract.packetlevel.IRadioMedium.html" xlink:title="Module Interface IRadioMedium" target="_parent">
<polygon fill="#fffcaf" stroke="black" stroke-dasharray="5,2" points="87,-19 0,-19 0,0 87,0 87,-19"/>
<text text-anchor="middle" x="43.5" y="-7" font-family="Helvetica,sans-Serif" font-size="10.00">IRadioMedium</text>
</a>
</g>
</g>
<!-- Ieee80211LevelofDetailShowcase&#45;&gt;IRadioMedium -->
<g id="edge1" class="edge">
<title>Ieee80211LevelofDetailShowcase&#45;&gt;IRadioMedium</title>
<path fill="none" stroke="black" d="M226.47,-54.98C189,-45.87 129.45,-31.4 88.52,-21.45"/>
<polygon fill="black" stroke="black" points="89.34,-18.04 78.8,-19.08 87.69,-24.85 89.34,-18.04"/>
</g>
<!-- IntegratedCanvasVisualizer -->
<g id="node3" class="node">
<title>IntegratedCanvasVisualizer</title>
<g id="a_node3"><a xlink:href="inet.visualizer.canvas.integrated.IntegratedCanvasVisualizer.html" xlink:title="Compound Module IntegratedCanvasVisualizer" target="_parent">
<polygon fill="#fffcaf" stroke="black" points="256,-19 105,-19 105,0 256,0 256,-19"/>
<text text-anchor="middle" x="180.5" y="-7" font-family="Helvetica,sans-Serif" font-size="10.00">IntegratedCanvasVisualizer</text>
</a>
</g>
</g>
<!-- Ieee80211LevelofDetailShowcase&#45;&gt;IntegratedCanvasVisualizer -->
<g id="edge2" class="edge">
<title>Ieee80211LevelofDetailShowcase&#45;&gt;IntegratedCanvasVisualizer</title>
<path fill="none" stroke="black" d="M248.49,-54.98C236.04,-46.84 217.04,-34.41 202.29,-24.76"/>
<polygon fill="black" stroke="black" points="204.04,-21.72 193.75,-19.17 200.2,-27.57 204.04,-21.72"/>
</g>
<!-- Ipv4NetworkConfigurator -->
<g id="node4" class="node">
<title>Ipv4NetworkConfigurator</title>
<g id="a_node4"><a xlink:href="inet.networklayer.configurator.ipv4.Ipv4NetworkConfigurator.html" xlink:title="Simple Module Ipv4NetworkConfigurator" target="_parent">
<polygon fill="#fffcaf" stroke="black" points="413,-19 274,-19 274,0 413,0 413,-19"/>
<text text-anchor="middle" x="343.5" y="-7" font-family="Helvetica,sans-Serif" font-size="10.00">Ipv4NetworkConfigurator</text>
</a>
</g>
</g>
<!-- Ieee80211LevelofDetailShowcase&#45;&gt;Ipv4NetworkConfigurator -->
<g id="edge3" class="edge">
<title>Ieee80211LevelofDetailShowcase&#45;&gt;Ipv4NetworkConfigurator</title>
<path fill="none" stroke="black" d="M274.67,-54.98C287.27,-46.84 306.5,-34.41 321.44,-24.76"/>
<polygon fill="black" stroke="black" points="323.59,-27.54 330.09,-19.17 319.79,-21.66 323.59,-27.54"/>
</g>
<!-- AdhocHost -->
<g id="node5" class="node">
<title>AdhocHost</title>
<g id="a_node5"><a xlink:href="inet.node.inet.AdhocHost.html" xlink:title="Compound Module AdhocHost" target="_parent">
<polygon fill="#fffcaf" stroke="black" points="500,-19 431,-19 431,0 500,0 500,-19"/>
<text text-anchor="middle" x="465.5" y="-7" font-family="Helvetica,sans-Serif" font-size="10.00">AdhocHost</text>
</a>
</g>
</g>
<!-- Ieee80211LevelofDetailShowcase&#45;&gt;AdhocHost -->
<g id="edge4" class="edge">
<title>Ieee80211LevelofDetailShowcase&#45;&gt;AdhocHost</title>
<path fill="none" stroke="black" d="M294.28,-54.98C329.12,-45.93 384.37,-31.58 422.64,-21.64"/>
<polygon fill="black" stroke="black" points="423.67,-24.98 432.47,-19.08 421.91,-18.21 423.67,-24.98"/>
</g>
</g>
</svg>
