<?xml version="1.0" encoding="UTF-8" standalone="no"?>
<!DOCTYPE svg PUBLIC "-//W3C//DTD SVG 1.1//EN"
 "http://www.w3.org/Graphics/SVG/1.1/DTD/svg11.dtd">
<!-- Generated by graphviz version 2.43.0 (0)
 -->
<!-- Title: opp Pages: 1 -->
<svg width="229pt" height="82pt"
 viewBox="0.00 0.00 229.00 82.00" xmlns="http://www.w3.org/2000/svg" xmlns:xlink="http://www.w3.org/1999/xlink">
<g id="graph0" class="graph" transform="scale(1 1) rotate(0) translate(4 78)">
<title>opp</title>
<polygon fill="transparent" stroke="transparent" points="-4,4 -4,-78 225,-78 225,4 -4,4"/>
<!-- TransmissionTimeMeasurementShowcase -->
<g id="node1" class="node">
<title>TransmissionTimeMeasurementShowcase</title>
<g id="a_node1"><a xlink:href="inet.showcases.measurement.transmissiontime.TransmissionTimeMeasurementShowcase.html" xlink:title="Network TransmissionTimeMeasurementShowcase" target="_parent">
<polygon fill="#9090ff" stroke="black" points="221,-74 0,-74 0,-55 221,-55 221,-74"/>
<text text-anchor="middle" x="110.5" y="-62" font-family="Helvetica,sans-Serif" font-size="10.00">TransmissionTimeMeasurementShowcase</text>
</a>
</g>
</g>
<!-- StandardHost -->
<g id="node2" class="node">
<title>StandardHost</title>
<g id="a_node2"><a xlink:href="inet.node.inet.StandardHost.html" xlink:title="Compound Module StandardHost" target="_parent">
<polygon fill="#fffcaf" stroke="black" points="108,-19 25,-19 25,0 108,0 108,-19"/>
<text text-anchor="middle" x="66.5" y="-7" font-family="Helvetica,sans-Serif" font-size="10.00">StandardHost</text>
</a>
</g>
</g>
<!-- TransmissionTimeMeasurementShowcase&#45;&gt;StandardHost -->
<g id="edge1" class="edge">
<title>TransmissionTimeMeasurementShowcase&#45;&gt;StandardHost</title>
<path fill="none" stroke="black" d="M103.23,-54.75C96.96,-47.18 87.71,-36.05 80.07,-26.84"/>
<polygon fill="black" stroke="black" points="82.71,-24.55 73.63,-19.09 77.33,-29.02 82.71,-24.55"/>
</g>
<!-- Eth100M -->
<g id="node3" class="node">
<title>Eth100M</title>
<g id="a_node3"><a xlink:href="inet.node.ethernet.Eth100M.html" xlink:title="Channel Eth100M" target="_parent">
<polygon fill="#d0ffd0" stroke="black" points="185,-19 126,-19 126,0 185,0 185,-19"/>
<text text-anchor="middle" x="155.5" y="-7" font-family="Helvetica,sans-Serif" font-size="10.00">Eth100M</text>
</a>
</g>
</g>
<!-- TransmissionTimeMeasurementShowcase&#45;&gt;Eth100M -->
<g id="edge2" class="edge">
<title>TransmissionTimeMeasurementShowcase&#45;&gt;Eth100M</title>
<path fill="none" stroke="black" d="M117.93,-54.75C124.35,-47.18 133.81,-36.05 141.62,-26.84"/>
<polygon fill="black" stroke="black" points="144.4,-28.98 148.21,-19.09 139.07,-24.45 144.4,-28.98"/>
</g>
</g>
</svg>
