<?xml version="1.0" encoding="UTF-8" standalone="no"?>
<!DOCTYPE svg PUBLIC "-//W3C//DTD SVG 1.1//EN"
 "http://www.w3.org/Graphics/SVG/1.1/DTD/svg11.dtd">
<!-- Generated by graphviz version 2.43.0 (0)
 -->
<!-- Title: opp Pages: 1 -->
<svg width="220pt" height="82pt"
 viewBox="0.00 0.00 220.00 82.00" xmlns="http://www.w3.org/2000/svg" xmlns:xlink="http://www.w3.org/1999/xlink">
<g id="graph0" class="graph" transform="scale(1 1) rotate(0) translate(4 78)">
<title>opp</title>
<polygon fill="transparent" stroke="transparent" points="-4,4 -4,-78 216,-78 216,4 -4,4"/>
<!-- MyStandardHost -->
<g id="node1" class="node">
<title>MyStandardHost</title>
<g id="a_node1"><a xlink:href="inet.showcases.measurement.flow.MyStandardHost.html" xlink:title="Compound Module MyStandardHost" target="_parent">
<polygon fill="#fff700" stroke="black" points="163,-74 65,-74 65,-55 163,-55 163,-74"/>
<text text-anchor="middle" x="114" y="-62" font-family="Helvetica,sans-Serif" font-size="10.00">MyStandardHost</text>
</a>
</g>
</g>
<!-- IMeasurementLayer -->
<g id="node2" class="node">
<title>IMeasurementLayer</title>
<g id="a_node2"><a xlink:href="inet.protocolelement.measurement.IMeasurementLayer.html" xlink:title="Module Interface IMeasurementLayer" target="_parent">
<polygon fill="#fffcaf" stroke="black" stroke-dasharray="5,2" points="114,-19 0,-19 0,0 114,0 114,-19"/>
<text text-anchor="middle" x="57" y="-7" font-family="Helvetica,sans-Serif" font-size="10.00">IMeasurementLayer</text>
</a>
</g>
</g>
<!-- MyStandardHost&#45;&gt;IMeasurementLayer -->
<g id="edge1" class="edge">
<title>MyStandardHost&#45;&gt;IMeasurementLayer</title>
<path fill="none" stroke="black" d="M104.84,-54.98C96.5,-47.23 83.97,-35.58 73.82,-26.14"/>
<polygon fill="black" stroke="black" points="76.03,-23.42 66.32,-19.17 71.26,-28.54 76.03,-23.42"/>
</g>
<!-- IdealChannel -->
<g id="node3" class="node">
<title>IdealChannel</title>
<g id="a_node3"><a xlink:href="ned.IdealChannel.html" xlink:title="Channel IdealChannel" target="_parent">
<polygon fill="#d0ffd0" stroke="black" points="212,-19 132,-19 132,0 212,0 212,-19"/>
<text text-anchor="middle" x="172" y="-7" font-family="Helvetica,sans-Serif" font-size="10.00">IdealChannel</text>
</a>
</g>
</g>
<!-- MyStandardHost&#45;&gt;IdealChannel -->
<g id="edge2" class="edge">
<title>MyStandardHost&#45;&gt;IdealChannel</title>
<path fill="none" stroke="black" d="M123.32,-54.98C131.81,-47.23 144.56,-35.58 154.88,-26.14"/>
<polygon fill="black" stroke="black" points="157.49,-28.5 162.51,-19.17 152.77,-23.33 157.49,-28.5"/>
</g>
</g>
</svg>
