<?xml version="1.0" encoding="UTF-8" standalone="no"?>
<!DOCTYPE svg PUBLIC "-//W3C//DTD SVG 1.1//EN"
 "http://www.w3.org/Graphics/SVG/1.1/DTD/svg11.dtd">
<!-- Generated by graphviz version 2.43.0 (0)
 -->
<!-- Title: opp Pages: 1 -->
<svg width="562pt" height="82pt"
 viewBox="0.00 0.00 562.00 82.00" xmlns="http://www.w3.org/2000/svg" xmlns:xlink="http://www.w3.org/1999/xlink">
<g id="graph0" class="graph" transform="scale(1 1) rotate(0) translate(4 78)">
<title>opp</title>
<polygon fill="transparent" stroke="transparent" points="-4,4 -4,-78 558,-78 558,4 -4,4"/>
<!-- MediumActivityDisplayingSignalsTransmissionsReceptionsShowcase -->
<g id="node1" class="node">
<title>MediumActivityDisplayingSignalsTransmissionsReceptionsShowcase</title>
<g id="a_node1"><a xlink:href="inet.showcases.visualizer.canvas.radiomediumactivity.MediumActivityDisplayingSignalsTransmissionsReceptionsShowcase.html" xlink:title="Network MediumActivityDisplayingSignalsTransmissionsReceptionsShowcase" target="_parent">
<polygon fill="#9090ff" stroke="black" points="462,-74 109,-74 109,-55 462,-55 462,-74"/>
<text text-anchor="middle" x="285.5" y="-62" font-family="Helvetica,sans-Serif" font-size="10.00">MediumActivityDisplayingSignalsTransmissionsReceptionsShowcase</text>
</a>
</g>
</g>
<!-- IntegratedVisualizer -->
<g id="node2" class="node">
<title>IntegratedVisualizer</title>
<g id="a_node2"><a xlink:href="inet.visualizer.common.IntegratedVisualizer.html" xlink:title="Compound Module IntegratedVisualizer" target="_parent">
<polygon fill="#fffcaf" stroke="black" points="115,-19 0,-19 0,0 115,0 115,-19"/>
<text text-anchor="middle" x="57.5" y="-7" font-family="Helvetica,sans-Serif" font-size="10.00">IntegratedVisualizer</text>
</a>
</g>
</g>
<!-- MediumActivityDisplayingSignalsTransmissionsReceptionsShowcase&#45;&gt;IntegratedVisualizer -->
<g id="edge1" class="edge">
<title>MediumActivityDisplayingSignalsTransmissionsReceptionsShowcase&#45;&gt;IntegratedVisualizer</title>
<path fill="none" stroke="black" d="M248.87,-54.98C209.59,-45.86 147.13,-31.33 104.31,-21.38"/>
<polygon fill="black" stroke="black" points="104.95,-17.94 94.42,-19.08 103.37,-24.76 104.95,-17.94"/>
</g>
<!-- Ieee80211ScalarRadioMedium -->
<g id="node3" class="node">
<title>Ieee80211ScalarRadioMedium</title>
<g id="a_node3"><a xlink:href="inet.physicallayer.wireless.ieee80211.packetlevel.Ieee80211ScalarRadioMedium.html" xlink:title="Compound Module Ieee80211ScalarRadioMedium" target="_parent">
<polygon fill="#fffcaf" stroke="black" points="298,-19 133,-19 133,0 298,0 298,-19"/>
<text text-anchor="middle" x="215.5" y="-7" font-family="Helvetica,sans-Serif" font-size="10.00">Ieee80211ScalarRadioMedium</text>
</a>
</g>
</g>
<!-- MediumActivityDisplayingSignalsTransmissionsReceptionsShowcase&#45;&gt;Ieee80211ScalarRadioMedium -->
<g id="edge2" class="edge">
<title>MediumActivityDisplayingSignalsTransmissionsReceptionsShowcase&#45;&gt;Ieee80211ScalarRadioMedium</title>
<path fill="none" stroke="black" d="M274.25,-54.98C263.7,-47 247.7,-34.88 235.06,-25.31"/>
<polygon fill="black" stroke="black" points="237.04,-22.42 226.95,-19.17 232.81,-28 237.04,-22.42"/>
</g>
<!-- WirelessHost -->
<g id="node4" class="node">
<title>WirelessHost</title>
<g id="a_node4"><a xlink:href="inet.node.inet.WirelessHost.html" xlink:title="Compound Module WirelessHost" target="_parent">
<polygon fill="#fffcaf" stroke="black" points="397,-19 316,-19 316,0 397,0 397,-19"/>
<text text-anchor="middle" x="356.5" y="-7" font-family="Helvetica,sans-Serif" font-size="10.00">WirelessHost</text>
</a>
</g>
</g>
<!-- MediumActivityDisplayingSignalsTransmissionsReceptionsShowcase&#45;&gt;WirelessHost -->
<g id="edge3" class="edge">
<title>MediumActivityDisplayingSignalsTransmissionsReceptionsShowcase&#45;&gt;WirelessHost</title>
<path fill="none" stroke="black" d="M296.91,-54.98C307.61,-47 323.84,-34.88 336.66,-25.31"/>
<polygon fill="black" stroke="black" points="338.97,-27.96 344.89,-19.17 334.78,-22.35 338.97,-27.96"/>
</g>
<!-- Ipv4NetworkConfigurator -->
<g id="node5" class="node">
<title>Ipv4NetworkConfigurator</title>
<g id="a_node5"><a xlink:href="inet.networklayer.configurator.ipv4.Ipv4NetworkConfigurator.html" xlink:title="Simple Module Ipv4NetworkConfigurator" target="_parent">
<polygon fill="#fffcaf" stroke="black" points="554,-19 415,-19 415,0 554,0 554,-19"/>
<text text-anchor="middle" x="484.5" y="-7" font-family="Helvetica,sans-Serif" font-size="10.00">Ipv4NetworkConfigurator</text>
</a>
</g>
</g>
<!-- MediumActivityDisplayingSignalsTransmissionsReceptionsShowcase&#45;&gt;Ipv4NetworkConfigurator -->
<g id="edge4" class="edge">
<title>MediumActivityDisplayingSignalsTransmissionsReceptionsShowcase&#45;&gt;Ipv4NetworkConfigurator</title>
<path fill="none" stroke="black" d="M317.47,-54.98C351.32,-45.97 404.9,-31.7 442.21,-21.76"/>
<polygon fill="black" stroke="black" points="443.51,-25.04 452.28,-19.08 441.71,-18.27 443.51,-25.04"/>
</g>
</g>
</svg>
