<?xml version="1.0" encoding="UTF-8" standalone="no"?>
<!DOCTYPE svg PUBLIC "-//W3C//DTD SVG 1.1//EN"
 "http://www.w3.org/Graphics/SVG/1.1/DTD/svg11.dtd">
<!-- Generated by graphviz version 2.43.0 (0)
 -->
<!-- Title: opp Pages: 1 -->
<svg width="160pt" height="137pt"
 viewBox="0.00 0.00 160.00 137.00" xmlns="http://www.w3.org/2000/svg" xmlns:xlink="http://www.w3.org/1999/xlink">
<g id="graph0" class="graph" transform="scale(1 1) rotate(0) translate(4 133)">
<title>opp</title>
<polygon fill="transparent" stroke="transparent" points="-4,4 -4,-133 156,-133 156,4 -4,4"/>
<!-- DsdvRouter -->
<g id="node1" class="node">
<title>DsdvRouter</title>
<g id="a_node1"><a xlink:href="inet.node.dsdv.DsdvRouter.html" xlink:title="Compound Module DsdvRouter" target="_parent">
<polygon fill="#fff700" stroke="black" points="119,-74 45,-74 45,-55 119,-55 119,-74"/>
<text text-anchor="middle" x="82" y="-62" font-family="Helvetica,sans-Serif" font-size="10.00">DsdvRouter</text>
</a>
</g>
</g>
<!-- IdealChannel -->
<g id="node2" class="node">
<title>IdealChannel</title>
<g id="a_node2"><a xlink:href="ned.IdealChannel.html" xlink:title="Channel IdealChannel" target="_parent">
<polygon fill="#d0ffd0" stroke="black" points="80,-19 0,-19 0,0 80,0 80,-19"/>
<text text-anchor="middle" x="40" y="-7" font-family="Helvetica,sans-Serif" font-size="10.00">IdealChannel</text>
</a>
</g>
</g>
<!-- DsdvRouter&#45;&gt;IdealChannel -->
<g id="edge1" class="edge">
<title>DsdvRouter&#45;&gt;IdealChannel</title>
<path fill="none" stroke="black" d="M75.06,-54.75C69.13,-47.26 60.43,-36.28 53.18,-27.13"/>
<polygon fill="black" stroke="black" points="55.76,-24.75 46.81,-19.09 50.27,-29.1 55.76,-24.75"/>
</g>
<!-- Dsdv -->
<g id="node3" class="node">
<title>Dsdv</title>
<g id="a_node3"><a xlink:href="inet.routing.dsdv.Dsdv.html" xlink:title="Simple Module Dsdv" target="_parent">
<polygon fill="#fffcaf" stroke="black" points="152,-19 98,-19 98,0 152,0 152,-19"/>
<text text-anchor="middle" x="125" y="-7" font-family="Helvetica,sans-Serif" font-size="10.00">Dsdv</text>
</a>
</g>
</g>
<!-- DsdvRouter&#45;&gt;Dsdv -->
<g id="edge2" class="edge">
<title>DsdvRouter&#45;&gt;Dsdv</title>
<path fill="none" stroke="black" d="M89.1,-54.75C95.17,-47.26 104.09,-36.28 111.51,-27.13"/>
<polygon fill="black" stroke="black" points="114.45,-29.06 118.03,-19.09 109.01,-24.65 114.45,-29.06"/>
</g>
<!-- DsdvNetwork -->
<g id="node4" class="node">
<title>DsdvNetwork</title>
<g id="a_node4"><a xlink:href="inet.examples.manetrouting.dsdv.DsdvNetwork.html" xlink:title="Network DsdvNetwork" target="_parent">
<polygon fill="#d0d0ff" stroke="black" points="123.5,-129 40.5,-129 40.5,-110 123.5,-110 123.5,-129"/>
<text text-anchor="middle" x="82" y="-117" font-family="Helvetica,sans-Serif" font-size="10.00">DsdvNetwork</text>
</a>
</g>
</g>
<!-- DsdvNetwork&#45;&gt;DsdvRouter -->
<g id="edge3" class="edge">
<title>DsdvNetwork&#45;&gt;DsdvRouter</title>
<path fill="none" stroke="black" d="M82,-109.75C82,-102.8 82,-92.85 82,-84.13"/>
<polygon fill="black" stroke="black" points="85.5,-84.09 82,-74.09 78.5,-84.09 85.5,-84.09"/>
</g>
</g>
</svg>
