<?xml version="1.0" encoding="UTF-8" standalone="no"?>
<!DOCTYPE svg PUBLIC "-//W3C//DTD SVG 1.1//EN"
 "http://www.w3.org/Graphics/SVG/1.1/DTD/svg11.dtd">
<!-- Generated by graphviz version 2.43.0 (0)
 -->
<!-- Title: opp Pages: 1 -->
<svg width="742pt" height="137pt"
 viewBox="0.00 0.00 742.00 137.00" xmlns="http://www.w3.org/2000/svg" xmlns:xlink="http://www.w3.org/1999/xlink">
<g id="graph0" class="graph" transform="scale(1 1) rotate(0) translate(4 133)">
<title>opp</title>
<polygon fill="transparent" stroke="transparent" points="-4,4 -4,-133 738,-133 738,4 -4,4"/>
<!-- ReceiverHost -->
<g id="node1" class="node">
<title>ReceiverHost</title>
<g id="a_node1"><a xlink:href="inet.tutorials.protocol.ReceiverHost.html" xlink:title="Compound Module ReceiverHost" target="_parent">
<polygon fill="#fff700" stroke="black" points="426,-74 344,-74 344,-55 426,-55 426,-74"/>
<text text-anchor="middle" x="385" y="-62" font-family="Helvetica,sans-Serif" font-size="10.00">ReceiverHost</text>
</a>
</g>
</g>
<!-- ContentBasedClassifier -->
<g id="node2" class="node">
<title>ContentBasedClassifier</title>
<g id="a_node2"><a xlink:href="inet.queueing.classifier.ContentBasedClassifier.html" xlink:title="Simple Module ContentBasedClassifier" target="_parent">
<polygon fill="#fffcaf" stroke="black" points="130,-19 0,-19 0,0 130,0 130,-19"/>
<text text-anchor="middle" x="65" y="-7" font-family="Helvetica,sans-Serif" font-size="10.00">ContentBasedClassifier</text>
</a>
</g>
</g>
<!-- ReceiverHost&#45;&gt;ContentBasedClassifier -->
<g id="edge1" class="edge">
<title>ReceiverHost&#45;&gt;ContentBasedClassifier</title>
<path fill="none" stroke="black" d="M343.82,-56.68C288.62,-47.54 190.2,-31.24 126.28,-20.65"/>
<polygon fill="black" stroke="black" points="126.76,-17.18 116.33,-19 125.62,-24.09 126.76,-17.18"/>
</g>
<!-- FcsHeaderChecker -->
<g id="node3" class="node">
<title>FcsHeaderChecker</title>
<g id="a_node3"><a xlink:href="inet.protocolelement.checksum.FcsHeaderChecker.html" xlink:title="Simple Module FcsHeaderChecker" target="_parent">
<polygon fill="#fffcaf" stroke="black" points="255.5,-19 148.5,-19 148.5,0 255.5,0 255.5,-19"/>
<text text-anchor="middle" x="202" y="-7" font-family="Helvetica,sans-Serif" font-size="10.00">FcsHeaderChecker</text>
</a>
</g>
</g>
<!-- ReceiverHost&#45;&gt;FcsHeaderChecker -->
<g id="edge2" class="edge">
<title>ReceiverHost&#45;&gt;FcsHeaderChecker</title>
<path fill="none" stroke="black" d="M355.6,-54.98C324.61,-46.01 275.62,-31.82 241.33,-21.89"/>
<polygon fill="black" stroke="black" points="242.21,-18.5 231.63,-19.08 240.26,-25.23 242.21,-18.5"/>
</g>
<!-- PassivePacketSink -->
<g id="node4" class="node">
<title>PassivePacketSink</title>
<g id="a_node4"><a xlink:href="inet.queueing.sink.PassivePacketSink.html" xlink:title="Simple Module PassivePacketSink" target="_parent">
<polygon fill="#fffcaf" stroke="black" points="380,-19 274,-19 274,0 380,0 380,-19"/>
<text text-anchor="middle" x="327" y="-7" font-family="Helvetica,sans-Serif" font-size="10.00">PassivePacketSink</text>
</a>
</g>
</g>
<!-- ReceiverHost&#45;&gt;PassivePacketSink -->
<g id="edge3" class="edge">
<title>ReceiverHost&#45;&gt;PassivePacketSink</title>
<path fill="none" stroke="black" d="M375.68,-54.98C367.19,-47.23 354.44,-35.58 344.12,-26.14"/>
<polygon fill="black" stroke="black" points="346.23,-23.33 336.49,-19.17 341.51,-28.5 346.23,-23.33"/>
</g>
<!-- PacketReceiver -->
<g id="node5" class="node">
<title>PacketReceiver</title>
<g id="a_node5"><a xlink:href="inet.protocolelement.transceiver.PacketReceiver.html" xlink:title="Simple Module PacketReceiver" target="_parent">
<polygon fill="#fffcaf" stroke="black" points="489.5,-19 398.5,-19 398.5,0 489.5,0 489.5,-19"/>
<text text-anchor="middle" x="444" y="-7" font-family="Helvetica,sans-Serif" font-size="10.00">PacketReceiver</text>
</a>
</g>
</g>
<!-- ReceiverHost&#45;&gt;PacketReceiver -->
<g id="edge4" class="edge">
<title>ReceiverHost&#45;&gt;PacketReceiver</title>
<path fill="none" stroke="black" d="M394.48,-54.98C403.2,-47.15 416.34,-35.34 426.9,-25.86"/>
<polygon fill="black" stroke="black" points="429.25,-28.46 434.35,-19.17 424.57,-23.25 429.25,-28.46"/>
</g>
<!-- IdealChannel -->
<g id="node6" class="node">
<title>IdealChannel</title>
<g id="a_node6"><a xlink:href="ned.IdealChannel.html" xlink:title="Channel IdealChannel" target="_parent">
<polygon fill="#d0ffd0" stroke="black" points="588,-19 508,-19 508,0 588,0 588,-19"/>
<text text-anchor="middle" x="548" y="-7" font-family="Helvetica,sans-Serif" font-size="10.00">IdealChannel</text>
</a>
</g>
</g>
<!-- ReceiverHost&#45;&gt;IdealChannel -->
<g id="edge5" class="edge">
<title>ReceiverHost&#45;&gt;IdealChannel</title>
<path fill="none" stroke="black" d="M411.19,-54.98C438.44,-46.13 481.3,-32.19 511.78,-22.28"/>
<polygon fill="black" stroke="black" points="513.18,-25.5 521.61,-19.08 511.01,-18.85 513.18,-25.5"/>
</g>
<!-- DynamicDefragmenter -->
<g id="node7" class="node">
<title>DynamicDefragmenter</title>
<g id="a_node7"><a xlink:href="inet.tutorials.protocol.DynamicDefragmenter.html" xlink:title="Compound Module DynamicDefragmenter" target="_parent">
<polygon fill="#fffcaf" stroke="black" points="734,-19 606,-19 606,0 734,0 734,-19"/>
<text text-anchor="middle" x="670" y="-7" font-family="Helvetica,sans-Serif" font-size="10.00">DynamicDefragmenter</text>
</a>
</g>
</g>
<!-- ReceiverHost&#45;&gt;DynamicDefragmenter -->
<g id="edge6" class="edge">
<title>ReceiverHost&#45;&gt;DynamicDefragmenter</title>
<path fill="none" stroke="black" d="M426.14,-55.85C475.62,-46.65 558.92,-31.16 614.18,-20.88"/>
<polygon fill="black" stroke="black" points="614.96,-24.29 624.15,-19.03 613.68,-17.41 614.96,-24.29"/>
</g>
<!-- Network90 -->
<g id="node8" class="node">
<title>Network90</title>
<g id="a_node8"><a xlink:href="inet.tutorials.protocol.Network90.html" xlink:title="Network Network90" target="_parent">
<polygon fill="#d0d0ff" stroke="black" points="420,-129 350,-129 350,-110 420,-110 420,-129"/>
<text text-anchor="middle" x="385" y="-117" font-family="Helvetica,sans-Serif" font-size="10.00">Network90</text>
</a>
</g>
</g>
<!-- Network90&#45;&gt;ReceiverHost -->
<g id="edge7" class="edge">
<title>Network90&#45;&gt;ReceiverHost</title>
<path fill="none" stroke="black" d="M385,-109.75C385,-102.8 385,-92.85 385,-84.13"/>
<polygon fill="black" stroke="black" points="388.5,-84.09 385,-74.09 381.5,-84.09 388.5,-84.09"/>
</g>
</g>
</svg>
