<?xml version="1.0" encoding="UTF-8" standalone="no"?>
<!DOCTYPE svg PUBLIC "-//W3C//DTD SVG 1.1//EN"
 "http://www.w3.org/Graphics/SVG/1.1/DTD/svg11.dtd">
<!-- Generated by graphviz version 2.43.0 (0)
 -->
<!-- Title: opp Pages: 1 -->
<svg width="3945pt" height="137pt"
 viewBox="0.00 0.00 3945.00 137.00" xmlns="http://www.w3.org/2000/svg" xmlns:xlink="http://www.w3.org/1999/xlink">
<g id="graph0" class="graph" transform="scale(1 1) rotate(0) translate(4 133)">
<title>opp</title>
<polygon fill="transparent" stroke="transparent" points="-4,4 -4,-133 3941,-133 3941,4 -4,4"/>
<!-- IntegratedCanvasVisualizer -->
<g id="node1" class="node">
<title>IntegratedCanvasVisualizer</title>
<g id="a_node1"><a xlink:href="inet.visualizer.canvas.integrated.IntegratedCanvasVisualizer.html" xlink:title="Compound Module IntegratedCanvasVisualizer" target="_parent">
<polygon fill="#fff700" stroke="black" points="1924.5,-74 1773.5,-74 1773.5,-55 1924.5,-55 1924.5,-74"/>
<text text-anchor="middle" x="1849" y="-62" font-family="Helvetica,sans-Serif" font-size="10.00">IntegratedCanvasVisualizer</text>
</a>
</g>
</g>
<!-- INetworkNodeVisualizer -->
<g id="node2" class="node">
<title>INetworkNodeVisualizer</title>
<g id="a_node2"><a xlink:href="inet.visualizer.contract.INetworkNodeVisualizer.html" xlink:title="Module Interface INetworkNodeVisualizer" target="_parent">
<polygon fill="#fffcaf" stroke="black" stroke-dasharray="5,2" points="134,-19 0,-19 0,0 134,0 134,-19"/>
<text text-anchor="middle" x="67" y="-7" font-family="Helvetica,sans-Serif" font-size="10.00">INetworkNodeVisualizer</text>
</a>
</g>
</g>
<!-- IntegratedCanvasVisualizer&#45;&gt;INetworkNodeVisualizer -->
<g id="edge1" class="edge">
<title>IntegratedCanvasVisualizer&#45;&gt;INetworkNodeVisualizer</title>
<path fill="none" stroke="black" d="M1773.22,-63.83C1535.02,-64.36 780.02,-62.31 144.4,-19.02"/>
<polygon fill="black" stroke="black" points="144.32,-15.51 134.11,-18.32 143.85,-22.5 144.32,-15.51"/>
</g>
<!-- IQueueVisualizer -->
<g id="node3" class="node">
<title>IQueueVisualizer</title>
<g id="a_node3"><a xlink:href="inet.visualizer.contract.IQueueVisualizer.html" xlink:title="Module Interface IQueueVisualizer" target="_parent">
<polygon fill="#fffcaf" stroke="black" stroke-dasharray="5,2" points="251.5,-19 152.5,-19 152.5,0 251.5,0 251.5,-19"/>
<text text-anchor="middle" x="202" y="-7" font-family="Helvetica,sans-Serif" font-size="10.00">IQueueVisualizer</text>
</a>
</g>
</g>
<!-- IntegratedCanvasVisualizer&#45;&gt;IQueueVisualizer -->
<g id="edge2" class="edge">
<title>IntegratedCanvasVisualizer&#45;&gt;IQueueVisualizer</title>
<path fill="none" stroke="black" d="M1773.23,-62.56C1502.03,-59.01 579.45,-45.33 261.76,-19.03"/>
<polygon fill="black" stroke="black" points="261.89,-15.52 251.63,-18.16 261.3,-22.5 261.89,-15.52"/>
</g>
<!-- IInterfaceTableVisualizer -->
<g id="node4" class="node">
<title>IInterfaceTableVisualizer</title>
<g id="a_node4"><a xlink:href="inet.visualizer.contract.IInterfaceTableVisualizer.html" xlink:title="Module Interface IInterfaceTableVisualizer" target="_parent">
<polygon fill="#fffcaf" stroke="black" stroke-dasharray="5,2" points="406.5,-19 269.5,-19 269.5,0 406.5,0 406.5,-19"/>
<text text-anchor="middle" x="338" y="-7" font-family="Helvetica,sans-Serif" font-size="10.00">IInterfaceTableVisualizer</text>
</a>
</g>
</g>
<!-- IntegratedCanvasVisualizer&#45;&gt;IInterfaceTableVisualizer -->
<g id="edge3" class="edge">
<title>IntegratedCanvasVisualizer&#45;&gt;IInterfaceTableVisualizer</title>
<path fill="none" stroke="black" d="M1773.49,-63.25C1561.32,-62.11 941.59,-55.7 416.87,-19.08"/>
<polygon fill="black" stroke="black" points="417.04,-15.58 406.82,-18.37 416.55,-22.56 417.04,-15.58"/>
</g>
<!-- ITransportConnectionVisualizer -->
<g id="node5" class="node">
<title>ITransportConnectionVisualizer</title>
<g id="a_node5"><a xlink:href="inet.visualizer.contract.ITransportConnectionVisualizer.html" xlink:title="Module Interface ITransportConnectionVisualizer" target="_parent">
<polygon fill="#fffcaf" stroke="black" stroke-dasharray="5,2" points="591.5,-19 424.5,-19 424.5,0 591.5,0 591.5,-19"/>
<text text-anchor="middle" x="508" y="-7" font-family="Helvetica,sans-Serif" font-size="10.00">ITransportConnectionVisualizer</text>
</a>
</g>
</g>
<!-- IntegratedCanvasVisualizer&#45;&gt;ITransportConnectionVisualizer -->
<g id="edge4" class="edge">
<title>IntegratedCanvasVisualizer&#45;&gt;ITransportConnectionVisualizer</title>
<path fill="none" stroke="black" d="M1773.31,-62.26C1580.13,-58.79 1052.89,-47.35 601.94,-19.02"/>
<polygon fill="black" stroke="black" points="601.84,-15.5 591.63,-18.36 601.39,-22.49 601.84,-15.5"/>
</g>
<!-- IPacketDropVisualizer -->
<g id="node6" class="node">
<title>IPacketDropVisualizer</title>
<g id="a_node6"><a xlink:href="inet.visualizer.contract.IPacketDropVisualizer.html" xlink:title="Module Interface IPacketDropVisualizer" target="_parent">
<polygon fill="#fffcaf" stroke="black" stroke-dasharray="5,2" points="732,-19 610,-19 610,0 732,0 732,-19"/>
<text text-anchor="middle" x="671" y="-7" font-family="Helvetica,sans-Serif" font-size="10.00">IPacketDropVisualizer</text>
</a>
</g>
</g>
<!-- IntegratedCanvasVisualizer&#45;&gt;IPacketDropVisualizer -->
<g id="edge5" class="edge">
<title>IntegratedCanvasVisualizer&#45;&gt;IPacketDropVisualizer</title>
<path fill="none" stroke="black" d="M1773.31,-62.56C1595.35,-59.91 1136.32,-50.41 742.23,-19.02"/>
<polygon fill="black" stroke="black" points="742.3,-15.52 732.05,-18.21 741.74,-22.5 742.3,-15.52"/>
</g>
<!-- IGateScheduleVisualizer -->
<g id="node7" class="node">
<title>IGateScheduleVisualizer</title>
<g id="a_node7"><a xlink:href="inet.visualizer.contract.IGateScheduleVisualizer.html" xlink:title="Module Interface IGateScheduleVisualizer" target="_parent">
<polygon fill="#fffcaf" stroke="black" stroke-dasharray="5,2" points="885.5,-19 750.5,-19 750.5,0 885.5,0 885.5,-19"/>
<text text-anchor="middle" x="818" y="-7" font-family="Helvetica,sans-Serif" font-size="10.00">IGateScheduleVisualizer</text>
</a>
</g>
</g>
<!-- IntegratedCanvasVisualizer&#45;&gt;IGateScheduleVisualizer -->
<g id="edge6" class="edge">
<title>IntegratedCanvasVisualizer&#45;&gt;IGateScheduleVisualizer</title>
<path fill="none" stroke="black" d="M1773.38,-61.64C1613.41,-57.35 1228.78,-45.11 895.85,-19.09"/>
<polygon fill="black" stroke="black" points="895.77,-15.58 885.52,-18.28 895.22,-22.56 895.77,-15.58"/>
</g>
<!-- IStatisticVisualizer -->
<g id="node8" class="node">
<title>IStatisticVisualizer</title>
<g id="a_node8"><a xlink:href="inet.visualizer.contract.IStatisticVisualizer.html" xlink:title="Module Interface IStatisticVisualizer" target="_parent">
<polygon fill="#fffcaf" stroke="black" stroke-dasharray="5,2" points="1010.5,-19 903.5,-19 903.5,0 1010.5,0 1010.5,-19"/>
<text text-anchor="middle" x="957" y="-7" font-family="Helvetica,sans-Serif" font-size="10.00">IStatisticVisualizer</text>
</a>
</g>
</g>
<!-- IntegratedCanvasVisualizer&#45;&gt;IStatisticVisualizer -->
<g id="edge7" class="edge">
<title>IntegratedCanvasVisualizer&#45;&gt;IStatisticVisualizer</title>
<path fill="none" stroke="black" d="M1773.31,-61.54C1628.92,-57.33 1303.99,-45.67 1020.79,-19.1"/>
<polygon fill="black" stroke="black" points="1021.02,-15.6 1010.74,-18.14 1020.36,-22.57 1021.02,-15.6"/>
</g>
<!-- IRadioVisualizer -->
<g id="node9" class="node">
<title>IRadioVisualizer</title>
<g id="a_node9"><a xlink:href="inet.visualizer.contract.IRadioVisualizer.html" xlink:title="Module Interface IRadioVisualizer" target="_parent">
<polygon fill="#fffcaf" stroke="black" stroke-dasharray="5,2" points="1123.5,-19 1028.5,-19 1028.5,0 1123.5,0 1123.5,-19"/>
<text text-anchor="middle" x="1076" y="-7" font-family="Helvetica,sans-Serif" font-size="10.00">IRadioVisualizer</text>
</a>
</g>
</g>
<!-- IntegratedCanvasVisualizer&#45;&gt;IRadioVisualizer -->
<g id="edge8" class="edge">
<title>IntegratedCanvasVisualizer&#45;&gt;IRadioVisualizer</title>
<path fill="none" stroke="black" d="M1773.31,-60.94C1644.27,-56.09 1373.24,-43.88 1133.5,-18.95"/>
<polygon fill="black" stroke="black" points="1133.86,-15.47 1123.55,-17.9 1133.13,-22.43 1133.86,-15.47"/>
</g>
<!-- IInfoVisualizer -->
<g id="node10" class="node">
<title>IInfoVisualizer</title>
<g id="a_node10"><a xlink:href="inet.visualizer.contract.IInfoVisualizer.html" xlink:title="Module Interface IInfoVisualizer" target="_parent">
<polygon fill="#fffcaf" stroke="black" stroke-dasharray="5,2" points="1228,-19 1142,-19 1142,0 1228,0 1228,-19"/>
<text text-anchor="middle" x="1185" y="-7" font-family="Helvetica,sans-Serif" font-size="10.00">IInfoVisualizer</text>
</a>
</g>
</g>
<!-- IntegratedCanvasVisualizer&#45;&gt;IInfoVisualizer -->
<g id="edge9" class="edge">
<title>IntegratedCanvasVisualizer&#45;&gt;IInfoVisualizer</title>
<path fill="none" stroke="black" d="M1773.42,-60.18C1659.57,-54.7 1437.1,-42.12 1238.14,-19.03"/>
<polygon fill="black" stroke="black" points="1238.43,-15.54 1228.09,-17.85 1237.61,-22.49 1238.43,-15.54"/>
</g>
<!-- INetworkRouteVisualizer -->
<g id="node11" class="node">
<title>INetworkRouteVisualizer</title>
<g id="a_node11"><a xlink:href="inet.visualizer.contract.INetworkRouteVisualizer.html" xlink:title="Module Interface INetworkRouteVisualizer" target="_parent">
<polygon fill="#fffcaf" stroke="black" stroke-dasharray="5,2" points="1383.5,-19 1246.5,-19 1246.5,0 1383.5,0 1383.5,-19"/>
<text text-anchor="middle" x="1315" y="-7" font-family="Helvetica,sans-Serif" font-size="10.00">INetworkRouteVisualizer</text>
</a>
</g>
</g>
<!-- IntegratedCanvasVisualizer&#45;&gt;INetworkRouteVisualizer -->
<g id="edge10" class="edge">
<title>IntegratedCanvasVisualizer&#45;&gt;INetworkRouteVisualizer</title>
<path fill="none" stroke="black" d="M1773.36,-56.44C1684.83,-48.1 1533.5,-33.64 1393.87,-19.18"/>
<polygon fill="black" stroke="black" points="1394.15,-15.69 1383.84,-18.14 1393.43,-22.66 1394.15,-15.69"/>
</g>
<!-- IMobilityVisualizer -->
<g id="node12" class="node">
<title>IMobilityVisualizer</title>
<g id="a_node12"><a xlink:href="inet.visualizer.contract.IMobilityVisualizer.html" xlink:title="Module Interface IMobilityVisualizer" target="_parent">
<polygon fill="#fffcaf" stroke="black" stroke-dasharray="5,2" points="1508.5,-19 1401.5,-19 1401.5,0 1508.5,0 1508.5,-19"/>
<text text-anchor="middle" x="1455" y="-7" font-family="Helvetica,sans-Serif" font-size="10.00">IMobilityVisualizer</text>
</a>
</g>
</g>
<!-- IntegratedCanvasVisualizer&#45;&gt;IMobilityVisualizer -->
<g id="edge11" class="edge">
<title>IntegratedCanvasVisualizer&#45;&gt;IMobilityVisualizer</title>
<path fill="none" stroke="black" d="M1785.04,-54.98C1720.39,-46.37 1617.34,-32.59 1518.89,-19.25"/>
<polygon fill="black" stroke="black" points="1519.15,-15.76 1508.77,-17.88 1518.21,-22.69 1519.15,-15.76"/>
</g>
<!-- ISceneVisualizer -->
<g id="node13" class="node">
<title>ISceneVisualizer</title>
<g id="a_node13"><a xlink:href="inet.visualizer.contract.ISceneVisualizer.html" xlink:title="Module Interface ISceneVisualizer" target="_parent">
<polygon fill="#fffcaf" stroke="black" stroke-dasharray="5,2" points="1623.5,-19 1526.5,-19 1526.5,0 1623.5,0 1623.5,-19"/>
<text text-anchor="middle" x="1575" y="-7" font-family="Helvetica,sans-Serif" font-size="10.00">ISceneVisualizer</text>
</a>
</g>
</g>
<!-- IntegratedCanvasVisualizer&#45;&gt;ISceneVisualizer -->
<g id="edge12" class="edge">
<title>IntegratedCanvasVisualizer&#45;&gt;ISceneVisualizer</title>
<path fill="none" stroke="black" d="M1804.98,-54.98C1757.18,-45.74 1680.8,-30.97 1629.32,-21.01"/>
<polygon fill="black" stroke="black" points="1629.85,-17.54 1619.37,-19.08 1628.52,-24.42 1629.85,-17.54"/>
</g>
<!-- IStreamRedundancyConfigurationVisualizer -->
<g id="node14" class="node">
<title>IStreamRedundancyConfigurationVisualizer</title>
<g id="a_node14"><a xlink:href="inet.visualizer.contract.IStreamRedundancyConfigurationVisualizer.html" xlink:title="Module Interface IStreamRedundancyConfigurationVisualizer" target="_parent">
<polygon fill="#fffcaf" stroke="black" stroke-dasharray="5,2" points="1870,-19 1642,-19 1642,0 1870,0 1870,-19"/>
<text text-anchor="middle" x="1756" y="-7" font-family="Helvetica,sans-Serif" font-size="10.00">IStreamRedundancyConfigurationVisualizer</text>
</a>
</g>
</g>
<!-- IntegratedCanvasVisualizer&#45;&gt;IStreamRedundancyConfigurationVisualizer -->
<g id="edge13" class="edge">
<title>IntegratedCanvasVisualizer&#45;&gt;IStreamRedundancyConfigurationVisualizer</title>
<path fill="none" stroke="black" d="M1834.06,-54.98C1819.5,-46.69 1797.13,-33.94 1780.07,-24.22"/>
<polygon fill="black" stroke="black" points="1781.64,-21.08 1771.21,-19.17 1778.17,-27.16 1781.64,-21.08"/>
</g>
<!-- IMediumVisualizer -->
<g id="node15" class="node">
<title>IMediumVisualizer</title>
<g id="a_node15"><a xlink:href="inet.visualizer.contract.IMediumVisualizer.html" xlink:title="Module Interface IMediumVisualizer" target="_parent">
<polygon fill="#fffcaf" stroke="black" stroke-dasharray="5,2" points="1995.5,-19 1888.5,-19 1888.5,0 1995.5,0 1995.5,-19"/>
<text text-anchor="middle" x="1942" y="-7" font-family="Helvetica,sans-Serif" font-size="10.00">IMediumVisualizer</text>
</a>
</g>
</g>
<!-- IntegratedCanvasVisualizer&#45;&gt;IMediumVisualizer -->
<g id="edge14" class="edge">
<title>IntegratedCanvasVisualizer&#45;&gt;IMediumVisualizer</title>
<path fill="none" stroke="black" d="M1863.94,-54.98C1878.5,-46.69 1900.87,-33.94 1917.93,-24.22"/>
<polygon fill="black" stroke="black" points="1919.83,-27.16 1926.79,-19.17 1916.36,-21.08 1919.83,-27.16"/>
</g>
<!-- IDataLinkVisualizer -->
<g id="node16" class="node">
<title>IDataLinkVisualizer</title>
<g id="a_node16"><a xlink:href="inet.visualizer.contract.IDataLinkVisualizer.html" xlink:title="Module Interface IDataLinkVisualizer" target="_parent">
<polygon fill="#fffcaf" stroke="black" stroke-dasharray="5,2" points="2124.5,-19 2013.5,-19 2013.5,0 2124.5,0 2124.5,-19"/>
<text text-anchor="middle" x="2069" y="-7" font-family="Helvetica,sans-Serif" font-size="10.00">IDataLinkVisualizer</text>
</a>
</g>
</g>
<!-- IntegratedCanvasVisualizer&#45;&gt;IDataLinkVisualizer -->
<g id="edge15" class="edge">
<title>IntegratedCanvasVisualizer&#45;&gt;IDataLinkVisualizer</title>
<path fill="none" stroke="black" d="M1884.35,-54.98C1922.16,-45.87 1982.26,-31.4 2023.57,-21.45"/>
<polygon fill="black" stroke="black" points="2024.47,-24.83 2033.38,-19.08 2022.83,-18.02 2024.47,-24.83"/>
</g>
<!-- IFailureProtectionConfigurationVisualizer -->
<g id="node17" class="node">
<title>IFailureProtectionConfigurationVisualizer</title>
<g id="a_node17"><a xlink:href="inet.visualizer.contract.IFailureProtectionConfigurationVisualizer.html" xlink:title="Module Interface IFailureProtectionConfigurationVisualizer" target="_parent">
<polygon fill="#fffcaf" stroke="black" stroke-dasharray="5,2" points="2357.5,-19 2142.5,-19 2142.5,0 2357.5,0 2357.5,-19"/>
<text text-anchor="middle" x="2250" y="-7" font-family="Helvetica,sans-Serif" font-size="10.00">IFailureProtectionConfigurationVisualizer</text>
</a>
</g>
</g>
<!-- IntegratedCanvasVisualizer&#45;&gt;IFailureProtectionConfigurationVisualizer -->
<g id="edge16" class="edge">
<title>IntegratedCanvasVisualizer&#45;&gt;IFailureProtectionConfigurationVisualizer</title>
<path fill="none" stroke="black" d="M1913.43,-54.98C1984.79,-45.55 2099.7,-30.36 2175.04,-20.41"/>
<polygon fill="black" stroke="black" points="2175.95,-23.82 2185.4,-19.04 2175.03,-16.88 2175.95,-23.82"/>
</g>
<!-- IIeee80211Visualizer -->
<g id="node18" class="node">
<title>IIeee80211Visualizer</title>
<g id="a_node18"><a xlink:href="inet.visualizer.contract.IIeee80211Visualizer.html" xlink:title="Module Interface IIeee80211Visualizer" target="_parent">
<polygon fill="#fffcaf" stroke="black" stroke-dasharray="5,2" points="2494.5,-19 2375.5,-19 2375.5,0 2494.5,0 2494.5,-19"/>
<text text-anchor="middle" x="2435" y="-7" font-family="Helvetica,sans-Serif" font-size="10.00">IIeee80211Visualizer</text>
</a>
</g>
</g>
<!-- IntegratedCanvasVisualizer&#45;&gt;IIeee80211Visualizer -->
<g id="edge17" class="edge">
<title>IntegratedCanvasVisualizer&#45;&gt;IIeee80211Visualizer</title>
<path fill="none" stroke="black" d="M1924.58,-57.93C2023.46,-50.43 2202.38,-36.16 2365.11,-19.16"/>
<polygon fill="black" stroke="black" points="2365.73,-22.62 2375.31,-18.09 2365,-15.66 2365.73,-22.62"/>
</g>
<!-- IEnergyStorageVisualizer -->
<g id="node19" class="node">
<title>IEnergyStorageVisualizer</title>
<g id="a_node19"><a xlink:href="inet.visualizer.contract.IEnergyStorageVisualizer.html" xlink:title="Module Interface IEnergyStorageVisualizer" target="_parent">
<polygon fill="#fffcaf" stroke="black" stroke-dasharray="5,2" points="2651.5,-19 2512.5,-19 2512.5,0 2651.5,0 2651.5,-19"/>
<text text-anchor="middle" x="2582" y="-7" font-family="Helvetica,sans-Serif" font-size="10.00">IEnergyStorageVisualizer</text>
</a>
</g>
</g>
<!-- IntegratedCanvasVisualizer&#45;&gt;IEnergyStorageVisualizer -->
<g id="edge18" class="edge">
<title>IntegratedCanvasVisualizer&#45;&gt;IEnergyStorageVisualizer</title>
<path fill="none" stroke="black" d="M1924.72,-59.36C2044.87,-52.57 2286.82,-37.99 2502.04,-19.14"/>
<polygon fill="black" stroke="black" points="2502.62,-22.6 2512.27,-18.24 2502,-15.63 2502.62,-22.6"/>
</g>
<!-- ITracingObstacleLossVisualizer -->
<g id="node20" class="node">
<title>ITracingObstacleLossVisualizer</title>
<g id="a_node20"><a xlink:href="inet.visualizer.contract.ITracingObstacleLossVisualizer.html" xlink:title="Module Interface ITracingObstacleLossVisualizer" target="_parent">
<polygon fill="#fffcaf" stroke="black" stroke-dasharray="5,2" points="2836.5,-19 2669.5,-19 2669.5,0 2836.5,0 2836.5,-19"/>
<text text-anchor="middle" x="2753" y="-7" font-family="Helvetica,sans-Serif" font-size="10.00">ITracingObstacleLossVisualizer</text>
</a>
</g>
</g>
<!-- IntegratedCanvasVisualizer&#45;&gt;ITracingObstacleLossVisualizer -->
<g id="edge19" class="edge">
<title>IntegratedCanvasVisualizer&#45;&gt;ITracingObstacleLossVisualizer</title>
<path fill="none" stroke="black" d="M1924.62,-60.3C2066.49,-54.09 2382.47,-39.28 2659.04,-19.12"/>
<polygon fill="black" stroke="black" points="2659.56,-22.59 2669.27,-18.37 2659.05,-15.61 2659.56,-22.59"/>
</g>
<!-- INetworkConnectionVisualizer -->
<g id="node21" class="node">
<title>INetworkConnectionVisualizer</title>
<g id="a_node21"><a xlink:href="inet.visualizer.contract.INetworkConnectionVisualizer.html" xlink:title="Module Interface INetworkConnectionVisualizer" target="_parent">
<polygon fill="#fffcaf" stroke="black" stroke-dasharray="5,2" points="3019,-19 2855,-19 2855,0 3019,0 3019,-19"/>
<text text-anchor="middle" x="2937" y="-7" font-family="Helvetica,sans-Serif" font-size="10.00">INetworkConnectionVisualizer</text>
</a>
</g>
</g>
<!-- IntegratedCanvasVisualizer&#45;&gt;INetworkConnectionVisualizer -->
<g id="edge20" class="edge">
<title>IntegratedCanvasVisualizer&#45;&gt;INetworkConnectionVisualizer</title>
<path fill="none" stroke="black" d="M1924.74,-61.37C2089.82,-56.47 2494.65,-42.96 2844.6,-19.06"/>
<polygon fill="black" stroke="black" points="2844.94,-22.55 2854.67,-18.37 2844.46,-15.56 2844.94,-22.55"/>
</g>
<!-- IRoutingTableVisualizer -->
<g id="node22" class="node">
<title>IRoutingTableVisualizer</title>
<g id="a_node22"><a xlink:href="inet.visualizer.contract.IRoutingTableVisualizer.html" xlink:title="Module Interface IRoutingTableVisualizer" target="_parent">
<polygon fill="#fffcaf" stroke="black" stroke-dasharray="5,2" points="3168.5,-19 3037.5,-19 3037.5,0 3168.5,0 3168.5,-19"/>
<text text-anchor="middle" x="3103" y="-7" font-family="Helvetica,sans-Serif" font-size="10.00">IRoutingTableVisualizer</text>
</a>
</g>
</g>
<!-- IntegratedCanvasVisualizer&#45;&gt;IRoutingTableVisualizer -->
<g id="edge21" class="edge">
<title>IntegratedCanvasVisualizer&#45;&gt;IRoutingTableVisualizer</title>
<path fill="none" stroke="black" d="M1924.63,-62.61C2110.43,-60.01 2604.29,-50.52 3027.2,-18.99"/>
<polygon fill="black" stroke="black" points="3027.47,-22.48 3037.18,-18.24 3026.94,-15.5 3027.47,-22.48"/>
</g>
<!-- IPhysicalLinkVisualizer -->
<g id="node23" class="node">
<title>IPhysicalLinkVisualizer</title>
<g id="a_node23"><a xlink:href="inet.visualizer.contract.IPhysicalLinkVisualizer.html" xlink:title="Module Interface IPhysicalLinkVisualizer" target="_parent">
<polygon fill="#fffcaf" stroke="black" stroke-dasharray="5,2" points="3315,-19 3187,-19 3187,0 3315,0 3315,-19"/>
<text text-anchor="middle" x="3251" y="-7" font-family="Helvetica,sans-Serif" font-size="10.00">IPhysicalLinkVisualizer</text>
</a>
</g>
</g>
<!-- IntegratedCanvasVisualizer&#45;&gt;IPhysicalLinkVisualizer -->
<g id="edge22" class="edge">
<title>IntegratedCanvasVisualizer&#45;&gt;IPhysicalLinkVisualizer</title>
<path fill="none" stroke="black" d="M1924.79,-63.15C2126.59,-61.74 2693.92,-54.72 3176.62,-19.03"/>
<polygon fill="black" stroke="black" points="3177.22,-22.5 3186.93,-18.26 3176.7,-15.51 3177.22,-22.5"/>
</g>
<!-- IPhysicalEnvironmentVisualizer -->
<g id="node24" class="node">
<title>IPhysicalEnvironmentVisualizer</title>
<g id="a_node24"><a xlink:href="inet.visualizer.contract.IPhysicalEnvironmentVisualizer.html" xlink:title="Module Interface IPhysicalEnvironmentVisualizer" target="_parent">
<polygon fill="#fffcaf" stroke="black" stroke-dasharray="5,2" points="3503,-19 3333,-19 3333,0 3503,0 3503,-19"/>
<text text-anchor="middle" x="3418" y="-7" font-family="Helvetica,sans-Serif" font-size="10.00">IPhysicalEnvironmentVisualizer</text>
</a>
</g>
</g>
<!-- IntegratedCanvasVisualizer&#45;&gt;IPhysicalEnvironmentVisualizer -->
<g id="edge23" class="edge">
<title>IntegratedCanvasVisualizer&#45;&gt;IPhysicalEnvironmentVisualizer</title>
<path fill="none" stroke="black" d="M1924.68,-62.82C2140.94,-60.53 2780.38,-51.37 3322.58,-19.04"/>
<polygon fill="black" stroke="black" points="3323.19,-22.51 3332.96,-18.42 3322.77,-15.52 3323.19,-22.51"/>
</g>
<!-- ITransportRouteVisualizer -->
<g id="node25" class="node">
<title>ITransportRouteVisualizer</title>
<g id="a_node25"><a xlink:href="inet.visualizer.contract.ITransportRouteVisualizer.html" xlink:title="Module Interface ITransportRouteVisualizer" target="_parent">
<polygon fill="#fffcaf" stroke="black" stroke-dasharray="5,2" points="3662.5,-19 3521.5,-19 3521.5,0 3662.5,0 3662.5,-19"/>
<text text-anchor="middle" x="3592" y="-7" font-family="Helvetica,sans-Serif" font-size="10.00">ITransportRouteVisualizer</text>
</a>
</g>
</g>
<!-- IntegratedCanvasVisualizer&#45;&gt;ITransportRouteVisualizer -->
<g id="edge24" class="edge">
<title>IntegratedCanvasVisualizer&#45;&gt;ITransportRouteVisualizer</title>
<path fill="none" stroke="black" d="M1924.52,-63.6C2158.51,-63.47 2892.39,-59.66 3511.34,-18.97"/>
<polygon fill="black" stroke="black" points="3511.61,-22.46 3521.36,-18.31 3511.15,-15.48 3511.61,-22.46"/>
</g>
<!-- ILinkBreakVisualizer -->
<g id="node26" class="node">
<title>ILinkBreakVisualizer</title>
<g id="a_node26"><a xlink:href="inet.visualizer.contract.ILinkBreakVisualizer.html" xlink:title="Module Interface ILinkBreakVisualizer" target="_parent">
<polygon fill="#fffcaf" stroke="black" stroke-dasharray="5,2" points="3797,-19 3681,-19 3681,0 3797,0 3797,-19"/>
<text text-anchor="middle" x="3739" y="-7" font-family="Helvetica,sans-Serif" font-size="10.00">ILinkBreakVisualizer</text>
</a>
</g>
</g>
<!-- IntegratedCanvasVisualizer&#45;&gt;ILinkBreakVisualizer -->
<g id="edge25" class="edge">
<title>IntegratedCanvasVisualizer&#45;&gt;ILinkBreakVisualizer</title>
<path fill="none" stroke="black" d="M1924.62,-62.68C2220.86,-59.32 3303.7,-45.51 3670.81,-18.98"/>
<polygon fill="black" stroke="black" points="3671.22,-22.46 3680.93,-18.23 3670.7,-15.48 3671.22,-22.46"/>
</g>
<!-- IPacketFlowVisualizer -->
<g id="node27" class="node">
<title>IPacketFlowVisualizer</title>
<g id="a_node27"><a xlink:href="inet.visualizer.contract.IPacketFlowVisualizer.html" xlink:title="Module Interface IPacketFlowVisualizer" target="_parent">
<polygon fill="#fffcaf" stroke="black" stroke-dasharray="5,2" points="3937,-19 3815,-19 3815,0 3937,0 3937,-19"/>
<text text-anchor="middle" x="3876" y="-7" font-family="Helvetica,sans-Serif" font-size="10.00">IPacketFlowVisualizer</text>
</a>
</g>
</g>
<!-- IntegratedCanvasVisualizer&#45;&gt;IPacketFlowVisualizer -->
<g id="edge26" class="edge">
<title>IntegratedCanvasVisualizer&#45;&gt;IPacketFlowVisualizer</title>
<path fill="none" stroke="black" d="M1924.53,-62.77C2234.39,-59.65 3409.84,-46.26 3804.91,-18.98"/>
<polygon fill="black" stroke="black" points="3805.22,-22.47 3814.95,-18.27 3804.73,-15.48 3805.22,-22.47"/>
</g>
<!-- BgpNetwork -->
<g id="node28" class="node">
<title>BgpNetwork</title>
<g id="a_node28"><a xlink:href="inet.examples.bgpv4.BgpUpdate.BgpNetwork.html" xlink:title="Network BgpNetwork" target="_parent">
<polygon fill="#d0d0ff" stroke="black" points="1392.5,-129 1315.5,-129 1315.5,-110 1392.5,-110 1392.5,-129"/>
<text text-anchor="middle" x="1354" y="-117" font-family="Helvetica,sans-Serif" font-size="10.00">BgpNetwork</text>
</a>
</g>
</g>
<!-- BgpNetwork&#45;&gt;IntegratedCanvasVisualizer -->
<g id="edge27" class="edge">
<title>BgpNetwork&#45;&gt;IntegratedCanvasVisualizer</title>
<path fill="none" stroke="black" d="M1347.29,-109.96C1489.97,-90.02 1659.35,-75.74 1763.14,-69.31"/>
<polygon fill="black" stroke="black" points="1763.52,-72.79 1773.29,-68.7 1763.09,-65.81 1763.52,-72.79"/>
</g>
<!-- BgpNetwork&#45;&gt;IntegratedCanvasVisualizer -->
<g id="edge28" class="edge">
<title>BgpNetwork&#45;&gt;IntegratedCanvasVisualizer</title>
<path fill="none" stroke="black" d="M1365.29,-109.96C1502.63,-90.76 1664.72,-76.82 1763.23,-70.06"/>
<polygon fill="black" stroke="black" points="1763.7,-73.54 1773.45,-69.38 1763.23,-66.56 1763.7,-73.54"/>
</g>
<!-- BgpNetwork&#45;&gt;IntegratedCanvasVisualizer -->
<g id="edge29" class="edge">
<title>BgpNetwork&#45;&gt;IntegratedCanvasVisualizer</title>
<path fill="none" stroke="black" d="M1383.29,-109.96C1514.89,-91.56 1669.21,-77.99 1763.28,-70.95"/>
<polygon fill="black" stroke="black" points="1763.6,-74.43 1773.31,-70.21 1763.08,-67.45 1763.6,-74.43"/>
</g>
<!-- BgpNetwork&#45;&gt;IntegratedCanvasVisualizer -->
<g id="edge30" class="edge">
<title>BgpNetwork&#45;&gt;IntegratedCanvasVisualizer</title>
<path fill="none" stroke="black" d="M1392.69,-111.25C1395.5,-110.8 1398.29,-110.38 1401,-110 1526.59,-92.43 1672.94,-79.26 1763.29,-71.97"/>
<polygon fill="black" stroke="black" points="1763.79,-75.44 1773.48,-71.15 1763.23,-68.46 1763.79,-75.44"/>
</g>
<!-- BgpNetwork&#45;&gt;IntegratedCanvasVisualizer -->
<g id="edge31" class="edge">
<title>BgpNetwork&#45;&gt;IntegratedCanvasVisualizer</title>
<path fill="none" stroke="black" d="M1392.6,-114.2C1401.64,-112.73 1410.71,-111.16 1419,-110 1538.13,-93.34 1675.95,-80.63 1763.01,-73.14"/>
<polygon fill="black" stroke="black" points="1763.44,-76.61 1773.11,-72.27 1762.84,-69.64 1763.44,-76.61"/>
</g>
<!-- BgpNetwork&#45;&gt;IntegratedCanvasVisualizer -->
<g id="edge32" class="edge">
<title>BgpNetwork&#45;&gt;IntegratedCanvasVisualizer</title>
<path fill="none" stroke="black" d="M1392.58,-116.37C1409.91,-114.49 1424.35,-111.77 1437,-110 1549.69,-94.24 1679.09,-82.01 1763.14,-74.4"/>
<polygon fill="black" stroke="black" points="1763.51,-77.88 1773.16,-73.49 1762.88,-70.91 1763.51,-77.88"/>
</g>
<!-- BgpNetwork&#45;&gt;IntegratedCanvasVisualizer -->
<g id="edge33" class="edge">
<title>BgpNetwork&#45;&gt;IntegratedCanvasVisualizer</title>
<path fill="none" stroke="black" d="M1392.96,-117.39C1422.03,-115.62 1439.81,-112.12 1455,-110 1564.86,-94.63 1690.61,-82.63 1771.66,-74.98"/>
<polygon fill="black" stroke="black" points="1772.18,-78.45 1781.81,-74.02 1771.52,-71.48 1772.18,-78.45"/>
</g>
<!-- CoexistenceShowcase -->
<g id="node29" class="node">
<title>CoexistenceShowcase</title>
<g id="a_node29"><a xlink:href="inet.showcases.wireless.coexistence.CoexistenceShowcase.html" xlink:title="Network CoexistenceShowcase" target="_parent">
<polygon fill="#d0d0ff" stroke="black" points="1535.5,-129 1410.5,-129 1410.5,-110 1535.5,-110 1535.5,-129"/>
<text text-anchor="middle" x="1473" y="-117" font-family="Helvetica,sans-Serif" font-size="10.00">CoexistenceShowcase</text>
</a>
</g>
</g>
<!-- CoexistenceShowcase&#45;&gt;IntegratedCanvasVisualizer -->
<g id="edge34" class="edge">
<title>CoexistenceShowcase&#45;&gt;IntegratedCanvasVisualizer</title>
<path fill="none" stroke="black" d="M1533.41,-109.98C1600.19,-100.57 1707.63,-85.43 1778.28,-75.47"/>
<polygon fill="black" stroke="black" points="1779.01,-78.9 1788.43,-74.04 1778.04,-71.97 1779.01,-78.9"/>
</g>
<!-- ConfiguratorA -->
<g id="node30" class="node">
<title>ConfiguratorA</title>
<g id="a_node30"><a xlink:href="inet.tutorials.configurator.ConfiguratorA.html" xlink:title="Network ConfiguratorA" target="_parent">
<polygon fill="#d0d0ff" stroke="black" points="1636.5,-129 1553.5,-129 1553.5,-110 1636.5,-110 1636.5,-129"/>
<text text-anchor="middle" x="1595" y="-117" font-family="Helvetica,sans-Serif" font-size="10.00">ConfiguratorA</text>
</a>
</g>
</g>
<!-- ConfiguratorA&#45;&gt;IntegratedCanvasVisualizer -->
<g id="edge35" class="edge">
<title>ConfiguratorA&#45;&gt;IntegratedCanvasVisualizer</title>
<path fill="none" stroke="black" d="M1635.81,-109.98C1679.93,-100.78 1750.33,-86.09 1798.05,-76.13"/>
<polygon fill="black" stroke="black" points="1798.8,-79.55 1807.87,-74.08 1797.37,-72.7 1798.8,-79.55"/>
</g>
<!-- ConfiguratorB -->
<g id="node31" class="node">
<title>ConfiguratorB</title>
<g id="a_node31"><a xlink:href="inet.tutorials.configurator.ConfiguratorB.html" xlink:title="Network ConfiguratorB" target="_parent">
<polygon fill="#d0d0ff" stroke="black" points="1737.5,-129 1654.5,-129 1654.5,-110 1737.5,-110 1737.5,-129"/>
<text text-anchor="middle" x="1696" y="-117" font-family="Helvetica,sans-Serif" font-size="10.00">ConfiguratorB</text>
</a>
</g>
</g>
<!-- ConfiguratorB&#45;&gt;IntegratedCanvasVisualizer -->
<g id="edge36" class="edge">
<title>ConfiguratorB&#45;&gt;IntegratedCanvasVisualizer</title>
<path fill="none" stroke="black" d="M1720.58,-109.98C1746.05,-101.16 1786.04,-87.31 1814.63,-77.41"/>
<polygon fill="black" stroke="black" points="1815.92,-80.66 1824.23,-74.08 1813.63,-74.05 1815.92,-80.66"/>
</g>
<!-- ConfiguratorD -->
<g id="node32" class="node">
<title>ConfiguratorD</title>
<g id="a_node32"><a xlink:href="inet.tutorials.configurator.ConfiguratorD.html" xlink:title="Network ConfiguratorD" target="_parent">
<polygon fill="#d0d0ff" stroke="black" points="1840,-129 1756,-129 1756,-110 1840,-110 1840,-129"/>
<text text-anchor="middle" x="1798" y="-117" font-family="Helvetica,sans-Serif" font-size="10.00">ConfiguratorD</text>
</a>
</g>
</g>
<!-- ConfiguratorD&#45;&gt;IntegratedCanvasVisualizer -->
<g id="edge37" class="edge">
<title>ConfiguratorD&#45;&gt;IntegratedCanvasVisualizer</title>
<path fill="none" stroke="black" d="M1806.42,-109.75C1813.77,-102.11 1824.63,-90.82 1833.54,-81.56"/>
<polygon fill="black" stroke="black" points="1836.32,-83.72 1840.74,-74.09 1831.28,-78.87 1836.32,-83.72"/>
</g>
<!-- ConfiguratorE -->
<g id="node33" class="node">
<title>ConfiguratorE</title>
<g id="a_node33"><a xlink:href="inet.tutorials.configurator.ConfiguratorE.html" xlink:title="Network ConfiguratorE" target="_parent">
<polygon fill="#d0d0ff" stroke="black" points="1941.5,-129 1858.5,-129 1858.5,-110 1941.5,-110 1941.5,-129"/>
<text text-anchor="middle" x="1900" y="-117" font-family="Helvetica,sans-Serif" font-size="10.00">ConfiguratorE</text>
</a>
</g>
</g>
<!-- ConfiguratorE&#45;&gt;IntegratedCanvasVisualizer -->
<g id="edge38" class="edge">
<title>ConfiguratorE&#45;&gt;IntegratedCanvasVisualizer</title>
<path fill="none" stroke="black" d="M1891.58,-109.75C1884.23,-102.11 1873.37,-90.82 1864.46,-81.56"/>
<polygon fill="black" stroke="black" points="1866.72,-78.87 1857.26,-74.09 1861.68,-83.72 1866.72,-78.87"/>
</g>
<!-- DemoNetworkEth -->
<g id="node34" class="node">
<title>DemoNetworkEth</title>
<g id="a_node34"><a xlink:href="inet.examples.ipv6.demonetworketh.DemoNetworkEth.html" xlink:title="Network DemoNetworkEth" target="_parent">
<polygon fill="#d0d0ff" stroke="black" points="2062.5,-129 1959.5,-129 1959.5,-110 2062.5,-110 2062.5,-129"/>
<text text-anchor="middle" x="2011" y="-117" font-family="Helvetica,sans-Serif" font-size="10.00">DemoNetworkEth</text>
</a>
</g>
</g>
<!-- DemoNetworkEth&#45;&gt;IntegratedCanvasVisualizer -->
<g id="edge39" class="edge">
<title>DemoNetworkEth&#45;&gt;IntegratedCanvasVisualizer</title>
<path fill="none" stroke="black" d="M1984.97,-109.98C1957.89,-101.13 1915.29,-87.19 1884.99,-77.28"/>
<polygon fill="black" stroke="black" points="1885.82,-73.87 1875.23,-74.08 1883.65,-80.52 1885.82,-73.87"/>
</g>
<!-- ErrorRateShowcase -->
<g id="node35" class="node">
<title>ErrorRateShowcase</title>
<g id="a_node35"><a xlink:href="inet.showcases.wireless.errorrate.ErrorRateShowcase.html" xlink:title="Network ErrorRateShowcase" target="_parent">
<polygon fill="#d0d0ff" stroke="black" points="2191.5,-129 2080.5,-129 2080.5,-110 2191.5,-110 2191.5,-129"/>
<text text-anchor="middle" x="2136" y="-117" font-family="Helvetica,sans-Serif" font-size="10.00">ErrorRateShowcase</text>
</a>
</g>
</g>
<!-- ErrorRateShowcase&#45;&gt;IntegratedCanvasVisualizer -->
<g id="edge40" class="edge">
<title>ErrorRateShowcase&#45;&gt;IntegratedCanvasVisualizer</title>
<path fill="none" stroke="black" d="M2089.89,-109.98C2039.72,-100.72 1959.49,-85.9 1905.56,-75.94"/>
<polygon fill="black" stroke="black" points="1905.94,-72.46 1895.47,-74.08 1904.67,-79.34 1905.94,-72.46"/>
</g>
<!-- FilteringExampleNetwork -->
<g id="node36" class="node">
<title>FilteringExampleNetwork</title>
<g id="a_node36"><a xlink:href="inet.examples.wireless.filtering.FilteringExampleNetwork.html" xlink:title="Network FilteringExampleNetwork" target="_parent">
<polygon fill="#d0d0ff" stroke="black" points="2350,-129 2210,-129 2210,-110 2350,-110 2350,-129"/>
<text text-anchor="middle" x="2280" y="-117" font-family="Helvetica,sans-Serif" font-size="10.00">FilteringExampleNetwork</text>
</a>
</g>
</g>
<!-- FilteringExampleNetwork&#45;&gt;IntegratedCanvasVisualizer -->
<g id="edge41" class="edge">
<title>FilteringExampleNetwork&#45;&gt;IntegratedCanvasVisualizer</title>
<path fill="none" stroke="black" d="M2210.75,-109.98C2133.74,-100.51 2009.53,-85.24 1928.58,-75.29"/>
<polygon fill="black" stroke="black" points="1928.79,-71.78 1918.43,-74.04 1927.93,-78.73 1928.79,-71.78"/>
</g>
<!-- HandoverShowcase -->
<g id="node37" class="node">
<title>HandoverShowcase</title>
<g id="a_node37"><a xlink:href="inet.showcases.wireless.handover.HandoverShowcase.html" xlink:title="Network HandoverShowcase" target="_parent">
<polygon fill="#d0d0ff" stroke="black" points="2481.5,-129 2368.5,-129 2368.5,-110 2481.5,-110 2481.5,-129"/>
<text text-anchor="middle" x="2425" y="-117" font-family="Helvetica,sans-Serif" font-size="10.00">HandoverShowcase</text>
</a>
</g>
</g>
<!-- HandoverShowcase&#45;&gt;IntegratedCanvasVisualizer -->
<g id="edge42" class="edge">
<title>HandoverShowcase&#45;&gt;IntegratedCanvasVisualizer</title>
<path fill="none" stroke="black" d="M2368.49,-111.07C2365.28,-110.69 2362.1,-110.33 2359,-110 2210.14,-93.93 2036.34,-79.74 1934.89,-71.91"/>
<polygon fill="black" stroke="black" points="1934.94,-68.41 1924.7,-71.13 1934.4,-75.39 1934.94,-68.41"/>
</g>
<!-- HiddenNodeShowcase -->
<g id="node38" class="node">
<title>HiddenNodeShowcase</title>
<g id="a_node38"><a xlink:href="inet.showcases.wireless.hiddennode.HiddenNodeShowcase.html" xlink:title="Network HiddenNodeShowcase" target="_parent">
<polygon fill="#d0d0ff" stroke="black" points="2624.5,-129 2499.5,-129 2499.5,-110 2624.5,-110 2624.5,-129"/>
<text text-anchor="middle" x="2562" y="-117" font-family="Helvetica,sans-Serif" font-size="10.00">HiddenNodeShowcase</text>
</a>
</g>
</g>
<!-- HiddenNodeShowcase&#45;&gt;IntegratedCanvasVisualizer -->
<g id="edge43" class="edge">
<title>HiddenNodeShowcase&#45;&gt;IntegratedCanvasVisualizer</title>
<path fill="none" stroke="black" d="M2499.3,-110.82C2496.5,-110.53 2493.72,-110.26 2491,-110 2292.2,-91.22 2058.07,-76.97 1934.83,-70.08"/>
<polygon fill="black" stroke="black" points="1934.89,-66.58 1924.71,-69.52 1934.5,-73.57 1934.89,-66.58"/>
</g>
<!-- Ieee80211LevelofDetailShowcase -->
<g id="node39" class="node">
<title>Ieee80211LevelofDetailShowcase</title>
<g id="a_node39"><a xlink:href="inet.examples.wireless.ieee80211levelofdetail.Ieee80211LevelofDetailShowcase.html" xlink:title="Network Ieee80211LevelofDetailShowcase" target="_parent">
<polygon fill="#d0d0ff" stroke="black" points="2825,-129 2643,-129 2643,-110 2825,-110 2825,-129"/>
<text text-anchor="middle" x="2734" y="-117" font-family="Helvetica,sans-Serif" font-size="10.00">Ieee80211LevelofDetailShowcase</text>
</a>
</g>
</g>
<!-- Ieee80211LevelofDetailShowcase&#45;&gt;IntegratedCanvasVisualizer -->
<g id="edge44" class="edge">
<title>Ieee80211LevelofDetailShowcase&#45;&gt;IntegratedCanvasVisualizer</title>
<path fill="none" stroke="black" d="M2642.99,-110.65C2639.96,-110.43 2636.95,-110.21 2634,-110 2379.86,-92 2079.02,-76.59 1934.67,-69.57"/>
<polygon fill="black" stroke="black" points="1934.71,-66.06 1924.55,-69.07 1934.37,-73.05 1934.71,-66.06"/>
</g>
<!-- MobileNetwork -->
<g id="node40" class="node">
<title>MobileNetwork</title>
<g id="a_node40"><a xlink:href="inet.examples.mobility.MobileNetwork.html" xlink:title="Network MobileNetwork" target="_parent">
<polygon fill="#d0d0ff" stroke="black" points="2934.5,-129 2843.5,-129 2843.5,-110 2934.5,-110 2934.5,-129"/>
<text text-anchor="middle" x="2889" y="-117" font-family="Helvetica,sans-Serif" font-size="10.00">MobileNetwork</text>
</a>
</g>
</g>
<!-- MobileNetwork&#45;&gt;IntegratedCanvasVisualizer -->
<g id="edge45" class="edge">
<title>MobileNetwork&#45;&gt;IntegratedCanvasVisualizer</title>
<path fill="none" stroke="black" d="M2843.43,-111.07C2840.24,-110.67 2837.08,-110.31 2834,-110 2502.65,-77.01 2106.12,-68.46 1934.8,-66.26"/>
<polygon fill="black" stroke="black" points="1934.62,-62.76 1924.58,-66.13 1934.54,-69.76 1934.62,-62.76"/>
</g>
<!-- OpenStreetMapExample -->
<g id="node41" class="node">
<title>OpenStreetMapExample</title>
<g id="a_node41"><a xlink:href="inet.examples.openstreetmap.OpenStreetMapExample.html" xlink:title="Network OpenStreetMapExample" target="_parent">
<polygon fill="#d0d0ff" stroke="black" points="3087.5,-129 2952.5,-129 2952.5,-110 3087.5,-110 3087.5,-129"/>
<text text-anchor="middle" x="3020" y="-117" font-family="Helvetica,sans-Serif" font-size="10.00">OpenStreetMapExample</text>
</a>
</g>
</g>
<!-- OpenStreetMapExample&#45;&gt;IntegratedCanvasVisualizer -->
<g id="edge46" class="edge">
<title>OpenStreetMapExample&#45;&gt;IntegratedCanvasVisualizer</title>
<path fill="none" stroke="black" d="M2952.48,-110.7C2949.62,-110.45 2946.78,-110.21 2944,-110 2568.82,-81.43 2119.84,-70.45 1934.98,-66.93"/>
<polygon fill="black" stroke="black" points="1934.84,-63.42 1924.78,-66.73 1934.71,-70.42 1934.84,-63.42"/>
</g>
<!-- PowerConsumptionShowcase -->
<g id="node42" class="node">
<title>PowerConsumptionShowcase</title>
<g id="a_node42"><a xlink:href="inet.showcases.wireless.power.PowerConsumptionShowcase.html" xlink:title="Network PowerConsumptionShowcase" target="_parent">
<polygon fill="#d0d0ff" stroke="black" points="3266,-129 3106,-129 3106,-110 3266,-110 3266,-129"/>
<text text-anchor="middle" x="3186" y="-117" font-family="Helvetica,sans-Serif" font-size="10.00">PowerConsumptionShowcase</text>
</a>
</g>
</g>
<!-- PowerConsumptionShowcase&#45;&gt;IntegratedCanvasVisualizer -->
<g id="edge47" class="edge">
<title>PowerConsumptionShowcase&#45;&gt;IntegratedCanvasVisualizer</title>
<path fill="none" stroke="black" d="M3105.96,-110.63C3102.94,-110.4 3099.94,-110.19 3097,-110 2660.82,-81.42 2137.58,-70.26 1934.97,-66.8"/>
<polygon fill="black" stroke="black" points="1934.75,-63.3 1924.7,-66.63 1934.64,-70.3 1934.75,-63.3"/>
</g>
<!-- RateControlShowcase -->
<g id="node43" class="node">
<title>RateControlShowcase</title>
<g id="a_node43"><a xlink:href="inet.showcases.wireless.ratecontrol.RateControlShowcase.html" xlink:title="Network RateControlShowcase" target="_parent">
<polygon fill="#d0d0ff" stroke="black" points="3407.5,-129 3284.5,-129 3284.5,-110 3407.5,-110 3407.5,-129"/>
<text text-anchor="middle" x="3346" y="-117" font-family="Helvetica,sans-Serif" font-size="10.00">RateControlShowcase</text>
</a>
</g>
</g>
<!-- RateControlShowcase&#45;&gt;IntegratedCanvasVisualizer -->
<g id="edge48" class="edge">
<title>RateControlShowcase&#45;&gt;IntegratedCanvasVisualizer</title>
<path fill="none" stroke="black" d="M3284.46,-110.8C3281.26,-110.5 3278.09,-110.23 3275,-110 2768.07,-71.82 2157.39,-66.26 1935.16,-65.55"/>
<polygon fill="black" stroke="black" points="1934.89,-62.05 1924.87,-65.52 1934.86,-69.05 1934.89,-62.05"/>
</g>
</g>
</svg>
