<?xml version="1.0" encoding="UTF-8" standalone="no"?>
<!DOCTYPE svg PUBLIC "-//W3C//DTD SVG 1.1//EN"
 "http://www.w3.org/Graphics/SVG/1.1/DTD/svg11.dtd">
<!-- Generated by graphviz version 2.43.0 (0)
 -->
<!-- Title: opp Pages: 1 -->
<svg width="1661pt" height="82pt"
 viewBox="0.00 0.00 1660.50 82.00" xmlns="http://www.w3.org/2000/svg" xmlns:xlink="http://www.w3.org/1999/xlink">
<g id="graph0" class="graph" transform="scale(1 1) rotate(0) translate(4 78)">
<title>opp</title>
<polygon fill="transparent" stroke="transparent" points="-4,4 -4,-78 1656.5,-78 1656.5,4 -4,4"/>
<!-- LinkLayerNodeBase -->
<g id="node1" class="node">
<title>LinkLayerNodeBase</title>
<g id="a_node1"><a xlink:href="inet.node.base.LinkLayerNodeBase.html" xlink:title="Compound Module LinkLayerNodeBase" target="_parent">
<polygon fill="#fff700" stroke="black" points="908.5,-74 795.5,-74 795.5,-55 908.5,-55 908.5,-74"/>
<text text-anchor="middle" x="852" y="-62" font-family="Helvetica,sans-Serif" font-size="10.00">LinkLayerNodeBase</text>
</a>
</g>
</g>
<!-- InterfaceTable -->
<g id="node2" class="node">
<title>InterfaceTable</title>
<g id="a_node2"><a xlink:href="inet.networklayer.common.InterfaceTable.html" xlink:title="Simple Module InterfaceTable" target="_parent">
<polygon fill="#fffcaf" stroke="black" points="86,-19 0,-19 0,0 86,0 86,-19"/>
<text text-anchor="middle" x="43" y="-7" font-family="Helvetica,sans-Serif" font-size="10.00">InterfaceTable</text>
</a>
</g>
</g>
<!-- LinkLayerNodeBase&#45;&gt;InterfaceTable -->
<g id="edge1" class="edge">
<title>LinkLayerNodeBase&#45;&gt;InterfaceTable</title>
<path fill="none" stroke="black" d="M795.33,-62.17C670.77,-58.81 363.65,-48.17 96.37,-19.03"/>
<polygon fill="black" stroke="black" points="96.41,-15.51 86.08,-17.89 95.64,-22.47 96.41,-15.51"/>
</g>
<!-- IWirelessInterface -->
<g id="node3" class="node">
<title>IWirelessInterface</title>
<g id="a_node3"><a xlink:href="inet.linklayer.contract.IWirelessInterface.html" xlink:title="Module Interface IWirelessInterface" target="_parent">
<polygon fill="#fffcaf" stroke="black" stroke-dasharray="5,2" points="209.5,-19 104.5,-19 104.5,0 209.5,0 209.5,-19"/>
<text text-anchor="middle" x="157" y="-7" font-family="Helvetica,sans-Serif" font-size="10.00">IWirelessInterface</text>
</a>
</g>
</g>
<!-- LinkLayerNodeBase&#45;&gt;IWirelessInterface -->
<g id="edge2" class="edge">
<title>LinkLayerNodeBase&#45;&gt;IWirelessInterface</title>
<path fill="none" stroke="black" d="M795.15,-60.77C685.86,-55.23 438.67,-41.39 219.81,-19.01"/>
<polygon fill="black" stroke="black" points="220.04,-15.52 209.74,-17.97 219.33,-22.48 220.04,-15.52"/>
</g>
<!-- IIeee8021qLayer -->
<g id="node4" class="node">
<title>IIeee8021qLayer</title>
<g id="a_node4"><a xlink:href="inet.linklayer.ieee8021q.IIeee8021qLayer.html" xlink:title="Module Interface IIeee8021qLayer" target="_parent">
<polygon fill="#fffcaf" stroke="black" stroke-dasharray="5,2" points="326,-19 228,-19 228,0 326,0 326,-19"/>
<text text-anchor="middle" x="277" y="-7" font-family="Helvetica,sans-Serif" font-size="10.00">IIeee8021qLayer</text>
</a>
</g>
</g>
<!-- LinkLayerNodeBase&#45;&gt;IIeee8021qLayer -->
<g id="edge3" class="edge">
<title>LinkLayerNodeBase&#45;&gt;IIeee8021qLayer</title>
<path fill="none" stroke="black" d="M795.28,-59.73C701.82,-53.27 509.4,-38.95 336.09,-19.06"/>
<polygon fill="black" stroke="black" points="336.36,-15.57 326.02,-17.89 335.55,-22.52 336.36,-15.57"/>
</g>
<!-- ILoopbackInterface -->
<g id="node5" class="node">
<title>ILoopbackInterface</title>
<g id="a_node5"><a xlink:href="inet.linklayer.contract.ILoopbackInterface.html" xlink:title="Module Interface ILoopbackInterface" target="_parent">
<polygon fill="#fffcaf" stroke="black" stroke-dasharray="5,2" points="454,-19 344,-19 344,0 454,0 454,-19"/>
<text text-anchor="middle" x="399" y="-7" font-family="Helvetica,sans-Serif" font-size="10.00">ILoopbackInterface</text>
</a>
</g>
</g>
<!-- LinkLayerNodeBase&#45;&gt;ILoopbackInterface -->
<g id="edge4" class="edge">
<title>LinkLayerNodeBase&#45;&gt;ILoopbackInterface</title>
<path fill="none" stroke="black" d="M795.27,-57.34C721.49,-49.25 588.31,-34.4 464.21,-19.13"/>
<polygon fill="black" stroke="black" points="464.5,-15.64 454.15,-17.89 463.65,-22.59 464.5,-15.64"/>
</g>
<!-- IEthernetLayer -->
<g id="node6" class="node">
<title>IEthernetLayer</title>
<g id="a_node6"><a xlink:href="inet.linklayer.ethernet.contract.IEthernetLayer.html" xlink:title="Module Interface IEthernetLayer" target="_parent">
<polygon fill="#fffcaf" stroke="black" stroke-dasharray="5,2" points="560,-19 472,-19 472,0 560,0 560,-19"/>
<text text-anchor="middle" x="516" y="-7" font-family="Helvetica,sans-Serif" font-size="10.00">IEthernetLayer</text>
</a>
</g>
</g>
<!-- LinkLayerNodeBase&#45;&gt;IEthernetLayer -->
<g id="edge5" class="edge">
<title>LinkLayerNodeBase&#45;&gt;IEthernetLayer</title>
<path fill="none" stroke="black" d="M797.48,-54.98C742.65,-46.4 655.41,-32.71 570.34,-19.21"/>
<polygon fill="black" stroke="black" points="570.67,-15.72 560.24,-17.61 569.57,-22.63 570.67,-15.72"/>
</g>
<!-- IProtocolLayer -->
<g id="node7" class="node">
<title>IProtocolLayer</title>
<g id="a_node7"><a xlink:href="inet.protocolelement.contract.IProtocolLayer.html" xlink:title="Module Interface IProtocolLayer" target="_parent">
<polygon fill="#fffcaf" stroke="black" stroke-dasharray="5,2" points="664,-19 578,-19 578,0 664,0 664,-19"/>
<text text-anchor="middle" x="621" y="-7" font-family="Helvetica,sans-Serif" font-size="10.00">IProtocolLayer</text>
</a>
</g>
</g>
<!-- LinkLayerNodeBase&#45;&gt;IProtocolLayer -->
<g id="edge6" class="edge">
<title>LinkLayerNodeBase&#45;&gt;IProtocolLayer</title>
<path fill="none" stroke="black" d="M814.89,-54.98C775.01,-45.84 711.54,-31.27 668.16,-21.32"/>
<polygon fill="black" stroke="black" points="668.93,-17.91 658.41,-19.08 667.37,-24.73 668.93,-17.91"/>
</g>
<!-- IEthernetInterface -->
<g id="node8" class="node">
<title>IEthernetInterface</title>
<g id="a_node8"><a xlink:href="inet.linklayer.contract.IEthernetInterface.html" xlink:title="Module Interface IEthernetInterface" target="_parent">
<polygon fill="#fffcaf" stroke="black" stroke-dasharray="5,2" points="786,-19 682,-19 682,0 786,0 786,-19"/>
<text text-anchor="middle" x="734" y="-7" font-family="Helvetica,sans-Serif" font-size="10.00">IEthernetInterface</text>
</a>
</g>
</g>
<!-- LinkLayerNodeBase&#45;&gt;IEthernetInterface -->
<g id="edge7" class="edge">
<title>LinkLayerNodeBase&#45;&gt;IEthernetInterface</title>
<path fill="none" stroke="black" d="M833.04,-54.98C813.97,-46.42 784.34,-33.11 762.45,-23.28"/>
<polygon fill="black" stroke="black" points="763.86,-20.07 753.3,-19.17 760.99,-26.46 763.86,-20.07"/>
</g>
<!-- IIeee8021rLayer -->
<g id="node9" class="node">
<title>IIeee8021rLayer</title>
<g id="a_node9"><a xlink:href="inet.linklayer.ieee8021r.IIeee8021rLayer.html" xlink:title="Module Interface IIeee8021rLayer" target="_parent">
<polygon fill="#fffcaf" stroke="black" stroke-dasharray="5,2" points="899.5,-19 804.5,-19 804.5,0 899.5,0 899.5,-19"/>
<text text-anchor="middle" x="852" y="-7" font-family="Helvetica,sans-Serif" font-size="10.00">IIeee8021rLayer</text>
</a>
</g>
</g>
<!-- LinkLayerNodeBase&#45;&gt;IIeee8021rLayer -->
<g id="edge8" class="edge">
<title>LinkLayerNodeBase&#45;&gt;IIeee8021rLayer</title>
<path fill="none" stroke="black" d="M852,-54.75C852,-47.8 852,-37.85 852,-29.13"/>
<polygon fill="black" stroke="black" points="855.5,-29.09 852,-19.09 848.5,-29.09 855.5,-29.09"/>
</g>
<!-- MessageDispatcher -->
<g id="node10" class="node">
<title>MessageDispatcher</title>
<g id="a_node10"><a xlink:href="inet.common.MessageDispatcher.html" xlink:title="Simple Module MessageDispatcher" target="_parent">
<polygon fill="#fffcaf" stroke="black" points="1030.5,-19 917.5,-19 917.5,0 1030.5,0 1030.5,-19"/>
<text text-anchor="middle" x="974" y="-7" font-family="Helvetica,sans-Serif" font-size="10.00">MessageDispatcher</text>
</a>
</g>
</g>
<!-- LinkLayerNodeBase&#45;&gt;MessageDispatcher -->
<g id="edge9" class="edge">
<title>LinkLayerNodeBase&#45;&gt;MessageDispatcher</title>
<path fill="none" stroke="black" d="M871.6,-54.98C891.32,-46.42 921.95,-33.11 944.58,-23.28"/>
<polygon fill="black" stroke="black" points="946.26,-26.37 954.04,-19.17 943.48,-19.94 946.26,-26.37"/>
</g>
<!-- ITunnelInterface -->
<g id="node11" class="node">
<title>ITunnelInterface</title>
<g id="a_node11"><a xlink:href="inet.linklayer.contract.ITunnelInterface.html" xlink:title="Module Interface ITunnelInterface" target="_parent">
<polygon fill="#fffcaf" stroke="black" stroke-dasharray="5,2" points="1143.5,-19 1048.5,-19 1048.5,0 1143.5,0 1143.5,-19"/>
<text text-anchor="middle" x="1096" y="-7" font-family="Helvetica,sans-Serif" font-size="10.00">ITunnelInterface</text>
</a>
</g>
</g>
<!-- LinkLayerNodeBase&#45;&gt;ITunnelInterface -->
<g id="edge10" class="edge">
<title>LinkLayerNodeBase&#45;&gt;ITunnelInterface</title>
<path fill="none" stroke="black" d="M891.2,-54.98C933.41,-45.82 1000.65,-31.21 1046.48,-21.26"/>
<polygon fill="black" stroke="black" points="1047.46,-24.63 1056.49,-19.08 1045.97,-17.78 1047.46,-24.63"/>
</g>
<!-- IIeee8022Llc -->
<g id="node12" class="node">
<title>IIeee8022Llc</title>
<g id="a_node12"><a xlink:href="inet.linklayer.ieee8022.IIeee8022Llc.html" xlink:title="Module Interface IIeee8022Llc" target="_parent">
<polygon fill="#fffcaf" stroke="black" stroke-dasharray="5,2" points="1240,-19 1162,-19 1162,0 1240,0 1240,-19"/>
<text text-anchor="middle" x="1201" y="-7" font-family="Helvetica,sans-Serif" font-size="10.00">IIeee8022Llc</text>
</a>
</g>
</g>
<!-- LinkLayerNodeBase&#45;&gt;IIeee8022Llc -->
<g id="edge11" class="edge">
<title>LinkLayerNodeBase&#45;&gt;IIeee8022Llc</title>
<path fill="none" stroke="black" d="M908.66,-55.61C967.09,-47.37 1061.11,-33.8 1152.06,-19.11"/>
<polygon fill="black" stroke="black" points="1152.67,-22.56 1161.98,-17.51 1151.55,-15.65 1152.67,-22.56"/>
</g>
<!-- PcapRecorder -->
<g id="node13" class="node">
<title>PcapRecorder</title>
<g id="a_node13"><a xlink:href="inet.common.packet.recorder.PcapRecorder.html" xlink:title="Simple Module PcapRecorder" target="_parent">
<polygon fill="#fffcaf" stroke="black" points="1341.5,-19 1258.5,-19 1258.5,0 1341.5,0 1341.5,-19"/>
<text text-anchor="middle" x="1300" y="-7" font-family="Helvetica,sans-Serif" font-size="10.00">PcapRecorder</text>
</a>
</g>
</g>
<!-- LinkLayerNodeBase&#45;&gt;PcapRecorder -->
<g id="edge12" class="edge">
<title>LinkLayerNodeBase&#45;&gt;PcapRecorder</title>
<path fill="none" stroke="black" d="M908.66,-58.11C983.84,-50.75 1120.92,-36.58 1248.34,-19.02"/>
<polygon fill="black" stroke="black" points="1248.86,-22.48 1258.28,-17.64 1247.89,-15.55 1248.86,-22.48"/>
</g>
<!-- IVirtualInterface -->
<g id="node14" class="node">
<title>IVirtualInterface</title>
<g id="a_node14"><a xlink:href="inet.linklayer.contract.IVirtualInterface.html" xlink:title="Module Interface IVirtualInterface" target="_parent">
<polygon fill="#fffcaf" stroke="black" stroke-dasharray="5,2" points="1454.5,-19 1359.5,-19 1359.5,0 1454.5,0 1454.5,-19"/>
<text text-anchor="middle" x="1407" y="-7" font-family="Helvetica,sans-Serif" font-size="10.00">IVirtualInterface</text>
</a>
</g>
</g>
<!-- LinkLayerNodeBase&#45;&gt;IVirtualInterface -->
<g id="edge13" class="edge">
<title>LinkLayerNodeBase&#45;&gt;IVirtualInterface</title>
<path fill="none" stroke="black" d="M908.62,-59.59C999.38,-53.08 1183.29,-38.85 1348.99,-19.18"/>
<polygon fill="black" stroke="black" points="1349.86,-22.6 1359.37,-17.93 1349.02,-15.65 1349.86,-22.6"/>
</g>
<!-- IdealChannel -->
<g id="node15" class="node">
<title>IdealChannel</title>
<g id="a_node15"><a xlink:href="ned.IdealChannel.html" xlink:title="Channel IdealChannel" target="_parent">
<polygon fill="#d0ffd0" stroke="black" points="1553,-19 1473,-19 1473,0 1553,0 1553,-19"/>
<text text-anchor="middle" x="1513" y="-7" font-family="Helvetica,sans-Serif" font-size="10.00">IdealChannel</text>
</a>
</g>
</g>
<!-- LinkLayerNodeBase&#45;&gt;IdealChannel -->
<g id="edge14" class="edge">
<title>LinkLayerNodeBase&#45;&gt;IdealChannel</title>
<path fill="none" stroke="black" d="M908.71,-61.26C1015.29,-56.63 1252.88,-44.38 1462.95,-19"/>
<polygon fill="black" stroke="black" points="1463.43,-22.47 1472.94,-17.78 1462.59,-15.52 1463.43,-22.47"/>
</g>
<!-- IPppInterface -->
<g id="node16" class="node">
<title>IPppInterface</title>
<g id="a_node16"><a xlink:href="inet.linklayer.contract.IPppInterface.html" xlink:title="Module Interface IPppInterface" target="_parent">
<polygon fill="#fffcaf" stroke="black" stroke-dasharray="5,2" points="1652.5,-19 1571.5,-19 1571.5,0 1652.5,0 1652.5,-19"/>
<text text-anchor="middle" x="1612" y="-7" font-family="Helvetica,sans-Serif" font-size="10.00">IPppInterface</text>
</a>
</g>
</g>
<!-- LinkLayerNodeBase&#45;&gt;IPppInterface -->
<g id="edge15" class="edge">
<title>LinkLayerNodeBase&#45;&gt;IPppInterface</title>
<path fill="none" stroke="black" d="M908.78,-61.98C1027.82,-58.35 1312.38,-47.37 1561.43,-18.92"/>
<polygon fill="black" stroke="black" points="1561.86,-22.4 1571.39,-17.77 1561.06,-15.44 1561.86,-22.4"/>
</g>
</g>
</svg>
