<?xml version="1.0" encoding="UTF-8" standalone="no"?>
<!DOCTYPE svg PUBLIC "-//W3C//DTD SVG 1.1//EN"
 "http://www.w3.org/Graphics/SVG/1.1/DTD/svg11.dtd">
<!-- Generated by graphviz version 2.43.0 (0)
 -->
<!-- Title: opp Pages: 1 -->
<svg width="542pt" height="82pt"
 viewBox="0.00 0.00 541.50 82.00" xmlns="http://www.w3.org/2000/svg" xmlns:xlink="http://www.w3.org/1999/xlink">
<g id="graph0" class="graph" transform="scale(1 1) rotate(0) translate(4 78)">
<title>opp</title>
<polygon fill="transparent" stroke="transparent" points="-4,4 -4,-78 537.5,-78 537.5,4 -4,4"/>
<!-- ApskLayeredReceiver -->
<g id="node1" class="node">
<title>ApskLayeredReceiver</title>
<g id="a_node1"><a xlink:href="inet.physicallayer.wireless.apsk.bitlevel.ApskLayeredReceiver.html" xlink:title="Compound Module ApskLayeredReceiver" target="_parent">
<polygon fill="#fff700" stroke="black" points="285,-74 163,-74 163,-55 285,-55 285,-74"/>
<text text-anchor="middle" x="224" y="-62" font-family="Helvetica,sans-Serif" font-size="10.00">ApskLayeredReceiver</text>
</a>
</g>
</g>
<!-- IDecoder -->
<g id="node2" class="node">
<title>IDecoder</title>
<g id="a_node2"><a xlink:href="inet.physicallayer.wireless.common.contract.bitlevel.IDecoder.html" xlink:title="Module Interface IDecoder" target="_parent">
<polygon fill="#fffcaf" stroke="black" stroke-dasharray="5,2" points="60,-19 0,-19 0,0 60,0 60,-19"/>
<text text-anchor="middle" x="30" y="-7" font-family="Helvetica,sans-Serif" font-size="10.00">IDecoder</text>
</a>
</g>
</g>
<!-- ApskLayeredReceiver&#45;&gt;IDecoder -->
<g id="edge1" class="edge">
<title>ApskLayeredReceiver&#45;&gt;IDecoder</title>
<path fill="none" stroke="black" d="M192.83,-54.98C159.45,-45.86 106.36,-31.36 69.94,-21.41"/>
<polygon fill="black" stroke="black" points="70.7,-17.99 60.13,-18.73 68.86,-24.74 70.7,-17.99"/>
</g>
<!-- IPulseFilter -->
<g id="node3" class="node">
<title>IPulseFilter</title>
<g id="a_node3"><a xlink:href="inet.physicallayer.wireless.common.contract.bitlevel.IPulseFilter.html" xlink:title="Module Interface IPulseFilter" target="_parent">
<polygon fill="#fffcaf" stroke="black" stroke-dasharray="5,2" points="149.5,-19 78.5,-19 78.5,0 149.5,0 149.5,-19"/>
<text text-anchor="middle" x="114" y="-7" font-family="Helvetica,sans-Serif" font-size="10.00">IPulseFilter</text>
</a>
</g>
</g>
<!-- ApskLayeredReceiver&#45;&gt;IPulseFilter -->
<g id="edge2" class="edge">
<title>ApskLayeredReceiver&#45;&gt;IPulseFilter</title>
<path fill="none" stroke="black" d="M206.33,-54.98C188.71,-46.5 161.42,-33.35 141.07,-23.54"/>
<polygon fill="black" stroke="black" points="142.52,-20.36 131.99,-19.17 139.48,-26.66 142.52,-20.36"/>
</g>
<!-- ILayeredErrorModel -->
<g id="node4" class="node">
<title>ILayeredErrorModel</title>
<g id="a_node4"><a xlink:href="inet.physicallayer.wireless.common.contract.bitlevel.ILayeredErrorModel.html" xlink:title="Module Interface ILayeredErrorModel" target="_parent">
<polygon fill="#fffcaf" stroke="black" stroke-dasharray="5,2" points="280,-19 168,-19 168,0 280,0 280,-19"/>
<text text-anchor="middle" x="224" y="-7" font-family="Helvetica,sans-Serif" font-size="10.00">ILayeredErrorModel</text>
</a>
</g>
</g>
<!-- ApskLayeredReceiver&#45;&gt;ILayeredErrorModel -->
<g id="edge3" class="edge">
<title>ApskLayeredReceiver&#45;&gt;ILayeredErrorModel</title>
<path fill="none" stroke="black" d="M224,-54.75C224,-47.8 224,-37.85 224,-29.13"/>
<polygon fill="black" stroke="black" points="227.5,-29.09 224,-19.09 220.5,-29.09 227.5,-29.09"/>
</g>
<!-- IAnalogDigitalConverter -->
<g id="node5" class="node">
<title>IAnalogDigitalConverter</title>
<g id="a_node5"><a xlink:href="inet.physicallayer.wireless.common.contract.bitlevel.IAnalogDigitalConverter.html" xlink:title="Module Interface IAnalogDigitalConverter" target="_parent">
<polygon fill="#fffcaf" stroke="black" stroke-dasharray="5,2" points="432,-19 298,-19 298,0 432,0 432,-19"/>
<text text-anchor="middle" x="365" y="-7" font-family="Helvetica,sans-Serif" font-size="10.00">IAnalogDigitalConverter</text>
</a>
</g>
</g>
<!-- ApskLayeredReceiver&#45;&gt;IAnalogDigitalConverter -->
<g id="edge4" class="edge">
<title>ApskLayeredReceiver&#45;&gt;IAnalogDigitalConverter</title>
<path fill="none" stroke="black" d="M246.65,-54.98C269.85,-46.27 306.12,-32.63 332.4,-22.75"/>
<polygon fill="black" stroke="black" points="333.8,-25.97 341.93,-19.17 331.34,-19.41 333.8,-25.97"/>
</g>
<!-- IDemodulator -->
<g id="node6" class="node">
<title>IDemodulator</title>
<g id="a_node6"><a xlink:href="inet.physicallayer.wireless.common.contract.bitlevel.IDemodulator.html" xlink:title="Module Interface IDemodulator" target="_parent">
<polygon fill="#fffcaf" stroke="black" stroke-dasharray="5,2" points="533.5,-19 450.5,-19 450.5,0 533.5,0 533.5,-19"/>
<text text-anchor="middle" x="492" y="-7" font-family="Helvetica,sans-Serif" font-size="10.00">IDemodulator</text>
</a>
</g>
</g>
<!-- ApskLayeredReceiver&#45;&gt;IDemodulator -->
<g id="edge5" class="edge">
<title>ApskLayeredReceiver&#45;&gt;IDemodulator</title>
<path fill="none" stroke="black" d="M267.06,-54.98C314.26,-45.65 389.97,-30.68 440.34,-20.72"/>
<polygon fill="black" stroke="black" points="441.24,-24.11 450.37,-18.73 439.88,-17.24 441.24,-24.11"/>
</g>
</g>
</svg>
