<?xml version="1.0" encoding="UTF-8" standalone="no"?>
<!DOCTYPE svg PUBLIC "-//W3C//DTD SVG 1.1//EN"
 "http://www.w3.org/Graphics/SVG/1.1/DTD/svg11.dtd">
<!-- Generated by graphviz version 2.43.0 (0)
 -->
<!-- Title: opp Pages: 1 -->
<svg width="466pt" height="137pt"
 viewBox="0.00 0.00 466.00 137.00" xmlns="http://www.w3.org/2000/svg" xmlns:xlink="http://www.w3.org/1999/xlink">
<g id="graph0" class="graph" transform="scale(1 1) rotate(0) translate(4 133)">
<title>opp</title>
<polygon fill="transparent" stroke="transparent" points="-4,4 -4,-133 462,-133 462,4 -4,4"/>
<!-- TelnetClientTraffic -->
<g id="node1" class="node">
<title>TelnetClientTraffic</title>
<g id="a_node1"><a xlink:href="inet.tutorials.queueing.TelnetClientTraffic.html" xlink:title="Compound Module TelnetClientTraffic" target="_parent">
<polygon fill="#fff700" stroke="black" points="294.5,-74 190.5,-74 190.5,-55 294.5,-55 294.5,-74"/>
<text text-anchor="middle" x="242.5" y="-62" font-family="Helvetica,sans-Serif" font-size="10.00">TelnetClientTraffic</text>
</a>
</g>
</g>
<!-- IPassivePacketSink -->
<g id="node2" class="node">
<title>IPassivePacketSink</title>
<g id="a_node2"><a xlink:href="inet.queueing.contract.IPassivePacketSink.html" xlink:title="Module Interface IPassivePacketSink" target="_parent">
<polygon fill="#fffcaf" stroke="black" stroke-dasharray="5,2" points="109,-19 0,-19 0,0 109,0 109,-19"/>
<text text-anchor="middle" x="54.5" y="-7" font-family="Helvetica,sans-Serif" font-size="10.00">IPassivePacketSink</text>
</a>
</g>
</g>
<!-- TelnetClientTraffic&#45;&gt;IPassivePacketSink -->
<g id="edge1" class="edge">
<title>TelnetClientTraffic&#45;&gt;IPassivePacketSink</title>
<path fill="none" stroke="black" d="M212.29,-54.98C180.46,-46.01 130.14,-31.82 94.9,-21.89"/>
<polygon fill="black" stroke="black" points="95.52,-18.43 84.94,-19.08 93.62,-25.16 95.52,-18.43"/>
</g>
<!-- IActivePacketSource -->
<g id="node3" class="node">
<title>IActivePacketSource</title>
<g id="a_node3"><a xlink:href="inet.queueing.contract.IActivePacketSource.html" xlink:title="Module Interface IActivePacketSource" target="_parent">
<polygon fill="#fffcaf" stroke="black" stroke-dasharray="5,2" points="242,-19 127,-19 127,0 242,0 242,-19"/>
<text text-anchor="middle" x="184.5" y="-7" font-family="Helvetica,sans-Serif" font-size="10.00">IActivePacketSource</text>
</a>
</g>
</g>
<!-- TelnetClientTraffic&#45;&gt;IActivePacketSource -->
<g id="edge2" class="edge">
<title>TelnetClientTraffic&#45;&gt;IActivePacketSource</title>
<path fill="none" stroke="black" d="M233.18,-54.98C224.69,-47.23 211.94,-35.58 201.62,-26.14"/>
<polygon fill="black" stroke="black" points="203.73,-23.33 193.99,-19.17 199.01,-28.5 203.73,-23.33"/>
</g>
<!-- IdealChannel -->
<g id="node4" class="node">
<title>IdealChannel</title>
<g id="a_node4"><a xlink:href="ned.IdealChannel.html" xlink:title="Channel IdealChannel" target="_parent">
<polygon fill="#d0ffd0" stroke="black" points="340.5,-19 260.5,-19 260.5,0 340.5,0 340.5,-19"/>
<text text-anchor="middle" x="300.5" y="-7" font-family="Helvetica,sans-Serif" font-size="10.00">IdealChannel</text>
</a>
</g>
</g>
<!-- TelnetClientTraffic&#45;&gt;IdealChannel -->
<g id="edge3" class="edge">
<title>TelnetClientTraffic&#45;&gt;IdealChannel</title>
<path fill="none" stroke="black" d="M251.82,-54.98C260.31,-47.23 273.06,-35.58 283.38,-26.14"/>
<polygon fill="black" stroke="black" points="285.99,-28.5 291.01,-19.17 281.27,-23.33 285.99,-28.5"/>
</g>
<!-- IPacketScheduler -->
<g id="node5" class="node">
<title>IPacketScheduler</title>
<g id="a_node5"><a xlink:href="inet.queueing.contract.IPacketScheduler.html" xlink:title="Module Interface IPacketScheduler" target="_parent">
<polygon fill="#fffcaf" stroke="black" stroke-dasharray="5,2" points="458,-19 359,-19 359,0 458,0 458,-19"/>
<text text-anchor="middle" x="408.5" y="-7" font-family="Helvetica,sans-Serif" font-size="10.00">IPacketScheduler</text>
</a>
</g>
</g>
<!-- TelnetClientTraffic&#45;&gt;IPacketScheduler -->
<g id="edge4" class="edge">
<title>TelnetClientTraffic&#45;&gt;IPacketScheduler</title>
<path fill="none" stroke="black" d="M269.17,-54.98C297.04,-46.09 340.95,-32.07 372.02,-22.15"/>
<polygon fill="black" stroke="black" points="373.16,-25.46 381.62,-19.08 371.03,-18.79 373.16,-25.46"/>
</g>
<!-- TelnetTutorialStep -->
<g id="node6" class="node">
<title>TelnetTutorialStep</title>
<g id="a_node6"><a xlink:href="inet.tutorials.queueing.TelnetTutorialStep.html" xlink:title="Network TelnetTutorialStep" target="_parent">
<polygon fill="#d0d0ff" stroke="black" points="294.5,-129 190.5,-129 190.5,-110 294.5,-110 294.5,-129"/>
<text text-anchor="middle" x="242.5" y="-117" font-family="Helvetica,sans-Serif" font-size="10.00">TelnetTutorialStep</text>
</a>
</g>
</g>
<!-- TelnetTutorialStep&#45;&gt;TelnetClientTraffic -->
<g id="edge5" class="edge">
<title>TelnetTutorialStep&#45;&gt;TelnetClientTraffic</title>
<path fill="none" stroke="black" d="M242.5,-109.75C242.5,-102.8 242.5,-92.85 242.5,-84.13"/>
<polygon fill="black" stroke="black" points="246,-84.09 242.5,-74.09 239,-84.09 246,-84.09"/>
</g>
</g>
</svg>
