<?xml version="1.0" encoding="UTF-8" standalone="no"?>
<!DOCTYPE svg PUBLIC "-//W3C//DTD SVG 1.1//EN"
 "http://www.w3.org/Graphics/SVG/1.1/DTD/svg11.dtd">
<!-- Generated by graphviz version 2.43.0 (0)
 -->
<!-- Title: opp Pages: 1 -->
<svg width="492pt" height="82pt"
 viewBox="0.00 0.00 492.00 82.00" xmlns="http://www.w3.org/2000/svg" xmlns:xlink="http://www.w3.org/1999/xlink">
<g id="graph0" class="graph" transform="scale(1 1) rotate(0) translate(4 78)">
<title>opp</title>
<polygon fill="transparent" stroke="transparent" points="-4,4 -4,-78 488,-78 488,4 -4,4"/>
<!-- OrdinalBasedDuplicatorTutorialStep -->
<g id="node1" class="node">
<title>OrdinalBasedDuplicatorTutorialStep</title>
<g id="a_node1"><a xlink:href="inet.tutorials.queueing.OrdinalBasedDuplicatorTutorialStep.html" xlink:title="Network OrdinalBasedDuplicatorTutorialStep" target="_parent">
<polygon fill="#9090ff" stroke="black" points="316,-74 126,-74 126,-55 316,-55 316,-74"/>
<text text-anchor="middle" x="221" y="-62" font-family="Helvetica,sans-Serif" font-size="10.00">OrdinalBasedDuplicatorTutorialStep</text>
</a>
</g>
</g>
<!-- PassivePacketSink -->
<g id="node2" class="node">
<title>PassivePacketSink</title>
<g id="a_node2"><a xlink:href="inet.queueing.sink.PassivePacketSink.html" xlink:title="Simple Module PassivePacketSink" target="_parent">
<polygon fill="#fffcaf" stroke="black" points="106,-19 0,-19 0,0 106,0 106,-19"/>
<text text-anchor="middle" x="53" y="-7" font-family="Helvetica,sans-Serif" font-size="10.00">PassivePacketSink</text>
</a>
</g>
</g>
<!-- OrdinalBasedDuplicatorTutorialStep&#45;&gt;PassivePacketSink -->
<g id="edge1" class="edge">
<title>OrdinalBasedDuplicatorTutorialStep&#45;&gt;PassivePacketSink</title>
<path fill="none" stroke="black" d="M194.01,-54.98C165.8,-46.09 121.36,-32.07 89.92,-22.15"/>
<polygon fill="black" stroke="black" points="90.79,-18.75 80.2,-19.08 88.69,-25.43 90.79,-18.75"/>
</g>
<!-- IdealChannel -->
<g id="node3" class="node">
<title>IdealChannel</title>
<g id="a_node3"><a xlink:href="ned.IdealChannel.html" xlink:title="Channel IdealChannel" target="_parent">
<polygon fill="#d0ffd0" stroke="black" points="204,-19 124,-19 124,0 204,0 204,-19"/>
<text text-anchor="middle" x="164" y="-7" font-family="Helvetica,sans-Serif" font-size="10.00">IdealChannel</text>
</a>
</g>
</g>
<!-- OrdinalBasedDuplicatorTutorialStep&#45;&gt;IdealChannel -->
<g id="edge2" class="edge">
<title>OrdinalBasedDuplicatorTutorialStep&#45;&gt;IdealChannel</title>
<path fill="none" stroke="black" d="M211.84,-54.98C203.5,-47.23 190.97,-35.58 180.82,-26.14"/>
<polygon fill="black" stroke="black" points="183.03,-23.42 173.32,-19.17 178.26,-28.54 183.03,-23.42"/>
</g>
<!-- ActivePacketSource -->
<g id="node4" class="node">
<title>ActivePacketSource</title>
<g id="a_node4"><a xlink:href="inet.queueing.source.ActivePacketSource.html" xlink:title="Simple Module ActivePacketSource" target="_parent">
<polygon fill="#fffcaf" stroke="black" points="334,-19 222,-19 222,0 334,0 334,-19"/>
<text text-anchor="middle" x="278" y="-7" font-family="Helvetica,sans-Serif" font-size="10.00">ActivePacketSource</text>
</a>
</g>
</g>
<!-- OrdinalBasedDuplicatorTutorialStep&#45;&gt;ActivePacketSource -->
<g id="edge3" class="edge">
<title>OrdinalBasedDuplicatorTutorialStep&#45;&gt;ActivePacketSource</title>
<path fill="none" stroke="black" d="M230.16,-54.98C238.5,-47.23 251.03,-35.58 261.18,-26.14"/>
<polygon fill="black" stroke="black" points="263.74,-28.54 268.68,-19.17 258.97,-23.42 263.74,-28.54"/>
</g>
<!-- OrdinalBasedDuplicator -->
<g id="node5" class="node">
<title>OrdinalBasedDuplicator</title>
<g id="a_node5"><a xlink:href="inet.queueing.common.OrdinalBasedDuplicator.html" xlink:title="Simple Module OrdinalBasedDuplicator" target="_parent">
<polygon fill="#fffcaf" stroke="black" points="484,-19 352,-19 352,0 484,0 484,-19"/>
<text text-anchor="middle" x="418" y="-7" font-family="Helvetica,sans-Serif" font-size="10.00">OrdinalBasedDuplicator</text>
</a>
</g>
</g>
<!-- OrdinalBasedDuplicatorTutorialStep&#45;&gt;OrdinalBasedDuplicator -->
<g id="edge4" class="edge">
<title>OrdinalBasedDuplicatorTutorialStep&#45;&gt;OrdinalBasedDuplicator</title>
<path fill="none" stroke="black" d="M252.65,-54.98C286.16,-45.97 339.2,-31.7 376.14,-21.76"/>
<polygon fill="black" stroke="black" points="377.35,-25.06 386.1,-19.08 375.53,-18.3 377.35,-25.06"/>
</g>
</g>
</svg>
