<?xml version="1.0" encoding="UTF-8" standalone="no"?>
<!DOCTYPE svg PUBLIC "-//W3C//DTD SVG 1.1//EN"
 "http://www.w3.org/Graphics/SVG/1.1/DTD/svg11.dtd">
<!-- Generated by graphviz version 2.43.0 (0)
 -->
<!-- Title: opp Pages: 1 -->
<svg width="397pt" height="82pt"
 viewBox="0.00 0.00 397.00 82.00" xmlns="http://www.w3.org/2000/svg" xmlns:xlink="http://www.w3.org/1999/xlink">
<g id="graph0" class="graph" transform="scale(1 1) rotate(0) translate(4 78)">
<title>opp</title>
<polygon fill="transparent" stroke="transparent" points="-4,4 -4,-78 393,-78 393,4 -4,4"/>
<!-- Scenario -->
<g id="node1" class="node">
<title>Scenario</title>
<g id="a_node1"><a xlink:href="inet.examples.adhoc.hostautoconf.Scenario.html" xlink:title="Network Scenario" target="_parent">
<polygon fill="#9090ff" stroke="black" points="272,-74 213,-74 213,-55 272,-55 272,-74"/>
<text text-anchor="middle" x="242.5" y="-62" font-family="Helvetica,sans-Serif" font-size="10.00">Scenario</text>
</a>
</g>
</g>
<!-- Ieee80211ScalarRadioMedium -->
<g id="node2" class="node">
<title>Ieee80211ScalarRadioMedium</title>
<g id="a_node2"><a xlink:href="inet.physicallayer.wireless.ieee80211.packetlevel.Ieee80211ScalarRadioMedium.html" xlink:title="Compound Module Ieee80211ScalarRadioMedium" target="_parent">
<polygon fill="#fffcaf" stroke="black" points="165,-19 0,-19 0,0 165,0 165,-19"/>
<text text-anchor="middle" x="82.5" y="-7" font-family="Helvetica,sans-Serif" font-size="10.00">Ieee80211ScalarRadioMedium</text>
</a>
</g>
</g>
<!-- Scenario&#45;&gt;Ieee80211ScalarRadioMedium -->
<g id="edge1" class="edge">
<title>Scenario&#45;&gt;Ieee80211ScalarRadioMedium</title>
<path fill="none" stroke="black" d="M216.79,-54.98C190.05,-46.13 147.97,-32.19 118.05,-22.28"/>
<polygon fill="black" stroke="black" points="119,-18.9 108.41,-19.08 116.8,-25.55 119,-18.9"/>
</g>
<!-- IIntegratedVisualizer -->
<g id="node3" class="node">
<title>IIntegratedVisualizer</title>
<g id="a_node3"><a xlink:href="inet.visualizer.contract.IIntegratedVisualizer.html" xlink:title="Module Interface IIntegratedVisualizer" target="_parent">
<polygon fill="#fffcaf" stroke="black" stroke-dasharray="5,2" points="301.5,-19 183.5,-19 183.5,0 301.5,0 301.5,-19"/>
<text text-anchor="middle" x="242.5" y="-7" font-family="Helvetica,sans-Serif" font-size="10.00">IIntegratedVisualizer</text>
</a>
</g>
</g>
<!-- Scenario&#45;&gt;IIntegratedVisualizer -->
<g id="edge2" class="edge">
<title>Scenario&#45;&gt;IIntegratedVisualizer</title>
<path fill="none" stroke="black" d="M242.5,-54.75C242.5,-47.8 242.5,-37.85 242.5,-29.13"/>
<polygon fill="black" stroke="black" points="246,-29.09 242.5,-19.09 239,-29.09 246,-29.09"/>
</g>
<!-- AdhocHost -->
<g id="node4" class="node">
<title>AdhocHost</title>
<g id="a_node4"><a xlink:href="inet.node.inet.AdhocHost.html" xlink:title="Compound Module AdhocHost" target="_parent">
<polygon fill="#fffcaf" stroke="black" points="389,-19 320,-19 320,0 389,0 389,-19"/>
<text text-anchor="middle" x="354.5" y="-7" font-family="Helvetica,sans-Serif" font-size="10.00">AdhocHost</text>
</a>
</g>
</g>
<!-- Scenario&#45;&gt;AdhocHost -->
<g id="edge3" class="edge">
<title>Scenario&#45;&gt;AdhocHost</title>
<path fill="none" stroke="black" d="M260.49,-54.98C278.43,-46.5 306.22,-33.35 326.93,-23.54"/>
<polygon fill="black" stroke="black" points="328.64,-26.61 336.18,-19.17 325.64,-20.28 328.64,-26.61"/>
</g>
</g>
</svg>
