<?xml version="1.0" encoding="UTF-8" standalone="no"?>
<!DOCTYPE svg PUBLIC "-//W3C//DTD SVG 1.1//EN"
 "http://www.w3.org/Graphics/SVG/1.1/DTD/svg11.dtd">
<!-- Generated by graphviz version 2.43.0 (0)
 -->
<!-- Title: opp Pages: 1 -->
<svg width="427pt" height="82pt"
 viewBox="0.00 0.00 427.00 82.00" xmlns="http://www.w3.org/2000/svg" xmlns:xlink="http://www.w3.org/1999/xlink">
<g id="graph0" class="graph" transform="scale(1 1) rotate(0) translate(4 78)">
<title>opp</title>
<polygon fill="transparent" stroke="transparent" points="-4,4 -4,-78 423,-78 423,4 -4,4"/>
<!-- MultiRadio -->
<g id="node1" class="node">
<title>MultiRadio</title>
<g id="a_node1"><a xlink:href="inet.examples.manetrouting.multiradio.MultiRadio.html" xlink:title="Network MultiRadio" target="_parent">
<polygon fill="#9090ff" stroke="black" points="257,-74 188,-74 188,-55 257,-55 257,-74"/>
<text text-anchor="middle" x="222.5" y="-62" font-family="Helvetica,sans-Serif" font-size="10.00">MultiRadio</text>
</a>
</g>
</g>
<!-- Ieee80211ScalarRadioMedium -->
<g id="node2" class="node">
<title>Ieee80211ScalarRadioMedium</title>
<g id="a_node2"><a xlink:href="inet.physicallayer.wireless.ieee80211.packetlevel.Ieee80211ScalarRadioMedium.html" xlink:title="Compound Module Ieee80211ScalarRadioMedium" target="_parent">
<polygon fill="#fffcaf" stroke="black" points="165,-19 0,-19 0,0 165,0 165,-19"/>
<text text-anchor="middle" x="82.5" y="-7" font-family="Helvetica,sans-Serif" font-size="10.00">Ieee80211ScalarRadioMedium</text>
</a>
</g>
</g>
<!-- MultiRadio&#45;&gt;Ieee80211ScalarRadioMedium -->
<g id="edge1" class="edge">
<title>MultiRadio&#45;&gt;Ieee80211ScalarRadioMedium</title>
<path fill="none" stroke="black" d="M200.01,-54.98C176.98,-46.27 140.96,-32.63 114.87,-22.75"/>
<polygon fill="black" stroke="black" points="115.99,-19.44 105.4,-19.17 113.52,-25.98 115.99,-19.44"/>
</g>
<!-- DymoRouter -->
<g id="node3" class="node">
<title>DymoRouter</title>
<g id="a_node3"><a xlink:href="inet.node.dymo.DymoRouter.html" xlink:title="Compound Module DymoRouter" target="_parent">
<polygon fill="#fffcaf" stroke="black" points="261.5,-19 183.5,-19 183.5,0 261.5,0 261.5,-19"/>
<text text-anchor="middle" x="222.5" y="-7" font-family="Helvetica,sans-Serif" font-size="10.00">DymoRouter</text>
</a>
</g>
</g>
<!-- MultiRadio&#45;&gt;DymoRouter -->
<g id="edge2" class="edge">
<title>MultiRadio&#45;&gt;DymoRouter</title>
<path fill="none" stroke="black" d="M222.5,-54.75C222.5,-47.8 222.5,-37.85 222.5,-29.13"/>
<polygon fill="black" stroke="black" points="226,-29.09 222.5,-19.09 219,-29.09 226,-29.09"/>
</g>
<!-- Ipv4NetworkConfigurator -->
<g id="node4" class="node">
<title>Ipv4NetworkConfigurator</title>
<g id="a_node4"><a xlink:href="inet.networklayer.configurator.ipv4.Ipv4NetworkConfigurator.html" xlink:title="Simple Module Ipv4NetworkConfigurator" target="_parent">
<polygon fill="#fffcaf" stroke="black" points="419,-19 280,-19 280,0 419,0 419,-19"/>
<text text-anchor="middle" x="349.5" y="-7" font-family="Helvetica,sans-Serif" font-size="10.00">Ipv4NetworkConfigurator</text>
</a>
</g>
</g>
<!-- MultiRadio&#45;&gt;Ipv4NetworkConfigurator -->
<g id="edge3" class="edge">
<title>MultiRadio&#45;&gt;Ipv4NetworkConfigurator</title>
<path fill="none" stroke="black" d="M242.9,-54.98C263.52,-46.38 295.61,-32.99 319.19,-23.15"/>
<polygon fill="black" stroke="black" points="320.84,-26.25 328.72,-19.17 318.15,-19.79 320.84,-26.25"/>
</g>
</g>
</svg>
