<?xml version="1.0" encoding="UTF-8" standalone="no"?>
<!DOCTYPE svg PUBLIC "-//W3C//DTD SVG 1.1//EN"
 "http://www.w3.org/Graphics/SVG/1.1/DTD/svg11.dtd">
<!-- Generated by graphviz version 2.43.0 (0)
 -->
<!-- Title: opp Pages: 1 -->
<svg width="430pt" height="82pt"
 viewBox="0.00 0.00 429.50 82.00" xmlns="http://www.w3.org/2000/svg" xmlns:xlink="http://www.w3.org/1999/xlink">
<g id="graph0" class="graph" transform="scale(1 1) rotate(0) translate(4 78)">
<title>opp</title>
<polygon fill="transparent" stroke="transparent" points="-4,4 -4,-78 425.5,-78 425.5,4 -4,4"/>
<!-- ClientApp -->
<g id="node1" class="node">
<title>ClientApp</title>
<g id="a_node1"><a xlink:href="inet.tutorials.protocol.ClientApp.html" xlink:title="Compound Module ClientApp" target="_parent">
<polygon fill="#fff700" stroke="black" points="234.5,-74 170.5,-74 170.5,-55 234.5,-55 234.5,-74"/>
<text text-anchor="middle" x="202.5" y="-62" font-family="Helvetica,sans-Serif" font-size="10.00">ClientApp</text>
</a>
</g>
</g>
<!-- SendToPort -->
<g id="node2" class="node">
<title>SendToPort</title>
<g id="a_node2"><a xlink:href="inet.protocolelement.selectivity.SendToPort.html" xlink:title="Simple Module SendToPort" target="_parent">
<polygon fill="#fffcaf" stroke="black" points="71,-19 0,-19 0,0 71,0 71,-19"/>
<text text-anchor="middle" x="35.5" y="-7" font-family="Helvetica,sans-Serif" font-size="10.00">SendToPort</text>
</a>
</g>
</g>
<!-- ClientApp&#45;&gt;SendToPort -->
<g id="edge1" class="edge">
<title>ClientApp&#45;&gt;SendToPort</title>
<path fill="none" stroke="black" d="M175.67,-54.98C147.63,-46.09 103.45,-32.07 72.2,-22.15"/>
<polygon fill="black" stroke="black" points="73.13,-18.77 62.54,-19.08 71.01,-25.44 73.13,-18.77"/>
</g>
<!-- SendToL3Address -->
<g id="node3" class="node">
<title>SendToL3Address</title>
<g id="a_node3"><a xlink:href="inet.protocolelement.selectivity.SendToL3Address.html" xlink:title="Simple Module SendToL3Address" target="_parent">
<polygon fill="#fffcaf" stroke="black" points="190,-19 89,-19 89,0 190,0 190,-19"/>
<text text-anchor="middle" x="139.5" y="-7" font-family="Helvetica,sans-Serif" font-size="10.00">SendToL3Address</text>
</a>
</g>
</g>
<!-- ClientApp&#45;&gt;SendToL3Address -->
<g id="edge2" class="edge">
<title>ClientApp&#45;&gt;SendToL3Address</title>
<path fill="none" stroke="black" d="M192.38,-54.98C183.06,-47.15 169.03,-35.34 157.76,-25.86"/>
<polygon fill="black" stroke="black" points="159.71,-22.93 149.81,-19.17 155.21,-28.29 159.71,-22.93"/>
</g>
<!-- IActivePacketSource -->
<g id="node4" class="node">
<title>IActivePacketSource</title>
<g id="a_node4"><a xlink:href="inet.queueing.contract.IActivePacketSource.html" xlink:title="Module Interface IActivePacketSource" target="_parent">
<polygon fill="#fffcaf" stroke="black" stroke-dasharray="5,2" points="323,-19 208,-19 208,0 323,0 323,-19"/>
<text text-anchor="middle" x="265.5" y="-7" font-family="Helvetica,sans-Serif" font-size="10.00">IActivePacketSource</text>
</a>
</g>
</g>
<!-- ClientApp&#45;&gt;IActivePacketSource -->
<g id="edge3" class="edge">
<title>ClientApp&#45;&gt;IActivePacketSource</title>
<path fill="none" stroke="black" d="M212.62,-54.98C221.94,-47.15 235.97,-35.34 247.24,-25.86"/>
<polygon fill="black" stroke="black" points="249.79,-28.29 255.19,-19.17 245.29,-22.93 249.79,-28.29"/>
</g>
<!-- IdealChannel -->
<g id="node5" class="node">
<title>IdealChannel</title>
<g id="a_node5"><a xlink:href="ned.IdealChannel.html" xlink:title="Channel IdealChannel" target="_parent">
<polygon fill="#d0ffd0" stroke="black" points="421.5,-19 341.5,-19 341.5,0 421.5,0 421.5,-19"/>
<text text-anchor="middle" x="381.5" y="-7" font-family="Helvetica,sans-Serif" font-size="10.00">IdealChannel</text>
</a>
</g>
</g>
<!-- ClientApp&#45;&gt;IdealChannel -->
<g id="edge4" class="edge">
<title>ClientApp&#45;&gt;IdealChannel</title>
<path fill="none" stroke="black" d="M231.26,-54.98C261.44,-46.05 309.07,-31.94 342.6,-22.02"/>
<polygon fill="black" stroke="black" points="343.92,-25.28 352.52,-19.08 341.93,-18.57 343.92,-25.28"/>
</g>
</g>
</svg>
