<?xml version="1.0" encoding="UTF-8" standalone="no"?>
<!DOCTYPE svg PUBLIC "-//W3C//DTD SVG 1.1//EN"
 "http://www.w3.org/Graphics/SVG/1.1/DTD/svg11.dtd">
<!-- Generated by graphviz version 2.43.0 (0)
 -->
<!-- Title: opp Pages: 1 -->
<svg width="494pt" height="137pt"
 viewBox="0.00 0.00 494.00 137.00" xmlns="http://www.w3.org/2000/svg" xmlns:xlink="http://www.w3.org/1999/xlink">
<g id="graph0" class="graph" transform="scale(1 1) rotate(0) translate(4 133)">
<title>opp</title>
<polygon fill="transparent" stroke="transparent" points="-4,4 -4,-133 490,-133 490,4 -4,4"/>
<!-- DataLinkVisualizer -->
<g id="node1" class="node">
<title>DataLinkVisualizer</title>
<g id="a_node1"><a xlink:href="inet.visualizer.common.DataLinkVisualizer.html" xlink:title="Compound Module DataLinkVisualizer" target="_parent">
<polygon fill="#fff700" stroke="black" points="293.5,-74 185.5,-74 185.5,-55 293.5,-55 293.5,-74"/>
<text text-anchor="middle" x="239.5" y="-62" font-family="Helvetica,sans-Serif" font-size="10.00">DataLinkVisualizer</text>
</a>
</g>
</g>
<!-- IDataLinkVisualizer -->
<g id="node2" class="node">
<title>IDataLinkVisualizer</title>
<g id="a_node2"><a xlink:href="inet.visualizer.contract.IDataLinkVisualizer.html" xlink:title="Module Interface IDataLinkVisualizer" target="_parent">
<polygon fill="#fffcaf" stroke="black" stroke-dasharray="5,2" points="295,-19 184,-19 184,0 295,0 295,-19"/>
<text text-anchor="middle" x="239.5" y="-7" font-family="Helvetica,sans-Serif" font-size="10.00">IDataLinkVisualizer</text>
</a>
</g>
</g>
<!-- DataLinkVisualizer&#45;&gt;IDataLinkVisualizer -->
<g id="edge1" class="edge">
<title>DataLinkVisualizer&#45;&gt;IDataLinkVisualizer</title>
<path fill="none" stroke="black" d="M239.5,-54.75C239.5,-47.8 239.5,-37.85 239.5,-29.13"/>
<polygon fill="black" stroke="black" points="243,-29.09 239.5,-19.09 236,-29.09 243,-29.09"/>
</g>
<!-- DataLinkVisualizerEnablingWiredShowcase -->
<g id="node3" class="node">
<title>DataLinkVisualizerEnablingWiredShowcase</title>
<g id="a_node3"><a xlink:href="inet.showcases.visualizer.canvas.datalinkactivity.DataLinkVisualizerEnablingWiredShowcase.html" xlink:title="Network DataLinkVisualizerEnablingWiredShowcase" target="_parent">
<polygon fill="#d0d0ff" stroke="black" points="227,-129 0,-129 0,-110 227,-110 227,-129"/>
<text text-anchor="middle" x="113.5" y="-117" font-family="Helvetica,sans-Serif" font-size="10.00">DataLinkVisualizerEnablingWiredShowcase</text>
</a>
</g>
</g>
<!-- DataLinkVisualizerEnablingWiredShowcase&#45;&gt;DataLinkVisualizer -->
<g id="edge2" class="edge">
<title>DataLinkVisualizerEnablingWiredShowcase&#45;&gt;DataLinkVisualizer</title>
<path fill="none" stroke="black" d="M133.74,-109.98C154.2,-101.38 186.03,-87.99 209.43,-78.15"/>
<polygon fill="black" stroke="black" points="211.03,-81.27 218.89,-74.17 208.31,-74.82 211.03,-81.27"/>
</g>
<!-- DataLinkVisualizerEnablingWirelessShowcase -->
<g id="node4" class="node">
<title>DataLinkVisualizerEnablingWirelessShowcase</title>
<g id="a_node4"><a xlink:href="inet.showcases.visualizer.canvas.datalinkactivity.DataLinkVisualizerEnablingWirelessShowcase.html" xlink:title="Network DataLinkVisualizerEnablingWirelessShowcase" target="_parent">
<polygon fill="#d0d0ff" stroke="black" points="486,-129 245,-129 245,-110 486,-110 486,-129"/>
<text text-anchor="middle" x="365.5" y="-117" font-family="Helvetica,sans-Serif" font-size="10.00">DataLinkVisualizerEnablingWirelessShowcase</text>
</a>
</g>
</g>
<!-- DataLinkVisualizerEnablingWirelessShowcase&#45;&gt;DataLinkVisualizer -->
<g id="edge3" class="edge">
<title>DataLinkVisualizerEnablingWirelessShowcase&#45;&gt;DataLinkVisualizer</title>
<path fill="none" stroke="black" d="M345.26,-109.98C324.8,-101.38 292.97,-87.99 269.57,-78.15"/>
<polygon fill="black" stroke="black" points="270.69,-74.82 260.11,-74.17 267.97,-81.27 270.69,-74.82"/>
</g>
</g>
</svg>
