<?xml version="1.0" encoding="UTF-8" standalone="no"?>
<!DOCTYPE svg PUBLIC "-//W3C//DTD SVG 1.1//EN"
 "http://www.w3.org/Graphics/SVG/1.1/DTD/svg11.dtd">
<!-- Generated by graphviz version 2.43.0 (0)
 -->
<!-- Title: opp Pages: 1 -->
<svg width="648pt" height="82pt"
 viewBox="0.00 0.00 647.50 82.00" xmlns="http://www.w3.org/2000/svg" xmlns:xlink="http://www.w3.org/1999/xlink">
<g id="graph0" class="graph" transform="scale(1 1) rotate(0) translate(4 78)">
<title>opp</title>
<polygon fill="transparent" stroke="transparent" points="-4,4 -4,-78 643.5,-78 643.5,4 -4,4"/>
<!-- Ieee802154Showcase -->
<g id="node1" class="node">
<title>Ieee802154Showcase</title>
<g id="a_node1"><a xlink:href="inet.showcases.wireless.ieee802154.Ieee802154Showcase.html" xlink:title="Network Ieee802154Showcase" target="_parent">
<polygon fill="#9090ff" stroke="black" points="458,-74 336,-74 336,-55 458,-55 458,-74"/>
<text text-anchor="middle" x="397" y="-62" font-family="Helvetica,sans-Serif" font-size="10.00">Ieee802154Showcase</text>
</a>
</g>
</g>
<!-- Ieee802154NarrowbandScalarRadioMedium -->
<g id="node2" class="node">
<title>Ieee802154NarrowbandScalarRadioMedium</title>
<g id="a_node2"><a xlink:href="inet.physicallayer.wireless.ieee802154.packetlevel.Ieee802154NarrowbandScalarRadioMedium.html" xlink:title="Compound Module Ieee802154NarrowbandScalarRadioMedium" target="_parent">
<polygon fill="#fffcaf" stroke="black" points="230,-19 0,-19 0,0 230,0 230,-19"/>
<text text-anchor="middle" x="115" y="-7" font-family="Helvetica,sans-Serif" font-size="10.00">Ieee802154NarrowbandScalarRadioMedium</text>
</a>
</g>
</g>
<!-- Ieee802154Showcase&#45;&gt;Ieee802154NarrowbandScalarRadioMedium -->
<g id="edge1" class="edge">
<title>Ieee802154Showcase&#45;&gt;Ieee802154NarrowbandScalarRadioMedium</title>
<path fill="none" stroke="black" d="M351.69,-54.98C302.4,-45.72 223.57,-30.9 170.57,-20.94"/>
<polygon fill="black" stroke="black" points="171.14,-17.49 160.66,-19.08 169.84,-24.37 171.14,-17.49"/>
</g>
<!-- Ipv4NetworkConfigurator -->
<g id="node3" class="node">
<title>Ipv4NetworkConfigurator</title>
<g id="a_node3"><a xlink:href="inet.networklayer.configurator.ipv4.Ipv4NetworkConfigurator.html" xlink:title="Simple Module Ipv4NetworkConfigurator" target="_parent">
<polygon fill="#fffcaf" stroke="black" points="387.5,-19 248.5,-19 248.5,0 387.5,0 387.5,-19"/>
<text text-anchor="middle" x="318" y="-7" font-family="Helvetica,sans-Serif" font-size="10.00">Ipv4NetworkConfigurator</text>
</a>
</g>
</g>
<!-- Ieee802154Showcase&#45;&gt;Ipv4NetworkConfigurator -->
<g id="edge2" class="edge">
<title>Ieee802154Showcase&#45;&gt;Ipv4NetworkConfigurator</title>
<path fill="none" stroke="black" d="M384.31,-54.98C372.17,-46.84 353.64,-34.41 339.25,-24.76"/>
<polygon fill="black" stroke="black" points="341.18,-21.84 330.92,-19.17 337.28,-27.65 341.18,-21.84"/>
</g>
<!-- IntegratedMultiVisualizer -->
<g id="node4" class="node">
<title>IntegratedMultiVisualizer</title>
<g id="a_node4"><a xlink:href="inet.visualizer.common.IntegratedMultiVisualizer.html" xlink:title="Compound Module IntegratedMultiVisualizer" target="_parent">
<polygon fill="#fffcaf" stroke="black" points="546,-19 406,-19 406,0 546,0 546,-19"/>
<text text-anchor="middle" x="476" y="-7" font-family="Helvetica,sans-Serif" font-size="10.00">IntegratedMultiVisualizer</text>
</a>
</g>
</g>
<!-- Ieee802154Showcase&#45;&gt;IntegratedMultiVisualizer -->
<g id="edge3" class="edge">
<title>Ieee802154Showcase&#45;&gt;IntegratedMultiVisualizer</title>
<path fill="none" stroke="black" d="M409.69,-54.98C421.83,-46.84 440.36,-34.41 454.75,-24.76"/>
<polygon fill="black" stroke="black" points="456.72,-27.65 463.08,-19.17 452.82,-21.84 456.72,-27.65"/>
</g>
<!-- SensorNode -->
<g id="node5" class="node">
<title>SensorNode</title>
<g id="a_node5"><a xlink:href="inet.node.inet.SensorNode.html" xlink:title="Compound Module SensorNode" target="_parent">
<polygon fill="#fffcaf" stroke="black" points="639.5,-19 564.5,-19 564.5,0 639.5,0 639.5,-19"/>
<text text-anchor="middle" x="602" y="-7" font-family="Helvetica,sans-Serif" font-size="10.00">SensorNode</text>
</a>
</g>
</g>
<!-- Ieee802154Showcase&#45;&gt;SensorNode -->
<g id="edge4" class="edge">
<title>Ieee802154Showcase&#45;&gt;SensorNode</title>
<path fill="none" stroke="black" d="M429.94,-54.98C464.95,-45.93 520.47,-31.58 558.93,-21.64"/>
<polygon fill="black" stroke="black" points="560,-24.97 568.81,-19.08 558.25,-18.2 560,-24.97"/>
</g>
</g>
</svg>
