<?xml version="1.0" encoding="UTF-8" standalone="no"?>
<!DOCTYPE svg PUBLIC "-//W3C//DTD SVG 1.1//EN"
 "http://www.w3.org/Graphics/SVG/1.1/DTD/svg11.dtd">
<!-- Generated by graphviz version 2.43.0 (0)
 -->
<!-- Title: opp Pages: 1 -->
<svg width="498pt" height="82pt"
 viewBox="0.00 0.00 498.00 82.00" xmlns="http://www.w3.org/2000/svg" xmlns:xlink="http://www.w3.org/1999/xlink">
<g id="graph0" class="graph" transform="scale(1 1) rotate(0) translate(4 78)">
<title>opp</title>
<polygon fill="transparent" stroke="transparent" points="-4,4 -4,-78 494,-78 494,4 -4,4"/>
<!-- Hierarchical99 -->
<g id="node1" class="node">
<title>Hierarchical99</title>
<g id="a_node1"><a xlink:href="inet.examples.inet.hierarchical99.Hierarchical99.html" xlink:title="Network Hierarchical99" target="_parent">
<polygon fill="#9090ff" stroke="black" points="323.5,-74 236.5,-74 236.5,-55 323.5,-55 323.5,-74"/>
<text text-anchor="middle" x="280" y="-62" font-family="Helvetica,sans-Serif" font-size="10.00">Hierarchical99</text>
</a>
</g>
</g>
<!-- Eth10G -->
<g id="node2" class="node">
<title>Eth10G</title>
<g id="a_node2"><a xlink:href="inet.node.ethernet.Eth10G.html" xlink:title="Channel Eth10G" target="_parent">
<polygon fill="#d0ffd0" stroke="black" points="54,-19 0,-19 0,0 54,0 54,-19"/>
<text text-anchor="middle" x="27" y="-7" font-family="Helvetica,sans-Serif" font-size="10.00">Eth10G</text>
</a>
</g>
</g>
<!-- Hierarchical99&#45;&gt;Eth10G -->
<g id="edge1" class="edge">
<title>Hierarchical99&#45;&gt;Eth10G</title>
<path fill="none" stroke="black" d="M236.28,-54.93C194.54,-46.66 129.63,-33.57 64.19,-19.21"/>
<polygon fill="black" stroke="black" points="64.63,-15.72 54.11,-16.99 63.12,-22.56 64.63,-15.72"/>
</g>
<!-- RoutingTableRecorder -->
<g id="node3" class="node">
<title>RoutingTableRecorder</title>
<g id="a_node3"><a xlink:href="inet.networklayer.ipv4.RoutingTableRecorder.html" xlink:title="Simple Module RoutingTableRecorder" target="_parent">
<polygon fill="#fffcaf" stroke="black" points="195.5,-19 72.5,-19 72.5,0 195.5,0 195.5,-19"/>
<text text-anchor="middle" x="134" y="-7" font-family="Helvetica,sans-Serif" font-size="10.00">RoutingTableRecorder</text>
</a>
</g>
</g>
<!-- Hierarchical99&#45;&gt;RoutingTableRecorder -->
<g id="edge2" class="edge">
<title>Hierarchical99&#45;&gt;RoutingTableRecorder</title>
<path fill="none" stroke="black" d="M256.54,-54.98C232.42,-46.23 194.63,-32.51 167.4,-22.62"/>
<polygon fill="black" stroke="black" points="168.48,-19.29 157.88,-19.17 166.09,-25.87 168.48,-19.29"/>
</g>
<!-- IL3NetworkConfigurator -->
<g id="node4" class="node">
<title>IL3NetworkConfigurator</title>
<g id="a_node4"><a xlink:href="inet.networklayer.configurator.contract.IL3NetworkConfigurator.html" xlink:title="Module Interface IL3NetworkConfigurator" target="_parent">
<polygon fill="#fffcaf" stroke="black" stroke-dasharray="5,2" points="346,-19 214,-19 214,0 346,0 346,-19"/>
<text text-anchor="middle" x="280" y="-7" font-family="Helvetica,sans-Serif" font-size="10.00">IL3NetworkConfigurator</text>
</a>
</g>
</g>
<!-- Hierarchical99&#45;&gt;IL3NetworkConfigurator -->
<g id="edge3" class="edge">
<title>Hierarchical99&#45;&gt;IL3NetworkConfigurator</title>
<path fill="none" stroke="black" d="M280,-54.75C280,-47.8 280,-37.85 280,-29.13"/>
<polygon fill="black" stroke="black" points="283.5,-29.09 280,-19.09 276.5,-29.09 283.5,-29.09"/>
</g>
<!-- Area -->
<g id="node5" class="node">
<title>Area</title>
<g id="a_node5"><a xlink:href="inet.examples.inet.hierarchical99.Hierarchical99.Area.html" xlink:title="Compound Module Area" target="_parent">
<polygon fill="#fffcaf" stroke="black" points="418,-19 364,-19 364,0 418,0 418,-19"/>
<text text-anchor="middle" x="391" y="-7" font-family="Helvetica,sans-Serif" font-size="10.00">Area</text>
</a>
</g>
</g>
<!-- Hierarchical99&#45;&gt;Area -->
<g id="edge4" class="edge">
<title>Hierarchical99&#45;&gt;Area</title>
<path fill="none" stroke="black" d="M297.83,-54.98C315.61,-46.5 343.15,-33.35 363.68,-23.54"/>
<polygon fill="black" stroke="black" points="365.33,-26.64 372.84,-19.17 362.31,-20.32 365.33,-26.64"/>
</g>
<!-- Router -->
<g id="node6" class="node">
<title>Router</title>
<g id="a_node6"><a xlink:href="inet.node.inet.Router.html" xlink:title="Compound Module Router" target="_parent">
<polygon fill="#fffcaf" stroke="black" points="490,-19 436,-19 436,0 490,0 490,-19"/>
<text text-anchor="middle" x="463" y="-7" font-family="Helvetica,sans-Serif" font-size="10.00">Router</text>
</a>
</g>
</g>
<!-- Hierarchical99&#45;&gt;Router -->
<g id="edge5" class="edge">
<title>Hierarchical99&#45;&gt;Router</title>
<path fill="none" stroke="black" d="M309.4,-54.98C341.13,-45.8 391.71,-31.15 426.09,-21.19"/>
<polygon fill="black" stroke="black" points="427.13,-24.53 435.76,-18.39 425.18,-17.81 427.13,-24.53"/>
</g>
</g>
</svg>
