<?xml version="1.0" encoding="UTF-8" standalone="no"?>
<!DOCTYPE svg PUBLIC "-//W3C//DTD SVG 1.1//EN"
 "http://www.w3.org/Graphics/SVG/1.1/DTD/svg11.dtd">
<!-- Generated by graphviz version 2.43.0 (0)
 -->
<!-- Title: opp Pages: 1 -->
<svg width="910pt" height="82pt"
 viewBox="0.00 0.00 910.00 82.00" xmlns="http://www.w3.org/2000/svg" xmlns:xlink="http://www.w3.org/1999/xlink">
<g id="graph0" class="graph" transform="scale(1 1) rotate(0) translate(4 78)">
<title>opp</title>
<polygon fill="transparent" stroke="transparent" points="-4,4 -4,-78 906,-78 906,4 -4,4"/>
<!-- WirelessNetWithDHCP -->
<g id="node1" class="node">
<title>WirelessNetWithDHCP</title>
<g id="a_node1"><a xlink:href="inet.examples.dhcp.WirelessNetWithDHCP.html" xlink:title="Network WirelessNetWithDHCP" target="_parent">
<polygon fill="#9090ff" stroke="black" points="571.5,-74 445.5,-74 445.5,-55 571.5,-55 571.5,-74"/>
<text text-anchor="middle" x="508.5" y="-62" font-family="Helvetica,sans-Serif" font-size="10.00">WirelessNetWithDHCP</text>
</a>
</g>
</g>
<!-- Ieee80211ScalarRadioMedium -->
<g id="node2" class="node">
<title>Ieee80211ScalarRadioMedium</title>
<g id="a_node2"><a xlink:href="inet.physicallayer.wireless.ieee80211.packetlevel.Ieee80211ScalarRadioMedium.html" xlink:title="Compound Module Ieee80211ScalarRadioMedium" target="_parent">
<polygon fill="#fffcaf" stroke="black" points="165,-19 0,-19 0,0 165,0 165,-19"/>
<text text-anchor="middle" x="82.5" y="-7" font-family="Helvetica,sans-Serif" font-size="10.00">Ieee80211ScalarRadioMedium</text>
</a>
</g>
</g>
<!-- WirelessNetWithDHCP&#45;&gt;Ieee80211ScalarRadioMedium -->
<g id="edge1" class="edge">
<title>WirelessNetWithDHCP&#45;&gt;Ieee80211ScalarRadioMedium</title>
<path fill="none" stroke="black" d="M445.18,-55.62C369.53,-46.21 242.95,-30.46 161.11,-20.28"/>
<polygon fill="black" stroke="black" points="161.47,-16.8 151.11,-19.04 160.6,-23.74 161.47,-16.8"/>
</g>
<!-- IIntegratedVisualizer -->
<g id="node3" class="node">
<title>IIntegratedVisualizer</title>
<g id="a_node3"><a xlink:href="inet.visualizer.contract.IIntegratedVisualizer.html" xlink:title="Module Interface IIntegratedVisualizer" target="_parent">
<polygon fill="#fffcaf" stroke="black" stroke-dasharray="5,2" points="301.5,-19 183.5,-19 183.5,0 301.5,0 301.5,-19"/>
<text text-anchor="middle" x="242.5" y="-7" font-family="Helvetica,sans-Serif" font-size="10.00">IIntegratedVisualizer</text>
</a>
</g>
</g>
<!-- WirelessNetWithDHCP&#45;&gt;IIntegratedVisualizer -->
<g id="edge2" class="edge">
<title>WirelessNetWithDHCP&#45;&gt;IIntegratedVisualizer</title>
<path fill="none" stroke="black" d="M465.76,-54.98C419.46,-45.76 345.52,-31.03 295.54,-21.07"/>
<polygon fill="black" stroke="black" points="296.06,-17.6 285.57,-19.08 294.7,-24.47 296.06,-17.6"/>
</g>
<!-- WirelessHost -->
<g id="node4" class="node">
<title>WirelessHost</title>
<g id="a_node4"><a xlink:href="inet.node.inet.WirelessHost.html" xlink:title="Compound Module WirelessHost" target="_parent">
<polygon fill="#fffcaf" stroke="black" points="401,-19 320,-19 320,0 401,0 401,-19"/>
<text text-anchor="middle" x="360.5" y="-7" font-family="Helvetica,sans-Serif" font-size="10.00">WirelessHost</text>
</a>
</g>
</g>
<!-- WirelessNetWithDHCP&#45;&gt;WirelessHost -->
<g id="edge3" class="edge">
<title>WirelessNetWithDHCP&#45;&gt;WirelessHost</title>
<path fill="none" stroke="black" d="M484.72,-54.98C460.27,-46.23 421.97,-32.51 394.35,-22.62"/>
<polygon fill="black" stroke="black" points="395.31,-19.25 384.71,-19.17 392.95,-25.84 395.31,-19.25"/>
</g>
<!-- StandardHost -->
<g id="node5" class="node">
<title>StandardHost</title>
<g id="a_node5"><a xlink:href="inet.node.inet.StandardHost.html" xlink:title="Compound Module StandardHost" target="_parent">
<polygon fill="#fffcaf" stroke="black" points="502,-19 419,-19 419,0 502,0 502,-19"/>
<text text-anchor="middle" x="460.5" y="-7" font-family="Helvetica,sans-Serif" font-size="10.00">StandardHost</text>
</a>
</g>
</g>
<!-- WirelessNetWithDHCP&#45;&gt;StandardHost -->
<g id="edge4" class="edge">
<title>WirelessNetWithDHCP&#45;&gt;StandardHost</title>
<path fill="none" stroke="black" d="M500.57,-54.75C493.65,-47.11 483.43,-35.82 475.05,-26.56"/>
<polygon fill="black" stroke="black" points="477.59,-24.15 468.28,-19.09 472.4,-28.85 477.59,-24.15"/>
</g>
<!-- AccessPoint -->
<g id="node6" class="node">
<title>AccessPoint</title>
<g id="a_node6"><a xlink:href="inet.node.wireless.AccessPoint.html" xlink:title="Compound Module AccessPoint" target="_parent">
<polygon fill="#fffcaf" stroke="black" points="595,-19 520,-19 520,0 595,0 595,-19"/>
<text text-anchor="middle" x="557.5" y="-7" font-family="Helvetica,sans-Serif" font-size="10.00">AccessPoint</text>
</a>
</g>
</g>
<!-- WirelessNetWithDHCP&#45;&gt;AccessPoint -->
<g id="edge5" class="edge">
<title>WirelessNetWithDHCP&#45;&gt;AccessPoint</title>
<path fill="none" stroke="black" d="M516.59,-54.75C523.66,-47.11 534.09,-35.82 542.65,-26.56"/>
<polygon fill="black" stroke="black" points="545.34,-28.81 549.56,-19.09 540.2,-24.06 545.34,-28.81"/>
</g>
<!-- Ipv4NetworkConfigurator -->
<g id="node7" class="node">
<title>Ipv4NetworkConfigurator</title>
<g id="a_node7"><a xlink:href="inet.networklayer.configurator.ipv4.Ipv4NetworkConfigurator.html" xlink:title="Simple Module Ipv4NetworkConfigurator" target="_parent">
<polygon fill="#fffcaf" stroke="black" points="752,-19 613,-19 613,0 752,0 752,-19"/>
<text text-anchor="middle" x="682.5" y="-7" font-family="Helvetica,sans-Serif" font-size="10.00">Ipv4NetworkConfigurator</text>
</a>
</g>
</g>
<!-- WirelessNetWithDHCP&#45;&gt;Ipv4NetworkConfigurator -->
<g id="edge6" class="edge">
<title>WirelessNetWithDHCP&#45;&gt;Ipv4NetworkConfigurator</title>
<path fill="none" stroke="black" d="M536.46,-54.98C565.8,-46.05 612.1,-31.94 644.69,-22.02"/>
<polygon fill="black" stroke="black" points="645.78,-25.34 654.32,-19.08 643.74,-18.65 645.78,-25.34"/>
</g>
<!-- Router -->
<g id="node8" class="node">
<title>Router</title>
<g id="a_node8"><a xlink:href="inet.node.inet.Router.html" xlink:title="Compound Module Router" target="_parent">
<polygon fill="#fffcaf" stroke="black" points="824.5,-19 770.5,-19 770.5,0 824.5,0 824.5,-19"/>
<text text-anchor="middle" x="797.5" y="-7" font-family="Helvetica,sans-Serif" font-size="10.00">Router</text>
</a>
</g>
</g>
<!-- WirelessNetWithDHCP&#45;&gt;Router -->
<g id="edge7" class="edge">
<title>WirelessNetWithDHCP&#45;&gt;Router</title>
<path fill="none" stroke="black" d="M562.47,-54.94C611.6,-46.93 686.37,-34.22 760.44,-19.12"/>
<polygon fill="black" stroke="black" points="761.32,-22.51 770.41,-17.07 759.91,-15.66 761.32,-22.51"/>
</g>
<!-- Eth100M -->
<g id="node9" class="node">
<title>Eth100M</title>
<g id="a_node9"><a xlink:href="inet.node.ethernet.Eth100M.html" xlink:title="Channel Eth100M" target="_parent">
<polygon fill="#d0ffd0" stroke="black" points="902,-19 843,-19 843,0 902,0 902,-19"/>
<text text-anchor="middle" x="872.5" y="-7" font-family="Helvetica,sans-Serif" font-size="10.00">Eth100M</text>
</a>
</g>
</g>
<!-- WirelessNetWithDHCP&#45;&gt;Eth100M -->
<g id="edge8" class="edge">
<title>WirelessNetWithDHCP&#45;&gt;Eth100M</title>
<path fill="none" stroke="black" d="M571.64,-56.34C635.11,-48.81 735.96,-35.93 832.78,-19"/>
<polygon fill="black" stroke="black" points="833.5,-22.43 842.74,-17.24 832.28,-15.53 833.5,-22.43"/>
</g>
</g>
</svg>
