<?xml version="1.0" encoding="UTF-8" standalone="no"?>
<!DOCTYPE svg PUBLIC "-//W3C//DTD SVG 1.1//EN"
 "http://www.w3.org/Graphics/SVG/1.1/DTD/svg11.dtd">
<!-- Generated by graphviz version 2.43.0 (0)
 -->
<!-- Title: opp Pages: 1 -->
<svg width="295pt" height="82pt"
 viewBox="0.00 0.00 294.50 82.00" xmlns="http://www.w3.org/2000/svg" xmlns:xlink="http://www.w3.org/1999/xlink">
<g id="graph0" class="graph" transform="scale(1 1) rotate(0) translate(4 78)">
<title>opp</title>
<polygon fill="transparent" stroke="transparent" points="-4,4 -4,-78 290.5,-78 290.5,4 -4,4"/>
<!-- Network5 -->
<g id="node1" class="node">
<title>Network5</title>
<g id="a_node1"><a xlink:href="inet.tutorials.protocol.Network5.html" xlink:title="Network Network5" target="_parent">
<polygon fill="#9090ff" stroke="black" points="174,-74 110,-74 110,-55 174,-55 174,-74"/>
<text text-anchor="middle" x="142" y="-62" font-family="Helvetica,sans-Serif" font-size="10.00">Network5</text>
</a>
</g>
</g>
<!-- ClientHost5 -->
<g id="node2" class="node">
<title>ClientHost5</title>
<g id="a_node2"><a xlink:href="inet.tutorials.protocol.ClientHost5.html" xlink:title="Compound Module ClientHost5" target="_parent">
<polygon fill="#fffcaf" stroke="black" points="74,-19 0,-19 0,0 74,0 74,-19"/>
<text text-anchor="middle" x="37" y="-7" font-family="Helvetica,sans-Serif" font-size="10.00">ClientHost5</text>
</a>
</g>
</g>
<!-- Network5&#45;&gt;ClientHost5 -->
<g id="edge1" class="edge">
<title>Network5&#45;&gt;ClientHost5</title>
<path fill="none" stroke="black" d="M125.13,-54.98C108.39,-46.54 82.5,-33.47 63.11,-23.68"/>
<polygon fill="black" stroke="black" points="64.68,-20.55 54.18,-19.17 61.53,-26.8 64.68,-20.55"/>
</g>
<!-- DatarateChannel -->
<g id="node3" class="node">
<title>DatarateChannel</title>
<g id="a_node3"><a xlink:href="ned.DatarateChannel.html" xlink:title="Channel DatarateChannel" target="_parent">
<polygon fill="#d0ffd0" stroke="black" points="191.5,-19 92.5,-19 92.5,0 191.5,0 191.5,-19"/>
<text text-anchor="middle" x="142" y="-7" font-family="Helvetica,sans-Serif" font-size="10.00">DatarateChannel</text>
</a>
</g>
</g>
<!-- Network5&#45;&gt;DatarateChannel -->
<g id="edge2" class="edge">
<title>Network5&#45;&gt;DatarateChannel</title>
<path fill="none" stroke="black" d="M142,-54.75C142,-47.8 142,-37.85 142,-29.13"/>
<polygon fill="black" stroke="black" points="145.5,-29.09 142,-19.09 138.5,-29.09 145.5,-29.09"/>
</g>
<!-- ServerHost5 -->
<g id="node4" class="node">
<title>ServerHost5</title>
<g id="a_node4"><a xlink:href="inet.tutorials.protocol.ServerHost5.html" xlink:title="Compound Module ServerHost5" target="_parent">
<polygon fill="#fffcaf" stroke="black" points="286.5,-19 209.5,-19 209.5,0 286.5,0 286.5,-19"/>
<text text-anchor="middle" x="248" y="-7" font-family="Helvetica,sans-Serif" font-size="10.00">ServerHost5</text>
</a>
</g>
</g>
<!-- Network5&#45;&gt;ServerHost5 -->
<g id="edge3" class="edge">
<title>Network5&#45;&gt;ServerHost5</title>
<path fill="none" stroke="black" d="M159.03,-54.98C175.93,-46.54 202.06,-33.47 221.64,-23.68"/>
<polygon fill="black" stroke="black" points="223.28,-26.77 230.66,-19.17 220.15,-20.51 223.28,-26.77"/>
</g>
</g>
</svg>
