<?xml version="1.0" encoding="UTF-8" standalone="no"?>
<!DOCTYPE svg PUBLIC "-//W3C//DTD SVG 1.1//EN"
 "http://www.w3.org/Graphics/SVG/1.1/DTD/svg11.dtd">
<!-- Generated by graphviz version 2.43.0 (0)
 -->
<!-- Title: opp Pages: 1 -->
<svg width="418pt" height="82pt"
 viewBox="0.00 0.00 418.00 82.00" xmlns="http://www.w3.org/2000/svg" xmlns:xlink="http://www.w3.org/1999/xlink">
<g id="graph0" class="graph" transform="scale(1 1) rotate(0) translate(4 78)">
<title>opp</title>
<polygon fill="transparent" stroke="transparent" points="-4,4 -4,-78 414,-78 414,4 -4,4"/>
<!-- BulkTransfer6 -->
<g id="node1" class="node">
<title>BulkTransfer6</title>
<g id="a_node1"><a xlink:href="inet.examples.ipv6.ipv6bulk.BulkTransfer6.html" xlink:title="Network BulkTransfer6" target="_parent">
<polygon fill="#9090ff" stroke="black" points="255,-74 172,-74 172,-55 255,-55 255,-74"/>
<text text-anchor="middle" x="213.5" y="-62" font-family="Helvetica,sans-Serif" font-size="10.00">BulkTransfer6</text>
</a>
</g>
</g>
<!-- Router6 -->
<g id="node2" class="node">
<title>Router6</title>
<g id="a_node2"><a xlink:href="inet.node.ipv6.Router6.html" xlink:title="Compound Module Router6" target="_parent">
<polygon fill="#fffcaf" stroke="black" points="55,-19 0,-19 0,0 55,0 55,-19"/>
<text text-anchor="middle" x="27.5" y="-7" font-family="Helvetica,sans-Serif" font-size="10.00">Router6</text>
</a>
</g>
</g>
<!-- BulkTransfer6&#45;&gt;Router6 -->
<g id="edge1" class="edge">
<title>BulkTransfer6&#45;&gt;Router6</title>
<path fill="none" stroke="black" d="M183.62,-54.98C151.37,-45.8 99.96,-31.15 65.02,-21.19"/>
<polygon fill="black" stroke="black" points="65.76,-17.76 55.18,-18.39 63.84,-24.5 65.76,-17.76"/>
</g>
<!-- Ipv6FlatNetworkConfigurator -->
<g id="node3" class="node">
<title>Ipv6FlatNetworkConfigurator</title>
<g id="a_node3"><a xlink:href="inet.networklayer.configurator.ipv6.Ipv6FlatNetworkConfigurator.html" xlink:title="Simple Module Ipv6FlatNetworkConfigurator" target="_parent">
<polygon fill="#fffcaf" stroke="black" points="230.5,-19 72.5,-19 72.5,0 230.5,0 230.5,-19"/>
<text text-anchor="middle" x="151.5" y="-7" font-family="Helvetica,sans-Serif" font-size="10.00">Ipv6FlatNetworkConfigurator</text>
</a>
</g>
</g>
<!-- BulkTransfer6&#45;&gt;Ipv6FlatNetworkConfigurator -->
<g id="edge2" class="edge">
<title>BulkTransfer6&#45;&gt;Ipv6FlatNetworkConfigurator</title>
<path fill="none" stroke="black" d="M203.54,-54.98C194.37,-47.15 180.56,-35.34 169.47,-25.86"/>
<polygon fill="black" stroke="black" points="171.52,-23.01 161.64,-19.17 166.97,-28.33 171.52,-23.01"/>
</g>
<!-- C -->
<g id="node4" class="node">
<title>C</title>
<g id="a_node4"><a xlink:href="inet.examples.ipv6.ipv6bulk.BulkTransfer6.C.html" xlink:title="Channel C" target="_parent">
<polygon fill="#d0ffd0" stroke="black" points="302.5,-19 248.5,-19 248.5,0 302.5,0 302.5,-19"/>
<text text-anchor="middle" x="275.5" y="-7" font-family="Helvetica,sans-Serif" font-size="10.00">C</text>
</a>
</g>
</g>
<!-- BulkTransfer6&#45;&gt;C -->
<g id="edge3" class="edge">
<title>BulkTransfer6&#45;&gt;C</title>
<path fill="none" stroke="black" d="M223.46,-54.98C232.63,-47.15 246.44,-35.34 257.53,-25.86"/>
<polygon fill="black" stroke="black" points="260.03,-28.33 265.36,-19.17 255.48,-23.01 260.03,-28.33"/>
</g>
<!-- StandardHost6 -->
<g id="node5" class="node">
<title>StandardHost6</title>
<g id="a_node5"><a xlink:href="inet.node.ipv6.StandardHost6.html" xlink:title="Compound Module StandardHost6" target="_parent">
<polygon fill="#fffcaf" stroke="black" points="410,-19 321,-19 321,0 410,0 410,-19"/>
<text text-anchor="middle" x="365.5" y="-7" font-family="Helvetica,sans-Serif" font-size="10.00">StandardHost6</text>
</a>
</g>
</g>
<!-- BulkTransfer6&#45;&gt;StandardHost6 -->
<g id="edge4" class="edge">
<title>BulkTransfer6&#45;&gt;StandardHost6</title>
<path fill="none" stroke="black" d="M237.92,-54.98C263.22,-46.16 302.95,-32.31 331.36,-22.41"/>
<polygon fill="black" stroke="black" points="332.6,-25.68 340.89,-19.08 330.29,-19.07 332.6,-25.68"/>
</g>
</g>
</svg>
