<?xml version="1.0" encoding="UTF-8" standalone="no"?>
<!DOCTYPE svg PUBLIC "-//W3C//DTD SVG 1.1//EN"
 "http://www.w3.org/Graphics/SVG/1.1/DTD/svg11.dtd">
<!-- Generated by graphviz version 2.43.0 (0)
 -->
<!-- Title: opp Pages: 1 -->
<svg width="459pt" height="137pt"
 viewBox="0.00 0.00 458.50 137.00" xmlns="http://www.w3.org/2000/svg" xmlns:xlink="http://www.w3.org/1999/xlink">
<g id="graph0" class="graph" transform="scale(1 1) rotate(0) translate(4 133)">
<title>opp</title>
<polygon fill="transparent" stroke="transparent" points="-4,4 -4,-133 454.5,-133 454.5,4 -4,4"/>
<!-- TwoNetsArea -->
<g id="node1" class="node">
<title>TwoNetsArea</title>
<g id="a_node1"><a xlink:href="inet.examples.ospfv2.areas.TwoNetsArea.html" xlink:title="Compound Module TwoNetsArea" target="_parent">
<polygon fill="#fff700" stroke="black" points="275.5,-74 195.5,-74 195.5,-55 275.5,-55 275.5,-74"/>
<text text-anchor="middle" x="235.5" y="-62" font-family="Helvetica,sans-Serif" font-size="10.00">TwoNetsArea</text>
</a>
</g>
</g>
<!-- OspfRouter -->
<g id="node2" class="node">
<title>OspfRouter</title>
<g id="a_node2"><a xlink:href="inet.node.ospfv2.OspfRouter.html" xlink:title="Compound Module OspfRouter" target="_parent">
<polygon fill="#fffcaf" stroke="black" points="71,-19 0,-19 0,0 71,0 71,-19"/>
<text text-anchor="middle" x="35.5" y="-7" font-family="Helvetica,sans-Serif" font-size="10.00">OspfRouter</text>
</a>
</g>
</g>
<!-- TwoNetsArea&#45;&gt;OspfRouter -->
<g id="edge1" class="edge">
<title>TwoNetsArea&#45;&gt;OspfRouter</title>
<path fill="none" stroke="black" d="M203.37,-54.98C169.35,-45.97 115.5,-31.7 78,-21.76"/>
<polygon fill="black" stroke="black" points="78.45,-18.26 67.89,-19.08 76.66,-25.03 78.45,-18.26"/>
</g>
<!-- StandardHost -->
<g id="node3" class="node">
<title>StandardHost</title>
<g id="a_node3"><a xlink:href="inet.node.inet.StandardHost.html" xlink:title="Compound Module StandardHost" target="_parent">
<polygon fill="#fffcaf" stroke="black" points="172,-19 89,-19 89,0 172,0 172,-19"/>
<text text-anchor="middle" x="130.5" y="-7" font-family="Helvetica,sans-Serif" font-size="10.00">StandardHost</text>
</a>
</g>
</g>
<!-- TwoNetsArea&#45;&gt;StandardHost -->
<g id="edge2" class="edge">
<title>TwoNetsArea&#45;&gt;StandardHost</title>
<path fill="none" stroke="black" d="M218.63,-54.98C201.89,-46.54 176,-33.47 156.61,-23.68"/>
<polygon fill="black" stroke="black" points="158.18,-20.55 147.68,-19.17 155.03,-26.8 158.18,-20.55"/>
</g>
<!-- EthernetSwitch -->
<g id="node4" class="node">
<title>EthernetSwitch</title>
<g id="a_node4"><a xlink:href="inet.node.ethernet.EthernetSwitch.html" xlink:title="Compound Module EthernetSwitch" target="_parent">
<polygon fill="#fffcaf" stroke="black" points="280.5,-19 190.5,-19 190.5,0 280.5,0 280.5,-19"/>
<text text-anchor="middle" x="235.5" y="-7" font-family="Helvetica,sans-Serif" font-size="10.00">EthernetSwitch</text>
</a>
</g>
</g>
<!-- TwoNetsArea&#45;&gt;EthernetSwitch -->
<g id="edge3" class="edge">
<title>TwoNetsArea&#45;&gt;EthernetSwitch</title>
<path fill="none" stroke="black" d="M235.5,-54.75C235.5,-47.8 235.5,-37.85 235.5,-29.13"/>
<polygon fill="black" stroke="black" points="239,-29.09 235.5,-19.09 232,-29.09 239,-29.09"/>
</g>
<!-- C -->
<g id="node5" class="node">
<title>C</title>
<g id="a_node5"><a xlink:href="inet.examples.ospfv2.areas.TwoNetsArea.C.html" xlink:title="Channel C" target="_parent">
<polygon fill="#d0ffd0" stroke="black" points="352.5,-19 298.5,-19 298.5,0 352.5,0 352.5,-19"/>
<text text-anchor="middle" x="325.5" y="-7" font-family="Helvetica,sans-Serif" font-size="10.00">C</text>
</a>
</g>
</g>
<!-- TwoNetsArea&#45;&gt;C -->
<g id="edge4" class="edge">
<title>TwoNetsArea&#45;&gt;C</title>
<path fill="none" stroke="black" d="M249.96,-54.98C263.92,-46.77 285.29,-34.18 301.75,-24.49"/>
<polygon fill="black" stroke="black" points="303.94,-27.26 310.78,-19.17 300.38,-21.23 303.94,-27.26"/>
</g>
<!-- IdealChannel -->
<g id="node6" class="node">
<title>IdealChannel</title>
<g id="a_node6"><a xlink:href="ned.IdealChannel.html" xlink:title="Channel IdealChannel" target="_parent">
<polygon fill="#d0ffd0" stroke="black" points="450.5,-19 370.5,-19 370.5,0 450.5,0 450.5,-19"/>
<text text-anchor="middle" x="410.5" y="-7" font-family="Helvetica,sans-Serif" font-size="10.00">IdealChannel</text>
</a>
</g>
</g>
<!-- TwoNetsArea&#45;&gt;IdealChannel -->
<g id="edge5" class="edge">
<title>TwoNetsArea&#45;&gt;IdealChannel</title>
<path fill="none" stroke="black" d="M263.62,-54.98C293.12,-46.05 339.69,-31.94 372.47,-22.02"/>
<polygon fill="black" stroke="black" points="373.61,-25.33 382.16,-19.08 371.58,-18.63 373.61,-25.33"/>
</g>
<!-- OSPF_AreaTest -->
<g id="node7" class="node">
<title>OSPF_AreaTest</title>
<g id="a_node7"><a xlink:href="inet.examples.ospfv2.areas.OSPF_AreaTest.html" xlink:title="Network OSPF_AreaTest" target="_parent">
<polygon fill="#d0d0ff" stroke="black" points="280,-129 191,-129 191,-110 280,-110 280,-129"/>
<text text-anchor="middle" x="235.5" y="-117" font-family="Helvetica,sans-Serif" font-size="10.00">OSPF_AreaTest</text>
</a>
</g>
</g>
<!-- OSPF_AreaTest&#45;&gt;TwoNetsArea -->
<g id="edge6" class="edge">
<title>OSPF_AreaTest&#45;&gt;TwoNetsArea</title>
<path fill="none" stroke="black" d="M235.5,-109.75C235.5,-102.8 235.5,-92.85 235.5,-84.13"/>
<polygon fill="black" stroke="black" points="239,-84.09 235.5,-74.09 232,-84.09 239,-84.09"/>
</g>
</g>
</svg>
