<?xml version="1.0" encoding="UTF-8" standalone="no"?>
<!DOCTYPE svg PUBLIC "-//W3C//DTD SVG 1.1//EN"
 "http://www.w3.org/Graphics/SVG/1.1/DTD/svg11.dtd">
<!-- Generated by graphviz version 2.43.0 (0)
 -->
<!-- Title: opp Pages: 1 -->
<svg width="671pt" height="137pt"
 viewBox="0.00 0.00 670.50 137.00" xmlns="http://www.w3.org/2000/svg" xmlns:xlink="http://www.w3.org/1999/xlink">
<g id="graph0" class="graph" transform="scale(1 1) rotate(0) translate(4 133)">
<title>opp</title>
<polygon fill="transparent" stroke="transparent" points="-4,4 -4,-133 666.5,-133 666.5,4 -4,4"/>
<!-- Edcaf -->
<g id="node1" class="node">
<title>Edcaf</title>
<g id="a_node1"><a xlink:href="inet.linklayer.ieee80211.mac.channelaccess.Edcaf.html" xlink:title="Compound Module Edcaf" target="_parent">
<polygon fill="#fff700" stroke="black" points="324.5,-74 270.5,-74 270.5,-55 324.5,-55 324.5,-74"/>
<text text-anchor="middle" x="297.5" y="-62" font-family="Helvetica,sans-Serif" font-size="10.00">Edcaf</text>
</a>
</g>
</g>
<!-- IContention -->
<g id="node2" class="node">
<title>IContention</title>
<g id="a_node2"><a xlink:href="inet.linklayer.ieee80211.mac.contract.IContention.html" xlink:title="Module Interface IContention" target="_parent">
<polygon fill="#fffcaf" stroke="black" stroke-dasharray="5,2" points="73,-19 0,-19 0,0 73,0 73,-19"/>
<text text-anchor="middle" x="36.5" y="-7" font-family="Helvetica,sans-Serif" font-size="10.00">IContention</text>
</a>
</g>
</g>
<!-- Edcaf&#45;&gt;IContention -->
<g id="edge1" class="edge">
<title>Edcaf&#45;&gt;IContention</title>
<path fill="none" stroke="black" d="M270.06,-57.93C225.67,-48.91 137.61,-31.03 83.21,-19.99"/>
<polygon fill="black" stroke="black" points="83.63,-16.5 73.13,-17.94 82.24,-23.36 83.63,-16.5"/>
</g>
<!-- TxopProcedure -->
<g id="node3" class="node">
<title>TxopProcedure</title>
<g id="a_node3"><a xlink:href="inet.linklayer.ieee80211.mac.originator.TxopProcedure.html" xlink:title="Simple Module TxopProcedure" target="_parent">
<polygon fill="#fffcaf" stroke="black" points="180,-19 91,-19 91,0 180,0 180,-19"/>
<text text-anchor="middle" x="135.5" y="-7" font-family="Helvetica,sans-Serif" font-size="10.00">TxopProcedure</text>
</a>
</g>
</g>
<!-- Edcaf&#45;&gt;TxopProcedure -->
<g id="edge2" class="edge">
<title>Edcaf&#45;&gt;TxopProcedure</title>
<path fill="none" stroke="black" d="M271.47,-54.98C244.39,-46.13 201.79,-32.19 171.49,-22.28"/>
<polygon fill="black" stroke="black" points="172.32,-18.87 161.73,-19.08 170.15,-25.52 172.32,-18.87"/>
</g>
<!-- QosAckHandler -->
<g id="node4" class="node">
<title>QosAckHandler</title>
<g id="a_node4"><a xlink:href="inet.linklayer.ieee80211.mac.originator.QosAckHandler.html" xlink:title="Simple Module QosAckHandler" target="_parent">
<polygon fill="#fffcaf" stroke="black" points="290.5,-19 198.5,-19 198.5,0 290.5,0 290.5,-19"/>
<text text-anchor="middle" x="244.5" y="-7" font-family="Helvetica,sans-Serif" font-size="10.00">QosAckHandler</text>
</a>
</g>
</g>
<!-- Edcaf&#45;&gt;QosAckHandler -->
<g id="edge3" class="edge">
<title>Edcaf&#45;&gt;QosAckHandler</title>
<path fill="none" stroke="black" d="M288.75,-54.75C281.03,-47.03 269.6,-35.6 260.28,-26.28"/>
<polygon fill="black" stroke="black" points="262.64,-23.69 253.09,-19.09 257.69,-28.64 262.64,-23.69"/>
</g>
<!-- IPacketQueue -->
<g id="node5" class="node">
<title>IPacketQueue</title>
<g id="a_node5"><a xlink:href="inet.queueing.contract.IPacketQueue.html" xlink:title="Module Interface IPacketQueue" target="_parent">
<polygon fill="#fffcaf" stroke="black" stroke-dasharray="5,2" points="392,-19 309,-19 309,0 392,0 392,-19"/>
<text text-anchor="middle" x="350.5" y="-7" font-family="Helvetica,sans-Serif" font-size="10.00">IPacketQueue</text>
</a>
</g>
</g>
<!-- Edcaf&#45;&gt;IPacketQueue -->
<g id="edge4" class="edge">
<title>Edcaf&#45;&gt;IPacketQueue</title>
<path fill="none" stroke="black" d="M306.25,-54.75C313.97,-47.03 325.4,-35.6 334.72,-26.28"/>
<polygon fill="black" stroke="black" points="337.31,-28.64 341.91,-19.09 332.36,-23.69 337.31,-28.64"/>
</g>
<!-- QosRecoveryProcedure -->
<g id="node6" class="node">
<title>QosRecoveryProcedure</title>
<g id="a_node6"><a xlink:href="inet.linklayer.ieee80211.mac.originator.QosRecoveryProcedure.html" xlink:title="Simple Module QosRecoveryProcedure" target="_parent">
<polygon fill="#fffcaf" stroke="black" points="540.5,-19 410.5,-19 410.5,0 540.5,0 540.5,-19"/>
<text text-anchor="middle" x="475.5" y="-7" font-family="Helvetica,sans-Serif" font-size="10.00">QosRecoveryProcedure</text>
</a>
</g>
</g>
<!-- Edcaf&#45;&gt;QosRecoveryProcedure -->
<g id="edge5" class="edge">
<title>Edcaf&#45;&gt;QosRecoveryProcedure</title>
<path fill="none" stroke="black" d="M324.53,-55.45C354.54,-46.52 403.21,-32.03 437.15,-21.92"/>
<polygon fill="black" stroke="black" points="438.15,-25.27 446.73,-19.07 436.15,-18.56 438.15,-25.27"/>
</g>
<!-- InProgressFrames -->
<g id="node7" class="node">
<title>InProgressFrames</title>
<g id="a_node7"><a xlink:href="inet.linklayer.ieee80211.mac.queue.InProgressFrames.html" xlink:title="Simple Module InProgressFrames" target="_parent">
<polygon fill="#fffcaf" stroke="black" points="662.5,-19 558.5,-19 558.5,0 662.5,0 662.5,-19"/>
<text text-anchor="middle" x="610.5" y="-7" font-family="Helvetica,sans-Serif" font-size="10.00">InProgressFrames</text>
</a>
</g>
</g>
<!-- Edcaf&#45;&gt;InProgressFrames -->
<g id="edge6" class="edge">
<title>Edcaf&#45;&gt;InProgressFrames</title>
<path fill="none" stroke="black" d="M324.73,-58.89C374.67,-50.43 482.01,-32.26 549.98,-20.75"/>
<polygon fill="black" stroke="black" points="550.85,-24.15 560.13,-19.03 549.68,-17.25 550.85,-24.15"/>
</g>
<!-- Edca -->
<g id="node8" class="node">
<title>Edca</title>
<g id="a_node8"><a xlink:href="inet.linklayer.ieee80211.mac.channelaccess.Edca.html" xlink:title="Compound Module Edca" target="_parent">
<polygon fill="#fffcaf" stroke="black" points="324.5,-129 270.5,-129 270.5,-110 324.5,-110 324.5,-129"/>
<text text-anchor="middle" x="297.5" y="-117" font-family="Helvetica,sans-Serif" font-size="10.00">Edca</text>
</a>
</g>
</g>
<!-- Edca&#45;&gt;Edcaf -->
<g id="edge7" class="edge">
<title>Edca&#45;&gt;Edcaf</title>
<path fill="none" stroke="black" d="M297.5,-109.75C297.5,-102.8 297.5,-92.85 297.5,-84.13"/>
<polygon fill="black" stroke="black" points="301,-84.09 297.5,-74.09 294,-84.09 301,-84.09"/>
</g>
</g>
</svg>
