<?xml version="1.0" encoding="UTF-8" standalone="no"?>
<!DOCTYPE svg PUBLIC "-//W3C//DTD SVG 1.1//EN"
 "http://www.w3.org/Graphics/SVG/1.1/DTD/svg11.dtd">
<!-- Generated by graphviz version 2.43.0 (0)
 -->
<!-- Title: opp Pages: 1 -->
<svg width="1030pt" height="137pt"
 viewBox="0.00 0.00 1030.00 137.00" xmlns="http://www.w3.org/2000/svg" xmlns:xlink="http://www.w3.org/1999/xlink">
<g id="graph0" class="graph" transform="scale(1 1) rotate(0) translate(4 133)">
<title>opp</title>
<polygon fill="transparent" stroke="transparent" points="-4,4 -4,-133 1026,-133 1026,4 -4,4"/>
<!-- ClientHost7 -->
<g id="node1" class="node">
<title>ClientHost7</title>
<g id="a_node1"><a xlink:href="inet.tutorials.protocol.ClientHost7.html" xlink:title="Compound Module ClientHost7" target="_parent">
<polygon fill="#fff700" stroke="black" points="595,-74 521,-74 521,-55 595,-55 595,-74"/>
<text text-anchor="middle" x="558" y="-62" font-family="Helvetica,sans-Serif" font-size="10.00">ClientHost7</text>
</a>
</g>
</g>
<!-- FcsHeaderInserter -->
<g id="node2" class="node">
<title>FcsHeaderInserter</title>
<g id="a_node2"><a xlink:href="inet.protocolelement.checksum.FcsHeaderInserter.html" xlink:title="Simple Module FcsHeaderInserter" target="_parent">
<polygon fill="#fffcaf" stroke="black" points="106,-19 0,-19 0,0 106,0 106,-19"/>
<text text-anchor="middle" x="53" y="-7" font-family="Helvetica,sans-Serif" font-size="10.00">FcsHeaderInserter</text>
</a>
</g>
</g>
<!-- ClientHost7&#45;&gt;FcsHeaderInserter -->
<g id="edge1" class="edge">
<title>ClientHost7&#45;&gt;FcsHeaderInserter</title>
<path fill="none" stroke="black" d="M520.9,-60.23C446.38,-53.56 272.92,-37.55 116.37,-19.12"/>
<polygon fill="black" stroke="black" points="116.43,-15.61 106.08,-17.91 115.6,-22.56 116.43,-15.61"/>
</g>
<!-- SequenceNumbering -->
<g id="node3" class="node">
<title>SequenceNumbering</title>
<g id="a_node3"><a xlink:href="inet.protocolelement.ordering.SequenceNumbering.html" xlink:title="Simple Module SequenceNumbering" target="_parent">
<polygon fill="#fffcaf" stroke="black" points="242,-19 124,-19 124,0 242,0 242,-19"/>
<text text-anchor="middle" x="183" y="-7" font-family="Helvetica,sans-Serif" font-size="10.00">SequenceNumbering</text>
</a>
</g>
</g>
<!-- ClientHost7&#45;&gt;SequenceNumbering -->
<g id="edge2" class="edge">
<title>ClientHost7&#45;&gt;SequenceNumbering</title>
<path fill="none" stroke="black" d="M520.67,-58.22C458.26,-49.4 331.8,-31.53 252.59,-20.33"/>
<polygon fill="black" stroke="black" points="252.6,-16.8 242.21,-18.87 251.62,-23.73 252.6,-16.8"/>
</g>
<!-- InstantServer -->
<g id="node4" class="node">
<title>InstantServer</title>
<g id="a_node4"><a xlink:href="inet.queueing.server.InstantServer.html" xlink:title="Simple Module InstantServer" target="_parent">
<polygon fill="#fffcaf" stroke="black" points="342,-19 260,-19 260,0 342,0 342,-19"/>
<text text-anchor="middle" x="301" y="-7" font-family="Helvetica,sans-Serif" font-size="10.00">InstantServer</text>
</a>
</g>
</g>
<!-- ClientHost7&#45;&gt;InstantServer -->
<g id="edge3" class="edge">
<title>ClientHost7&#45;&gt;InstantServer</title>
<path fill="none" stroke="black" d="M520.9,-55.85C476.56,-46.7 402.1,-31.35 352.27,-21.07"/>
<polygon fill="black" stroke="black" points="352.84,-17.62 342.34,-19.03 351.43,-24.47 352.84,-17.62"/>
</g>
<!-- InterpacketGapInserter -->
<g id="node5" class="node">
<title>InterpacketGapInserter</title>
<g id="a_node5"><a xlink:href="inet.protocolelement.common.InterpacketGapInserter.html" xlink:title="Simple Module InterpacketGapInserter" target="_parent">
<polygon fill="#fffcaf" stroke="black" points="488,-19 360,-19 360,0 488,0 488,-19"/>
<text text-anchor="middle" x="424" y="-7" font-family="Helvetica,sans-Serif" font-size="10.00">InterpacketGapInserter</text>
</a>
</g>
</g>
<!-- ClientHost7&#45;&gt;InterpacketGapInserter -->
<g id="edge4" class="edge">
<title>ClientHost7&#45;&gt;InterpacketGapInserter</title>
<path fill="none" stroke="black" d="M536.47,-54.98C514.53,-46.3 480.26,-32.75 455.31,-22.88"/>
<polygon fill="black" stroke="black" points="456.51,-19.59 445.92,-19.17 453.93,-26.1 456.51,-19.59"/>
</g>
<!-- PacketTransmitter -->
<g id="node6" class="node">
<title>PacketTransmitter</title>
<g id="a_node6"><a xlink:href="inet.protocolelement.transceiver.PacketTransmitter.html" xlink:title="Simple Module PacketTransmitter" target="_parent">
<polygon fill="#fffcaf" stroke="black" points="610,-19 506,-19 506,0 610,0 610,-19"/>
<text text-anchor="middle" x="558" y="-7" font-family="Helvetica,sans-Serif" font-size="10.00">PacketTransmitter</text>
</a>
</g>
</g>
<!-- ClientHost7&#45;&gt;PacketTransmitter -->
<g id="edge5" class="edge">
<title>ClientHost7&#45;&gt;PacketTransmitter</title>
<path fill="none" stroke="black" d="M558,-54.75C558,-47.8 558,-37.85 558,-29.13"/>
<polygon fill="black" stroke="black" points="561.5,-29.09 558,-19.09 554.5,-29.09 561.5,-29.09"/>
</g>
<!-- PacketQueue -->
<g id="node7" class="node">
<title>PacketQueue</title>
<g id="a_node7"><a xlink:href="inet.queueing.queue.PacketQueue.html" xlink:title="Simple Module PacketQueue" target="_parent">
<polygon fill="#fffcaf" stroke="black" points="708,-19 628,-19 628,0 708,0 708,-19"/>
<text text-anchor="middle" x="668" y="-7" font-family="Helvetica,sans-Serif" font-size="10.00">PacketQueue</text>
</a>
</g>
</g>
<!-- ClientHost7&#45;&gt;PacketQueue -->
<g id="edge6" class="edge">
<title>ClientHost7&#45;&gt;PacketQueue</title>
<path fill="none" stroke="black" d="M575.67,-54.98C593.29,-46.5 620.58,-33.35 640.93,-23.54"/>
<polygon fill="black" stroke="black" points="642.52,-26.66 650.01,-19.17 639.48,-20.36 642.52,-26.66"/>
</g>
<!-- IdealChannel -->
<g id="node8" class="node">
<title>IdealChannel</title>
<g id="a_node8"><a xlink:href="ned.IdealChannel.html" xlink:title="Channel IdealChannel" target="_parent">
<polygon fill="#d0ffd0" stroke="black" points="806,-19 726,-19 726,0 806,0 806,-19"/>
<text text-anchor="middle" x="766" y="-7" font-family="Helvetica,sans-Serif" font-size="10.00">IdealChannel</text>
</a>
</g>
</g>
<!-- ClientHost7&#45;&gt;IdealChannel -->
<g id="edge7" class="edge">
<title>ClientHost7&#45;&gt;IdealChannel</title>
<path fill="none" stroke="black" d="M591.42,-54.98C626.94,-45.93 683.27,-31.58 722.3,-21.64"/>
<polygon fill="black" stroke="black" points="723.49,-24.94 732.32,-19.08 721.76,-18.16 723.49,-24.94"/>
</g>
<!-- ActivePacketSource -->
<g id="node9" class="node">
<title>ActivePacketSource</title>
<g id="a_node9"><a xlink:href="inet.queueing.source.ActivePacketSource.html" xlink:title="Simple Module ActivePacketSource" target="_parent">
<polygon fill="#fffcaf" stroke="black" points="936,-19 824,-19 824,0 936,0 936,-19"/>
<text text-anchor="middle" x="880" y="-7" font-family="Helvetica,sans-Serif" font-size="10.00">ActivePacketSource</text>
</a>
</g>
</g>
<!-- ClientHost7&#45;&gt;ActivePacketSource -->
<g id="edge8" class="edge">
<title>ClientHost7&#45;&gt;ActivePacketSource</title>
<path fill="none" stroke="black" d="M595.25,-57.37C649.78,-48.39 752,-31.57 817.98,-20.71"/>
<polygon fill="black" stroke="black" points="818.94,-24.1 828.24,-19.02 817.8,-17.19 818.94,-24.1"/>
</g>
<!-- Resending -->
<g id="node10" class="node">
<title>Resending</title>
<g id="a_node10"><a xlink:href="inet.protocolelement.acknowledgement.Resending.html" xlink:title="Simple Module Resending" target="_parent">
<polygon fill="#fffcaf" stroke="black" points="1022,-19 954,-19 954,0 1022,0 1022,-19"/>
<text text-anchor="middle" x="988" y="-7" font-family="Helvetica,sans-Serif" font-size="10.00">Resending</text>
</a>
</g>
</g>
<!-- ClientHost7&#45;&gt;Resending -->
<g id="edge9" class="edge">
<title>ClientHost7&#45;&gt;Resending</title>
<path fill="none" stroke="black" d="M595.22,-60.23C662.68,-54.08 809.79,-39.67 943.75,-19.08"/>
<polygon fill="black" stroke="black" points="944.43,-22.52 953.78,-17.52 943.36,-15.6 944.43,-22.52"/>
</g>
<!-- Network7 -->
<g id="node11" class="node">
<title>Network7</title>
<g id="a_node11"><a xlink:href="inet.tutorials.protocol.Network7.html" xlink:title="Network Network7" target="_parent">
<polygon fill="#d0d0ff" stroke="black" points="590,-129 526,-129 526,-110 590,-110 590,-129"/>
<text text-anchor="middle" x="558" y="-117" font-family="Helvetica,sans-Serif" font-size="10.00">Network7</text>
</a>
</g>
</g>
<!-- Network7&#45;&gt;ClientHost7 -->
<g id="edge10" class="edge">
<title>Network7&#45;&gt;ClientHost7</title>
<path fill="none" stroke="black" d="M558,-109.75C558,-102.8 558,-92.85 558,-84.13"/>
<polygon fill="black" stroke="black" points="561.5,-84.09 558,-74.09 554.5,-84.09 561.5,-84.09"/>
</g>
</g>
</svg>
