<?xml version="1.0" encoding="UTF-8" standalone="no"?>
<!DOCTYPE svg PUBLIC "-//W3C//DTD SVG 1.1//EN"
 "http://www.w3.org/Graphics/SVG/1.1/DTD/svg11.dtd">
<!-- Generated by graphviz version 2.43.0 (0)
 -->
<!-- Title: opp Pages: 1 -->
<svg width="3517pt" height="82pt"
 viewBox="0.00 0.00 3516.50 82.00" xmlns="http://www.w3.org/2000/svg" xmlns:xlink="http://www.w3.org/1999/xlink">
<g id="graph0" class="graph" transform="scale(1 1) rotate(0) translate(4 78)">
<title>opp</title>
<polygon fill="transparent" stroke="transparent" points="-4,4 -4,-78 3512.5,-78 3512.5,4 -4,4"/>
<!-- VisualizerBase -->
<g id="node1" class="node">
<title>VisualizerBase</title>
<g id="a_node1"><a xlink:href="inet.visualizer.base.VisualizerBase.html" xlink:title="Simple Module VisualizerBase" target="_parent">
<polygon fill="#fff700" stroke="black" points="1795.5,-74 1706.5,-74 1706.5,-55 1795.5,-55 1795.5,-74"/>
<text text-anchor="middle" x="1751" y="-62" font-family="Helvetica,sans-Serif" font-size="10.00">VisualizerBase</text>
</a>
</g>
</g>
<!-- EnergyStorageVisualizerBase -->
<g id="node2" class="node">
<title>EnergyStorageVisualizerBase</title>
<g id="a_node2"><a xlink:href="inet.visualizer.base.EnergyStorageVisualizerBase.html" xlink:title="Simple Module EnergyStorageVisualizerBase" target="_parent">
<polygon fill="#fffcaf" stroke="black" points="160,-19 0,-19 0,0 160,0 160,-19"/>
<text text-anchor="middle" x="80" y="-7" font-family="Helvetica,sans-Serif" font-size="10.00">EnergyStorageVisualizerBase</text>
</a>
</g>
</g>
<!-- VisualizerBase&#45;&gt;EnergyStorageVisualizerBase -->
<g id="edge1" class="edge">
<title>VisualizerBase&#45;&gt;EnergyStorageVisualizerBase</title>
<path fill="none" stroke="black" d="M1706.28,-63.34C1518.73,-62.44 777.13,-56.55 169,-19 166.06,-18.82 163.06,-18.62 160.03,-18.4"/>
</g>
<!-- GateScheduleVisualizerBase -->
<g id="node3" class="node">
<title>GateScheduleVisualizerBase</title>
<g id="a_node3"><a xlink:href="inet.visualizer.base.GateScheduleVisualizerBase.html" xlink:title="Simple Module GateScheduleVisualizerBase" target="_parent">
<polygon fill="#fffcaf" stroke="black" points="334,-19 178,-19 178,0 334,0 334,-19"/>
<text text-anchor="middle" x="256" y="-7" font-family="Helvetica,sans-Serif" font-size="10.00">GateScheduleVisualizerBase</text>
</a>
</g>
</g>
<!-- VisualizerBase&#45;&gt;GateScheduleVisualizerBase -->
<g id="edge2" class="edge">
<title>VisualizerBase&#45;&gt;GateScheduleVisualizerBase</title>
<path fill="none" stroke="black" d="M1706.26,-63.16C1531.63,-61.59 879.01,-53.62 343,-19 340.12,-18.81 337.19,-18.61 334.23,-18.39"/>
</g>
<!-- Ieee80211VisualizerBase -->
<g id="node4" class="node">
<title>Ieee80211VisualizerBase</title>
<g id="a_node4"><a xlink:href="inet.visualizer.base.Ieee80211VisualizerBase.html" xlink:title="Simple Module Ieee80211VisualizerBase" target="_parent">
<polygon fill="#fffcaf" stroke="black" points="492,-19 352,-19 352,0 492,0 492,-19"/>
<text text-anchor="middle" x="422" y="-7" font-family="Helvetica,sans-Serif" font-size="10.00">Ieee80211VisualizerBase</text>
</a>
</g>
</g>
<!-- VisualizerBase&#45;&gt;Ieee80211VisualizerBase -->
<g id="edge3" class="edge">
<title>VisualizerBase&#45;&gt;Ieee80211VisualizerBase</title>
<path fill="none" stroke="black" d="M1706.37,-63.07C1544.34,-61.24 971.83,-52.67 501,-19 498.11,-18.79 495.16,-18.56 492.19,-18.32"/>
</g>
<!-- InfoVisualizerBase -->
<g id="node5" class="node">
<title>InfoVisualizerBase</title>
<g id="a_node5"><a xlink:href="inet.visualizer.base.InfoVisualizerBase.html" xlink:title="Simple Module InfoVisualizerBase" target="_parent">
<polygon fill="#fffcaf" stroke="black" points="617.5,-19 510.5,-19 510.5,0 617.5,0 617.5,-19"/>
<text text-anchor="middle" x="564" y="-7" font-family="Helvetica,sans-Serif" font-size="10.00">InfoVisualizerBase</text>
</a>
</g>
</g>
<!-- VisualizerBase&#45;&gt;InfoVisualizerBase -->
<g id="edge4" class="edge">
<title>VisualizerBase&#45;&gt;InfoVisualizerBase</title>
<path fill="none" stroke="black" d="M1706.46,-63.25C1554.97,-62.07 1045.78,-55.46 627,-19 623.92,-18.73 620.76,-18.42 617.58,-18.08"/>
</g>
<!-- InterfaceTableVisualizerBase -->
<g id="node6" class="node">
<title>InterfaceTableVisualizerBase</title>
<g id="a_node6"><a xlink:href="inet.visualizer.base.InterfaceTableVisualizerBase.html" xlink:title="Simple Module InterfaceTableVisualizerBase" target="_parent">
<polygon fill="#fffcaf" stroke="black" points="794,-19 636,-19 636,0 794,0 794,-19"/>
<text text-anchor="middle" x="715" y="-7" font-family="Helvetica,sans-Serif" font-size="10.00">InterfaceTableVisualizerBase</text>
</a>
</g>
</g>
<!-- VisualizerBase&#45;&gt;InterfaceTableVisualizerBase -->
<g id="edge5" class="edge">
<title>VisualizerBase&#45;&gt;InterfaceTableVisualizerBase</title>
<path fill="none" stroke="black" d="M1706.05,-62.18C1569.91,-58.01 1150.17,-43.9 803,-19 800.09,-18.79 797.13,-18.57 794.14,-18.33"/>
</g>
<!-- LinkBreakVisualizerBase -->
<g id="node7" class="node">
<title>LinkBreakVisualizerBase</title>
<g id="a_node7"><a xlink:href="inet.visualizer.base.LinkBreakVisualizerBase.html" xlink:title="Simple Module LinkBreakVisualizerBase" target="_parent">
<polygon fill="#fffcaf" stroke="black" points="949.5,-19 812.5,-19 812.5,0 949.5,0 949.5,-19"/>
<text text-anchor="middle" x="881" y="-7" font-family="Helvetica,sans-Serif" font-size="10.00">LinkBreakVisualizerBase</text>
</a>
</g>
</g>
<!-- VisualizerBase&#45;&gt;LinkBreakVisualizerBase -->
<g id="edge6" class="edge">
<title>VisualizerBase&#45;&gt;LinkBreakVisualizerBase</title>
<path fill="none" stroke="black" d="M1706.23,-61.83C1585.37,-57.15 1242.45,-42.66 958,-19 955.32,-18.78 952.59,-18.54 949.83,-18.28"/>
</g>
<!-- LinkVisualizerBase -->
<g id="node8" class="node">
<title>LinkVisualizerBase</title>
<g id="a_node8"><a xlink:href="inet.visualizer.base.LinkVisualizerBase.html" xlink:title="Simple Module LinkVisualizerBase" target="_parent">
<polygon fill="#fffcaf" stroke="black" points="1076.5,-19 967.5,-19 967.5,0 1076.5,0 1076.5,-19"/>
<text text-anchor="middle" x="1022" y="-7" font-family="Helvetica,sans-Serif" font-size="10.00">LinkVisualizerBase</text>
</a>
</g>
</g>
<!-- VisualizerBase&#45;&gt;LinkVisualizerBase -->
<g id="edge7" class="edge">
<title>VisualizerBase&#45;&gt;LinkVisualizerBase</title>
<path fill="none" stroke="black" d="M1706.16,-61.51C1598.85,-56.53 1318.87,-42.23 1086,-19 1082.99,-18.7 1079.9,-18.37 1076.79,-18.02"/>
</g>
<!-- MediumVisualizerBase -->
<g id="node9" class="node">
<title>MediumVisualizerBase</title>
<g id="a_node9"><a xlink:href="inet.visualizer.base.MediumVisualizerBase.html" xlink:title="Simple Module MediumVisualizerBase" target="_parent">
<polygon fill="#fffcaf" stroke="black" points="1223,-19 1095,-19 1095,0 1223,0 1223,-19"/>
<text text-anchor="middle" x="1159" y="-7" font-family="Helvetica,sans-Serif" font-size="10.00">MediumVisualizerBase</text>
</a>
</g>
</g>
<!-- VisualizerBase&#45;&gt;MediumVisualizerBase -->
<g id="edge8" class="edge">
<title>VisualizerBase&#45;&gt;MediumVisualizerBase</title>
<path fill="none" stroke="black" d="M1706.18,-60.12C1616.21,-53.23 1407.23,-36.71 1232,-19 1229.08,-18.7 1226.1,-18.39 1223.08,-18.07"/>
</g>
<!-- MobilityVisualizerBase -->
<g id="node10" class="node">
<title>MobilityVisualizerBase</title>
<g id="a_node10"><a xlink:href="inet.visualizer.base.MobilityVisualizerBase.html" xlink:title="Simple Module MobilityVisualizerBase" target="_parent">
<polygon fill="#fffcaf" stroke="black" points="1369,-19 1241,-19 1241,0 1369,0 1369,-19"/>
<text text-anchor="middle" x="1305" y="-7" font-family="Helvetica,sans-Serif" font-size="10.00">MobilityVisualizerBase</text>
</a>
</g>
</g>
<!-- VisualizerBase&#45;&gt;MobilityVisualizerBase -->
<g id="edge9" class="edge">
<title>VisualizerBase&#45;&gt;MobilityVisualizerBase</title>
<path fill="none" stroke="black" d="M1706.19,-58.18C1626.67,-48.73 1460.63,-28.99 1369.06,-18.11"/>
</g>
<!-- NetworkConnectionVisualizerBase -->
<g id="node11" class="node">
<title>NetworkConnectionVisualizerBase</title>
<g id="a_node11"><a xlink:href="inet.visualizer.base.NetworkConnectionVisualizerBase.html" xlink:title="Simple Module NetworkConnectionVisualizerBase" target="_parent">
<polygon fill="#fffcaf" stroke="black" points="1572.5,-19 1387.5,-19 1387.5,0 1572.5,0 1572.5,-19"/>
<text text-anchor="middle" x="1480" y="-7" font-family="Helvetica,sans-Serif" font-size="10.00">NetworkConnectionVisualizerBase</text>
</a>
</g>
</g>
<!-- VisualizerBase&#45;&gt;NetworkConnectionVisualizerBase -->
<g id="edge10" class="edge">
<title>VisualizerBase&#45;&gt;NetworkConnectionVisualizerBase</title>
<path fill="none" stroke="black" d="M1707.46,-54.98C1657.04,-45.12 1574.45,-28.97 1523.88,-19.08"/>
</g>
<!-- NetworkNodeVisualizerBase -->
<g id="node12" class="node">
<title>NetworkNodeVisualizerBase</title>
<g id="a_node12"><a xlink:href="inet.visualizer.base.NetworkNodeVisualizerBase.html" xlink:title="Simple Module NetworkNodeVisualizerBase" target="_parent">
<polygon fill="#fffcaf" stroke="black" points="1745.5,-19 1590.5,-19 1590.5,0 1745.5,0 1745.5,-19"/>
<text text-anchor="middle" x="1668" y="-7" font-family="Helvetica,sans-Serif" font-size="10.00">NetworkNodeVisualizerBase</text>
</a>
</g>
</g>
<!-- VisualizerBase&#45;&gt;NetworkNodeVisualizerBase -->
<g id="edge11" class="edge">
<title>VisualizerBase&#45;&gt;NetworkNodeVisualizerBase</title>
<path fill="none" stroke="black" d="M1737.66,-54.98C1722.27,-45.15 1697.08,-29.07 1681.58,-19.17"/>
</g>
<!-- PacketDropVisualizerBase -->
<g id="node13" class="node">
<title>PacketDropVisualizerBase</title>
<g id="a_node13"><a xlink:href="inet.visualizer.base.PacketDropVisualizerBase.html" xlink:title="Simple Module PacketDropVisualizerBase" target="_parent">
<polygon fill="#fffcaf" stroke="black" points="1906.5,-19 1763.5,-19 1763.5,0 1906.5,0 1906.5,-19"/>
<text text-anchor="middle" x="1835" y="-7" font-family="Helvetica,sans-Serif" font-size="10.00">PacketDropVisualizerBase</text>
</a>
</g>
</g>
<!-- VisualizerBase&#45;&gt;PacketDropVisualizerBase -->
<g id="edge12" class="edge">
<title>VisualizerBase&#45;&gt;PacketDropVisualizerBase</title>
<path fill="none" stroke="black" d="M1764.5,-54.98C1780.08,-45.15 1805.57,-29.07 1821.26,-19.17"/>
</g>
<!-- PathVisualizerBase -->
<g id="node14" class="node">
<title>PathVisualizerBase</title>
<g id="a_node14"><a xlink:href="inet.visualizer.base.PathVisualizerBase.html" xlink:title="Simple Module PathVisualizerBase" target="_parent">
<polygon fill="#fffcaf" stroke="black" points="2035,-19 1925,-19 1925,0 2035,0 2035,-19"/>
<text text-anchor="middle" x="1980" y="-7" font-family="Helvetica,sans-Serif" font-size="10.00">PathVisualizerBase</text>
</a>
</g>
</g>
<!-- VisualizerBase&#45;&gt;PathVisualizerBase -->
<g id="edge13" class="edge">
<title>VisualizerBase&#45;&gt;PathVisualizerBase</title>
<path fill="none" stroke="black" d="M1787.79,-54.98C1830.4,-45.12 1900.19,-28.97 1942.92,-19.08"/>
</g>
<!-- PhysicalEnvironmentVisualizerBase -->
<g id="node15" class="node">
<title>PhysicalEnvironmentVisualizerBase</title>
<g id="a_node15"><a xlink:href="inet.visualizer.base.PhysicalEnvironmentVisualizerBase.html" xlink:title="Simple Module PhysicalEnvironmentVisualizerBase" target="_parent">
<polygon fill="#fffcaf" stroke="black" points="2244.5,-19 2053.5,-19 2053.5,0 2244.5,0 2244.5,-19"/>
<text text-anchor="middle" x="2149" y="-7" font-family="Helvetica,sans-Serif" font-size="10.00">PhysicalEnvironmentVisualizerBase</text>
</a>
</g>
</g>
<!-- VisualizerBase&#45;&gt;PhysicalEnvironmentVisualizerBase -->
<g id="edge14" class="edge">
<title>VisualizerBase&#45;&gt;PhysicalEnvironmentVisualizerBase</title>
<path fill="none" stroke="black" d="M1795.88,-57.52C1866.53,-48.12 2003.94,-29.82 2084.95,-19.03"/>
</g>
<!-- QueueVisualizerBase -->
<g id="node16" class="node">
<title>QueueVisualizerBase</title>
<g id="a_node16"><a xlink:href="inet.visualizer.base.QueueVisualizerBase.html" xlink:title="Simple Module QueueVisualizerBase" target="_parent">
<polygon fill="#fffcaf" stroke="black" points="2383,-19 2263,-19 2263,0 2383,0 2383,-19"/>
<text text-anchor="middle" x="2323" y="-7" font-family="Helvetica,sans-Serif" font-size="10.00">QueueVisualizerBase</text>
</a>
</g>
</g>
<!-- VisualizerBase&#45;&gt;QueueVisualizerBase -->
<g id="edge15" class="edge">
<title>VisualizerBase&#45;&gt;QueueVisualizerBase</title>
<path fill="none" stroke="black" d="M1795.8,-60.06C1883.73,-53.18 2085.09,-36.87 2254,-19 2256.88,-18.7 2259.83,-18.37 2262.8,-18.04"/>
</g>
<!-- RadioVisualizerBase -->
<g id="node17" class="node">
<title>RadioVisualizerBase</title>
<g id="a_node17"><a xlink:href="inet.visualizer.base.RadioVisualizerBase.html" xlink:title="Simple Module RadioVisualizerBase" target="_parent">
<polygon fill="#fffcaf" stroke="black" points="2517,-19 2401,-19 2401,0 2517,0 2517,-19"/>
<text text-anchor="middle" x="2459" y="-7" font-family="Helvetica,sans-Serif" font-size="10.00">RadioVisualizerBase</text>
</a>
</g>
</g>
<!-- VisualizerBase&#45;&gt;RadioVisualizerBase -->
<g id="edge16" class="edge">
<title>VisualizerBase&#45;&gt;RadioVisualizerBase</title>
<path fill="none" stroke="black" d="M1795.76,-61.27C1900.29,-55.87 2168.57,-40.91 2392,-19 2394.92,-18.71 2397.9,-18.4 2400.92,-18.07"/>
</g>
<!-- RoutingTableVisualizerBase -->
<g id="node18" class="node">
<title>RoutingTableVisualizerBase</title>
<g id="a_node18"><a xlink:href="inet.visualizer.base.RoutingTableVisualizerBase.html" xlink:title="Simple Module RoutingTableVisualizerBase" target="_parent">
<polygon fill="#fffcaf" stroke="black" points="2687,-19 2535,-19 2535,0 2687,0 2687,-19"/>
<text text-anchor="middle" x="2611" y="-7" font-family="Helvetica,sans-Serif" font-size="10.00">RoutingTableVisualizerBase</text>
</a>
</g>
</g>
<!-- VisualizerBase&#45;&gt;RoutingTableVisualizerBase -->
<g id="edge17" class="edge">
<title>VisualizerBase&#45;&gt;RoutingTableVisualizerBase</title>
<path fill="none" stroke="black" d="M1795.6,-61.6C1914.44,-56.4 2248.56,-40.83 2526,-19 2528.81,-18.78 2531.67,-18.54 2534.56,-18.3"/>
</g>
<!-- SceneVisualizerBase -->
<g id="node19" class="node">
<title>SceneVisualizerBase</title>
<g id="a_node19"><a xlink:href="inet.visualizer.base.SceneVisualizerBase.html" xlink:title="Simple Module SceneVisualizerBase" target="_parent">
<polygon fill="#fffcaf" stroke="black" points="2823,-19 2705,-19 2705,0 2823,0 2823,-19"/>
<text text-anchor="middle" x="2764" y="-7" font-family="Helvetica,sans-Serif" font-size="10.00">SceneVisualizerBase</text>
</a>
</g>
</g>
<!-- VisualizerBase&#45;&gt;SceneVisualizerBase -->
<g id="edge18" class="edge">
<title>VisualizerBase&#45;&gt;SceneVisualizerBase</title>
<path fill="none" stroke="black" d="M1795.84,-62.62C1931.65,-59.69 2350.31,-48.7 2696,-19 2698.84,-18.76 2701.75,-18.48 2704.69,-18.19"/>
</g>
<!-- StatisticVisualizerBase -->
<g id="node20" class="node">
<title>StatisticVisualizerBase</title>
<g id="a_node20"><a xlink:href="inet.visualizer.base.StatisticVisualizerBase.html" xlink:title="Simple Module StatisticVisualizerBase" target="_parent">
<polygon fill="#fffcaf" stroke="black" points="2969,-19 2841,-19 2841,0 2969,0 2969,-19"/>
<text text-anchor="middle" x="2905" y="-7" font-family="Helvetica,sans-Serif" font-size="10.00">StatisticVisualizerBase</text>
</a>
</g>
</g>
<!-- VisualizerBase&#45;&gt;StatisticVisualizerBase -->
<g id="edge19" class="edge">
<title>VisualizerBase&#45;&gt;StatisticVisualizerBase</title>
<path fill="none" stroke="black" d="M1795.61,-62.86C1943.42,-60.48 2430.57,-50.59 2832,-19 2834.93,-18.77 2837.91,-18.51 2840.93,-18.23"/>
</g>
<!-- TracingObstacleLossVisualizerBase -->
<g id="node21" class="node">
<title>TracingObstacleLossVisualizerBase</title>
<g id="a_node21"><a xlink:href="inet.visualizer.base.TracingObstacleLossVisualizerBase.html" xlink:title="Simple Module TracingObstacleLossVisualizerBase" target="_parent">
<polygon fill="#fffcaf" stroke="black" points="3175,-19 2987,-19 2987,0 3175,0 3175,-19"/>
<text text-anchor="middle" x="3081" y="-7" font-family="Helvetica,sans-Serif" font-size="10.00">TracingObstacleLossVisualizerBase</text>
</a>
</g>
</g>
<!-- VisualizerBase&#45;&gt;TracingObstacleLossVisualizerBase -->
<g id="edge20" class="edge">
<title>VisualizerBase&#45;&gt;TracingObstacleLossVisualizerBase</title>
<path fill="none" stroke="black" d="M1795.6,-62.62C1955.69,-59.33 2516.25,-46.41 2978,-19 2980.96,-18.82 2983.96,-18.64 2986.99,-18.44"/>
</g>
<!-- TransportConnectionVisualizerBase -->
<g id="node22" class="node">
<title>TransportConnectionVisualizerBase</title>
<g id="a_node22"><a xlink:href="inet.visualizer.base.TransportConnectionVisualizerBase.html" xlink:title="Simple Module TransportConnectionVisualizerBase" target="_parent">
<polygon fill="#fffcaf" stroke="black" points="3381,-19 3193,-19 3193,0 3381,0 3381,-19"/>
<text text-anchor="middle" x="3287" y="-7" font-family="Helvetica,sans-Serif" font-size="10.00">TransportConnectionVisualizerBase</text>
</a>
</g>
</g>
<!-- VisualizerBase&#45;&gt;TransportConnectionVisualizerBase -->
<g id="edge21" class="edge">
<title>VisualizerBase&#45;&gt;TransportConnectionVisualizerBase</title>
<path fill="none" stroke="black" d="M1795.61,-62.95C1971.93,-60.59 2637.29,-50.03 3184,-19 3186.96,-18.83 3189.96,-18.65 3192.99,-18.46"/>
</g>
<!-- TreeVisualizerBase -->
<g id="node23" class="node">
<title>TreeVisualizerBase</title>
<g id="a_node23"><a xlink:href="inet.visualizer.base.TreeVisualizerBase.html" xlink:title="Simple Module TreeVisualizerBase" target="_parent">
<polygon fill="#fffcaf" stroke="black" points="3508.5,-19 3399.5,-19 3399.5,0 3508.5,0 3508.5,-19"/>
<text text-anchor="middle" x="3454" y="-7" font-family="Helvetica,sans-Serif" font-size="10.00">TreeVisualizerBase</text>
</a>
</g>
</g>
<!-- VisualizerBase&#45;&gt;TreeVisualizerBase -->
<g id="edge22" class="edge">
<title>VisualizerBase&#45;&gt;TreeVisualizerBase</title>
<path fill="none" stroke="black" d="M1795.79,-62.92C2024.9,-59.86 3067.41,-44.73 3390,-19 3393.02,-18.76 3396.11,-18.47 3399.23,-18.16"/>
</g>
</g>
</svg>
