<?xml version="1.0" encoding="UTF-8" standalone="no"?>
<!DOCTYPE svg PUBLIC "-//W3C//DTD SVG 1.1//EN"
 "http://www.w3.org/Graphics/SVG/1.1/DTD/svg11.dtd">
<!-- Generated by graphviz version 2.43.0 (0)
 -->
<!-- Title: opp Pages: 1 -->
<svg width="573pt" height="82pt"
 viewBox="0.00 0.00 573.00 82.00" xmlns="http://www.w3.org/2000/svg" xmlns:xlink="http://www.w3.org/1999/xlink">
<g id="graph0" class="graph" transform="scale(1 1) rotate(0) translate(4 78)">
<title>opp</title>
<polygon fill="transparent" stroke="transparent" points="-4,4 -4,-78 569,-78 569,4 -4,4"/>
<!-- ClientServerWithSM -->
<g id="node1" class="node">
<title>ClientServerWithSM</title>
<g id="a_node1"><a xlink:href="inet.examples.inet.tcp_eth_reconnect.ClientServerWithSM.html" xlink:title="Network ClientServerWithSM" target="_parent">
<polygon fill="#9090ff" stroke="black" points="304.5,-74 190.5,-74 190.5,-55 304.5,-55 304.5,-74"/>
<text text-anchor="middle" x="247.5" y="-62" font-family="Helvetica,sans-Serif" font-size="10.00">ClientServerWithSM</text>
</a>
</g>
</g>
<!-- IntegratedVisualizer -->
<g id="node2" class="node">
<title>IntegratedVisualizer</title>
<g id="a_node2"><a xlink:href="inet.visualizer.common.IntegratedVisualizer.html" xlink:title="Compound Module IntegratedVisualizer" target="_parent">
<polygon fill="#fffcaf" stroke="black" points="115,-19 0,-19 0,0 115,0 115,-19"/>
<text text-anchor="middle" x="57.5" y="-7" font-family="Helvetica,sans-Serif" font-size="10.00">IntegratedVisualizer</text>
</a>
</g>
</g>
<!-- ClientServerWithSM&#45;&gt;IntegratedVisualizer -->
<g id="edge1" class="edge">
<title>ClientServerWithSM&#45;&gt;IntegratedVisualizer</title>
<path fill="none" stroke="black" d="M216.97,-54.98C184.8,-46.01 133.94,-31.82 98.33,-21.89"/>
<polygon fill="black" stroke="black" points="98.84,-18.4 88.27,-19.08 96.96,-25.14 98.84,-18.4"/>
</g>
<!-- C -->
<g id="node3" class="node">
<title>C</title>
<g id="a_node3"><a xlink:href="inet.examples.inet.tcp_eth_reconnect.ClientServerWithSM.C.html" xlink:title="Channel C" target="_parent">
<polygon fill="#d0ffd0" stroke="black" points="187.5,-19 133.5,-19 133.5,0 187.5,0 187.5,-19"/>
<text text-anchor="middle" x="160.5" y="-7" font-family="Helvetica,sans-Serif" font-size="10.00">C</text>
</a>
</g>
</g>
<!-- ClientServerWithSM&#45;&gt;C -->
<g id="edge2" class="edge">
<title>ClientServerWithSM&#45;&gt;C</title>
<path fill="none" stroke="black" d="M233.52,-54.98C220.03,-46.77 199.37,-34.18 183.46,-24.49"/>
<polygon fill="black" stroke="black" points="185.09,-21.38 174.73,-19.17 181.45,-27.36 185.09,-21.38"/>
</g>
<!-- StandardHost -->
<g id="node4" class="node">
<title>StandardHost</title>
<g id="a_node4"><a xlink:href="inet.node.inet.StandardHost.html" xlink:title="Compound Module StandardHost" target="_parent">
<polygon fill="#fffcaf" stroke="black" points="289,-19 206,-19 206,0 289,0 289,-19"/>
<text text-anchor="middle" x="247.5" y="-7" font-family="Helvetica,sans-Serif" font-size="10.00">StandardHost</text>
</a>
</g>
</g>
<!-- ClientServerWithSM&#45;&gt;StandardHost -->
<g id="edge3" class="edge">
<title>ClientServerWithSM&#45;&gt;StandardHost</title>
<path fill="none" stroke="black" d="M247.5,-54.75C247.5,-47.8 247.5,-37.85 247.5,-29.13"/>
<polygon fill="black" stroke="black" points="251,-29.09 247.5,-19.09 244,-29.09 251,-29.09"/>
</g>
<!-- Ipv4NetworkConfigurator -->
<g id="node5" class="node">
<title>Ipv4NetworkConfigurator</title>
<g id="a_node5"><a xlink:href="inet.networklayer.configurator.ipv4.Ipv4NetworkConfigurator.html" xlink:title="Simple Module Ipv4NetworkConfigurator" target="_parent">
<polygon fill="#fffcaf" stroke="black" points="446,-19 307,-19 307,0 446,0 446,-19"/>
<text text-anchor="middle" x="376.5" y="-7" font-family="Helvetica,sans-Serif" font-size="10.00">Ipv4NetworkConfigurator</text>
</a>
</g>
</g>
<!-- ClientServerWithSM&#45;&gt;Ipv4NetworkConfigurator -->
<g id="edge4" class="edge">
<title>ClientServerWithSM&#45;&gt;Ipv4NetworkConfigurator</title>
<path fill="none" stroke="black" d="M268.23,-54.98C289.26,-46.34 322.05,-32.87 346.04,-23.02"/>
<polygon fill="black" stroke="black" points="347.48,-26.21 355.4,-19.17 344.82,-19.73 347.48,-26.21"/>
</g>
<!-- ScenarioManager -->
<g id="node6" class="node">
<title>ScenarioManager</title>
<g id="a_node6"><a xlink:href="inet.common.scenario.ScenarioManager.html" xlink:title="Simple Module ScenarioManager" target="_parent">
<polygon fill="#fffcaf" stroke="black" points="565,-19 464,-19 464,0 565,0 565,-19"/>
<text text-anchor="middle" x="514.5" y="-7" font-family="Helvetica,sans-Serif" font-size="10.00">ScenarioManager</text>
</a>
</g>
</g>
<!-- ClientServerWithSM&#45;&gt;ScenarioManager -->
<g id="edge5" class="edge">
<title>ClientServerWithSM&#45;&gt;ScenarioManager</title>
<path fill="none" stroke="black" d="M290.4,-54.98C336.87,-45.76 411.09,-31.03 461.26,-21.07"/>
<polygon fill="black" stroke="black" points="462.14,-24.46 471.27,-19.08 460.78,-17.6 462.14,-24.46"/>
</g>
</g>
</svg>
