<?xml version="1.0" encoding="UTF-8" standalone="no"?>
<!DOCTYPE svg PUBLIC "-//W3C//DTD SVG 1.1//EN"
 "http://www.w3.org/Graphics/SVG/1.1/DTD/svg11.dtd">
<!-- Generated by graphviz version 2.43.0 (0)
 -->
<!-- Title: opp Pages: 1 -->
<svg width="748pt" height="82pt"
 viewBox="0.00 0.00 747.50 82.00" xmlns="http://www.w3.org/2000/svg" xmlns:xlink="http://www.w3.org/1999/xlink">
<g id="graph0" class="graph" transform="scale(1 1) rotate(0) translate(4 78)">
<title>opp</title>
<polygon fill="transparent" stroke="transparent" points="-4,4 -4,-78 743.5,-78 743.5,4 -4,4"/>
<!-- IIeee80211Mgmt -->
<g id="node1" class="node">
<title>IIeee80211Mgmt</title>
<g id="a_node1"><a xlink:href="inet.linklayer.ieee80211.mgmt.IIeee80211Mgmt.html" xlink:title="Module Interface IIeee80211Mgmt" target="_parent">
<polygon fill="#fff700" stroke="black" stroke-dasharray="5,2" points="400.5,-74 301.5,-74 301.5,-55 400.5,-55 400.5,-74"/>
<text text-anchor="middle" x="351" y="-62" font-family="Helvetica,sans-Serif" font-size="10.00">IIeee80211Mgmt</text>
</a>
</g>
</g>
<!-- Ieee80211MgmtAdhoc -->
<g id="node2" class="node">
<title>Ieee80211MgmtAdhoc</title>
<g id="a_node2"><a xlink:href="inet.linklayer.ieee80211.mgmt.Ieee80211MgmtAdhoc.html" xlink:title="Simple Module Ieee80211MgmtAdhoc" target="_parent">
<polygon fill="#fffcaf" stroke="black" points="126,-19 0,-19 0,0 126,0 126,-19"/>
<text text-anchor="middle" x="63" y="-7" font-family="Helvetica,sans-Serif" font-size="10.00">Ieee80211MgmtAdhoc</text>
</a>
</g>
</g>
<!-- IIeee80211Mgmt&#45;&gt;Ieee80211MgmtAdhoc -->
<g id="edge1" class="edge">
<title>IIeee80211Mgmt&#45;&gt;Ieee80211MgmtAdhoc</title>
<path fill="none" stroke="black" stroke-dasharray="5,2" d="M304.73,-54.98C251.14,-45.12 163.37,-28.97 109.63,-19.08"/>
</g>
<!-- Ieee80211MgmtAp -->
<g id="node3" class="node">
<title>Ieee80211MgmtAp</title>
<g id="a_node3"><a xlink:href="inet.linklayer.ieee80211.mgmt.Ieee80211MgmtAp.html" xlink:title="Simple Module Ieee80211MgmtAp" target="_parent">
<polygon fill="#fffcaf" stroke="black" points="253.5,-19 144.5,-19 144.5,0 253.5,0 253.5,-19"/>
<text text-anchor="middle" x="199" y="-7" font-family="Helvetica,sans-Serif" font-size="10.00">Ieee80211MgmtAp</text>
</a>
</g>
</g>
<!-- IIeee80211Mgmt&#45;&gt;Ieee80211MgmtAp -->
<g id="edge2" class="edge">
<title>IIeee80211Mgmt&#45;&gt;Ieee80211MgmtAp</title>
<path fill="none" stroke="black" stroke-dasharray="5,2" d="M326.58,-54.98C298.3,-45.12 251.97,-28.97 223.61,-19.08"/>
</g>
<!-- Ieee80211MgmtApSimplified -->
<g id="node4" class="node">
<title>Ieee80211MgmtApSimplified</title>
<g id="a_node4"><a xlink:href="inet.linklayer.ieee80211.mgmt.Ieee80211MgmtApSimplified.html" xlink:title="Simple Module Ieee80211MgmtApSimplified" target="_parent">
<polygon fill="#fffcaf" stroke="black" points="430,-19 272,-19 272,0 430,0 430,-19"/>
<text text-anchor="middle" x="351" y="-7" font-family="Helvetica,sans-Serif" font-size="10.00">Ieee80211MgmtApSimplified</text>
</a>
</g>
</g>
<!-- IIeee80211Mgmt&#45;&gt;Ieee80211MgmtApSimplified -->
<g id="edge3" class="edge">
<title>IIeee80211Mgmt&#45;&gt;Ieee80211MgmtApSimplified</title>
<path fill="none" stroke="black" stroke-dasharray="5,2" d="M351,-54.75C351,-44.87 351,-28.9 351,-19.09"/>
</g>
<!-- Ieee80211MgmtSta -->
<g id="node5" class="node">
<title>Ieee80211MgmtSta</title>
<g id="a_node5"><a xlink:href="inet.linklayer.ieee80211.mgmt.Ieee80211MgmtSta.html" xlink:title="Simple Module Ieee80211MgmtSta" target="_parent">
<polygon fill="#fffcaf" stroke="black" points="560,-19 448,-19 448,0 560,0 560,-19"/>
<text text-anchor="middle" x="504" y="-7" font-family="Helvetica,sans-Serif" font-size="10.00">Ieee80211MgmtSta</text>
</a>
</g>
</g>
<!-- IIeee80211Mgmt&#45;&gt;Ieee80211MgmtSta -->
<g id="edge4" class="edge">
<title>IIeee80211Mgmt&#45;&gt;Ieee80211MgmtSta</title>
<path fill="none" stroke="black" stroke-dasharray="5,2" d="M375.58,-54.98C404.05,-45.12 450.68,-28.97 479.23,-19.08"/>
</g>
<!-- Ieee80211MgmtStaSimplified -->
<g id="node6" class="node">
<title>Ieee80211MgmtStaSimplified</title>
<g id="a_node6"><a xlink:href="inet.linklayer.ieee80211.mgmt.Ieee80211MgmtStaSimplified.html" xlink:title="Simple Module Ieee80211MgmtStaSimplified" target="_parent">
<polygon fill="#fffcaf" stroke="black" points="739.5,-19 578.5,-19 578.5,0 739.5,0 739.5,-19"/>
<text text-anchor="middle" x="659" y="-7" font-family="Helvetica,sans-Serif" font-size="10.00">Ieee80211MgmtStaSimplified</text>
</a>
</g>
</g>
<!-- IIeee80211Mgmt&#45;&gt;Ieee80211MgmtStaSimplified -->
<g id="edge5" class="edge">
<title>IIeee80211Mgmt&#45;&gt;Ieee80211MgmtStaSimplified</title>
<path fill="none" stroke="black" stroke-dasharray="5,2" d="M400.49,-54.98C457.88,-45.11 551.93,-28.92 609.38,-19.04"/>
</g>
</g>
</svg>
