<?xml version="1.0" encoding="UTF-8" standalone="no"?>
<!DOCTYPE svg PUBLIC "-//W3C//DTD SVG 1.1//EN"
 "http://www.w3.org/Graphics/SVG/1.1/DTD/svg11.dtd">
<!-- Generated by graphviz version 2.43.0 (0)
 -->
<!-- Title: opp Pages: 1 -->
<svg width="445pt" height="82pt"
 viewBox="0.00 0.00 445.00 82.00" xmlns="http://www.w3.org/2000/svg" xmlns:xlink="http://www.w3.org/1999/xlink">
<g id="graph0" class="graph" transform="scale(1 1) rotate(0) translate(4 78)">
<title>opp</title>
<polygon fill="transparent" stroke="transparent" points="-4,4 -4,-78 441,-78 441,4 -4,4"/>
<!-- INeighborCache -->
<g id="node1" class="node">
<title>INeighborCache</title>
<g id="a_node1"><a xlink:href="inet.physicallayer.wireless.common.contract.packetlevel.INeighborCache.html" xlink:title="Module Interface INeighborCache" target="_parent">
<polygon fill="#fff700" stroke="black" stroke-dasharray="5,2" points="252.5,-74 158.5,-74 158.5,-55 252.5,-55 252.5,-74"/>
<text text-anchor="middle" x="205.5" y="-62" font-family="Helvetica,sans-Serif" font-size="10.00">INeighborCache</text>
</a>
</g>
</g>
<!-- GridNeighborCache -->
<g id="node2" class="node">
<title>GridNeighborCache</title>
<g id="a_node2"><a xlink:href="inet.physicallayer.wireless.common.neighborcache.GridNeighborCache.html" xlink:title="Compound Module GridNeighborCache" target="_parent">
<polygon fill="#fffcaf" stroke="black" points="111,-19 0,-19 0,0 111,0 111,-19"/>
<text text-anchor="middle" x="55.5" y="-7" font-family="Helvetica,sans-Serif" font-size="10.00">GridNeighborCache</text>
</a>
</g>
</g>
<!-- INeighborCache&#45;&gt;GridNeighborCache -->
<g id="edge1" class="edge">
<title>INeighborCache&#45;&gt;GridNeighborCache</title>
<path fill="none" stroke="black" stroke-dasharray="5,2" d="M181.4,-54.98C153.57,-45.15 108.05,-29.07 80.04,-19.17"/>
</g>
<!-- NeighborListNeighborCache -->
<g id="node3" class="node">
<title>NeighborListNeighborCache</title>
<g id="a_node3"><a xlink:href="inet.physicallayer.wireless.common.neighborcache.NeighborListNeighborCache.html" xlink:title="Compound Module NeighborListNeighborCache" target="_parent">
<polygon fill="#fffcaf" stroke="black" points="281.5,-19 129.5,-19 129.5,0 281.5,0 281.5,-19"/>
<text text-anchor="middle" x="205.5" y="-7" font-family="Helvetica,sans-Serif" font-size="10.00">NeighborListNeighborCache</text>
</a>
</g>
</g>
<!-- INeighborCache&#45;&gt;NeighborListNeighborCache -->
<g id="edge2" class="edge">
<title>INeighborCache&#45;&gt;NeighborListNeighborCache</title>
<path fill="none" stroke="black" stroke-dasharray="5,2" d="M205.5,-54.75C205.5,-44.87 205.5,-28.9 205.5,-19.09"/>
</g>
<!-- QuadTreeNeighborCache -->
<g id="node4" class="node">
<title>QuadTreeNeighborCache</title>
<g id="a_node4"><a xlink:href="inet.physicallayer.wireless.common.neighborcache.QuadTreeNeighborCache.html" xlink:title="Compound Module QuadTreeNeighborCache" target="_parent">
<polygon fill="#fffcaf" stroke="black" points="437,-19 300,-19 300,0 437,0 437,-19"/>
<text text-anchor="middle" x="368.5" y="-7" font-family="Helvetica,sans-Serif" font-size="10.00">QuadTreeNeighborCache</text>
</a>
</g>
</g>
<!-- INeighborCache&#45;&gt;QuadTreeNeighborCache -->
<g id="edge3" class="edge">
<title>INeighborCache&#45;&gt;QuadTreeNeighborCache</title>
<path fill="none" stroke="black" stroke-dasharray="5,2" d="M231.69,-54.98C262.02,-45.12 311.69,-28.97 342.11,-19.08"/>
</g>
</g>
</svg>
