<?xml version="1.0" encoding="UTF-8" standalone="no"?>
<!DOCTYPE svg PUBLIC "-//W3C//DTD SVG 1.1//EN"
 "http://www.w3.org/Graphics/SVG/1.1/DTD/svg11.dtd">
<!-- Generated by graphviz version 2.43.0 (0)
 -->
<!-- Title: opp Pages: 1 -->
<svg width="440pt" height="137pt"
 viewBox="0.00 0.00 439.50 137.00" xmlns="http://www.w3.org/2000/svg" xmlns:xlink="http://www.w3.org/1999/xlink">
<g id="graph0" class="graph" transform="scale(1 1) rotate(0) translate(4 133)">
<title>opp</title>
<polygon fill="transparent" stroke="transparent" points="-4,4 -4,-133 435.5,-133 435.5,4 -4,4"/>
<!-- Ieee802154NarrowbandRadio -->
<g id="node1" class="node">
<title>Ieee802154NarrowbandRadio</title>
<g id="a_node1"><a xlink:href="inet.physicallayer.wireless.ieee802154.packetlevel.Ieee802154NarrowbandRadio.html" xlink:title="Compound Module Ieee802154NarrowbandRadio" target="_parent">
<polygon fill="#fff700" stroke="black" points="303.5,-74 142.5,-74 142.5,-55 303.5,-55 303.5,-74"/>
<text text-anchor="middle" x="223" y="-62" font-family="Helvetica,sans-Serif" font-size="10.00">Ieee802154NarrowbandRadio</text>
</a>
</g>
</g>
<!-- Ieee802154NarrowbandDimensionalRadio -->
<g id="node3" class="node">
<title>Ieee802154NarrowbandDimensionalRadio</title>
<g id="a_node3"><a xlink:href="inet.physicallayer.wireless.ieee802154.packetlevel.Ieee802154NarrowbandDimensionalRadio.html" xlink:title="Compound Module Ieee802154NarrowbandDimensionalRadio" target="_parent">
<polygon fill="#fffcaf" stroke="black" points="222,-19 0,-19 0,0 222,0 222,-19"/>
<text text-anchor="middle" x="111" y="-7" font-family="Helvetica,sans-Serif" font-size="10.00">Ieee802154NarrowbandDimensionalRadio</text>
</a>
</g>
</g>
<!-- Ieee802154NarrowbandRadio&#45;&gt;Ieee802154NarrowbandDimensionalRadio -->
<g id="edge2" class="edge">
<title>Ieee802154NarrowbandRadio&#45;&gt;Ieee802154NarrowbandDimensionalRadio</title>
<path fill="none" stroke="black" d="M205.01,-54.98C184.23,-45.15 150.24,-29.07 129.32,-19.17"/>
</g>
<!-- Ieee802154NarrowbandScalarRadio -->
<g id="node4" class="node">
<title>Ieee802154NarrowbandScalarRadio</title>
<g id="a_node4"><a xlink:href="inet.physicallayer.wireless.ieee802154.packetlevel.Ieee802154NarrowbandScalarRadio.html" xlink:title="Compound Module Ieee802154NarrowbandScalarRadio" target="_parent">
<polygon fill="#fffcaf" stroke="black" points="431.5,-19 240.5,-19 240.5,0 431.5,0 431.5,-19"/>
<text text-anchor="middle" x="336" y="-7" font-family="Helvetica,sans-Serif" font-size="10.00">Ieee802154NarrowbandScalarRadio</text>
</a>
</g>
</g>
<!-- Ieee802154NarrowbandRadio&#45;&gt;Ieee802154NarrowbandScalarRadio -->
<g id="edge3" class="edge">
<title>Ieee802154NarrowbandRadio&#45;&gt;Ieee802154NarrowbandScalarRadio</title>
<path fill="none" stroke="black" d="M241.16,-54.98C262.12,-45.15 296.41,-29.07 317.51,-19.17"/>
</g>
<!-- FlatRadioBase -->
<g id="node2" class="node">
<title>FlatRadioBase</title>
<g id="a_node2"><a xlink:href="inet.physicallayer.wireless.common.base.packetlevel.FlatRadioBase.html" xlink:title="Compound Module FlatRadioBase" target="_parent">
<polygon fill="#fffcaf" stroke="black" points="266.5,-129 179.5,-129 179.5,-110 266.5,-110 266.5,-129"/>
<text text-anchor="middle" x="223" y="-117" font-family="Helvetica,sans-Serif" font-size="10.00">FlatRadioBase</text>
</a>
</g>
</g>
<!-- FlatRadioBase&#45;&gt;Ieee802154NarrowbandRadio -->
<g id="edge1" class="edge">
<title>FlatRadioBase&#45;&gt;Ieee802154NarrowbandRadio</title>
<path fill="none" stroke="black" d="M223,-109.75C223,-99.87 223,-83.9 223,-74.09"/>
</g>
</g>
</svg>
