<?xml version="1.0" encoding="UTF-8" standalone="no"?>
<!DOCTYPE svg PUBLIC "-//W3C//DTD SVG 1.1//EN"
 "http://www.w3.org/Graphics/SVG/1.1/DTD/svg11.dtd">
<!-- Generated by graphviz version 2.43.0 (0)
 -->
<!-- Title: opp Pages: 1 -->
<svg width="420pt" height="82pt"
 viewBox="0.00 0.00 419.50 82.00" xmlns="http://www.w3.org/2000/svg" xmlns:xlink="http://www.w3.org/1999/xlink">
<g id="graph0" class="graph" transform="scale(1 1) rotate(0) translate(4 78)">
<title>opp</title>
<polygon fill="transparent" stroke="transparent" points="-4,4 -4,-78 415.5,-78 415.5,4 -4,4"/>
<!-- NClientsPPP -->
<g id="node1" class="node">
<title>NClientsPPP</title>
<g id="a_node1"><a xlink:href="inet.examples.ipv6.ipv6nclients.NClientsPPP.html" xlink:title="Network NClientsPPP" target="_parent">
<polygon fill="#9090ff" stroke="black" points="202,-74 126,-74 126,-55 202,-55 202,-74"/>
<text text-anchor="middle" x="164" y="-62" font-family="Helvetica,sans-Serif" font-size="10.00">NClientsPPP</text>
</a>
</g>
</g>
<!-- fiberline -->
<g id="node2" class="node">
<title>fiberline</title>
<g id="a_node2"><a xlink:href="inet.examples.ipv6.ipv6nclients.NClientsPPP.fiberline.html" xlink:title="Channel fiberline" target="_parent">
<polygon fill="#d0ffd0" stroke="black" points="56,-19 0,-19 0,0 56,0 56,-19"/>
<text text-anchor="middle" x="28" y="-7" font-family="Helvetica,sans-Serif" font-size="10.00">fiberline</text>
</a>
</g>
</g>
<!-- NClientsPPP&#45;&gt;fiberline -->
<g id="edge1" class="edge">
<title>NClientsPPP&#45;&gt;fiberline</title>
<path fill="none" stroke="black" d="M142.15,-54.98C119.88,-46.3 85.1,-32.75 59.78,-22.88"/>
<polygon fill="black" stroke="black" points="60.84,-19.54 50.25,-19.17 58.29,-26.06 60.84,-19.54"/>
</g>
<!-- Router6 -->
<g id="node3" class="node">
<title>Router6</title>
<g id="a_node3"><a xlink:href="inet.node.ipv6.Router6.html" xlink:title="Compound Module Router6" target="_parent">
<polygon fill="#fffcaf" stroke="black" points="129.5,-19 74.5,-19 74.5,0 129.5,0 129.5,-19"/>
<text text-anchor="middle" x="102" y="-7" font-family="Helvetica,sans-Serif" font-size="10.00">Router6</text>
</a>
</g>
</g>
<!-- NClientsPPP&#45;&gt;Router6 -->
<g id="edge2" class="edge">
<title>NClientsPPP&#45;&gt;Router6</title>
<path fill="none" stroke="black" d="M154.04,-54.98C144.87,-47.15 131.06,-35.34 119.97,-25.86"/>
<polygon fill="black" stroke="black" points="122.02,-23.01 112.14,-19.17 117.47,-28.33 122.02,-23.01"/>
</g>
<!-- Ipv6FlatNetworkConfigurator -->
<g id="node4" class="node">
<title>Ipv6FlatNetworkConfigurator</title>
<g id="a_node4"><a xlink:href="inet.networklayer.configurator.ipv6.Ipv6FlatNetworkConfigurator.html" xlink:title="Simple Module Ipv6FlatNetworkConfigurator" target="_parent">
<polygon fill="#fffcaf" stroke="black" points="305,-19 147,-19 147,0 305,0 305,-19"/>
<text text-anchor="middle" x="226" y="-7" font-family="Helvetica,sans-Serif" font-size="10.00">Ipv6FlatNetworkConfigurator</text>
</a>
</g>
</g>
<!-- NClientsPPP&#45;&gt;Ipv6FlatNetworkConfigurator -->
<g id="edge3" class="edge">
<title>NClientsPPP&#45;&gt;Ipv6FlatNetworkConfigurator</title>
<path fill="none" stroke="black" d="M173.96,-54.98C183.13,-47.15 196.94,-35.34 208.03,-25.86"/>
<polygon fill="black" stroke="black" points="210.53,-28.33 215.86,-19.17 205.98,-23.01 210.53,-28.33"/>
</g>
<!-- StandardHost6 -->
<g id="node5" class="node">
<title>StandardHost6</title>
<g id="a_node5"><a xlink:href="inet.node.ipv6.StandardHost6.html" xlink:title="Compound Module StandardHost6" target="_parent">
<polygon fill="#fffcaf" stroke="black" points="411.5,-19 322.5,-19 322.5,0 411.5,0 411.5,-19"/>
<text text-anchor="middle" x="367" y="-7" font-family="Helvetica,sans-Serif" font-size="10.00">StandardHost6</text>
</a>
</g>
</g>
<!-- NClientsPPP&#45;&gt;StandardHost6 -->
<g id="edge4" class="edge">
<title>NClientsPPP&#45;&gt;StandardHost6</title>
<path fill="none" stroke="black" d="M196.62,-54.98C231.29,-45.93 286.26,-31.58 324.35,-21.64"/>
<polygon fill="black" stroke="black" points="325.34,-24.99 334.13,-19.08 323.57,-18.22 325.34,-24.99"/>
</g>
</g>
</svg>
