<?xml version="1.0" encoding="UTF-8" standalone="no"?>
<!DOCTYPE svg PUBLIC "-//W3C//DTD SVG 1.1//EN"
 "http://www.w3.org/Graphics/SVG/1.1/DTD/svg11.dtd">
<!-- Generated by graphviz version 2.43.0 (0)
 -->
<!-- Title: opp Pages: 1 -->
<svg width="470pt" height="82pt"
 viewBox="0.00 0.00 470.00 82.00" xmlns="http://www.w3.org/2000/svg" xmlns:xlink="http://www.w3.org/1999/xlink">
<g id="graph0" class="graph" transform="scale(1 1) rotate(0) translate(4 78)">
<title>opp</title>
<polygon fill="transparent" stroke="transparent" points="-4,4 -4,-78 466,-78 466,4 -4,4"/>
<!-- Filter2TutorialStep -->
<g id="node1" class="node">
<title>Filter2TutorialStep</title>
<g id="a_node1"><a xlink:href="inet.tutorials.queueing.Filter2TutorialStep.html" xlink:title="Network Filter2TutorialStep" target="_parent">
<polygon fill="#9090ff" stroke="black" points="299.5,-74 194.5,-74 194.5,-55 299.5,-55 299.5,-74"/>
<text text-anchor="middle" x="247" y="-62" font-family="Helvetica,sans-Serif" font-size="10.00">Filter2TutorialStep</text>
</a>
</g>
</g>
<!-- PassivePacketSource -->
<g id="node2" class="node">
<title>PassivePacketSource</title>
<g id="a_node2"><a xlink:href="inet.queueing.source.PassivePacketSource.html" xlink:title="Simple Module PassivePacketSource" target="_parent">
<polygon fill="#fffcaf" stroke="black" points="118,-19 0,-19 0,0 118,0 118,-19"/>
<text text-anchor="middle" x="59" y="-7" font-family="Helvetica,sans-Serif" font-size="10.00">PassivePacketSource</text>
</a>
</g>
</g>
<!-- Filter2TutorialStep&#45;&gt;PassivePacketSource -->
<g id="edge1" class="edge">
<title>Filter2TutorialStep&#45;&gt;PassivePacketSource</title>
<path fill="none" stroke="black" d="M216.79,-54.98C184.96,-46.01 134.64,-31.82 99.4,-21.89"/>
<polygon fill="black" stroke="black" points="100.02,-18.43 89.44,-19.08 98.12,-25.16 100.02,-18.43"/>
</g>
<!-- ContentBasedFilter -->
<g id="node3" class="node">
<title>ContentBasedFilter</title>
<g id="a_node3"><a xlink:href="inet.queueing.filter.ContentBasedFilter.html" xlink:title="Simple Module ContentBasedFilter" target="_parent">
<polygon fill="#fffcaf" stroke="black" points="246,-19 136,-19 136,0 246,0 246,-19"/>
<text text-anchor="middle" x="191" y="-7" font-family="Helvetica,sans-Serif" font-size="10.00">ContentBasedFilter</text>
</a>
</g>
</g>
<!-- Filter2TutorialStep&#45;&gt;ContentBasedFilter -->
<g id="edge2" class="edge">
<title>Filter2TutorialStep&#45;&gt;ContentBasedFilter</title>
<path fill="none" stroke="black" d="M238,-54.98C229.81,-47.23 217.49,-35.58 207.53,-26.14"/>
<polygon fill="black" stroke="black" points="209.83,-23.5 200.16,-19.17 205.02,-28.59 209.83,-23.5"/>
</g>
<!-- IdealChannel -->
<g id="node4" class="node">
<title>IdealChannel</title>
<g id="a_node4"><a xlink:href="ned.IdealChannel.html" xlink:title="Channel IdealChannel" target="_parent">
<polygon fill="#d0ffd0" stroke="black" points="344,-19 264,-19 264,0 344,0 344,-19"/>
<text text-anchor="middle" x="304" y="-7" font-family="Helvetica,sans-Serif" font-size="10.00">IdealChannel</text>
</a>
</g>
</g>
<!-- Filter2TutorialStep&#45;&gt;IdealChannel -->
<g id="edge3" class="edge">
<title>Filter2TutorialStep&#45;&gt;IdealChannel</title>
<path fill="none" stroke="black" d="M256.16,-54.98C264.5,-47.23 277.03,-35.58 287.18,-26.14"/>
<polygon fill="black" stroke="black" points="289.74,-28.54 294.68,-19.17 284.97,-23.42 289.74,-28.54"/>
</g>
<!-- ActivePacketSink -->
<g id="node5" class="node">
<title>ActivePacketSink</title>
<g id="a_node5"><a xlink:href="inet.queueing.sink.ActivePacketSink.html" xlink:title="Simple Module ActivePacketSink" target="_parent">
<polygon fill="#fffcaf" stroke="black" points="462,-19 362,-19 362,0 462,0 462,-19"/>
<text text-anchor="middle" x="412" y="-7" font-family="Helvetica,sans-Serif" font-size="10.00">ActivePacketSink</text>
</a>
</g>
</g>
<!-- Filter2TutorialStep&#45;&gt;ActivePacketSink -->
<g id="edge4" class="edge">
<title>Filter2TutorialStep&#45;&gt;ActivePacketSink</title>
<path fill="none" stroke="black" d="M273.51,-54.98C301.21,-46.09 344.86,-32.07 375.74,-22.15"/>
<polygon fill="black" stroke="black" points="376.83,-25.47 385.28,-19.08 374.69,-18.81 376.83,-25.47"/>
</g>
</g>
</svg>
