<?xml version="1.0" encoding="UTF-8" standalone="no"?>
<!DOCTYPE svg PUBLIC "-//W3C//DTD SVG 1.1//EN"
 "http://www.w3.org/Graphics/SVG/1.1/DTD/svg11.dtd">
<!-- Generated by graphviz version 2.43.0 (0)
 -->
<!-- Title: opp Pages: 1 -->
<svg width="683pt" height="82pt"
 viewBox="0.00 0.00 683.00 82.00" xmlns="http://www.w3.org/2000/svg" xmlns:xlink="http://www.w3.org/1999/xlink">
<g id="graph0" class="graph" transform="scale(1 1) rotate(0) translate(4 78)">
<title>opp</title>
<polygon fill="transparent" stroke="transparent" points="-4,4 -4,-78 679,-78 679,4 -4,4"/>
<!-- DsdvNetwork -->
<g id="node1" class="node">
<title>DsdvNetwork</title>
<g id="a_node1"><a xlink:href="inet.examples.manetrouting.dsdv.DsdvNetwork.html" xlink:title="Network DsdvNetwork" target="_parent">
<polygon fill="#9090ff" stroke="black" points="403,-74 320,-74 320,-55 403,-55 403,-74"/>
<text text-anchor="middle" x="361.5" y="-62" font-family="Helvetica,sans-Serif" font-size="10.00">DsdvNetwork</text>
</a>
</g>
</g>
<!-- Ieee80211ScalarRadioMedium -->
<g id="node2" class="node">
<title>Ieee80211ScalarRadioMedium</title>
<g id="a_node2"><a xlink:href="inet.physicallayer.wireless.ieee80211.packetlevel.Ieee80211ScalarRadioMedium.html" xlink:title="Compound Module Ieee80211ScalarRadioMedium" target="_parent">
<polygon fill="#fffcaf" stroke="black" points="165,-19 0,-19 0,0 165,0 165,-19"/>
<text text-anchor="middle" x="82.5" y="-7" font-family="Helvetica,sans-Serif" font-size="10.00">Ieee80211ScalarRadioMedium</text>
</a>
</g>
</g>
<!-- DsdvNetwork&#45;&gt;Ieee80211ScalarRadioMedium -->
<g id="edge1" class="edge">
<title>DsdvNetwork&#45;&gt;Ieee80211ScalarRadioMedium</title>
<path fill="none" stroke="black" d="M319.73,-55.57C271.18,-46.34 190.87,-31.09 137.33,-20.92"/>
<polygon fill="black" stroke="black" points="137.81,-17.44 127.33,-19.02 136.5,-24.32 137.81,-17.44"/>
</g>
<!-- RoutingTableRecorder -->
<g id="node3" class="node">
<title>RoutingTableRecorder</title>
<g id="a_node3"><a xlink:href="inet.networklayer.ipv4.RoutingTableRecorder.html" xlink:title="Simple Module RoutingTableRecorder" target="_parent">
<polygon fill="#fffcaf" stroke="black" points="306,-19 183,-19 183,0 306,0 306,-19"/>
<text text-anchor="middle" x="244.5" y="-7" font-family="Helvetica,sans-Serif" font-size="10.00">RoutingTableRecorder</text>
</a>
</g>
</g>
<!-- DsdvNetwork&#45;&gt;RoutingTableRecorder -->
<g id="edge2" class="edge">
<title>DsdvNetwork&#45;&gt;RoutingTableRecorder</title>
<path fill="none" stroke="black" d="M342.7,-54.98C323.88,-46.46 294.68,-33.23 273,-23.41"/>
<polygon fill="black" stroke="black" points="274.19,-20.11 263.64,-19.17 271.3,-26.48 274.19,-20.11"/>
</g>
<!-- DsdvRouter -->
<g id="node4" class="node">
<title>DsdvRouter</title>
<g id="a_node4"><a xlink:href="inet.node.dsdv.DsdvRouter.html" xlink:title="Compound Module DsdvRouter" target="_parent">
<polygon fill="#fffcaf" stroke="black" points="398.5,-19 324.5,-19 324.5,0 398.5,0 398.5,-19"/>
<text text-anchor="middle" x="361.5" y="-7" font-family="Helvetica,sans-Serif" font-size="10.00">DsdvRouter</text>
</a>
</g>
</g>
<!-- DsdvNetwork&#45;&gt;DsdvRouter -->
<g id="edge3" class="edge">
<title>DsdvNetwork&#45;&gt;DsdvRouter</title>
<path fill="none" stroke="black" d="M361.5,-54.75C361.5,-47.8 361.5,-37.85 361.5,-29.13"/>
<polygon fill="black" stroke="black" points="365,-29.09 361.5,-19.09 358,-29.09 365,-29.09"/>
</g>
<!-- Ipv4NetworkConfigurator -->
<g id="node5" class="node">
<title>Ipv4NetworkConfigurator</title>
<g id="a_node5"><a xlink:href="inet.networklayer.configurator.ipv4.Ipv4NetworkConfigurator.html" xlink:title="Simple Module Ipv4NetworkConfigurator" target="_parent">
<polygon fill="#fffcaf" stroke="black" points="556,-19 417,-19 417,0 556,0 556,-19"/>
<text text-anchor="middle" x="486.5" y="-7" font-family="Helvetica,sans-Serif" font-size="10.00">Ipv4NetworkConfigurator</text>
</a>
</g>
</g>
<!-- DsdvNetwork&#45;&gt;Ipv4NetworkConfigurator -->
<g id="edge4" class="edge">
<title>DsdvNetwork&#45;&gt;Ipv4NetworkConfigurator</title>
<path fill="none" stroke="black" d="M381.58,-54.98C401.87,-46.38 433.46,-32.99 456.67,-23.15"/>
<polygon fill="black" stroke="black" points="458.21,-26.3 466.05,-19.17 455.48,-19.85 458.21,-26.3"/>
</g>
<!-- ScenarioManager -->
<g id="node6" class="node">
<title>ScenarioManager</title>
<g id="a_node6"><a xlink:href="inet.common.scenario.ScenarioManager.html" xlink:title="Simple Module ScenarioManager" target="_parent">
<polygon fill="#fffcaf" stroke="black" points="675,-19 574,-19 574,0 675,0 675,-19"/>
<text text-anchor="middle" x="624.5" y="-7" font-family="Helvetica,sans-Serif" font-size="10.00">ScenarioManager</text>
</a>
</g>
</g>
<!-- DsdvNetwork&#45;&gt;ScenarioManager -->
<g id="edge5" class="edge">
<title>DsdvNetwork&#45;&gt;ScenarioManager</title>
<path fill="none" stroke="black" d="M403.17,-55.1C448.97,-45.87 522.62,-31.03 572.25,-21.03"/>
<polygon fill="black" stroke="black" points="573.04,-24.44 582.15,-19.03 571.66,-17.58 573.04,-24.44"/>
</g>
</g>
</svg>
