<?xml version="1.0" encoding="UTF-8" standalone="no"?>
<!DOCTYPE svg PUBLIC "-//W3C//DTD SVG 1.1//EN"
 "http://www.w3.org/Graphics/SVG/1.1/DTD/svg11.dtd">
<!-- Generated by graphviz version 2.43.0 (0)
 -->
<!-- Title: opp Pages: 1 -->
<svg width="258pt" height="82pt"
 viewBox="0.00 0.00 257.50 82.00" xmlns="http://www.w3.org/2000/svg" xmlns:xlink="http://www.w3.org/1999/xlink">
<g id="graph0" class="graph" transform="scale(1 1) rotate(0) translate(4 78)">
<title>opp</title>
<polygon fill="transparent" stroke="transparent" points="-4,4 -4,-78 253.5,-78 253.5,4 -4,4"/>
<!-- EthernetMacHeaderChecker -->
<g id="node1" class="node">
<title>EthernetMacHeaderChecker</title>
<g id="a_node1"><a xlink:href="inet.linklayer.ethernet.modular.EthernetMacHeaderChecker.html" xlink:title="Simple Module EthernetMacHeaderChecker" target="_parent">
<polygon fill="#fff700" stroke="black" points="191.5,-19 39.5,-19 39.5,0 191.5,0 191.5,-19"/>
<text text-anchor="middle" x="115.5" y="-7" font-family="Helvetica,sans-Serif" font-size="10.00">EthernetMacHeaderChecker</text>
</a>
</g>
</g>
<!-- PacketFilterBase -->
<g id="node2" class="node">
<title>PacketFilterBase</title>
<g id="a_node2"><a xlink:href="inet.queueing.base.PacketFilterBase.html" xlink:title="Simple Module PacketFilterBase" target="_parent">
<polygon fill="#fffcaf" stroke="black" points="97,-74 0,-74 0,-55 97,-55 97,-74"/>
<text text-anchor="middle" x="48.5" y="-62" font-family="Helvetica,sans-Serif" font-size="10.00">PacketFilterBase</text>
</a>
</g>
</g>
<!-- PacketFilterBase&#45;&gt;EthernetMacHeaderChecker -->
<g id="edge1" class="edge">
<title>PacketFilterBase&#45;&gt;EthernetMacHeaderChecker</title>
<path fill="none" stroke="black" d="M59.26,-54.98C71.69,-45.15 92.03,-29.07 104.54,-19.17"/>
</g>
<!-- IProtocolHeaderChecker -->
<g id="node3" class="node">
<title>IProtocolHeaderChecker</title>
<g id="a_node3"><a xlink:href="inet.protocolelement.contract.IProtocolHeaderChecker.html" xlink:title="Module Interface IProtocolHeaderChecker" target="_parent">
<polygon fill="#fffcaf" stroke="black" stroke-dasharray="5,2" points="249.5,-74 115.5,-74 115.5,-55 249.5,-55 249.5,-74"/>
<text text-anchor="middle" x="182.5" y="-62" font-family="Helvetica,sans-Serif" font-size="10.00">IProtocolHeaderChecker</text>
</a>
</g>
</g>
<!-- IProtocolHeaderChecker&#45;&gt;EthernetMacHeaderChecker -->
<g id="edge2" class="edge">
<title>IProtocolHeaderChecker&#45;&gt;EthernetMacHeaderChecker</title>
<path fill="none" stroke="black" stroke-dasharray="5,2" d="M171.74,-54.98C159.31,-45.15 138.97,-29.07 126.46,-19.17"/>
</g>
</g>
</svg>
