<?xml version="1.0" encoding="UTF-8" standalone="no"?>
<!DOCTYPE svg PUBLIC "-//W3C//DTD SVG 1.1//EN"
 "http://www.w3.org/Graphics/SVG/1.1/DTD/svg11.dtd">
<!-- Generated by graphviz version 2.43.0 (0)
 -->
<!-- Title: opp Pages: 1 -->
<svg width="625pt" height="82pt"
 viewBox="0.00 0.00 624.50 82.00" xmlns="http://www.w3.org/2000/svg" xmlns:xlink="http://www.w3.org/1999/xlink">
<g id="graph0" class="graph" transform="scale(1 1) rotate(0) translate(4 78)">
<title>opp</title>
<polygon fill="transparent" stroke="transparent" points="-4,4 -4,-78 620.5,-78 620.5,4 -4,4"/>
<!-- Layered80211 -->
<g id="node1" class="node">
<title>Layered80211</title>
<g id="a_node1"><a xlink:href="inet.examples.wireless.layered80211.Layered80211.html" xlink:title="Network Layered80211" target="_parent">
<polygon fill="#9090ff" stroke="black" points="400,-74 314,-74 314,-55 400,-55 400,-74"/>
<text text-anchor="middle" x="357" y="-62" font-family="Helvetica,sans-Serif" font-size="10.00">Layered80211</text>
</a>
</g>
</g>
<!-- IIntegratedVisualizer -->
<g id="node2" class="node">
<title>IIntegratedVisualizer</title>
<g id="a_node2"><a xlink:href="inet.visualizer.contract.IIntegratedVisualizer.html" xlink:title="Module Interface IIntegratedVisualizer" target="_parent">
<polygon fill="#fffcaf" stroke="black" stroke-dasharray="5,2" points="118,-19 0,-19 0,0 118,0 118,-19"/>
<text text-anchor="middle" x="59" y="-7" font-family="Helvetica,sans-Serif" font-size="10.00">IIntegratedVisualizer</text>
</a>
</g>
</g>
<!-- Layered80211&#45;&gt;IIntegratedVisualizer -->
<g id="edge1" class="edge">
<title>Layered80211&#45;&gt;IIntegratedVisualizer</title>
<path fill="none" stroke="black" d="M313.99,-55.85C262.14,-46.63 174.78,-31.09 117.01,-20.82"/>
<polygon fill="black" stroke="black" points="117.39,-17.33 106.94,-19.03 116.17,-24.22 117.39,-17.33"/>
</g>
<!-- Ieee80211LayeredDimensionalRadioMedium -->
<g id="node3" class="node">
<title>Ieee80211LayeredDimensionalRadioMedium</title>
<g id="a_node3"><a xlink:href="inet.physicallayer.wireless.ieee80211.bitlevel.Ieee80211LayeredDimensionalRadioMedium.html" xlink:title="Compound Module Ieee80211LayeredDimensionalRadioMedium" target="_parent">
<polygon fill="#fffcaf" stroke="black" points="372,-19 136,-19 136,0 372,0 372,-19"/>
<text text-anchor="middle" x="254" y="-7" font-family="Helvetica,sans-Serif" font-size="10.00">Ieee80211LayeredDimensionalRadioMedium</text>
</a>
</g>
</g>
<!-- Layered80211&#45;&gt;Ieee80211LayeredDimensionalRadioMedium -->
<g id="edge2" class="edge">
<title>Layered80211&#45;&gt;Ieee80211LayeredDimensionalRadioMedium</title>
<path fill="none" stroke="black" d="M340.45,-54.98C324.11,-46.57 298.87,-33.59 279.87,-23.81"/>
<polygon fill="black" stroke="black" points="281.34,-20.63 270.85,-19.17 278.14,-26.86 281.34,-20.63"/>
</g>
<!-- Ipv4NetworkConfigurator -->
<g id="node4" class="node">
<title>Ipv4NetworkConfigurator</title>
<g id="a_node4"><a xlink:href="inet.networklayer.configurator.ipv4.Ipv4NetworkConfigurator.html" xlink:title="Simple Module Ipv4NetworkConfigurator" target="_parent">
<polygon fill="#fffcaf" stroke="black" points="529.5,-19 390.5,-19 390.5,0 529.5,0 529.5,-19"/>
<text text-anchor="middle" x="460" y="-7" font-family="Helvetica,sans-Serif" font-size="10.00">Ipv4NetworkConfigurator</text>
</a>
</g>
</g>
<!-- Layered80211&#45;&gt;Ipv4NetworkConfigurator -->
<g id="edge3" class="edge">
<title>Layered80211&#45;&gt;Ipv4NetworkConfigurator</title>
<path fill="none" stroke="black" d="M373.55,-54.98C389.89,-46.57 415.13,-33.59 434.13,-23.81"/>
<polygon fill="black" stroke="black" points="435.86,-26.86 443.15,-19.17 432.66,-20.63 435.86,-26.86"/>
</g>
<!-- AdhocHost -->
<g id="node5" class="node">
<title>AdhocHost</title>
<g id="a_node5"><a xlink:href="inet.node.inet.AdhocHost.html" xlink:title="Compound Module AdhocHost" target="_parent">
<polygon fill="#fffcaf" stroke="black" points="616.5,-19 547.5,-19 547.5,0 616.5,0 616.5,-19"/>
<text text-anchor="middle" x="582" y="-7" font-family="Helvetica,sans-Serif" font-size="10.00">AdhocHost</text>
</a>
</g>
</g>
<!-- Layered80211&#45;&gt;AdhocHost -->
<g id="edge4" class="edge">
<title>Layered80211&#45;&gt;AdhocHost</title>
<path fill="none" stroke="black" d="M393.15,-54.98C432.48,-45.72 495.39,-30.9 537.67,-20.94"/>
<polygon fill="black" stroke="black" points="538.49,-24.35 547.42,-18.65 536.88,-17.53 538.49,-24.35"/>
</g>
</g>
</svg>
