<?xml version="1.0" encoding="UTF-8" standalone="no"?>
<!DOCTYPE svg PUBLIC "-//W3C//DTD SVG 1.1//EN"
 "http://www.w3.org/Graphics/SVG/1.1/DTD/svg11.dtd">
<!-- Generated by graphviz version 2.43.0 (0)
 -->
<!-- Title: opp Pages: 1 -->
<svg width="523pt" height="82pt"
 viewBox="0.00 0.00 522.50 82.00" xmlns="http://www.w3.org/2000/svg" xmlns:xlink="http://www.w3.org/1999/xlink">
<g id="graph0" class="graph" transform="scale(1 1) rotate(0) translate(4 78)">
<title>opp</title>
<polygon fill="transparent" stroke="transparent" points="-4,4 -4,-78 518.5,-78 518.5,4 -4,4"/>
<!-- testNetwork -->
<g id="node1" class="node">
<title>testNetwork</title>
<g id="a_node1"><a xlink:href="inet.examples.inet.netperfmeter.testNetwork.html" xlink:title="Network testNetwork" target="_parent">
<polygon fill="#9090ff" stroke="black" points="279,-74 202,-74 202,-55 279,-55 279,-74"/>
<text text-anchor="middle" x="240.5" y="-62" font-family="Helvetica,sans-Serif" font-size="10.00">testNetwork</text>
</a>
</g>
</g>
<!-- coreChannel -->
<g id="node2" class="node">
<title>coreChannel</title>
<g id="a_node2"><a xlink:href="inet.examples.inet.netperfmeter.coreChannel.html" xlink:title="Channel coreChannel" target="_parent">
<polygon fill="#d0ffd0" stroke="black" points="77,-19 0,-19 0,0 77,0 77,-19"/>
<text text-anchor="middle" x="38.5" y="-7" font-family="Helvetica,sans-Serif" font-size="10.00">coreChannel</text>
</a>
</g>
</g>
<!-- testNetwork&#45;&gt;coreChannel -->
<g id="edge1" class="edge">
<title>testNetwork&#45;&gt;coreChannel</title>
<path fill="none" stroke="black" d="M208.05,-54.98C173.54,-45.93 118.84,-31.58 80.94,-21.64"/>
<polygon fill="black" stroke="black" points="81.77,-18.23 71.21,-19.08 79.99,-25.01 81.77,-18.23"/>
</g>
<!-- StandardHost -->
<g id="node3" class="node">
<title>StandardHost</title>
<g id="a_node3"><a xlink:href="inet.node.inet.StandardHost.html" xlink:title="Compound Module StandardHost" target="_parent">
<polygon fill="#fffcaf" stroke="black" points="178,-19 95,-19 95,0 178,0 178,-19"/>
<text text-anchor="middle" x="136.5" y="-7" font-family="Helvetica,sans-Serif" font-size="10.00">StandardHost</text>
</a>
</g>
</g>
<!-- testNetwork&#45;&gt;StandardHost -->
<g id="edge2" class="edge">
<title>testNetwork&#45;&gt;StandardHost</title>
<path fill="none" stroke="black" d="M223.79,-54.98C207.29,-46.57 181.8,-33.59 162.62,-23.81"/>
<polygon fill="black" stroke="black" points="164.01,-20.59 153.51,-19.17 160.83,-26.83 164.01,-20.59"/>
</g>
<!-- accessChannel -->
<g id="node4" class="node">
<title>accessChannel</title>
<g id="a_node4"><a xlink:href="inet.examples.inet.netperfmeter.accessChannel.html" xlink:title="Channel accessChannel" target="_parent">
<polygon fill="#d0ffd0" stroke="black" points="285,-19 196,-19 196,0 285,0 285,-19"/>
<text text-anchor="middle" x="240.5" y="-7" font-family="Helvetica,sans-Serif" font-size="10.00">accessChannel</text>
</a>
</g>
</g>
<!-- testNetwork&#45;&gt;accessChannel -->
<g id="edge3" class="edge">
<title>testNetwork&#45;&gt;accessChannel</title>
<path fill="none" stroke="black" d="M240.5,-54.75C240.5,-47.8 240.5,-37.85 240.5,-29.13"/>
<polygon fill="black" stroke="black" points="244,-29.09 240.5,-19.09 237,-29.09 244,-29.09"/>
</g>
<!-- Ipv4NetworkConfigurator -->
<g id="node5" class="node">
<title>Ipv4NetworkConfigurator</title>
<g id="a_node5"><a xlink:href="inet.networklayer.configurator.ipv4.Ipv4NetworkConfigurator.html" xlink:title="Simple Module Ipv4NetworkConfigurator" target="_parent">
<polygon fill="#fffcaf" stroke="black" points="442,-19 303,-19 303,0 442,0 442,-19"/>
<text text-anchor="middle" x="372.5" y="-7" font-family="Helvetica,sans-Serif" font-size="10.00">Ipv4NetworkConfigurator</text>
</a>
</g>
</g>
<!-- testNetwork&#45;&gt;Ipv4NetworkConfigurator -->
<g id="edge4" class="edge">
<title>testNetwork&#45;&gt;Ipv4NetworkConfigurator</title>
<path fill="none" stroke="black" d="M261.71,-54.98C283.23,-46.34 316.78,-32.87 341.33,-23.02"/>
<polygon fill="black" stroke="black" points="342.93,-26.14 350.91,-19.17 340.32,-19.65 342.93,-26.14"/>
</g>
<!-- Router -->
<g id="node6" class="node">
<title>Router</title>
<g id="a_node6"><a xlink:href="inet.node.inet.Router.html" xlink:title="Compound Module Router" target="_parent">
<polygon fill="#fffcaf" stroke="black" points="514.5,-19 460.5,-19 460.5,0 514.5,0 514.5,-19"/>
<text text-anchor="middle" x="487.5" y="-7" font-family="Helvetica,sans-Serif" font-size="10.00">Router</text>
</a>
</g>
</g>
<!-- testNetwork&#45;&gt;Router -->
<g id="edge5" class="edge">
<title>testNetwork&#45;&gt;Router</title>
<path fill="none" stroke="black" d="M279.06,-55.66C319.34,-47.4 384.63,-33.84 450.28,-19.23"/>
<polygon fill="black" stroke="black" points="451.39,-22.57 460.39,-16.97 449.87,-15.74 451.39,-22.57"/>
</g>
</g>
</svg>
