<?xml version="1.0" encoding="UTF-8" standalone="no"?>
<!DOCTYPE svg PUBLIC "-//W3C//DTD SVG 1.1//EN"
 "http://www.w3.org/Graphics/SVG/1.1/DTD/svg11.dtd">
<!-- Generated by graphviz version 2.43.0 (0)
 -->
<!-- Title: opp Pages: 1 -->
<svg width="254pt" height="82pt"
 viewBox="0.00 0.00 253.50 82.00" xmlns="http://www.w3.org/2000/svg" xmlns:xlink="http://www.w3.org/1999/xlink">
<g id="graph0" class="graph" transform="scale(1 1) rotate(0) translate(4 78)">
<title>opp</title>
<polygon fill="transparent" stroke="transparent" points="-4,4 -4,-78 249.5,-78 249.5,4 -4,4"/>
<!-- ActivePacketSink -->
<g id="node1" class="node">
<title>ActivePacketSink</title>
<g id="a_node1"><a xlink:href="inet.queueing.sink.ActivePacketSink.html" xlink:title="Simple Module ActivePacketSink" target="_parent">
<polygon fill="#fff700" stroke="black" points="178,-19 78,-19 78,0 178,0 178,-19"/>
<text text-anchor="middle" x="128" y="-7" font-family="Helvetica,sans-Serif" font-size="10.00">ActivePacketSink</text>
</a>
</g>
</g>
<!-- ActivePacketSinkBase -->
<g id="node2" class="node">
<title>ActivePacketSinkBase</title>
<g id="a_node2"><a xlink:href="inet.queueing.base.ActivePacketSinkBase.html" xlink:title="Simple Module ActivePacketSinkBase" target="_parent">
<polygon fill="#fffcaf" stroke="black" points="124,-74 0,-74 0,-55 124,-55 124,-74"/>
<text text-anchor="middle" x="62" y="-62" font-family="Helvetica,sans-Serif" font-size="10.00">ActivePacketSinkBase</text>
</a>
</g>
</g>
<!-- ActivePacketSinkBase&#45;&gt;ActivePacketSink -->
<g id="edge1" class="edge">
<title>ActivePacketSinkBase&#45;&gt;ActivePacketSink</title>
<path fill="none" stroke="black" d="M72.6,-54.98C84.85,-45.15 104.88,-29.07 117.2,-19.17"/>
</g>
<!-- IActivePacketSink -->
<g id="node3" class="node">
<title>IActivePacketSink</title>
<g id="a_node3"><a xlink:href="inet.queueing.contract.IActivePacketSink.html" xlink:title="Module Interface IActivePacketSink" target="_parent">
<polygon fill="#fffcaf" stroke="black" stroke-dasharray="5,2" points="245.5,-74 142.5,-74 142.5,-55 245.5,-55 245.5,-74"/>
<text text-anchor="middle" x="194" y="-62" font-family="Helvetica,sans-Serif" font-size="10.00">IActivePacketSink</text>
</a>
</g>
</g>
<!-- IActivePacketSink&#45;&gt;ActivePacketSink -->
<g id="edge2" class="edge">
<title>IActivePacketSink&#45;&gt;ActivePacketSink</title>
<path fill="none" stroke="black" stroke-dasharray="5,2" d="M183.4,-54.98C171.15,-45.15 151.12,-29.07 138.8,-19.17"/>
</g>
</g>
</svg>
