<?xml version="1.0" encoding="UTF-8" standalone="no"?>
<!DOCTYPE svg PUBLIC "-//W3C//DTD SVG 1.1//EN"
 "http://www.w3.org/Graphics/SVG/1.1/DTD/svg11.dtd">
<!-- Generated by graphviz version 2.43.0 (0)
 -->
<!-- Title: opp Pages: 1 -->
<svg width="296pt" height="82pt"
 viewBox="0.00 0.00 295.50 82.00" xmlns="http://www.w3.org/2000/svg" xmlns:xlink="http://www.w3.org/1999/xlink">
<g id="graph0" class="graph" transform="scale(1 1) rotate(0) translate(4 78)">
<title>opp</title>
<polygon fill="transparent" stroke="transparent" points="-4,4 -4,-78 291.5,-78 291.5,4 -4,4"/>
<!-- DataRateMeasurementShowcase -->
<g id="node1" class="node">
<title>DataRateMeasurementShowcase</title>
<g id="a_node1"><a xlink:href="inet.showcases.measurement.datarate.DataRateMeasurementShowcase.html" xlink:title="Network DataRateMeasurementShowcase" target="_parent">
<polygon fill="#9090ff" stroke="black" points="230,-74 51,-74 51,-55 230,-55 230,-74"/>
<text text-anchor="middle" x="140.5" y="-62" font-family="Helvetica,sans-Serif" font-size="10.00">DataRateMeasurementShowcase</text>
</a>
</g>
</g>
<!-- StandardHost -->
<g id="node2" class="node">
<title>StandardHost</title>
<g id="a_node2"><a xlink:href="inet.node.inet.StandardHost.html" xlink:title="Compound Module StandardHost" target="_parent">
<polygon fill="#fffcaf" stroke="black" points="83,-19 0,-19 0,0 83,0 83,-19"/>
<text text-anchor="middle" x="41.5" y="-7" font-family="Helvetica,sans-Serif" font-size="10.00">StandardHost</text>
</a>
</g>
</g>
<!-- DataRateMeasurementShowcase&#45;&gt;StandardHost -->
<g id="edge1" class="edge">
<title>DataRateMeasurementShowcase&#45;&gt;StandardHost</title>
<path fill="none" stroke="black" d="M124.59,-54.98C108.95,-46.61 84.84,-33.7 66.62,-23.95"/>
<polygon fill="black" stroke="black" points="68.16,-20.8 57.7,-19.17 64.86,-26.98 68.16,-20.8"/>
</g>
<!-- EthernetLink -->
<g id="node3" class="node">
<title>EthernetLink</title>
<g id="a_node3"><a xlink:href="inet.node.ethernet.EthernetLink.html" xlink:title="Channel EthernetLink" target="_parent">
<polygon fill="#d0ffd0" stroke="black" points="179.5,-19 101.5,-19 101.5,0 179.5,0 179.5,-19"/>
<text text-anchor="middle" x="140.5" y="-7" font-family="Helvetica,sans-Serif" font-size="10.00">EthernetLink</text>
</a>
</g>
</g>
<!-- DataRateMeasurementShowcase&#45;&gt;EthernetLink -->
<g id="edge2" class="edge">
<title>DataRateMeasurementShowcase&#45;&gt;EthernetLink</title>
<path fill="none" stroke="black" d="M140.5,-54.75C140.5,-47.8 140.5,-37.85 140.5,-29.13"/>
<polygon fill="black" stroke="black" points="144,-29.09 140.5,-19.09 137,-29.09 144,-29.09"/>
</g>
<!-- EthernetSwitch -->
<g id="node4" class="node">
<title>EthernetSwitch</title>
<g id="a_node4"><a xlink:href="inet.node.ethernet.EthernetSwitch.html" xlink:title="Compound Module EthernetSwitch" target="_parent">
<polygon fill="#fffcaf" stroke="black" points="287.5,-19 197.5,-19 197.5,0 287.5,0 287.5,-19"/>
<text text-anchor="middle" x="242.5" y="-7" font-family="Helvetica,sans-Serif" font-size="10.00">EthernetSwitch</text>
</a>
</g>
</g>
<!-- DataRateMeasurementShowcase&#45;&gt;EthernetSwitch -->
<g id="edge3" class="edge">
<title>DataRateMeasurementShowcase&#45;&gt;EthernetSwitch</title>
<path fill="none" stroke="black" d="M156.89,-54.98C173.07,-46.57 198.07,-33.59 216.88,-23.81"/>
<polygon fill="black" stroke="black" points="218.55,-26.89 225.81,-19.17 215.33,-20.68 218.55,-26.89"/>
</g>
</g>
</svg>
