<?xml version="1.0" encoding="UTF-8" standalone="no"?>
<!DOCTYPE svg PUBLIC "-//W3C//DTD SVG 1.1//EN"
 "http://www.w3.org/Graphics/SVG/1.1/DTD/svg11.dtd">
<!-- Generated by graphviz version 2.43.0 (0)
 -->
<!-- Title: opp Pages: 1 -->
<svg width="321pt" height="82pt"
 viewBox="0.00 0.00 321.00 82.00" xmlns="http://www.w3.org/2000/svg" xmlns:xlink="http://www.w3.org/1999/xlink">
<g id="graph0" class="graph" transform="scale(1 1) rotate(0) translate(4 78)">
<title>opp</title>
<polygon fill="transparent" stroke="transparent" points="-4,4 -4,-78 317,-78 317,4 -4,4"/>
<!-- UdpAppExample -->
<g id="node1" class="node">
<title>UdpAppExample</title>
<g id="a_node1"><a xlink:href="inet.examples.inet.udpapp.UdpAppExample.html" xlink:title="Network UdpAppExample" target="_parent">
<polygon fill="#9090ff" stroke="black" points="177.5,-74 79.5,-74 79.5,-55 177.5,-55 177.5,-74"/>
<text text-anchor="middle" x="128.5" y="-62" font-family="Helvetica,sans-Serif" font-size="10.00">UdpAppExample</text>
</a>
</g>
</g>
<!-- StandardHost -->
<g id="node2" class="node">
<title>StandardHost</title>
<g id="a_node2"><a xlink:href="inet.node.inet.StandardHost.html" xlink:title="Compound Module StandardHost" target="_parent">
<polygon fill="#fffcaf" stroke="black" points="83,-19 0,-19 0,0 83,0 83,-19"/>
<text text-anchor="middle" x="41.5" y="-7" font-family="Helvetica,sans-Serif" font-size="10.00">StandardHost</text>
</a>
</g>
</g>
<!-- UdpAppExample&#45;&gt;StandardHost -->
<g id="edge1" class="edge">
<title>UdpAppExample&#45;&gt;StandardHost</title>
<path fill="none" stroke="black" d="M114.52,-54.98C101.03,-46.77 80.37,-34.18 64.46,-24.49"/>
<polygon fill="black" stroke="black" points="66.09,-21.38 55.73,-19.17 62.45,-27.36 66.09,-21.38"/>
</g>
<!-- C -->
<g id="node3" class="node">
<title>C</title>
<g id="a_node3"><a xlink:href="inet.examples.inet.udpapp.UdpAppExample.C.html" xlink:title="Channel C" target="_parent">
<polygon fill="#d0ffd0" stroke="black" points="155.5,-19 101.5,-19 101.5,0 155.5,0 155.5,-19"/>
<text text-anchor="middle" x="128.5" y="-7" font-family="Helvetica,sans-Serif" font-size="10.00">C</text>
</a>
</g>
</g>
<!-- UdpAppExample&#45;&gt;C -->
<g id="edge2" class="edge">
<title>UdpAppExample&#45;&gt;C</title>
<path fill="none" stroke="black" d="M128.5,-54.75C128.5,-47.8 128.5,-37.85 128.5,-29.13"/>
<polygon fill="black" stroke="black" points="132,-29.09 128.5,-19.09 125,-29.09 132,-29.09"/>
</g>
<!-- Ipv4NetworkConfigurator -->
<g id="node4" class="node">
<title>Ipv4NetworkConfigurator</title>
<g id="a_node4"><a xlink:href="inet.networklayer.configurator.ipv4.Ipv4NetworkConfigurator.html" xlink:title="Simple Module Ipv4NetworkConfigurator" target="_parent">
<polygon fill="#fffcaf" stroke="black" points="313,-19 174,-19 174,0 313,0 313,-19"/>
<text text-anchor="middle" x="243.5" y="-7" font-family="Helvetica,sans-Serif" font-size="10.00">Ipv4NetworkConfigurator</text>
</a>
</g>
</g>
<!-- UdpAppExample&#45;&gt;Ipv4NetworkConfigurator -->
<g id="edge3" class="edge">
<title>UdpAppExample&#45;&gt;Ipv4NetworkConfigurator</title>
<path fill="none" stroke="black" d="M146.98,-54.98C165.48,-46.46 194.18,-33.23 215.48,-23.41"/>
<polygon fill="black" stroke="black" points="217.07,-26.53 224.69,-19.17 214.14,-20.18 217.07,-26.53"/>
</g>
</g>
</svg>
