<?xml version="1.0" encoding="UTF-8" standalone="no"?>
<!DOCTYPE svg PUBLIC "-//W3C//DTD SVG 1.1//EN"
 "http://www.w3.org/Graphics/SVG/1.1/DTD/svg11.dtd">
<!-- Generated by graphviz version 2.43.0 (0)
 -->
<!-- Title: opp Pages: 1 -->
<svg width="91pt" height="137pt"
 viewBox="0.00 0.00 91.00 137.00" xmlns="http://www.w3.org/2000/svg" xmlns:xlink="http://www.w3.org/1999/xlink">
<g id="graph0" class="graph" transform="scale(1 1) rotate(0) translate(4 133)">
<title>opp</title>
<polygon fill="transparent" stroke="transparent" points="-4,4 -4,-133 87,-133 87,4 -4,4"/>
<!-- Eth100M -->
<g id="node1" class="node">
<title>Eth100M</title>
<g id="a_node1"><a xlink:href="inet.node.ethernet.Eth100M.html" xlink:title="Channel Eth100M" target="_parent">
<polygon fill="#90ff90" stroke="black" points="71,-74 12,-74 12,-55 71,-55 71,-74"/>
<text text-anchor="middle" x="41.5" y="-62" font-family="Helvetica,sans-Serif" font-size="10.00">Eth100M</text>
</a>
</g>
</g>
<!-- Eth100MLong -->
<g id="node3" class="node">
<title>Eth100MLong</title>
<g id="a_node3"><a xlink:href="inet.tutorials.configurator.Eth100MLong.html" xlink:title="Channel Eth100MLong" target="_parent">
<polygon fill="#d0ffd0" stroke="black" points="83,-19 0,-19 0,0 83,0 83,-19"/>
<text text-anchor="middle" x="41.5" y="-7" font-family="Helvetica,sans-Serif" font-size="10.00">Eth100MLong</text>
</a>
</g>
</g>
<!-- Eth100M&#45;&gt;Eth100MLong -->
<g id="edge2" class="edge">
<title>Eth100M&#45;&gt;Eth100MLong</title>
<path fill="none" stroke="black" d="M41.5,-54.75C41.5,-44.87 41.5,-28.9 41.5,-19.09"/>
</g>
<!-- EthernetLink -->
<g id="node2" class="node">
<title>EthernetLink</title>
<g id="a_node2"><a xlink:href="inet.node.ethernet.EthernetLink.html" xlink:title="Channel EthernetLink" target="_parent">
<polygon fill="#d0ffd0" stroke="black" points="80.5,-129 2.5,-129 2.5,-110 80.5,-110 80.5,-129"/>
<text text-anchor="middle" x="41.5" y="-117" font-family="Helvetica,sans-Serif" font-size="10.00">EthernetLink</text>
</a>
</g>
</g>
<!-- EthernetLink&#45;&gt;Eth100M -->
<g id="edge1" class="edge">
<title>EthernetLink&#45;&gt;Eth100M</title>
<path fill="none" stroke="black" d="M41.5,-109.75C41.5,-99.87 41.5,-83.9 41.5,-74.09"/>
</g>
</g>
</svg>
