<?xml version="1.0" encoding="UTF-8" standalone="no"?>
<!DOCTYPE svg PUBLIC "-//W3C//DTD SVG 1.1//EN"
 "http://www.w3.org/Graphics/SVG/1.1/DTD/svg11.dtd">
<!-- Generated by graphviz version 2.43.0 (0)
 -->
<!-- Title: opp Pages: 1 -->
<svg width="723pt" height="82pt"
 viewBox="0.00 0.00 723.00 82.00" xmlns="http://www.w3.org/2000/svg" xmlns:xlink="http://www.w3.org/1999/xlink">
<g id="graph0" class="graph" transform="scale(1 1) rotate(0) translate(4 78)">
<title>opp</title>
<polygon fill="transparent" stroke="transparent" points="-4,4 -4,-78 719,-78 719,4 -4,4"/>
<!-- ErrorRateShowcase -->
<g id="node1" class="node">
<title>ErrorRateShowcase</title>
<g id="a_node1"><a xlink:href="inet.showcases.wireless.errorrate.ErrorRateShowcase.html" xlink:title="Network ErrorRateShowcase" target="_parent">
<polygon fill="#9090ff" stroke="black" points="477,-74 366,-74 366,-55 477,-55 477,-74"/>
<text text-anchor="middle" x="421.5" y="-62" font-family="Helvetica,sans-Serif" font-size="10.00">ErrorRateShowcase</text>
</a>
</g>
</g>
<!-- Ieee80211ScalarRadioMedium -->
<g id="node2" class="node">
<title>Ieee80211ScalarRadioMedium</title>
<g id="a_node2"><a xlink:href="inet.physicallayer.wireless.ieee80211.packetlevel.Ieee80211ScalarRadioMedium.html" xlink:title="Compound Module Ieee80211ScalarRadioMedium" target="_parent">
<polygon fill="#fffcaf" stroke="black" points="165,-19 0,-19 0,0 165,0 165,-19"/>
<text text-anchor="middle" x="82.5" y="-7" font-family="Helvetica,sans-Serif" font-size="10.00">Ieee80211ScalarRadioMedium</text>
</a>
</g>
</g>
<!-- ErrorRateShowcase&#45;&gt;Ieee80211ScalarRadioMedium -->
<g id="edge1" class="edge">
<title>ErrorRateShowcase&#45;&gt;Ieee80211ScalarRadioMedium</title>
<path fill="none" stroke="black" d="M367.03,-54.98C307.07,-45.61 210.75,-30.55 147.05,-20.59"/>
<polygon fill="black" stroke="black" points="147.53,-17.12 137.11,-19.04 146.45,-24.04 147.53,-17.12"/>
</g>
<!-- IntegratedCanvasVisualizer -->
<g id="node3" class="node">
<title>IntegratedCanvasVisualizer</title>
<g id="a_node3"><a xlink:href="inet.visualizer.canvas.integrated.IntegratedCanvasVisualizer.html" xlink:title="Compound Module IntegratedCanvasVisualizer" target="_parent">
<polygon fill="#fffcaf" stroke="black" points="334,-19 183,-19 183,0 334,0 334,-19"/>
<text text-anchor="middle" x="258.5" y="-7" font-family="Helvetica,sans-Serif" font-size="10.00">IntegratedCanvasVisualizer</text>
</a>
</g>
</g>
<!-- ErrorRateShowcase&#45;&gt;IntegratedCanvasVisualizer -->
<g id="edge2" class="edge">
<title>ErrorRateShowcase&#45;&gt;IntegratedCanvasVisualizer</title>
<path fill="none" stroke="black" d="M395.31,-54.98C368.06,-46.13 325.2,-32.19 294.72,-22.28"/>
<polygon fill="black" stroke="black" points="295.49,-18.85 284.89,-19.08 293.32,-25.5 295.49,-18.85"/>
</g>
<!-- Ipv4NetworkConfigurator -->
<g id="node4" class="node">
<title>Ipv4NetworkConfigurator</title>
<g id="a_node4"><a xlink:href="inet.networklayer.configurator.ipv4.Ipv4NetworkConfigurator.html" xlink:title="Simple Module Ipv4NetworkConfigurator" target="_parent">
<polygon fill="#fffcaf" stroke="black" points="491,-19 352,-19 352,0 491,0 491,-19"/>
<text text-anchor="middle" x="421.5" y="-7" font-family="Helvetica,sans-Serif" font-size="10.00">Ipv4NetworkConfigurator</text>
</a>
</g>
</g>
<!-- ErrorRateShowcase&#45;&gt;Ipv4NetworkConfigurator -->
<g id="edge3" class="edge">
<title>ErrorRateShowcase&#45;&gt;Ipv4NetworkConfigurator</title>
<path fill="none" stroke="black" d="M421.5,-54.75C421.5,-47.8 421.5,-37.85 421.5,-29.13"/>
<polygon fill="black" stroke="black" points="425,-29.09 421.5,-19.09 418,-29.09 425,-29.09"/>
</g>
<!-- PhysicalEnvironment -->
<g id="node5" class="node">
<title>PhysicalEnvironment</title>
<g id="a_node5"><a xlink:href="inet.environment.common.PhysicalEnvironment.html" xlink:title="Compound Module PhysicalEnvironment" target="_parent">
<polygon fill="#fffcaf" stroke="black" points="628,-19 509,-19 509,0 628,0 628,-19"/>
<text text-anchor="middle" x="568.5" y="-7" font-family="Helvetica,sans-Serif" font-size="10.00">PhysicalEnvironment</text>
</a>
</g>
</g>
<!-- ErrorRateShowcase&#45;&gt;PhysicalEnvironment -->
<g id="edge4" class="edge">
<title>ErrorRateShowcase&#45;&gt;PhysicalEnvironment</title>
<path fill="none" stroke="black" d="M445.12,-54.98C469.4,-46.23 507.45,-32.51 534.87,-22.62"/>
<polygon fill="black" stroke="black" points="536.23,-25.85 544.45,-19.17 533.86,-19.27 536.23,-25.85"/>
</g>
<!-- AdhocHost -->
<g id="node6" class="node">
<title>AdhocHost</title>
<g id="a_node6"><a xlink:href="inet.node.inet.AdhocHost.html" xlink:title="Compound Module AdhocHost" target="_parent">
<polygon fill="#fffcaf" stroke="black" points="715,-19 646,-19 646,0 715,0 715,-19"/>
<text text-anchor="middle" x="680.5" y="-7" font-family="Helvetica,sans-Serif" font-size="10.00">AdhocHost</text>
</a>
</g>
</g>
<!-- ErrorRateShowcase&#45;&gt;AdhocHost -->
<g id="edge5" class="edge">
<title>ErrorRateShowcase&#45;&gt;AdhocHost</title>
<path fill="none" stroke="black" d="M463.11,-54.98C510.37,-45.31 587.2,-29.59 635.73,-19.66"/>
<polygon fill="black" stroke="black" points="636.54,-23.07 645.63,-17.63 635.13,-16.21 636.54,-23.07"/>
</g>
</g>
</svg>
