<?xml version="1.0" encoding="UTF-8" standalone="no"?>
<!DOCTYPE svg PUBLIC "-//W3C//DTD SVG 1.1//EN"
 "http://www.w3.org/Graphics/SVG/1.1/DTD/svg11.dtd">
<!-- Generated by graphviz version 2.43.0 (0)
 -->
<!-- Title: opp Pages: 1 -->
<svg width="543pt" height="137pt"
 viewBox="0.00 0.00 543.00 137.00" xmlns="http://www.w3.org/2000/svg" xmlns:xlink="http://www.w3.org/1999/xlink">
<g id="graph0" class="graph" transform="scale(1 1) rotate(0) translate(4 133)">
<title>opp</title>
<polygon fill="transparent" stroke="transparent" points="-4,4 -4,-133 539,-133 539,4 -4,4"/>
<!-- WirelessInterface -->
<g id="node1" class="node">
<title>WirelessInterface</title>
<g id="a_node1"><a xlink:href="inet.linklayer.common.WirelessInterface.html" xlink:title="Compound Module WirelessInterface" target="_parent">
<polygon fill="#fff700" stroke="black" points="318.5,-74 216.5,-74 216.5,-55 318.5,-55 318.5,-74"/>
<text text-anchor="middle" x="267.5" y="-62" font-family="Helvetica,sans-Serif" font-size="10.00">WirelessInterface</text>
</a>
</g>
</g>
<!-- BMacInterface -->
<g id="node4" class="node">
<title>BMacInterface</title>
<g id="a_node4"><a xlink:href="inet.linklayer.bmac.BMacInterface.html" xlink:title="Compound Module BMacInterface" target="_parent">
<polygon fill="#fffcaf" stroke="black" points="87,-19 0,-19 0,0 87,0 87,-19"/>
<text text-anchor="middle" x="43.5" y="-7" font-family="Helvetica,sans-Serif" font-size="10.00">BMacInterface</text>
</a>
</g>
</g>
<!-- WirelessInterface&#45;&gt;BMacInterface -->
<g id="edge3" class="edge">
<title>WirelessInterface&#45;&gt;BMacInterface</title>
<path fill="none" stroke="black" d="M231.51,-54.98C189.83,-45.12 121.57,-28.97 79.77,-19.08"/>
</g>
<!-- CsmaCaInterface -->
<g id="node5" class="node">
<title>CsmaCaInterface</title>
<g id="a_node5"><a xlink:href="inet.linklayer.csmaca.CsmaCaInterface.html" xlink:title="Compound Module CsmaCaInterface" target="_parent">
<polygon fill="#fffcaf" stroke="black" points="206,-19 105,-19 105,0 206,0 206,-19"/>
<text text-anchor="middle" x="155.5" y="-7" font-family="Helvetica,sans-Serif" font-size="10.00">CsmaCaInterface</text>
</a>
</g>
</g>
<!-- WirelessInterface&#45;&gt;CsmaCaInterface -->
<g id="edge4" class="edge">
<title>WirelessInterface&#45;&gt;CsmaCaInterface</title>
<path fill="none" stroke="black" d="M249.51,-54.98C228.73,-45.15 194.74,-29.07 173.82,-19.17"/>
</g>
<!-- LMacInterface -->
<g id="node6" class="node">
<title>LMacInterface</title>
<g id="a_node6"><a xlink:href="inet.linklayer.lmac.LMacInterface.html" xlink:title="Compound Module LMacInterface" target="_parent">
<polygon fill="#fffcaf" stroke="black" points="310.5,-19 224.5,-19 224.5,0 310.5,0 310.5,-19"/>
<text text-anchor="middle" x="267.5" y="-7" font-family="Helvetica,sans-Serif" font-size="10.00">LMacInterface</text>
</a>
</g>
</g>
<!-- WirelessInterface&#45;&gt;LMacInterface -->
<g id="edge5" class="edge">
<title>WirelessInterface&#45;&gt;LMacInterface</title>
<path fill="none" stroke="black" d="M267.5,-54.75C267.5,-44.87 267.5,-28.9 267.5,-19.09"/>
</g>
<!-- ShortcutInterface -->
<g id="node7" class="node">
<title>ShortcutInterface</title>
<g id="a_node7"><a xlink:href="inet.linklayer.shortcut.ShortcutInterface.html" xlink:title="Compound Module ShortcutInterface" target="_parent">
<polygon fill="#fffcaf" stroke="black" points="430,-19 329,-19 329,0 430,0 430,-19"/>
<text text-anchor="middle" x="379.5" y="-7" font-family="Helvetica,sans-Serif" font-size="10.00">ShortcutInterface</text>
</a>
</g>
</g>
<!-- WirelessInterface&#45;&gt;ShortcutInterface -->
<g id="edge6" class="edge">
<title>WirelessInterface&#45;&gt;ShortcutInterface</title>
<path fill="none" stroke="black" d="M285.49,-54.98C306.27,-45.15 340.26,-29.07 361.18,-19.17"/>
</g>
<!-- XMacInterface -->
<g id="node8" class="node">
<title>XMacInterface</title>
<g id="a_node8"><a xlink:href="inet.linklayer.xmac.XMacInterface.html" xlink:title="Compound Module XMacInterface" target="_parent">
<polygon fill="#fffcaf" stroke="black" points="535,-19 448,-19 448,0 535,0 535,-19"/>
<text text-anchor="middle" x="491.5" y="-7" font-family="Helvetica,sans-Serif" font-size="10.00">XMacInterface</text>
</a>
</g>
</g>
<!-- WirelessInterface&#45;&gt;XMacInterface -->
<g id="edge7" class="edge">
<title>WirelessInterface&#45;&gt;XMacInterface</title>
<path fill="none" stroke="black" d="M303.49,-54.98C345.17,-45.12 413.43,-28.97 455.23,-19.08"/>
</g>
<!-- NetworkInterface -->
<g id="node2" class="node">
<title>NetworkInterface</title>
<g id="a_node2"><a xlink:href="inet.networklayer.common.NetworkInterface.html" xlink:title="Compound Module NetworkInterface" target="_parent">
<polygon fill="#fffcaf" stroke="black" points="258,-129 157,-129 157,-110 258,-110 258,-129"/>
<text text-anchor="middle" x="207.5" y="-117" font-family="Helvetica,sans-Serif" font-size="10.00">NetworkInterface</text>
</a>
</g>
</g>
<!-- NetworkInterface&#45;&gt;WirelessInterface -->
<g id="edge1" class="edge">
<title>NetworkInterface&#45;&gt;WirelessInterface</title>
<path fill="none" stroke="black" d="M217.14,-109.98C228.27,-100.15 246.48,-84.07 257.68,-74.17"/>
</g>
<!-- IWirelessInterface -->
<g id="node3" class="node">
<title>IWirelessInterface</title>
<g id="a_node3"><a xlink:href="inet.linklayer.contract.IWirelessInterface.html" xlink:title="Module Interface IWirelessInterface" target="_parent">
<polygon fill="#fffcaf" stroke="black" stroke-dasharray="5,2" points="381,-129 276,-129 276,-110 381,-110 381,-129"/>
<text text-anchor="middle" x="328.5" y="-117" font-family="Helvetica,sans-Serif" font-size="10.00">IWirelessInterface</text>
</a>
</g>
</g>
<!-- IWirelessInterface&#45;&gt;WirelessInterface -->
<g id="edge2" class="edge">
<title>IWirelessInterface&#45;&gt;WirelessInterface</title>
<path fill="none" stroke="black" stroke-dasharray="5,2" d="M318.7,-109.98C307.38,-100.15 288.87,-84.07 277.48,-74.17"/>
</g>
</g>
</svg>
