<?xml version="1.0" encoding="UTF-8" standalone="no"?>
<!DOCTYPE svg PUBLIC "-//W3C//DTD SVG 1.1//EN"
 "http://www.w3.org/Graphics/SVG/1.1/DTD/svg11.dtd">
<!-- Generated by graphviz version 2.43.0 (0)
 -->
<!-- Title: opp Pages: 1 -->
<svg width="574pt" height="82pt"
 viewBox="0.00 0.00 574.00 82.00" xmlns="http://www.w3.org/2000/svg" xmlns:xlink="http://www.w3.org/1999/xlink">
<g id="graph0" class="graph" transform="scale(1 1) rotate(0) translate(4 78)">
<title>opp</title>
<polygon fill="transparent" stroke="transparent" points="-4,4 -4,-78 570,-78 570,4 -4,4"/>
<!-- ForwardingService -->
<g id="node1" class="node">
<title>ForwardingService</title>
<g id="a_node1"><a xlink:href="inet.protocolelement.service.ForwardingService.html" xlink:title="Compound Module ForwardingService" target="_parent">
<polygon fill="#fff700" stroke="black" points="371,-74 264,-74 264,-55 371,-55 371,-74"/>
<text text-anchor="middle" x="317.5" y="-62" font-family="Helvetica,sans-Serif" font-size="10.00">ForwardingService</text>
</a>
</g>
</g>
<!-- MessageDispatcher -->
<g id="node2" class="node">
<title>MessageDispatcher</title>
<g id="a_node2"><a xlink:href="inet.common.MessageDispatcher.html" xlink:title="Simple Module MessageDispatcher" target="_parent">
<polygon fill="#fffcaf" stroke="black" points="113,-19 0,-19 0,0 113,0 113,-19"/>
<text text-anchor="middle" x="56.5" y="-7" font-family="Helvetica,sans-Serif" font-size="10.00">MessageDispatcher</text>
</a>
</g>
</g>
<!-- ForwardingService&#45;&gt;MessageDispatcher -->
<g id="edge1" class="edge">
<title>ForwardingService&#45;&gt;MessageDispatcher</title>
<path fill="none" stroke="black" d="M275.57,-54.98C230.23,-45.78 157.89,-31.09 108.85,-21.13"/>
<polygon fill="black" stroke="black" points="109.26,-17.64 98.76,-19.08 107.87,-24.5 109.26,-17.64"/>
</g>
<!-- SendWithHopLimit -->
<g id="node3" class="node">
<title>SendWithHopLimit</title>
<g id="a_node3"><a xlink:href="inet.protocolelement.forwarding.SendWithHopLimit.html" xlink:title="Simple Module SendWithHopLimit" target="_parent">
<polygon fill="#fffcaf" stroke="black" points="238,-19 131,-19 131,0 238,0 238,-19"/>
<text text-anchor="middle" x="184.5" y="-7" font-family="Helvetica,sans-Serif" font-size="10.00">SendWithHopLimit</text>
</a>
</g>
</g>
<!-- ForwardingService&#45;&gt;SendWithHopLimit -->
<g id="edge2" class="edge">
<title>ForwardingService&#45;&gt;SendWithHopLimit</title>
<path fill="none" stroke="black" d="M296.13,-54.98C274.35,-46.3 240.34,-32.75 215.58,-22.88"/>
<polygon fill="black" stroke="black" points="216.84,-19.62 206.26,-19.17 214.25,-26.12 216.84,-19.62"/>
</g>
<!-- ReceiveWithHopLimit -->
<g id="node4" class="node">
<title>ReceiveWithHopLimit</title>
<g id="a_node4"><a xlink:href="inet.protocolelement.forwarding.ReceiveWithHopLimit.html" xlink:title="Simple Module ReceiveWithHopLimit" target="_parent">
<polygon fill="#fffcaf" stroke="black" points="378.5,-19 256.5,-19 256.5,0 378.5,0 378.5,-19"/>
<text text-anchor="middle" x="317.5" y="-7" font-family="Helvetica,sans-Serif" font-size="10.00">ReceiveWithHopLimit</text>
</a>
</g>
</g>
<!-- ForwardingService&#45;&gt;ReceiveWithHopLimit -->
<g id="edge3" class="edge">
<title>ForwardingService&#45;&gt;ReceiveWithHopLimit</title>
<path fill="none" stroke="black" d="M317.5,-54.75C317.5,-47.8 317.5,-37.85 317.5,-29.13"/>
<polygon fill="black" stroke="black" points="321,-29.09 317.5,-19.09 314,-29.09 321,-29.09"/>
</g>
<!-- IdealChannel -->
<g id="node5" class="node">
<title>IdealChannel</title>
<g id="a_node5"><a xlink:href="ned.IdealChannel.html" xlink:title="Channel IdealChannel" target="_parent">
<polygon fill="#d0ffd0" stroke="black" points="476.5,-19 396.5,-19 396.5,0 476.5,0 476.5,-19"/>
<text text-anchor="middle" x="436.5" y="-7" font-family="Helvetica,sans-Serif" font-size="10.00">IdealChannel</text>
</a>
</g>
</g>
<!-- ForwardingService&#45;&gt;IdealChannel -->
<g id="edge4" class="edge">
<title>ForwardingService&#45;&gt;IdealChannel</title>
<path fill="none" stroke="black" d="M336.62,-54.98C355.85,-46.42 385.73,-33.11 407.81,-23.28"/>
<polygon fill="black" stroke="black" points="409.32,-26.44 417.03,-19.17 406.47,-20.04 409.32,-26.44"/>
</g>
<!-- Forwarding -->
<g id="node6" class="node">
<title>Forwarding</title>
<g id="a_node6"><a xlink:href="inet.protocolelement.forwarding.Forwarding.html" xlink:title="Simple Module Forwarding" target="_parent">
<polygon fill="#fffcaf" stroke="black" points="566,-19 495,-19 495,0 566,0 566,-19"/>
<text text-anchor="middle" x="530.5" y="-7" font-family="Helvetica,sans-Serif" font-size="10.00">Forwarding</text>
</a>
</g>
</g>
<!-- ForwardingService&#45;&gt;Forwarding -->
<g id="edge5" class="edge">
<title>ForwardingService&#45;&gt;Forwarding</title>
<path fill="none" stroke="black" d="M351.72,-54.98C388.26,-45.89 446.28,-31.46 486.26,-21.51"/>
<polygon fill="black" stroke="black" points="487.15,-24.89 496.01,-19.08 485.46,-18.1 487.15,-24.89"/>
</g>
</g>
</svg>
