<?xml version="1.0" encoding="UTF-8" standalone="no"?>
<!DOCTYPE svg PUBLIC "-//W3C//DTD SVG 1.1//EN"
 "http://www.w3.org/Graphics/SVG/1.1/DTD/svg11.dtd">
<!-- Generated by graphviz version 2.43.0 (0)
 -->
<!-- Title: opp Pages: 1 -->
<svg width="164pt" height="82pt"
 viewBox="0.00 0.00 163.50 82.00" xmlns="http://www.w3.org/2000/svg" xmlns:xlink="http://www.w3.org/1999/xlink">
<g id="graph0" class="graph" transform="scale(1 1) rotate(0) translate(4 78)">
<title>opp</title>
<polygon fill="transparent" stroke="transparent" points="-4,4 -4,-78 159.5,-78 159.5,4 -4,4"/>
<!-- NetworkInterface -->
<g id="node1" class="node">
<title>NetworkInterface</title>
<g id="a_node1"><a xlink:href="inet.networklayer.common.NetworkInterface.html" xlink:title="Compound Module NetworkInterface" target="_parent">
<polygon fill="#fff700" stroke="black" points="120.5,-74 19.5,-74 19.5,-55 120.5,-55 120.5,-74"/>
<text text-anchor="middle" x="70" y="-62" font-family="Helvetica,sans-Serif" font-size="10.00">NetworkInterface</text>
</a>
</g>
</g>
<!-- IClock -->
<g id="node2" class="node">
<title>IClock</title>
<g id="a_node2"><a xlink:href="inet.clock.contract.IClock.html" xlink:title="Module Interface IClock" target="_parent">
<polygon fill="#fffcaf" stroke="black" stroke-dasharray="5,2" points="54,-19 0,-19 0,0 54,0 54,-19"/>
<text text-anchor="middle" x="27" y="-7" font-family="Helvetica,sans-Serif" font-size="10.00">IClock</text>
</a>
</g>
</g>
<!-- NetworkInterface&#45;&gt;IClock -->
<g id="edge1" class="edge">
<title>NetworkInterface&#45;&gt;IClock</title>
<path fill="none" stroke="black" d="M62.9,-54.75C56.83,-47.26 47.91,-36.28 40.49,-27.13"/>
<polygon fill="black" stroke="black" points="42.99,-24.65 33.97,-19.09 37.55,-29.06 42.99,-24.65"/>
</g>
<!-- PcapRecorder -->
<g id="node3" class="node">
<title>PcapRecorder</title>
<g id="a_node3"><a xlink:href="inet.common.packet.recorder.PcapRecorder.html" xlink:title="Simple Module PcapRecorder" target="_parent">
<polygon fill="#fffcaf" stroke="black" points="155.5,-19 72.5,-19 72.5,0 155.5,0 155.5,-19"/>
<text text-anchor="middle" x="114" y="-7" font-family="Helvetica,sans-Serif" font-size="10.00">PcapRecorder</text>
</a>
</g>
</g>
<!-- NetworkInterface&#45;&gt;PcapRecorder -->
<g id="edge2" class="edge">
<title>NetworkInterface&#45;&gt;PcapRecorder</title>
<path fill="none" stroke="black" d="M77.27,-54.75C83.54,-47.18 92.79,-36.05 100.43,-26.84"/>
<polygon fill="black" stroke="black" points="103.17,-29.02 106.87,-19.09 97.79,-24.55 103.17,-29.02"/>
</g>
</g>
</svg>
