<?xml version="1.0" encoding="UTF-8" standalone="no"?>
<!DOCTYPE svg PUBLIC "-//W3C//DTD SVG 1.1//EN"
 "http://www.w3.org/Graphics/SVG/1.1/DTD/svg11.dtd">
<!-- Generated by graphviz version 2.43.0 (0)
 -->
<!-- Title: opp Pages: 1 -->
<svg width="1648pt" height="82pt"
 viewBox="0.00 0.00 1647.50 82.00" xmlns="http://www.w3.org/2000/svg" xmlns:xlink="http://www.w3.org/1999/xlink">
<g id="graph0" class="graph" transform="scale(1 1) rotate(0) translate(4 78)">
<title>opp</title>
<polygon fill="transparent" stroke="transparent" points="-4,4 -4,-78 1643.5,-78 1643.5,4 -4,4"/>
<!-- NetworkInterface -->
<g id="node1" class="node">
<title>NetworkInterface</title>
<g id="a_node1"><a xlink:href="inet.networklayer.common.NetworkInterface.html" xlink:title="Compound Module NetworkInterface" target="_parent">
<polygon fill="#fff700" stroke="black" points="936,-74 835,-74 835,-55 936,-55 936,-74"/>
<text text-anchor="middle" x="885.5" y="-62" font-family="Helvetica,sans-Serif" font-size="10.00">NetworkInterface</text>
</a>
</g>
</g>
<!-- AckingWirelessInterface -->
<g id="node2" class="node">
<title>AckingWirelessInterface</title>
<g id="a_node2"><a xlink:href="inet.linklayer.acking.AckingWirelessInterface.html" xlink:title="Compound Module AckingWirelessInterface" target="_parent">
<polygon fill="#fffcaf" stroke="black" points="135,-19 0,-19 0,0 135,0 135,-19"/>
<text text-anchor="middle" x="67.5" y="-7" font-family="Helvetica,sans-Serif" font-size="10.00">AckingWirelessInterface</text>
</a>
</g>
</g>
<!-- NetworkInterface&#45;&gt;AckingWirelessInterface -->
<g id="edge1" class="edge">
<title>NetworkInterface&#45;&gt;AckingWirelessInterface</title>
<path fill="none" stroke="black" d="M834.61,-61.35C714.28,-56.08 402.91,-41.27 143.5,-19 140.72,-18.76 137.89,-18.5 135.03,-18.23"/>
</g>
<!-- EthernetInterface -->
<g id="node3" class="node">
<title>EthernetInterface</title>
<g id="a_node3"><a xlink:href="inet.linklayer.ethernet.EthernetInterface.html" xlink:title="Compound Module EthernetInterface" target="_parent">
<polygon fill="#fffcaf" stroke="black" points="254,-19 153,-19 153,0 254,0 254,-19"/>
<text text-anchor="middle" x="203.5" y="-7" font-family="Helvetica,sans-Serif" font-size="10.00">EthernetInterface</text>
</a>
</g>
</g>
<!-- NetworkInterface&#45;&gt;EthernetInterface -->
<g id="edge2" class="edge">
<title>NetworkInterface&#45;&gt;EthernetInterface</title>
<path fill="none" stroke="black" d="M834.92,-61.12C728.68,-55.85 474.62,-41.83 262.5,-19 259.72,-18.7 256.87,-18.37 254,-18.02"/>
</g>
<!-- Ieee80211Interface -->
<g id="node4" class="node">
<title>Ieee80211Interface</title>
<g id="a_node4"><a xlink:href="inet.linklayer.ieee80211.Ieee80211Interface.html" xlink:title="Compound Module Ieee80211Interface" target="_parent">
<polygon fill="#fffcaf" stroke="black" points="383,-19 272,-19 272,0 383,0 383,-19"/>
<text text-anchor="middle" x="327.5" y="-7" font-family="Helvetica,sans-Serif" font-size="10.00">Ieee80211Interface</text>
</a>
</g>
</g>
<!-- NetworkInterface&#45;&gt;Ieee80211Interface -->
<g id="edge3" class="edge">
<title>NetworkInterface&#45;&gt;Ieee80211Interface</title>
<path fill="none" stroke="black" d="M834.69,-59.59C745.21,-52.55 553.73,-36.81 392.5,-19 389.45,-18.66 386.31,-18.3 383.15,-17.93"/>
</g>
<!-- Ieee802154NarrowbandInterface -->
<g id="node5" class="node">
<title>Ieee802154NarrowbandInterface</title>
<g id="a_node5"><a xlink:href="inet.linklayer.ieee802154.Ieee802154NarrowbandInterface.html" xlink:title="Compound Module Ieee802154NarrowbandInterface" target="_parent">
<polygon fill="#fffcaf" stroke="black" points="577.5,-19 401.5,-19 401.5,0 577.5,0 577.5,-19"/>
<text text-anchor="middle" x="489.5" y="-7" font-family="Helvetica,sans-Serif" font-size="10.00">Ieee802154NarrowbandInterface</text>
</a>
</g>
</g>
<!-- NetworkInterface&#45;&gt;Ieee802154NarrowbandInterface -->
<g id="edge4" class="edge">
<title>NetworkInterface&#45;&gt;Ieee802154NarrowbandInterface</title>
<path fill="none" stroke="black" d="M834.94,-56.73C763.11,-47.12 631.55,-29.51 553.16,-19.02"/>
</g>
<!-- Ieee802154UwbIrInterface -->
<g id="node6" class="node">
<title>Ieee802154UwbIrInterface</title>
<g id="a_node6"><a xlink:href="inet.linklayer.ieee802154.Ieee802154UwbIrInterface.html" xlink:title="Compound Module Ieee802154UwbIrInterface" target="_parent">
<polygon fill="#fffcaf" stroke="black" points="741.5,-19 595.5,-19 595.5,0 741.5,0 741.5,-19"/>
<text text-anchor="middle" x="668.5" y="-7" font-family="Helvetica,sans-Serif" font-size="10.00">Ieee802154UwbIrInterface</text>
</a>
</g>
</g>
<!-- NetworkInterface&#45;&gt;Ieee802154UwbIrInterface -->
<g id="edge5" class="edge">
<title>NetworkInterface&#45;&gt;Ieee802154UwbIrInterface</title>
<path fill="none" stroke="black" d="M850.64,-54.98C810.26,-45.12 744.13,-28.97 703.64,-19.08"/>
</g>
<!-- Interface -->
<g id="node7" class="node">
<title>Interface</title>
<g id="a_node7"><a xlink:href="inet.tutorials.protocol.Interface.html" xlink:title="Compound Module Interface" target="_parent">
<polygon fill="#fffcaf" stroke="black" points="819.5,-19 759.5,-19 759.5,0 819.5,0 819.5,-19"/>
<text text-anchor="middle" x="789.5" y="-7" font-family="Helvetica,sans-Serif" font-size="10.00">Interface</text>
</a>
</g>
</g>
<!-- NetworkInterface&#45;&gt;Interface -->
<g id="edge6" class="edge">
<title>NetworkInterface&#45;&gt;Interface</title>
<path fill="none" stroke="black" d="M870.08,-54.98C852.27,-45.15 823.13,-29.07 805.2,-19.17"/>
</g>
<!-- InterfaceService -->
<g id="node8" class="node">
<title>InterfaceService</title>
<g id="a_node8"><a xlink:href="inet.protocolelement.service.InterfaceService.html" xlink:title="Compound Module InterfaceService" target="_parent">
<polygon fill="#fffcaf" stroke="black" points="933.5,-19 837.5,-19 837.5,0 933.5,0 933.5,-19"/>
<text text-anchor="middle" x="885.5" y="-7" font-family="Helvetica,sans-Serif" font-size="10.00">InterfaceService</text>
</a>
</g>
</g>
<!-- NetworkInterface&#45;&gt;InterfaceService -->
<g id="edge7" class="edge">
<title>NetworkInterface&#45;&gt;InterfaceService</title>
<path fill="none" stroke="black" d="M885.5,-54.75C885.5,-44.87 885.5,-28.9 885.5,-19.09"/>
</g>
<!-- LayeredEthernetInterface -->
<g id="node9" class="node">
<title>LayeredEthernetInterface</title>
<g id="a_node9"><a xlink:href="inet.linklayer.ethernet.LayeredEthernetInterface.html" xlink:title="Compound Module LayeredEthernetInterface" target="_parent">
<polygon fill="#fffcaf" stroke="black" points="1091.5,-19 951.5,-19 951.5,0 1091.5,0 1091.5,-19"/>
<text text-anchor="middle" x="1021.5" y="-7" font-family="Helvetica,sans-Serif" font-size="10.00">LayeredEthernetInterface</text>
</a>
</g>
</g>
<!-- NetworkInterface&#45;&gt;LayeredEthernetInterface -->
<g id="edge8" class="edge">
<title>NetworkInterface&#45;&gt;LayeredEthernetInterface</title>
<path fill="none" stroke="black" d="M907.35,-54.98C932.58,-45.15 973.86,-29.07 999.25,-19.17"/>
</g>
<!-- LoopbackInterface -->
<g id="node10" class="node">
<title>LoopbackInterface</title>
<g id="a_node10"><a xlink:href="inet.linklayer.loopback.LoopbackInterface.html" xlink:title="Compound Module LoopbackInterface" target="_parent">
<polygon fill="#fffcaf" stroke="black" points="1217,-19 1110,-19 1110,0 1217,0 1217,-19"/>
<text text-anchor="middle" x="1163.5" y="-7" font-family="Helvetica,sans-Serif" font-size="10.00">LoopbackInterface</text>
</a>
</g>
</g>
<!-- NetworkInterface&#45;&gt;LoopbackInterface -->
<g id="edge9" class="edge">
<title>NetworkInterface&#45;&gt;LoopbackInterface</title>
<path fill="none" stroke="black" d="M930.17,-54.98C981.89,-45.12 1066.61,-28.97 1118.48,-19.08"/>
</g>
<!-- PppInterface -->
<g id="node11" class="node">
<title>PppInterface</title>
<g id="a_node11"><a xlink:href="inet.linklayer.ppp.PppInterface.html" xlink:title="Compound Module PppInterface" target="_parent">
<polygon fill="#fffcaf" stroke="black" points="1313.5,-19 1235.5,-19 1235.5,0 1313.5,0 1313.5,-19"/>
<text text-anchor="middle" x="1274.5" y="-7" font-family="Helvetica,sans-Serif" font-size="10.00">PppInterface</text>
</a>
</g>
</g>
<!-- NetworkInterface&#45;&gt;PppInterface -->
<g id="edge10" class="edge">
<title>NetworkInterface&#45;&gt;PppInterface</title>
<path fill="none" stroke="black" d="M936.15,-57.62C1002.84,-49.71 1123.67,-34.81 1226.5,-19 1229.43,-18.55 1232.45,-18.06 1235.49,-17.56"/>
</g>
<!-- TunInterface -->
<g id="node12" class="node">
<title>TunInterface</title>
<g id="a_node12"><a xlink:href="inet.linklayer.tun.TunInterface.html" xlink:title="Compound Module TunInterface" target="_parent">
<polygon fill="#fffcaf" stroke="black" points="1409,-19 1332,-19 1332,0 1409,0 1409,-19"/>
<text text-anchor="middle" x="1370.5" y="-7" font-family="Helvetica,sans-Serif" font-size="10.00">TunInterface</text>
</a>
</g>
</g>
<!-- NetworkInterface&#45;&gt;TunInterface -->
<g id="edge11" class="edge">
<title>NetworkInterface&#45;&gt;TunInterface</title>
<path fill="none" stroke="black" d="M936.11,-59.57C1017.67,-52.95 1183.14,-38.41 1322.5,-19 1325.52,-18.58 1328.64,-18.11 1331.77,-17.61"/>
</g>
<!-- VirtualInterface -->
<g id="node13" class="node">
<title>VirtualInterface</title>
<g id="a_node13"><a xlink:href="inet.linklayer.virtual.VirtualInterface.html" xlink:title="Compound Module VirtualInterface" target="_parent">
<polygon fill="#fffcaf" stroke="black" points="1519.5,-19 1427.5,-19 1427.5,0 1519.5,0 1519.5,-19"/>
<text text-anchor="middle" x="1473.5" y="-7" font-family="Helvetica,sans-Serif" font-size="10.00">VirtualInterface</text>
</a>
</g>
</g>
<!-- NetworkInterface&#45;&gt;VirtualInterface -->
<g id="edge12" class="edge">
<title>NetworkInterface&#45;&gt;VirtualInterface</title>
<path fill="none" stroke="black" d="M936.33,-60.45C1031.27,-54.48 1241.92,-39.99 1418.5,-19 1421.38,-18.66 1424.34,-18.28 1427.32,-17.88"/>
</g>
<!-- WirelessInterface -->
<g id="node14" class="node">
<title>WirelessInterface</title>
<g id="a_node14"><a xlink:href="inet.linklayer.common.WirelessInterface.html" xlink:title="Compound Module WirelessInterface" target="_parent">
<polygon fill="#fffcaf" stroke="black" points="1639.5,-19 1537.5,-19 1537.5,0 1639.5,0 1639.5,-19"/>
<text text-anchor="middle" x="1588.5" y="-7" font-family="Helvetica,sans-Serif" font-size="10.00">WirelessInterface</text>
</a>
</g>
</g>
<!-- NetworkInterface&#45;&gt;WirelessInterface -->
<g id="edge13" class="edge">
<title>NetworkInterface&#45;&gt;WirelessInterface</title>
<path fill="none" stroke="black" d="M936.04,-61.24C1044.68,-56.1 1308.44,-42.17 1528.5,-19 1531.43,-18.69 1534.44,-18.35 1537.47,-17.98"/>
</g>
</g>
</svg>
