<?xml version="1.0" encoding="UTF-8" standalone="no"?>
<!DOCTYPE svg PUBLIC "-//W3C//DTD SVG 1.1//EN"
 "http://www.w3.org/Graphics/SVG/1.1/DTD/svg11.dtd">
<!-- Generated by graphviz version 2.43.0 (0)
 -->
<!-- Title: opp Pages: 1 -->
<svg width="254pt" height="82pt"
 viewBox="0.00 0.00 254.00 82.00" xmlns="http://www.w3.org/2000/svg" xmlns:xlink="http://www.w3.org/1999/xlink">
<g id="graph0" class="graph" transform="scale(1 1) rotate(0) translate(4 78)">
<title>opp</title>
<polygon fill="transparent" stroke="transparent" points="-4,4 -4,-78 250,-78 250,4 -4,4"/>
<!-- IEnergyGenerator -->
<g id="node1" class="node">
<title>IEnergyGenerator</title>
<g id="a_node1"><a xlink:href="inet.power.contract.IEnergyGenerator.html" xlink:title="Module Interface IEnergyGenerator" target="_parent">
<polygon fill="#fff700" stroke="black" stroke-dasharray="5,2" points="174,-74 72,-74 72,-55 174,-55 174,-74"/>
<text text-anchor="middle" x="123" y="-62" font-family="Helvetica,sans-Serif" font-size="10.00">IEnergyGenerator</text>
</a>
</g>
</g>
<!-- ICcEnergyGenerator -->
<g id="node2" class="node">
<title>ICcEnergyGenerator</title>
<g id="a_node2"><a xlink:href="inet.power.contract.ICcEnergyGenerator.html" xlink:title="Module Interface ICcEnergyGenerator" target="_parent">
<polygon fill="#fffcaf" stroke="black" stroke-dasharray="5,2" points="114,-19 0,-19 0,0 114,0 114,-19"/>
<text text-anchor="middle" x="57" y="-7" font-family="Helvetica,sans-Serif" font-size="10.00">ICcEnergyGenerator</text>
</a>
</g>
</g>
<!-- IEnergyGenerator&#45;&gt;ICcEnergyGenerator -->
<g id="edge1" class="edge">
<title>IEnergyGenerator&#45;&gt;ICcEnergyGenerator</title>
<path fill="none" stroke="black" d="M112.4,-54.98C100.15,-45.15 80.12,-29.07 67.8,-19.17"/>
</g>
<!-- IEpEnergyGenerator -->
<g id="node3" class="node">
<title>IEpEnergyGenerator</title>
<g id="a_node3"><a xlink:href="inet.power.contract.IEpEnergyGenerator.html" xlink:title="Module Interface IEpEnergyGenerator" target="_parent">
<polygon fill="#fffcaf" stroke="black" stroke-dasharray="5,2" points="246,-19 132,-19 132,0 246,0 246,-19"/>
<text text-anchor="middle" x="189" y="-7" font-family="Helvetica,sans-Serif" font-size="10.00">IEpEnergyGenerator</text>
</a>
</g>
</g>
<!-- IEnergyGenerator&#45;&gt;IEpEnergyGenerator -->
<g id="edge2" class="edge">
<title>IEnergyGenerator&#45;&gt;IEpEnergyGenerator</title>
<path fill="none" stroke="black" d="M133.6,-54.98C145.85,-45.15 165.88,-29.07 178.2,-19.17"/>
</g>
</g>
</svg>
