<?xml version="1.0" encoding="UTF-8" standalone="no"?>
<!DOCTYPE svg PUBLIC "-//W3C//DTD SVG 1.1//EN"
 "http://www.w3.org/Graphics/SVG/1.1/DTD/svg11.dtd">
<!-- Generated by graphviz version 2.43.0 (0)
 -->
<!-- Title: opp Pages: 1 -->
<svg width="250pt" height="137pt"
 viewBox="0.00 0.00 249.50 137.00" xmlns="http://www.w3.org/2000/svg" xmlns:xlink="http://www.w3.org/1999/xlink">
<g id="graph0" class="graph" transform="scale(1 1) rotate(0) translate(4 133)">
<title>opp</title>
<polygon fill="transparent" stroke="transparent" points="-4,4 -4,-133 245.5,-133 245.5,4 -4,4"/>
<!-- ProbabilisticBroadcast -->
<g id="node1" class="node">
<title>ProbabilisticBroadcast</title>
<g id="a_node1"><a xlink:href="inet.networklayer.probabilistic.ProbabilisticBroadcast.html" xlink:title="Simple Module ProbabilisticBroadcast" target="_parent">
<polygon fill="#fff700" stroke="black" points="188.5,-74 63.5,-74 63.5,-55 188.5,-55 188.5,-74"/>
<text text-anchor="middle" x="126" y="-62" font-family="Helvetica,sans-Serif" font-size="10.00">ProbabilisticBroadcast</text>
</a>
</g>
</g>
<!-- AdaptiveProbabilisticBroadcast -->
<g id="node4" class="node">
<title>AdaptiveProbabilisticBroadcast</title>
<g id="a_node4"><a xlink:href="inet.networklayer.probabilistic.AdaptiveProbabilisticBroadcast.html" xlink:title="Simple Module AdaptiveProbabilisticBroadcast" target="_parent">
<polygon fill="#fffcaf" stroke="black" points="210.5,-19 41.5,-19 41.5,0 210.5,0 210.5,-19"/>
<text text-anchor="middle" x="126" y="-7" font-family="Helvetica,sans-Serif" font-size="10.00">AdaptiveProbabilisticBroadcast</text>
</a>
</g>
</g>
<!-- ProbabilisticBroadcast&#45;&gt;AdaptiveProbabilisticBroadcast -->
<g id="edge3" class="edge">
<title>ProbabilisticBroadcast&#45;&gt;AdaptiveProbabilisticBroadcast</title>
<path fill="none" stroke="black" d="M126,-54.75C126,-44.87 126,-28.9 126,-19.09"/>
</g>
<!-- NetworkProtocolBase -->
<g id="node2" class="node">
<title>NetworkProtocolBase</title>
<g id="a_node2"><a xlink:href="inet.networklayer.base.NetworkProtocolBase.html" xlink:title="Simple Module NetworkProtocolBase" target="_parent">
<polygon fill="#fffcaf" stroke="black" points="122,-129 0,-129 0,-110 122,-110 122,-129"/>
<text text-anchor="middle" x="61" y="-117" font-family="Helvetica,sans-Serif" font-size="10.00">NetworkProtocolBase</text>
</a>
</g>
</g>
<!-- NetworkProtocolBase&#45;&gt;ProbabilisticBroadcast -->
<g id="edge1" class="edge">
<title>NetworkProtocolBase&#45;&gt;ProbabilisticBroadcast</title>
<path fill="none" stroke="black" d="M71.44,-109.98C83.5,-100.15 103.23,-84.07 115.37,-74.17"/>
</g>
<!-- INetworkProtocol -->
<g id="node3" class="node">
<title>INetworkProtocol</title>
<g id="a_node3"><a xlink:href="inet.networklayer.contract.INetworkProtocol.html" xlink:title="Module Interface INetworkProtocol" target="_parent">
<polygon fill="#fffcaf" stroke="black" stroke-dasharray="5,2" points="241.5,-129 140.5,-129 140.5,-110 241.5,-110 241.5,-129"/>
<text text-anchor="middle" x="191" y="-117" font-family="Helvetica,sans-Serif" font-size="10.00">INetworkProtocol</text>
</a>
</g>
</g>
<!-- INetworkProtocol&#45;&gt;ProbabilisticBroadcast -->
<g id="edge2" class="edge">
<title>INetworkProtocol&#45;&gt;ProbabilisticBroadcast</title>
<path fill="none" stroke="black" stroke-dasharray="5,2" d="M180.56,-109.98C168.5,-100.15 148.77,-84.07 136.63,-74.17"/>
</g>
</g>
</svg>
