<?xml version="1.0" encoding="UTF-8" standalone="no"?>
<!DOCTYPE svg PUBLIC "-//W3C//DTD SVG 1.1//EN"
 "http://www.w3.org/Graphics/SVG/1.1/DTD/svg11.dtd">
<!-- Generated by graphviz version 2.43.0 (0)
 -->
<!-- Title: opp Pages: 1 -->
<svg width="280pt" height="137pt"
 viewBox="0.00 0.00 279.50 137.00" xmlns="http://www.w3.org/2000/svg" xmlns:xlink="http://www.w3.org/1999/xlink">
<g id="graph0" class="graph" transform="scale(1 1) rotate(0) translate(4 133)">
<title>opp</title>
<polygon fill="transparent" stroke="transparent" points="-4,4 -4,-133 275.5,-133 275.5,4 -4,4"/>
<!-- DriftingOscillatorBase -->
<g id="node1" class="node">
<title>DriftingOscillatorBase</title>
<g id="a_node1"><a xlink:href="inet.clock.base.DriftingOscillatorBase.html" xlink:title="Simple Module DriftingOscillatorBase" target="_parent">
<polygon fill="#fff700" stroke="black" points="197.5,-74 74.5,-74 74.5,-55 197.5,-55 197.5,-74"/>
<text text-anchor="middle" x="136" y="-62" font-family="Helvetica,sans-Serif" font-size="10.00">DriftingOscillatorBase</text>
</a>
</g>
</g>
<!-- ConstantDriftOscillator -->
<g id="node3" class="node">
<title>ConstantDriftOscillator</title>
<g id="a_node3"><a xlink:href="inet.clock.oscillator.ConstantDriftOscillator.html" xlink:title="Simple Module ConstantDriftOscillator" target="_parent">
<polygon fill="#fffcaf" stroke="black" points="128,-19 0,-19 0,0 128,0 128,-19"/>
<text text-anchor="middle" x="64" y="-7" font-family="Helvetica,sans-Serif" font-size="10.00">ConstantDriftOscillator</text>
</a>
</g>
</g>
<!-- DriftingOscillatorBase&#45;&gt;ConstantDriftOscillator -->
<g id="edge2" class="edge">
<title>DriftingOscillatorBase&#45;&gt;ConstantDriftOscillator</title>
<path fill="none" stroke="black" d="M124.43,-54.98C111.08,-45.15 89.22,-29.07 75.78,-19.17"/>
</g>
<!-- RandomDriftOscillator -->
<g id="node4" class="node">
<title>RandomDriftOscillator</title>
<g id="a_node4"><a xlink:href="inet.clock.oscillator.RandomDriftOscillator.html" xlink:title="Simple Module RandomDriftOscillator" target="_parent">
<polygon fill="#fffcaf" stroke="black" points="271.5,-19 146.5,-19 146.5,0 271.5,0 271.5,-19"/>
<text text-anchor="middle" x="209" y="-7" font-family="Helvetica,sans-Serif" font-size="10.00">RandomDriftOscillator</text>
</a>
</g>
</g>
<!-- DriftingOscillatorBase&#45;&gt;RandomDriftOscillator -->
<g id="edge3" class="edge">
<title>DriftingOscillatorBase&#45;&gt;RandomDriftOscillator</title>
<path fill="none" stroke="black" d="M147.73,-54.98C161.27,-45.15 183.43,-29.07 197.06,-19.17"/>
</g>
<!-- OscillatorBase -->
<g id="node2" class="node">
<title>OscillatorBase</title>
<g id="a_node2"><a xlink:href="inet.clock.base.OscillatorBase.html" xlink:title="Simple Module OscillatorBase" target="_parent">
<polygon fill="#fffcaf" stroke="black" points="179.5,-129 92.5,-129 92.5,-110 179.5,-110 179.5,-129"/>
<text text-anchor="middle" x="136" y="-117" font-family="Helvetica,sans-Serif" font-size="10.00">OscillatorBase</text>
</a>
</g>
</g>
<!-- OscillatorBase&#45;&gt;DriftingOscillatorBase -->
<g id="edge1" class="edge">
<title>OscillatorBase&#45;&gt;DriftingOscillatorBase</title>
<path fill="none" stroke="black" d="M136,-109.75C136,-99.87 136,-83.9 136,-74.09"/>
</g>
</g>
</svg>
