<?xml version="1.0" encoding="UTF-8" standalone="no"?>
<!DOCTYPE svg PUBLIC "-//W3C//DTD SVG 1.1//EN"
 "http://www.w3.org/Graphics/SVG/1.1/DTD/svg11.dtd">
<!-- Generated by graphviz version 2.43.0 (0)
 -->
<!-- Title: opp Pages: 1 -->
<svg width="434pt" height="137pt"
 viewBox="0.00 0.00 434.00 137.00" xmlns="http://www.w3.org/2000/svg" xmlns:xlink="http://www.w3.org/1999/xlink">
<g id="graph0" class="graph" transform="scale(1 1) rotate(0) translate(4 133)">
<title>opp</title>
<polygon fill="transparent" stroke="transparent" points="-4,4 -4,-133 430,-133 430,4 -4,4"/>
<!-- PacketServerBase -->
<g id="node1" class="node">
<title>PacketServerBase</title>
<g id="a_node1"><a xlink:href="inet.queueing.base.PacketServerBase.html" xlink:title="Simple Module PacketServerBase" target="_parent">
<polygon fill="#fff700" stroke="black" points="247,-74 143,-74 143,-55 247,-55 247,-74"/>
<text text-anchor="middle" x="195" y="-62" font-family="Helvetica,sans-Serif" font-size="10.00">PacketServerBase</text>
</a>
</g>
</g>
<!-- InstantServer -->
<g id="node3" class="node">
<title>InstantServer</title>
<g id="a_node3"><a xlink:href="inet.queueing.server.InstantServer.html" xlink:title="Simple Module InstantServer" target="_parent">
<polygon fill="#fffcaf" stroke="black" points="82,-19 0,-19 0,0 82,0 82,-19"/>
<text text-anchor="middle" x="41" y="-7" font-family="Helvetica,sans-Serif" font-size="10.00">InstantServer</text>
</a>
</g>
</g>
<!-- PacketServerBase&#45;&gt;InstantServer -->
<g id="edge2" class="edge">
<title>PacketServerBase&#45;&gt;InstantServer</title>
<path fill="none" stroke="black" d="M170.26,-54.98C141.6,-45.12 94.67,-28.97 65.94,-19.08"/>
</g>
<!-- PacketServer -->
<g id="node4" class="node">
<title>PacketServer</title>
<g id="a_node4"><a xlink:href="inet.queueing.server.PacketServer.html" xlink:title="Simple Module PacketServer" target="_parent">
<polygon fill="#fffcaf" stroke="black" points="180,-19 100,-19 100,0 180,0 180,-19"/>
<text text-anchor="middle" x="140" y="-7" font-family="Helvetica,sans-Serif" font-size="10.00">PacketServer</text>
</a>
</g>
</g>
<!-- PacketServerBase&#45;&gt;PacketServer -->
<g id="edge3" class="edge">
<title>PacketServerBase&#45;&gt;PacketServer</title>
<path fill="none" stroke="black" d="M185.92,-54.75C175.67,-44.87 159.09,-28.9 148.91,-19.09"/>
</g>
<!-- PreemptingServer -->
<g id="node5" class="node">
<title>PreemptingServer</title>
<g id="a_node5"><a xlink:href="inet.queueing.server.PreemptingServer.html" xlink:title="Simple Module PreemptingServer" target="_parent">
<polygon fill="#fffcaf" stroke="black" points="302,-19 198,-19 198,0 302,0 302,-19"/>
<text text-anchor="middle" x="250" y="-7" font-family="Helvetica,sans-Serif" font-size="10.00">PreemptingServer</text>
</a>
</g>
</g>
<!-- PacketServerBase&#45;&gt;PreemptingServer -->
<g id="edge4" class="edge">
<title>PacketServerBase&#45;&gt;PreemptingServer</title>
<path fill="none" stroke="black" d="M204.08,-54.75C214.33,-44.87 230.91,-28.9 241.09,-19.09"/>
</g>
<!-- TokenBasedServer -->
<g id="node6" class="node">
<title>TokenBasedServer</title>
<g id="a_node6"><a xlink:href="inet.queueing.server.TokenBasedServer.html" xlink:title="Simple Module TokenBasedServer" target="_parent">
<polygon fill="#fffcaf" stroke="black" points="426,-19 320,-19 320,0 426,0 426,-19"/>
<text text-anchor="middle" x="373" y="-7" font-family="Helvetica,sans-Serif" font-size="10.00">TokenBasedServer</text>
</a>
</g>
</g>
<!-- PacketServerBase&#45;&gt;TokenBasedServer -->
<g id="edge5" class="edge">
<title>PacketServerBase&#45;&gt;TokenBasedServer</title>
<path fill="none" stroke="black" d="M223.6,-54.98C256.72,-45.12 310.96,-28.97 344.18,-19.08"/>
</g>
<!-- PacketProcessorBase -->
<g id="node2" class="node">
<title>PacketProcessorBase</title>
<g id="a_node2"><a xlink:href="inet.queueing.base.PacketProcessorBase.html" xlink:title="Simple Module PacketProcessorBase" target="_parent">
<polygon fill="#fffcaf" stroke="black" points="254.5,-129 135.5,-129 135.5,-110 254.5,-110 254.5,-129"/>
<text text-anchor="middle" x="195" y="-117" font-family="Helvetica,sans-Serif" font-size="10.00">PacketProcessorBase</text>
</a>
</g>
</g>
<!-- PacketProcessorBase&#45;&gt;PacketServerBase -->
<g id="edge1" class="edge">
<title>PacketProcessorBase&#45;&gt;PacketServerBase</title>
<path fill="none" stroke="black" d="M195,-109.75C195,-99.87 195,-83.9 195,-74.09"/>
</g>
</g>
</svg>
