<?xml version="1.0" encoding="UTF-8" standalone="no"?>
<!DOCTYPE svg PUBLIC "-//W3C//DTD SVG 1.1//EN"
 "http://www.w3.org/Graphics/SVG/1.1/DTD/svg11.dtd">
<!-- Generated by graphviz version 2.43.0 (0)
 -->
<!-- Title: opp Pages: 1 -->
<svg width="443pt" height="82pt"
 viewBox="0.00 0.00 443.00 82.00" xmlns="http://www.w3.org/2000/svg" xmlns:xlink="http://www.w3.org/1999/xlink">
<g id="graph0" class="graph" transform="scale(1 1) rotate(0) translate(4 78)">
<title>opp</title>
<polygon fill="transparent" stroke="transparent" points="-4,4 -4,-78 439,-78 439,4 -4,4"/>
<!-- IMeasurementLayer -->
<g id="node1" class="node">
<title>IMeasurementLayer</title>
<g id="a_node1"><a xlink:href="inet.protocolelement.measurement.IMeasurementLayer.html" xlink:title="Module Interface IMeasurementLayer" target="_parent">
<polygon fill="#fff700" stroke="black" stroke-dasharray="5,2" points="254.5,-74 140.5,-74 140.5,-55 254.5,-55 254.5,-74"/>
<text text-anchor="middle" x="197.5" y="-62" font-family="Helvetica,sans-Serif" font-size="10.00">IMeasurementLayer</text>
</a>
</g>
</g>
<!-- MeasurementLayer -->
<g id="node2" class="node">
<title>MeasurementLayer</title>
<g id="a_node2"><a xlink:href="inet.protocolelement.measurement.MeasurementLayer.html" xlink:title="Compound Module MeasurementLayer" target="_parent">
<polygon fill="#fffcaf" stroke="black" points="111,-19 0,-19 0,0 111,0 111,-19"/>
<text text-anchor="middle" x="55.5" y="-7" font-family="Helvetica,sans-Serif" font-size="10.00">MeasurementLayer</text>
</a>
</g>
</g>
<!-- IMeasurementLayer&#45;&gt;MeasurementLayer -->
<g id="edge1" class="edge">
<title>IMeasurementLayer&#45;&gt;MeasurementLayer</title>
<path fill="none" stroke="black" stroke-dasharray="5,2" d="M174.69,-54.98C148.34,-45.15 105.25,-29.07 78.73,-19.17"/>
</g>
<!-- MultiMeasurementLayer -->
<g id="node3" class="node">
<title>MultiMeasurementLayer</title>
<g id="a_node3"><a xlink:href="inet.protocolelement.measurement.MultiMeasurementLayer.html" xlink:title="Compound Module MultiMeasurementLayer" target="_parent">
<polygon fill="#fffcaf" stroke="black" points="265.5,-19 129.5,-19 129.5,0 265.5,0 265.5,-19"/>
<text text-anchor="middle" x="197.5" y="-7" font-family="Helvetica,sans-Serif" font-size="10.00">MultiMeasurementLayer</text>
</a>
</g>
</g>
<!-- IMeasurementLayer&#45;&gt;MultiMeasurementLayer -->
<g id="edge2" class="edge">
<title>IMeasurementLayer&#45;&gt;MultiMeasurementLayer</title>
<path fill="none" stroke="black" stroke-dasharray="5,2" d="M197.5,-54.75C197.5,-44.87 197.5,-28.9 197.5,-19.09"/>
</g>
<!-- OmittedMeasurementLayer -->
<g id="node4" class="node">
<title>OmittedMeasurementLayer</title>
<g id="a_node4"><a xlink:href="inet.protocolelement.measurement.OmittedMeasurementLayer.html" xlink:title="Compound Module OmittedMeasurementLayer" target="_parent">
<polygon fill="#fffcaf" stroke="black" points="435,-19 284,-19 284,0 435,0 435,-19"/>
<text text-anchor="middle" x="359.5" y="-7" font-family="Helvetica,sans-Serif" font-size="10.00">OmittedMeasurementLayer</text>
</a>
</g>
</g>
<!-- IMeasurementLayer&#45;&gt;OmittedMeasurementLayer -->
<g id="edge3" class="edge">
<title>IMeasurementLayer&#45;&gt;OmittedMeasurementLayer</title>
<path fill="none" stroke="black" stroke-dasharray="5,2" d="M223.53,-54.98C253.67,-45.12 303.04,-28.97 333.27,-19.08"/>
</g>
</g>
</svg>
