<?xml version="1.0" encoding="UTF-8" standalone="no"?>
<!DOCTYPE svg PUBLIC "-//W3C//DTD SVG 1.1//EN"
 "http://www.w3.org/Graphics/SVG/1.1/DTD/svg11.dtd">
<!-- Generated by graphviz version 2.43.0 (0)
 -->
<!-- Title: opp Pages: 1 -->
<svg width="294pt" height="82pt"
 viewBox="0.00 0.00 293.50 82.00" xmlns="http://www.w3.org/2000/svg" xmlns:xlink="http://www.w3.org/1999/xlink">
<g id="graph0" class="graph" transform="scale(1 1) rotate(0) translate(4 78)">
<title>opp</title>
<polygon fill="transparent" stroke="transparent" points="-4,4 -4,-78 289.5,-78 289.5,4 -4,4"/>
<!-- ExampleNetworkTutorialStep -->
<g id="node1" class="node">
<title>ExampleNetworkTutorialStep</title>
<g id="a_node1"><a xlink:href="inet.tutorials.queueing.ExampleNetworkTutorialStep.html" xlink:title="Network ExampleNetworkTutorialStep" target="_parent">
<polygon fill="#9090ff" stroke="black" points="225.5,-74 67.5,-74 67.5,-55 225.5,-55 225.5,-74"/>
<text text-anchor="middle" x="146.5" y="-62" font-family="Helvetica,sans-Serif" font-size="10.00">ExampleNetworkTutorialStep</text>
</a>
</g>
</g>
<!-- ExampleCable -->
<g id="node2" class="node">
<title>ExampleCable</title>
<g id="a_node2"><a xlink:href="inet.tutorials.queueing.ExampleCable.html" xlink:title="Compound Module ExampleCable" target="_parent">
<polygon fill="#fffcaf" stroke="black" points="87,-19 0,-19 0,0 87,0 87,-19"/>
<text text-anchor="middle" x="43.5" y="-7" font-family="Helvetica,sans-Serif" font-size="10.00">ExampleCable</text>
</a>
</g>
</g>
<!-- ExampleNetworkTutorialStep&#45;&gt;ExampleCable -->
<g id="edge1" class="edge">
<title>ExampleNetworkTutorialStep&#45;&gt;ExampleCable</title>
<path fill="none" stroke="black" d="M129.95,-54.98C113.61,-46.57 88.37,-33.59 69.37,-23.81"/>
<polygon fill="black" stroke="black" points="70.84,-20.63 60.35,-19.17 67.64,-26.86 70.84,-20.63"/>
</g>
<!-- ExampleHost -->
<g id="node3" class="node">
<title>ExampleHost</title>
<g id="a_node3"><a xlink:href="inet.tutorials.queueing.ExampleHost.html" xlink:title="Compound Module ExampleHost" target="_parent">
<polygon fill="#fffcaf" stroke="black" points="187.5,-19 105.5,-19 105.5,0 187.5,0 187.5,-19"/>
<text text-anchor="middle" x="146.5" y="-7" font-family="Helvetica,sans-Serif" font-size="10.00">ExampleHost</text>
</a>
</g>
</g>
<!-- ExampleNetworkTutorialStep&#45;&gt;ExampleHost -->
<g id="edge2" class="edge">
<title>ExampleNetworkTutorialStep&#45;&gt;ExampleHost</title>
<path fill="none" stroke="black" d="M146.5,-54.75C146.5,-47.8 146.5,-37.85 146.5,-29.13"/>
<polygon fill="black" stroke="black" points="150,-29.09 146.5,-19.09 143,-29.09 150,-29.09"/>
</g>
<!-- IdealChannel -->
<g id="node4" class="node">
<title>IdealChannel</title>
<g id="a_node4"><a xlink:href="ned.IdealChannel.html" xlink:title="Channel IdealChannel" target="_parent">
<polygon fill="#d0ffd0" stroke="black" points="285.5,-19 205.5,-19 205.5,0 285.5,0 285.5,-19"/>
<text text-anchor="middle" x="245.5" y="-7" font-family="Helvetica,sans-Serif" font-size="10.00">IdealChannel</text>
</a>
</g>
</g>
<!-- ExampleNetworkTutorialStep&#45;&gt;IdealChannel -->
<g id="edge3" class="edge">
<title>ExampleNetworkTutorialStep&#45;&gt;IdealChannel</title>
<path fill="none" stroke="black" d="M162.41,-54.98C178.05,-46.61 202.16,-33.7 220.38,-23.95"/>
<polygon fill="black" stroke="black" points="222.14,-26.98 229.3,-19.17 218.84,-20.8 222.14,-26.98"/>
</g>
</g>
</svg>
