<?xml version="1.0" encoding="UTF-8" standalone="no"?>
<!DOCTYPE svg PUBLIC "-//W3C//DTD SVG 1.1//EN"
 "http://www.w3.org/Graphics/SVG/1.1/DTD/svg11.dtd">
<!-- Generated by graphviz version 2.43.0 (0)
 -->
<!-- Title: opp Pages: 1 -->
<svg width="180pt" height="82pt"
 viewBox="0.00 0.00 180.00 82.00" xmlns="http://www.w3.org/2000/svg" xmlns:xlink="http://www.w3.org/1999/xlink">
<g id="graph0" class="graph" transform="scale(1 1) rotate(0) translate(4 78)">
<title>opp</title>
<polygon fill="transparent" stroke="transparent" points="-4,4 -4,-78 176,-78 176,4 -4,4"/>
<!-- StreamCoderLayer -->
<g id="node1" class="node">
<title>StreamCoderLayer</title>
<g id="a_node1"><a xlink:href="inet.protocolelement.redundancy.StreamCoderLayer.html" xlink:title="Compound Module StreamCoderLayer" target="_parent">
<polygon fill="#fff700" stroke="black" points="137.5,-74 30.5,-74 30.5,-55 137.5,-55 137.5,-74"/>
<text text-anchor="middle" x="84" y="-62" font-family="Helvetica,sans-Serif" font-size="10.00">StreamCoderLayer</text>
</a>
</g>
</g>
<!-- IPacketFlow -->
<g id="node2" class="node">
<title>IPacketFlow</title>
<g id="a_node2"><a xlink:href="inet.queueing.contract.IPacketFlow.html" xlink:title="Module Interface IPacketFlow" target="_parent">
<polygon fill="#fffcaf" stroke="black" stroke-dasharray="5,2" points="74,-19 0,-19 0,0 74,0 74,-19"/>
<text text-anchor="middle" x="37" y="-7" font-family="Helvetica,sans-Serif" font-size="10.00">IPacketFlow</text>
</a>
</g>
</g>
<!-- StreamCoderLayer&#45;&gt;IPacketFlow -->
<g id="edge1" class="edge">
<title>StreamCoderLayer&#45;&gt;IPacketFlow</title>
<path fill="none" stroke="black" d="M76.24,-54.75C69.53,-47.18 59.66,-36.05 51.49,-26.84"/>
<polygon fill="black" stroke="black" points="53.87,-24.25 44.62,-19.09 48.63,-28.89 53.87,-24.25"/>
</g>
<!-- IdealChannel -->
<g id="node3" class="node">
<title>IdealChannel</title>
<g id="a_node3"><a xlink:href="ned.IdealChannel.html" xlink:title="Channel IdealChannel" target="_parent">
<polygon fill="#d0ffd0" stroke="black" points="172,-19 92,-19 92,0 172,0 172,-19"/>
<text text-anchor="middle" x="132" y="-7" font-family="Helvetica,sans-Serif" font-size="10.00">IdealChannel</text>
</a>
</g>
</g>
<!-- StreamCoderLayer&#45;&gt;IdealChannel -->
<g id="edge2" class="edge">
<title>StreamCoderLayer&#45;&gt;IdealChannel</title>
<path fill="none" stroke="black" d="M91.93,-54.75C98.85,-47.11 109.07,-35.82 117.45,-26.56"/>
<polygon fill="black" stroke="black" points="120.1,-28.85 124.22,-19.09 114.91,-24.15 120.1,-28.85"/>
</g>
</g>
</svg>
