<?xml version="1.0" encoding="UTF-8" standalone="no"?>
<!DOCTYPE svg PUBLIC "-//W3C//DTD SVG 1.1//EN"
 "http://www.w3.org/Graphics/SVG/1.1/DTD/svg11.dtd">
<!-- Generated by graphviz version 2.43.0 (0)
 -->
<!-- Title: opp Pages: 1 -->
<svg width="338pt" height="82pt"
 viewBox="0.00 0.00 338.00 82.00" xmlns="http://www.w3.org/2000/svg" xmlns:xlink="http://www.w3.org/1999/xlink">
<g id="graph0" class="graph" transform="scale(1 1) rotate(0) translate(4 78)">
<title>opp</title>
<polygon fill="transparent" stroke="transparent" points="-4,4 -4,-78 334,-78 334,4 -4,4"/>
<!-- ITransportRouteVisualizer -->
<g id="node1" class="node">
<title>ITransportRouteVisualizer</title>
<g id="a_node1"><a xlink:href="inet.visualizer.contract.ITransportRouteVisualizer.html" xlink:title="Module Interface ITransportRouteVisualizer" target="_parent">
<polygon fill="#fff700" stroke="black" stroke-dasharray="5,2" points="244.5,-74 103.5,-74 103.5,-55 244.5,-55 244.5,-74"/>
<text text-anchor="middle" x="174" y="-62" font-family="Helvetica,sans-Serif" font-size="10.00">ITransportRouteVisualizer</text>
</a>
</g>
</g>
<!-- TransportRouteCanvasVisualizer -->
<g id="node2" class="node">
<title>TransportRouteCanvasVisualizer</title>
<g id="a_node2"><a xlink:href="inet.visualizer.canvas.transportlayer.TransportRouteCanvasVisualizer.html" xlink:title="Simple Module TransportRouteCanvasVisualizer" target="_parent">
<polygon fill="#fffcaf" stroke="black" points="174,-19 0,-19 0,0 174,0 174,-19"/>
<text text-anchor="middle" x="87" y="-7" font-family="Helvetica,sans-Serif" font-size="10.00">TransportRouteCanvasVisualizer</text>
</a>
</g>
</g>
<!-- ITransportRouteVisualizer&#45;&gt;TransportRouteCanvasVisualizer -->
<g id="edge1" class="edge">
<title>ITransportRouteVisualizer&#45;&gt;TransportRouteCanvasVisualizer</title>
<path fill="none" stroke="black" stroke-dasharray="5,2" d="M160.02,-54.98C143.88,-45.15 117.48,-29.07 101.23,-19.17"/>
</g>
<!-- TransportRouteVisualizer -->
<g id="node3" class="node">
<title>TransportRouteVisualizer</title>
<g id="a_node3"><a xlink:href="inet.visualizer.common.TransportRouteVisualizer.html" xlink:title="Compound Module TransportRouteVisualizer" target="_parent">
<polygon fill="#fffcaf" stroke="black" points="330,-19 192,-19 192,0 330,0 330,-19"/>
<text text-anchor="middle" x="261" y="-7" font-family="Helvetica,sans-Serif" font-size="10.00">TransportRouteVisualizer</text>
</a>
</g>
</g>
<!-- ITransportRouteVisualizer&#45;&gt;TransportRouteVisualizer -->
<g id="edge2" class="edge">
<title>ITransportRouteVisualizer&#45;&gt;TransportRouteVisualizer</title>
<path fill="none" stroke="black" stroke-dasharray="5,2" d="M187.98,-54.98C204.12,-45.15 230.52,-29.07 246.77,-19.17"/>
</g>
</g>
</svg>
