<?xml version="1.0" encoding="UTF-8" standalone="no"?>
<!DOCTYPE svg PUBLIC "-//W3C//DTD SVG 1.1//EN"
 "http://www.w3.org/Graphics/SVG/1.1/DTD/svg11.dtd">
<!-- Generated by graphviz version 2.43.0 (0)
 -->
<!-- Title: opp Pages: 1 -->
<svg width="677pt" height="137pt"
 viewBox="0.00 0.00 676.50 137.00" xmlns="http://www.w3.org/2000/svg" xmlns:xlink="http://www.w3.org/1999/xlink">
<g id="graph0" class="graph" transform="scale(1 1) rotate(0) translate(4 133)">
<title>opp</title>
<polygon fill="transparent" stroke="transparent" points="-4,4 -4,-133 672.5,-133 672.5,4 -4,4"/>
<!-- INetworkLayer -->
<g id="node1" class="node">
<title>INetworkLayer</title>
<g id="a_node1"><a xlink:href="inet.networklayer.contract.INetworkLayer.html" xlink:title="Module Interface INetworkLayer" target="_parent">
<polygon fill="#fff700" stroke="black" stroke-dasharray="5,2" points="356,-74 268,-74 268,-55 356,-55 356,-74"/>
<text text-anchor="middle" x="312" y="-62" font-family="Helvetica,sans-Serif" font-size="10.00">INetworkLayer</text>
</a>
</g>
</g>
<!-- Ipv4NetworkLayer -->
<g id="node4" class="node">
<title>Ipv4NetworkLayer</title>
<g id="a_node4"><a xlink:href="inet.networklayer.ipv4.Ipv4NetworkLayer.html" xlink:title="Compound Module Ipv4NetworkLayer" target="_parent">
<polygon fill="#fffcaf" stroke="black" points="106,-19 0,-19 0,0 106,0 106,-19"/>
<text text-anchor="middle" x="53" y="-7" font-family="Helvetica,sans-Serif" font-size="10.00">Ipv4NetworkLayer</text>
</a>
</g>
</g>
<!-- INetworkLayer&#45;&gt;Ipv4NetworkLayer -->
<g id="edge3" class="edge">
<title>INetworkLayer&#45;&gt;Ipv4NetworkLayer</title>
<path fill="none" stroke="black" stroke-dasharray="5,2" d="M270.39,-54.98C222.2,-45.12 143.27,-28.97 94.94,-19.08"/>
</g>
<!-- Ipv6NetworkLayer -->
<g id="node5" class="node">
<title>Ipv6NetworkLayer</title>
<g id="a_node5"><a xlink:href="inet.networklayer.ipv6.Ipv6NetworkLayer.html" xlink:title="Compound Module Ipv6NetworkLayer" target="_parent">
<polygon fill="#fffcaf" stroke="black" points="230,-19 124,-19 124,0 230,0 230,-19"/>
<text text-anchor="middle" x="177" y="-7" font-family="Helvetica,sans-Serif" font-size="10.00">Ipv6NetworkLayer</text>
</a>
</g>
</g>
<!-- INetworkLayer&#45;&gt;Ipv6NetworkLayer -->
<g id="edge4" class="edge">
<title>INetworkLayer&#45;&gt;Ipv6NetworkLayer</title>
<path fill="none" stroke="black" stroke-dasharray="5,2" d="M290.31,-54.98C265.27,-45.15 224.29,-29.07 199.08,-19.17"/>
</g>
<!-- NextHopNetworkLayer -->
<g id="node6" class="node">
<title>NextHopNetworkLayer</title>
<g id="a_node6"><a xlink:href="inet.networklayer.nexthop.NextHopNetworkLayer.html" xlink:title="Compound Module NextHopNetworkLayer" target="_parent">
<polygon fill="#fffcaf" stroke="black" points="376,-19 248,-19 248,0 376,0 376,-19"/>
<text text-anchor="middle" x="312" y="-7" font-family="Helvetica,sans-Serif" font-size="10.00">NextHopNetworkLayer</text>
</a>
</g>
</g>
<!-- INetworkLayer&#45;&gt;NextHopNetworkLayer -->
<g id="edge5" class="edge">
<title>INetworkLayer&#45;&gt;NextHopNetworkLayer</title>
<path fill="none" stroke="black" stroke-dasharray="5,2" d="M312,-54.75C312,-44.87 312,-28.9 312,-19.09"/>
</g>
<!-- SimpleNetworkLayer -->
<g id="node7" class="node">
<title>SimpleNetworkLayer</title>
<g id="a_node7"><a xlink:href="inet.networklayer.common.SimpleNetworkLayer.html" xlink:title="Compound Module SimpleNetworkLayer" target="_parent">
<polygon fill="#fffcaf" stroke="black" points="513.5,-19 394.5,-19 394.5,0 513.5,0 513.5,-19"/>
<text text-anchor="middle" x="454" y="-7" font-family="Helvetica,sans-Serif" font-size="10.00">SimpleNetworkLayer</text>
</a>
</g>
</g>
<!-- INetworkLayer&#45;&gt;SimpleNetworkLayer -->
<g id="edge6" class="edge">
<title>INetworkLayer&#45;&gt;SimpleNetworkLayer</title>
<path fill="none" stroke="black" stroke-dasharray="5,2" d="M334.81,-54.98C361.16,-45.15 404.25,-29.07 430.77,-19.17"/>
</g>
<!-- WiseRouteNetworkLayer -->
<g id="node8" class="node">
<title>WiseRouteNetworkLayer</title>
<g id="a_node8"><a xlink:href="inet.networklayer.wiseroute.WiseRouteNetworkLayer.html" xlink:title="Compound Module WiseRouteNetworkLayer" target="_parent">
<polygon fill="#fffcaf" stroke="black" points="668.5,-19 531.5,-19 531.5,0 668.5,0 668.5,-19"/>
<text text-anchor="middle" x="600" y="-7" font-family="Helvetica,sans-Serif" font-size="10.00">WiseRouteNetworkLayer</text>
</a>
</g>
</g>
<!-- INetworkLayer&#45;&gt;WiseRouteNetworkLayer -->
<g id="edge7" class="edge">
<title>INetworkLayer&#45;&gt;WiseRouteNetworkLayer</title>
<path fill="none" stroke="black" stroke-dasharray="5,2" d="M356.05,-55.39C409.47,-45.56 499.1,-29.07 553.56,-19.05"/>
</g>
<!-- INetworkLayerUpper -->
<g id="node2" class="node">
<title>INetworkLayerUpper</title>
<g id="a_node2"><a xlink:href="inet.networklayer.contract.INetworkLayerUpper.html" xlink:title="Module Interface INetworkLayerUpper" target="_parent">
<polygon fill="#fffcaf" stroke="black" stroke-dasharray="5,2" points="303.5,-129 186.5,-129 186.5,-110 303.5,-110 303.5,-129"/>
<text text-anchor="middle" x="245" y="-117" font-family="Helvetica,sans-Serif" font-size="10.00">INetworkLayerUpper</text>
</a>
</g>
</g>
<!-- INetworkLayerUpper&#45;&gt;INetworkLayer -->
<g id="edge1" class="edge">
<title>INetworkLayerUpper&#45;&gt;INetworkLayer</title>
<path fill="none" stroke="black" d="M255.76,-109.98C268.19,-100.15 288.53,-84.07 301.04,-74.17"/>
</g>
<!-- INetworkLayerLower -->
<g id="node3" class="node">
<title>INetworkLayerLower</title>
<g id="a_node3"><a xlink:href="inet.networklayer.contract.INetworkLayerLower.html" xlink:title="Module Interface INetworkLayerLower" target="_parent">
<polygon fill="#fffcaf" stroke="black" stroke-dasharray="5,2" points="438.5,-129 321.5,-129 321.5,-110 438.5,-110 438.5,-129"/>
<text text-anchor="middle" x="380" y="-117" font-family="Helvetica,sans-Serif" font-size="10.00">INetworkLayerLower</text>
</a>
</g>
</g>
<!-- INetworkLayerLower&#45;&gt;INetworkLayer -->
<g id="edge2" class="edge">
<title>INetworkLayerLower&#45;&gt;INetworkLayer</title>
<path fill="none" stroke="black" d="M369.07,-109.98C356.46,-100.15 335.82,-84.07 323.12,-74.17"/>
</g>
</g>
</svg>
