<?xml version="1.0" encoding="UTF-8" standalone="no"?>
<!DOCTYPE svg PUBLIC "-//W3C//DTD SVG 1.1//EN"
 "http://www.w3.org/Graphics/SVG/1.1/DTD/svg11.dtd">
<!-- Generated by graphviz version 2.43.0 (0)
 -->
<!-- Title: opp Pages: 1 -->
<svg width="278pt" height="82pt"
 viewBox="0.00 0.00 278.00 82.00" xmlns="http://www.w3.org/2000/svg" xmlns:xlink="http://www.w3.org/1999/xlink">
<g id="graph0" class="graph" transform="scale(1 1) rotate(0) translate(4 78)">
<title>opp</title>
<polygon fill="transparent" stroke="transparent" points="-4,4 -4,-78 274,-78 274,4 -4,4"/>
<!-- Ieee80211OfdmErrorModel -->
<g id="node1" class="node">
<title>Ieee80211OfdmErrorModel</title>
<g id="a_node1"><a xlink:href="inet.physicallayer.wireless.ieee80211.bitlevel.errormodel.Ieee80211OfdmErrorModel.html" xlink:title="Compound Module Ieee80211OfdmErrorModel" target="_parent">
<polygon fill="#fff700" stroke="black" points="216,-19 68,-19 68,0 216,0 216,-19"/>
<text text-anchor="middle" x="142" y="-7" font-family="Helvetica,sans-Serif" font-size="10.00">Ieee80211OfdmErrorModel</text>
</a>
</g>
</g>
<!-- Ieee80211NistErrorModel -->
<g id="node2" class="node">
<title>Ieee80211NistErrorModel</title>
<g id="a_node2"><a xlink:href="inet.physicallayer.wireless.ieee80211.packetlevel.errormodel.Ieee80211NistErrorModel.html" xlink:title="Compound Module Ieee80211NistErrorModel" target="_parent">
<polygon fill="#fffcaf" stroke="black" points="140,-74 0,-74 0,-55 140,-55 140,-74"/>
<text text-anchor="middle" x="70" y="-62" font-family="Helvetica,sans-Serif" font-size="10.00">Ieee80211NistErrorModel</text>
</a>
</g>
</g>
<!-- Ieee80211NistErrorModel&#45;&gt;Ieee80211OfdmErrorModel -->
<g id="edge1" class="edge">
<title>Ieee80211NistErrorModel&#45;&gt;Ieee80211OfdmErrorModel</title>
<path fill="none" stroke="black" d="M81.57,-54.98C94.92,-45.15 116.78,-29.07 130.22,-19.17"/>
</g>
<!-- ILayeredErrorModel -->
<g id="node3" class="node">
<title>ILayeredErrorModel</title>
<g id="a_node3"><a xlink:href="inet.physicallayer.wireless.common.contract.bitlevel.ILayeredErrorModel.html" xlink:title="Module Interface ILayeredErrorModel" target="_parent">
<polygon fill="#fffcaf" stroke="black" stroke-dasharray="5,2" points="270,-74 158,-74 158,-55 270,-55 270,-74"/>
<text text-anchor="middle" x="214" y="-62" font-family="Helvetica,sans-Serif" font-size="10.00">ILayeredErrorModel</text>
</a>
</g>
</g>
<!-- ILayeredErrorModel&#45;&gt;Ieee80211OfdmErrorModel -->
<g id="edge2" class="edge">
<title>ILayeredErrorModel&#45;&gt;Ieee80211OfdmErrorModel</title>
<path fill="none" stroke="black" stroke-dasharray="5,2" d="M202.43,-54.98C189.08,-45.15 167.22,-29.07 153.78,-19.17"/>
</g>
</g>
</svg>
