<?xml version="1.0" encoding="UTF-8" standalone="no"?>
<!DOCTYPE svg PUBLIC "-//W3C//DTD SVG 1.1//EN"
 "http://www.w3.org/Graphics/SVG/1.1/DTD/svg11.dtd">
<!-- Generated by graphviz version 2.43.0 (0)
 -->
<!-- Title: opp Pages: 1 -->
<svg width="330pt" height="137pt"
 viewBox="0.00 0.00 329.50 137.00" xmlns="http://www.w3.org/2000/svg" xmlns:xlink="http://www.w3.org/1999/xlink">
<g id="graph0" class="graph" transform="scale(1 1) rotate(0) translate(4 133)">
<title>opp</title>
<polygon fill="transparent" stroke="transparent" points="-4,4 -4,-133 325.5,-133 325.5,4 -4,4"/>
<!-- ICcEnergyConsumer -->
<g id="node1" class="node">
<title>ICcEnergyConsumer</title>
<g id="a_node1"><a xlink:href="inet.power.contract.ICcEnergyConsumer.html" xlink:title="Module Interface ICcEnergyConsumer" target="_parent">
<polygon fill="#fff700" stroke="black" stroke-dasharray="5,2" points="210.5,-74 95.5,-74 95.5,-55 210.5,-55 210.5,-74"/>
<text text-anchor="middle" x="153" y="-62" font-family="Helvetica,sans-Serif" font-size="10.00">ICcEnergyConsumer</text>
</a>
</g>
</g>
<!-- CcEnergyConsumerBase -->
<g id="node3" class="node">
<title>CcEnergyConsumerBase</title>
<g id="a_node3"><a xlink:href="inet.power.base.CcEnergyConsumerBase.html" xlink:title="Simple Module CcEnergyConsumerBase" target="_parent">
<polygon fill="#fffcaf" stroke="black" points="136,-19 0,-19 0,0 136,0 136,-19"/>
<text text-anchor="middle" x="68" y="-7" font-family="Helvetica,sans-Serif" font-size="10.00">CcEnergyConsumerBase</text>
</a>
</g>
</g>
<!-- ICcEnergyConsumer&#45;&gt;CcEnergyConsumerBase -->
<g id="edge2" class="edge">
<title>ICcEnergyConsumer&#45;&gt;CcEnergyConsumerBase</title>
<path fill="none" stroke="black" stroke-dasharray="5,2" d="M139.34,-54.98C123.58,-45.15 97.78,-29.07 81.91,-19.17"/>
</g>
<!-- StateBasedCcEnergyConsumer -->
<g id="node4" class="node">
<title>StateBasedCcEnergyConsumer</title>
<g id="a_node4"><a xlink:href="inet.physicallayer.wireless.common.energyconsumer.StateBasedCcEnergyConsumer.html" xlink:title="Simple Module StateBasedCcEnergyConsumer" target="_parent">
<polygon fill="#fffcaf" stroke="black" points="321.5,-19 154.5,-19 154.5,0 321.5,0 321.5,-19"/>
<text text-anchor="middle" x="238" y="-7" font-family="Helvetica,sans-Serif" font-size="10.00">StateBasedCcEnergyConsumer</text>
</a>
</g>
</g>
<!-- ICcEnergyConsumer&#45;&gt;StateBasedCcEnergyConsumer -->
<g id="edge3" class="edge">
<title>ICcEnergyConsumer&#45;&gt;StateBasedCcEnergyConsumer</title>
<path fill="none" stroke="black" stroke-dasharray="5,2" d="M166.66,-54.98C182.42,-45.15 208.22,-29.07 224.09,-19.17"/>
</g>
<!-- IEnergyConsumer -->
<g id="node2" class="node">
<title>IEnergyConsumer</title>
<g id="a_node2"><a xlink:href="inet.power.contract.IEnergyConsumer.html" xlink:title="Module Interface IEnergyConsumer" target="_parent">
<polygon fill="#fffcaf" stroke="black" stroke-dasharray="5,2" points="204.5,-129 101.5,-129 101.5,-110 204.5,-110 204.5,-129"/>
<text text-anchor="middle" x="153" y="-117" font-family="Helvetica,sans-Serif" font-size="10.00">IEnergyConsumer</text>
</a>
</g>
</g>
<!-- IEnergyConsumer&#45;&gt;ICcEnergyConsumer -->
<g id="edge1" class="edge">
<title>IEnergyConsumer&#45;&gt;ICcEnergyConsumer</title>
<path fill="none" stroke="black" d="M153,-109.75C153,-99.87 153,-83.9 153,-74.09"/>
</g>
</g>
</svg>
