<?xml version="1.0" encoding="UTF-8" standalone="no"?>
<!DOCTYPE svg PUBLIC "-//W3C//DTD SVG 1.1//EN"
 "http://www.w3.org/Graphics/SVG/1.1/DTD/svg11.dtd">
<!-- Generated by graphviz version 2.43.0 (0)
 -->
<!-- Title: opp Pages: 1 -->
<svg width="1294pt" height="137pt"
 viewBox="0.00 0.00 1293.50 137.00" xmlns="http://www.w3.org/2000/svg" xmlns:xlink="http://www.w3.org/1999/xlink">
<g id="graph0" class="graph" transform="scale(1 1) rotate(0) translate(4 133)">
<title>opp</title>
<polygon fill="transparent" stroke="transparent" points="-4,4 -4,-133 1289.5,-133 1289.5,4 -4,4"/>
<!-- RsvpMplsRouter -->
<g id="node1" class="node">
<title>RsvpMplsRouter</title>
<g id="a_node1"><a xlink:href="inet.node.mpls.RsvpMplsRouter.html" xlink:title="Compound Module RsvpMplsRouter" target="_parent">
<polygon fill="#fff700" stroke="black" points="727,-74 631,-74 631,-55 727,-55 727,-74"/>
<text text-anchor="middle" x="679" y="-62" font-family="Helvetica,sans-Serif" font-size="10.00">RsvpMplsRouter</text>
</a>
</g>
</g>
<!-- InterfaceTable -->
<g id="node2" class="node">
<title>InterfaceTable</title>
<g id="a_node2"><a xlink:href="inet.networklayer.common.InterfaceTable.html" xlink:title="Simple Module InterfaceTable" target="_parent">
<polygon fill="#fffcaf" stroke="black" points="86,-19 0,-19 0,0 86,0 86,-19"/>
<text text-anchor="middle" x="43" y="-7" font-family="Helvetica,sans-Serif" font-size="10.00">InterfaceTable</text>
</a>
</g>
</g>
<!-- RsvpMplsRouter&#45;&gt;InterfaceTable -->
<g id="edge1" class="edge">
<title>RsvpMplsRouter&#45;&gt;InterfaceTable</title>
<path fill="none" stroke="black" d="M630.79,-61.23C532.31,-56.29 300.76,-43.13 96.12,-19.03"/>
<polygon fill="black" stroke="black" points="96.43,-15.54 86.09,-17.84 95.61,-22.49 96.43,-15.54"/>
</g>
<!-- Ipv4NetworkLayer -->
<g id="node3" class="node">
<title>Ipv4NetworkLayer</title>
<g id="a_node3"><a xlink:href="inet.networklayer.ipv4.Ipv4NetworkLayer.html" xlink:title="Compound Module Ipv4NetworkLayer" target="_parent">
<polygon fill="#fffcaf" stroke="black" points="210,-19 104,-19 104,0 210,0 210,-19"/>
<text text-anchor="middle" x="157" y="-7" font-family="Helvetica,sans-Serif" font-size="10.00">Ipv4NetworkLayer</text>
</a>
</g>
</g>
<!-- RsvpMplsRouter&#45;&gt;Ipv4NetworkLayer -->
<g id="edge2" class="edge">
<title>RsvpMplsRouter&#45;&gt;Ipv4NetworkLayer</title>
<path fill="none" stroke="black" d="M630.92,-59.48C548.95,-52.5 376.63,-37.21 220.35,-19.11"/>
<polygon fill="black" stroke="black" points="220.42,-15.6 210.08,-17.92 219.61,-22.55 220.42,-15.6"/>
</g>
<!-- NodeStatus -->
<g id="node4" class="node">
<title>NodeStatus</title>
<g id="a_node4"><a xlink:href="inet.common.lifecycle.NodeStatus.html" xlink:title="Simple Module NodeStatus" target="_parent">
<polygon fill="#fffcaf" stroke="black" points="301.5,-19 228.5,-19 228.5,0 301.5,0 301.5,-19"/>
<text text-anchor="middle" x="265" y="-7" font-family="Helvetica,sans-Serif" font-size="10.00">NodeStatus</text>
</a>
</g>
</g>
<!-- RsvpMplsRouter&#45;&gt;NodeStatus -->
<g id="edge3" class="edge">
<title>RsvpMplsRouter&#45;&gt;NodeStatus</title>
<path fill="none" stroke="black" d="M630.94,-58.66C562.47,-51.54 432.7,-37.27 311.8,-19.03"/>
<polygon fill="black" stroke="black" points="312.04,-15.52 301.62,-17.48 310.98,-22.44 312.04,-15.52"/>
</g>
<!-- ILoopbackInterface -->
<g id="node5" class="node">
<title>ILoopbackInterface</title>
<g id="a_node5"><a xlink:href="inet.linklayer.contract.ILoopbackInterface.html" xlink:title="Module Interface ILoopbackInterface" target="_parent">
<polygon fill="#fffcaf" stroke="black" stroke-dasharray="5,2" points="430,-19 320,-19 320,0 430,0 430,-19"/>
<text text-anchor="middle" x="375" y="-7" font-family="Helvetica,sans-Serif" font-size="10.00">ILoopbackInterface</text>
</a>
</g>
</g>
<!-- RsvpMplsRouter&#45;&gt;ILoopbackInterface -->
<g id="edge4" class="edge">
<title>RsvpMplsRouter&#45;&gt;ILoopbackInterface</title>
<path fill="none" stroke="black" d="M630.83,-55.1C577.45,-45.8 491.33,-30.78 433.96,-20.78"/>
<polygon fill="black" stroke="black" points="434.4,-17.3 423.95,-19.03 433.2,-24.2 434.4,-17.3"/>
</g>
<!-- MessageDispatcher -->
<g id="node6" class="node">
<title>MessageDispatcher</title>
<g id="a_node6"><a xlink:href="inet.common.MessageDispatcher.html" xlink:title="Simple Module MessageDispatcher" target="_parent">
<polygon fill="#fffcaf" stroke="black" points="561.5,-19 448.5,-19 448.5,0 561.5,0 561.5,-19"/>
<text text-anchor="middle" x="505" y="-7" font-family="Helvetica,sans-Serif" font-size="10.00">MessageDispatcher</text>
</a>
</g>
</g>
<!-- RsvpMplsRouter&#45;&gt;MessageDispatcher -->
<g id="edge5" class="edge">
<title>RsvpMplsRouter&#45;&gt;MessageDispatcher</title>
<path fill="none" stroke="black" d="M651.04,-54.98C621.7,-46.05 575.4,-31.94 542.81,-22.02"/>
<polygon fill="black" stroke="black" points="543.76,-18.65 533.18,-19.08 541.72,-25.34 543.76,-18.65"/>
</g>
<!-- Mpls -->
<g id="node7" class="node">
<title>Mpls</title>
<g id="a_node7"><a xlink:href="inet.networklayer.mpls.Mpls.html" xlink:title="Simple Module Mpls" target="_parent">
<polygon fill="#fffcaf" stroke="black" points="634,-19 580,-19 580,0 634,0 634,-19"/>
<text text-anchor="middle" x="607" y="-7" font-family="Helvetica,sans-Serif" font-size="10.00">Mpls</text>
</a>
</g>
</g>
<!-- RsvpMplsRouter&#45;&gt;Mpls -->
<g id="edge6" class="edge">
<title>RsvpMplsRouter&#45;&gt;Mpls</title>
<path fill="none" stroke="black" d="M667.43,-54.98C656.58,-47 640.12,-34.88 627.12,-25.31"/>
<polygon fill="black" stroke="black" points="628.91,-22.28 618.78,-19.17 624.76,-27.92 628.91,-22.28"/>
</g>
<!-- Ted -->
<g id="node8" class="node">
<title>Ted</title>
<g id="a_node8"><a xlink:href="inet.networklayer.ted.Ted.html" xlink:title="Simple Module Ted" target="_parent">
<polygon fill="#fffcaf" stroke="black" points="706,-19 652,-19 652,0 706,0 706,-19"/>
<text text-anchor="middle" x="679" y="-7" font-family="Helvetica,sans-Serif" font-size="10.00">Ted</text>
</a>
</g>
</g>
<!-- RsvpMplsRouter&#45;&gt;Ted -->
<g id="edge7" class="edge">
<title>RsvpMplsRouter&#45;&gt;Ted</title>
<path fill="none" stroke="black" d="M679,-54.75C679,-47.8 679,-37.85 679,-29.13"/>
<polygon fill="black" stroke="black" points="682.5,-29.09 679,-19.09 675.5,-29.09 682.5,-29.09"/>
</g>
<!-- LibTable -->
<g id="node9" class="node">
<title>LibTable</title>
<g id="a_node9"><a xlink:href="inet.networklayer.mpls.LibTable.html" xlink:title="Simple Module LibTable" target="_parent">
<polygon fill="#fffcaf" stroke="black" points="780,-19 724,-19 724,0 780,0 780,-19"/>
<text text-anchor="middle" x="752" y="-7" font-family="Helvetica,sans-Serif" font-size="10.00">LibTable</text>
</a>
</g>
</g>
<!-- RsvpMplsRouter&#45;&gt;LibTable -->
<g id="edge8" class="edge">
<title>RsvpMplsRouter&#45;&gt;LibTable</title>
<path fill="none" stroke="black" d="M690.73,-54.98C701.73,-47 718.42,-34.88 731.6,-25.31"/>
<polygon fill="black" stroke="black" points="734.02,-27.88 740.06,-19.17 729.91,-22.21 734.02,-27.88"/>
</g>
<!-- RsvpTe -->
<g id="node10" class="node">
<title>RsvpTe</title>
<g id="a_node10"><a xlink:href="inet.networklayer.rsvpte.RsvpTe.html" xlink:title="Simple Module RsvpTe" target="_parent">
<polygon fill="#fffcaf" stroke="black" points="852,-19 798,-19 798,0 852,0 852,-19"/>
<text text-anchor="middle" x="825" y="-7" font-family="Helvetica,sans-Serif" font-size="10.00">RsvpTe</text>
</a>
</g>
</g>
<!-- RsvpMplsRouter&#45;&gt;RsvpTe -->
<g id="edge9" class="edge">
<title>RsvpMplsRouter&#45;&gt;RsvpTe</title>
<path fill="none" stroke="black" d="M702.46,-54.98C726.58,-46.23 764.37,-32.51 791.6,-22.62"/>
<polygon fill="black" stroke="black" points="792.91,-25.87 801.12,-19.17 790.52,-19.29 792.91,-25.87"/>
</g>
<!-- LinkStateRouting -->
<g id="node11" class="node">
<title>LinkStateRouting</title>
<g id="a_node11"><a xlink:href="inet.networklayer.ted.LinkStateRouting.html" xlink:title="Simple Module LinkStateRouting" target="_parent">
<polygon fill="#fffcaf" stroke="black" points="970,-19 870,-19 870,0 970,0 970,-19"/>
<text text-anchor="middle" x="920" y="-7" font-family="Helvetica,sans-Serif" font-size="10.00">LinkStateRouting</text>
</a>
</g>
</g>
<!-- RsvpMplsRouter&#45;&gt;LinkStateRouting -->
<g id="edge10" class="edge">
<title>RsvpMplsRouter&#45;&gt;LinkStateRouting</title>
<path fill="none" stroke="black" d="M717.72,-54.98C759.41,-45.82 825.82,-31.21 871.09,-21.26"/>
<polygon fill="black" stroke="black" points="871.96,-24.65 880.98,-19.08 870.46,-17.81 871.96,-24.65"/>
</g>
<!-- IdealChannel -->
<g id="node12" class="node">
<title>IdealChannel</title>
<g id="a_node12"><a xlink:href="ned.IdealChannel.html" xlink:title="Channel IdealChannel" target="_parent">
<polygon fill="#d0ffd0" stroke="black" points="1068,-19 988,-19 988,0 1068,0 1068,-19"/>
<text text-anchor="middle" x="1028" y="-7" font-family="Helvetica,sans-Serif" font-size="10.00">IdealChannel</text>
</a>
</g>
</g>
<!-- RsvpMplsRouter&#45;&gt;IdealChannel -->
<g id="edge11" class="edge">
<title>RsvpMplsRouter&#45;&gt;IdealChannel</title>
<path fill="none" stroke="black" d="M727.12,-56.73C784.39,-48.6 883.19,-34.3 977.87,-19.15"/>
<polygon fill="black" stroke="black" points="978.58,-22.58 987.9,-17.54 977.47,-15.67 978.58,-22.58"/>
</g>
<!-- IIngressClassifier -->
<g id="node13" class="node">
<title>IIngressClassifier</title>
<g id="a_node13"><a xlink:href="inet.networklayer.mpls.IIngressClassifier.html" xlink:title="Module Interface IIngressClassifier" target="_parent">
<polygon fill="#fffcaf" stroke="black" stroke-dasharray="5,2" points="1186,-19 1086,-19 1086,0 1186,0 1186,-19"/>
<text text-anchor="middle" x="1136" y="-7" font-family="Helvetica,sans-Serif" font-size="10.00">IIngressClassifier</text>
</a>
</g>
</g>
<!-- RsvpMplsRouter&#45;&gt;IIngressClassifier -->
<g id="edge12" class="edge">
<title>RsvpMplsRouter&#45;&gt;IIngressClassifier</title>
<path fill="none" stroke="black" d="M727.15,-58.61C800.15,-51.1 943.45,-35.92 1075.51,-19.16"/>
<polygon fill="black" stroke="black" points="1076.33,-22.58 1085.8,-17.84 1075.44,-15.64 1076.33,-22.58"/>
</g>
<!-- IPppInterface -->
<g id="node14" class="node">
<title>IPppInterface</title>
<g id="a_node14"><a xlink:href="inet.linklayer.contract.IPppInterface.html" xlink:title="Module Interface IPppInterface" target="_parent">
<polygon fill="#fffcaf" stroke="black" stroke-dasharray="5,2" points="1285.5,-19 1204.5,-19 1204.5,0 1285.5,0 1285.5,-19"/>
<text text-anchor="middle" x="1245" y="-7" font-family="Helvetica,sans-Serif" font-size="10.00">IPppInterface</text>
</a>
</g>
</g>
<!-- RsvpMplsRouter&#45;&gt;IPppInterface -->
<g id="edge13" class="edge">
<title>RsvpMplsRouter&#45;&gt;IPppInterface</title>
<path fill="none" stroke="black" d="M727.16,-60.68C816.9,-55.12 1015.97,-41.45 1194.29,-18.98"/>
<polygon fill="black" stroke="black" points="1194.9,-22.43 1204.38,-17.69 1194.02,-15.48 1194.9,-22.43"/>
</g>
<!-- R37 -->
<g id="node15" class="node">
<title>R37</title>
<g id="a_node15"><a xlink:href="inet.examples.mpls.net37.R37.html" xlink:title="Network R37" target="_parent">
<polygon fill="#d0d0ff" stroke="black" points="559,-129 505,-129 505,-110 559,-110 559,-129"/>
<text text-anchor="middle" x="532" y="-117" font-family="Helvetica,sans-Serif" font-size="10.00">R37</text>
</a>
</g>
</g>
<!-- R37&#45;&gt;RsvpMplsRouter -->
<g id="edge14" class="edge">
<title>R37&#45;&gt;RsvpMplsRouter</title>
<path fill="none" stroke="black" d="M555.62,-109.98C579.9,-101.23 617.95,-87.51 645.37,-77.62"/>
<polygon fill="black" stroke="black" points="646.73,-80.85 654.95,-74.17 644.36,-74.27 646.73,-80.85"/>
</g>
<!-- R37orig -->
<g id="node16" class="node">
<title>R37orig</title>
<g id="a_node16"><a xlink:href="inet.examples.mpls.net37.R37orig.html" xlink:title="Network R37orig" target="_parent">
<polygon fill="#d0d0ff" stroke="black" points="631,-129 577,-129 577,-110 631,-110 631,-129"/>
<text text-anchor="middle" x="604" y="-117" font-family="Helvetica,sans-Serif" font-size="10.00">R37orig</text>
</a>
</g>
</g>
<!-- R37orig&#45;&gt;RsvpMplsRouter -->
<g id="edge15" class="edge">
<title>R37orig&#45;&gt;RsvpMplsRouter</title>
<path fill="none" stroke="black" d="M616.05,-109.98C627.46,-101.92 644.83,-89.65 658.43,-80.03"/>
<polygon fill="black" stroke="black" points="660.58,-82.8 666.73,-74.17 656.54,-77.08 660.58,-82.8"/>
</g>
<!-- RSVPTE4 -->
<g id="node17" class="node">
<title>RSVPTE4</title>
<g id="a_node17"><a xlink:href="inet.examples.mpls.testte_tunnel.RSVPTE4.html" xlink:title="Network RSVPTE4" target="_parent">
<polygon fill="#d0d0ff" stroke="black" points="709,-129 649,-129 649,-110 709,-110 709,-129"/>
<text text-anchor="middle" x="679" y="-117" font-family="Helvetica,sans-Serif" font-size="10.00">RSVPTE4</text>
</a>
</g>
</g>
<!-- RSVPTE4&#45;&gt;RsvpMplsRouter -->
<g id="edge16" class="edge">
<title>RSVPTE4&#45;&gt;RsvpMplsRouter</title>
<path fill="none" stroke="black" d="M658.33,-109.75C652.1,-102.49 650.47,-91.95 653.44,-82.98"/>
<polygon fill="black" stroke="black" points="656.59,-84.52 658.48,-74.09 650.5,-81.07 656.59,-84.52"/>
</g>
<!-- RSVPTE4&#45;&gt;RsvpMplsRouter -->
<g id="edge17" class="edge">
<title>RSVPTE4&#45;&gt;RsvpMplsRouter</title>
<path fill="none" stroke="black" d="M668.67,-109.75C665.65,-102.72 664.79,-92.62 666.08,-83.84"/>
<polygon fill="black" stroke="black" points="669.49,-84.66 668.74,-74.09 662.74,-82.82 669.49,-84.66"/>
</g>
<!-- RSVPTE4&#45;&gt;RsvpMplsRouter -->
<g id="edge18" class="edge">
<title>RSVPTE4&#45;&gt;RsvpMplsRouter</title>
<path fill="none" stroke="black" d="M679,-109.75C679,-102.8 679,-92.85 679,-84.13"/>
<polygon fill="black" stroke="black" points="682.5,-84.09 679,-74.09 675.5,-84.09 682.5,-84.09"/>
</g>
<!-- RSVPTE4&#45;&gt;RsvpMplsRouter -->
<g id="edge19" class="edge">
<title>RSVPTE4&#45;&gt;RsvpMplsRouter</title>
<path fill="none" stroke="black" d="M689.33,-109.75C692.35,-102.72 693.21,-92.62 691.92,-83.84"/>
<polygon fill="black" stroke="black" points="695.26,-82.82 689.26,-74.09 688.51,-84.66 695.26,-82.82"/>
</g>
<!-- RSVPTE4&#45;&gt;RsvpMplsRouter -->
<g id="edge20" class="edge">
<title>RSVPTE4&#45;&gt;RsvpMplsRouter</title>
<path fill="none" stroke="black" d="M699.67,-109.75C705.9,-102.49 707.53,-91.95 704.56,-82.98"/>
<polygon fill="black" stroke="black" points="707.5,-81.07 699.52,-74.09 701.41,-84.52 707.5,-81.07"/>
</g>
</g>
</svg>
