<?xml version="1.0" encoding="UTF-8" standalone="no"?>
<!DOCTYPE svg PUBLIC "-//W3C//DTD SVG 1.1//EN"
 "http://www.w3.org/Graphics/SVG/1.1/DTD/svg11.dtd">
<!-- Generated by graphviz version 2.43.0 (0)
 -->
<!-- Title: opp Pages: 1 -->
<svg width="224pt" height="137pt"
 viewBox="0.00 0.00 224.00 137.00" xmlns="http://www.w3.org/2000/svg" xmlns:xlink="http://www.w3.org/1999/xlink">
<g id="graph0" class="graph" transform="scale(1 1) rotate(0) translate(4 133)">
<title>opp</title>
<polygon fill="transparent" stroke="transparent" points="-4,4 -4,-133 220,-133 220,4 -4,4"/>
<!-- PhysicalLinkVisualizer -->
<g id="node1" class="node">
<title>PhysicalLinkVisualizer</title>
<g id="a_node1"><a xlink:href="inet.visualizer.common.PhysicalLinkVisualizer.html" xlink:title="Compound Module PhysicalLinkVisualizer" target="_parent">
<polygon fill="#fff700" stroke="black" points="170.5,-74 45.5,-74 45.5,-55 170.5,-55 170.5,-74"/>
<text text-anchor="middle" x="108" y="-62" font-family="Helvetica,sans-Serif" font-size="10.00">PhysicalLinkVisualizer</text>
</a>
</g>
</g>
<!-- IPhysicalLinkVisualizer -->
<g id="node2" class="node">
<title>IPhysicalLinkVisualizer</title>
<g id="a_node2"><a xlink:href="inet.visualizer.contract.IPhysicalLinkVisualizer.html" xlink:title="Module Interface IPhysicalLinkVisualizer" target="_parent">
<polygon fill="#fffcaf" stroke="black" stroke-dasharray="5,2" points="172,-19 44,-19 44,0 172,0 172,-19"/>
<text text-anchor="middle" x="108" y="-7" font-family="Helvetica,sans-Serif" font-size="10.00">IPhysicalLinkVisualizer</text>
</a>
</g>
</g>
<!-- PhysicalLinkVisualizer&#45;&gt;IPhysicalLinkVisualizer -->
<g id="edge1" class="edge">
<title>PhysicalLinkVisualizer&#45;&gt;IPhysicalLinkVisualizer</title>
<path fill="none" stroke="black" d="M108,-54.75C108,-47.8 108,-37.85 108,-29.13"/>
<polygon fill="black" stroke="black" points="111.5,-29.09 108,-19.09 104.5,-29.09 111.5,-29.09"/>
</g>
<!-- PhysicalLinkVisualizerEnablingShowcase -->
<g id="node3" class="node">
<title>PhysicalLinkVisualizerEnablingShowcase</title>
<g id="a_node3"><a xlink:href="inet.showcases.visualizer.canvas.physicallinkactivity.PhysicalLinkVisualizerEnablingShowcase.html" xlink:title="Network PhysicalLinkVisualizerEnablingShowcase" target="_parent">
<polygon fill="#d0d0ff" stroke="black" points="216,-129 0,-129 0,-110 216,-110 216,-129"/>
<text text-anchor="middle" x="108" y="-117" font-family="Helvetica,sans-Serif" font-size="10.00">PhysicalLinkVisualizerEnablingShowcase</text>
</a>
</g>
</g>
<!-- PhysicalLinkVisualizerEnablingShowcase&#45;&gt;PhysicalLinkVisualizer -->
<g id="edge2" class="edge">
<title>PhysicalLinkVisualizerEnablingShowcase&#45;&gt;PhysicalLinkVisualizer</title>
<path fill="none" stroke="black" d="M108,-109.75C108,-102.8 108,-92.85 108,-84.13"/>
<polygon fill="black" stroke="black" points="111.5,-84.09 108,-74.09 104.5,-84.09 111.5,-84.09"/>
</g>
</g>
</svg>
