<?xml version="1.0" encoding="UTF-8" standalone="no"?>
<!DOCTYPE svg PUBLIC "-//W3C//DTD SVG 1.1//EN"
 "http://www.w3.org/Graphics/SVG/1.1/DTD/svg11.dtd">
<!-- Generated by graphviz version 2.43.0 (0)
 -->
<!-- Title: opp Pages: 1 -->
<svg width="286pt" height="82pt"
 viewBox="0.00 0.00 285.50 82.00" xmlns="http://www.w3.org/2000/svg" xmlns:xlink="http://www.w3.org/1999/xlink">
<g id="graph0" class="graph" transform="scale(1 1) rotate(0) translate(4 78)">
<title>opp</title>
<polygon fill="transparent" stroke="transparent" points="-4,4 -4,-78 281.5,-78 281.5,4 -4,4"/>
<!-- Ieee80211CanvasVisualizer -->
<g id="node1" class="node">
<title>Ieee80211CanvasVisualizer</title>
<g id="a_node1"><a xlink:href="inet.visualizer.canvas.linklayer.Ieee80211CanvasVisualizer.html" xlink:title="Simple Module Ieee80211CanvasVisualizer" target="_parent">
<polygon fill="#fff700" stroke="black" points="220,-19 68,-19 68,0 220,0 220,-19"/>
<text text-anchor="middle" x="144" y="-7" font-family="Helvetica,sans-Serif" font-size="10.00">Ieee80211CanvasVisualizer</text>
</a>
</g>
</g>
<!-- Ieee80211VisualizerBase -->
<g id="node2" class="node">
<title>Ieee80211VisualizerBase</title>
<g id="a_node2"><a xlink:href="inet.visualizer.base.Ieee80211VisualizerBase.html" xlink:title="Simple Module Ieee80211VisualizerBase" target="_parent">
<polygon fill="#fffcaf" stroke="black" points="140,-74 0,-74 0,-55 140,-55 140,-74"/>
<text text-anchor="middle" x="70" y="-62" font-family="Helvetica,sans-Serif" font-size="10.00">Ieee80211VisualizerBase</text>
</a>
</g>
</g>
<!-- Ieee80211VisualizerBase&#45;&gt;Ieee80211CanvasVisualizer -->
<g id="edge1" class="edge">
<title>Ieee80211VisualizerBase&#45;&gt;Ieee80211CanvasVisualizer</title>
<path fill="none" stroke="black" d="M81.89,-54.98C95.62,-45.15 118.08,-29.07 131.89,-19.17"/>
</g>
<!-- IIeee80211Visualizer -->
<g id="node3" class="node">
<title>IIeee80211Visualizer</title>
<g id="a_node3"><a xlink:href="inet.visualizer.contract.IIeee80211Visualizer.html" xlink:title="Module Interface IIeee80211Visualizer" target="_parent">
<polygon fill="#fffcaf" stroke="black" stroke-dasharray="5,2" points="277.5,-74 158.5,-74 158.5,-55 277.5,-55 277.5,-74"/>
<text text-anchor="middle" x="218" y="-62" font-family="Helvetica,sans-Serif" font-size="10.00">IIeee80211Visualizer</text>
</a>
</g>
</g>
<!-- IIeee80211Visualizer&#45;&gt;Ieee80211CanvasVisualizer -->
<g id="edge2" class="edge">
<title>IIeee80211Visualizer&#45;&gt;Ieee80211CanvasVisualizer</title>
<path fill="none" stroke="black" stroke-dasharray="5,2" d="M206.11,-54.98C192.38,-45.15 169.92,-29.07 156.11,-19.17"/>
</g>
</g>
</svg>
