<?xml version="1.0" encoding="UTF-8" standalone="no"?>
<!DOCTYPE svg PUBLIC "-//W3C//DTD SVG 1.1//EN"
 "http://www.w3.org/Graphics/SVG/1.1/DTD/svg11.dtd">
<!-- Generated by graphviz version 2.43.0 (0)
 -->
<!-- Title: opp Pages: 1 -->
<svg width="228pt" height="82pt"
 viewBox="0.00 0.00 228.00 82.00" xmlns="http://www.w3.org/2000/svg" xmlns:xlink="http://www.w3.org/1999/xlink">
<g id="graph0" class="graph" transform="scale(1 1) rotate(0) translate(4 78)">
<title>opp</title>
<polygon fill="transparent" stroke="transparent" points="-4,4 -4,-78 224,-78 224,4 -4,4"/>
<!-- IInfoVisualizer -->
<g id="node1" class="node">
<title>IInfoVisualizer</title>
<g id="a_node1"><a xlink:href="inet.visualizer.contract.IInfoVisualizer.html" xlink:title="Module Interface IInfoVisualizer" target="_parent">
<polygon fill="#fff700" stroke="black" stroke-dasharray="5,2" points="161.5,-74 75.5,-74 75.5,-55 161.5,-55 161.5,-74"/>
<text text-anchor="middle" x="118.5" y="-62" font-family="Helvetica,sans-Serif" font-size="10.00">IInfoVisualizer</text>
</a>
</g>
</g>
<!-- InfoCanvasVisualizer -->
<g id="node2" class="node">
<title>InfoCanvasVisualizer</title>
<g id="a_node2"><a xlink:href="inet.visualizer.canvas.common.InfoCanvasVisualizer.html" xlink:title="Simple Module InfoCanvasVisualizer" target="_parent">
<polygon fill="#fffcaf" stroke="black" points="119,-19 0,-19 0,0 119,0 119,-19"/>
<text text-anchor="middle" x="59.5" y="-7" font-family="Helvetica,sans-Serif" font-size="10.00">InfoCanvasVisualizer</text>
</a>
</g>
</g>
<!-- IInfoVisualizer&#45;&gt;InfoCanvasVisualizer -->
<g id="edge1" class="edge">
<title>IInfoVisualizer&#45;&gt;InfoCanvasVisualizer</title>
<path fill="none" stroke="black" stroke-dasharray="5,2" d="M109.02,-54.98C98.08,-45.15 80.17,-29.07 69.15,-19.17"/>
</g>
<!-- InfoVisualizer -->
<g id="node3" class="node">
<title>InfoVisualizer</title>
<g id="a_node3"><a xlink:href="inet.visualizer.common.InfoVisualizer.html" xlink:title="Compound Module InfoVisualizer" target="_parent">
<polygon fill="#fffcaf" stroke="black" points="220,-19 137,-19 137,0 220,0 220,-19"/>
<text text-anchor="middle" x="178.5" y="-7" font-family="Helvetica,sans-Serif" font-size="10.00">InfoVisualizer</text>
</a>
</g>
</g>
<!-- IInfoVisualizer&#45;&gt;InfoVisualizer -->
<g id="edge2" class="edge">
<title>IInfoVisualizer&#45;&gt;InfoVisualizer</title>
<path fill="none" stroke="black" stroke-dasharray="5,2" d="M128.14,-54.98C139.27,-45.15 157.48,-29.07 168.68,-19.17"/>
</g>
</g>
</svg>
