<?xml version="1.0" encoding="UTF-8" standalone="no"?>
<!DOCTYPE svg PUBLIC "-//W3C//DTD SVG 1.1//EN"
 "http://www.w3.org/Graphics/SVG/1.1/DTD/svg11.dtd">
<!-- Generated by graphviz version 2.43.0 (0)
 -->
<!-- Title: opp Pages: 1 -->
<svg width="3597pt" height="82pt"
 viewBox="0.00 0.00 3596.50 82.00" xmlns="http://www.w3.org/2000/svg" xmlns:xlink="http://www.w3.org/1999/xlink">
<g id="graph0" class="graph" transform="scale(1 1) rotate(0) translate(4 78)">
<title>opp</title>
<polygon fill="transparent" stroke="transparent" points="-4,4 -4,-78 3592.5,-78 3592.5,4 -4,4"/>
<!-- PacketProcessorBase -->
<g id="node1" class="node">
<title>PacketProcessorBase</title>
<g id="a_node1"><a xlink:href="inet.queueing.base.PacketProcessorBase.html" xlink:title="Simple Module PacketProcessorBase" target="_parent">
<polygon fill="#fff700" stroke="black" points="1824.5,-74 1705.5,-74 1705.5,-55 1824.5,-55 1824.5,-74"/>
<text text-anchor="middle" x="1765" y="-62" font-family="Helvetica,sans-Serif" font-size="10.00">PacketProcessorBase</text>
</a>
</g>
</g>
<!-- DscpMarker -->
<g id="node2" class="node">
<title>DscpMarker</title>
<g id="a_node2"><a xlink:href="inet.networklayer.diffserv.DscpMarker.html" xlink:title="Simple Module DscpMarker" target="_parent">
<polygon fill="#fffcaf" stroke="black" points="74,-19 0,-19 0,0 74,0 74,-19"/>
<text text-anchor="middle" x="37" y="-7" font-family="Helvetica,sans-Serif" font-size="10.00">DscpMarker</text>
</a>
</g>
</g>
<!-- PacketProcessorBase&#45;&gt;DscpMarker -->
<g id="edge1" class="edge">
<title>PacketProcessorBase&#45;&gt;DscpMarker</title>
<path fill="none" stroke="black" d="M1705.38,-63.17C1445.15,-61.55 407.29,-53.04 83,-19 80.09,-18.69 77.09,-18.31 74.08,-17.87"/>
</g>
<!-- EmptyPacketSource -->
<g id="node3" class="node">
<title>EmptyPacketSource</title>
<g id="a_node3"><a xlink:href="inet.queueing.source.EmptyPacketSource.html" xlink:title="Simple Module EmptyPacketSource" target="_parent">
<polygon fill="#fffcaf" stroke="black" points="205.5,-19 92.5,-19 92.5,0 205.5,0 205.5,-19"/>
<text text-anchor="middle" x="149" y="-7" font-family="Helvetica,sans-Serif" font-size="10.00">EmptyPacketSource</text>
</a>
</g>
</g>
<!-- PacketProcessorBase&#45;&gt;EmptyPacketSource -->
<g id="edge2" class="edge">
<title>PacketProcessorBase&#45;&gt;EmptyPacketSource</title>
<path fill="none" stroke="black" d="M1705.4,-63.92C1498.81,-64.91 794.37,-64.51 215,-19 212.01,-18.76 208.94,-18.49 205.84,-18.19"/>
</g>
<!-- FullPacketSink -->
<g id="node4" class="node">
<title>FullPacketSink</title>
<g id="a_node4"><a xlink:href="inet.queueing.sink.FullPacketSink.html" xlink:title="Simple Module FullPacketSink" target="_parent">
<polygon fill="#fffcaf" stroke="black" points="310,-19 224,-19 224,0 310,0 310,-19"/>
<text text-anchor="middle" x="267" y="-7" font-family="Helvetica,sans-Serif" font-size="10.00">FullPacketSink</text>
</a>
</g>
</g>
<!-- PacketProcessorBase&#45;&gt;FullPacketSink -->
<g id="edge3" class="edge">
<title>PacketProcessorBase&#45;&gt;FullPacketSink</title>
<path fill="none" stroke="black" d="M1705.19,-62.71C1468.21,-59.41 594.62,-45.65 319,-19 316.09,-18.72 313.09,-18.37 310.07,-17.99"/>
</g>
<!-- InterpacketGapInserter -->
<g id="node5" class="node">
<title>InterpacketGapInserter</title>
<g id="a_node5"><a xlink:href="inet.protocolelement.common.InterpacketGapInserter.html" xlink:title="Simple Module InterpacketGapInserter" target="_parent">
<polygon fill="#fffcaf" stroke="black" points="456,-19 328,-19 328,0 456,0 456,-19"/>
<text text-anchor="middle" x="392" y="-7" font-family="Helvetica,sans-Serif" font-size="10.00">InterpacketGapInserter</text>
</a>
</g>
</g>
<!-- PacketProcessorBase&#45;&gt;InterpacketGapInserter -->
<g id="edge4" class="edge">
<title>PacketProcessorBase&#45;&gt;InterpacketGapInserter</title>
<path fill="none" stroke="black" d="M1705.3,-63.19C1520.64,-61.86 942.4,-54.9 465,-19 462.07,-18.78 459.08,-18.53 456.07,-18.26"/>
</g>
<!-- MessageDispatcher -->
<g id="node6" class="node">
<title>MessageDispatcher</title>
<g id="a_node6"><a xlink:href="inet.common.MessageDispatcher.html" xlink:title="Simple Module MessageDispatcher" target="_parent">
<polygon fill="#fffcaf" stroke="black" points="587.5,-19 474.5,-19 474.5,0 587.5,0 587.5,-19"/>
<text text-anchor="middle" x="531" y="-7" font-family="Helvetica,sans-Serif" font-size="10.00">MessageDispatcher</text>
</a>
</g>
</g>
<!-- PacketProcessorBase&#45;&gt;MessageDispatcher -->
<g id="edge5" class="edge">
<title>PacketProcessorBase&#45;&gt;MessageDispatcher</title>
<path fill="none" stroke="black" d="M1705.27,-63.16C1532.92,-61.78 1019.99,-54.72 596,-19 593.28,-18.77 590.5,-18.51 587.69,-18.22"/>
</g>
<!-- PacketBufferBase -->
<g id="node7" class="node">
<title>PacketBufferBase</title>
<g id="a_node7"><a xlink:href="inet.queueing.base.PacketBufferBase.html" xlink:title="Simple Module PacketBufferBase" target="_parent">
<polygon fill="#fffcaf" stroke="black" points="706.5,-19 605.5,-19 605.5,0 706.5,0 706.5,-19"/>
<text text-anchor="middle" x="656" y="-7" font-family="Helvetica,sans-Serif" font-size="10.00">PacketBufferBase</text>
</a>
</g>
</g>
<!-- PacketProcessorBase&#45;&gt;PacketBufferBase -->
<g id="edge6" class="edge">
<title>PacketProcessorBase&#45;&gt;PacketBufferBase</title>
<path fill="none" stroke="black" d="M1705.36,-63.07C1544.93,-61.47 1090.83,-53.95 715,-19 712.32,-18.75 709.58,-18.46 706.81,-18.15"/>
</g>
<!-- PacketClassifierBase -->
<g id="node8" class="node">
<title>PacketClassifierBase</title>
<g id="a_node8"><a xlink:href="inet.queueing.base.PacketClassifierBase.html" xlink:title="Simple Module PacketClassifierBase" target="_parent">
<polygon fill="#fffcaf" stroke="black" points="841.5,-19 724.5,-19 724.5,0 841.5,0 841.5,-19"/>
<text text-anchor="middle" x="783" y="-7" font-family="Helvetica,sans-Serif" font-size="10.00">PacketClassifierBase</text>
</a>
</g>
</g>
<!-- PacketProcessorBase&#45;&gt;PacketClassifierBase -->
<g id="edge7" class="edge">
<title>PacketProcessorBase&#45;&gt;PacketClassifierBase</title>
<path fill="none" stroke="black" d="M1705.28,-62.16C1559.24,-58.53 1172.5,-46.88 851,-19 847.92,-18.73 844.76,-18.43 841.58,-18.11"/>
</g>
<!-- PacketCloner -->
<g id="node9" class="node">
<title>PacketCloner</title>
<g id="a_node9"><a xlink:href="inet.queueing.common.PacketCloner.html" xlink:title="Simple Module PacketCloner" target="_parent">
<polygon fill="#fffcaf" stroke="black" points="940,-19 860,-19 860,0 940,0 940,-19"/>
<text text-anchor="middle" x="900" y="-7" font-family="Helvetica,sans-Serif" font-size="10.00">PacketCloner</text>
</a>
</g>
</g>
<!-- PacketProcessorBase&#45;&gt;PacketCloner -->
<g id="edge8" class="edge">
<title>PacketProcessorBase&#45;&gt;PacketCloner</title>
<path fill="none" stroke="black" d="M1705.42,-62.64C1570.4,-60.17 1230.94,-51.03 949,-19 946.08,-18.67 943.08,-18.28 940.06,-17.84"/>
</g>
<!-- PacketDelayerBase -->
<g id="node10" class="node">
<title>PacketDelayerBase</title>
<g id="a_node10"><a xlink:href="inet.queueing.base.PacketDelayerBase.html" xlink:title="Simple Module PacketDelayerBase" target="_parent">
<polygon fill="#fffcaf" stroke="black" points="1068,-19 958,-19 958,0 1068,0 1068,-19"/>
<text text-anchor="middle" x="1013" y="-7" font-family="Helvetica,sans-Serif" font-size="10.00">PacketDelayerBase</text>
</a>
</g>
</g>
<!-- PacketProcessorBase&#45;&gt;PacketDelayerBase -->
<g id="edge9" class="edge">
<title>PacketProcessorBase&#45;&gt;PacketDelayerBase</title>
<path fill="none" stroke="black" d="M1705.07,-60.99C1585.46,-55.67 1308.68,-41.85 1077,-19 1074.1,-18.71 1071.13,-18.4 1068.13,-18.06"/>
</g>
<!-- PacketDemultiplexer -->
<g id="node11" class="node">
<title>PacketDemultiplexer</title>
<g id="a_node11"><a xlink:href="inet.queueing.common.PacketDemultiplexer.html" xlink:title="Simple Module PacketDemultiplexer" target="_parent">
<polygon fill="#fffcaf" stroke="black" points="1203.5,-19 1086.5,-19 1086.5,0 1203.5,0 1203.5,-19"/>
<text text-anchor="middle" x="1145" y="-7" font-family="Helvetica,sans-Serif" font-size="10.00">PacketDemultiplexer</text>
</a>
</g>
</g>
<!-- PacketProcessorBase&#45;&gt;PacketDemultiplexer -->
<g id="edge10" class="edge">
<title>PacketProcessorBase&#45;&gt;PacketDemultiplexer</title>
<path fill="none" stroke="black" d="M1705.29,-59.55C1603.95,-52.65 1391.85,-37.38 1213,-19 1209.92,-18.68 1206.77,-18.34 1203.59,-17.99"/>
</g>
<!-- PacketDestreamer -->
<g id="node12" class="node">
<title>PacketDestreamer</title>
<g id="a_node12"><a xlink:href="inet.protocolelement.common.PacketDestreamer.html" xlink:title="Simple Module PacketDestreamer" target="_parent">
<polygon fill="#fffcaf" stroke="black" points="1328,-19 1222,-19 1222,0 1328,0 1328,-19"/>
<text text-anchor="middle" x="1275" y="-7" font-family="Helvetica,sans-Serif" font-size="10.00">PacketDestreamer</text>
</a>
</g>
</g>
<!-- PacketProcessorBase&#45;&gt;PacketDestreamer -->
<g id="edge11" class="edge">
<title>PacketProcessorBase&#45;&gt;PacketDestreamer</title>
<path fill="none" stroke="black" d="M1705.39,-57.92C1622.63,-50.04 1468.28,-34.82 1337,-19 1334.09,-18.65 1331.1,-18.28 1328.09,-17.89"/>
</g>
<!-- PacketDuplicatorBase -->
<g id="node13" class="node">
<title>PacketDuplicatorBase</title>
<g id="a_node13"><a xlink:href="inet.queueing.base.PacketDuplicatorBase.html" xlink:title="Simple Module PacketDuplicatorBase" target="_parent">
<polygon fill="#fffcaf" stroke="black" points="1468,-19 1346,-19 1346,0 1468,0 1468,-19"/>
<text text-anchor="middle" x="1407" y="-7" font-family="Helvetica,sans-Serif" font-size="10.00">PacketDuplicatorBase</text>
</a>
</g>
</g>
<!-- PacketProcessorBase&#45;&gt;PacketDuplicatorBase -->
<g id="edge12" class="edge">
<title>PacketProcessorBase&#45;&gt;PacketDuplicatorBase</title>
<path fill="none" stroke="black" d="M1707.48,-54.98C1640.77,-45.11 1531.45,-28.92 1464.67,-19.04"/>
</g>
<!-- PacketFilterBase -->
<g id="node14" class="node">
<title>PacketFilterBase</title>
<g id="a_node14"><a xlink:href="inet.queueing.base.PacketFilterBase.html" xlink:title="Simple Module PacketFilterBase" target="_parent">
<polygon fill="#fffcaf" stroke="black" points="1583.5,-19 1486.5,-19 1486.5,0 1583.5,0 1583.5,-19"/>
<text text-anchor="middle" x="1535" y="-7" font-family="Helvetica,sans-Serif" font-size="10.00">PacketFilterBase</text>
</a>
</g>
</g>
<!-- PacketProcessorBase&#45;&gt;PacketFilterBase -->
<g id="edge13" class="edge">
<title>PacketProcessorBase&#45;&gt;PacketFilterBase</title>
<path fill="none" stroke="black" d="M1728.05,-54.98C1685.25,-45.12 1615.16,-28.97 1572.24,-19.08"/>
</g>
<!-- PacketFlowBase -->
<g id="node15" class="node">
<title>PacketFlowBase</title>
<g id="a_node15"><a xlink:href="inet.queueing.base.PacketFlowBase.html" xlink:title="Simple Module PacketFlowBase" target="_parent">
<polygon fill="#fffcaf" stroke="black" points="1696.5,-19 1601.5,-19 1601.5,0 1696.5,0 1696.5,-19"/>
<text text-anchor="middle" x="1649" y="-7" font-family="Helvetica,sans-Serif" font-size="10.00">PacketFlowBase</text>
</a>
</g>
</g>
<!-- PacketProcessorBase&#45;&gt;PacketFlowBase -->
<g id="edge14" class="edge">
<title>PacketProcessorBase&#45;&gt;PacketFlowBase</title>
<path fill="none" stroke="black" d="M1746.36,-54.98C1724.84,-45.15 1689.64,-29.07 1667.98,-19.17"/>
</g>
<!-- PacketMeterBase -->
<g id="node16" class="node">
<title>PacketMeterBase</title>
<g id="a_node16"><a xlink:href="inet.networklayer.diffserv.PacketMeterBase.html" xlink:title="Simple Module PacketMeterBase" target="_parent">
<polygon fill="#fffcaf" stroke="black" points="1815.5,-19 1714.5,-19 1714.5,0 1815.5,0 1815.5,-19"/>
<text text-anchor="middle" x="1765" y="-7" font-family="Helvetica,sans-Serif" font-size="10.00">PacketMeterBase</text>
</a>
</g>
</g>
<!-- PacketProcessorBase&#45;&gt;PacketMeterBase -->
<g id="edge15" class="edge">
<title>PacketProcessorBase&#45;&gt;PacketMeterBase</title>
<path fill="none" stroke="black" d="M1765,-54.75C1765,-44.87 1765,-28.9 1765,-19.09"/>
</g>
<!-- PacketMultiplexer -->
<g id="node17" class="node">
<title>PacketMultiplexer</title>
<g id="a_node17"><a xlink:href="inet.queueing.common.PacketMultiplexer.html" xlink:title="Simple Module PacketMultiplexer" target="_parent">
<polygon fill="#fffcaf" stroke="black" points="1936.5,-19 1833.5,-19 1833.5,0 1936.5,0 1936.5,-19"/>
<text text-anchor="middle" x="1885" y="-7" font-family="Helvetica,sans-Serif" font-size="10.00">PacketMultiplexer</text>
</a>
</g>
</g>
<!-- PacketProcessorBase&#45;&gt;PacketMultiplexer -->
<g id="edge16" class="edge">
<title>PacketProcessorBase&#45;&gt;PacketMultiplexer</title>
<path fill="none" stroke="black" d="M1784.28,-54.98C1806.54,-45.15 1842.96,-29.07 1865.37,-19.17"/>
</g>
<!-- PacketPullerBase -->
<g id="node18" class="node">
<title>PacketPullerBase</title>
<g id="a_node18"><a xlink:href="inet.queueing.base.PacketPullerBase.html" xlink:title="Simple Module PacketPullerBase" target="_parent">
<polygon fill="#fffcaf" stroke="black" points="2055,-19 1955,-19 1955,0 2055,0 2055,-19"/>
<text text-anchor="middle" x="2005" y="-7" font-family="Helvetica,sans-Serif" font-size="10.00">PacketPullerBase</text>
</a>
</g>
</g>
<!-- PacketProcessorBase&#45;&gt;PacketPullerBase -->
<g id="edge17" class="edge">
<title>PacketProcessorBase&#45;&gt;PacketPullerBase</title>
<path fill="none" stroke="black" d="M1803.56,-54.98C1848.21,-45.12 1921.36,-28.97 1966.14,-19.08"/>
</g>
<!-- PacketPusherBase -->
<g id="node19" class="node">
<title>PacketPusherBase</title>
<g id="a_node19"><a xlink:href="inet.queueing.base.PacketPusherBase.html" xlink:title="Simple Module PacketPusherBase" target="_parent">
<polygon fill="#fffcaf" stroke="black" points="2178.5,-19 2073.5,-19 2073.5,0 2178.5,0 2178.5,-19"/>
<text text-anchor="middle" x="2126" y="-7" font-family="Helvetica,sans-Serif" font-size="10.00">PacketPusherBase</text>
</a>
</g>
</g>
<!-- PacketProcessorBase&#45;&gt;PacketPusherBase -->
<g id="edge18" class="edge">
<title>PacketProcessorBase&#45;&gt;PacketPusherBase</title>
<path fill="none" stroke="black" d="M1823,-54.98C1892.16,-44.83 2006.75,-28.01 2073.43,-18.22"/>
</g>
<!-- PacketQueueBase -->
<g id="node20" class="node">
<title>PacketQueueBase</title>
<g id="a_node20"><a xlink:href="inet.queueing.base.PacketQueueBase.html" xlink:title="Simple Module PacketQueueBase" target="_parent">
<polygon fill="#fffcaf" stroke="black" points="2301,-19 2197,-19 2197,0 2301,0 2301,-19"/>
<text text-anchor="middle" x="2249" y="-7" font-family="Helvetica,sans-Serif" font-size="10.00">PacketQueueBase</text>
</a>
</g>
</g>
<!-- PacketProcessorBase&#45;&gt;PacketQueueBase -->
<g id="edge19" class="edge">
<title>PacketProcessorBase&#45;&gt;PacketQueueBase</title>
<path fill="none" stroke="black" d="M1824.62,-57.87C1906.58,-49.97 2058.63,-34.81 2188,-19 2190.87,-18.65 2193.81,-18.28 2196.77,-17.9"/>
</g>
<!-- PacketReceiverBase -->
<g id="node21" class="node">
<title>PacketReceiverBase</title>
<g id="a_node21"><a xlink:href="inet.protocolelement.transceiver.base.PacketReceiverBase.html" xlink:title="Simple Module PacketReceiverBase" target="_parent">
<polygon fill="#fffcaf" stroke="black" points="2434.5,-19 2319.5,-19 2319.5,0 2434.5,0 2434.5,-19"/>
<text text-anchor="middle" x="2377" y="-7" font-family="Helvetica,sans-Serif" font-size="10.00">PacketReceiverBase</text>
</a>
</g>
</g>
<!-- PacketProcessorBase&#45;&gt;PacketReceiverBase -->
<g id="edge20" class="edge">
<title>PacketProcessorBase&#45;&gt;PacketReceiverBase</title>
<path fill="none" stroke="black" d="M1824.76,-59.5C1925.13,-52.58 2133.9,-37.35 2310,-19 2313.03,-18.68 2316.14,-18.34 2319.28,-17.99"/>
</g>
<!-- PacketSchedulerBase -->
<g id="node22" class="node">
<title>PacketSchedulerBase</title>
<g id="a_node22"><a xlink:href="inet.queueing.base.PacketSchedulerBase.html" xlink:title="Simple Module PacketSchedulerBase" target="_parent">
<polygon fill="#fffcaf" stroke="black" points="2573,-19 2453,-19 2453,0 2573,0 2573,-19"/>
<text text-anchor="middle" x="2513" y="-7" font-family="Helvetica,sans-Serif" font-size="10.00">PacketSchedulerBase</text>
</a>
</g>
</g>
<!-- PacketProcessorBase&#45;&gt;PacketSchedulerBase -->
<g id="edge21" class="edge">
<title>PacketProcessorBase&#45;&gt;PacketSchedulerBase</title>
<path fill="none" stroke="black" d="M1824.58,-60.74C1942.84,-55.01 2215.54,-40.54 2444,-19 2446.88,-18.73 2449.83,-18.43 2452.81,-18.12"/>
</g>
<!-- PacketSendToPush -->
<g id="node23" class="node">
<title>PacketSendToPush</title>
<g id="a_node23"><a xlink:href="inet.queueing.common.PacketSendToPush.html" xlink:title="Simple Module PacketSendToPush" target="_parent">
<polygon fill="#fffcaf" stroke="black" points="2697,-19 2591,-19 2591,0 2697,0 2697,-19"/>
<text text-anchor="middle" x="2644" y="-7" font-family="Helvetica,sans-Serif" font-size="10.00">PacketSendToPush</text>
</a>
</g>
</g>
<!-- PacketProcessorBase&#45;&gt;PacketSendToPush -->
<g id="edge22" class="edge">
<title>PacketProcessorBase&#45;&gt;PacketSendToPush</title>
<path fill="none" stroke="black" d="M1824.58,-61.93C1959.61,-57.99 2299.19,-46.04 2582,-19 2584.92,-18.72 2587.91,-18.41 2590.93,-18.07"/>
</g>
<!-- PacketServerBase -->
<g id="node24" class="node">
<title>PacketServerBase</title>
<g id="a_node24"><a xlink:href="inet.queueing.base.PacketServerBase.html" xlink:title="Simple Module PacketServerBase" target="_parent">
<polygon fill="#fffcaf" stroke="black" points="2819,-19 2715,-19 2715,0 2819,0 2819,-19"/>
<text text-anchor="middle" x="2767" y="-7" font-family="Helvetica,sans-Serif" font-size="10.00">PacketServerBase</text>
</a>
</g>
</g>
<!-- PacketProcessorBase&#45;&gt;PacketServerBase -->
<g id="edge23" class="edge">
<title>PacketProcessorBase&#45;&gt;PacketServerBase</title>
<path fill="none" stroke="black" d="M1824.58,-62.57C1973.5,-59.83 2373.79,-49.94 2706,-19 2708.87,-18.73 2711.82,-18.43 2714.79,-18.09"/>
</g>
<!-- PacketSinkBase -->
<g id="node25" class="node">
<title>PacketSinkBase</title>
<g id="a_node25"><a xlink:href="inet.queueing.base.PacketSinkBase.html" xlink:title="Simple Module PacketSinkBase" target="_parent">
<polygon fill="#fffcaf" stroke="black" points="2930.5,-19 2837.5,-19 2837.5,0 2930.5,0 2930.5,-19"/>
<text text-anchor="middle" x="2884" y="-7" font-family="Helvetica,sans-Serif" font-size="10.00">PacketSinkBase</text>
</a>
</g>
</g>
<!-- PacketProcessorBase&#45;&gt;PacketSinkBase -->
<g id="edge24" class="edge">
<title>PacketProcessorBase&#45;&gt;PacketSinkBase</title>
<path fill="none" stroke="black" d="M1824.51,-63.28C1986.18,-62.17 2446.96,-55.78 2828,-19 2831.03,-18.71 2834.15,-18.36 2837.3,-17.98"/>
</g>
<!-- PacketSourceBase -->
<g id="node26" class="node">
<title>PacketSourceBase</title>
<g id="a_node26"><a xlink:href="inet.queueing.base.PacketSourceBase.html" xlink:title="Simple Module PacketSourceBase" target="_parent">
<polygon fill="#fffcaf" stroke="black" points="3053.5,-19 2948.5,-19 2948.5,0 3053.5,0 3053.5,-19"/>
<text text-anchor="middle" x="3001" y="-7" font-family="Helvetica,sans-Serif" font-size="10.00">PacketSourceBase</text>
</a>
</g>
</g>
<!-- PacketProcessorBase&#45;&gt;PacketSourceBase -->
<g id="edge25" class="edge">
<title>PacketProcessorBase&#45;&gt;PacketSourceBase</title>
<path fill="none" stroke="black" d="M1824.74,-63.36C1997.71,-62.49 2513.73,-56.67 2940,-19 2942.77,-18.76 2945.61,-18.47 2948.47,-18.16"/>
</g>
<!-- PacketStreamer -->
<g id="node27" class="node">
<title>PacketStreamer</title>
<g id="a_node27"><a xlink:href="inet.protocolelement.common.PacketStreamer.html" xlink:title="Simple Module PacketStreamer" target="_parent">
<polygon fill="#fffcaf" stroke="black" points="3164.5,-19 3071.5,-19 3071.5,0 3164.5,0 3164.5,-19"/>
<text text-anchor="middle" x="3118" y="-7" font-family="Helvetica,sans-Serif" font-size="10.00">PacketStreamer</text>
</a>
</g>
</g>
<!-- PacketProcessorBase&#45;&gt;PacketStreamer -->
<g id="edge26" class="edge">
<title>PacketProcessorBase&#45;&gt;PacketStreamer</title>
<path fill="none" stroke="black" d="M1824.67,-63.98C2009.25,-64.91 2587.08,-63.77 3063,-19 3065.69,-18.75 3068.46,-18.45 3071.24,-18.11"/>
</g>
<!-- PacketTransmitterBase -->
<g id="node28" class="node">
<title>PacketTransmitterBase</title>
<g id="a_node28"><a xlink:href="inet.protocolelement.transceiver.base.PacketTransmitterBase.html" xlink:title="Simple Module PacketTransmitterBase" target="_parent">
<polygon fill="#fffcaf" stroke="black" points="3311,-19 3183,-19 3183,0 3311,0 3311,-19"/>
<text text-anchor="middle" x="3247" y="-7" font-family="Helvetica,sans-Serif" font-size="10.00">PacketTransmitterBase</text>
</a>
</g>
</g>
<!-- PacketProcessorBase&#45;&gt;PacketTransmitterBase -->
<g id="edge27" class="edge">
<title>PacketProcessorBase&#45;&gt;PacketTransmitterBase</title>
<path fill="none" stroke="black" d="M1824.84,-63.41C2019.5,-62.75 2652.29,-57.54 3174,-19 3176.93,-18.78 3179.92,-18.54 3182.94,-18.27"/>
</g>
<!-- PreemptableStreamer -->
<g id="node29" class="node">
<title>PreemptableStreamer</title>
<g id="a_node29"><a xlink:href="inet.protocolelement.common.PreemptableStreamer.html" xlink:title="Simple Module PreemptableStreamer" target="_parent">
<polygon fill="#fffcaf" stroke="black" points="3453,-19 3329,-19 3329,0 3453,0 3453,-19"/>
<text text-anchor="middle" x="3391" y="-7" font-family="Helvetica,sans-Serif" font-size="10.00">PreemptableStreamer</text>
</a>
</g>
</g>
<!-- PacketProcessorBase&#45;&gt;PreemptableStreamer -->
<g id="edge28" class="edge">
<title>PacketProcessorBase&#45;&gt;PreemptableStreamer</title>
<path fill="none" stroke="black" d="M1824.78,-63.73C2031.99,-64.13 2738.56,-62.04 3320,-19 3322.85,-18.79 3325.76,-18.55 3328.69,-18.28"/>
</g>
<!-- TokenGeneratorBase -->
<g id="node30" class="node">
<title>TokenGeneratorBase</title>
<g id="a_node30"><a xlink:href="inet.queueing.base.TokenGeneratorBase.html" xlink:title="Simple Module TokenGeneratorBase" target="_parent">
<polygon fill="#fffcaf" stroke="black" points="3588.5,-19 3471.5,-19 3471.5,0 3588.5,0 3588.5,-19"/>
<text text-anchor="middle" x="3530" y="-7" font-family="Helvetica,sans-Serif" font-size="10.00">TokenGeneratorBase</text>
</a>
</g>
</g>
<!-- PacketProcessorBase&#45;&gt;TokenGeneratorBase -->
<g id="edge29" class="edge">
<title>PacketProcessorBase&#45;&gt;TokenGeneratorBase</title>
<path fill="none" stroke="black" d="M1824.67,-62.72C2086.31,-59.19 3133.77,-43.76 3462,-19 3465.08,-18.77 3468.24,-18.49 3471.43,-18.19"/>
</g>
</g>
</svg>
