<?xml version="1.0" encoding="UTF-8" standalone="no"?>
<!DOCTYPE svg PUBLIC "-//W3C//DTD SVG 1.1//EN"
 "http://www.w3.org/Graphics/SVG/1.1/DTD/svg11.dtd">
<!-- Generated by graphviz version 2.43.0 (0)
 -->
<!-- Title: opp Pages: 1 -->
<svg width="109pt" height="137pt"
 viewBox="0.00 0.00 109.00 137.00" xmlns="http://www.w3.org/2000/svg" xmlns:xlink="http://www.w3.org/1999/xlink">
<g id="graph0" class="graph" transform="scale(1 1) rotate(0) translate(4 133)">
<title>opp</title>
<polygon fill="transparent" stroke="transparent" points="-4,4 -4,-133 105,-133 105,4 -4,4"/>
<!-- MyRouter -->
<g id="node1" class="node">
<title>MyRouter</title>
<g id="a_node1"><a xlink:href="inet.examples.inet.ipv4hook.MyRouter.html" xlink:title="Compound Module MyRouter" target="_parent">
<polygon fill="#fff700" stroke="black" points="82.5,-74 18.5,-74 18.5,-55 82.5,-55 82.5,-74"/>
<text text-anchor="middle" x="50.5" y="-62" font-family="Helvetica,sans-Serif" font-size="10.00">MyRouter</text>
</a>
</g>
</g>
<!-- NetfilterInfoHook -->
<g id="node2" class="node">
<title>NetfilterInfoHook</title>
<g id="a_node2"><a xlink:href="inet.networklayer.common.NetfilterInfoHook.html" xlink:title="Simple Module NetfilterInfoHook" target="_parent">
<polygon fill="#fffcaf" stroke="black" points="101,-19 0,-19 0,0 101,0 101,-19"/>
<text text-anchor="middle" x="50.5" y="-7" font-family="Helvetica,sans-Serif" font-size="10.00">NetfilterInfoHook</text>
</a>
</g>
</g>
<!-- MyRouter&#45;&gt;NetfilterInfoHook -->
<g id="edge1" class="edge">
<title>MyRouter&#45;&gt;NetfilterInfoHook</title>
<path fill="none" stroke="black" d="M50.5,-54.75C50.5,-47.8 50.5,-37.85 50.5,-29.13"/>
<polygon fill="black" stroke="black" points="54,-29.09 50.5,-19.09 47,-29.09 54,-29.09"/>
</g>
<!-- Ipv4hook -->
<g id="node3" class="node">
<title>Ipv4hook</title>
<g id="a_node3"><a xlink:href="inet.examples.inet.ipv4hook.Ipv4hook.html" xlink:title="Network Ipv4hook" target="_parent">
<polygon fill="#d0d0ff" stroke="black" points="81.5,-129 19.5,-129 19.5,-110 81.5,-110 81.5,-129"/>
<text text-anchor="middle" x="50.5" y="-117" font-family="Helvetica,sans-Serif" font-size="10.00">Ipv4hook</text>
</a>
</g>
</g>
<!-- Ipv4hook&#45;&gt;MyRouter -->
<g id="edge2" class="edge">
<title>Ipv4hook&#45;&gt;MyRouter</title>
<path fill="none" stroke="black" d="M50.5,-109.75C50.5,-102.8 50.5,-92.85 50.5,-84.13"/>
<polygon fill="black" stroke="black" points="54,-84.09 50.5,-74.09 47,-84.09 54,-84.09"/>
</g>
</g>
</svg>
