<?xml version="1.0" encoding="UTF-8" standalone="no"?>
<!DOCTYPE svg PUBLIC "-//W3C//DTD SVG 1.1//EN"
 "http://www.w3.org/Graphics/SVG/1.1/DTD/svg11.dtd">
<!-- Generated by graphviz version 2.43.0 (0)
 -->
<!-- Title: opp Pages: 1 -->
<svg width="136pt" height="137pt"
 viewBox="0.00 0.00 136.00 137.00" xmlns="http://www.w3.org/2000/svg" xmlns:xlink="http://www.w3.org/1999/xlink">
<g id="graph0" class="graph" transform="scale(1 1) rotate(0) translate(4 133)">
<title>opp</title>
<polygon fill="transparent" stroke="transparent" points="-4,4 -4,-133 132,-133 132,4 -4,4"/>
<!-- RadioVisualizerBase -->
<g id="node1" class="node">
<title>RadioVisualizerBase</title>
<g id="a_node1"><a xlink:href="inet.visualizer.base.RadioVisualizerBase.html" xlink:title="Simple Module RadioVisualizerBase" target="_parent">
<polygon fill="#fff700" stroke="black" points="122,-74 6,-74 6,-55 122,-55 122,-74"/>
<text text-anchor="middle" x="64" y="-62" font-family="Helvetica,sans-Serif" font-size="10.00">RadioVisualizerBase</text>
</a>
</g>
</g>
<!-- RadioCanvasVisualizer -->
<g id="node3" class="node">
<title>RadioCanvasVisualizer</title>
<g id="a_node3"><a xlink:href="inet.visualizer.canvas.physicallayer.RadioCanvasVisualizer.html" xlink:title="Simple Module RadioCanvasVisualizer" target="_parent">
<polygon fill="#fffcaf" stroke="black" points="128,-19 0,-19 0,0 128,0 128,-19"/>
<text text-anchor="middle" x="64" y="-7" font-family="Helvetica,sans-Serif" font-size="10.00">RadioCanvasVisualizer</text>
</a>
</g>
</g>
<!-- RadioVisualizerBase&#45;&gt;RadioCanvasVisualizer -->
<g id="edge2" class="edge">
<title>RadioVisualizerBase&#45;&gt;RadioCanvasVisualizer</title>
<path fill="none" stroke="black" d="M64,-54.75C64,-44.87 64,-28.9 64,-19.09"/>
</g>
<!-- VisualizerBase -->
<g id="node2" class="node">
<title>VisualizerBase</title>
<g id="a_node2"><a xlink:href="inet.visualizer.base.VisualizerBase.html" xlink:title="Simple Module VisualizerBase" target="_parent">
<polygon fill="#fffcaf" stroke="black" points="108.5,-129 19.5,-129 19.5,-110 108.5,-110 108.5,-129"/>
<text text-anchor="middle" x="64" y="-117" font-family="Helvetica,sans-Serif" font-size="10.00">VisualizerBase</text>
</a>
</g>
</g>
<!-- VisualizerBase&#45;&gt;RadioVisualizerBase -->
<g id="edge1" class="edge">
<title>VisualizerBase&#45;&gt;RadioVisualizerBase</title>
<path fill="none" stroke="black" d="M64,-109.75C64,-99.87 64,-83.9 64,-74.09"/>
</g>
</g>
</svg>
