<?xml version="1.0" encoding="UTF-8" standalone="no"?>
<!DOCTYPE svg PUBLIC "-//W3C//DTD SVG 1.1//EN"
 "http://www.w3.org/Graphics/SVG/1.1/DTD/svg11.dtd">
<!-- Generated by graphviz version 2.43.0 (0)
 -->
<!-- Title: opp Pages: 1 -->
<svg width="354pt" height="137pt"
 viewBox="0.00 0.00 353.50 137.00" xmlns="http://www.w3.org/2000/svg" xmlns:xlink="http://www.w3.org/1999/xlink">
<g id="graph0" class="graph" transform="scale(1 1) rotate(0) translate(4 133)">
<title>opp</title>
<polygon fill="transparent" stroke="transparent" points="-4,4 -4,-133 349.5,-133 349.5,4 -4,4"/>
<!-- MultiTokenBucketClassifier -->
<g id="node1" class="node">
<title>MultiTokenBucketClassifier</title>
<g id="a_node1"><a xlink:href="inet.queueing.classifier.MultiTokenBucketClassifier.html" xlink:title="Simple Module MultiTokenBucketClassifier" target="_parent">
<polygon fill="#fff700" stroke="black" points="244.5,-74 97.5,-74 97.5,-55 244.5,-55 244.5,-74"/>
<text text-anchor="middle" x="171" y="-62" font-family="Helvetica,sans-Serif" font-size="10.00">MultiTokenBucketClassifier</text>
</a>
</g>
</g>
<!-- DualRateThreeColorClassifier -->
<g id="node4" class="node">
<title>DualRateThreeColorClassifier</title>
<g id="a_node4"><a xlink:href="inet.queueing.classifier.DualRateThreeColorClassifier.html" xlink:title="Simple Module DualRateThreeColorClassifier" target="_parent">
<polygon fill="#fffcaf" stroke="black" points="160,-19 0,-19 0,0 160,0 160,-19"/>
<text text-anchor="middle" x="80" y="-7" font-family="Helvetica,sans-Serif" font-size="10.00">DualRateThreeColorClassifier</text>
</a>
</g>
</g>
<!-- MultiTokenBucketClassifier&#45;&gt;DualRateThreeColorClassifier -->
<g id="edge3" class="edge">
<title>MultiTokenBucketClassifier&#45;&gt;DualRateThreeColorClassifier</title>
<path fill="none" stroke="black" d="M156.38,-54.98C139.5,-45.15 111.88,-29.07 94.89,-19.17"/>
</g>
<!-- SingleRateThreeColorClassifier -->
<g id="node5" class="node">
<title>SingleRateThreeColorClassifier</title>
<g id="a_node5"><a xlink:href="inet.queueing.classifier.SingleRateThreeColorClassifier.html" xlink:title="Simple Module SingleRateThreeColorClassifier" target="_parent">
<polygon fill="#fffcaf" stroke="black" points="345.5,-19 178.5,-19 178.5,0 345.5,0 345.5,-19"/>
<text text-anchor="middle" x="262" y="-7" font-family="Helvetica,sans-Serif" font-size="10.00">SingleRateThreeColorClassifier</text>
</a>
</g>
</g>
<!-- MultiTokenBucketClassifier&#45;&gt;SingleRateThreeColorClassifier -->
<g id="edge4" class="edge">
<title>MultiTokenBucketClassifier&#45;&gt;SingleRateThreeColorClassifier</title>
<path fill="none" stroke="black" d="M185.62,-54.98C202.5,-45.15 230.12,-29.07 247.11,-19.17"/>
</g>
<!-- PacketClassifierBase -->
<g id="node2" class="node">
<title>PacketClassifierBase</title>
<g id="a_node2"><a xlink:href="inet.queueing.base.PacketClassifierBase.html" xlink:title="Simple Module PacketClassifierBase" target="_parent">
<polygon fill="#fffcaf" stroke="black" points="167.5,-129 50.5,-129 50.5,-110 167.5,-110 167.5,-129"/>
<text text-anchor="middle" x="109" y="-117" font-family="Helvetica,sans-Serif" font-size="10.00">PacketClassifierBase</text>
</a>
</g>
</g>
<!-- PacketClassifierBase&#45;&gt;MultiTokenBucketClassifier -->
<g id="edge1" class="edge">
<title>PacketClassifierBase&#45;&gt;MultiTokenBucketClassifier</title>
<path fill="none" stroke="black" d="M118.96,-109.98C130.46,-100.15 149.28,-84.07 160.86,-74.17"/>
</g>
<!-- IPacketClassifier -->
<g id="node3" class="node">
<title>IPacketClassifier</title>
<g id="a_node3"><a xlink:href="inet.queueing.contract.IPacketClassifier.html" xlink:title="Module Interface IPacketClassifier" target="_parent">
<polygon fill="#fffcaf" stroke="black" stroke-dasharray="5,2" points="282,-129 186,-129 186,-110 282,-110 282,-129"/>
<text text-anchor="middle" x="234" y="-117" font-family="Helvetica,sans-Serif" font-size="10.00">IPacketClassifier</text>
</a>
</g>
</g>
<!-- IPacketClassifier&#45;&gt;MultiTokenBucketClassifier -->
<g id="edge2" class="edge">
<title>IPacketClassifier&#45;&gt;MultiTokenBucketClassifier</title>
<path fill="none" stroke="black" stroke-dasharray="5,2" d="M223.88,-109.98C212.19,-100.15 193.07,-84.07 181.31,-74.17"/>
</g>
</g>
</svg>
