<?xml version="1.0" encoding="UTF-8" standalone="no"?>
<!DOCTYPE svg PUBLIC "-//W3C//DTD SVG 1.1//EN"
 "http://www.w3.org/Graphics/SVG/1.1/DTD/svg11.dtd">
<!-- Generated by graphviz version 2.43.0 (0)
 -->
<!-- Title: opp Pages: 1 -->
<svg width="194pt" height="82pt"
 viewBox="0.00 0.00 193.50 82.00" xmlns="http://www.w3.org/2000/svg" xmlns:xlink="http://www.w3.org/1999/xlink">
<g id="graph0" class="graph" transform="scale(1 1) rotate(0) translate(4 78)">
<title>opp</title>
<polygon fill="transparent" stroke="transparent" points="-4,4 -4,-78 189.5,-78 189.5,4 -4,4"/>
<!-- IGround -->
<g id="node1" class="node">
<title>IGround</title>
<g id="a_node1"><a xlink:href="inet.environment.contract.IGround.html" xlink:title="Module Interface IGround" target="_parent">
<polygon fill="#fff700" stroke="black" stroke-dasharray="5,2" points="114,-74 59,-74 59,-55 114,-55 114,-74"/>
<text text-anchor="middle" x="86.5" y="-62" font-family="Helvetica,sans-Serif" font-size="10.00">IGround</text>
</a>
</g>
</g>
<!-- FlatGround -->
<g id="node2" class="node">
<title>FlatGround</title>
<g id="a_node2"><a xlink:href="inet.environment.ground.FlatGround.html" xlink:title="Compound Module FlatGround" target="_parent">
<polygon fill="#fffcaf" stroke="black" points="71,-19 0,-19 0,0 71,0 71,-19"/>
<text text-anchor="middle" x="35.5" y="-7" font-family="Helvetica,sans-Serif" font-size="10.00">FlatGround</text>
</a>
</g>
</g>
<!-- IGround&#45;&gt;FlatGround -->
<g id="edge1" class="edge">
<title>IGround&#45;&gt;FlatGround</title>
<path fill="none" stroke="black" stroke-dasharray="5,2" d="M78.08,-54.75C68.57,-44.87 53.21,-28.9 43.76,-19.09"/>
</g>
<!-- OsgEarthGround -->
<g id="node3" class="node">
<title>OsgEarthGround</title>
<g id="a_node3"><a xlink:href="inet.environment.ground.OsgEarthGround.html" xlink:title="Compound Module OsgEarthGround" target="_parent">
<polygon fill="#fffcaf" stroke="black" points="185.5,-19 89.5,-19 89.5,0 185.5,0 185.5,-19"/>
<text text-anchor="middle" x="137.5" y="-7" font-family="Helvetica,sans-Serif" font-size="10.00">OsgEarthGround</text>
</a>
</g>
</g>
<!-- IGround&#45;&gt;OsgEarthGround -->
<g id="edge2" class="edge">
<title>IGround&#45;&gt;OsgEarthGround</title>
<path fill="none" stroke="black" stroke-dasharray="5,2" d="M94.92,-54.75C104.43,-44.87 119.79,-28.9 129.24,-19.09"/>
</g>
</g>
</svg>
