<?xml version="1.0" encoding="UTF-8" standalone="no"?>
<!DOCTYPE svg PUBLIC "-//W3C//DTD SVG 1.1//EN"
 "http://www.w3.org/Graphics/SVG/1.1/DTD/svg11.dtd">
<!-- Generated by graphviz version 2.43.0 (0)
 -->
<!-- Title: opp Pages: 1 -->
<svg width="156pt" height="137pt"
 viewBox="0.00 0.00 156.00 137.00" xmlns="http://www.w3.org/2000/svg" xmlns:xlink="http://www.w3.org/1999/xlink">
<g id="graph0" class="graph" transform="scale(1 1) rotate(0) translate(4 133)">
<title>opp</title>
<polygon fill="transparent" stroke="transparent" points="-4,4 -4,-133 152,-133 152,4 -4,4"/>
<!-- Ieee80211NistErrorModel -->
<g id="node1" class="node">
<title>Ieee80211NistErrorModel</title>
<g id="a_node1"><a xlink:href="inet.physicallayer.wireless.ieee80211.packetlevel.errormodel.Ieee80211NistErrorModel.html" xlink:title="Compound Module Ieee80211NistErrorModel" target="_parent">
<polygon fill="#fff700" stroke="black" points="144,-74 4,-74 4,-55 144,-55 144,-74"/>
<text text-anchor="middle" x="74" y="-62" font-family="Helvetica,sans-Serif" font-size="10.00">Ieee80211NistErrorModel</text>
</a>
</g>
</g>
<!-- Ieee80211OfdmErrorModel -->
<g id="node3" class="node">
<title>Ieee80211OfdmErrorModel</title>
<g id="a_node3"><a xlink:href="inet.physicallayer.wireless.ieee80211.bitlevel.errormodel.Ieee80211OfdmErrorModel.html" xlink:title="Compound Module Ieee80211OfdmErrorModel" target="_parent">
<polygon fill="#fffcaf" stroke="black" points="148,-19 0,-19 0,0 148,0 148,-19"/>
<text text-anchor="middle" x="74" y="-7" font-family="Helvetica,sans-Serif" font-size="10.00">Ieee80211OfdmErrorModel</text>
</a>
</g>
</g>
<!-- Ieee80211NistErrorModel&#45;&gt;Ieee80211OfdmErrorModel -->
<g id="edge2" class="edge">
<title>Ieee80211NistErrorModel&#45;&gt;Ieee80211OfdmErrorModel</title>
<path fill="none" stroke="black" d="M74,-54.75C74,-44.87 74,-28.9 74,-19.09"/>
</g>
<!-- ErrorModelBase -->
<g id="node2" class="node">
<title>ErrorModelBase</title>
<g id="a_node2"><a xlink:href="inet.physicallayer.wireless.common.base.packetlevel.ErrorModelBase.html" xlink:title="Compound Module ErrorModelBase" target="_parent">
<polygon fill="#fffcaf" stroke="black" points="121,-129 27,-129 27,-110 121,-110 121,-129"/>
<text text-anchor="middle" x="74" y="-117" font-family="Helvetica,sans-Serif" font-size="10.00">ErrorModelBase</text>
</a>
</g>
</g>
<!-- ErrorModelBase&#45;&gt;Ieee80211NistErrorModel -->
<g id="edge1" class="edge">
<title>ErrorModelBase&#45;&gt;Ieee80211NistErrorModel</title>
<path fill="none" stroke="black" d="M74,-109.75C74,-99.87 74,-83.9 74,-74.09"/>
</g>
</g>
</svg>
