<?xml version="1.0" encoding="UTF-8" standalone="no"?>
<!DOCTYPE svg PUBLIC "-//W3C//DTD SVG 1.1//EN"
 "http://www.w3.org/Graphics/SVG/1.1/DTD/svg11.dtd">
<!-- Generated by graphviz version 2.43.0 (0)
 -->
<!-- Title: opp Pages: 1 -->
<svg width="742pt" height="137pt"
 viewBox="0.00 0.00 742.00 137.00" xmlns="http://www.w3.org/2000/svg" xmlns:xlink="http://www.w3.org/1999/xlink">
<g id="graph0" class="graph" transform="scale(1 1) rotate(0) translate(4 133)">
<title>opp</title>
<polygon fill="transparent" stroke="transparent" points="-4,4 -4,-133 738,-133 738,4 -4,4"/>
<!-- ErrorModelBase -->
<g id="node1" class="node">
<title>ErrorModelBase</title>
<g id="a_node1"><a xlink:href="inet.physicallayer.wireless.common.base.packetlevel.ErrorModelBase.html" xlink:title="Compound Module ErrorModelBase" target="_parent">
<polygon fill="#fff700" stroke="black" points="411,-74 317,-74 317,-55 411,-55 411,-74"/>
<text text-anchor="middle" x="364" y="-62" font-family="Helvetica,sans-Serif" font-size="10.00">ErrorModelBase</text>
</a>
</g>
</g>
<!-- ApskErrorModel -->
<g id="node3" class="node">
<title>ApskErrorModel</title>
<g id="a_node3"><a xlink:href="inet.physicallayer.wireless.apsk.packetlevel.errormodel.ApskErrorModel.html" xlink:title="Compound Module ApskErrorModel" target="_parent">
<polygon fill="#fffcaf" stroke="black" points="94,-19 0,-19 0,0 94,0 94,-19"/>
<text text-anchor="middle" x="47" y="-7" font-family="Helvetica,sans-Serif" font-size="10.00">ApskErrorModel</text>
</a>
</g>
</g>
<!-- ErrorModelBase&#45;&gt;ApskErrorModel -->
<g id="edge2" class="edge">
<title>ErrorModelBase&#45;&gt;ApskErrorModel</title>
<path fill="none" stroke="black" d="M316.88,-55.62C256.95,-45.6 154.05,-28.4 94.12,-18.38"/>
</g>
<!-- Ieee80211BerTableErrorModel -->
<g id="node4" class="node">
<title>Ieee80211BerTableErrorModel</title>
<g id="a_node4"><a xlink:href="inet.physicallayer.wireless.ieee80211.packetlevel.errormodel.Ieee80211BerTableErrorModel.html" xlink:title="Compound Module Ieee80211BerTableErrorModel" target="_parent">
<polygon fill="#fffcaf" stroke="black" points="275.5,-19 112.5,-19 112.5,0 275.5,0 275.5,-19"/>
<text text-anchor="middle" x="194" y="-7" font-family="Helvetica,sans-Serif" font-size="10.00">Ieee80211BerTableErrorModel</text>
</a>
</g>
</g>
<!-- ErrorModelBase&#45;&gt;Ieee80211BerTableErrorModel -->
<g id="edge3" class="edge">
<title>ErrorModelBase&#45;&gt;Ieee80211BerTableErrorModel</title>
<path fill="none" stroke="black" d="M336.69,-54.98C305.06,-45.12 253.25,-28.97 221.53,-19.08"/>
</g>
<!-- Ieee80211NistErrorModel -->
<g id="node5" class="node">
<title>Ieee80211NistErrorModel</title>
<g id="a_node5"><a xlink:href="inet.physicallayer.wireless.ieee80211.packetlevel.errormodel.Ieee80211NistErrorModel.html" xlink:title="Compound Module Ieee80211NistErrorModel" target="_parent">
<polygon fill="#fffcaf" stroke="black" points="434,-19 294,-19 294,0 434,0 434,-19"/>
<text text-anchor="middle" x="364" y="-7" font-family="Helvetica,sans-Serif" font-size="10.00">Ieee80211NistErrorModel</text>
</a>
</g>
</g>
<!-- ErrorModelBase&#45;&gt;Ieee80211NistErrorModel -->
<g id="edge4" class="edge">
<title>ErrorModelBase&#45;&gt;Ieee80211NistErrorModel</title>
<path fill="none" stroke="black" d="M364,-54.75C364,-44.87 364,-28.9 364,-19.09"/>
</g>
<!-- Ieee80211YansErrorModel -->
<g id="node6" class="node">
<title>Ieee80211YansErrorModel</title>
<g id="a_node6"><a xlink:href="inet.physicallayer.wireless.ieee80211.packetlevel.errormodel.Ieee80211YansErrorModel.html" xlink:title="Compound Module Ieee80211YansErrorModel" target="_parent">
<polygon fill="#fffcaf" stroke="black" points="595.5,-19 452.5,-19 452.5,0 595.5,0 595.5,-19"/>
<text text-anchor="middle" x="524" y="-7" font-family="Helvetica,sans-Serif" font-size="10.00">Ieee80211YansErrorModel</text>
</a>
</g>
</g>
<!-- ErrorModelBase&#45;&gt;Ieee80211YansErrorModel -->
<g id="edge5" class="edge">
<title>ErrorModelBase&#45;&gt;Ieee80211YansErrorModel</title>
<path fill="none" stroke="black" d="M389.71,-54.98C419.48,-45.12 468.24,-28.97 498.09,-19.08"/>
</g>
<!-- StochasticErrorModel -->
<g id="node7" class="node">
<title>StochasticErrorModel</title>
<g id="a_node7"><a xlink:href="inet.physicallayer.wireless.common.errormodel.packetlevel.StochasticErrorModel.html" xlink:title="Compound Module StochasticErrorModel" target="_parent">
<polygon fill="#fffcaf" stroke="black" points="734,-19 614,-19 614,0 734,0 734,-19"/>
<text text-anchor="middle" x="674" y="-7" font-family="Helvetica,sans-Serif" font-size="10.00">StochasticErrorModel</text>
</a>
</g>
</g>
<!-- ErrorModelBase&#45;&gt;StochasticErrorModel -->
<g id="edge6" class="edge">
<title>ErrorModelBase&#45;&gt;StochasticErrorModel</title>
<path fill="none" stroke="black" d="M411.08,-55.45C468.59,-45.62 565.43,-29.06 624.16,-19.02"/>
</g>
<!-- IErrorModel -->
<g id="node2" class="node">
<title>IErrorModel</title>
<g id="a_node2"><a xlink:href="inet.physicallayer.wireless.common.contract.packetlevel.IErrorModel.html" xlink:title="Module Interface IErrorModel" target="_parent">
<polygon fill="#fffcaf" stroke="black" stroke-dasharray="5,2" points="400.5,-129 327.5,-129 327.5,-110 400.5,-110 400.5,-129"/>
<text text-anchor="middle" x="364" y="-117" font-family="Helvetica,sans-Serif" font-size="10.00">IErrorModel</text>
</a>
</g>
</g>
<!-- IErrorModel&#45;&gt;ErrorModelBase -->
<g id="edge1" class="edge">
<title>IErrorModel&#45;&gt;ErrorModelBase</title>
<path fill="none" stroke="black" stroke-dasharray="5,2" d="M364,-109.75C364,-99.87 364,-83.9 364,-74.09"/>
</g>
</g>
</svg>
