<?xml version="1.0" encoding="UTF-8" standalone="no"?>
<!DOCTYPE svg PUBLIC "-//W3C//DTD SVG 1.1//EN"
 "http://www.w3.org/Graphics/SVG/1.1/DTD/svg11.dtd">
<!-- Generated by graphviz version 2.43.0 (0)
 -->
<!-- Title: opp Pages: 1 -->
<svg width="294pt" height="82pt"
 viewBox="0.00 0.00 294.00 82.00" xmlns="http://www.w3.org/2000/svg" xmlns:xlink="http://www.w3.org/1999/xlink">
<g id="graph0" class="graph" transform="scale(1 1) rotate(0) translate(4 78)">
<title>opp</title>
<polygon fill="transparent" stroke="transparent" points="-4,4 -4,-78 290,-78 290,4 -4,4"/>
<!-- TsnNetworkBase -->
<g id="node1" class="node">
<title>TsnNetworkBase</title>
<g id="a_node1"><a xlink:href="inet.networks.base.TsnNetworkBase.html" xlink:title="Network TsnNetworkBase" target="_parent">
<polygon fill="#9090ff" stroke="black" points="198.5,-74 100.5,-74 100.5,-55 198.5,-55 198.5,-74"/>
<text text-anchor="middle" x="149.5" y="-62" font-family="Helvetica,sans-Serif" font-size="10.00">TsnNetworkBase</text>
</a>
</g>
</g>
<!-- IGateScheduleConfigurator -->
<g id="node2" class="node">
<title>IGateScheduleConfigurator</title>
<g id="a_node2"><a xlink:href="inet.linklayer.configurator.gatescheduling.contract.IGateScheduleConfigurator.html" xlink:title="Module Interface IGateScheduleConfigurator" target="_parent">
<polygon fill="#fffcaf" stroke="black" stroke-dasharray="5,2" points="147,-19 0,-19 0,0 147,0 147,-19"/>
<text text-anchor="middle" x="73.5" y="-7" font-family="Helvetica,sans-Serif" font-size="10.00">IGateScheduleConfigurator</text>
</a>
</g>
</g>
<!-- TsnNetworkBase&#45;&gt;IGateScheduleConfigurator -->
<g id="edge1" class="edge">
<title>TsnNetworkBase&#45;&gt;IGateScheduleConfigurator</title>
<path fill="none" stroke="black" d="M137.29,-54.98C125.72,-46.92 108.12,-34.65 94.34,-25.03"/>
<polygon fill="black" stroke="black" points="96.14,-22.02 85.93,-19.17 92.13,-27.76 96.14,-22.02"/>
</g>
<!-- INetworkConfigurator -->
<g id="node3" class="node">
<title>INetworkConfigurator</title>
<g id="a_node3"><a xlink:href="inet.networklayer.configurator.contract.INetworkConfigurator.html" xlink:title="Module Interface INetworkConfigurator" target="_parent">
<polygon fill="#fffcaf" stroke="black" stroke-dasharray="5,2" points="286,-19 165,-19 165,0 286,0 286,-19"/>
<text text-anchor="middle" x="225.5" y="-7" font-family="Helvetica,sans-Serif" font-size="10.00">INetworkConfigurator</text>
</a>
</g>
</g>
<!-- TsnNetworkBase&#45;&gt;INetworkConfigurator -->
<g id="edge2" class="edge">
<title>TsnNetworkBase&#45;&gt;INetworkConfigurator</title>
<path fill="none" stroke="black" d="M161.71,-54.98C173.28,-46.92 190.88,-34.65 204.66,-25.03"/>
<polygon fill="black" stroke="black" points="206.87,-27.76 213.07,-19.17 202.86,-22.02 206.87,-27.76"/>
</g>
</g>
</svg>
