<?xml version="1.0" encoding="UTF-8" standalone="no"?>
<!DOCTYPE svg PUBLIC "-//W3C//DTD SVG 1.1//EN"
 "http://www.w3.org/Graphics/SVG/1.1/DTD/svg11.dtd">
<!-- Generated by graphviz version 2.43.0 (0)
 -->
<!-- Title: opp Pages: 1 -->
<svg width="513pt" height="82pt"
 viewBox="0.00 0.00 513.00 82.00" xmlns="http://www.w3.org/2000/svg" xmlns:xlink="http://www.w3.org/1999/xlink">
<g id="graph0" class="graph" transform="scale(1 1) rotate(0) translate(4 78)">
<title>opp</title>
<polygon fill="transparent" stroke="transparent" points="-4,4 -4,-78 509,-78 509,4 -4,4"/>
<!-- MixedNetwork -->
<g id="node1" class="node">
<title>MixedNetwork</title>
<g id="a_node1"><a xlink:href="inet.examples.rip.mixednetwork.MixedNetwork.html" xlink:title="Network MixedNetwork" target="_parent">
<polygon fill="#9090ff" stroke="black" points="287,-74 200,-74 200,-55 287,-55 287,-74"/>
<text text-anchor="middle" x="243.5" y="-62" font-family="Helvetica,sans-Serif" font-size="10.00">MixedNetwork</text>
</a>
</g>
</g>
<!-- StandardHost -->
<g id="node2" class="node">
<title>StandardHost</title>
<g id="a_node2"><a xlink:href="inet.node.inet.StandardHost.html" xlink:title="Compound Module StandardHost" target="_parent">
<polygon fill="#fffcaf" stroke="black" points="83,-19 0,-19 0,0 83,0 83,-19"/>
<text text-anchor="middle" x="41.5" y="-7" font-family="Helvetica,sans-Serif" font-size="10.00">StandardHost</text>
</a>
</g>
</g>
<!-- MixedNetwork&#45;&gt;StandardHost -->
<g id="edge1" class="edge">
<title>MixedNetwork&#45;&gt;StandardHost</title>
<path fill="none" stroke="black" d="M211.05,-54.98C176.54,-45.93 121.84,-31.58 83.94,-21.64"/>
<polygon fill="black" stroke="black" points="84.77,-18.23 74.21,-19.08 82.99,-25.01 84.77,-18.23"/>
</g>
<!-- C -->
<g id="node3" class="node">
<title>C</title>
<g id="a_node3"><a xlink:href="inet.examples.rip.mixednetwork.MixedNetwork.C.html" xlink:title="Channel C" target="_parent">
<polygon fill="#d0ffd0" stroke="black" points="155.5,-19 101.5,-19 101.5,0 155.5,0 155.5,-19"/>
<text text-anchor="middle" x="128.5" y="-7" font-family="Helvetica,sans-Serif" font-size="10.00">C</text>
</a>
</g>
</g>
<!-- MixedNetwork&#45;&gt;C -->
<g id="edge2" class="edge">
<title>MixedNetwork&#45;&gt;C</title>
<path fill="none" stroke="black" d="M225.02,-54.98C206.52,-46.46 177.82,-33.23 156.52,-23.41"/>
<polygon fill="black" stroke="black" points="157.86,-20.18 147.31,-19.17 154.93,-26.53 157.86,-20.18"/>
</g>
<!-- Ipv4NetworkConfigurator -->
<g id="node4" class="node">
<title>Ipv4NetworkConfigurator</title>
<g id="a_node4"><a xlink:href="inet.networklayer.configurator.ipv4.Ipv4NetworkConfigurator.html" xlink:title="Simple Module Ipv4NetworkConfigurator" target="_parent">
<polygon fill="#fffcaf" stroke="black" points="313,-19 174,-19 174,0 313,0 313,-19"/>
<text text-anchor="middle" x="243.5" y="-7" font-family="Helvetica,sans-Serif" font-size="10.00">Ipv4NetworkConfigurator</text>
</a>
</g>
</g>
<!-- MixedNetwork&#45;&gt;Ipv4NetworkConfigurator -->
<g id="edge3" class="edge">
<title>MixedNetwork&#45;&gt;Ipv4NetworkConfigurator</title>
<path fill="none" stroke="black" d="M243.5,-54.75C243.5,-47.8 243.5,-37.85 243.5,-29.13"/>
<polygon fill="black" stroke="black" points="247,-29.09 243.5,-19.09 240,-29.09 247,-29.09"/>
</g>
<!-- Router -->
<g id="node5" class="node">
<title>Router</title>
<g id="a_node5"><a xlink:href="inet.node.inet.Router.html" xlink:title="Compound Module Router" target="_parent">
<polygon fill="#fffcaf" stroke="black" points="385.5,-19 331.5,-19 331.5,0 385.5,0 385.5,-19"/>
<text text-anchor="middle" x="358.5" y="-7" font-family="Helvetica,sans-Serif" font-size="10.00">Router</text>
</a>
</g>
</g>
<!-- MixedNetwork&#45;&gt;Router -->
<g id="edge4" class="edge">
<title>MixedNetwork&#45;&gt;Router</title>
<path fill="none" stroke="black" d="M261.98,-54.98C280.48,-46.46 309.18,-33.23 330.48,-23.41"/>
<polygon fill="black" stroke="black" points="332.07,-26.53 339.69,-19.17 329.14,-20.18 332.07,-26.53"/>
</g>
<!-- ScenarioManager -->
<g id="node6" class="node">
<title>ScenarioManager</title>
<g id="a_node6"><a xlink:href="inet.common.scenario.ScenarioManager.html" xlink:title="Simple Module ScenarioManager" target="_parent">
<polygon fill="#fffcaf" stroke="black" points="505,-19 404,-19 404,0 505,0 505,-19"/>
<text text-anchor="middle" x="454.5" y="-7" font-family="Helvetica,sans-Serif" font-size="10.00">ScenarioManager</text>
</a>
</g>
</g>
<!-- MixedNetwork&#45;&gt;ScenarioManager -->
<g id="edge5" class="edge">
<title>MixedNetwork&#45;&gt;ScenarioManager</title>
<path fill="none" stroke="black" d="M277.4,-54.98C313.52,-45.91 370.82,-31.52 410.42,-21.57"/>
<polygon fill="black" stroke="black" points="411.49,-24.91 420.33,-19.08 409.78,-18.12 411.49,-24.91"/>
</g>
</g>
</svg>
