<?xml version="1.0" encoding="UTF-8" standalone="no"?>
<!DOCTYPE svg PUBLIC "-//W3C//DTD SVG 1.1//EN"
 "http://www.w3.org/Graphics/SVG/1.1/DTD/svg11.dtd">
<!-- Generated by graphviz version 2.43.0 (0)
 -->
<!-- Title: opp Pages: 1 -->
<svg width="556pt" height="82pt"
 viewBox="0.00 0.00 555.50 82.00" xmlns="http://www.w3.org/2000/svg" xmlns:xlink="http://www.w3.org/1999/xlink">
<g id="graph0" class="graph" transform="scale(1 1) rotate(0) translate(4 78)">
<title>opp</title>
<polygon fill="transparent" stroke="transparent" points="-4,4 -4,-78 551.5,-78 551.5,4 -4,4"/>
<!-- RoutingTableVisualizationDynamicShowcase -->
<g id="node1" class="node">
<title>RoutingTableVisualizationDynamicShowcase</title>
<g id="a_node1"><a xlink:href="inet.showcases.visualizer.canvas.routingtable.RoutingTableVisualizationDynamicShowcase.html" xlink:title="Network RoutingTableVisualizationDynamicShowcase" target="_parent">
<polygon fill="#9090ff" stroke="black" points="418,-74 183,-74 183,-55 418,-55 418,-74"/>
<text text-anchor="middle" x="300.5" y="-62" font-family="Helvetica,sans-Serif" font-size="10.00">RoutingTableVisualizationDynamicShowcase</text>
</a>
</g>
</g>
<!-- IntegratedVisualizer -->
<g id="node2" class="node">
<title>IntegratedVisualizer</title>
<g id="a_node2"><a xlink:href="inet.visualizer.common.IntegratedVisualizer.html" xlink:title="Compound Module IntegratedVisualizer" target="_parent">
<polygon fill="#fffcaf" stroke="black" points="115,-19 0,-19 0,0 115,0 115,-19"/>
<text text-anchor="middle" x="57.5" y="-7" font-family="Helvetica,sans-Serif" font-size="10.00">IntegratedVisualizer</text>
</a>
</g>
</g>
<!-- RoutingTableVisualizationDynamicShowcase&#45;&gt;IntegratedVisualizer -->
<g id="edge1" class="edge">
<title>RoutingTableVisualizationDynamicShowcase&#45;&gt;IntegratedVisualizer</title>
<path fill="none" stroke="black" d="M261.46,-54.98C219.42,-45.82 152.46,-31.21 106.82,-21.26"/>
<polygon fill="black" stroke="black" points="107.36,-17.79 96.85,-19.08 105.87,-24.63 107.36,-17.79"/>
</g>
<!-- Ieee80211ScalarRadioMedium -->
<g id="node3" class="node">
<title>Ieee80211ScalarRadioMedium</title>
<g id="a_node3"><a xlink:href="inet.physicallayer.wireless.ieee80211.packetlevel.Ieee80211ScalarRadioMedium.html" xlink:title="Compound Module Ieee80211ScalarRadioMedium" target="_parent">
<polygon fill="#fffcaf" stroke="black" points="298,-19 133,-19 133,0 298,0 298,-19"/>
<text text-anchor="middle" x="215.5" y="-7" font-family="Helvetica,sans-Serif" font-size="10.00">Ieee80211ScalarRadioMedium</text>
</a>
</g>
</g>
<!-- RoutingTableVisualizationDynamicShowcase&#45;&gt;Ieee80211ScalarRadioMedium -->
<g id="edge2" class="edge">
<title>RoutingTableVisualizationDynamicShowcase&#45;&gt;Ieee80211ScalarRadioMedium</title>
<path fill="none" stroke="black" d="M286.84,-54.98C273.66,-46.77 253.47,-34.18 237.93,-24.49"/>
<polygon fill="black" stroke="black" points="239.74,-21.49 229.41,-19.17 236.04,-27.43 239.74,-21.49"/>
</g>
<!-- Ipv4NetworkConfigurator -->
<g id="node4" class="node">
<title>Ipv4NetworkConfigurator</title>
<g id="a_node4"><a xlink:href="inet.networklayer.configurator.ipv4.Ipv4NetworkConfigurator.html" xlink:title="Simple Module Ipv4NetworkConfigurator" target="_parent">
<polygon fill="#fffcaf" stroke="black" points="455,-19 316,-19 316,0 455,0 455,-19"/>
<text text-anchor="middle" x="385.5" y="-7" font-family="Helvetica,sans-Serif" font-size="10.00">Ipv4NetworkConfigurator</text>
</a>
</g>
</g>
<!-- RoutingTableVisualizationDynamicShowcase&#45;&gt;Ipv4NetworkConfigurator -->
<g id="edge3" class="edge">
<title>RoutingTableVisualizationDynamicShowcase&#45;&gt;Ipv4NetworkConfigurator</title>
<path fill="none" stroke="black" d="M314.16,-54.98C327.34,-46.77 347.53,-34.18 363.07,-24.49"/>
<polygon fill="black" stroke="black" points="364.96,-27.43 371.59,-19.17 361.26,-21.49 364.96,-27.43"/>
</g>
<!-- AodvRouter -->
<g id="node5" class="node">
<title>AodvRouter</title>
<g id="a_node5"><a xlink:href="inet.node.aodv.AodvRouter.html" xlink:title="Compound Module AodvRouter" target="_parent">
<polygon fill="#fffcaf" stroke="black" points="547.5,-19 473.5,-19 473.5,0 547.5,0 547.5,-19"/>
<text text-anchor="middle" x="510.5" y="-7" font-family="Helvetica,sans-Serif" font-size="10.00">AodvRouter</text>
</a>
</g>
</g>
<!-- RoutingTableVisualizationDynamicShowcase&#45;&gt;AodvRouter -->
<g id="edge4" class="edge">
<title>RoutingTableVisualizationDynamicShowcase&#45;&gt;AodvRouter</title>
<path fill="none" stroke="black" d="M334.24,-54.98C370.18,-45.91 427.22,-31.52 466.63,-21.57"/>
<polygon fill="black" stroke="black" points="467.66,-24.92 476.5,-19.08 465.94,-18.14 467.66,-24.92"/>
</g>
</g>
</svg>
