<?xml version="1.0" encoding="UTF-8" standalone="no"?>
<!DOCTYPE svg PUBLIC "-//W3C//DTD SVG 1.1//EN"
 "http://www.w3.org/Graphics/SVG/1.1/DTD/svg11.dtd">
<!-- Generated by graphviz version 2.43.0 (0)
 -->
<!-- Title: opp Pages: 1 -->
<svg width="358pt" height="137pt"
 viewBox="0.00 0.00 357.50 137.00" xmlns="http://www.w3.org/2000/svg" xmlns:xlink="http://www.w3.org/1999/xlink">
<g id="graph0" class="graph" transform="scale(1 1) rotate(0) translate(4 133)">
<title>opp</title>
<polygon fill="transparent" stroke="transparent" points="-4,4 -4,-133 353.5,-133 353.5,4 -4,4"/>
<!-- EthernetPhyLayer -->
<g id="node1" class="node">
<title>EthernetPhyLayer</title>
<g id="a_node1"><a xlink:href="inet.physicallayer.wired.ethernet.EthernetPhyLayer.html" xlink:title="Compound Module EthernetPhyLayer" target="_parent">
<polygon fill="#fff700" stroke="black" points="220,-74 117,-74 117,-55 220,-55 220,-74"/>
<text text-anchor="middle" x="168.5" y="-62" font-family="Helvetica,sans-Serif" font-size="10.00">EthernetPhyLayer</text>
</a>
</g>
</g>
<!-- EthernetStreamingPhyLayer -->
<g id="node3" class="node">
<title>EthernetStreamingPhyLayer</title>
<g id="a_node3"><a xlink:href="inet.physicallayer.wired.ethernet.EthernetStreamingPhyLayer.html" xlink:title="Compound Module EthernetStreamingPhyLayer" target="_parent">
<polygon fill="#fffcaf" stroke="black" points="153,-19 0,-19 0,0 153,0 153,-19"/>
<text text-anchor="middle" x="76.5" y="-7" font-family="Helvetica,sans-Serif" font-size="10.00">EthernetStreamingPhyLayer</text>
</a>
</g>
</g>
<!-- EthernetPhyLayer&#45;&gt;EthernetStreamingPhyLayer -->
<g id="edge2" class="edge">
<title>EthernetPhyLayer&#45;&gt;EthernetStreamingPhyLayer</title>
<path fill="none" stroke="black" d="M153.72,-54.98C136.65,-45.15 108.73,-29.07 91.55,-19.17"/>
</g>
<!-- EthernetStreamThroughPhyLayer -->
<g id="node4" class="node">
<title>EthernetStreamThroughPhyLayer</title>
<g id="a_node4"><a xlink:href="inet.physicallayer.wired.ethernet.EthernetStreamThroughPhyLayer.html" xlink:title="Compound Module EthernetStreamThroughPhyLayer" target="_parent">
<polygon fill="#fffcaf" stroke="black" points="349.5,-19 171.5,-19 171.5,0 349.5,0 349.5,-19"/>
<text text-anchor="middle" x="260.5" y="-7" font-family="Helvetica,sans-Serif" font-size="10.00">EthernetStreamThroughPhyLayer</text>
</a>
</g>
</g>
<!-- EthernetPhyLayer&#45;&gt;EthernetStreamThroughPhyLayer -->
<g id="edge3" class="edge">
<title>EthernetPhyLayer&#45;&gt;EthernetStreamThroughPhyLayer</title>
<path fill="none" stroke="black" d="M183.28,-54.98C200.35,-45.15 228.27,-29.07 245.45,-19.17"/>
</g>
<!-- IEthernetPhyLayer -->
<g id="node2" class="node">
<title>IEthernetPhyLayer</title>
<g id="a_node2"><a xlink:href="inet.physicallayer.wired.ethernet.IEthernetPhyLayer.html" xlink:title="Module Interface IEthernetPhyLayer" target="_parent">
<polygon fill="#fffcaf" stroke="black" stroke-dasharray="5,2" points="221.5,-129 115.5,-129 115.5,-110 221.5,-110 221.5,-129"/>
<text text-anchor="middle" x="168.5" y="-117" font-family="Helvetica,sans-Serif" font-size="10.00">IEthernetPhyLayer</text>
</a>
</g>
</g>
<!-- IEthernetPhyLayer&#45;&gt;EthernetPhyLayer -->
<g id="edge1" class="edge">
<title>IEthernetPhyLayer&#45;&gt;EthernetPhyLayer</title>
<path fill="none" stroke="black" stroke-dasharray="5,2" d="M168.5,-109.75C168.5,-99.87 168.5,-83.9 168.5,-74.09"/>
</g>
</g>
</svg>
