<?xml version="1.0" encoding="UTF-8" standalone="no"?>
<!DOCTYPE svg PUBLIC "-//W3C//DTD SVG 1.1//EN"
 "http://www.w3.org/Graphics/SVG/1.1/DTD/svg11.dtd">
<!-- Generated by graphviz version 2.43.0 (0)
 -->
<!-- Title: opp Pages: 1 -->
<svg width="533pt" height="137pt"
 viewBox="0.00 0.00 532.50 137.00" xmlns="http://www.w3.org/2000/svg" xmlns:xlink="http://www.w3.org/1999/xlink">
<g id="graph0" class="graph" transform="scale(1 1) rotate(0) translate(4 133)">
<title>opp</title>
<polygon fill="transparent" stroke="transparent" points="-4,4 -4,-133 528.5,-133 528.5,4 -4,4"/>
<!-- RequestConsumer -->
<g id="node1" class="node">
<title>RequestConsumer</title>
<g id="a_node1"><a xlink:href="inet.queueing.sink.RequestConsumer.html" xlink:title="Compound Module RequestConsumer" target="_parent">
<polygon fill="#fff700" stroke="black" points="336.5,-74 230.5,-74 230.5,-55 336.5,-55 336.5,-74"/>
<text text-anchor="middle" x="283.5" y="-62" font-family="Helvetica,sans-Serif" font-size="10.00">RequestConsumer</text>
</a>
</g>
</g>
<!-- IPassivePacketSink -->
<g id="node2" class="node">
<title>IPassivePacketSink</title>
<g id="a_node2"><a xlink:href="inet.queueing.contract.IPassivePacketSink.html" xlink:title="Module Interface IPassivePacketSink" target="_parent">
<polygon fill="#fffcaf" stroke="black" stroke-dasharray="5,2" points="109,-19 0,-19 0,0 109,0 109,-19"/>
<text text-anchor="middle" x="54.5" y="-7" font-family="Helvetica,sans-Serif" font-size="10.00">IPassivePacketSink</text>
</a>
</g>
</g>
<!-- RequestConsumer&#45;&gt;IPassivePacketSink -->
<g id="edge1" class="edge">
<title>RequestConsumer&#45;&gt;IPassivePacketSink</title>
<path fill="none" stroke="black" d="M246.71,-54.98C207.26,-45.86 144.52,-31.33 101.52,-21.38"/>
<polygon fill="black" stroke="black" points="102.11,-17.93 91.58,-19.08 100.53,-24.75 102.11,-17.93"/>
</g>
<!-- IPacketClassifier -->
<g id="node3" class="node">
<title>IPacketClassifier</title>
<g id="a_node3"><a xlink:href="inet.queueing.contract.IPacketClassifier.html" xlink:title="Module Interface IPacketClassifier" target="_parent">
<polygon fill="#fffcaf" stroke="black" stroke-dasharray="5,2" points="223.5,-19 127.5,-19 127.5,0 223.5,0 223.5,-19"/>
<text text-anchor="middle" x="175.5" y="-7" font-family="Helvetica,sans-Serif" font-size="10.00">IPacketClassifier</text>
</a>
</g>
</g>
<!-- RequestConsumer&#45;&gt;IPacketClassifier -->
<g id="edge2" class="edge">
<title>RequestConsumer&#45;&gt;IPacketClassifier</title>
<path fill="none" stroke="black" d="M266.15,-54.98C248.93,-46.54 222.3,-33.47 202.35,-23.68"/>
<polygon fill="black" stroke="black" points="203.69,-20.43 193.17,-19.17 200.6,-26.72 203.69,-20.43"/>
</g>
<!-- IPacketServer -->
<g id="node4" class="node">
<title>IPacketServer</title>
<g id="a_node4"><a xlink:href="inet.queueing.contract.IPacketServer.html" xlink:title="Module Interface IPacketServer" target="_parent">
<polygon fill="#fffcaf" stroke="black" stroke-dasharray="5,2" points="325,-19 242,-19 242,0 325,0 325,-19"/>
<text text-anchor="middle" x="283.5" y="-7" font-family="Helvetica,sans-Serif" font-size="10.00">IPacketServer</text>
</a>
</g>
</g>
<!-- RequestConsumer&#45;&gt;IPacketServer -->
<g id="edge3" class="edge">
<title>RequestConsumer&#45;&gt;IPacketServer</title>
<path fill="none" stroke="black" d="M283.5,-54.75C283.5,-47.8 283.5,-37.85 283.5,-29.13"/>
<polygon fill="black" stroke="black" points="287,-29.09 283.5,-19.09 280,-29.09 287,-29.09"/>
</g>
<!-- IPacketQueue -->
<g id="node5" class="node">
<title>IPacketQueue</title>
<g id="a_node5"><a xlink:href="inet.queueing.contract.IPacketQueue.html" xlink:title="Module Interface IPacketQueue" target="_parent">
<polygon fill="#fffcaf" stroke="black" stroke-dasharray="5,2" points="426,-19 343,-19 343,0 426,0 426,-19"/>
<text text-anchor="middle" x="384.5" y="-7" font-family="Helvetica,sans-Serif" font-size="10.00">IPacketQueue</text>
</a>
</g>
</g>
<!-- RequestConsumer&#45;&gt;IPacketQueue -->
<g id="edge4" class="edge">
<title>RequestConsumer&#45;&gt;IPacketQueue</title>
<path fill="none" stroke="black" d="M299.73,-54.98C315.68,-46.61 340.28,-33.7 358.88,-23.95"/>
<polygon fill="black" stroke="black" points="360.75,-26.92 367.98,-19.17 357.5,-20.72 360.75,-26.92"/>
</g>
<!-- IdealChannel -->
<g id="node6" class="node">
<title>IdealChannel</title>
<g id="a_node6"><a xlink:href="ned.IdealChannel.html" xlink:title="Channel IdealChannel" target="_parent">
<polygon fill="#d0ffd0" stroke="black" points="524.5,-19 444.5,-19 444.5,0 524.5,0 524.5,-19"/>
<text text-anchor="middle" x="484.5" y="-7" font-family="Helvetica,sans-Serif" font-size="10.00">IdealChannel</text>
</a>
</g>
</g>
<!-- RequestConsumer&#45;&gt;IdealChannel -->
<g id="edge5" class="edge">
<title>RequestConsumer&#45;&gt;IdealChannel</title>
<path fill="none" stroke="black" d="M315.79,-54.98C350.12,-45.93 404.56,-31.58 442.27,-21.64"/>
<polygon fill="black" stroke="black" points="443.18,-25.02 451.95,-19.08 441.39,-18.25 443.18,-25.02"/>
</g>
<!-- RequestResponseTutorialStep -->
<g id="node7" class="node">
<title>RequestResponseTutorialStep</title>
<g id="a_node7"><a xlink:href="inet.tutorials.queueing.RequestResponseTutorialStep.html" xlink:title="Network RequestResponseTutorialStep" target="_parent">
<polygon fill="#d0d0ff" stroke="black" points="364,-129 203,-129 203,-110 364,-110 364,-129"/>
<text text-anchor="middle" x="283.5" y="-117" font-family="Helvetica,sans-Serif" font-size="10.00">RequestResponseTutorialStep</text>
</a>
</g>
</g>
<!-- RequestResponseTutorialStep&#45;&gt;RequestConsumer -->
<g id="edge6" class="edge">
<title>RequestResponseTutorialStep&#45;&gt;RequestConsumer</title>
<path fill="none" stroke="black" d="M283.5,-109.75C283.5,-102.8 283.5,-92.85 283.5,-84.13"/>
<polygon fill="black" stroke="black" points="287,-84.09 283.5,-74.09 280,-84.09 287,-84.09"/>
</g>
</g>
</svg>
