<?xml version="1.0" encoding="UTF-8" standalone="no"?>
<!DOCTYPE svg PUBLIC "-//W3C//DTD SVG 1.1//EN"
 "http://www.w3.org/Graphics/SVG/1.1/DTD/svg11.dtd">
<!-- Generated by graphviz version 2.43.0 (0)
 -->
<!-- Title: opp Pages: 1 -->
<svg width="708pt" height="82pt"
 viewBox="0.00 0.00 708.00 82.00" xmlns="http://www.w3.org/2000/svg" xmlns:xlink="http://www.w3.org/1999/xlink">
<g id="graph0" class="graph" transform="scale(1 1) rotate(0) translate(4 78)">
<title>opp</title>
<polygon fill="transparent" stroke="transparent" points="-4,4 -4,-78 704,-78 704,4 -4,4"/>
<!-- SensorNetworkShowcaseA -->
<g id="node1" class="node">
<title>SensorNetworkShowcaseA</title>
<g id="a_node1"><a xlink:href="inet.showcases.wireless.sensornetwork.SensorNetworkShowcaseA.html" xlink:title="Network SensorNetworkShowcaseA" target="_parent">
<polygon fill="#9090ff" stroke="black" points="454.5,-74 308.5,-74 308.5,-55 454.5,-55 454.5,-74"/>
<text text-anchor="middle" x="381.5" y="-62" font-family="Helvetica,sans-Serif" font-size="10.00">SensorNetworkShowcaseA</text>
</a>
</g>
</g>
<!-- IntegratedVisualizer -->
<g id="node2" class="node">
<title>IntegratedVisualizer</title>
<g id="a_node2"><a xlink:href="inet.visualizer.common.IntegratedVisualizer.html" xlink:title="Compound Module IntegratedVisualizer" target="_parent">
<polygon fill="#fffcaf" stroke="black" points="115,-19 0,-19 0,0 115,0 115,-19"/>
<text text-anchor="middle" x="57.5" y="-7" font-family="Helvetica,sans-Serif" font-size="10.00">IntegratedVisualizer</text>
</a>
</g>
</g>
<!-- SensorNetworkShowcaseA&#45;&gt;IntegratedVisualizer -->
<g id="edge1" class="edge">
<title>SensorNetworkShowcaseA&#45;&gt;IntegratedVisualizer</title>
<path fill="none" stroke="black" d="M329.44,-54.98C272.26,-45.63 180.46,-30.61 119.57,-20.65"/>
<polygon fill="black" stroke="black" points="120.13,-17.2 109.7,-19.04 119,-24.11 120.13,-17.2"/>
</g>
<!-- StandardHost -->
<g id="node3" class="node">
<title>StandardHost</title>
<g id="a_node3"><a xlink:href="inet.node.inet.StandardHost.html" xlink:title="Compound Module StandardHost" target="_parent">
<polygon fill="#fffcaf" stroke="black" points="216,-19 133,-19 133,0 216,0 216,-19"/>
<text text-anchor="middle" x="174.5" y="-7" font-family="Helvetica,sans-Serif" font-size="10.00">StandardHost</text>
</a>
</g>
</g>
<!-- SensorNetworkShowcaseA&#45;&gt;StandardHost -->
<g id="edge2" class="edge">
<title>SensorNetworkShowcaseA&#45;&gt;StandardHost</title>
<path fill="none" stroke="black" d="M348.24,-54.98C312.89,-45.93 256.83,-31.58 217.99,-21.64"/>
<polygon fill="black" stroke="black" points="218.57,-18.17 208.02,-19.08 216.84,-24.95 218.57,-18.17"/>
</g>
<!-- Ipv4NetworkConfigurator -->
<g id="node4" class="node">
<title>Ipv4NetworkConfigurator</title>
<g id="a_node4"><a xlink:href="inet.networklayer.configurator.ipv4.Ipv4NetworkConfigurator.html" xlink:title="Simple Module Ipv4NetworkConfigurator" target="_parent">
<polygon fill="#fffcaf" stroke="black" points="373,-19 234,-19 234,0 373,0 373,-19"/>
<text text-anchor="middle" x="303.5" y="-7" font-family="Helvetica,sans-Serif" font-size="10.00">Ipv4NetworkConfigurator</text>
</a>
</g>
</g>
<!-- SensorNetworkShowcaseA&#45;&gt;Ipv4NetworkConfigurator -->
<g id="edge3" class="edge">
<title>SensorNetworkShowcaseA&#45;&gt;Ipv4NetworkConfigurator</title>
<path fill="none" stroke="black" d="M368.97,-54.98C357.1,-46.92 339.04,-34.65 324.89,-25.03"/>
<polygon fill="black" stroke="black" points="326.5,-21.9 316.26,-19.17 322.56,-27.69 326.5,-21.9"/>
</g>
<!-- ApskScalarRadioMedium -->
<g id="node5" class="node">
<title>ApskScalarRadioMedium</title>
<g id="a_node5"><a xlink:href="inet.physicallayer.wireless.apsk.packetlevel.ApskScalarRadioMedium.html" xlink:title="Compound Module ApskScalarRadioMedium" target="_parent">
<polygon fill="#fffcaf" stroke="black" points="529.5,-19 391.5,-19 391.5,0 529.5,0 529.5,-19"/>
<text text-anchor="middle" x="460.5" y="-7" font-family="Helvetica,sans-Serif" font-size="10.00">ApskScalarRadioMedium</text>
</a>
</g>
</g>
<!-- SensorNetworkShowcaseA&#45;&gt;ApskScalarRadioMedium -->
<g id="edge4" class="edge">
<title>SensorNetworkShowcaseA&#45;&gt;ApskScalarRadioMedium</title>
<path fill="none" stroke="black" d="M394.19,-54.98C406.33,-46.84 424.86,-34.41 439.25,-24.76"/>
<polygon fill="black" stroke="black" points="441.22,-27.65 447.58,-19.17 437.32,-21.84 441.22,-27.65"/>
</g>
<!-- SensorNode -->
<g id="node6" class="node">
<title>SensorNode</title>
<g id="a_node6"><a xlink:href="inet.node.inet.SensorNode.html" xlink:title="Compound Module SensorNode" target="_parent">
<polygon fill="#fffcaf" stroke="black" points="623,-19 548,-19 548,0 623,0 623,-19"/>
<text text-anchor="middle" x="585.5" y="-7" font-family="Helvetica,sans-Serif" font-size="10.00">SensorNode</text>
</a>
</g>
</g>
<!-- SensorNetworkShowcaseA&#45;&gt;SensorNode -->
<g id="edge5" class="edge">
<title>SensorNetworkShowcaseA&#45;&gt;SensorNode</title>
<path fill="none" stroke="black" d="M414.28,-54.98C449.12,-45.93 504.37,-31.58 542.64,-21.64"/>
<polygon fill="black" stroke="black" points="543.67,-24.98 552.47,-19.08 541.91,-18.21 543.67,-24.98"/>
</g>
<!-- Eth100M -->
<g id="node7" class="node">
<title>Eth100M</title>
<g id="a_node7"><a xlink:href="inet.node.ethernet.Eth100M.html" xlink:title="Channel Eth100M" target="_parent">
<polygon fill="#d0ffd0" stroke="black" points="700,-19 641,-19 641,0 700,0 700,-19"/>
<text text-anchor="middle" x="670.5" y="-7" font-family="Helvetica,sans-Serif" font-size="10.00">Eth100M</text>
</a>
</g>
</g>
<!-- SensorNetworkShowcaseA&#45;&gt;Eth100M -->
<g id="edge6" class="edge">
<title>SensorNetworkShowcaseA&#45;&gt;Eth100M</title>
<path fill="none" stroke="black" d="M433.54,-54.97C482.21,-46.83 557.16,-33.91 630.75,-19.29"/>
<polygon fill="black" stroke="black" points="631.54,-22.7 640.66,-17.31 630.16,-15.84 631.54,-22.7"/>
</g>
</g>
</svg>
