<?xml version="1.0" encoding="UTF-8" standalone="no"?>
<!DOCTYPE svg PUBLIC "-//W3C//DTD SVG 1.1//EN"
 "http://www.w3.org/Graphics/SVG/1.1/DTD/svg11.dtd">
<!-- Generated by graphviz version 2.43.0 (0)
 -->
<!-- Title: opp Pages: 1 -->
<svg width="318pt" height="137pt"
 viewBox="0.00 0.00 318.00 137.00" xmlns="http://www.w3.org/2000/svg" xmlns:xlink="http://www.w3.org/1999/xlink">
<g id="graph0" class="graph" transform="scale(1 1) rotate(0) translate(4 133)">
<title>opp</title>
<polygon fill="transparent" stroke="transparent" points="-4,4 -4,-133 314,-133 314,4 -4,4"/>
<!-- PropagationBase -->
<g id="node1" class="node">
<title>PropagationBase</title>
<g id="a_node1"><a xlink:href="inet.physicallayer.wireless.common.base.packetlevel.PropagationBase.html" xlink:title="Compound Module PropagationBase" target="_parent">
<polygon fill="#fff700" stroke="black" points="206,-74 107,-74 107,-55 206,-55 206,-74"/>
<text text-anchor="middle" x="156.5" y="-62" font-family="Helvetica,sans-Serif" font-size="10.00">PropagationBase</text>
</a>
</g>
</g>
<!-- ConstantSpeedPropagation -->
<g id="node3" class="node">
<title>ConstantSpeedPropagation</title>
<g id="a_node3"><a xlink:href="inet.physicallayer.wireless.common.propagation.ConstantSpeedPropagation.html" xlink:title="Compound Module ConstantSpeedPropagation" target="_parent">
<polygon fill="#fffcaf" stroke="black" points="149,-19 0,-19 0,0 149,0 149,-19"/>
<text text-anchor="middle" x="74.5" y="-7" font-family="Helvetica,sans-Serif" font-size="10.00">ConstantSpeedPropagation</text>
</a>
</g>
</g>
<!-- PropagationBase&#45;&gt;ConstantSpeedPropagation -->
<g id="edge2" class="edge">
<title>PropagationBase&#45;&gt;ConstantSpeedPropagation</title>
<path fill="none" stroke="black" d="M143.33,-54.98C128.11,-45.15 103.23,-29.07 87.91,-19.17"/>
</g>
<!-- ConstantTimePropagation -->
<g id="node4" class="node">
<title>ConstantTimePropagation</title>
<g id="a_node4"><a xlink:href="inet.physicallayer.wireless.common.propagation.ConstantTimePropagation.html" xlink:title="Compound Module ConstantTimePropagation" target="_parent">
<polygon fill="#fffcaf" stroke="black" points="310,-19 167,-19 167,0 310,0 310,-19"/>
<text text-anchor="middle" x="238.5" y="-7" font-family="Helvetica,sans-Serif" font-size="10.00">ConstantTimePropagation</text>
</a>
</g>
</g>
<!-- PropagationBase&#45;&gt;ConstantTimePropagation -->
<g id="edge3" class="edge">
<title>PropagationBase&#45;&gt;ConstantTimePropagation</title>
<path fill="none" stroke="black" d="M169.67,-54.98C184.89,-45.15 209.77,-29.07 225.09,-19.17"/>
</g>
<!-- IPropagation -->
<g id="node2" class="node">
<title>IPropagation</title>
<g id="a_node2"><a xlink:href="inet.physicallayer.wireless.common.contract.packetlevel.IPropagation.html" xlink:title="Module Interface IPropagation" target="_parent">
<polygon fill="#fffcaf" stroke="black" stroke-dasharray="5,2" points="195.5,-129 117.5,-129 117.5,-110 195.5,-110 195.5,-129"/>
<text text-anchor="middle" x="156.5" y="-117" font-family="Helvetica,sans-Serif" font-size="10.00">IPropagation</text>
</a>
</g>
</g>
<!-- IPropagation&#45;&gt;PropagationBase -->
<g id="edge1" class="edge">
<title>IPropagation&#45;&gt;PropagationBase</title>
<path fill="none" stroke="black" stroke-dasharray="5,2" d="M156.5,-109.75C156.5,-99.87 156.5,-83.9 156.5,-74.09"/>
</g>
</g>
</svg>
