<?xml version="1.0" encoding="UTF-8" standalone="no"?>
<!DOCTYPE svg PUBLIC "-//W3C//DTD SVG 1.1//EN"
 "http://www.w3.org/Graphics/SVG/1.1/DTD/svg11.dtd">
<!-- Generated by graphviz version 2.43.0 (0)
 -->
<!-- Title: opp Pages: 1 -->
<svg width="792pt" height="82pt"
 viewBox="0.00 0.00 791.50 82.00" xmlns="http://www.w3.org/2000/svg" xmlns:xlink="http://www.w3.org/1999/xlink">
<g id="graph0" class="graph" transform="scale(1 1) rotate(0) translate(4 78)">
<title>opp</title>
<polygon fill="transparent" stroke="transparent" points="-4,4 -4,-78 787.5,-78 787.5,4 -4,4"/>
<!-- SpectrumShowcaseSpectrumFigureSpectrogramNetwork -->
<g id="node1" class="node">
<title>SpectrumShowcaseSpectrumFigureSpectrogramNetwork</title>
<g id="a_node1"><a xlink:href="inet.showcases.visualizer.canvas.spectrum.SpectrumShowcaseSpectrumFigureSpectrogramNetwork.html" xlink:title="Network SpectrumShowcaseSpectrumFigureSpectrogramNetwork" target="_parent">
<polygon fill="#9090ff" stroke="black" points="636.5,-74 344.5,-74 344.5,-55 636.5,-55 636.5,-74"/>
<text text-anchor="middle" x="490.5" y="-62" font-family="Helvetica,sans-Serif" font-size="10.00">SpectrumShowcaseSpectrumFigureSpectrogramNetwork</text>
</a>
</g>
</g>
<!-- IntegratedVisualizer -->
<g id="node2" class="node">
<title>IntegratedVisualizer</title>
<g id="a_node2"><a xlink:href="inet.visualizer.common.IntegratedVisualizer.html" xlink:title="Compound Module IntegratedVisualizer" target="_parent">
<polygon fill="#fffcaf" stroke="black" points="115,-19 0,-19 0,0 115,0 115,-19"/>
<text text-anchor="middle" x="57.5" y="-7" font-family="Helvetica,sans-Serif" font-size="10.00">IntegratedVisualizer</text>
</a>
</g>
</g>
<!-- SpectrumShowcaseSpectrumFigureSpectrogramNetwork&#45;&gt;IntegratedVisualizer -->
<g id="edge1" class="edge">
<title>SpectrumShowcaseSpectrumFigureSpectrogramNetwork&#45;&gt;IntegratedVisualizer</title>
<path fill="none" stroke="black" d="M418.75,-54.96C347,-46.38 233.18,-32.68 125.19,-19.2"/>
<polygon fill="black" stroke="black" points="125.45,-15.71 115.09,-17.94 124.58,-22.66 125.45,-15.71"/>
</g>
<!-- Ieee80211DimensionalRadioMedium -->
<g id="node3" class="node">
<title>Ieee80211DimensionalRadioMedium</title>
<g id="a_node3"><a xlink:href="inet.physicallayer.wireless.ieee80211.packetlevel.Ieee80211DimensionalRadioMedium.html" xlink:title="Compound Module Ieee80211DimensionalRadioMedium" target="_parent">
<polygon fill="#fffcaf" stroke="black" points="330,-19 133,-19 133,0 330,0 330,-19"/>
<text text-anchor="middle" x="231.5" y="-7" font-family="Helvetica,sans-Serif" font-size="10.00">Ieee80211DimensionalRadioMedium</text>
</a>
</g>
</g>
<!-- SpectrumShowcaseSpectrumFigureSpectrogramNetwork&#45;&gt;Ieee80211DimensionalRadioMedium -->
<g id="edge2" class="edge">
<title>SpectrumShowcaseSpectrumFigureSpectrogramNetwork&#45;&gt;Ieee80211DimensionalRadioMedium</title>
<path fill="none" stroke="black" d="M448.89,-54.98C403.9,-45.78 332.11,-31.09 283.45,-21.13"/>
<polygon fill="black" stroke="black" points="283.94,-17.66 273.44,-19.08 282.53,-24.52 283.94,-17.66"/>
</g>
<!-- Ipv4NetworkConfigurator -->
<g id="node4" class="node">
<title>Ipv4NetworkConfigurator</title>
<g id="a_node4"><a xlink:href="inet.networklayer.configurator.ipv4.Ipv4NetworkConfigurator.html" xlink:title="Simple Module Ipv4NetworkConfigurator" target="_parent">
<polygon fill="#fffcaf" stroke="black" points="487,-19 348,-19 348,0 487,0 487,-19"/>
<text text-anchor="middle" x="417.5" y="-7" font-family="Helvetica,sans-Serif" font-size="10.00">Ipv4NetworkConfigurator</text>
</a>
</g>
</g>
<!-- SpectrumShowcaseSpectrumFigureSpectrogramNetwork&#45;&gt;Ipv4NetworkConfigurator -->
<g id="edge3" class="edge">
<title>SpectrumShowcaseSpectrumFigureSpectrogramNetwork&#45;&gt;Ipv4NetworkConfigurator</title>
<path fill="none" stroke="black" d="M478.77,-54.98C467.77,-47 451.08,-34.88 437.9,-25.31"/>
<polygon fill="black" stroke="black" points="439.59,-22.21 429.44,-19.17 435.48,-27.88 439.59,-22.21"/>
</g>
<!-- PhysicalEnvironment -->
<g id="node5" class="node">
<title>PhysicalEnvironment</title>
<g id="a_node5"><a xlink:href="inet.environment.common.PhysicalEnvironment.html" xlink:title="Compound Module PhysicalEnvironment" target="_parent">
<polygon fill="#fffcaf" stroke="black" points="624,-19 505,-19 505,0 624,0 624,-19"/>
<text text-anchor="middle" x="564.5" y="-7" font-family="Helvetica,sans-Serif" font-size="10.00">PhysicalEnvironment</text>
</a>
</g>
</g>
<!-- SpectrumShowcaseSpectrumFigureSpectrogramNetwork&#45;&gt;PhysicalEnvironment -->
<g id="edge4" class="edge">
<title>SpectrumShowcaseSpectrumFigureSpectrogramNetwork&#45;&gt;PhysicalEnvironment</title>
<path fill="none" stroke="black" d="M502.39,-54.98C513.65,-46.92 530.79,-34.65 544.21,-25.03"/>
<polygon fill="black" stroke="black" points="546.3,-27.84 552.39,-19.17 542.23,-22.15 546.3,-27.84"/>
</g>
<!-- AdhocHost -->
<g id="node6" class="node">
<title>AdhocHost</title>
<g id="a_node6"><a xlink:href="inet.node.inet.AdhocHost.html" xlink:title="Compound Module AdhocHost" target="_parent">
<polygon fill="#fffcaf" stroke="black" points="711,-19 642,-19 642,0 711,0 711,-19"/>
<text text-anchor="middle" x="676.5" y="-7" font-family="Helvetica,sans-Serif" font-size="10.00">AdhocHost</text>
</a>
</g>
</g>
<!-- SpectrumShowcaseSpectrumFigureSpectrogramNetwork&#45;&gt;AdhocHost -->
<g id="edge5" class="edge">
<title>SpectrumShowcaseSpectrumFigureSpectrogramNetwork&#45;&gt;AdhocHost</title>
<path fill="none" stroke="black" d="M520.38,-54.98C551.88,-46.01 601.67,-31.82 636.53,-21.89"/>
<polygon fill="black" stroke="black" points="637.72,-25.19 646.38,-19.08 635.81,-18.46 637.72,-25.19"/>
</g>
<!-- Probe -->
<g id="node7" class="node">
<title>Probe</title>
<g id="a_node7"><a xlink:href="inet.node.wireless.Probe.html" xlink:title="Compound Module Probe" target="_parent">
<polygon fill="#fffcaf" stroke="black" points="783.5,-19 729.5,-19 729.5,0 783.5,0 783.5,-19"/>
<text text-anchor="middle" x="756.5" y="-7" font-family="Helvetica,sans-Serif" font-size="10.00">Probe</text>
</a>
</g>
</g>
<!-- SpectrumShowcaseSpectrumFigureSpectrogramNetwork&#45;&gt;Probe -->
<g id="edge6" class="edge">
<title>SpectrumShowcaseSpectrumFigureSpectrogramNetwork&#45;&gt;Probe</title>
<path fill="none" stroke="black" d="M537.75,-54.94C582.14,-46.77 650.67,-33.82 719.28,-19.19"/>
<polygon fill="black" stroke="black" points="720.36,-22.54 729.4,-17.02 718.89,-15.7 720.36,-22.54"/>
</g>
</g>
</svg>
