<?xml version="1.0" encoding="UTF-8" standalone="no"?>
<!DOCTYPE svg PUBLIC "-//W3C//DTD SVG 1.1//EN"
 "http://www.w3.org/Graphics/SVG/1.1/DTD/svg11.dtd">
<!-- Generated by graphviz version 2.43.0 (0)
 -->
<!-- Title: opp Pages: 1 -->
<svg width="1864pt" height="82pt"
 viewBox="0.00 0.00 1863.50 82.00" xmlns="http://www.w3.org/2000/svg" xmlns:xlink="http://www.w3.org/1999/xlink">
<g id="graph0" class="graph" transform="scale(1 1) rotate(0) translate(4 78)">
<title>opp</title>
<polygon fill="transparent" stroke="transparent" points="-4,4 -4,-78 1859.5,-78 1859.5,4 -4,4"/>
<!-- IActivePacketSource -->
<g id="node1" class="node">
<title>IActivePacketSource</title>
<g id="a_node1"><a xlink:href="inet.queueing.contract.IActivePacketSource.html" xlink:title="Module Interface IActivePacketSource" target="_parent">
<polygon fill="#fff700" stroke="black" stroke-dasharray="5,2" points="1048.5,-74 933.5,-74 933.5,-55 1048.5,-55 1048.5,-74"/>
<text text-anchor="middle" x="991" y="-62" font-family="Helvetica,sans-Serif" font-size="10.00">IActivePacketSource</text>
</a>
</g>
</g>
<!-- ActivePacketSource -->
<g id="node2" class="node">
<title>ActivePacketSource</title>
<g id="a_node2"><a xlink:href="inet.queueing.source.ActivePacketSource.html" xlink:title="Simple Module ActivePacketSource" target="_parent">
<polygon fill="#fffcaf" stroke="black" points="112,-19 0,-19 0,0 112,0 112,-19"/>
<text text-anchor="middle" x="56" y="-7" font-family="Helvetica,sans-Serif" font-size="10.00">ActivePacketSource</text>
</a>
</g>
</g>
<!-- IActivePacketSource&#45;&gt;ActivePacketSource -->
<g id="edge1" class="edge">
<title>IActivePacketSource&#45;&gt;ActivePacketSource</title>
<path fill="none" stroke="black" stroke-dasharray="5,2" d="M933.37,-62.12C793.75,-58.45 426.38,-46.73 121,-19 118.17,-18.74 115.27,-18.45 112.34,-18.14"/>
</g>
<!-- BurstyPacketProducer -->
<g id="node3" class="node">
<title>BurstyPacketProducer</title>
<g id="a_node3"><a xlink:href="inet.queueing.source.BurstyPacketProducer.html" xlink:title="Compound Module BurstyPacketProducer" target="_parent">
<polygon fill="#fffcaf" stroke="black" points="252,-19 130,-19 130,0 252,0 252,-19"/>
<text text-anchor="middle" x="191" y="-7" font-family="Helvetica,sans-Serif" font-size="10.00">BurstyPacketProducer</text>
</a>
</g>
</g>
<!-- IActivePacketSource&#45;&gt;BurstyPacketProducer -->
<g id="edge2" class="edge">
<title>IActivePacketSource&#45;&gt;BurstyPacketProducer</title>
<path fill="none" stroke="black" stroke-dasharray="5,2" d="M933.18,-61.16C809.62,-55.88 510.73,-41.75 261,-19 258.07,-18.73 255.08,-18.44 252.06,-18.13"/>
</g>
<!-- EmptyPacketSource -->
<g id="node4" class="node">
<title>EmptyPacketSource</title>
<g id="a_node4"><a xlink:href="inet.queueing.source.EmptyPacketSource.html" xlink:title="Simple Module EmptyPacketSource" target="_parent">
<polygon fill="#fffcaf" stroke="black" points="383.5,-19 270.5,-19 270.5,0 383.5,0 383.5,-19"/>
<text text-anchor="middle" x="327" y="-7" font-family="Helvetica,sans-Serif" font-size="10.00">EmptyPacketSource</text>
</a>
</g>
</g>
<!-- IActivePacketSource&#45;&gt;EmptyPacketSource -->
<g id="edge3" class="edge">
<title>IActivePacketSource&#45;&gt;EmptyPacketSource</title>
<path fill="none" stroke="black" stroke-dasharray="5,2" d="M933.18,-60.23C826.34,-53.97 590.83,-39.08 393,-19 389.9,-18.68 386.71,-18.34 383.5,-17.98"/>
</g>
<!-- PacketDuplicator -->
<g id="node5" class="node">
<title>PacketDuplicator</title>
<g id="a_node5"><a xlink:href="inet.queueing.common.PacketDuplicator.html" xlink:title="Simple Module PacketDuplicator" target="_parent">
<polygon fill="#fffcaf" stroke="black" points="500,-19 402,-19 402,0 500,0 500,-19"/>
<text text-anchor="middle" x="451" y="-7" font-family="Helvetica,sans-Serif" font-size="10.00">PacketDuplicator</text>
</a>
</g>
</g>
<!-- IActivePacketSource&#45;&gt;PacketDuplicator -->
<g id="edge4" class="edge">
<title>IActivePacketSource&#45;&gt;PacketDuplicator</title>
<path fill="none" stroke="black" stroke-dasharray="5,2" d="M933.39,-59.18C842.88,-52.17 661.91,-37.25 509,-19 506.07,-18.65 503.06,-18.27 500.02,-17.87"/>
</g>
<!-- PacketHistory -->
<g id="node6" class="node">
<title>PacketHistory</title>
<g id="a_node6"><a xlink:href="inet.queueing.common.PacketHistory.html" xlink:title="Compound Module PacketHistory" target="_parent">
<polygon fill="#fffcaf" stroke="black" points="601.5,-19 518.5,-19 518.5,0 601.5,0 601.5,-19"/>
<text text-anchor="middle" x="560" y="-7" font-family="Helvetica,sans-Serif" font-size="10.00">PacketHistory</text>
</a>
</g>
</g>
<!-- IActivePacketSource&#45;&gt;PacketHistory -->
<g id="edge5" class="edge">
<title>IActivePacketSource&#45;&gt;PacketHistory</title>
<path fill="none" stroke="black" stroke-dasharray="5,2" d="M933.43,-57.72C858.72,-50 724.37,-35.39 610,-19 607.3,-18.61 604.52,-18.19 601.72,-17.76"/>
</g>
<!-- PacketMultiplexer -->
<g id="node7" class="node">
<title>PacketMultiplexer</title>
<g id="a_node7"><a xlink:href="inet.queueing.common.PacketMultiplexer.html" xlink:title="Simple Module PacketMultiplexer" target="_parent">
<polygon fill="#fffcaf" stroke="black" points="722.5,-19 619.5,-19 619.5,0 722.5,0 722.5,-19"/>
<text text-anchor="middle" x="671" y="-7" font-family="Helvetica,sans-Serif" font-size="10.00">PacketMultiplexer</text>
</a>
</g>
</g>
<!-- IActivePacketSource&#45;&gt;PacketMultiplexer -->
<g id="edge6" class="edge">
<title>IActivePacketSource&#45;&gt;PacketMultiplexer</title>
<path fill="none" stroke="black" stroke-dasharray="5,2" d="M939.59,-54.98C879.96,-45.11 782.24,-28.92 722.55,-19.04"/>
</g>
<!-- PacketSendToPush -->
<g id="node8" class="node">
<title>PacketSendToPush</title>
<g id="a_node8"><a xlink:href="inet.queueing.common.PacketSendToPush.html" xlink:title="Simple Module PacketSendToPush" target="_parent">
<polygon fill="#fffcaf" stroke="black" points="847,-19 741,-19 741,0 847,0 847,-19"/>
<text text-anchor="middle" x="794" y="-7" font-family="Helvetica,sans-Serif" font-size="10.00">PacketSendToPush</text>
</a>
</g>
</g>
<!-- IActivePacketSource&#45;&gt;PacketSendToPush -->
<g id="edge7" class="edge">
<title>IActivePacketSource&#45;&gt;PacketSendToPush</title>
<path fill="none" stroke="black" stroke-dasharray="5,2" d="M959.35,-54.98C922.69,-45.12 862.66,-28.97 825.9,-19.08"/>
</g>
<!-- PcapFilePacketProducer -->
<g id="node9" class="node">
<title>PcapFilePacketProducer</title>
<g id="a_node9"><a xlink:href="inet.queueing.source.PcapFilePacketProducer.html" xlink:title="Simple Module PcapFilePacketProducer" target="_parent">
<polygon fill="#fffcaf" stroke="black" points="996.5,-19 865.5,-19 865.5,0 996.5,0 996.5,-19"/>
<text text-anchor="middle" x="931" y="-7" font-family="Helvetica,sans-Serif" font-size="10.00">PcapFilePacketProducer</text>
</a>
</g>
</g>
<!-- IActivePacketSource&#45;&gt;PcapFilePacketProducer -->
<g id="edge8" class="edge">
<title>IActivePacketSource&#45;&gt;PcapFilePacketProducer</title>
<path fill="none" stroke="black" stroke-dasharray="5,2" d="M981.36,-54.98C970.23,-45.15 952.02,-29.07 940.82,-19.17"/>
</g>
<!-- QueueFiller -->
<g id="node10" class="node">
<title>QueueFiller</title>
<g id="a_node10"><a xlink:href="inet.queueing.source.QueueFiller.html" xlink:title="Compound Module QueueFiller" target="_parent">
<polygon fill="#fffcaf" stroke="black" points="1087,-19 1015,-19 1015,0 1087,0 1087,-19"/>
<text text-anchor="middle" x="1051" y="-7" font-family="Helvetica,sans-Serif" font-size="10.00">QueueFiller</text>
</a>
</g>
</g>
<!-- IActivePacketSource&#45;&gt;QueueFiller -->
<g id="edge9" class="edge">
<title>IActivePacketSource&#45;&gt;QueueFiller</title>
<path fill="none" stroke="black" stroke-dasharray="5,2" d="M1000.64,-54.98C1011.77,-45.15 1029.98,-29.07 1041.18,-19.17"/>
</g>
<!-- ResponseProducer -->
<g id="node11" class="node">
<title>ResponseProducer</title>
<g id="a_node11"><a xlink:href="inet.queueing.source.ResponseProducer.html" xlink:title="Compound Module ResponseProducer" target="_parent">
<polygon fill="#fffcaf" stroke="black" points="1212.5,-19 1105.5,-19 1105.5,0 1212.5,0 1212.5,-19"/>
<text text-anchor="middle" x="1159" y="-7" font-family="Helvetica,sans-Serif" font-size="10.00">ResponseProducer</text>
</a>
</g>
</g>
<!-- IActivePacketSource&#45;&gt;ResponseProducer -->
<g id="edge10" class="edge">
<title>IActivePacketSource&#45;&gt;ResponseProducer</title>
<path fill="none" stroke="black" stroke-dasharray="5,2" d="M1017.99,-54.98C1049.25,-45.12 1100.45,-28.97 1131.8,-19.08"/>
</g>
<!-- IPacketDelayer -->
<g id="node12" class="node">
<title>IPacketDelayer</title>
<g id="a_node12"><a xlink:href="inet.queueing.contract.IPacketDelayer.html" xlink:title="Module Interface IPacketDelayer" target="_parent">
<polygon fill="#fffcaf" stroke="black" stroke-dasharray="5,2" points="1319.5,-19 1230.5,-19 1230.5,0 1319.5,0 1319.5,-19"/>
<text text-anchor="middle" x="1275" y="-7" font-family="Helvetica,sans-Serif" font-size="10.00">IPacketDelayer</text>
</a>
</g>
</g>
<!-- IActivePacketSource&#45;&gt;IPacketDelayer -->
<g id="edge11" class="edge">
<title>IActivePacketSource&#45;&gt;IPacketDelayer</title>
<path fill="none" stroke="black" d="M1036.63,-54.98C1089.94,-45.04 1177.56,-28.68 1230.42,-18.82"/>
</g>
<!-- IPacketPolicing -->
<g id="node13" class="node">
<title>IPacketPolicing</title>
<g id="a_node13"><a xlink:href="inet.queueing.contract.IPacketPolicing.html" xlink:title="Module Interface IPacketPolicing" target="_parent">
<polygon fill="#fffcaf" stroke="black" stroke-dasharray="5,2" points="1426.5,-19 1337.5,-19 1337.5,0 1426.5,0 1426.5,-19"/>
<text text-anchor="middle" x="1382" y="-7" font-family="Helvetica,sans-Serif" font-size="10.00">IPacketPolicing</text>
</a>
</g>
</g>
<!-- IActivePacketSource&#45;&gt;IPacketPolicing -->
<g id="edge12" class="edge">
<title>IActivePacketSource&#45;&gt;IPacketPolicing</title>
<path fill="none" stroke="black" d="M1048.78,-56.39C1116.13,-48 1230.76,-33.34 1329,-19 1331.77,-18.6 1334.61,-18.17 1337.48,-17.73"/>
</g>
<!-- IPacketPusher -->
<g id="node14" class="node">
<title>IPacketPusher</title>
<g id="a_node14"><a xlink:href="inet.queueing.contract.IPacketPusher.html" xlink:title="Module Interface IPacketPusher" target="_parent">
<polygon fill="#fffcaf" stroke="black" stroke-dasharray="5,2" points="1528,-19 1444,-19 1444,0 1528,0 1528,-19"/>
<text text-anchor="middle" x="1486" y="-7" font-family="Helvetica,sans-Serif" font-size="10.00">IPacketPusher</text>
</a>
</g>
</g>
<!-- IActivePacketSource&#45;&gt;IPacketPusher -->
<g id="edge13" class="edge">
<title>IActivePacketSource&#45;&gt;IPacketPusher</title>
<path fill="none" stroke="black" d="M1048.75,-59C1133.76,-52.09 1297.5,-37.68 1436,-19 1438.53,-18.66 1441.13,-18.29 1443.75,-17.89"/>
</g>
<!-- IPacketServer -->
<g id="node15" class="node">
<title>IPacketServer</title>
<g id="a_node15"><a xlink:href="inet.queueing.contract.IPacketServer.html" xlink:title="Module Interface IPacketServer" target="_parent">
<polygon fill="#fffcaf" stroke="black" stroke-dasharray="5,2" points="1629.5,-19 1546.5,-19 1546.5,0 1629.5,0 1629.5,-19"/>
<text text-anchor="middle" x="1588" y="-7" font-family="Helvetica,sans-Serif" font-size="10.00">IPacketServer</text>
</a>
</g>
</g>
<!-- IActivePacketSource&#45;&gt;IPacketServer -->
<g id="edge14" class="edge">
<title>IActivePacketSource&#45;&gt;IPacketServer</title>
<path fill="none" stroke="black" d="M1048.55,-60.4C1148.27,-54.68 1359.56,-40.98 1537,-19 1540.03,-18.62 1543.15,-18.2 1546.29,-17.74"/>
</g>
<!-- IPacketShaper -->
<g id="node16" class="node">
<title>IPacketShaper</title>
<g id="a_node16"><a xlink:href="inet.queueing.contract.IPacketShaper.html" xlink:title="Module Interface IPacketShaper" target="_parent">
<polygon fill="#fffcaf" stroke="black" stroke-dasharray="5,2" points="1732.5,-19 1647.5,-19 1647.5,0 1732.5,0 1732.5,-19"/>
<text text-anchor="middle" x="1690" y="-7" font-family="Helvetica,sans-Serif" font-size="10.00">IPacketShaper</text>
</a>
</g>
</g>
<!-- IActivePacketSource&#45;&gt;IPacketShaper -->
<g id="edge15" class="edge">
<title>IActivePacketSource&#45;&gt;IPacketShaper</title>
<path fill="none" stroke="black" d="M1048.82,-61.4C1162.3,-56.88 1422.01,-44.47 1639,-19 1641.76,-18.68 1644.61,-18.31 1647.47,-17.9"/>
</g>
<!-- ITrafficConditioner -->
<g id="node17" class="node">
<title>ITrafficConditioner</title>
<g id="a_node17"><a xlink:href="inet.queueing.contract.ITrafficConditioner.html" xlink:title="Module Interface ITrafficConditioner" target="_parent">
<polygon fill="#fffcaf" stroke="black" stroke-dasharray="5,2" points="1855.5,-19 1750.5,-19 1750.5,0 1855.5,0 1855.5,-19"/>
<text text-anchor="middle" x="1803" y="-7" font-family="Helvetica,sans-Serif" font-size="10.00">ITrafficConditioner</text>
</a>
</g>
</g>
<!-- IActivePacketSource&#45;&gt;ITrafficConditioner -->
<g id="edge16" class="edge">
<title>IActivePacketSource&#45;&gt;ITrafficConditioner</title>
<path fill="none" stroke="black" d="M1048.6,-61.64C1174.58,-57.25 1484,-44.58 1742,-19 1744.77,-18.73 1747.6,-18.42 1750.46,-18.09"/>
</g>
</g>
</svg>
