<?xml version="1.0" encoding="UTF-8" standalone="no"?>
<!DOCTYPE svg PUBLIC "-//W3C//DTD SVG 1.1//EN"
 "http://www.w3.org/Graphics/SVG/1.1/DTD/svg11.dtd">
<!-- Generated by graphviz version 2.43.0 (0)
 -->
<!-- Title: opp Pages: 1 -->
<svg width="256pt" height="82pt"
 viewBox="0.00 0.00 256.00 82.00" xmlns="http://www.w3.org/2000/svg" xmlns:xlink="http://www.w3.org/1999/xlink">
<g id="graph0" class="graph" transform="scale(1 1) rotate(0) translate(4 78)">
<title>opp</title>
<polygon fill="transparent" stroke="transparent" points="-4,4 -4,-78 252,-78 252,4 -4,4"/>
<!-- IEnergyConsumer -->
<g id="node1" class="node">
<title>IEnergyConsumer</title>
<g id="a_node1"><a xlink:href="inet.power.contract.IEnergyConsumer.html" xlink:title="Module Interface IEnergyConsumer" target="_parent">
<polygon fill="#fff700" stroke="black" stroke-dasharray="5,2" points="175,-74 72,-74 72,-55 175,-55 175,-74"/>
<text text-anchor="middle" x="123.5" y="-62" font-family="Helvetica,sans-Serif" font-size="10.00">IEnergyConsumer</text>
</a>
</g>
</g>
<!-- ICcEnergyConsumer -->
<g id="node2" class="node">
<title>ICcEnergyConsumer</title>
<g id="a_node2"><a xlink:href="inet.power.contract.ICcEnergyConsumer.html" xlink:title="Module Interface ICcEnergyConsumer" target="_parent">
<polygon fill="#fffcaf" stroke="black" stroke-dasharray="5,2" points="115,-19 0,-19 0,0 115,0 115,-19"/>
<text text-anchor="middle" x="57.5" y="-7" font-family="Helvetica,sans-Serif" font-size="10.00">ICcEnergyConsumer</text>
</a>
</g>
</g>
<!-- IEnergyConsumer&#45;&gt;ICcEnergyConsumer -->
<g id="edge1" class="edge">
<title>IEnergyConsumer&#45;&gt;ICcEnergyConsumer</title>
<path fill="none" stroke="black" d="M112.9,-54.98C100.65,-45.15 80.62,-29.07 68.3,-19.17"/>
</g>
<!-- IEpEnergyConsumer -->
<g id="node3" class="node">
<title>IEpEnergyConsumer</title>
<g id="a_node3"><a xlink:href="inet.power.contract.IEpEnergyConsumer.html" xlink:title="Module Interface IEpEnergyConsumer" target="_parent">
<polygon fill="#fffcaf" stroke="black" stroke-dasharray="5,2" points="248,-19 133,-19 133,0 248,0 248,-19"/>
<text text-anchor="middle" x="190.5" y="-7" font-family="Helvetica,sans-Serif" font-size="10.00">IEpEnergyConsumer</text>
</a>
</g>
</g>
<!-- IEnergyConsumer&#45;&gt;IEpEnergyConsumer -->
<g id="edge2" class="edge">
<title>IEnergyConsumer&#45;&gt;IEpEnergyConsumer</title>
<path fill="none" stroke="black" d="M134.26,-54.98C146.69,-45.15 167.03,-29.07 179.54,-19.17"/>
</g>
</g>
</svg>
