<?xml version="1.0" encoding="UTF-8" standalone="no"?>
<!DOCTYPE svg PUBLIC "-//W3C//DTD SVG 1.1//EN"
 "http://www.w3.org/Graphics/SVG/1.1/DTD/svg11.dtd">
<!-- Generated by graphviz version 2.43.0 (0)
 -->
<!-- Title: opp Pages: 1 -->
<svg width="220pt" height="82pt"
 viewBox="0.00 0.00 219.50 82.00" xmlns="http://www.w3.org/2000/svg" xmlns:xlink="http://www.w3.org/1999/xlink">
<g id="graph0" class="graph" transform="scale(1 1) rotate(0) translate(4 78)">
<title>opp</title>
<polygon fill="transparent" stroke="transparent" points="-4,4 -4,-78 215.5,-78 215.5,4 -4,4"/>
<!-- InfoCanvasVisualizer -->
<g id="node1" class="node">
<title>InfoCanvasVisualizer</title>
<g id="a_node1"><a xlink:href="inet.visualizer.canvas.common.InfoCanvasVisualizer.html" xlink:title="Simple Module InfoCanvasVisualizer" target="_parent">
<polygon fill="#fff700" stroke="black" points="170,-19 51,-19 51,0 170,0 170,-19"/>
<text text-anchor="middle" x="110.5" y="-7" font-family="Helvetica,sans-Serif" font-size="10.00">InfoCanvasVisualizer</text>
</a>
</g>
</g>
<!-- InfoVisualizerBase -->
<g id="node2" class="node">
<title>InfoVisualizerBase</title>
<g id="a_node2"><a xlink:href="inet.visualizer.base.InfoVisualizerBase.html" xlink:title="Simple Module InfoVisualizerBase" target="_parent">
<polygon fill="#fffcaf" stroke="black" points="107,-74 0,-74 0,-55 107,-55 107,-74"/>
<text text-anchor="middle" x="53.5" y="-62" font-family="Helvetica,sans-Serif" font-size="10.00">InfoVisualizerBase</text>
</a>
</g>
</g>
<!-- InfoVisualizerBase&#45;&gt;InfoCanvasVisualizer -->
<g id="edge1" class="edge">
<title>InfoVisualizerBase&#45;&gt;InfoCanvasVisualizer</title>
<path fill="none" stroke="black" d="M62.66,-54.98C73.23,-45.15 90.53,-29.07 101.18,-19.17"/>
</g>
<!-- IInfoVisualizer -->
<g id="node3" class="node">
<title>IInfoVisualizer</title>
<g id="a_node3"><a xlink:href="inet.visualizer.contract.IInfoVisualizer.html" xlink:title="Module Interface IInfoVisualizer" target="_parent">
<polygon fill="#fffcaf" stroke="black" stroke-dasharray="5,2" points="211.5,-74 125.5,-74 125.5,-55 211.5,-55 211.5,-74"/>
<text text-anchor="middle" x="168.5" y="-62" font-family="Helvetica,sans-Serif" font-size="10.00">IInfoVisualizer</text>
</a>
</g>
</g>
<!-- IInfoVisualizer&#45;&gt;InfoCanvasVisualizer -->
<g id="edge2" class="edge">
<title>IInfoVisualizer&#45;&gt;InfoCanvasVisualizer</title>
<path fill="none" stroke="black" stroke-dasharray="5,2" d="M159.18,-54.98C148.42,-45.15 130.82,-29.07 119.99,-19.17"/>
</g>
</g>
</svg>
