<?xml version="1.0" encoding="UTF-8" standalone="no"?>
<!DOCTYPE svg PUBLIC "-//W3C//DTD SVG 1.1//EN"
 "http://www.w3.org/Graphics/SVG/1.1/DTD/svg11.dtd">
<!-- Generated by graphviz version 2.43.0 (0)
 -->
<!-- Title: opp Pages: 1 -->
<svg width="640pt" height="82pt"
 viewBox="0.00 0.00 640.00 82.00" xmlns="http://www.w3.org/2000/svg" xmlns:xlink="http://www.w3.org/1999/xlink">
<g id="graph0" class="graph" transform="scale(1 1) rotate(0) translate(4 78)">
<title>opp</title>
<polygon fill="transparent" stroke="transparent" points="-4,4 -4,-78 636,-78 636,4 -4,4"/>
<!-- RoutingTableVisualizationFilteringShowcase -->
<g id="node1" class="node">
<title>RoutingTableVisualizationFilteringShowcase</title>
<g id="a_node1"><a xlink:href="inet.showcases.visualizer.canvas.routingtable.RoutingTableVisualizationFilteringShowcase.html" xlink:title="Network RoutingTableVisualizationFilteringShowcase" target="_parent">
<polygon fill="#9090ff" stroke="black" points="461,-74 230,-74 230,-55 461,-55 461,-74"/>
<text text-anchor="middle" x="345.5" y="-62" font-family="Helvetica,sans-Serif" font-size="10.00">RoutingTableVisualizationFilteringShowcase</text>
</a>
</g>
</g>
<!-- IntegratedVisualizer -->
<g id="node2" class="node">
<title>IntegratedVisualizer</title>
<g id="a_node2"><a xlink:href="inet.visualizer.common.IntegratedVisualizer.html" xlink:title="Compound Module IntegratedVisualizer" target="_parent">
<polygon fill="#fffcaf" stroke="black" points="115,-19 0,-19 0,0 115,0 115,-19"/>
<text text-anchor="middle" x="57.5" y="-7" font-family="Helvetica,sans-Serif" font-size="10.00">IntegratedVisualizer</text>
</a>
</g>
</g>
<!-- RoutingTableVisualizationFilteringShowcase&#45;&gt;IntegratedVisualizer -->
<g id="edge1" class="edge">
<title>RoutingTableVisualizationFilteringShowcase&#45;&gt;IntegratedVisualizer</title>
<path fill="none" stroke="black" d="M299.23,-54.98C248.89,-45.72 168.38,-30.9 114.26,-20.94"/>
<polygon fill="black" stroke="black" points="114.6,-17.45 104.13,-19.08 113.34,-24.33 114.6,-17.45"/>
</g>
<!-- StandardHost -->
<g id="node3" class="node">
<title>StandardHost</title>
<g id="a_node3"><a xlink:href="inet.node.inet.StandardHost.html" xlink:title="Compound Module StandardHost" target="_parent">
<polygon fill="#fffcaf" stroke="black" points="216,-19 133,-19 133,0 216,0 216,-19"/>
<text text-anchor="middle" x="174.5" y="-7" font-family="Helvetica,sans-Serif" font-size="10.00">StandardHost</text>
</a>
</g>
</g>
<!-- RoutingTableVisualizationFilteringShowcase&#45;&gt;StandardHost -->
<g id="edge2" class="edge">
<title>RoutingTableVisualizationFilteringShowcase&#45;&gt;StandardHost</title>
<path fill="none" stroke="black" d="M318.03,-54.98C289.32,-46.09 244.08,-32.07 212.08,-22.15"/>
<polygon fill="black" stroke="black" points="212.78,-18.7 202.19,-19.08 210.7,-25.39 212.78,-18.7"/>
</g>
<!-- EthernetSwitch -->
<g id="node4" class="node">
<title>EthernetSwitch</title>
<g id="a_node4"><a xlink:href="inet.node.ethernet.EthernetSwitch.html" xlink:title="Compound Module EthernetSwitch" target="_parent">
<polygon fill="#fffcaf" stroke="black" points="324.5,-19 234.5,-19 234.5,0 324.5,0 324.5,-19"/>
<text text-anchor="middle" x="279.5" y="-7" font-family="Helvetica,sans-Serif" font-size="10.00">EthernetSwitch</text>
</a>
</g>
</g>
<!-- RoutingTableVisualizationFilteringShowcase&#45;&gt;EthernetSwitch -->
<g id="edge3" class="edge">
<title>RoutingTableVisualizationFilteringShowcase&#45;&gt;EthernetSwitch</title>
<path fill="none" stroke="black" d="M334.9,-54.98C325.04,-47.07 310.15,-35.11 298.28,-25.58"/>
<polygon fill="black" stroke="black" points="300.29,-22.7 290.3,-19.17 295.9,-28.16 300.29,-22.7"/>
</g>
<!-- Ipv4NetworkConfigurator -->
<g id="node5" class="node">
<title>Ipv4NetworkConfigurator</title>
<g id="a_node5"><a xlink:href="inet.networklayer.configurator.ipv4.Ipv4NetworkConfigurator.html" xlink:title="Simple Module Ipv4NetworkConfigurator" target="_parent">
<polygon fill="#fffcaf" stroke="black" points="482,-19 343,-19 343,0 482,0 482,-19"/>
<text text-anchor="middle" x="412.5" y="-7" font-family="Helvetica,sans-Serif" font-size="10.00">Ipv4NetworkConfigurator</text>
</a>
</g>
</g>
<!-- RoutingTableVisualizationFilteringShowcase&#45;&gt;Ipv4NetworkConfigurator -->
<g id="edge4" class="edge">
<title>RoutingTableVisualizationFilteringShowcase&#45;&gt;Ipv4NetworkConfigurator</title>
<path fill="none" stroke="black" d="M356.26,-54.98C366.27,-47.07 381.39,-35.11 393.43,-25.58"/>
<polygon fill="black" stroke="black" points="395.87,-28.12 401.54,-19.17 391.53,-22.63 395.87,-28.12"/>
</g>
<!-- Router -->
<g id="node6" class="node">
<title>Router</title>
<g id="a_node6"><a xlink:href="inet.node.inet.Router.html" xlink:title="Compound Module Router" target="_parent">
<polygon fill="#fffcaf" stroke="black" points="554.5,-19 500.5,-19 500.5,0 554.5,0 554.5,-19"/>
<text text-anchor="middle" x="527.5" y="-7" font-family="Helvetica,sans-Serif" font-size="10.00">Router</text>
</a>
</g>
</g>
<!-- RoutingTableVisualizationFilteringShowcase&#45;&gt;Router -->
<g id="edge5" class="edge">
<title>RoutingTableVisualizationFilteringShowcase&#45;&gt;Router</title>
<path fill="none" stroke="black" d="M374.74,-54.98C406.29,-45.8 456.6,-31.15 490.79,-21.19"/>
<polygon fill="black" stroke="black" points="491.79,-24.55 500.41,-18.39 489.83,-17.82 491.79,-24.55"/>
</g>
<!-- Eth100M -->
<g id="node7" class="node">
<title>Eth100M</title>
<g id="a_node7"><a xlink:href="inet.node.ethernet.Eth100M.html" xlink:title="Channel Eth100M" target="_parent">
<polygon fill="#d0ffd0" stroke="black" points="632,-19 573,-19 573,0 632,0 632,-19"/>
<text text-anchor="middle" x="602.5" y="-7" font-family="Helvetica,sans-Serif" font-size="10.00">Eth100M</text>
</a>
</g>
</g>
<!-- RoutingTableVisualizationFilteringShowcase&#45;&gt;Eth100M -->
<g id="edge6" class="edge">
<title>RoutingTableVisualizationFilteringShowcase&#45;&gt;Eth100M</title>
<path fill="none" stroke="black" d="M388.14,-54.97C430.05,-46.55 496.1,-33.17 562.85,-19.12"/>
<polygon fill="black" stroke="black" points="563.64,-22.53 572.7,-17.04 562.19,-15.68 563.64,-22.53"/>
</g>
</g>
</svg>
