<?xml version="1.0" encoding="UTF-8" standalone="no"?>
<!DOCTYPE svg PUBLIC "-//W3C//DTD SVG 1.1//EN"
 "http://www.w3.org/Graphics/SVG/1.1/DTD/svg11.dtd">
<!-- Generated by graphviz version 2.43.0 (0)
 -->
<!-- Title: opp Pages: 1 -->
<svg width="415pt" height="82pt"
 viewBox="0.00 0.00 414.50 82.00" xmlns="http://www.w3.org/2000/svg" xmlns:xlink="http://www.w3.org/1999/xlink">
<g id="graph0" class="graph" transform="scale(1 1) rotate(0) translate(4 78)">
<title>opp</title>
<polygon fill="transparent" stroke="transparent" points="-4,4 -4,-78 410.5,-78 410.5,4 -4,4"/>
<!-- Throughput -->
<g id="node1" class="node">
<title>Throughput</title>
<g id="a_node1"><a xlink:href="inet.examples.wireless.testnewmac.Throughput.html" xlink:title="Network Throughput" target="_parent">
<polygon fill="#9090ff" stroke="black" points="269.5,-74 197.5,-74 197.5,-55 269.5,-55 269.5,-74"/>
<text text-anchor="middle" x="233.5" y="-62" font-family="Helvetica,sans-Serif" font-size="10.00">Throughput</text>
</a>
</g>
</g>
<!-- Ieee80211ScalarRadioMedium -->
<g id="node2" class="node">
<title>Ieee80211ScalarRadioMedium</title>
<g id="a_node2"><a xlink:href="inet.physicallayer.wireless.ieee80211.packetlevel.Ieee80211ScalarRadioMedium.html" xlink:title="Compound Module Ieee80211ScalarRadioMedium" target="_parent">
<polygon fill="#fffcaf" stroke="black" points="165,-19 0,-19 0,0 165,0 165,-19"/>
<text text-anchor="middle" x="82.5" y="-7" font-family="Helvetica,sans-Serif" font-size="10.00">Ieee80211ScalarRadioMedium</text>
</a>
</g>
</g>
<!-- Throughput&#45;&gt;Ieee80211ScalarRadioMedium -->
<g id="edge1" class="edge">
<title>Throughput&#45;&gt;Ieee80211ScalarRadioMedium</title>
<path fill="none" stroke="black" d="M209.24,-54.98C184.18,-46.19 144.87,-32.39 116.67,-22.49"/>
<polygon fill="black" stroke="black" points="117.8,-19.18 107.2,-19.17 115.48,-25.78 117.8,-19.18"/>
</g>
<!-- ThroughputClient -->
<g id="node3" class="node">
<title>ThroughputClient</title>
<g id="a_node3"><a xlink:href="inet.examples.wireless.testnewmac.ThroughputClient.html" xlink:title="Compound Module ThroughputClient" target="_parent">
<polygon fill="#fffcaf" stroke="black" points="284,-19 183,-19 183,0 284,0 284,-19"/>
<text text-anchor="middle" x="233.5" y="-7" font-family="Helvetica,sans-Serif" font-size="10.00">ThroughputClient</text>
</a>
</g>
</g>
<!-- Throughput&#45;&gt;ThroughputClient -->
<g id="edge2" class="edge">
<title>Throughput&#45;&gt;ThroughputClient</title>
<path fill="none" stroke="black" d="M233.5,-54.75C233.5,-47.8 233.5,-37.85 233.5,-29.13"/>
<polygon fill="black" stroke="black" points="237,-29.09 233.5,-19.09 230,-29.09 237,-29.09"/>
</g>
<!-- ThroughputServer -->
<g id="node4" class="node">
<title>ThroughputServer</title>
<g id="a_node4"><a xlink:href="inet.examples.wireless.testnewmac.ThroughputServer.html" xlink:title="Compound Module ThroughputServer" target="_parent">
<polygon fill="#fffcaf" stroke="black" points="406.5,-19 302.5,-19 302.5,0 406.5,0 406.5,-19"/>
<text text-anchor="middle" x="354.5" y="-7" font-family="Helvetica,sans-Serif" font-size="10.00">ThroughputServer</text>
</a>
</g>
</g>
<!-- Throughput&#45;&gt;ThroughputServer -->
<g id="edge3" class="edge">
<title>Throughput&#45;&gt;ThroughputServer</title>
<path fill="none" stroke="black" d="M252.94,-54.98C272.49,-46.42 302.88,-33.11 325.32,-23.28"/>
<polygon fill="black" stroke="black" points="326.95,-26.39 334.71,-19.17 324.14,-19.98 326.95,-26.39"/>
</g>
</g>
</svg>
