<?xml version="1.0" encoding="UTF-8" standalone="no"?>
<!DOCTYPE svg PUBLIC "-//W3C//DTD SVG 1.1//EN"
 "http://www.w3.org/Graphics/SVG/1.1/DTD/svg11.dtd">
<!-- Generated by graphviz version 2.43.0 (0)
 -->
<!-- Title: opp Pages: 1 -->
<svg width="492pt" height="82pt"
 viewBox="0.00 0.00 492.00 82.00" xmlns="http://www.w3.org/2000/svg" xmlns:xlink="http://www.w3.org/1999/xlink">
<g id="graph0" class="graph" transform="scale(1 1) rotate(0) translate(4 78)">
<title>opp</title>
<polygon fill="transparent" stroke="transparent" points="-4,4 -4,-78 488,-78 488,4 -4,4"/>
<!-- EthernetStreamingMacLayer -->
<g id="node1" class="node">
<title>EthernetStreamingMacLayer</title>
<g id="a_node1"><a xlink:href="inet.linklayer.ethernet.modular.EthernetStreamingMacLayer.html" xlink:title="Compound Module EthernetStreamingMacLayer" target="_parent">
<polygon fill="#fff700" stroke="black" points="323.5,-74 168.5,-74 168.5,-55 323.5,-55 323.5,-74"/>
<text text-anchor="middle" x="246" y="-62" font-family="Helvetica,sans-Serif" font-size="10.00">EthernetStreamingMacLayer</text>
</a>
</g>
</g>
<!-- IPacketLifeTimer -->
<g id="node2" class="node">
<title>IPacketLifeTimer</title>
<g id="a_node2"><a xlink:href="inet.protocolelement.contract.IPacketLifeTimer.html" xlink:title="Module Interface IPacketLifeTimer" target="_parent">
<polygon fill="#fffcaf" stroke="black" stroke-dasharray="5,2" points="98,-19 0,-19 0,0 98,0 98,-19"/>
<text text-anchor="middle" x="49" y="-7" font-family="Helvetica,sans-Serif" font-size="10.00">IPacketLifeTimer</text>
</a>
</g>
</g>
<!-- EthernetStreamingMacLayer&#45;&gt;IPacketLifeTimer -->
<g id="edge1" class="edge">
<title>EthernetStreamingMacLayer&#45;&gt;IPacketLifeTimer</title>
<path fill="none" stroke="black" d="M214.35,-54.98C180.84,-45.97 127.8,-31.7 90.86,-21.76"/>
<polygon fill="black" stroke="black" points="91.47,-18.3 80.9,-19.08 89.65,-25.06 91.47,-18.3"/>
</g>
<!-- IPacketFlow -->
<g id="node3" class="node">
<title>IPacketFlow</title>
<g id="a_node3"><a xlink:href="inet.queueing.contract.IPacketFlow.html" xlink:title="Module Interface IPacketFlow" target="_parent">
<polygon fill="#fffcaf" stroke="black" stroke-dasharray="5,2" points="190,-19 116,-19 116,0 190,0 190,-19"/>
<text text-anchor="middle" x="153" y="-7" font-family="Helvetica,sans-Serif" font-size="10.00">IPacketFlow</text>
</a>
</g>
</g>
<!-- EthernetStreamingMacLayer&#45;&gt;IPacketFlow -->
<g id="edge2" class="edge">
<title>EthernetStreamingMacLayer&#45;&gt;IPacketFlow</title>
<path fill="none" stroke="black" d="M231.06,-54.98C216.5,-46.69 194.13,-33.94 177.07,-24.22"/>
<polygon fill="black" stroke="black" points="178.64,-21.08 168.21,-19.17 175.17,-27.16 178.64,-21.08"/>
</g>
<!-- IPacketFilter -->
<g id="node4" class="node">
<title>IPacketFilter</title>
<g id="a_node4"><a xlink:href="inet.queueing.contract.IPacketFilter.html" xlink:title="Module Interface IPacketFilter" target="_parent">
<polygon fill="#fffcaf" stroke="black" stroke-dasharray="5,2" points="284,-19 208,-19 208,0 284,0 284,-19"/>
<text text-anchor="middle" x="246" y="-7" font-family="Helvetica,sans-Serif" font-size="10.00">IPacketFilter</text>
</a>
</g>
</g>
<!-- EthernetStreamingMacLayer&#45;&gt;IPacketFilter -->
<g id="edge3" class="edge">
<title>EthernetStreamingMacLayer&#45;&gt;IPacketFilter</title>
<path fill="none" stroke="black" d="M246,-54.75C246,-47.8 246,-37.85 246,-29.13"/>
<polygon fill="black" stroke="black" points="249.5,-29.09 246,-19.09 242.5,-29.09 249.5,-29.09"/>
</g>
<!-- IPacketQueue -->
<g id="node5" class="node">
<title>IPacketQueue</title>
<g id="a_node5"><a xlink:href="inet.queueing.contract.IPacketQueue.html" xlink:title="Module Interface IPacketQueue" target="_parent">
<polygon fill="#fffcaf" stroke="black" stroke-dasharray="5,2" points="385.5,-19 302.5,-19 302.5,0 385.5,0 385.5,-19"/>
<text text-anchor="middle" x="344" y="-7" font-family="Helvetica,sans-Serif" font-size="10.00">IPacketQueue</text>
</a>
</g>
</g>
<!-- EthernetStreamingMacLayer&#45;&gt;IPacketQueue -->
<g id="edge4" class="edge">
<title>EthernetStreamingMacLayer&#45;&gt;IPacketQueue</title>
<path fill="none" stroke="black" d="M261.75,-54.98C277.23,-46.61 301.09,-33.7 319.14,-23.95"/>
<polygon fill="black" stroke="black" points="320.84,-27.01 327.97,-19.17 317.51,-20.85 320.84,-27.01"/>
</g>
<!-- IdealChannel -->
<g id="node6" class="node">
<title>IdealChannel</title>
<g id="a_node6"><a xlink:href="ned.IdealChannel.html" xlink:title="Channel IdealChannel" target="_parent">
<polygon fill="#d0ffd0" stroke="black" points="484,-19 404,-19 404,0 484,0 484,-19"/>
<text text-anchor="middle" x="444" y="-7" font-family="Helvetica,sans-Serif" font-size="10.00">IdealChannel</text>
</a>
</g>
</g>
<!-- EthernetStreamingMacLayer&#45;&gt;IdealChannel -->
<g id="edge5" class="edge">
<title>EthernetStreamingMacLayer&#45;&gt;IdealChannel</title>
<path fill="none" stroke="black" d="M277.81,-54.98C311.49,-45.97 364.8,-31.7 401.92,-21.76"/>
<polygon fill="black" stroke="black" points="403.18,-25.05 411.94,-19.08 401.37,-18.29 403.18,-25.05"/>
</g>
</g>
</svg>
