<?xml version="1.0" encoding="UTF-8" standalone="no"?>
<!DOCTYPE svg PUBLIC "-//W3C//DTD SVG 1.1//EN"
 "http://www.w3.org/Graphics/SVG/1.1/DTD/svg11.dtd">
<!-- Generated by graphviz version 2.43.0 (0)
 -->
<!-- Title: opp Pages: 1 -->
<svg width="674pt" height="82pt"
 viewBox="0.00 0.00 674.00 82.00" xmlns="http://www.w3.org/2000/svg" xmlns:xlink="http://www.w3.org/1999/xlink">
<g id="graph0" class="graph" transform="scale(1 1) rotate(0) translate(4 78)">
<title>opp</title>
<polygon fill="transparent" stroke="transparent" points="-4,4 -4,-78 670,-78 670,4 -4,4"/>
<!-- BgpNetwork -->
<g id="node1" class="node">
<title>BgpNetwork</title>
<g id="a_node1"><a xlink:href="inet.examples.bgpv4.BgpAndOspfSimple.BgpNetwork.html" xlink:title="Network BgpNetwork" target="_parent">
<polygon fill="#9090ff" stroke="black" points="301,-74 224,-74 224,-55 301,-55 301,-74"/>
<text text-anchor="middle" x="262.5" y="-62" font-family="Helvetica,sans-Serif" font-size="10.00">BgpNetwork</text>
</a>
</g>
</g>
<!-- OspfRouter -->
<g id="node2" class="node">
<title>OspfRouter</title>
<g id="a_node2"><a xlink:href="inet.node.ospfv2.OspfRouter.html" xlink:title="Compound Module OspfRouter" target="_parent">
<polygon fill="#fffcaf" stroke="black" points="71,-19 0,-19 0,0 71,0 71,-19"/>
<text text-anchor="middle" x="35.5" y="-7" font-family="Helvetica,sans-Serif" font-size="10.00">OspfRouter</text>
</a>
</g>
</g>
<!-- BgpNetwork&#45;&gt;OspfRouter -->
<g id="edge1" class="edge">
<title>BgpNetwork&#45;&gt;OspfRouter</title>
<path fill="none" stroke="black" d="M226.03,-54.98C186.58,-45.77 123.63,-31.08 80.98,-21.12"/>
<polygon fill="black" stroke="black" points="81.67,-17.68 71.13,-18.82 80.07,-24.5 81.67,-17.68"/>
</g>
<!-- BgpRouter -->
<g id="node3" class="node">
<title>BgpRouter</title>
<g id="a_node3"><a xlink:href="inet.node.bgp.BgpRouter.html" xlink:title="Compound Module BgpRouter" target="_parent">
<polygon fill="#fffcaf" stroke="black" points="157.5,-19 89.5,-19 89.5,0 157.5,0 157.5,-19"/>
<text text-anchor="middle" x="123.5" y="-7" font-family="Helvetica,sans-Serif" font-size="10.00">BgpRouter</text>
</a>
</g>
</g>
<!-- BgpNetwork&#45;&gt;BgpRouter -->
<g id="edge2" class="edge">
<title>BgpNetwork&#45;&gt;BgpRouter</title>
<path fill="none" stroke="black" d="M240.17,-54.98C217.3,-46.27 181.54,-32.63 155.64,-22.75"/>
<polygon fill="black" stroke="black" points="156.83,-19.46 146.24,-19.17 154.34,-26 156.83,-19.46"/>
</g>
<!-- StandardHost -->
<g id="node4" class="node">
<title>StandardHost</title>
<g id="a_node4"><a xlink:href="inet.node.inet.StandardHost.html" xlink:title="Compound Module StandardHost" target="_parent">
<polygon fill="#fffcaf" stroke="black" points="259,-19 176,-19 176,0 259,0 259,-19"/>
<text text-anchor="middle" x="217.5" y="-7" font-family="Helvetica,sans-Serif" font-size="10.00">StandardHost</text>
</a>
</g>
</g>
<!-- BgpNetwork&#45;&gt;StandardHost -->
<g id="edge3" class="edge">
<title>BgpNetwork&#45;&gt;StandardHost</title>
<path fill="none" stroke="black" d="M255.07,-54.75C248.65,-47.18 239.19,-36.05 231.38,-26.84"/>
<polygon fill="black" stroke="black" points="233.93,-24.45 224.79,-19.09 228.6,-28.98 233.93,-24.45"/>
</g>
<!-- LINK_100 -->
<g id="node5" class="node">
<title>LINK_100</title>
<g id="a_node5"><a xlink:href="inet.examples.bgpv4.BgpAndOspfSimple.BgpNetwork.LINK_100.html" xlink:title="Channel LINK_100" target="_parent">
<polygon fill="#d0ffd0" stroke="black" points="339.5,-19 277.5,-19 277.5,0 339.5,0 339.5,-19"/>
<text text-anchor="middle" x="308.5" y="-7" font-family="Helvetica,sans-Serif" font-size="10.00">LINK_100</text>
</a>
</g>
</g>
<!-- BgpNetwork&#45;&gt;LINK_100 -->
<g id="edge4" class="edge">
<title>BgpNetwork&#45;&gt;LINK_100</title>
<path fill="none" stroke="black" d="M270.1,-54.75C276.66,-47.18 286.32,-36.05 294.31,-26.84"/>
<polygon fill="black" stroke="black" points="297.13,-28.94 301.05,-19.09 291.85,-24.35 297.13,-28.94"/>
</g>
<!-- IntegratedCanvasVisualizer -->
<g id="node6" class="node">
<title>IntegratedCanvasVisualizer</title>
<g id="a_node6"><a xlink:href="inet.visualizer.canvas.integrated.IntegratedCanvasVisualizer.html" xlink:title="Compound Module IntegratedCanvasVisualizer" target="_parent">
<polygon fill="#fffcaf" stroke="black" points="509,-19 358,-19 358,0 509,0 509,-19"/>
<text text-anchor="middle" x="433.5" y="-7" font-family="Helvetica,sans-Serif" font-size="10.00">IntegratedCanvasVisualizer</text>
</a>
</g>
</g>
<!-- BgpNetwork&#45;&gt;IntegratedCanvasVisualizer -->
<g id="edge5" class="edge">
<title>BgpNetwork&#45;&gt;IntegratedCanvasVisualizer</title>
<path fill="none" stroke="black" d="M289.97,-54.98C318.68,-46.09 363.92,-32.07 395.92,-22.15"/>
<polygon fill="black" stroke="black" points="397.3,-25.39 405.81,-19.08 395.22,-18.7 397.3,-25.39"/>
</g>
<!-- Ipv4NetworkConfigurator -->
<g id="node7" class="node">
<title>Ipv4NetworkConfigurator</title>
<g id="a_node7"><a xlink:href="inet.networklayer.configurator.ipv4.Ipv4NetworkConfigurator.html" xlink:title="Simple Module Ipv4NetworkConfigurator" target="_parent">
<polygon fill="#fffcaf" stroke="black" points="666,-19 527,-19 527,0 666,0 666,-19"/>
<text text-anchor="middle" x="596.5" y="-7" font-family="Helvetica,sans-Serif" font-size="10.00">Ipv4NetworkConfigurator</text>
</a>
</g>
</g>
<!-- BgpNetwork&#45;&gt;Ipv4NetworkConfigurator -->
<g id="edge6" class="edge">
<title>BgpNetwork&#45;&gt;Ipv4NetworkConfigurator</title>
<path fill="none" stroke="black" d="M301.14,-57.37C357.82,-48.37 464.16,-31.5 532.59,-20.64"/>
<polygon fill="black" stroke="black" points="533.48,-24.04 542.81,-19.02 532.39,-17.13 533.48,-24.04"/>
</g>
</g>
</svg>
