<?xml version="1.0" encoding="UTF-8" standalone="no"?>
<!DOCTYPE svg PUBLIC "-//W3C//DTD SVG 1.1//EN"
 "http://www.w3.org/Graphics/SVG/1.1/DTD/svg11.dtd">
<!-- Generated by graphviz version 2.43.0 (0)
 -->
<!-- Title: opp Pages: 1 -->
<svg width="308pt" height="82pt"
 viewBox="0.00 0.00 308.00 82.00" xmlns="http://www.w3.org/2000/svg" xmlns:xlink="http://www.w3.org/1999/xlink">
<g id="graph0" class="graph" transform="scale(1 1) rotate(0) translate(4 78)">
<title>opp</title>
<polygon fill="transparent" stroke="transparent" points="-4,4 -4,-78 304,-78 304,4 -4,4"/>
<!-- Ieee8021aeTagEpdHeaderChecker -->
<g id="node1" class="node">
<title>Ieee8021aeTagEpdHeaderChecker</title>
<g id="a_node1"><a xlink:href="inet.linklayer.ieee8021ae.Ieee8021aeTagEpdHeaderChecker.html" xlink:title="Simple Module Ieee8021aeTagEpdHeaderChecker" target="_parent">
<polygon fill="#fff700" stroke="black" points="218.5,-19 36.5,-19 36.5,0 218.5,0 218.5,-19"/>
<text text-anchor="middle" x="127.5" y="-7" font-family="Helvetica,sans-Serif" font-size="10.00">Ieee8021aeTagEpdHeaderChecker</text>
</a>
</g>
</g>
<!-- PacketFilterBase -->
<g id="node2" class="node">
<title>PacketFilterBase</title>
<g id="a_node2"><a xlink:href="inet.queueing.base.PacketFilterBase.html" xlink:title="Simple Module PacketFilterBase" target="_parent">
<polygon fill="#fffcaf" stroke="black" points="97,-74 0,-74 0,-55 97,-55 97,-74"/>
<text text-anchor="middle" x="48.5" y="-62" font-family="Helvetica,sans-Serif" font-size="10.00">PacketFilterBase</text>
</a>
</g>
</g>
<!-- PacketFilterBase&#45;&gt;Ieee8021aeTagEpdHeaderChecker -->
<g id="edge1" class="edge">
<title>PacketFilterBase&#45;&gt;Ieee8021aeTagEpdHeaderChecker</title>
<path fill="none" stroke="black" d="M61.19,-54.98C75.85,-45.15 99.82,-29.07 114.58,-19.17"/>
</g>
<!-- IIeee8021aeTagEpdHeaderChecker -->
<g id="node3" class="node">
<title>IIeee8021aeTagEpdHeaderChecker</title>
<g id="a_node3"><a xlink:href="inet.linklayer.ieee8021ae.IIeee8021aeTagEpdHeaderChecker.html" xlink:title="Module Interface IIeee8021aeTagEpdHeaderChecker" target="_parent">
<polygon fill="#fffcaf" stroke="black" stroke-dasharray="5,2" points="300,-74 115,-74 115,-55 300,-55 300,-74"/>
<text text-anchor="middle" x="207.5" y="-62" font-family="Helvetica,sans-Serif" font-size="10.00">IIeee8021aeTagEpdHeaderChecker</text>
</a>
</g>
</g>
<!-- IIeee8021aeTagEpdHeaderChecker&#45;&gt;Ieee8021aeTagEpdHeaderChecker -->
<g id="edge2" class="edge">
<title>IIeee8021aeTagEpdHeaderChecker&#45;&gt;Ieee8021aeTagEpdHeaderChecker</title>
<path fill="none" stroke="black" stroke-dasharray="5,2" d="M194.65,-54.98C179.81,-45.15 155.53,-29.07 140.59,-19.17"/>
</g>
</g>
</svg>
