<?xml version="1.0" encoding="UTF-8" standalone="no"?>
<!DOCTYPE svg PUBLIC "-//W3C//DTD SVG 1.1//EN"
 "http://www.w3.org/Graphics/SVG/1.1/DTD/svg11.dtd">
<!-- Generated by graphviz version 2.43.0 (0)
 -->
<!-- Title: opp Pages: 1 -->
<svg width="782pt" height="82pt"
 viewBox="0.00 0.00 781.50 82.00" xmlns="http://www.w3.org/2000/svg" xmlns:xlink="http://www.w3.org/1999/xlink">
<g id="graph0" class="graph" transform="scale(1 1) rotate(0) translate(4 78)">
<title>opp</title>
<polygon fill="transparent" stroke="transparent" points="-4,4 -4,-78 777.5,-78 777.5,4 -4,4"/>
<!-- BgpNetwork -->
<g id="node1" class="node">
<title>BgpNetwork</title>
<g id="a_node1"><a xlink:href="inet.examples.bgpv4.Bgp3Routers.BgpNetwork.html" xlink:title="Network BgpNetwork" target="_parent">
<polygon fill="#9090ff" stroke="black" points="391,-74 314,-74 314,-55 391,-55 391,-74"/>
<text text-anchor="middle" x="352.5" y="-62" font-family="Helvetica,sans-Serif" font-size="10.00">BgpNetwork</text>
</a>
</g>
</g>
<!-- OspfRouter -->
<g id="node2" class="node">
<title>OspfRouter</title>
<g id="a_node2"><a xlink:href="inet.node.ospfv2.OspfRouter.html" xlink:title="Compound Module OspfRouter" target="_parent">
<polygon fill="#fffcaf" stroke="black" points="71,-19 0,-19 0,0 71,0 71,-19"/>
<text text-anchor="middle" x="35.5" y="-7" font-family="Helvetica,sans-Serif" font-size="10.00">OspfRouter</text>
</a>
</g>
</g>
<!-- BgpNetwork&#45;&gt;OspfRouter -->
<g id="edge1" class="edge">
<title>BgpNetwork&#45;&gt;OspfRouter</title>
<path fill="none" stroke="black" d="M313.71,-57.46C262.81,-49.47 170.42,-34.73 81.35,-19.11"/>
<polygon fill="black" stroke="black" points="81.8,-15.64 71.35,-17.35 80.59,-22.53 81.8,-15.64"/>
</g>
<!-- BgpRouter -->
<g id="node3" class="node">
<title>BgpRouter</title>
<g id="a_node3"><a xlink:href="inet.node.bgp.BgpRouter.html" xlink:title="Compound Module BgpRouter" target="_parent">
<polygon fill="#fffcaf" stroke="black" points="157.5,-19 89.5,-19 89.5,0 157.5,0 157.5,-19"/>
<text text-anchor="middle" x="123.5" y="-7" font-family="Helvetica,sans-Serif" font-size="10.00">BgpRouter</text>
</a>
</g>
</g>
<!-- BgpNetwork&#45;&gt;BgpRouter -->
<g id="edge2" class="edge">
<title>BgpNetwork&#45;&gt;BgpRouter</title>
<path fill="none" stroke="black" d="M315.71,-54.98C275.33,-45.64 210.53,-30.64 167.49,-20.68"/>
<polygon fill="black" stroke="black" points="168.12,-17.23 157.58,-18.39 166.54,-24.05 168.12,-17.23"/>
</g>
<!-- StandardHost -->
<g id="node4" class="node">
<title>StandardHost</title>
<g id="a_node4"><a xlink:href="inet.node.inet.StandardHost.html" xlink:title="Compound Module StandardHost" target="_parent">
<polygon fill="#fffcaf" stroke="black" points="259,-19 176,-19 176,0 259,0 259,-19"/>
<text text-anchor="middle" x="217.5" y="-7" font-family="Helvetica,sans-Serif" font-size="10.00">StandardHost</text>
</a>
</g>
</g>
<!-- BgpNetwork&#45;&gt;StandardHost -->
<g id="edge3" class="edge">
<title>BgpNetwork&#45;&gt;StandardHost</title>
<path fill="none" stroke="black" d="M330.81,-54.98C308.7,-46.3 274.18,-32.75 249.05,-22.88"/>
<polygon fill="black" stroke="black" points="250.17,-19.57 239.58,-19.17 247.61,-26.08 250.17,-19.57"/>
</g>
<!-- IntegratedCanvasVisualizer -->
<g id="node5" class="node">
<title>IntegratedCanvasVisualizer</title>
<g id="a_node5"><a xlink:href="inet.visualizer.canvas.integrated.IntegratedCanvasVisualizer.html" xlink:title="Compound Module IntegratedCanvasVisualizer" target="_parent">
<polygon fill="#fffcaf" stroke="black" points="428,-19 277,-19 277,0 428,0 428,-19"/>
<text text-anchor="middle" x="352.5" y="-7" font-family="Helvetica,sans-Serif" font-size="10.00">IntegratedCanvasVisualizer</text>
</a>
</g>
</g>
<!-- BgpNetwork&#45;&gt;IntegratedCanvasVisualizer -->
<g id="edge4" class="edge">
<title>BgpNetwork&#45;&gt;IntegratedCanvasVisualizer</title>
<path fill="none" stroke="black" d="M352.5,-54.75C352.5,-47.8 352.5,-37.85 352.5,-29.13"/>
<polygon fill="black" stroke="black" points="356,-29.09 352.5,-19.09 349,-29.09 356,-29.09"/>
</g>
<!-- Ipv4NetworkConfigurator -->
<g id="node6" class="node">
<title>Ipv4NetworkConfigurator</title>
<g id="a_node6"><a xlink:href="inet.networklayer.configurator.ipv4.Ipv4NetworkConfigurator.html" xlink:title="Simple Module Ipv4NetworkConfigurator" target="_parent">
<polygon fill="#fffcaf" stroke="black" points="585,-19 446,-19 446,0 585,0 585,-19"/>
<text text-anchor="middle" x="515.5" y="-7" font-family="Helvetica,sans-Serif" font-size="10.00">Ipv4NetworkConfigurator</text>
</a>
</g>
</g>
<!-- BgpNetwork&#45;&gt;Ipv4NetworkConfigurator -->
<g id="edge5" class="edge">
<title>BgpNetwork&#45;&gt;Ipv4NetworkConfigurator</title>
<path fill="none" stroke="black" d="M378.69,-54.98C405.94,-46.13 448.8,-32.19 479.28,-22.28"/>
<polygon fill="black" stroke="black" points="480.68,-25.5 489.11,-19.08 478.51,-18.85 480.68,-25.5"/>
</g>
<!-- EthernetSwitch -->
<g id="node7" class="node">
<title>EthernetSwitch</title>
<g id="a_node7"><a xlink:href="inet.node.ethernet.EthernetSwitch.html" xlink:title="Compound Module EthernetSwitch" target="_parent">
<polygon fill="#fffcaf" stroke="black" points="693.5,-19 603.5,-19 603.5,0 693.5,0 693.5,-19"/>
<text text-anchor="middle" x="648.5" y="-7" font-family="Helvetica,sans-Serif" font-size="10.00">EthernetSwitch</text>
</a>
</g>
</g>
<!-- BgpNetwork&#45;&gt;EthernetSwitch -->
<g id="edge6" class="edge">
<title>BgpNetwork&#45;&gt;EthernetSwitch</title>
<path fill="none" stroke="black" d="M391.2,-56.57C442.9,-47.31 534.8,-30.86 593.63,-20.32"/>
<polygon fill="black" stroke="black" points="594.27,-23.77 603.5,-18.56 593.04,-16.88 594.27,-23.77"/>
</g>
<!-- LINK_100 -->
<g id="node8" class="node">
<title>LINK_100</title>
<g id="a_node8"><a xlink:href="inet.examples.bgpv4.Bgp3Routers.BgpNetwork.LINK_100.html" xlink:title="Channel LINK_100" target="_parent">
<polygon fill="#d0ffd0" stroke="black" points="773.5,-19 711.5,-19 711.5,0 773.5,0 773.5,-19"/>
<text text-anchor="middle" x="742.5" y="-7" font-family="Helvetica,sans-Serif" font-size="10.00">LINK_100</text>
</a>
</g>
</g>
<!-- BgpNetwork&#45;&gt;LINK_100 -->
<g id="edge7" class="edge">
<title>BgpNetwork&#45;&gt;LINK_100</title>
<path fill="none" stroke="black" d="M391.24,-59.64C454.18,-53.13 582.74,-38.88 701.14,-19.11"/>
<polygon fill="black" stroke="black" points="701.83,-22.54 711.1,-17.43 700.66,-15.64 701.83,-22.54"/>
</g>
</g>
</svg>
