<?xml version="1.0" encoding="UTF-8" standalone="no"?>
<!DOCTYPE svg PUBLIC "-//W3C//DTD SVG 1.1//EN"
 "http://www.w3.org/Graphics/SVG/1.1/DTD/svg11.dtd">
<!-- Generated by graphviz version 2.43.0 (0)
 -->
<!-- Title: opp Pages: 1 -->
<svg width="294pt" height="82pt"
 viewBox="0.00 0.00 294.00 82.00" xmlns="http://www.w3.org/2000/svg" xmlns:xlink="http://www.w3.org/1999/xlink">
<g id="graph0" class="graph" transform="scale(1 1) rotate(0) translate(4 78)">
<title>opp</title>
<polygon fill="transparent" stroke="transparent" points="-4,4 -4,-78 290,-78 290,4 -4,4"/>
<!-- IIeee8022LlcChecker -->
<g id="node1" class="node">
<title>IIeee8022LlcChecker</title>
<g id="a_node1"><a xlink:href="inet.linklayer.ieee8022.IIeee8022LlcChecker.html" xlink:title="Module Interface IIeee8022LlcChecker" target="_parent">
<polygon fill="#fff700" stroke="black" stroke-dasharray="5,2" points="191.5,-74 74.5,-74 74.5,-55 191.5,-55 191.5,-74"/>
<text text-anchor="middle" x="133" y="-62" font-family="Helvetica,sans-Serif" font-size="10.00">IIeee8022LlcChecker</text>
</a>
</g>
</g>
<!-- Ieee8022LlcChecker -->
<g id="node2" class="node">
<title>Ieee8022LlcChecker</title>
<g id="a_node2"><a xlink:href="inet.linklayer.ieee8022.Ieee8022LlcChecker.html" xlink:title="Simple Module Ieee8022LlcChecker" target="_parent">
<polygon fill="#fffcaf" stroke="black" points="114,-19 0,-19 0,0 114,0 114,-19"/>
<text text-anchor="middle" x="57" y="-7" font-family="Helvetica,sans-Serif" font-size="10.00">Ieee8022LlcChecker</text>
</a>
</g>
</g>
<!-- IIeee8022LlcChecker&#45;&gt;Ieee8022LlcChecker -->
<g id="edge1" class="edge">
<title>IIeee8022LlcChecker&#45;&gt;Ieee8022LlcChecker</title>
<path fill="none" stroke="black" stroke-dasharray="5,2" d="M120.79,-54.98C106.69,-45.15 83.62,-29.07 69.43,-19.17"/>
</g>
<!-- OmittedIeee8022LlcChecker -->
<g id="node3" class="node">
<title>OmittedIeee8022LlcChecker</title>
<g id="a_node3"><a xlink:href="inet.linklayer.ieee8022.OmittedIeee8022LlcChecker.html" xlink:title="Compound Module OmittedIeee8022LlcChecker" target="_parent">
<polygon fill="#fffcaf" stroke="black" points="286,-19 132,-19 132,0 286,0 286,-19"/>
<text text-anchor="middle" x="209" y="-7" font-family="Helvetica,sans-Serif" font-size="10.00">OmittedIeee8022LlcChecker</text>
</a>
</g>
</g>
<!-- IIeee8022LlcChecker&#45;&gt;OmittedIeee8022LlcChecker -->
<g id="edge2" class="edge">
<title>IIeee8022LlcChecker&#45;&gt;OmittedIeee8022LlcChecker</title>
<path fill="none" stroke="black" stroke-dasharray="5,2" d="M145.21,-54.98C159.31,-45.15 182.38,-29.07 196.57,-19.17"/>
</g>
</g>
</svg>
