<?xml version="1.0" encoding="UTF-8" standalone="no"?>
<!DOCTYPE svg PUBLIC "-//W3C//DTD SVG 1.1//EN"
 "http://www.w3.org/Graphics/SVG/1.1/DTD/svg11.dtd">
<!-- Generated by graphviz version 2.43.0 (0)
 -->
<!-- Title: opp Pages: 1 -->
<svg width="536pt" height="137pt"
 viewBox="0.00 0.00 535.50 137.00" xmlns="http://www.w3.org/2000/svg" xmlns:xlink="http://www.w3.org/1999/xlink">
<g id="graph0" class="graph" transform="scale(1 1) rotate(0) translate(4 133)">
<title>opp</title>
<polygon fill="transparent" stroke="transparent" points="-4,4 -4,-133 531.5,-133 531.5,4 -4,4"/>
<!-- ServerHost7 -->
<g id="node1" class="node">
<title>ServerHost7</title>
<g id="a_node1"><a xlink:href="inet.tutorials.protocol.ServerHost7.html" xlink:title="Compound Module ServerHost7" target="_parent">
<polygon fill="#fff700" stroke="black" points="323,-74 246,-74 246,-55 323,-55 323,-74"/>
<text text-anchor="middle" x="284.5" y="-62" font-family="Helvetica,sans-Serif" font-size="10.00">ServerHost7</text>
</a>
</g>
</g>
<!-- FcsHeaderChecker -->
<g id="node2" class="node">
<title>FcsHeaderChecker</title>
<g id="a_node2"><a xlink:href="inet.protocolelement.checksum.FcsHeaderChecker.html" xlink:title="Simple Module FcsHeaderChecker" target="_parent">
<polygon fill="#fffcaf" stroke="black" points="107,-19 0,-19 0,0 107,0 107,-19"/>
<text text-anchor="middle" x="53.5" y="-7" font-family="Helvetica,sans-Serif" font-size="10.00">FcsHeaderChecker</text>
</a>
</g>
</g>
<!-- ServerHost7&#45;&gt;FcsHeaderChecker -->
<g id="edge1" class="edge">
<title>ServerHost7&#45;&gt;FcsHeaderChecker</title>
<path fill="none" stroke="black" d="M247.39,-54.98C207.51,-45.84 144.04,-31.27 100.66,-21.32"/>
<polygon fill="black" stroke="black" points="101.43,-17.91 90.91,-19.08 99.87,-24.73 101.43,-17.91"/>
</g>
<!-- PassivePacketSink -->
<g id="node3" class="node">
<title>PassivePacketSink</title>
<g id="a_node3"><a xlink:href="inet.queueing.sink.PassivePacketSink.html" xlink:title="Simple Module PassivePacketSink" target="_parent">
<polygon fill="#fffcaf" stroke="black" points="231.5,-19 125.5,-19 125.5,0 231.5,0 231.5,-19"/>
<text text-anchor="middle" x="178.5" y="-7" font-family="Helvetica,sans-Serif" font-size="10.00">PassivePacketSink</text>
</a>
</g>
</g>
<!-- ServerHost7&#45;&gt;PassivePacketSink -->
<g id="edge2" class="edge">
<title>ServerHost7&#45;&gt;PassivePacketSink</title>
<path fill="none" stroke="black" d="M267.47,-54.98C250.57,-46.54 224.44,-33.47 204.86,-23.68"/>
<polygon fill="black" stroke="black" points="206.35,-20.51 195.84,-19.17 203.22,-26.77 206.35,-20.51"/>
</g>
<!-- Reordering -->
<g id="node4" class="node">
<title>Reordering</title>
<g id="a_node4"><a xlink:href="inet.protocolelement.ordering.Reordering.html" xlink:title="Simple Module Reordering" target="_parent">
<polygon fill="#fffcaf" stroke="black" points="319.5,-19 249.5,-19 249.5,0 319.5,0 319.5,-19"/>
<text text-anchor="middle" x="284.5" y="-7" font-family="Helvetica,sans-Serif" font-size="10.00">Reordering</text>
</a>
</g>
</g>
<!-- ServerHost7&#45;&gt;Reordering -->
<g id="edge3" class="edge">
<title>ServerHost7&#45;&gt;Reordering</title>
<path fill="none" stroke="black" d="M284.5,-54.75C284.5,-47.8 284.5,-37.85 284.5,-29.13"/>
<polygon fill="black" stroke="black" points="288,-29.09 284.5,-19.09 281,-29.09 288,-29.09"/>
</g>
<!-- PacketReceiver -->
<g id="node5" class="node">
<title>PacketReceiver</title>
<g id="a_node5"><a xlink:href="inet.protocolelement.transceiver.PacketReceiver.html" xlink:title="Simple Module PacketReceiver" target="_parent">
<polygon fill="#fffcaf" stroke="black" points="429,-19 338,-19 338,0 429,0 429,-19"/>
<text text-anchor="middle" x="383.5" y="-7" font-family="Helvetica,sans-Serif" font-size="10.00">PacketReceiver</text>
</a>
</g>
</g>
<!-- ServerHost7&#45;&gt;PacketReceiver -->
<g id="edge4" class="edge">
<title>ServerHost7&#45;&gt;PacketReceiver</title>
<path fill="none" stroke="black" d="M300.41,-54.98C316.05,-46.61 340.16,-33.7 358.38,-23.95"/>
<polygon fill="black" stroke="black" points="360.14,-26.98 367.3,-19.17 356.84,-20.8 360.14,-26.98"/>
</g>
<!-- IdealChannel -->
<g id="node6" class="node">
<title>IdealChannel</title>
<g id="a_node6"><a xlink:href="ned.IdealChannel.html" xlink:title="Channel IdealChannel" target="_parent">
<polygon fill="#d0ffd0" stroke="black" points="527.5,-19 447.5,-19 447.5,0 527.5,0 527.5,-19"/>
<text text-anchor="middle" x="487.5" y="-7" font-family="Helvetica,sans-Serif" font-size="10.00">IdealChannel</text>
</a>
</g>
</g>
<!-- ServerHost7&#45;&gt;IdealChannel -->
<g id="edge5" class="edge">
<title>ServerHost7&#45;&gt;IdealChannel</title>
<path fill="none" stroke="black" d="M317.12,-54.98C351.79,-45.93 406.76,-31.58 444.85,-21.64"/>
<polygon fill="black" stroke="black" points="445.84,-24.99 454.63,-19.08 444.07,-18.22 445.84,-24.99"/>
</g>
<!-- Network7 -->
<g id="node7" class="node">
<title>Network7</title>
<g id="a_node7"><a xlink:href="inet.tutorials.protocol.Network7.html" xlink:title="Network Network7" target="_parent">
<polygon fill="#d0d0ff" stroke="black" points="316.5,-129 252.5,-129 252.5,-110 316.5,-110 316.5,-129"/>
<text text-anchor="middle" x="284.5" y="-117" font-family="Helvetica,sans-Serif" font-size="10.00">Network7</text>
</a>
</g>
</g>
<!-- Network7&#45;&gt;ServerHost7 -->
<g id="edge6" class="edge">
<title>Network7&#45;&gt;ServerHost7</title>
<path fill="none" stroke="black" d="M284.5,-109.75C284.5,-102.8 284.5,-92.85 284.5,-84.13"/>
<polygon fill="black" stroke="black" points="288,-84.09 284.5,-74.09 281,-84.09 288,-84.09"/>
</g>
</g>
</svg>
