<?xml version="1.0" encoding="UTF-8" standalone="no"?>
<!DOCTYPE svg PUBLIC "-//W3C//DTD SVG 1.1//EN"
 "http://www.w3.org/Graphics/SVG/1.1/DTD/svg11.dtd">
<!-- Generated by graphviz version 2.43.0 (0)
 -->
<!-- Title: opp Pages: 1 -->
<svg width="429pt" height="82pt"
 viewBox="0.00 0.00 429.00 82.00" xmlns="http://www.w3.org/2000/svg" xmlns:xlink="http://www.w3.org/1999/xlink">
<g id="graph0" class="graph" transform="scale(1 1) rotate(0) translate(4 78)">
<title>opp</title>
<polygon fill="transparent" stroke="transparent" points="-4,4 -4,-78 425,-78 425,4 -4,4"/>
<!-- Throughput -->
<g id="node1" class="node">
<title>Throughput</title>
<g id="a_node1"><a xlink:href="inet.showcases.wireless.throughput.Throughput.html" xlink:title="Network Throughput" target="_parent">
<polygon fill="#9090ff" stroke="black" points="259.5,-74 187.5,-74 187.5,-55 259.5,-55 259.5,-74"/>
<text text-anchor="middle" x="223.5" y="-62" font-family="Helvetica,sans-Serif" font-size="10.00">Throughput</text>
</a>
</g>
</g>
<!-- Ieee80211ScalarRadioMedium -->
<g id="node2" class="node">
<title>Ieee80211ScalarRadioMedium</title>
<g id="a_node2"><a xlink:href="inet.physicallayer.wireless.ieee80211.packetlevel.Ieee80211ScalarRadioMedium.html" xlink:title="Compound Module Ieee80211ScalarRadioMedium" target="_parent">
<polygon fill="#fffcaf" stroke="black" points="165,-19 0,-19 0,0 165,0 165,-19"/>
<text text-anchor="middle" x="82.5" y="-7" font-family="Helvetica,sans-Serif" font-size="10.00">Ieee80211ScalarRadioMedium</text>
</a>
</g>
</g>
<!-- Throughput&#45;&gt;Ieee80211ScalarRadioMedium -->
<g id="edge1" class="edge">
<title>Throughput&#45;&gt;Ieee80211ScalarRadioMedium</title>
<path fill="none" stroke="black" d="M200.85,-54.98C177.65,-46.27 141.38,-32.63 115.1,-22.75"/>
<polygon fill="black" stroke="black" points="116.16,-19.41 105.57,-19.17 113.7,-25.97 116.16,-19.41"/>
</g>
<!-- WirelessHost -->
<g id="node3" class="node">
<title>WirelessHost</title>
<g id="a_node3"><a xlink:href="inet.node.inet.WirelessHost.html" xlink:title="Compound Module WirelessHost" target="_parent">
<polygon fill="#fffcaf" stroke="black" points="264,-19 183,-19 183,0 264,0 264,-19"/>
<text text-anchor="middle" x="223.5" y="-7" font-family="Helvetica,sans-Serif" font-size="10.00">WirelessHost</text>
</a>
</g>
</g>
<!-- Throughput&#45;&gt;WirelessHost -->
<g id="edge2" class="edge">
<title>Throughput&#45;&gt;WirelessHost</title>
<path fill="none" stroke="black" d="M223.5,-54.75C223.5,-47.8 223.5,-37.85 223.5,-29.13"/>
<polygon fill="black" stroke="black" points="227,-29.09 223.5,-19.09 220,-29.09 227,-29.09"/>
</g>
<!-- Ipv4NetworkConfigurator -->
<g id="node4" class="node">
<title>Ipv4NetworkConfigurator</title>
<g id="a_node4"><a xlink:href="inet.networklayer.configurator.ipv4.Ipv4NetworkConfigurator.html" xlink:title="Simple Module Ipv4NetworkConfigurator" target="_parent">
<polygon fill="#fffcaf" stroke="black" points="421,-19 282,-19 282,0 421,0 421,-19"/>
<text text-anchor="middle" x="351.5" y="-7" font-family="Helvetica,sans-Serif" font-size="10.00">Ipv4NetworkConfigurator</text>
</a>
</g>
</g>
<!-- Throughput&#45;&gt;Ipv4NetworkConfigurator -->
<g id="edge3" class="edge">
<title>Throughput&#45;&gt;Ipv4NetworkConfigurator</title>
<path fill="none" stroke="black" d="M244.07,-54.98C264.93,-46.34 297.47,-32.87 321.27,-23.02"/>
<polygon fill="black" stroke="black" points="322.66,-26.23 330.56,-19.17 319.98,-19.76 322.66,-26.23"/>
</g>
</g>
</svg>
