<?xml version="1.0" encoding="UTF-8" standalone="no"?>
<!DOCTYPE svg PUBLIC "-//W3C//DTD SVG 1.1//EN"
 "http://www.w3.org/Graphics/SVG/1.1/DTD/svg11.dtd">
<!-- Generated by graphviz version 2.43.0 (0)
 -->
<!-- Title: opp Pages: 1 -->
<svg width="659pt" height="82pt"
 viewBox="0.00 0.00 659.00 82.00" xmlns="http://www.w3.org/2000/svg" xmlns:xlink="http://www.w3.org/1999/xlink">
<g id="graph0" class="graph" transform="scale(1 1) rotate(0) translate(4 78)">
<title>opp</title>
<polygon fill="transparent" stroke="transparent" points="-4,4 -4,-78 655,-78 655,4 -4,4"/>
<!-- HandoverNetwork -->
<g id="node1" class="node">
<title>HandoverNetwork</title>
<g id="a_node1"><a xlink:href="inet.examples.wireless.handover.HandoverNetwork.html" xlink:title="Network HandoverNetwork" target="_parent">
<polygon fill="#9090ff" stroke="black" points="413,-74 308,-74 308,-55 413,-55 413,-74"/>
<text text-anchor="middle" x="360.5" y="-62" font-family="Helvetica,sans-Serif" font-size="10.00">HandoverNetwork</text>
</a>
</g>
</g>
<!-- Ieee80211ScalarRadioMedium -->
<g id="node2" class="node">
<title>Ieee80211ScalarRadioMedium</title>
<g id="a_node2"><a xlink:href="inet.physicallayer.wireless.ieee80211.packetlevel.Ieee80211ScalarRadioMedium.html" xlink:title="Compound Module Ieee80211ScalarRadioMedium" target="_parent">
<polygon fill="#fffcaf" stroke="black" points="165,-19 0,-19 0,0 165,0 165,-19"/>
<text text-anchor="middle" x="82.5" y="-7" font-family="Helvetica,sans-Serif" font-size="10.00">Ieee80211ScalarRadioMedium</text>
</a>
</g>
</g>
<!-- HandoverNetwork&#45;&gt;Ieee80211ScalarRadioMedium -->
<g id="edge1" class="edge">
<title>HandoverNetwork&#45;&gt;Ieee80211ScalarRadioMedium</title>
<path fill="none" stroke="black" d="M315.83,-54.98C267.34,-45.74 189.85,-30.97 137.61,-21.01"/>
<polygon fill="black" stroke="black" points="137.99,-17.52 127.52,-19.08 136.68,-24.39 137.99,-17.52"/>
</g>
<!-- IIntegratedVisualizer -->
<g id="node3" class="node">
<title>IIntegratedVisualizer</title>
<g id="a_node3"><a xlink:href="inet.visualizer.contract.IIntegratedVisualizer.html" xlink:title="Module Interface IIntegratedVisualizer" target="_parent">
<polygon fill="#fffcaf" stroke="black" stroke-dasharray="5,2" points="301.5,-19 183.5,-19 183.5,0 301.5,0 301.5,-19"/>
<text text-anchor="middle" x="242.5" y="-7" font-family="Helvetica,sans-Serif" font-size="10.00">IIntegratedVisualizer</text>
</a>
</g>
</g>
<!-- HandoverNetwork&#45;&gt;IIntegratedVisualizer -->
<g id="edge2" class="edge">
<title>HandoverNetwork&#45;&gt;IIntegratedVisualizer</title>
<path fill="none" stroke="black" d="M341.54,-54.98C322.47,-46.42 292.84,-33.11 270.95,-23.28"/>
<polygon fill="black" stroke="black" points="272.36,-20.07 261.8,-19.17 269.49,-26.46 272.36,-20.07"/>
</g>
<!-- WirelessHost -->
<g id="node4" class="node">
<title>WirelessHost</title>
<g id="a_node4"><a xlink:href="inet.node.inet.WirelessHost.html" xlink:title="Compound Module WirelessHost" target="_parent">
<polygon fill="#fffcaf" stroke="black" points="401,-19 320,-19 320,0 401,0 401,-19"/>
<text text-anchor="middle" x="360.5" y="-7" font-family="Helvetica,sans-Serif" font-size="10.00">WirelessHost</text>
</a>
</g>
</g>
<!-- HandoverNetwork&#45;&gt;WirelessHost -->
<g id="edge3" class="edge">
<title>HandoverNetwork&#45;&gt;WirelessHost</title>
<path fill="none" stroke="black" d="M360.5,-54.75C360.5,-47.8 360.5,-37.85 360.5,-29.13"/>
<polygon fill="black" stroke="black" points="364,-29.09 360.5,-19.09 357,-29.09 364,-29.09"/>
</g>
<!-- AccessPoint -->
<g id="node5" class="node">
<title>AccessPoint</title>
<g id="a_node5"><a xlink:href="inet.node.wireless.AccessPoint.html" xlink:title="Compound Module AccessPoint" target="_parent">
<polygon fill="#fffcaf" stroke="black" points="494,-19 419,-19 419,0 494,0 494,-19"/>
<text text-anchor="middle" x="456.5" y="-7" font-family="Helvetica,sans-Serif" font-size="10.00">AccessPoint</text>
</a>
</g>
</g>
<!-- HandoverNetwork&#45;&gt;AccessPoint -->
<g id="edge4" class="edge">
<title>HandoverNetwork&#45;&gt;AccessPoint</title>
<path fill="none" stroke="black" d="M375.92,-54.98C390.95,-46.69 414.04,-33.94 431.66,-24.22"/>
<polygon fill="black" stroke="black" points="433.73,-27.07 440.8,-19.17 430.35,-20.94 433.73,-27.07"/>
</g>
<!-- Ipv4NetworkConfigurator -->
<g id="node6" class="node">
<title>Ipv4NetworkConfigurator</title>
<g id="a_node6"><a xlink:href="inet.networklayer.configurator.ipv4.Ipv4NetworkConfigurator.html" xlink:title="Simple Module Ipv4NetworkConfigurator" target="_parent">
<polygon fill="#fffcaf" stroke="black" points="651,-19 512,-19 512,0 651,0 651,-19"/>
<text text-anchor="middle" x="581.5" y="-7" font-family="Helvetica,sans-Serif" font-size="10.00">Ipv4NetworkConfigurator</text>
</a>
</g>
</g>
<!-- HandoverNetwork&#45;&gt;Ipv4NetworkConfigurator -->
<g id="edge5" class="edge">
<title>HandoverNetwork&#45;&gt;Ipv4NetworkConfigurator</title>
<path fill="none" stroke="black" d="M396.01,-54.98C433.99,-45.87 494.37,-31.4 535.86,-21.45"/>
<polygon fill="black" stroke="black" points="536.81,-24.82 545.71,-19.08 535.17,-18.01 536.81,-24.82"/>
</g>
</g>
</svg>
