<?xml version="1.0" encoding="UTF-8" standalone="no"?>
<!DOCTYPE svg PUBLIC "-//W3C//DTD SVG 1.1//EN"
 "http://www.w3.org/Graphics/SVG/1.1/DTD/svg11.dtd">
<!-- Generated by graphviz version 2.43.0 (0)
 -->
<!-- Title: opp Pages: 1 -->
<svg width="1059pt" height="82pt"
 viewBox="0.00 0.00 1059.00 82.00" xmlns="http://www.w3.org/2000/svg" xmlns:xlink="http://www.w3.org/1999/xlink">
<g id="graph0" class="graph" transform="scale(1 1) rotate(0) translate(4 78)">
<title>opp</title>
<polygon fill="transparent" stroke="transparent" points="-4,4 -4,-78 1055,-78 1055,4 -4,4"/>
<!-- mIPv6Network -->
<g id="node1" class="node">
<title>mIPv6Network</title>
<g id="a_node1"><a xlink:href="inet.examples.mobileipv6.mIPv6Network.html" xlink:title="Network mIPv6Network" target="_parent">
<polygon fill="#9090ff" stroke="black" points="542,-74 453,-74 453,-55 542,-55 542,-74"/>
<text text-anchor="middle" x="497.5" y="-62" font-family="Helvetica,sans-Serif" font-size="10.00">mIPv6Network</text>
</a>
</g>
</g>
<!-- Ieee80211ScalarRadioMedium -->
<g id="node2" class="node">
<title>Ieee80211ScalarRadioMedium</title>
<g id="a_node2"><a xlink:href="inet.physicallayer.wireless.ieee80211.packetlevel.Ieee80211ScalarRadioMedium.html" xlink:title="Compound Module Ieee80211ScalarRadioMedium" target="_parent">
<polygon fill="#fffcaf" stroke="black" points="165,-19 0,-19 0,0 165,0 165,-19"/>
<text text-anchor="middle" x="82.5" y="-7" font-family="Helvetica,sans-Serif" font-size="10.00">Ieee80211ScalarRadioMedium</text>
</a>
</g>
</g>
<!-- mIPv6Network&#45;&gt;Ieee80211ScalarRadioMedium -->
<g id="edge1" class="edge">
<title>mIPv6Network&#45;&gt;Ieee80211ScalarRadioMedium</title>
<path fill="none" stroke="black" d="M452.69,-57.78C382.43,-48.8 245.48,-31.31 159.29,-20.31"/>
<polygon fill="black" stroke="black" points="159.66,-16.83 149.3,-19.03 158.77,-23.77 159.66,-16.83"/>
</g>
<!-- HomeAgent6 -->
<g id="node3" class="node">
<title>HomeAgent6</title>
<g id="a_node3"><a xlink:href="inet.node.xmipv6.HomeAgent6.html" xlink:title="Compound Module HomeAgent6" target="_parent">
<polygon fill="#fffcaf" stroke="black" points="263.5,-19 183.5,-19 183.5,0 263.5,0 263.5,-19"/>
<text text-anchor="middle" x="223.5" y="-7" font-family="Helvetica,sans-Serif" font-size="10.00">HomeAgent6</text>
</a>
</g>
</g>
<!-- mIPv6Network&#45;&gt;HomeAgent6 -->
<g id="edge2" class="edge">
<title>mIPv6Network&#45;&gt;HomeAgent6</title>
<path fill="none" stroke="black" d="M453.48,-54.98C404.41,-45.49 325.21,-30.17 273.75,-20.22"/>
<polygon fill="black" stroke="black" points="274.32,-16.77 263.84,-18.3 273,-23.64 274.32,-16.77"/>
</g>
<!-- Router6 -->
<g id="node4" class="node">
<title>Router6</title>
<g id="a_node4"><a xlink:href="inet.node.ipv6.Router6.html" xlink:title="Compound Module Router6" target="_parent">
<polygon fill="#fffcaf" stroke="black" points="337,-19 282,-19 282,0 337,0 337,-19"/>
<text text-anchor="middle" x="309.5" y="-7" font-family="Helvetica,sans-Serif" font-size="10.00">Router6</text>
</a>
</g>
</g>
<!-- mIPv6Network&#45;&gt;Router6 -->
<g id="edge3" class="edge">
<title>mIPv6Network&#45;&gt;Router6</title>
<path fill="none" stroke="black" d="M467.29,-54.98C434.61,-45.77 382.44,-31.06 347.11,-21.1"/>
<polygon fill="black" stroke="black" points="347.75,-17.65 337.18,-18.3 345.86,-24.39 347.75,-17.65"/>
</g>
<!-- WirelessHost6 -->
<g id="node5" class="node">
<title>WirelessHost6</title>
<g id="a_node5"><a xlink:href="inet.node.xmipv6.WirelessHost6.html" xlink:title="Compound Module WirelessHost6" target="_parent">
<polygon fill="#fffcaf" stroke="black" points="442,-19 355,-19 355,0 442,0 442,-19"/>
<text text-anchor="middle" x="398.5" y="-7" font-family="Helvetica,sans-Serif" font-size="10.00">WirelessHost6</text>
</a>
</g>
</g>
<!-- mIPv6Network&#45;&gt;WirelessHost6 -->
<g id="edge4" class="edge">
<title>mIPv6Network&#45;&gt;WirelessHost6</title>
<path fill="none" stroke="black" d="M481.59,-54.98C465.95,-46.61 441.84,-33.7 423.62,-23.95"/>
<polygon fill="black" stroke="black" points="425.16,-20.8 414.7,-19.17 421.86,-26.98 425.16,-20.8"/>
</g>
<!-- AccessPoint -->
<g id="node6" class="node">
<title>AccessPoint</title>
<g id="a_node6"><a xlink:href="inet.node.wireless.AccessPoint.html" xlink:title="Compound Module AccessPoint" target="_parent">
<polygon fill="#fffcaf" stroke="black" points="535,-19 460,-19 460,0 535,0 535,-19"/>
<text text-anchor="middle" x="497.5" y="-7" font-family="Helvetica,sans-Serif" font-size="10.00">AccessPoint</text>
</a>
</g>
</g>
<!-- mIPv6Network&#45;&gt;AccessPoint -->
<g id="edge5" class="edge">
<title>mIPv6Network&#45;&gt;AccessPoint</title>
<path fill="none" stroke="black" d="M497.5,-54.75C497.5,-47.8 497.5,-37.85 497.5,-29.13"/>
<polygon fill="black" stroke="black" points="501,-29.09 497.5,-19.09 494,-29.09 501,-29.09"/>
</g>
<!-- ethernetline -->
<g id="node7" class="node">
<title>ethernetline</title>
<g id="a_node7"><a xlink:href="inet.examples.mobileipv6.ethernetline.html" xlink:title="Channel ethernetline" target="_parent">
<polygon fill="#d0ffd0" stroke="black" points="629.5,-19 553.5,-19 553.5,0 629.5,0 629.5,-19"/>
<text text-anchor="middle" x="591.5" y="-7" font-family="Helvetica,sans-Serif" font-size="10.00">ethernetline</text>
</a>
</g>
</g>
<!-- mIPv6Network&#45;&gt;ethernetline -->
<g id="edge6" class="edge">
<title>mIPv6Network&#45;&gt;ethernetline</title>
<path fill="none" stroke="black" d="M512.6,-54.98C527.32,-46.69 549.92,-33.94 567.17,-24.22"/>
<polygon fill="black" stroke="black" points="569.13,-27.13 576.12,-19.17 565.69,-21.03 569.13,-27.13"/>
</g>
<!-- Ipv6FlatNetworkConfigurator -->
<g id="node8" class="node">
<title>Ipv6FlatNetworkConfigurator</title>
<g id="a_node8"><a xlink:href="inet.networklayer.configurator.ipv6.Ipv6FlatNetworkConfigurator.html" xlink:title="Simple Module Ipv6FlatNetworkConfigurator" target="_parent">
<polygon fill="#fffcaf" stroke="black" points="805.5,-19 647.5,-19 647.5,0 805.5,0 805.5,-19"/>
<text text-anchor="middle" x="726.5" y="-7" font-family="Helvetica,sans-Serif" font-size="10.00">Ipv6FlatNetworkConfigurator</text>
</a>
</g>
</g>
<!-- mIPv6Network&#45;&gt;Ipv6FlatNetworkConfigurator -->
<g id="edge7" class="edge">
<title>mIPv6Network&#45;&gt;Ipv6FlatNetworkConfigurator</title>
<path fill="none" stroke="black" d="M534.29,-54.98C573.74,-45.86 636.48,-31.33 679.48,-21.38"/>
<polygon fill="black" stroke="black" points="680.47,-24.75 689.42,-19.08 678.89,-17.93 680.47,-24.75"/>
</g>
<!-- EthernetSwitch -->
<g id="node9" class="node">
<title>EthernetSwitch</title>
<g id="a_node9"><a xlink:href="inet.node.ethernet.EthernetSwitch.html" xlink:title="Compound Module EthernetSwitch" target="_parent">
<polygon fill="#fffcaf" stroke="black" points="913.5,-19 823.5,-19 823.5,0 913.5,0 913.5,-19"/>
<text text-anchor="middle" x="868.5" y="-7" font-family="Helvetica,sans-Serif" font-size="10.00">EthernetSwitch</text>
</a>
</g>
</g>
<!-- mIPv6Network&#45;&gt;EthernetSwitch -->
<g id="edge8" class="edge">
<title>mIPv6Network&#45;&gt;EthernetSwitch</title>
<path fill="none" stroke="black" d="M542.16,-57.47C601.64,-49.39 710.41,-34.42 813.47,-19.13"/>
<polygon fill="black" stroke="black" points="814.05,-22.58 823.43,-17.65 813.02,-15.66 814.05,-22.58"/>
</g>
<!-- CorrespondentNode6 -->
<g id="node10" class="node">
<title>CorrespondentNode6</title>
<g id="a_node10"><a xlink:href="inet.node.xmipv6.CorrespondentNode6.html" xlink:title="Compound Module CorrespondentNode6" target="_parent">
<polygon fill="#fffcaf" stroke="black" points="1051,-19 932,-19 932,0 1051,0 1051,-19"/>
<text text-anchor="middle" x="991.5" y="-7" font-family="Helvetica,sans-Serif" font-size="10.00">CorrespondentNode6</text>
</a>
</g>
</g>
<!-- mIPv6Network&#45;&gt;CorrespondentNode6 -->
<g id="edge9" class="edge">
<title>mIPv6Network&#45;&gt;CorrespondentNode6</title>
<path fill="none" stroke="black" d="M542.2,-59.09C617.94,-51.56 776.59,-35.53 921.69,-19.07"/>
<polygon fill="black" stroke="black" points="922.13,-22.55 931.67,-17.94 921.34,-15.59 922.13,-22.55"/>
</g>
</g>
</svg>
