<?xml version="1.0" encoding="UTF-8" standalone="no"?>
<!DOCTYPE svg PUBLIC "-//W3C//DTD SVG 1.1//EN"
 "http://www.w3.org/Graphics/SVG/1.1/DTD/svg11.dtd">
<!-- Generated by graphviz version 2.43.0 (0)
 -->
<!-- Title: opp Pages: 1 -->
<svg width="691pt" height="82pt"
 viewBox="0.00 0.00 691.00 82.00" xmlns="http://www.w3.org/2000/svg" xmlns:xlink="http://www.w3.org/1999/xlink">
<g id="graph0" class="graph" transform="scale(1 1) rotate(0) translate(4 78)">
<title>opp</title>
<polygon fill="transparent" stroke="transparent" points="-4,4 -4,-78 687,-78 687,4 -4,4"/>
<!-- ObstacleTest -->
<g id="node1" class="node">
<title>ObstacleTest</title>
<g id="a_node1"><a xlink:href="inet.examples.wireless.obstacle.ObstacleTest.html" xlink:title="Network ObstacleTest" target="_parent">
<polygon fill="#9090ff" stroke="black" points="429,-74 350,-74 350,-55 429,-55 429,-74"/>
<text text-anchor="middle" x="389.5" y="-62" font-family="Helvetica,sans-Serif" font-size="10.00">ObstacleTest</text>
</a>
</g>
</g>
<!-- Ieee80211ScalarRadioMedium -->
<g id="node2" class="node">
<title>Ieee80211ScalarRadioMedium</title>
<g id="a_node2"><a xlink:href="inet.physicallayer.wireless.ieee80211.packetlevel.Ieee80211ScalarRadioMedium.html" xlink:title="Compound Module Ieee80211ScalarRadioMedium" target="_parent">
<polygon fill="#fffcaf" stroke="black" points="165,-19 0,-19 0,0 165,0 165,-19"/>
<text text-anchor="middle" x="82.5" y="-7" font-family="Helvetica,sans-Serif" font-size="10.00">Ieee80211ScalarRadioMedium</text>
</a>
</g>
</g>
<!-- ObstacleTest&#45;&gt;Ieee80211ScalarRadioMedium -->
<g id="edge1" class="edge">
<title>ObstacleTest&#45;&gt;Ieee80211ScalarRadioMedium</title>
<path fill="none" stroke="black" d="M349.99,-56.68C297.15,-47.56 203,-31.3 141.67,-20.71"/>
<polygon fill="black" stroke="black" points="142.19,-17.25 131.74,-19 141,-24.15 142.19,-17.25"/>
</g>
<!-- IIntegratedVisualizer -->
<g id="node3" class="node">
<title>IIntegratedVisualizer</title>
<g id="a_node3"><a xlink:href="inet.visualizer.contract.IIntegratedVisualizer.html" xlink:title="Module Interface IIntegratedVisualizer" target="_parent">
<polygon fill="#fffcaf" stroke="black" stroke-dasharray="5,2" points="301.5,-19 183.5,-19 183.5,0 301.5,0 301.5,-19"/>
<text text-anchor="middle" x="242.5" y="-7" font-family="Helvetica,sans-Serif" font-size="10.00">IIntegratedVisualizer</text>
</a>
</g>
</g>
<!-- ObstacleTest&#45;&gt;IIntegratedVisualizer -->
<g id="edge2" class="edge">
<title>ObstacleTest&#45;&gt;IIntegratedVisualizer</title>
<path fill="none" stroke="black" d="M365.88,-54.98C341.6,-46.23 303.55,-32.51 276.13,-22.62"/>
<polygon fill="black" stroke="black" points="277.14,-19.27 266.55,-19.17 274.77,-25.85 277.14,-19.27"/>
</g>
<!-- Ipv4NetworkConfigurator -->
<g id="node4" class="node">
<title>Ipv4NetworkConfigurator</title>
<g id="a_node4"><a xlink:href="inet.networklayer.configurator.ipv4.Ipv4NetworkConfigurator.html" xlink:title="Simple Module Ipv4NetworkConfigurator" target="_parent">
<polygon fill="#fffcaf" stroke="black" points="459,-19 320,-19 320,0 459,0 459,-19"/>
<text text-anchor="middle" x="389.5" y="-7" font-family="Helvetica,sans-Serif" font-size="10.00">Ipv4NetworkConfigurator</text>
</a>
</g>
</g>
<!-- ObstacleTest&#45;&gt;Ipv4NetworkConfigurator -->
<g id="edge3" class="edge">
<title>ObstacleTest&#45;&gt;Ipv4NetworkConfigurator</title>
<path fill="none" stroke="black" d="M389.5,-54.75C389.5,-47.8 389.5,-37.85 389.5,-29.13"/>
<polygon fill="black" stroke="black" points="393,-29.09 389.5,-19.09 386,-29.09 393,-29.09"/>
</g>
<!-- PhysicalEnvironment -->
<g id="node5" class="node">
<title>PhysicalEnvironment</title>
<g id="a_node5"><a xlink:href="inet.environment.common.PhysicalEnvironment.html" xlink:title="Compound Module PhysicalEnvironment" target="_parent">
<polygon fill="#fffcaf" stroke="black" points="596,-19 477,-19 477,0 596,0 596,-19"/>
<text text-anchor="middle" x="536.5" y="-7" font-family="Helvetica,sans-Serif" font-size="10.00">PhysicalEnvironment</text>
</a>
</g>
</g>
<!-- ObstacleTest&#45;&gt;PhysicalEnvironment -->
<g id="edge4" class="edge">
<title>ObstacleTest&#45;&gt;PhysicalEnvironment</title>
<path fill="none" stroke="black" d="M413.12,-54.98C437.4,-46.23 475.45,-32.51 502.87,-22.62"/>
<polygon fill="black" stroke="black" points="504.23,-25.85 512.45,-19.17 501.86,-19.27 504.23,-25.85"/>
</g>
<!-- AdhocHost -->
<g id="node6" class="node">
<title>AdhocHost</title>
<g id="a_node6"><a xlink:href="inet.node.inet.AdhocHost.html" xlink:title="Compound Module AdhocHost" target="_parent">
<polygon fill="#fffcaf" stroke="black" points="683,-19 614,-19 614,0 683,0 683,-19"/>
<text text-anchor="middle" x="648.5" y="-7" font-family="Helvetica,sans-Serif" font-size="10.00">AdhocHost</text>
</a>
</g>
</g>
<!-- ObstacleTest&#45;&gt;AdhocHost -->
<g id="edge5" class="edge">
<title>ObstacleTest&#45;&gt;AdhocHost</title>
<path fill="none" stroke="black" d="M429.12,-55.39C476.22,-45.76 554.61,-29.71 603.82,-19.64"/>
<polygon fill="black" stroke="black" points="604.77,-23.02 613.86,-17.59 603.36,-16.16 604.77,-23.02"/>
</g>
</g>
</svg>
