<?xml version="1.0" encoding="UTF-8" standalone="no"?>
<!DOCTYPE svg PUBLIC "-//W3C//DTD SVG 1.1//EN"
 "http://www.w3.org/Graphics/SVG/1.1/DTD/svg11.dtd">
<!-- Generated by graphviz version 2.43.0 (0)
 -->
<!-- Title: opp Pages: 1 -->
<svg width="393pt" height="82pt"
 viewBox="0.00 0.00 392.50 82.00" xmlns="http://www.w3.org/2000/svg" xmlns:xlink="http://www.w3.org/1999/xlink">
<g id="graph0" class="graph" transform="scale(1 1) rotate(0) translate(4 78)">
<title>opp</title>
<polygon fill="transparent" stroke="transparent" points="-4,4 -4,-78 388.5,-78 388.5,4 -4,4"/>
<!-- UDPBurst -->
<g id="node1" class="node">
<title>UDPBurst</title>
<g id="a_node1"><a xlink:href="inet.examples.inet.udpburst.UDPBurst.html" xlink:title="Network UDPBurst" target="_parent">
<polygon fill="#9090ff" stroke="black" points="259,-74 196,-74 196,-55 259,-55 259,-74"/>
<text text-anchor="middle" x="227.5" y="-62" font-family="Helvetica,sans-Serif" font-size="10.00">UDPBurst</text>
</a>
</g>
</g>
<!-- StandardHost -->
<g id="node2" class="node">
<title>StandardHost</title>
<g id="a_node2"><a xlink:href="inet.node.inet.StandardHost.html" xlink:title="Compound Module StandardHost" target="_parent">
<polygon fill="#fffcaf" stroke="black" points="83,-19 0,-19 0,0 83,0 83,-19"/>
<text text-anchor="middle" x="41.5" y="-7" font-family="Helvetica,sans-Serif" font-size="10.00">StandardHost</text>
</a>
</g>
</g>
<!-- UDPBurst&#45;&gt;StandardHost -->
<g id="edge1" class="edge">
<title>UDPBurst&#45;&gt;StandardHost</title>
<path fill="none" stroke="black" d="M197.62,-54.98C166.12,-46.01 116.33,-31.82 81.47,-21.89"/>
<polygon fill="black" stroke="black" points="82.19,-18.46 71.62,-19.08 80.28,-25.19 82.19,-18.46"/>
</g>
<!-- Ipv4NetworkConfigurator -->
<g id="node3" class="node">
<title>Ipv4NetworkConfigurator</title>
<g id="a_node3"><a xlink:href="inet.networklayer.configurator.ipv4.Ipv4NetworkConfigurator.html" xlink:title="Simple Module Ipv4NetworkConfigurator" target="_parent">
<polygon fill="#fffcaf" stroke="black" points="240,-19 101,-19 101,0 240,0 240,-19"/>
<text text-anchor="middle" x="170.5" y="-7" font-family="Helvetica,sans-Serif" font-size="10.00">Ipv4NetworkConfigurator</text>
</a>
</g>
</g>
<!-- UDPBurst&#45;&gt;Ipv4NetworkConfigurator -->
<g id="edge2" class="edge">
<title>UDPBurst&#45;&gt;Ipv4NetworkConfigurator</title>
<path fill="none" stroke="black" d="M218.34,-54.98C210,-47.23 197.47,-35.58 187.32,-26.14"/>
<polygon fill="black" stroke="black" points="189.53,-23.42 179.82,-19.17 184.76,-28.54 189.53,-23.42"/>
</g>
<!-- C -->
<g id="node4" class="node">
<title>C</title>
<g id="a_node4"><a xlink:href="inet.examples.inet.udpburst.UDPBurst.C.html" xlink:title="Channel C" target="_parent">
<polygon fill="#d0ffd0" stroke="black" points="312.5,-19 258.5,-19 258.5,0 312.5,0 312.5,-19"/>
<text text-anchor="middle" x="285.5" y="-7" font-family="Helvetica,sans-Serif" font-size="10.00">C</text>
</a>
</g>
</g>
<!-- UDPBurst&#45;&gt;C -->
<g id="edge3" class="edge">
<title>UDPBurst&#45;&gt;C</title>
<path fill="none" stroke="black" d="M236.82,-54.98C245.31,-47.23 258.06,-35.58 268.38,-26.14"/>
<polygon fill="black" stroke="black" points="270.99,-28.5 276.01,-19.17 266.27,-23.33 270.99,-28.5"/>
</g>
<!-- Router -->
<g id="node5" class="node">
<title>Router</title>
<g id="a_node5"><a xlink:href="inet.node.inet.Router.html" xlink:title="Compound Module Router" target="_parent">
<polygon fill="#fffcaf" stroke="black" points="384.5,-19 330.5,-19 330.5,0 384.5,0 384.5,-19"/>
<text text-anchor="middle" x="357.5" y="-7" font-family="Helvetica,sans-Serif" font-size="10.00">Router</text>
</a>
</g>
</g>
<!-- UDPBurst&#45;&gt;Router -->
<g id="edge4" class="edge">
<title>UDPBurst&#45;&gt;Router</title>
<path fill="none" stroke="black" d="M248.39,-54.98C269.58,-46.34 302.63,-32.87 326.8,-23.02"/>
<polygon fill="black" stroke="black" points="328.29,-26.19 336.23,-19.17 325.65,-19.7 328.29,-26.19"/>
</g>
</g>
</svg>
