<?xml version="1.0" encoding="UTF-8" standalone="no"?>
<!DOCTYPE svg PUBLIC "-//W3C//DTD SVG 1.1//EN"
 "http://www.w3.org/Graphics/SVG/1.1/DTD/svg11.dtd">
<!-- Generated by graphviz version 2.43.0 (0)
 -->
<!-- Title: opp Pages: 1 -->
<svg width="178pt" height="137pt"
 viewBox="0.00 0.00 178.00 137.00" xmlns="http://www.w3.org/2000/svg" xmlns:xlink="http://www.w3.org/1999/xlink">
<g id="graph0" class="graph" transform="scale(1 1) rotate(0) translate(4 133)">
<title>opp</title>
<polygon fill="transparent" stroke="transparent" points="-4,4 -4,-133 174,-133 174,4 -4,4"/>
<!-- InterfaceTableVisualizerBase -->
<g id="node1" class="node">
<title>InterfaceTableVisualizerBase</title>
<g id="a_node1"><a xlink:href="inet.visualizer.base.InterfaceTableVisualizerBase.html" xlink:title="Simple Module InterfaceTableVisualizerBase" target="_parent">
<polygon fill="#fff700" stroke="black" points="164,-74 6,-74 6,-55 164,-55 164,-74"/>
<text text-anchor="middle" x="85" y="-62" font-family="Helvetica,sans-Serif" font-size="10.00">InterfaceTableVisualizerBase</text>
</a>
</g>
</g>
<!-- InterfaceTableCanvasVisualizer -->
<g id="node3" class="node">
<title>InterfaceTableCanvasVisualizer</title>
<g id="a_node3"><a xlink:href="inet.visualizer.canvas.linklayer.InterfaceTableCanvasVisualizer.html" xlink:title="Simple Module InterfaceTableCanvasVisualizer" target="_parent">
<polygon fill="#fffcaf" stroke="black" points="170,-19 0,-19 0,0 170,0 170,-19"/>
<text text-anchor="middle" x="85" y="-7" font-family="Helvetica,sans-Serif" font-size="10.00">InterfaceTableCanvasVisualizer</text>
</a>
</g>
</g>
<!-- InterfaceTableVisualizerBase&#45;&gt;InterfaceTableCanvasVisualizer -->
<g id="edge2" class="edge">
<title>InterfaceTableVisualizerBase&#45;&gt;InterfaceTableCanvasVisualizer</title>
<path fill="none" stroke="black" d="M85,-54.75C85,-44.87 85,-28.9 85,-19.09"/>
</g>
<!-- VisualizerBase -->
<g id="node2" class="node">
<title>VisualizerBase</title>
<g id="a_node2"><a xlink:href="inet.visualizer.base.VisualizerBase.html" xlink:title="Simple Module VisualizerBase" target="_parent">
<polygon fill="#fffcaf" stroke="black" points="129.5,-129 40.5,-129 40.5,-110 129.5,-110 129.5,-129"/>
<text text-anchor="middle" x="85" y="-117" font-family="Helvetica,sans-Serif" font-size="10.00">VisualizerBase</text>
</a>
</g>
</g>
<!-- VisualizerBase&#45;&gt;InterfaceTableVisualizerBase -->
<g id="edge1" class="edge">
<title>VisualizerBase&#45;&gt;InterfaceTableVisualizerBase</title>
<path fill="none" stroke="black" d="M85,-109.75C85,-99.87 85,-83.9 85,-74.09"/>
</g>
</g>
</svg>
