<?xml version="1.0" encoding="UTF-8" standalone="no"?>
<!DOCTYPE svg PUBLIC "-//W3C//DTD SVG 1.1//EN"
 "http://www.w3.org/Graphics/SVG/1.1/DTD/svg11.dtd">
<!-- Generated by graphviz version 2.43.0 (0)
 -->
<!-- Title: opp Pages: 1 -->
<svg width="431pt" height="82pt"
 viewBox="0.00 0.00 431.00 82.00" xmlns="http://www.w3.org/2000/svg" xmlns:xlink="http://www.w3.org/1999/xlink">
<g id="graph0" class="graph" transform="scale(1 1) rotate(0) translate(4 78)">
<title>opp</title>
<polygon fill="transparent" stroke="transparent" points="-4,4 -4,-78 427,-78 427,4 -4,4"/>
<!-- v3_mesh -->
<g id="node1" class="node">
<title>v3_mesh</title>
<g id="a_node1"><a xlink:href="inet.examples.ospfv3.v3_mesh.v3_mesh.html" xlink:title="Network v3_mesh" target="_parent">
<polygon fill="#9090ff" stroke="black" points="278,-74 217,-74 217,-55 278,-55 278,-74"/>
<text text-anchor="middle" x="247.5" y="-62" font-family="Helvetica,sans-Serif" font-size="10.00">v3_mesh</text>
</a>
</g>
</g>
<!-- Ipv4NetworkConfigurator -->
<g id="node2" class="node">
<title>Ipv4NetworkConfigurator</title>
<g id="a_node2"><a xlink:href="inet.networklayer.configurator.ipv4.Ipv4NetworkConfigurator.html" xlink:title="Simple Module Ipv4NetworkConfigurator" target="_parent">
<polygon fill="#fffcaf" stroke="black" points="139,-19 0,-19 0,0 139,0 139,-19"/>
<text text-anchor="middle" x="69.5" y="-7" font-family="Helvetica,sans-Serif" font-size="10.00">Ipv4NetworkConfigurator</text>
</a>
</g>
</g>
<!-- v3_mesh&#45;&gt;Ipv4NetworkConfigurator -->
<g id="edge1" class="edge">
<title>v3_mesh&#45;&gt;Ipv4NetworkConfigurator</title>
<path fill="none" stroke="black" d="M218.9,-54.98C188.89,-46.05 141.52,-31.94 108.18,-22.02"/>
<polygon fill="black" stroke="black" points="108.91,-18.58 98.32,-19.08 106.91,-25.29 108.91,-18.58"/>
</g>
<!-- EthernetSwitch -->
<g id="node3" class="node">
<title>EthernetSwitch</title>
<g id="a_node3"><a xlink:href="inet.node.ethernet.EthernetSwitch.html" xlink:title="Compound Module EthernetSwitch" target="_parent">
<polygon fill="#fffcaf" stroke="black" points="247.5,-19 157.5,-19 157.5,0 247.5,0 247.5,-19"/>
<text text-anchor="middle" x="202.5" y="-7" font-family="Helvetica,sans-Serif" font-size="10.00">EthernetSwitch</text>
</a>
</g>
</g>
<!-- v3_mesh&#45;&gt;EthernetSwitch -->
<g id="edge2" class="edge">
<title>v3_mesh&#45;&gt;EthernetSwitch</title>
<path fill="none" stroke="black" d="M240.07,-54.75C233.65,-47.18 224.19,-36.05 216.38,-26.84"/>
<polygon fill="black" stroke="black" points="218.93,-24.45 209.79,-19.09 213.6,-28.98 218.93,-24.45"/>
</g>
<!-- Channel -->
<g id="node4" class="node">
<title>Channel</title>
<g id="a_node4"><a xlink:href="inet.examples.ospfv3.v3_mesh.v3_mesh.Channel.html" xlink:title="Channel Channel" target="_parent">
<polygon fill="#d0ffd0" stroke="black" points="321.5,-19 265.5,-19 265.5,0 321.5,0 321.5,-19"/>
<text text-anchor="middle" x="293.5" y="-7" font-family="Helvetica,sans-Serif" font-size="10.00">Channel</text>
</a>
</g>
</g>
<!-- v3_mesh&#45;&gt;Channel -->
<g id="edge3" class="edge">
<title>v3_mesh&#45;&gt;Channel</title>
<path fill="none" stroke="black" d="M255.1,-54.75C261.66,-47.18 271.32,-36.05 279.31,-26.84"/>
<polygon fill="black" stroke="black" points="282.13,-28.94 286.05,-19.09 276.85,-24.35 282.13,-28.94"/>
</g>
<!-- Ospfv3Router -->
<g id="node5" class="node">
<title>Ospfv3Router</title>
<g id="a_node5"><a xlink:href="inet.node.ospfv3.Ospfv3Router.html" xlink:title="Compound Module Ospfv3Router" target="_parent">
<polygon fill="#fffcaf" stroke="black" points="423,-19 340,-19 340,0 423,0 423,-19"/>
<text text-anchor="middle" x="381.5" y="-7" font-family="Helvetica,sans-Serif" font-size="10.00">Ospfv3Router</text>
</a>
</g>
</g>
<!-- v3_mesh&#45;&gt;Ospfv3Router -->
<g id="edge4" class="edge">
<title>v3_mesh&#45;&gt;Ospfv3Router</title>
<path fill="none" stroke="black" d="M269.03,-54.98C290.97,-46.3 325.24,-32.75 350.19,-22.88"/>
<polygon fill="black" stroke="black" points="351.57,-26.1 359.58,-19.17 348.99,-19.59 351.57,-26.1"/>
</g>
</g>
</svg>
