<?xml version="1.0" encoding="UTF-8" standalone="no"?>
<!DOCTYPE svg PUBLIC "-//W3C//DTD SVG 1.1//EN"
 "http://www.w3.org/Graphics/SVG/1.1/DTD/svg11.dtd">
<!-- Generated by graphviz version 2.43.0 (0)
 -->
<!-- Title: opp Pages: 1 -->
<svg width="278pt" height="82pt"
 viewBox="0.00 0.00 278.00 82.00" xmlns="http://www.w3.org/2000/svg" xmlns:xlink="http://www.w3.org/1999/xlink">
<g id="graph0" class="graph" transform="scale(1 1) rotate(0) translate(4 78)">
<title>opp</title>
<polygon fill="transparent" stroke="transparent" points="-4,4 -4,-78 274,-78 274,4 -4,4"/>
<!-- IDataLinkVisualizer -->
<g id="node1" class="node">
<title>IDataLinkVisualizer</title>
<g id="a_node1"><a xlink:href="inet.visualizer.contract.IDataLinkVisualizer.html" xlink:title="Module Interface IDataLinkVisualizer" target="_parent">
<polygon fill="#fff700" stroke="black" stroke-dasharray="5,2" points="199.5,-74 88.5,-74 88.5,-55 199.5,-55 199.5,-74"/>
<text text-anchor="middle" x="144" y="-62" font-family="Helvetica,sans-Serif" font-size="10.00">IDataLinkVisualizer</text>
</a>
</g>
</g>
<!-- DataLinkCanvasVisualizer -->
<g id="node2" class="node">
<title>DataLinkCanvasVisualizer</title>
<g id="a_node2"><a xlink:href="inet.visualizer.canvas.linklayer.DataLinkCanvasVisualizer.html" xlink:title="Simple Module DataLinkCanvasVisualizer" target="_parent">
<polygon fill="#fffcaf" stroke="black" points="144,-19 0,-19 0,0 144,0 144,-19"/>
<text text-anchor="middle" x="72" y="-7" font-family="Helvetica,sans-Serif" font-size="10.00">DataLinkCanvasVisualizer</text>
</a>
</g>
</g>
<!-- IDataLinkVisualizer&#45;&gt;DataLinkCanvasVisualizer -->
<g id="edge1" class="edge">
<title>IDataLinkVisualizer&#45;&gt;DataLinkCanvasVisualizer</title>
<path fill="none" stroke="black" stroke-dasharray="5,2" d="M132.43,-54.98C119.08,-45.15 97.22,-29.07 83.78,-19.17"/>
</g>
<!-- DataLinkVisualizer -->
<g id="node3" class="node">
<title>DataLinkVisualizer</title>
<g id="a_node3"><a xlink:href="inet.visualizer.common.DataLinkVisualizer.html" xlink:title="Compound Module DataLinkVisualizer" target="_parent">
<polygon fill="#fffcaf" stroke="black" points="270,-19 162,-19 162,0 270,0 270,-19"/>
<text text-anchor="middle" x="216" y="-7" font-family="Helvetica,sans-Serif" font-size="10.00">DataLinkVisualizer</text>
</a>
</g>
</g>
<!-- IDataLinkVisualizer&#45;&gt;DataLinkVisualizer -->
<g id="edge2" class="edge">
<title>IDataLinkVisualizer&#45;&gt;DataLinkVisualizer</title>
<path fill="none" stroke="black" stroke-dasharray="5,2" d="M155.57,-54.98C168.92,-45.15 190.78,-29.07 204.22,-19.17"/>
</g>
</g>
</svg>
