<?xml version="1.0" encoding="UTF-8" standalone="no"?>
<!DOCTYPE svg PUBLIC "-//W3C//DTD SVG 1.1//EN"
 "http://www.w3.org/Graphics/SVG/1.1/DTD/svg11.dtd">
<!-- Generated by graphviz version 2.43.0 (0)
 -->
<!-- Title: opp Pages: 1 -->
<svg width="291pt" height="82pt"
 viewBox="0.00 0.00 290.50 82.00" xmlns="http://www.w3.org/2000/svg" xmlns:xlink="http://www.w3.org/1999/xlink">
<g id="graph0" class="graph" transform="scale(1 1) rotate(0) translate(4 78)">
<title>opp</title>
<polygon fill="transparent" stroke="transparent" points="-4,4 -4,-78 286.5,-78 286.5,4 -4,4"/>
<!-- QueueingPacketDelayer -->
<g id="node1" class="node">
<title>QueueingPacketDelayer</title>
<g id="a_node1"><a xlink:href="inet.queueing.common.QueueingPacketDelayer.html" xlink:title="Compound Module QueueingPacketDelayer" target="_parent">
<polygon fill="#fff700" stroke="black" points="209,-74 76,-74 76,-55 209,-55 209,-74"/>
<text text-anchor="middle" x="142.5" y="-62" font-family="Helvetica,sans-Serif" font-size="10.00">QueueingPacketDelayer</text>
</a>
</g>
</g>
<!-- IPacketServer -->
<g id="node2" class="node">
<title>IPacketServer</title>
<g id="a_node2"><a xlink:href="inet.queueing.contract.IPacketServer.html" xlink:title="Module Interface IPacketServer" target="_parent">
<polygon fill="#fffcaf" stroke="black" stroke-dasharray="5,2" points="83,-19 0,-19 0,0 83,0 83,-19"/>
<text text-anchor="middle" x="41.5" y="-7" font-family="Helvetica,sans-Serif" font-size="10.00">IPacketServer</text>
</a>
</g>
</g>
<!-- QueueingPacketDelayer&#45;&gt;IPacketServer -->
<g id="edge1" class="edge">
<title>QueueingPacketDelayer&#45;&gt;IPacketServer</title>
<path fill="none" stroke="black" d="M126.27,-54.98C110.32,-46.61 85.72,-33.7 67.12,-23.95"/>
<polygon fill="black" stroke="black" points="68.5,-20.72 58.02,-19.17 65.25,-26.92 68.5,-20.72"/>
</g>
<!-- IPacketQueue -->
<g id="node3" class="node">
<title>IPacketQueue</title>
<g id="a_node3"><a xlink:href="inet.queueing.contract.IPacketQueue.html" xlink:title="Module Interface IPacketQueue" target="_parent">
<polygon fill="#fffcaf" stroke="black" stroke-dasharray="5,2" points="184,-19 101,-19 101,0 184,0 184,-19"/>
<text text-anchor="middle" x="142.5" y="-7" font-family="Helvetica,sans-Serif" font-size="10.00">IPacketQueue</text>
</a>
</g>
</g>
<!-- QueueingPacketDelayer&#45;&gt;IPacketQueue -->
<g id="edge2" class="edge">
<title>QueueingPacketDelayer&#45;&gt;IPacketQueue</title>
<path fill="none" stroke="black" d="M142.5,-54.75C142.5,-47.8 142.5,-37.85 142.5,-29.13"/>
<polygon fill="black" stroke="black" points="146,-29.09 142.5,-19.09 139,-29.09 146,-29.09"/>
</g>
<!-- IdealChannel -->
<g id="node4" class="node">
<title>IdealChannel</title>
<g id="a_node4"><a xlink:href="ned.IdealChannel.html" xlink:title="Channel IdealChannel" target="_parent">
<polygon fill="#d0ffd0" stroke="black" points="282.5,-19 202.5,-19 202.5,0 282.5,0 282.5,-19"/>
<text text-anchor="middle" x="242.5" y="-7" font-family="Helvetica,sans-Serif" font-size="10.00">IdealChannel</text>
</a>
</g>
</g>
<!-- QueueingPacketDelayer&#45;&gt;IdealChannel -->
<g id="edge3" class="edge">
<title>QueueingPacketDelayer&#45;&gt;IdealChannel</title>
<path fill="none" stroke="black" d="M158.57,-54.98C174.36,-46.61 198.72,-33.7 217.13,-23.95"/>
<polygon fill="black" stroke="black" points="218.94,-26.95 226.14,-19.17 215.67,-20.76 218.94,-26.95"/>
</g>
</g>
</svg>
