<?xml version="1.0" encoding="UTF-8" standalone="no"?>
<!DOCTYPE svg PUBLIC "-//W3C//DTD SVG 1.1//EN"
 "http://www.w3.org/Graphics/SVG/1.1/DTD/svg11.dtd">
<!-- Generated by graphviz version 2.43.0 (0)
 -->
<!-- Title: opp Pages: 1 -->
<svg width="140pt" height="137pt"
 viewBox="0.00 0.00 140.00 137.00" xmlns="http://www.w3.org/2000/svg" xmlns:xlink="http://www.w3.org/1999/xlink">
<g id="graph0" class="graph" transform="scale(1 1) rotate(0) translate(4 133)">
<title>opp</title>
<polygon fill="transparent" stroke="transparent" points="-4,4 -4,-133 136,-133 136,4 -4,4"/>
<!-- QueueVisualizerBase -->
<g id="node1" class="node">
<title>QueueVisualizerBase</title>
<g id="a_node1"><a xlink:href="inet.visualizer.base.QueueVisualizerBase.html" xlink:title="Simple Module QueueVisualizerBase" target="_parent">
<polygon fill="#fff700" stroke="black" points="126,-74 6,-74 6,-55 126,-55 126,-74"/>
<text text-anchor="middle" x="66" y="-62" font-family="Helvetica,sans-Serif" font-size="10.00">QueueVisualizerBase</text>
</a>
</g>
</g>
<!-- QueueCanvasVisualizer -->
<g id="node3" class="node">
<title>QueueCanvasVisualizer</title>
<g id="a_node3"><a xlink:href="inet.visualizer.canvas.common.QueueCanvasVisualizer.html" xlink:title="Simple Module QueueCanvasVisualizer" target="_parent">
<polygon fill="#fffcaf" stroke="black" points="132,-19 0,-19 0,0 132,0 132,-19"/>
<text text-anchor="middle" x="66" y="-7" font-family="Helvetica,sans-Serif" font-size="10.00">QueueCanvasVisualizer</text>
</a>
</g>
</g>
<!-- QueueVisualizerBase&#45;&gt;QueueCanvasVisualizer -->
<g id="edge2" class="edge">
<title>QueueVisualizerBase&#45;&gt;QueueCanvasVisualizer</title>
<path fill="none" stroke="black" d="M66,-54.75C66,-44.87 66,-28.9 66,-19.09"/>
</g>
<!-- VisualizerBase -->
<g id="node2" class="node">
<title>VisualizerBase</title>
<g id="a_node2"><a xlink:href="inet.visualizer.base.VisualizerBase.html" xlink:title="Simple Module VisualizerBase" target="_parent">
<polygon fill="#fffcaf" stroke="black" points="110.5,-129 21.5,-129 21.5,-110 110.5,-110 110.5,-129"/>
<text text-anchor="middle" x="66" y="-117" font-family="Helvetica,sans-Serif" font-size="10.00">VisualizerBase</text>
</a>
</g>
</g>
<!-- VisualizerBase&#45;&gt;QueueVisualizerBase -->
<g id="edge1" class="edge">
<title>VisualizerBase&#45;&gt;QueueVisualizerBase</title>
<path fill="none" stroke="black" d="M66,-109.75C66,-99.87 66,-83.9 66,-74.09"/>
</g>
</g>
</svg>
