<?xml version="1.0" encoding="UTF-8" standalone="no"?>
<!DOCTYPE svg PUBLIC "-//W3C//DTD SVG 1.1//EN"
 "http://www.w3.org/Graphics/SVG/1.1/DTD/svg11.dtd">
<!-- Generated by graphviz version 2.43.0 (0)
 -->
<!-- Title: opp Pages: 1 -->
<svg width="502pt" height="137pt"
 viewBox="0.00 0.00 502.00 137.00" xmlns="http://www.w3.org/2000/svg" xmlns:xlink="http://www.w3.org/1999/xlink">
<g id="graph0" class="graph" transform="scale(1 1) rotate(0) translate(4 133)">
<title>opp</title>
<polygon fill="transparent" stroke="transparent" points="-4,4 -4,-133 498,-133 498,4 -4,4"/>
<!-- QueueFiller -->
<g id="node1" class="node">
<title>QueueFiller</title>
<g id="a_node1"><a xlink:href="inet.queueing.source.QueueFiller.html" xlink:title="Compound Module QueueFiller" target="_parent">
<polygon fill="#fff700" stroke="black" points="245.5,-74 173.5,-74 173.5,-55 245.5,-55 245.5,-74"/>
<text text-anchor="middle" x="209.5" y="-62" font-family="Helvetica,sans-Serif" font-size="10.00">QueueFiller</text>
</a>
</g>
</g>
<!-- IPacketServer -->
<g id="node2" class="node">
<title>IPacketServer</title>
<g id="a_node2"><a xlink:href="inet.queueing.contract.IPacketServer.html" xlink:title="Module Interface IPacketServer" target="_parent">
<polygon fill="#fffcaf" stroke="black" stroke-dasharray="5,2" points="83,-19 0,-19 0,0 83,0 83,-19"/>
<text text-anchor="middle" x="41.5" y="-7" font-family="Helvetica,sans-Serif" font-size="10.00">IPacketServer</text>
</a>
</g>
</g>
<!-- QueueFiller&#45;&gt;IPacketServer -->
<g id="edge1" class="edge">
<title>QueueFiller&#45;&gt;IPacketServer</title>
<path fill="none" stroke="black" d="M182.51,-54.98C154.3,-46.09 109.86,-32.07 78.42,-22.15"/>
<polygon fill="black" stroke="black" points="79.29,-18.75 68.7,-19.08 77.19,-25.43 79.29,-18.75"/>
</g>
<!-- IdealChannel -->
<g id="node3" class="node">
<title>IdealChannel</title>
<g id="a_node3"><a xlink:href="ned.IdealChannel.html" xlink:title="Channel IdealChannel" target="_parent">
<polygon fill="#d0ffd0" stroke="black" points="181.5,-19 101.5,-19 101.5,0 181.5,0 181.5,-19"/>
<text text-anchor="middle" x="141.5" y="-7" font-family="Helvetica,sans-Serif" font-size="10.00">IdealChannel</text>
</a>
</g>
</g>
<!-- QueueFiller&#45;&gt;IdealChannel -->
<g id="edge2" class="edge">
<title>QueueFiller&#45;&gt;IdealChannel</title>
<path fill="none" stroke="black" d="M198.57,-54.98C188.42,-47.07 173.08,-35.11 160.85,-25.58"/>
<polygon fill="black" stroke="black" points="162.66,-22.56 152.62,-19.17 158.36,-28.08 162.66,-22.56"/>
</g>
<!-- QueueBasedTokenGenerator -->
<g id="node4" class="node">
<title>QueueBasedTokenGenerator</title>
<g id="a_node4"><a xlink:href="inet.queueing.tokengenerator.QueueBasedTokenGenerator.html" xlink:title="Simple Module QueueBasedTokenGenerator" target="_parent">
<polygon fill="#fffcaf" stroke="black" points="355,-19 200,-19 200,0 355,0 355,-19"/>
<text text-anchor="middle" x="277.5" y="-7" font-family="Helvetica,sans-Serif" font-size="10.00">QueueBasedTokenGenerator</text>
</a>
</g>
</g>
<!-- QueueFiller&#45;&gt;QueueBasedTokenGenerator -->
<g id="edge3" class="edge">
<title>QueueFiller&#45;&gt;QueueBasedTokenGenerator</title>
<path fill="none" stroke="black" d="M220.43,-54.98C230.58,-47.07 245.92,-35.11 258.15,-25.58"/>
<polygon fill="black" stroke="black" points="260.64,-28.08 266.38,-19.17 256.34,-22.56 260.64,-28.08"/>
</g>
<!-- IPassivePacketSource -->
<g id="node5" class="node">
<title>IPassivePacketSource</title>
<g id="a_node5"><a xlink:href="inet.queueing.contract.IPassivePacketSource.html" xlink:title="Module Interface IPassivePacketSource" target="_parent">
<polygon fill="#fffcaf" stroke="black" stroke-dasharray="5,2" points="494,-19 373,-19 373,0 494,0 494,-19"/>
<text text-anchor="middle" x="433.5" y="-7" font-family="Helvetica,sans-Serif" font-size="10.00">IPassivePacketSource</text>
</a>
</g>
</g>
<!-- QueueFiller&#45;&gt;IPassivePacketSource -->
<g id="edge4" class="edge">
<title>QueueFiller&#45;&gt;IPassivePacketSource</title>
<path fill="none" stroke="black" d="M245.49,-54.98C283.99,-45.87 345.19,-31.4 387.24,-21.45"/>
<polygon fill="black" stroke="black" points="388.3,-24.79 397.23,-19.08 386.69,-17.98 388.3,-24.79"/>
</g>
<!-- QueueFillerTutorialStep -->
<g id="node6" class="node">
<title>QueueFillerTutorialStep</title>
<g id="a_node6"><a xlink:href="inet.tutorials.queueing.QueueFillerTutorialStep.html" xlink:title="Network QueueFillerTutorialStep" target="_parent">
<polygon fill="#d0d0ff" stroke="black" points="274.5,-129 144.5,-129 144.5,-110 274.5,-110 274.5,-129"/>
<text text-anchor="middle" x="209.5" y="-117" font-family="Helvetica,sans-Serif" font-size="10.00">QueueFillerTutorialStep</text>
</a>
</g>
</g>
<!-- QueueFillerTutorialStep&#45;&gt;QueueFiller -->
<g id="edge5" class="edge">
<title>QueueFillerTutorialStep&#45;&gt;QueueFiller</title>
<path fill="none" stroke="black" d="M209.5,-109.75C209.5,-102.8 209.5,-92.85 209.5,-84.13"/>
<polygon fill="black" stroke="black" points="213,-84.09 209.5,-74.09 206,-84.09 213,-84.09"/>
</g>
</g>
</svg>
