<?xml version="1.0" encoding="UTF-8" standalone="no"?>
<!DOCTYPE svg PUBLIC "-//W3C//DTD SVG 1.1//EN"
 "http://www.w3.org/Graphics/SVG/1.1/DTD/svg11.dtd">
<!-- Generated by graphviz version 2.43.0 (0)
 -->
<!-- Title: opp Pages: 1 -->
<svg width="3988pt" height="137pt"
 viewBox="0.00 0.00 3988.00 137.00" xmlns="http://www.w3.org/2000/svg" xmlns:xlink="http://www.w3.org/1999/xlink">
<g id="graph0" class="graph" transform="scale(1 1) rotate(0) translate(4 133)">
<title>opp</title>
<polygon fill="transparent" stroke="transparent" points="-4,4 -4,-133 3984,-133 3984,4 -4,4"/>
<!-- PacketFilterBase -->
<g id="node1" class="node">
<title>PacketFilterBase</title>
<g id="a_node1"><a xlink:href="inet.queueing.base.PacketFilterBase.html" xlink:title="Simple Module PacketFilterBase" target="_parent">
<polygon fill="#fff700" stroke="black" points="2314.5,-74 2217.5,-74 2217.5,-55 2314.5,-55 2314.5,-74"/>
<text text-anchor="middle" x="2266" y="-62" font-family="Helvetica,sans-Serif" font-size="10.00">PacketFilterBase</text>
</a>
</g>
</g>
<!-- ContentBasedFilter -->
<g id="node3" class="node">
<title>ContentBasedFilter</title>
<g id="a_node3"><a xlink:href="inet.queueing.filter.ContentBasedFilter.html" xlink:title="Simple Module ContentBasedFilter" target="_parent">
<polygon fill="#fffcaf" stroke="black" points="110,-19 0,-19 0,0 110,0 110,-19"/>
<text text-anchor="middle" x="55" y="-7" font-family="Helvetica,sans-Serif" font-size="10.00">ContentBasedFilter</text>
</a>
</g>
</g>
<!-- PacketFilterBase&#45;&gt;ContentBasedFilter -->
<g id="edge2" class="edge">
<title>PacketFilterBase&#45;&gt;ContentBasedFilter</title>
<path fill="none" stroke="black" d="M2217.29,-63.23C1938.87,-61.57 546.5,-51.72 119,-19 116.09,-18.78 113.12,-18.51 110.12,-18.22"/>
</g>
<!-- CrcCheckerBase -->
<g id="node4" class="node">
<title>CrcCheckerBase</title>
<g id="a_node4"><a xlink:href="inet.protocolelement.checksum.base.CrcCheckerBase.html" xlink:title="Simple Module CrcCheckerBase" target="_parent">
<polygon fill="#fffcaf" stroke="black" points="223.5,-19 128.5,-19 128.5,0 223.5,0 223.5,-19"/>
<text text-anchor="middle" x="176" y="-7" font-family="Helvetica,sans-Serif" font-size="10.00">CrcCheckerBase</text>
</a>
</g>
</g>
<!-- PacketFilterBase&#45;&gt;CrcCheckerBase -->
<g id="edge3" class="edge">
<title>PacketFilterBase&#45;&gt;CrcCheckerBase</title>
<path fill="none" stroke="black" d="M2217.25,-63.27C1947.6,-61.86 636.21,-53.34 233,-19 229.91,-18.74 226.73,-18.41 223.53,-18.05"/>
</g>
<!-- EligibilityTimeFilter -->
<g id="node5" class="node">
<title>EligibilityTimeFilter</title>
<g id="a_node5"><a xlink:href="inet.protocolelement.shaper.EligibilityTimeFilter.html" xlink:title="Simple Module EligibilityTimeFilter" target="_parent">
<polygon fill="#fffcaf" stroke="black" points="354,-19 242,-19 242,0 354,0 354,-19"/>
<text text-anchor="middle" x="298" y="-7" font-family="Helvetica,sans-Serif" font-size="10.00">EligibilityTimeFilter</text>
</a>
</g>
</g>
<!-- PacketFilterBase&#45;&gt;EligibilityTimeFilter -->
<g id="edge4" class="edge">
<title>PacketFilterBase&#45;&gt;EligibilityTimeFilter</title>
<path fill="none" stroke="black" d="M2217.45,-63.07C1958.66,-60.66 739.25,-47.92 363,-19 360.16,-18.78 357.26,-18.53 354.33,-18.24"/>
</g>
<!-- EthernetAddressChecker -->
<g id="node6" class="node">
<title>EthernetAddressChecker</title>
<g id="a_node6"><a xlink:href="inet.linklayer.ethernet.modular.EthernetAddressChecker.html" xlink:title="Simple Module EthernetAddressChecker" target="_parent">
<polygon fill="#fffcaf" stroke="black" points="508,-19 372,-19 372,0 508,0 508,-19"/>
<text text-anchor="middle" x="440" y="-7" font-family="Helvetica,sans-Serif" font-size="10.00">EthernetAddressChecker</text>
</a>
</g>
</g>
<!-- PacketFilterBase&#45;&gt;EthernetAddressChecker -->
<g id="edge5" class="edge">
<title>PacketFilterBase&#45;&gt;EthernetAddressChecker</title>
<path fill="none" stroke="black" d="M2217.24,-63.77C2010.98,-64.58 1189.77,-64.61 517,-19 514.18,-18.81 511.31,-18.59 508.41,-18.35"/>
</g>
<!-- EthernetFcsChecker -->
<g id="node7" class="node">
<title>EthernetFcsChecker</title>
<g id="a_node7"><a xlink:href="inet.linklayer.ethernet.modular.EthernetFcsChecker.html" xlink:title="Simple Module EthernetFcsChecker" target="_parent">
<polygon fill="#fffcaf" stroke="black" points="639.5,-19 526.5,-19 526.5,0 639.5,0 639.5,-19"/>
<text text-anchor="middle" x="583" y="-7" font-family="Helvetica,sans-Serif" font-size="10.00">EthernetFcsChecker</text>
</a>
</g>
</g>
<!-- PacketFilterBase&#45;&gt;EthernetFcsChecker -->
<g id="edge6" class="edge">
<title>PacketFilterBase&#45;&gt;EthernetFcsChecker</title>
<path fill="none" stroke="black" d="M2217.29,-63.94C2020.71,-65.36 1266.72,-67.15 649,-19 646.01,-18.77 642.94,-18.49 639.84,-18.19"/>
</g>
<!-- EthernetFragmentFcsChecker -->
<g id="node8" class="node">
<title>EthernetFragmentFcsChecker</title>
<g id="a_node8"><a xlink:href="inet.linklayer.ethernet.modular.EthernetFragmentFcsChecker.html" xlink:title="Simple Module EthernetFragmentFcsChecker" target="_parent">
<polygon fill="#fffcaf" stroke="black" points="818,-19 658,-19 658,0 818,0 818,-19"/>
<text text-anchor="middle" x="738" y="-7" font-family="Helvetica,sans-Serif" font-size="10.00">EthernetFragmentFcsChecker</text>
</a>
</g>
</g>
<!-- PacketFilterBase&#45;&gt;EthernetFragmentFcsChecker -->
<g id="edge7" class="edge">
<title>PacketFilterBase&#45;&gt;EthernetFragmentFcsChecker</title>
<path fill="none" stroke="black" d="M2217.5,-63.13C2034.98,-61.5 1372.05,-53.42 827,-19 824.06,-18.81 821.06,-18.61 818.03,-18.39"/>
</g>
<!-- EthernetFragmentPhyHeaderChecker -->
<g id="node9" class="node">
<title>EthernetFragmentPhyHeaderChecker</title>
<g id="a_node9"><a xlink:href="inet.physicallayer.wired.ethernet.EthernetFragmentPhyHeaderChecker.html" xlink:title="Simple Module EthernetFragmentPhyHeaderChecker" target="_parent">
<polygon fill="#fffcaf" stroke="black" points="1033.5,-19 836.5,-19 836.5,0 1033.5,0 1033.5,-19"/>
<text text-anchor="middle" x="935" y="-7" font-family="Helvetica,sans-Serif" font-size="10.00">EthernetFragmentPhyHeaderChecker</text>
</a>
</g>
</g>
<!-- PacketFilterBase&#45;&gt;EthernetFragmentPhyHeaderChecker -->
<g id="edge8" class="edge">
<title>PacketFilterBase&#45;&gt;EthernetFragmentPhyHeaderChecker</title>
<path fill="none" stroke="black" d="M2217.32,-62.47C2052.35,-58.81 1499.32,-45.25 1043,-19 1039.9,-18.82 1036.75,-18.63 1033.58,-18.43"/>
</g>
<!-- EthernetMacHeaderChecker -->
<g id="node10" class="node">
<title>EthernetMacHeaderChecker</title>
<g id="a_node10"><a xlink:href="inet.linklayer.ethernet.modular.EthernetMacHeaderChecker.html" xlink:title="Simple Module EthernetMacHeaderChecker" target="_parent">
<polygon fill="#fffcaf" stroke="black" points="1204,-19 1052,-19 1052,0 1204,0 1204,-19"/>
<text text-anchor="middle" x="1128" y="-7" font-family="Helvetica,sans-Serif" font-size="10.00">EthernetMacHeaderChecker</text>
</a>
</g>
</g>
<!-- PacketFilterBase&#45;&gt;EthernetMacHeaderChecker -->
<g id="edge9" class="edge">
<title>PacketFilterBase&#45;&gt;EthernetMacHeaderChecker</title>
<path fill="none" stroke="black" d="M2217.4,-62.44C2067.59,-58.96 1599.7,-46.48 1213,-19 1210.19,-18.8 1207.33,-18.58 1204.44,-18.35"/>
</g>
<!-- EthernetPhyHeaderChecker -->
<g id="node11" class="node">
<title>EthernetPhyHeaderChecker</title>
<g id="a_node11"><a xlink:href="inet.physicallayer.wired.ethernet.EthernetPhyHeaderChecker.html" xlink:title="Simple Module EthernetPhyHeaderChecker" target="_parent">
<polygon fill="#fffcaf" stroke="black" points="1372,-19 1222,-19 1222,0 1372,0 1372,-19"/>
<text text-anchor="middle" x="1297" y="-7" font-family="Helvetica,sans-Serif" font-size="10.00">EthernetPhyHeaderChecker</text>
</a>
</g>
</g>
<!-- PacketFilterBase&#45;&gt;EthernetPhyHeaderChecker -->
<g id="edge10" class="edge">
<title>PacketFilterBase&#45;&gt;EthernetPhyHeaderChecker</title>
<path fill="none" stroke="black" d="M2217.5,-61.92C2083.97,-57.4 1699.69,-43.12 1381,-19 1378.08,-18.78 1375.1,-18.54 1372.09,-18.29"/>
</g>
<!-- EthernetTypeOrLengthChecker -->
<g id="node12" class="node">
<title>EthernetTypeOrLengthChecker</title>
<g id="a_node12"><a xlink:href="inet.linklayer.ethernet.modular.EthernetTypeOrLengthChecker.html" xlink:title="Simple Module EthernetTypeOrLengthChecker" target="_parent">
<polygon fill="#fffcaf" stroke="black" points="1554,-19 1390,-19 1390,0 1554,0 1554,-19"/>
<text text-anchor="middle" x="1472" y="-7" font-family="Helvetica,sans-Serif" font-size="10.00">EthernetTypeOrLengthChecker</text>
</a>
</g>
</g>
<!-- PacketFilterBase&#45;&gt;EthernetTypeOrLengthChecker -->
<g id="edge11" class="edge">
<title>PacketFilterBase&#45;&gt;EthernetTypeOrLengthChecker</title>
<path fill="none" stroke="black" d="M2217.38,-60.92C2103.14,-54.76 1808.67,-38.24 1563,-19 1560.15,-18.78 1557.26,-18.54 1554.33,-18.3"/>
</g>
<!-- FcsCheckerBase -->
<g id="node13" class="node">
<title>FcsCheckerBase</title>
<g id="a_node13"><a xlink:href="inet.protocolelement.checksum.base.FcsCheckerBase.html" xlink:title="Simple Module FcsCheckerBase" target="_parent">
<polygon fill="#fffcaf" stroke="black" points="1668,-19 1572,-19 1572,0 1668,0 1668,-19"/>
<text text-anchor="middle" x="1620" y="-7" font-family="Helvetica,sans-Serif" font-size="10.00">FcsCheckerBase</text>
</a>
</g>
</g>
<!-- PacketFilterBase&#45;&gt;FcsCheckerBase -->
<g id="edge12" class="edge">
<title>PacketFilterBase&#45;&gt;FcsCheckerBase</title>
<path fill="none" stroke="black" d="M2217.4,-61.03C2116.5,-55.63 1877,-41.44 1677,-19 1674.12,-18.68 1671.15,-18.32 1668.17,-17.93"/>
</g>
<!-- FragmentNumberHeaderChecker -->
<g id="node14" class="node">
<title>FragmentNumberHeaderChecker</title>
<g id="a_node14"><a xlink:href="inet.protocolelement.fragmentation.FragmentNumberHeaderChecker.html" xlink:title="Simple Module FragmentNumberHeaderChecker" target="_parent">
<polygon fill="#fffcaf" stroke="black" points="1862,-19 1686,-19 1686,0 1862,0 1862,-19"/>
<text text-anchor="middle" x="1774" y="-7" font-family="Helvetica,sans-Serif" font-size="10.00">FragmentNumberHeaderChecker</text>
</a>
</g>
</g>
<!-- PacketFilterBase&#45;&gt;FragmentNumberHeaderChecker -->
<g id="edge13" class="edge">
<title>PacketFilterBase&#45;&gt;FragmentNumberHeaderChecker</title>
<path fill="none" stroke="black" d="M2217.48,-58.27C2132.51,-49.12 1956.04,-30.11 1853.17,-19.03"/>
</g>
<!-- Ieee8021aeTagEpdHeaderChecker -->
<g id="node15" class="node">
<title>Ieee8021aeTagEpdHeaderChecker</title>
<g id="a_node15"><a xlink:href="inet.linklayer.ieee8021ae.Ieee8021aeTagEpdHeaderChecker.html" xlink:title="Simple Module Ieee8021aeTagEpdHeaderChecker" target="_parent">
<polygon fill="#fffcaf" stroke="black" points="2062,-19 1880,-19 1880,0 2062,0 2062,-19"/>
<text text-anchor="middle" x="1971" y="-7" font-family="Helvetica,sans-Serif" font-size="10.00">Ieee8021aeTagEpdHeaderChecker</text>
</a>
</g>
</g>
<!-- PacketFilterBase&#45;&gt;Ieee8021aeTagEpdHeaderChecker -->
<g id="edge14" class="edge">
<title>PacketFilterBase&#45;&gt;Ieee8021aeTagEpdHeaderChecker</title>
<path fill="none" stroke="black" d="M2218.6,-54.98C2163.72,-45.12 2073.81,-28.97 2018.77,-19.08"/>
</g>
<!-- Ieee8021qTagEpdHeaderChecker -->
<g id="node16" class="node">
<title>Ieee8021qTagEpdHeaderChecker</title>
<g id="a_node16"><a xlink:href="inet.linklayer.ieee8021q.Ieee8021qTagEpdHeaderChecker.html" xlink:title="Simple Module Ieee8021qTagEpdHeaderChecker" target="_parent">
<polygon fill="#fffcaf" stroke="black" points="2256,-19 2080,-19 2080,0 2256,0 2256,-19"/>
<text text-anchor="middle" x="2168" y="-7" font-family="Helvetica,sans-Serif" font-size="10.00">Ieee8021qTagEpdHeaderChecker</text>
</a>
</g>
</g>
<!-- PacketFilterBase&#45;&gt;Ieee8021qTagEpdHeaderChecker -->
<g id="edge15" class="edge">
<title>PacketFilterBase&#45;&gt;Ieee8021qTagEpdHeaderChecker</title>
<path fill="none" stroke="black" d="M2250.25,-54.98C2232.07,-45.15 2202.33,-29.07 2184.03,-19.17"/>
</g>
<!-- Ieee8021qTagTpidHeaderChecker -->
<g id="node17" class="node">
<title>Ieee8021qTagTpidHeaderChecker</title>
<g id="a_node17"><a xlink:href="inet.linklayer.ieee8021q.Ieee8021qTagTpidHeaderChecker.html" xlink:title="Simple Module Ieee8021qTagTpidHeaderChecker" target="_parent">
<polygon fill="#fffcaf" stroke="black" points="2453.5,-19 2274.5,-19 2274.5,0 2453.5,0 2453.5,-19"/>
<text text-anchor="middle" x="2364" y="-7" font-family="Helvetica,sans-Serif" font-size="10.00">Ieee8021qTagTpidHeaderChecker</text>
</a>
</g>
</g>
<!-- PacketFilterBase&#45;&gt;Ieee8021qTagTpidHeaderChecker -->
<g id="edge16" class="edge">
<title>PacketFilterBase&#45;&gt;Ieee8021qTagTpidHeaderChecker</title>
<path fill="none" stroke="black" d="M2281.75,-54.98C2299.93,-45.15 2329.67,-29.07 2347.97,-19.17"/>
</g>
<!-- Ieee8021rTagEpdHeaderChecker -->
<g id="node18" class="node">
<title>Ieee8021rTagEpdHeaderChecker</title>
<g id="a_node18"><a xlink:href="inet.linklayer.ieee8021r.Ieee8021rTagEpdHeaderChecker.html" xlink:title="Simple Module Ieee8021rTagEpdHeaderChecker" target="_parent">
<polygon fill="#fffcaf" stroke="black" points="2646,-19 2472,-19 2472,0 2646,0 2646,-19"/>
<text text-anchor="middle" x="2559" y="-7" font-family="Helvetica,sans-Serif" font-size="10.00">Ieee8021rTagEpdHeaderChecker</text>
</a>
</g>
</g>
<!-- PacketFilterBase&#45;&gt;Ieee8021rTagEpdHeaderChecker -->
<g id="edge17" class="edge">
<title>PacketFilterBase&#45;&gt;Ieee8021rTagEpdHeaderChecker</title>
<path fill="none" stroke="black" d="M2313.08,-54.98C2367.59,-45.12 2456.88,-28.97 2511.56,-19.08"/>
</g>
<!-- Ieee8022LlcChecker -->
<g id="node19" class="node">
<title>Ieee8022LlcChecker</title>
<g id="a_node19"><a xlink:href="inet.linklayer.ieee8022.Ieee8022LlcChecker.html" xlink:title="Simple Module Ieee8022LlcChecker" target="_parent">
<polygon fill="#fffcaf" stroke="black" points="2778,-19 2664,-19 2664,0 2778,0 2778,-19"/>
<text text-anchor="middle" x="2721" y="-7" font-family="Helvetica,sans-Serif" font-size="10.00">Ieee8022LlcChecker</text>
</a>
</g>
</g>
<!-- PacketFilterBase&#45;&gt;Ieee8022LlcChecker -->
<g id="edge18" class="edge">
<title>PacketFilterBase&#45;&gt;Ieee8022LlcChecker</title>
<path fill="none" stroke="black" d="M2314.54,-58.17C2388.18,-50.04 2532.53,-33.89 2655,-19 2657.87,-18.65 2660.8,-18.29 2663.77,-17.92"/>
</g>
<!-- Ieee8022SnapChecker -->
<g id="node20" class="node">
<title>Ieee8022SnapChecker</title>
<g id="a_node20"><a xlink:href="inet.linklayer.ieee8022.Ieee8022SnapChecker.html" xlink:title="Simple Module Ieee8022SnapChecker" target="_parent">
<polygon fill="#fffcaf" stroke="black" points="2921.5,-19 2796.5,-19 2796.5,0 2921.5,0 2921.5,-19"/>
<text text-anchor="middle" x="2859" y="-7" font-family="Helvetica,sans-Serif" font-size="10.00">Ieee8022SnapChecker</text>
</a>
</g>
</g>
<!-- PacketFilterBase&#45;&gt;Ieee8022SnapChecker -->
<g id="edge19" class="edge">
<title>PacketFilterBase&#45;&gt;Ieee8022SnapChecker</title>
<path fill="none" stroke="black" d="M2314.53,-59.88C2406.7,-52.89 2613.37,-36.66 2787,-19 2790.01,-18.69 2793.08,-18.37 2796.18,-18.04"/>
</g>
<!-- LabelFilter -->
<g id="node21" class="node">
<title>LabelFilter</title>
<g id="a_node21"><a xlink:href="inet.queueing.filter.LabelFilter.html" xlink:title="Simple Module LabelFilter" target="_parent">
<polygon fill="#fffcaf" stroke="black" points="3008,-19 2940,-19 2940,0 3008,0 3008,-19"/>
<text text-anchor="middle" x="2974" y="-7" font-family="Helvetica,sans-Serif" font-size="10.00">LabelFilter</text>
</a>
</g>
</g>
<!-- PacketFilterBase&#45;&gt;LabelFilter -->
<g id="edge20" class="edge">
<title>PacketFilterBase&#45;&gt;LabelFilter</title>
<path fill="none" stroke="black" d="M2314.61,-62.38C2424.74,-59.38 2701.56,-49.23 2931,-19 2933.87,-18.62 2936.83,-18.17 2939.8,-17.67"/>
</g>
<!-- OrdinalBasedDropper -->
<g id="node22" class="node">
<title>OrdinalBasedDropper</title>
<g id="a_node22"><a xlink:href="inet.queueing.filter.OrdinalBasedDropper.html" xlink:title="Simple Module OrdinalBasedDropper" target="_parent">
<polygon fill="#fffcaf" stroke="black" points="3147.5,-19 3026.5,-19 3026.5,0 3147.5,0 3147.5,-19"/>
<text text-anchor="middle" x="3087" y="-7" font-family="Helvetica,sans-Serif" font-size="10.00">OrdinalBasedDropper</text>
</a>
</g>
</g>
<!-- PacketFilterBase&#45;&gt;OrdinalBasedDropper -->
<g id="edge21" class="edge">
<title>PacketFilterBase&#45;&gt;OrdinalBasedDropper</title>
<path fill="none" stroke="black" d="M2314.84,-61.65C2434.65,-56.88 2752.61,-42.86 3017,-19 3020.05,-18.72 3023.17,-18.42 3026.32,-18.1"/>
</g>
<!-- PacketFilter -->
<g id="node23" class="node">
<title>PacketFilter</title>
<g id="a_node23"><a xlink:href="inet.queueing.filter.PacketFilter.html" xlink:title="Simple Module PacketFilter" target="_parent">
<polygon fill="#fffcaf" stroke="black" points="3238.5,-19 3165.5,-19 3165.5,0 3238.5,0 3238.5,-19"/>
<text text-anchor="middle" x="3202" y="-7" font-family="Helvetica,sans-Serif" font-size="10.00">PacketFilter</text>
</a>
</g>
</g>
<!-- PacketFilterBase&#45;&gt;PacketFilter -->
<g id="edge22" class="edge">
<title>PacketFilterBase&#45;&gt;PacketFilter</title>
<path fill="none" stroke="black" d="M2314.97,-63.4C2449.77,-62.62 2837.48,-56.97 3157,-19 3159.68,-18.68 3162.45,-18.3 3165.23,-17.87"/>
</g>
<!-- ProtocolChecker -->
<g id="node24" class="node">
<title>ProtocolChecker</title>
<g id="a_node24"><a xlink:href="inet.protocolelement.common.ProtocolChecker.html" xlink:title="Simple Module ProtocolChecker" target="_parent">
<polygon fill="#fffcaf" stroke="black" points="3351.5,-19 3256.5,-19 3256.5,0 3351.5,0 3351.5,-19"/>
<text text-anchor="middle" x="3304" y="-7" font-family="Helvetica,sans-Serif" font-size="10.00">ProtocolChecker</text>
</a>
</g>
</g>
<!-- PacketFilterBase&#45;&gt;ProtocolChecker -->
<g id="edge23" class="edge">
<title>PacketFilterBase&#45;&gt;ProtocolChecker</title>
<path fill="none" stroke="black" d="M2314.66,-63.11C2457.99,-61.56 2890.91,-54.09 3248,-19 3250.74,-18.73 3253.55,-18.42 3256.38,-18.08"/>
</g>
<!-- RedDropper -->
<g id="node25" class="node">
<title>RedDropper</title>
<g id="a_node25"><a xlink:href="inet.queueing.filter.RedDropper.html" xlink:title="Simple Module RedDropper" target="_parent">
<polygon fill="#fffcaf" stroke="black" points="3444,-19 3370,-19 3370,0 3444,0 3444,-19"/>
<text text-anchor="middle" x="3407" y="-7" font-family="Helvetica,sans-Serif" font-size="10.00">RedDropper</text>
</a>
</g>
</g>
<!-- PacketFilterBase&#45;&gt;RedDropper -->
<g id="edge24" class="edge">
<title>PacketFilterBase&#45;&gt;RedDropper</title>
<path fill="none" stroke="black" d="M2314.76,-63.98C2468.82,-64.98 2958.74,-64.11 3361,-19 3363.91,-18.67 3366.9,-18.27 3369.91,-17.82"/>
</g>
<!-- StatisticalRateLimiter -->
<g id="node26" class="node">
<title>StatisticalRateLimiter</title>
<g id="a_node26"><a xlink:href="inet.queueing.filter.StatisticalRateLimiter.html" xlink:title="Simple Module StatisticalRateLimiter" target="_parent">
<polygon fill="#fffcaf" stroke="black" points="3584,-19 3462,-19 3462,0 3584,0 3584,-19"/>
<text text-anchor="middle" x="3523" y="-7" font-family="Helvetica,sans-Serif" font-size="10.00">StatisticalRateLimiter</text>
</a>
</g>
</g>
<!-- PacketFilterBase&#45;&gt;StatisticalRateLimiter -->
<g id="edge25" class="edge">
<title>PacketFilterBase&#45;&gt;StatisticalRateLimiter</title>
<path fill="none" stroke="black" d="M2314.7,-63.13C2476.69,-61.58 3012.04,-53.98 3453,-19 3455.93,-18.77 3458.92,-18.5 3461.95,-18.22"/>
</g>
<!-- StreamFilter -->
<g id="node27" class="node">
<title>StreamFilter</title>
<g id="a_node27"><a xlink:href="inet.protocolelement.redundancy.StreamFilter.html" xlink:title="Simple Module StreamFilter" target="_parent">
<polygon fill="#fffcaf" stroke="black" points="3679.5,-19 3602.5,-19 3602.5,0 3679.5,0 3679.5,-19"/>
<text text-anchor="middle" x="3641" y="-7" font-family="Helvetica,sans-Serif" font-size="10.00">StreamFilter</text>
</a>
</g>
</g>
<!-- PacketFilterBase&#45;&gt;StreamFilter -->
<g id="edge26" class="edge">
<title>PacketFilterBase&#45;&gt;StreamFilter</title>
<path fill="none" stroke="black" d="M2314.77,-62.79C2522.91,-59.62 3337.81,-45.74 3593,-19 3596.03,-18.68 3599.16,-18.29 3602.29,-17.84"/>
</g>
<!-- StreamMerger -->
<g id="node28" class="node">
<title>StreamMerger</title>
<g id="a_node28"><a xlink:href="inet.protocolelement.redundancy.StreamMerger.html" xlink:title="Simple Module StreamMerger" target="_parent">
<polygon fill="#fffcaf" stroke="black" points="3784,-19 3698,-19 3698,0 3784,0 3784,-19"/>
<text text-anchor="middle" x="3741" y="-7" font-family="Helvetica,sans-Serif" font-size="10.00">StreamMerger</text>
</a>
</g>
</g>
<!-- PacketFilterBase&#45;&gt;StreamMerger -->
<g id="edge27" class="edge">
<title>PacketFilterBase&#45;&gt;StreamMerger</title>
<path fill="none" stroke="black" d="M2314.59,-62.83C2531.62,-59.73 3413.62,-45.7 3689,-19 3691.91,-18.72 3694.91,-18.37 3697.93,-17.99"/>
</g>
<!-- VlanIndFilter -->
<g id="node29" class="node">
<title>VlanIndFilter</title>
<g id="a_node29"><a xlink:href="inet.linklayer.vlan.VlanIndFilter.html" xlink:title="Simple Module VlanIndFilter" target="_parent">
<polygon fill="#fffcaf" stroke="black" points="3880,-19 3802,-19 3802,0 3880,0 3880,-19"/>
<text text-anchor="middle" x="3841" y="-7" font-family="Helvetica,sans-Serif" font-size="10.00">VlanIndFilter</text>
</a>
</g>
</g>
<!-- PacketFilterBase&#45;&gt;VlanIndFilter -->
<g id="edge28" class="edge">
<title>PacketFilterBase&#45;&gt;VlanIndFilter</title>
<path fill="none" stroke="black" d="M2314.69,-63.04C2541.54,-60.75 3496.19,-49.44 3793,-19 3795.86,-18.71 3798.81,-18.34 3801.77,-17.93"/>
</g>
<!-- VlanReqFilter -->
<g id="node30" class="node">
<title>VlanReqFilter</title>
<g id="a_node30"><a xlink:href="inet.linklayer.vlan.VlanReqFilter.html" xlink:title="Simple Module VlanReqFilter" target="_parent">
<polygon fill="#fffcaf" stroke="black" points="3980,-19 3898,-19 3898,0 3980,0 3980,-19"/>
<text text-anchor="middle" x="3939" y="-7" font-family="Helvetica,sans-Serif" font-size="10.00">VlanReqFilter</text>
</a>
</g>
</g>
<!-- PacketFilterBase&#45;&gt;VlanReqFilter -->
<g id="edge29" class="edge">
<title>PacketFilterBase&#45;&gt;VlanReqFilter</title>
<path fill="none" stroke="black" d="M2314.58,-63.09C2549.81,-60.98 3572,-50.13 3889,-19 3891.89,-18.72 3894.87,-18.36 3897.86,-17.97"/>
</g>
<!-- PacketProcessorBase -->
<g id="node2" class="node">
<title>PacketProcessorBase</title>
<g id="a_node2"><a xlink:href="inet.queueing.base.PacketProcessorBase.html" xlink:title="Simple Module PacketProcessorBase" target="_parent">
<polygon fill="#fffcaf" stroke="black" points="2325.5,-129 2206.5,-129 2206.5,-110 2325.5,-110 2325.5,-129"/>
<text text-anchor="middle" x="2266" y="-117" font-family="Helvetica,sans-Serif" font-size="10.00">PacketProcessorBase</text>
</a>
</g>
</g>
<!-- PacketProcessorBase&#45;&gt;PacketFilterBase -->
<g id="edge1" class="edge">
<title>PacketProcessorBase&#45;&gt;PacketFilterBase</title>
<path fill="none" stroke="black" d="M2266,-109.75C2266,-99.87 2266,-83.9 2266,-74.09"/>
</g>
</g>
</svg>
