<?xml version="1.0" encoding="UTF-8" standalone="no"?>
<!DOCTYPE svg PUBLIC "-//W3C//DTD SVG 1.1//EN"
 "http://www.w3.org/Graphics/SVG/1.1/DTD/svg11.dtd">
<!-- Generated by graphviz version 2.43.0 (0)
 -->
<!-- Title: opp Pages: 1 -->
<svg width="1507pt" height="137pt"
 viewBox="0.00 0.00 1506.50 137.00" xmlns="http://www.w3.org/2000/svg" xmlns:xlink="http://www.w3.org/1999/xlink">
<g id="graph0" class="graph" transform="scale(1 1) rotate(0) translate(4 133)">
<title>opp</title>
<polygon fill="transparent" stroke="transparent" points="-4,4 -4,-133 1502.5,-133 1502.5,4 -4,4"/>
<!-- IPacketClassifier -->
<g id="node1" class="node">
<title>IPacketClassifier</title>
<g id="a_node1"><a xlink:href="inet.queueing.contract.IPacketClassifier.html" xlink:title="Module Interface IPacketClassifier" target="_parent">
<polygon fill="#fff700" stroke="black" stroke-dasharray="5,2" points="834,-74 738,-74 738,-55 834,-55 834,-74"/>
<text text-anchor="middle" x="786" y="-62" font-family="Helvetica,sans-Serif" font-size="10.00">IPacketClassifier</text>
</a>
</g>
</g>
<!-- ContentBasedClassifier -->
<g id="node3" class="node">
<title>ContentBasedClassifier</title>
<g id="a_node3"><a xlink:href="inet.queueing.classifier.ContentBasedClassifier.html" xlink:title="Simple Module ContentBasedClassifier" target="_parent">
<polygon fill="#fffcaf" stroke="black" points="130,-19 0,-19 0,0 130,0 130,-19"/>
<text text-anchor="middle" x="65" y="-7" font-family="Helvetica,sans-Serif" font-size="10.00">ContentBasedClassifier</text>
</a>
</g>
</g>
<!-- IPacketClassifier&#45;&gt;ContentBasedClassifier -->
<g id="edge2" class="edge">
<title>IPacketClassifier&#45;&gt;ContentBasedClassifier</title>
<path fill="none" stroke="black" stroke-dasharray="5,2" d="M737.65,-60.93C629.99,-55.05 362.4,-39.5 139,-19 136.17,-18.74 133.27,-18.46 130.35,-18.17"/>
</g>
<!-- EthernetFrameClassifier -->
<g id="node4" class="node">
<title>EthernetFrameClassifier</title>
<g id="a_node4"><a xlink:href="inet.linklayer.ethernet.common.EthernetFrameClassifier.html" xlink:title="Simple Module EthernetFrameClassifier" target="_parent">
<polygon fill="#fffcaf" stroke="black" points="282,-19 148,-19 148,0 282,0 282,-19"/>
<text text-anchor="middle" x="215" y="-7" font-family="Helvetica,sans-Serif" font-size="10.00">EthernetFrameClassifier</text>
</a>
</g>
</g>
<!-- IPacketClassifier&#45;&gt;EthernetFrameClassifier -->
<g id="edge3" class="edge">
<title>IPacketClassifier&#45;&gt;EthernetFrameClassifier</title>
<path fill="none" stroke="black" stroke-dasharray="5,2" d="M737.83,-59.52C649.3,-52.13 454.76,-35.52 291,-19 288.09,-18.71 285.13,-18.4 282.13,-18.09"/>
</g>
<!-- LabelClassifier -->
<g id="node5" class="node">
<title>LabelClassifier</title>
<g id="a_node5"><a xlink:href="inet.queueing.classifier.LabelClassifier.html" xlink:title="Simple Module LabelClassifier" target="_parent">
<polygon fill="#fffcaf" stroke="black" points="388,-19 300,-19 300,0 388,0 388,-19"/>
<text text-anchor="middle" x="344" y="-7" font-family="Helvetica,sans-Serif" font-size="10.00">LabelClassifier</text>
</a>
</g>
</g>
<!-- IPacketClassifier&#45;&gt;LabelClassifier -->
<g id="edge4" class="edge">
<title>IPacketClassifier&#45;&gt;LabelClassifier</title>
<path fill="none" stroke="black" stroke-dasharray="5,2" d="M737.7,-58.68C664.07,-51.18 519.4,-35.81 397,-19 394.14,-18.61 391.19,-18.18 388.22,-17.75"/>
</g>
<!-- MarkovClassifier -->
<g id="node6" class="node">
<title>MarkovClassifier</title>
<g id="a_node6"><a xlink:href="inet.queueing.classifier.MarkovClassifier.html" xlink:title="Simple Module MarkovClassifier" target="_parent">
<polygon fill="#fffcaf" stroke="black" points="504,-19 406,-19 406,0 504,0 504,-19"/>
<text text-anchor="middle" x="455" y="-7" font-family="Helvetica,sans-Serif" font-size="10.00">MarkovClassifier</text>
</a>
</g>
</g>
<!-- IPacketClassifier&#45;&gt;MarkovClassifier -->
<g id="edge5" class="edge">
<title>IPacketClassifier&#45;&gt;MarkovClassifier</title>
<path fill="none" stroke="black" stroke-dasharray="5,2" d="M737.87,-55.79C675.47,-45.8 567.22,-28.47 504.27,-18.39"/>
</g>
<!-- MultiTokenBucketClassifier -->
<g id="node7" class="node">
<title>MultiTokenBucketClassifier</title>
<g id="a_node7"><a xlink:href="inet.queueing.classifier.MultiTokenBucketClassifier.html" xlink:title="Simple Module MultiTokenBucketClassifier" target="_parent">
<polygon fill="#fffcaf" stroke="black" points="669.5,-19 522.5,-19 522.5,0 669.5,0 669.5,-19"/>
<text text-anchor="middle" x="596" y="-7" font-family="Helvetica,sans-Serif" font-size="10.00">MultiTokenBucketClassifier</text>
</a>
</g>
</g>
<!-- IPacketClassifier&#45;&gt;MultiTokenBucketClassifier -->
<g id="edge6" class="edge">
<title>IPacketClassifier&#45;&gt;MultiTokenBucketClassifier</title>
<path fill="none" stroke="black" stroke-dasharray="5,2" d="M755.47,-54.98C720.12,-45.12 662.22,-28.97 626.77,-19.08"/>
</g>
<!-- PacketClassifier -->
<g id="node8" class="node">
<title>PacketClassifier</title>
<g id="a_node8"><a xlink:href="inet.queueing.classifier.PacketClassifier.html" xlink:title="Simple Module PacketClassifier" target="_parent">
<polygon fill="#fffcaf" stroke="black" points="780.5,-19 687.5,-19 687.5,0 780.5,0 780.5,-19"/>
<text text-anchor="middle" x="734" y="-7" font-family="Helvetica,sans-Serif" font-size="10.00">PacketClassifier</text>
</a>
</g>
</g>
<!-- IPacketClassifier&#45;&gt;PacketClassifier -->
<g id="edge7" class="edge">
<title>IPacketClassifier&#45;&gt;PacketClassifier</title>
<path fill="none" stroke="black" stroke-dasharray="5,2" d="M777.41,-54.75C767.72,-44.87 752.05,-28.9 742.43,-19.09"/>
</g>
<!-- PcpClassifier -->
<g id="node9" class="node">
<title>PcpClassifier</title>
<g id="a_node9"><a xlink:href="inet.linklayer.ieee8021q.PcpClassifier.html" xlink:title="Simple Module PcpClassifier" target="_parent">
<polygon fill="#fffcaf" stroke="black" points="877.5,-19 798.5,-19 798.5,0 877.5,0 877.5,-19"/>
<text text-anchor="middle" x="838" y="-7" font-family="Helvetica,sans-Serif" font-size="10.00">PcpClassifier</text>
</a>
</g>
</g>
<!-- IPacketClassifier&#45;&gt;PcpClassifier -->
<g id="edge8" class="edge">
<title>IPacketClassifier&#45;&gt;PcpClassifier</title>
<path fill="none" stroke="black" stroke-dasharray="5,2" d="M794.59,-54.75C804.28,-44.87 819.95,-28.9 829.57,-19.09"/>
</g>
<!-- PcpTrafficClassClassifier -->
<g id="node10" class="node">
<title>PcpTrafficClassClassifier</title>
<g id="a_node10"><a xlink:href="inet.linklayer.ieee8021q.PcpTrafficClassClassifier.html" xlink:title="Compound Module PcpTrafficClassClassifier" target="_parent">
<polygon fill="#fffcaf" stroke="black" points="1030,-19 896,-19 896,0 1030,0 1030,-19"/>
<text text-anchor="middle" x="963" y="-7" font-family="Helvetica,sans-Serif" font-size="10.00">PcpTrafficClassClassifier</text>
</a>
</g>
</g>
<!-- IPacketClassifier&#45;&gt;PcpTrafficClassClassifier -->
<g id="edge9" class="edge">
<title>IPacketClassifier&#45;&gt;PcpTrafficClassClassifier</title>
<path fill="none" stroke="black" stroke-dasharray="5,2" d="M814.44,-54.98C847.37,-45.12 901.31,-28.97 934.34,-19.08"/>
</g>
<!-- PriorityClassifier -->
<g id="node11" class="node">
<title>PriorityClassifier</title>
<g id="a_node11"><a xlink:href="inet.queueing.classifier.PriorityClassifier.html" xlink:title="Simple Module PriorityClassifier" target="_parent">
<polygon fill="#fffcaf" stroke="black" points="1145.5,-19 1048.5,-19 1048.5,0 1145.5,0 1145.5,-19"/>
<text text-anchor="middle" x="1097" y="-7" font-family="Helvetica,sans-Serif" font-size="10.00">PriorityClassifier</text>
</a>
</g>
</g>
<!-- IPacketClassifier&#45;&gt;PriorityClassifier -->
<g id="edge10" class="edge">
<title>IPacketClassifier&#45;&gt;PriorityClassifier</title>
<path fill="none" stroke="black" stroke-dasharray="5,2" d="M834.25,-55.28C892.52,-45.35 989.95,-28.74 1048.38,-18.79"/>
</g>
<!-- StreamClassifier -->
<g id="node12" class="node">
<title>StreamClassifier</title>
<g id="a_node12"><a xlink:href="inet.protocolelement.redundancy.StreamClassifier.html" xlink:title="Simple Module StreamClassifier" target="_parent">
<polygon fill="#fffcaf" stroke="black" points="1260.5,-19 1163.5,-19 1163.5,0 1260.5,0 1260.5,-19"/>
<text text-anchor="middle" x="1212" y="-7" font-family="Helvetica,sans-Serif" font-size="10.00">StreamClassifier</text>
</a>
</g>
</g>
<!-- IPacketClassifier&#45;&gt;StreamClassifier -->
<g id="edge11" class="edge">
<title>IPacketClassifier&#45;&gt;StreamClassifier</title>
<path fill="none" stroke="black" stroke-dasharray="5,2" d="M834.11,-58.13C904.6,-50.17 1040.05,-34.5 1155,-19 1157.68,-18.64 1160.42,-18.26 1163.2,-17.87"/>
</g>
<!-- TokenBucketClassifier -->
<g id="node13" class="node">
<title>TokenBucketClassifier</title>
<g id="a_node13"><a xlink:href="inet.queueing.classifier.TokenBucketClassifier.html" xlink:title="Simple Module TokenBucketClassifier" target="_parent">
<polygon fill="#fffcaf" stroke="black" points="1401,-19 1279,-19 1279,0 1401,0 1401,-19"/>
<text text-anchor="middle" x="1340" y="-7" font-family="Helvetica,sans-Serif" font-size="10.00">TokenBucketClassifier</text>
</a>
</g>
</g>
<!-- IPacketClassifier&#45;&gt;TokenBucketClassifier -->
<g id="edge12" class="edge">
<title>IPacketClassifier&#45;&gt;TokenBucketClassifier</title>
<path fill="none" stroke="black" stroke-dasharray="5,2" d="M834.13,-59.54C921.19,-52.28 1110.58,-36 1270,-19 1272.92,-18.69 1275.91,-18.36 1278.93,-18.02"/>
</g>
<!-- WrrClassifier -->
<g id="node14" class="node">
<title>WrrClassifier</title>
<g id="a_node14"><a xlink:href="inet.queueing.classifier.WrrClassifier.html" xlink:title="Simple Module WrrClassifier" target="_parent">
<polygon fill="#fffcaf" stroke="black" points="1498.5,-19 1419.5,-19 1419.5,0 1498.5,0 1498.5,-19"/>
<text text-anchor="middle" x="1459" y="-7" font-family="Helvetica,sans-Serif" font-size="10.00">WrrClassifier</text>
</a>
</g>
</g>
<!-- IPacketClassifier&#45;&gt;WrrClassifier -->
<g id="edge13" class="edge">
<title>IPacketClassifier&#45;&gt;WrrClassifier</title>
<path fill="none" stroke="black" stroke-dasharray="5,2" d="M834.31,-61.71C939.35,-57.46 1196.27,-45.09 1410,-19 1413.09,-18.62 1416.27,-18.18 1419.47,-17.71"/>
</g>
<!-- IPassivePacketSink -->
<g id="node2" class="node">
<title>IPassivePacketSink</title>
<g id="a_node2"><a xlink:href="inet.queueing.contract.IPassivePacketSink.html" xlink:title="Module Interface IPassivePacketSink" target="_parent">
<polygon fill="#fffcaf" stroke="black" stroke-dasharray="5,2" points="840.5,-129 731.5,-129 731.5,-110 840.5,-110 840.5,-129"/>
<text text-anchor="middle" x="786" y="-117" font-family="Helvetica,sans-Serif" font-size="10.00">IPassivePacketSink</text>
</a>
</g>
</g>
<!-- IPassivePacketSink&#45;&gt;IPacketClassifier -->
<g id="edge1" class="edge">
<title>IPassivePacketSink&#45;&gt;IPacketClassifier</title>
<path fill="none" stroke="black" d="M786,-109.75C786,-99.87 786,-83.9 786,-74.09"/>
</g>
</g>
</svg>
