<?xml version="1.0" encoding="UTF-8" standalone="no"?>
<!DOCTYPE svg PUBLIC "-//W3C//DTD SVG 1.1//EN"
 "http://www.w3.org/Graphics/SVG/1.1/DTD/svg11.dtd">
<!-- Generated by graphviz version 2.43.0 (0)
 -->
<!-- Title: opp Pages: 1 -->
<svg width="717pt" height="82pt"
 viewBox="0.00 0.00 716.50 82.00" xmlns="http://www.w3.org/2000/svg" xmlns:xlink="http://www.w3.org/1999/xlink">
<g id="graph0" class="graph" transform="scale(1 1) rotate(0) translate(4 78)">
<title>opp</title>
<polygon fill="transparent" stroke="transparent" points="-4,4 -4,-78 712.5,-78 712.5,4 -4,4"/>
<!-- MultiRadioShowcase -->
<g id="node1" class="node">
<title>MultiRadioShowcase</title>
<g id="a_node1"><a xlink:href="inet.showcases.wireless.multiradio.MultiRadioShowcase.html" xlink:title="Network MultiRadioShowcase" target="_parent">
<polygon fill="#9090ff" stroke="black" points="378.5,-74 260.5,-74 260.5,-55 378.5,-55 378.5,-74"/>
<text text-anchor="middle" x="319.5" y="-62" font-family="Helvetica,sans-Serif" font-size="10.00">MultiRadioShowcase</text>
</a>
</g>
</g>
<!-- Ieee80211ScalarRadioMedium -->
<g id="node2" class="node">
<title>Ieee80211ScalarRadioMedium</title>
<g id="a_node2"><a xlink:href="inet.physicallayer.wireless.ieee80211.packetlevel.Ieee80211ScalarRadioMedium.html" xlink:title="Compound Module Ieee80211ScalarRadioMedium" target="_parent">
<polygon fill="#fffcaf" stroke="black" points="165,-19 0,-19 0,0 165,0 165,-19"/>
<text text-anchor="middle" x="82.5" y="-7" font-family="Helvetica,sans-Serif" font-size="10.00">Ieee80211ScalarRadioMedium</text>
</a>
</g>
</g>
<!-- MultiRadioShowcase&#45;&gt;Ieee80211ScalarRadioMedium -->
<g id="edge1" class="edge">
<title>MultiRadioShowcase&#45;&gt;Ieee80211ScalarRadioMedium</title>
<path fill="none" stroke="black" d="M281.42,-54.98C240.51,-45.84 175.39,-31.27 130.88,-21.32"/>
<polygon fill="black" stroke="black" points="131.4,-17.85 120.88,-19.08 129.87,-24.68 131.4,-17.85"/>
</g>
<!-- WirelessHost -->
<g id="node3" class="node">
<title>WirelessHost</title>
<g id="a_node3"><a xlink:href="inet.node.inet.WirelessHost.html" xlink:title="Compound Module WirelessHost" target="_parent">
<polygon fill="#fffcaf" stroke="black" points="264,-19 183,-19 183,0 264,0 264,-19"/>
<text text-anchor="middle" x="223.5" y="-7" font-family="Helvetica,sans-Serif" font-size="10.00">WirelessHost</text>
</a>
</g>
</g>
<!-- MultiRadioShowcase&#45;&gt;WirelessHost -->
<g id="edge2" class="edge">
<title>MultiRadioShowcase&#45;&gt;WirelessHost</title>
<path fill="none" stroke="black" d="M304.08,-54.98C289.05,-46.69 265.96,-33.94 248.34,-24.22"/>
<polygon fill="black" stroke="black" points="249.65,-20.94 239.2,-19.17 246.27,-27.07 249.65,-20.94"/>
</g>
<!-- AccessPoint -->
<g id="node4" class="node">
<title>AccessPoint</title>
<g id="a_node4"><a xlink:href="inet.node.wireless.AccessPoint.html" xlink:title="Compound Module AccessPoint" target="_parent">
<polygon fill="#fffcaf" stroke="black" points="357,-19 282,-19 282,0 357,0 357,-19"/>
<text text-anchor="middle" x="319.5" y="-7" font-family="Helvetica,sans-Serif" font-size="10.00">AccessPoint</text>
</a>
</g>
</g>
<!-- MultiRadioShowcase&#45;&gt;AccessPoint -->
<g id="edge3" class="edge">
<title>MultiRadioShowcase&#45;&gt;AccessPoint</title>
<path fill="none" stroke="black" d="M319.5,-54.75C319.5,-47.8 319.5,-37.85 319.5,-29.13"/>
<polygon fill="black" stroke="black" points="323,-29.09 319.5,-19.09 316,-29.09 323,-29.09"/>
</g>
<!-- Ipv4NetworkConfigurator -->
<g id="node5" class="node">
<title>Ipv4NetworkConfigurator</title>
<g id="a_node5"><a xlink:href="inet.networklayer.configurator.ipv4.Ipv4NetworkConfigurator.html" xlink:title="Simple Module Ipv4NetworkConfigurator" target="_parent">
<polygon fill="#fffcaf" stroke="black" points="514,-19 375,-19 375,0 514,0 514,-19"/>
<text text-anchor="middle" x="444.5" y="-7" font-family="Helvetica,sans-Serif" font-size="10.00">Ipv4NetworkConfigurator</text>
</a>
</g>
</g>
<!-- MultiRadioShowcase&#45;&gt;Ipv4NetworkConfigurator -->
<g id="edge4" class="edge">
<title>MultiRadioShowcase&#45;&gt;Ipv4NetworkConfigurator</title>
<path fill="none" stroke="black" d="M339.58,-54.98C359.87,-46.38 391.46,-32.99 414.67,-23.15"/>
<polygon fill="black" stroke="black" points="416.21,-26.3 424.05,-19.17 413.48,-19.85 416.21,-26.3"/>
</g>
<!-- IntegratedMultiCanvasVisualizer -->
<g id="node6" class="node">
<title>IntegratedMultiCanvasVisualizer</title>
<g id="a_node6"><a xlink:href="inet.visualizer.canvas.integrated.IntegratedMultiCanvasVisualizer.html" xlink:title="Compound Module IntegratedMultiCanvasVisualizer" target="_parent">
<polygon fill="#fffcaf" stroke="black" points="708.5,-19 532.5,-19 532.5,0 708.5,0 708.5,-19"/>
<text text-anchor="middle" x="620.5" y="-7" font-family="Helvetica,sans-Serif" font-size="10.00">IntegratedMultiCanvasVisualizer</text>
</a>
</g>
</g>
<!-- MultiRadioShowcase&#45;&gt;IntegratedMultiCanvasVisualizer -->
<g id="edge5" class="edge">
<title>MultiRadioShowcase&#45;&gt;IntegratedMultiCanvasVisualizer</title>
<path fill="none" stroke="black" d="M367.86,-54.98C420.69,-45.68 505.32,-30.78 561.89,-20.82"/>
<polygon fill="black" stroke="black" points="562.52,-24.26 571.76,-19.08 561.3,-17.37 562.52,-24.26"/>
</g>
</g>
</svg>
