<?xml version="1.0" encoding="UTF-8" standalone="no"?>
<!DOCTYPE svg PUBLIC "-//W3C//DTD SVG 1.1//EN"
 "http://www.w3.org/Graphics/SVG/1.1/DTD/svg11.dtd">
<!-- Generated by graphviz version 2.43.0 (0)
 -->
<!-- Title: opp Pages: 1 -->
<svg width="236pt" height="82pt"
 viewBox="0.00 0.00 236.00 82.00" xmlns="http://www.w3.org/2000/svg" xmlns:xlink="http://www.w3.org/1999/xlink">
<g id="graph0" class="graph" transform="scale(1 1) rotate(0) translate(4 78)">
<title>opp</title>
<polygon fill="transparent" stroke="transparent" points="-4,4 -4,-78 232,-78 232,4 -4,4"/>
<!-- ChannelThroughputMeasurementShowcase -->
<g id="node1" class="node">
<title>ChannelThroughputMeasurementShowcase</title>
<g id="a_node1"><a xlink:href="inet.showcases.measurement.throughput.ChannelThroughputMeasurementShowcase.html" xlink:title="Network ChannelThroughputMeasurementShowcase" target="_parent">
<polygon fill="#9090ff" stroke="black" points="228,-74 0,-74 0,-55 228,-55 228,-74"/>
<text text-anchor="middle" x="114" y="-62" font-family="Helvetica,sans-Serif" font-size="10.00">ChannelThroughputMeasurementShowcase</text>
</a>
</g>
</g>
<!-- StandardHost -->
<g id="node2" class="node">
<title>StandardHost</title>
<g id="a_node2"><a xlink:href="inet.node.inet.StandardHost.html" xlink:title="Compound Module StandardHost" target="_parent">
<polygon fill="#fffcaf" stroke="black" points="106.5,-19 23.5,-19 23.5,0 106.5,0 106.5,-19"/>
<text text-anchor="middle" x="65" y="-7" font-family="Helvetica,sans-Serif" font-size="10.00">StandardHost</text>
</a>
</g>
</g>
<!-- ChannelThroughputMeasurementShowcase&#45;&gt;StandardHost -->
<g id="edge1" class="edge">
<title>ChannelThroughputMeasurementShowcase&#45;&gt;StandardHost</title>
<path fill="none" stroke="black" d="M105.91,-54.75C98.84,-47.11 88.41,-35.82 79.85,-26.56"/>
<polygon fill="black" stroke="black" points="82.3,-24.06 72.94,-19.09 77.16,-28.81 82.3,-24.06"/>
</g>
<!-- EthernetLink -->
<g id="node3" class="node">
<title>EthernetLink</title>
<g id="a_node3"><a xlink:href="inet.node.ethernet.EthernetLink.html" xlink:title="Channel EthernetLink" target="_parent">
<polygon fill="#d0ffd0" stroke="black" points="203,-19 125,-19 125,0 203,0 203,-19"/>
<text text-anchor="middle" x="164" y="-7" font-family="Helvetica,sans-Serif" font-size="10.00">EthernetLink</text>
</a>
</g>
</g>
<!-- ChannelThroughputMeasurementShowcase&#45;&gt;EthernetLink -->
<g id="edge2" class="edge">
<title>ChannelThroughputMeasurementShowcase&#45;&gt;EthernetLink</title>
<path fill="none" stroke="black" d="M122.26,-54.75C129.46,-47.11 140.11,-35.82 148.85,-26.56"/>
<polygon fill="black" stroke="black" points="151.58,-28.76 155.9,-19.09 146.49,-23.96 151.58,-28.76"/>
</g>
</g>
</svg>
