<?xml version="1.0" encoding="UTF-8" standalone="no"?>
<!DOCTYPE svg PUBLIC "-//W3C//DTD SVG 1.1//EN"
 "http://www.w3.org/Graphics/SVG/1.1/DTD/svg11.dtd">
<!-- Generated by graphviz version 2.43.0 (0)
 -->
<!-- Title: opp Pages: 1 -->
<svg width="548pt" height="137pt"
 viewBox="0.00 0.00 548.00 137.00" xmlns="http://www.w3.org/2000/svg" xmlns:xlink="http://www.w3.org/1999/xlink">
<g id="graph0" class="graph" transform="scale(1 1) rotate(0) translate(4 133)">
<title>opp</title>
<polygon fill="transparent" stroke="transparent" points="-4,4 -4,-133 544,-133 544,4 -4,4"/>
<!-- ManetRouter -->
<g id="node1" class="node">
<title>ManetRouter</title>
<g id="a_node1"><a xlink:href="inet.node.inet.ManetRouter.html" xlink:title="Compound Module ManetRouter" target="_parent">
<polygon fill="#fff700" stroke="black" points="340,-74 260,-74 260,-55 340,-55 340,-74"/>
<text text-anchor="middle" x="300" y="-62" font-family="Helvetica,sans-Serif" font-size="10.00">ManetRouter</text>
</a>
</g>
</g>
<!-- IManetRouting -->
<g id="node2" class="node">
<title>IManetRouting</title>
<g id="a_node2"><a xlink:href="inet.routing.contract.IManetRouting.html" xlink:title="Module Interface IManetRouting" target="_parent">
<polygon fill="#fffcaf" stroke="black" stroke-dasharray="5,2" points="255,-19 167,-19 167,0 255,0 255,-19"/>
<text text-anchor="middle" x="211" y="-7" font-family="Helvetica,sans-Serif" font-size="10.00">IManetRouting</text>
</a>
</g>
</g>
<!-- ManetRouter&#45;&gt;IManetRouting -->
<g id="edge1" class="edge">
<title>ManetRouter&#45;&gt;IManetRouting</title>
<path fill="none" stroke="black" d="M285.7,-54.98C271.9,-46.77 250.76,-34.18 234.49,-24.49"/>
<polygon fill="black" stroke="black" points="235.94,-21.28 225.56,-19.17 232.36,-27.29 235.94,-21.28"/>
</g>
<!-- IApp -->
<g id="node3" class="node">
<title>IApp</title>
<g id="a_node3"><a xlink:href="inet.applications.contract.IApp.html" xlink:title="Module Interface IApp" target="_parent">
<polygon fill="#fffcaf" stroke="black" stroke-dasharray="5,2" points="327,-19 273,-19 273,0 327,0 327,-19"/>
<text text-anchor="middle" x="300" y="-7" font-family="Helvetica,sans-Serif" font-size="10.00">IApp</text>
</a>
</g>
</g>
<!-- ManetRouter&#45;&gt;IApp -->
<g id="edge2" class="edge">
<title>ManetRouter&#45;&gt;IApp</title>
<path fill="none" stroke="black" d="M300,-54.75C300,-47.8 300,-37.85 300,-29.13"/>
<polygon fill="black" stroke="black" points="303.5,-29.09 300,-19.09 296.5,-29.09 303.5,-29.09"/>
</g>
<!-- IdealChannel -->
<g id="node4" class="node">
<title>IdealChannel</title>
<g id="a_node4"><a xlink:href="ned.IdealChannel.html" xlink:title="Channel IdealChannel" target="_parent">
<polygon fill="#d0ffd0" stroke="black" points="425,-19 345,-19 345,0 425,0 425,-19"/>
<text text-anchor="middle" x="385" y="-7" font-family="Helvetica,sans-Serif" font-size="10.00">IdealChannel</text>
</a>
</g>
</g>
<!-- ManetRouter&#45;&gt;IdealChannel -->
<g id="edge3" class="edge">
<title>ManetRouter&#45;&gt;IdealChannel</title>
<path fill="none" stroke="black" d="M313.66,-54.98C326.84,-46.77 347.03,-34.18 362.57,-24.49"/>
<polygon fill="black" stroke="black" points="364.46,-27.43 371.09,-19.17 360.76,-21.49 364.46,-27.43"/>
</g>
<!-- AnalogModelShowcaseRoutingNetwork -->
<g id="node5" class="node">
<title>AnalogModelShowcaseRoutingNetwork</title>
<g id="a_node5"><a xlink:href="inet.showcases.wireless.analogmodel.AnalogModelShowcaseRoutingNetwork.html" xlink:title="Network AnalogModelShowcaseRoutingNetwork" target="_parent">
<polygon fill="#d0d0ff" stroke="black" points="208,-129 0,-129 0,-110 208,-110 208,-129"/>
<text text-anchor="middle" x="104" y="-117" font-family="Helvetica,sans-Serif" font-size="10.00">AnalogModelShowcaseRoutingNetwork</text>
</a>
</g>
</g>
<!-- AnalogModelShowcaseRoutingNetwork&#45;&gt;ManetRouter -->
<g id="edge4" class="edge">
<title>AnalogModelShowcaseRoutingNetwork&#45;&gt;ManetRouter</title>
<path fill="none" stroke="black" d="M135.49,-109.98C168.82,-100.97 221.6,-86.7 258.35,-76.76"/>
<polygon fill="black" stroke="black" points="259.52,-80.07 268.26,-74.08 257.7,-73.31 259.52,-80.07"/>
</g>
<!-- ManetprotocolsShowcaseA -->
<g id="node6" class="node">
<title>ManetprotocolsShowcaseA</title>
<g id="a_node6"><a xlink:href="inet.showcases.routing.manet.ManetprotocolsShowcaseA.html" xlink:title="Network ManetprotocolsShowcaseA" target="_parent">
<polygon fill="#d0d0ff" stroke="black" points="374,-129 226,-129 226,-110 374,-110 374,-129"/>
<text text-anchor="middle" x="300" y="-117" font-family="Helvetica,sans-Serif" font-size="10.00">ManetprotocolsShowcaseA</text>
</a>
</g>
</g>
<!-- ManetprotocolsShowcaseA&#45;&gt;ManetRouter -->
<g id="edge5" class="edge">
<title>ManetprotocolsShowcaseA&#45;&gt;ManetRouter</title>
<path fill="none" stroke="black" d="M300,-109.75C300,-102.8 300,-92.85 300,-84.13"/>
<polygon fill="black" stroke="black" points="303.5,-84.09 300,-74.09 296.5,-84.09 303.5,-84.09"/>
</g>
<!-- ManetprotocolsShowcaseB -->
<g id="node7" class="node">
<title>ManetprotocolsShowcaseB</title>
<g id="a_node7"><a xlink:href="inet.showcases.routing.manet.ManetprotocolsShowcaseB.html" xlink:title="Network ManetprotocolsShowcaseB" target="_parent">
<polygon fill="#d0d0ff" stroke="black" points="540,-129 392,-129 392,-110 540,-110 540,-129"/>
<text text-anchor="middle" x="466" y="-117" font-family="Helvetica,sans-Serif" font-size="10.00">ManetprotocolsShowcaseB</text>
</a>
</g>
</g>
<!-- ManetprotocolsShowcaseB&#45;&gt;ManetRouter -->
<g id="edge6" class="edge">
<title>ManetprotocolsShowcaseB&#45;&gt;ManetRouter</title>
<path fill="none" stroke="black" d="M439.33,-109.98C411.46,-101.09 367.55,-87.07 336.48,-77.15"/>
<polygon fill="black" stroke="black" points="337.47,-73.79 326.88,-74.08 335.34,-80.46 337.47,-73.79"/>
</g>
</g>
</svg>
