<?xml version="1.0" encoding="UTF-8" standalone="no"?>
<!DOCTYPE svg PUBLIC "-//W3C//DTD SVG 1.1//EN"
 "http://www.w3.org/Graphics/SVG/1.1/DTD/svg11.dtd">
<!-- Generated by graphviz version 2.43.0 (0)
 -->
<!-- Title: opp Pages: 1 -->
<svg width="323pt" height="82pt"
 viewBox="0.00 0.00 323.00 82.00" xmlns="http://www.w3.org/2000/svg" xmlns:xlink="http://www.w3.org/1999/xlink">
<g id="graph0" class="graph" transform="scale(1 1) rotate(0) translate(4 78)">
<title>opp</title>
<polygon fill="transparent" stroke="transparent" points="-4,4 -4,-78 319,-78 319,4 -4,4"/>
<!-- v3_3_areas -->
<g id="node1" class="node">
<title>v3_3_areas</title>
<g id="a_node1"><a xlink:href="inet.examples.ospfv3.v3_3_areas.v3_3_areas.html" xlink:title="Network v3_3_areas" target="_parent">
<polygon fill="#9090ff" stroke="black" points="221.5,-74 149.5,-74 149.5,-55 221.5,-55 221.5,-74"/>
<text text-anchor="middle" x="185.5" y="-62" font-family="Helvetica,sans-Serif" font-size="10.00">v3_3_areas</text>
</a>
</g>
</g>
<!-- Ipv4NetworkConfigurator -->
<g id="node2" class="node">
<title>Ipv4NetworkConfigurator</title>
<g id="a_node2"><a xlink:href="inet.networklayer.configurator.ipv4.Ipv4NetworkConfigurator.html" xlink:title="Simple Module Ipv4NetworkConfigurator" target="_parent">
<polygon fill="#fffcaf" stroke="black" points="139,-19 0,-19 0,0 139,0 139,-19"/>
<text text-anchor="middle" x="69.5" y="-7" font-family="Helvetica,sans-Serif" font-size="10.00">Ipv4NetworkConfigurator</text>
</a>
</g>
</g>
<!-- v3_3_areas&#45;&gt;Ipv4NetworkConfigurator -->
<g id="edge1" class="edge">
<title>v3_3_areas&#45;&gt;Ipv4NetworkConfigurator</title>
<path fill="none" stroke="black" d="M166.86,-54.98C148.2,-46.46 119.25,-33.23 97.76,-23.41"/>
<polygon fill="black" stroke="black" points="99.03,-20.14 88.48,-19.17 96.12,-26.51 99.03,-20.14"/>
</g>
<!-- Channel -->
<g id="node3" class="node">
<title>Channel</title>
<g id="a_node3"><a xlink:href="inet.examples.ospfv3.v3_3_areas.v3_3_areas.Channel.html" xlink:title="Channel Channel" target="_parent">
<polygon fill="#d0ffd0" stroke="black" points="213.5,-19 157.5,-19 157.5,0 213.5,0 213.5,-19"/>
<text text-anchor="middle" x="185.5" y="-7" font-family="Helvetica,sans-Serif" font-size="10.00">Channel</text>
</a>
</g>
</g>
<!-- v3_3_areas&#45;&gt;Channel -->
<g id="edge2" class="edge">
<title>v3_3_areas&#45;&gt;Channel</title>
<path fill="none" stroke="black" d="M185.5,-54.75C185.5,-47.8 185.5,-37.85 185.5,-29.13"/>
<polygon fill="black" stroke="black" points="189,-29.09 185.5,-19.09 182,-29.09 189,-29.09"/>
</g>
<!-- Ospfv3Router -->
<g id="node4" class="node">
<title>Ospfv3Router</title>
<g id="a_node4"><a xlink:href="inet.node.ospfv3.Ospfv3Router.html" xlink:title="Compound Module Ospfv3Router" target="_parent">
<polygon fill="#fffcaf" stroke="black" points="315,-19 232,-19 232,0 315,0 315,-19"/>
<text text-anchor="middle" x="273.5" y="-7" font-family="Helvetica,sans-Serif" font-size="10.00">Ospfv3Router</text>
</a>
</g>
</g>
<!-- v3_3_areas&#45;&gt;Ospfv3Router -->
<g id="edge3" class="edge">
<title>v3_3_areas&#45;&gt;Ospfv3Router</title>
<path fill="none" stroke="black" d="M199.64,-54.98C213.29,-46.77 234.19,-34.18 250.28,-24.49"/>
<polygon fill="black" stroke="black" points="252.34,-27.33 259.1,-19.17 248.73,-21.33 252.34,-27.33"/>
</g>
</g>
</svg>
