<?xml version="1.0" encoding="UTF-8" standalone="no"?>
<!DOCTYPE svg PUBLIC "-//W3C//DTD SVG 1.1//EN"
 "http://www.w3.org/Graphics/SVG/1.1/DTD/svg11.dtd">
<!-- Generated by graphviz version 2.43.0 (0)
 -->
<!-- Title: opp Pages: 1 -->
<svg width="849pt" height="82pt"
 viewBox="0.00 0.00 848.50 82.00" xmlns="http://www.w3.org/2000/svg" xmlns:xlink="http://www.w3.org/1999/xlink">
<g id="graph0" class="graph" transform="scale(1 1) rotate(0) translate(4 78)">
<title>opp</title>
<polygon fill="transparent" stroke="transparent" points="-4,4 -4,-78 844.5,-78 844.5,4 -4,4"/>
<!-- MultiRadio -->
<g id="node1" class="node">
<title>MultiRadio</title>
<g id="a_node1"><a xlink:href="inet.examples.wireless.multiradio.MultiRadio.html" xlink:title="Network MultiRadio" target="_parent">
<polygon fill="#9090ff" stroke="black" points="503,-74 434,-74 434,-55 503,-55 503,-74"/>
<text text-anchor="middle" x="468.5" y="-62" font-family="Helvetica,sans-Serif" font-size="10.00">MultiRadio</text>
</a>
</g>
</g>
<!-- Ieee80211ScalarRadioMedium -->
<g id="node2" class="node">
<title>Ieee80211ScalarRadioMedium</title>
<g id="a_node2"><a xlink:href="inet.physicallayer.wireless.ieee80211.packetlevel.Ieee80211ScalarRadioMedium.html" xlink:title="Compound Module Ieee80211ScalarRadioMedium" target="_parent">
<polygon fill="#fffcaf" stroke="black" points="165,-19 0,-19 0,0 165,0 165,-19"/>
<text text-anchor="middle" x="82.5" y="-7" font-family="Helvetica,sans-Serif" font-size="10.00">Ieee80211ScalarRadioMedium</text>
</a>
</g>
</g>
<!-- MultiRadio&#45;&gt;Ieee80211ScalarRadioMedium -->
<g id="edge1" class="edge">
<title>MultiRadio&#45;&gt;Ieee80211ScalarRadioMedium</title>
<path fill="none" stroke="black" d="M433.91,-58.75C371.29,-50.15 237.94,-31.84 154.71,-20.42"/>
<polygon fill="black" stroke="black" points="154.95,-16.92 144.57,-19.02 154,-23.85 154.95,-16.92"/>
</g>
<!-- IIntegratedVisualizer -->
<g id="node3" class="node">
<title>IIntegratedVisualizer</title>
<g id="a_node3"><a xlink:href="inet.visualizer.contract.IIntegratedVisualizer.html" xlink:title="Module Interface IIntegratedVisualizer" target="_parent">
<polygon fill="#fffcaf" stroke="black" stroke-dasharray="5,2" points="301.5,-19 183.5,-19 183.5,0 301.5,0 301.5,-19"/>
<text text-anchor="middle" x="242.5" y="-7" font-family="Helvetica,sans-Serif" font-size="10.00">IIntegratedVisualizer</text>
</a>
</g>
</g>
<!-- MultiRadio&#45;&gt;IIntegratedVisualizer -->
<g id="edge2" class="edge">
<title>MultiRadio&#45;&gt;IIntegratedVisualizer</title>
<path fill="none" stroke="black" d="M433.68,-55.33C394.82,-46.22 331.77,-31.44 288.78,-21.35"/>
<polygon fill="black" stroke="black" points="289.39,-17.9 278.85,-19.03 287.79,-24.72 289.39,-17.9"/>
</g>
<!-- WirelessHost -->
<g id="node4" class="node">
<title>WirelessHost</title>
<g id="a_node4"><a xlink:href="inet.node.inet.WirelessHost.html" xlink:title="Compound Module WirelessHost" target="_parent">
<polygon fill="#fffcaf" stroke="black" points="401,-19 320,-19 320,0 401,0 401,-19"/>
<text text-anchor="middle" x="360.5" y="-7" font-family="Helvetica,sans-Serif" font-size="10.00">WirelessHost</text>
</a>
</g>
</g>
<!-- MultiRadio&#45;&gt;WirelessHost -->
<g id="edge3" class="edge">
<title>MultiRadio&#45;&gt;WirelessHost</title>
<path fill="none" stroke="black" d="M451.15,-54.98C433.93,-46.54 407.3,-33.47 387.35,-23.68"/>
<polygon fill="black" stroke="black" points="388.69,-20.43 378.17,-19.17 385.6,-26.72 388.69,-20.43"/>
</g>
<!-- DatarateChannel -->
<g id="node5" class="node">
<title>DatarateChannel</title>
<g id="a_node5"><a xlink:href="ned.DatarateChannel.html" xlink:title="Channel DatarateChannel" target="_parent">
<polygon fill="#d0ffd0" stroke="black" points="518,-19 419,-19 419,0 518,0 518,-19"/>
<text text-anchor="middle" x="468.5" y="-7" font-family="Helvetica,sans-Serif" font-size="10.00">DatarateChannel</text>
</a>
</g>
</g>
<!-- MultiRadio&#45;&gt;DatarateChannel -->
<g id="edge4" class="edge">
<title>MultiRadio&#45;&gt;DatarateChannel</title>
<path fill="none" stroke="black" d="M468.5,-54.75C468.5,-47.8 468.5,-37.85 468.5,-29.13"/>
<polygon fill="black" stroke="black" points="472,-29.09 468.5,-19.09 465,-29.09 472,-29.09"/>
</g>
<!-- AccessPoint -->
<g id="node6" class="node">
<title>AccessPoint</title>
<g id="a_node6"><a xlink:href="inet.node.wireless.AccessPoint.html" xlink:title="Compound Module AccessPoint" target="_parent">
<polygon fill="#fffcaf" stroke="black" points="611,-19 536,-19 536,0 611,0 611,-19"/>
<text text-anchor="middle" x="573.5" y="-7" font-family="Helvetica,sans-Serif" font-size="10.00">AccessPoint</text>
</a>
</g>
</g>
<!-- MultiRadio&#45;&gt;AccessPoint -->
<g id="edge5" class="edge">
<title>MultiRadio&#45;&gt;AccessPoint</title>
<path fill="none" stroke="black" d="M485.37,-54.98C502.11,-46.54 528,-33.47 547.39,-23.68"/>
<polygon fill="black" stroke="black" points="548.97,-26.8 556.32,-19.17 545.82,-20.55 548.97,-26.8"/>
</g>
<!-- Ipv4NetworkConfigurator -->
<g id="node7" class="node">
<title>Ipv4NetworkConfigurator</title>
<g id="a_node7"><a xlink:href="inet.networklayer.configurator.ipv4.Ipv4NetworkConfigurator.html" xlink:title="Simple Module Ipv4NetworkConfigurator" target="_parent">
<polygon fill="#fffcaf" stroke="black" points="768,-19 629,-19 629,0 768,0 768,-19"/>
<text text-anchor="middle" x="698.5" y="-7" font-family="Helvetica,sans-Serif" font-size="10.00">Ipv4NetworkConfigurator</text>
</a>
</g>
</g>
<!-- MultiRadio&#45;&gt;Ipv4NetworkConfigurator -->
<g id="edge6" class="edge">
<title>MultiRadio&#45;&gt;Ipv4NetworkConfigurator</title>
<path fill="none" stroke="black" d="M503.43,-55.45C542.95,-46.34 607.53,-31.46 651.46,-21.34"/>
<polygon fill="black" stroke="black" points="652.37,-24.72 661.33,-19.07 650.8,-17.9 652.37,-24.72"/>
</g>
<!-- Router -->
<g id="node8" class="node">
<title>Router</title>
<g id="a_node8"><a xlink:href="inet.node.inet.Router.html" xlink:title="Compound Module Router" target="_parent">
<polygon fill="#fffcaf" stroke="black" points="840.5,-19 786.5,-19 786.5,0 840.5,0 840.5,-19"/>
<text text-anchor="middle" x="813.5" y="-7" font-family="Helvetica,sans-Serif" font-size="10.00">Router</text>
</a>
</g>
</g>
<!-- MultiRadio&#45;&gt;Router -->
<g id="edge7" class="edge">
<title>MultiRadio&#45;&gt;Router</title>
<path fill="none" stroke="black" d="M503.42,-59.5C559.06,-52.9 671.41,-38.66 776.3,-19.08"/>
<polygon fill="black" stroke="black" points="777.25,-22.46 786.43,-17.16 775.95,-15.58 777.25,-22.46"/>
</g>
</g>
</svg>
