<?xml version="1.0" encoding="UTF-8" standalone="no"?>
<!DOCTYPE svg PUBLIC "-//W3C//DTD SVG 1.1//EN"
 "http://www.w3.org/Graphics/SVG/1.1/DTD/svg11.dtd">
<!-- Generated by graphviz version 2.43.0 (0)
 -->
<!-- Title: opp Pages: 1 -->
<svg width="442pt" height="82pt"
 viewBox="0.00 0.00 442.00 82.00" xmlns="http://www.w3.org/2000/svg" xmlns:xlink="http://www.w3.org/1999/xlink">
<g id="graph0" class="graph" transform="scale(1 1) rotate(0) translate(4 78)">
<title>opp</title>
<polygon fill="transparent" stroke="transparent" points="-4,4 -4,-78 438,-78 438,4 -4,4"/>
<!-- WrrSchedulerTutorialStep -->
<g id="node1" class="node">
<title>WrrSchedulerTutorialStep</title>
<g id="a_node1"><a xlink:href="inet.tutorials.queueing.WrrSchedulerTutorialStep.html" xlink:title="Network WrrSchedulerTutorialStep" target="_parent">
<polygon fill="#9090ff" stroke="black" points="300,-74 160,-74 160,-55 300,-55 300,-74"/>
<text text-anchor="middle" x="230" y="-62" font-family="Helvetica,sans-Serif" font-size="10.00">WrrSchedulerTutorialStep</text>
</a>
</g>
</g>
<!-- PassivePacketSource -->
<g id="node2" class="node">
<title>PassivePacketSource</title>
<g id="a_node2"><a xlink:href="inet.queueing.source.PassivePacketSource.html" xlink:title="Simple Module PassivePacketSource" target="_parent">
<polygon fill="#fffcaf" stroke="black" points="118,-19 0,-19 0,0 118,0 118,-19"/>
<text text-anchor="middle" x="59" y="-7" font-family="Helvetica,sans-Serif" font-size="10.00">PassivePacketSource</text>
</a>
</g>
</g>
<!-- WrrSchedulerTutorialStep&#45;&gt;PassivePacketSource -->
<g id="edge1" class="edge">
<title>WrrSchedulerTutorialStep&#45;&gt;PassivePacketSource</title>
<path fill="none" stroke="black" d="M202.53,-54.98C173.82,-46.09 128.58,-32.07 96.58,-22.15"/>
<polygon fill="black" stroke="black" points="97.28,-18.7 86.69,-19.08 95.2,-25.39 97.28,-18.7"/>
</g>
<!-- IdealChannel -->
<g id="node3" class="node">
<title>IdealChannel</title>
<g id="a_node3"><a xlink:href="ned.IdealChannel.html" xlink:title="Channel IdealChannel" target="_parent">
<polygon fill="#d0ffd0" stroke="black" points="216,-19 136,-19 136,0 216,0 216,-19"/>
<text text-anchor="middle" x="176" y="-7" font-family="Helvetica,sans-Serif" font-size="10.00">IdealChannel</text>
</a>
</g>
</g>
<!-- WrrSchedulerTutorialStep&#45;&gt;IdealChannel -->
<g id="edge2" class="edge">
<title>WrrSchedulerTutorialStep&#45;&gt;IdealChannel</title>
<path fill="none" stroke="black" d="M221.08,-54.75C213.22,-47.03 201.57,-35.6 192.08,-26.28"/>
<polygon fill="black" stroke="black" points="194.34,-23.6 184.75,-19.09 189.44,-28.59 194.34,-23.6"/>
</g>
<!-- ActivePacketSink -->
<g id="node4" class="node">
<title>ActivePacketSink</title>
<g id="a_node4"><a xlink:href="inet.queueing.sink.ActivePacketSink.html" xlink:title="Simple Module ActivePacketSink" target="_parent">
<polygon fill="#fffcaf" stroke="black" points="334,-19 234,-19 234,0 334,0 334,-19"/>
<text text-anchor="middle" x="284" y="-7" font-family="Helvetica,sans-Serif" font-size="10.00">ActivePacketSink</text>
</a>
</g>
</g>
<!-- WrrSchedulerTutorialStep&#45;&gt;ActivePacketSink -->
<g id="edge3" class="edge">
<title>WrrSchedulerTutorialStep&#45;&gt;ActivePacketSink</title>
<path fill="none" stroke="black" d="M238.92,-54.75C246.78,-47.03 258.43,-35.6 267.92,-26.28"/>
<polygon fill="black" stroke="black" points="270.56,-28.59 275.25,-19.09 265.66,-23.6 270.56,-28.59"/>
</g>
<!-- WrrScheduler -->
<g id="node5" class="node">
<title>WrrScheduler</title>
<g id="a_node5"><a xlink:href="inet.queueing.scheduler.WrrScheduler.html" xlink:title="Simple Module WrrScheduler" target="_parent">
<polygon fill="#fffcaf" stroke="black" points="434,-19 352,-19 352,0 434,0 434,-19"/>
<text text-anchor="middle" x="393" y="-7" font-family="Helvetica,sans-Serif" font-size="10.00">WrrScheduler</text>
</a>
</g>
</g>
<!-- WrrSchedulerTutorialStep&#45;&gt;WrrScheduler -->
<g id="edge4" class="edge">
<title>WrrSchedulerTutorialStep&#45;&gt;WrrScheduler</title>
<path fill="none" stroke="black" d="M256.19,-54.98C283.44,-46.13 326.3,-32.19 356.78,-22.28"/>
<polygon fill="black" stroke="black" points="358.18,-25.5 366.61,-19.08 356.01,-18.85 358.18,-25.5"/>
</g>
</g>
</svg>
