<?xml version="1.0" encoding="UTF-8" standalone="no"?>
<!DOCTYPE svg PUBLIC "-//W3C//DTD SVG 1.1//EN"
 "http://www.w3.org/Graphics/SVG/1.1/DTD/svg11.dtd">
<!-- Generated by graphviz version 2.43.0 (0)
 -->
<!-- Title: opp Pages: 1 -->
<svg width="218pt" height="82pt"
 viewBox="0.00 0.00 217.50 82.00" xmlns="http://www.w3.org/2000/svg" xmlns:xlink="http://www.w3.org/1999/xlink">
<g id="graph0" class="graph" transform="scale(1 1) rotate(0) translate(4 78)">
<title>opp</title>
<polygon fill="transparent" stroke="transparent" points="-4,4 -4,-78 213.5,-78 213.5,4 -4,4"/>
<!-- PacketLabeler -->
<g id="node1" class="node">
<title>PacketLabeler</title>
<g id="a_node1"><a xlink:href="inet.queueing.marker.PacketLabeler.html" xlink:title="Simple Module PacketLabeler" target="_parent">
<polygon fill="#fff700" stroke="black" points="152,-19 68,-19 68,0 152,0 152,-19"/>
<text text-anchor="middle" x="110" y="-7" font-family="Helvetica,sans-Serif" font-size="10.00">PacketLabeler</text>
</a>
</g>
</g>
<!-- PacketMarkerBase -->
<g id="node2" class="node">
<title>PacketMarkerBase</title>
<g id="a_node2"><a xlink:href="inet.queueing.base.PacketMarkerBase.html" xlink:title="Simple Module PacketMarkerBase" target="_parent">
<polygon fill="#fffcaf" stroke="black" points="106,-74 0,-74 0,-55 106,-55 106,-74"/>
<text text-anchor="middle" x="53" y="-62" font-family="Helvetica,sans-Serif" font-size="10.00">PacketMarkerBase</text>
</a>
</g>
</g>
<!-- PacketMarkerBase&#45;&gt;PacketLabeler -->
<g id="edge1" class="edge">
<title>PacketMarkerBase&#45;&gt;PacketLabeler</title>
<path fill="none" stroke="black" d="M62.16,-54.98C72.73,-45.15 90.03,-29.07 100.68,-19.17"/>
</g>
<!-- IPacketMarker -->
<g id="node3" class="node">
<title>IPacketMarker</title>
<g id="a_node3"><a xlink:href="inet.queueing.contract.IPacketMarker.html" xlink:title="Module Interface IPacketMarker" target="_parent">
<polygon fill="#fffcaf" stroke="black" stroke-dasharray="5,2" points="209.5,-74 124.5,-74 124.5,-55 209.5,-55 209.5,-74"/>
<text text-anchor="middle" x="167" y="-62" font-family="Helvetica,sans-Serif" font-size="10.00">IPacketMarker</text>
</a>
</g>
</g>
<!-- IPacketMarker&#45;&gt;PacketLabeler -->
<g id="edge2" class="edge">
<title>IPacketMarker&#45;&gt;PacketLabeler</title>
<path fill="none" stroke="black" stroke-dasharray="5,2" d="M157.84,-54.98C147.27,-45.15 129.97,-29.07 119.32,-19.17"/>
</g>
</g>
</svg>
