<?xml version="1.0" encoding="UTF-8" standalone="no"?>
<!DOCTYPE svg PUBLIC "-//W3C//DTD SVG 1.1//EN"
 "http://www.w3.org/Graphics/SVG/1.1/DTD/svg11.dtd">
<!-- Generated by graphviz version 2.43.0 (0)
 -->
<!-- Title: opp Pages: 1 -->
<svg width="514pt" height="137pt"
 viewBox="0.00 0.00 513.50 137.00" xmlns="http://www.w3.org/2000/svg" xmlns:xlink="http://www.w3.org/1999/xlink">
<g id="graph0" class="graph" transform="scale(1 1) rotate(0) translate(4 133)">
<title>opp</title>
<polygon fill="transparent" stroke="transparent" points="-4,4 -4,-133 509.5,-133 509.5,4 -4,4"/>
<!-- IL3NetworkConfigurator -->
<g id="node1" class="node">
<title>IL3NetworkConfigurator</title>
<g id="a_node1"><a xlink:href="inet.networklayer.configurator.contract.IL3NetworkConfigurator.html" xlink:title="Module Interface IL3NetworkConfigurator" target="_parent">
<polygon fill="#fff700" stroke="black" stroke-dasharray="5,2" points="321,-74 189,-74 189,-55 321,-55 321,-74"/>
<text text-anchor="middle" x="255" y="-62" font-family="Helvetica,sans-Serif" font-size="10.00">IL3NetworkConfigurator</text>
</a>
</g>
</g>
<!-- Ipv4FlatNetworkConfigurator -->
<g id="node3" class="node">
<title>Ipv4FlatNetworkConfigurator</title>
<g id="a_node3"><a xlink:href="inet.networklayer.configurator.ipv4.Ipv4FlatNetworkConfigurator.html" xlink:title="Simple Module Ipv4FlatNetworkConfigurator" target="_parent">
<polygon fill="#fffcaf" stroke="black" points="158,-19 0,-19 0,0 158,0 158,-19"/>
<text text-anchor="middle" x="79" y="-7" font-family="Helvetica,sans-Serif" font-size="10.00">Ipv4FlatNetworkConfigurator</text>
</a>
</g>
</g>
<!-- IL3NetworkConfigurator&#45;&gt;Ipv4FlatNetworkConfigurator -->
<g id="edge2" class="edge">
<title>IL3NetworkConfigurator&#45;&gt;Ipv4FlatNetworkConfigurator</title>
<path fill="none" stroke="black" stroke-dasharray="5,2" d="M226.72,-54.98C193.98,-45.12 140.34,-28.97 107.5,-19.08"/>
</g>
<!-- Ipv6FlatNetworkConfigurator -->
<g id="node4" class="node">
<title>Ipv6FlatNetworkConfigurator</title>
<g id="a_node4"><a xlink:href="inet.networklayer.configurator.ipv6.Ipv6FlatNetworkConfigurator.html" xlink:title="Simple Module Ipv6FlatNetworkConfigurator" target="_parent">
<polygon fill="#fffcaf" stroke="black" points="334,-19 176,-19 176,0 334,0 334,-19"/>
<text text-anchor="middle" x="255" y="-7" font-family="Helvetica,sans-Serif" font-size="10.00">Ipv6FlatNetworkConfigurator</text>
</a>
</g>
</g>
<!-- IL3NetworkConfigurator&#45;&gt;Ipv6FlatNetworkConfigurator -->
<g id="edge3" class="edge">
<title>IL3NetworkConfigurator&#45;&gt;Ipv6FlatNetworkConfigurator</title>
<path fill="none" stroke="black" stroke-dasharray="5,2" d="M255,-54.75C255,-44.87 255,-28.9 255,-19.09"/>
</g>
<!-- L3NetworkConfiguratorBase -->
<g id="node5" class="node">
<title>L3NetworkConfiguratorBase</title>
<g id="a_node5"><a xlink:href="inet.networklayer.configurator.base.L3NetworkConfiguratorBase.html" xlink:title="Simple Module L3NetworkConfiguratorBase" target="_parent">
<polygon fill="#fffcaf" stroke="black" points="505.5,-19 352.5,-19 352.5,0 505.5,0 505.5,-19"/>
<text text-anchor="middle" x="429" y="-7" font-family="Helvetica,sans-Serif" font-size="10.00">L3NetworkConfiguratorBase</text>
</a>
</g>
</g>
<!-- IL3NetworkConfigurator&#45;&gt;L3NetworkConfiguratorBase -->
<g id="edge4" class="edge">
<title>IL3NetworkConfigurator&#45;&gt;L3NetworkConfiguratorBase</title>
<path fill="none" stroke="black" stroke-dasharray="5,2" d="M282.96,-54.98C315.33,-45.12 368.36,-28.97 400.82,-19.08"/>
</g>
<!-- INetworkConfigurator -->
<g id="node2" class="node">
<title>INetworkConfigurator</title>
<g id="a_node2"><a xlink:href="inet.networklayer.configurator.contract.INetworkConfigurator.html" xlink:title="Module Interface INetworkConfigurator" target="_parent">
<polygon fill="#fffcaf" stroke="black" stroke-dasharray="5,2" points="315.5,-129 194.5,-129 194.5,-110 315.5,-110 315.5,-129"/>
<text text-anchor="middle" x="255" y="-117" font-family="Helvetica,sans-Serif" font-size="10.00">INetworkConfigurator</text>
</a>
</g>
</g>
<!-- INetworkConfigurator&#45;&gt;IL3NetworkConfigurator -->
<g id="edge1" class="edge">
<title>INetworkConfigurator&#45;&gt;IL3NetworkConfigurator</title>
<path fill="none" stroke="black" d="M255,-109.75C255,-99.87 255,-83.9 255,-74.09"/>
</g>
</g>
</svg>
