<?xml version="1.0" encoding="UTF-8" standalone="no"?>
<!DOCTYPE svg PUBLIC "-//W3C//DTD SVG 1.1//EN"
 "http://www.w3.org/Graphics/SVG/1.1/DTD/svg11.dtd">
<!-- Generated by graphviz version 2.43.0 (0)
 -->
<!-- Title: opp Pages: 1 -->
<svg width="162pt" height="137pt"
 viewBox="0.00 0.00 162.00 137.00" xmlns="http://www.w3.org/2000/svg" xmlns:xlink="http://www.w3.org/1999/xlink">
<g id="graph0" class="graph" transform="scale(1 1) rotate(0) translate(4 133)">
<title>opp</title>
<polygon fill="transparent" stroke="transparent" points="-4,4 -4,-133 158,-133 158,4 -4,4"/>
<!-- EthernetSwitch -->
<g id="node1" class="node">
<title>EthernetSwitch</title>
<g id="a_node1"><a xlink:href="inet.node.ethernet.EthernetSwitch.html" xlink:title="Compound Module EthernetSwitch" target="_parent">
<polygon fill="#fff700" stroke="black" points="123.5,-74 33.5,-74 33.5,-55 123.5,-55 123.5,-74"/>
<text text-anchor="middle" x="78.5" y="-62" font-family="Helvetica,sans-Serif" font-size="10.00">EthernetSwitch</text>
</a>
</g>
</g>
<!-- GptpBridge -->
<g id="node3" class="node">
<title>GptpBridge</title>
<g id="a_node3"><a xlink:href="inet.linklayer.ieee8021as.GptpBridge.html" xlink:title="Compound Module GptpBridge" target="_parent">
<polygon fill="#fffcaf" stroke="black" points="71,-19 0,-19 0,0 71,0 71,-19"/>
<text text-anchor="middle" x="35.5" y="-7" font-family="Helvetica,sans-Serif" font-size="10.00">GptpBridge</text>
</a>
</g>
</g>
<!-- EthernetSwitch&#45;&gt;GptpBridge -->
<g id="edge2" class="edge">
<title>EthernetSwitch&#45;&gt;GptpBridge</title>
<path fill="none" stroke="black" d="M71.4,-54.75C63.38,-44.87 50.43,-28.9 42.47,-19.09"/>
</g>
<!-- TsnSwitch -->
<g id="node4" class="node">
<title>TsnSwitch</title>
<g id="a_node4"><a xlink:href="inet.node.tsn.TsnSwitch.html" xlink:title="Compound Module TsnSwitch" target="_parent">
<polygon fill="#fffcaf" stroke="black" points="154,-19 89,-19 89,0 154,0 154,-19"/>
<text text-anchor="middle" x="121.5" y="-7" font-family="Helvetica,sans-Serif" font-size="10.00">TsnSwitch</text>
</a>
</g>
</g>
<!-- EthernetSwitch&#45;&gt;TsnSwitch -->
<g id="edge3" class="edge">
<title>EthernetSwitch&#45;&gt;TsnSwitch</title>
<path fill="none" stroke="black" d="M85.6,-54.75C93.62,-44.87 106.57,-28.9 114.53,-19.09"/>
</g>
<!-- IEthernetNetworkNode -->
<g id="node2" class="node">
<title>IEthernetNetworkNode</title>
<g id="a_node2"><a xlink:href="inet.node.contract.IEthernetNetworkNode.html" xlink:title="Module Interface IEthernetNetworkNode" target="_parent">
<polygon fill="#fffcaf" stroke="black" stroke-dasharray="5,2" points="142.5,-129 14.5,-129 14.5,-110 142.5,-110 142.5,-129"/>
<text text-anchor="middle" x="78.5" y="-117" font-family="Helvetica,sans-Serif" font-size="10.00">IEthernetNetworkNode</text>
</a>
</g>
</g>
<!-- IEthernetNetworkNode&#45;&gt;EthernetSwitch -->
<g id="edge1" class="edge">
<title>IEthernetNetworkNode&#45;&gt;EthernetSwitch</title>
<path fill="none" stroke="black" stroke-dasharray="5,2" d="M78.5,-109.75C78.5,-99.87 78.5,-83.9 78.5,-74.09"/>
</g>
</g>
</svg>
