<?xml version="1.0" encoding="UTF-8" standalone="no"?>
<!DOCTYPE svg PUBLIC "-//W3C//DTD SVG 1.1//EN"
 "http://www.w3.org/Graphics/SVG/1.1/DTD/svg11.dtd">
<!-- Generated by graphviz version 2.43.0 (0)
 -->
<!-- Title: opp Pages: 1 -->
<svg width="792pt" height="82pt"
 viewBox="0.00 0.00 792.00 82.00" xmlns="http://www.w3.org/2000/svg" xmlns:xlink="http://www.w3.org/1999/xlink">
<g id="graph0" class="graph" transform="scale(1 1) rotate(0) translate(4 78)">
<title>opp</title>
<polygon fill="transparent" stroke="transparent" points="-4,4 -4,-78 788,-78 788,4 -4,4"/>
<!-- Ieee80211VisualizationSignalLevelsShowcase -->
<g id="node1" class="node">
<title>Ieee80211VisualizationSignalLevelsShowcase</title>
<g id="a_node1"><a xlink:href="inet.showcases.visualizer.canvas.ieee80211.Ieee80211VisualizationSignalLevelsShowcase.html" xlink:title="Network Ieee80211VisualizationSignalLevelsShowcase" target="_parent">
<polygon fill="#9090ff" stroke="black" points="525,-74 284,-74 284,-55 525,-55 525,-74"/>
<text text-anchor="middle" x="404.5" y="-62" font-family="Helvetica,sans-Serif" font-size="10.00">Ieee80211VisualizationSignalLevelsShowcase</text>
</a>
</g>
</g>
<!-- IntegratedVisualizer -->
<g id="node2" class="node">
<title>IntegratedVisualizer</title>
<g id="a_node2"><a xlink:href="inet.visualizer.common.IntegratedVisualizer.html" xlink:title="Compound Module IntegratedVisualizer" target="_parent">
<polygon fill="#fffcaf" stroke="black" points="115,-19 0,-19 0,0 115,0 115,-19"/>
<text text-anchor="middle" x="57.5" y="-7" font-family="Helvetica,sans-Serif" font-size="10.00">IntegratedVisualizer</text>
</a>
</g>
</g>
<!-- Ieee80211VisualizationSignalLevelsShowcase&#45;&gt;IntegratedVisualizer -->
<g id="edge1" class="edge">
<title>Ieee80211VisualizationSignalLevelsShowcase&#45;&gt;IntegratedVisualizer</title>
<path fill="none" stroke="black" d="M348.75,-54.98C287.37,-45.61 188.78,-30.55 123.57,-20.59"/>
<polygon fill="black" stroke="black" points="123.81,-17.09 113.4,-19.04 122.76,-24.01 123.81,-17.09"/>
</g>
<!-- Ieee80211ScalarRadioMedium -->
<g id="node3" class="node">
<title>Ieee80211ScalarRadioMedium</title>
<g id="a_node3"><a xlink:href="inet.physicallayer.wireless.ieee80211.packetlevel.Ieee80211ScalarRadioMedium.html" xlink:title="Compound Module Ieee80211ScalarRadioMedium" target="_parent">
<polygon fill="#fffcaf" stroke="black" points="298,-19 133,-19 133,0 298,0 298,-19"/>
<text text-anchor="middle" x="215.5" y="-7" font-family="Helvetica,sans-Serif" font-size="10.00">Ieee80211ScalarRadioMedium</text>
</a>
</g>
</g>
<!-- Ieee80211VisualizationSignalLevelsShowcase&#45;&gt;Ieee80211ScalarRadioMedium -->
<g id="edge2" class="edge">
<title>Ieee80211VisualizationSignalLevelsShowcase&#45;&gt;Ieee80211ScalarRadioMedium</title>
<path fill="none" stroke="black" d="M374.13,-54.98C342.13,-46.01 291.54,-31.82 256.12,-21.89"/>
<polygon fill="black" stroke="black" points="256.68,-18.41 246.1,-19.08 254.79,-25.15 256.68,-18.41"/>
</g>
<!-- WirelessHost -->
<g id="node4" class="node">
<title>WirelessHost</title>
<g id="a_node4"><a xlink:href="inet.node.inet.WirelessHost.html" xlink:title="Compound Module WirelessHost" target="_parent">
<polygon fill="#fffcaf" stroke="black" points="397,-19 316,-19 316,0 397,0 397,-19"/>
<text text-anchor="middle" x="356.5" y="-7" font-family="Helvetica,sans-Serif" font-size="10.00">WirelessHost</text>
</a>
</g>
</g>
<!-- Ieee80211VisualizationSignalLevelsShowcase&#45;&gt;WirelessHost -->
<g id="edge3" class="edge">
<title>Ieee80211VisualizationSignalLevelsShowcase&#45;&gt;WirelessHost</title>
<path fill="none" stroke="black" d="M396.57,-54.75C389.65,-47.11 379.43,-35.82 371.05,-26.56"/>
<polygon fill="black" stroke="black" points="373.59,-24.15 364.28,-19.09 368.4,-28.85 373.59,-24.15"/>
</g>
<!-- AccessPoint -->
<g id="node5" class="node">
<title>AccessPoint</title>
<g id="a_node5"><a xlink:href="inet.node.wireless.AccessPoint.html" xlink:title="Compound Module AccessPoint" target="_parent">
<polygon fill="#fffcaf" stroke="black" points="490,-19 415,-19 415,0 490,0 490,-19"/>
<text text-anchor="middle" x="452.5" y="-7" font-family="Helvetica,sans-Serif" font-size="10.00">AccessPoint</text>
</a>
</g>
</g>
<!-- Ieee80211VisualizationSignalLevelsShowcase&#45;&gt;AccessPoint -->
<g id="edge4" class="edge">
<title>Ieee80211VisualizationSignalLevelsShowcase&#45;&gt;AccessPoint</title>
<path fill="none" stroke="black" d="M412.43,-54.75C419.35,-47.11 429.57,-35.82 437.95,-26.56"/>
<polygon fill="black" stroke="black" points="440.6,-28.85 444.72,-19.09 435.41,-24.15 440.6,-28.85"/>
</g>
<!-- Ipv4NetworkConfigurator -->
<g id="node6" class="node">
<title>Ipv4NetworkConfigurator</title>
<g id="a_node6"><a xlink:href="inet.networklayer.configurator.ipv4.Ipv4NetworkConfigurator.html" xlink:title="Simple Module Ipv4NetworkConfigurator" target="_parent">
<polygon fill="#fffcaf" stroke="black" points="647,-19 508,-19 508,0 647,0 647,-19"/>
<text text-anchor="middle" x="577.5" y="-7" font-family="Helvetica,sans-Serif" font-size="10.00">Ipv4NetworkConfigurator</text>
</a>
</g>
</g>
<!-- Ieee80211VisualizationSignalLevelsShowcase&#45;&gt;Ipv4NetworkConfigurator -->
<g id="edge5" class="edge">
<title>Ieee80211VisualizationSignalLevelsShowcase&#45;&gt;Ipv4NetworkConfigurator</title>
<path fill="none" stroke="black" d="M432.3,-54.98C461.47,-46.05 507.5,-31.94 539.9,-22.02"/>
<polygon fill="black" stroke="black" points="540.95,-25.36 549.49,-19.08 538.9,-18.66 540.95,-25.36"/>
</g>
<!-- PhysicalEnvironment -->
<g id="node7" class="node">
<title>PhysicalEnvironment</title>
<g id="a_node7"><a xlink:href="inet.environment.common.PhysicalEnvironment.html" xlink:title="Compound Module PhysicalEnvironment" target="_parent">
<polygon fill="#fffcaf" stroke="black" points="784,-19 665,-19 665,0 784,0 784,-19"/>
<text text-anchor="middle" x="724.5" y="-7" font-family="Helvetica,sans-Serif" font-size="10.00">PhysicalEnvironment</text>
</a>
</g>
</g>
<!-- Ieee80211VisualizationSignalLevelsShowcase&#45;&gt;PhysicalEnvironment -->
<g id="edge6" class="edge">
<title>Ieee80211VisualizationSignalLevelsShowcase&#45;&gt;PhysicalEnvironment</title>
<path fill="none" stroke="black" d="M455.91,-54.98C512.28,-45.65 602.69,-30.67 662.83,-20.71"/>
<polygon fill="black" stroke="black" points="663.66,-24.13 672.95,-19.04 662.51,-17.22 663.66,-24.13"/>
</g>
</g>
</svg>
