<?xml version="1.0" encoding="UTF-8" standalone="no"?>
<!DOCTYPE svg PUBLIC "-//W3C//DTD SVG 1.1//EN"
 "http://www.w3.org/Graphics/SVG/1.1/DTD/svg11.dtd">
<!-- Generated by graphviz version 2.43.0 (0)
 -->
<!-- Title: opp Pages: 1 -->
<svg width="278pt" height="82pt"
 viewBox="0.00 0.00 277.50 82.00" xmlns="http://www.w3.org/2000/svg" xmlns:xlink="http://www.w3.org/1999/xlink">
<g id="graph0" class="graph" transform="scale(1 1) rotate(0) translate(4 78)">
<title>opp</title>
<polygon fill="transparent" stroke="transparent" points="-4,4 -4,-78 273.5,-78 273.5,4 -4,4"/>
<!-- PcapFilePacketProducer -->
<g id="node1" class="node">
<title>PcapFilePacketProducer</title>
<g id="a_node1"><a xlink:href="inet.queueing.source.PcapFilePacketProducer.html" xlink:title="Simple Module PcapFilePacketProducer" target="_parent">
<polygon fill="#fff700" stroke="black" points="205.5,-19 74.5,-19 74.5,0 205.5,0 205.5,-19"/>
<text text-anchor="middle" x="140" y="-7" font-family="Helvetica,sans-Serif" font-size="10.00">PcapFilePacketProducer</text>
</a>
</g>
</g>
<!-- ActivePacketSourceBase -->
<g id="node2" class="node">
<title>ActivePacketSourceBase</title>
<g id="a_node2"><a xlink:href="inet.queueing.base.ActivePacketSourceBase.html" xlink:title="Simple Module ActivePacketSourceBase" target="_parent">
<polygon fill="#fffcaf" stroke="black" points="136,-74 0,-74 0,-55 136,-55 136,-74"/>
<text text-anchor="middle" x="68" y="-62" font-family="Helvetica,sans-Serif" font-size="10.00">ActivePacketSourceBase</text>
</a>
</g>
</g>
<!-- ActivePacketSourceBase&#45;&gt;PcapFilePacketProducer -->
<g id="edge1" class="edge">
<title>ActivePacketSourceBase&#45;&gt;PcapFilePacketProducer</title>
<path fill="none" stroke="black" d="M79.57,-54.98C92.92,-45.15 114.78,-29.07 128.22,-19.17"/>
</g>
<!-- IActivePacketSource -->
<g id="node3" class="node">
<title>IActivePacketSource</title>
<g id="a_node3"><a xlink:href="inet.queueing.contract.IActivePacketSource.html" xlink:title="Module Interface IActivePacketSource" target="_parent">
<polygon fill="#fffcaf" stroke="black" stroke-dasharray="5,2" points="269.5,-74 154.5,-74 154.5,-55 269.5,-55 269.5,-74"/>
<text text-anchor="middle" x="212" y="-62" font-family="Helvetica,sans-Serif" font-size="10.00">IActivePacketSource</text>
</a>
</g>
</g>
<!-- IActivePacketSource&#45;&gt;PcapFilePacketProducer -->
<g id="edge2" class="edge">
<title>IActivePacketSource&#45;&gt;PcapFilePacketProducer</title>
<path fill="none" stroke="black" stroke-dasharray="5,2" d="M200.43,-54.98C187.08,-45.15 165.22,-29.07 151.78,-19.17"/>
</g>
</g>
</svg>
