<?xml version="1.0" encoding="UTF-8" standalone="no"?>
<!DOCTYPE svg PUBLIC "-//W3C//DTD SVG 1.1//EN"
 "http://www.w3.org/Graphics/SVG/1.1/DTD/svg11.dtd">
<!-- Generated by graphviz version 2.43.0 (0)
 -->
<!-- Title: opp Pages: 1 -->
<svg width="466pt" height="82pt"
 viewBox="0.00 0.00 465.50 82.00" xmlns="http://www.w3.org/2000/svg" xmlns:xlink="http://www.w3.org/1999/xlink">
<g id="graph0" class="graph" transform="scale(1 1) rotate(0) translate(4 78)">
<title>opp</title>
<polygon fill="transparent" stroke="transparent" points="-4,4 -4,-78 461.5,-78 461.5,4 -4,4"/>
<!-- FullPacketSink -->
<g id="node1" class="node">
<title>FullPacketSink</title>
<g id="a_node1"><a xlink:href="inet.queueing.sink.FullPacketSink.html" xlink:title="Simple Module FullPacketSink" target="_parent">
<polygon fill="#fff700" stroke="black" points="293.5,-19 207.5,-19 207.5,0 293.5,0 293.5,-19"/>
<text text-anchor="middle" x="250.5" y="-7" font-family="Helvetica,sans-Serif" font-size="10.00">FullPacketSink</text>
</a>
</g>
</g>
<!-- PacketProcessorBase -->
<g id="node2" class="node">
<title>PacketProcessorBase</title>
<g id="a_node2"><a xlink:href="inet.queueing.base.PacketProcessorBase.html" xlink:title="Simple Module PacketProcessorBase" target="_parent">
<polygon fill="#fffcaf" stroke="black" points="119,-74 0,-74 0,-55 119,-55 119,-74"/>
<text text-anchor="middle" x="59.5" y="-62" font-family="Helvetica,sans-Serif" font-size="10.00">PacketProcessorBase</text>
</a>
</g>
</g>
<!-- PacketProcessorBase&#45;&gt;FullPacketSink -->
<g id="edge1" class="edge">
<title>PacketProcessorBase&#45;&gt;FullPacketSink</title>
<path fill="none" stroke="black" d="M90.19,-54.98C125.72,-45.12 183.93,-28.97 219.57,-19.08"/>
</g>
<!-- IActivePacketSink -->
<g id="node3" class="node">
<title>IActivePacketSink</title>
<g id="a_node3"><a xlink:href="inet.queueing.contract.IActivePacketSink.html" xlink:title="Module Interface IActivePacketSink" target="_parent">
<polygon fill="#fffcaf" stroke="black" stroke-dasharray="5,2" points="240,-74 137,-74 137,-55 240,-55 240,-74"/>
<text text-anchor="middle" x="188.5" y="-62" font-family="Helvetica,sans-Serif" font-size="10.00">IActivePacketSink</text>
</a>
</g>
</g>
<!-- IActivePacketSink&#45;&gt;FullPacketSink -->
<g id="edge2" class="edge">
<title>IActivePacketSink&#45;&gt;FullPacketSink</title>
<path fill="none" stroke="black" stroke-dasharray="5,2" d="M198.46,-54.98C209.96,-45.15 228.78,-29.07 240.36,-19.17"/>
</g>
<!-- IPassivePacketSink -->
<g id="node4" class="node">
<title>IPassivePacketSink</title>
<g id="a_node4"><a xlink:href="inet.queueing.contract.IPassivePacketSink.html" xlink:title="Module Interface IPassivePacketSink" target="_parent">
<polygon fill="#fffcaf" stroke="black" stroke-dasharray="5,2" points="367,-74 258,-74 258,-55 367,-55 367,-74"/>
<text text-anchor="middle" x="312.5" y="-62" font-family="Helvetica,sans-Serif" font-size="10.00">IPassivePacketSink</text>
</a>
</g>
</g>
<!-- IPassivePacketSink&#45;&gt;FullPacketSink -->
<g id="edge3" class="edge">
<title>IPassivePacketSink&#45;&gt;FullPacketSink</title>
<path fill="none" stroke="black" stroke-dasharray="5,2" d="M302.54,-54.98C291.04,-45.15 272.22,-29.07 260.64,-19.17"/>
</g>
<!-- IPacketSink -->
<g id="node5" class="node">
<title>IPacketSink</title>
<g id="a_node5"><a xlink:href="inet.queueing.contract.IPacketSink.html" xlink:title="Module Interface IPacketSink" target="_parent">
<polygon fill="#fffcaf" stroke="black" stroke-dasharray="5,2" points="457.5,-74 385.5,-74 385.5,-55 457.5,-55 457.5,-74"/>
<text text-anchor="middle" x="421.5" y="-62" font-family="Helvetica,sans-Serif" font-size="10.00">IPacketSink</text>
</a>
</g>
</g>
<!-- IPacketSink&#45;&gt;FullPacketSink -->
<g id="edge4" class="edge">
<title>IPacketSink&#45;&gt;FullPacketSink</title>
<path fill="none" stroke="black" stroke-dasharray="5,2" d="M394.03,-54.98C362.21,-45.12 310.1,-28.97 278.19,-19.08"/>
</g>
</g>
</svg>
