<?xml version="1.0" encoding="UTF-8" standalone="no"?>
<!DOCTYPE svg PUBLIC "-//W3C//DTD SVG 1.1//EN"
 "http://www.w3.org/Graphics/SVG/1.1/DTD/svg11.dtd">
<!-- Generated by graphviz version 2.43.0 (0)
 -->
<!-- Title: opp Pages: 1 -->
<svg width="326pt" height="82pt"
 viewBox="0.00 0.00 326.00 82.00" xmlns="http://www.w3.org/2000/svg" xmlns:xlink="http://www.w3.org/1999/xlink">
<g id="graph0" class="graph" transform="scale(1 1) rotate(0) translate(4 78)">
<title>opp</title>
<polygon fill="transparent" stroke="transparent" points="-4,4 -4,-78 322,-78 322,4 -4,4"/>
<!-- NetworkLayerNodeBase -->
<g id="node1" class="node">
<title>NetworkLayerNodeBase</title>
<g id="a_node1"><a xlink:href="inet.node.base.NetworkLayerNodeBase.html" xlink:title="Compound Module NetworkLayerNodeBase" target="_parent">
<polygon fill="#fff700" stroke="black" points="230,-74 96,-74 96,-55 230,-55 230,-74"/>
<text text-anchor="middle" x="163" y="-62" font-family="Helvetica,sans-Serif" font-size="10.00">NetworkLayerNodeBase</text>
</a>
</g>
</g>
<!-- INetworkLayer -->
<g id="node2" class="node">
<title>INetworkLayer</title>
<g id="a_node2"><a xlink:href="inet.networklayer.contract.INetworkLayer.html" xlink:title="Module Interface INetworkLayer" target="_parent">
<polygon fill="#fffcaf" stroke="black" stroke-dasharray="5,2" points="88,-19 0,-19 0,0 88,0 88,-19"/>
<text text-anchor="middle" x="44" y="-7" font-family="Helvetica,sans-Serif" font-size="10.00">INetworkLayer</text>
</a>
</g>
</g>
<!-- NetworkLayerNodeBase&#45;&gt;INetworkLayer -->
<g id="edge1" class="edge">
<title>NetworkLayerNodeBase&#45;&gt;INetworkLayer</title>
<path fill="none" stroke="black" d="M143.88,-54.98C124.65,-46.42 94.77,-33.11 72.69,-23.28"/>
<polygon fill="black" stroke="black" points="74.03,-20.04 63.47,-19.17 71.18,-26.44 74.03,-20.04"/>
</g>
<!-- MessageDispatcher -->
<g id="node3" class="node">
<title>MessageDispatcher</title>
<g id="a_node3"><a xlink:href="inet.common.MessageDispatcher.html" xlink:title="Simple Module MessageDispatcher" target="_parent">
<polygon fill="#fffcaf" stroke="black" points="219.5,-19 106.5,-19 106.5,0 219.5,0 219.5,-19"/>
<text text-anchor="middle" x="163" y="-7" font-family="Helvetica,sans-Serif" font-size="10.00">MessageDispatcher</text>
</a>
</g>
</g>
<!-- NetworkLayerNodeBase&#45;&gt;MessageDispatcher -->
<g id="edge2" class="edge">
<title>NetworkLayerNodeBase&#45;&gt;MessageDispatcher</title>
<path fill="none" stroke="black" d="M163,-54.75C163,-47.8 163,-37.85 163,-29.13"/>
<polygon fill="black" stroke="black" points="166.5,-29.09 163,-19.09 159.5,-29.09 166.5,-29.09"/>
</g>
<!-- IdealChannel -->
<g id="node4" class="node">
<title>IdealChannel</title>
<g id="a_node4"><a xlink:href="ned.IdealChannel.html" xlink:title="Channel IdealChannel" target="_parent">
<polygon fill="#d0ffd0" stroke="black" points="318,-19 238,-19 238,0 318,0 318,-19"/>
<text text-anchor="middle" x="278" y="-7" font-family="Helvetica,sans-Serif" font-size="10.00">IdealChannel</text>
</a>
</g>
</g>
<!-- NetworkLayerNodeBase&#45;&gt;IdealChannel -->
<g id="edge3" class="edge">
<title>NetworkLayerNodeBase&#45;&gt;IdealChannel</title>
<path fill="none" stroke="black" d="M181.48,-54.98C199.98,-46.46 228.68,-33.23 249.98,-23.41"/>
<polygon fill="black" stroke="black" points="251.57,-26.53 259.19,-19.17 248.64,-20.18 251.57,-26.53"/>
</g>
</g>
</svg>
