<?xml version="1.0" encoding="UTF-8" standalone="no"?>
<!DOCTYPE svg PUBLIC "-//W3C//DTD SVG 1.1//EN"
 "http://www.w3.org/Graphics/SVG/1.1/DTD/svg11.dtd">
<!-- Generated by graphviz version 2.43.0 (0)
 -->
<!-- Title: opp Pages: 1 -->
<svg width="889pt" height="82pt"
 viewBox="0.00 0.00 888.50 82.00" xmlns="http://www.w3.org/2000/svg" xmlns:xlink="http://www.w3.org/1999/xlink">
<g id="graph0" class="graph" transform="scale(1 1) rotate(0) translate(4 78)">
<title>opp</title>
<polygon fill="transparent" stroke="transparent" points="-4,4 -4,-78 884.5,-78 884.5,4 -4,4"/>
<!-- IReceiver -->
<g id="node1" class="node">
<title>IReceiver</title>
<g id="a_node1"><a xlink:href="inet.physicallayer.wireless.common.contract.packetlevel.IReceiver.html" xlink:title="Module Interface IReceiver" target="_parent">
<polygon fill="#fff700" stroke="black" stroke-dasharray="5,2" points="519,-74 457,-74 457,-55 519,-55 519,-74"/>
<text text-anchor="middle" x="488" y="-62" font-family="Helvetica,sans-Serif" font-size="10.00">IReceiver</text>
</a>
</g>
</g>
<!-- ApskLayeredReceiver -->
<g id="node2" class="node">
<title>ApskLayeredReceiver</title>
<g id="a_node2"><a xlink:href="inet.physicallayer.wireless.apsk.bitlevel.ApskLayeredReceiver.html" xlink:title="Compound Module ApskLayeredReceiver" target="_parent">
<polygon fill="#fffcaf" stroke="black" points="122,-19 0,-19 0,0 122,0 122,-19"/>
<text text-anchor="middle" x="61" y="-7" font-family="Helvetica,sans-Serif" font-size="10.00">ApskLayeredReceiver</text>
</a>
</g>
</g>
<!-- IReceiver&#45;&gt;ApskLayeredReceiver -->
<g id="edge1" class="edge">
<title>IReceiver&#45;&gt;ApskLayeredReceiver</title>
<path fill="none" stroke="black" stroke-dasharray="5,2" d="M456.95,-59.65C386.71,-50.93 214.56,-29.56 122.09,-18.08"/>
</g>
<!-- Ieee80211LayeredOfdmReceiver -->
<g id="node3" class="node">
<title>Ieee80211LayeredOfdmReceiver</title>
<g id="a_node3"><a xlink:href="inet.physicallayer.wireless.ieee80211.bitlevel.Ieee80211LayeredOfdmReceiver.html" xlink:title="Compound Module Ieee80211LayeredOfdmReceiver" target="_parent">
<polygon fill="#fffcaf" stroke="black" points="316,-19 140,-19 140,0 316,0 316,-19"/>
<text text-anchor="middle" x="228" y="-7" font-family="Helvetica,sans-Serif" font-size="10.00">Ieee80211LayeredOfdmReceiver</text>
</a>
</g>
</g>
<!-- IReceiver&#45;&gt;Ieee80211LayeredOfdmReceiver -->
<g id="edge2" class="edge">
<title>IReceiver&#45;&gt;Ieee80211LayeredOfdmReceiver</title>
<path fill="none" stroke="black" stroke-dasharray="5,2" d="M456.9,-57.16C410.26,-47.65 322.12,-29.69 269.87,-19.04"/>
</g>
<!-- Ieee802154UwbIrReceiver -->
<g id="node4" class="node">
<title>Ieee802154UwbIrReceiver</title>
<g id="a_node4"><a xlink:href="inet.physicallayer.wireless.ieee802154.bitlevel.Ieee802154UwbIrReceiver.html" xlink:title="Compound Module Ieee802154UwbIrReceiver" target="_parent">
<polygon fill="#fffcaf" stroke="black" points="479.5,-19 334.5,-19 334.5,0 479.5,0 479.5,-19"/>
<text text-anchor="middle" x="407" y="-7" font-family="Helvetica,sans-Serif" font-size="10.00">Ieee802154UwbIrReceiver</text>
</a>
</g>
</g>
<!-- IReceiver&#45;&gt;Ieee802154UwbIrReceiver -->
<g id="edge3" class="edge">
<title>IReceiver&#45;&gt;Ieee802154UwbIrReceiver</title>
<path fill="none" stroke="black" stroke-dasharray="5,2" d="M474.99,-54.98C459.96,-45.15 435.38,-29.07 420.25,-19.17"/>
</g>
<!-- NarrowbandReceiverBase -->
<g id="node5" class="node">
<title>NarrowbandReceiverBase</title>
<g id="a_node5"><a xlink:href="inet.physicallayer.wireless.common.base.packetlevel.NarrowbandReceiverBase.html" xlink:title="Compound Module NarrowbandReceiverBase" target="_parent">
<polygon fill="#fffcaf" stroke="black" points="640.5,-19 497.5,-19 497.5,0 640.5,0 640.5,-19"/>
<text text-anchor="middle" x="569" y="-7" font-family="Helvetica,sans-Serif" font-size="10.00">NarrowbandReceiverBase</text>
</a>
</g>
</g>
<!-- IReceiver&#45;&gt;NarrowbandReceiverBase -->
<g id="edge4" class="edge">
<title>IReceiver&#45;&gt;NarrowbandReceiverBase</title>
<path fill="none" stroke="black" stroke-dasharray="5,2" d="M501.01,-54.98C516.04,-45.15 540.62,-29.07 555.75,-19.17"/>
</g>
<!-- SnirReceiverBase -->
<g id="node6" class="node">
<title>SnirReceiverBase</title>
<g id="a_node6"><a xlink:href="inet.physicallayer.wireless.common.base.packetlevel.SnirReceiverBase.html" xlink:title="Compound Module SnirReceiverBase" target="_parent">
<polygon fill="#fffcaf" stroke="black" points="761,-19 659,-19 659,0 761,0 761,-19"/>
<text text-anchor="middle" x="710" y="-7" font-family="Helvetica,sans-Serif" font-size="10.00">SnirReceiverBase</text>
</a>
</g>
</g>
<!-- IReceiver&#45;&gt;SnirReceiverBase -->
<g id="edge5" class="edge">
<title>IReceiver&#45;&gt;SnirReceiverBase</title>
<path fill="none" stroke="black" stroke-dasharray="5,2" d="M519.34,-56.02C560.09,-46.29 631.13,-29.33 674.04,-19.08"/>
</g>
<!-- UnitDiskReceiver -->
<g id="node7" class="node">
<title>UnitDiskReceiver</title>
<g id="a_node7"><a xlink:href="inet.physicallayer.wireless.unitdisk.UnitDiskReceiver.html" xlink:title="Compound Module UnitDiskReceiver" target="_parent">
<polygon fill="#fffcaf" stroke="black" points="880.5,-19 779.5,-19 779.5,0 880.5,0 880.5,-19"/>
<text text-anchor="middle" x="830" y="-7" font-family="Helvetica,sans-Serif" font-size="10.00">UnitDiskReceiver</text>
</a>
</g>
</g>
<!-- IReceiver&#45;&gt;UnitDiskReceiver -->
<g id="edge6" class="edge">
<title>IReceiver&#45;&gt;UnitDiskReceiver</title>
<path fill="none" stroke="black" stroke-dasharray="5,2" d="M519.26,-58.66C578.54,-49.47 707.77,-29.44 779.5,-18.33"/>
</g>
</g>
</svg>
