<?xml version="1.0" encoding="UTF-8" standalone="no"?>
<!DOCTYPE svg PUBLIC "-//W3C//DTD SVG 1.1//EN"
 "http://www.w3.org/Graphics/SVG/1.1/DTD/svg11.dtd">
<!-- Generated by graphviz version 2.43.0 (0)
 -->
<!-- Title: opp Pages: 1 -->
<svg width="246pt" height="82pt"
 viewBox="0.00 0.00 246.00 82.00" xmlns="http://www.w3.org/2000/svg" xmlns:xlink="http://www.w3.org/1999/xlink">
<g id="graph0" class="graph" transform="scale(1 1) rotate(0) translate(4 78)">
<title>opp</title>
<polygon fill="transparent" stroke="transparent" points="-4,4 -4,-78 242,-78 242,4 -4,4"/>
<!-- ShortcutRadioExample -->
<g id="node1" class="node">
<title>ShortcutRadioExample</title>
<g id="a_node1"><a xlink:href="inet.examples.wireless.shortcut.ShortcutRadioExample.html" xlink:title="Network ShortcutRadioExample" target="_parent">
<polygon fill="#9090ff" stroke="black" points="168.5,-74 40.5,-74 40.5,-55 168.5,-55 168.5,-74"/>
<text text-anchor="middle" x="104.5" y="-62" font-family="Helvetica,sans-Serif" font-size="10.00">ShortcutRadioExample</text>
</a>
</g>
</g>
<!-- WirelessHost -->
<g id="node2" class="node">
<title>WirelessHost</title>
<g id="a_node2"><a xlink:href="inet.node.inet.WirelessHost.html" xlink:title="Compound Module WirelessHost" target="_parent">
<polygon fill="#fffcaf" stroke="black" points="81,-19 0,-19 0,0 81,0 81,-19"/>
<text text-anchor="middle" x="40.5" y="-7" font-family="Helvetica,sans-Serif" font-size="10.00">WirelessHost</text>
</a>
</g>
</g>
<!-- ShortcutRadioExample&#45;&gt;WirelessHost -->
<g id="edge1" class="edge">
<title>ShortcutRadioExample&#45;&gt;WirelessHost</title>
<path fill="none" stroke="black" d="M94.22,-54.98C84.66,-47.07 70.22,-35.11 58.72,-25.58"/>
<polygon fill="black" stroke="black" points="60.9,-22.85 50.97,-19.17 56.44,-28.24 60.9,-22.85"/>
</g>
<!-- Ipv4NetworkConfigurator -->
<g id="node3" class="node">
<title>Ipv4NetworkConfigurator</title>
<g id="a_node3"><a xlink:href="inet.networklayer.configurator.ipv4.Ipv4NetworkConfigurator.html" xlink:title="Simple Module Ipv4NetworkConfigurator" target="_parent">
<polygon fill="#fffcaf" stroke="black" points="238,-19 99,-19 99,0 238,0 238,-19"/>
<text text-anchor="middle" x="168.5" y="-7" font-family="Helvetica,sans-Serif" font-size="10.00">Ipv4NetworkConfigurator</text>
</a>
</g>
</g>
<!-- ShortcutRadioExample&#45;&gt;Ipv4NetworkConfigurator -->
<g id="edge2" class="edge">
<title>ShortcutRadioExample&#45;&gt;Ipv4NetworkConfigurator</title>
<path fill="none" stroke="black" d="M114.78,-54.98C124.34,-47.07 138.78,-35.11 150.28,-25.58"/>
<polygon fill="black" stroke="black" points="152.56,-28.24 158.03,-19.17 148.1,-22.85 152.56,-28.24"/>
</g>
</g>
</svg>
