<?xml version="1.0" encoding="UTF-8" standalone="no"?>
<!DOCTYPE svg PUBLIC "-//W3C//DTD SVG 1.1//EN"
 "http://www.w3.org/Graphics/SVG/1.1/DTD/svg11.dtd">
<!-- Generated by graphviz version 2.43.0 (0)
 -->
<!-- Title: opp Pages: 1 -->
<svg width="642pt" height="137pt"
 viewBox="0.00 0.00 641.50 137.00" xmlns="http://www.w3.org/2000/svg" xmlns:xlink="http://www.w3.org/1999/xlink">
<g id="graph0" class="graph" transform="scale(1 1) rotate(0) translate(4 133)">
<title>opp</title>
<polygon fill="transparent" stroke="transparent" points="-4,4 -4,-133 637.5,-133 637.5,4 -4,4"/>
<!-- ResponseProducer -->
<g id="node1" class="node">
<title>ResponseProducer</title>
<g id="a_node1"><a xlink:href="inet.queueing.source.ResponseProducer.html" xlink:title="Compound Module ResponseProducer" target="_parent">
<polygon fill="#fff700" stroke="black" points="390.5,-74 283.5,-74 283.5,-55 390.5,-55 390.5,-74"/>
<text text-anchor="middle" x="337" y="-62" font-family="Helvetica,sans-Serif" font-size="10.00">ResponseProducer</text>
</a>
</g>
</g>
<!-- PassivePacketSource -->
<g id="node2" class="node">
<title>PassivePacketSource</title>
<g id="a_node2"><a xlink:href="inet.queueing.source.PassivePacketSource.html" xlink:title="Simple Module PassivePacketSource" target="_parent">
<polygon fill="#fffcaf" stroke="black" points="118,-19 0,-19 0,0 118,0 118,-19"/>
<text text-anchor="middle" x="59" y="-7" font-family="Helvetica,sans-Serif" font-size="10.00">PassivePacketSource</text>
</a>
</g>
</g>
<!-- ResponseProducer&#45;&gt;PassivePacketSource -->
<g id="edge1" class="edge">
<title>ResponseProducer&#45;&gt;PassivePacketSource</title>
<path fill="none" stroke="black" d="M292.33,-54.98C243.84,-45.74 166.35,-30.97 114.11,-21.01"/>
<polygon fill="black" stroke="black" points="114.49,-17.52 104.02,-19.08 113.18,-24.39 114.49,-17.52"/>
</g>
<!-- TokenBasedServer -->
<g id="node3" class="node">
<title>TokenBasedServer</title>
<g id="a_node3"><a xlink:href="inet.queueing.server.TokenBasedServer.html" xlink:title="Simple Module TokenBasedServer" target="_parent">
<polygon fill="#fffcaf" stroke="black" points="242,-19 136,-19 136,0 242,0 242,-19"/>
<text text-anchor="middle" x="189" y="-7" font-family="Helvetica,sans-Serif" font-size="10.00">TokenBasedServer</text>
</a>
</g>
</g>
<!-- ResponseProducer&#45;&gt;TokenBasedServer -->
<g id="edge2" class="edge">
<title>ResponseProducer&#45;&gt;TokenBasedServer</title>
<path fill="none" stroke="black" d="M313.22,-54.98C288.77,-46.23 250.47,-32.51 222.85,-22.62"/>
<polygon fill="black" stroke="black" points="223.81,-19.25 213.21,-19.17 221.45,-25.84 223.81,-19.25"/>
</g>
<!-- SignalBasedTokenGenerator -->
<g id="node4" class="node">
<title>SignalBasedTokenGenerator</title>
<g id="a_node4"><a xlink:href="inet.queueing.tokengenerator.SignalBasedTokenGenerator.html" xlink:title="Simple Module SignalBasedTokenGenerator" target="_parent">
<polygon fill="#fffcaf" stroke="black" points="413.5,-19 260.5,-19 260.5,0 413.5,0 413.5,-19"/>
<text text-anchor="middle" x="337" y="-7" font-family="Helvetica,sans-Serif" font-size="10.00">SignalBasedTokenGenerator</text>
</a>
</g>
</g>
<!-- ResponseProducer&#45;&gt;SignalBasedTokenGenerator -->
<g id="edge3" class="edge">
<title>ResponseProducer&#45;&gt;SignalBasedTokenGenerator</title>
<path fill="none" stroke="black" d="M337,-54.75C337,-47.8 337,-37.85 337,-29.13"/>
<polygon fill="black" stroke="black" points="340.5,-29.09 337,-19.09 333.5,-29.09 340.5,-29.09"/>
</g>
<!-- IdealChannel -->
<g id="node5" class="node">
<title>IdealChannel</title>
<g id="a_node5"><a xlink:href="ned.IdealChannel.html" xlink:title="Channel IdealChannel" target="_parent">
<polygon fill="#d0ffd0" stroke="black" points="512,-19 432,-19 432,0 512,0 512,-19"/>
<text text-anchor="middle" x="472" y="-7" font-family="Helvetica,sans-Serif" font-size="10.00">IdealChannel</text>
</a>
</g>
</g>
<!-- ResponseProducer&#45;&gt;IdealChannel -->
<g id="edge4" class="edge">
<title>ResponseProducer&#45;&gt;IdealChannel</title>
<path fill="none" stroke="black" d="M358.69,-54.98C380.8,-46.3 415.32,-32.75 440.45,-22.88"/>
<polygon fill="black" stroke="black" points="441.89,-26.08 449.92,-19.17 439.33,-19.57 441.89,-26.08"/>
</g>
<!-- PacketMultiplexer -->
<g id="node6" class="node">
<title>PacketMultiplexer</title>
<g id="a_node6"><a xlink:href="inet.queueing.common.PacketMultiplexer.html" xlink:title="Simple Module PacketMultiplexer" target="_parent">
<polygon fill="#fffcaf" stroke="black" points="633.5,-19 530.5,-19 530.5,0 633.5,0 633.5,-19"/>
<text text-anchor="middle" x="582" y="-7" font-family="Helvetica,sans-Serif" font-size="10.00">PacketMultiplexer</text>
</a>
</g>
</g>
<!-- ResponseProducer&#45;&gt;PacketMultiplexer -->
<g id="edge5" class="edge">
<title>ResponseProducer&#45;&gt;PacketMultiplexer</title>
<path fill="none" stroke="black" d="M376.36,-54.98C418.74,-45.82 486.26,-31.21 532.28,-21.26"/>
<polygon fill="black" stroke="black" points="533.29,-24.62 542.33,-19.08 531.81,-17.78 533.29,-24.62"/>
</g>
<!-- RequestResponseTutorialStep -->
<g id="node7" class="node">
<title>RequestResponseTutorialStep</title>
<g id="a_node7"><a xlink:href="inet.tutorials.queueing.RequestResponseTutorialStep.html" xlink:title="Network RequestResponseTutorialStep" target="_parent">
<polygon fill="#d0d0ff" stroke="black" points="417.5,-129 256.5,-129 256.5,-110 417.5,-110 417.5,-129"/>
<text text-anchor="middle" x="337" y="-117" font-family="Helvetica,sans-Serif" font-size="10.00">RequestResponseTutorialStep</text>
</a>
</g>
</g>
<!-- RequestResponseTutorialStep&#45;&gt;ResponseProducer -->
<g id="edge6" class="edge">
<title>RequestResponseTutorialStep&#45;&gt;ResponseProducer</title>
<path fill="none" stroke="black" d="M337,-109.75C337,-102.8 337,-92.85 337,-84.13"/>
<polygon fill="black" stroke="black" points="340.5,-84.09 337,-74.09 333.5,-84.09 340.5,-84.09"/>
</g>
</g>
</svg>
