<?xml version="1.0" encoding="UTF-8" standalone="no"?>
<!DOCTYPE svg PUBLIC "-//W3C//DTD SVG 1.1//EN"
 "http://www.w3.org/Graphics/SVG/1.1/DTD/svg11.dtd">
<!-- Generated by graphviz version 2.43.0 (0)
 -->
<!-- Title: opp Pages: 1 -->
<svg width="433pt" height="82pt"
 viewBox="0.00 0.00 432.50 82.00" xmlns="http://www.w3.org/2000/svg" xmlns:xlink="http://www.w3.org/1999/xlink">
<g id="graph0" class="graph" transform="scale(1 1) rotate(0) translate(4 78)">
<title>opp</title>
<polygon fill="transparent" stroke="transparent" points="-4,4 -4,-78 428.5,-78 428.5,4 -4,4"/>
<!-- AntennaOrientation -->
<g id="node1" class="node">
<title>AntennaOrientation</title>
<g id="a_node1"><a xlink:href="inet.showcases.mobility.combining.AntennaOrientation.html" xlink:title="Network AntennaOrientation" target="_parent">
<polygon fill="#9090ff" stroke="black" points="280.5,-74 168.5,-74 168.5,-55 280.5,-55 280.5,-74"/>
<text text-anchor="middle" x="224.5" y="-62" font-family="Helvetica,sans-Serif" font-size="10.00">AntennaOrientation</text>
</a>
</g>
</g>
<!-- Ieee80211ScalarRadioMedium -->
<g id="node2" class="node">
<title>Ieee80211ScalarRadioMedium</title>
<g id="a_node2"><a xlink:href="inet.physicallayer.wireless.ieee80211.packetlevel.Ieee80211ScalarRadioMedium.html" xlink:title="Compound Module Ieee80211ScalarRadioMedium" target="_parent">
<polygon fill="#fffcaf" stroke="black" points="165,-19 0,-19 0,0 165,0 165,-19"/>
<text text-anchor="middle" x="82.5" y="-7" font-family="Helvetica,sans-Serif" font-size="10.00">Ieee80211ScalarRadioMedium</text>
</a>
</g>
</g>
<!-- AntennaOrientation&#45;&gt;Ieee80211ScalarRadioMedium -->
<g id="edge1" class="edge">
<title>AntennaOrientation&#45;&gt;Ieee80211ScalarRadioMedium</title>
<path fill="none" stroke="black" d="M201.69,-54.98C178.33,-46.27 141.8,-32.63 115.33,-22.75"/>
<polygon fill="black" stroke="black" points="116.32,-19.39 105.73,-19.17 113.87,-25.95 116.32,-19.39"/>
</g>
<!-- StandardHost -->
<g id="node3" class="node">
<title>StandardHost</title>
<g id="a_node3"><a xlink:href="inet.node.inet.StandardHost.html" xlink:title="Compound Module StandardHost" target="_parent">
<polygon fill="#fffcaf" stroke="black" points="266,-19 183,-19 183,0 266,0 266,-19"/>
<text text-anchor="middle" x="224.5" y="-7" font-family="Helvetica,sans-Serif" font-size="10.00">StandardHost</text>
</a>
</g>
</g>
<!-- AntennaOrientation&#45;&gt;StandardHost -->
<g id="edge2" class="edge">
<title>AntennaOrientation&#45;&gt;StandardHost</title>
<path fill="none" stroke="black" d="M224.5,-54.75C224.5,-47.8 224.5,-37.85 224.5,-29.13"/>
<polygon fill="black" stroke="black" points="228,-29.09 224.5,-19.09 221,-29.09 228,-29.09"/>
</g>
<!-- IntegratedMultiVisualizer -->
<g id="node4" class="node">
<title>IntegratedMultiVisualizer</title>
<g id="a_node4"><a xlink:href="inet.visualizer.common.IntegratedMultiVisualizer.html" xlink:title="Compound Module IntegratedMultiVisualizer" target="_parent">
<polygon fill="#fffcaf" stroke="black" points="424.5,-19 284.5,-19 284.5,0 424.5,0 424.5,-19"/>
<text text-anchor="middle" x="354.5" y="-7" font-family="Helvetica,sans-Serif" font-size="10.00">IntegratedMultiVisualizer</text>
</a>
</g>
</g>
<!-- AntennaOrientation&#45;&gt;IntegratedMultiVisualizer -->
<g id="edge3" class="edge">
<title>AntennaOrientation&#45;&gt;IntegratedMultiVisualizer</title>
<path fill="none" stroke="black" d="M245.39,-54.98C266.58,-46.34 299.63,-32.87 323.8,-23.02"/>
<polygon fill="black" stroke="black" points="325.29,-26.19 333.23,-19.17 322.65,-19.7 325.29,-26.19"/>
</g>
</g>
</svg>
