<?xml version="1.0" encoding="UTF-8" standalone="no"?>
<!DOCTYPE svg PUBLIC "-//W3C//DTD SVG 1.1//EN"
 "http://www.w3.org/Graphics/SVG/1.1/DTD/svg11.dtd">
<!-- Generated by graphviz version 2.43.0 (0)
 -->
<!-- Title: opp Pages: 1 -->
<svg width="240pt" height="137pt"
 viewBox="0.00 0.00 240.00 137.00" xmlns="http://www.w3.org/2000/svg" xmlns:xlink="http://www.w3.org/1999/xlink">
<g id="graph0" class="graph" transform="scale(1 1) rotate(0) translate(4 133)">
<title>opp</title>
<polygon fill="transparent" stroke="transparent" points="-4,4 -4,-133 236,-133 236,4 -4,4"/>
<!-- DeaggregatorBase -->
<g id="node1" class="node">
<title>DeaggregatorBase</title>
<g id="a_node1"><a xlink:href="inet.protocolelement.aggregation.base.DeaggregatorBase.html" xlink:title="Simple Module DeaggregatorBase" target="_parent">
<polygon fill="#fff700" stroke="black" points="169.5,-74 62.5,-74 62.5,-55 169.5,-55 169.5,-74"/>
<text text-anchor="middle" x="116" y="-62" font-family="Helvetica,sans-Serif" font-size="10.00">DeaggregatorBase</text>
</a>
</g>
</g>
<!-- SubpacketLengthHeaderBasedDeaggregator -->
<g id="node3" class="node">
<title>SubpacketLengthHeaderBasedDeaggregator</title>
<g id="a_node3"><a xlink:href="inet.protocolelement.aggregation.SubpacketLengthHeaderBasedDeaggregator.html" xlink:title="Simple Module SubpacketLengthHeaderBasedDeaggregator" target="_parent">
<polygon fill="#fffcaf" stroke="black" points="232,-19 0,-19 0,0 232,0 232,-19"/>
<text text-anchor="middle" x="116" y="-7" font-family="Helvetica,sans-Serif" font-size="10.00">SubpacketLengthHeaderBasedDeaggregator</text>
</a>
</g>
</g>
<!-- DeaggregatorBase&#45;&gt;SubpacketLengthHeaderBasedDeaggregator -->
<g id="edge2" class="edge">
<title>DeaggregatorBase&#45;&gt;SubpacketLengthHeaderBasedDeaggregator</title>
<path fill="none" stroke="black" d="M116,-54.75C116,-44.87 116,-28.9 116,-19.09"/>
</g>
<!-- PacketPusherBase -->
<g id="node2" class="node">
<title>PacketPusherBase</title>
<g id="a_node2"><a xlink:href="inet.queueing.base.PacketPusherBase.html" xlink:title="Simple Module PacketPusherBase" target="_parent">
<polygon fill="#fffcaf" stroke="black" points="168.5,-129 63.5,-129 63.5,-110 168.5,-110 168.5,-129"/>
<text text-anchor="middle" x="116" y="-117" font-family="Helvetica,sans-Serif" font-size="10.00">PacketPusherBase</text>
</a>
</g>
</g>
<!-- PacketPusherBase&#45;&gt;DeaggregatorBase -->
<g id="edge1" class="edge">
<title>PacketPusherBase&#45;&gt;DeaggregatorBase</title>
<path fill="none" stroke="black" d="M116,-109.75C116,-99.87 116,-83.9 116,-74.09"/>
</g>
</g>
</svg>
