<?xml version="1.0" encoding="UTF-8" standalone="no"?>
<!DOCTYPE svg PUBLIC "-//W3C//DTD SVG 1.1//EN"
 "http://www.w3.org/Graphics/SVG/1.1/DTD/svg11.dtd">
<!-- Generated by graphviz version 2.43.0 (0)
 -->
<!-- Title: opp Pages: 1 -->
<svg width="522pt" height="82pt"
 viewBox="0.00 0.00 522.00 82.00" xmlns="http://www.w3.org/2000/svg" xmlns:xlink="http://www.w3.org/1999/xlink">
<g id="graph0" class="graph" transform="scale(1 1) rotate(0) translate(4 78)">
<title>opp</title>
<polygon fill="transparent" stroke="transparent" points="-4,4 -4,-78 518,-78 518,4 -4,4"/>
<!-- QosThroughput -->
<g id="node1" class="node">
<title>QosThroughput</title>
<g id="a_node1"><a xlink:href="inet.examples.wireless.qos.QosThroughput.html" xlink:title="Network QosThroughput" target="_parent">
<polygon fill="#9090ff" stroke="black" points="317,-74 226,-74 226,-55 317,-55 317,-74"/>
<text text-anchor="middle" x="271.5" y="-62" font-family="Helvetica,sans-Serif" font-size="10.00">QosThroughput</text>
</a>
</g>
</g>
<!-- Ieee80211ScalarRadioMedium -->
<g id="node2" class="node">
<title>Ieee80211ScalarRadioMedium</title>
<g id="a_node2"><a xlink:href="inet.physicallayer.wireless.ieee80211.packetlevel.Ieee80211ScalarRadioMedium.html" xlink:title="Compound Module Ieee80211ScalarRadioMedium" target="_parent">
<polygon fill="#fffcaf" stroke="black" points="165,-19 0,-19 0,0 165,0 165,-19"/>
<text text-anchor="middle" x="82.5" y="-7" font-family="Helvetica,sans-Serif" font-size="10.00">Ieee80211ScalarRadioMedium</text>
</a>
</g>
</g>
<!-- QosThroughput&#45;&gt;Ieee80211ScalarRadioMedium -->
<g id="edge1" class="edge">
<title>QosThroughput&#45;&gt;Ieee80211ScalarRadioMedium</title>
<path fill="none" stroke="black" d="M241.13,-54.98C209.13,-46.01 158.54,-31.82 123.12,-21.89"/>
<polygon fill="black" stroke="black" points="123.68,-18.41 113.1,-19.08 121.79,-25.15 123.68,-18.41"/>
</g>
<!-- WirelessHost -->
<g id="node3" class="node">
<title>WirelessHost</title>
<g id="a_node3"><a xlink:href="inet.node.inet.WirelessHost.html" xlink:title="Compound Module WirelessHost" target="_parent">
<polygon fill="#fffcaf" stroke="black" points="264,-19 183,-19 183,0 264,0 264,-19"/>
<text text-anchor="middle" x="223.5" y="-7" font-family="Helvetica,sans-Serif" font-size="10.00">WirelessHost</text>
</a>
</g>
</g>
<!-- QosThroughput&#45;&gt;WirelessHost -->
<g id="edge2" class="edge">
<title>QosThroughput&#45;&gt;WirelessHost</title>
<path fill="none" stroke="black" d="M263.57,-54.75C256.65,-47.11 246.43,-35.82 238.05,-26.56"/>
<polygon fill="black" stroke="black" points="240.59,-24.15 231.28,-19.09 235.4,-28.85 240.59,-24.15"/>
</g>
<!-- AccessPoint -->
<g id="node4" class="node">
<title>AccessPoint</title>
<g id="a_node4"><a xlink:href="inet.node.wireless.AccessPoint.html" xlink:title="Compound Module AccessPoint" target="_parent">
<polygon fill="#fffcaf" stroke="black" points="357,-19 282,-19 282,0 357,0 357,-19"/>
<text text-anchor="middle" x="319.5" y="-7" font-family="Helvetica,sans-Serif" font-size="10.00">AccessPoint</text>
</a>
</g>
</g>
<!-- QosThroughput&#45;&gt;AccessPoint -->
<g id="edge3" class="edge">
<title>QosThroughput&#45;&gt;AccessPoint</title>
<path fill="none" stroke="black" d="M279.43,-54.75C286.35,-47.11 296.57,-35.82 304.95,-26.56"/>
<polygon fill="black" stroke="black" points="307.6,-28.85 311.72,-19.09 302.41,-24.15 307.6,-28.85"/>
</g>
<!-- Ipv4NetworkConfigurator -->
<g id="node5" class="node">
<title>Ipv4NetworkConfigurator</title>
<g id="a_node5"><a xlink:href="inet.networklayer.configurator.ipv4.Ipv4NetworkConfigurator.html" xlink:title="Simple Module Ipv4NetworkConfigurator" target="_parent">
<polygon fill="#fffcaf" stroke="black" points="514,-19 375,-19 375,0 514,0 514,-19"/>
<text text-anchor="middle" x="444.5" y="-7" font-family="Helvetica,sans-Serif" font-size="10.00">Ipv4NetworkConfigurator</text>
</a>
</g>
</g>
<!-- QosThroughput&#45;&gt;Ipv4NetworkConfigurator -->
<g id="edge4" class="edge">
<title>QosThroughput&#45;&gt;Ipv4NetworkConfigurator</title>
<path fill="none" stroke="black" d="M299.3,-54.98C328.47,-46.05 374.5,-31.94 406.9,-22.02"/>
<polygon fill="black" stroke="black" points="407.95,-25.36 416.49,-19.08 405.9,-18.66 407.95,-25.36"/>
</g>
</g>
</svg>
