<?xml version="1.0" encoding="UTF-8" standalone="no"?>
<!DOCTYPE svg PUBLIC "-//W3C//DTD SVG 1.1//EN"
 "http://www.w3.org/Graphics/SVG/1.1/DTD/svg11.dtd">
<!-- Generated by graphviz version 2.43.0 (0)
 -->
<!-- Title: opp Pages: 1 -->
<svg width="192pt" height="82pt"
 viewBox="0.00 0.00 192.00 82.00" xmlns="http://www.w3.org/2000/svg" xmlns:xlink="http://www.w3.org/1999/xlink">
<g id="graph0" class="graph" transform="scale(1 1) rotate(0) translate(4 78)">
<title>opp</title>
<polygon fill="transparent" stroke="transparent" points="-4,4 -4,-78 188,-78 188,4 -4,4"/>
<!-- StreamPolicyLayer -->
<g id="node1" class="node">
<title>StreamPolicyLayer</title>
<g id="a_node1"><a xlink:href="inet.linklayer.ieee8021q.StreamPolicyLayer.html" xlink:title="Compound Module StreamPolicyLayer" target="_parent">
<polygon fill="#fff700" stroke="black" points="144,-74 36,-74 36,-55 144,-55 144,-74"/>
<text text-anchor="middle" x="90" y="-62" font-family="Helvetica,sans-Serif" font-size="10.00">StreamPolicyLayer</text>
</a>
</g>
</g>
<!-- IdealChannel -->
<g id="node2" class="node">
<title>IdealChannel</title>
<g id="a_node2"><a xlink:href="ned.IdealChannel.html" xlink:title="Channel IdealChannel" target="_parent">
<polygon fill="#d0ffd0" stroke="black" points="80,-19 0,-19 0,0 80,0 80,-19"/>
<text text-anchor="middle" x="40" y="-7" font-family="Helvetica,sans-Serif" font-size="10.00">IdealChannel</text>
</a>
</g>
</g>
<!-- StreamPolicyLayer&#45;&gt;IdealChannel -->
<g id="edge1" class="edge">
<title>StreamPolicyLayer&#45;&gt;IdealChannel</title>
<path fill="none" stroke="black" d="M81.74,-54.75C74.54,-47.11 63.89,-35.82 55.15,-26.56"/>
<polygon fill="black" stroke="black" points="57.51,-23.96 48.1,-19.09 52.42,-28.76 57.51,-23.96"/>
</g>
<!-- IProtocolLayer -->
<g id="node3" class="node">
<title>IProtocolLayer</title>
<g id="a_node3"><a xlink:href="inet.protocolelement.contract.IProtocolLayer.html" xlink:title="Module Interface IProtocolLayer" target="_parent">
<polygon fill="#fffcaf" stroke="black" stroke-dasharray="5,2" points="184,-19 98,-19 98,0 184,0 184,-19"/>
<text text-anchor="middle" x="141" y="-7" font-family="Helvetica,sans-Serif" font-size="10.00">IProtocolLayer</text>
</a>
</g>
</g>
<!-- StreamPolicyLayer&#45;&gt;IProtocolLayer -->
<g id="edge2" class="edge">
<title>StreamPolicyLayer&#45;&gt;IProtocolLayer</title>
<path fill="none" stroke="black" d="M98.42,-54.75C105.77,-47.11 116.63,-35.82 125.54,-26.56"/>
<polygon fill="black" stroke="black" points="128.32,-28.72 132.74,-19.09 123.28,-23.87 128.32,-28.72"/>
</g>
</g>
</svg>
