<?xml version="1.0" encoding="UTF-8" standalone="no"?>
<!DOCTYPE svg PUBLIC "-//W3C//DTD SVG 1.1//EN"
 "http://www.w3.org/Graphics/SVG/1.1/DTD/svg11.dtd">
<!-- Generated by graphviz version 2.43.0 (0)
 -->
<!-- Title: opp Pages: 1 -->
<svg width="1320pt" height="137pt"
 viewBox="0.00 0.00 1319.50 137.00" xmlns="http://www.w3.org/2000/svg" xmlns:xlink="http://www.w3.org/1999/xlink">
<g id="graph0" class="graph" transform="scale(1 1) rotate(0) translate(4 133)">
<title>opp</title>
<polygon fill="transparent" stroke="transparent" points="-4,4 -4,-133 1315.5,-133 1315.5,4 -4,4"/>
<!-- LdpMplsRouter -->
<g id="node1" class="node">
<title>LdpMplsRouter</title>
<g id="a_node1"><a xlink:href="inet.node.mpls.LdpMplsRouter.html" xlink:title="Compound Module LdpMplsRouter" target="_parent">
<polygon fill="#fff700" stroke="black" points="759.5,-74 670.5,-74 670.5,-55 759.5,-55 759.5,-74"/>
<text text-anchor="middle" x="715" y="-62" font-family="Helvetica,sans-Serif" font-size="10.00">LdpMplsRouter</text>
</a>
</g>
</g>
<!-- InterfaceTable -->
<g id="node2" class="node">
<title>InterfaceTable</title>
<g id="a_node2"><a xlink:href="inet.networklayer.common.InterfaceTable.html" xlink:title="Simple Module InterfaceTable" target="_parent">
<polygon fill="#fffcaf" stroke="black" points="86,-19 0,-19 0,0 86,0 86,-19"/>
<text text-anchor="middle" x="43" y="-7" font-family="Helvetica,sans-Serif" font-size="10.00">InterfaceTable</text>
</a>
</g>
</g>
<!-- LdpMplsRouter&#45;&gt;InterfaceTable -->
<g id="edge1" class="edge">
<title>LdpMplsRouter&#45;&gt;InterfaceTable</title>
<path fill="none" stroke="black" d="M670.13,-61.67C569.39,-57.27 317.41,-44.58 96.26,-19.04"/>
<polygon fill="black" stroke="black" points="96.43,-15.53 86.09,-17.85 95.61,-22.49 96.43,-15.53"/>
</g>
<!-- Ipv4NetworkLayer -->
<g id="node3" class="node">
<title>Ipv4NetworkLayer</title>
<g id="a_node3"><a xlink:href="inet.networklayer.ipv4.Ipv4NetworkLayer.html" xlink:title="Compound Module Ipv4NetworkLayer" target="_parent">
<polygon fill="#fffcaf" stroke="black" points="210,-19 104,-19 104,0 210,0 210,-19"/>
<text text-anchor="middle" x="157" y="-7" font-family="Helvetica,sans-Serif" font-size="10.00">Ipv4NetworkLayer</text>
</a>
</g>
</g>
<!-- LdpMplsRouter&#45;&gt;Ipv4NetworkLayer -->
<g id="edge2" class="edge">
<title>LdpMplsRouter&#45;&gt;Ipv4NetworkLayer</title>
<path fill="none" stroke="black" d="M670.47,-60.21C585.2,-53.75 392.74,-38.44 220.11,-19.08"/>
<polygon fill="black" stroke="black" points="220.41,-15.59 210.08,-17.94 219.62,-22.54 220.41,-15.59"/>
</g>
<!-- NodeStatus -->
<g id="node4" class="node">
<title>NodeStatus</title>
<g id="a_node4"><a xlink:href="inet.common.lifecycle.NodeStatus.html" xlink:title="Simple Module NodeStatus" target="_parent">
<polygon fill="#fffcaf" stroke="black" points="301.5,-19 228.5,-19 228.5,0 301.5,0 301.5,-19"/>
<text text-anchor="middle" x="265" y="-7" font-family="Helvetica,sans-Serif" font-size="10.00">NodeStatus</text>
</a>
</g>
</g>
<!-- LdpMplsRouter&#45;&gt;NodeStatus -->
<g id="edge3" class="edge">
<title>LdpMplsRouter&#45;&gt;NodeStatus</title>
<path fill="none" stroke="black" d="M670.33,-59.65C597.52,-53.15 448.53,-38.87 311.85,-19.02"/>
<polygon fill="black" stroke="black" points="312.02,-15.5 301.62,-17.52 311,-22.43 312.02,-15.5"/>
</g>
<!-- ILoopbackInterface -->
<g id="node5" class="node">
<title>ILoopbackInterface</title>
<g id="a_node5"><a xlink:href="inet.linklayer.contract.ILoopbackInterface.html" xlink:title="Module Interface ILoopbackInterface" target="_parent">
<polygon fill="#fffcaf" stroke="black" stroke-dasharray="5,2" points="430,-19 320,-19 320,0 430,0 430,-19"/>
<text text-anchor="middle" x="375" y="-7" font-family="Helvetica,sans-Serif" font-size="10.00">ILoopbackInterface</text>
</a>
</g>
</g>
<!-- LdpMplsRouter&#45;&gt;ILoopbackInterface -->
<g id="edge4" class="edge">
<title>LdpMplsRouter&#45;&gt;ILoopbackInterface</title>
<path fill="none" stroke="black" d="M670.2,-56.52C611.29,-47.33 507.35,-31.13 439.84,-20.61"/>
<polygon fill="black" stroke="black" points="440.17,-17.12 429.75,-19.03 439.09,-24.03 440.17,-17.12"/>
</g>
<!-- MessageDispatcher -->
<g id="node6" class="node">
<title>MessageDispatcher</title>
<g id="a_node6"><a xlink:href="inet.common.MessageDispatcher.html" xlink:title="Simple Module MessageDispatcher" target="_parent">
<polygon fill="#fffcaf" stroke="black" points="561.5,-19 448.5,-19 448.5,0 561.5,0 561.5,-19"/>
<text text-anchor="middle" x="505" y="-7" font-family="Helvetica,sans-Serif" font-size="10.00">MessageDispatcher</text>
</a>
</g>
</g>
<!-- LdpMplsRouter&#45;&gt;MessageDispatcher -->
<g id="edge5" class="edge">
<title>LdpMplsRouter&#45;&gt;MessageDispatcher</title>
<path fill="none" stroke="black" d="M681.26,-54.98C645.32,-45.91 588.28,-31.52 548.87,-21.57"/>
<polygon fill="black" stroke="black" points="549.56,-18.14 539,-19.08 547.84,-24.92 549.56,-18.14"/>
</g>
<!-- Mpls -->
<g id="node7" class="node">
<title>Mpls</title>
<g id="a_node7"><a xlink:href="inet.networklayer.mpls.Mpls.html" xlink:title="Simple Module Mpls" target="_parent">
<polygon fill="#fffcaf" stroke="black" points="634,-19 580,-19 580,0 634,0 634,-19"/>
<text text-anchor="middle" x="607" y="-7" font-family="Helvetica,sans-Serif" font-size="10.00">Mpls</text>
</a>
</g>
</g>
<!-- LdpMplsRouter&#45;&gt;Mpls -->
<g id="edge6" class="edge">
<title>LdpMplsRouter&#45;&gt;Mpls</title>
<path fill="none" stroke="black" d="M697.65,-54.98C680.43,-46.54 653.8,-33.47 633.85,-23.68"/>
<polygon fill="black" stroke="black" points="635.19,-20.43 624.67,-19.17 632.1,-26.72 635.19,-20.43"/>
</g>
<!-- Ted -->
<g id="node8" class="node">
<title>Ted</title>
<g id="a_node8"><a xlink:href="inet.networklayer.ted.Ted.html" xlink:title="Simple Module Ted" target="_parent">
<polygon fill="#fffcaf" stroke="black" points="706,-19 652,-19 652,0 706,0 706,-19"/>
<text text-anchor="middle" x="679" y="-7" font-family="Helvetica,sans-Serif" font-size="10.00">Ted</text>
</a>
</g>
</g>
<!-- LdpMplsRouter&#45;&gt;Ted -->
<g id="edge7" class="edge">
<title>LdpMplsRouter&#45;&gt;Ted</title>
<path fill="none" stroke="black" d="M709.06,-54.75C704.02,-47.34 696.66,-36.5 690.49,-27.41"/>
<polygon fill="black" stroke="black" points="693.35,-25.39 684.83,-19.09 687.56,-29.33 693.35,-25.39"/>
</g>
<!-- LibTable -->
<g id="node9" class="node">
<title>LibTable</title>
<g id="a_node9"><a xlink:href="inet.networklayer.mpls.LibTable.html" xlink:title="Simple Module LibTable" target="_parent">
<polygon fill="#fffcaf" stroke="black" points="780,-19 724,-19 724,0 780,0 780,-19"/>
<text text-anchor="middle" x="752" y="-7" font-family="Helvetica,sans-Serif" font-size="10.00">LibTable</text>
</a>
</g>
</g>
<!-- LdpMplsRouter&#45;&gt;LibTable -->
<g id="edge8" class="edge">
<title>LdpMplsRouter&#45;&gt;LibTable</title>
<path fill="none" stroke="black" d="M721.11,-54.75C726.28,-47.34 733.85,-36.5 740.19,-27.41"/>
<polygon fill="black" stroke="black" points="743.15,-29.29 746,-19.09 737.41,-25.29 743.15,-29.29"/>
</g>
<!-- ITcp -->
<g id="node10" class="node">
<title>ITcp</title>
<g id="a_node10"><a xlink:href="inet.transportlayer.contract.ITcp.html" xlink:title="Module Interface ITcp" target="_parent">
<polygon fill="#fffcaf" stroke="black" stroke-dasharray="5,2" points="852,-19 798,-19 798,0 852,0 852,-19"/>
<text text-anchor="middle" x="825" y="-7" font-family="Helvetica,sans-Serif" font-size="10.00">ITcp</text>
</a>
</g>
</g>
<!-- LdpMplsRouter&#45;&gt;ITcp -->
<g id="edge9" class="edge">
<title>LdpMplsRouter&#45;&gt;ITcp</title>
<path fill="none" stroke="black" d="M732.67,-54.98C750.29,-46.5 777.58,-33.35 797.93,-23.54"/>
<polygon fill="black" stroke="black" points="799.52,-26.66 807.01,-19.17 796.48,-20.36 799.52,-26.66"/>
</g>
<!-- Ldp -->
<g id="node11" class="node">
<title>Ldp</title>
<g id="a_node11"><a xlink:href="inet.networklayer.ldp.Ldp.html" xlink:title="Simple Module Ldp" target="_parent">
<polygon fill="#fffcaf" stroke="black" points="924,-19 870,-19 870,0 924,0 924,-19"/>
<text text-anchor="middle" x="897" y="-7" font-family="Helvetica,sans-Serif" font-size="10.00">Ldp</text>
</a>
</g>
</g>
<!-- LdpMplsRouter&#45;&gt;Ldp -->
<g id="edge10" class="edge">
<title>LdpMplsRouter&#45;&gt;Ldp</title>
<path fill="none" stroke="black" d="M744.24,-54.98C775.79,-45.8 826.1,-31.15 860.29,-21.19"/>
<polygon fill="black" stroke="black" points="861.29,-24.55 869.91,-18.39 859.33,-17.82 861.29,-24.55"/>
</g>
<!-- LinkStateRouting -->
<g id="node12" class="node">
<title>LinkStateRouting</title>
<g id="a_node12"><a xlink:href="inet.networklayer.ted.LinkStateRouting.html" xlink:title="Simple Module LinkStateRouting" target="_parent">
<polygon fill="#fffcaf" stroke="black" points="1042,-19 942,-19 942,0 1042,0 1042,-19"/>
<text text-anchor="middle" x="992" y="-7" font-family="Helvetica,sans-Serif" font-size="10.00">LinkStateRouting</text>
</a>
</g>
</g>
<!-- LdpMplsRouter&#45;&gt;LinkStateRouting -->
<g id="edge11" class="edge">
<title>LdpMplsRouter&#45;&gt;LinkStateRouting</title>
<path fill="none" stroke="black" d="M759.5,-54.98C807.82,-45.74 885.04,-30.97 937.09,-21.01"/>
<polygon fill="black" stroke="black" points="937.98,-24.4 947.15,-19.08 936.67,-17.52 937.98,-24.4"/>
</g>
<!-- IdealChannel -->
<g id="node13" class="node">
<title>IdealChannel</title>
<g id="a_node13"><a xlink:href="ned.IdealChannel.html" xlink:title="Channel IdealChannel" target="_parent">
<polygon fill="#d0ffd0" stroke="black" points="1140,-19 1060,-19 1060,0 1140,0 1140,-19"/>
<text text-anchor="middle" x="1100" y="-7" font-family="Helvetica,sans-Serif" font-size="10.00">IdealChannel</text>
</a>
</g>
</g>
<!-- LdpMplsRouter&#45;&gt;IdealChannel -->
<g id="edge12" class="edge">
<title>LdpMplsRouter&#45;&gt;IdealChannel</title>
<path fill="none" stroke="black" d="M759.65,-58.16C822.21,-50.56 939.74,-35.82 1049.95,-19.11"/>
<polygon fill="black" stroke="black" points="1050.55,-22.56 1059.91,-17.59 1049.5,-15.64 1050.55,-22.56"/>
</g>
<!-- IUdp -->
<g id="node14" class="node">
<title>IUdp</title>
<g id="a_node14"><a xlink:href="inet.transportlayer.contract.IUdp.html" xlink:title="Module Interface IUdp" target="_parent">
<polygon fill="#fffcaf" stroke="black" stroke-dasharray="5,2" points="1212,-19 1158,-19 1158,0 1212,0 1212,-19"/>
<text text-anchor="middle" x="1185" y="-7" font-family="Helvetica,sans-Serif" font-size="10.00">IUdp</text>
</a>
</g>
</g>
<!-- LdpMplsRouter&#45;&gt;IUdp -->
<g id="edge13" class="edge">
<title>LdpMplsRouter&#45;&gt;IUdp</title>
<path fill="none" stroke="black" d="M759.62,-60.84C836.78,-55.83 1000.28,-43.37 1147.81,-18.98"/>
<polygon fill="black" stroke="black" points="1148.67,-22.39 1157.95,-17.28 1147.51,-15.49 1148.67,-22.39"/>
</g>
<!-- IPppInterface -->
<g id="node15" class="node">
<title>IPppInterface</title>
<g id="a_node15"><a xlink:href="inet.linklayer.contract.IPppInterface.html" xlink:title="Module Interface IPppInterface" target="_parent">
<polygon fill="#fffcaf" stroke="black" stroke-dasharray="5,2" points="1311.5,-19 1230.5,-19 1230.5,0 1311.5,0 1311.5,-19"/>
<text text-anchor="middle" x="1271" y="-7" font-family="Helvetica,sans-Serif" font-size="10.00">IPppInterface</text>
</a>
</g>
</g>
<!-- LdpMplsRouter&#45;&gt;IPppInterface -->
<g id="edge14" class="edge">
<title>LdpMplsRouter&#45;&gt;IPppInterface</title>
<path fill="none" stroke="black" d="M759.8,-60.78C846.58,-55.24 1043.82,-41.38 1220.39,-18.97"/>
<polygon fill="black" stroke="black" points="1220.91,-22.43 1230.38,-17.69 1220.02,-15.49 1220.91,-22.43"/>
</g>
<!-- LDPTEST -->
<g id="node16" class="node">
<title>LDPTEST</title>
<g id="a_node16"><a xlink:href="inet.examples.mpls.ldp.LDPTEST.html" xlink:title="Network LDPTEST" target="_parent">
<polygon fill="#d0d0ff" stroke="black" points="744.5,-129 685.5,-129 685.5,-110 744.5,-110 744.5,-129"/>
<text text-anchor="middle" x="715" y="-117" font-family="Helvetica,sans-Serif" font-size="10.00">LDPTEST</text>
</a>
</g>
</g>
<!-- LDPTEST&#45;&gt;LdpMplsRouter -->
<g id="edge15" class="edge">
<title>LDPTEST&#45;&gt;LdpMplsRouter</title>
<path fill="none" stroke="black" d="M715,-109.75C715,-102.8 715,-92.85 715,-84.13"/>
<polygon fill="black" stroke="black" points="718.5,-84.09 715,-74.09 711.5,-84.09 718.5,-84.09"/>
</g>
</g>
</svg>
