<?xml version="1.0" encoding="UTF-8" standalone="no"?>
<!DOCTYPE svg PUBLIC "-//W3C//DTD SVG 1.1//EN"
 "http://www.w3.org/Graphics/SVG/1.1/DTD/svg11.dtd">
<!-- Generated by graphviz version 2.43.0 (0)
 -->
<!-- Title: opp Pages: 1 -->
<svg width="568pt" height="82pt"
 viewBox="0.00 0.00 567.50 82.00" xmlns="http://www.w3.org/2000/svg" xmlns:xlink="http://www.w3.org/1999/xlink">
<g id="graph0" class="graph" transform="scale(1 1) rotate(0) translate(4 78)">
<title>opp</title>
<polygon fill="transparent" stroke="transparent" points="-4,4 -4,-78 563.5,-78 563.5,4 -4,4"/>
<!-- Pim -->
<g id="node1" class="node">
<title>Pim</title>
<g id="a_node1"><a xlink:href="inet.routing.pim.Pim.html" xlink:title="Compound Module Pim" target="_parent">
<polygon fill="#fff700" stroke="black" points="327.5,-74 273.5,-74 273.5,-55 327.5,-55 327.5,-74"/>
<text text-anchor="middle" x="300.5" y="-62" font-family="Helvetica,sans-Serif" font-size="10.00">Pim</text>
</a>
</g>
</g>
<!-- PimNeighborTable -->
<g id="node2" class="node">
<title>PimNeighborTable</title>
<g id="a_node2"><a xlink:href="inet.routing.pim.tables.PimNeighborTable.html" xlink:title="Simple Module PimNeighborTable" target="_parent">
<polygon fill="#fffcaf" stroke="black" points="105,-19 0,-19 0,0 105,0 105,-19"/>
<text text-anchor="middle" x="52.5" y="-7" font-family="Helvetica,sans-Serif" font-size="10.00">PimNeighborTable</text>
</a>
</g>
</g>
<!-- Pim&#45;&gt;PimNeighborTable -->
<g id="edge1" class="edge">
<title>Pim&#45;&gt;PimNeighborTable</title>
<path fill="none" stroke="black" d="M273.49,-57.73C232.53,-48.97 154.04,-32.2 102.48,-21.18"/>
<polygon fill="black" stroke="black" points="103.06,-17.73 92.55,-19.06 101.6,-24.57 103.06,-17.73"/>
</g>
<!-- PimDm -->
<g id="node3" class="node">
<title>PimDm</title>
<g id="a_node3"><a xlink:href="inet.routing.pim.modes.PimDm.html" xlink:title="Simple Module PimDm" target="_parent">
<polygon fill="#fffcaf" stroke="black" points="177.5,-19 123.5,-19 123.5,0 177.5,0 177.5,-19"/>
<text text-anchor="middle" x="150.5" y="-7" font-family="Helvetica,sans-Serif" font-size="10.00">PimDm</text>
</a>
</g>
</g>
<!-- Pim&#45;&gt;PimDm -->
<g id="edge2" class="edge">
<title>Pim&#45;&gt;PimDm</title>
<path fill="none" stroke="black" d="M276.4,-54.98C251.62,-46.23 212.8,-32.51 184.81,-22.62"/>
<polygon fill="black" stroke="black" points="185.63,-19.2 175.04,-19.17 183.3,-25.8 185.63,-19.2"/>
</g>
<!-- PimInterfaceTable -->
<g id="node4" class="node">
<title>PimInterfaceTable</title>
<g id="a_node4"><a xlink:href="inet.routing.pim.tables.PimInterfaceTable.html" xlink:title="Simple Module PimInterfaceTable" target="_parent">
<polygon fill="#fffcaf" stroke="black" points="299.5,-19 195.5,-19 195.5,0 299.5,0 299.5,-19"/>
<text text-anchor="middle" x="247.5" y="-7" font-family="Helvetica,sans-Serif" font-size="10.00">PimInterfaceTable</text>
</a>
</g>
</g>
<!-- Pim&#45;&gt;PimInterfaceTable -->
<g id="edge3" class="edge">
<title>Pim&#45;&gt;PimInterfaceTable</title>
<path fill="none" stroke="black" d="M291.75,-54.75C284.03,-47.03 272.6,-35.6 263.28,-26.28"/>
<polygon fill="black" stroke="black" points="265.64,-23.69 256.09,-19.09 260.69,-28.64 265.64,-23.69"/>
</g>
<!-- PimSplitter -->
<g id="node5" class="node">
<title>PimSplitter</title>
<g id="a_node5"><a xlink:href="inet.routing.pim.PimSplitter.html" xlink:title="Simple Module PimSplitter" target="_parent">
<polygon fill="#fffcaf" stroke="black" points="389,-19 318,-19 318,0 389,0 389,-19"/>
<text text-anchor="middle" x="353.5" y="-7" font-family="Helvetica,sans-Serif" font-size="10.00">PimSplitter</text>
</a>
</g>
</g>
<!-- Pim&#45;&gt;PimSplitter -->
<g id="edge4" class="edge">
<title>Pim&#45;&gt;PimSplitter</title>
<path fill="none" stroke="black" d="M309.25,-54.75C316.97,-47.03 328.4,-35.6 337.72,-26.28"/>
<polygon fill="black" stroke="black" points="340.31,-28.64 344.91,-19.09 335.36,-23.69 340.31,-28.64"/>
</g>
<!-- PimSm -->
<g id="node6" class="node">
<title>PimSm</title>
<g id="a_node6"><a xlink:href="inet.routing.pim.modes.PimSm.html" xlink:title="Simple Module PimSm" target="_parent">
<polygon fill="#fffcaf" stroke="black" points="461.5,-19 407.5,-19 407.5,0 461.5,0 461.5,-19"/>
<text text-anchor="middle" x="434.5" y="-7" font-family="Helvetica,sans-Serif" font-size="10.00">PimSm</text>
</a>
</g>
</g>
<!-- Pim&#45;&gt;PimSm -->
<g id="edge5" class="edge">
<title>Pim&#45;&gt;PimSm</title>
<path fill="none" stroke="black" d="M322.03,-54.98C343.97,-46.3 378.24,-32.75 403.19,-22.88"/>
<polygon fill="black" stroke="black" points="404.57,-26.1 412.58,-19.17 401.99,-19.59 404.57,-26.1"/>
</g>
<!-- IdealChannel -->
<g id="node7" class="node">
<title>IdealChannel</title>
<g id="a_node7"><a xlink:href="ned.IdealChannel.html" xlink:title="Channel IdealChannel" target="_parent">
<polygon fill="#d0ffd0" stroke="black" points="559.5,-19 479.5,-19 479.5,0 559.5,0 559.5,-19"/>
<text text-anchor="middle" x="519.5" y="-7" font-family="Helvetica,sans-Serif" font-size="10.00">IdealChannel</text>
</a>
</g>
</g>
<!-- Pim&#45;&gt;IdealChannel -->
<g id="edge6" class="edge">
<title>Pim&#45;&gt;IdealChannel</title>
<path fill="none" stroke="black" d="M327.79,-56.89C364.49,-48.01 430.23,-32.11 474.35,-21.43"/>
<polygon fill="black" stroke="black" points="475.35,-24.79 484.24,-19.03 473.7,-17.98 475.35,-24.79"/>
</g>
</g>
</svg>
