<?xml version="1.0" encoding="UTF-8" standalone="no"?>
<!DOCTYPE svg PUBLIC "-//W3C//DTD SVG 1.1//EN"
 "http://www.w3.org/Graphics/SVG/1.1/DTD/svg11.dtd">
<!-- Generated by graphviz version 2.43.0 (0)
 -->
<!-- Title: opp Pages: 1 -->
<svg width="232pt" height="82pt"
 viewBox="0.00 0.00 231.50 82.00" xmlns="http://www.w3.org/2000/svg" xmlns:xlink="http://www.w3.org/1999/xlink">
<g id="graph0" class="graph" transform="scale(1 1) rotate(0) translate(4 78)">
<title>opp</title>
<polygon fill="transparent" stroke="transparent" points="-4,4 -4,-78 227.5,-78 227.5,4 -4,4"/>
<!-- EthernetInterface -->
<g id="node1" class="node">
<title>EthernetInterface</title>
<g id="a_node1"><a xlink:href="inet.linklayer.ethernet.EthernetInterface.html" xlink:title="Compound Module EthernetInterface" target="_parent">
<polygon fill="#fff700" stroke="black" points="161,-19 60,-19 60,0 161,0 161,-19"/>
<text text-anchor="middle" x="110.5" y="-7" font-family="Helvetica,sans-Serif" font-size="10.00">EthernetInterface</text>
</a>
</g>
</g>
<!-- NetworkInterface -->
<g id="node2" class="node">
<title>NetworkInterface</title>
<g id="a_node2"><a xlink:href="inet.networklayer.common.NetworkInterface.html" xlink:title="Compound Module NetworkInterface" target="_parent">
<polygon fill="#fffcaf" stroke="black" points="101,-74 0,-74 0,-55 101,-55 101,-74"/>
<text text-anchor="middle" x="50.5" y="-62" font-family="Helvetica,sans-Serif" font-size="10.00">NetworkInterface</text>
</a>
</g>
</g>
<!-- NetworkInterface&#45;&gt;EthernetInterface -->
<g id="edge1" class="edge">
<title>NetworkInterface&#45;&gt;EthernetInterface</title>
<path fill="none" stroke="black" d="M60.14,-54.98C71.27,-45.15 89.48,-29.07 100.68,-19.17"/>
</g>
<!-- IEthernetInterface -->
<g id="node3" class="node">
<title>IEthernetInterface</title>
<g id="a_node3"><a xlink:href="inet.linklayer.contract.IEthernetInterface.html" xlink:title="Module Interface IEthernetInterface" target="_parent">
<polygon fill="#fffcaf" stroke="black" stroke-dasharray="5,2" points="223.5,-74 119.5,-74 119.5,-55 223.5,-55 223.5,-74"/>
<text text-anchor="middle" x="171.5" y="-62" font-family="Helvetica,sans-Serif" font-size="10.00">IEthernetInterface</text>
</a>
</g>
</g>
<!-- IEthernetInterface&#45;&gt;EthernetInterface -->
<g id="edge2" class="edge">
<title>IEthernetInterface&#45;&gt;EthernetInterface</title>
<path fill="none" stroke="black" stroke-dasharray="5,2" d="M161.7,-54.98C150.38,-45.15 131.87,-29.07 120.48,-19.17"/>
</g>
</g>
</svg>
