<?xml version="1.0" encoding="UTF-8" standalone="no"?>
<!DOCTYPE svg PUBLIC "-//W3C//DTD SVG 1.1//EN"
 "http://www.w3.org/Graphics/SVG/1.1/DTD/svg11.dtd">
<!-- Generated by graphviz version 2.43.0 (0)
 -->
<!-- Title: opp Pages: 1 -->
<svg width="632pt" height="82pt"
 viewBox="0.00 0.00 631.50 82.00" xmlns="http://www.w3.org/2000/svg" xmlns:xlink="http://www.w3.org/1999/xlink">
<g id="graph0" class="graph" transform="scale(1 1) rotate(0) translate(4 78)">
<title>opp</title>
<polygon fill="transparent" stroke="transparent" points="-4,4 -4,-78 627.5,-78 627.5,4 -4,4"/>
<!-- NetworkWithCrossTraffic -->
<g id="node1" class="node">
<title>NetworkWithCrossTraffic</title>
<g id="a_node1"><a xlink:href="inet.examples.ieee8021as.NetworkWithCrossTraffic.html" xlink:title="Network NetworkWithCrossTraffic" target="_parent">
<polygon fill="#9090ff" stroke="black" points="341.5,-74 204.5,-74 204.5,-55 341.5,-55 341.5,-74"/>
<text text-anchor="middle" x="273" y="-62" font-family="Helvetica,sans-Serif" font-size="10.00">NetworkWithCrossTraffic</text>
</a>
</g>
</g>
<!-- GptpMaster -->
<g id="node2" class="node">
<title>GptpMaster</title>
<g id="a_node2"><a xlink:href="inet.linklayer.ieee8021as.GptpMaster.html" xlink:title="Compound Module GptpMaster" target="_parent">
<polygon fill="#fffcaf" stroke="black" points="74,-19 0,-19 0,0 74,0 74,-19"/>
<text text-anchor="middle" x="37" y="-7" font-family="Helvetica,sans-Serif" font-size="10.00">GptpMaster</text>
</a>
</g>
</g>
<!-- NetworkWithCrossTraffic&#45;&gt;GptpMaster -->
<g id="edge1" class="edge">
<title>NetworkWithCrossTraffic&#45;&gt;GptpMaster</title>
<path fill="none" stroke="black" d="M235.08,-54.98C193.98,-45.75 128.34,-31.01 84,-21.05"/>
<polygon fill="black" stroke="black" points="84.57,-17.6 74.05,-18.82 83.04,-24.43 84.57,-17.6"/>
</g>
<!-- GptpSlave -->
<g id="node3" class="node">
<title>GptpSlave</title>
<g id="a_node3"><a xlink:href="inet.linklayer.ieee8021as.GptpSlave.html" xlink:title="Compound Module GptpSlave" target="_parent">
<polygon fill="#fffcaf" stroke="black" points="159.5,-19 92.5,-19 92.5,0 159.5,0 159.5,-19"/>
<text text-anchor="middle" x="126" y="-7" font-family="Helvetica,sans-Serif" font-size="10.00">GptpSlave</text>
</a>
</g>
</g>
<!-- NetworkWithCrossTraffic&#45;&gt;GptpSlave -->
<g id="edge2" class="edge">
<title>NetworkWithCrossTraffic&#45;&gt;GptpSlave</title>
<path fill="none" stroke="black" d="M249.38,-54.98C225.1,-46.23 187.05,-32.51 159.63,-22.62"/>
<polygon fill="black" stroke="black" points="160.64,-19.27 150.05,-19.17 158.27,-25.85 160.64,-19.27"/>
</g>
<!-- StandardHost -->
<g id="node4" class="node">
<title>StandardHost</title>
<g id="a_node4"><a xlink:href="inet.node.inet.StandardHost.html" xlink:title="Compound Module StandardHost" target="_parent">
<polygon fill="#fffcaf" stroke="black" points="260.5,-19 177.5,-19 177.5,0 260.5,0 260.5,-19"/>
<text text-anchor="middle" x="219" y="-7" font-family="Helvetica,sans-Serif" font-size="10.00">StandardHost</text>
</a>
</g>
</g>
<!-- NetworkWithCrossTraffic&#45;&gt;StandardHost -->
<g id="edge3" class="edge">
<title>NetworkWithCrossTraffic&#45;&gt;StandardHost</title>
<path fill="none" stroke="black" d="M264.08,-54.75C256.22,-47.03 244.57,-35.6 235.08,-26.28"/>
<polygon fill="black" stroke="black" points="237.34,-23.6 227.75,-19.09 232.44,-28.59 237.34,-23.6"/>
</g>
<!-- DatarateChannel -->
<g id="node5" class="node">
<title>DatarateChannel</title>
<g id="a_node5"><a xlink:href="ned.DatarateChannel.html" xlink:title="Channel DatarateChannel" target="_parent">
<polygon fill="#d0ffd0" stroke="black" points="377.5,-19 278.5,-19 278.5,0 377.5,0 377.5,-19"/>
<text text-anchor="middle" x="328" y="-7" font-family="Helvetica,sans-Serif" font-size="10.00">DatarateChannel</text>
</a>
</g>
</g>
<!-- NetworkWithCrossTraffic&#45;&gt;DatarateChannel -->
<g id="edge4" class="edge">
<title>NetworkWithCrossTraffic&#45;&gt;DatarateChannel</title>
<path fill="none" stroke="black" d="M282.08,-54.75C290.09,-47.03 301.96,-35.6 311.62,-26.28"/>
<polygon fill="black" stroke="black" points="314.31,-28.55 319.09,-19.09 309.46,-23.51 314.31,-28.55"/>
</g>
<!-- Ipv4NetworkConfigurator -->
<g id="node6" class="node">
<title>Ipv4NetworkConfigurator</title>
<g id="a_node6"><a xlink:href="inet.networklayer.configurator.ipv4.Ipv4NetworkConfigurator.html" xlink:title="Simple Module Ipv4NetworkConfigurator" target="_parent">
<polygon fill="#fffcaf" stroke="black" points="534.5,-19 395.5,-19 395.5,0 534.5,0 534.5,-19"/>
<text text-anchor="middle" x="465" y="-7" font-family="Helvetica,sans-Serif" font-size="10.00">Ipv4NetworkConfigurator</text>
</a>
</g>
</g>
<!-- NetworkWithCrossTraffic&#45;&gt;Ipv4NetworkConfigurator -->
<g id="edge5" class="edge">
<title>NetworkWithCrossTraffic&#45;&gt;Ipv4NetworkConfigurator</title>
<path fill="none" stroke="black" d="M303.85,-54.98C336.5,-45.97 388.2,-31.7 424.2,-21.76"/>
<polygon fill="black" stroke="black" points="425.2,-25.12 433.91,-19.08 423.34,-18.37 425.2,-25.12"/>
</g>
<!-- GptpBridge -->
<g id="node7" class="node">
<title>GptpBridge</title>
<g id="a_node7"><a xlink:href="inet.linklayer.ieee8021as.GptpBridge.html" xlink:title="Compound Module GptpBridge" target="_parent">
<polygon fill="#fffcaf" stroke="black" points="623.5,-19 552.5,-19 552.5,0 623.5,0 623.5,-19"/>
<text text-anchor="middle" x="588" y="-7" font-family="Helvetica,sans-Serif" font-size="10.00">GptpBridge</text>
</a>
</g>
</g>
<!-- NetworkWithCrossTraffic&#45;&gt;GptpBridge -->
<g id="edge6" class="edge">
<title>NetworkWithCrossTraffic&#45;&gt;GptpBridge</title>
<path fill="none" stroke="black" d="M327.58,-55C380.12,-46.71 462.07,-33.51 542.21,-19.28"/>
<polygon fill="black" stroke="black" points="543.24,-22.65 552.47,-17.45 542.02,-15.76 543.24,-22.65"/>
</g>
</g>
</svg>
