<?xml version="1.0" encoding="UTF-8" standalone="no"?>
<!DOCTYPE svg PUBLIC "-//W3C//DTD SVG 1.1//EN"
 "http://www.w3.org/Graphics/SVG/1.1/DTD/svg11.dtd">
<!-- Generated by graphviz version 2.43.0 (0)
 -->
<!-- Title: opp Pages: 1 -->
<svg width="274pt" height="82pt"
 viewBox="0.00 0.00 274.00 82.00" xmlns="http://www.w3.org/2000/svg" xmlns:xlink="http://www.w3.org/1999/xlink">
<g id="graph0" class="graph" transform="scale(1 1) rotate(0) translate(4 78)">
<title>opp</title>
<polygon fill="transparent" stroke="transparent" points="-4,4 -4,-78 270,-78 270,4 -4,4"/>
<!-- VlanPolicyLayer -->
<g id="node1" class="node">
<title>VlanPolicyLayer</title>
<g id="a_node1"><a xlink:href="inet.linklayer.vlan.VlanPolicyLayer.html" xlink:title="Compound Module VlanPolicyLayer" target="_parent">
<polygon fill="#fff700" stroke="black" points="177.5,-74 82.5,-74 82.5,-55 177.5,-55 177.5,-74"/>
<text text-anchor="middle" x="130" y="-62" font-family="Helvetica,sans-Serif" font-size="10.00">VlanPolicyLayer</text>
</a>
</g>
</g>
<!-- IPacketFlow -->
<g id="node2" class="node">
<title>IPacketFlow</title>
<g id="a_node2"><a xlink:href="inet.queueing.contract.IPacketFlow.html" xlink:title="Module Interface IPacketFlow" target="_parent">
<polygon fill="#fffcaf" stroke="black" stroke-dasharray="5,2" points="74,-19 0,-19 0,0 74,0 74,-19"/>
<text text-anchor="middle" x="37" y="-7" font-family="Helvetica,sans-Serif" font-size="10.00">IPacketFlow</text>
</a>
</g>
</g>
<!-- VlanPolicyLayer&#45;&gt;IPacketFlow -->
<g id="edge1" class="edge">
<title>VlanPolicyLayer&#45;&gt;IPacketFlow</title>
<path fill="none" stroke="black" d="M115.06,-54.98C100.5,-46.69 78.13,-33.94 61.07,-24.22"/>
<polygon fill="black" stroke="black" points="62.64,-21.08 52.21,-19.17 59.17,-27.16 62.64,-21.08"/>
</g>
<!-- IPacketFilter -->
<g id="node3" class="node">
<title>IPacketFilter</title>
<g id="a_node3"><a xlink:href="inet.queueing.contract.IPacketFilter.html" xlink:title="Module Interface IPacketFilter" target="_parent">
<polygon fill="#fffcaf" stroke="black" stroke-dasharray="5,2" points="168,-19 92,-19 92,0 168,0 168,-19"/>
<text text-anchor="middle" x="130" y="-7" font-family="Helvetica,sans-Serif" font-size="10.00">IPacketFilter</text>
</a>
</g>
</g>
<!-- VlanPolicyLayer&#45;&gt;IPacketFilter -->
<g id="edge2" class="edge">
<title>VlanPolicyLayer&#45;&gt;IPacketFilter</title>
<path fill="none" stroke="black" d="M130,-54.75C130,-47.8 130,-37.85 130,-29.13"/>
<polygon fill="black" stroke="black" points="133.5,-29.09 130,-19.09 126.5,-29.09 133.5,-29.09"/>
</g>
<!-- IdealChannel -->
<g id="node4" class="node">
<title>IdealChannel</title>
<g id="a_node4"><a xlink:href="ned.IdealChannel.html" xlink:title="Channel IdealChannel" target="_parent">
<polygon fill="#d0ffd0" stroke="black" points="266,-19 186,-19 186,0 266,0 266,-19"/>
<text text-anchor="middle" x="226" y="-7" font-family="Helvetica,sans-Serif" font-size="10.00">IdealChannel</text>
</a>
</g>
</g>
<!-- VlanPolicyLayer&#45;&gt;IdealChannel -->
<g id="edge3" class="edge">
<title>VlanPolicyLayer&#45;&gt;IdealChannel</title>
<path fill="none" stroke="black" d="M145.42,-54.98C160.45,-46.69 183.54,-33.94 201.16,-24.22"/>
<polygon fill="black" stroke="black" points="203.23,-27.07 210.3,-19.17 199.85,-20.94 203.23,-27.07"/>
</g>
</g>
</svg>
