<?xml version="1.0" encoding="UTF-8" standalone="no"?>
<!DOCTYPE svg PUBLIC "-//W3C//DTD SVG 1.1//EN"
 "http://www.w3.org/Graphics/SVG/1.1/DTD/svg11.dtd">
<!-- Generated by graphviz version 2.43.0 (0)
 -->
<!-- Title: opp Pages: 1 -->
<svg width="494pt" height="82pt"
 viewBox="0.00 0.00 494.00 82.00" xmlns="http://www.w3.org/2000/svg" xmlns:xlink="http://www.w3.org/1999/xlink">
<g id="graph0" class="graph" transform="scale(1 1) rotate(0) translate(4 78)">
<title>opp</title>
<polygon fill="transparent" stroke="transparent" points="-4,4 -4,-78 490,-78 490,4 -4,4"/>
<!-- ContentBasedSchedulerTutorialStep -->
<g id="node1" class="node">
<title>ContentBasedSchedulerTutorialStep</title>
<g id="a_node1"><a xlink:href="inet.tutorials.queueing.ContentBasedSchedulerTutorialStep.html" xlink:title="Network ContentBasedSchedulerTutorialStep" target="_parent">
<polygon fill="#9090ff" stroke="black" points="360.5,-74 169.5,-74 169.5,-55 360.5,-55 360.5,-74"/>
<text text-anchor="middle" x="265" y="-62" font-family="Helvetica,sans-Serif" font-size="10.00">ContentBasedSchedulerTutorialStep</text>
</a>
</g>
</g>
<!-- PassivePacketSource -->
<g id="node2" class="node">
<title>PassivePacketSource</title>
<g id="a_node2"><a xlink:href="inet.queueing.source.PassivePacketSource.html" xlink:title="Simple Module PassivePacketSource" target="_parent">
<polygon fill="#fffcaf" stroke="black" points="118,-19 0,-19 0,0 118,0 118,-19"/>
<text text-anchor="middle" x="59" y="-7" font-family="Helvetica,sans-Serif" font-size="10.00">PassivePacketSource</text>
</a>
</g>
</g>
<!-- ContentBasedSchedulerTutorialStep&#45;&gt;PassivePacketSource -->
<g id="edge1" class="edge">
<title>ContentBasedSchedulerTutorialStep&#45;&gt;PassivePacketSource</title>
<path fill="none" stroke="black" d="M231.9,-54.98C196.72,-45.93 140.93,-31.58 102.28,-21.64"/>
<polygon fill="black" stroke="black" points="102.91,-18.18 92.36,-19.08 101.17,-24.96 102.91,-18.18"/>
</g>
<!-- ContentBasedScheduler -->
<g id="node3" class="node">
<title>ContentBasedScheduler</title>
<g id="a_node3"><a xlink:href="inet.queueing.scheduler.ContentBasedScheduler.html" xlink:title="Simple Module ContentBasedScheduler" target="_parent">
<polygon fill="#fffcaf" stroke="black" points="269.5,-19 136.5,-19 136.5,0 269.5,0 269.5,-19"/>
<text text-anchor="middle" x="203" y="-7" font-family="Helvetica,sans-Serif" font-size="10.00">ContentBasedScheduler</text>
</a>
</g>
</g>
<!-- ContentBasedSchedulerTutorialStep&#45;&gt;ContentBasedScheduler -->
<g id="edge2" class="edge">
<title>ContentBasedSchedulerTutorialStep&#45;&gt;ContentBasedScheduler</title>
<path fill="none" stroke="black" d="M255.04,-54.98C245.87,-47.15 232.06,-35.34 220.97,-25.86"/>
<polygon fill="black" stroke="black" points="223.02,-23.01 213.14,-19.17 218.47,-28.33 223.02,-23.01"/>
</g>
<!-- IdealChannel -->
<g id="node4" class="node">
<title>IdealChannel</title>
<g id="a_node4"><a xlink:href="ned.IdealChannel.html" xlink:title="Channel IdealChannel" target="_parent">
<polygon fill="#d0ffd0" stroke="black" points="368,-19 288,-19 288,0 368,0 368,-19"/>
<text text-anchor="middle" x="328" y="-7" font-family="Helvetica,sans-Serif" font-size="10.00">IdealChannel</text>
</a>
</g>
</g>
<!-- ContentBasedSchedulerTutorialStep&#45;&gt;IdealChannel -->
<g id="edge3" class="edge">
<title>ContentBasedSchedulerTutorialStep&#45;&gt;IdealChannel</title>
<path fill="none" stroke="black" d="M275.12,-54.98C284.44,-47.15 298.47,-35.34 309.74,-25.86"/>
<polygon fill="black" stroke="black" points="312.29,-28.29 317.69,-19.17 307.79,-22.93 312.29,-28.29"/>
</g>
<!-- ActivePacketSink -->
<g id="node5" class="node">
<title>ActivePacketSink</title>
<g id="a_node5"><a xlink:href="inet.queueing.sink.ActivePacketSink.html" xlink:title="Simple Module ActivePacketSink" target="_parent">
<polygon fill="#fffcaf" stroke="black" points="486,-19 386,-19 386,0 486,0 486,-19"/>
<text text-anchor="middle" x="436" y="-7" font-family="Helvetica,sans-Serif" font-size="10.00">ActivePacketSink</text>
</a>
</g>
</g>
<!-- ContentBasedSchedulerTutorialStep&#45;&gt;ActivePacketSink -->
<g id="edge4" class="edge">
<title>ContentBasedSchedulerTutorialStep&#45;&gt;ActivePacketSink</title>
<path fill="none" stroke="black" d="M292.47,-54.98C321.18,-46.09 366.42,-32.07 398.42,-22.15"/>
<polygon fill="black" stroke="black" points="399.8,-25.39 408.31,-19.08 397.72,-18.7 399.8,-25.39"/>
</g>
</g>
</svg>
