<?xml version="1.0" encoding="UTF-8" standalone="no"?>
<!DOCTYPE svg PUBLIC "-//W3C//DTD SVG 1.1//EN"
 "http://www.w3.org/Graphics/SVG/1.1/DTD/svg11.dtd">
<!-- Generated by graphviz version 2.43.0 (0)
 -->
<!-- Title: opp Pages: 1 -->
<svg width="440pt" height="82pt"
 viewBox="0.00 0.00 439.50 82.00" xmlns="http://www.w3.org/2000/svg" xmlns:xlink="http://www.w3.org/1999/xlink">
<g id="graph0" class="graph" transform="scale(1 1) rotate(0) translate(4 78)">
<title>opp</title>
<polygon fill="transparent" stroke="transparent" points="-4,4 -4,-78 435.5,-78 435.5,4 -4,4"/>
<!-- NClientsEth -->
<g id="node1" class="node">
<title>NClientsEth</title>
<g id="a_node1"><a xlink:href="inet.examples.ipv6.nclients.NClientsEth.html" xlink:title="Network NClientsEth" target="_parent">
<polygon fill="#9090ff" stroke="black" points="258.5,-74 184.5,-74 184.5,-55 258.5,-55 258.5,-74"/>
<text text-anchor="middle" x="221.5" y="-62" font-family="Helvetica,sans-Serif" font-size="10.00">NClientsEth</text>
</a>
</g>
</g>
<!-- Router6 -->
<g id="node2" class="node">
<title>Router6</title>
<g id="a_node2"><a xlink:href="inet.node.ipv6.Router6.html" xlink:title="Compound Module Router6" target="_parent">
<polygon fill="#fffcaf" stroke="black" points="55,-19 0,-19 0,0 55,0 55,-19"/>
<text text-anchor="middle" x="27.5" y="-7" font-family="Helvetica,sans-Serif" font-size="10.00">Router6</text>
</a>
</g>
</g>
<!-- NClientsEth&#45;&gt;Router6 -->
<g id="edge1" class="edge">
<title>NClientsEth&#45;&gt;Router6</title>
<path fill="none" stroke="black" d="M190.33,-54.98C156.16,-45.65 101.36,-30.68 64.9,-20.72"/>
<polygon fill="black" stroke="black" points="65.7,-17.31 55.14,-18.05 63.86,-24.06 65.7,-17.31"/>
</g>
<!-- Ipv6FlatNetworkConfigurator -->
<g id="node3" class="node">
<title>Ipv6FlatNetworkConfigurator</title>
<g id="a_node3"><a xlink:href="inet.networklayer.configurator.ipv6.Ipv6FlatNetworkConfigurator.html" xlink:title="Simple Module Ipv6FlatNetworkConfigurator" target="_parent">
<polygon fill="#fffcaf" stroke="black" points="230.5,-19 72.5,-19 72.5,0 230.5,0 230.5,-19"/>
<text text-anchor="middle" x="151.5" y="-7" font-family="Helvetica,sans-Serif" font-size="10.00">Ipv6FlatNetworkConfigurator</text>
</a>
</g>
</g>
<!-- NClientsEth&#45;&gt;Ipv6FlatNetworkConfigurator -->
<g id="edge2" class="edge">
<title>NClientsEth&#45;&gt;Ipv6FlatNetworkConfigurator</title>
<path fill="none" stroke="black" d="M210.25,-54.98C199.7,-47 183.7,-34.88 171.06,-25.31"/>
<polygon fill="black" stroke="black" points="173.04,-22.42 162.95,-19.17 168.81,-28 173.04,-22.42"/>
</g>
<!-- StandardHost6 -->
<g id="node4" class="node">
<title>StandardHost6</title>
<g id="a_node4"><a xlink:href="inet.node.ipv6.StandardHost6.html" xlink:title="Compound Module StandardHost6" target="_parent">
<polygon fill="#fffcaf" stroke="black" points="337,-19 248,-19 248,0 337,0 337,-19"/>
<text text-anchor="middle" x="292.5" y="-7" font-family="Helvetica,sans-Serif" font-size="10.00">StandardHost6</text>
</a>
</g>
</g>
<!-- NClientsEth&#45;&gt;StandardHost6 -->
<g id="edge3" class="edge">
<title>NClientsEth&#45;&gt;StandardHost6</title>
<path fill="none" stroke="black" d="M232.91,-54.98C243.61,-47 259.84,-34.88 272.66,-25.31"/>
<polygon fill="black" stroke="black" points="274.97,-27.96 280.89,-19.17 270.78,-22.35 274.97,-27.96"/>
</g>
<!-- ethernetline -->
<g id="node5" class="node">
<title>ethernetline</title>
<g id="a_node5"><a xlink:href="inet.examples.ipv6.nclients.NClientsEth.ethernetline.html" xlink:title="Channel ethernetline" target="_parent">
<polygon fill="#d0ffd0" stroke="black" points="431.5,-19 355.5,-19 355.5,0 431.5,0 431.5,-19"/>
<text text-anchor="middle" x="393.5" y="-7" font-family="Helvetica,sans-Serif" font-size="10.00">ethernetline</text>
</a>
</g>
</g>
<!-- NClientsEth&#45;&gt;ethernetline -->
<g id="edge4" class="edge">
<title>NClientsEth&#45;&gt;ethernetline</title>
<path fill="none" stroke="black" d="M249.13,-54.98C278.01,-46.09 323.51,-32.07 355.7,-22.15"/>
<polygon fill="black" stroke="black" points="357.12,-25.37 365.65,-19.08 355.06,-18.68 357.12,-25.37"/>
</g>
</g>
</svg>
