<?xml version="1.0" encoding="UTF-8" standalone="no"?>
<!DOCTYPE svg PUBLIC "-//W3C//DTD SVG 1.1//EN"
 "http://www.w3.org/Graphics/SVG/1.1/DTD/svg11.dtd">
<!-- Generated by graphviz version 2.43.0 (0)
 -->
<!-- Title: opp Pages: 1 -->
<svg width="650pt" height="82pt"
 viewBox="0.00 0.00 650.00 82.00" xmlns="http://www.w3.org/2000/svg" xmlns:xlink="http://www.w3.org/1999/xlink">
<g id="graph0" class="graph" transform="scale(1 1) rotate(0) translate(4 78)">
<title>opp</title>
<polygon fill="transparent" stroke="transparent" points="-4,4 -4,-78 646,-78 646,4 -4,4"/>
<!-- IEthernetMacLayer -->
<g id="node1" class="node">
<title>IEthernetMacLayer</title>
<g id="a_node1"><a xlink:href="inet.linklayer.ethernet.contract.IEthernetMacLayer.html" xlink:title="Module Interface IEthernetMacLayer" target="_parent">
<polygon fill="#fff700" stroke="black" stroke-dasharray="5,2" points="366.5,-74 258.5,-74 258.5,-55 366.5,-55 366.5,-74"/>
<text text-anchor="middle" x="312.5" y="-62" font-family="Helvetica,sans-Serif" font-size="10.00">IEthernetMacLayer</text>
</a>
</g>
</g>
<!-- EthernetFragmentingMacLayer -->
<g id="node2" class="node">
<title>EthernetFragmentingMacLayer</title>
<g id="a_node2"><a xlink:href="inet.linklayer.ethernet.modular.EthernetFragmentingMacLayer.html" xlink:title="Compound Module EthernetFragmentingMacLayer" target="_parent">
<polygon fill="#fffcaf" stroke="black" points="167,-19 0,-19 0,0 167,0 167,-19"/>
<text text-anchor="middle" x="83.5" y="-7" font-family="Helvetica,sans-Serif" font-size="10.00">EthernetFragmentingMacLayer</text>
</a>
</g>
</g>
<!-- IEthernetMacLayer&#45;&gt;EthernetFragmentingMacLayer -->
<g id="edge1" class="edge">
<title>IEthernetMacLayer&#45;&gt;EthernetFragmentingMacLayer</title>
<path fill="none" stroke="black" stroke-dasharray="5,2" d="M275.71,-54.98C233.1,-45.12 163.31,-28.97 120.58,-19.08"/>
</g>
<!-- EthernetMacLayer -->
<g id="node3" class="node">
<title>EthernetMacLayer</title>
<g id="a_node3"><a xlink:href="inet.linklayer.ethernet.modular.EthernetMacLayer.html" xlink:title="Compound Module EthernetMacLayer" target="_parent">
<polygon fill="#fffcaf" stroke="black" points="290,-19 185,-19 185,0 290,0 290,-19"/>
<text text-anchor="middle" x="237.5" y="-7" font-family="Helvetica,sans-Serif" font-size="10.00">EthernetMacLayer</text>
</a>
</g>
</g>
<!-- IEthernetMacLayer&#45;&gt;EthernetMacLayer -->
<g id="edge2" class="edge">
<title>IEthernetMacLayer&#45;&gt;EthernetMacLayer</title>
<path fill="none" stroke="black" stroke-dasharray="5,2" d="M300.45,-54.98C286.54,-45.15 263.77,-29.07 249.77,-19.17"/>
</g>
<!-- EthernetPreemptingMacLayer -->
<g id="node4" class="node">
<title>EthernetPreemptingMacLayer</title>
<g id="a_node4"><a xlink:href="inet.linklayer.ethernet.modular.EthernetPreemptingMacLayer.html" xlink:title="Compound Module EthernetPreemptingMacLayer" target="_parent">
<polygon fill="#fffcaf" stroke="black" points="469,-19 308,-19 308,0 469,0 469,-19"/>
<text text-anchor="middle" x="388.5" y="-7" font-family="Helvetica,sans-Serif" font-size="10.00">EthernetPreemptingMacLayer</text>
</a>
</g>
</g>
<!-- IEthernetMacLayer&#45;&gt;EthernetPreemptingMacLayer -->
<g id="edge3" class="edge">
<title>IEthernetMacLayer&#45;&gt;EthernetPreemptingMacLayer</title>
<path fill="none" stroke="black" stroke-dasharray="5,2" d="M324.71,-54.98C338.81,-45.15 361.88,-29.07 376.07,-19.17"/>
</g>
<!-- EthernetStreamingMacLayer -->
<g id="node5" class="node">
<title>EthernetStreamingMacLayer</title>
<g id="a_node5"><a xlink:href="inet.linklayer.ethernet.modular.EthernetStreamingMacLayer.html" xlink:title="Compound Module EthernetStreamingMacLayer" target="_parent">
<polygon fill="#fffcaf" stroke="black" points="642,-19 487,-19 487,0 642,0 642,-19"/>
<text text-anchor="middle" x="564.5" y="-7" font-family="Helvetica,sans-Serif" font-size="10.00">EthernetStreamingMacLayer</text>
</a>
</g>
</g>
<!-- IEthernetMacLayer&#45;&gt;EthernetStreamingMacLayer -->
<g id="edge4" class="edge">
<title>IEthernetMacLayer&#45;&gt;EthernetStreamingMacLayer</title>
<path fill="none" stroke="black" stroke-dasharray="5,2" d="M352.99,-54.98C399.87,-45.12 476.67,-28.97 523.69,-19.08"/>
</g>
</g>
</svg>
