<?xml version="1.0" encoding="UTF-8" standalone="no"?>
<!DOCTYPE svg PUBLIC "-//W3C//DTD SVG 1.1//EN"
 "http://www.w3.org/Graphics/SVG/1.1/DTD/svg11.dtd">
<!-- Generated by graphviz version 2.43.0 (0)
 -->
<!-- Title: opp Pages: 1 -->
<svg width="687pt" height="82pt"
 viewBox="0.00 0.00 687.00 82.00" xmlns="http://www.w3.org/2000/svg" xmlns:xlink="http://www.w3.org/1999/xlink">
<g id="graph0" class="graph" transform="scale(1 1) rotate(0) translate(4 78)">
<title>opp</title>
<polygon fill="transparent" stroke="transparent" points="-4,4 -4,-78 683,-78 683,4 -4,4"/>
<!-- DYMONetwork -->
<g id="node1" class="node">
<title>DYMONetwork</title>
<g id="a_node1"><a xlink:href="inet.examples.manetrouting.dymo.DYMONetwork.html" xlink:title="Network DYMONetwork" target="_parent">
<polygon fill="#9090ff" stroke="black" points="407.5,-74 319.5,-74 319.5,-55 407.5,-55 407.5,-74"/>
<text text-anchor="middle" x="363.5" y="-62" font-family="Helvetica,sans-Serif" font-size="10.00">DYMONetwork</text>
</a>
</g>
</g>
<!-- Ieee80211ScalarRadioMedium -->
<g id="node2" class="node">
<title>Ieee80211ScalarRadioMedium</title>
<g id="a_node2"><a xlink:href="inet.physicallayer.wireless.ieee80211.packetlevel.Ieee80211ScalarRadioMedium.html" xlink:title="Compound Module Ieee80211ScalarRadioMedium" target="_parent">
<polygon fill="#fffcaf" stroke="black" points="165,-19 0,-19 0,0 165,0 165,-19"/>
<text text-anchor="middle" x="82.5" y="-7" font-family="Helvetica,sans-Serif" font-size="10.00">Ieee80211ScalarRadioMedium</text>
</a>
</g>
</g>
<!-- DYMONetwork&#45;&gt;Ieee80211ScalarRadioMedium -->
<g id="edge1" class="edge">
<title>DYMONetwork&#45;&gt;Ieee80211ScalarRadioMedium</title>
<path fill="none" stroke="black" d="M319.28,-55.16C270.21,-45.9 190.93,-30.95 137.79,-20.93"/>
<polygon fill="black" stroke="black" points="138.33,-17.47 127.85,-19.05 137.03,-24.35 138.33,-17.47"/>
</g>
<!-- RoutingTableRecorder -->
<g id="node3" class="node">
<title>RoutingTableRecorder</title>
<g id="a_node3"><a xlink:href="inet.networklayer.ipv4.RoutingTableRecorder.html" xlink:title="Simple Module RoutingTableRecorder" target="_parent">
<polygon fill="#fffcaf" stroke="black" points="306,-19 183,-19 183,0 306,0 306,-19"/>
<text text-anchor="middle" x="244.5" y="-7" font-family="Helvetica,sans-Serif" font-size="10.00">RoutingTableRecorder</text>
</a>
</g>
</g>
<!-- DYMONetwork&#45;&gt;RoutingTableRecorder -->
<g id="edge2" class="edge">
<title>DYMONetwork&#45;&gt;RoutingTableRecorder</title>
<path fill="none" stroke="black" d="M344.38,-54.98C325.15,-46.42 295.27,-33.11 273.19,-23.28"/>
<polygon fill="black" stroke="black" points="274.53,-20.04 263.97,-19.17 271.68,-26.44 274.53,-20.04"/>
</g>
<!-- DymoRouter -->
<g id="node4" class="node">
<title>DymoRouter</title>
<g id="a_node4"><a xlink:href="inet.node.dymo.DymoRouter.html" xlink:title="Compound Module DymoRouter" target="_parent">
<polygon fill="#fffcaf" stroke="black" points="402.5,-19 324.5,-19 324.5,0 402.5,0 402.5,-19"/>
<text text-anchor="middle" x="363.5" y="-7" font-family="Helvetica,sans-Serif" font-size="10.00">DymoRouter</text>
</a>
</g>
</g>
<!-- DYMONetwork&#45;&gt;DymoRouter -->
<g id="edge3" class="edge">
<title>DYMONetwork&#45;&gt;DymoRouter</title>
<path fill="none" stroke="black" d="M363.5,-54.75C363.5,-47.8 363.5,-37.85 363.5,-29.13"/>
<polygon fill="black" stroke="black" points="367,-29.09 363.5,-19.09 360,-29.09 367,-29.09"/>
</g>
<!-- Ipv4NetworkConfigurator -->
<g id="node5" class="node">
<title>Ipv4NetworkConfigurator</title>
<g id="a_node5"><a xlink:href="inet.networklayer.configurator.ipv4.Ipv4NetworkConfigurator.html" xlink:title="Simple Module Ipv4NetworkConfigurator" target="_parent">
<polygon fill="#fffcaf" stroke="black" points="560,-19 421,-19 421,0 560,0 560,-19"/>
<text text-anchor="middle" x="490.5" y="-7" font-family="Helvetica,sans-Serif" font-size="10.00">Ipv4NetworkConfigurator</text>
</a>
</g>
</g>
<!-- DYMONetwork&#45;&gt;Ipv4NetworkConfigurator -->
<g id="edge4" class="edge">
<title>DYMONetwork&#45;&gt;Ipv4NetworkConfigurator</title>
<path fill="none" stroke="black" d="M383.9,-54.98C404.52,-46.38 436.61,-32.99 460.19,-23.15"/>
<polygon fill="black" stroke="black" points="461.84,-26.25 469.72,-19.17 459.15,-19.79 461.84,-26.25"/>
</g>
<!-- ScenarioManager -->
<g id="node6" class="node">
<title>ScenarioManager</title>
<g id="a_node6"><a xlink:href="inet.common.scenario.ScenarioManager.html" xlink:title="Simple Module ScenarioManager" target="_parent">
<polygon fill="#fffcaf" stroke="black" points="679,-19 578,-19 578,0 679,0 679,-19"/>
<text text-anchor="middle" x="628.5" y="-7" font-family="Helvetica,sans-Serif" font-size="10.00">ScenarioManager</text>
</a>
</g>
</g>
<!-- DYMONetwork&#45;&gt;ScenarioManager -->
<g id="edge5" class="edge">
<title>DYMONetwork&#45;&gt;ScenarioManager</title>
<path fill="none" stroke="black" d="M406.08,-54.98C452.2,-45.76 525.86,-31.03 575.66,-21.07"/>
<polygon fill="black" stroke="black" points="576.47,-24.48 585.59,-19.08 575.1,-17.61 576.47,-24.48"/>
</g>
</g>
</svg>
