<?xml version="1.0" encoding="UTF-8" standalone="no"?>
<!DOCTYPE svg PUBLIC "-//W3C//DTD SVG 1.1//EN"
 "http://www.w3.org/Graphics/SVG/1.1/DTD/svg11.dtd">
<!-- Generated by graphviz version 2.43.0 (0)
 -->
<!-- Title: opp Pages: 1 -->
<svg width="224pt" height="82pt"
 viewBox="0.00 0.00 223.50 82.00" xmlns="http://www.w3.org/2000/svg" xmlns:xlink="http://www.w3.org/1999/xlink">
<g id="graph0" class="graph" transform="scale(1 1) rotate(0) translate(4 78)">
<title>opp</title>
<polygon fill="transparent" stroke="transparent" points="-4,4 -4,-78 219.5,-78 219.5,4 -4,4"/>
<!-- MacRelayUnit -->
<g id="node1" class="node">
<title>MacRelayUnit</title>
<g id="a_node1"><a xlink:href="inet.linklayer.ethernet.common.MacRelayUnit.html" xlink:title="Simple Module MacRelayUnit" target="_parent">
<polygon fill="#fff700" stroke="black" points="155,-19 70,-19 70,0 155,0 155,-19"/>
<text text-anchor="middle" x="112.5" y="-7" font-family="Helvetica,sans-Serif" font-size="10.00">MacRelayUnit</text>
</a>
</g>
</g>
<!-- MacRelayUnitBase -->
<g id="node2" class="node">
<title>MacRelayUnitBase</title>
<g id="a_node2"><a xlink:href="inet.linklayer.base.MacRelayUnitBase.html" xlink:title="Simple Module MacRelayUnitBase" target="_parent">
<polygon fill="#fffcaf" stroke="black" points="109,-74 0,-74 0,-55 109,-55 109,-74"/>
<text text-anchor="middle" x="54.5" y="-62" font-family="Helvetica,sans-Serif" font-size="10.00">MacRelayUnitBase</text>
</a>
</g>
</g>
<!-- MacRelayUnitBase&#45;&gt;MacRelayUnit -->
<g id="edge1" class="edge">
<title>MacRelayUnitBase&#45;&gt;MacRelayUnit</title>
<path fill="none" stroke="black" d="M63.82,-54.98C74.58,-45.15 92.18,-29.07 103.01,-19.17"/>
</g>
<!-- IMacRelayUnit -->
<g id="node3" class="node">
<title>IMacRelayUnit</title>
<g id="a_node3"><a xlink:href="inet.linklayer.contract.IMacRelayUnit.html" xlink:title="Module Interface IMacRelayUnit" target="_parent">
<polygon fill="#fffcaf" stroke="black" stroke-dasharray="5,2" points="215.5,-74 127.5,-74 127.5,-55 215.5,-55 215.5,-74"/>
<text text-anchor="middle" x="171.5" y="-62" font-family="Helvetica,sans-Serif" font-size="10.00">IMacRelayUnit</text>
</a>
</g>
</g>
<!-- IMacRelayUnit&#45;&gt;MacRelayUnit -->
<g id="edge2" class="edge">
<title>IMacRelayUnit&#45;&gt;MacRelayUnit</title>
<path fill="none" stroke="black" stroke-dasharray="5,2" d="M162.02,-54.98C151.08,-45.15 133.17,-29.07 122.15,-19.17"/>
</g>
</g>
</svg>
