<?xml version="1.0" encoding="UTF-8" standalone="no"?>
<!DOCTYPE svg PUBLIC "-//W3C//DTD SVG 1.1//EN"
 "http://www.w3.org/Graphics/SVG/1.1/DTD/svg11.dtd">
<!-- Generated by graphviz version 2.43.0 (0)
 -->
<!-- Title: opp Pages: 1 -->
<svg width="224pt" height="137pt"
 viewBox="0.00 0.00 223.50 137.00" xmlns="http://www.w3.org/2000/svg" xmlns:xlink="http://www.w3.org/1999/xlink">
<g id="graph0" class="graph" transform="scale(1 1) rotate(0) translate(4 133)">
<title>opp</title>
<polygon fill="transparent" stroke="transparent" points="-4,4 -4,-133 219.5,-133 219.5,4 -4,4"/>
<!-- PacketTaggerBase -->
<g id="node1" class="node">
<title>PacketTaggerBase</title>
<g id="a_node1"><a xlink:href="inet.queueing.base.PacketTaggerBase.html" xlink:title="Simple Module PacketTaggerBase" target="_parent">
<polygon fill="#fff700" stroke="black" points="168.5,-74 64.5,-74 64.5,-55 168.5,-55 168.5,-74"/>
<text text-anchor="middle" x="116.5" y="-62" font-family="Helvetica,sans-Serif" font-size="10.00">PacketTaggerBase</text>
</a>
</g>
</g>
<!-- ContentBasedTagger -->
<g id="node3" class="node">
<title>ContentBasedTagger</title>
<g id="a_node3"><a xlink:href="inet.queueing.marker.ContentBasedTagger.html" xlink:title="Simple Module ContentBasedTagger" target="_parent">
<polygon fill="#fffcaf" stroke="black" points="117,-19 0,-19 0,0 117,0 117,-19"/>
<text text-anchor="middle" x="58.5" y="-7" font-family="Helvetica,sans-Serif" font-size="10.00">ContentBasedTagger</text>
</a>
</g>
</g>
<!-- PacketTaggerBase&#45;&gt;ContentBasedTagger -->
<g id="edge2" class="edge">
<title>PacketTaggerBase&#45;&gt;ContentBasedTagger</title>
<path fill="none" stroke="black" d="M107.18,-54.98C96.42,-45.15 78.82,-29.07 67.99,-19.17"/>
</g>
<!-- PacketTagger -->
<g id="node4" class="node">
<title>PacketTagger</title>
<g id="a_node4"><a xlink:href="inet.queueing.marker.PacketTagger.html" xlink:title="Simple Module PacketTagger" target="_parent">
<polygon fill="#fffcaf" stroke="black" points="215.5,-19 135.5,-19 135.5,0 215.5,0 215.5,-19"/>
<text text-anchor="middle" x="175.5" y="-7" font-family="Helvetica,sans-Serif" font-size="10.00">PacketTagger</text>
</a>
</g>
</g>
<!-- PacketTaggerBase&#45;&gt;PacketTagger -->
<g id="edge3" class="edge">
<title>PacketTaggerBase&#45;&gt;PacketTagger</title>
<path fill="none" stroke="black" d="M125.98,-54.98C136.92,-45.15 154.83,-29.07 165.85,-19.17"/>
</g>
<!-- PacketMarkerBase -->
<g id="node2" class="node">
<title>PacketMarkerBase</title>
<g id="a_node2"><a xlink:href="inet.queueing.base.PacketMarkerBase.html" xlink:title="Simple Module PacketMarkerBase" target="_parent">
<polygon fill="#fffcaf" stroke="black" points="169.5,-129 63.5,-129 63.5,-110 169.5,-110 169.5,-129"/>
<text text-anchor="middle" x="116.5" y="-117" font-family="Helvetica,sans-Serif" font-size="10.00">PacketMarkerBase</text>
</a>
</g>
</g>
<!-- PacketMarkerBase&#45;&gt;PacketTaggerBase -->
<g id="edge1" class="edge">
<title>PacketMarkerBase&#45;&gt;PacketTaggerBase</title>
<path fill="none" stroke="black" d="M116.5,-109.75C116.5,-99.87 116.5,-83.9 116.5,-74.09"/>
</g>
</g>
</svg>
