<?xml version="1.0" encoding="UTF-8" standalone="no"?>
<!DOCTYPE svg PUBLIC "-//W3C//DTD SVG 1.1//EN"
 "http://www.w3.org/Graphics/SVG/1.1/DTD/svg11.dtd">
<!-- Generated by graphviz version 2.43.0 (0)
 -->
<!-- Title: opp Pages: 1 -->
<svg width="695pt" height="82pt"
 viewBox="0.00 0.00 695.00 82.00" xmlns="http://www.w3.org/2000/svg" xmlns:xlink="http://www.w3.org/1999/xlink">
<g id="graph0" class="graph" transform="scale(1 1) rotate(0) translate(4 78)">
<title>opp</title>
<polygon fill="transparent" stroke="transparent" points="-4,4 -4,-78 691,-78 691,4 -4,4"/>
<!-- IRtpPayloadSender -->
<g id="node1" class="node">
<title>IRtpPayloadSender</title>
<g id="a_node1"><a xlink:href="inet.transportlayer.rtp.IRtpPayloadSender.html" xlink:title="Module Interface IRtpPayloadSender" target="_parent">
<polygon fill="#fff700" stroke="black" stroke-dasharray="5,2" points="413.5,-74 305.5,-74 305.5,-55 413.5,-55 413.5,-74"/>
<text text-anchor="middle" x="359.5" y="-62" font-family="Helvetica,sans-Serif" font-size="10.00">IRtpPayloadSender</text>
</a>
</g>
</g>
<!-- RTPAVProfilePayload10Sender -->
<g id="node2" class="node">
<title>RTPAVProfilePayload10Sender</title>
<g id="a_node2"><a xlink:href="inet.transportlayer.rtp.RTPAVProfilePayload10Sender.html" xlink:title="Simple Module RTPAVProfilePayload10Sender" target="_parent">
<polygon fill="#fffcaf" stroke="black" points="161,-19 0,-19 0,0 161,0 161,-19"/>
<text text-anchor="middle" x="80.5" y="-7" font-family="Helvetica,sans-Serif" font-size="10.00">RTPAVProfilePayload10Sender</text>
</a>
</g>
</g>
<!-- IRtpPayloadSender&#45;&gt;RTPAVProfilePayload10Sender -->
<g id="edge1" class="edge">
<title>IRtpPayloadSender&#45;&gt;RTPAVProfilePayload10Sender</title>
<path fill="none" stroke="black" stroke-dasharray="5,2" d="M314.67,-54.98C262.76,-45.12 177.74,-28.97 125.68,-19.08"/>
</g>
<!-- RtpAvProfilePayload32Sender -->
<g id="node3" class="node">
<title>RtpAvProfilePayload32Sender</title>
<g id="a_node3"><a xlink:href="inet.transportlayer.rtp.RtpAvProfilePayload32Sender.html" xlink:title="Simple Module RtpAvProfilePayload32Sender" target="_parent">
<polygon fill="#fffcaf" stroke="black" points="339.5,-19 179.5,-19 179.5,0 339.5,0 339.5,-19"/>
<text text-anchor="middle" x="259.5" y="-7" font-family="Helvetica,sans-Serif" font-size="10.00">RtpAvProfilePayload32Sender</text>
</a>
</g>
</g>
<!-- IRtpPayloadSender&#45;&gt;RtpAvProfilePayload32Sender -->
<g id="edge2" class="edge">
<title>IRtpPayloadSender&#45;&gt;RtpAvProfilePayload32Sender</title>
<path fill="none" stroke="black" stroke-dasharray="5,2" d="M343.43,-54.98C324.88,-45.15 294.53,-29.07 275.86,-19.17"/>
</g>
<!-- RTPAVProfileSampleBasedAudioSender -->
<g id="node4" class="node">
<title>RTPAVProfileSampleBasedAudioSender</title>
<g id="a_node4"><a xlink:href="inet.transportlayer.rtp.RTPAVProfileSampleBasedAudioSender.html" xlink:title="Simple Module RTPAVProfileSampleBasedAudioSender" target="_parent">
<polygon fill="#fffcaf" stroke="black" points="563.5,-19 357.5,-19 357.5,0 563.5,0 563.5,-19"/>
<text text-anchor="middle" x="460.5" y="-7" font-family="Helvetica,sans-Serif" font-size="10.00">RTPAVProfileSampleBasedAudioSender</text>
</a>
</g>
</g>
<!-- IRtpPayloadSender&#45;&gt;RTPAVProfileSampleBasedAudioSender -->
<g id="edge3" class="edge">
<title>IRtpPayloadSender&#45;&gt;RTPAVProfileSampleBasedAudioSender</title>
<path fill="none" stroke="black" stroke-dasharray="5,2" d="M375.73,-54.98C394.46,-45.15 425.12,-29.07 443.98,-19.17"/>
</g>
<!-- RtpPayloadSender -->
<g id="node5" class="node">
<title>RtpPayloadSender</title>
<g id="a_node5"><a xlink:href="inet.transportlayer.rtp.RtpPayloadSender.html" xlink:title="Simple Module RtpPayloadSender" target="_parent">
<polygon fill="#fffcaf" stroke="black" points="687,-19 582,-19 582,0 687,0 687,-19"/>
<text text-anchor="middle" x="634.5" y="-7" font-family="Helvetica,sans-Serif" font-size="10.00">RtpPayloadSender</text>
</a>
</g>
</g>
<!-- IRtpPayloadSender&#45;&gt;RtpPayloadSender -->
<g id="edge4" class="edge">
<title>IRtpPayloadSender&#45;&gt;RtpPayloadSender</title>
<path fill="none" stroke="black" stroke-dasharray="5,2" d="M403.68,-54.98C454.85,-45.12 538.66,-28.97 589.97,-19.08"/>
</g>
</g>
</svg>
