<?xml version="1.0" encoding="UTF-8" standalone="no"?>
<!DOCTYPE svg PUBLIC "-//W3C//DTD SVG 1.1//EN"
 "http://www.w3.org/Graphics/SVG/1.1/DTD/svg11.dtd">
<!-- Generated by graphviz version 2.43.0 (0)
 -->
<!-- Title: opp Pages: 1 -->
<svg width="544pt" height="137pt"
 viewBox="0.00 0.00 544.00 137.00" xmlns="http://www.w3.org/2000/svg" xmlns:xlink="http://www.w3.org/1999/xlink">
<g id="graph0" class="graph" transform="scale(1 1) rotate(0) translate(4 133)">
<title>opp</title>
<polygon fill="transparent" stroke="transparent" points="-4,4 -4,-133 540,-133 540,4 -4,4"/>
<!-- PathVisualizerBase -->
<g id="node1" class="node">
<title>PathVisualizerBase</title>
<g id="a_node1"><a xlink:href="inet.visualizer.base.PathVisualizerBase.html" xlink:title="Simple Module PathVisualizerBase" target="_parent">
<polygon fill="#fff700" stroke="black" points="321,-74 211,-74 211,-55 321,-55 321,-74"/>
<text text-anchor="middle" x="266" y="-62" font-family="Helvetica,sans-Serif" font-size="10.00">PathVisualizerBase</text>
</a>
</g>
</g>
<!-- NetworkRouteCanvasVisualizer -->
<g id="node3" class="node">
<title>NetworkRouteCanvasVisualizer</title>
<g id="a_node3"><a xlink:href="inet.visualizer.canvas.networklayer.NetworkRouteCanvasVisualizer.html" xlink:title="Simple Module NetworkRouteCanvasVisualizer" target="_parent">
<polygon fill="#fffcaf" stroke="black" points="170,-19 0,-19 0,0 170,0 170,-19"/>
<text text-anchor="middle" x="85" y="-7" font-family="Helvetica,sans-Serif" font-size="10.00">NetworkRouteCanvasVisualizer</text>
</a>
</g>
</g>
<!-- PathVisualizerBase&#45;&gt;NetworkRouteCanvasVisualizer -->
<g id="edge2" class="edge">
<title>PathVisualizerBase&#45;&gt;NetworkRouteCanvasVisualizer</title>
<path fill="none" stroke="black" d="M236.92,-54.98C203.24,-45.12 148.08,-28.97 114.31,-19.08"/>
</g>
<!-- PacketFlowCanvasVisualizer -->
<g id="node4" class="node">
<title>PacketFlowCanvasVisualizer</title>
<g id="a_node4"><a xlink:href="inet.visualizer.canvas.flow.PacketFlowCanvasVisualizer.html" xlink:title="Simple Module PacketFlowCanvasVisualizer" target="_parent">
<polygon fill="#fffcaf" stroke="black" points="343.5,-19 188.5,-19 188.5,0 343.5,0 343.5,-19"/>
<text text-anchor="middle" x="266" y="-7" font-family="Helvetica,sans-Serif" font-size="10.00">PacketFlowCanvasVisualizer</text>
</a>
</g>
</g>
<!-- PathVisualizerBase&#45;&gt;PacketFlowCanvasVisualizer -->
<g id="edge3" class="edge">
<title>PathVisualizerBase&#45;&gt;PacketFlowCanvasVisualizer</title>
<path fill="none" stroke="black" d="M266,-54.75C266,-44.87 266,-28.9 266,-19.09"/>
</g>
<!-- TransportRouteCanvasVisualizer -->
<g id="node5" class="node">
<title>TransportRouteCanvasVisualizer</title>
<g id="a_node5"><a xlink:href="inet.visualizer.canvas.transportlayer.TransportRouteCanvasVisualizer.html" xlink:title="Simple Module TransportRouteCanvasVisualizer" target="_parent">
<polygon fill="#fffcaf" stroke="black" points="536,-19 362,-19 362,0 536,0 536,-19"/>
<text text-anchor="middle" x="449" y="-7" font-family="Helvetica,sans-Serif" font-size="10.00">TransportRouteCanvasVisualizer</text>
</a>
</g>
</g>
<!-- PathVisualizerBase&#45;&gt;TransportRouteCanvasVisualizer -->
<g id="edge4" class="edge">
<title>PathVisualizerBase&#45;&gt;TransportRouteCanvasVisualizer</title>
<path fill="none" stroke="black" d="M295.4,-54.98C329.45,-45.12 385.22,-28.97 419.37,-19.08"/>
</g>
<!-- VisualizerBase -->
<g id="node2" class="node">
<title>VisualizerBase</title>
<g id="a_node2"><a xlink:href="inet.visualizer.base.VisualizerBase.html" xlink:title="Simple Module VisualizerBase" target="_parent">
<polygon fill="#fffcaf" stroke="black" points="310.5,-129 221.5,-129 221.5,-110 310.5,-110 310.5,-129"/>
<text text-anchor="middle" x="266" y="-117" font-family="Helvetica,sans-Serif" font-size="10.00">VisualizerBase</text>
</a>
</g>
</g>
<!-- VisualizerBase&#45;&gt;PathVisualizerBase -->
<g id="edge1" class="edge">
<title>VisualizerBase&#45;&gt;PathVisualizerBase</title>
<path fill="none" stroke="black" d="M266,-109.75C266,-99.87 266,-83.9 266,-74.09"/>
</g>
</g>
</svg>
