<?xml version="1.0" encoding="UTF-8" standalone="no"?>
<!DOCTYPE svg PUBLIC "-//W3C//DTD SVG 1.1//EN"
 "http://www.w3.org/Graphics/SVG/1.1/DTD/svg11.dtd">
<!-- Generated by graphviz version 2.43.0 (0)
 -->
<!-- Title: opp Pages: 1 -->
<svg width="520pt" height="137pt"
 viewBox="0.00 0.00 519.50 137.00" xmlns="http://www.w3.org/2000/svg" xmlns:xlink="http://www.w3.org/1999/xlink">
<g id="graph0" class="graph" transform="scale(1 1) rotate(0) translate(4 133)">
<title>opp</title>
<polygon fill="transparent" stroke="transparent" points="-4,4 -4,-133 515.5,-133 515.5,4 -4,4"/>
<!-- PriorityQueue -->
<g id="node1" class="node">
<title>PriorityQueue</title>
<g id="a_node1"><a xlink:href="inet.queueing.queue.PriorityQueue.html" xlink:title="Compound Module PriorityQueue" target="_parent">
<polygon fill="#fff700" stroke="black" points="295.5,-74 212.5,-74 212.5,-55 295.5,-55 295.5,-74"/>
<text text-anchor="middle" x="254" y="-62" font-family="Helvetica,sans-Serif" font-size="10.00">PriorityQueue</text>
</a>
</g>
</g>
<!-- IPacketClassifier -->
<g id="node2" class="node">
<title>IPacketClassifier</title>
<g id="a_node2"><a xlink:href="inet.queueing.contract.IPacketClassifier.html" xlink:title="Module Interface IPacketClassifier" target="_parent">
<polygon fill="#fffcaf" stroke="black" stroke-dasharray="5,2" points="96,-19 0,-19 0,0 96,0 96,-19"/>
<text text-anchor="middle" x="48" y="-7" font-family="Helvetica,sans-Serif" font-size="10.00">IPacketClassifier</text>
</a>
</g>
</g>
<!-- PriorityQueue&#45;&gt;IPacketClassifier -->
<g id="edge1" class="edge">
<title>PriorityQueue&#45;&gt;IPacketClassifier</title>
<path fill="none" stroke="black" d="M220.9,-54.98C185.72,-45.93 129.93,-31.58 91.28,-21.64"/>
<polygon fill="black" stroke="black" points="91.91,-18.18 81.36,-19.08 90.17,-24.96 91.91,-18.18"/>
</g>
<!-- IPacketBuffer -->
<g id="node3" class="node">
<title>IPacketBuffer</title>
<g id="a_node3"><a xlink:href="inet.queueing.contract.IPacketBuffer.html" xlink:title="Module Interface IPacketBuffer" target="_parent">
<polygon fill="#fffcaf" stroke="black" stroke-dasharray="5,2" points="194,-19 114,-19 114,0 194,0 194,-19"/>
<text text-anchor="middle" x="154" y="-7" font-family="Helvetica,sans-Serif" font-size="10.00">IPacketBuffer</text>
</a>
</g>
</g>
<!-- PriorityQueue&#45;&gt;IPacketBuffer -->
<g id="edge2" class="edge">
<title>PriorityQueue&#45;&gt;IPacketBuffer</title>
<path fill="none" stroke="black" d="M237.93,-54.98C222.14,-46.61 197.78,-33.7 179.37,-23.95"/>
<polygon fill="black" stroke="black" points="180.83,-20.76 170.36,-19.17 177.56,-26.95 180.83,-20.76"/>
</g>
<!-- IPacketQueue -->
<g id="node4" class="node">
<title>IPacketQueue</title>
<g id="a_node4"><a xlink:href="inet.queueing.contract.IPacketQueue.html" xlink:title="Module Interface IPacketQueue" target="_parent">
<polygon fill="#fffcaf" stroke="black" stroke-dasharray="5,2" points="295.5,-19 212.5,-19 212.5,0 295.5,0 295.5,-19"/>
<text text-anchor="middle" x="254" y="-7" font-family="Helvetica,sans-Serif" font-size="10.00">IPacketQueue</text>
</a>
</g>
</g>
<!-- PriorityQueue&#45;&gt;IPacketQueue -->
<g id="edge3" class="edge">
<title>PriorityQueue&#45;&gt;IPacketQueue</title>
<path fill="none" stroke="black" d="M254,-54.75C254,-47.8 254,-37.85 254,-29.13"/>
<polygon fill="black" stroke="black" points="257.5,-29.09 254,-19.09 250.5,-29.09 257.5,-29.09"/>
</g>
<!-- IdealChannel -->
<g id="node5" class="node">
<title>IdealChannel</title>
<g id="a_node5"><a xlink:href="ned.IdealChannel.html" xlink:title="Channel IdealChannel" target="_parent">
<polygon fill="#d0ffd0" stroke="black" points="394,-19 314,-19 314,0 394,0 394,-19"/>
<text text-anchor="middle" x="354" y="-7" font-family="Helvetica,sans-Serif" font-size="10.00">IdealChannel</text>
</a>
</g>
</g>
<!-- PriorityQueue&#45;&gt;IdealChannel -->
<g id="edge4" class="edge">
<title>PriorityQueue&#45;&gt;IdealChannel</title>
<path fill="none" stroke="black" d="M270.07,-54.98C285.86,-46.61 310.22,-33.7 328.63,-23.95"/>
<polygon fill="black" stroke="black" points="330.44,-26.95 337.64,-19.17 327.17,-20.76 330.44,-26.95"/>
</g>
<!-- IPacketScheduler -->
<g id="node6" class="node">
<title>IPacketScheduler</title>
<g id="a_node6"><a xlink:href="inet.queueing.contract.IPacketScheduler.html" xlink:title="Module Interface IPacketScheduler" target="_parent">
<polygon fill="#fffcaf" stroke="black" stroke-dasharray="5,2" points="511.5,-19 412.5,-19 412.5,0 511.5,0 511.5,-19"/>
<text text-anchor="middle" x="462" y="-7" font-family="Helvetica,sans-Serif" font-size="10.00">IPacketScheduler</text>
</a>
</g>
</g>
<!-- PriorityQueue&#45;&gt;IPacketScheduler -->
<g id="edge5" class="edge">
<title>PriorityQueue&#45;&gt;IPacketScheduler</title>
<path fill="none" stroke="black" d="M287.42,-54.98C322.94,-45.93 379.27,-31.58 418.3,-21.64"/>
<polygon fill="black" stroke="black" points="419.49,-24.94 428.32,-19.08 417.76,-18.16 419.49,-24.94"/>
</g>
<!-- PriorityQueueTutorialStep -->
<g id="node7" class="node">
<title>PriorityQueueTutorialStep</title>
<g id="a_node7"><a xlink:href="inet.tutorials.queueing.PriorityQueueTutorialStep.html" xlink:title="Network PriorityQueueTutorialStep" target="_parent">
<polygon fill="#d0d0ff" stroke="black" points="324.5,-129 183.5,-129 183.5,-110 324.5,-110 324.5,-129"/>
<text text-anchor="middle" x="254" y="-117" font-family="Helvetica,sans-Serif" font-size="10.00">PriorityQueueTutorialStep</text>
</a>
</g>
</g>
<!-- PriorityQueueTutorialStep&#45;&gt;PriorityQueue -->
<g id="edge6" class="edge">
<title>PriorityQueueTutorialStep&#45;&gt;PriorityQueue</title>
<path fill="none" stroke="black" d="M254,-109.75C254,-102.8 254,-92.85 254,-84.13"/>
<polygon fill="black" stroke="black" points="257.5,-84.09 254,-74.09 250.5,-84.09 257.5,-84.09"/>
</g>
</g>
</svg>
