<?xml version="1.0" encoding="UTF-8" standalone="no"?>
<!DOCTYPE svg PUBLIC "-//W3C//DTD SVG 1.1//EN"
 "http://www.w3.org/Graphics/SVG/1.1/DTD/svg11.dtd">
<!-- Generated by graphviz version 2.43.0 (0)
 -->
<!-- Title: opp Pages: 1 -->
<svg width="509pt" height="82pt"
 viewBox="0.00 0.00 508.50 82.00" xmlns="http://www.w3.org/2000/svg" xmlns:xlink="http://www.w3.org/1999/xlink">
<g id="graph0" class="graph" transform="scale(1 1) rotate(0) translate(4 78)">
<title>opp</title>
<polygon fill="transparent" stroke="transparent" points="-4,4 -4,-78 504.5,-78 504.5,4 -4,4"/>
<!-- NetworkDaisyChain -->
<g id="node1" class="node">
<title>NetworkDaisyChain</title>
<g id="a_node1"><a xlink:href="inet.examples.ieee8021as.NetworkDaisyChain.html" xlink:title="Network NetworkDaisyChain" target="_parent">
<polygon fill="#9090ff" stroke="black" points="272.5,-74 159.5,-74 159.5,-55 272.5,-55 272.5,-74"/>
<text text-anchor="middle" x="216" y="-62" font-family="Helvetica,sans-Serif" font-size="10.00">NetworkDaisyChain</text>
</a>
</g>
</g>
<!-- GptpMaster -->
<g id="node2" class="node">
<title>GptpMaster</title>
<g id="a_node2"><a xlink:href="inet.linklayer.ieee8021as.GptpMaster.html" xlink:title="Compound Module GptpMaster" target="_parent">
<polygon fill="#fffcaf" stroke="black" points="74,-19 0,-19 0,0 74,0 74,-19"/>
<text text-anchor="middle" x="37" y="-7" font-family="Helvetica,sans-Serif" font-size="10.00">GptpMaster</text>
</a>
</g>
</g>
<!-- NetworkDaisyChain&#45;&gt;GptpMaster -->
<g id="edge1" class="edge">
<title>NetworkDaisyChain&#45;&gt;GptpMaster</title>
<path fill="none" stroke="black" d="M187.24,-54.98C157.06,-46.05 109.43,-31.94 75.9,-22.02"/>
<polygon fill="black" stroke="black" points="76.57,-18.57 65.98,-19.08 74.58,-25.28 76.57,-18.57"/>
</g>
<!-- GptpSlave -->
<g id="node3" class="node">
<title>GptpSlave</title>
<g id="a_node3"><a xlink:href="inet.linklayer.ieee8021as.GptpSlave.html" xlink:title="Compound Module GptpSlave" target="_parent">
<polygon fill="#fffcaf" stroke="black" points="159.5,-19 92.5,-19 92.5,0 159.5,0 159.5,-19"/>
<text text-anchor="middle" x="126" y="-7" font-family="Helvetica,sans-Serif" font-size="10.00">GptpSlave</text>
</a>
</g>
</g>
<!-- NetworkDaisyChain&#45;&gt;GptpSlave -->
<g id="edge2" class="edge">
<title>NetworkDaisyChain&#45;&gt;GptpSlave</title>
<path fill="none" stroke="black" d="M201.54,-54.98C187.58,-46.77 166.21,-34.18 149.75,-24.49"/>
<polygon fill="black" stroke="black" points="151.12,-21.23 140.72,-19.17 147.56,-27.26 151.12,-21.23"/>
</g>
<!-- Ethernet100 -->
<g id="node4" class="node">
<title>Ethernet100</title>
<g id="a_node4"><a xlink:href="inet.examples.ieee8021as.NetworkDaisyChain.Ethernet100.html" xlink:title="Channel Ethernet100" target="_parent">
<polygon fill="#d0ffd0" stroke="black" points="254,-19 178,-19 178,0 254,0 254,-19"/>
<text text-anchor="middle" x="216" y="-7" font-family="Helvetica,sans-Serif" font-size="10.00">Ethernet100</text>
</a>
</g>
</g>
<!-- NetworkDaisyChain&#45;&gt;Ethernet100 -->
<g id="edge3" class="edge">
<title>NetworkDaisyChain&#45;&gt;Ethernet100</title>
<path fill="none" stroke="black" d="M216,-54.75C216,-47.8 216,-37.85 216,-29.13"/>
<polygon fill="black" stroke="black" points="219.5,-29.09 216,-19.09 212.5,-29.09 219.5,-29.09"/>
</g>
<!-- Ipv4NetworkConfigurator -->
<g id="node5" class="node">
<title>Ipv4NetworkConfigurator</title>
<g id="a_node5"><a xlink:href="inet.networklayer.configurator.ipv4.Ipv4NetworkConfigurator.html" xlink:title="Simple Module Ipv4NetworkConfigurator" target="_parent">
<polygon fill="#fffcaf" stroke="black" points="411.5,-19 272.5,-19 272.5,0 411.5,0 411.5,-19"/>
<text text-anchor="middle" x="342" y="-7" font-family="Helvetica,sans-Serif" font-size="10.00">Ipv4NetworkConfigurator</text>
</a>
</g>
</g>
<!-- NetworkDaisyChain&#45;&gt;Ipv4NetworkConfigurator -->
<g id="edge4" class="edge">
<title>NetworkDaisyChain&#45;&gt;Ipv4NetworkConfigurator</title>
<path fill="none" stroke="black" d="M236.24,-54.98C256.7,-46.38 288.53,-32.99 311.93,-23.15"/>
<polygon fill="black" stroke="black" points="313.53,-26.27 321.39,-19.17 310.81,-19.82 313.53,-26.27"/>
</g>
<!-- GptpBridge -->
<g id="node6" class="node">
<title>GptpBridge</title>
<g id="a_node6"><a xlink:href="inet.linklayer.ieee8021as.GptpBridge.html" xlink:title="Compound Module GptpBridge" target="_parent">
<polygon fill="#fffcaf" stroke="black" points="500.5,-19 429.5,-19 429.5,0 500.5,0 500.5,-19"/>
<text text-anchor="middle" x="465" y="-7" font-family="Helvetica,sans-Serif" font-size="10.00">GptpBridge</text>
</a>
</g>
</g>
<!-- NetworkDaisyChain&#45;&gt;GptpBridge -->
<g id="edge5" class="edge">
<title>NetworkDaisyChain&#45;&gt;GptpBridge</title>
<path fill="none" stroke="black" d="M256.01,-54.98C300.58,-45.5 372.5,-30.19 419.27,-20.23"/>
<polygon fill="black" stroke="black" points="420.08,-23.64 429.13,-18.13 418.62,-16.79 420.08,-23.64"/>
</g>
</g>
</svg>
