<?xml version="1.0" encoding="UTF-8" standalone="no"?>
<!DOCTYPE svg PUBLIC "-//W3C//DTD SVG 1.1//EN"
 "http://www.w3.org/Graphics/SVG/1.1/DTD/svg11.dtd">
<!-- Generated by graphviz version 2.43.0 (0)
 -->
<!-- Title: opp Pages: 1 -->
<svg width="562pt" height="82pt"
 viewBox="0.00 0.00 562.00 82.00" xmlns="http://www.w3.org/2000/svg" xmlns:xlink="http://www.w3.org/1999/xlink">
<g id="graph0" class="graph" transform="scale(1 1) rotate(0) translate(4 78)">
<title>opp</title>
<polygon fill="transparent" stroke="transparent" points="-4,4 -4,-78 558,-78 558,4 -4,4"/>
<!-- Throughput -->
<g id="node1" class="node">
<title>Throughput</title>
<g id="a_node1"><a xlink:href="inet.examples.wireless.throughput.Throughput.html" xlink:title="Network Throughput" target="_parent">
<polygon fill="#9090ff" stroke="black" points="343.5,-74 271.5,-74 271.5,-55 343.5,-55 343.5,-74"/>
<text text-anchor="middle" x="307.5" y="-62" font-family="Helvetica,sans-Serif" font-size="10.00">Throughput</text>
</a>
</g>
</g>
<!-- Ieee80211ScalarRadioMedium -->
<g id="node2" class="node">
<title>Ieee80211ScalarRadioMedium</title>
<g id="a_node2"><a xlink:href="inet.physicallayer.wireless.ieee80211.packetlevel.Ieee80211ScalarRadioMedium.html" xlink:title="Compound Module Ieee80211ScalarRadioMedium" target="_parent">
<polygon fill="#fffcaf" stroke="black" points="165,-19 0,-19 0,0 165,0 165,-19"/>
<text text-anchor="middle" x="82.5" y="-7" font-family="Helvetica,sans-Serif" font-size="10.00">Ieee80211ScalarRadioMedium</text>
</a>
</g>
</g>
<!-- Throughput&#45;&gt;Ieee80211ScalarRadioMedium -->
<g id="edge1" class="edge">
<title>Throughput&#45;&gt;Ieee80211ScalarRadioMedium</title>
<path fill="none" stroke="black" d="M271.35,-54.98C232.59,-45.86 170.95,-31.33 128.7,-21.38"/>
<polygon fill="black" stroke="black" points="129.47,-17.97 118.93,-19.08 127.86,-24.78 129.47,-17.97"/>
</g>
<!-- WirelessAPWithSink -->
<g id="node3" class="node">
<title>WirelessAPWithSink</title>
<g id="a_node3"><a xlink:href="inet.examples.wireless.throughput.WirelessAPWithSink.html" xlink:title="Compound Module WirelessAPWithSink" target="_parent">
<polygon fill="#fffcaf" stroke="black" points="298,-19 183,-19 183,0 298,0 298,-19"/>
<text text-anchor="middle" x="240.5" y="-7" font-family="Helvetica,sans-Serif" font-size="10.00">WirelessAPWithSink</text>
</a>
</g>
</g>
<!-- Throughput&#45;&gt;WirelessAPWithSink -->
<g id="edge2" class="edge">
<title>Throughput&#45;&gt;WirelessAPWithSink</title>
<path fill="none" stroke="black" d="M296.74,-54.98C286.73,-47.07 271.61,-35.11 259.57,-25.58"/>
<polygon fill="black" stroke="black" points="261.47,-22.63 251.46,-19.17 257.13,-28.12 261.47,-22.63"/>
</g>
<!-- IIntegratedVisualizer -->
<g id="node4" class="node">
<title>IIntegratedVisualizer</title>
<g id="a_node4"><a xlink:href="inet.visualizer.contract.IIntegratedVisualizer.html" xlink:title="Module Interface IIntegratedVisualizer" target="_parent">
<polygon fill="#fffcaf" stroke="black" stroke-dasharray="5,2" points="434.5,-19 316.5,-19 316.5,0 434.5,0 434.5,-19"/>
<text text-anchor="middle" x="375.5" y="-7" font-family="Helvetica,sans-Serif" font-size="10.00">IIntegratedVisualizer</text>
</a>
</g>
</g>
<!-- Throughput&#45;&gt;IIntegratedVisualizer -->
<g id="edge3" class="edge">
<title>Throughput&#45;&gt;IIntegratedVisualizer</title>
<path fill="none" stroke="black" d="M318.43,-54.98C328.58,-47.07 343.92,-35.11 356.15,-25.58"/>
<polygon fill="black" stroke="black" points="358.64,-28.08 364.38,-19.17 354.34,-22.56 358.64,-28.08"/>
</g>
<!-- ThroughputClient -->
<g id="node5" class="node">
<title>ThroughputClient</title>
<g id="a_node5"><a xlink:href="inet.examples.wireless.throughput.ThroughputClient.html" xlink:title="Compound Module ThroughputClient" target="_parent">
<polygon fill="#fffcaf" stroke="black" points="554,-19 453,-19 453,0 554,0 554,-19"/>
<text text-anchor="middle" x="503.5" y="-7" font-family="Helvetica,sans-Serif" font-size="10.00">ThroughputClient</text>
</a>
</g>
</g>
<!-- Throughput&#45;&gt;ThroughputClient -->
<g id="edge4" class="edge">
<title>Throughput&#45;&gt;ThroughputClient</title>
<path fill="none" stroke="black" d="M338.99,-54.98C372.32,-45.97 425.1,-31.7 461.85,-21.76"/>
<polygon fill="black" stroke="black" points="463.02,-25.07 471.76,-19.08 461.2,-18.31 463.02,-25.07"/>
</g>
</g>
</svg>
