<?xml version="1.0" encoding="UTF-8" standalone="no"?>
<!DOCTYPE svg PUBLIC "-//W3C//DTD SVG 1.1//EN"
 "http://www.w3.org/Graphics/SVG/1.1/DTD/svg11.dtd">
<!-- Generated by graphviz version 2.43.0 (0)
 -->
<!-- Title: opp Pages: 1 -->
<svg width="316pt" height="82pt"
 viewBox="0.00 0.00 315.50 82.00" xmlns="http://www.w3.org/2000/svg" xmlns:xlink="http://www.w3.org/1999/xlink">
<g id="graph0" class="graph" transform="scale(1 1) rotate(0) translate(4 78)">
<title>opp</title>
<polygon fill="transparent" stroke="transparent" points="-4,4 -4,-78 311.5,-78 311.5,4 -4,4"/>
<!-- IProcessingDelayLayer -->
<g id="node1" class="node">
<title>IProcessingDelayLayer</title>
<g id="a_node1"><a xlink:href="inet.protocolelement.processing.IProcessingDelayLayer.html" xlink:title="Module Interface IProcessingDelayLayer" target="_parent">
<polygon fill="#fff700" stroke="black" stroke-dasharray="5,2" points="227,-74 99,-74 99,-55 227,-55 227,-74"/>
<text text-anchor="middle" x="163" y="-62" font-family="Helvetica,sans-Serif" font-size="10.00">IProcessingDelayLayer</text>
</a>
</g>
</g>
<!-- OmittedProcessingDelayLayer -->
<g id="node2" class="node">
<title>OmittedProcessingDelayLayer</title>
<g id="a_node2"><a xlink:href="inet.protocolelement.processing.OmittedProcessingDelayLayer.html" xlink:title="Compound Module OmittedProcessingDelayLayer" target="_parent">
<polygon fill="#fffcaf" stroke="black" points="164,-19 0,-19 0,0 164,0 164,-19"/>
<text text-anchor="middle" x="82" y="-7" font-family="Helvetica,sans-Serif" font-size="10.00">OmittedProcessingDelayLayer</text>
</a>
</g>
</g>
<!-- IProcessingDelayLayer&#45;&gt;OmittedProcessingDelayLayer -->
<g id="edge1" class="edge">
<title>IProcessingDelayLayer&#45;&gt;OmittedProcessingDelayLayer</title>
<path fill="none" stroke="black" stroke-dasharray="5,2" d="M149.99,-54.98C134.96,-45.15 110.38,-29.07 95.25,-19.17"/>
</g>
<!-- ProcessingDelayLayer -->
<g id="node3" class="node">
<title>ProcessingDelayLayer</title>
<g id="a_node3"><a xlink:href="inet.protocolelement.processing.ProcessingDelayLayer.html" xlink:title="Compound Module ProcessingDelayLayer" target="_parent">
<polygon fill="#fffcaf" stroke="black" points="307.5,-19 182.5,-19 182.5,0 307.5,0 307.5,-19"/>
<text text-anchor="middle" x="245" y="-7" font-family="Helvetica,sans-Serif" font-size="10.00">ProcessingDelayLayer</text>
</a>
</g>
</g>
<!-- IProcessingDelayLayer&#45;&gt;ProcessingDelayLayer -->
<g id="edge2" class="edge">
<title>IProcessingDelayLayer&#45;&gt;ProcessingDelayLayer</title>
<path fill="none" stroke="black" stroke-dasharray="5,2" d="M176.17,-54.98C191.39,-45.15 216.27,-29.07 231.59,-19.17"/>
</g>
</g>
</svg>
