<?xml version="1.0" encoding="UTF-8" standalone="no"?>
<!DOCTYPE svg PUBLIC "-//W3C//DTD SVG 1.1//EN"
 "http://www.w3.org/Graphics/SVG/1.1/DTD/svg11.dtd">
<!-- Generated by graphviz version 2.43.0 (0)
 -->
<!-- Title: opp Pages: 1 -->
<svg width="270pt" height="82pt"
 viewBox="0.00 0.00 270.00 82.00" xmlns="http://www.w3.org/2000/svg" xmlns:xlink="http://www.w3.org/1999/xlink">
<g id="graph0" class="graph" transform="scale(1 1) rotate(0) translate(4 78)">
<title>opp</title>
<polygon fill="transparent" stroke="transparent" points="-4,4 -4,-78 266,-78 266,4 -4,4"/>
<!-- IMediumVisualizer -->
<g id="node1" class="node">
<title>IMediumVisualizer</title>
<g id="a_node1"><a xlink:href="inet.visualizer.contract.IMediumVisualizer.html" xlink:title="Module Interface IMediumVisualizer" target="_parent">
<polygon fill="#fff700" stroke="black" stroke-dasharray="5,2" points="193.5,-74 86.5,-74 86.5,-55 193.5,-55 193.5,-74"/>
<text text-anchor="middle" x="140" y="-62" font-family="Helvetica,sans-Serif" font-size="10.00">IMediumVisualizer</text>
</a>
</g>
</g>
<!-- MediumCanvasVisualizer -->
<g id="node2" class="node">
<title>MediumCanvasVisualizer</title>
<g id="a_node2"><a xlink:href="inet.visualizer.canvas.physicallayer.MediumCanvasVisualizer.html" xlink:title="Simple Module MediumCanvasVisualizer" target="_parent">
<polygon fill="#fffcaf" stroke="black" points="140,-19 0,-19 0,0 140,0 140,-19"/>
<text text-anchor="middle" x="70" y="-7" font-family="Helvetica,sans-Serif" font-size="10.00">MediumCanvasVisualizer</text>
</a>
</g>
</g>
<!-- IMediumVisualizer&#45;&gt;MediumCanvasVisualizer -->
<g id="edge1" class="edge">
<title>IMediumVisualizer&#45;&gt;MediumCanvasVisualizer</title>
<path fill="none" stroke="black" stroke-dasharray="5,2" d="M128.75,-54.98C115.77,-45.15 94.52,-29.07 81.45,-19.17"/>
</g>
<!-- MediumVisualizer -->
<g id="node3" class="node">
<title>MediumVisualizer</title>
<g id="a_node3"><a xlink:href="inet.visualizer.common.MediumVisualizer.html" xlink:title="Compound Module MediumVisualizer" target="_parent">
<polygon fill="#fffcaf" stroke="black" points="262,-19 158,-19 158,0 262,0 262,-19"/>
<text text-anchor="middle" x="210" y="-7" font-family="Helvetica,sans-Serif" font-size="10.00">MediumVisualizer</text>
</a>
</g>
</g>
<!-- IMediumVisualizer&#45;&gt;MediumVisualizer -->
<g id="edge2" class="edge">
<title>IMediumVisualizer&#45;&gt;MediumVisualizer</title>
<path fill="none" stroke="black" stroke-dasharray="5,2" d="M151.25,-54.98C164.23,-45.15 185.48,-29.07 198.55,-19.17"/>
</g>
</g>
</svg>
