<?xml version="1.0" encoding="UTF-8" standalone="no"?>
<!DOCTYPE svg PUBLIC "-//W3C//DTD SVG 1.1//EN"
 "http://www.w3.org/Graphics/SVG/1.1/DTD/svg11.dtd">
<!-- Generated by graphviz version 2.43.0 (0)
 -->
<!-- Title: opp Pages: 1 -->
<svg width="891pt" height="82pt"
 viewBox="0.00 0.00 890.50 82.00" xmlns="http://www.w3.org/2000/svg" xmlns:xlink="http://www.w3.org/1999/xlink">
<g id="graph0" class="graph" transform="scale(1 1) rotate(0) translate(4 78)">
<title>opp</title>
<polygon fill="transparent" stroke="transparent" points="-4,4 -4,-78 886.5,-78 886.5,4 -4,4"/>
<!-- EthernetPreemptingPhyLayer -->
<g id="node1" class="node">
<title>EthernetPreemptingPhyLayer</title>
<g id="a_node1"><a xlink:href="inet.physicallayer.wired.ethernet.EthernetPreemptingPhyLayer.html" xlink:title="Compound Module EthernetPreemptingPhyLayer" target="_parent">
<polygon fill="#fff700" stroke="black" points="519.5,-74 360.5,-74 360.5,-55 519.5,-55 519.5,-74"/>
<text text-anchor="middle" x="440" y="-62" font-family="Helvetica,sans-Serif" font-size="10.00">EthernetPreemptingPhyLayer</text>
</a>
</g>
</g>
<!-- IPacketFlow -->
<g id="node2" class="node">
<title>IPacketFlow</title>
<g id="a_node2"><a xlink:href="inet.queueing.contract.IPacketFlow.html" xlink:title="Module Interface IPacketFlow" target="_parent">
<polygon fill="#fffcaf" stroke="black" stroke-dasharray="5,2" points="74,-19 0,-19 0,0 74,0 74,-19"/>
<text text-anchor="middle" x="37" y="-7" font-family="Helvetica,sans-Serif" font-size="10.00">IPacketFlow</text>
</a>
</g>
</g>
<!-- EthernetPreemptingPhyLayer&#45;&gt;IPacketFlow -->
<g id="edge1" class="edge">
<title>EthernetPreemptingPhyLayer&#45;&gt;IPacketFlow</title>
<path fill="none" stroke="black" d="M360.76,-54.97C290.63,-47.12 185.27,-34.56 84.21,-19.11"/>
<polygon fill="black" stroke="black" points="84.54,-15.62 74.13,-17.55 83.48,-22.54 84.54,-15.62"/>
</g>
<!-- IPacketTransmitter -->
<g id="node3" class="node">
<title>IPacketTransmitter</title>
<g id="a_node3"><a xlink:href="inet.protocolelement.transceiver.contract.IPacketTransmitter.html" xlink:title="Module Interface IPacketTransmitter" target="_parent">
<polygon fill="#fffcaf" stroke="black" stroke-dasharray="5,2" points="199.5,-19 92.5,-19 92.5,0 199.5,0 199.5,-19"/>
<text text-anchor="middle" x="146" y="-7" font-family="Helvetica,sans-Serif" font-size="10.00">IPacketTransmitter</text>
</a>
</g>
</g>
<!-- EthernetPreemptingPhyLayer&#45;&gt;IPacketTransmitter -->
<g id="edge2" class="edge">
<title>EthernetPreemptingPhyLayer&#45;&gt;IPacketTransmitter</title>
<path fill="none" stroke="black" d="M392.76,-54.98C341.27,-45.7 258.84,-30.84 203.59,-20.88"/>
<polygon fill="black" stroke="black" points="204.07,-17.41 193.61,-19.08 202.83,-24.3 204.07,-17.41"/>
</g>
<!-- IPacketFilter -->
<g id="node4" class="node">
<title>IPacketFilter</title>
<g id="a_node4"><a xlink:href="inet.queueing.contract.IPacketFilter.html" xlink:title="Module Interface IPacketFilter" target="_parent">
<polygon fill="#fffcaf" stroke="black" stroke-dasharray="5,2" points="294,-19 218,-19 218,0 294,0 294,-19"/>
<text text-anchor="middle" x="256" y="-7" font-family="Helvetica,sans-Serif" font-size="10.00">IPacketFilter</text>
</a>
</g>
</g>
<!-- EthernetPreemptingPhyLayer&#45;&gt;IPacketFilter -->
<g id="edge3" class="edge">
<title>EthernetPreemptingPhyLayer&#45;&gt;IPacketFilter</title>
<path fill="none" stroke="black" d="M410.44,-54.98C379.28,-46.01 330.03,-31.82 295.54,-21.89"/>
<polygon fill="black" stroke="black" points="296.37,-18.49 285.79,-19.08 294.43,-25.21 296.37,-18.49"/>
</g>
<!-- InterpacketGapInserter -->
<g id="node5" class="node">
<title>InterpacketGapInserter</title>
<g id="a_node5"><a xlink:href="inet.protocolelement.common.InterpacketGapInserter.html" xlink:title="Simple Module InterpacketGapInserter" target="_parent">
<polygon fill="#fffcaf" stroke="black" points="440,-19 312,-19 312,0 440,0 440,-19"/>
<text text-anchor="middle" x="376" y="-7" font-family="Helvetica,sans-Serif" font-size="10.00">InterpacketGapInserter</text>
</a>
</g>
</g>
<!-- EthernetPreemptingPhyLayer&#45;&gt;InterpacketGapInserter -->
<g id="edge4" class="edge">
<title>EthernetPreemptingPhyLayer&#45;&gt;InterpacketGapInserter</title>
<path fill="none" stroke="black" d="M429.72,-54.98C420.16,-47.07 405.72,-35.11 394.22,-25.58"/>
<polygon fill="black" stroke="black" points="396.4,-22.85 386.47,-19.17 391.94,-28.24 396.4,-22.85"/>
</g>
<!-- IPacketReceiver -->
<g id="node6" class="node">
<title>IPacketReceiver</title>
<g id="a_node6"><a xlink:href="inet.protocolelement.transceiver.contract.IPacketReceiver.html" xlink:title="Module Interface IPacketReceiver" target="_parent">
<polygon fill="#fffcaf" stroke="black" stroke-dasharray="5,2" points="552,-19 458,-19 458,0 552,0 552,-19"/>
<text text-anchor="middle" x="505" y="-7" font-family="Helvetica,sans-Serif" font-size="10.00">IPacketReceiver</text>
</a>
</g>
</g>
<!-- EthernetPreemptingPhyLayer&#45;&gt;IPacketReceiver -->
<g id="edge5" class="edge">
<title>EthernetPreemptingPhyLayer&#45;&gt;IPacketReceiver</title>
<path fill="none" stroke="black" d="M450.44,-54.98C460.15,-47.07 474.82,-35.11 486.5,-25.58"/>
<polygon fill="black" stroke="black" points="488.83,-28.2 494.37,-19.17 484.4,-22.78 488.83,-28.2"/>
</g>
<!-- IdealChannel -->
<g id="node7" class="node">
<title>IdealChannel</title>
<g id="a_node7"><a xlink:href="ned.IdealChannel.html" xlink:title="Channel IdealChannel" target="_parent">
<polygon fill="#d0ffd0" stroke="black" points="650,-19 570,-19 570,0 650,0 650,-19"/>
<text text-anchor="middle" x="610" y="-7" font-family="Helvetica,sans-Serif" font-size="10.00">IdealChannel</text>
</a>
</g>
</g>
<!-- EthernetPreemptingPhyLayer&#45;&gt;IdealChannel -->
<g id="edge6" class="edge">
<title>EthernetPreemptingPhyLayer&#45;&gt;IdealChannel</title>
<path fill="none" stroke="black" d="M467.31,-54.98C495.85,-46.09 540.83,-32.07 572.64,-22.15"/>
<polygon fill="black" stroke="black" points="573.97,-25.4 582.47,-19.08 571.88,-18.72 573.97,-25.4"/>
</g>
<!-- PacketClassifier -->
<g id="node8" class="node">
<title>PacketClassifier</title>
<g id="a_node8"><a xlink:href="inet.queueing.classifier.PacketClassifier.html" xlink:title="Simple Module PacketClassifier" target="_parent">
<polygon fill="#fffcaf" stroke="black" points="761.5,-19 668.5,-19 668.5,0 761.5,0 761.5,-19"/>
<text text-anchor="middle" x="715" y="-7" font-family="Helvetica,sans-Serif" font-size="10.00">PacketClassifier</text>
</a>
</g>
</g>
<!-- EthernetPreemptingPhyLayer&#45;&gt;PacketClassifier -->
<g id="edge7" class="edge">
<title>EthernetPreemptingPhyLayer&#45;&gt;PacketClassifier</title>
<path fill="none" stroke="black" d="M484.18,-54.98C532.15,-45.74 608.81,-30.97 660.48,-21.01"/>
<polygon fill="black" stroke="black" points="661.31,-24.41 670.47,-19.08 659.99,-17.54 661.31,-24.41"/>
</g>
<!-- PacketMultiplexer -->
<g id="node9" class="node">
<title>PacketMultiplexer</title>
<g id="a_node9"><a xlink:href="inet.queueing.common.PacketMultiplexer.html" xlink:title="Simple Module PacketMultiplexer" target="_parent">
<polygon fill="#fffcaf" stroke="black" points="882.5,-19 779.5,-19 779.5,0 882.5,0 882.5,-19"/>
<text text-anchor="middle" x="831" y="-7" font-family="Helvetica,sans-Serif" font-size="10.00">PacketMultiplexer</text>
</a>
</g>
</g>
<!-- EthernetPreemptingPhyLayer&#45;&gt;PacketMultiplexer -->
<g id="edge8" class="edge">
<title>EthernetPreemptingPhyLayer&#45;&gt;PacketMultiplexer</title>
<path fill="none" stroke="black" d="M504.4,-54.98C568.9,-46.41 671.3,-32.73 769.22,-19.24"/>
<polygon fill="black" stroke="black" points="769.86,-22.68 779.29,-17.85 768.91,-15.75 769.86,-22.68"/>
</g>
</g>
</svg>
