<?xml version="1.0" encoding="UTF-8" standalone="no"?>
<!DOCTYPE svg PUBLIC "-//W3C//DTD SVG 1.1//EN"
 "http://www.w3.org/Graphics/SVG/1.1/DTD/svg11.dtd">
<!-- Generated by graphviz version 2.43.0 (0)
 -->
<!-- Title: opp Pages: 1 -->
<svg width="566pt" height="82pt"
 viewBox="0.00 0.00 565.50 82.00" xmlns="http://www.w3.org/2000/svg" xmlns:xlink="http://www.w3.org/1999/xlink">
<g id="graph0" class="graph" transform="scale(1 1) rotate(0) translate(4 78)">
<title>opp</title>
<polygon fill="transparent" stroke="transparent" points="-4,4 -4,-78 561.5,-78 561.5,4 -4,4"/>
<!-- DiffservNetwork -->
<g id="node1" class="node">
<title>DiffservNetwork</title>
<g id="a_node1"><a xlink:href="inet.examples.diffserv.onedomain.DiffservNetwork.html" xlink:title="Network DiffservNetwork" target="_parent">
<polygon fill="#9090ff" stroke="black" points="358.5,-74 262.5,-74 262.5,-55 358.5,-55 358.5,-74"/>
<text text-anchor="middle" x="310.5" y="-62" font-family="Helvetica,sans-Serif" font-size="10.00">DiffservNetwork</text>
</a>
</g>
</g>
<!-- StandardHost -->
<g id="node2" class="node">
<title>StandardHost</title>
<g id="a_node2"><a xlink:href="inet.node.inet.StandardHost.html" xlink:title="Compound Module StandardHost" target="_parent">
<polygon fill="#fffcaf" stroke="black" points="83,-19 0,-19 0,0 83,0 83,-19"/>
<text text-anchor="middle" x="41.5" y="-7" font-family="Helvetica,sans-Serif" font-size="10.00">StandardHost</text>
</a>
</g>
</g>
<!-- DiffservNetwork&#45;&gt;StandardHost -->
<g id="edge1" class="edge">
<title>DiffservNetwork&#45;&gt;StandardHost</title>
<path fill="none" stroke="black" d="M267.28,-54.98C219.9,-45.65 143.91,-30.68 93.35,-20.72"/>
<polygon fill="black" stroke="black" points="93.77,-17.23 83.28,-18.73 92.42,-24.1 93.77,-17.23"/>
</g>
<!-- edgeline -->
<g id="node3" class="node">
<title>edgeline</title>
<g id="a_node3"><a xlink:href="inet.examples.diffserv.onedomain.DiffservNetwork.edgeline.html" xlink:title="Channel edgeline" target="_parent">
<polygon fill="#d0ffd0" stroke="black" points="160,-19 101,-19 101,0 160,0 160,-19"/>
<text text-anchor="middle" x="130.5" y="-7" font-family="Helvetica,sans-Serif" font-size="10.00">edgeline</text>
</a>
</g>
</g>
<!-- DiffservNetwork&#45;&gt;edgeline -->
<g id="edge2" class="edge">
<title>DiffservNetwork&#45;&gt;edgeline</title>
<path fill="none" stroke="black" d="M281.58,-54.98C251.23,-46.05 203.33,-31.94 169.62,-22.02"/>
<polygon fill="black" stroke="black" points="170.23,-18.55 159.65,-19.08 168.25,-25.26 170.23,-18.55"/>
</g>
<!-- Ipv4NetworkConfigurator -->
<g id="node4" class="node">
<title>Ipv4NetworkConfigurator</title>
<g id="a_node4"><a xlink:href="inet.networklayer.configurator.ipv4.Ipv4NetworkConfigurator.html" xlink:title="Simple Module Ipv4NetworkConfigurator" target="_parent">
<polygon fill="#fffcaf" stroke="black" points="317,-19 178,-19 178,0 317,0 317,-19"/>
<text text-anchor="middle" x="247.5" y="-7" font-family="Helvetica,sans-Serif" font-size="10.00">Ipv4NetworkConfigurator</text>
</a>
</g>
</g>
<!-- DiffservNetwork&#45;&gt;Ipv4NetworkConfigurator -->
<g id="edge3" class="edge">
<title>DiffservNetwork&#45;&gt;Ipv4NetworkConfigurator</title>
<path fill="none" stroke="black" d="M300.38,-54.98C291.06,-47.15 277.03,-35.34 265.76,-25.86"/>
<polygon fill="black" stroke="black" points="267.71,-22.93 257.81,-19.17 263.21,-28.29 267.71,-22.93"/>
</g>
<!-- ethernetline -->
<g id="node5" class="node">
<title>ethernetline</title>
<g id="a_node5"><a xlink:href="inet.examples.diffserv.onedomain.DiffservNetwork.ethernetline.html" xlink:title="Channel ethernetline" target="_parent">
<polygon fill="#d0ffd0" stroke="black" points="411.5,-19 335.5,-19 335.5,0 411.5,0 411.5,-19"/>
<text text-anchor="middle" x="373.5" y="-7" font-family="Helvetica,sans-Serif" font-size="10.00">ethernetline</text>
</a>
</g>
</g>
<!-- DiffservNetwork&#45;&gt;ethernetline -->
<g id="edge4" class="edge">
<title>DiffservNetwork&#45;&gt;ethernetline</title>
<path fill="none" stroke="black" d="M320.62,-54.98C329.94,-47.15 343.97,-35.34 355.24,-25.86"/>
<polygon fill="black" stroke="black" points="357.79,-28.29 363.19,-19.17 353.29,-22.93 357.79,-28.29"/>
</g>
<!-- coreline -->
<g id="node6" class="node">
<title>coreline</title>
<g id="a_node6"><a xlink:href="inet.examples.diffserv.onedomain.DiffservNetwork.coreline.html" xlink:title="Channel coreline" target="_parent">
<polygon fill="#d0ffd0" stroke="black" points="485.5,-19 429.5,-19 429.5,0 485.5,0 485.5,-19"/>
<text text-anchor="middle" x="457.5" y="-7" font-family="Helvetica,sans-Serif" font-size="10.00">coreline</text>
</a>
</g>
</g>
<!-- DiffservNetwork&#45;&gt;coreline -->
<g id="edge5" class="edge">
<title>DiffservNetwork&#45;&gt;coreline</title>
<path fill="none" stroke="black" d="M334.12,-54.98C358.4,-46.23 396.45,-32.51 423.87,-22.62"/>
<polygon fill="black" stroke="black" points="425.23,-25.85 433.45,-19.17 422.86,-19.27 425.23,-25.85"/>
</g>
<!-- Router -->
<g id="node7" class="node">
<title>Router</title>
<g id="a_node7"><a xlink:href="inet.node.inet.Router.html" xlink:title="Compound Module Router" target="_parent">
<polygon fill="#fffcaf" stroke="black" points="557.5,-19 503.5,-19 503.5,0 557.5,0 557.5,-19"/>
<text text-anchor="middle" x="530.5" y="-7" font-family="Helvetica,sans-Serif" font-size="10.00">Router</text>
</a>
</g>
</g>
<!-- DiffservNetwork&#45;&gt;Router -->
<g id="edge6" class="edge">
<title>DiffservNetwork&#45;&gt;Router</title>
<path fill="none" stroke="black" d="M345.85,-54.98C386.27,-45.25 452.16,-29.37 493.33,-19.46"/>
<polygon fill="black" stroke="black" points="494.33,-22.81 503.23,-17.07 492.69,-16.01 494.33,-22.81"/>
</g>
</g>
</svg>
