<?xml version="1.0" encoding="UTF-8" standalone="no"?>
<!DOCTYPE svg PUBLIC "-//W3C//DTD SVG 1.1//EN"
 "http://www.w3.org/Graphics/SVG/1.1/DTD/svg11.dtd">
<!-- Generated by graphviz version 2.43.0 (0)
 -->
<!-- Title: opp Pages: 1 -->
<svg width="295pt" height="82pt"
 viewBox="0.00 0.00 294.50 82.00" xmlns="http://www.w3.org/2000/svg" xmlns:xlink="http://www.w3.org/1999/xlink">
<g id="graph0" class="graph" transform="scale(1 1) rotate(0) translate(4 78)">
<title>opp</title>
<polygon fill="transparent" stroke="transparent" points="-4,4 -4,-78 290.5,-78 290.5,4 -4,4"/>
<!-- Network6 -->
<g id="node1" class="node">
<title>Network6</title>
<g id="a_node1"><a xlink:href="inet.tutorials.protocol.Network6.html" xlink:title="Network Network6" target="_parent">
<polygon fill="#9090ff" stroke="black" points="163,-74 99,-74 99,-55 163,-55 163,-74"/>
<text text-anchor="middle" x="131" y="-62" font-family="Helvetica,sans-Serif" font-size="10.00">Network6</text>
</a>
</g>
</g>
<!-- ClientHost6 -->
<g id="node2" class="node">
<title>ClientHost6</title>
<g id="a_node2"><a xlink:href="inet.tutorials.protocol.ClientHost6.html" xlink:title="Compound Module ClientHost6" target="_parent">
<polygon fill="#fffcaf" stroke="black" points="74,-19 0,-19 0,0 74,0 74,-19"/>
<text text-anchor="middle" x="37" y="-7" font-family="Helvetica,sans-Serif" font-size="10.00">ClientHost6</text>
</a>
</g>
</g>
<!-- Network6&#45;&gt;ClientHost6 -->
<g id="edge1" class="edge">
<title>Network6&#45;&gt;ClientHost6</title>
<path fill="none" stroke="black" d="M115.9,-54.98C101.18,-46.69 78.58,-33.94 61.33,-24.22"/>
<polygon fill="black" stroke="black" points="62.81,-21.03 52.38,-19.17 59.37,-27.13 62.81,-21.03"/>
</g>
<!-- ServerHost6 -->
<g id="node3" class="node">
<title>ServerHost6</title>
<g id="a_node3"><a xlink:href="inet.tutorials.protocol.ServerHost6.html" xlink:title="Compound Module ServerHost6" target="_parent">
<polygon fill="#fffcaf" stroke="black" points="169.5,-19 92.5,-19 92.5,0 169.5,0 169.5,-19"/>
<text text-anchor="middle" x="131" y="-7" font-family="Helvetica,sans-Serif" font-size="10.00">ServerHost6</text>
</a>
</g>
</g>
<!-- Network6&#45;&gt;ServerHost6 -->
<g id="edge2" class="edge">
<title>Network6&#45;&gt;ServerHost6</title>
<path fill="none" stroke="black" d="M131,-54.75C131,-47.8 131,-37.85 131,-29.13"/>
<polygon fill="black" stroke="black" points="134.5,-29.09 131,-19.09 127.5,-29.09 134.5,-29.09"/>
</g>
<!-- DatarateChannel -->
<g id="node4" class="node">
<title>DatarateChannel</title>
<g id="a_node4"><a xlink:href="ned.DatarateChannel.html" xlink:title="Channel DatarateChannel" target="_parent">
<polygon fill="#d0ffd0" stroke="black" points="286.5,-19 187.5,-19 187.5,0 286.5,0 286.5,-19"/>
<text text-anchor="middle" x="237" y="-7" font-family="Helvetica,sans-Serif" font-size="10.00">DatarateChannel</text>
</a>
</g>
</g>
<!-- Network6&#45;&gt;DatarateChannel -->
<g id="edge3" class="edge">
<title>Network6&#45;&gt;DatarateChannel</title>
<path fill="none" stroke="black" d="M148.03,-54.98C164.93,-46.54 191.06,-33.47 210.64,-23.68"/>
<polygon fill="black" stroke="black" points="212.28,-26.77 219.66,-19.17 209.15,-20.51 212.28,-26.77"/>
</g>
</g>
</svg>
