<?xml version="1.0" encoding="UTF-8" standalone="no"?>
<!DOCTYPE svg PUBLIC "-//W3C//DTD SVG 1.1//EN"
 "http://www.w3.org/Graphics/SVG/1.1/DTD/svg11.dtd">
<!-- Generated by graphviz version 2.43.0 (0)
 -->
<!-- Title: opp Pages: 1 -->
<svg width="558pt" height="82pt"
 viewBox="0.00 0.00 558.00 82.00" xmlns="http://www.w3.org/2000/svg" xmlns:xlink="http://www.w3.org/1999/xlink">
<g id="graph0" class="graph" transform="scale(1 1) rotate(0) translate(4 78)">
<title>opp</title>
<polygon fill="transparent" stroke="transparent" points="-4,4 -4,-78 554,-78 554,4 -4,4"/>
<!-- IIeee8021dQosClassifier -->
<g id="node1" class="node">
<title>IIeee8021dQosClassifier</title>
<g id="a_node1"><a xlink:href="inet.linklayer.common.IIeee8021dQosClassifier.html" xlink:title="Module Interface IIeee8021dQosClassifier" target="_parent">
<polygon fill="#fff700" stroke="black" stroke-dasharray="5,2" points="365.5,-74 231.5,-74 231.5,-55 365.5,-55 365.5,-74"/>
<text text-anchor="middle" x="298.5" y="-62" font-family="Helvetica,sans-Serif" font-size="10.00">IIeee8021dQosClassifier</text>
</a>
</g>
</g>
<!-- ExampleQosClassifier -->
<g id="node2" class="node">
<title>ExampleQosClassifier</title>
<g id="a_node2"><a xlink:href="inet.linklayer.common.ExampleQosClassifier.html" xlink:title="Simple Module ExampleQosClassifier" target="_parent">
<polygon fill="#fffcaf" stroke="black" points="123,-19 0,-19 0,0 123,0 123,-19"/>
<text text-anchor="middle" x="61.5" y="-7" font-family="Helvetica,sans-Serif" font-size="10.00">ExampleQosClassifier</text>
</a>
</g>
</g>
<!-- IIeee8021dQosClassifier&#45;&gt;ExampleQosClassifier -->
<g id="edge1" class="edge">
<title>IIeee8021dQosClassifier&#45;&gt;ExampleQosClassifier</title>
<path fill="none" stroke="black" stroke-dasharray="5,2" d="M260.42,-54.98C216.33,-45.12 144.1,-28.97 99.88,-19.08"/>
</g>
<!-- OmittedIeee8021dQosClassifier -->
<g id="node3" class="node">
<title>OmittedIeee8021dQosClassifier</title>
<g id="a_node3"><a xlink:href="inet.linklayer.common.OmittedIeee8021dQosClassifier.html" xlink:title="Compound Module OmittedIeee8021dQosClassifier" target="_parent">
<polygon fill="#fffcaf" stroke="black" points="312,-19 141,-19 141,0 312,0 312,-19"/>
<text text-anchor="middle" x="226.5" y="-7" font-family="Helvetica,sans-Serif" font-size="10.00">OmittedIeee8021dQosClassifier</text>
</a>
</g>
</g>
<!-- IIeee8021dQosClassifier&#45;&gt;OmittedIeee8021dQosClassifier -->
<g id="edge2" class="edge">
<title>IIeee8021dQosClassifier&#45;&gt;OmittedIeee8021dQosClassifier</title>
<path fill="none" stroke="black" stroke-dasharray="5,2" d="M286.93,-54.98C273.58,-45.15 251.72,-29.07 238.28,-19.17"/>
</g>
<!-- QosClassifier -->
<g id="node4" class="node">
<title>QosClassifier</title>
<g id="a_node4"><a xlink:href="inet.linklayer.common.QosClassifier.html" xlink:title="Simple Module QosClassifier" target="_parent">
<polygon fill="#fffcaf" stroke="black" points="410.5,-19 330.5,-19 330.5,0 410.5,0 410.5,-19"/>
<text text-anchor="middle" x="370.5" y="-7" font-family="Helvetica,sans-Serif" font-size="10.00">QosClassifier</text>
</a>
</g>
</g>
<!-- IIeee8021dQosClassifier&#45;&gt;QosClassifier -->
<g id="edge3" class="edge">
<title>IIeee8021dQosClassifier&#45;&gt;QosClassifier</title>
<path fill="none" stroke="black" stroke-dasharray="5,2" d="M310.07,-54.98C323.42,-45.15 345.28,-29.07 358.72,-19.17"/>
</g>
<!-- RandomQosClassifier -->
<g id="node5" class="node">
<title>RandomQosClassifier</title>
<g id="a_node5"><a xlink:href="inet.linklayer.common.RandomQosClassifier.html" xlink:title="Simple Module RandomQosClassifier" target="_parent">
<polygon fill="#fffcaf" stroke="black" points="550,-19 429,-19 429,0 550,0 550,-19"/>
<text text-anchor="middle" x="489.5" y="-7" font-family="Helvetica,sans-Serif" font-size="10.00">RandomQosClassifier</text>
</a>
</g>
</g>
<!-- IIeee8021dQosClassifier&#45;&gt;RandomQosClassifier -->
<g id="edge4" class="edge">
<title>IIeee8021dQosClassifier&#45;&gt;RandomQosClassifier</title>
<path fill="none" stroke="black" stroke-dasharray="5,2" d="M329.19,-54.98C364.72,-45.12 422.93,-28.97 458.57,-19.08"/>
</g>
</g>
</svg>
