<?xml version="1.0" encoding="UTF-8" standalone="no"?>
<!DOCTYPE svg PUBLIC "-//W3C//DTD SVG 1.1//EN"
 "http://www.w3.org/Graphics/SVG/1.1/DTD/svg11.dtd">
<!-- Generated by graphviz version 2.43.0 (0)
 -->
<!-- Title: opp Pages: 1 -->
<svg width="645pt" height="82pt"
 viewBox="0.00 0.00 645.00 82.00" xmlns="http://www.w3.org/2000/svg" xmlns:xlink="http://www.w3.org/1999/xlink">
<g id="graph0" class="graph" transform="scale(1 1) rotate(0) translate(4 78)">
<title>opp</title>
<polygon fill="transparent" stroke="transparent" points="-4,4 -4,-78 641,-78 641,4 -4,4"/>
<!-- Throughput -->
<g id="node1" class="node">
<title>Throughput</title>
<g id="a_node1"><a xlink:href="inet.examples.wireless.hosttohost.Throughput.html" xlink:title="Network Throughput" target="_parent">
<polygon fill="#9090ff" stroke="black" points="406.5,-74 334.5,-74 334.5,-55 406.5,-55 406.5,-74"/>
<text text-anchor="middle" x="370.5" y="-62" font-family="Helvetica,sans-Serif" font-size="10.00">Throughput</text>
</a>
</g>
</g>
<!-- Ieee80211ScalarRadioMedium -->
<g id="node2" class="node">
<title>Ieee80211ScalarRadioMedium</title>
<g id="a_node2"><a xlink:href="inet.physicallayer.wireless.ieee80211.packetlevel.Ieee80211ScalarRadioMedium.html" xlink:title="Compound Module Ieee80211ScalarRadioMedium" target="_parent">
<polygon fill="#fffcaf" stroke="black" points="165,-19 0,-19 0,0 165,0 165,-19"/>
<text text-anchor="middle" x="82.5" y="-7" font-family="Helvetica,sans-Serif" font-size="10.00">Ieee80211ScalarRadioMedium</text>
</a>
</g>
</g>
<!-- Throughput&#45;&gt;Ieee80211ScalarRadioMedium -->
<g id="edge1" class="edge">
<title>Throughput&#45;&gt;Ieee80211ScalarRadioMedium</title>
<path fill="none" stroke="black" d="M334.32,-56.84C285.15,-47.79 196.74,-31.52 138.84,-20.87"/>
<polygon fill="black" stroke="black" points="139.23,-17.38 128.76,-19.01 137.96,-24.27 139.23,-17.38"/>
</g>
<!-- IIntegratedVisualizer -->
<g id="node3" class="node">
<title>IIntegratedVisualizer</title>
<g id="a_node3"><a xlink:href="inet.visualizer.contract.IIntegratedVisualizer.html" xlink:title="Module Interface IIntegratedVisualizer" target="_parent">
<polygon fill="#fffcaf" stroke="black" stroke-dasharray="5,2" points="301.5,-19 183.5,-19 183.5,0 301.5,0 301.5,-19"/>
<text text-anchor="middle" x="242.5" y="-7" font-family="Helvetica,sans-Serif" font-size="10.00">IIntegratedVisualizer</text>
</a>
</g>
</g>
<!-- Throughput&#45;&gt;IIntegratedVisualizer -->
<g id="edge2" class="edge">
<title>Throughput&#45;&gt;IIntegratedVisualizer</title>
<path fill="none" stroke="black" d="M349.93,-54.98C329.07,-46.34 296.53,-32.87 272.73,-23.02"/>
<polygon fill="black" stroke="black" points="274.02,-19.76 263.44,-19.17 271.34,-26.23 274.02,-19.76"/>
</g>
<!-- ThroughputClient -->
<g id="node4" class="node">
<title>ThroughputClient</title>
<g id="a_node4"><a xlink:href="inet.examples.wireless.hosttohost.ThroughputClient.html" xlink:title="Compound Module ThroughputClient" target="_parent">
<polygon fill="#fffcaf" stroke="black" points="421,-19 320,-19 320,0 421,0 421,-19"/>
<text text-anchor="middle" x="370.5" y="-7" font-family="Helvetica,sans-Serif" font-size="10.00">ThroughputClient</text>
</a>
</g>
</g>
<!-- Throughput&#45;&gt;ThroughputClient -->
<g id="edge3" class="edge">
<title>Throughput&#45;&gt;ThroughputClient</title>
<path fill="none" stroke="black" d="M370.5,-54.75C370.5,-47.8 370.5,-37.85 370.5,-29.13"/>
<polygon fill="black" stroke="black" points="374,-29.09 370.5,-19.09 367,-29.09 374,-29.09"/>
</g>
<!-- ThroughputServer -->
<g id="node5" class="node">
<title>ThroughputServer</title>
<g id="a_node5"><a xlink:href="inet.examples.wireless.hosttohost.ThroughputServer.html" xlink:title="Compound Module ThroughputServer" target="_parent">
<polygon fill="#fffcaf" stroke="black" points="543.5,-19 439.5,-19 439.5,0 543.5,0 543.5,-19"/>
<text text-anchor="middle" x="491.5" y="-7" font-family="Helvetica,sans-Serif" font-size="10.00">ThroughputServer</text>
</a>
</g>
</g>
<!-- Throughput&#45;&gt;ThroughputServer -->
<g id="edge4" class="edge">
<title>Throughput&#45;&gt;ThroughputServer</title>
<path fill="none" stroke="black" d="M389.94,-54.98C409.49,-46.42 439.88,-33.11 462.32,-23.28"/>
<polygon fill="black" stroke="black" points="463.95,-26.39 471.71,-19.17 461.14,-19.98 463.95,-26.39"/>
</g>
<!-- AccessPoint -->
<g id="node6" class="node">
<title>AccessPoint</title>
<g id="a_node6"><a xlink:href="inet.node.wireless.AccessPoint.html" xlink:title="Compound Module AccessPoint" target="_parent">
<polygon fill="#fffcaf" stroke="black" points="637,-19 562,-19 562,0 637,0 637,-19"/>
<text text-anchor="middle" x="599.5" y="-7" font-family="Helvetica,sans-Serif" font-size="10.00">AccessPoint</text>
</a>
</g>
</g>
<!-- Throughput&#45;&gt;AccessPoint -->
<g id="edge5" class="edge">
<title>Throughput&#45;&gt;AccessPoint</title>
<path fill="none" stroke="black" d="M406.53,-55.16C445.95,-46.04 509.26,-31.39 552.54,-21.37"/>
<polygon fill="black" stroke="black" points="553.59,-24.72 562.54,-19.05 552.01,-17.9 553.59,-24.72"/>
</g>
</g>
</svg>
