<?xml version="1.0" encoding="UTF-8" standalone="no"?>
<!DOCTYPE svg PUBLIC "-//W3C//DTD SVG 1.1//EN"
 "http://www.w3.org/Graphics/SVG/1.1/DTD/svg11.dtd">
<!-- Generated by graphviz version 2.43.0 (0)
 -->
<!-- Title: opp Pages: 1 -->
<svg width="268pt" height="137pt"
 viewBox="0.00 0.00 268.00 137.00" xmlns="http://www.w3.org/2000/svg" xmlns:xlink="http://www.w3.org/1999/xlink">
<g id="graph0" class="graph" transform="scale(1 1) rotate(0) translate(4 133)">
<title>opp</title>
<polygon fill="transparent" stroke="transparent" points="-4,4 -4,-133 264,-133 264,4 -4,4"/>
<!-- Ieee8022LlcApp -->
<g id="node1" class="node">
<title>Ieee8022LlcApp</title>
<g id="a_node1"><a xlink:href="inet.applications.ieee8022.Ieee8022LlcApp.html" xlink:title="Compound Module Ieee8022LlcApp" target="_parent">
<polygon fill="#fff700" stroke="black" points="173.5,-74 79.5,-74 79.5,-55 173.5,-55 173.5,-74"/>
<text text-anchor="middle" x="126.5" y="-62" font-family="Helvetica,sans-Serif" font-size="10.00">Ieee8022LlcApp</text>
</a>
</g>
</g>
<!-- Ieee8022LlcSinkApp -->
<g id="node3" class="node">
<title>Ieee8022LlcSinkApp</title>
<g id="a_node3"><a xlink:href="inet.applications.ieee8022.Ieee8022LlcSinkApp.html" xlink:title="Compound Module Ieee8022LlcSinkApp" target="_parent">
<polygon fill="#fffcaf" stroke="black" points="115,-19 0,-19 0,0 115,0 115,-19"/>
<text text-anchor="middle" x="57.5" y="-7" font-family="Helvetica,sans-Serif" font-size="10.00">Ieee8022LlcSinkApp</text>
</a>
</g>
</g>
<!-- Ieee8022LlcApp&#45;&gt;Ieee8022LlcSinkApp -->
<g id="edge2" class="edge">
<title>Ieee8022LlcApp&#45;&gt;Ieee8022LlcSinkApp</title>
<path fill="none" stroke="black" d="M115.41,-54.98C102.61,-45.15 81.67,-29.07 68.79,-19.17"/>
</g>
<!-- Ieee8022LlcSourceApp -->
<g id="node4" class="node">
<title>Ieee8022LlcSourceApp</title>
<g id="a_node4"><a xlink:href="inet.applications.ieee8022.Ieee8022LlcSourceApp.html" xlink:title="Compound Module Ieee8022LlcSourceApp" target="_parent">
<polygon fill="#fffcaf" stroke="black" points="260,-19 133,-19 133,0 260,0 260,-19"/>
<text text-anchor="middle" x="196.5" y="-7" font-family="Helvetica,sans-Serif" font-size="10.00">Ieee8022LlcSourceApp</text>
</a>
</g>
</g>
<!-- Ieee8022LlcApp&#45;&gt;Ieee8022LlcSourceApp -->
<g id="edge3" class="edge">
<title>Ieee8022LlcApp&#45;&gt;Ieee8022LlcSourceApp</title>
<path fill="none" stroke="black" d="M137.75,-54.98C150.73,-45.15 171.98,-29.07 185.05,-19.17"/>
</g>
<!-- IApp -->
<g id="node2" class="node">
<title>IApp</title>
<g id="a_node2"><a xlink:href="inet.applications.contract.IApp.html" xlink:title="Module Interface IApp" target="_parent">
<polygon fill="#fffcaf" stroke="black" stroke-dasharray="5,2" points="153.5,-129 99.5,-129 99.5,-110 153.5,-110 153.5,-129"/>
<text text-anchor="middle" x="126.5" y="-117" font-family="Helvetica,sans-Serif" font-size="10.00">IApp</text>
</a>
</g>
</g>
<!-- IApp&#45;&gt;Ieee8022LlcApp -->
<g id="edge1" class="edge">
<title>IApp&#45;&gt;Ieee8022LlcApp</title>
<path fill="none" stroke="black" stroke-dasharray="5,2" d="M126.5,-109.75C126.5,-99.87 126.5,-83.9 126.5,-74.09"/>
</g>
</g>
</svg>
