<?xml version="1.0" encoding="UTF-8" standalone="no"?>
<!DOCTYPE svg PUBLIC "-//W3C//DTD SVG 1.1//EN"
 "http://www.w3.org/Graphics/SVG/1.1/DTD/svg11.dtd">
<!-- Generated by graphviz version 2.43.0 (0)
 -->
<!-- Title: opp Pages: 1 -->
<svg width="1046pt" height="82pt"
 viewBox="0.00 0.00 1045.50 82.00" xmlns="http://www.w3.org/2000/svg" xmlns:xlink="http://www.w3.org/1999/xlink">
<g id="graph0" class="graph" transform="scale(1 1) rotate(0) translate(4 78)">
<title>opp</title>
<polygon fill="transparent" stroke="transparent" points="-4,4 -4,-78 1041.5,-78 1041.5,4 -4,4"/>
<!-- ConfiguratorE -->
<g id="node1" class="node">
<title>ConfiguratorE</title>
<g id="a_node1"><a xlink:href="inet.tutorials.configurator.ConfiguratorE.html" xlink:title="Network ConfiguratorE" target="_parent">
<polygon fill="#9090ff" stroke="black" points="631,-74 548,-74 548,-55 631,-55 631,-74"/>
<text text-anchor="middle" x="589.5" y="-62" font-family="Helvetica,sans-Serif" font-size="10.00">ConfiguratorE</text>
</a>
</g>
</g>
<!-- Ieee80211ScalarRadioMedium -->
<g id="node2" class="node">
<title>Ieee80211ScalarRadioMedium</title>
<g id="a_node2"><a xlink:href="inet.physicallayer.wireless.ieee80211.packetlevel.Ieee80211ScalarRadioMedium.html" xlink:title="Compound Module Ieee80211ScalarRadioMedium" target="_parent">
<polygon fill="#fffcaf" stroke="black" points="165,-19 0,-19 0,0 165,0 165,-19"/>
<text text-anchor="middle" x="82.5" y="-7" font-family="Helvetica,sans-Serif" font-size="10.00">Ieee80211ScalarRadioMedium</text>
</a>
</g>
</g>
<!-- ConfiguratorE&#45;&gt;Ieee80211ScalarRadioMedium -->
<g id="edge1" class="edge">
<title>ConfiguratorE&#45;&gt;Ieee80211ScalarRadioMedium</title>
<path fill="none" stroke="black" d="M547.58,-59.12C466.14,-50.6 284.83,-31.65 174.19,-20.08"/>
<polygon fill="black" stroke="black" points="174.35,-16.58 164.04,-19.02 173.62,-23.54 174.35,-16.58"/>
</g>
<!-- WirelessHost -->
<g id="node3" class="node">
<title>WirelessHost</title>
<g id="a_node3"><a xlink:href="inet.node.inet.WirelessHost.html" xlink:title="Compound Module WirelessHost" target="_parent">
<polygon fill="#fffcaf" stroke="black" points="264,-19 183,-19 183,0 264,0 264,-19"/>
<text text-anchor="middle" x="223.5" y="-7" font-family="Helvetica,sans-Serif" font-size="10.00">WirelessHost</text>
</a>
</g>
</g>
<!-- ConfiguratorE&#45;&gt;WirelessHost -->
<g id="edge2" class="edge">
<title>ConfiguratorE&#45;&gt;WirelessHost</title>
<path fill="none" stroke="black" d="M547.9,-58.1C489.15,-50.37 378.26,-35.43 274.17,-19.22"/>
<polygon fill="black" stroke="black" points="274.55,-15.74 264.13,-17.65 273.46,-22.66 274.55,-15.74"/>
</g>
<!-- StandardHost -->
<g id="node4" class="node">
<title>StandardHost</title>
<g id="a_node4"><a xlink:href="inet.node.inet.StandardHost.html" xlink:title="Compound Module StandardHost" target="_parent">
<polygon fill="#fffcaf" stroke="black" points="365,-19 282,-19 282,0 365,0 365,-19"/>
<text text-anchor="middle" x="323.5" y="-7" font-family="Helvetica,sans-Serif" font-size="10.00">StandardHost</text>
</a>
</g>
</g>
<!-- ConfiguratorE&#45;&gt;StandardHost -->
<g id="edge3" class="edge">
<title>ConfiguratorE&#45;&gt;StandardHost</title>
<path fill="none" stroke="black" d="M547.94,-55.22C501.32,-45.93 425.66,-30.86 375.25,-20.81"/>
<polygon fill="black" stroke="black" points="375.7,-17.33 365.21,-18.81 374.33,-24.2 375.7,-17.33"/>
</g>
<!-- IntegratedCanvasVisualizer -->
<g id="node5" class="node">
<title>IntegratedCanvasVisualizer</title>
<g id="a_node5"><a xlink:href="inet.visualizer.canvas.integrated.IntegratedCanvasVisualizer.html" xlink:title="Compound Module IntegratedCanvasVisualizer" target="_parent">
<polygon fill="#fffcaf" stroke="black" points="534,-19 383,-19 383,0 534,0 534,-19"/>
<text text-anchor="middle" x="458.5" y="-7" font-family="Helvetica,sans-Serif" font-size="10.00">IntegratedCanvasVisualizer</text>
</a>
</g>
</g>
<!-- ConfiguratorE&#45;&gt;IntegratedCanvasVisualizer -->
<g id="edge4" class="edge">
<title>ConfiguratorE&#45;&gt;IntegratedCanvasVisualizer</title>
<path fill="none" stroke="black" d="M568.45,-54.98C547.09,-46.34 513.8,-32.87 489.44,-23.02"/>
<polygon fill="black" stroke="black" points="490.51,-19.68 479.93,-19.17 487.89,-26.17 490.51,-19.68"/>
</g>
<!-- AccessPoint -->
<g id="node6" class="node">
<title>AccessPoint</title>
<g id="a_node6"><a xlink:href="inet.node.wireless.AccessPoint.html" xlink:title="Compound Module AccessPoint" target="_parent">
<polygon fill="#fffcaf" stroke="black" points="627,-19 552,-19 552,0 627,0 627,-19"/>
<text text-anchor="middle" x="589.5" y="-7" font-family="Helvetica,sans-Serif" font-size="10.00">AccessPoint</text>
</a>
</g>
</g>
<!-- ConfiguratorE&#45;&gt;AccessPoint -->
<g id="edge5" class="edge">
<title>ConfiguratorE&#45;&gt;AccessPoint</title>
<path fill="none" stroke="black" d="M589.5,-54.75C589.5,-47.8 589.5,-37.85 589.5,-29.13"/>
<polygon fill="black" stroke="black" points="593,-29.09 589.5,-19.09 586,-29.09 593,-29.09"/>
</g>
<!-- EthernetSwitch -->
<g id="node7" class="node">
<title>EthernetSwitch</title>
<g id="a_node7"><a xlink:href="inet.node.ethernet.EthernetSwitch.html" xlink:title="Compound Module EthernetSwitch" target="_parent">
<polygon fill="#fffcaf" stroke="black" points="735.5,-19 645.5,-19 645.5,0 735.5,0 735.5,-19"/>
<text text-anchor="middle" x="690.5" y="-7" font-family="Helvetica,sans-Serif" font-size="10.00">EthernetSwitch</text>
</a>
</g>
</g>
<!-- ConfiguratorE&#45;&gt;EthernetSwitch -->
<g id="edge6" class="edge">
<title>ConfiguratorE&#45;&gt;EthernetSwitch</title>
<path fill="none" stroke="black" d="M605.73,-54.98C621.68,-46.61 646.28,-33.7 664.88,-23.95"/>
<polygon fill="black" stroke="black" points="666.75,-26.92 673.98,-19.17 663.5,-20.72 666.75,-26.92"/>
</g>
<!-- Ipv4NetworkConfigurator -->
<g id="node8" class="node">
<title>Ipv4NetworkConfigurator</title>
<g id="a_node8"><a xlink:href="inet.networklayer.configurator.ipv4.Ipv4NetworkConfigurator.html" xlink:title="Simple Module Ipv4NetworkConfigurator" target="_parent">
<polygon fill="#fffcaf" stroke="black" points="893,-19 754,-19 754,0 893,0 893,-19"/>
<text text-anchor="middle" x="823.5" y="-7" font-family="Helvetica,sans-Serif" font-size="10.00">Ipv4NetworkConfigurator</text>
</a>
</g>
</g>
<!-- ConfiguratorE&#45;&gt;Ipv4NetworkConfigurator -->
<g id="edge7" class="edge">
<title>ConfiguratorE&#45;&gt;Ipv4NetworkConfigurator</title>
<path fill="none" stroke="black" d="M627.1,-54.98C667.49,-45.84 731.78,-31.27 775.73,-21.32"/>
<polygon fill="black" stroke="black" points="776.63,-24.7 785.61,-19.08 775.08,-17.88 776.63,-24.7"/>
</g>
<!-- Eth10M -->
<g id="node9" class="node">
<title>Eth10M</title>
<g id="a_node9"><a xlink:href="inet.node.ethernet.Eth10M.html" xlink:title="Channel Eth10M" target="_parent">
<polygon fill="#d0ffd0" stroke="black" points="965.5,-19 911.5,-19 911.5,0 965.5,0 965.5,-19"/>
<text text-anchor="middle" x="938.5" y="-7" font-family="Helvetica,sans-Serif" font-size="10.00">Eth10M</text>
</a>
</g>
</g>
<!-- ConfiguratorE&#45;&gt;Eth10M -->
<g id="edge8" class="edge">
<title>ConfiguratorE&#45;&gt;Eth10M</title>
<path fill="none" stroke="black" d="M631.21,-58.79C689.51,-51.94 798.85,-38.12 901.52,-19.03"/>
<polygon fill="black" stroke="black" points="902.25,-22.46 911.43,-17.17 900.95,-15.58 902.25,-22.46"/>
</g>
<!-- Router -->
<g id="node10" class="node">
<title>Router</title>
<g id="a_node10"><a xlink:href="inet.node.inet.Router.html" xlink:title="Compound Module Router" target="_parent">
<polygon fill="#fffcaf" stroke="black" points="1037.5,-19 983.5,-19 983.5,0 1037.5,0 1037.5,-19"/>
<text text-anchor="middle" x="1010.5" y="-7" font-family="Helvetica,sans-Serif" font-size="10.00">Router</text>
</a>
</g>
</g>
<!-- ConfiguratorE&#45;&gt;Router -->
<g id="edge9" class="edge">
<title>ConfiguratorE&#45;&gt;Router</title>
<path fill="none" stroke="black" d="M631.04,-60.3C700.07,-54.64 842.91,-41.44 973.28,-19.02"/>
<polygon fill="black" stroke="black" points="974.19,-22.41 983.44,-17.25 972.99,-15.52 974.19,-22.41"/>
</g>
</g>
</svg>
