<?xml version="1.0" encoding="UTF-8" standalone="no"?>
<!DOCTYPE svg PUBLIC "-//W3C//DTD SVG 1.1//EN"
 "http://www.w3.org/Graphics/SVG/1.1/DTD/svg11.dtd">
<!-- Generated by graphviz version 2.43.0 (0)
 -->
<!-- Title: opp Pages: 1 -->
<svg width="837pt" height="82pt"
 viewBox="0.00 0.00 837.00 82.00" xmlns="http://www.w3.org/2000/svg" xmlns:xlink="http://www.w3.org/1999/xlink">
<g id="graph0" class="graph" transform="scale(1 1) rotate(0) translate(4 78)">
<title>opp</title>
<polygon fill="transparent" stroke="transparent" points="-4,4 -4,-78 833,-78 833,4 -4,4"/>
<!-- WirelessNetWith2DHCP -->
<g id="node1" class="node">
<title>WirelessNetWith2DHCP</title>
<g id="a_node1"><a xlink:href="inet.examples.dhcp.WirelessNetWith2DHCP.html" xlink:title="Network WirelessNetWith2DHCP" target="_parent">
<polygon fill="#9090ff" stroke="black" points="526.5,-74 394.5,-74 394.5,-55 526.5,-55 526.5,-74"/>
<text text-anchor="middle" x="460.5" y="-62" font-family="Helvetica,sans-Serif" font-size="10.00">WirelessNetWith2DHCP</text>
</a>
</g>
</g>
<!-- Ieee80211ScalarRadioMedium -->
<g id="node2" class="node">
<title>Ieee80211ScalarRadioMedium</title>
<g id="a_node2"><a xlink:href="inet.physicallayer.wireless.ieee80211.packetlevel.Ieee80211ScalarRadioMedium.html" xlink:title="Compound Module Ieee80211ScalarRadioMedium" target="_parent">
<polygon fill="#fffcaf" stroke="black" points="165,-19 0,-19 0,0 165,0 165,-19"/>
<text text-anchor="middle" x="82.5" y="-7" font-family="Helvetica,sans-Serif" font-size="10.00">Ieee80211ScalarRadioMedium</text>
</a>
</g>
</g>
<!-- WirelessNetWith2DHCP&#45;&gt;Ieee80211ScalarRadioMedium -->
<g id="edge1" class="edge">
<title>WirelessNetWith2DHCP&#45;&gt;Ieee80211ScalarRadioMedium</title>
<path fill="none" stroke="black" d="M399.77,-54.98C332.63,-45.57 224.62,-30.43 153.6,-20.47"/>
<polygon fill="black" stroke="black" points="153.78,-16.96 143.39,-19.04 152.81,-23.89 153.78,-16.96"/>
</g>
<!-- IIntegratedVisualizer -->
<g id="node3" class="node">
<title>IIntegratedVisualizer</title>
<g id="a_node3"><a xlink:href="inet.visualizer.contract.IIntegratedVisualizer.html" xlink:title="Module Interface IIntegratedVisualizer" target="_parent">
<polygon fill="#fffcaf" stroke="black" stroke-dasharray="5,2" points="301.5,-19 183.5,-19 183.5,0 301.5,0 301.5,-19"/>
<text text-anchor="middle" x="242.5" y="-7" font-family="Helvetica,sans-Serif" font-size="10.00">IIntegratedVisualizer</text>
</a>
</g>
</g>
<!-- WirelessNetWith2DHCP&#45;&gt;IIntegratedVisualizer -->
<g id="edge2" class="edge">
<title>WirelessNetWith2DHCP&#45;&gt;IIntegratedVisualizer</title>
<path fill="none" stroke="black" d="M425.47,-54.98C388,-45.87 328.45,-31.4 287.52,-21.45"/>
<polygon fill="black" stroke="black" points="288.34,-18.04 277.8,-19.08 286.69,-24.85 288.34,-18.04"/>
</g>
<!-- WirelessHost -->
<g id="node4" class="node">
<title>WirelessHost</title>
<g id="a_node4"><a xlink:href="inet.node.inet.WirelessHost.html" xlink:title="Compound Module WirelessHost" target="_parent">
<polygon fill="#fffcaf" stroke="black" points="401,-19 320,-19 320,0 401,0 401,-19"/>
<text text-anchor="middle" x="360.5" y="-7" font-family="Helvetica,sans-Serif" font-size="10.00">WirelessHost</text>
</a>
</g>
</g>
<!-- WirelessNetWith2DHCP&#45;&gt;WirelessHost -->
<g id="edge3" class="edge">
<title>WirelessNetWith2DHCP&#45;&gt;WirelessHost</title>
<path fill="none" stroke="black" d="M444.43,-54.98C428.64,-46.61 404.28,-33.7 385.87,-23.95"/>
<polygon fill="black" stroke="black" points="387.33,-20.76 376.86,-19.17 384.06,-26.95 387.33,-20.76"/>
</g>
<!-- StandardHost -->
<g id="node5" class="node">
<title>StandardHost</title>
<g id="a_node5"><a xlink:href="inet.node.inet.StandardHost.html" xlink:title="Compound Module StandardHost" target="_parent">
<polygon fill="#fffcaf" stroke="black" points="502,-19 419,-19 419,0 502,0 502,-19"/>
<text text-anchor="middle" x="460.5" y="-7" font-family="Helvetica,sans-Serif" font-size="10.00">StandardHost</text>
</a>
</g>
</g>
<!-- WirelessNetWith2DHCP&#45;&gt;StandardHost -->
<g id="edge4" class="edge">
<title>WirelessNetWith2DHCP&#45;&gt;StandardHost</title>
<path fill="none" stroke="black" d="M460.5,-54.75C460.5,-47.8 460.5,-37.85 460.5,-29.13"/>
<polygon fill="black" stroke="black" points="464,-29.09 460.5,-19.09 457,-29.09 464,-29.09"/>
</g>
<!-- AccessPoint -->
<g id="node6" class="node">
<title>AccessPoint</title>
<g id="a_node6"><a xlink:href="inet.node.wireless.AccessPoint.html" xlink:title="Compound Module AccessPoint" target="_parent">
<polygon fill="#fffcaf" stroke="black" points="595,-19 520,-19 520,0 595,0 595,-19"/>
<text text-anchor="middle" x="557.5" y="-7" font-family="Helvetica,sans-Serif" font-size="10.00">AccessPoint</text>
</a>
</g>
</g>
<!-- WirelessNetWith2DHCP&#45;&gt;AccessPoint -->
<g id="edge5" class="edge">
<title>WirelessNetWith2DHCP&#45;&gt;AccessPoint</title>
<path fill="none" stroke="black" d="M476.08,-54.98C491.27,-46.69 514.6,-33.94 532.4,-24.22"/>
<polygon fill="black" stroke="black" points="534.53,-27.04 541.63,-19.17 531.18,-20.89 534.53,-27.04"/>
</g>
<!-- Ipv4NetworkConfigurator -->
<g id="node7" class="node">
<title>Ipv4NetworkConfigurator</title>
<g id="a_node7"><a xlink:href="inet.networklayer.configurator.ipv4.Ipv4NetworkConfigurator.html" xlink:title="Simple Module Ipv4NetworkConfigurator" target="_parent">
<polygon fill="#fffcaf" stroke="black" points="752,-19 613,-19 613,0 752,0 752,-19"/>
<text text-anchor="middle" x="682.5" y="-7" font-family="Helvetica,sans-Serif" font-size="10.00">Ipv4NetworkConfigurator</text>
</a>
</g>
</g>
<!-- WirelessNetWith2DHCP&#45;&gt;Ipv4NetworkConfigurator -->
<g id="edge6" class="edge">
<title>WirelessNetWith2DHCP&#45;&gt;Ipv4NetworkConfigurator</title>
<path fill="none" stroke="black" d="M496.17,-54.98C534.33,-45.87 594.97,-31.4 636.65,-21.45"/>
<polygon fill="black" stroke="black" points="637.64,-24.81 646.55,-19.08 636.01,-18 637.64,-24.81"/>
</g>
<!-- Eth100M -->
<g id="node8" class="node">
<title>Eth100M</title>
<g id="a_node8"><a xlink:href="inet.node.ethernet.Eth100M.html" xlink:title="Channel Eth100M" target="_parent">
<polygon fill="#d0ffd0" stroke="black" points="829,-19 770,-19 770,0 829,0 829,-19"/>
<text text-anchor="middle" x="799.5" y="-7" font-family="Helvetica,sans-Serif" font-size="10.00">Eth100M</text>
</a>
</g>
</g>
<!-- WirelessNetWith2DHCP&#45;&gt;Eth100M -->
<g id="edge7" class="edge">
<title>WirelessNetWith2DHCP&#45;&gt;Eth100M</title>
<path fill="none" stroke="black" d="M526.79,-55.12C585.66,-47.35 674.25,-34.88 759.8,-19.21"/>
<polygon fill="black" stroke="black" points="760.47,-22.65 769.67,-17.39 759.2,-15.76 760.47,-22.65"/>
</g>
</g>
</svg>
