<?xml version="1.0" encoding="UTF-8" standalone="no"?>
<!DOCTYPE svg PUBLIC "-//W3C//DTD SVG 1.1//EN"
 "http://www.w3.org/Graphics/SVG/1.1/DTD/svg11.dtd">
<!-- Generated by graphviz version 2.43.0 (0)
 -->
<!-- Title: opp Pages: 1 -->
<svg width="1777pt" height="82pt"
 viewBox="0.00 0.00 1776.50 82.00" xmlns="http://www.w3.org/2000/svg" xmlns:xlink="http://www.w3.org/1999/xlink">
<g id="graph0" class="graph" transform="scale(1 1) rotate(0) translate(4 78)">
<title>opp</title>
<polygon fill="transparent" stroke="transparent" points="-4,4 -4,-78 1772.5,-78 1772.5,4 -4,4"/>
<!-- Hcf -->
<g id="node1" class="node">
<title>Hcf</title>
<g id="a_node1"><a xlink:href="inet.linklayer.ieee80211.mac.coordinationfunction.Hcf.html" xlink:title="Compound Module Hcf" target="_parent">
<polygon fill="#fff700" stroke="black" points="856,-74 802,-74 802,-55 856,-55 856,-74"/>
<text text-anchor="middle" x="829" y="-62" font-family="Helvetica,sans-Serif" font-size="10.00">Hcf</text>
</a>
</g>
</g>
<!-- SingleProtectionMechanism -->
<g id="node2" class="node">
<title>SingleProtectionMechanism</title>
<g id="a_node2"><a xlink:href="inet.linklayer.ieee80211.mac.protectionmechanism.SingleProtectionMechanism.html" xlink:title="Simple Module SingleProtectionMechanism" target="_parent">
<polygon fill="#fffcaf" stroke="black" points="152,-19 0,-19 0,0 152,0 152,-19"/>
<text text-anchor="middle" x="76" y="-7" font-family="Helvetica,sans-Serif" font-size="10.00">SingleProtectionMechanism</text>
</a>
</g>
</g>
<!-- Hcf&#45;&gt;SingleProtectionMechanism -->
<g id="edge1" class="edge">
<title>Hcf&#45;&gt;SingleProtectionMechanism</title>
<path fill="none" stroke="black" d="M801.93,-62.02C712.43,-57.06 417.65,-40.17 162.64,-19.11"/>
<polygon fill="black" stroke="black" points="162.7,-15.6 152.44,-18.27 162.12,-22.58 162.7,-15.6"/>
</g>
<!-- Edca -->
<g id="node3" class="node">
<title>Edca</title>
<g id="a_node3"><a xlink:href="inet.linklayer.ieee80211.mac.channelaccess.Edca.html" xlink:title="Compound Module Edca" target="_parent">
<polygon fill="#fffcaf" stroke="black" points="224,-19 170,-19 170,0 224,0 224,-19"/>
<text text-anchor="middle" x="197" y="-7" font-family="Helvetica,sans-Serif" font-size="10.00">Edca</text>
</a>
</g>
</g>
<!-- Hcf&#45;&gt;Edca -->
<g id="edge2" class="edge">
<title>Hcf&#45;&gt;Edca</title>
<path fill="none" stroke="black" d="M801.8,-62.99C718.33,-61.1 458.42,-52.85 234.02,-18.9"/>
<polygon fill="black" stroke="black" points="234.45,-15.42 224.04,-17.37 233.39,-22.34 234.45,-15.42"/>
</g>
<!-- IRecipientBlockAckAgreementPolicy -->
<g id="node4" class="node">
<title>IRecipientBlockAckAgreementPolicy</title>
<g id="a_node4"><a xlink:href="inet.linklayer.ieee80211.mac.contract.IRecipientBlockAckAgreementPolicy.html" xlink:title="Module Interface IRecipientBlockAckAgreementPolicy" target="_parent">
<polygon fill="#fffcaf" stroke="black" stroke-dasharray="5,2" points="436,-19 242,-19 242,0 436,0 436,-19"/>
<text text-anchor="middle" x="339" y="-7" font-family="Helvetica,sans-Serif" font-size="10.00">IRecipientBlockAckAgreementPolicy</text>
</a>
</g>
</g>
<!-- Hcf&#45;&gt;IRecipientBlockAckAgreementPolicy -->
<g id="edge3" class="edge">
<title>Hcf&#45;&gt;IRecipientBlockAckAgreementPolicy</title>
<path fill="none" stroke="black" d="M801.96,-60.57C731.75,-52.98 541.25,-32.38 427.68,-20.09"/>
<polygon fill="black" stroke="black" points="427.94,-16.6 417.62,-19 427.18,-23.56 427.94,-16.6"/>
</g>
<!-- Hcca -->
<g id="node5" class="node">
<title>Hcca</title>
<g id="a_node5"><a xlink:href="inet.linklayer.ieee80211.mac.channelaccess.Hcca.html" xlink:title="Simple Module Hcca" target="_parent">
<polygon fill="#fffcaf" stroke="black" points="508,-19 454,-19 454,0 508,0 508,-19"/>
<text text-anchor="middle" x="481" y="-7" font-family="Helvetica,sans-Serif" font-size="10.00">Hcca</text>
</a>
</g>
</g>
<!-- Hcf&#45;&gt;Hcca -->
<g id="edge4" class="edge">
<title>Hcf&#45;&gt;Hcca</title>
<path fill="none" stroke="black" d="M801.74,-60.45C748.94,-54.37 628.88,-39.66 518.08,-19.05"/>
<polygon fill="black" stroke="black" points="518.55,-15.58 508.07,-17.17 517.25,-22.46 518.55,-15.58"/>
</g>
<!-- QosRateSelection -->
<g id="node6" class="node">
<title>QosRateSelection</title>
<g id="a_node6"><a xlink:href="inet.linklayer.ieee80211.mac.rateselection.QosRateSelection.html" xlink:title="Simple Module QosRateSelection" target="_parent">
<polygon fill="#fffcaf" stroke="black" points="629.5,-19 526.5,-19 526.5,0 629.5,0 629.5,-19"/>
<text text-anchor="middle" x="578" y="-7" font-family="Helvetica,sans-Serif" font-size="10.00">QosRateSelection</text>
</a>
</g>
</g>
<!-- Hcf&#45;&gt;QosRateSelection -->
<g id="edge5" class="edge">
<title>Hcf&#45;&gt;QosRateSelection</title>
<path fill="none" stroke="black" d="M801.66,-57.73C760.21,-48.97 680.77,-32.2 628.59,-21.18"/>
<polygon fill="black" stroke="black" points="629.04,-17.7 618.53,-19.06 627.59,-24.55 629.04,-17.7"/>
</g>
<!-- IRtsPolicy -->
<g id="node7" class="node">
<title>IRtsPolicy</title>
<g id="a_node7"><a xlink:href="inet.linklayer.ieee80211.mac.contract.IRtsPolicy.html" xlink:title="Module Interface IRtsPolicy" target="_parent">
<polygon fill="#fffcaf" stroke="black" stroke-dasharray="5,2" points="712.5,-19 647.5,-19 647.5,0 712.5,0 712.5,-19"/>
<text text-anchor="middle" x="680" y="-7" font-family="Helvetica,sans-Serif" font-size="10.00">IRtsPolicy</text>
</a>
</g>
</g>
<!-- Hcf&#45;&gt;IRtsPolicy -->
<g id="edge6" class="edge">
<title>Hcf&#45;&gt;IRtsPolicy</title>
<path fill="none" stroke="black" d="M805.06,-54.98C780.44,-46.23 741.88,-32.51 714.08,-22.62"/>
<polygon fill="black" stroke="black" points="714.97,-19.22 704.38,-19.17 712.62,-25.82 714.97,-19.22"/>
</g>
<!-- IOriginatorBlockAckAgreementPolicy -->
<g id="node8" class="node">
<title>IOriginatorBlockAckAgreementPolicy</title>
<g id="a_node8"><a xlink:href="inet.linklayer.ieee80211.mac.contract.IOriginatorBlockAckAgreementPolicy.html" xlink:title="Module Interface IOriginatorBlockAckAgreementPolicy" target="_parent">
<polygon fill="#fffcaf" stroke="black" stroke-dasharray="5,2" points="927.5,-19 730.5,-19 730.5,0 927.5,0 927.5,-19"/>
<text text-anchor="middle" x="829" y="-7" font-family="Helvetica,sans-Serif" font-size="10.00">IOriginatorBlockAckAgreementPolicy</text>
</a>
</g>
</g>
<!-- Hcf&#45;&gt;IOriginatorBlockAckAgreementPolicy -->
<g id="edge7" class="edge">
<title>Hcf&#45;&gt;IOriginatorBlockAckAgreementPolicy</title>
<path fill="none" stroke="black" d="M829,-54.75C829,-47.8 829,-37.85 829,-29.13"/>
<polygon fill="black" stroke="black" points="832.5,-29.09 829,-19.09 825.5,-29.09 832.5,-29.09"/>
</g>
<!-- OriginatorQosMacDataService -->
<g id="node9" class="node">
<title>OriginatorQosMacDataService</title>
<g id="a_node9"><a xlink:href="inet.linklayer.ieee80211.mac.originator.OriginatorQosMacDataService.html" xlink:title="Compound Module OriginatorQosMacDataService" target="_parent">
<polygon fill="#fffcaf" stroke="black" points="1110,-19 946,-19 946,0 1110,0 1110,-19"/>
<text text-anchor="middle" x="1028" y="-7" font-family="Helvetica,sans-Serif" font-size="10.00">OriginatorQosMacDataService</text>
</a>
</g>
</g>
<!-- Hcf&#45;&gt;OriginatorQosMacDataService -->
<g id="edge8" class="edge">
<title>Hcf&#45;&gt;OriginatorQosMacDataService</title>
<path fill="none" stroke="black" d="M856.25,-56.24C889.74,-47.32 946.92,-32.09 986.04,-21.68"/>
<polygon fill="black" stroke="black" points="987.05,-25.03 995.81,-19.07 985.25,-18.26 987.05,-25.03"/>
</g>
<!-- IOriginatorQosAckPolicy -->
<g id="node10" class="node">
<title>IOriginatorQosAckPolicy</title>
<g id="a_node10"><a xlink:href="inet.linklayer.ieee80211.mac.contract.IOriginatorQosAckPolicy.html" xlink:title="Module Interface IOriginatorQosAckPolicy" target="_parent">
<polygon fill="#fffcaf" stroke="black" stroke-dasharray="5,2" points="1262,-19 1128,-19 1128,0 1262,0 1262,-19"/>
<text text-anchor="middle" x="1195" y="-7" font-family="Helvetica,sans-Serif" font-size="10.00">IOriginatorQosAckPolicy</text>
</a>
</g>
</g>
<!-- Hcf&#45;&gt;IOriginatorQosAckPolicy -->
<g id="edge9" class="edge">
<title>Hcf&#45;&gt;IOriginatorQosAckPolicy</title>
<path fill="none" stroke="black" d="M856.21,-59.56C912.77,-51.37 1044.53,-32.29 1126.06,-20.48"/>
<polygon fill="black" stroke="black" points="1126.84,-23.91 1136.24,-19.01 1125.84,-16.98 1126.84,-23.91"/>
</g>
<!-- IRecipientQosAckPolicy -->
<g id="node11" class="node">
<title>IRecipientQosAckPolicy</title>
<g id="a_node11"><a xlink:href="inet.linklayer.ieee80211.mac.contract.IRecipientQosAckPolicy.html" xlink:title="Module Interface IRecipientQosAckPolicy" target="_parent">
<polygon fill="#fffcaf" stroke="black" stroke-dasharray="5,2" points="1411.5,-19 1280.5,-19 1280.5,0 1411.5,0 1411.5,-19"/>
<text text-anchor="middle" x="1346" y="-7" font-family="Helvetica,sans-Serif" font-size="10.00">IRecipientQosAckPolicy</text>
</a>
</g>
</g>
<!-- Hcf&#45;&gt;IRecipientQosAckPolicy -->
<g id="edge10" class="edge">
<title>Hcf&#45;&gt;IRecipientQosAckPolicy</title>
<path fill="none" stroke="black" d="M856.17,-60.88C923.97,-54.33 1106.3,-36.55 1269.9,-19.1"/>
<polygon fill="black" stroke="black" points="1270.58,-22.55 1280.16,-18.01 1269.84,-15.59 1270.58,-22.55"/>
</g>
<!-- ICtsPolicy -->
<g id="node12" class="node">
<title>ICtsPolicy</title>
<g id="a_node12"><a xlink:href="inet.linklayer.ieee80211.mac.contract.ICtsPolicy.html" xlink:title="Module Interface ICtsPolicy" target="_parent">
<polygon fill="#fffcaf" stroke="black" stroke-dasharray="5,2" points="1494.5,-19 1429.5,-19 1429.5,0 1494.5,0 1494.5,-19"/>
<text text-anchor="middle" x="1462" y="-7" font-family="Helvetica,sans-Serif" font-size="10.00">ICtsPolicy</text>
</a>
</g>
</g>
<!-- Hcf&#45;&gt;ICtsPolicy -->
<g id="edge11" class="edge">
<title>Hcf&#45;&gt;ICtsPolicy</title>
<path fill="none" stroke="black" d="M856.28,-62.71C939.36,-60.02 1196.68,-49.75 1419.16,-19.09"/>
<polygon fill="black" stroke="black" points="1419.97,-22.51 1429.39,-17.66 1419.01,-15.57 1419.97,-22.51"/>
</g>
<!-- RecipientQosMacDataService -->
<g id="node13" class="node">
<title>RecipientQosMacDataService</title>
<g id="a_node13"><a xlink:href="inet.linklayer.ieee80211.mac.recipient.RecipientQosMacDataService.html" xlink:title="Compound Module RecipientQosMacDataService" target="_parent">
<polygon fill="#fffcaf" stroke="black" points="1673.5,-19 1512.5,-19 1512.5,0 1673.5,0 1673.5,-19"/>
<text text-anchor="middle" x="1593" y="-7" font-family="Helvetica,sans-Serif" font-size="10.00">RecipientQosMacDataService</text>
</a>
</g>
</g>
<!-- Hcf&#45;&gt;RecipientQosMacDataService -->
<g id="edge12" class="edge">
<title>Hcf&#45;&gt;RecipientQosMacDataService</title>
<path fill="none" stroke="black" d="M856.03,-62C946.08,-56.96 1244.31,-39.77 1502.17,-19.13"/>
<polygon fill="black" stroke="black" points="1502.79,-22.59 1512.48,-18.3 1502.23,-15.61 1502.79,-22.59"/>
</g>
<!-- IRateControl -->
<g id="node14" class="node">
<title>IRateControl</title>
<g id="a_node14"><a xlink:href="inet.linklayer.ieee80211.mac.contract.IRateControl.html" xlink:title="Module Interface IRateControl" target="_parent">
<polygon fill="#fffcaf" stroke="black" stroke-dasharray="5,2" points="1768.5,-19 1691.5,-19 1691.5,0 1768.5,0 1768.5,-19"/>
<text text-anchor="middle" x="1730" y="-7" font-family="Helvetica,sans-Serif" font-size="10.00">IRateControl</text>
</a>
</g>
</g>
<!-- Hcf&#45;&gt;IRateControl -->
<g id="edge13" class="edge">
<title>Hcf&#45;&gt;IRateControl</title>
<path fill="none" stroke="black" d="M856.03,-63.34C960.87,-62.45 1350.81,-56.71 1681.08,-19.08"/>
<polygon fill="black" stroke="black" points="1681.8,-22.52 1691.33,-17.89 1680.99,-15.56 1681.8,-22.52"/>
</g>
</g>
</svg>
