<?xml version="1.0" encoding="UTF-8" standalone="no"?>
<!DOCTYPE svg PUBLIC "-//W3C//DTD SVG 1.1//EN"
 "http://www.w3.org/Graphics/SVG/1.1/DTD/svg11.dtd">
<!-- Generated by graphviz version 2.43.0 (0)
 -->
<!-- Title: opp Pages: 1 -->
<svg width="350pt" height="82pt"
 viewBox="0.00 0.00 350.00 82.00" xmlns="http://www.w3.org/2000/svg" xmlns:xlink="http://www.w3.org/1999/xlink">
<g id="graph0" class="graph" transform="scale(1 1) rotate(0) translate(4 78)">
<title>opp</title>
<polygon fill="transparent" stroke="transparent" points="-4,4 -4,-78 346,-78 346,4 -4,4"/>
<!-- Ieee802154UwbIrInterface -->
<g id="node1" class="node">
<title>Ieee802154UwbIrInterface</title>
<g id="a_node1"><a xlink:href="inet.linklayer.ieee802154.Ieee802154UwbIrInterface.html" xlink:title="Compound Module Ieee802154UwbIrInterface" target="_parent">
<polygon fill="#fff700" stroke="black" points="231,-74 85,-74 85,-55 231,-55 231,-74"/>
<text text-anchor="middle" x="158" y="-62" font-family="Helvetica,sans-Serif" font-size="10.00">Ieee802154UwbIrInterface</text>
</a>
</g>
</g>
<!-- AckingMac -->
<g id="node2" class="node">
<title>AckingMac</title>
<g id="a_node2"><a xlink:href="inet.linklayer.acking.AckingMac.html" xlink:title="Compound Module AckingMac" target="_parent">
<polygon fill="#fffcaf" stroke="black" points="70,-19 0,-19 0,0 70,0 70,-19"/>
<text text-anchor="middle" x="35" y="-7" font-family="Helvetica,sans-Serif" font-size="10.00">AckingMac</text>
</a>
</g>
</g>
<!-- Ieee802154UwbIrInterface&#45;&gt;AckingMac -->
<g id="edge1" class="edge">
<title>Ieee802154UwbIrInterface&#45;&gt;AckingMac</title>
<path fill="none" stroke="black" d="M138.24,-54.98C118.27,-46.38 87.2,-32.99 64.35,-23.15"/>
<polygon fill="black" stroke="black" points="65.69,-19.91 55.12,-19.17 62.92,-26.34 65.69,-19.91"/>
</g>
<!-- IRadio -->
<g id="node3" class="node">
<title>IRadio</title>
<g id="a_node3"><a xlink:href="inet.physicallayer.wireless.common.contract.packetlevel.IRadio.html" xlink:title="Module Interface IRadio" target="_parent">
<polygon fill="#fffcaf" stroke="black" stroke-dasharray="5,2" points="142,-19 88,-19 88,0 142,0 142,-19"/>
<text text-anchor="middle" x="115" y="-7" font-family="Helvetica,sans-Serif" font-size="10.00">IRadio</text>
</a>
</g>
</g>
<!-- Ieee802154UwbIrInterface&#45;&gt;IRadio -->
<g id="edge2" class="edge">
<title>Ieee802154UwbIrInterface&#45;&gt;IRadio</title>
<path fill="none" stroke="black" d="M150.9,-54.75C144.83,-47.26 135.91,-36.28 128.49,-27.13"/>
<polygon fill="black" stroke="black" points="130.99,-24.65 121.97,-19.09 125.55,-29.06 130.99,-24.65"/>
</g>
<!-- IPacketQueue -->
<g id="node4" class="node">
<title>IPacketQueue</title>
<g id="a_node4"><a xlink:href="inet.queueing.contract.IPacketQueue.html" xlink:title="Module Interface IPacketQueue" target="_parent">
<polygon fill="#fffcaf" stroke="black" stroke-dasharray="5,2" points="243.5,-19 160.5,-19 160.5,0 243.5,0 243.5,-19"/>
<text text-anchor="middle" x="202" y="-7" font-family="Helvetica,sans-Serif" font-size="10.00">IPacketQueue</text>
</a>
</g>
</g>
<!-- Ieee802154UwbIrInterface&#45;&gt;IPacketQueue -->
<g id="edge3" class="edge">
<title>Ieee802154UwbIrInterface&#45;&gt;IPacketQueue</title>
<path fill="none" stroke="black" d="M165.27,-54.75C171.54,-47.18 180.79,-36.05 188.43,-26.84"/>
<polygon fill="black" stroke="black" points="191.17,-29.02 194.87,-19.09 185.79,-24.55 191.17,-29.02"/>
</g>
<!-- IdealChannel -->
<g id="node5" class="node">
<title>IdealChannel</title>
<g id="a_node5"><a xlink:href="ned.IdealChannel.html" xlink:title="Channel IdealChannel" target="_parent">
<polygon fill="#d0ffd0" stroke="black" points="342,-19 262,-19 262,0 342,0 342,-19"/>
<text text-anchor="middle" x="302" y="-7" font-family="Helvetica,sans-Serif" font-size="10.00">IdealChannel</text>
</a>
</g>
</g>
<!-- Ieee802154UwbIrInterface&#45;&gt;IdealChannel -->
<g id="edge4" class="edge">
<title>Ieee802154UwbIrInterface&#45;&gt;IdealChannel</title>
<path fill="none" stroke="black" d="M181.14,-54.98C204.82,-46.27 241.87,-32.63 268.71,-22.75"/>
<polygon fill="black" stroke="black" points="270.27,-25.91 278.44,-19.17 267.85,-19.34 270.27,-25.91"/>
</g>
</g>
</svg>
