<?xml version="1.0" encoding="UTF-8" standalone="no"?>
<!DOCTYPE svg PUBLIC "-//W3C//DTD SVG 1.1//EN"
 "http://www.w3.org/Graphics/SVG/1.1/DTD/svg11.dtd">
<!-- Generated by graphviz version 2.43.0 (0)
 -->
<!-- Title: opp Pages: 1 -->
<svg width="127pt" height="137pt"
 viewBox="0.00 0.00 127.00 137.00" xmlns="http://www.w3.org/2000/svg" xmlns:xlink="http://www.w3.org/1999/xlink">
<g id="graph0" class="graph" transform="scale(1 1) rotate(0) translate(4 133)">
<title>opp</title>
<polygon fill="transparent" stroke="transparent" points="-4,4 -4,-133 123,-133 123,4 -4,4"/>
<!-- PacketBufferBase -->
<g id="node1" class="node">
<title>PacketBufferBase</title>
<g id="a_node1"><a xlink:href="inet.queueing.base.PacketBufferBase.html" xlink:title="Simple Module PacketBufferBase" target="_parent">
<polygon fill="#fff700" stroke="black" points="110,-74 9,-74 9,-55 110,-55 110,-74"/>
<text text-anchor="middle" x="59.5" y="-62" font-family="Helvetica,sans-Serif" font-size="10.00">PacketBufferBase</text>
</a>
</g>
</g>
<!-- PacketBuffer -->
<g id="node3" class="node">
<title>PacketBuffer</title>
<g id="a_node3"><a xlink:href="inet.queueing.buffer.PacketBuffer.html" xlink:title="Simple Module PacketBuffer" target="_parent">
<polygon fill="#fffcaf" stroke="black" points="98,-19 21,-19 21,0 98,0 98,-19"/>
<text text-anchor="middle" x="59.5" y="-7" font-family="Helvetica,sans-Serif" font-size="10.00">PacketBuffer</text>
</a>
</g>
</g>
<!-- PacketBufferBase&#45;&gt;PacketBuffer -->
<g id="edge2" class="edge">
<title>PacketBufferBase&#45;&gt;PacketBuffer</title>
<path fill="none" stroke="black" d="M59.5,-54.75C59.5,-44.87 59.5,-28.9 59.5,-19.09"/>
</g>
<!-- PacketProcessorBase -->
<g id="node2" class="node">
<title>PacketProcessorBase</title>
<g id="a_node2"><a xlink:href="inet.queueing.base.PacketProcessorBase.html" xlink:title="Simple Module PacketProcessorBase" target="_parent">
<polygon fill="#fffcaf" stroke="black" points="119,-129 0,-129 0,-110 119,-110 119,-129"/>
<text text-anchor="middle" x="59.5" y="-117" font-family="Helvetica,sans-Serif" font-size="10.00">PacketProcessorBase</text>
</a>
</g>
</g>
<!-- PacketProcessorBase&#45;&gt;PacketBufferBase -->
<g id="edge1" class="edge">
<title>PacketProcessorBase&#45;&gt;PacketBufferBase</title>
<path fill="none" stroke="black" d="M59.5,-109.75C59.5,-99.87 59.5,-83.9 59.5,-74.09"/>
</g>
</g>
</svg>
