<?xml version="1.0" encoding="UTF-8" standalone="no"?>
<!DOCTYPE svg PUBLIC "-//W3C//DTD SVG 1.1//EN"
 "http://www.w3.org/Graphics/SVG/1.1/DTD/svg11.dtd">
<!-- Generated by graphviz version 2.43.0 (0)
 -->
<!-- Title: opp Pages: 1 -->
<svg width="200pt" height="82pt"
 viewBox="0.00 0.00 200.00 82.00" xmlns="http://www.w3.org/2000/svg" xmlns:xlink="http://www.w3.org/1999/xlink">
<g id="graph0" class="graph" transform="scale(1 1) rotate(0) translate(4 78)">
<title>opp</title>
<polygon fill="transparent" stroke="transparent" points="-4,4 -4,-78 196,-78 196,4 -4,4"/>
<!-- MulticastFailureProtectionShowcase -->
<g id="node1" class="node">
<title>MulticastFailureProtectionShowcase</title>
<g id="a_node1"><a xlink:href="inet.showcases.tsn.framereplication.multicastfailureprotection.MulticastFailureProtectionShowcase.html" xlink:title="Network MulticastFailureProtectionShowcase" target="_parent">
<polygon fill="#9090ff" stroke="black" points="192,-74 0,-74 0,-55 192,-55 192,-74"/>
<text text-anchor="middle" x="96" y="-62" font-family="Helvetica,sans-Serif" font-size="10.00">MulticastFailureProtectionShowcase</text>
</a>
</g>
</g>
<!-- TsnSwitch -->
<g id="node2" class="node">
<title>TsnSwitch</title>
<g id="a_node2"><a xlink:href="inet.node.tsn.TsnSwitch.html" xlink:title="Compound Module TsnSwitch" target="_parent">
<polygon fill="#fffcaf" stroke="black" points="83.5,-19 18.5,-19 18.5,0 83.5,0 83.5,-19"/>
<text text-anchor="middle" x="51" y="-7" font-family="Helvetica,sans-Serif" font-size="10.00">TsnSwitch</text>
</a>
</g>
</g>
<!-- MulticastFailureProtectionShowcase&#45;&gt;TsnSwitch -->
<g id="edge1" class="edge">
<title>MulticastFailureProtectionShowcase&#45;&gt;TsnSwitch</title>
<path fill="none" stroke="black" d="M88.57,-54.75C82.15,-47.18 72.69,-36.05 64.88,-26.84"/>
<polygon fill="black" stroke="black" points="67.43,-24.45 58.29,-19.09 62.1,-28.98 67.43,-24.45"/>
</g>
<!-- EthernetLink -->
<g id="node3" class="node">
<title>EthernetLink</title>
<g id="a_node3"><a xlink:href="inet.node.ethernet.EthernetLink.html" xlink:title="Channel EthernetLink" target="_parent">
<polygon fill="#d0ffd0" stroke="black" points="180,-19 102,-19 102,0 180,0 180,-19"/>
<text text-anchor="middle" x="141" y="-7" font-family="Helvetica,sans-Serif" font-size="10.00">EthernetLink</text>
</a>
</g>
</g>
<!-- MulticastFailureProtectionShowcase&#45;&gt;EthernetLink -->
<g id="edge2" class="edge">
<title>MulticastFailureProtectionShowcase&#45;&gt;EthernetLink</title>
<path fill="none" stroke="black" d="M103.43,-54.75C109.85,-47.18 119.31,-36.05 127.12,-26.84"/>
<polygon fill="black" stroke="black" points="129.9,-28.98 133.71,-19.09 124.57,-24.45 129.9,-28.98"/>
</g>
</g>
</svg>
