<?xml version="1.0" encoding="UTF-8" standalone="no"?>
<!DOCTYPE svg PUBLIC "-//W3C//DTD SVG 1.1//EN"
 "http://www.w3.org/Graphics/SVG/1.1/DTD/svg11.dtd">
<!-- Generated by graphviz version 2.43.0 (0)
 -->
<!-- Title: opp Pages: 1 -->
<svg width="148pt" height="82pt"
 viewBox="0.00 0.00 148.00 82.00" xmlns="http://www.w3.org/2000/svg" xmlns:xlink="http://www.w3.org/1999/xlink">
<g id="graph0" class="graph" transform="scale(1 1) rotate(0) translate(4 78)">
<title>opp</title>
<polygon fill="transparent" stroke="transparent" points="-4,4 -4,-78 144,-78 144,4 -4,4"/>
<!-- IdealClock -->
<g id="node1" class="node">
<title>IdealClock</title>
<g id="a_node1"><a xlink:href="inet.clock.model.IdealClock.html" xlink:title="Compound Module IdealClock" target="_parent">
<polygon fill="#fff700" stroke="black" points="107,-19 39,-19 39,0 107,0 107,-19"/>
<text text-anchor="middle" x="73" y="-7" font-family="Helvetica,sans-Serif" font-size="10.00">IdealClock</text>
</a>
</g>
</g>
<!-- ClockBase -->
<g id="node2" class="node">
<title>ClockBase</title>
<g id="a_node2"><a xlink:href="inet.clock.base.ClockBase.html" xlink:title="Compound Module ClockBase" target="_parent">
<polygon fill="#fffcaf" stroke="black" points="68,-74 0,-74 0,-55 68,-55 68,-74"/>
<text text-anchor="middle" x="34" y="-62" font-family="Helvetica,sans-Serif" font-size="10.00">ClockBase</text>
</a>
</g>
</g>
<!-- ClockBase&#45;&gt;IdealClock -->
<g id="edge1" class="edge">
<title>ClockBase&#45;&gt;IdealClock</title>
<path fill="none" stroke="black" d="M40.44,-54.75C47.71,-44.87 59.46,-28.9 66.68,-19.09"/>
</g>
<!-- IClock -->
<g id="node3" class="node">
<title>IClock</title>
<g id="a_node3"><a xlink:href="inet.clock.contract.IClock.html" xlink:title="Module Interface IClock" target="_parent">
<polygon fill="#fffcaf" stroke="black" stroke-dasharray="5,2" points="140,-74 86,-74 86,-55 140,-55 140,-74"/>
<text text-anchor="middle" x="113" y="-62" font-family="Helvetica,sans-Serif" font-size="10.00">IClock</text>
</a>
</g>
</g>
<!-- IClock&#45;&gt;IdealClock -->
<g id="edge2" class="edge">
<title>IClock&#45;&gt;IdealClock</title>
<path fill="none" stroke="black" stroke-dasharray="5,2" d="M106.39,-54.75C98.94,-44.87 86.89,-28.9 79.48,-19.09"/>
</g>
</g>
</svg>
