<?xml version="1.0" encoding="UTF-8" standalone="no"?>
<!DOCTYPE svg PUBLIC "-//W3C//DTD SVG 1.1//EN"
 "http://www.w3.org/Graphics/SVG/1.1/DTD/svg11.dtd">
<!-- Generated by graphviz version 2.43.0 (0)
 -->
<!-- Title: opp Pages: 1 -->
<svg width="256pt" height="137pt"
 viewBox="0.00 0.00 256.00 137.00" xmlns="http://www.w3.org/2000/svg" xmlns:xlink="http://www.w3.org/1999/xlink">
<g id="graph0" class="graph" transform="scale(1 1) rotate(0) translate(4 133)">
<title>opp</title>
<polygon fill="transparent" stroke="transparent" points="-4,4 -4,-133 252,-133 252,4 -4,4"/>
<!-- PacketDuplicatorBase -->
<g id="node1" class="node">
<title>PacketDuplicatorBase</title>
<g id="a_node1"><a xlink:href="inet.queueing.base.PacketDuplicatorBase.html" xlink:title="Simple Module PacketDuplicatorBase" target="_parent">
<polygon fill="#fff700" stroke="black" points="193,-74 71,-74 71,-55 193,-55 193,-74"/>
<text text-anchor="middle" x="132" y="-62" font-family="Helvetica,sans-Serif" font-size="10.00">PacketDuplicatorBase</text>
</a>
</g>
</g>
<!-- OrdinalBasedDuplicator -->
<g id="node3" class="node">
<title>OrdinalBasedDuplicator</title>
<g id="a_node3"><a xlink:href="inet.queueing.common.OrdinalBasedDuplicator.html" xlink:title="Simple Module OrdinalBasedDuplicator" target="_parent">
<polygon fill="#fffcaf" stroke="black" points="132,-19 0,-19 0,0 132,0 132,-19"/>
<text text-anchor="middle" x="66" y="-7" font-family="Helvetica,sans-Serif" font-size="10.00">OrdinalBasedDuplicator</text>
</a>
</g>
</g>
<!-- PacketDuplicatorBase&#45;&gt;OrdinalBasedDuplicator -->
<g id="edge2" class="edge">
<title>PacketDuplicatorBase&#45;&gt;OrdinalBasedDuplicator</title>
<path fill="none" stroke="black" d="M121.4,-54.98C109.15,-45.15 89.12,-29.07 76.8,-19.17"/>
</g>
<!-- PacketDuplicator -->
<g id="node4" class="node">
<title>PacketDuplicator</title>
<g id="a_node4"><a xlink:href="inet.queueing.common.PacketDuplicator.html" xlink:title="Simple Module PacketDuplicator" target="_parent">
<polygon fill="#fffcaf" stroke="black" points="248,-19 150,-19 150,0 248,0 248,-19"/>
<text text-anchor="middle" x="199" y="-7" font-family="Helvetica,sans-Serif" font-size="10.00">PacketDuplicator</text>
</a>
</g>
</g>
<!-- PacketDuplicatorBase&#45;&gt;PacketDuplicator -->
<g id="edge3" class="edge">
<title>PacketDuplicatorBase&#45;&gt;PacketDuplicator</title>
<path fill="none" stroke="black" d="M142.76,-54.98C155.19,-45.15 175.53,-29.07 188.04,-19.17"/>
</g>
<!-- PacketProcessorBase -->
<g id="node2" class="node">
<title>PacketProcessorBase</title>
<g id="a_node2"><a xlink:href="inet.queueing.base.PacketProcessorBase.html" xlink:title="Simple Module PacketProcessorBase" target="_parent">
<polygon fill="#fffcaf" stroke="black" points="191.5,-129 72.5,-129 72.5,-110 191.5,-110 191.5,-129"/>
<text text-anchor="middle" x="132" y="-117" font-family="Helvetica,sans-Serif" font-size="10.00">PacketProcessorBase</text>
</a>
</g>
</g>
<!-- PacketProcessorBase&#45;&gt;PacketDuplicatorBase -->
<g id="edge1" class="edge">
<title>PacketProcessorBase&#45;&gt;PacketDuplicatorBase</title>
<path fill="none" stroke="black" d="M132,-109.75C132,-99.87 132,-83.9 132,-74.09"/>
</g>
</g>
</svg>
