<?xml version="1.0" encoding="UTF-8" standalone="no"?>
<!DOCTYPE svg PUBLIC "-//W3C//DTD SVG 1.1//EN"
 "http://www.w3.org/Graphics/SVG/1.1/DTD/svg11.dtd">
<!-- Generated by graphviz version 2.43.0 (0)
 -->
<!-- Title: opp Pages: 1 -->
<svg width="362pt" height="137pt"
 viewBox="0.00 0.00 362.00 137.00" xmlns="http://www.w3.org/2000/svg" xmlns:xlink="http://www.w3.org/1999/xlink">
<g id="graph0" class="graph" transform="scale(1 1) rotate(0) translate(4 133)">
<title>opp</title>
<polygon fill="transparent" stroke="transparent" points="-4,4 -4,-133 358,-133 358,4 -4,4"/>
<!-- SceneVisualizerBase -->
<g id="node1" class="node">
<title>SceneVisualizerBase</title>
<g id="a_node1"><a xlink:href="inet.visualizer.base.SceneVisualizerBase.html" xlink:title="Simple Module SceneVisualizerBase" target="_parent">
<polygon fill="#fff700" stroke="black" points="255,-74 137,-74 137,-55 255,-55 255,-74"/>
<text text-anchor="middle" x="196" y="-62" font-family="Helvetica,sans-Serif" font-size="10.00">SceneVisualizerBase</text>
</a>
</g>
</g>
<!-- OpenStreetMapSceneCanvasVisualizer -->
<g id="node3" class="node">
<title>OpenStreetMapSceneCanvasVisualizer</title>
<g id="a_node3"><a xlink:href="inet.visualizer.canvas.scene.OpenStreetMapSceneCanvasVisualizer.html" xlink:title="Simple Module OpenStreetMapSceneCanvasVisualizer" target="_parent">
<polygon fill="#fffcaf" stroke="black" points="206,-19 0,-19 0,0 206,0 206,-19"/>
<text text-anchor="middle" x="103" y="-7" font-family="Helvetica,sans-Serif" font-size="10.00">OpenStreetMapSceneCanvasVisualizer</text>
</a>
</g>
</g>
<!-- SceneVisualizerBase&#45;&gt;OpenStreetMapSceneCanvasVisualizer -->
<g id="edge2" class="edge">
<title>SceneVisualizerBase&#45;&gt;OpenStreetMapSceneCanvasVisualizer</title>
<path fill="none" stroke="black" d="M181.06,-54.98C163.81,-45.15 135.58,-29.07 118.21,-19.17"/>
</g>
<!-- SceneCanvasVisualizer -->
<g id="node4" class="node">
<title>SceneCanvasVisualizer</title>
<g id="a_node4"><a xlink:href="inet.visualizer.canvas.scene.SceneCanvasVisualizer.html" xlink:title="Simple Module SceneCanvasVisualizer" target="_parent">
<polygon fill="#fffcaf" stroke="black" points="354,-19 224,-19 224,0 354,0 354,-19"/>
<text text-anchor="middle" x="289" y="-7" font-family="Helvetica,sans-Serif" font-size="10.00">SceneCanvasVisualizer</text>
</a>
</g>
</g>
<!-- SceneVisualizerBase&#45;&gt;SceneCanvasVisualizer -->
<g id="edge3" class="edge">
<title>SceneVisualizerBase&#45;&gt;SceneCanvasVisualizer</title>
<path fill="none" stroke="black" d="M210.94,-54.98C228.19,-45.15 256.42,-29.07 273.79,-19.17"/>
</g>
<!-- VisualizerBase -->
<g id="node2" class="node">
<title>VisualizerBase</title>
<g id="a_node2"><a xlink:href="inet.visualizer.base.VisualizerBase.html" xlink:title="Simple Module VisualizerBase" target="_parent">
<polygon fill="#fffcaf" stroke="black" points="240.5,-129 151.5,-129 151.5,-110 240.5,-110 240.5,-129"/>
<text text-anchor="middle" x="196" y="-117" font-family="Helvetica,sans-Serif" font-size="10.00">VisualizerBase</text>
</a>
</g>
</g>
<!-- VisualizerBase&#45;&gt;SceneVisualizerBase -->
<g id="edge1" class="edge">
<title>VisualizerBase&#45;&gt;SceneVisualizerBase</title>
<path fill="none" stroke="black" d="M196,-109.75C196,-99.87 196,-83.9 196,-74.09"/>
</g>
</g>
</svg>
