<?xml version="1.0" encoding="UTF-8" standalone="no"?>
<!DOCTYPE svg PUBLIC "-//W3C//DTD SVG 1.1//EN"
 "http://www.w3.org/Graphics/SVG/1.1/DTD/svg11.dtd">
<!-- Generated by graphviz version 2.43.0 (0)
 -->
<!-- Title: opp Pages: 1 -->
<svg width="704pt" height="137pt"
 viewBox="0.00 0.00 704.00 137.00" xmlns="http://www.w3.org/2000/svg" xmlns:xlink="http://www.w3.org/1999/xlink">
<g id="graph0" class="graph" transform="scale(1 1) rotate(0) translate(4 133)">
<title>opp</title>
<polygon fill="transparent" stroke="transparent" points="-4,4 -4,-133 700,-133 700,4 -4,4"/>
<!-- MacProtocolBase -->
<g id="node1" class="node">
<title>MacProtocolBase</title>
<g id="a_node1"><a xlink:href="inet.linklayer.base.MacProtocolBase.html" xlink:title="Simple Module MacProtocolBase" target="_parent">
<polygon fill="#fff700" stroke="black" points="404.5,-74 303.5,-74 303.5,-55 404.5,-55 404.5,-74"/>
<text text-anchor="middle" x="354" y="-62" font-family="Helvetica,sans-Serif" font-size="10.00">MacProtocolBase</text>
</a>
</g>
</g>
<!-- AckingMac -->
<g id="node3" class="node">
<title>AckingMac</title>
<g id="a_node3"><a xlink:href="inet.linklayer.acking.AckingMac.html" xlink:title="Compound Module AckingMac" target="_parent">
<polygon fill="#fffcaf" stroke="black" points="70,-19 0,-19 0,0 70,0 70,-19"/>
<text text-anchor="middle" x="35" y="-7" font-family="Helvetica,sans-Serif" font-size="10.00">AckingMac</text>
</a>
</g>
</g>
<!-- MacProtocolBase&#45;&gt;AckingMac -->
<g id="edge2" class="edge">
<title>MacProtocolBase&#45;&gt;AckingMac</title>
<path fill="none" stroke="black" d="M303.49,-55.8C248.27,-47.27 157.22,-32.88 79,-19 76.09,-18.48 73.07,-17.93 70.05,-17.37"/>
</g>
<!-- BMac -->
<g id="node4" class="node">
<title>BMac</title>
<g id="a_node4"><a xlink:href="inet.linklayer.bmac.BMac.html" xlink:title="Compound Module BMac" target="_parent">
<polygon fill="#fffcaf" stroke="black" points="142,-19 88,-19 88,0 142,0 142,-19"/>
<text text-anchor="middle" x="115" y="-7" font-family="Helvetica,sans-Serif" font-size="10.00">BMac</text>
</a>
</g>
</g>
<!-- MacProtocolBase&#45;&gt;BMac -->
<g id="edge3" class="edge">
<title>MacProtocolBase&#45;&gt;BMac</title>
<path fill="none" stroke="black" d="M314.28,-54.99C273.33,-46.17 207.64,-31.89 151,-19 148.12,-18.34 145.11,-17.65 142.12,-16.95"/>
</g>
<!-- CsmaCaMac -->
<g id="node5" class="node">
<title>CsmaCaMac</title>
<g id="a_node5"><a xlink:href="inet.linklayer.csmaca.CsmaCaMac.html" xlink:title="Compound Module CsmaCaMac" target="_parent">
<polygon fill="#fffcaf" stroke="black" points="237.5,-19 160.5,-19 160.5,0 237.5,0 237.5,-19"/>
<text text-anchor="middle" x="199" y="-7" font-family="Helvetica,sans-Serif" font-size="10.00">CsmaCaMac</text>
</a>
</g>
</g>
<!-- MacProtocolBase&#45;&gt;CsmaCaMac -->
<g id="edge4" class="edge">
<title>MacProtocolBase&#45;&gt;CsmaCaMac</title>
<path fill="none" stroke="black" d="M329.1,-54.98C300.26,-45.12 253.02,-28.97 224.1,-19.08"/>
</g>
<!-- Ieee80211Mac -->
<g id="node6" class="node">
<title>Ieee80211Mac</title>
<g id="a_node6"><a xlink:href="inet.linklayer.ieee80211.mac.Ieee80211Mac.html" xlink:title="Compound Module Ieee80211Mac" target="_parent">
<polygon fill="#fffcaf" stroke="black" points="344,-19 256,-19 256,0 344,0 344,-19"/>
<text text-anchor="middle" x="300" y="-7" font-family="Helvetica,sans-Serif" font-size="10.00">Ieee80211Mac</text>
</a>
</g>
</g>
<!-- MacProtocolBase&#45;&gt;Ieee80211Mac -->
<g id="edge5" class="edge">
<title>MacProtocolBase&#45;&gt;Ieee80211Mac</title>
<path fill="none" stroke="black" d="M345.08,-54.75C335.02,-44.87 318.75,-28.9 308.75,-19.09"/>
</g>
<!-- Ieee802154Mac -->
<g id="node7" class="node">
<title>Ieee802154Mac</title>
<g id="a_node7"><a xlink:href="inet.linklayer.ieee802154.Ieee802154Mac.html" xlink:title="Compound Module Ieee802154Mac" target="_parent">
<polygon fill="#fffcaf" stroke="black" points="456,-19 362,-19 362,0 456,0 456,-19"/>
<text text-anchor="middle" x="409" y="-7" font-family="Helvetica,sans-Serif" font-size="10.00">Ieee802154Mac</text>
</a>
</g>
</g>
<!-- MacProtocolBase&#45;&gt;Ieee802154Mac -->
<g id="edge6" class="edge">
<title>MacProtocolBase&#45;&gt;Ieee802154Mac</title>
<path fill="none" stroke="black" d="M363.08,-54.75C373.33,-44.87 389.91,-28.9 400.09,-19.09"/>
</g>
<!-- LMac -->
<g id="node8" class="node">
<title>LMac</title>
<g id="a_node8"><a xlink:href="inet.linklayer.lmac.LMac.html" xlink:title="Compound Module LMac" target="_parent">
<polygon fill="#fffcaf" stroke="black" points="528,-19 474,-19 474,0 528,0 528,-19"/>
<text text-anchor="middle" x="501" y="-7" font-family="Helvetica,sans-Serif" font-size="10.00">LMac</text>
</a>
</g>
</g>
<!-- MacProtocolBase&#45;&gt;LMac -->
<g id="edge7" class="edge">
<title>MacProtocolBase&#45;&gt;LMac</title>
<path fill="none" stroke="black" d="M377.62,-54.98C404.89,-45.15 449.5,-29.07 476.95,-19.17"/>
</g>
<!-- ShortcutMac -->
<g id="node9" class="node">
<title>ShortcutMac</title>
<g id="a_node9"><a xlink:href="inet.linklayer.shortcut.ShortcutMac.html" xlink:title="Simple Module ShortcutMac" target="_parent">
<polygon fill="#fffcaf" stroke="black" points="623.5,-19 546.5,-19 546.5,0 623.5,0 623.5,-19"/>
<text text-anchor="middle" x="585" y="-7" font-family="Helvetica,sans-Serif" font-size="10.00">ShortcutMac</text>
</a>
</g>
</g>
<!-- MacProtocolBase&#45;&gt;ShortcutMac -->
<g id="edge8" class="edge">
<title>MacProtocolBase&#45;&gt;ShortcutMac</title>
<path fill="none" stroke="black" d="M391.11,-54.98C434.09,-45.12 504.49,-28.97 547.59,-19.08"/>
</g>
<!-- XMac -->
<g id="node10" class="node">
<title>XMac</title>
<g id="a_node10"><a xlink:href="inet.linklayer.xmac.XMac.html" xlink:title="Compound Module XMac" target="_parent">
<polygon fill="#fffcaf" stroke="black" points="696,-19 642,-19 642,0 696,0 696,-19"/>
<text text-anchor="middle" x="669" y="-7" font-family="Helvetica,sans-Serif" font-size="10.00">XMac</text>
</a>
</g>
</g>
<!-- MacProtocolBase&#45;&gt;XMac -->
<g id="edge9" class="edge">
<title>MacProtocolBase&#45;&gt;XMac</title>
<path fill="none" stroke="black" d="M404.6,-56.57C460.65,-48.64 553.6,-34.68 633,-19 635.9,-18.43 638.92,-17.79 641.92,-17.12"/>
</g>
<!-- LayeredProtocolBase -->
<g id="node2" class="node">
<title>LayeredProtocolBase</title>
<g id="a_node2"><a xlink:href="inet.common.LayeredProtocolBase.html" xlink:title="Simple Module LayeredProtocolBase" target="_parent">
<polygon fill="#fffcaf" stroke="black" points="413.5,-129 294.5,-129 294.5,-110 413.5,-110 413.5,-129"/>
<text text-anchor="middle" x="354" y="-117" font-family="Helvetica,sans-Serif" font-size="10.00">LayeredProtocolBase</text>
</a>
</g>
</g>
<!-- LayeredProtocolBase&#45;&gt;MacProtocolBase -->
<g id="edge1" class="edge">
<title>LayeredProtocolBase&#45;&gt;MacProtocolBase</title>
<path fill="none" stroke="black" d="M354,-109.75C354,-99.87 354,-83.9 354,-74.09"/>
</g>
</g>
</svg>
