<?xml version="1.0" encoding="UTF-8" standalone="no"?>
<!DOCTYPE svg PUBLIC "-//W3C//DTD SVG 1.1//EN"
 "http://www.w3.org/Graphics/SVG/1.1/DTD/svg11.dtd">
<!-- Generated by graphviz version 2.43.0 (0)
 -->
<!-- Title: opp Pages: 1 -->
<svg width="774pt" height="82pt"
 viewBox="0.00 0.00 773.50 82.00" xmlns="http://www.w3.org/2000/svg" xmlns:xlink="http://www.w3.org/1999/xlink">
<g id="graph0" class="graph" transform="scale(1 1) rotate(0) translate(4 78)">
<title>opp</title>
<polygon fill="transparent" stroke="transparent" points="-4,4 -4,-78 769.5,-78 769.5,4 -4,4"/>
<!-- RegressionTestingTutorialWired -->
<g id="node1" class="node">
<title>RegressionTestingTutorialWired</title>
<g id="a_node1"><a xlink:href="inet.tutorials.fingerprint.RegressionTestingTutorialWired.html" xlink:title="Network RegressionTestingTutorialWired" target="_parent">
<polygon fill="#9090ff" stroke="black" points="437,-74 267,-74 267,-55 437,-55 437,-74"/>
<text text-anchor="middle" x="352" y="-62" font-family="Helvetica,sans-Serif" font-size="10.00">RegressionTestingTutorialWired</text>
</a>
</g>
</g>
<!-- Eth10G -->
<g id="node2" class="node">
<title>Eth10G</title>
<g id="a_node2"><a xlink:href="inet.node.ethernet.Eth10G.html" xlink:title="Channel Eth10G" target="_parent">
<polygon fill="#d0ffd0" stroke="black" points="54,-19 0,-19 0,0 54,0 54,-19"/>
<text text-anchor="middle" x="27" y="-7" font-family="Helvetica,sans-Serif" font-size="10.00">Eth10G</text>
</a>
</g>
</g>
<!-- RegressionTestingTutorialWired&#45;&gt;Eth10G -->
<g id="edge1" class="edge">
<title>RegressionTestingTutorialWired&#45;&gt;Eth10G</title>
<path fill="none" stroke="black" d="M286.9,-54.97C230.45,-47.24 146.37,-34.9 64.1,-19.08"/>
<polygon fill="black" stroke="black" points="64.56,-15.61 54.08,-17.14 63.23,-22.48 64.56,-15.61"/>
</g>
<!-- StandardHost -->
<g id="node3" class="node">
<title>StandardHost</title>
<g id="a_node3"><a xlink:href="inet.node.inet.StandardHost.html" xlink:title="Compound Module StandardHost" target="_parent">
<polygon fill="#fffcaf" stroke="black" points="155.5,-19 72.5,-19 72.5,0 155.5,0 155.5,-19"/>
<text text-anchor="middle" x="114" y="-7" font-family="Helvetica,sans-Serif" font-size="10.00">StandardHost</text>
</a>
</g>
</g>
<!-- RegressionTestingTutorialWired&#45;&gt;StandardHost -->
<g id="edge2" class="edge">
<title>RegressionTestingTutorialWired&#45;&gt;StandardHost</title>
<path fill="none" stroke="black" d="M313.76,-54.98C272.59,-45.82 207.01,-31.21 162.3,-21.26"/>
<polygon fill="black" stroke="black" points="163.06,-17.84 152.54,-19.08 161.54,-24.67 163.06,-17.84"/>
</g>
<!-- EthernetSwitch -->
<g id="node4" class="node">
<title>EthernetSwitch</title>
<g id="a_node4"><a xlink:href="inet.node.ethernet.EthernetSwitch.html" xlink:title="Compound Module EthernetSwitch" target="_parent">
<polygon fill="#fffcaf" stroke="black" points="264,-19 174,-19 174,0 264,0 264,-19"/>
<text text-anchor="middle" x="219" y="-7" font-family="Helvetica,sans-Serif" font-size="10.00">EthernetSwitch</text>
</a>
</g>
</g>
<!-- RegressionTestingTutorialWired&#45;&gt;EthernetSwitch -->
<g id="edge3" class="edge">
<title>RegressionTestingTutorialWired&#45;&gt;EthernetSwitch</title>
<path fill="none" stroke="black" d="M330.63,-54.98C308.85,-46.3 274.84,-32.75 250.08,-22.88"/>
<polygon fill="black" stroke="black" points="251.34,-19.62 240.76,-19.17 248.75,-26.12 251.34,-19.62"/>
</g>
<!-- Ipv4NetworkConfigurator -->
<g id="node5" class="node">
<title>Ipv4NetworkConfigurator</title>
<g id="a_node5"><a xlink:href="inet.networklayer.configurator.ipv4.Ipv4NetworkConfigurator.html" xlink:title="Simple Module Ipv4NetworkConfigurator" target="_parent">
<polygon fill="#fffcaf" stroke="black" points="421.5,-19 282.5,-19 282.5,0 421.5,0 421.5,-19"/>
<text text-anchor="middle" x="352" y="-7" font-family="Helvetica,sans-Serif" font-size="10.00">Ipv4NetworkConfigurator</text>
</a>
</g>
</g>
<!-- RegressionTestingTutorialWired&#45;&gt;Ipv4NetworkConfigurator -->
<g id="edge4" class="edge">
<title>RegressionTestingTutorialWired&#45;&gt;Ipv4NetworkConfigurator</title>
<path fill="none" stroke="black" d="M352,-54.75C352,-47.8 352,-37.85 352,-29.13"/>
<polygon fill="black" stroke="black" points="355.5,-29.09 352,-19.09 348.5,-29.09 355.5,-29.09"/>
</g>
<!-- IntegratedMultiCanvasVisualizer -->
<g id="node6" class="node">
<title>IntegratedMultiCanvasVisualizer</title>
<g id="a_node6"><a xlink:href="inet.visualizer.canvas.integrated.IntegratedMultiCanvasVisualizer.html" xlink:title="Compound Module IntegratedMultiCanvasVisualizer" target="_parent">
<polygon fill="#fffcaf" stroke="black" points="616,-19 440,-19 440,0 616,0 616,-19"/>
<text text-anchor="middle" x="528" y="-7" font-family="Helvetica,sans-Serif" font-size="10.00">IntegratedMultiCanvasVisualizer</text>
</a>
</g>
</g>
<!-- RegressionTestingTutorialWired&#45;&gt;IntegratedMultiCanvasVisualizer -->
<g id="edge5" class="edge">
<title>RegressionTestingTutorialWired&#45;&gt;IntegratedMultiCanvasVisualizer</title>
<path fill="none" stroke="black" d="M380.28,-54.98C409.95,-46.05 456.79,-31.94 489.75,-22.02"/>
<polygon fill="black" stroke="black" points="490.93,-25.32 499.5,-19.08 488.92,-18.61 490.93,-25.32"/>
</g>
<!-- Router -->
<g id="node7" class="node">
<title>Router</title>
<g id="a_node7"><a xlink:href="inet.node.inet.Router.html" xlink:title="Compound Module Router" target="_parent">
<polygon fill="#fffcaf" stroke="black" points="688,-19 634,-19 634,0 688,0 688,-19"/>
<text text-anchor="middle" x="661" y="-7" font-family="Helvetica,sans-Serif" font-size="10.00">Router</text>
</a>
</g>
</g>
<!-- RegressionTestingTutorialWired&#45;&gt;Router -->
<g id="edge6" class="edge">
<title>RegressionTestingTutorialWired&#45;&gt;Router</title>
<path fill="none" stroke="black" d="M411.86,-54.98C465.05,-47.13 545.11,-34.63 623.83,-19.12"/>
<polygon fill="black" stroke="black" points="624.79,-22.49 633.92,-17.11 623.43,-15.63 624.79,-22.49"/>
</g>
<!-- Eth100M -->
<g id="node8" class="node">
<title>Eth100M</title>
<g id="a_node8"><a xlink:href="inet.node.ethernet.Eth100M.html" xlink:title="Channel Eth100M" target="_parent">
<polygon fill="#d0ffd0" stroke="black" points="765.5,-19 706.5,-19 706.5,0 765.5,0 765.5,-19"/>
<text text-anchor="middle" x="736" y="-7" font-family="Helvetica,sans-Serif" font-size="10.00">Eth100M</text>
</a>
</g>
</g>
<!-- RegressionTestingTutorialWired&#45;&gt;Eth100M -->
<g id="edge7" class="edge">
<title>RegressionTestingTutorialWired&#45;&gt;Eth100M</title>
<path fill="none" stroke="black" d="M433.51,-55C501.28,-47.46 600.44,-35.37 696.37,-18.97"/>
<polygon fill="black" stroke="black" points="696.98,-22.41 706.24,-17.26 695.79,-15.52 696.98,-22.41"/>
</g>
</g>
</svg>
