<?xml version="1.0" encoding="UTF-8" standalone="no"?>
<!DOCTYPE svg PUBLIC "-//W3C//DTD SVG 1.1//EN"
 "http://www.w3.org/Graphics/SVG/1.1/DTD/svg11.dtd">
<!-- Generated by graphviz version 2.43.0 (0)
 -->
<!-- Title: opp Pages: 1 -->
<svg width="533pt" height="82pt"
 viewBox="0.00 0.00 532.50 82.00" xmlns="http://www.w3.org/2000/svg" xmlns:xlink="http://www.w3.org/1999/xlink">
<g id="graph0" class="graph" transform="scale(1 1) rotate(0) translate(4 78)">
<title>opp</title>
<polygon fill="transparent" stroke="transparent" points="-4,4 -4,-78 528.5,-78 528.5,4 -4,4"/>
<!-- small -->
<g id="node1" class="node">
<title>small</title>
<g id="a_node1"><a xlink:href="inet.examples.ospfv3.small.small.html" xlink:title="Network small" target="_parent">
<polygon fill="#9090ff" stroke="black" points="330.5,-74 276.5,-74 276.5,-55 330.5,-55 330.5,-74"/>
<text text-anchor="middle" x="303.5" y="-62" font-family="Helvetica,sans-Serif" font-size="10.00">small</text>
</a>
</g>
</g>
<!-- StandardHost -->
<g id="node2" class="node">
<title>StandardHost</title>
<g id="a_node2"><a xlink:href="inet.node.inet.StandardHost.html" xlink:title="Compound Module StandardHost" target="_parent">
<polygon fill="#fffcaf" stroke="black" points="83,-19 0,-19 0,0 83,0 83,-19"/>
<text text-anchor="middle" x="41.5" y="-7" font-family="Helvetica,sans-Serif" font-size="10.00">StandardHost</text>
</a>
</g>
</g>
<!-- small&#45;&gt;StandardHost -->
<g id="edge1" class="edge">
<title>small&#45;&gt;StandardHost</title>
<path fill="none" stroke="black" d="M276.45,-58.03C233.37,-49.31 148.43,-32.13 93.36,-20.99"/>
<polygon fill="black" stroke="black" points="93.93,-17.54 83.44,-18.98 92.54,-24.4 93.93,-17.54"/>
</g>
<!-- Ipv4NetworkConfigurator -->
<g id="node3" class="node">
<title>Ipv4NetworkConfigurator</title>
<g id="a_node3"><a xlink:href="inet.networklayer.configurator.ipv4.Ipv4NetworkConfigurator.html" xlink:title="Simple Module Ipv4NetworkConfigurator" target="_parent">
<polygon fill="#fffcaf" stroke="black" points="240,-19 101,-19 101,0 240,0 240,-19"/>
<text text-anchor="middle" x="170.5" y="-7" font-family="Helvetica,sans-Serif" font-size="10.00">Ipv4NetworkConfigurator</text>
</a>
</g>
</g>
<!-- small&#45;&gt;Ipv4NetworkConfigurator -->
<g id="edge2" class="edge">
<title>small&#45;&gt;Ipv4NetworkConfigurator</title>
<path fill="none" stroke="black" d="M282.13,-54.98C260.35,-46.3 226.34,-32.75 201.58,-22.88"/>
<polygon fill="black" stroke="black" points="202.84,-19.62 192.26,-19.17 200.25,-26.12 202.84,-19.62"/>
</g>
<!-- EthernetSwitch -->
<g id="node4" class="node">
<title>EthernetSwitch</title>
<g id="a_node4"><a xlink:href="inet.node.ethernet.EthernetSwitch.html" xlink:title="Compound Module EthernetSwitch" target="_parent">
<polygon fill="#fffcaf" stroke="black" points="348.5,-19 258.5,-19 258.5,0 348.5,0 348.5,-19"/>
<text text-anchor="middle" x="303.5" y="-7" font-family="Helvetica,sans-Serif" font-size="10.00">EthernetSwitch</text>
</a>
</g>
</g>
<!-- small&#45;&gt;EthernetSwitch -->
<g id="edge3" class="edge">
<title>small&#45;&gt;EthernetSwitch</title>
<path fill="none" stroke="black" d="M303.5,-54.75C303.5,-47.8 303.5,-37.85 303.5,-29.13"/>
<polygon fill="black" stroke="black" points="307,-29.09 303.5,-19.09 300,-29.09 307,-29.09"/>
</g>
<!-- Ospfv3Router -->
<g id="node5" class="node">
<title>Ospfv3Router</title>
<g id="a_node5"><a xlink:href="inet.node.ospfv3.Ospfv3Router.html" xlink:title="Compound Module Ospfv3Router" target="_parent">
<polygon fill="#fffcaf" stroke="black" points="450,-19 367,-19 367,0 450,0 450,-19"/>
<text text-anchor="middle" x="408.5" y="-7" font-family="Helvetica,sans-Serif" font-size="10.00">Ospfv3Router</text>
</a>
</g>
</g>
<!-- small&#45;&gt;Ospfv3Router -->
<g id="edge4" class="edge">
<title>small&#45;&gt;Ospfv3Router</title>
<path fill="none" stroke="black" d="M320.37,-54.98C337.11,-46.54 363,-33.47 382.39,-23.68"/>
<polygon fill="black" stroke="black" points="383.97,-26.8 391.32,-19.17 380.82,-20.55 383.97,-26.8"/>
</g>
<!-- Channel -->
<g id="node6" class="node">
<title>Channel</title>
<g id="a_node6"><a xlink:href="inet.examples.ospfv3.small.small.Channel.html" xlink:title="Channel Channel" target="_parent">
<polygon fill="#d0ffd0" stroke="black" points="524.5,-19 468.5,-19 468.5,0 524.5,0 524.5,-19"/>
<text text-anchor="middle" x="496.5" y="-7" font-family="Helvetica,sans-Serif" font-size="10.00">Channel</text>
</a>
</g>
</g>
<!-- small&#45;&gt;Channel -->
<g id="edge5" class="edge">
<title>small&#45;&gt;Channel</title>
<path fill="none" stroke="black" d="M330.74,-56.02C364.08,-46.86 420.72,-31.31 458.38,-20.97"/>
<polygon fill="black" stroke="black" points="459.74,-24.22 468.46,-18.2 457.89,-17.47 459.74,-24.22"/>
</g>
</g>
</svg>
