<?xml version="1.0" encoding="UTF-8" standalone="no"?>
<!DOCTYPE svg PUBLIC "-//W3C//DTD SVG 1.1//EN"
 "http://www.w3.org/Graphics/SVG/1.1/DTD/svg11.dtd">
<!-- Generated by graphviz version 2.43.0 (0)
 -->
<!-- Title: opp Pages: 1 -->
<svg width="169pt" height="137pt"
 viewBox="0.00 0.00 169.00 137.00" xmlns="http://www.w3.org/2000/svg" xmlns:xlink="http://www.w3.org/1999/xlink">
<g id="graph0" class="graph" transform="scale(1 1) rotate(0) translate(4 133)">
<title>opp</title>
<polygon fill="transparent" stroke="transparent" points="-4,4 -4,-133 165,-133 165,4 -4,4"/>
<!-- NetworkRouteVisualizer -->
<g id="node1" class="node">
<title>NetworkRouteVisualizer</title>
<g id="a_node1"><a xlink:href="inet.visualizer.common.NetworkRouteVisualizer.html" xlink:title="Compound Module NetworkRouteVisualizer" target="_parent">
<polygon fill="#fff700" stroke="black" points="147.5,-74 13.5,-74 13.5,-55 147.5,-55 147.5,-74"/>
<text text-anchor="middle" x="80.5" y="-62" font-family="Helvetica,sans-Serif" font-size="10.00">NetworkRouteVisualizer</text>
</a>
</g>
</g>
<!-- INetworkRouteVisualizer -->
<g id="node2" class="node">
<title>INetworkRouteVisualizer</title>
<g id="a_node2"><a xlink:href="inet.visualizer.contract.INetworkRouteVisualizer.html" xlink:title="Module Interface INetworkRouteVisualizer" target="_parent">
<polygon fill="#fffcaf" stroke="black" stroke-dasharray="5,2" points="149,-19 12,-19 12,0 149,0 149,-19"/>
<text text-anchor="middle" x="80.5" y="-7" font-family="Helvetica,sans-Serif" font-size="10.00">INetworkRouteVisualizer</text>
</a>
</g>
</g>
<!-- NetworkRouteVisualizer&#45;&gt;INetworkRouteVisualizer -->
<g id="edge1" class="edge">
<title>NetworkRouteVisualizer&#45;&gt;INetworkRouteVisualizer</title>
<path fill="none" stroke="black" d="M80.5,-54.75C80.5,-47.8 80.5,-37.85 80.5,-29.13"/>
<polygon fill="black" stroke="black" points="84,-29.09 80.5,-19.09 77,-29.09 84,-29.09"/>
</g>
<!-- NetworkPathSimpleShowcase -->
<g id="node3" class="node">
<title>NetworkPathSimpleShowcase</title>
<g id="a_node3"><a xlink:href="inet.showcases.visualizer.canvas.networkpathactivity.NetworkPathSimpleShowcase.html" xlink:title="Network NetworkPathSimpleShowcase" target="_parent">
<polygon fill="#d0d0ff" stroke="black" points="161,-129 0,-129 0,-110 161,-110 161,-129"/>
<text text-anchor="middle" x="80.5" y="-117" font-family="Helvetica,sans-Serif" font-size="10.00">NetworkPathSimpleShowcase</text>
</a>
</g>
</g>
<!-- NetworkPathSimpleShowcase&#45;&gt;NetworkRouteVisualizer -->
<g id="edge2" class="edge">
<title>NetworkPathSimpleShowcase&#45;&gt;NetworkRouteVisualizer</title>
<path fill="none" stroke="black" d="M80.5,-109.75C80.5,-102.8 80.5,-92.85 80.5,-84.13"/>
<polygon fill="black" stroke="black" points="84,-84.09 80.5,-74.09 77,-84.09 84,-84.09"/>
</g>
</g>
</svg>
