<?xml version="1.0" encoding="UTF-8" standalone="no"?>
<!DOCTYPE svg PUBLIC "-//W3C//DTD SVG 1.1//EN"
 "http://www.w3.org/Graphics/SVG/1.1/DTD/svg11.dtd">
<!-- Generated by graphviz version 2.43.0 (0)
 -->
<!-- Title: opp Pages: 1 -->
<svg width="588pt" height="82pt"
 viewBox="0.00 0.00 587.50 82.00" xmlns="http://www.w3.org/2000/svg" xmlns:xlink="http://www.w3.org/1999/xlink">
<g id="graph0" class="graph" transform="scale(1 1) rotate(0) translate(4 78)">
<title>opp</title>
<polygon fill="transparent" stroke="transparent" points="-4,4 -4,-78 583.5,-78 583.5,4 -4,4"/>
<!-- ManetprotocolsShowcaseB -->
<g id="node1" class="node">
<title>ManetprotocolsShowcaseB</title>
<g id="a_node1"><a xlink:href="inet.showcases.routing.manet.ManetprotocolsShowcaseB.html" xlink:title="Network ManetprotocolsShowcaseB" target="_parent">
<polygon fill="#9090ff" stroke="black" points="361.5,-74 213.5,-74 213.5,-55 361.5,-55 361.5,-74"/>
<text text-anchor="middle" x="287.5" y="-62" font-family="Helvetica,sans-Serif" font-size="10.00">ManetprotocolsShowcaseB</text>
</a>
</g>
</g>
<!-- Ieee80211ScalarRadioMedium -->
<g id="node2" class="node">
<title>Ieee80211ScalarRadioMedium</title>
<g id="a_node2"><a xlink:href="inet.physicallayer.wireless.ieee80211.packetlevel.Ieee80211ScalarRadioMedium.html" xlink:title="Compound Module Ieee80211ScalarRadioMedium" target="_parent">
<polygon fill="#fffcaf" stroke="black" points="165,-19 0,-19 0,0 165,0 165,-19"/>
<text text-anchor="middle" x="82.5" y="-7" font-family="Helvetica,sans-Serif" font-size="10.00">Ieee80211ScalarRadioMedium</text>
</a>
</g>
</g>
<!-- ManetprotocolsShowcaseB&#45;&gt;Ieee80211ScalarRadioMedium -->
<g id="edge1" class="edge">
<title>ManetprotocolsShowcaseB&#45;&gt;Ieee80211ScalarRadioMedium</title>
<path fill="none" stroke="black" d="M254.56,-54.98C219.55,-45.93 164.03,-31.58 125.57,-21.64"/>
<polygon fill="black" stroke="black" points="126.25,-18.2 115.69,-19.08 124.5,-24.97 126.25,-18.2"/>
</g>
<!-- ManetRouter -->
<g id="node3" class="node">
<title>ManetRouter</title>
<g id="a_node3"><a xlink:href="inet.node.inet.ManetRouter.html" xlink:title="Compound Module ManetRouter" target="_parent">
<polygon fill="#fffcaf" stroke="black" points="263.5,-19 183.5,-19 183.5,0 263.5,0 263.5,-19"/>
<text text-anchor="middle" x="223.5" y="-7" font-family="Helvetica,sans-Serif" font-size="10.00">ManetRouter</text>
</a>
</g>
</g>
<!-- ManetprotocolsShowcaseB&#45;&gt;ManetRouter -->
<g id="edge2" class="edge">
<title>ManetprotocolsShowcaseB&#45;&gt;ManetRouter</title>
<path fill="none" stroke="black" d="M277.22,-54.98C267.66,-47.07 253.22,-35.11 241.72,-25.58"/>
<polygon fill="black" stroke="black" points="243.9,-22.85 233.97,-19.17 239.44,-28.24 243.9,-22.85"/>
</g>
<!-- Ipv4NetworkConfigurator -->
<g id="node4" class="node">
<title>Ipv4NetworkConfigurator</title>
<g id="a_node4"><a xlink:href="inet.networklayer.configurator.ipv4.Ipv4NetworkConfigurator.html" xlink:title="Simple Module Ipv4NetworkConfigurator" target="_parent">
<polygon fill="#fffcaf" stroke="black" points="421,-19 282,-19 282,0 421,0 421,-19"/>
<text text-anchor="middle" x="351.5" y="-7" font-family="Helvetica,sans-Serif" font-size="10.00">Ipv4NetworkConfigurator</text>
</a>
</g>
</g>
<!-- ManetprotocolsShowcaseB&#45;&gt;Ipv4NetworkConfigurator -->
<g id="edge3" class="edge">
<title>ManetprotocolsShowcaseB&#45;&gt;Ipv4NetworkConfigurator</title>
<path fill="none" stroke="black" d="M297.78,-54.98C307.34,-47.07 321.78,-35.11 333.28,-25.58"/>
<polygon fill="black" stroke="black" points="335.56,-28.24 341.03,-19.17 331.1,-22.85 335.56,-28.24"/>
</g>
<!-- IntegratedMultiVisualizer -->
<g id="node5" class="node">
<title>IntegratedMultiVisualizer</title>
<g id="a_node5"><a xlink:href="inet.visualizer.common.IntegratedMultiVisualizer.html" xlink:title="Compound Module IntegratedMultiVisualizer" target="_parent">
<polygon fill="#fffcaf" stroke="black" points="579.5,-19 439.5,-19 439.5,0 579.5,0 579.5,-19"/>
<text text-anchor="middle" x="509.5" y="-7" font-family="Helvetica,sans-Serif" font-size="10.00">IntegratedMultiVisualizer</text>
</a>
</g>
</g>
<!-- ManetprotocolsShowcaseB&#45;&gt;IntegratedMultiVisualizer -->
<g id="edge4" class="edge">
<title>ManetprotocolsShowcaseB&#45;&gt;IntegratedMultiVisualizer</title>
<path fill="none" stroke="black" d="M323.17,-54.98C361.33,-45.87 421.97,-31.4 463.65,-21.45"/>
<polygon fill="black" stroke="black" points="464.64,-24.81 473.55,-19.08 463.01,-18 464.64,-24.81"/>
</g>
</g>
</svg>
