<?xml version="1.0" encoding="UTF-8" standalone="no"?>
<!DOCTYPE svg PUBLIC "-//W3C//DTD SVG 1.1//EN"
 "http://www.w3.org/Graphics/SVG/1.1/DTD/svg11.dtd">
<!-- Generated by graphviz version 2.43.0 (0)
 -->
<!-- Title: opp Pages: 1 -->
<svg width="188pt" height="82pt"
 viewBox="0.00 0.00 188.00 82.00" xmlns="http://www.w3.org/2000/svg" xmlns:xlink="http://www.w3.org/1999/xlink">
<g id="graph0" class="graph" transform="scale(1 1) rotate(0) translate(4 78)">
<title>opp</title>
<polygon fill="transparent" stroke="transparent" points="-4,4 -4,-78 184,-78 184,4 -4,4"/>
<!-- ShortcutRadio -->
<g id="node1" class="node">
<title>ShortcutRadio</title>
<g id="a_node1"><a xlink:href="inet.physicallayer.wireless.shortcut.ShortcutRadio.html" xlink:title="Simple Module ShortcutRadio" target="_parent">
<polygon fill="#fff700" stroke="black" points="145.5,-19 60.5,-19 60.5,0 145.5,0 145.5,-19"/>
<text text-anchor="middle" x="103" y="-7" font-family="Helvetica,sans-Serif" font-size="10.00">ShortcutRadio</text>
</a>
</g>
</g>
<!-- PhysicalLayerBase -->
<g id="node2" class="node">
<title>PhysicalLayerBase</title>
<g id="a_node2"><a xlink:href="inet.physicallayer.wireless.common.base.packetlevel.PhysicalLayerBase.html" xlink:title="Simple Module PhysicalLayerBase" target="_parent">
<polygon fill="#fffcaf" stroke="black" points="108,-74 0,-74 0,-55 108,-55 108,-74"/>
<text text-anchor="middle" x="54" y="-62" font-family="Helvetica,sans-Serif" font-size="10.00">PhysicalLayerBase</text>
</a>
</g>
</g>
<!-- PhysicalLayerBase&#45;&gt;ShortcutRadio -->
<g id="edge1" class="edge">
<title>PhysicalLayerBase&#45;&gt;ShortcutRadio</title>
<path fill="none" stroke="black" d="M62.09,-54.75C71.22,-44.87 85.99,-28.9 95.06,-19.09"/>
</g>
<!-- IRadio -->
<g id="node3" class="node">
<title>IRadio</title>
<g id="a_node3"><a xlink:href="inet.physicallayer.wireless.common.contract.packetlevel.IRadio.html" xlink:title="Module Interface IRadio" target="_parent">
<polygon fill="#fffcaf" stroke="black" stroke-dasharray="5,2" points="180,-74 126,-74 126,-55 180,-55 180,-74"/>
<text text-anchor="middle" x="153" y="-62" font-family="Helvetica,sans-Serif" font-size="10.00">IRadio</text>
</a>
</g>
</g>
<!-- IRadio&#45;&gt;ShortcutRadio -->
<g id="edge2" class="edge">
<title>IRadio&#45;&gt;ShortcutRadio</title>
<path fill="none" stroke="black" stroke-dasharray="5,2" d="M144.74,-54.75C135.42,-44.87 120.36,-28.9 111.1,-19.09"/>
</g>
</g>
</svg>
