<?xml version="1.0" encoding="UTF-8" standalone="no"?>
<!DOCTYPE svg PUBLIC "-//W3C//DTD SVG 1.1//EN"
 "http://www.w3.org/Graphics/SVG/1.1/DTD/svg11.dtd">
<!-- Generated by graphviz version 2.43.0 (0)
 -->
<!-- Title: opp Pages: 1 -->
<svg width="386pt" height="82pt"
 viewBox="0.00 0.00 385.50 82.00" xmlns="http://www.w3.org/2000/svg" xmlns:xlink="http://www.w3.org/1999/xlink">
<g id="graph0" class="graph" transform="scale(1 1) rotate(0) translate(4 78)">
<title>opp</title>
<polygon fill="transparent" stroke="transparent" points="-4,4 -4,-78 381.5,-78 381.5,4 -4,4"/>
<!-- xMIPv6Support -->
<g id="node1" class="node">
<title>xMIPv6Support</title>
<g id="a_node1"><a xlink:href="inet.networklayer.xmipv6.xMIPv6Support.html" xlink:title="Compound Module xMIPv6Support" target="_parent">
<polygon fill="#fff700" stroke="black" points="215.5,-74 125.5,-74 125.5,-55 215.5,-55 215.5,-74"/>
<text text-anchor="middle" x="170.5" y="-62" font-family="Helvetica,sans-Serif" font-size="10.00">xMIPv6Support</text>
</a>
</g>
</g>
<!-- BindingCache -->
<g id="node2" class="node">
<title>BindingCache</title>
<g id="a_node2"><a xlink:href="inet.networklayer.xmipv6.BindingCache.html" xlink:title="Simple Module BindingCache" target="_parent">
<polygon fill="#fffcaf" stroke="black" points="83,-19 0,-19 0,0 83,0 83,-19"/>
<text text-anchor="middle" x="41.5" y="-7" font-family="Helvetica,sans-Serif" font-size="10.00">BindingCache</text>
</a>
</g>
</g>
<!-- xMIPv6Support&#45;&gt;BindingCache -->
<g id="edge1" class="edge">
<title>xMIPv6Support&#45;&gt;BindingCache</title>
<path fill="none" stroke="black" d="M149.77,-54.98C128.74,-46.34 95.95,-32.87 71.96,-23.02"/>
<polygon fill="black" stroke="black" points="73.18,-19.73 62.6,-19.17 70.52,-26.21 73.18,-19.73"/>
</g>
<!-- xMIPv6 -->
<g id="node3" class="node">
<title>xMIPv6</title>
<g id="a_node3"><a xlink:href="inet.networklayer.xmipv6.xMIPv6.html" xlink:title="Simple Module xMIPv6" target="_parent">
<polygon fill="#fffcaf" stroke="black" points="155.5,-19 101.5,-19 101.5,0 155.5,0 155.5,-19"/>
<text text-anchor="middle" x="128.5" y="-7" font-family="Helvetica,sans-Serif" font-size="10.00">xMIPv6</text>
</a>
</g>
</g>
<!-- xMIPv6Support&#45;&gt;xMIPv6 -->
<g id="edge2" class="edge">
<title>xMIPv6Support&#45;&gt;xMIPv6</title>
<path fill="none" stroke="black" d="M163.56,-54.75C157.63,-47.26 148.93,-36.28 141.68,-27.13"/>
<polygon fill="black" stroke="black" points="144.26,-24.75 135.31,-19.09 138.77,-29.1 144.26,-24.75"/>
</g>
<!-- IdealChannel -->
<g id="node4" class="node">
<title>IdealChannel</title>
<g id="a_node4"><a xlink:href="ned.IdealChannel.html" xlink:title="Channel IdealChannel" target="_parent">
<polygon fill="#d0ffd0" stroke="black" points="253.5,-19 173.5,-19 173.5,0 253.5,0 253.5,-19"/>
<text text-anchor="middle" x="213.5" y="-7" font-family="Helvetica,sans-Serif" font-size="10.00">IdealChannel</text>
</a>
</g>
</g>
<!-- xMIPv6Support&#45;&gt;IdealChannel -->
<g id="edge3" class="edge">
<title>xMIPv6Support&#45;&gt;IdealChannel</title>
<path fill="none" stroke="black" d="M177.6,-54.75C183.67,-47.26 192.59,-36.28 200.01,-27.13"/>
<polygon fill="black" stroke="black" points="202.95,-29.06 206.53,-19.09 197.51,-24.65 202.95,-29.06"/>
</g>
<!-- BindingUpdateList -->
<g id="node5" class="node">
<title>BindingUpdateList</title>
<g id="a_node5"><a xlink:href="inet.networklayer.xmipv6.BindingUpdateList.html" xlink:title="Simple Module BindingUpdateList" target="_parent">
<polygon fill="#fffcaf" stroke="black" points="377.5,-19 271.5,-19 271.5,0 377.5,0 377.5,-19"/>
<text text-anchor="middle" x="324.5" y="-7" font-family="Helvetica,sans-Serif" font-size="10.00">BindingUpdateList</text>
</a>
</g>
</g>
<!-- xMIPv6Support&#45;&gt;BindingUpdateList -->
<g id="edge4" class="edge">
<title>xMIPv6Support&#45;&gt;BindingUpdateList</title>
<path fill="none" stroke="black" d="M195.24,-54.98C220.87,-46.16 261.13,-32.31 289.91,-22.41"/>
<polygon fill="black" stroke="black" points="291.25,-25.65 299.56,-19.08 288.97,-19.03 291.25,-25.65"/>
</g>
</g>
</svg>
