<?xml version="1.0" encoding="UTF-8" standalone="no"?>
<!DOCTYPE svg PUBLIC "-//W3C//DTD SVG 1.1//EN"
 "http://www.w3.org/Graphics/SVG/1.1/DTD/svg11.dtd">
<!-- Generated by graphviz version 2.43.0 (0)
 -->
<!-- Title: opp Pages: 1 -->
<svg width="169pt" height="137pt"
 viewBox="0.00 0.00 169.00 137.00" xmlns="http://www.w3.org/2000/svg" xmlns:xlink="http://www.w3.org/1999/xlink">
<g id="graph0" class="graph" transform="scale(1 1) rotate(0) translate(4 133)">
<title>opp</title>
<polygon fill="transparent" stroke="transparent" points="-4,4 -4,-133 165,-133 165,4 -4,4"/>
<!-- PhysicalLinkVisualizerBase -->
<g id="node1" class="node">
<title>PhysicalLinkVisualizerBase</title>
<g id="a_node1"><a xlink:href="inet.visualizer.base.PhysicalLinkVisualizerBase.html" xlink:title="Simple Module PhysicalLinkVisualizerBase" target="_parent">
<polygon fill="#fff700" stroke="black" points="155,-74 6,-74 6,-55 155,-55 155,-74"/>
<text text-anchor="middle" x="80.5" y="-62" font-family="Helvetica,sans-Serif" font-size="10.00">PhysicalLinkVisualizerBase</text>
</a>
</g>
</g>
<!-- PhysicalLinkCanvasVisualizer -->
<g id="node3" class="node">
<title>PhysicalLinkCanvasVisualizer</title>
<g id="a_node3"><a xlink:href="inet.visualizer.canvas.physicallayer.PhysicalLinkCanvasVisualizer.html" xlink:title="Simple Module PhysicalLinkCanvasVisualizer" target="_parent">
<polygon fill="#fffcaf" stroke="black" points="161,-19 0,-19 0,0 161,0 161,-19"/>
<text text-anchor="middle" x="80.5" y="-7" font-family="Helvetica,sans-Serif" font-size="10.00">PhysicalLinkCanvasVisualizer</text>
</a>
</g>
</g>
<!-- PhysicalLinkVisualizerBase&#45;&gt;PhysicalLinkCanvasVisualizer -->
<g id="edge2" class="edge">
<title>PhysicalLinkVisualizerBase&#45;&gt;PhysicalLinkCanvasVisualizer</title>
<path fill="none" stroke="black" d="M80.5,-54.75C80.5,-44.87 80.5,-28.9 80.5,-19.09"/>
</g>
<!-- LinkVisualizerBase -->
<g id="node2" class="node">
<title>LinkVisualizerBase</title>
<g id="a_node2"><a xlink:href="inet.visualizer.base.LinkVisualizerBase.html" xlink:title="Simple Module LinkVisualizerBase" target="_parent">
<polygon fill="#fffcaf" stroke="black" points="135,-129 26,-129 26,-110 135,-110 135,-129"/>
<text text-anchor="middle" x="80.5" y="-117" font-family="Helvetica,sans-Serif" font-size="10.00">LinkVisualizerBase</text>
</a>
</g>
</g>
<!-- LinkVisualizerBase&#45;&gt;PhysicalLinkVisualizerBase -->
<g id="edge1" class="edge">
<title>LinkVisualizerBase&#45;&gt;PhysicalLinkVisualizerBase</title>
<path fill="none" stroke="black" d="M80.5,-109.75C80.5,-99.87 80.5,-83.9 80.5,-74.09"/>
</g>
</g>
</svg>
