<?xml version="1.0" encoding="UTF-8" standalone="no"?>
<!DOCTYPE svg PUBLIC "-//W3C//DTD SVG 1.1//EN"
 "http://www.w3.org/Graphics/SVG/1.1/DTD/svg11.dtd">
<!-- Generated by graphviz version 2.43.0 (0)
 -->
<!-- Title: opp Pages: 1 -->
<svg width="326pt" height="137pt"
 viewBox="0.00 0.00 326.00 137.00" xmlns="http://www.w3.org/2000/svg" xmlns:xlink="http://www.w3.org/1999/xlink">
<g id="graph0" class="graph" transform="scale(1 1) rotate(0) translate(4 133)">
<title>opp</title>
<polygon fill="transparent" stroke="transparent" points="-4,4 -4,-133 322,-133 322,4 -4,4"/>
<!-- L3NetworkConfiguratorBase -->
<g id="node1" class="node">
<title>L3NetworkConfiguratorBase</title>
<g id="a_node1"><a xlink:href="inet.networklayer.configurator.base.L3NetworkConfiguratorBase.html" xlink:title="Simple Module L3NetworkConfiguratorBase" target="_parent">
<polygon fill="#fff700" stroke="black" points="230,-74 77,-74 77,-55 230,-55 230,-74"/>
<text text-anchor="middle" x="153.5" y="-62" font-family="Helvetica,sans-Serif" font-size="10.00">L3NetworkConfiguratorBase</text>
</a>
</g>
</g>
<!-- Ipv4NetworkConfigurator -->
<g id="node3" class="node">
<title>Ipv4NetworkConfigurator</title>
<g id="a_node3"><a xlink:href="inet.networklayer.configurator.ipv4.Ipv4NetworkConfigurator.html" xlink:title="Simple Module Ipv4NetworkConfigurator" target="_parent">
<polygon fill="#fffcaf" stroke="black" points="139,-19 0,-19 0,0 139,0 139,-19"/>
<text text-anchor="middle" x="69.5" y="-7" font-family="Helvetica,sans-Serif" font-size="10.00">Ipv4NetworkConfigurator</text>
</a>
</g>
</g>
<!-- L3NetworkConfiguratorBase&#45;&gt;Ipv4NetworkConfigurator -->
<g id="edge2" class="edge">
<title>L3NetworkConfiguratorBase&#45;&gt;Ipv4NetworkConfigurator</title>
<path fill="none" stroke="black" d="M140,-54.98C124.42,-45.15 98.93,-29.07 83.24,-19.17"/>
</g>
<!-- NextHopNetworkConfigurator -->
<g id="node4" class="node">
<title>NextHopNetworkConfigurator</title>
<g id="a_node4"><a xlink:href="inet.networklayer.configurator.nexthop.NextHopNetworkConfigurator.html" xlink:title="Simple Module NextHopNetworkConfigurator" target="_parent">
<polygon fill="#fffcaf" stroke="black" points="318,-19 157,-19 157,0 318,0 318,-19"/>
<text text-anchor="middle" x="237.5" y="-7" font-family="Helvetica,sans-Serif" font-size="10.00">NextHopNetworkConfigurator</text>
</a>
</g>
</g>
<!-- L3NetworkConfiguratorBase&#45;&gt;NextHopNetworkConfigurator -->
<g id="edge3" class="edge">
<title>L3NetworkConfiguratorBase&#45;&gt;NextHopNetworkConfigurator</title>
<path fill="none" stroke="black" d="M167,-54.98C182.58,-45.15 208.07,-29.07 223.76,-19.17"/>
</g>
<!-- IL3NetworkConfigurator -->
<g id="node2" class="node">
<title>IL3NetworkConfigurator</title>
<g id="a_node2"><a xlink:href="inet.networklayer.configurator.contract.IL3NetworkConfigurator.html" xlink:title="Module Interface IL3NetworkConfigurator" target="_parent">
<polygon fill="#fffcaf" stroke="black" stroke-dasharray="5,2" points="219.5,-129 87.5,-129 87.5,-110 219.5,-110 219.5,-129"/>
<text text-anchor="middle" x="153.5" y="-117" font-family="Helvetica,sans-Serif" font-size="10.00">IL3NetworkConfigurator</text>
</a>
</g>
</g>
<!-- IL3NetworkConfigurator&#45;&gt;L3NetworkConfiguratorBase -->
<g id="edge1" class="edge">
<title>IL3NetworkConfigurator&#45;&gt;L3NetworkConfiguratorBase</title>
<path fill="none" stroke="black" stroke-dasharray="5,2" d="M153.5,-109.75C153.5,-99.87 153.5,-83.9 153.5,-74.09"/>
</g>
</g>
</svg>
