<?xml version="1.0" encoding="UTF-8" standalone="no"?>
<!DOCTYPE svg PUBLIC "-//W3C//DTD SVG 1.1//EN"
 "http://www.w3.org/Graphics/SVG/1.1/DTD/svg11.dtd">
<!-- Generated by graphviz version 2.43.0 (0)
 -->
<!-- Title: opp Pages: 1 -->
<svg width="638pt" height="82pt"
 viewBox="0.00 0.00 637.50 82.00" xmlns="http://www.w3.org/2000/svg" xmlns:xlink="http://www.w3.org/1999/xlink">
<g id="graph0" class="graph" transform="scale(1 1) rotate(0) translate(4 78)">
<title>opp</title>
<polygon fill="transparent" stroke="transparent" points="-4,4 -4,-78 633.5,-78 633.5,4 -4,4"/>
<!-- SimpleTest -->
<g id="node1" class="node">
<title>SimpleTest</title>
<g id="a_node1"><a xlink:href="inet.examples.ospfv2.simpletest.SimpleTest.html" xlink:title="Network SimpleTest" target="_parent">
<polygon fill="#9090ff" stroke="black" points="336.5,-74 266.5,-74 266.5,-55 336.5,-55 336.5,-74"/>
<text text-anchor="middle" x="301.5" y="-62" font-family="Helvetica,sans-Serif" font-size="10.00">SimpleTest</text>
</a>
</g>
</g>
<!-- OspfRouter -->
<g id="node2" class="node">
<title>OspfRouter</title>
<g id="a_node2"><a xlink:href="inet.node.ospfv2.OspfRouter.html" xlink:title="Compound Module OspfRouter" target="_parent">
<polygon fill="#fffcaf" stroke="black" points="71,-19 0,-19 0,0 71,0 71,-19"/>
<text text-anchor="middle" x="35.5" y="-7" font-family="Helvetica,sans-Serif" font-size="10.00">OspfRouter</text>
</a>
</g>
</g>
<!-- SimpleTest&#45;&gt;OspfRouter -->
<g id="edge1" class="edge">
<title>SimpleTest&#45;&gt;OspfRouter</title>
<path fill="none" stroke="black" d="M266.45,-56.52C218.84,-47.03 133.64,-30.06 81.1,-19.59"/>
<polygon fill="black" stroke="black" points="81.54,-16.11 71.05,-17.58 80.17,-22.97 81.54,-16.11"/>
</g>
<!-- StandardHost -->
<g id="node3" class="node">
<title>StandardHost</title>
<g id="a_node3"><a xlink:href="inet.node.inet.StandardHost.html" xlink:title="Compound Module StandardHost" target="_parent">
<polygon fill="#fffcaf" stroke="black" points="172,-19 89,-19 89,0 172,0 172,-19"/>
<text text-anchor="middle" x="130.5" y="-7" font-family="Helvetica,sans-Serif" font-size="10.00">StandardHost</text>
</a>
</g>
</g>
<!-- SimpleTest&#45;&gt;StandardHost -->
<g id="edge2" class="edge">
<title>SimpleTest&#45;&gt;StandardHost</title>
<path fill="none" stroke="black" d="M274.03,-54.98C245.32,-46.09 200.08,-32.07 168.08,-22.15"/>
<polygon fill="black" stroke="black" points="168.78,-18.7 158.19,-19.08 166.7,-25.39 168.78,-18.7"/>
</g>
<!-- EthernetSwitch -->
<g id="node4" class="node">
<title>EthernetSwitch</title>
<g id="a_node4"><a xlink:href="inet.node.ethernet.EthernetSwitch.html" xlink:title="Compound Module EthernetSwitch" target="_parent">
<polygon fill="#fffcaf" stroke="black" points="280.5,-19 190.5,-19 190.5,0 280.5,0 280.5,-19"/>
<text text-anchor="middle" x="235.5" y="-7" font-family="Helvetica,sans-Serif" font-size="10.00">EthernetSwitch</text>
</a>
</g>
</g>
<!-- SimpleTest&#45;&gt;EthernetSwitch -->
<g id="edge3" class="edge">
<title>SimpleTest&#45;&gt;EthernetSwitch</title>
<path fill="none" stroke="black" d="M290.9,-54.98C281.04,-47.07 266.15,-35.11 254.28,-25.58"/>
<polygon fill="black" stroke="black" points="256.29,-22.7 246.3,-19.17 251.9,-28.16 256.29,-22.7"/>
</g>
<!-- Ipv4NetworkConfigurator -->
<g id="node5" class="node">
<title>Ipv4NetworkConfigurator</title>
<g id="a_node5"><a xlink:href="inet.networklayer.configurator.ipv4.Ipv4NetworkConfigurator.html" xlink:title="Simple Module Ipv4NetworkConfigurator" target="_parent">
<polygon fill="#fffcaf" stroke="black" points="438,-19 299,-19 299,0 438,0 438,-19"/>
<text text-anchor="middle" x="368.5" y="-7" font-family="Helvetica,sans-Serif" font-size="10.00">Ipv4NetworkConfigurator</text>
</a>
</g>
</g>
<!-- SimpleTest&#45;&gt;Ipv4NetworkConfigurator -->
<g id="edge4" class="edge">
<title>SimpleTest&#45;&gt;Ipv4NetworkConfigurator</title>
<path fill="none" stroke="black" d="M312.26,-54.98C322.27,-47.07 337.39,-35.11 349.43,-25.58"/>
<polygon fill="black" stroke="black" points="351.87,-28.12 357.54,-19.17 347.53,-22.63 351.87,-28.12"/>
</g>
<!-- ScenarioManager -->
<g id="node6" class="node">
<title>ScenarioManager</title>
<g id="a_node6"><a xlink:href="inet.common.scenario.ScenarioManager.html" xlink:title="Simple Module ScenarioManager" target="_parent">
<polygon fill="#fffcaf" stroke="black" points="557,-19 456,-19 456,0 557,0 557,-19"/>
<text text-anchor="middle" x="506.5" y="-7" font-family="Helvetica,sans-Serif" font-size="10.00">ScenarioManager</text>
</a>
</g>
</g>
<!-- SimpleTest&#45;&gt;ScenarioManager -->
<g id="edge5" class="edge">
<title>SimpleTest&#45;&gt;ScenarioManager</title>
<path fill="none" stroke="black" d="M334.44,-54.98C369.45,-45.93 424.97,-31.58 463.43,-21.64"/>
<polygon fill="black" stroke="black" points="464.5,-24.97 473.31,-19.08 462.75,-18.2 464.5,-24.97"/>
</g>
<!-- C -->
<g id="node7" class="node">
<title>C</title>
<g id="a_node7"><a xlink:href="inet.examples.ospfv2.simpletest.SimpleTest.C.html" xlink:title="Channel C" target="_parent">
<polygon fill="#d0ffd0" stroke="black" points="629.5,-19 575.5,-19 575.5,0 629.5,0 629.5,-19"/>
<text text-anchor="middle" x="602.5" y="-7" font-family="Helvetica,sans-Serif" font-size="10.00">C</text>
</a>
</g>
</g>
<!-- SimpleTest&#45;&gt;C -->
<g id="edge6" class="edge">
<title>SimpleTest&#45;&gt;C</title>
<path fill="none" stroke="black" d="M336.78,-58.33C385.86,-50.97 477.7,-36.6 565.55,-19.08"/>
<polygon fill="black" stroke="black" points="566.3,-22.5 575.41,-17.1 564.92,-15.64 566.3,-22.5"/>
</g>
</g>
</svg>
