<?xml version="1.0" encoding="UTF-8" standalone="no"?>
<!DOCTYPE svg PUBLIC "-//W3C//DTD SVG 1.1//EN"
 "http://www.w3.org/Graphics/SVG/1.1/DTD/svg11.dtd">
<!-- Generated by graphviz version 2.43.0 (0)
 -->
<!-- Title: opp Pages: 1 -->
<svg width="426pt" height="137pt"
 viewBox="0.00 0.00 426.00 137.00" xmlns="http://www.w3.org/2000/svg" xmlns:xlink="http://www.w3.org/1999/xlink">
<g id="graph0" class="graph" transform="scale(1 1) rotate(0) translate(4 133)">
<title>opp</title>
<polygon fill="transparent" stroke="transparent" points="-4,4 -4,-133 422,-133 422,4 -4,4"/>
<!-- PacketMarkerBase -->
<g id="node1" class="node">
<title>PacketMarkerBase</title>
<g id="a_node1"><a xlink:href="inet.queueing.base.PacketMarkerBase.html" xlink:title="Simple Module PacketMarkerBase" target="_parent">
<polygon fill="#fff700" stroke="black" points="238,-74 132,-74 132,-55 238,-55 238,-74"/>
<text text-anchor="middle" x="185" y="-62" font-family="Helvetica,sans-Serif" font-size="10.00">PacketMarkerBase</text>
</a>
</g>
</g>
<!-- EcnMarker -->
<g id="node3" class="node">
<title>EcnMarker</title>
<g id="a_node3"><a xlink:href="inet.queueing.marker.EcnMarker.html" xlink:title="Simple Module EcnMarker" target="_parent">
<polygon fill="#fffcaf" stroke="black" points="68,-19 0,-19 0,0 68,0 68,-19"/>
<text text-anchor="middle" x="34" y="-7" font-family="Helvetica,sans-Serif" font-size="10.00">EcnMarker</text>
</a>
</g>
</g>
<!-- PacketMarkerBase&#45;&gt;EcnMarker -->
<g id="edge2" class="edge">
<title>PacketMarkerBase&#45;&gt;EcnMarker</title>
<path fill="none" stroke="black" d="M160.74,-54.98C132.73,-45.15 86.9,-29.07 58.7,-19.17"/>
</g>
<!-- PacketLabeler -->
<g id="node4" class="node">
<title>PacketLabeler</title>
<g id="a_node4"><a xlink:href="inet.queueing.marker.PacketLabeler.html" xlink:title="Simple Module PacketLabeler" target="_parent">
<polygon fill="#fffcaf" stroke="black" points="170,-19 86,-19 86,0 170,0 170,-19"/>
<text text-anchor="middle" x="128" y="-7" font-family="Helvetica,sans-Serif" font-size="10.00">PacketLabeler</text>
</a>
</g>
</g>
<!-- PacketMarkerBase&#45;&gt;PacketLabeler -->
<g id="edge3" class="edge">
<title>PacketMarkerBase&#45;&gt;PacketLabeler</title>
<path fill="none" stroke="black" d="M175.84,-54.98C165.27,-45.15 147.97,-29.07 137.32,-19.17"/>
</g>
<!-- PacketLabelerBase -->
<g id="node5" class="node">
<title>PacketLabelerBase</title>
<g id="a_node5"><a xlink:href="inet.queueing.base.PacketLabelerBase.html" xlink:title="Simple Module PacketLabelerBase" target="_parent">
<polygon fill="#fffcaf" stroke="black" points="296,-19 188,-19 188,0 296,0 296,-19"/>
<text text-anchor="middle" x="242" y="-7" font-family="Helvetica,sans-Serif" font-size="10.00">PacketLabelerBase</text>
</a>
</g>
</g>
<!-- PacketMarkerBase&#45;&gt;PacketLabelerBase -->
<g id="edge4" class="edge">
<title>PacketMarkerBase&#45;&gt;PacketLabelerBase</title>
<path fill="none" stroke="black" d="M194.16,-54.98C204.73,-45.15 222.03,-29.07 232.68,-19.17"/>
</g>
<!-- PacketTaggerBase -->
<g id="node6" class="node">
<title>PacketTaggerBase</title>
<g id="a_node6"><a xlink:href="inet.queueing.base.PacketTaggerBase.html" xlink:title="Simple Module PacketTaggerBase" target="_parent">
<polygon fill="#fffcaf" stroke="black" points="418,-19 314,-19 314,0 418,0 418,-19"/>
<text text-anchor="middle" x="366" y="-7" font-family="Helvetica,sans-Serif" font-size="10.00">PacketTaggerBase</text>
</a>
</g>
</g>
<!-- PacketMarkerBase&#45;&gt;PacketTaggerBase -->
<g id="edge5" class="edge">
<title>PacketMarkerBase&#45;&gt;PacketTaggerBase</title>
<path fill="none" stroke="black" d="M214.08,-54.98C247.76,-45.12 302.92,-28.97 336.69,-19.08"/>
</g>
<!-- PacketFlowBase -->
<g id="node2" class="node">
<title>PacketFlowBase</title>
<g id="a_node2"><a xlink:href="inet.queueing.base.PacketFlowBase.html" xlink:title="Simple Module PacketFlowBase" target="_parent">
<polygon fill="#fffcaf" stroke="black" points="232.5,-129 137.5,-129 137.5,-110 232.5,-110 232.5,-129"/>
<text text-anchor="middle" x="185" y="-117" font-family="Helvetica,sans-Serif" font-size="10.00">PacketFlowBase</text>
</a>
</g>
</g>
<!-- PacketFlowBase&#45;&gt;PacketMarkerBase -->
<g id="edge1" class="edge">
<title>PacketFlowBase&#45;&gt;PacketMarkerBase</title>
<path fill="none" stroke="black" d="M185,-109.75C185,-99.87 185,-83.9 185,-74.09"/>
</g>
</g>
</svg>
