<?xml version="1.0" encoding="UTF-8" standalone="no"?>
<!DOCTYPE svg PUBLIC "-//W3C//DTD SVG 1.1//EN"
 "http://www.w3.org/Graphics/SVG/1.1/DTD/svg11.dtd">
<!-- Generated by graphviz version 2.43.0 (0)
 -->
<!-- Title: opp Pages: 1 -->
<svg width="406pt" height="137pt"
 viewBox="0.00 0.00 406.00 137.00" xmlns="http://www.w3.org/2000/svg" xmlns:xlink="http://www.w3.org/1999/xlink">
<g id="graph0" class="graph" transform="scale(1 1) rotate(0) translate(4 133)">
<title>opp</title>
<polygon fill="transparent" stroke="transparent" points="-4,4 -4,-133 402,-133 402,4 -4,4"/>
<!-- OspfLan -->
<g id="node1" class="node">
<title>OspfLan</title>
<g id="a_node1"><a xlink:href="inet.examples.ospfv2.fulltest.OspfLan.html" xlink:title="Compound Module OspfLan" target="_parent">
<polygon fill="#fff700" stroke="black" points="207,-74 151,-74 151,-55 207,-55 207,-74"/>
<text text-anchor="middle" x="179" y="-62" font-family="Helvetica,sans-Serif" font-size="10.00">OspfLan</text>
</a>
</g>
</g>
<!-- StandardHost -->
<g id="node2" class="node">
<title>StandardHost</title>
<g id="a_node2"><a xlink:href="inet.node.inet.StandardHost.html" xlink:title="Compound Module StandardHost" target="_parent">
<polygon fill="#fffcaf" stroke="black" points="168.5,-19 85.5,-19 85.5,0 168.5,0 168.5,-19"/>
<text text-anchor="middle" x="127" y="-7" font-family="Helvetica,sans-Serif" font-size="10.00">StandardHost</text>
</a>
</g>
</g>
<!-- OspfLan&#45;&gt;StandardHost -->
<g id="edge1" class="edge">
<title>OspfLan&#45;&gt;StandardHost</title>
<path fill="none" stroke="black" d="M170.41,-54.75C162.84,-47.03 151.62,-35.6 142.49,-26.28"/>
<polygon fill="black" stroke="black" points="144.93,-23.78 135.43,-19.09 139.93,-28.68 144.93,-23.78"/>
</g>
<!-- EthernetSwitch -->
<g id="node3" class="node">
<title>EthernetSwitch</title>
<g id="a_node3"><a xlink:href="inet.node.ethernet.EthernetSwitch.html" xlink:title="Compound Module EthernetSwitch" target="_parent">
<polygon fill="#fffcaf" stroke="black" points="277,-19 187,-19 187,0 277,0 277,-19"/>
<text text-anchor="middle" x="232" y="-7" font-family="Helvetica,sans-Serif" font-size="10.00">EthernetSwitch</text>
</a>
</g>
</g>
<!-- OspfLan&#45;&gt;EthernetSwitch -->
<g id="edge2" class="edge">
<title>OspfLan&#45;&gt;EthernetSwitch</title>
<path fill="none" stroke="black" d="M187.75,-54.75C195.47,-47.03 206.9,-35.6 216.22,-26.28"/>
<polygon fill="black" stroke="black" points="218.81,-28.64 223.41,-19.09 213.86,-23.69 218.81,-28.64"/>
</g>
<!-- OSPF_Area1 -->
<g id="node4" class="node">
<title>OSPF_Area1</title>
<g id="a_node4"><a xlink:href="inet.examples.ospfv2.fulltest.OSPF_Area1.html" xlink:title="Compound Module OSPF_Area1" target="_parent">
<polygon fill="#fffcaf" stroke="black" points="76,-129 0,-129 0,-110 76,-110 76,-129"/>
<text text-anchor="middle" x="38" y="-117" font-family="Helvetica,sans-Serif" font-size="10.00">OSPF_Area1</text>
</a>
</g>
</g>
<!-- OSPF_Area1&#45;&gt;OspfLan -->
<g id="edge3" class="edge">
<title>OSPF_Area1&#45;&gt;OspfLan</title>
<path fill="none" stroke="black" d="M60.65,-109.98C83.85,-101.27 120.12,-87.63 146.4,-77.75"/>
<polygon fill="black" stroke="black" points="147.8,-80.97 155.93,-74.17 145.34,-74.41 147.8,-80.97"/>
</g>
<!-- OSPF_Area2 -->
<g id="node5" class="node">
<title>OSPF_Area2</title>
<g id="a_node5"><a xlink:href="inet.examples.ospfv2.fulltest.OSPF_Area2.html" xlink:title="Compound Module OSPF_Area2" target="_parent">
<polygon fill="#fffcaf" stroke="black" points="170,-129 94,-129 94,-110 170,-110 170,-129"/>
<text text-anchor="middle" x="132" y="-117" font-family="Helvetica,sans-Serif" font-size="10.00">OSPF_Area2</text>
</a>
</g>
</g>
<!-- OSPF_Area2&#45;&gt;OspfLan -->
<g id="edge4" class="edge">
<title>OSPF_Area2&#45;&gt;OspfLan</title>
<path fill="none" stroke="black" d="M139.76,-109.75C146.47,-102.18 156.34,-91.05 164.51,-81.84"/>
<polygon fill="black" stroke="black" points="167.37,-83.89 171.38,-74.09 162.13,-79.25 167.37,-83.89"/>
</g>
<!-- OSPF_Area3 -->
<g id="node6" class="node">
<title>OSPF_Area3</title>
<g id="a_node6"><a xlink:href="inet.examples.ospfv2.fulltest.OSPF_Area3.html" xlink:title="Compound Module OSPF_Area3" target="_parent">
<polygon fill="#fffcaf" stroke="black" points="264,-129 188,-129 188,-110 264,-110 264,-129"/>
<text text-anchor="middle" x="226" y="-117" font-family="Helvetica,sans-Serif" font-size="10.00">OSPF_Area3</text>
</a>
</g>
</g>
<!-- OSPF_Area3&#45;&gt;OspfLan -->
<g id="edge5" class="edge">
<title>OSPF_Area3&#45;&gt;OspfLan</title>
<path fill="none" stroke="black" d="M218.24,-109.75C211.53,-102.18 201.66,-91.05 193.49,-81.84"/>
<polygon fill="black" stroke="black" points="195.87,-79.25 186.62,-74.09 190.63,-83.89 195.87,-79.25"/>
</g>
<!-- OSPF_RFC2328_Fig6 -->
<g id="node7" class="node">
<title>OSPF_RFC2328_Fig6</title>
<g id="a_node7"><a xlink:href="inet.examples.ospfv2.fulltest.OSPF_RFC2328_Fig6.html" xlink:title="Network OSPF_RFC2328_Fig6" target="_parent">
<polygon fill="#d0d0ff" stroke="black" points="398,-129 282,-129 282,-110 398,-110 398,-129"/>
<text text-anchor="middle" x="340" y="-117" font-family="Helvetica,sans-Serif" font-size="10.00">OSPF_RFC2328_Fig6</text>
</a>
</g>
</g>
<!-- OSPF_RFC2328_Fig6&#45;&gt;OspfLan -->
<g id="edge6" class="edge">
<title>OSPF_RFC2328_Fig6&#45;&gt;OspfLan</title>
<path fill="none" stroke="black" d="M314.13,-109.98C287.22,-101.13 244.88,-87.19 214.77,-77.28"/>
<polygon fill="black" stroke="black" points="215.66,-73.88 205.07,-74.08 213.47,-80.53 215.66,-73.88"/>
</g>
</g>
</svg>
