<?xml version="1.0" encoding="UTF-8" standalone="no"?>
<!DOCTYPE svg PUBLIC "-//W3C//DTD SVG 1.1//EN"
 "http://www.w3.org/Graphics/SVG/1.1/DTD/svg11.dtd">
<!-- Generated by graphviz version 2.43.0 (0)
 -->
<!-- Title: opp Pages: 1 -->
<svg width="132pt" height="137pt"
 viewBox="0.00 0.00 132.00 137.00" xmlns="http://www.w3.org/2000/svg" xmlns:xlink="http://www.w3.org/1999/xlink">
<g id="graph0" class="graph" transform="scale(1 1) rotate(0) translate(4 133)">
<title>opp</title>
<polygon fill="transparent" stroke="transparent" points="-4,4 -4,-133 128,-133 128,4 -4,4"/>
<!-- CcEnergyStorageBase -->
<g id="node1" class="node">
<title>CcEnergyStorageBase</title>
<g id="a_node1"><a xlink:href="inet.power.base.CcEnergyStorageBase.html" xlink:title="Simple Module CcEnergyStorageBase" target="_parent">
<polygon fill="#fff700" stroke="black" points="124,-74 0,-74 0,-55 124,-55 124,-74"/>
<text text-anchor="middle" x="62" y="-62" font-family="Helvetica,sans-Serif" font-size="10.00">CcEnergyStorageBase</text>
</a>
</g>
</g>
<!-- SimpleCcBattery -->
<g id="node3" class="node">
<title>SimpleCcBattery</title>
<g id="a_node3"><a xlink:href="inet.power.storage.SimpleCcBattery.html" xlink:title="Simple Module SimpleCcBattery" target="_parent">
<polygon fill="#fffcaf" stroke="black" points="111,-19 13,-19 13,0 111,0 111,-19"/>
<text text-anchor="middle" x="62" y="-7" font-family="Helvetica,sans-Serif" font-size="10.00">SimpleCcBattery</text>
</a>
</g>
</g>
<!-- CcEnergyStorageBase&#45;&gt;SimpleCcBattery -->
<g id="edge2" class="edge">
<title>CcEnergyStorageBase&#45;&gt;SimpleCcBattery</title>
<path fill="none" stroke="black" d="M62,-54.75C62,-44.87 62,-28.9 62,-19.09"/>
</g>
<!-- ICcEnergyStorage -->
<g id="node2" class="node">
<title>ICcEnergyStorage</title>
<g id="a_node2"><a xlink:href="inet.power.contract.ICcEnergyStorage.html" xlink:title="Module Interface ICcEnergyStorage" target="_parent">
<polygon fill="#fffcaf" stroke="black" stroke-dasharray="5,2" points="113.5,-129 10.5,-129 10.5,-110 113.5,-110 113.5,-129"/>
<text text-anchor="middle" x="62" y="-117" font-family="Helvetica,sans-Serif" font-size="10.00">ICcEnergyStorage</text>
</a>
</g>
</g>
<!-- ICcEnergyStorage&#45;&gt;CcEnergyStorageBase -->
<g id="edge1" class="edge">
<title>ICcEnergyStorage&#45;&gt;CcEnergyStorageBase</title>
<path fill="none" stroke="black" stroke-dasharray="5,2" d="M62,-109.75C62,-99.87 62,-83.9 62,-74.09"/>
</g>
</g>
</svg>
