<?xml version="1.0" encoding="UTF-8" standalone="no"?>
<!DOCTYPE svg PUBLIC "-//W3C//DTD SVG 1.1//EN"
 "http://www.w3.org/Graphics/SVG/1.1/DTD/svg11.dtd">
<!-- Generated by graphviz version 2.43.0 (0)
 -->
<!-- Title: opp Pages: 1 -->
<svg width="286pt" height="82pt"
 viewBox="0.00 0.00 285.50 82.00" xmlns="http://www.w3.org/2000/svg" xmlns:xlink="http://www.w3.org/1999/xlink">
<g id="graph0" class="graph" transform="scale(1 1) rotate(0) translate(4 78)">
<title>opp</title>
<polygon fill="transparent" stroke="transparent" points="-4,4 -4,-78 281.5,-78 281.5,4 -4,4"/>
<!-- InVehicleNetworkShowcase -->
<g id="node1" class="node">
<title>InVehicleNetworkShowcase</title>
<g id="a_node1"><a xlink:href="inet.showcases.tsn.combiningfeatures.invehicle.InVehicleNetworkShowcase.html" xlink:title="Network InVehicleNetworkShowcase" target="_parent">
<polygon fill="#9090ff" stroke="black" points="248.5,-74 97.5,-74 97.5,-55 248.5,-55 248.5,-74"/>
<text text-anchor="middle" x="173" y="-62" font-family="Helvetica,sans-Serif" font-size="10.00">InVehicleNetworkShowcase</text>
</a>
</g>
</g>
<!-- IEthernetNetworkNode -->
<g id="node2" class="node">
<title>IEthernetNetworkNode</title>
<g id="a_node2"><a xlink:href="inet.node.contract.IEthernetNetworkNode.html" xlink:title="Module Interface IEthernetNetworkNode" target="_parent">
<polygon fill="#fffcaf" stroke="black" stroke-dasharray="5,2" points="128,-19 0,-19 0,0 128,0 128,-19"/>
<text text-anchor="middle" x="64" y="-7" font-family="Helvetica,sans-Serif" font-size="10.00">IEthernetNetworkNode</text>
</a>
</g>
</g>
<!-- InVehicleNetworkShowcase&#45;&gt;IEthernetNetworkNode -->
<g id="edge1" class="edge">
<title>InVehicleNetworkShowcase&#45;&gt;IEthernetNetworkNode</title>
<path fill="none" stroke="black" d="M155.49,-54.98C138.03,-46.5 110.99,-33.35 90.83,-23.54"/>
<polygon fill="black" stroke="black" points="92.36,-20.4 81.83,-19.17 89.29,-26.69 92.36,-20.4"/>
</g>
<!-- Eth1G -->
<g id="node3" class="node">
<title>Eth1G</title>
<g id="a_node3"><a xlink:href="inet.showcases.tsn.combiningfeatures.invehicle.InVehicleNetworkShowcase.Eth1G.html" xlink:title="Channel Eth1G" target="_parent">
<polygon fill="#d0ffd0" stroke="black" points="200,-19 146,-19 146,0 200,0 200,-19"/>
<text text-anchor="middle" x="173" y="-7" font-family="Helvetica,sans-Serif" font-size="10.00">Eth1G</text>
</a>
</g>
</g>
<!-- InVehicleNetworkShowcase&#45;&gt;Eth1G -->
<g id="edge2" class="edge">
<title>InVehicleNetworkShowcase&#45;&gt;Eth1G</title>
<path fill="none" stroke="black" d="M173,-54.75C173,-47.8 173,-37.85 173,-29.13"/>
<polygon fill="black" stroke="black" points="176.5,-29.09 173,-19.09 169.5,-29.09 176.5,-29.09"/>
</g>
<!-- Eth100M -->
<g id="node4" class="node">
<title>Eth100M</title>
<g id="a_node4"><a xlink:href="inet.node.ethernet.Eth100M.html" xlink:title="Channel Eth100M" target="_parent">
<polygon fill="#d0ffd0" stroke="black" points="277.5,-19 218.5,-19 218.5,0 277.5,0 277.5,-19"/>
<text text-anchor="middle" x="248" y="-7" font-family="Helvetica,sans-Serif" font-size="10.00">Eth100M</text>
</a>
</g>
</g>
<!-- InVehicleNetworkShowcase&#45;&gt;Eth100M -->
<g id="edge3" class="edge">
<title>InVehicleNetworkShowcase&#45;&gt;Eth100M</title>
<path fill="none" stroke="black" d="M185.05,-54.98C196.46,-46.92 213.83,-34.65 227.43,-25.03"/>
<polygon fill="black" stroke="black" points="229.58,-27.8 235.73,-19.17 225.54,-22.08 229.58,-27.8"/>
</g>
</g>
</svg>
