<?xml version="1.0" encoding="UTF-8" standalone="no"?>
<!DOCTYPE svg PUBLIC "-//W3C//DTD SVG 1.1//EN"
 "http://www.w3.org/Graphics/SVG/1.1/DTD/svg11.dtd">
<!-- Generated by graphviz version 2.43.0 (0)
 -->
<!-- Title: opp Pages: 1 -->
<svg width="439pt" height="82pt"
 viewBox="0.00 0.00 438.50 82.00" xmlns="http://www.w3.org/2000/svg" xmlns:xlink="http://www.w3.org/1999/xlink">
<g id="graph0" class="graph" transform="scale(1 1) rotate(0) translate(4 78)">
<title>opp</title>
<polygon fill="transparent" stroke="transparent" points="-4,4 -4,-78 434.5,-78 434.5,4 -4,4"/>
<!-- WrrClassifierTutorialStep -->
<g id="node1" class="node">
<title>WrrClassifierTutorialStep</title>
<g id="a_node1"><a xlink:href="inet.tutorials.queueing.WrrClassifierTutorialStep.html" xlink:title="Network WrrClassifierTutorialStep" target="_parent">
<polygon fill="#9090ff" stroke="black" points="273,-74 136,-74 136,-55 273,-55 273,-74"/>
<text text-anchor="middle" x="204.5" y="-62" font-family="Helvetica,sans-Serif" font-size="10.00">WrrClassifierTutorialStep</text>
</a>
</g>
</g>
<!-- WrrClassifier -->
<g id="node2" class="node">
<title>WrrClassifier</title>
<g id="a_node2"><a xlink:href="inet.queueing.classifier.WrrClassifier.html" xlink:title="Simple Module WrrClassifier" target="_parent">
<polygon fill="#fffcaf" stroke="black" points="79,-19 0,-19 0,0 79,0 79,-19"/>
<text text-anchor="middle" x="39.5" y="-7" font-family="Helvetica,sans-Serif" font-size="10.00">WrrClassifier</text>
</a>
</g>
</g>
<!-- WrrClassifierTutorialStep&#45;&gt;WrrClassifier -->
<g id="edge1" class="edge">
<title>WrrClassifierTutorialStep&#45;&gt;WrrClassifier</title>
<path fill="none" stroke="black" d="M177.99,-54.98C150.29,-46.09 106.64,-32.07 75.76,-22.15"/>
<polygon fill="black" stroke="black" points="76.81,-18.81 66.22,-19.08 74.67,-25.47 76.81,-18.81"/>
</g>
<!-- PassivePacketSink -->
<g id="node3" class="node">
<title>PassivePacketSink</title>
<g id="a_node3"><a xlink:href="inet.queueing.sink.PassivePacketSink.html" xlink:title="Simple Module PassivePacketSink" target="_parent">
<polygon fill="#fffcaf" stroke="black" points="202.5,-19 96.5,-19 96.5,0 202.5,0 202.5,-19"/>
<text text-anchor="middle" x="149.5" y="-7" font-family="Helvetica,sans-Serif" font-size="10.00">PassivePacketSink</text>
</a>
</g>
</g>
<!-- WrrClassifierTutorialStep&#45;&gt;PassivePacketSink -->
<g id="edge2" class="edge">
<title>WrrClassifierTutorialStep&#45;&gt;PassivePacketSink</title>
<path fill="none" stroke="black" d="M195.42,-54.75C187.41,-47.03 175.54,-35.6 165.88,-26.28"/>
<polygon fill="black" stroke="black" points="168.04,-23.51 158.41,-19.09 163.19,-28.55 168.04,-23.51"/>
</g>
<!-- IdealChannel -->
<g id="node4" class="node">
<title>IdealChannel</title>
<g id="a_node4"><a xlink:href="ned.IdealChannel.html" xlink:title="Channel IdealChannel" target="_parent">
<polygon fill="#d0ffd0" stroke="black" points="300.5,-19 220.5,-19 220.5,0 300.5,0 300.5,-19"/>
<text text-anchor="middle" x="260.5" y="-7" font-family="Helvetica,sans-Serif" font-size="10.00">IdealChannel</text>
</a>
</g>
</g>
<!-- WrrClassifierTutorialStep&#45;&gt;IdealChannel -->
<g id="edge3" class="edge">
<title>WrrClassifierTutorialStep&#45;&gt;IdealChannel</title>
<path fill="none" stroke="black" d="M213.5,-54.98C221.69,-47.23 234.01,-35.58 243.97,-26.14"/>
<polygon fill="black" stroke="black" points="246.48,-28.59 251.34,-19.17 241.67,-23.5 246.48,-28.59"/>
</g>
<!-- ActivePacketSource -->
<g id="node5" class="node">
<title>ActivePacketSource</title>
<g id="a_node5"><a xlink:href="inet.queueing.source.ActivePacketSource.html" xlink:title="Simple Module ActivePacketSource" target="_parent">
<polygon fill="#fffcaf" stroke="black" points="430.5,-19 318.5,-19 318.5,0 430.5,0 430.5,-19"/>
<text text-anchor="middle" x="374.5" y="-7" font-family="Helvetica,sans-Serif" font-size="10.00">ActivePacketSource</text>
</a>
</g>
</g>
<!-- WrrClassifierTutorialStep&#45;&gt;ActivePacketSource -->
<g id="edge4" class="edge">
<title>WrrClassifierTutorialStep&#45;&gt;ActivePacketSource</title>
<path fill="none" stroke="black" d="M231.81,-54.98C260.35,-46.09 305.33,-32.07 337.14,-22.15"/>
<polygon fill="black" stroke="black" points="338.47,-25.4 346.97,-19.08 336.38,-18.72 338.47,-25.4"/>
</g>
</g>
</svg>
