<?xml version="1.0" encoding="UTF-8" standalone="no"?>
<!DOCTYPE svg PUBLIC "-//W3C//DTD SVG 1.1//EN"
 "http://www.w3.org/Graphics/SVG/1.1/DTD/svg11.dtd">
<!-- Generated by graphviz version 2.43.0 (0)
 -->
<!-- Title: opp Pages: 1 -->
<svg width="206pt" height="137pt"
 viewBox="0.00 0.00 206.00 137.00" xmlns="http://www.w3.org/2000/svg" xmlns:xlink="http://www.w3.org/1999/xlink">
<g id="graph0" class="graph" transform="scale(1 1) rotate(0) translate(4 133)">
<title>opp</title>
<polygon fill="transparent" stroke="transparent" points="-4,4 -4,-133 202,-133 202,4 -4,4"/>
<!-- IMacRelayUnit -->
<g id="node1" class="node">
<title>IMacRelayUnit</title>
<g id="a_node1"><a xlink:href="inet.linklayer.contract.IMacRelayUnit.html" xlink:title="Module Interface IMacRelayUnit" target="_parent">
<polygon fill="#fff700" stroke="black" stroke-dasharray="5,2" points="145.5,-74 57.5,-74 57.5,-55 145.5,-55 145.5,-74"/>
<text text-anchor="middle" x="101.5" y="-62" font-family="Helvetica,sans-Serif" font-size="10.00">IMacRelayUnit</text>
</a>
</g>
</g>
<!-- Ieee8021dRelay -->
<g id="node3" class="node">
<title>Ieee8021dRelay</title>
<g id="a_node3"><a xlink:href="inet.linklayer.ieee8021d.relay.Ieee8021dRelay.html" xlink:title="Simple Module Ieee8021dRelay" target="_parent">
<polygon fill="#fffcaf" stroke="black" points="95,-19 0,-19 0,0 95,0 95,-19"/>
<text text-anchor="middle" x="47.5" y="-7" font-family="Helvetica,sans-Serif" font-size="10.00">Ieee8021dRelay</text>
</a>
</g>
</g>
<!-- IMacRelayUnit&#45;&gt;Ieee8021dRelay -->
<g id="edge2" class="edge">
<title>IMacRelayUnit&#45;&gt;Ieee8021dRelay</title>
<path fill="none" stroke="black" stroke-dasharray="5,2" d="M92.58,-54.75C82.52,-44.87 66.25,-28.9 56.25,-19.09"/>
</g>
<!-- MacRelayUnit -->
<g id="node4" class="node">
<title>MacRelayUnit</title>
<g id="a_node4"><a xlink:href="inet.linklayer.ethernet.common.MacRelayUnit.html" xlink:title="Simple Module MacRelayUnit" target="_parent">
<polygon fill="#fffcaf" stroke="black" points="198,-19 113,-19 113,0 198,0 198,-19"/>
<text text-anchor="middle" x="155.5" y="-7" font-family="Helvetica,sans-Serif" font-size="10.00">MacRelayUnit</text>
</a>
</g>
</g>
<!-- IMacRelayUnit&#45;&gt;MacRelayUnit -->
<g id="edge3" class="edge">
<title>IMacRelayUnit&#45;&gt;MacRelayUnit</title>
<path fill="none" stroke="black" stroke-dasharray="5,2" d="M110.42,-54.75C120.48,-44.87 136.75,-28.9 146.75,-19.09"/>
</g>
<!-- IProtocolLayer -->
<g id="node2" class="node">
<title>IProtocolLayer</title>
<g id="a_node2"><a xlink:href="inet.protocolelement.contract.IProtocolLayer.html" xlink:title="Module Interface IProtocolLayer" target="_parent">
<polygon fill="#fffcaf" stroke="black" stroke-dasharray="5,2" points="144.5,-129 58.5,-129 58.5,-110 144.5,-110 144.5,-129"/>
<text text-anchor="middle" x="101.5" y="-117" font-family="Helvetica,sans-Serif" font-size="10.00">IProtocolLayer</text>
</a>
</g>
</g>
<!-- IProtocolLayer&#45;&gt;IMacRelayUnit -->
<g id="edge1" class="edge">
<title>IProtocolLayer&#45;&gt;IMacRelayUnit</title>
<path fill="none" stroke="black" d="M101.5,-109.75C101.5,-99.87 101.5,-83.9 101.5,-74.09"/>
</g>
</g>
</svg>
