<?xml version="1.0" encoding="UTF-8" standalone="no"?>
<!DOCTYPE svg PUBLIC "-//W3C//DTD SVG 1.1//EN"
 "http://www.w3.org/Graphics/SVG/1.1/DTD/svg11.dtd">
<!-- Generated by graphviz version 2.43.0 (0)
 -->
<!-- Title: opp Pages: 1 -->
<svg width="609pt" height="82pt"
 viewBox="0.00 0.00 609.00 82.00" xmlns="http://www.w3.org/2000/svg" xmlns:xlink="http://www.w3.org/1999/xlink">
<g id="graph0" class="graph" transform="scale(1 1) rotate(0) translate(4 78)">
<title>opp</title>
<polygon fill="transparent" stroke="transparent" points="-4,4 -4,-78 605,-78 605,4 -4,4"/>
<!-- MixedLAN -->
<g id="node1" class="node">
<title>MixedLAN</title>
<g id="a_node1"><a xlink:href="inet.examples.ethernet.lans.MixedLAN.html" xlink:title="Network MixedLAN" target="_parent">
<polygon fill="#9090ff" stroke="black" points="359.5,-74 293.5,-74 293.5,-55 359.5,-55 359.5,-74"/>
<text text-anchor="middle" x="326.5" y="-62" font-family="Helvetica,sans-Serif" font-size="10.00">MixedLAN</text>
</a>
</g>
</g>
<!-- EthernetHub -->
<g id="node2" class="node">
<title>EthernetHub</title>
<g id="a_node2"><a xlink:href="inet.node.ethernet.EthernetHub.html" xlink:title="Simple Module EthernetHub" target="_parent">
<polygon fill="#fffcaf" stroke="black" points="77,-19 0,-19 0,0 77,0 77,-19"/>
<text text-anchor="middle" x="38.5" y="-7" font-family="Helvetica,sans-Serif" font-size="10.00">EthernetHub</text>
</a>
</g>
</g>
<!-- MixedLAN&#45;&gt;EthernetHub -->
<g id="edge1" class="edge">
<title>MixedLAN&#45;&gt;EthernetHub</title>
<path fill="none" stroke="black" d="M293.46,-57.42C242.87,-48.11 145.9,-30.26 87.22,-19.47"/>
<polygon fill="black" stroke="black" points="87.55,-15.97 77.08,-17.6 86.29,-22.85 87.55,-15.97"/>
</g>
<!-- WireJunction -->
<g id="node3" class="node">
<title>WireJunction</title>
<g id="a_node3"><a xlink:href="inet.physicallayer.wired.common.WireJunction.html" xlink:title="Simple Module WireJunction" target="_parent">
<polygon fill="#fffcaf" stroke="black" points="173.5,-19 95.5,-19 95.5,0 173.5,0 173.5,-19"/>
<text text-anchor="middle" x="134.5" y="-7" font-family="Helvetica,sans-Serif" font-size="10.00">WireJunction</text>
</a>
</g>
</g>
<!-- MixedLAN&#45;&gt;WireJunction -->
<g id="edge2" class="edge">
<title>MixedLAN&#45;&gt;WireJunction</title>
<path fill="none" stroke="black" d="M295.65,-54.98C263,-45.97 211.3,-31.7 175.3,-21.76"/>
<polygon fill="black" stroke="black" points="176.16,-18.37 165.59,-19.08 174.3,-25.12 176.16,-18.37"/>
</g>
<!-- EthernetSwitch -->
<g id="node4" class="node">
<title>EthernetSwitch</title>
<g id="a_node4"><a xlink:href="inet.node.ethernet.EthernetSwitch.html" xlink:title="Compound Module EthernetSwitch" target="_parent">
<polygon fill="#fffcaf" stroke="black" points="281.5,-19 191.5,-19 191.5,0 281.5,0 281.5,-19"/>
<text text-anchor="middle" x="236.5" y="-7" font-family="Helvetica,sans-Serif" font-size="10.00">EthernetSwitch</text>
</a>
</g>
</g>
<!-- MixedLAN&#45;&gt;EthernetSwitch -->
<g id="edge3" class="edge">
<title>MixedLAN&#45;&gt;EthernetSwitch</title>
<path fill="none" stroke="black" d="M312.04,-54.98C298.08,-46.77 276.71,-34.18 260.25,-24.49"/>
<polygon fill="black" stroke="black" points="261.62,-21.23 251.22,-19.17 258.06,-27.26 261.62,-21.23"/>
</g>
<!-- Eth10M -->
<g id="node5" class="node">
<title>Eth10M</title>
<g id="a_node5"><a xlink:href="inet.node.ethernet.Eth10M.html" xlink:title="Channel Eth10M" target="_parent">
<polygon fill="#d0ffd0" stroke="black" points="353.5,-19 299.5,-19 299.5,0 353.5,0 353.5,-19"/>
<text text-anchor="middle" x="326.5" y="-7" font-family="Helvetica,sans-Serif" font-size="10.00">Eth10M</text>
</a>
</g>
</g>
<!-- MixedLAN&#45;&gt;Eth10M -->
<g id="edge4" class="edge">
<title>MixedLAN&#45;&gt;Eth10M</title>
<path fill="none" stroke="black" d="M326.5,-54.75C326.5,-47.8 326.5,-37.85 326.5,-29.13"/>
<polygon fill="black" stroke="black" points="330,-29.09 326.5,-19.09 323,-29.09 330,-29.09"/>
</g>
<!-- C -->
<g id="node6" class="node">
<title>C</title>
<g id="a_node6"><a xlink:href="inet.examples.ethernet.lans.MixedLAN.C.html" xlink:title="Channel C" target="_parent">
<polygon fill="#d0ffd0" stroke="black" points="425.5,-19 371.5,-19 371.5,0 425.5,0 425.5,-19"/>
<text text-anchor="middle" x="398.5" y="-7" font-family="Helvetica,sans-Serif" font-size="10.00">C</text>
</a>
</g>
</g>
<!-- MixedLAN&#45;&gt;C -->
<g id="edge5" class="edge">
<title>MixedLAN&#45;&gt;C</title>
<path fill="none" stroke="black" d="M338.07,-54.98C348.92,-47 365.38,-34.88 378.38,-25.31"/>
<polygon fill="black" stroke="black" points="380.74,-27.92 386.72,-19.17 376.59,-22.28 380.74,-27.92"/>
</g>
<!-- EthernetHost -->
<g id="node7" class="node">
<title>EthernetHost</title>
<g id="a_node7"><a xlink:href="inet.node.ethernet.EthernetHost.html" xlink:title="Compound Module EthernetHost" target="_parent">
<polygon fill="#fffcaf" stroke="black" points="523.5,-19 443.5,-19 443.5,0 523.5,0 523.5,-19"/>
<text text-anchor="middle" x="483.5" y="-7" font-family="Helvetica,sans-Serif" font-size="10.00">EthernetHost</text>
</a>
</g>
</g>
<!-- MixedLAN&#45;&gt;EthernetHost -->
<g id="edge6" class="edge">
<title>MixedLAN&#45;&gt;EthernetHost</title>
<path fill="none" stroke="black" d="M351.72,-54.98C377.86,-46.16 418.9,-32.31 448.23,-22.41"/>
<polygon fill="black" stroke="black" points="449.72,-25.6 458.08,-19.08 447.48,-18.96 449.72,-25.6"/>
</g>
<!-- Eth100M -->
<g id="node8" class="node">
<title>Eth100M</title>
<g id="a_node8"><a xlink:href="inet.node.ethernet.Eth100M.html" xlink:title="Channel Eth100M" target="_parent">
<polygon fill="#d0ffd0" stroke="black" points="601,-19 542,-19 542,0 601,0 601,-19"/>
<text text-anchor="middle" x="571.5" y="-7" font-family="Helvetica,sans-Serif" font-size="10.00">Eth100M</text>
</a>
</g>
</g>
<!-- MixedLAN&#45;&gt;Eth100M -->
<g id="edge7" class="edge">
<title>MixedLAN&#45;&gt;Eth100M</title>
<path fill="none" stroke="black" d="M359.69,-56.35C398.49,-47.99 464.93,-33.65 531.82,-19.14"/>
<polygon fill="black" stroke="black" points="532.66,-22.54 541.69,-17 531.18,-15.7 532.66,-22.54"/>
</g>
</g>
</svg>
