<?xml version="1.0" encoding="UTF-8" standalone="no"?>
<!DOCTYPE svg PUBLIC "-//W3C//DTD SVG 1.1//EN"
 "http://www.w3.org/Graphics/SVG/1.1/DTD/svg11.dtd">
<!-- Generated by graphviz version 2.43.0 (0)
 -->
<!-- Title: opp Pages: 1 -->
<svg width="342pt" height="82pt"
 viewBox="0.00 0.00 342.00 82.00" xmlns="http://www.w3.org/2000/svg" xmlns:xlink="http://www.w3.org/1999/xlink">
<g id="graph0" class="graph" transform="scale(1 1) rotate(0) translate(4 78)">
<title>opp</title>
<polygon fill="transparent" stroke="transparent" points="-4,4 -4,-78 338,-78 338,4 -4,4"/>
<!-- ProviderCollectorTutorialStep -->
<g id="node1" class="node">
<title>ProviderCollectorTutorialStep</title>
<g id="a_node1"><a xlink:href="inet.tutorials.queueing.ProviderCollectorTutorialStep.html" xlink:title="Network ProviderCollectorTutorialStep" target="_parent">
<polygon fill="#9090ff" stroke="black" points="255,-74 97,-74 97,-55 255,-55 255,-74"/>
<text text-anchor="middle" x="176" y="-62" font-family="Helvetica,sans-Serif" font-size="10.00">ProviderCollectorTutorialStep</text>
</a>
</g>
</g>
<!-- PassivePacketSource -->
<g id="node2" class="node">
<title>PassivePacketSource</title>
<g id="a_node2"><a xlink:href="inet.queueing.source.PassivePacketSource.html" xlink:title="Simple Module PassivePacketSource" target="_parent">
<polygon fill="#fffcaf" stroke="black" points="118,-19 0,-19 0,0 118,0 118,-19"/>
<text text-anchor="middle" x="59" y="-7" font-family="Helvetica,sans-Serif" font-size="10.00">PassivePacketSource</text>
</a>
</g>
</g>
<!-- ProviderCollectorTutorialStep&#45;&gt;PassivePacketSource -->
<g id="edge1" class="edge">
<title>ProviderCollectorTutorialStep&#45;&gt;PassivePacketSource</title>
<path fill="none" stroke="black" d="M157.2,-54.98C138.38,-46.46 109.18,-33.23 87.5,-23.41"/>
<polygon fill="black" stroke="black" points="88.69,-20.11 78.14,-19.17 85.8,-26.48 88.69,-20.11"/>
</g>
<!-- IdealChannel -->
<g id="node3" class="node">
<title>IdealChannel</title>
<g id="a_node3"><a xlink:href="ned.IdealChannel.html" xlink:title="Channel IdealChannel" target="_parent">
<polygon fill="#d0ffd0" stroke="black" points="216,-19 136,-19 136,0 216,0 216,-19"/>
<text text-anchor="middle" x="176" y="-7" font-family="Helvetica,sans-Serif" font-size="10.00">IdealChannel</text>
</a>
</g>
</g>
<!-- ProviderCollectorTutorialStep&#45;&gt;IdealChannel -->
<g id="edge2" class="edge">
<title>ProviderCollectorTutorialStep&#45;&gt;IdealChannel</title>
<path fill="none" stroke="black" d="M176,-54.75C176,-47.8 176,-37.85 176,-29.13"/>
<polygon fill="black" stroke="black" points="179.5,-29.09 176,-19.09 172.5,-29.09 179.5,-29.09"/>
</g>
<!-- ActivePacketSink -->
<g id="node4" class="node">
<title>ActivePacketSink</title>
<g id="a_node4"><a xlink:href="inet.queueing.sink.ActivePacketSink.html" xlink:title="Simple Module ActivePacketSink" target="_parent">
<polygon fill="#fffcaf" stroke="black" points="334,-19 234,-19 234,0 334,0 334,-19"/>
<text text-anchor="middle" x="284" y="-7" font-family="Helvetica,sans-Serif" font-size="10.00">ActivePacketSink</text>
</a>
</g>
</g>
<!-- ProviderCollectorTutorialStep&#45;&gt;ActivePacketSink -->
<g id="edge3" class="edge">
<title>ProviderCollectorTutorialStep&#45;&gt;ActivePacketSink</title>
<path fill="none" stroke="black" d="M193.35,-54.98C210.57,-46.54 237.2,-33.47 257.15,-23.68"/>
<polygon fill="black" stroke="black" points="258.9,-26.72 266.33,-19.17 255.81,-20.43 258.9,-26.72"/>
</g>
</g>
</svg>
