<?xml version="1.0" encoding="UTF-8" standalone="no"?>
<!DOCTYPE svg PUBLIC "-//W3C//DTD SVG 1.1//EN"
 "http://www.w3.org/Graphics/SVG/1.1/DTD/svg11.dtd">
<!-- Generated by graphviz version 2.43.0 (0)
 -->
<!-- Title: opp Pages: 1 -->
<svg width="106pt" height="137pt"
 viewBox="0.00 0.00 106.00 137.00" xmlns="http://www.w3.org/2000/svg" xmlns:xlink="http://www.w3.org/1999/xlink">
<g id="graph0" class="graph" transform="scale(1 1) rotate(0) translate(4 133)">
<title>opp</title>
<polygon fill="transparent" stroke="transparent" points="-4,4 -4,-133 102,-133 102,4 -4,4"/>
<!-- Ieee8022Llc -->
<g id="node1" class="node">
<title>Ieee8022Llc</title>
<g id="a_node1"><a xlink:href="inet.linklayer.ieee8022.Ieee8022Llc.html" xlink:title="Simple Module Ieee8022Llc" target="_parent">
<polygon fill="#fff700" stroke="black" points="86.5,-74 11.5,-74 11.5,-55 86.5,-55 86.5,-74"/>
<text text-anchor="middle" x="49" y="-62" font-family="Helvetica,sans-Serif" font-size="10.00">Ieee8022Llc</text>
</a>
</g>
</g>
<!-- Ieee80211LlcLpd -->
<g id="node3" class="node">
<title>Ieee80211LlcLpd</title>
<g id="a_node3"><a xlink:href="inet.linklayer.ieee80211.llc.Ieee80211LlcLpd.html" xlink:title="Simple Module Ieee80211LlcLpd" target="_parent">
<polygon fill="#fffcaf" stroke="black" points="98,-19 0,-19 0,0 98,0 98,-19"/>
<text text-anchor="middle" x="49" y="-7" font-family="Helvetica,sans-Serif" font-size="10.00">Ieee80211LlcLpd</text>
</a>
</g>
</g>
<!-- Ieee8022Llc&#45;&gt;Ieee80211LlcLpd -->
<g id="edge2" class="edge">
<title>Ieee8022Llc&#45;&gt;Ieee80211LlcLpd</title>
<path fill="none" stroke="black" d="M49,-54.75C49,-44.87 49,-28.9 49,-19.09"/>
</g>
<!-- IIeee8022Llc -->
<g id="node2" class="node">
<title>IIeee8022Llc</title>
<g id="a_node2"><a xlink:href="inet.linklayer.ieee8022.IIeee8022Llc.html" xlink:title="Module Interface IIeee8022Llc" target="_parent">
<polygon fill="#fffcaf" stroke="black" stroke-dasharray="5,2" points="88,-129 10,-129 10,-110 88,-110 88,-129"/>
<text text-anchor="middle" x="49" y="-117" font-family="Helvetica,sans-Serif" font-size="10.00">IIeee8022Llc</text>
</a>
</g>
</g>
<!-- IIeee8022Llc&#45;&gt;Ieee8022Llc -->
<g id="edge1" class="edge">
<title>IIeee8022Llc&#45;&gt;Ieee8022Llc</title>
<path fill="none" stroke="black" stroke-dasharray="5,2" d="M49,-109.75C49,-99.87 49,-83.9 49,-74.09"/>
</g>
</g>
</svg>
