<?xml version="1.0" encoding="UTF-8" standalone="no"?>
<!DOCTYPE svg PUBLIC "-//W3C//DTD SVG 1.1//EN"
 "http://www.w3.org/Graphics/SVG/1.1/DTD/svg11.dtd">
<!-- Generated by graphviz version 2.43.0 (0)
 -->
<!-- Title: opp Pages: 1 -->
<svg width="284pt" height="82pt"
 viewBox="0.00 0.00 284.00 82.00" xmlns="http://www.w3.org/2000/svg" xmlns:xlink="http://www.w3.org/1999/xlink">
<g id="graph0" class="graph" transform="scale(1 1) rotate(0) translate(4 78)">
<title>opp</title>
<polygon fill="transparent" stroke="transparent" points="-4,4 -4,-78 280,-78 280,4 -4,4"/>
<!-- StreamRelayLayer -->
<g id="node1" class="node">
<title>StreamRelayLayer</title>
<g id="a_node1"><a xlink:href="inet.protocolelement.redundancy.StreamRelayLayer.html" xlink:title="Compound Module StreamRelayLayer" target="_parent">
<polygon fill="#fff700" stroke="black" points="189.5,-74 82.5,-74 82.5,-55 189.5,-55 189.5,-74"/>
<text text-anchor="middle" x="136" y="-62" font-family="Helvetica,sans-Serif" font-size="10.00">StreamRelayLayer</text>
</a>
</g>
</g>
<!-- IPacketFilter -->
<g id="node2" class="node">
<title>IPacketFilter</title>
<g id="a_node2"><a xlink:href="inet.queueing.contract.IPacketFilter.html" xlink:title="Module Interface IPacketFilter" target="_parent">
<polygon fill="#fffcaf" stroke="black" stroke-dasharray="5,2" points="76,-19 0,-19 0,0 76,0 76,-19"/>
<text text-anchor="middle" x="38" y="-7" font-family="Helvetica,sans-Serif" font-size="10.00">IPacketFilter</text>
</a>
</g>
</g>
<!-- StreamRelayLayer&#45;&gt;IPacketFilter -->
<g id="edge1" class="edge">
<title>StreamRelayLayer&#45;&gt;IPacketFilter</title>
<path fill="none" stroke="black" d="M120.25,-54.98C104.77,-46.61 80.91,-33.7 62.86,-23.95"/>
<polygon fill="black" stroke="black" points="64.49,-20.85 54.03,-19.17 61.16,-27.01 64.49,-20.85"/>
</g>
<!-- IPacketPusher -->
<g id="node3" class="node">
<title>IPacketPusher</title>
<g id="a_node3"><a xlink:href="inet.queueing.contract.IPacketPusher.html" xlink:title="Module Interface IPacketPusher" target="_parent">
<polygon fill="#fffcaf" stroke="black" stroke-dasharray="5,2" points="178,-19 94,-19 94,0 178,0 178,-19"/>
<text text-anchor="middle" x="136" y="-7" font-family="Helvetica,sans-Serif" font-size="10.00">IPacketPusher</text>
</a>
</g>
</g>
<!-- StreamRelayLayer&#45;&gt;IPacketPusher -->
<g id="edge2" class="edge">
<title>StreamRelayLayer&#45;&gt;IPacketPusher</title>
<path fill="none" stroke="black" d="M136,-54.75C136,-47.8 136,-37.85 136,-29.13"/>
<polygon fill="black" stroke="black" points="139.5,-29.09 136,-19.09 132.5,-29.09 139.5,-29.09"/>
</g>
<!-- IdealChannel -->
<g id="node4" class="node">
<title>IdealChannel</title>
<g id="a_node4"><a xlink:href="ned.IdealChannel.html" xlink:title="Channel IdealChannel" target="_parent">
<polygon fill="#d0ffd0" stroke="black" points="276,-19 196,-19 196,0 276,0 276,-19"/>
<text text-anchor="middle" x="236" y="-7" font-family="Helvetica,sans-Serif" font-size="10.00">IdealChannel</text>
</a>
</g>
</g>
<!-- StreamRelayLayer&#45;&gt;IdealChannel -->
<g id="edge3" class="edge">
<title>StreamRelayLayer&#45;&gt;IdealChannel</title>
<path fill="none" stroke="black" d="M152.07,-54.98C167.86,-46.61 192.22,-33.7 210.63,-23.95"/>
<polygon fill="black" stroke="black" points="212.44,-26.95 219.64,-19.17 209.17,-20.76 212.44,-26.95"/>
</g>
</g>
</svg>
