<?xml version="1.0" encoding="UTF-8" standalone="no"?>
<!DOCTYPE svg PUBLIC "-//W3C//DTD SVG 1.1//EN"
 "http://www.w3.org/Graphics/SVG/1.1/DTD/svg11.dtd">
<!-- Generated by graphviz version 2.43.0 (0)
 -->
<!-- Title: opp Pages: 1 -->
<svg width="228pt" height="137pt"
 viewBox="0.00 0.00 228.00 137.00" xmlns="http://www.w3.org/2000/svg" xmlns:xlink="http://www.w3.org/1999/xlink">
<g id="graph0" class="graph" transform="scale(1 1) rotate(0) translate(4 133)">
<title>opp</title>
<polygon fill="transparent" stroke="transparent" points="-4,4 -4,-133 224,-133 224,4 -4,4"/>
<!-- IIeee8021qLayer -->
<g id="node1" class="node">
<title>IIeee8021qLayer</title>
<g id="a_node1"><a xlink:href="inet.linklayer.ieee8021q.IIeee8021qLayer.html" xlink:title="Module Interface IIeee8021qLayer" target="_parent">
<polygon fill="#fff700" stroke="black" stroke-dasharray="5,2" points="155.5,-74 57.5,-74 57.5,-55 155.5,-55 155.5,-74"/>
<text text-anchor="middle" x="106.5" y="-62" font-family="Helvetica,sans-Serif" font-size="10.00">IIeee8021qLayer</text>
</a>
</g>
</g>
<!-- Ieee8021qLayer -->
<g id="node3" class="node">
<title>Ieee8021qLayer</title>
<g id="a_node3"><a xlink:href="inet.linklayer.ieee8021q.Ieee8021qLayer.html" xlink:title="Compound Module Ieee8021qLayer" target="_parent">
<polygon fill="#fffcaf" stroke="black" points="95,-19 0,-19 0,0 95,0 95,-19"/>
<text text-anchor="middle" x="47.5" y="-7" font-family="Helvetica,sans-Serif" font-size="10.00">Ieee8021qLayer</text>
</a>
</g>
</g>
<!-- IIeee8021qLayer&#45;&gt;Ieee8021qLayer -->
<g id="edge2" class="edge">
<title>IIeee8021qLayer&#45;&gt;Ieee8021qLayer</title>
<path fill="none" stroke="black" stroke-dasharray="5,2" d="M97.02,-54.98C86.08,-45.15 68.17,-29.07 57.15,-19.17"/>
</g>
<!-- Ieee8021qProtocol -->
<g id="node4" class="node">
<title>Ieee8021qProtocol</title>
<g id="a_node4"><a xlink:href="inet.linklayer.ieee8021q.Ieee8021qProtocol.html" xlink:title="Compound Module Ieee8021qProtocol" target="_parent">
<polygon fill="#fffcaf" stroke="black" points="220,-19 113,-19 113,0 220,0 220,-19"/>
<text text-anchor="middle" x="166.5" y="-7" font-family="Helvetica,sans-Serif" font-size="10.00">Ieee8021qProtocol</text>
</a>
</g>
</g>
<!-- IIeee8021qLayer&#45;&gt;Ieee8021qProtocol -->
<g id="edge3" class="edge">
<title>IIeee8021qLayer&#45;&gt;Ieee8021qProtocol</title>
<path fill="none" stroke="black" stroke-dasharray="5,2" d="M116.14,-54.98C127.27,-45.15 145.48,-29.07 156.68,-19.17"/>
</g>
<!-- IProtocolLayer -->
<g id="node2" class="node">
<title>IProtocolLayer</title>
<g id="a_node2"><a xlink:href="inet.protocolelement.contract.IProtocolLayer.html" xlink:title="Module Interface IProtocolLayer" target="_parent">
<polygon fill="#fffcaf" stroke="black" stroke-dasharray="5,2" points="149.5,-129 63.5,-129 63.5,-110 149.5,-110 149.5,-129"/>
<text text-anchor="middle" x="106.5" y="-117" font-family="Helvetica,sans-Serif" font-size="10.00">IProtocolLayer</text>
</a>
</g>
</g>
<!-- IProtocolLayer&#45;&gt;IIeee8021qLayer -->
<g id="edge1" class="edge">
<title>IProtocolLayer&#45;&gt;IIeee8021qLayer</title>
<path fill="none" stroke="black" d="M106.5,-109.75C106.5,-99.87 106.5,-83.9 106.5,-74.09"/>
</g>
</g>
</svg>
