<?xml version="1.0" encoding="UTF-8" standalone="no"?>
<!DOCTYPE svg PUBLIC "-//W3C//DTD SVG 1.1//EN"
 "http://www.w3.org/Graphics/SVG/1.1/DTD/svg11.dtd">
<!-- Generated by graphviz version 2.43.0 (0)
 -->
<!-- Title: opp Pages: 1 -->
<svg width="515pt" height="82pt"
 viewBox="0.00 0.00 514.50 82.00" xmlns="http://www.w3.org/2000/svg" xmlns:xlink="http://www.w3.org/1999/xlink">
<g id="graph0" class="graph" transform="scale(1 1) rotate(0) translate(4 78)">
<title>opp</title>
<polygon fill="transparent" stroke="transparent" points="-4,4 -4,-78 510.5,-78 510.5,4 -4,4"/>
<!-- Net -->
<g id="node1" class="node">
<title>Net</title>
<g id="a_node1"><a xlink:href="inet.examples.adhoc.idealwireless.Net.html" xlink:title="Network Net" target="_parent">
<polygon fill="#9090ff" stroke="black" points="301,-74 247,-74 247,-55 301,-55 301,-74"/>
<text text-anchor="middle" x="274" y="-62" font-family="Helvetica,sans-Serif" font-size="10.00">Net</text>
</a>
</g>
</g>
<!-- IIntegratedVisualizer -->
<g id="node2" class="node">
<title>IIntegratedVisualizer</title>
<g id="a_node2"><a xlink:href="inet.visualizer.contract.IIntegratedVisualizer.html" xlink:title="Module Interface IIntegratedVisualizer" target="_parent">
<polygon fill="#fffcaf" stroke="black" stroke-dasharray="5,2" points="118,-19 0,-19 0,0 118,0 118,-19"/>
<text text-anchor="middle" x="59" y="-7" font-family="Helvetica,sans-Serif" font-size="10.00">IIntegratedVisualizer</text>
</a>
</g>
</g>
<!-- Net&#45;&gt;IIntegratedVisualizer -->
<g id="edge1" class="edge">
<title>Net&#45;&gt;IIntegratedVisualizer</title>
<path fill="none" stroke="black" d="M246.77,-56.79C210.78,-47.92 146.92,-32.17 103.78,-21.54"/>
<polygon fill="black" stroke="black" points="104.37,-18.08 93.83,-19.09 102.7,-24.88 104.37,-18.08"/>
</g>
<!-- UnitDiskRadioMedium -->
<g id="node3" class="node">
<title>UnitDiskRadioMedium</title>
<g id="a_node3"><a xlink:href="inet.physicallayer.wireless.unitdisk.UnitDiskRadioMedium.html" xlink:title="Compound Module UnitDiskRadioMedium" target="_parent">
<polygon fill="#fffcaf" stroke="black" points="262,-19 136,-19 136,0 262,0 262,-19"/>
<text text-anchor="middle" x="199" y="-7" font-family="Helvetica,sans-Serif" font-size="10.00">UnitDiskRadioMedium</text>
</a>
</g>
</g>
<!-- Net&#45;&gt;UnitDiskRadioMedium -->
<g id="edge2" class="edge">
<title>Net&#45;&gt;UnitDiskRadioMedium</title>
<path fill="none" stroke="black" d="M261.95,-54.98C250.54,-46.92 233.17,-34.65 219.57,-25.03"/>
<polygon fill="black" stroke="black" points="221.46,-22.08 211.27,-19.17 217.42,-27.8 221.46,-22.08"/>
</g>
<!-- Ipv4NetworkConfigurator -->
<g id="node4" class="node">
<title>Ipv4NetworkConfigurator</title>
<g id="a_node4"><a xlink:href="inet.networklayer.configurator.ipv4.Ipv4NetworkConfigurator.html" xlink:title="Simple Module Ipv4NetworkConfigurator" target="_parent">
<polygon fill="#fffcaf" stroke="black" points="419.5,-19 280.5,-19 280.5,0 419.5,0 419.5,-19"/>
<text text-anchor="middle" x="350" y="-7" font-family="Helvetica,sans-Serif" font-size="10.00">Ipv4NetworkConfigurator</text>
</a>
</g>
</g>
<!-- Net&#45;&gt;Ipv4NetworkConfigurator -->
<g id="edge3" class="edge">
<title>Net&#45;&gt;Ipv4NetworkConfigurator</title>
<path fill="none" stroke="black" d="M286.21,-54.98C297.78,-46.92 315.38,-34.65 329.16,-25.03"/>
<polygon fill="black" stroke="black" points="331.37,-27.76 337.57,-19.17 327.36,-22.02 331.37,-27.76"/>
</g>
<!-- AdhocHost -->
<g id="node5" class="node">
<title>AdhocHost</title>
<g id="a_node5"><a xlink:href="inet.node.inet.AdhocHost.html" xlink:title="Compound Module AdhocHost" target="_parent">
<polygon fill="#fffcaf" stroke="black" points="506.5,-19 437.5,-19 437.5,0 506.5,0 506.5,-19"/>
<text text-anchor="middle" x="472" y="-7" font-family="Helvetica,sans-Serif" font-size="10.00">AdhocHost</text>
</a>
</g>
</g>
<!-- Net&#45;&gt;AdhocHost -->
<g id="edge4" class="edge">
<title>Net&#45;&gt;AdhocHost</title>
<path fill="none" stroke="black" d="M301.12,-56.24C334.37,-47.34 391.09,-32.16 430,-21.74"/>
<polygon fill="black" stroke="black" points="431.22,-25.04 439.97,-19.07 429.41,-18.28 431.22,-25.04"/>
</g>
</g>
</svg>
