<?xml version="1.0" encoding="UTF-8" standalone="no"?>
<!DOCTYPE svg PUBLIC "-//W3C//DTD SVG 1.1//EN"
 "http://www.w3.org/Graphics/SVG/1.1/DTD/svg11.dtd">
<!-- Generated by graphviz version 2.43.0 (0)
 -->
<!-- Title: opp Pages: 1 -->
<svg width="294pt" height="82pt"
 viewBox="0.00 0.00 294.00 82.00" xmlns="http://www.w3.org/2000/svg" xmlns:xlink="http://www.w3.org/1999/xlink">
<g id="graph0" class="graph" transform="scale(1 1) rotate(0) translate(4 78)">
<title>opp</title>
<polygon fill="transparent" stroke="transparent" points="-4,4 -4,-78 290,-78 290,4 -4,4"/>
<!-- IIeee80211Visualizer -->
<g id="node1" class="node">
<title>IIeee80211Visualizer</title>
<g id="a_node1"><a xlink:href="inet.visualizer.contract.IIeee80211Visualizer.html" xlink:title="Module Interface IIeee80211Visualizer" target="_parent">
<polygon fill="#fff700" stroke="black" stroke-dasharray="5,2" points="211.5,-74 92.5,-74 92.5,-55 211.5,-55 211.5,-74"/>
<text text-anchor="middle" x="152" y="-62" font-family="Helvetica,sans-Serif" font-size="10.00">IIeee80211Visualizer</text>
</a>
</g>
</g>
<!-- Ieee80211CanvasVisualizer -->
<g id="node2" class="node">
<title>Ieee80211CanvasVisualizer</title>
<g id="a_node2"><a xlink:href="inet.visualizer.canvas.linklayer.Ieee80211CanvasVisualizer.html" xlink:title="Simple Module Ieee80211CanvasVisualizer" target="_parent">
<polygon fill="#fffcaf" stroke="black" points="152,-19 0,-19 0,0 152,0 152,-19"/>
<text text-anchor="middle" x="76" y="-7" font-family="Helvetica,sans-Serif" font-size="10.00">Ieee80211CanvasVisualizer</text>
</a>
</g>
</g>
<!-- IIeee80211Visualizer&#45;&gt;Ieee80211CanvasVisualizer -->
<g id="edge1" class="edge">
<title>IIeee80211Visualizer&#45;&gt;Ieee80211CanvasVisualizer</title>
<path fill="none" stroke="black" stroke-dasharray="5,2" d="M139.79,-54.98C125.69,-45.15 102.62,-29.07 88.43,-19.17"/>
</g>
<!-- Ieee80211Visualizer -->
<g id="node3" class="node">
<title>Ieee80211Visualizer</title>
<g id="a_node3"><a xlink:href="inet.visualizer.common.Ieee80211Visualizer.html" xlink:title="Compound Module Ieee80211Visualizer" target="_parent">
<polygon fill="#fffcaf" stroke="black" points="286,-19 170,-19 170,0 286,0 286,-19"/>
<text text-anchor="middle" x="228" y="-7" font-family="Helvetica,sans-Serif" font-size="10.00">Ieee80211Visualizer</text>
</a>
</g>
</g>
<!-- IIeee80211Visualizer&#45;&gt;Ieee80211Visualizer -->
<g id="edge2" class="edge">
<title>IIeee80211Visualizer&#45;&gt;Ieee80211Visualizer</title>
<path fill="none" stroke="black" stroke-dasharray="5,2" d="M164.21,-54.98C178.31,-45.15 201.38,-29.07 215.57,-19.17"/>
</g>
</g>
</svg>
