<?xml version="1.0" encoding="UTF-8" standalone="no"?>
<!DOCTYPE svg PUBLIC "-//W3C//DTD SVG 1.1//EN"
 "http://www.w3.org/Graphics/SVG/1.1/DTD/svg11.dtd">
<!-- Generated by graphviz version 2.43.0 (0)
 -->
<!-- Title: opp Pages: 1 -->
<svg width="673pt" height="82pt"
 viewBox="0.00 0.00 672.50 82.00" xmlns="http://www.w3.org/2000/svg" xmlns:xlink="http://www.w3.org/1999/xlink">
<g id="graph0" class="graph" transform="scale(1 1) rotate(0) translate(4 78)">
<title>opp</title>
<polygon fill="transparent" stroke="transparent" points="-4,4 -4,-78 668.5,-78 668.5,4 -4,4"/>
<!-- NextHopNetworkLayer -->
<g id="node1" class="node">
<title>NextHopNetworkLayer</title>
<g id="a_node1"><a xlink:href="inet.networklayer.nexthop.NextHopNetworkLayer.html" xlink:title="Compound Module NextHopNetworkLayer" target="_parent">
<polygon fill="#fff700" stroke="black" points="415.5,-74 287.5,-74 287.5,-55 415.5,-55 415.5,-74"/>
<text text-anchor="middle" x="351.5" y="-62" font-family="Helvetica,sans-Serif" font-size="10.00">NextHopNetworkLayer</text>
</a>
</g>
</g>
<!-- MessageDispatcher -->
<g id="node2" class="node">
<title>MessageDispatcher</title>
<g id="a_node2"><a xlink:href="inet.common.MessageDispatcher.html" xlink:title="Simple Module MessageDispatcher" target="_parent">
<polygon fill="#fffcaf" stroke="black" points="113,-19 0,-19 0,0 113,0 113,-19"/>
<text text-anchor="middle" x="56.5" y="-7" font-family="Helvetica,sans-Serif" font-size="10.00">MessageDispatcher</text>
</a>
</g>
</g>
<!-- NextHopNetworkLayer&#45;&gt;MessageDispatcher -->
<g id="edge1" class="edge">
<title>NextHopNetworkLayer&#45;&gt;MessageDispatcher</title>
<path fill="none" stroke="black" d="M304.1,-54.98C252.43,-45.7 169.73,-30.84 114.29,-20.88"/>
<polygon fill="black" stroke="black" points="114.73,-17.41 104.27,-19.08 113.49,-24.3 114.73,-17.41"/>
</g>
<!-- NextHopForwarding -->
<g id="node3" class="node">
<title>NextHopForwarding</title>
<g id="a_node3"><a xlink:href="inet.networklayer.nexthop.NextHopForwarding.html" xlink:title="Simple Module NextHopForwarding" target="_parent">
<polygon fill="#fffcaf" stroke="black" points="244,-19 131,-19 131,0 244,0 244,-19"/>
<text text-anchor="middle" x="187.5" y="-7" font-family="Helvetica,sans-Serif" font-size="10.00">NextHopForwarding</text>
</a>
</g>
</g>
<!-- NextHopNetworkLayer&#45;&gt;NextHopForwarding -->
<g id="edge2" class="edge">
<title>NextHopNetworkLayer&#45;&gt;NextHopForwarding</title>
<path fill="none" stroke="black" d="M325.15,-54.98C297.74,-46.13 254.61,-32.19 223.94,-22.28"/>
<polygon fill="black" stroke="black" points="224.65,-18.83 214.06,-19.08 222.5,-25.49 224.65,-18.83"/>
</g>
<!-- EchoProtocol -->
<g id="node4" class="node">
<title>EchoProtocol</title>
<g id="a_node4"><a xlink:href="inet.networklayer.common.EchoProtocol.html" xlink:title="Simple Module EchoProtocol" target="_parent">
<polygon fill="#fffcaf" stroke="black" points="342.5,-19 262.5,-19 262.5,0 342.5,0 342.5,-19"/>
<text text-anchor="middle" x="302.5" y="-7" font-family="Helvetica,sans-Serif" font-size="10.00">EchoProtocol</text>
</a>
</g>
</g>
<!-- NextHopNetworkLayer&#45;&gt;EchoProtocol -->
<g id="edge3" class="edge">
<title>NextHopNetworkLayer&#45;&gt;EchoProtocol</title>
<path fill="none" stroke="black" d="M343.41,-54.75C336.34,-47.11 325.91,-35.82 317.35,-26.56"/>
<polygon fill="black" stroke="black" points="319.8,-24.06 310.44,-19.09 314.66,-28.81 319.8,-24.06"/>
</g>
<!-- IdealChannel -->
<g id="node5" class="node">
<title>IdealChannel</title>
<g id="a_node5"><a xlink:href="ned.IdealChannel.html" xlink:title="Channel IdealChannel" target="_parent">
<polygon fill="#d0ffd0" stroke="black" points="440.5,-19 360.5,-19 360.5,0 440.5,0 440.5,-19"/>
<text text-anchor="middle" x="400.5" y="-7" font-family="Helvetica,sans-Serif" font-size="10.00">IdealChannel</text>
</a>
</g>
</g>
<!-- NextHopNetworkLayer&#45;&gt;IdealChannel -->
<g id="edge4" class="edge">
<title>NextHopNetworkLayer&#45;&gt;IdealChannel</title>
<path fill="none" stroke="black" d="M359.59,-54.75C366.66,-47.11 377.09,-35.82 385.65,-26.56"/>
<polygon fill="black" stroke="black" points="388.34,-28.81 392.56,-19.09 383.2,-24.06 388.34,-28.81"/>
</g>
<!-- GlobalArp -->
<g id="node6" class="node">
<title>GlobalArp</title>
<g id="a_node6"><a xlink:href="inet.networklayer.arp.ipv4.GlobalArp.html" xlink:title="Simple Module GlobalArp" target="_parent">
<polygon fill="#fffcaf" stroke="black" points="524,-19 459,-19 459,0 524,0 524,-19"/>
<text text-anchor="middle" x="491.5" y="-7" font-family="Helvetica,sans-Serif" font-size="10.00">GlobalArp</text>
</a>
</g>
</g>
<!-- NextHopNetworkLayer&#45;&gt;GlobalArp -->
<g id="edge5" class="edge">
<title>NextHopNetworkLayer&#45;&gt;GlobalArp</title>
<path fill="none" stroke="black" d="M373.99,-54.98C397.02,-46.27 433.04,-32.63 459.13,-22.75"/>
<polygon fill="black" stroke="black" points="460.48,-25.98 468.6,-19.17 458.01,-19.44 460.48,-25.98"/>
</g>
<!-- NextHopRoutingTable -->
<g id="node7" class="node">
<title>NextHopRoutingTable</title>
<g id="a_node7"><a xlink:href="inet.networklayer.nexthop.NextHopRoutingTable.html" xlink:title="Simple Module NextHopRoutingTable" target="_parent">
<polygon fill="#fffcaf" stroke="black" points="664.5,-19 542.5,-19 542.5,0 664.5,0 664.5,-19"/>
<text text-anchor="middle" x="603.5" y="-7" font-family="Helvetica,sans-Serif" font-size="10.00">NextHopRoutingTable</text>
</a>
</g>
</g>
<!-- NextHopNetworkLayer&#45;&gt;NextHopRoutingTable -->
<g id="edge6" class="edge">
<title>NextHopNetworkLayer&#45;&gt;NextHopRoutingTable</title>
<path fill="none" stroke="black" d="M391.99,-54.98C435.67,-45.8 505.31,-31.15 552.65,-21.19"/>
<polygon fill="black" stroke="black" points="553.63,-24.57 562.69,-19.08 552.19,-17.72 553.63,-24.57"/>
</g>
</g>
</svg>
