<?xml version="1.0" encoding="UTF-8" standalone="no"?>
<!DOCTYPE svg PUBLIC "-//W3C//DTD SVG 1.1//EN"
 "http://www.w3.org/Graphics/SVG/1.1/DTD/svg11.dtd">
<!-- Generated by graphviz version 2.43.0 (0)
 -->
<!-- Title: opp Pages: 1 -->
<svg width="608pt" height="82pt"
 viewBox="0.00 0.00 607.50 82.00" xmlns="http://www.w3.org/2000/svg" xmlns:xlink="http://www.w3.org/1999/xlink">
<g id="graph0" class="graph" transform="scale(1 1) rotate(0) translate(4 78)">
<title>opp</title>
<polygon fill="transparent" stroke="transparent" points="-4,4 -4,-78 603.5,-78 603.5,4 -4,4"/>
<!-- DualIeee8021qFilter -->
<g id="node1" class="node">
<title>DualIeee8021qFilter</title>
<g id="a_node1"><a xlink:href="inet.linklayer.ieee8021q.DualIeee8021qFilter.html" xlink:title="Compound Module DualIeee8021qFilter" target="_parent">
<polygon fill="#fff700" stroke="black" points="351.5,-74 236.5,-74 236.5,-55 351.5,-55 351.5,-74"/>
<text text-anchor="middle" x="294" y="-62" font-family="Helvetica,sans-Serif" font-size="10.00">DualIeee8021qFilter</text>
</a>
</g>
</g>
<!-- IPacketClassifier -->
<g id="node2" class="node">
<title>IPacketClassifier</title>
<g id="a_node2"><a xlink:href="inet.queueing.contract.IPacketClassifier.html" xlink:title="Module Interface IPacketClassifier" target="_parent">
<polygon fill="#fffcaf" stroke="black" stroke-dasharray="5,2" points="96,-19 0,-19 0,0 96,0 96,-19"/>
<text text-anchor="middle" x="48" y="-7" font-family="Helvetica,sans-Serif" font-size="10.00">IPacketClassifier</text>
</a>
</g>
</g>
<!-- DualIeee8021qFilter&#45;&gt;IPacketClassifier -->
<g id="edge1" class="edge">
<title>DualIeee8021qFilter&#45;&gt;IPacketClassifier</title>
<path fill="none" stroke="black" d="M254.48,-54.98C211.83,-45.8 143.85,-31.15 97.64,-21.19"/>
<polygon fill="black" stroke="black" points="98.35,-17.77 87.83,-19.08 96.87,-24.61 98.35,-17.77"/>
</g>
<!-- IPacketGate -->
<g id="node3" class="node">
<title>IPacketGate</title>
<g id="a_node3"><a xlink:href="inet.queueing.contract.IPacketGate.html" xlink:title="Module Interface IPacketGate" target="_parent">
<polygon fill="#fffcaf" stroke="black" stroke-dasharray="5,2" points="188,-19 114,-19 114,0 188,0 188,-19"/>
<text text-anchor="middle" x="151" y="-7" font-family="Helvetica,sans-Serif" font-size="10.00">IPacketGate</text>
</a>
</g>
</g>
<!-- DualIeee8021qFilter&#45;&gt;IPacketGate -->
<g id="edge2" class="edge">
<title>DualIeee8021qFilter&#45;&gt;IPacketGate</title>
<path fill="none" stroke="black" d="M271.02,-54.98C247.5,-46.27 210.71,-32.63 184.06,-22.75"/>
<polygon fill="black" stroke="black" points="184.99,-19.36 174.39,-19.17 182.55,-25.93 184.99,-19.36"/>
</g>
<!-- IPacketMeter -->
<g id="node4" class="node">
<title>IPacketMeter</title>
<g id="a_node4"><a xlink:href="inet.queueing.contract.IPacketMeter.html" xlink:title="Module Interface IPacketMeter" target="_parent">
<polygon fill="#fffcaf" stroke="black" stroke-dasharray="5,2" points="286,-19 206,-19 206,0 286,0 286,-19"/>
<text text-anchor="middle" x="246" y="-7" font-family="Helvetica,sans-Serif" font-size="10.00">IPacketMeter</text>
</a>
</g>
</g>
<!-- DualIeee8021qFilter&#45;&gt;IPacketMeter -->
<g id="edge3" class="edge">
<title>DualIeee8021qFilter&#45;&gt;IPacketMeter</title>
<path fill="none" stroke="black" d="M286.07,-54.75C279.15,-47.11 268.93,-35.82 260.55,-26.56"/>
<polygon fill="black" stroke="black" points="263.09,-24.15 253.78,-19.09 257.9,-28.85 263.09,-24.15"/>
</g>
<!-- IPacketFilter -->
<g id="node5" class="node">
<title>IPacketFilter</title>
<g id="a_node5"><a xlink:href="inet.queueing.contract.IPacketFilter.html" xlink:title="Module Interface IPacketFilter" target="_parent">
<polygon fill="#fffcaf" stroke="black" stroke-dasharray="5,2" points="380,-19 304,-19 304,0 380,0 380,-19"/>
<text text-anchor="middle" x="342" y="-7" font-family="Helvetica,sans-Serif" font-size="10.00">IPacketFilter</text>
</a>
</g>
</g>
<!-- DualIeee8021qFilter&#45;&gt;IPacketFilter -->
<g id="edge4" class="edge">
<title>DualIeee8021qFilter&#45;&gt;IPacketFilter</title>
<path fill="none" stroke="black" d="M301.93,-54.75C308.85,-47.11 319.07,-35.82 327.45,-26.56"/>
<polygon fill="black" stroke="black" points="330.1,-28.85 334.22,-19.09 324.91,-24.15 330.1,-28.85"/>
</g>
<!-- IdealChannel -->
<g id="node6" class="node">
<title>IdealChannel</title>
<g id="a_node6"><a xlink:href="ned.IdealChannel.html" xlink:title="Channel IdealChannel" target="_parent">
<polygon fill="#d0ffd0" stroke="black" points="478,-19 398,-19 398,0 478,0 478,-19"/>
<text text-anchor="middle" x="438" y="-7" font-family="Helvetica,sans-Serif" font-size="10.00">IdealChannel</text>
</a>
</g>
</g>
<!-- DualIeee8021qFilter&#45;&gt;IdealChannel -->
<g id="edge5" class="edge">
<title>DualIeee8021qFilter&#45;&gt;IdealChannel</title>
<path fill="none" stroke="black" d="M317.14,-54.98C340.82,-46.27 377.87,-32.63 404.71,-22.75"/>
<polygon fill="black" stroke="black" points="406.27,-25.91 414.44,-19.17 403.85,-19.34 406.27,-25.91"/>
</g>
<!-- PacketMultiplexer -->
<g id="node7" class="node">
<title>PacketMultiplexer</title>
<g id="a_node7"><a xlink:href="inet.queueing.common.PacketMultiplexer.html" xlink:title="Simple Module PacketMultiplexer" target="_parent">
<polygon fill="#fffcaf" stroke="black" points="599.5,-19 496.5,-19 496.5,0 599.5,0 599.5,-19"/>
<text text-anchor="middle" x="548" y="-7" font-family="Helvetica,sans-Serif" font-size="10.00">PacketMultiplexer</text>
</a>
</g>
</g>
<!-- DualIeee8021qFilter&#45;&gt;PacketMultiplexer -->
<g id="edge6" class="edge">
<title>DualIeee8021qFilter&#45;&gt;PacketMultiplexer</title>
<path fill="none" stroke="black" d="M334.81,-54.98C378.93,-45.78 449.33,-31.09 497.05,-21.13"/>
<polygon fill="black" stroke="black" points="497.8,-24.55 506.87,-19.08 496.37,-17.7 497.8,-24.55"/>
</g>
</g>
</svg>
