<?xml version="1.0" encoding="UTF-8" standalone="no"?>
<!DOCTYPE svg PUBLIC "-//W3C//DTD SVG 1.1//EN"
 "http://www.w3.org/Graphics/SVG/1.1/DTD/svg11.dtd">
<!-- Generated by graphviz version 2.43.0 (0)
 -->
<!-- Title: opp Pages: 1 -->
<svg width="576pt" height="82pt"
 viewBox="0.00 0.00 576.00 82.00" xmlns="http://www.w3.org/2000/svg" xmlns:xlink="http://www.w3.org/1999/xlink">
<g id="graph0" class="graph" transform="scale(1 1) rotate(0) translate(4 78)">
<title>opp</title>
<polygon fill="transparent" stroke="transparent" points="-4,4 -4,-78 572,-78 572,4 -4,4"/>
<!-- Ieee8022LlcApp -->
<g id="node1" class="node">
<title>Ieee8022LlcApp</title>
<g id="a_node1"><a xlink:href="inet.applications.ieee8022.Ieee8022LlcApp.html" xlink:title="Compound Module Ieee8022LlcApp" target="_parent">
<polygon fill="#fff700" stroke="black" points="346,-74 252,-74 252,-55 346,-55 346,-74"/>
<text text-anchor="middle" x="299" y="-62" font-family="Helvetica,sans-Serif" font-size="10.00">Ieee8022LlcApp</text>
</a>
</g>
</g>
<!-- Ieee8022LlcSocketIo -->
<g id="node2" class="node">
<title>Ieee8022LlcSocketIo</title>
<g id="a_node2"><a xlink:href="inet.applications.ieee8022.Ieee8022LlcSocketIo.html" xlink:title="Simple Module Ieee8022LlcSocketIo" target="_parent">
<polygon fill="#fffcaf" stroke="black" points="116,-19 0,-19 0,0 116,0 116,-19"/>
<text text-anchor="middle" x="58" y="-7" font-family="Helvetica,sans-Serif" font-size="10.00">Ieee8022LlcSocketIo</text>
</a>
</g>
</g>
<!-- Ieee8022LlcApp&#45;&gt;Ieee8022LlcSocketIo -->
<g id="edge1" class="edge">
<title>Ieee8022LlcApp&#45;&gt;Ieee8022LlcSocketIo</title>
<path fill="none" stroke="black" d="M260.28,-54.98C218.59,-45.82 152.18,-31.21 106.91,-21.26"/>
<polygon fill="black" stroke="black" points="107.54,-17.81 97.02,-19.08 106.04,-24.65 107.54,-17.81"/>
</g>
<!-- IPassivePacketSink -->
<g id="node3" class="node">
<title>IPassivePacketSink</title>
<g id="a_node3"><a xlink:href="inet.queueing.contract.IPassivePacketSink.html" xlink:title="Module Interface IPassivePacketSink" target="_parent">
<polygon fill="#fffcaf" stroke="black" stroke-dasharray="5,2" points="243.5,-19 134.5,-19 134.5,0 243.5,0 243.5,-19"/>
<text text-anchor="middle" x="189" y="-7" font-family="Helvetica,sans-Serif" font-size="10.00">IPassivePacketSink</text>
</a>
</g>
</g>
<!-- Ieee8022LlcApp&#45;&gt;IPassivePacketSink -->
<g id="edge2" class="edge">
<title>Ieee8022LlcApp&#45;&gt;IPassivePacketSink</title>
<path fill="none" stroke="black" d="M281.33,-54.98C263.71,-46.5 236.42,-33.35 216.07,-23.54"/>
<polygon fill="black" stroke="black" points="217.52,-20.36 206.99,-19.17 214.48,-26.66 217.52,-20.36"/>
</g>
<!-- IPacketFlow -->
<g id="node4" class="node">
<title>IPacketFlow</title>
<g id="a_node4"><a xlink:href="inet.queueing.contract.IPacketFlow.html" xlink:title="Module Interface IPacketFlow" target="_parent">
<polygon fill="#fffcaf" stroke="black" stroke-dasharray="5,2" points="336,-19 262,-19 262,0 336,0 336,-19"/>
<text text-anchor="middle" x="299" y="-7" font-family="Helvetica,sans-Serif" font-size="10.00">IPacketFlow</text>
</a>
</g>
</g>
<!-- Ieee8022LlcApp&#45;&gt;IPacketFlow -->
<g id="edge3" class="edge">
<title>Ieee8022LlcApp&#45;&gt;IPacketFlow</title>
<path fill="none" stroke="black" d="M299,-54.75C299,-47.8 299,-37.85 299,-29.13"/>
<polygon fill="black" stroke="black" points="302.5,-29.09 299,-19.09 295.5,-29.09 302.5,-29.09"/>
</g>
<!-- IActivePacketSource -->
<g id="node5" class="node">
<title>IActivePacketSource</title>
<g id="a_node5"><a xlink:href="inet.queueing.contract.IActivePacketSource.html" xlink:title="Module Interface IActivePacketSource" target="_parent">
<polygon fill="#fffcaf" stroke="black" stroke-dasharray="5,2" points="469.5,-19 354.5,-19 354.5,0 469.5,0 469.5,-19"/>
<text text-anchor="middle" x="412" y="-7" font-family="Helvetica,sans-Serif" font-size="10.00">IActivePacketSource</text>
</a>
</g>
</g>
<!-- Ieee8022LlcApp&#45;&gt;IActivePacketSource -->
<g id="edge4" class="edge">
<title>Ieee8022LlcApp&#45;&gt;IActivePacketSource</title>
<path fill="none" stroke="black" d="M317.16,-54.98C335.25,-46.5 363.28,-33.35 384.19,-23.54"/>
<polygon fill="black" stroke="black" points="385.95,-26.59 393.51,-19.17 382.97,-20.25 385.95,-26.59"/>
</g>
<!-- IdealChannel -->
<g id="node6" class="node">
<title>IdealChannel</title>
<g id="a_node6"><a xlink:href="ned.IdealChannel.html" xlink:title="Channel IdealChannel" target="_parent">
<polygon fill="#d0ffd0" stroke="black" points="568,-19 488,-19 488,0 568,0 568,-19"/>
<text text-anchor="middle" x="528" y="-7" font-family="Helvetica,sans-Serif" font-size="10.00">IdealChannel</text>
</a>
</g>
</g>
<!-- Ieee8022LlcApp&#45;&gt;IdealChannel -->
<g id="edge5" class="edge">
<title>Ieee8022LlcApp&#45;&gt;IdealChannel</title>
<path fill="none" stroke="black" d="M335.79,-54.98C375.24,-45.86 437.98,-31.33 480.98,-21.38"/>
<polygon fill="black" stroke="black" points="481.97,-24.75 490.92,-19.08 480.39,-17.93 481.97,-24.75"/>
</g>
</g>
</svg>
