<?xml version="1.0" encoding="UTF-8" standalone="no"?>
<!DOCTYPE svg PUBLIC "-//W3C//DTD SVG 1.1//EN"
 "http://www.w3.org/Graphics/SVG/1.1/DTD/svg11.dtd">
<!-- Generated by graphviz version 2.43.0 (0)
 -->
<!-- Title: opp Pages: 1 -->
<svg width="281pt" height="82pt"
 viewBox="0.00 0.00 281.00 82.00" xmlns="http://www.w3.org/2000/svg" xmlns:xlink="http://www.w3.org/1999/xlink">
<g id="graph0" class="graph" transform="scale(1 1) rotate(0) translate(4 78)">
<title>opp</title>
<polygon fill="transparent" stroke="transparent" points="-4,4 -4,-78 277,-78 277,4 -4,4"/>
<!-- Network1 -->
<g id="node1" class="node">
<title>Network1</title>
<g id="a_node1"><a xlink:href="inet.tutorials.protocol.Network1.html" xlink:title="Network Network1" target="_parent">
<polygon fill="#9090ff" stroke="black" points="172.5,-74 108.5,-74 108.5,-55 172.5,-55 172.5,-74"/>
<text text-anchor="middle" x="140.5" y="-62" font-family="Helvetica,sans-Serif" font-size="10.00">Network1</text>
</a>
</g>
</g>
<!-- DelayChannel -->
<g id="node2" class="node">
<title>DelayChannel</title>
<g id="a_node2"><a xlink:href="ned.DelayChannel.html" xlink:title="Channel DelayChannel" target="_parent">
<polygon fill="#d0ffd0" stroke="black" points="85,-19 0,-19 0,0 85,0 85,-19"/>
<text text-anchor="middle" x="42.5" y="-7" font-family="Helvetica,sans-Serif" font-size="10.00">DelayChannel</text>
</a>
</g>
</g>
<!-- Network1&#45;&gt;DelayChannel -->
<g id="edge1" class="edge">
<title>Network1&#45;&gt;DelayChannel</title>
<path fill="none" stroke="black" d="M124.75,-54.98C109.27,-46.61 85.41,-33.7 67.36,-23.95"/>
<polygon fill="black" stroke="black" points="68.99,-20.85 58.53,-19.17 65.66,-27.01 68.99,-20.85"/>
</g>
<!-- ClientHost1 -->
<g id="node3" class="node">
<title>ClientHost1</title>
<g id="a_node3"><a xlink:href="inet.tutorials.protocol.ClientHost1.html" xlink:title="Compound Module ClientHost1" target="_parent">
<polygon fill="#fffcaf" stroke="black" points="177.5,-19 103.5,-19 103.5,0 177.5,0 177.5,-19"/>
<text text-anchor="middle" x="140.5" y="-7" font-family="Helvetica,sans-Serif" font-size="10.00">ClientHost1</text>
</a>
</g>
</g>
<!-- Network1&#45;&gt;ClientHost1 -->
<g id="edge2" class="edge">
<title>Network1&#45;&gt;ClientHost1</title>
<path fill="none" stroke="black" d="M140.5,-54.75C140.5,-47.8 140.5,-37.85 140.5,-29.13"/>
<polygon fill="black" stroke="black" points="144,-29.09 140.5,-19.09 137,-29.09 144,-29.09"/>
</g>
<!-- ServerHost1 -->
<g id="node4" class="node">
<title>ServerHost1</title>
<g id="a_node4"><a xlink:href="inet.tutorials.protocol.ServerHost1.html" xlink:title="Compound Module ServerHost1" target="_parent">
<polygon fill="#fffcaf" stroke="black" points="273,-19 196,-19 196,0 273,0 273,-19"/>
<text text-anchor="middle" x="234.5" y="-7" font-family="Helvetica,sans-Serif" font-size="10.00">ServerHost1</text>
</a>
</g>
</g>
<!-- Network1&#45;&gt;ServerHost1 -->
<g id="edge3" class="edge">
<title>Network1&#45;&gt;ServerHost1</title>
<path fill="none" stroke="black" d="M155.6,-54.98C170.32,-46.69 192.92,-33.94 210.17,-24.22"/>
<polygon fill="black" stroke="black" points="212.13,-27.13 219.12,-19.17 208.69,-21.03 212.13,-27.13"/>
</g>
</g>
</svg>
