<?xml version="1.0" encoding="UTF-8" standalone="no"?>
<!DOCTYPE svg PUBLIC "-//W3C//DTD SVG 1.1//EN"
 "http://www.w3.org/Graphics/SVG/1.1/DTD/svg11.dtd">
<!-- Generated by graphviz version 2.43.0 (0)
 -->
<!-- Title: opp Pages: 1 -->
<svg width="308pt" height="82pt"
 viewBox="0.00 0.00 307.50 82.00" xmlns="http://www.w3.org/2000/svg" xmlns:xlink="http://www.w3.org/1999/xlink">
<g id="graph0" class="graph" transform="scale(1 1) rotate(0) translate(4 78)">
<title>opp</title>
<polygon fill="transparent" stroke="transparent" points="-4,4 -4,-78 303.5,-78 303.5,4 -4,4"/>
<!-- ILayeredErrorModel -->
<g id="node1" class="node">
<title>ILayeredErrorModel</title>
<g id="a_node1"><a xlink:href="inet.physicallayer.wireless.common.contract.bitlevel.ILayeredErrorModel.html" xlink:title="Module Interface ILayeredErrorModel" target="_parent">
<polygon fill="#fff700" stroke="black" stroke-dasharray="5,2" points="209,-74 97,-74 97,-55 209,-55 209,-74"/>
<text text-anchor="middle" x="153" y="-62" font-family="Helvetica,sans-Serif" font-size="10.00">ILayeredErrorModel</text>
</a>
</g>
</g>
<!-- Ieee80211OfdmErrorModel -->
<g id="node2" class="node">
<title>Ieee80211OfdmErrorModel</title>
<g id="a_node2"><a xlink:href="inet.physicallayer.wireless.ieee80211.bitlevel.errormodel.Ieee80211OfdmErrorModel.html" xlink:title="Compound Module Ieee80211OfdmErrorModel" target="_parent">
<polygon fill="#fffcaf" stroke="black" points="148,-19 0,-19 0,0 148,0 148,-19"/>
<text text-anchor="middle" x="74" y="-7" font-family="Helvetica,sans-Serif" font-size="10.00">Ieee80211OfdmErrorModel</text>
</a>
</g>
</g>
<!-- ILayeredErrorModel&#45;&gt;Ieee80211OfdmErrorModel -->
<g id="edge1" class="edge">
<title>ILayeredErrorModel&#45;&gt;Ieee80211OfdmErrorModel</title>
<path fill="none" stroke="black" stroke-dasharray="5,2" d="M140.31,-54.98C125.65,-45.15 101.68,-29.07 86.92,-19.17"/>
</g>
<!-- LayeredErrorModelBase -->
<g id="node3" class="node">
<title>LayeredErrorModelBase</title>
<g id="a_node3"><a xlink:href="inet.physicallayer.wireless.common.base.bitlevel.LayeredErrorModelBase.html" xlink:title="Compound Module LayeredErrorModelBase" target="_parent">
<polygon fill="#fffcaf" stroke="black" points="299.5,-19 166.5,-19 166.5,0 299.5,0 299.5,-19"/>
<text text-anchor="middle" x="233" y="-7" font-family="Helvetica,sans-Serif" font-size="10.00">LayeredErrorModelBase</text>
</a>
</g>
</g>
<!-- ILayeredErrorModel&#45;&gt;LayeredErrorModelBase -->
<g id="edge2" class="edge">
<title>ILayeredErrorModel&#45;&gt;LayeredErrorModelBase</title>
<path fill="none" stroke="black" stroke-dasharray="5,2" d="M165.85,-54.98C180.69,-45.15 204.97,-29.07 219.91,-19.17"/>
</g>
</g>
</svg>
