<?xml version="1.0" encoding="UTF-8" standalone="no"?>
<!DOCTYPE svg PUBLIC "-//W3C//DTD SVG 1.1//EN"
 "http://www.w3.org/Graphics/SVG/1.1/DTD/svg11.dtd">
<!-- Generated by graphviz version 2.43.0 (0)
 -->
<!-- Title: opp Pages: 1 -->
<svg width="808pt" height="137pt"
 viewBox="0.00 0.00 808.00 137.00" xmlns="http://www.w3.org/2000/svg" xmlns:xlink="http://www.w3.org/1999/xlink">
<g id="graph0" class="graph" transform="scale(1 1) rotate(0) translate(4 133)">
<title>opp</title>
<polygon fill="transparent" stroke="transparent" points="-4,4 -4,-133 804,-133 804,4 -4,4"/>
<!-- ClientHost5 -->
<g id="node1" class="node">
<title>ClientHost5</title>
<g id="a_node1"><a xlink:href="inet.tutorials.protocol.ClientHost5.html" xlink:title="Compound Module ClientHost5" target="_parent">
<polygon fill="#fff700" stroke="black" points="459,-74 385,-74 385,-55 459,-55 459,-74"/>
<text text-anchor="middle" x="422" y="-62" font-family="Helvetica,sans-Serif" font-size="10.00">ClientHost5</text>
</a>
</g>
</g>
<!-- FcsHeaderInserter -->
<g id="node2" class="node">
<title>FcsHeaderInserter</title>
<g id="a_node2"><a xlink:href="inet.protocolelement.checksum.FcsHeaderInserter.html" xlink:title="Simple Module FcsHeaderInserter" target="_parent">
<polygon fill="#fffcaf" stroke="black" points="106,-19 0,-19 0,0 106,0 106,-19"/>
<text text-anchor="middle" x="53" y="-7" font-family="Helvetica,sans-Serif" font-size="10.00">FcsHeaderInserter</text>
</a>
</g>
</g>
<!-- ClientHost5&#45;&gt;FcsHeaderInserter -->
<g id="edge1" class="edge">
<title>ClientHost5&#45;&gt;FcsHeaderInserter</title>
<path fill="none" stroke="black" d="M384.93,-58.18C322.05,-49.14 193.79,-30.72 116.42,-19.61"/>
<polygon fill="black" stroke="black" points="116.71,-16.11 106.31,-18.16 115.71,-23.04 116.71,-16.11"/>
</g>
<!-- InstantServer -->
<g id="node3" class="node">
<title>InstantServer</title>
<g id="a_node3"><a xlink:href="inet.queueing.server.InstantServer.html" xlink:title="Simple Module InstantServer" target="_parent">
<polygon fill="#fffcaf" stroke="black" points="206,-19 124,-19 124,0 206,0 206,-19"/>
<text text-anchor="middle" x="165" y="-7" font-family="Helvetica,sans-Serif" font-size="10.00">InstantServer</text>
</a>
</g>
</g>
<!-- ClientHost5&#45;&gt;InstantServer -->
<g id="edge2" class="edge">
<title>ClientHost5&#45;&gt;InstantServer</title>
<path fill="none" stroke="black" d="M384.9,-55.85C340.56,-46.7 266.1,-31.35 216.27,-21.07"/>
<polygon fill="black" stroke="black" points="216.84,-17.62 206.34,-19.03 215.43,-24.47 216.84,-17.62"/>
</g>
<!-- InterpacketGapInserter -->
<g id="node4" class="node">
<title>InterpacketGapInserter</title>
<g id="a_node4"><a xlink:href="inet.protocolelement.common.InterpacketGapInserter.html" xlink:title="Simple Module InterpacketGapInserter" target="_parent">
<polygon fill="#fffcaf" stroke="black" points="352,-19 224,-19 224,0 352,0 352,-19"/>
<text text-anchor="middle" x="288" y="-7" font-family="Helvetica,sans-Serif" font-size="10.00">InterpacketGapInserter</text>
</a>
</g>
</g>
<!-- ClientHost5&#45;&gt;InterpacketGapInserter -->
<g id="edge3" class="edge">
<title>ClientHost5&#45;&gt;InterpacketGapInserter</title>
<path fill="none" stroke="black" d="M400.47,-54.98C378.53,-46.3 344.26,-32.75 319.31,-22.88"/>
<polygon fill="black" stroke="black" points="320.51,-19.59 309.92,-19.17 317.93,-26.1 320.51,-19.59"/>
</g>
<!-- PacketTransmitter -->
<g id="node5" class="node">
<title>PacketTransmitter</title>
<g id="a_node5"><a xlink:href="inet.protocolelement.transceiver.PacketTransmitter.html" xlink:title="Simple Module PacketTransmitter" target="_parent">
<polygon fill="#fffcaf" stroke="black" points="474,-19 370,-19 370,0 474,0 474,-19"/>
<text text-anchor="middle" x="422" y="-7" font-family="Helvetica,sans-Serif" font-size="10.00">PacketTransmitter</text>
</a>
</g>
</g>
<!-- ClientHost5&#45;&gt;PacketTransmitter -->
<g id="edge4" class="edge">
<title>ClientHost5&#45;&gt;PacketTransmitter</title>
<path fill="none" stroke="black" d="M422,-54.75C422,-47.8 422,-37.85 422,-29.13"/>
<polygon fill="black" stroke="black" points="425.5,-29.09 422,-19.09 418.5,-29.09 425.5,-29.09"/>
</g>
<!-- PacketQueue -->
<g id="node6" class="node">
<title>PacketQueue</title>
<g id="a_node6"><a xlink:href="inet.queueing.queue.PacketQueue.html" xlink:title="Simple Module PacketQueue" target="_parent">
<polygon fill="#fffcaf" stroke="black" points="572,-19 492,-19 492,0 572,0 572,-19"/>
<text text-anchor="middle" x="532" y="-7" font-family="Helvetica,sans-Serif" font-size="10.00">PacketQueue</text>
</a>
</g>
</g>
<!-- ClientHost5&#45;&gt;PacketQueue -->
<g id="edge5" class="edge">
<title>ClientHost5&#45;&gt;PacketQueue</title>
<path fill="none" stroke="black" d="M439.67,-54.98C457.29,-46.5 484.58,-33.35 504.93,-23.54"/>
<polygon fill="black" stroke="black" points="506.52,-26.66 514.01,-19.17 503.48,-20.36 506.52,-26.66"/>
</g>
<!-- IdealChannel -->
<g id="node7" class="node">
<title>IdealChannel</title>
<g id="a_node7"><a xlink:href="ned.IdealChannel.html" xlink:title="Channel IdealChannel" target="_parent">
<polygon fill="#d0ffd0" stroke="black" points="670,-19 590,-19 590,0 670,0 670,-19"/>
<text text-anchor="middle" x="630" y="-7" font-family="Helvetica,sans-Serif" font-size="10.00">IdealChannel</text>
</a>
</g>
</g>
<!-- ClientHost5&#45;&gt;IdealChannel -->
<g id="edge6" class="edge">
<title>ClientHost5&#45;&gt;IdealChannel</title>
<path fill="none" stroke="black" d="M455.42,-54.98C490.94,-45.93 547.27,-31.58 586.3,-21.64"/>
<polygon fill="black" stroke="black" points="587.49,-24.94 596.32,-19.08 585.76,-18.16 587.49,-24.94"/>
</g>
<!-- ActivePacketSource -->
<g id="node8" class="node">
<title>ActivePacketSource</title>
<g id="a_node8"><a xlink:href="inet.queueing.source.ActivePacketSource.html" xlink:title="Simple Module ActivePacketSource" target="_parent">
<polygon fill="#fffcaf" stroke="black" points="800,-19 688,-19 688,0 800,0 800,-19"/>
<text text-anchor="middle" x="744" y="-7" font-family="Helvetica,sans-Serif" font-size="10.00">ActivePacketSource</text>
</a>
</g>
</g>
<!-- ClientHost5&#45;&gt;ActivePacketSource -->
<g id="edge7" class="edge">
<title>ClientHost5&#45;&gt;ActivePacketSource</title>
<path fill="none" stroke="black" d="M459.25,-57.37C513.78,-48.39 616,-31.57 681.98,-20.71"/>
<polygon fill="black" stroke="black" points="682.94,-24.1 692.24,-19.02 681.8,-17.19 682.94,-24.1"/>
</g>
<!-- Network5 -->
<g id="node9" class="node">
<title>Network5</title>
<g id="a_node9"><a xlink:href="inet.tutorials.protocol.Network5.html" xlink:title="Network Network5" target="_parent">
<polygon fill="#d0d0ff" stroke="black" points="454,-129 390,-129 390,-110 454,-110 454,-129"/>
<text text-anchor="middle" x="422" y="-117" font-family="Helvetica,sans-Serif" font-size="10.00">Network5</text>
</a>
</g>
</g>
<!-- Network5&#45;&gt;ClientHost5 -->
<g id="edge8" class="edge">
<title>Network5&#45;&gt;ClientHost5</title>
<path fill="none" stroke="black" d="M422,-109.75C422,-102.8 422,-92.85 422,-84.13"/>
<polygon fill="black" stroke="black" points="425.5,-84.09 422,-74.09 418.5,-84.09 425.5,-84.09"/>
</g>
</g>
</svg>
