<?xml version="1.0" encoding="UTF-8" standalone="no"?>
<!DOCTYPE svg PUBLIC "-//W3C//DTD SVG 1.1//EN"
 "http://www.w3.org/Graphics/SVG/1.1/DTD/svg11.dtd">
<!-- Generated by graphviz version 2.43.0 (0)
 -->
<!-- Title: opp Pages: 1 -->
<svg width="952pt" height="137pt"
 viewBox="0.00 0.00 952.00 137.00" xmlns="http://www.w3.org/2000/svg" xmlns:xlink="http://www.w3.org/1999/xlink">
<g id="graph0" class="graph" transform="scale(1 1) rotate(0) translate(4 133)">
<title>opp</title>
<polygon fill="transparent" stroke="transparent" points="-4,4 -4,-133 948,-133 948,4 -4,4"/>
<!-- IPacketMeter -->
<g id="node1" class="node">
<title>IPacketMeter</title>
<g id="a_node1"><a xlink:href="inet.queueing.contract.IPacketMeter.html" xlink:title="Module Interface IPacketMeter" target="_parent">
<polygon fill="#fff700" stroke="black" stroke-dasharray="5,2" points="502,-74 422,-74 422,-55 502,-55 502,-74"/>
<text text-anchor="middle" x="462" y="-62" font-family="Helvetica,sans-Serif" font-size="10.00">IPacketMeter</text>
</a>
</g>
</g>
<!-- EligibilityTimeMeter -->
<g id="node3" class="node">
<title>EligibilityTimeMeter</title>
<g id="a_node3"><a xlink:href="inet.protocolelement.shaper.EligibilityTimeMeter.html" xlink:title="Simple Module EligibilityTimeMeter" target="_parent">
<polygon fill="#fffcaf" stroke="black" points="116,-19 0,-19 0,0 116,0 116,-19"/>
<text text-anchor="middle" x="58" y="-7" font-family="Helvetica,sans-Serif" font-size="10.00">EligibilityTimeMeter</text>
</a>
</g>
</g>
<!-- IPacketMeter&#45;&gt;EligibilityTimeMeter -->
<g id="edge2" class="edge">
<title>IPacketMeter&#45;&gt;EligibilityTimeMeter</title>
<path fill="none" stroke="black" stroke-dasharray="5,2" d="M421.79,-58.22C349.94,-48.8 199.27,-29.03 116.15,-18.13"/>
</g>
<!-- ExponentialRateMeter -->
<g id="node4" class="node">
<title>ExponentialRateMeter</title>
<g id="a_node4"><a xlink:href="inet.queueing.meter.ExponentialRateMeter.html" xlink:title="Simple Module ExponentialRateMeter" target="_parent">
<polygon fill="#fffcaf" stroke="black" points="259.5,-19 134.5,-19 134.5,0 259.5,0 259.5,-19"/>
<text text-anchor="middle" x="197" y="-7" font-family="Helvetica,sans-Serif" font-size="10.00">ExponentialRateMeter</text>
</a>
</g>
</g>
<!-- IPacketMeter&#45;&gt;ExponentialRateMeter -->
<g id="edge3" class="edge">
<title>IPacketMeter&#45;&gt;ExponentialRateMeter</title>
<path fill="none" stroke="black" stroke-dasharray="5,2" d="M421.75,-55.45C372.67,-45.63 290.05,-29.11 239.83,-19.07"/>
</g>
<!-- MultiPacketMeter -->
<g id="node5" class="node">
<title>MultiPacketMeter</title>
<g id="a_node5"><a xlink:href="inet.queueing.meter.MultiPacketMeter.html" xlink:title="Compound Module MultiPacketMeter" target="_parent">
<polygon fill="#fffcaf" stroke="black" points="378.5,-19 277.5,-19 277.5,0 378.5,0 378.5,-19"/>
<text text-anchor="middle" x="328" y="-7" font-family="Helvetica,sans-Serif" font-size="10.00">MultiPacketMeter</text>
</a>
</g>
</g>
<!-- IPacketMeter&#45;&gt;MultiPacketMeter -->
<g id="edge4" class="edge">
<title>IPacketMeter&#45;&gt;MultiPacketMeter</title>
<path fill="none" stroke="black" stroke-dasharray="5,2" d="M440.47,-54.98C415.61,-45.15 374.94,-29.07 349.92,-19.17"/>
</g>
<!-- MultiTokenBucketMeter -->
<g id="node6" class="node">
<title>MultiTokenBucketMeter</title>
<g id="a_node6"><a xlink:href="inet.queueing.meter.MultiTokenBucketMeter.html" xlink:title="Simple Module MultiTokenBucketMeter" target="_parent">
<polygon fill="#fffcaf" stroke="black" points="527.5,-19 396.5,-19 396.5,0 527.5,0 527.5,-19"/>
<text text-anchor="middle" x="462" y="-7" font-family="Helvetica,sans-Serif" font-size="10.00">MultiTokenBucketMeter</text>
</a>
</g>
</g>
<!-- IPacketMeter&#45;&gt;MultiTokenBucketMeter -->
<g id="edge5" class="edge">
<title>IPacketMeter&#45;&gt;MultiTokenBucketMeter</title>
<path fill="none" stroke="black" stroke-dasharray="5,2" d="M462,-54.75C462,-44.87 462,-28.9 462,-19.09"/>
</g>
<!-- OmittedPacketMeter -->
<g id="node7" class="node">
<title>OmittedPacketMeter</title>
<g id="a_node7"><a xlink:href="inet.queueing.meter.OmittedPacketMeter.html" xlink:title="Compound Module OmittedPacketMeter" target="_parent">
<polygon fill="#fffcaf" stroke="black" points="662,-19 546,-19 546,0 662,0 662,-19"/>
<text text-anchor="middle" x="604" y="-7" font-family="Helvetica,sans-Serif" font-size="10.00">OmittedPacketMeter</text>
</a>
</g>
</g>
<!-- IPacketMeter&#45;&gt;OmittedPacketMeter -->
<g id="edge6" class="edge">
<title>IPacketMeter&#45;&gt;OmittedPacketMeter</title>
<path fill="none" stroke="black" stroke-dasharray="5,2" d="M484.81,-54.98C511.16,-45.15 554.25,-29.07 580.77,-19.17"/>
</g>
<!-- SlidingWindowRateMeter -->
<g id="node8" class="node">
<title>SlidingWindowRateMeter</title>
<g id="a_node8"><a xlink:href="inet.queueing.meter.SlidingWindowRateMeter.html" xlink:title="Simple Module SlidingWindowRateMeter" target="_parent">
<polygon fill="#fffcaf" stroke="black" points="820,-19 680,-19 680,0 820,0 820,-19"/>
<text text-anchor="middle" x="750" y="-7" font-family="Helvetica,sans-Serif" font-size="10.00">SlidingWindowRateMeter</text>
</a>
</g>
</g>
<!-- IPacketMeter&#45;&gt;SlidingWindowRateMeter -->
<g id="edge7" class="edge">
<title>IPacketMeter&#45;&gt;SlidingWindowRateMeter</title>
<path fill="none" stroke="black" stroke-dasharray="5,2" d="M502.05,-56.13C554.9,-46.4 647.78,-29.31 703.63,-19.03"/>
</g>
<!-- TokenBucketMeter -->
<g id="node9" class="node">
<title>TokenBucketMeter</title>
<g id="a_node9"><a xlink:href="inet.queueing.meter.TokenBucketMeter.html" xlink:title="Simple Module TokenBucketMeter" target="_parent">
<polygon fill="#fffcaf" stroke="black" points="944,-19 838,-19 838,0 944,0 944,-19"/>
<text text-anchor="middle" x="891" y="-7" font-family="Helvetica,sans-Serif" font-size="10.00">TokenBucketMeter</text>
</a>
</g>
</g>
<!-- IPacketMeter&#45;&gt;TokenBucketMeter -->
<g id="edge8" class="edge">
<title>IPacketMeter&#45;&gt;TokenBucketMeter</title>
<path fill="none" stroke="black" stroke-dasharray="5,2" d="M502.21,-58.83C569.76,-50.94 710.29,-34.33 829,-19 831.91,-18.62 834.89,-18.23 837.91,-17.83"/>
</g>
<!-- IPacketFlow -->
<g id="node2" class="node">
<title>IPacketFlow</title>
<g id="a_node2"><a xlink:href="inet.queueing.contract.IPacketFlow.html" xlink:title="Module Interface IPacketFlow" target="_parent">
<polygon fill="#fffcaf" stroke="black" stroke-dasharray="5,2" points="499,-129 425,-129 425,-110 499,-110 499,-129"/>
<text text-anchor="middle" x="462" y="-117" font-family="Helvetica,sans-Serif" font-size="10.00">IPacketFlow</text>
</a>
</g>
</g>
<!-- IPacketFlow&#45;&gt;IPacketMeter -->
<g id="edge1" class="edge">
<title>IPacketFlow&#45;&gt;IPacketMeter</title>
<path fill="none" stroke="black" d="M462,-109.75C462,-99.87 462,-83.9 462,-74.09"/>
</g>
</g>
</svg>
