<?xml version="1.0" encoding="UTF-8" standalone="no"?>
<!DOCTYPE svg PUBLIC "-//W3C//DTD SVG 1.1//EN"
 "http://www.w3.org/Graphics/SVG/1.1/DTD/svg11.dtd">
<!-- Generated by graphviz version 2.43.0 (0)
 -->
<!-- Title: opp Pages: 1 -->
<svg width="103pt" height="137pt"
 viewBox="0.00 0.00 103.00 137.00" xmlns="http://www.w3.org/2000/svg" xmlns:xlink="http://www.w3.org/1999/xlink">
<g id="graph0" class="graph" transform="scale(1 1) rotate(0) translate(4 133)">
<title>opp</title>
<polygon fill="transparent" stroke="transparent" points="-4,4 -4,-133 99,-133 99,4 -4,4"/>
<!-- AarfRateControl -->
<g id="node1" class="node">
<title>AarfRateControl</title>
<g id="a_node1"><a xlink:href="inet.linklayer.ieee80211.mac.ratecontrol.AarfRateControl.html" xlink:title="Simple Module AarfRateControl" target="_parent">
<polygon fill="#fff700" stroke="black" points="95,-74 0,-74 0,-55 95,-55 95,-74"/>
<text text-anchor="middle" x="47.5" y="-62" font-family="Helvetica,sans-Serif" font-size="10.00">AarfRateControl</text>
</a>
</g>
</g>
<!-- ArfRateControl -->
<g id="node3" class="node">
<title>ArfRateControl</title>
<g id="a_node3"><a xlink:href="inet.linklayer.ieee80211.mac.ratecontrol.ArfRateControl.html" xlink:title="Simple Module ArfRateControl" target="_parent">
<polygon fill="#fffcaf" stroke="black" points="92,-19 3,-19 3,0 92,0 92,-19"/>
<text text-anchor="middle" x="47.5" y="-7" font-family="Helvetica,sans-Serif" font-size="10.00">ArfRateControl</text>
</a>
</g>
</g>
<!-- AarfRateControl&#45;&gt;ArfRateControl -->
<g id="edge2" class="edge">
<title>AarfRateControl&#45;&gt;ArfRateControl</title>
<path fill="none" stroke="black" d="M47.5,-54.75C47.5,-44.87 47.5,-28.9 47.5,-19.09"/>
</g>
<!-- IRateControl -->
<g id="node2" class="node">
<title>IRateControl</title>
<g id="a_node2"><a xlink:href="inet.linklayer.ieee80211.mac.contract.IRateControl.html" xlink:title="Module Interface IRateControl" target="_parent">
<polygon fill="#fffcaf" stroke="black" stroke-dasharray="5,2" points="86,-129 9,-129 9,-110 86,-110 86,-129"/>
<text text-anchor="middle" x="47.5" y="-117" font-family="Helvetica,sans-Serif" font-size="10.00">IRateControl</text>
</a>
</g>
</g>
<!-- IRateControl&#45;&gt;AarfRateControl -->
<g id="edge1" class="edge">
<title>IRateControl&#45;&gt;AarfRateControl</title>
<path fill="none" stroke="black" stroke-dasharray="5,2" d="M47.5,-109.75C47.5,-99.87 47.5,-83.9 47.5,-74.09"/>
</g>
</g>
</svg>
