<?xml version="1.0" encoding="UTF-8" standalone="no"?>
<!DOCTYPE svg PUBLIC "-//W3C//DTD SVG 1.1//EN"
 "http://www.w3.org/Graphics/SVG/1.1/DTD/svg11.dtd">
<!-- Generated by graphviz version 2.43.0 (0)
 -->
<!-- Title: opp Pages: 1 -->
<svg width="385pt" height="82pt"
 viewBox="0.00 0.00 384.50 82.00" xmlns="http://www.w3.org/2000/svg" xmlns:xlink="http://www.w3.org/1999/xlink">
<g id="graph0" class="graph" transform="scale(1 1) rotate(0) translate(4 78)">
<title>opp</title>
<polygon fill="transparent" stroke="transparent" points="-4,4 -4,-78 380.5,-78 380.5,4 -4,4"/>
<!-- IOscillator -->
<g id="node1" class="node">
<title>IOscillator</title>
<g id="a_node1"><a xlink:href="inet.clock.contract.IOscillator.html" xlink:title="Module Interface IOscillator" target="_parent">
<polygon fill="#fff700" stroke="black" stroke-dasharray="5,2" points="223,-74 157,-74 157,-55 223,-55 223,-74"/>
<text text-anchor="middle" x="190" y="-62" font-family="Helvetica,sans-Serif" font-size="10.00">IOscillator</text>
</a>
</g>
</g>
<!-- ConstantDriftOscillator -->
<g id="node2" class="node">
<title>ConstantDriftOscillator</title>
<g id="a_node2"><a xlink:href="inet.clock.oscillator.ConstantDriftOscillator.html" xlink:title="Simple Module ConstantDriftOscillator" target="_parent">
<polygon fill="#fffcaf" stroke="black" points="128,-19 0,-19 0,0 128,0 128,-19"/>
<text text-anchor="middle" x="64" y="-7" font-family="Helvetica,sans-Serif" font-size="10.00">ConstantDriftOscillator</text>
</a>
</g>
</g>
<!-- IOscillator&#45;&gt;ConstantDriftOscillator -->
<g id="edge1" class="edge">
<title>IOscillator&#45;&gt;ConstantDriftOscillator</title>
<path fill="none" stroke="black" stroke-dasharray="5,2" d="M169.76,-54.98C146.38,-45.15 108.14,-29.07 84.61,-19.17"/>
</g>
<!-- IdealOscillator -->
<g id="node3" class="node">
<title>IdealOscillator</title>
<g id="a_node3"><a xlink:href="inet.clock.oscillator.IdealOscillator.html" xlink:title="Simple Module IdealOscillator" target="_parent">
<polygon fill="#fffcaf" stroke="black" points="233.5,-19 146.5,-19 146.5,0 233.5,0 233.5,-19"/>
<text text-anchor="middle" x="190" y="-7" font-family="Helvetica,sans-Serif" font-size="10.00">IdealOscillator</text>
</a>
</g>
</g>
<!-- IOscillator&#45;&gt;IdealOscillator -->
<g id="edge2" class="edge">
<title>IOscillator&#45;&gt;IdealOscillator</title>
<path fill="none" stroke="black" stroke-dasharray="5,2" d="M190,-54.75C190,-44.87 190,-28.9 190,-19.09"/>
</g>
<!-- RandomDriftOscillator -->
<g id="node4" class="node">
<title>RandomDriftOscillator</title>
<g id="a_node4"><a xlink:href="inet.clock.oscillator.RandomDriftOscillator.html" xlink:title="Simple Module RandomDriftOscillator" target="_parent">
<polygon fill="#fffcaf" stroke="black" points="376.5,-19 251.5,-19 251.5,0 376.5,0 376.5,-19"/>
<text text-anchor="middle" x="314" y="-7" font-family="Helvetica,sans-Serif" font-size="10.00">RandomDriftOscillator</text>
</a>
</g>
</g>
<!-- IOscillator&#45;&gt;RandomDriftOscillator -->
<g id="edge3" class="edge">
<title>IOscillator&#45;&gt;RandomDriftOscillator</title>
<path fill="none" stroke="black" stroke-dasharray="5,2" d="M209.92,-54.98C232.93,-45.15 270.56,-29.07 293.71,-19.17"/>
</g>
</g>
</svg>
