<?xml version="1.0" encoding="UTF-8" standalone="no"?>
<!DOCTYPE svg PUBLIC "-//W3C//DTD SVG 1.1//EN"
 "http://www.w3.org/Graphics/SVG/1.1/DTD/svg11.dtd">
<!-- Generated by graphviz version 2.43.0 (0)
 -->
<!-- Title: opp Pages: 1 -->
<svg width="459pt" height="137pt"
 viewBox="0.00 0.00 458.50 137.00" xmlns="http://www.w3.org/2000/svg" xmlns:xlink="http://www.w3.org/1999/xlink">
<g id="graph0" class="graph" transform="scale(1 1) rotate(0) translate(4 133)">
<title>opp</title>
<polygon fill="transparent" stroke="transparent" points="-4,4 -4,-133 454.5,-133 454.5,4 -4,4"/>
<!-- OneNetArea -->
<g id="node1" class="node">
<title>OneNetArea</title>
<g id="a_node1"><a xlink:href="inet.examples.ospfv2.areas.OneNetArea.html" xlink:title="Compound Module OneNetArea" target="_parent">
<polygon fill="#fff700" stroke="black" points="255.5,-74 179.5,-74 179.5,-55 255.5,-55 255.5,-74"/>
<text text-anchor="middle" x="217.5" y="-62" font-family="Helvetica,sans-Serif" font-size="10.00">OneNetArea</text>
</a>
</g>
</g>
<!-- OspfRouter -->
<g id="node2" class="node">
<title>OspfRouter</title>
<g id="a_node2"><a xlink:href="inet.node.ospfv2.OspfRouter.html" xlink:title="Compound Module OspfRouter" target="_parent">
<polygon fill="#fffcaf" stroke="black" points="71,-19 0,-19 0,0 71,0 71,-19"/>
<text text-anchor="middle" x="35.5" y="-7" font-family="Helvetica,sans-Serif" font-size="10.00">OspfRouter</text>
</a>
</g>
</g>
<!-- OneNetArea&#45;&gt;OspfRouter -->
<g id="edge1" class="edge">
<title>OneNetArea&#45;&gt;OspfRouter</title>
<path fill="none" stroke="black" d="M188.26,-54.98C157.44,-46.01 108.72,-31.82 74.61,-21.89"/>
<polygon fill="black" stroke="black" points="75.55,-18.52 64.97,-19.08 73.59,-25.24 75.55,-18.52"/>
</g>
<!-- StandardHost -->
<g id="node3" class="node">
<title>StandardHost</title>
<g id="a_node3"><a xlink:href="inet.node.inet.StandardHost.html" xlink:title="Compound Module StandardHost" target="_parent">
<polygon fill="#fffcaf" stroke="black" points="172,-19 89,-19 89,0 172,0 172,-19"/>
<text text-anchor="middle" x="130.5" y="-7" font-family="Helvetica,sans-Serif" font-size="10.00">StandardHost</text>
</a>
</g>
</g>
<!-- OneNetArea&#45;&gt;StandardHost -->
<g id="edge2" class="edge">
<title>OneNetArea&#45;&gt;StandardHost</title>
<path fill="none" stroke="black" d="M203.52,-54.98C190.03,-46.77 169.37,-34.18 153.46,-24.49"/>
<polygon fill="black" stroke="black" points="155.09,-21.38 144.73,-19.17 151.45,-27.36 155.09,-21.38"/>
</g>
<!-- C -->
<g id="node4" class="node">
<title>C</title>
<g id="a_node4"><a xlink:href="inet.examples.ospfv2.areas.OneNetArea.C.html" xlink:title="Channel C" target="_parent">
<polygon fill="#d0ffd0" stroke="black" points="244.5,-19 190.5,-19 190.5,0 244.5,0 244.5,-19"/>
<text text-anchor="middle" x="217.5" y="-7" font-family="Helvetica,sans-Serif" font-size="10.00">C</text>
</a>
</g>
</g>
<!-- OneNetArea&#45;&gt;C -->
<g id="edge3" class="edge">
<title>OneNetArea&#45;&gt;C</title>
<path fill="none" stroke="black" d="M217.5,-54.75C217.5,-47.8 217.5,-37.85 217.5,-29.13"/>
<polygon fill="black" stroke="black" points="221,-29.09 217.5,-19.09 214,-29.09 221,-29.09"/>
</g>
<!-- EthernetSwitch -->
<g id="node5" class="node">
<title>EthernetSwitch</title>
<g id="a_node5"><a xlink:href="inet.node.ethernet.EthernetSwitch.html" xlink:title="Compound Module EthernetSwitch" target="_parent">
<polygon fill="#fffcaf" stroke="black" points="352.5,-19 262.5,-19 262.5,0 352.5,0 352.5,-19"/>
<text text-anchor="middle" x="307.5" y="-7" font-family="Helvetica,sans-Serif" font-size="10.00">EthernetSwitch</text>
</a>
</g>
</g>
<!-- OneNetArea&#45;&gt;EthernetSwitch -->
<g id="edge4" class="edge">
<title>OneNetArea&#45;&gt;EthernetSwitch</title>
<path fill="none" stroke="black" d="M231.96,-54.98C245.92,-46.77 267.29,-34.18 283.75,-24.49"/>
<polygon fill="black" stroke="black" points="285.94,-27.26 292.78,-19.17 282.38,-21.23 285.94,-27.26"/>
</g>
<!-- IdealChannel -->
<g id="node6" class="node">
<title>IdealChannel</title>
<g id="a_node6"><a xlink:href="ned.IdealChannel.html" xlink:title="Channel IdealChannel" target="_parent">
<polygon fill="#d0ffd0" stroke="black" points="450.5,-19 370.5,-19 370.5,0 450.5,0 450.5,-19"/>
<text text-anchor="middle" x="410.5" y="-7" font-family="Helvetica,sans-Serif" font-size="10.00">IdealChannel</text>
</a>
</g>
</g>
<!-- OneNetArea&#45;&gt;IdealChannel -->
<g id="edge5" class="edge">
<title>OneNetArea&#45;&gt;IdealChannel</title>
<path fill="none" stroke="black" d="M248.51,-54.98C281.33,-45.97 333.3,-31.7 369.49,-21.76"/>
<polygon fill="black" stroke="black" points="370.53,-25.11 379.25,-19.08 368.68,-18.36 370.53,-25.11"/>
</g>
<!-- OSPF_AreaTest -->
<g id="node7" class="node">
<title>OSPF_AreaTest</title>
<g id="a_node7"><a xlink:href="inet.examples.ospfv2.areas.OSPF_AreaTest.html" xlink:title="Network OSPF_AreaTest" target="_parent">
<polygon fill="#d0d0ff" stroke="black" points="262,-129 173,-129 173,-110 262,-110 262,-129"/>
<text text-anchor="middle" x="217.5" y="-117" font-family="Helvetica,sans-Serif" font-size="10.00">OSPF_AreaTest</text>
</a>
</g>
</g>
<!-- OSPF_AreaTest&#45;&gt;OneNetArea -->
<g id="edge6" class="edge">
<title>OSPF_AreaTest&#45;&gt;OneNetArea</title>
<path fill="none" stroke="black" d="M217.5,-109.75C217.5,-102.8 217.5,-92.85 217.5,-84.13"/>
<polygon fill="black" stroke="black" points="221,-84.09 217.5,-74.09 214,-84.09 221,-84.09"/>
</g>
</g>
</svg>
