<?xml version="1.0" encoding="UTF-8" standalone="no"?>
<!DOCTYPE svg PUBLIC "-//W3C//DTD SVG 1.1//EN"
 "http://www.w3.org/Graphics/SVG/1.1/DTD/svg11.dtd">
<!-- Generated by graphviz version 2.43.0 (0)
 -->
<!-- Title: opp Pages: 1 -->
<svg width="178pt" height="82pt"
 viewBox="0.00 0.00 178.00 82.00" xmlns="http://www.w3.org/2000/svg" xmlns:xlink="http://www.w3.org/1999/xlink">
<g id="graph0" class="graph" transform="scale(1 1) rotate(0) translate(4 78)">
<title>opp</title>
<polygon fill="transparent" stroke="transparent" points="-4,4 -4,-78 174,-78 174,4 -4,4"/>
<!-- IIpvxTrafficGenerator -->
<g id="node1" class="node">
<title>IIpvxTrafficGenerator</title>
<g id="a_node1"><a xlink:href="inet.applications.generic.IIpvxTrafficGenerator.html" xlink:title="Module Interface IIpvxTrafficGenerator" target="_parent">
<polygon fill="#fff700" stroke="black" stroke-dasharray="5,2" points="144,-74 25,-74 25,-55 144,-55 144,-74"/>
<text text-anchor="middle" x="84.5" y="-62" font-family="Helvetica,sans-Serif" font-size="10.00">IIpvxTrafficGenerator</text>
</a>
</g>
</g>
<!-- IpvxTrafGen -->
<g id="node2" class="node">
<title>IpvxTrafGen</title>
<g id="a_node2"><a xlink:href="inet.applications.generic.IpvxTrafGen.html" xlink:title="Simple Module IpvxTrafGen" target="_parent">
<polygon fill="#fffcaf" stroke="black" points="75,-19 0,-19 0,0 75,0 75,-19"/>
<text text-anchor="middle" x="37.5" y="-7" font-family="Helvetica,sans-Serif" font-size="10.00">IpvxTrafGen</text>
</a>
</g>
</g>
<!-- IIpvxTrafficGenerator&#45;&gt;IpvxTrafGen -->
<g id="edge1" class="edge">
<title>IIpvxTrafficGenerator&#45;&gt;IpvxTrafGen</title>
<path fill="none" stroke="black" stroke-dasharray="5,2" d="M76.74,-54.75C67.98,-44.87 53.82,-28.9 45.12,-19.09"/>
</g>
<!-- IpvxTrafSink -->
<g id="node3" class="node">
<title>IpvxTrafSink</title>
<g id="a_node3"><a xlink:href="inet.applications.generic.IpvxTrafSink.html" xlink:title="Simple Module IpvxTrafSink" target="_parent">
<polygon fill="#fffcaf" stroke="black" points="170,-19 93,-19 93,0 170,0 170,-19"/>
<text text-anchor="middle" x="131.5" y="-7" font-family="Helvetica,sans-Serif" font-size="10.00">IpvxTrafSink</text>
</a>
</g>
</g>
<!-- IIpvxTrafficGenerator&#45;&gt;IpvxTrafSink -->
<g id="edge2" class="edge">
<title>IIpvxTrafficGenerator&#45;&gt;IpvxTrafSink</title>
<path fill="none" stroke="black" stroke-dasharray="5,2" d="M92.26,-54.75C101.02,-44.87 115.18,-28.9 123.88,-19.09"/>
</g>
</g>
</svg>
