<?xml version="1.0" encoding="UTF-8" standalone="no"?>
<!DOCTYPE svg PUBLIC "-//W3C//DTD SVG 1.1//EN"
 "http://www.w3.org/Graphics/SVG/1.1/DTD/svg11.dtd">
<!-- Generated by graphviz version 2.43.0 (0)
 -->
<!-- Title: opp Pages: 1 -->
<svg width="274pt" height="82pt"
 viewBox="0.00 0.00 273.50 82.00" xmlns="http://www.w3.org/2000/svg" xmlns:xlink="http://www.w3.org/1999/xlink">
<g id="graph0" class="graph" transform="scale(1 1) rotate(0) translate(4 78)">
<title>opp</title>
<polygon fill="transparent" stroke="transparent" points="-4,4 -4,-78 269.5,-78 269.5,4 -4,4"/>
<!-- NetworkRouteCanvasVisualizer -->
<g id="node1" class="node">
<title>NetworkRouteCanvasVisualizer</title>
<g id="a_node1"><a xlink:href="inet.visualizer.canvas.networklayer.NetworkRouteCanvasVisualizer.html" xlink:title="Simple Module NetworkRouteCanvasVisualizer" target="_parent">
<polygon fill="#fff700" stroke="black" points="211,-19 41,-19 41,0 211,0 211,-19"/>
<text text-anchor="middle" x="126" y="-7" font-family="Helvetica,sans-Serif" font-size="10.00">NetworkRouteCanvasVisualizer</text>
</a>
</g>
</g>
<!-- PathVisualizerBase -->
<g id="node2" class="node">
<title>PathVisualizerBase</title>
<g id="a_node2"><a xlink:href="inet.visualizer.base.PathVisualizerBase.html" xlink:title="Simple Module PathVisualizerBase" target="_parent">
<polygon fill="#fffcaf" stroke="black" points="110,-74 0,-74 0,-55 110,-55 110,-74"/>
<text text-anchor="middle" x="55" y="-62" font-family="Helvetica,sans-Serif" font-size="10.00">PathVisualizerBase</text>
</a>
</g>
</g>
<!-- PathVisualizerBase&#45;&gt;NetworkRouteCanvasVisualizer -->
<g id="edge1" class="edge">
<title>PathVisualizerBase&#45;&gt;NetworkRouteCanvasVisualizer</title>
<path fill="none" stroke="black" d="M66.41,-54.98C79.58,-45.15 101.13,-29.07 114.39,-19.17"/>
</g>
<!-- INetworkRouteVisualizer -->
<g id="node3" class="node">
<title>INetworkRouteVisualizer</title>
<g id="a_node3"><a xlink:href="inet.visualizer.contract.INetworkRouteVisualizer.html" xlink:title="Module Interface INetworkRouteVisualizer" target="_parent">
<polygon fill="#fffcaf" stroke="black" stroke-dasharray="5,2" points="265.5,-74 128.5,-74 128.5,-55 265.5,-55 265.5,-74"/>
<text text-anchor="middle" x="197" y="-62" font-family="Helvetica,sans-Serif" font-size="10.00">INetworkRouteVisualizer</text>
</a>
</g>
</g>
<!-- INetworkRouteVisualizer&#45;&gt;NetworkRouteCanvasVisualizer -->
<g id="edge2" class="edge">
<title>INetworkRouteVisualizer&#45;&gt;NetworkRouteCanvasVisualizer</title>
<path fill="none" stroke="black" stroke-dasharray="5,2" d="M185.59,-54.98C172.42,-45.15 150.87,-29.07 137.61,-19.17"/>
</g>
</g>
</svg>
