<?xml version="1.0" encoding="UTF-8" standalone="no"?>
<!DOCTYPE svg PUBLIC "-//W3C//DTD SVG 1.1//EN"
 "http://www.w3.org/Graphics/SVG/1.1/DTD/svg11.dtd">
<!-- Generated by graphviz version 2.43.0 (0)
 -->
<!-- Title: opp Pages: 1 -->
<svg width="250pt" height="137pt"
 viewBox="0.00 0.00 250.00 137.00" xmlns="http://www.w3.org/2000/svg" xmlns:xlink="http://www.w3.org/1999/xlink">
<g id="graph0" class="graph" transform="scale(1 1) rotate(0) translate(4 133)">
<title>opp</title>
<polygon fill="transparent" stroke="transparent" points="-4,4 -4,-133 246,-133 246,4 -4,4"/>
<!-- IPacketPolicing -->
<g id="node1" class="node">
<title>IPacketPolicing</title>
<g id="a_node1"><a xlink:href="inet.queueing.contract.IPacketPolicing.html" xlink:title="Module Interface IPacketPolicing" target="_parent">
<polygon fill="#fff700" stroke="black" stroke-dasharray="5,2" points="164,-74 75,-74 75,-55 164,-55 164,-74"/>
<text text-anchor="middle" x="119.5" y="-62" font-family="Helvetica,sans-Serif" font-size="10.00">IPacketPolicing</text>
</a>
</g>
</g>
<!-- MultiPacketPolicing -->
<g id="node4" class="node">
<title>MultiPacketPolicing</title>
<g id="a_node4"><a xlink:href="inet.queueing.policing.MultiPacketPolicing.html" xlink:title="Compound Module MultiPacketPolicing" target="_parent">
<polygon fill="#fffcaf" stroke="black" points="117,-19 6,-19 6,0 117,0 117,-19"/>
<text text-anchor="middle" x="61.5" y="-7" font-family="Helvetica,sans-Serif" font-size="10.00">MultiPacketPolicing</text>
</a>
</g>
</g>
<!-- IPacketPolicing&#45;&gt;MultiPacketPolicing -->
<g id="edge3" class="edge">
<title>IPacketPolicing&#45;&gt;MultiPacketPolicing</title>
<path fill="none" stroke="black" stroke-dasharray="5,2" d="M110.18,-54.98C99.42,-45.15 81.82,-29.07 70.99,-19.17"/>
</g>
<!-- PacketPolicing -->
<g id="node5" class="node">
<title>PacketPolicing</title>
<g id="a_node5"><a xlink:href="inet.queueing.policing.PacketPolicing.html" xlink:title="Compound Module PacketPolicing" target="_parent">
<polygon fill="#fffcaf" stroke="black" points="221.5,-19 135.5,-19 135.5,0 221.5,0 221.5,-19"/>
<text text-anchor="middle" x="178.5" y="-7" font-family="Helvetica,sans-Serif" font-size="10.00">PacketPolicing</text>
</a>
</g>
</g>
<!-- IPacketPolicing&#45;&gt;PacketPolicing -->
<g id="edge4" class="edge">
<title>IPacketPolicing&#45;&gt;PacketPolicing</title>
<path fill="none" stroke="black" stroke-dasharray="5,2" d="M128.98,-54.98C139.92,-45.15 157.83,-29.07 168.85,-19.17"/>
</g>
<!-- IPassivePacketSink -->
<g id="node2" class="node">
<title>IPassivePacketSink</title>
<g id="a_node2"><a xlink:href="inet.queueing.contract.IPassivePacketSink.html" xlink:title="Module Interface IPassivePacketSink" target="_parent">
<polygon fill="#fffcaf" stroke="black" stroke-dasharray="5,2" points="109,-129 0,-129 0,-110 109,-110 109,-129"/>
<text text-anchor="middle" x="54.5" y="-117" font-family="Helvetica,sans-Serif" font-size="10.00">IPassivePacketSink</text>
</a>
</g>
</g>
<!-- IPassivePacketSink&#45;&gt;IPacketPolicing -->
<g id="edge1" class="edge">
<title>IPassivePacketSink&#45;&gt;IPacketPolicing</title>
<path fill="none" stroke="black" d="M64.94,-109.98C77,-100.15 96.73,-84.07 108.87,-74.17"/>
</g>
<!-- IActivePacketSource -->
<g id="node3" class="node">
<title>IActivePacketSource</title>
<g id="a_node3"><a xlink:href="inet.queueing.contract.IActivePacketSource.html" xlink:title="Module Interface IActivePacketSource" target="_parent">
<polygon fill="#fffcaf" stroke="black" stroke-dasharray="5,2" points="242,-129 127,-129 127,-110 242,-110 242,-129"/>
<text text-anchor="middle" x="184.5" y="-117" font-family="Helvetica,sans-Serif" font-size="10.00">IActivePacketSource</text>
</a>
</g>
</g>
<!-- IActivePacketSource&#45;&gt;IPacketPolicing -->
<g id="edge2" class="edge">
<title>IActivePacketSource&#45;&gt;IPacketPolicing</title>
<path fill="none" stroke="black" d="M174.06,-109.98C162,-100.15 142.27,-84.07 130.13,-74.17"/>
</g>
</g>
</svg>
