<?xml version="1.0" encoding="UTF-8" standalone="no"?>
<!DOCTYPE svg PUBLIC "-//W3C//DTD SVG 1.1//EN"
 "http://www.w3.org/Graphics/SVG/1.1/DTD/svg11.dtd">
<!-- Generated by graphviz version 2.43.0 (0)
 -->
<!-- Title: opp Pages: 1 -->
<svg width="258pt" height="137pt"
 viewBox="0.00 0.00 257.50 137.00" xmlns="http://www.w3.org/2000/svg" xmlns:xlink="http://www.w3.org/1999/xlink">
<g id="graph0" class="graph" transform="scale(1 1) rotate(0) translate(4 133)">
<title>opp</title>
<polygon fill="transparent" stroke="transparent" points="-4,4 -4,-133 253.5,-133 253.5,4 -4,4"/>
<!-- PacketDelayerBase -->
<g id="node1" class="node">
<title>PacketDelayerBase</title>
<g id="a_node1"><a xlink:href="inet.queueing.base.PacketDelayerBase.html" xlink:title="Simple Module PacketDelayerBase" target="_parent">
<polygon fill="#fff700" stroke="black" points="194.5,-74 84.5,-74 84.5,-55 194.5,-55 194.5,-74"/>
<text text-anchor="middle" x="139.5" y="-62" font-family="Helvetica,sans-Serif" font-size="10.00">PacketDelayerBase</text>
</a>
</g>
</g>
<!-- EthernetCutthroughBarrier -->
<g id="node3" class="node">
<title>EthernetCutthroughBarrier</title>
<g id="a_node3"><a xlink:href="inet.linklayer.ethernet.modular.EthernetCutthroughBarrier.html" xlink:title="Simple Module EthernetCutthroughBarrier" target="_parent">
<polygon fill="#fffcaf" stroke="black" points="145,-19 0,-19 0,0 145,0 145,-19"/>
<text text-anchor="middle" x="72.5" y="-7" font-family="Helvetica,sans-Serif" font-size="10.00">EthernetCutthroughBarrier</text>
</a>
</g>
</g>
<!-- PacketDelayerBase&#45;&gt;EthernetCutthroughBarrier -->
<g id="edge2" class="edge">
<title>PacketDelayerBase&#45;&gt;EthernetCutthroughBarrier</title>
<path fill="none" stroke="black" d="M128.74,-54.98C116.31,-45.15 95.97,-29.07 83.46,-19.17"/>
</g>
<!-- PacketDelayer -->
<g id="node4" class="node">
<title>PacketDelayer</title>
<g id="a_node4"><a xlink:href="inet.queueing.common.PacketDelayer.html" xlink:title="Simple Module PacketDelayer" target="_parent">
<polygon fill="#fffcaf" stroke="black" points="249.5,-19 163.5,-19 163.5,0 249.5,0 249.5,-19"/>
<text text-anchor="middle" x="206.5" y="-7" font-family="Helvetica,sans-Serif" font-size="10.00">PacketDelayer</text>
</a>
</g>
</g>
<!-- PacketDelayerBase&#45;&gt;PacketDelayer -->
<g id="edge3" class="edge">
<title>PacketDelayerBase&#45;&gt;PacketDelayer</title>
<path fill="none" stroke="black" d="M150.26,-54.98C162.69,-45.15 183.03,-29.07 195.54,-19.17"/>
</g>
<!-- PacketProcessorBase -->
<g id="node2" class="node">
<title>PacketProcessorBase</title>
<g id="a_node2"><a xlink:href="inet.queueing.base.PacketProcessorBase.html" xlink:title="Simple Module PacketProcessorBase" target="_parent">
<polygon fill="#fffcaf" stroke="black" points="199,-129 80,-129 80,-110 199,-110 199,-129"/>
<text text-anchor="middle" x="139.5" y="-117" font-family="Helvetica,sans-Serif" font-size="10.00">PacketProcessorBase</text>
</a>
</g>
</g>
<!-- PacketProcessorBase&#45;&gt;PacketDelayerBase -->
<g id="edge1" class="edge">
<title>PacketProcessorBase&#45;&gt;PacketDelayerBase</title>
<path fill="none" stroke="black" d="M139.5,-109.75C139.5,-99.87 139.5,-83.9 139.5,-74.09"/>
</g>
</g>
</svg>
