<?xml version="1.0" encoding="UTF-8" standalone="no"?>
<!DOCTYPE svg PUBLIC "-//W3C//DTD SVG 1.1//EN"
 "http://www.w3.org/Graphics/SVG/1.1/DTD/svg11.dtd">
<!-- Generated by graphviz version 2.43.0 (0)
 -->
<!-- Title: opp Pages: 1 -->
<svg width="185pt" height="137pt"
 viewBox="0.00 0.00 185.00 137.00" xmlns="http://www.w3.org/2000/svg" xmlns:xlink="http://www.w3.org/1999/xlink">
<g id="graph0" class="graph" transform="scale(1 1) rotate(0) translate(4 133)">
<title>opp</title>
<polygon fill="transparent" stroke="transparent" points="-4,4 -4,-133 181,-133 181,4 -4,4"/>
<!-- IIeee8021rTagEpdHeaderChecker -->
<g id="node1" class="node">
<title>IIeee8021rTagEpdHeaderChecker</title>
<g id="a_node1"><a xlink:href="inet.linklayer.ieee8021r.IIeee8021rTagEpdHeaderChecker.html" xlink:title="Module Interface IIeee8021rTagEpdHeaderChecker" target="_parent">
<polygon fill="#fff700" stroke="black" stroke-dasharray="5,2" points="177,-74 0,-74 0,-55 177,-55 177,-74"/>
<text text-anchor="middle" x="88.5" y="-62" font-family="Helvetica,sans-Serif" font-size="10.00">IIeee8021rTagEpdHeaderChecker</text>
</a>
</g>
</g>
<!-- Ieee8021rTagEpdHeaderChecker -->
<g id="node3" class="node">
<title>Ieee8021rTagEpdHeaderChecker</title>
<g id="a_node3"><a xlink:href="inet.linklayer.ieee8021r.Ieee8021rTagEpdHeaderChecker.html" xlink:title="Simple Module Ieee8021rTagEpdHeaderChecker" target="_parent">
<polygon fill="#fffcaf" stroke="black" points="175.5,-19 1.5,-19 1.5,0 175.5,0 175.5,-19"/>
<text text-anchor="middle" x="88.5" y="-7" font-family="Helvetica,sans-Serif" font-size="10.00">Ieee8021rTagEpdHeaderChecker</text>
</a>
</g>
</g>
<!-- IIeee8021rTagEpdHeaderChecker&#45;&gt;Ieee8021rTagEpdHeaderChecker -->
<g id="edge2" class="edge">
<title>IIeee8021rTagEpdHeaderChecker&#45;&gt;Ieee8021rTagEpdHeaderChecker</title>
<path fill="none" stroke="black" stroke-dasharray="5,2" d="M88.5,-54.75C88.5,-44.87 88.5,-28.9 88.5,-19.09"/>
</g>
<!-- IProtocolHeaderChecker -->
<g id="node2" class="node">
<title>IProtocolHeaderChecker</title>
<g id="a_node2"><a xlink:href="inet.protocolelement.contract.IProtocolHeaderChecker.html" xlink:title="Module Interface IProtocolHeaderChecker" target="_parent">
<polygon fill="#fffcaf" stroke="black" stroke-dasharray="5,2" points="155.5,-129 21.5,-129 21.5,-110 155.5,-110 155.5,-129"/>
<text text-anchor="middle" x="88.5" y="-117" font-family="Helvetica,sans-Serif" font-size="10.00">IProtocolHeaderChecker</text>
</a>
</g>
</g>
<!-- IProtocolHeaderChecker&#45;&gt;IIeee8021rTagEpdHeaderChecker -->
<g id="edge1" class="edge">
<title>IProtocolHeaderChecker&#45;&gt;IIeee8021rTagEpdHeaderChecker</title>
<path fill="none" stroke="black" d="M88.5,-109.75C88.5,-99.87 88.5,-83.9 88.5,-74.09"/>
</g>
</g>
</svg>
