<?xml version="1.0" encoding="UTF-8" standalone="no"?>
<!DOCTYPE svg PUBLIC "-//W3C//DTD SVG 1.1//EN"
 "http://www.w3.org/Graphics/SVG/1.1/DTD/svg11.dtd">
<!-- Generated by graphviz version 2.43.0 (0)
 -->
<!-- Title: opp Pages: 1 -->
<svg width="254pt" height="82pt"
 viewBox="0.00 0.00 253.50 82.00" xmlns="http://www.w3.org/2000/svg" xmlns:xlink="http://www.w3.org/1999/xlink">
<g id="graph0" class="graph" transform="scale(1 1) rotate(0) translate(4 78)">
<title>opp</title>
<polygon fill="transparent" stroke="transparent" points="-4,4 -4,-78 249.5,-78 249.5,4 -4,4"/>
<!-- CutthroughSwitchingShowcase -->
<g id="node1" class="node">
<title>CutthroughSwitchingShowcase</title>
<g id="a_node1"><a xlink:href="inet.showcases.tsn.cutthroughswitching.CutthroughSwitchingShowcase.html" xlink:title="Network CutthroughSwitchingShowcase" target="_parent">
<polygon fill="#9090ff" stroke="black" points="206,-74 39,-74 39,-55 206,-55 206,-74"/>
<text text-anchor="middle" x="122.5" y="-62" font-family="Helvetica,sans-Serif" font-size="10.00">CutthroughSwitchingShowcase</text>
</a>
</g>
</g>
<!-- TsnSwitch -->
<g id="node2" class="node">
<title>TsnSwitch</title>
<g id="a_node2"><a xlink:href="inet.node.tsn.TsnSwitch.html" xlink:title="Compound Module TsnSwitch" target="_parent">
<polygon fill="#fffcaf" stroke="black" points="65,-19 0,-19 0,0 65,0 65,-19"/>
<text text-anchor="middle" x="32.5" y="-7" font-family="Helvetica,sans-Serif" font-size="10.00">TsnSwitch</text>
</a>
</g>
</g>
<!-- CutthroughSwitchingShowcase&#45;&gt;TsnSwitch -->
<g id="edge1" class="edge">
<title>CutthroughSwitchingShowcase&#45;&gt;TsnSwitch</title>
<path fill="none" stroke="black" d="M108.04,-54.98C94.08,-46.77 72.71,-34.18 56.25,-24.49"/>
<polygon fill="black" stroke="black" points="57.62,-21.23 47.22,-19.17 54.06,-27.26 57.62,-21.23"/>
</g>
<!-- EthernetLink -->
<g id="node3" class="node">
<title>EthernetLink</title>
<g id="a_node3"><a xlink:href="inet.node.ethernet.EthernetLink.html" xlink:title="Channel EthernetLink" target="_parent">
<polygon fill="#d0ffd0" stroke="black" points="161.5,-19 83.5,-19 83.5,0 161.5,0 161.5,-19"/>
<text text-anchor="middle" x="122.5" y="-7" font-family="Helvetica,sans-Serif" font-size="10.00">EthernetLink</text>
</a>
</g>
</g>
<!-- CutthroughSwitchingShowcase&#45;&gt;EthernetLink -->
<g id="edge2" class="edge">
<title>CutthroughSwitchingShowcase&#45;&gt;EthernetLink</title>
<path fill="none" stroke="black" d="M122.5,-54.75C122.5,-47.8 122.5,-37.85 122.5,-29.13"/>
<polygon fill="black" stroke="black" points="126,-29.09 122.5,-19.09 119,-29.09 126,-29.09"/>
</g>
<!-- TsnDevice -->
<g id="node4" class="node">
<title>TsnDevice</title>
<g id="a_node4"><a xlink:href="inet.node.tsn.TsnDevice.html" xlink:title="Compound Module TsnDevice" target="_parent">
<polygon fill="#fffcaf" stroke="black" points="245.5,-19 179.5,-19 179.5,0 245.5,0 245.5,-19"/>
<text text-anchor="middle" x="212.5" y="-7" font-family="Helvetica,sans-Serif" font-size="10.00">TsnDevice</text>
</a>
</g>
</g>
<!-- CutthroughSwitchingShowcase&#45;&gt;TsnDevice -->
<g id="edge3" class="edge">
<title>CutthroughSwitchingShowcase&#45;&gt;TsnDevice</title>
<path fill="none" stroke="black" d="M136.96,-54.98C150.92,-46.77 172.29,-34.18 188.75,-24.49"/>
<polygon fill="black" stroke="black" points="190.94,-27.26 197.78,-19.17 187.38,-21.23 190.94,-27.26"/>
</g>
</g>
</svg>
