<?xml version="1.0" encoding="UTF-8" standalone="no"?>
<!DOCTYPE svg PUBLIC "-//W3C//DTD SVG 1.1//EN"
 "http://www.w3.org/Graphics/SVG/1.1/DTD/svg11.dtd">
<!-- Generated by graphviz version 2.43.0 (0)
 -->
<!-- Title: opp Pages: 1 -->
<svg width="662pt" height="137pt"
 viewBox="0.00 0.00 662.00 137.00" xmlns="http://www.w3.org/2000/svg" xmlns:xlink="http://www.w3.org/1999/xlink">
<g id="graph0" class="graph" transform="scale(1 1) rotate(0) translate(4 133)">
<title>opp</title>
<polygon fill="transparent" stroke="transparent" points="-4,4 -4,-133 658,-133 658,4 -4,4"/>
<!-- ClientHost4 -->
<g id="node1" class="node">
<title>ClientHost4</title>
<g id="a_node1"><a xlink:href="inet.tutorials.protocol.ClientHost4.html" xlink:title="Compound Module ClientHost4" target="_parent">
<polygon fill="#fff700" stroke="black" points="368,-74 294,-74 294,-55 368,-55 368,-74"/>
<text text-anchor="middle" x="331" y="-62" font-family="Helvetica,sans-Serif" font-size="10.00">ClientHost4</text>
</a>
</g>
</g>
<!-- FcsHeaderInserter -->
<g id="node2" class="node">
<title>FcsHeaderInserter</title>
<g id="a_node2"><a xlink:href="inet.protocolelement.checksum.FcsHeaderInserter.html" xlink:title="Simple Module FcsHeaderInserter" target="_parent">
<polygon fill="#fffcaf" stroke="black" points="106,-19 0,-19 0,0 106,0 106,-19"/>
<text text-anchor="middle" x="53" y="-7" font-family="Helvetica,sans-Serif" font-size="10.00">FcsHeaderInserter</text>
</a>
</g>
</g>
<!-- ClientHost4&#45;&gt;FcsHeaderInserter -->
<g id="edge1" class="edge">
<title>ClientHost4&#45;&gt;FcsHeaderInserter</title>
<path fill="none" stroke="black" d="M293.8,-56.41C246.02,-47.3 162.73,-31.42 107.73,-20.93"/>
<polygon fill="black" stroke="black" points="108.28,-17.48 97.8,-19.04 106.97,-24.35 108.28,-17.48"/>
</g>
<!-- InstantServer -->
<g id="node3" class="node">
<title>InstantServer</title>
<g id="a_node3"><a xlink:href="inet.queueing.server.InstantServer.html" xlink:title="Simple Module InstantServer" target="_parent">
<polygon fill="#fffcaf" stroke="black" points="206,-19 124,-19 124,0 206,0 206,-19"/>
<text text-anchor="middle" x="165" y="-7" font-family="Helvetica,sans-Serif" font-size="10.00">InstantServer</text>
</a>
</g>
</g>
<!-- ClientHost4&#45;&gt;InstantServer -->
<g id="edge2" class="edge">
<title>ClientHost4&#45;&gt;InstantServer</title>
<path fill="none" stroke="black" d="M304.33,-54.98C276.46,-46.09 232.55,-32.07 201.48,-22.15"/>
<polygon fill="black" stroke="black" points="202.47,-18.79 191.88,-19.08 200.34,-25.46 202.47,-18.79"/>
</g>
<!-- PacketTransmitter -->
<g id="node4" class="node">
<title>PacketTransmitter</title>
<g id="a_node4"><a xlink:href="inet.protocolelement.transceiver.PacketTransmitter.html" xlink:title="Simple Module PacketTransmitter" target="_parent">
<polygon fill="#fffcaf" stroke="black" points="328,-19 224,-19 224,0 328,0 328,-19"/>
<text text-anchor="middle" x="276" y="-7" font-family="Helvetica,sans-Serif" font-size="10.00">PacketTransmitter</text>
</a>
</g>
</g>
<!-- ClientHost4&#45;&gt;PacketTransmitter -->
<g id="edge3" class="edge">
<title>ClientHost4&#45;&gt;PacketTransmitter</title>
<path fill="none" stroke="black" d="M321.92,-54.75C313.91,-47.03 302.04,-35.6 292.38,-26.28"/>
<polygon fill="black" stroke="black" points="294.54,-23.51 284.91,-19.09 289.69,-28.55 294.54,-23.51"/>
</g>
<!-- PacketQueue -->
<g id="node5" class="node">
<title>PacketQueue</title>
<g id="a_node5"><a xlink:href="inet.queueing.queue.PacketQueue.html" xlink:title="Simple Module PacketQueue" target="_parent">
<polygon fill="#fffcaf" stroke="black" points="426,-19 346,-19 346,0 426,0 426,-19"/>
<text text-anchor="middle" x="386" y="-7" font-family="Helvetica,sans-Serif" font-size="10.00">PacketQueue</text>
</a>
</g>
</g>
<!-- ClientHost4&#45;&gt;PacketQueue -->
<g id="edge4" class="edge">
<title>ClientHost4&#45;&gt;PacketQueue</title>
<path fill="none" stroke="black" d="M340.08,-54.75C348.09,-47.03 359.96,-35.6 369.62,-26.28"/>
<polygon fill="black" stroke="black" points="372.31,-28.55 377.09,-19.09 367.46,-23.51 372.31,-28.55"/>
</g>
<!-- IdealChannel -->
<g id="node6" class="node">
<title>IdealChannel</title>
<g id="a_node6"><a xlink:href="ned.IdealChannel.html" xlink:title="Channel IdealChannel" target="_parent">
<polygon fill="#d0ffd0" stroke="black" points="524,-19 444,-19 444,0 524,0 524,-19"/>
<text text-anchor="middle" x="484" y="-7" font-family="Helvetica,sans-Serif" font-size="10.00">IdealChannel</text>
</a>
</g>
</g>
<!-- ClientHost4&#45;&gt;IdealChannel -->
<g id="edge5" class="edge">
<title>ClientHost4&#45;&gt;IdealChannel</title>
<path fill="none" stroke="black" d="M355.58,-54.98C381.05,-46.16 421.04,-32.31 449.63,-22.41"/>
<polygon fill="black" stroke="black" points="450.92,-25.66 459.23,-19.08 448.63,-19.05 450.92,-25.66"/>
</g>
<!-- ActivePacketSource -->
<g id="node7" class="node">
<title>ActivePacketSource</title>
<g id="a_node7"><a xlink:href="inet.queueing.source.ActivePacketSource.html" xlink:title="Simple Module ActivePacketSource" target="_parent">
<polygon fill="#fffcaf" stroke="black" points="654,-19 542,-19 542,0 654,0 654,-19"/>
<text text-anchor="middle" x="598" y="-7" font-family="Helvetica,sans-Serif" font-size="10.00">ActivePacketSource</text>
</a>
</g>
</g>
<!-- ClientHost4&#45;&gt;ActivePacketSource -->
<g id="edge6" class="edge">
<title>ClientHost4&#45;&gt;ActivePacketSource</title>
<path fill="none" stroke="black" d="M368.13,-56.13C414.07,-47.01 492.62,-31.42 544.92,-21.04"/>
<polygon fill="black" stroke="black" points="545.88,-24.41 555.01,-19.03 544.52,-17.55 545.88,-24.41"/>
</g>
<!-- Network4 -->
<g id="node8" class="node">
<title>Network4</title>
<g id="a_node8"><a xlink:href="inet.tutorials.protocol.Network4.html" xlink:title="Network Network4" target="_parent">
<polygon fill="#d0d0ff" stroke="black" points="363,-129 299,-129 299,-110 363,-110 363,-129"/>
<text text-anchor="middle" x="331" y="-117" font-family="Helvetica,sans-Serif" font-size="10.00">Network4</text>
</a>
</g>
</g>
<!-- Network4&#45;&gt;ClientHost4 -->
<g id="edge7" class="edge">
<title>Network4&#45;&gt;ClientHost4</title>
<path fill="none" stroke="black" d="M331,-109.75C331,-102.8 331,-92.85 331,-84.13"/>
<polygon fill="black" stroke="black" points="334.5,-84.09 331,-74.09 327.5,-84.09 334.5,-84.09"/>
</g>
</g>
</svg>
