<?xml version="1.0" encoding="UTF-8" standalone="no"?>
<!DOCTYPE svg PUBLIC "-//W3C//DTD SVG 1.1//EN"
 "http://www.w3.org/Graphics/SVG/1.1/DTD/svg11.dtd">
<!-- Generated by graphviz version 2.43.0 (0)
 -->
<!-- Title: opp Pages: 1 -->
<svg width="176pt" height="137pt"
 viewBox="0.00 0.00 176.00 137.00" xmlns="http://www.w3.org/2000/svg" xmlns:xlink="http://www.w3.org/1999/xlink">
<g id="graph0" class="graph" transform="scale(1 1) rotate(0) translate(4 133)">
<title>opp</title>
<polygon fill="transparent" stroke="transparent" points="-4,4 -4,-133 172,-133 172,4 -4,4"/>
<!-- GateScheduleVisualizerBase -->
<g id="node1" class="node">
<title>GateScheduleVisualizerBase</title>
<g id="a_node1"><a xlink:href="inet.visualizer.base.GateScheduleVisualizerBase.html" xlink:title="Simple Module GateScheduleVisualizerBase" target="_parent">
<polygon fill="#fff700" stroke="black" points="162,-74 6,-74 6,-55 162,-55 162,-74"/>
<text text-anchor="middle" x="84" y="-62" font-family="Helvetica,sans-Serif" font-size="10.00">GateScheduleVisualizerBase</text>
</a>
</g>
</g>
<!-- GateScheduleCanvasVisualizer -->
<g id="node3" class="node">
<title>GateScheduleCanvasVisualizer</title>
<g id="a_node3"><a xlink:href="inet.visualizer.canvas.common.GateScheduleCanvasVisualizer.html" xlink:title="Simple Module GateScheduleCanvasVisualizer" target="_parent">
<polygon fill="#fffcaf" stroke="black" points="168,-19 0,-19 0,0 168,0 168,-19"/>
<text text-anchor="middle" x="84" y="-7" font-family="Helvetica,sans-Serif" font-size="10.00">GateScheduleCanvasVisualizer</text>
</a>
</g>
</g>
<!-- GateScheduleVisualizerBase&#45;&gt;GateScheduleCanvasVisualizer -->
<g id="edge2" class="edge">
<title>GateScheduleVisualizerBase&#45;&gt;GateScheduleCanvasVisualizer</title>
<path fill="none" stroke="black" d="M84,-54.75C84,-44.87 84,-28.9 84,-19.09"/>
</g>
<!-- VisualizerBase -->
<g id="node2" class="node">
<title>VisualizerBase</title>
<g id="a_node2"><a xlink:href="inet.visualizer.base.VisualizerBase.html" xlink:title="Simple Module VisualizerBase" target="_parent">
<polygon fill="#fffcaf" stroke="black" points="128.5,-129 39.5,-129 39.5,-110 128.5,-110 128.5,-129"/>
<text text-anchor="middle" x="84" y="-117" font-family="Helvetica,sans-Serif" font-size="10.00">VisualizerBase</text>
</a>
</g>
</g>
<!-- VisualizerBase&#45;&gt;GateScheduleVisualizerBase -->
<g id="edge1" class="edge">
<title>VisualizerBase&#45;&gt;GateScheduleVisualizerBase</title>
<path fill="none" stroke="black" d="M84,-109.75C84,-99.87 84,-83.9 84,-74.09"/>
</g>
</g>
</svg>
