<?xml version="1.0" encoding="UTF-8" standalone="no"?>
<!DOCTYPE svg PUBLIC "-//W3C//DTD SVG 1.1//EN"
 "http://www.w3.org/Graphics/SVG/1.1/DTD/svg11.dtd">
<!-- Generated by graphviz version 2.43.0 (0)
 -->
<!-- Title: opp Pages: 1 -->
<svg width="205pt" height="137pt"
 viewBox="0.00 0.00 205.00 137.00" xmlns="http://www.w3.org/2000/svg" xmlns:xlink="http://www.w3.org/1999/xlink">
<g id="graph0" class="graph" transform="scale(1 1) rotate(0) translate(4 133)">
<title>opp</title>
<polygon fill="transparent" stroke="transparent" points="-4,4 -4,-133 201,-133 201,4 -4,4"/>
<!-- NetworkConnectionVisualizerBase -->
<g id="node1" class="node">
<title>NetworkConnectionVisualizerBase</title>
<g id="a_node1"><a xlink:href="inet.visualizer.base.NetworkConnectionVisualizerBase.html" xlink:title="Simple Module NetworkConnectionVisualizerBase" target="_parent">
<polygon fill="#fff700" stroke="black" points="191,-74 6,-74 6,-55 191,-55 191,-74"/>
<text text-anchor="middle" x="98.5" y="-62" font-family="Helvetica,sans-Serif" font-size="10.00">NetworkConnectionVisualizerBase</text>
</a>
</g>
</g>
<!-- NetworkConnectionCanvasVisualizer -->
<g id="node3" class="node">
<title>NetworkConnectionCanvasVisualizer</title>
<g id="a_node3"><a xlink:href="inet.visualizer.canvas.scene.NetworkConnectionCanvasVisualizer.html" xlink:title="Simple Module NetworkConnectionCanvasVisualizer" target="_parent">
<polygon fill="#fffcaf" stroke="black" points="197,-19 0,-19 0,0 197,0 197,-19"/>
<text text-anchor="middle" x="98.5" y="-7" font-family="Helvetica,sans-Serif" font-size="10.00">NetworkConnectionCanvasVisualizer</text>
</a>
</g>
</g>
<!-- NetworkConnectionVisualizerBase&#45;&gt;NetworkConnectionCanvasVisualizer -->
<g id="edge2" class="edge">
<title>NetworkConnectionVisualizerBase&#45;&gt;NetworkConnectionCanvasVisualizer</title>
<path fill="none" stroke="black" d="M98.5,-54.75C98.5,-44.87 98.5,-28.9 98.5,-19.09"/>
</g>
<!-- VisualizerBase -->
<g id="node2" class="node">
<title>VisualizerBase</title>
<g id="a_node2"><a xlink:href="inet.visualizer.base.VisualizerBase.html" xlink:title="Simple Module VisualizerBase" target="_parent">
<polygon fill="#fffcaf" stroke="black" points="143,-129 54,-129 54,-110 143,-110 143,-129"/>
<text text-anchor="middle" x="98.5" y="-117" font-family="Helvetica,sans-Serif" font-size="10.00">VisualizerBase</text>
</a>
</g>
</g>
<!-- VisualizerBase&#45;&gt;NetworkConnectionVisualizerBase -->
<g id="edge1" class="edge">
<title>VisualizerBase&#45;&gt;NetworkConnectionVisualizerBase</title>
<path fill="none" stroke="black" d="M98.5,-109.75C98.5,-99.87 98.5,-83.9 98.5,-74.09"/>
</g>
</g>
</svg>
