<?xml version="1.0" encoding="UTF-8" standalone="no"?>
<!DOCTYPE svg PUBLIC "-//W3C//DTD SVG 1.1//EN"
 "http://www.w3.org/Graphics/SVG/1.1/DTD/svg11.dtd">
<!-- Generated by graphviz version 2.43.0 (0)
 -->
<!-- Title: opp Pages: 1 -->
<svg width="550pt" height="82pt"
 viewBox="0.00 0.00 550.00 82.00" xmlns="http://www.w3.org/2000/svg" xmlns:xlink="http://www.w3.org/1999/xlink">
<g id="graph0" class="graph" transform="scale(1 1) rotate(0) translate(4 78)">
<title>opp</title>
<polygon fill="transparent" stroke="transparent" points="-4,4 -4,-78 546,-78 546,4 -4,4"/>
<!-- InstrumentShowcase -->
<g id="node1" class="node">
<title>InstrumentShowcase</title>
<g id="a_node1"><a xlink:href="inet.showcases.visualizer.canvas.instrumentfigures.InstrumentShowcase.html" xlink:title="Network InstrumentShowcase" target="_parent">
<polygon fill="#9090ff" stroke="black" points="372,-74 253,-74 253,-55 372,-55 372,-74"/>
<text text-anchor="middle" x="312.5" y="-62" font-family="Helvetica,sans-Serif" font-size="10.00">InstrumentShowcase</text>
</a>
</g>
</g>
<!-- Ieee80211ScalarRadioMedium -->
<g id="node2" class="node">
<title>Ieee80211ScalarRadioMedium</title>
<g id="a_node2"><a xlink:href="inet.physicallayer.wireless.ieee80211.packetlevel.Ieee80211ScalarRadioMedium.html" xlink:title="Compound Module Ieee80211ScalarRadioMedium" target="_parent">
<polygon fill="#fffcaf" stroke="black" points="165,-19 0,-19 0,0 165,0 165,-19"/>
<text text-anchor="middle" x="82.5" y="-7" font-family="Helvetica,sans-Serif" font-size="10.00">Ieee80211ScalarRadioMedium</text>
</a>
</g>
</g>
<!-- InstrumentShowcase&#45;&gt;Ieee80211ScalarRadioMedium -->
<g id="edge1" class="edge">
<title>InstrumentShowcase&#45;&gt;Ieee80211ScalarRadioMedium</title>
<path fill="none" stroke="black" d="M275.55,-54.98C235.93,-45.86 172.91,-31.33 129.73,-21.38"/>
<polygon fill="black" stroke="black" points="130.27,-17.92 119.74,-19.08 128.7,-24.74 130.27,-17.92"/>
</g>
<!-- IntegratedVisualizer -->
<g id="node3" class="node">
<title>IntegratedVisualizer</title>
<g id="a_node3"><a xlink:href="inet.visualizer.common.IntegratedVisualizer.html" xlink:title="Compound Module IntegratedVisualizer" target="_parent">
<polygon fill="#fffcaf" stroke="black" points="298,-19 183,-19 183,0 298,0 298,-19"/>
<text text-anchor="middle" x="240.5" y="-7" font-family="Helvetica,sans-Serif" font-size="10.00">IntegratedVisualizer</text>
</a>
</g>
</g>
<!-- InstrumentShowcase&#45;&gt;IntegratedVisualizer -->
<g id="edge2" class="edge">
<title>InstrumentShowcase&#45;&gt;IntegratedVisualizer</title>
<path fill="none" stroke="black" d="M300.93,-54.98C290.08,-47 273.62,-34.88 260.62,-25.31"/>
<polygon fill="black" stroke="black" points="262.41,-22.28 252.28,-19.17 258.26,-27.92 262.41,-22.28"/>
</g>
<!-- Ipv4NetworkConfigurator -->
<g id="node4" class="node">
<title>Ipv4NetworkConfigurator</title>
<g id="a_node4"><a xlink:href="inet.networklayer.configurator.ipv4.Ipv4NetworkConfigurator.html" xlink:title="Simple Module Ipv4NetworkConfigurator" target="_parent">
<polygon fill="#fffcaf" stroke="black" points="455,-19 316,-19 316,0 455,0 455,-19"/>
<text text-anchor="middle" x="385.5" y="-7" font-family="Helvetica,sans-Serif" font-size="10.00">Ipv4NetworkConfigurator</text>
</a>
</g>
</g>
<!-- InstrumentShowcase&#45;&gt;Ipv4NetworkConfigurator -->
<g id="edge3" class="edge">
<title>InstrumentShowcase&#45;&gt;Ipv4NetworkConfigurator</title>
<path fill="none" stroke="black" d="M324.23,-54.98C335.23,-47 351.92,-34.88 365.1,-25.31"/>
<polygon fill="black" stroke="black" points="367.52,-27.88 373.56,-19.17 363.41,-22.21 367.52,-27.88"/>
</g>
<!-- AdhocHost -->
<g id="node5" class="node">
<title>AdhocHost</title>
<g id="a_node5"><a xlink:href="inet.node.inet.AdhocHost.html" xlink:title="Compound Module AdhocHost" target="_parent">
<polygon fill="#fffcaf" stroke="black" points="542,-19 473,-19 473,0 542,0 542,-19"/>
<text text-anchor="middle" x="507.5" y="-7" font-family="Helvetica,sans-Serif" font-size="10.00">AdhocHost</text>
</a>
</g>
</g>
<!-- InstrumentShowcase&#45;&gt;AdhocHost -->
<g id="edge4" class="edge">
<title>InstrumentShowcase&#45;&gt;AdhocHost</title>
<path fill="none" stroke="black" d="M343.83,-54.98C376.99,-45.97 429.5,-31.7 466.06,-21.76"/>
<polygon fill="black" stroke="black" points="467.19,-25.08 475.92,-19.08 465.36,-18.33 467.19,-25.08"/>
</g>
</g>
</svg>
