<?xml version="1.0" encoding="UTF-8" standalone="no"?>
<!DOCTYPE svg PUBLIC "-//W3C//DTD SVG 1.1//EN"
 "http://www.w3.org/Graphics/SVG/1.1/DTD/svg11.dtd">
<!-- Generated by graphviz version 2.43.0 (0)
 -->
<!-- Title: opp Pages: 1 -->
<svg width="688pt" height="82pt"
 viewBox="0.00 0.00 688.00 82.00" xmlns="http://www.w3.org/2000/svg" xmlns:xlink="http://www.w3.org/1999/xlink">
<g id="graph0" class="graph" transform="scale(1 1) rotate(0) translate(4 78)">
<title>opp</title>
<polygon fill="transparent" stroke="transparent" points="-4,4 -4,-78 684,-78 684,4 -4,4"/>
<!-- EthernetFragmentingMacLayer -->
<g id="node1" class="node">
<title>EthernetFragmentingMacLayer</title>
<g id="a_node1"><a xlink:href="inet.linklayer.ethernet.modular.EthernetFragmentingMacLayer.html" xlink:title="Compound Module EthernetFragmentingMacLayer" target="_parent">
<polygon fill="#fff700" stroke="black" points="401.5,-74 234.5,-74 234.5,-55 401.5,-55 401.5,-74"/>
<text text-anchor="middle" x="318" y="-62" font-family="Helvetica,sans-Serif" font-size="10.00">EthernetFragmentingMacLayer</text>
</a>
</g>
</g>
<!-- IPacketLifeTimer -->
<g id="node2" class="node">
<title>IPacketLifeTimer</title>
<g id="a_node2"><a xlink:href="inet.protocolelement.contract.IPacketLifeTimer.html" xlink:title="Module Interface IPacketLifeTimer" target="_parent">
<polygon fill="#fffcaf" stroke="black" stroke-dasharray="5,2" points="98,-19 0,-19 0,0 98,0 98,-19"/>
<text text-anchor="middle" x="49" y="-7" font-family="Helvetica,sans-Serif" font-size="10.00">IPacketLifeTimer</text>
</a>
</g>
</g>
<!-- EthernetFragmentingMacLayer&#45;&gt;IPacketLifeTimer -->
<g id="edge1" class="edge">
<title>EthernetFragmentingMacLayer&#45;&gt;IPacketLifeTimer</title>
<path fill="none" stroke="black" d="M274.78,-54.98C227.96,-45.76 153.19,-31.03 102.64,-21.07"/>
<polygon fill="black" stroke="black" points="103.05,-17.58 92.56,-19.08 101.69,-24.45 103.05,-17.58"/>
</g>
<!-- IPacketFlow -->
<g id="node3" class="node">
<title>IPacketFlow</title>
<g id="a_node3"><a xlink:href="inet.queueing.contract.IPacketFlow.html" xlink:title="Module Interface IPacketFlow" target="_parent">
<polygon fill="#fffcaf" stroke="black" stroke-dasharray="5,2" points="190,-19 116,-19 116,0 190,0 190,-19"/>
<text text-anchor="middle" x="153" y="-7" font-family="Helvetica,sans-Serif" font-size="10.00">IPacketFlow</text>
</a>
</g>
</g>
<!-- EthernetFragmentingMacLayer&#45;&gt;IPacketFlow -->
<g id="edge2" class="edge">
<title>EthernetFragmentingMacLayer&#45;&gt;IPacketFlow</title>
<path fill="none" stroke="black" d="M291.49,-54.98C263.79,-46.09 220.14,-32.07 189.26,-22.15"/>
<polygon fill="black" stroke="black" points="190.31,-18.81 179.72,-19.08 188.17,-25.47 190.31,-18.81"/>
</g>
<!-- IPacketFilter -->
<g id="node4" class="node">
<title>IPacketFilter</title>
<g id="a_node4"><a xlink:href="inet.queueing.contract.IPacketFilter.html" xlink:title="Module Interface IPacketFilter" target="_parent">
<polygon fill="#fffcaf" stroke="black" stroke-dasharray="5,2" points="284,-19 208,-19 208,0 284,0 284,-19"/>
<text text-anchor="middle" x="246" y="-7" font-family="Helvetica,sans-Serif" font-size="10.00">IPacketFilter</text>
</a>
</g>
</g>
<!-- EthernetFragmentingMacLayer&#45;&gt;IPacketFilter -->
<g id="edge3" class="edge">
<title>EthernetFragmentingMacLayer&#45;&gt;IPacketFilter</title>
<path fill="none" stroke="black" d="M306.43,-54.98C295.58,-47 279.12,-34.88 266.12,-25.31"/>
<polygon fill="black" stroke="black" points="267.91,-22.28 257.78,-19.17 263.76,-27.92 267.91,-22.28"/>
</g>
<!-- FragmentTagBasedDefragmenter -->
<g id="node5" class="node">
<title>FragmentTagBasedDefragmenter</title>
<g id="a_node5"><a xlink:href="inet.protocolelement.fragmentation.FragmentTagBasedDefragmenter.html" xlink:title="Simple Module FragmentTagBasedDefragmenter" target="_parent">
<polygon fill="#fffcaf" stroke="black" points="480,-19 302,-19 302,0 480,0 480,-19"/>
<text text-anchor="middle" x="391" y="-7" font-family="Helvetica,sans-Serif" font-size="10.00">FragmentTagBasedDefragmenter</text>
</a>
</g>
</g>
<!-- EthernetFragmentingMacLayer&#45;&gt;FragmentTagBasedDefragmenter -->
<g id="edge4" class="edge">
<title>EthernetFragmentingMacLayer&#45;&gt;FragmentTagBasedDefragmenter</title>
<path fill="none" stroke="black" d="M329.73,-54.98C340.73,-47 357.42,-34.88 370.6,-25.31"/>
<polygon fill="black" stroke="black" points="373.02,-27.88 379.06,-19.17 368.91,-22.21 373.02,-27.88"/>
</g>
<!-- IPacketQueue -->
<g id="node6" class="node">
<title>IPacketQueue</title>
<g id="a_node6"><a xlink:href="inet.queueing.contract.IPacketQueue.html" xlink:title="Module Interface IPacketQueue" target="_parent">
<polygon fill="#fffcaf" stroke="black" stroke-dasharray="5,2" points="581.5,-19 498.5,-19 498.5,0 581.5,0 581.5,-19"/>
<text text-anchor="middle" x="540" y="-7" font-family="Helvetica,sans-Serif" font-size="10.00">IPacketQueue</text>
</a>
</g>
</g>
<!-- EthernetFragmentingMacLayer&#45;&gt;IPacketQueue -->
<g id="edge5" class="edge">
<title>EthernetFragmentingMacLayer&#45;&gt;IPacketQueue</title>
<path fill="none" stroke="black" d="M353.67,-54.98C391.83,-45.87 452.47,-31.4 494.15,-21.45"/>
<polygon fill="black" stroke="black" points="495.14,-24.81 504.05,-19.08 493.51,-18 495.14,-24.81"/>
</g>
<!-- IdealChannel -->
<g id="node7" class="node">
<title>IdealChannel</title>
<g id="a_node7"><a xlink:href="ned.IdealChannel.html" xlink:title="Channel IdealChannel" target="_parent">
<polygon fill="#d0ffd0" stroke="black" points="680,-19 600,-19 600,0 680,0 680,-19"/>
<text text-anchor="middle" x="640" y="-7" font-family="Helvetica,sans-Serif" font-size="10.00">IdealChannel</text>
</a>
</g>
</g>
<!-- EthernetFragmentingMacLayer&#45;&gt;IdealChannel -->
<g id="edge6" class="edge">
<title>EthernetFragmentingMacLayer&#45;&gt;IdealChannel</title>
<path fill="none" stroke="black" d="M371.38,-54.96C424.29,-46.47 507.91,-32.93 589.9,-19.17"/>
<polygon fill="black" stroke="black" points="590.61,-22.6 599.89,-17.49 589.45,-15.7 590.61,-22.6"/>
</g>
</g>
</svg>
