<?xml version="1.0" encoding="UTF-8" standalone="no"?>
<!DOCTYPE svg PUBLIC "-//W3C//DTD SVG 1.1//EN"
 "http://www.w3.org/Graphics/SVG/1.1/DTD/svg11.dtd">
<!-- Generated by graphviz version 2.43.0 (0)
 -->
<!-- Title: opp Pages: 1 -->
<svg width="388pt" height="137pt"
 viewBox="0.00 0.00 388.00 137.00" xmlns="http://www.w3.org/2000/svg" xmlns:xlink="http://www.w3.org/1999/xlink">
<g id="graph0" class="graph" transform="scale(1 1) rotate(0) translate(4 133)">
<title>opp</title>
<polygon fill="transparent" stroke="transparent" points="-4,4 -4,-133 384,-133 384,4 -4,4"/>
<!-- Ieee80211RadioMedium -->
<g id="node1" class="node">
<title>Ieee80211RadioMedium</title>
<g id="a_node1"><a xlink:href="inet.physicallayer.wireless.ieee80211.packetlevel.Ieee80211RadioMedium.html" xlink:title="Compound Module Ieee80211RadioMedium" target="_parent">
<polygon fill="#fff700" stroke="black" points="265,-74 130,-74 130,-55 265,-55 265,-74"/>
<text text-anchor="middle" x="197.5" y="-62" font-family="Helvetica,sans-Serif" font-size="10.00">Ieee80211RadioMedium</text>
</a>
</g>
</g>
<!-- Ieee80211DimensionalRadioMedium -->
<g id="node3" class="node">
<title>Ieee80211DimensionalRadioMedium</title>
<g id="a_node3"><a xlink:href="inet.physicallayer.wireless.ieee80211.packetlevel.Ieee80211DimensionalRadioMedium.html" xlink:title="Compound Module Ieee80211DimensionalRadioMedium" target="_parent">
<polygon fill="#fffcaf" stroke="black" points="197,-19 0,-19 0,0 197,0 197,-19"/>
<text text-anchor="middle" x="98.5" y="-7" font-family="Helvetica,sans-Serif" font-size="10.00">Ieee80211DimensionalRadioMedium</text>
</a>
</g>
</g>
<!-- Ieee80211RadioMedium&#45;&gt;Ieee80211DimensionalRadioMedium -->
<g id="edge2" class="edge">
<title>Ieee80211RadioMedium&#45;&gt;Ieee80211DimensionalRadioMedium</title>
<path fill="none" stroke="black" d="M181.59,-54.98C163.23,-45.15 133.18,-29.07 114.7,-19.17"/>
</g>
<!-- Ieee80211ScalarRadioMedium -->
<g id="node4" class="node">
<title>Ieee80211ScalarRadioMedium</title>
<g id="a_node4"><a xlink:href="inet.physicallayer.wireless.ieee80211.packetlevel.Ieee80211ScalarRadioMedium.html" xlink:title="Compound Module Ieee80211ScalarRadioMedium" target="_parent">
<polygon fill="#fffcaf" stroke="black" points="380,-19 215,-19 215,0 380,0 380,-19"/>
<text text-anchor="middle" x="297.5" y="-7" font-family="Helvetica,sans-Serif" font-size="10.00">Ieee80211ScalarRadioMedium</text>
</a>
</g>
</g>
<!-- Ieee80211RadioMedium&#45;&gt;Ieee80211ScalarRadioMedium -->
<g id="edge3" class="edge">
<title>Ieee80211RadioMedium&#45;&gt;Ieee80211ScalarRadioMedium</title>
<path fill="none" stroke="black" d="M213.57,-54.98C232.12,-45.15 262.47,-29.07 281.14,-19.17"/>
</g>
<!-- RadioMedium -->
<g id="node2" class="node">
<title>RadioMedium</title>
<g id="a_node2"><a xlink:href="inet.physicallayer.wireless.common.medium.RadioMedium.html" xlink:title="Compound Module RadioMedium" target="_parent">
<polygon fill="#fffcaf" stroke="black" points="239.5,-129 155.5,-129 155.5,-110 239.5,-110 239.5,-129"/>
<text text-anchor="middle" x="197.5" y="-117" font-family="Helvetica,sans-Serif" font-size="10.00">RadioMedium</text>
</a>
</g>
</g>
<!-- RadioMedium&#45;&gt;Ieee80211RadioMedium -->
<g id="edge1" class="edge">
<title>RadioMedium&#45;&gt;Ieee80211RadioMedium</title>
<path fill="none" stroke="black" d="M197.5,-109.75C197.5,-99.87 197.5,-83.9 197.5,-74.09"/>
</g>
</g>
</svg>
