<?xml version="1.0" encoding="UTF-8" standalone="no"?>
<!DOCTYPE svg PUBLIC "-//W3C//DTD SVG 1.1//EN"
 "http://www.w3.org/Graphics/SVG/1.1/DTD/svg11.dtd">
<!-- Generated by graphviz version 2.43.0 (0)
 -->
<!-- Title: opp Pages: 1 -->
<svg width="831pt" height="82pt"
 viewBox="0.00 0.00 830.50 82.00" xmlns="http://www.w3.org/2000/svg" xmlns:xlink="http://www.w3.org/1999/xlink">
<g id="graph0" class="graph" transform="scale(1 1) rotate(0) translate(4 78)">
<title>opp</title>
<polygon fill="transparent" stroke="transparent" points="-4,4 -4,-78 826.5,-78 826.5,4 -4,4"/>
<!-- SimpleTest -->
<g id="node1" class="node">
<title>SimpleTest</title>
<g id="a_node1"><a xlink:href="inet.examples.rip.simpletest.SimpleTest.html" xlink:title="Network SimpleTest" target="_parent">
<polygon fill="#9090ff" stroke="black" points="373.5,-74 303.5,-74 303.5,-55 373.5,-55 373.5,-74"/>
<text text-anchor="middle" x="338.5" y="-62" font-family="Helvetica,sans-Serif" font-size="10.00">SimpleTest</text>
</a>
</g>
</g>
<!-- RipRouter -->
<g id="node2" class="node">
<title>RipRouter</title>
<g id="a_node2"><a xlink:href="inet.node.rip.RipRouter.html" xlink:title="Compound Module RipRouter" target="_parent">
<polygon fill="#fffcaf" stroke="black" points="65,-19 0,-19 0,0 65,0 65,-19"/>
<text text-anchor="middle" x="32.5" y="-7" font-family="Helvetica,sans-Serif" font-size="10.00">RipRouter</text>
</a>
</g>
</g>
<!-- SimpleTest&#45;&gt;RipRouter -->
<g id="edge1" class="edge">
<title>SimpleTest&#45;&gt;RipRouter</title>
<path fill="none" stroke="black" d="M303.42,-57.96C254.61,-50.17 163.22,-35.29 74.95,-19.03"/>
<polygon fill="black" stroke="black" points="75.51,-15.57 65.04,-17.19 74.23,-22.46 75.51,-15.57"/>
</g>
<!-- C -->
<g id="node3" class="node">
<title>C</title>
<g id="a_node3"><a xlink:href="inet.examples.rip.simpletest.SimpleTest.C.html" xlink:title="Channel C" target="_parent">
<polygon fill="#d0ffd0" stroke="black" points="137.5,-19 83.5,-19 83.5,0 137.5,0 137.5,-19"/>
<text text-anchor="middle" x="110.5" y="-7" font-family="Helvetica,sans-Serif" font-size="10.00">C</text>
</a>
</g>
</g>
<!-- SimpleTest&#45;&gt;C -->
<g id="edge2" class="edge">
<title>SimpleTest&#45;&gt;C</title>
<path fill="none" stroke="black" d="M303.45,-55.42C266.99,-47.01 207.95,-33.36 147.69,-19.27"/>
<polygon fill="black" stroke="black" points="148.16,-15.79 137.62,-16.92 146.56,-22.6 148.16,-15.79"/>
</g>
<!-- RoutingTableRecorder -->
<g id="node4" class="node">
<title>RoutingTableRecorder</title>
<g id="a_node4"><a xlink:href="inet.networklayer.ipv4.RoutingTableRecorder.html" xlink:title="Simple Module RoutingTableRecorder" target="_parent">
<polygon fill="#fffcaf" stroke="black" points="279,-19 156,-19 156,0 279,0 279,-19"/>
<text text-anchor="middle" x="217.5" y="-7" font-family="Helvetica,sans-Serif" font-size="10.00">RoutingTableRecorder</text>
</a>
</g>
</g>
<!-- SimpleTest&#45;&gt;RoutingTableRecorder -->
<g id="edge3" class="edge">
<title>SimpleTest&#45;&gt;RoutingTableRecorder</title>
<path fill="none" stroke="black" d="M319.06,-54.98C299.51,-46.42 269.12,-33.11 246.68,-23.28"/>
<polygon fill="black" stroke="black" points="247.86,-19.98 237.29,-19.17 245.05,-26.39 247.86,-19.98"/>
</g>
<!-- StandardHost -->
<g id="node5" class="node">
<title>StandardHost</title>
<g id="a_node5"><a xlink:href="inet.node.inet.StandardHost.html" xlink:title="Compound Module StandardHost" target="_parent">
<polygon fill="#fffcaf" stroke="black" points="380,-19 297,-19 297,0 380,0 380,-19"/>
<text text-anchor="middle" x="338.5" y="-7" font-family="Helvetica,sans-Serif" font-size="10.00">StandardHost</text>
</a>
</g>
</g>
<!-- SimpleTest&#45;&gt;StandardHost -->
<g id="edge4" class="edge">
<title>SimpleTest&#45;&gt;StandardHost</title>
<path fill="none" stroke="black" d="M338.5,-54.75C338.5,-47.8 338.5,-37.85 338.5,-29.13"/>
<polygon fill="black" stroke="black" points="342,-29.09 338.5,-19.09 335,-29.09 342,-29.09"/>
</g>
<!-- EthernetSwitch -->
<g id="node6" class="node">
<title>EthernetSwitch</title>
<g id="a_node6"><a xlink:href="inet.node.ethernet.EthernetSwitch.html" xlink:title="Compound Module EthernetSwitch" target="_parent">
<polygon fill="#fffcaf" stroke="black" points="488.5,-19 398.5,-19 398.5,0 488.5,0 488.5,-19"/>
<text text-anchor="middle" x="443.5" y="-7" font-family="Helvetica,sans-Serif" font-size="10.00">EthernetSwitch</text>
</a>
</g>
</g>
<!-- SimpleTest&#45;&gt;EthernetSwitch -->
<g id="edge5" class="edge">
<title>SimpleTest&#45;&gt;EthernetSwitch</title>
<path fill="none" stroke="black" d="M355.37,-54.98C372.11,-46.54 398,-33.47 417.39,-23.68"/>
<polygon fill="black" stroke="black" points="418.97,-26.8 426.32,-19.17 415.82,-20.55 418.97,-26.8"/>
</g>
<!-- Ipv4NetworkConfigurator -->
<g id="node7" class="node">
<title>Ipv4NetworkConfigurator</title>
<g id="a_node7"><a xlink:href="inet.networklayer.configurator.ipv4.Ipv4NetworkConfigurator.html" xlink:title="Simple Module Ipv4NetworkConfigurator" target="_parent">
<polygon fill="#fffcaf" stroke="black" points="646,-19 507,-19 507,0 646,0 646,-19"/>
<text text-anchor="middle" x="576.5" y="-7" font-family="Helvetica,sans-Serif" font-size="10.00">Ipv4NetworkConfigurator</text>
</a>
</g>
</g>
<!-- SimpleTest&#45;&gt;Ipv4NetworkConfigurator -->
<g id="edge6" class="edge">
<title>SimpleTest&#45;&gt;Ipv4NetworkConfigurator</title>
<path fill="none" stroke="black" d="M373.62,-55.68C414.49,-46.58 482.22,-31.49 528.07,-21.28"/>
<polygon fill="black" stroke="black" points="529.08,-24.65 538.08,-19.06 527.56,-17.81 529.08,-24.65"/>
</g>
<!-- Ipv6FlatNetworkConfigurator -->
<g id="node8" class="node">
<title>Ipv6FlatNetworkConfigurator</title>
<g id="a_node8"><a xlink:href="inet.networklayer.configurator.ipv6.Ipv6FlatNetworkConfigurator.html" xlink:title="Simple Module Ipv6FlatNetworkConfigurator" target="_parent">
<polygon fill="#fffcaf" stroke="black" points="822.5,-19 664.5,-19 664.5,0 822.5,0 822.5,-19"/>
<text text-anchor="middle" x="743.5" y="-7" font-family="Helvetica,sans-Serif" font-size="10.00">Ipv6FlatNetworkConfigurator</text>
</a>
</g>
</g>
<!-- SimpleTest&#45;&gt;Ipv6FlatNetworkConfigurator -->
<g id="edge7" class="edge">
<title>SimpleTest&#45;&gt;Ipv6FlatNetworkConfigurator</title>
<path fill="none" stroke="black" d="M373.73,-58.89C439.08,-50.34 580.38,-31.85 668.16,-20.36"/>
<polygon fill="black" stroke="black" points="668.86,-23.8 678.32,-19.03 667.95,-16.86 668.86,-23.8"/>
</g>
</g>
</svg>
