<?xml version="1.0" encoding="UTF-8" standalone="no"?>
<!DOCTYPE svg PUBLIC "-//W3C//DTD SVG 1.1//EN"
 "http://www.w3.org/Graphics/SVG/1.1/DTD/svg11.dtd">
<!-- Generated by graphviz version 2.43.0 (0)
 -->
<!-- Title: opp Pages: 1 -->
<svg width="388pt" height="137pt"
 viewBox="0.00 0.00 388.00 137.00" xmlns="http://www.w3.org/2000/svg" xmlns:xlink="http://www.w3.org/1999/xlink">
<g id="graph0" class="graph" transform="scale(1 1) rotate(0) translate(4 133)">
<title>opp</title>
<polygon fill="transparent" stroke="transparent" points="-4,4 -4,-133 384,-133 384,4 -4,4"/>
<!-- Radio -->
<g id="node1" class="node">
<title>Radio</title>
<g id="a_node1"><a xlink:href="inet.physicallayer.wireless.common.radio.packetlevel.Radio.html" xlink:title="Compound Module Radio" target="_parent">
<polygon fill="#fff700" stroke="black" points="239,-74 185,-74 185,-55 239,-55 239,-74"/>
<text text-anchor="middle" x="212" y="-62" font-family="Helvetica,sans-Serif" font-size="10.00">Radio</text>
</a>
</g>
</g>
<!-- Ieee802154UwbIrRadio -->
<g id="node4" class="node">
<title>Ieee802154UwbIrRadio</title>
<g id="a_node4"><a xlink:href="inet.physicallayer.wireless.ieee802154.bitlevel.Ieee802154UwbIrRadio.html" xlink:title="Compound Module Ieee802154UwbIrRadio" target="_parent">
<polygon fill="#fffcaf" stroke="black" points="130,-19 0,-19 0,0 130,0 130,-19"/>
<text text-anchor="middle" x="65" y="-7" font-family="Helvetica,sans-Serif" font-size="10.00">Ieee802154UwbIrRadio</text>
</a>
</g>
</g>
<!-- Radio&#45;&gt;Ieee802154UwbIrRadio -->
<g id="edge3" class="edge">
<title>Radio&#45;&gt;Ieee802154UwbIrRadio</title>
<path fill="none" stroke="black" d="M188.38,-54.98C161.11,-45.15 116.5,-29.07 89.05,-19.17"/>
</g>
<!-- NarrowbandRadioBase -->
<g id="node5" class="node">
<title>NarrowbandRadioBase</title>
<g id="a_node5"><a xlink:href="inet.physicallayer.wireless.common.base.packetlevel.NarrowbandRadioBase.html" xlink:title="Compound Module NarrowbandRadioBase" target="_parent">
<polygon fill="#fffcaf" stroke="black" points="276,-19 148,-19 148,0 276,0 276,-19"/>
<text text-anchor="middle" x="212" y="-7" font-family="Helvetica,sans-Serif" font-size="10.00">NarrowbandRadioBase</text>
</a>
</g>
</g>
<!-- Radio&#45;&gt;NarrowbandRadioBase -->
<g id="edge4" class="edge">
<title>Radio&#45;&gt;NarrowbandRadioBase</title>
<path fill="none" stroke="black" d="M212,-54.75C212,-44.87 212,-28.9 212,-19.09"/>
</g>
<!-- UnitDiskRadio -->
<g id="node6" class="node">
<title>UnitDiskRadio</title>
<g id="a_node6"><a xlink:href="inet.physicallayer.wireless.unitdisk.UnitDiskRadio.html" xlink:title="Compound Module UnitDiskRadio" target="_parent">
<polygon fill="#fffcaf" stroke="black" points="380,-19 294,-19 294,0 380,0 380,-19"/>
<text text-anchor="middle" x="337" y="-7" font-family="Helvetica,sans-Serif" font-size="10.00">UnitDiskRadio</text>
</a>
</g>
</g>
<!-- Radio&#45;&gt;UnitDiskRadio -->
<g id="edge5" class="edge">
<title>Radio&#45;&gt;UnitDiskRadio</title>
<path fill="none" stroke="black" d="M232.08,-54.98C255.27,-45.15 293.21,-29.07 316.55,-19.17"/>
</g>
<!-- PhysicalLayerBase -->
<g id="node2" class="node">
<title>PhysicalLayerBase</title>
<g id="a_node2"><a xlink:href="inet.physicallayer.wireless.common.base.packetlevel.PhysicalLayerBase.html" xlink:title="Simple Module PhysicalLayerBase" target="_parent">
<polygon fill="#fffcaf" stroke="black" points="217,-129 109,-129 109,-110 217,-110 217,-129"/>
<text text-anchor="middle" x="163" y="-117" font-family="Helvetica,sans-Serif" font-size="10.00">PhysicalLayerBase</text>
</a>
</g>
</g>
<!-- PhysicalLayerBase&#45;&gt;Radio -->
<g id="edge1" class="edge">
<title>PhysicalLayerBase&#45;&gt;Radio</title>
<path fill="none" stroke="black" d="M171.09,-109.75C180.22,-99.87 194.99,-83.9 204.06,-74.09"/>
</g>
<!-- IRadio -->
<g id="node3" class="node">
<title>IRadio</title>
<g id="a_node3"><a xlink:href="inet.physicallayer.wireless.common.contract.packetlevel.IRadio.html" xlink:title="Module Interface IRadio" target="_parent">
<polygon fill="#fffcaf" stroke="black" stroke-dasharray="5,2" points="289,-129 235,-129 235,-110 289,-110 289,-129"/>
<text text-anchor="middle" x="262" y="-117" font-family="Helvetica,sans-Serif" font-size="10.00">IRadio</text>
</a>
</g>
</g>
<!-- IRadio&#45;&gt;Radio -->
<g id="edge2" class="edge">
<title>IRadio&#45;&gt;Radio</title>
<path fill="none" stroke="black" stroke-dasharray="5,2" d="M253.74,-109.75C244.42,-99.87 229.36,-83.9 220.1,-74.09"/>
</g>
</g>
</svg>
