<?xml version="1.0" encoding="UTF-8" standalone="no"?>
<!DOCTYPE svg PUBLIC "-//W3C//DTD SVG 1.1//EN"
 "http://www.w3.org/Graphics/SVG/1.1/DTD/svg11.dtd">
<!-- Generated by graphviz version 2.43.0 (0)
 -->
<!-- Title: opp Pages: 1 -->
<svg width="538pt" height="137pt"
 viewBox="0.00 0.00 538.00 137.00" xmlns="http://www.w3.org/2000/svg" xmlns:xlink="http://www.w3.org/1999/xlink">
<g id="graph0" class="graph" transform="scale(1 1) rotate(0) translate(4 133)">
<title>opp</title>
<polygon fill="transparent" stroke="transparent" points="-4,4 -4,-133 534,-133 534,4 -4,4"/>
<!-- ClientHost3 -->
<g id="node1" class="node">
<title>ClientHost3</title>
<g id="a_node1"><a xlink:href="inet.tutorials.protocol.ClientHost3.html" xlink:title="Compound Module ClientHost3" target="_parent">
<polygon fill="#fff700" stroke="black" points="299,-74 225,-74 225,-55 299,-55 299,-74"/>
<text text-anchor="middle" x="262" y="-62" font-family="Helvetica,sans-Serif" font-size="10.00">ClientHost3</text>
</a>
</g>
</g>
<!-- InstantServer -->
<g id="node2" class="node">
<title>InstantServer</title>
<g id="a_node2"><a xlink:href="inet.queueing.server.InstantServer.html" xlink:title="Simple Module InstantServer" target="_parent">
<polygon fill="#fffcaf" stroke="black" points="82,-19 0,-19 0,0 82,0 82,-19"/>
<text text-anchor="middle" x="41" y="-7" font-family="Helvetica,sans-Serif" font-size="10.00">InstantServer</text>
</a>
</g>
</g>
<!-- ClientHost3&#45;&gt;InstantServer -->
<g id="edge1" class="edge">
<title>ClientHost3&#45;&gt;InstantServer</title>
<path fill="none" stroke="black" d="M226.49,-54.98C188.51,-45.87 128.13,-31.4 86.64,-21.45"/>
<polygon fill="black" stroke="black" points="87.33,-18.01 76.79,-19.08 85.69,-24.82 87.33,-18.01"/>
</g>
<!-- PacketTransmitter -->
<g id="node3" class="node">
<title>PacketTransmitter</title>
<g id="a_node3"><a xlink:href="inet.protocolelement.transceiver.PacketTransmitter.html" xlink:title="Simple Module PacketTransmitter" target="_parent">
<polygon fill="#fffcaf" stroke="black" points="204,-19 100,-19 100,0 204,0 204,-19"/>
<text text-anchor="middle" x="152" y="-7" font-family="Helvetica,sans-Serif" font-size="10.00">PacketTransmitter</text>
</a>
</g>
</g>
<!-- ClientHost3&#45;&gt;PacketTransmitter -->
<g id="edge2" class="edge">
<title>ClientHost3&#45;&gt;PacketTransmitter</title>
<path fill="none" stroke="black" d="M244.33,-54.98C226.71,-46.5 199.42,-33.35 179.07,-23.54"/>
<polygon fill="black" stroke="black" points="180.52,-20.36 169.99,-19.17 177.48,-26.66 180.52,-20.36"/>
</g>
<!-- PacketQueue -->
<g id="node4" class="node">
<title>PacketQueue</title>
<g id="a_node4"><a xlink:href="inet.queueing.queue.PacketQueue.html" xlink:title="Simple Module PacketQueue" target="_parent">
<polygon fill="#fffcaf" stroke="black" points="302,-19 222,-19 222,0 302,0 302,-19"/>
<text text-anchor="middle" x="262" y="-7" font-family="Helvetica,sans-Serif" font-size="10.00">PacketQueue</text>
</a>
</g>
</g>
<!-- ClientHost3&#45;&gt;PacketQueue -->
<g id="edge3" class="edge">
<title>ClientHost3&#45;&gt;PacketQueue</title>
<path fill="none" stroke="black" d="M262,-54.75C262,-47.8 262,-37.85 262,-29.13"/>
<polygon fill="black" stroke="black" points="265.5,-29.09 262,-19.09 258.5,-29.09 265.5,-29.09"/>
</g>
<!-- IdealChannel -->
<g id="node5" class="node">
<title>IdealChannel</title>
<g id="a_node5"><a xlink:href="ned.IdealChannel.html" xlink:title="Channel IdealChannel" target="_parent">
<polygon fill="#d0ffd0" stroke="black" points="400,-19 320,-19 320,0 400,0 400,-19"/>
<text text-anchor="middle" x="360" y="-7" font-family="Helvetica,sans-Serif" font-size="10.00">IdealChannel</text>
</a>
</g>
</g>
<!-- ClientHost3&#45;&gt;IdealChannel -->
<g id="edge4" class="edge">
<title>ClientHost3&#45;&gt;IdealChannel</title>
<path fill="none" stroke="black" d="M277.75,-54.98C293.23,-46.61 317.09,-33.7 335.14,-23.95"/>
<polygon fill="black" stroke="black" points="336.84,-27.01 343.97,-19.17 333.51,-20.85 336.84,-27.01"/>
</g>
<!-- ActivePacketSource -->
<g id="node6" class="node">
<title>ActivePacketSource</title>
<g id="a_node6"><a xlink:href="inet.queueing.source.ActivePacketSource.html" xlink:title="Simple Module ActivePacketSource" target="_parent">
<polygon fill="#fffcaf" stroke="black" points="530,-19 418,-19 418,0 530,0 530,-19"/>
<text text-anchor="middle" x="474" y="-7" font-family="Helvetica,sans-Serif" font-size="10.00">ActivePacketSource</text>
</a>
</g>
</g>
<!-- ClientHost3&#45;&gt;ActivePacketSource -->
<g id="edge5" class="edge">
<title>ClientHost3&#45;&gt;ActivePacketSource</title>
<path fill="none" stroke="black" d="M296.06,-54.98C332.42,-45.89 390.17,-31.46 429.97,-21.51"/>
<polygon fill="black" stroke="black" points="430.82,-24.9 439.67,-19.08 429.12,-18.11 430.82,-24.9"/>
</g>
<!-- Network3 -->
<g id="node7" class="node">
<title>Network3</title>
<g id="a_node7"><a xlink:href="inet.tutorials.protocol.Network3.html" xlink:title="Network Network3" target="_parent">
<polygon fill="#d0d0ff" stroke="black" points="294,-129 230,-129 230,-110 294,-110 294,-129"/>
<text text-anchor="middle" x="262" y="-117" font-family="Helvetica,sans-Serif" font-size="10.00">Network3</text>
</a>
</g>
</g>
<!-- Network3&#45;&gt;ClientHost3 -->
<g id="edge6" class="edge">
<title>Network3&#45;&gt;ClientHost3</title>
<path fill="none" stroke="black" d="M262,-109.75C262,-102.8 262,-92.85 262,-84.13"/>
<polygon fill="black" stroke="black" points="265.5,-84.09 262,-74.09 258.5,-84.09 265.5,-84.09"/>
</g>
</g>
</svg>
