<?xml version="1.0" encoding="UTF-8" standalone="no"?>
<!DOCTYPE svg PUBLIC "-//W3C//DTD SVG 1.1//EN"
 "http://www.w3.org/Graphics/SVG/1.1/DTD/svg11.dtd">
<!-- Generated by graphviz version 2.43.0 (0)
 -->
<!-- Title: opp Pages: 1 -->
<svg width="306pt" height="82pt"
 viewBox="0.00 0.00 305.50 82.00" xmlns="http://www.w3.org/2000/svg" xmlns:xlink="http://www.w3.org/1999/xlink">
<g id="graph0" class="graph" transform="scale(1 1) rotate(0) translate(4 78)">
<title>opp</title>
<polygon fill="transparent" stroke="transparent" points="-4,4 -4,-78 301.5,-78 301.5,4 -4,4"/>
<!-- IPacketSource -->
<g id="node1" class="node">
<title>IPacketSource</title>
<g id="a_node1"><a xlink:href="inet.queueing.contract.IPacketSource.html" xlink:title="Module Interface IPacketSource" target="_parent">
<polygon fill="#fff700" stroke="black" stroke-dasharray="5,2" points="210.5,-74 126.5,-74 126.5,-55 210.5,-55 210.5,-74"/>
<text text-anchor="middle" x="168.5" y="-62" font-family="Helvetica,sans-Serif" font-size="10.00">IPacketSource</text>
</a>
</g>
</g>
<!-- EmptyPacketSource -->
<g id="node2" class="node">
<title>EmptyPacketSource</title>
<g id="a_node2"><a xlink:href="inet.queueing.source.EmptyPacketSource.html" xlink:title="Simple Module EmptyPacketSource" target="_parent">
<polygon fill="#fffcaf" stroke="black" points="113,-19 0,-19 0,0 113,0 113,-19"/>
<text text-anchor="middle" x="56.5" y="-7" font-family="Helvetica,sans-Serif" font-size="10.00">EmptyPacketSource</text>
</a>
</g>
</g>
<!-- IPacketSource&#45;&gt;EmptyPacketSource -->
<g id="edge1" class="edge">
<title>IPacketSource&#45;&gt;EmptyPacketSource</title>
<path fill="none" stroke="black" stroke-dasharray="5,2" d="M150.51,-54.98C129.73,-45.15 95.74,-29.07 74.82,-19.17"/>
</g>
<!-- IPacketFlow -->
<g id="node3" class="node">
<title>IPacketFlow</title>
<g id="a_node3"><a xlink:href="inet.queueing.contract.IPacketFlow.html" xlink:title="Module Interface IPacketFlow" target="_parent">
<polygon fill="#fffcaf" stroke="black" stroke-dasharray="5,2" points="205.5,-19 131.5,-19 131.5,0 205.5,0 205.5,-19"/>
<text text-anchor="middle" x="168.5" y="-7" font-family="Helvetica,sans-Serif" font-size="10.00">IPacketFlow</text>
</a>
</g>
</g>
<!-- IPacketSource&#45;&gt;IPacketFlow -->
<g id="edge2" class="edge">
<title>IPacketSource&#45;&gt;IPacketFlow</title>
<path fill="none" stroke="black" d="M168.5,-54.75C168.5,-44.87 168.5,-28.9 168.5,-19.09"/>
</g>
<!-- IPacketGate -->
<g id="node4" class="node">
<title>IPacketGate</title>
<g id="a_node4"><a xlink:href="inet.queueing.contract.IPacketGate.html" xlink:title="Module Interface IPacketGate" target="_parent">
<polygon fill="#fffcaf" stroke="black" stroke-dasharray="5,2" points="297.5,-19 223.5,-19 223.5,0 297.5,0 297.5,-19"/>
<text text-anchor="middle" x="260.5" y="-7" font-family="Helvetica,sans-Serif" font-size="10.00">IPacketGate</text>
</a>
</g>
</g>
<!-- IPacketSource&#45;&gt;IPacketGate -->
<g id="edge3" class="edge">
<title>IPacketSource&#45;&gt;IPacketGate</title>
<path fill="none" stroke="black" d="M183.28,-54.98C200.35,-45.15 228.27,-29.07 245.45,-19.17"/>
</g>
</g>
</svg>
