<?xml version="1.0" encoding="UTF-8" standalone="no"?>
<!DOCTYPE svg PUBLIC "-//W3C//DTD SVG 1.1//EN"
 "http://www.w3.org/Graphics/SVG/1.1/DTD/svg11.dtd">
<!-- Generated by graphviz version 2.43.0 (0)
 -->
<!-- Title: opp Pages: 1 -->
<svg width="300pt" height="82pt"
 viewBox="0.00 0.00 299.50 82.00" xmlns="http://www.w3.org/2000/svg" xmlns:xlink="http://www.w3.org/1999/xlink">
<g id="graph0" class="graph" transform="scale(1 1) rotate(0) translate(4 78)">
<title>opp</title>
<polygon fill="transparent" stroke="transparent" points="-4,4 -4,-78 295.5,-78 295.5,4 -4,4"/>
<!-- Ieee8021qTagEpdHeaderInserter -->
<g id="node1" class="node">
<title>Ieee8021qTagEpdHeaderInserter</title>
<g id="a_node1"><a xlink:href="inet.linklayer.ieee8021q.Ieee8021qTagEpdHeaderInserter.html" xlink:title="Simple Module Ieee8021qTagEpdHeaderInserter" target="_parent">
<polygon fill="#fff700" stroke="black" points="212,-19 37,-19 37,0 212,0 212,-19"/>
<text text-anchor="middle" x="124.5" y="-7" font-family="Helvetica,sans-Serif" font-size="10.00">Ieee8021qTagEpdHeaderInserter</text>
</a>
</g>
</g>
<!-- PacketFlowBase -->
<g id="node2" class="node">
<title>PacketFlowBase</title>
<g id="a_node2"><a xlink:href="inet.queueing.base.PacketFlowBase.html" xlink:title="Simple Module PacketFlowBase" target="_parent">
<polygon fill="#fffcaf" stroke="black" points="95,-74 0,-74 0,-55 95,-55 95,-74"/>
<text text-anchor="middle" x="47.5" y="-62" font-family="Helvetica,sans-Serif" font-size="10.00">PacketFlowBase</text>
</a>
</g>
</g>
<!-- PacketFlowBase&#45;&gt;Ieee8021qTagEpdHeaderInserter -->
<g id="edge1" class="edge">
<title>PacketFlowBase&#45;&gt;Ieee8021qTagEpdHeaderInserter</title>
<path fill="none" stroke="black" d="M59.87,-54.98C74.16,-45.15 97.52,-29.07 111.9,-19.17"/>
</g>
<!-- IIeee8021qTagEpdHeaderInserter -->
<g id="node3" class="node">
<title>IIeee8021qTagEpdHeaderInserter</title>
<g id="a_node3"><a xlink:href="inet.linklayer.ieee8021q.IIeee8021qTagEpdHeaderInserter.html" xlink:title="Module Interface IIeee8021qTagEpdHeaderInserter" target="_parent">
<polygon fill="#fffcaf" stroke="black" stroke-dasharray="5,2" points="291.5,-74 113.5,-74 113.5,-55 291.5,-55 291.5,-74"/>
<text text-anchor="middle" x="202.5" y="-62" font-family="Helvetica,sans-Serif" font-size="10.00">IIeee8021qTagEpdHeaderInserter</text>
</a>
</g>
</g>
<!-- IIeee8021qTagEpdHeaderInserter&#45;&gt;Ieee8021qTagEpdHeaderInserter -->
<g id="edge2" class="edge">
<title>IIeee8021qTagEpdHeaderInserter&#45;&gt;Ieee8021qTagEpdHeaderInserter</title>
<path fill="none" stroke="black" stroke-dasharray="5,2" d="M189.97,-54.98C175.5,-45.15 151.83,-29.07 137.26,-19.17"/>
</g>
</g>
</svg>
