<?xml version="1.0" encoding="UTF-8" standalone="no"?>
<!DOCTYPE svg PUBLIC "-//W3C//DTD SVG 1.1//EN"
 "http://www.w3.org/Graphics/SVG/1.1/DTD/svg11.dtd">
<!-- Generated by graphviz version 2.43.0 (0)
 -->
<!-- Title: opp Pages: 1 -->
<svg width="208pt" height="137pt"
 viewBox="0.00 0.00 207.50 137.00" xmlns="http://www.w3.org/2000/svg" xmlns:xlink="http://www.w3.org/1999/xlink">
<g id="graph0" class="graph" transform="scale(1 1) rotate(0) translate(4 133)">
<title>opp</title>
<polygon fill="transparent" stroke="transparent" points="-4,4 -4,-133 203.5,-133 203.5,4 -4,4"/>
<!-- TokenBucketMeter -->
<g id="node1" class="node">
<title>TokenBucketMeter</title>
<g id="a_node1"><a xlink:href="inet.queueing.meter.TokenBucketMeter.html" xlink:title="Simple Module TokenBucketMeter" target="_parent">
<polygon fill="#fff700" stroke="black" points="157.5,-74 51.5,-74 51.5,-55 157.5,-55 157.5,-74"/>
<text text-anchor="middle" x="104.5" y="-62" font-family="Helvetica,sans-Serif" font-size="10.00">TokenBucketMeter</text>
</a>
</g>
</g>
<!-- SingleRateTwoColorMeter -->
<g id="node4" class="node">
<title>SingleRateTwoColorMeter</title>
<g id="a_node4"><a xlink:href="inet.queueing.meter.SingleRateTwoColorMeter.html" xlink:title="Simple Module SingleRateTwoColorMeter" target="_parent">
<polygon fill="#fffcaf" stroke="black" points="175.5,-19 33.5,-19 33.5,0 175.5,0 175.5,-19"/>
<text text-anchor="middle" x="104.5" y="-7" font-family="Helvetica,sans-Serif" font-size="10.00">SingleRateTwoColorMeter</text>
</a>
</g>
</g>
<!-- TokenBucketMeter&#45;&gt;SingleRateTwoColorMeter -->
<g id="edge3" class="edge">
<title>TokenBucketMeter&#45;&gt;SingleRateTwoColorMeter</title>
<path fill="none" stroke="black" d="M104.5,-54.75C104.5,-44.87 104.5,-28.9 104.5,-19.09"/>
</g>
<!-- PacketMeterBase -->
<g id="node2" class="node">
<title>PacketMeterBase</title>
<g id="a_node2"><a xlink:href="inet.queueing.base.PacketMeterBase.html" xlink:title="Simple Module PacketMeterBase" target="_parent">
<polygon fill="#fffcaf" stroke="black" points="101,-129 0,-129 0,-110 101,-110 101,-129"/>
<text text-anchor="middle" x="50.5" y="-117" font-family="Helvetica,sans-Serif" font-size="10.00">PacketMeterBase</text>
</a>
</g>
</g>
<!-- PacketMeterBase&#45;&gt;TokenBucketMeter -->
<g id="edge1" class="edge">
<title>PacketMeterBase&#45;&gt;TokenBucketMeter</title>
<path fill="none" stroke="black" d="M59.42,-109.75C69.48,-99.87 85.75,-83.9 95.75,-74.09"/>
</g>
<!-- IPacketMeter -->
<g id="node3" class="node">
<title>IPacketMeter</title>
<g id="a_node3"><a xlink:href="inet.queueing.contract.IPacketMeter.html" xlink:title="Module Interface IPacketMeter" target="_parent">
<polygon fill="#fffcaf" stroke="black" stroke-dasharray="5,2" points="199.5,-129 119.5,-129 119.5,-110 199.5,-110 199.5,-129"/>
<text text-anchor="middle" x="159.5" y="-117" font-family="Helvetica,sans-Serif" font-size="10.00">IPacketMeter</text>
</a>
</g>
</g>
<!-- IPacketMeter&#45;&gt;TokenBucketMeter -->
<g id="edge2" class="edge">
<title>IPacketMeter&#45;&gt;TokenBucketMeter</title>
<path fill="none" stroke="black" stroke-dasharray="5,2" d="M150.42,-109.75C140.17,-99.87 123.59,-83.9 113.41,-74.09"/>
</g>
</g>
</svg>
