<?xml version="1.0" encoding="UTF-8" standalone="no"?>
<!DOCTYPE svg PUBLIC "-//W3C//DTD SVG 1.1//EN"
 "http://www.w3.org/Graphics/SVG/1.1/DTD/svg11.dtd">
<!-- Generated by graphviz version 2.43.0 (0)
 -->
<!-- Title: opp Pages: 1 -->
<svg width="374pt" height="82pt"
 viewBox="0.00 0.00 374.00 82.00" xmlns="http://www.w3.org/2000/svg" xmlns:xlink="http://www.w3.org/1999/xlink">
<g id="graph0" class="graph" transform="scale(1 1) rotate(0) translate(4 78)">
<title>opp</title>
<polygon fill="transparent" stroke="transparent" points="-4,4 -4,-78 370,-78 370,4 -4,4"/>
<!-- Ipv4hook -->
<g id="node1" class="node">
<title>Ipv4hook</title>
<g id="a_node1"><a xlink:href="inet.examples.inet.ipv4hook.Ipv4hook.html" xlink:title="Network Ipv4hook" target="_parent">
<polygon fill="#9090ff" stroke="black" points="197,-74 135,-74 135,-55 197,-55 197,-74"/>
<text text-anchor="middle" x="166" y="-62" font-family="Helvetica,sans-Serif" font-size="10.00">Ipv4hook</text>
</a>
</g>
</g>
<!-- MyRouter -->
<g id="node2" class="node">
<title>MyRouter</title>
<g id="a_node2"><a xlink:href="inet.examples.inet.ipv4hook.MyRouter.html" xlink:title="Compound Module MyRouter" target="_parent">
<polygon fill="#fffcaf" stroke="black" points="64,-19 0,-19 0,0 64,0 64,-19"/>
<text text-anchor="middle" x="32" y="-7" font-family="Helvetica,sans-Serif" font-size="10.00">MyRouter</text>
</a>
</g>
</g>
<!-- Ipv4hook&#45;&gt;MyRouter -->
<g id="edge1" class="edge">
<title>Ipv4hook&#45;&gt;MyRouter</title>
<path fill="none" stroke="black" d="M144.47,-54.98C122.53,-46.3 88.26,-32.75 63.31,-22.88"/>
<polygon fill="black" stroke="black" points="64.51,-19.59 53.92,-19.17 61.93,-26.1 64.51,-19.59"/>
</g>
<!-- MyHost -->
<g id="node3" class="node">
<title>MyHost</title>
<g id="a_node3"><a xlink:href="inet.examples.inet.ipv4hook.MyHost.html" xlink:title="Compound Module MyHost" target="_parent">
<polygon fill="#fffcaf" stroke="black" points="136,-19 82,-19 82,0 136,0 136,-19"/>
<text text-anchor="middle" x="109" y="-7" font-family="Helvetica,sans-Serif" font-size="10.00">MyHost</text>
</a>
</g>
</g>
<!-- Ipv4hook&#45;&gt;MyHost -->
<g id="edge2" class="edge">
<title>Ipv4hook&#45;&gt;MyHost</title>
<path fill="none" stroke="black" d="M156.84,-54.98C148.5,-47.23 135.97,-35.58 125.82,-26.14"/>
<polygon fill="black" stroke="black" points="128.03,-23.42 118.32,-19.17 123.26,-28.54 128.03,-23.42"/>
</g>
<!-- Ipv4NetworkConfigurator -->
<g id="node4" class="node">
<title>Ipv4NetworkConfigurator</title>
<g id="a_node4"><a xlink:href="inet.networklayer.configurator.ipv4.Ipv4NetworkConfigurator.html" xlink:title="Simple Module Ipv4NetworkConfigurator" target="_parent">
<polygon fill="#fffcaf" stroke="black" points="293.5,-19 154.5,-19 154.5,0 293.5,0 293.5,-19"/>
<text text-anchor="middle" x="224" y="-7" font-family="Helvetica,sans-Serif" font-size="10.00">Ipv4NetworkConfigurator</text>
</a>
</g>
</g>
<!-- Ipv4hook&#45;&gt;Ipv4NetworkConfigurator -->
<g id="edge3" class="edge">
<title>Ipv4hook&#45;&gt;Ipv4NetworkConfigurator</title>
<path fill="none" stroke="black" d="M175.32,-54.98C183.81,-47.23 196.56,-35.58 206.88,-26.14"/>
<polygon fill="black" stroke="black" points="209.49,-28.5 214.51,-19.17 204.77,-23.33 209.49,-28.5"/>
</g>
<!-- C -->
<g id="node5" class="node">
<title>C</title>
<g id="a_node5"><a xlink:href="inet.examples.inet.ipv4hook.Ipv4hook.C.html" xlink:title="Channel C" target="_parent">
<polygon fill="#d0ffd0" stroke="black" points="366,-19 312,-19 312,0 366,0 366,-19"/>
<text text-anchor="middle" x="339" y="-7" font-family="Helvetica,sans-Serif" font-size="10.00">C</text>
</a>
</g>
</g>
<!-- Ipv4hook&#45;&gt;C -->
<g id="edge4" class="edge">
<title>Ipv4hook&#45;&gt;C</title>
<path fill="none" stroke="black" d="M193.8,-54.98C223.23,-45.97 269.82,-31.69 302.26,-21.75"/>
<polygon fill="black" stroke="black" points="303.31,-25.1 311.84,-18.82 301.26,-18.4 303.31,-25.1"/>
</g>
</g>
</svg>
