<?xml version="1.0" encoding="UTF-8" standalone="no"?>
<!DOCTYPE svg PUBLIC "-//W3C//DTD SVG 1.1//EN"
 "http://www.w3.org/Graphics/SVG/1.1/DTD/svg11.dtd">
<!-- Generated by graphviz version 2.43.0 (0)
 -->
<!-- Title: opp Pages: 1 -->
<svg width="341pt" height="82pt"
 viewBox="0.00 0.00 341.00 82.00" xmlns="http://www.w3.org/2000/svg" xmlns:xlink="http://www.w3.org/1999/xlink">
<g id="graph0" class="graph" transform="scale(1 1) rotate(0) translate(4 78)">
<title>opp</title>
<polygon fill="transparent" stroke="transparent" points="-4,4 -4,-78 337,-78 337,4 -4,4"/>
<!-- multihomed -->
<g id="node1" class="node">
<title>multihomed</title>
<g id="a_node1"><a xlink:href="inet.examples.sctp.cmttest.multihomed.html" xlink:title="Network multihomed" target="_parent">
<polygon fill="#9090ff" stroke="black" points="217.5,-74 141.5,-74 141.5,-55 217.5,-55 217.5,-74"/>
<text text-anchor="middle" x="179.5" y="-62" font-family="Helvetica,sans-Serif" font-size="10.00">multihomed</text>
</a>
</g>
</g>
<!-- StandardHost -->
<g id="node2" class="node">
<title>StandardHost</title>
<g id="a_node2"><a xlink:href="inet.node.inet.StandardHost.html" xlink:title="Compound Module StandardHost" target="_parent">
<polygon fill="#fffcaf" stroke="black" points="83,-19 0,-19 0,0 83,0 83,-19"/>
<text text-anchor="middle" x="41.5" y="-7" font-family="Helvetica,sans-Serif" font-size="10.00">StandardHost</text>
</a>
</g>
</g>
<!-- multihomed&#45;&gt;StandardHost -->
<g id="edge1" class="edge">
<title>multihomed&#45;&gt;StandardHost</title>
<path fill="none" stroke="black" d="M157.33,-54.98C134.73,-46.3 99.44,-32.75 73.75,-22.88"/>
<polygon fill="black" stroke="black" points="74.67,-19.49 64.08,-19.17 72.16,-26.02 74.67,-19.49"/>
</g>
<!-- NormalPath -->
<g id="node3" class="node">
<title>NormalPath</title>
<g id="a_node3"><a xlink:href="inet.examples.sctp.cmttest.NormalPath.html" xlink:title="Channel NormalPath" target="_parent">
<polygon fill="#d0ffd0" stroke="black" points="175.5,-19 101.5,-19 101.5,0 175.5,0 175.5,-19"/>
<text text-anchor="middle" x="138.5" y="-7" font-family="Helvetica,sans-Serif" font-size="10.00">NormalPath</text>
</a>
</g>
</g>
<!-- multihomed&#45;&gt;NormalPath -->
<g id="edge2" class="edge">
<title>multihomed&#45;&gt;NormalPath</title>
<path fill="none" stroke="black" d="M172.73,-54.75C166.94,-47.26 158.44,-36.28 151.36,-27.13"/>
<polygon fill="black" stroke="black" points="154.03,-24.86 145.14,-19.09 148.49,-29.14 154.03,-24.86"/>
</g>
<!-- Router -->
<g id="node4" class="node">
<title>Router</title>
<g id="a_node4"><a xlink:href="inet.node.inet.Router.html" xlink:title="Compound Module Router" target="_parent">
<polygon fill="#fffcaf" stroke="black" points="247.5,-19 193.5,-19 193.5,0 247.5,0 247.5,-19"/>
<text text-anchor="middle" x="220.5" y="-7" font-family="Helvetica,sans-Serif" font-size="10.00">Router</text>
</a>
</g>
</g>
<!-- multihomed&#45;&gt;Router -->
<g id="edge3" class="edge">
<title>multihomed&#45;&gt;Router</title>
<path fill="none" stroke="black" d="M186.27,-54.75C192.06,-47.26 200.56,-36.28 207.64,-27.13"/>
<polygon fill="black" stroke="black" points="210.51,-29.14 213.86,-19.09 204.97,-24.86 210.51,-29.14"/>
</g>
<!-- BottlePath -->
<g id="node5" class="node">
<title>BottlePath</title>
<g id="a_node5"><a xlink:href="inet.examples.sctp.cmttest.BottlePath.html" xlink:title="Channel BottlePath" target="_parent">
<polygon fill="#d0ffd0" stroke="black" points="333,-19 266,-19 266,0 333,0 333,-19"/>
<text text-anchor="middle" x="299.5" y="-7" font-family="Helvetica,sans-Serif" font-size="10.00">BottlePath</text>
</a>
</g>
</g>
<!-- multihomed&#45;&gt;BottlePath -->
<g id="edge4" class="edge">
<title>multihomed&#45;&gt;BottlePath</title>
<path fill="none" stroke="black" d="M198.78,-54.98C218.17,-46.42 248.31,-33.11 270.57,-23.28"/>
<polygon fill="black" stroke="black" points="272.14,-26.41 279.87,-19.17 269.31,-20.01 272.14,-26.41"/>
</g>
</g>
</svg>
