<?xml version="1.0" encoding="UTF-8" standalone="no"?>
<!DOCTYPE svg PUBLIC "-//W3C//DTD SVG 1.1//EN"
 "http://www.w3.org/Graphics/SVG/1.1/DTD/svg11.dtd">
<!-- Generated by graphviz version 2.43.0 (0)
 -->
<!-- Title: opp Pages: 1 -->
<svg width="2779pt" height="137pt"
 viewBox="0.00 0.00 2779.00 137.00" xmlns="http://www.w3.org/2000/svg" xmlns:xlink="http://www.w3.org/1999/xlink">
<g id="graph0" class="graph" transform="scale(1 1) rotate(0) translate(4 133)">
<title>opp</title>
<polygon fill="transparent" stroke="transparent" points="-4,4 -4,-133 2775,-133 2775,4 -4,4"/>
<!-- IPacketFilter -->
<g id="node1" class="node">
<title>IPacketFilter</title>
<g id="a_node1"><a xlink:href="inet.queueing.contract.IPacketFilter.html" xlink:title="Module Interface IPacketFilter" target="_parent">
<polygon fill="#fff700" stroke="black" stroke-dasharray="5,2" points="1604,-74 1528,-74 1528,-55 1604,-55 1604,-74"/>
<text text-anchor="middle" x="1566" y="-62" font-family="Helvetica,sans-Serif" font-size="10.00">IPacketFilter</text>
</a>
</g>
</g>
<!-- ContentBasedFilter -->
<g id="node3" class="node">
<title>ContentBasedFilter</title>
<g id="a_node3"><a xlink:href="inet.queueing.filter.ContentBasedFilter.html" xlink:title="Simple Module ContentBasedFilter" target="_parent">
<polygon fill="#fffcaf" stroke="black" points="110,-19 0,-19 0,0 110,0 110,-19"/>
<text text-anchor="middle" x="55" y="-7" font-family="Helvetica,sans-Serif" font-size="10.00">ContentBasedFilter</text>
</a>
</g>
</g>
<!-- IPacketFilter&#45;&gt;ContentBasedFilter -->
<g id="edge2" class="edge">
<title>IPacketFilter&#45;&gt;ContentBasedFilter</title>
<path fill="none" stroke="black" stroke-dasharray="5,2" d="M1527.91,-63.74C1361.01,-64.51 677.62,-64.57 119,-19 116.1,-18.76 113.12,-18.49 110.12,-18.18"/>
</g>
<!-- DualIeee8021qFilter -->
<g id="node4" class="node">
<title>DualIeee8021qFilter</title>
<g id="a_node4"><a xlink:href="inet.linklayer.ieee8021q.DualIeee8021qFilter.html" xlink:title="Compound Module DualIeee8021qFilter" target="_parent">
<polygon fill="#fffcaf" stroke="black" points="243.5,-19 128.5,-19 128.5,0 243.5,0 243.5,-19"/>
<text text-anchor="middle" x="186" y="-7" font-family="Helvetica,sans-Serif" font-size="10.00">DualIeee8021qFilter</text>
</a>
</g>
</g>
<!-- IPacketFilter&#45;&gt;DualIeee8021qFilter -->
<g id="edge3" class="edge">
<title>IPacketFilter&#45;&gt;DualIeee8021qFilter</title>
<path fill="none" stroke="black" stroke-dasharray="5,2" d="M1527.79,-63.49C1370.3,-63.19 756.02,-59.35 253,-19 249.96,-18.76 246.85,-18.47 243.71,-18.16"/>
</g>
<!-- EligibilityTimeFilter -->
<g id="node5" class="node">
<title>EligibilityTimeFilter</title>
<g id="a_node5"><a xlink:href="inet.protocolelement.shaper.EligibilityTimeFilter.html" xlink:title="Simple Module EligibilityTimeFilter" target="_parent">
<polygon fill="#fffcaf" stroke="black" points="374,-19 262,-19 262,0 374,0 374,-19"/>
<text text-anchor="middle" x="318" y="-7" font-family="Helvetica,sans-Serif" font-size="10.00">EligibilityTimeFilter</text>
</a>
</g>
</g>
<!-- IPacketFilter&#45;&gt;EligibilityTimeFilter -->
<g id="edge4" class="edge">
<title>IPacketFilter&#45;&gt;EligibilityTimeFilter</title>
<path fill="none" stroke="black" stroke-dasharray="5,2" d="M1527.88,-63.35C1380.28,-62.48 832.29,-56.75 383,-19 380.16,-18.76 377.26,-18.49 374.34,-18.19"/>
</g>
<!-- EthernetAddressChecker -->
<g id="node6" class="node">
<title>EthernetAddressChecker</title>
<g id="a_node6"><a xlink:href="inet.linklayer.ethernet.modular.EthernetAddressChecker.html" xlink:title="Simple Module EthernetAddressChecker" target="_parent">
<polygon fill="#fffcaf" stroke="black" points="528,-19 392,-19 392,0 528,0 528,-19"/>
<text text-anchor="middle" x="460" y="-7" font-family="Helvetica,sans-Serif" font-size="10.00">EthernetAddressChecker</text>
</a>
</g>
</g>
<!-- IPacketFilter&#45;&gt;EthernetAddressChecker -->
<g id="edge5" class="edge">
<title>IPacketFilter&#45;&gt;EthernetAddressChecker</title>
<path fill="none" stroke="black" stroke-dasharray="5,2" d="M1527.63,-62.76C1392.07,-59.97 923,-48.62 537,-19 534.18,-18.78 531.31,-18.55 528.41,-18.29"/>
</g>
<!-- EthernetFcsChecker -->
<g id="node7" class="node">
<title>EthernetFcsChecker</title>
<g id="a_node7"><a xlink:href="inet.linklayer.ethernet.modular.EthernetFcsChecker.html" xlink:title="Simple Module EthernetFcsChecker" target="_parent">
<polygon fill="#fffcaf" stroke="black" points="659.5,-19 546.5,-19 546.5,0 659.5,0 659.5,-19"/>
<text text-anchor="middle" x="603" y="-7" font-family="Helvetica,sans-Serif" font-size="10.00">EthernetFcsChecker</text>
</a>
</g>
</g>
<!-- IPacketFilter&#45;&gt;EthernetFcsChecker -->
<g id="edge6" class="edge">
<title>IPacketFilter&#45;&gt;EthernetFcsChecker</title>
<path fill="none" stroke="black" stroke-dasharray="5,2" d="M1527.89,-62.68C1403.93,-59.78 1000.97,-48.57 669,-19 666.01,-18.73 662.94,-18.43 659.85,-18.11"/>
</g>
<!-- EthernetFragmentFcsChecker -->
<g id="node8" class="node">
<title>EthernetFragmentFcsChecker</title>
<g id="a_node8"><a xlink:href="inet.linklayer.ethernet.modular.EthernetFragmentFcsChecker.html" xlink:title="Simple Module EthernetFragmentFcsChecker" target="_parent">
<polygon fill="#fffcaf" stroke="black" points="838,-19 678,-19 678,0 838,0 838,-19"/>
<text text-anchor="middle" x="758" y="-7" font-family="Helvetica,sans-Serif" font-size="10.00">EthernetFragmentFcsChecker</text>
</a>
</g>
</g>
<!-- IPacketFilter&#45;&gt;EthernetFragmentFcsChecker -->
<g id="edge7" class="edge">
<title>IPacketFilter&#45;&gt;EthernetFragmentFcsChecker</title>
<path fill="none" stroke="black" stroke-dasharray="5,2" d="M1527.77,-61.58C1420.41,-56.11 1106.96,-39.45 847,-19 844.06,-18.77 841.07,-18.52 838.04,-18.27"/>
</g>
<!-- EthernetFragmentPhyHeaderChecker -->
<g id="node9" class="node">
<title>EthernetFragmentPhyHeaderChecker</title>
<g id="a_node9"><a xlink:href="inet.physicallayer.wired.ethernet.EthernetFragmentPhyHeaderChecker.html" xlink:title="Simple Module EthernetFragmentPhyHeaderChecker" target="_parent">
<polygon fill="#fffcaf" stroke="black" points="1053.5,-19 856.5,-19 856.5,0 1053.5,0 1053.5,-19"/>
<text text-anchor="middle" x="955" y="-7" font-family="Helvetica,sans-Serif" font-size="10.00">EthernetFragmentPhyHeaderChecker</text>
</a>
</g>
</g>
<!-- IPacketFilter&#45;&gt;EthernetFragmentPhyHeaderChecker -->
<g id="edge8" class="edge">
<title>IPacketFilter&#45;&gt;EthernetFragmentPhyHeaderChecker</title>
<path fill="none" stroke="black" stroke-dasharray="5,2" d="M1527.78,-60.18C1434.05,-52.05 1190.46,-30.92 1053.04,-19"/>
</g>
<!-- EthernetPhyHeaderChecker -->
<g id="node10" class="node">
<title>EthernetPhyHeaderChecker</title>
<g id="a_node10"><a xlink:href="inet.physicallayer.wired.ethernet.EthernetPhyHeaderChecker.html" xlink:title="Simple Module EthernetPhyHeaderChecker" target="_parent">
<polygon fill="#fffcaf" stroke="black" points="1222,-19 1072,-19 1072,0 1222,0 1222,-19"/>
<text text-anchor="middle" x="1147" y="-7" font-family="Helvetica,sans-Serif" font-size="10.00">EthernetPhyHeaderChecker</text>
</a>
</g>
</g>
<!-- IPacketFilter&#45;&gt;EthernetPhyHeaderChecker -->
<g id="edge9" class="edge">
<title>IPacketFilter&#45;&gt;EthernetPhyHeaderChecker</title>
<path fill="none" stroke="black" stroke-dasharray="5,2" d="M1527.71,-58.66C1456.59,-49.66 1303.32,-30.27 1214.46,-19.03"/>
</g>
<!-- EthernetTypeOrLengthChecker -->
<g id="node11" class="node">
<title>EthernetTypeOrLengthChecker</title>
<g id="a_node11"><a xlink:href="inet.linklayer.ethernet.modular.EthernetTypeOrLengthChecker.html" xlink:title="Simple Module EthernetTypeOrLengthChecker" target="_parent">
<polygon fill="#fffcaf" stroke="black" points="1404,-19 1240,-19 1240,0 1404,0 1404,-19"/>
<text text-anchor="middle" x="1322" y="-7" font-family="Helvetica,sans-Serif" font-size="10.00">EthernetTypeOrLengthChecker</text>
</a>
</g>
</g>
<!-- IPacketFilter&#45;&gt;EthernetTypeOrLengthChecker -->
<g id="edge10" class="edge">
<title>IPacketFilter&#45;&gt;EthernetTypeOrLengthChecker</title>
<path fill="none" stroke="black" stroke-dasharray="5,2" d="M1527.88,-55.22C1482.57,-45.38 1407.36,-29.04 1361.47,-19.07"/>
</g>
<!-- Ieee8021qFilter -->
<g id="node12" class="node">
<title>Ieee8021qFilter</title>
<g id="a_node12"><a xlink:href="inet.linklayer.ieee8021q.Ieee8021qFilter.html" xlink:title="Compound Module Ieee8021qFilter" target="_parent">
<polygon fill="#fffcaf" stroke="black" points="1514,-19 1422,-19 1422,0 1514,0 1514,-19"/>
<text text-anchor="middle" x="1468" y="-7" font-family="Helvetica,sans-Serif" font-size="10.00">Ieee8021qFilter</text>
</a>
</g>
</g>
<!-- IPacketFilter&#45;&gt;Ieee8021qFilter -->
<g id="edge11" class="edge">
<title>IPacketFilter&#45;&gt;Ieee8021qFilter</title>
<path fill="none" stroke="black" stroke-dasharray="5,2" d="M1550.25,-54.98C1532.07,-45.15 1502.33,-29.07 1484.03,-19.17"/>
</g>
<!-- LabelFilter -->
<g id="node13" class="node">
<title>LabelFilter</title>
<g id="a_node13"><a xlink:href="inet.queueing.filter.LabelFilter.html" xlink:title="Simple Module LabelFilter" target="_parent">
<polygon fill="#fffcaf" stroke="black" points="1600,-19 1532,-19 1532,0 1600,0 1600,-19"/>
<text text-anchor="middle" x="1566" y="-7" font-family="Helvetica,sans-Serif" font-size="10.00">LabelFilter</text>
</a>
</g>
</g>
<!-- IPacketFilter&#45;&gt;LabelFilter -->
<g id="edge12" class="edge">
<title>IPacketFilter&#45;&gt;LabelFilter</title>
<path fill="none" stroke="black" stroke-dasharray="5,2" d="M1566,-54.75C1566,-44.87 1566,-28.9 1566,-19.09"/>
</g>
<!-- MultiPacketFilter -->
<g id="node14" class="node">
<title>MultiPacketFilter</title>
<g id="a_node14"><a xlink:href="inet.queueing.filter.MultiPacketFilter.html" xlink:title="Compound Module MultiPacketFilter" target="_parent">
<polygon fill="#fffcaf" stroke="black" points="1716,-19 1618,-19 1618,0 1716,0 1716,-19"/>
<text text-anchor="middle" x="1667" y="-7" font-family="Helvetica,sans-Serif" font-size="10.00">MultiPacketFilter</text>
</a>
</g>
</g>
<!-- IPacketFilter&#45;&gt;MultiPacketFilter -->
<g id="edge13" class="edge">
<title>IPacketFilter&#45;&gt;MultiPacketFilter</title>
<path fill="none" stroke="black" stroke-dasharray="5,2" d="M1582.23,-54.98C1600.96,-45.15 1631.62,-29.07 1650.48,-19.17"/>
</g>
<!-- OmittedPacketFilter -->
<g id="node15" class="node">
<title>OmittedPacketFilter</title>
<g id="a_node15"><a xlink:href="inet.queueing.filter.OmittedPacketFilter.html" xlink:title="Compound Module OmittedPacketFilter" target="_parent">
<polygon fill="#fffcaf" stroke="black" points="1847.5,-19 1734.5,-19 1734.5,0 1847.5,0 1847.5,-19"/>
<text text-anchor="middle" x="1791" y="-7" font-family="Helvetica,sans-Serif" font-size="10.00">OmittedPacketFilter</text>
</a>
</g>
</g>
<!-- IPacketFilter&#45;&gt;OmittedPacketFilter -->
<g id="edge14" class="edge">
<title>IPacketFilter&#45;&gt;OmittedPacketFilter</title>
<path fill="none" stroke="black" stroke-dasharray="5,2" d="M1602.15,-54.98C1644.01,-45.12 1712.58,-28.97 1754.57,-19.08"/>
</g>
<!-- PacketFilter -->
<g id="node16" class="node">
<title>PacketFilter</title>
<g id="a_node16"><a xlink:href="inet.queueing.filter.PacketFilter.html" xlink:title="Simple Module PacketFilter" target="_parent">
<polygon fill="#fffcaf" stroke="black" points="1938.5,-19 1865.5,-19 1865.5,0 1938.5,0 1938.5,-19"/>
<text text-anchor="middle" x="1902" y="-7" font-family="Helvetica,sans-Serif" font-size="10.00">PacketFilter</text>
</a>
</g>
</g>
<!-- IPacketFilter&#45;&gt;PacketFilter -->
<g id="edge15" class="edge">
<title>IPacketFilter&#45;&gt;PacketFilter</title>
<path fill="none" stroke="black" stroke-dasharray="5,2" d="M1604.2,-58.09C1659.89,-50.11 1766.57,-34.45 1857,-19 1859.66,-18.54 1862.42,-18.06 1865.18,-17.56"/>
</g>
<!-- SimpleIeee8021qFilter -->
<g id="node17" class="node">
<title>SimpleIeee8021qFilter</title>
<g id="a_node17"><a xlink:href="inet.linklayer.ieee8021q.SimpleIeee8021qFilter.html" xlink:title="Compound Module SimpleIeee8021qFilter" target="_parent">
<polygon fill="#fffcaf" stroke="black" points="2083,-19 1957,-19 1957,0 2083,0 2083,-19"/>
<text text-anchor="middle" x="2020" y="-7" font-family="Helvetica,sans-Serif" font-size="10.00">SimpleIeee8021qFilter</text>
</a>
</g>
</g>
<!-- IPacketFilter&#45;&gt;SimpleIeee8021qFilter -->
<g id="edge16" class="edge">
<title>IPacketFilter&#45;&gt;SimpleIeee8021qFilter</title>
<path fill="none" stroke="black" stroke-dasharray="5,2" d="M1604.23,-59.07C1673,-51.09 1822.17,-33.76 1948,-19 1950.88,-18.66 1953.82,-18.32 1956.78,-17.97"/>
</g>
<!-- StatisticalRateLimiter -->
<g id="node18" class="node">
<title>StatisticalRateLimiter</title>
<g id="a_node18"><a xlink:href="inet.queueing.filter.StatisticalRateLimiter.html" xlink:title="Simple Module StatisticalRateLimiter" target="_parent">
<polygon fill="#fffcaf" stroke="black" points="2223,-19 2101,-19 2101,0 2223,0 2223,-19"/>
<text text-anchor="middle" x="2162" y="-7" font-family="Helvetica,sans-Serif" font-size="10.00">StatisticalRateLimiter</text>
</a>
</g>
</g>
<!-- IPacketFilter&#45;&gt;StatisticalRateLimiter -->
<g id="edge17" class="edge">
<title>IPacketFilter&#45;&gt;StatisticalRateLimiter</title>
<path fill="none" stroke="black" stroke-dasharray="5,2" d="M1604.32,-60.74C1691.19,-54.38 1909.67,-37.78 2092,-19 2094.92,-18.7 2097.91,-18.38 2100.93,-18.05"/>
</g>
<!-- StreamFilter -->
<g id="node19" class="node">
<title>StreamFilter</title>
<g id="a_node19"><a xlink:href="inet.protocolelement.redundancy.StreamFilter.html" xlink:title="Simple Module StreamFilter" target="_parent">
<polygon fill="#fffcaf" stroke="black" points="2318.5,-19 2241.5,-19 2241.5,0 2318.5,0 2318.5,-19"/>
<text text-anchor="middle" x="2280" y="-7" font-family="Helvetica,sans-Serif" font-size="10.00">StreamFilter</text>
</a>
</g>
</g>
<!-- IPacketFilter&#45;&gt;StreamFilter -->
<g id="edge18" class="edge">
<title>IPacketFilter&#45;&gt;StreamFilter</title>
<path fill="none" stroke="black" stroke-dasharray="5,2" d="M1604.06,-62.4C1706.09,-59.15 1994.16,-47.92 2232,-19 2235.02,-18.63 2238.15,-18.2 2241.28,-17.73"/>
</g>
<!-- StreamMerger -->
<g id="node20" class="node">
<title>StreamMerger</title>
<g id="a_node20"><a xlink:href="inet.protocolelement.redundancy.StreamMerger.html" xlink:title="Simple Module StreamMerger" target="_parent">
<polygon fill="#fffcaf" stroke="black" points="2423,-19 2337,-19 2337,0 2423,0 2423,-19"/>
<text text-anchor="middle" x="2380" y="-7" font-family="Helvetica,sans-Serif" font-size="10.00">StreamMerger</text>
</a>
</g>
</g>
<!-- IPacketFilter&#45;&gt;StreamMerger -->
<g id="edge19" class="edge">
<title>IPacketFilter&#45;&gt;StreamMerger</title>
<path fill="none" stroke="black" stroke-dasharray="5,2" d="M1604.18,-62.67C1715.84,-59.94 2051.4,-49.6 2328,-19 2330.91,-18.68 2333.9,-18.3 2336.92,-17.9"/>
</g>
<!-- VlanIndFilter -->
<g id="node21" class="node">
<title>VlanIndFilter</title>
<g id="a_node21"><a xlink:href="inet.linklayer.vlan.VlanIndFilter.html" xlink:title="Simple Module VlanIndFilter" target="_parent">
<polygon fill="#fffcaf" stroke="black" points="2519,-19 2441,-19 2441,0 2519,0 2519,-19"/>
<text text-anchor="middle" x="2480" y="-7" font-family="Helvetica,sans-Serif" font-size="10.00">VlanIndFilter</text>
</a>
</g>
</g>
<!-- IPacketFilter&#45;&gt;VlanIndFilter -->
<g id="edge20" class="edge">
<title>IPacketFilter&#45;&gt;VlanIndFilter</title>
<path fill="none" stroke="black" stroke-dasharray="5,2" d="M1604.12,-63.22C1725.46,-61.99 2113.39,-55.25 2432,-19 2434.86,-18.67 2437.81,-18.29 2440.77,-17.86"/>
</g>
<!-- VlanReqFilter -->
<g id="node22" class="node">
<title>VlanReqFilter</title>
<g id="a_node22"><a xlink:href="inet.linklayer.vlan.VlanReqFilter.html" xlink:title="Simple Module VlanReqFilter" target="_parent">
<polygon fill="#fffcaf" stroke="black" points="2619,-19 2537,-19 2537,0 2619,0 2619,-19"/>
<text text-anchor="middle" x="2578" y="-7" font-family="Helvetica,sans-Serif" font-size="10.00">VlanReqFilter</text>
</a>
</g>
</g>
<!-- IPacketFilter&#45;&gt;VlanReqFilter -->
<g id="edge21" class="edge">
<title>IPacketFilter&#45;&gt;VlanReqFilter</title>
<path fill="none" stroke="black" stroke-dasharray="5,2" d="M1604.17,-63.41C1733.97,-62.73 2170.19,-57.54 2528,-19 2530.89,-18.69 2533.86,-18.32 2536.85,-17.9"/>
</g>
<!-- IProtocolHeaderChecker -->
<g id="node23" class="node">
<title>IProtocolHeaderChecker</title>
<g id="a_node23"><a xlink:href="inet.protocolelement.contract.IProtocolHeaderChecker.html" xlink:title="Module Interface IProtocolHeaderChecker" target="_parent">
<polygon fill="#fffcaf" stroke="black" stroke-dasharray="5,2" points="2771,-19 2637,-19 2637,0 2771,0 2771,-19"/>
<text text-anchor="middle" x="2704" y="-7" font-family="Helvetica,sans-Serif" font-size="10.00">IProtocolHeaderChecker</text>
</a>
</g>
</g>
<!-- IPacketFilter&#45;&gt;IProtocolHeaderChecker -->
<g id="edge22" class="edge">
<title>IPacketFilter&#45;&gt;IProtocolHeaderChecker</title>
<path fill="none" stroke="black" d="M1604.16,-62.86C1742.16,-60.34 2228.27,-49.69 2628,-19 2630.91,-18.78 2633.89,-18.53 2636.89,-18.26"/>
</g>
<!-- IPacketFlow -->
<g id="node2" class="node">
<title>IPacketFlow</title>
<g id="a_node2"><a xlink:href="inet.queueing.contract.IPacketFlow.html" xlink:title="Module Interface IPacketFlow" target="_parent">
<polygon fill="#fffcaf" stroke="black" stroke-dasharray="5,2" points="1603,-129 1529,-129 1529,-110 1603,-110 1603,-129"/>
<text text-anchor="middle" x="1566" y="-117" font-family="Helvetica,sans-Serif" font-size="10.00">IPacketFlow</text>
</a>
</g>
</g>
<!-- IPacketFlow&#45;&gt;IPacketFilter -->
<g id="edge1" class="edge">
<title>IPacketFlow&#45;&gt;IPacketFilter</title>
<path fill="none" stroke="black" d="M1566,-109.75C1566,-99.87 1566,-83.9 1566,-74.09"/>
</g>
</g>
</svg>
