<?xml version="1.0" encoding="UTF-8" standalone="no"?>
<!DOCTYPE svg PUBLIC "-//W3C//DTD SVG 1.1//EN"
 "http://www.w3.org/Graphics/SVG/1.1/DTD/svg11.dtd">
<!-- Generated by graphviz version 2.43.0 (0)
 -->
<!-- Title: opp Pages: 1 -->
<svg width="216pt" height="82pt"
 viewBox="0.00 0.00 215.50 82.00" xmlns="http://www.w3.org/2000/svg" xmlns:xlink="http://www.w3.org/1999/xlink">
<g id="graph0" class="graph" transform="scale(1 1) rotate(0) translate(4 78)">
<title>opp</title>
<polygon fill="transparent" stroke="transparent" points="-4,4 -4,-78 211.5,-78 211.5,4 -4,4"/>
<!-- StreamSplitter -->
<g id="node1" class="node">
<title>StreamSplitter</title>
<g id="a_node1"><a xlink:href="inet.protocolelement.redundancy.StreamSplitter.html" xlink:title="Simple Module StreamSplitter" target="_parent">
<polygon fill="#fff700" stroke="black" points="152,-19 65,-19 65,0 152,0 152,-19"/>
<text text-anchor="middle" x="108.5" y="-7" font-family="Helvetica,sans-Serif" font-size="10.00">StreamSplitter</text>
</a>
</g>
</g>
<!-- PacketPusherBase -->
<g id="node2" class="node">
<title>PacketPusherBase</title>
<g id="a_node2"><a xlink:href="inet.queueing.base.PacketPusherBase.html" xlink:title="Simple Module PacketPusherBase" target="_parent">
<polygon fill="#fffcaf" stroke="black" points="105,-74 0,-74 0,-55 105,-55 105,-74"/>
<text text-anchor="middle" x="52.5" y="-62" font-family="Helvetica,sans-Serif" font-size="10.00">PacketPusherBase</text>
</a>
</g>
</g>
<!-- PacketPusherBase&#45;&gt;StreamSplitter -->
<g id="edge1" class="edge">
<title>PacketPusherBase&#45;&gt;StreamSplitter</title>
<path fill="none" stroke="black" d="M61.5,-54.98C71.89,-45.15 88.88,-29.07 99.34,-19.17"/>
</g>
<!-- IPacketPusher -->
<g id="node3" class="node">
<title>IPacketPusher</title>
<g id="a_node3"><a xlink:href="inet.queueing.contract.IPacketPusher.html" xlink:title="Module Interface IPacketPusher" target="_parent">
<polygon fill="#fffcaf" stroke="black" stroke-dasharray="5,2" points="207.5,-74 123.5,-74 123.5,-55 207.5,-55 207.5,-74"/>
<text text-anchor="middle" x="165.5" y="-62" font-family="Helvetica,sans-Serif" font-size="10.00">IPacketPusher</text>
</a>
</g>
</g>
<!-- IPacketPusher&#45;&gt;StreamSplitter -->
<g id="edge2" class="edge">
<title>IPacketPusher&#45;&gt;StreamSplitter</title>
<path fill="none" stroke="black" stroke-dasharray="5,2" d="M156.34,-54.98C145.77,-45.15 128.47,-29.07 117.82,-19.17"/>
</g>
</g>
</svg>
