<?xml version="1.0" encoding="UTF-8" standalone="no"?>
<!DOCTYPE svg PUBLIC "-//W3C//DTD SVG 1.1//EN"
 "http://www.w3.org/Graphics/SVG/1.1/DTD/svg11.dtd">
<!-- Generated by graphviz version 2.43.0 (0)
 -->
<!-- Title: opp Pages: 1 -->
<svg width="140pt" height="82pt"
 viewBox="0.00 0.00 140.00 82.00" xmlns="http://www.w3.org/2000/svg" xmlns:xlink="http://www.w3.org/1999/xlink">
<g id="graph0" class="graph" transform="scale(1 1) rotate(0) translate(4 78)">
<title>opp</title>
<polygon fill="transparent" stroke="transparent" points="-4,4 -4,-78 136,-78 136,4 -4,4"/>
<!-- ITcp -->
<g id="node1" class="node">
<title>ITcp</title>
<g id="a_node1"><a xlink:href="inet.transportlayer.contract.ITcp.html" xlink:title="Module Interface ITcp" target="_parent">
<polygon fill="#fff700" stroke="black" stroke-dasharray="5,2" points="91,-74 37,-74 37,-55 91,-55 91,-74"/>
<text text-anchor="middle" x="64" y="-62" font-family="Helvetica,sans-Serif" font-size="10.00">ITcp</text>
</a>
</g>
</g>
<!-- Tcp -->
<g id="node2" class="node">
<title>Tcp</title>
<g id="a_node2"><a xlink:href="inet.transportlayer.tcp.Tcp.html" xlink:title="Simple Module Tcp" target="_parent">
<polygon fill="#fffcaf" stroke="black" points="54,-19 0,-19 0,0 54,0 54,-19"/>
<text text-anchor="middle" x="27" y="-7" font-family="Helvetica,sans-Serif" font-size="10.00">Tcp</text>
</a>
</g>
</g>
<!-- ITcp&#45;&gt;Tcp -->
<g id="edge1" class="edge">
<title>ITcp&#45;&gt;Tcp</title>
<path fill="none" stroke="black" stroke-dasharray="5,2" d="M57.89,-54.75C50.99,-44.87 39.85,-28.9 33,-19.09"/>
</g>
<!-- TcpSpoof -->
<g id="node3" class="node">
<title>TcpSpoof</title>
<g id="a_node3"><a xlink:href="inet.transportlayer.tcp_common.TcpSpoof.html" xlink:title="Simple Module TcpSpoof" target="_parent">
<polygon fill="#fffcaf" stroke="black" points="132,-19 72,-19 72,0 132,0 132,-19"/>
<text text-anchor="middle" x="102" y="-7" font-family="Helvetica,sans-Serif" font-size="10.00">TcpSpoof</text>
</a>
</g>
</g>
<!-- ITcp&#45;&gt;TcpSpoof -->
<g id="edge2" class="edge">
<title>ITcp&#45;&gt;TcpSpoof</title>
<path fill="none" stroke="black" stroke-dasharray="5,2" d="M70.27,-54.75C77.36,-44.87 88.81,-28.9 95.84,-19.09"/>
</g>
</g>
</svg>
