<?xml version="1.0" encoding="UTF-8" standalone="no"?>
<!DOCTYPE svg PUBLIC "-//W3C//DTD SVG 1.1//EN"
 "http://www.w3.org/Graphics/SVG/1.1/DTD/svg11.dtd">
<!-- Generated by graphviz version 2.43.0 (0)
 -->
<!-- Title: opp Pages: 1 -->
<svg width="597pt" height="137pt"
 viewBox="0.00 0.00 597.00 137.00" xmlns="http://www.w3.org/2000/svg" xmlns:xlink="http://www.w3.org/1999/xlink">
<g id="graph0" class="graph" transform="scale(1 1) rotate(0) translate(4 133)">
<title>opp</title>
<polygon fill="transparent" stroke="transparent" points="-4,4 -4,-133 593,-133 593,4 -4,4"/>
<!-- ApskRadio -->
<g id="node1" class="node">
<title>ApskRadio</title>
<g id="a_node1"><a xlink:href="inet.physicallayer.wireless.apsk.packetlevel.ApskRadio.html" xlink:title="Compound Module ApskRadio" target="_parent">
<polygon fill="#fff700" stroke="black" points="352,-74 284,-74 284,-55 352,-55 352,-74"/>
<text text-anchor="middle" x="318" y="-62" font-family="Helvetica,sans-Serif" font-size="10.00">ApskRadio</text>
</a>
</g>
</g>
<!-- ApskDimensionalRadio -->
<g id="node3" class="node">
<title>ApskDimensionalRadio</title>
<g id="a_node3"><a xlink:href="inet.physicallayer.wireless.apsk.packetlevel.ApskDimensionalRadio.html" xlink:title="Compound Module ApskDimensionalRadio" target="_parent">
<polygon fill="#fffcaf" stroke="black" points="130,-19 0,-19 0,0 130,0 130,-19"/>
<text text-anchor="middle" x="65" y="-7" font-family="Helvetica,sans-Serif" font-size="10.00">ApskDimensionalRadio</text>
</a>
</g>
</g>
<!-- ApskRadio&#45;&gt;ApskDimensionalRadio -->
<g id="edge2" class="edge">
<title>ApskRadio&#45;&gt;ApskDimensionalRadio</title>
<path fill="none" stroke="black" d="M283.88,-56.35C237.62,-46.66 155.11,-29.38 105.68,-19.02"/>
</g>
<!-- ApskLayeredDimensionalRadio -->
<g id="node4" class="node">
<title>ApskLayeredDimensionalRadio</title>
<g id="a_node4"><a xlink:href="inet.physicallayer.wireless.apsk.bitlevel.ApskLayeredDimensionalRadio.html" xlink:title="Compound Module ApskLayeredDimensionalRadio" target="_parent">
<polygon fill="#fffcaf" stroke="black" points="317.5,-19 148.5,-19 148.5,0 317.5,0 317.5,-19"/>
<text text-anchor="middle" x="233" y="-7" font-family="Helvetica,sans-Serif" font-size="10.00">ApskLayeredDimensionalRadio</text>
</a>
</g>
</g>
<!-- ApskRadio&#45;&gt;ApskLayeredDimensionalRadio -->
<g id="edge3" class="edge">
<title>ApskRadio&#45;&gt;ApskLayeredDimensionalRadio</title>
<path fill="none" stroke="black" d="M304.34,-54.98C288.58,-45.15 262.78,-29.07 246.91,-19.17"/>
</g>
<!-- ApskLayeredScalarRadio -->
<g id="node5" class="node">
<title>ApskLayeredScalarRadio</title>
<g id="a_node5"><a xlink:href="inet.physicallayer.wireless.apsk.bitlevel.ApskLayeredScalarRadio.html" xlink:title="Compound Module ApskLayeredScalarRadio" target="_parent">
<polygon fill="#fffcaf" stroke="black" points="472.5,-19 335.5,-19 335.5,0 472.5,0 472.5,-19"/>
<text text-anchor="middle" x="404" y="-7" font-family="Helvetica,sans-Serif" font-size="10.00">ApskLayeredScalarRadio</text>
</a>
</g>
</g>
<!-- ApskRadio&#45;&gt;ApskLayeredScalarRadio -->
<g id="edge4" class="edge">
<title>ApskRadio&#45;&gt;ApskLayeredScalarRadio</title>
<path fill="none" stroke="black" d="M331.82,-54.98C347.77,-45.15 373.87,-29.07 389.93,-19.17"/>
</g>
<!-- ApskScalarRadio -->
<g id="node6" class="node">
<title>ApskScalarRadio</title>
<g id="a_node6"><a xlink:href="inet.physicallayer.wireless.apsk.packetlevel.ApskScalarRadio.html" xlink:title="Compound Module ApskScalarRadio" target="_parent">
<polygon fill="#fffcaf" stroke="black" points="589,-19 491,-19 491,0 589,0 589,-19"/>
<text text-anchor="middle" x="540" y="-7" font-family="Helvetica,sans-Serif" font-size="10.00">ApskScalarRadio</text>
</a>
</g>
</g>
<!-- ApskRadio&#45;&gt;ApskScalarRadio -->
<g id="edge5" class="edge">
<title>ApskRadio&#45;&gt;ApskScalarRadio</title>
<path fill="none" stroke="black" d="M352.2,-55.33C393.43,-45.49 462.39,-29.03 504.29,-19.03"/>
</g>
<!-- FlatRadioBase -->
<g id="node2" class="node">
<title>FlatRadioBase</title>
<g id="a_node2"><a xlink:href="inet.physicallayer.wireless.common.base.packetlevel.FlatRadioBase.html" xlink:title="Compound Module FlatRadioBase" target="_parent">
<polygon fill="#fffcaf" stroke="black" points="361.5,-129 274.5,-129 274.5,-110 361.5,-110 361.5,-129"/>
<text text-anchor="middle" x="318" y="-117" font-family="Helvetica,sans-Serif" font-size="10.00">FlatRadioBase</text>
</a>
</g>
</g>
<!-- FlatRadioBase&#45;&gt;ApskRadio -->
<g id="edge1" class="edge">
<title>FlatRadioBase&#45;&gt;ApskRadio</title>
<path fill="none" stroke="black" d="M318,-109.75C318,-99.87 318,-83.9 318,-74.09"/>
</g>
</g>
</svg>
