<?xml version="1.0" encoding="UTF-8" standalone="no"?>
<!DOCTYPE svg PUBLIC "-//W3C//DTD SVG 1.1//EN"
 "http://www.w3.org/Graphics/SVG/1.1/DTD/svg11.dtd">
<!-- Generated by graphviz version 2.43.0 (0)
 -->
<!-- Title: opp Pages: 1 -->
<svg width="718pt" height="82pt"
 viewBox="0.00 0.00 718.00 82.00" xmlns="http://www.w3.org/2000/svg" xmlns:xlink="http://www.w3.org/1999/xlink">
<g id="graph0" class="graph" transform="scale(1 1) rotate(0) translate(4 78)">
<title>opp</title>
<polygon fill="transparent" stroke="transparent" points="-4,4 -4,-78 714,-78 714,4 -4,4"/>
<!-- Ieee8021qProtocol -->
<g id="node1" class="node">
<title>Ieee8021qProtocol</title>
<g id="a_node1"><a xlink:href="inet.linklayer.ieee8021q.Ieee8021qProtocol.html" xlink:title="Compound Module Ieee8021qProtocol" target="_parent">
<polygon fill="#fff700" stroke="black" points="378.5,-74 271.5,-74 271.5,-55 378.5,-55 378.5,-74"/>
<text text-anchor="middle" x="325" y="-62" font-family="Helvetica,sans-Serif" font-size="10.00">Ieee8021qProtocol</text>
</a>
</g>
</g>
<!-- IPacketFlow -->
<g id="node2" class="node">
<title>IPacketFlow</title>
<g id="a_node2"><a xlink:href="inet.queueing.contract.IPacketFlow.html" xlink:title="Module Interface IPacketFlow" target="_parent">
<polygon fill="#fffcaf" stroke="black" stroke-dasharray="5,2" points="74,-19 0,-19 0,0 74,0 74,-19"/>
<text text-anchor="middle" x="37" y="-7" font-family="Helvetica,sans-Serif" font-size="10.00">IPacketFlow</text>
</a>
</g>
</g>
<!-- Ieee8021qProtocol&#45;&gt;IPacketFlow -->
<g id="edge1" class="edge">
<title>Ieee8021qProtocol&#45;&gt;IPacketFlow</title>
<path fill="none" stroke="black" d="M278.6,-54.98C231.98,-46.42 157.78,-32.78 84.08,-19.2"/>
<polygon fill="black" stroke="black" points="84.63,-15.74 74.16,-17.37 83.36,-22.62 84.63,-15.74"/>
</g>
<!-- Ieee8021qSocketTable -->
<g id="node3" class="node">
<title>Ieee8021qSocketTable</title>
<g id="a_node3"><a xlink:href="inet.linklayer.ieee8021q.Ieee8021qSocketTable.html" xlink:title="Simple Module Ieee8021qSocketTable" target="_parent">
<polygon fill="#fffcaf" stroke="black" points="217.5,-19 92.5,-19 92.5,0 217.5,0 217.5,-19"/>
<text text-anchor="middle" x="155" y="-7" font-family="Helvetica,sans-Serif" font-size="10.00">Ieee8021qSocketTable</text>
</a>
</g>
</g>
<!-- Ieee8021qProtocol&#45;&gt;Ieee8021qSocketTable -->
<g id="edge2" class="edge">
<title>Ieee8021qProtocol&#45;&gt;Ieee8021qSocketTable</title>
<path fill="none" stroke="black" d="M297.69,-54.98C269.15,-46.09 224.17,-32.07 192.36,-22.15"/>
<polygon fill="black" stroke="black" points="193.12,-18.72 182.53,-19.08 191.03,-25.4 193.12,-18.72"/>
</g>
<!-- IIeee8021qTagEpdHeaderInserter -->
<g id="node4" class="node">
<title>IIeee8021qTagEpdHeaderInserter</title>
<g id="a_node4"><a xlink:href="inet.linklayer.ieee8021q.IIeee8021qTagEpdHeaderInserter.html" xlink:title="Module Interface IIeee8021qTagEpdHeaderInserter" target="_parent">
<polygon fill="#fffcaf" stroke="black" stroke-dasharray="5,2" points="414,-19 236,-19 236,0 414,0 414,-19"/>
<text text-anchor="middle" x="325" y="-7" font-family="Helvetica,sans-Serif" font-size="10.00">IIeee8021qTagEpdHeaderInserter</text>
</a>
</g>
</g>
<!-- Ieee8021qProtocol&#45;&gt;IIeee8021qTagEpdHeaderInserter -->
<g id="edge3" class="edge">
<title>Ieee8021qProtocol&#45;&gt;IIeee8021qTagEpdHeaderInserter</title>
<path fill="none" stroke="black" d="M325,-54.75C325,-47.8 325,-37.85 325,-29.13"/>
<polygon fill="black" stroke="black" points="328.5,-29.09 325,-19.09 321.5,-29.09 328.5,-29.09"/>
</g>
<!-- IIeee8021qTagEpdHeaderChecker -->
<g id="node5" class="node">
<title>IIeee8021qTagEpdHeaderChecker</title>
<g id="a_node5"><a xlink:href="inet.linklayer.ieee8021q.IIeee8021qTagEpdHeaderChecker.html" xlink:title="Module Interface IIeee8021qTagEpdHeaderChecker" target="_parent">
<polygon fill="#fffcaf" stroke="black" stroke-dasharray="5,2" points="611.5,-19 432.5,-19 432.5,0 611.5,0 611.5,-19"/>
<text text-anchor="middle" x="522" y="-7" font-family="Helvetica,sans-Serif" font-size="10.00">IIeee8021qTagEpdHeaderChecker</text>
</a>
</g>
</g>
<!-- Ieee8021qProtocol&#45;&gt;IIeee8021qTagEpdHeaderChecker -->
<g id="edge4" class="edge">
<title>Ieee8021qProtocol&#45;&gt;IIeee8021qTagEpdHeaderChecker</title>
<path fill="none" stroke="black" d="M356.65,-54.98C390.16,-45.97 443.2,-31.7 480.14,-21.76"/>
<polygon fill="black" stroke="black" points="481.35,-25.06 490.1,-19.08 479.53,-18.3 481.35,-25.06"/>
</g>
<!-- IdealChannel -->
<g id="node6" class="node">
<title>IdealChannel</title>
<g id="a_node6"><a xlink:href="ned.IdealChannel.html" xlink:title="Channel IdealChannel" target="_parent">
<polygon fill="#d0ffd0" stroke="black" points="710,-19 630,-19 630,0 710,0 710,-19"/>
<text text-anchor="middle" x="670" y="-7" font-family="Helvetica,sans-Serif" font-size="10.00">IdealChannel</text>
</a>
</g>
</g>
<!-- Ieee8021qProtocol&#45;&gt;IdealChannel -->
<g id="edge5" class="edge">
<title>Ieee8021qProtocol&#45;&gt;IdealChannel</title>
<path fill="none" stroke="black" d="M378.53,-55.82C435.77,-47.53 529.48,-33.72 620.02,-19.13"/>
<polygon fill="black" stroke="black" points="620.59,-22.58 629.9,-17.53 619.47,-15.67 620.59,-22.58"/>
</g>
</g>
</svg>
