<?xml version="1.0" encoding="UTF-8" standalone="no"?>
<!DOCTYPE svg PUBLIC "-//W3C//DTD SVG 1.1//EN"
 "http://www.w3.org/Graphics/SVG/1.1/DTD/svg11.dtd">
<!-- Generated by graphviz version 2.43.0 (0)
 -->
<!-- Title: opp Pages: 1 -->
<svg width="2240pt" height="137pt"
 viewBox="0.00 0.00 2239.50 137.00" xmlns="http://www.w3.org/2000/svg" xmlns:xlink="http://www.w3.org/1999/xlink">
<g id="graph0" class="graph" transform="scale(1 1) rotate(0) translate(4 133)">
<title>opp</title>
<polygon fill="transparent" stroke="transparent" points="-4,4 -4,-133 2235.5,-133 2235.5,4 -4,4"/>
<!-- TsnDevice -->
<g id="node1" class="node">
<title>TsnDevice</title>
<g id="a_node1"><a xlink:href="inet.node.tsn.TsnDevice.html" xlink:title="Compound Module TsnDevice" target="_parent">
<polygon fill="#fff700" stroke="black" points="1025.5,-74 959.5,-74 959.5,-55 1025.5,-55 1025.5,-74"/>
<text text-anchor="middle" x="992.5" y="-62" font-family="Helvetica,sans-Serif" font-size="10.00">TsnDevice</text>
</a>
</g>
</g>
<!-- IApp -->
<g id="node2" class="node">
<title>IApp</title>
<g id="a_node2"><a xlink:href="inet.applications.contract.IApp.html" xlink:title="Module Interface IApp" target="_parent">
<polygon fill="#fffcaf" stroke="black" stroke-dasharray="5,2" points="1019.5,-19 965.5,-19 965.5,0 1019.5,0 1019.5,-19"/>
<text text-anchor="middle" x="992.5" y="-7" font-family="Helvetica,sans-Serif" font-size="10.00">IApp</text>
</a>
</g>
</g>
<!-- TsnDevice&#45;&gt;IApp -->
<g id="edge1" class="edge">
<title>TsnDevice&#45;&gt;IApp</title>
<path fill="none" stroke="black" d="M992.5,-54.75C992.5,-47.8 992.5,-37.85 992.5,-29.13"/>
<polygon fill="black" stroke="black" points="996,-29.09 992.5,-19.09 989,-29.09 996,-29.09"/>
</g>
<!-- AsynchronousShaperValidation -->
<g id="node3" class="node">
<title>AsynchronousShaperValidation</title>
<g id="a_node3"><a xlink:href="inet.validation.tsn.trafficshaping.asynchronousshaper.icct.AsynchronousShaperValidation.html" xlink:title="Network AsynchronousShaperValidation" target="_parent">
<polygon fill="#d0d0ff" stroke="black" points="167,-129 0,-129 0,-110 167,-110 167,-129"/>
<text text-anchor="middle" x="83.5" y="-117" font-family="Helvetica,sans-Serif" font-size="10.00">AsynchronousShaperValidation</text>
</a>
</g>
</g>
<!-- AsynchronousShaperValidation&#45;&gt;TsnDevice -->
<g id="edge2" class="edge">
<title>AsynchronousShaperValidation&#45;&gt;TsnDevice</title>
<path fill="none" stroke="black" d="M166.77,-109.98C465.45,-88.06 826.18,-72.07 949.15,-67.12"/>
<polygon fill="black" stroke="black" points="949.44,-70.61 959.29,-66.71 949.16,-63.61 949.44,-70.61"/>
</g>
<!-- AsynchronousShaperValidation&#45;&gt;TsnDevice -->
<g id="edge3" class="edge">
<title>AsynchronousShaperValidation&#45;&gt;TsnDevice</title>
<path fill="none" stroke="black" d="M167.02,-111.37C172.95,-110.88 178.82,-110.42 184.5,-110 476.38,-88.57 827.63,-72.81 948.94,-67.48"/>
<polygon fill="black" stroke="black" points="949.45,-70.96 959.29,-67.02 949.14,-63.96 949.45,-70.96"/>
</g>
<!-- AutomaticFailureProtectionShowcase -->
<g id="node4" class="node">
<title>AutomaticFailureProtectionShowcase</title>
<g id="a_node4"><a xlink:href="inet.showcases.tsn.framereplication.automaticfailureprotection.AutomaticFailureProtectionShowcase.html" xlink:title="Network AutomaticFailureProtectionShowcase" target="_parent">
<polygon fill="#d0d0ff" stroke="black" points="382,-129 185,-129 185,-110 382,-110 382,-129"/>
<text text-anchor="middle" x="283.5" y="-117" font-family="Helvetica,sans-Serif" font-size="10.00">AutomaticFailureProtectionShowcase</text>
</a>
</g>
</g>
<!-- AutomaticFailureProtectionShowcase&#45;&gt;TsnDevice -->
<g id="edge4" class="edge">
<title>AutomaticFailureProtectionShowcase&#45;&gt;TsnDevice</title>
<path fill="none" stroke="black" d="M381.89,-109.97C594.53,-93.67 849.36,-75.18 949.39,-68.28"/>
<polygon fill="black" stroke="black" points="949.68,-71.77 959.41,-67.59 949.2,-64.79 949.68,-71.77"/>
</g>
<!-- AutomaticFailureProtectionShowcase&#45;&gt;TsnDevice -->
<g id="edge5" class="edge">
<title>AutomaticFailureProtectionShowcase&#45;&gt;TsnDevice</title>
<path fill="none" stroke="black" d="M382.1,-111.34C388,-110.89 393.83,-110.43 399.5,-110 605.42,-94.21 851.05,-76.36 949.12,-68.98"/>
<polygon fill="black" stroke="black" points="949.53,-72.46 959.24,-68.21 949,-65.48 949.53,-72.46"/>
</g>
<!-- AutomaticMultipathConfigurationShowcase -->
<g id="node5" class="node">
<title>AutomaticMultipathConfigurationShowcase</title>
<g id="a_node5"><a xlink:href="inet.showcases.tsn.framereplication.automaticmultipathconfiguration.AutomaticMultipathConfigurationShowcase.html" xlink:title="Network AutomaticMultipathConfigurationShowcase" target="_parent">
<polygon fill="#d0d0ff" stroke="black" points="627,-129 400,-129 400,-110 627,-110 627,-129"/>
<text text-anchor="middle" x="513.5" y="-117" font-family="Helvetica,sans-Serif" font-size="10.00">AutomaticMultipathConfigurationShowcase</text>
</a>
</g>
</g>
<!-- AutomaticMultipathConfigurationShowcase&#45;&gt;TsnDevice -->
<g id="edge6" class="edge">
<title>AutomaticMultipathConfigurationShowcase&#45;&gt;TsnDevice</title>
<path fill="none" stroke="black" d="M590.46,-109.98C692.08,-98.74 867.61,-79.32 948.88,-70.33"/>
<polygon fill="black" stroke="black" points="949.69,-73.76 959.24,-69.18 948.92,-66.8 949.69,-73.76"/>
</g>
<!-- CreditBasedShaperValidation -->
<g id="node6" class="node">
<title>CreditBasedShaperValidation</title>
<g id="a_node6"><a xlink:href="inet.validation.tsn.trafficshaping.creditbasedshaper.CreditBasedShaperValidation.html" xlink:title="Network CreditBasedShaperValidation" target="_parent">
<polygon fill="#d0d0ff" stroke="black" points="803.5,-129 645.5,-129 645.5,-110 803.5,-110 803.5,-129"/>
<text text-anchor="middle" x="724.5" y="-117" font-family="Helvetica,sans-Serif" font-size="10.00">CreditBasedShaperValidation</text>
</a>
</g>
</g>
<!-- CreditBasedShaperValidation&#45;&gt;TsnDevice -->
<g id="edge7" class="edge">
<title>CreditBasedShaperValidation&#45;&gt;TsnDevice</title>
<path fill="none" stroke="black" d="M767.56,-109.98C817.53,-100.1 899.45,-83.9 949.43,-74.02"/>
<polygon fill="black" stroke="black" points="950.15,-77.44 959.28,-72.07 948.79,-70.58 950.15,-77.44"/>
</g>
<!-- CutthroughSwitchingShowcase -->
<g id="node7" class="node">
<title>CutthroughSwitchingShowcase</title>
<g id="a_node7"><a xlink:href="inet.showcases.tsn.cutthroughswitching.CutthroughSwitchingShowcase.html" xlink:title="Network CutthroughSwitchingShowcase" target="_parent">
<polygon fill="#d0d0ff" stroke="black" points="988,-129 821,-129 821,-110 988,-110 988,-129"/>
<text text-anchor="middle" x="904.5" y="-117" font-family="Helvetica,sans-Serif" font-size="10.00">CutthroughSwitchingShowcase</text>
</a>
</g>
</g>
<!-- CutthroughSwitchingShowcase&#45;&gt;TsnDevice -->
<g id="edge8" class="edge">
<title>CutthroughSwitchingShowcase&#45;&gt;TsnDevice</title>
<path fill="none" stroke="black" d="M918.64,-109.98C932.29,-101.77 953.19,-89.18 969.28,-79.49"/>
<polygon fill="black" stroke="black" points="971.34,-82.33 978.1,-74.17 967.73,-76.33 971.34,-82.33"/>
</g>
<!-- FrameReplicationValidation -->
<g id="node8" class="node">
<title>FrameReplicationValidation</title>
<g id="a_node8"><a xlink:href="inet.validation.tsn.framereplication.FrameReplicationValidation.html" xlink:title="Network FrameReplicationValidation" target="_parent">
<polygon fill="#d0d0ff" stroke="black" points="1157,-129 1006,-129 1006,-110 1157,-110 1157,-129"/>
<text text-anchor="middle" x="1081.5" y="-117" font-family="Helvetica,sans-Serif" font-size="10.00">FrameReplicationValidation</text>
</a>
</g>
</g>
<!-- FrameReplicationValidation&#45;&gt;TsnDevice -->
<g id="edge9" class="edge">
<title>FrameReplicationValidation&#45;&gt;TsnDevice</title>
<path fill="none" stroke="black" d="M1067.2,-109.98C1053.4,-101.77 1032.26,-89.18 1015.99,-79.49"/>
<polygon fill="black" stroke="black" points="1017.44,-76.28 1007.06,-74.17 1013.86,-82.29 1017.44,-76.28"/>
</g>
<!-- FrerAndTasShowcase -->
<g id="node9" class="node">
<title>FrerAndTasShowcase</title>
<g id="a_node9"><a xlink:href="inet.showcases.tsn.combiningfeatures.frerandtas.FrerAndTasShowcase.html" xlink:title="Network FrerAndTasShowcase" target="_parent">
<polygon fill="#d0d0ff" stroke="black" points="1294,-129 1175,-129 1175,-110 1294,-110 1294,-129"/>
<text text-anchor="middle" x="1234.5" y="-117" font-family="Helvetica,sans-Serif" font-size="10.00">FrerAndTasShowcase</text>
</a>
</g>
</g>
<!-- FrerAndTasShowcase&#45;&gt;TsnDevice -->
<g id="edge10" class="edge">
<title>FrerAndTasShowcase&#45;&gt;TsnDevice</title>
<path fill="none" stroke="black" d="M1195.62,-109.98C1151.89,-100.41 1081.08,-84.9 1035.68,-74.96"/>
<polygon fill="black" stroke="black" points="1036.35,-71.52 1025.83,-72.8 1034.85,-78.36 1036.35,-71.52"/>
</g>
<!-- GptpAndTasShowcase -->
<g id="node10" class="node">
<title>GptpAndTasShowcase</title>
<g id="a_node10"><a xlink:href="inet.showcases.tsn.combiningfeatures.gptpandtas.GptpAndTasShowcase.html" xlink:title="Network GptpAndTasShowcase" target="_parent">
<polygon fill="#d0d0ff" stroke="black" points="1435,-129 1312,-129 1312,-110 1435,-110 1435,-129"/>
<text text-anchor="middle" x="1373.5" y="-117" font-family="Helvetica,sans-Serif" font-size="10.00">GptpAndTasShowcase</text>
</a>
</g>
</g>
<!-- GptpAndTasShowcase&#45;&gt;TsnDevice -->
<g id="edge11" class="edge">
<title>GptpAndTasShowcase&#45;&gt;TsnDevice</title>
<path fill="none" stroke="black" d="M1312.29,-109.98C1234.85,-99.21 1103.47,-80.94 1035.73,-71.51"/>
<polygon fill="black" stroke="black" points="1036.21,-68.05 1025.82,-70.13 1035.24,-74.98 1036.21,-68.05"/>
</g>
<!-- ManualConfigurationShowcase -->
<g id="node11" class="node">
<title>ManualConfigurationShowcase</title>
<g id="a_node11"><a xlink:href="inet.showcases.tsn.framereplication.manualconfiguration.ManualConfigurationShowcase.html" xlink:title="Network ManualConfigurationShowcase" target="_parent">
<polygon fill="#d0d0ff" stroke="black" points="1620,-129 1453,-129 1453,-110 1620,-110 1620,-129"/>
<text text-anchor="middle" x="1536.5" y="-117" font-family="Helvetica,sans-Serif" font-size="10.00">ManualConfigurationShowcase</text>
</a>
</g>
</g>
<!-- ManualConfigurationShowcase&#45;&gt;TsnDevice -->
<g id="edge12" class="edge">
<title>ManualConfigurationShowcase&#45;&gt;TsnDevice</title>
<path fill="none" stroke="black" d="M1452.99,-110.36C1335.53,-98.92 1125.8,-78.49 1035.64,-69.7"/>
<polygon fill="black" stroke="black" points="1035.8,-66.2 1025.51,-68.72 1035.12,-73.17 1035.8,-66.2"/>
</g>
<!-- OneMasterClockGptpShowcase -->
<g id="node12" class="node">
<title>OneMasterClockGptpShowcase</title>
<g id="a_node12"><a xlink:href="inet.showcases.tsn.timesynchronization.gptp.OneMasterClockGptpShowcase.html" xlink:title="Network OneMasterClockGptpShowcase" target="_parent">
<polygon fill="#d0d0ff" stroke="black" points="1807,-129 1638,-129 1638,-110 1807,-110 1807,-129"/>
<text text-anchor="middle" x="1722.5" y="-117" font-family="Helvetica,sans-Serif" font-size="10.00">OneMasterClockGptpShowcase</text>
</a>
</g>
</g>
<!-- OneMasterClockGptpShowcase&#45;&gt;TsnDevice -->
<g id="edge13" class="edge">
<title>OneMasterClockGptpShowcase&#45;&gt;TsnDevice</title>
<path fill="none" stroke="black" d="M1637.86,-110.69C1635.04,-110.45 1632.25,-110.22 1629.5,-110 1406.22,-92 1138.56,-74.69 1035.68,-68.2"/>
<polygon fill="black" stroke="black" points="1035.88,-64.7 1025.68,-67.57 1035.44,-71.69 1035.88,-64.7"/>
</g>
<!-- TwoMasterClocksRingGptpShowcase -->
<g id="node13" class="node">
<title>TwoMasterClocksRingGptpShowcase</title>
<g id="a_node13"><a xlink:href="inet.showcases.tsn.timesynchronization.gptp.TwoMasterClocksRingGptpShowcase.html" xlink:title="Network TwoMasterClocksRingGptpShowcase" target="_parent">
<polygon fill="#d0d0ff" stroke="black" points="2020,-129 1825,-129 1825,-110 2020,-110 2020,-129"/>
<text text-anchor="middle" x="1922.5" y="-117" font-family="Helvetica,sans-Serif" font-size="10.00">TwoMasterClocksRingGptpShowcase</text>
</a>
</g>
</g>
<!-- TwoMasterClocksRingGptpShowcase&#45;&gt;TsnDevice -->
<g id="edge14" class="edge">
<title>TwoMasterClocksRingGptpShowcase&#45;&gt;TsnDevice</title>
<path fill="none" stroke="black" d="M1824.9,-110.58C1822.07,-110.38 1819.26,-110.19 1816.5,-110 1518.22,-89.99 1158.73,-73.03 1036,-67.45"/>
<polygon fill="black" stroke="black" points="1036.03,-63.95 1025.88,-66.99 1035.71,-70.94 1036.03,-63.95"/>
</g>
<!-- TwoMasterClocksTreeGptpShowcase -->
<g id="node14" class="node">
<title>TwoMasterClocksTreeGptpShowcase</title>
<g id="a_node14"><a xlink:href="inet.showcases.tsn.timesynchronization.gptp.TwoMasterClocksTreeGptpShowcase.html" xlink:title="Network TwoMasterClocksTreeGptpShowcase" target="_parent">
<polygon fill="#d0d0ff" stroke="black" points="2231.5,-129 2037.5,-129 2037.5,-110 2231.5,-110 2231.5,-129"/>
<text text-anchor="middle" x="2134.5" y="-117" font-family="Helvetica,sans-Serif" font-size="10.00">TwoMasterClocksTreeGptpShowcase</text>
</a>
</g>
</g>
<!-- TwoMasterClocksTreeGptpShowcase&#45;&gt;TsnDevice -->
<g id="edge15" class="edge">
<title>TwoMasterClocksTreeGptpShowcase&#45;&gt;TsnDevice</title>
<path fill="none" stroke="black" d="M2037.26,-110.5C2034.65,-110.32 2032.06,-110.16 2029.5,-110 1644.35,-86.16 1177.95,-71.07 1035.72,-66.77"/>
<polygon fill="black" stroke="black" points="1035.76,-63.27 1025.65,-66.47 1035.54,-70.26 1035.76,-63.27"/>
</g>
</g>
</svg>
