<?xml version="1.0" encoding="UTF-8" standalone="no"?>
<!DOCTYPE svg PUBLIC "-//W3C//DTD SVG 1.1//EN"
 "http://www.w3.org/Graphics/SVG/1.1/DTD/svg11.dtd">
<!-- Generated by graphviz version 2.43.0 (0)
 -->
<!-- Title: opp Pages: 1 -->
<svg width="673pt" height="82pt"
 viewBox="0.00 0.00 673.00 82.00" xmlns="http://www.w3.org/2000/svg" xmlns:xlink="http://www.w3.org/1999/xlink">
<g id="graph0" class="graph" transform="scale(1 1) rotate(0) translate(4 78)">
<title>opp</title>
<polygon fill="transparent" stroke="transparent" points="-4,4 -4,-78 669,-78 669,4 -4,4"/>
<!-- DynamicRadioNetwork -->
<g id="node1" class="node">
<title>DynamicRadioNetwork</title>
<g id="a_node1"><a xlink:href="inet.examples.wireless.dynamic.DynamicRadioNetwork.html" xlink:title="Network DynamicRadioNetwork" target="_parent">
<polygon fill="#9090ff" stroke="black" points="454,-74 325,-74 325,-55 454,-55 454,-74"/>
<text text-anchor="middle" x="389.5" y="-62" font-family="Helvetica,sans-Serif" font-size="10.00">DynamicRadioNetwork</text>
</a>
</g>
</g>
<!-- Ieee80211ScalarRadioMedium -->
<g id="node2" class="node">
<title>Ieee80211ScalarRadioMedium</title>
<g id="a_node2"><a xlink:href="inet.physicallayer.wireless.ieee80211.packetlevel.Ieee80211ScalarRadioMedium.html" xlink:title="Compound Module Ieee80211ScalarRadioMedium" target="_parent">
<polygon fill="#fffcaf" stroke="black" points="165,-19 0,-19 0,0 165,0 165,-19"/>
<text text-anchor="middle" x="82.5" y="-7" font-family="Helvetica,sans-Serif" font-size="10.00">Ieee80211ScalarRadioMedium</text>
</a>
</g>
</g>
<!-- DynamicRadioNetwork&#45;&gt;Ieee80211ScalarRadioMedium -->
<g id="edge1" class="edge">
<title>DynamicRadioNetwork&#45;&gt;Ieee80211ScalarRadioMedium</title>
<path fill="none" stroke="black" d="M340.18,-54.98C286.21,-45.67 199.72,-30.74 142.02,-20.78"/>
<polygon fill="black" stroke="black" points="142.41,-17.29 131.96,-19.04 141.22,-24.19 142.41,-17.29"/>
</g>
<!-- IIntegratedVisualizer -->
<g id="node3" class="node">
<title>IIntegratedVisualizer</title>
<g id="a_node3"><a xlink:href="inet.visualizer.contract.IIntegratedVisualizer.html" xlink:title="Module Interface IIntegratedVisualizer" target="_parent">
<polygon fill="#fffcaf" stroke="black" stroke-dasharray="5,2" points="301.5,-19 183.5,-19 183.5,0 301.5,0 301.5,-19"/>
<text text-anchor="middle" x="242.5" y="-7" font-family="Helvetica,sans-Serif" font-size="10.00">IIntegratedVisualizer</text>
</a>
</g>
</g>
<!-- DynamicRadioNetwork&#45;&gt;IIntegratedVisualizer -->
<g id="edge2" class="edge">
<title>DynamicRadioNetwork&#45;&gt;IIntegratedVisualizer</title>
<path fill="none" stroke="black" d="M365.88,-54.98C341.6,-46.23 303.55,-32.51 276.13,-22.62"/>
<polygon fill="black" stroke="black" points="277.14,-19.27 266.55,-19.17 274.77,-25.85 277.14,-19.27"/>
</g>
<!-- Ipv4NetworkConfigurator -->
<g id="node4" class="node">
<title>Ipv4NetworkConfigurator</title>
<g id="a_node4"><a xlink:href="inet.networklayer.configurator.ipv4.Ipv4NetworkConfigurator.html" xlink:title="Simple Module Ipv4NetworkConfigurator" target="_parent">
<polygon fill="#fffcaf" stroke="black" points="459,-19 320,-19 320,0 459,0 459,-19"/>
<text text-anchor="middle" x="389.5" y="-7" font-family="Helvetica,sans-Serif" font-size="10.00">Ipv4NetworkConfigurator</text>
</a>
</g>
</g>
<!-- DynamicRadioNetwork&#45;&gt;Ipv4NetworkConfigurator -->
<g id="edge3" class="edge">
<title>DynamicRadioNetwork&#45;&gt;Ipv4NetworkConfigurator</title>
<path fill="none" stroke="black" d="M389.5,-54.75C389.5,-47.8 389.5,-37.85 389.5,-29.13"/>
<polygon fill="black" stroke="black" points="393,-29.09 389.5,-19.09 386,-29.09 393,-29.09"/>
</g>
<!-- AdhocHost -->
<g id="node5" class="node">
<title>AdhocHost</title>
<g id="a_node5"><a xlink:href="inet.node.inet.AdhocHost.html" xlink:title="Compound Module AdhocHost" target="_parent">
<polygon fill="#fffcaf" stroke="black" points="546,-19 477,-19 477,0 546,0 546,-19"/>
<text text-anchor="middle" x="511.5" y="-7" font-family="Helvetica,sans-Serif" font-size="10.00">AdhocHost</text>
</a>
</g>
</g>
<!-- DynamicRadioNetwork&#45;&gt;AdhocHost -->
<g id="edge4" class="edge">
<title>DynamicRadioNetwork&#45;&gt;AdhocHost</title>
<path fill="none" stroke="black" d="M409.1,-54.98C428.82,-46.42 459.45,-33.11 482.08,-23.28"/>
<polygon fill="black" stroke="black" points="483.76,-26.37 491.54,-19.17 480.98,-19.94 483.76,-26.37"/>
</g>
<!-- ScenarioManager -->
<g id="node6" class="node">
<title>ScenarioManager</title>
<g id="a_node6"><a xlink:href="inet.common.scenario.ScenarioManager.html" xlink:title="Simple Module ScenarioManager" target="_parent">
<polygon fill="#fffcaf" stroke="black" points="665,-19 564,-19 564,0 665,0 665,-19"/>
<text text-anchor="middle" x="614.5" y="-7" font-family="Helvetica,sans-Serif" font-size="10.00">ScenarioManager</text>
</a>
</g>
</g>
<!-- DynamicRadioNetwork&#45;&gt;ScenarioManager -->
<g id="edge5" class="edge">
<title>DynamicRadioNetwork&#45;&gt;ScenarioManager</title>
<path fill="none" stroke="black" d="M425.65,-54.98C464.41,-45.86 526.05,-31.33 568.3,-21.38"/>
<polygon fill="black" stroke="black" points="569.14,-24.78 578.07,-19.08 567.53,-17.97 569.14,-24.78"/>
</g>
</g>
</svg>
