<?xml version="1.0" encoding="UTF-8" standalone="no"?>
<!DOCTYPE svg PUBLIC "-//W3C//DTD SVG 1.1//EN"
 "http://www.w3.org/Graphics/SVG/1.1/DTD/svg11.dtd">
<!-- Generated by graphviz version 2.43.0 (0)
 -->
<!-- Title: opp Pages: 1 -->
<svg width="526pt" height="82pt"
 viewBox="0.00 0.00 526.00 82.00" xmlns="http://www.w3.org/2000/svg" xmlns:xlink="http://www.w3.org/1999/xlink">
<g id="graph0" class="graph" transform="scale(1 1) rotate(0) translate(4 78)">
<title>opp</title>
<polygon fill="transparent" stroke="transparent" points="-4,4 -4,-78 522,-78 522,4 -4,4"/>
<!-- RedDropperTutorialStep -->
<g id="node1" class="node">
<title>RedDropperTutorialStep</title>
<g id="a_node1"><a xlink:href="inet.tutorials.queueing.RedDropperTutorialStep.html" xlink:title="Network RedDropperTutorialStep" target="_parent">
<polygon fill="#9090ff" stroke="black" points="318,-74 186,-74 186,-55 318,-55 318,-74"/>
<text text-anchor="middle" x="252" y="-62" font-family="Helvetica,sans-Serif" font-size="10.00">RedDropperTutorialStep</text>
</a>
</g>
</g>
<!-- PacketQueue -->
<g id="node2" class="node">
<title>PacketQueue</title>
<g id="a_node2"><a xlink:href="inet.queueing.queue.PacketQueue.html" xlink:title="Simple Module PacketQueue" target="_parent">
<polygon fill="#fffcaf" stroke="black" points="80,-19 0,-19 0,0 80,0 80,-19"/>
<text text-anchor="middle" x="40" y="-7" font-family="Helvetica,sans-Serif" font-size="10.00">PacketQueue</text>
</a>
</g>
</g>
<!-- RedDropperTutorialStep&#45;&gt;PacketQueue -->
<g id="edge1" class="edge">
<title>RedDropperTutorialStep&#45;&gt;PacketQueue</title>
<path fill="none" stroke="black" d="M217.94,-54.98C181.58,-45.89 123.83,-31.46 84.03,-21.51"/>
<polygon fill="black" stroke="black" points="84.88,-18.11 74.33,-19.08 83.18,-24.9 84.88,-18.11"/>
</g>
<!-- IdealChannel -->
<g id="node3" class="node">
<title>IdealChannel</title>
<g id="a_node3"><a xlink:href="ned.IdealChannel.html" xlink:title="Channel IdealChannel" target="_parent">
<polygon fill="#d0ffd0" stroke="black" points="178,-19 98,-19 98,0 178,0 178,-19"/>
<text text-anchor="middle" x="138" y="-7" font-family="Helvetica,sans-Serif" font-size="10.00">IdealChannel</text>
</a>
</g>
</g>
<!-- RedDropperTutorialStep&#45;&gt;IdealChannel -->
<g id="edge2" class="edge">
<title>RedDropperTutorialStep&#45;&gt;IdealChannel</title>
<path fill="none" stroke="black" d="M233.68,-54.98C215.34,-46.46 186.89,-33.23 165.77,-23.41"/>
<polygon fill="black" stroke="black" points="167.19,-20.21 156.65,-19.17 164.24,-26.56 167.19,-20.21"/>
</g>
<!-- ActivePacketSource -->
<g id="node4" class="node">
<title>ActivePacketSource</title>
<g id="a_node4"><a xlink:href="inet.queueing.source.ActivePacketSource.html" xlink:title="Simple Module ActivePacketSource" target="_parent">
<polygon fill="#fffcaf" stroke="black" points="308,-19 196,-19 196,0 308,0 308,-19"/>
<text text-anchor="middle" x="252" y="-7" font-family="Helvetica,sans-Serif" font-size="10.00">ActivePacketSource</text>
</a>
</g>
</g>
<!-- RedDropperTutorialStep&#45;&gt;ActivePacketSource -->
<g id="edge3" class="edge">
<title>RedDropperTutorialStep&#45;&gt;ActivePacketSource</title>
<path fill="none" stroke="black" d="M252,-54.75C252,-47.8 252,-37.85 252,-29.13"/>
<polygon fill="black" stroke="black" points="255.5,-29.09 252,-19.09 248.5,-29.09 255.5,-29.09"/>
</g>
<!-- ActivePacketSink -->
<g id="node5" class="node">
<title>ActivePacketSink</title>
<g id="a_node5"><a xlink:href="inet.queueing.sink.ActivePacketSink.html" xlink:title="Simple Module ActivePacketSink" target="_parent">
<polygon fill="#fffcaf" stroke="black" points="426,-19 326,-19 326,0 426,0 426,-19"/>
<text text-anchor="middle" x="376" y="-7" font-family="Helvetica,sans-Serif" font-size="10.00">ActivePacketSink</text>
</a>
</g>
</g>
<!-- RedDropperTutorialStep&#45;&gt;ActivePacketSink -->
<g id="edge4" class="edge">
<title>RedDropperTutorialStep&#45;&gt;ActivePacketSink</title>
<path fill="none" stroke="black" d="M271.92,-54.98C292.05,-46.38 323.38,-32.99 346.41,-23.15"/>
<polygon fill="black" stroke="black" points="347.9,-26.32 355.71,-19.17 345.14,-19.88 347.9,-26.32"/>
</g>
<!-- RedDropper -->
<g id="node6" class="node">
<title>RedDropper</title>
<g id="a_node6"><a xlink:href="inet.queueing.filter.RedDropper.html" xlink:title="Simple Module RedDropper" target="_parent">
<polygon fill="#fffcaf" stroke="black" points="518,-19 444,-19 444,0 518,0 518,-19"/>
<text text-anchor="middle" x="481" y="-7" font-family="Helvetica,sans-Serif" font-size="10.00">RedDropper</text>
</a>
</g>
</g>
<!-- RedDropperTutorialStep&#45;&gt;RedDropper -->
<g id="edge5" class="edge">
<title>RedDropperTutorialStep&#45;&gt;RedDropper</title>
<path fill="none" stroke="black" d="M288.79,-54.98C328.24,-45.86 390.98,-31.33 433.98,-21.38"/>
<polygon fill="black" stroke="black" points="434.97,-24.75 443.92,-19.08 433.39,-17.93 434.97,-24.75"/>
</g>
</g>
</svg>
