<?xml version="1.0" encoding="UTF-8" standalone="no"?>
<!DOCTYPE svg PUBLIC "-//W3C//DTD SVG 1.1//EN"
 "http://www.w3.org/Graphics/SVG/1.1/DTD/svg11.dtd">
<!-- Generated by graphviz version 2.43.0 (0)
 -->
<!-- Title: opp Pages: 1 -->
<svg width="240pt" height="82pt"
 viewBox="0.00 0.00 239.50 82.00" xmlns="http://www.w3.org/2000/svg" xmlns:xlink="http://www.w3.org/1999/xlink">
<g id="graph0" class="graph" transform="scale(1 1) rotate(0) translate(4 78)">
<title>opp</title>
<polygon fill="transparent" stroke="transparent" points="-4,4 -4,-78 235.5,-78 235.5,4 -4,4"/>
<!-- StreamClassifier -->
<g id="node1" class="node">
<title>StreamClassifier</title>
<g id="a_node1"><a xlink:href="inet.protocolelement.redundancy.StreamClassifier.html" xlink:title="Simple Module StreamClassifier" target="_parent">
<polygon fill="#fff700" stroke="black" points="169,-19 72,-19 72,0 169,0 169,-19"/>
<text text-anchor="middle" x="120.5" y="-7" font-family="Helvetica,sans-Serif" font-size="10.00">StreamClassifier</text>
</a>
</g>
</g>
<!-- PacketClassifierBase -->
<g id="node2" class="node">
<title>PacketClassifierBase</title>
<g id="a_node2"><a xlink:href="inet.queueing.base.PacketClassifierBase.html" xlink:title="Simple Module PacketClassifierBase" target="_parent">
<polygon fill="#fffcaf" stroke="black" points="117,-74 0,-74 0,-55 117,-55 117,-74"/>
<text text-anchor="middle" x="58.5" y="-62" font-family="Helvetica,sans-Serif" font-size="10.00">PacketClassifierBase</text>
</a>
</g>
</g>
<!-- PacketClassifierBase&#45;&gt;StreamClassifier -->
<g id="edge1" class="edge">
<title>PacketClassifierBase&#45;&gt;StreamClassifier</title>
<path fill="none" stroke="black" d="M68.46,-54.98C79.96,-45.15 98.78,-29.07 110.36,-19.17"/>
</g>
<!-- IPacketClassifier -->
<g id="node3" class="node">
<title>IPacketClassifier</title>
<g id="a_node3"><a xlink:href="inet.queueing.contract.IPacketClassifier.html" xlink:title="Module Interface IPacketClassifier" target="_parent">
<polygon fill="#fffcaf" stroke="black" stroke-dasharray="5,2" points="231.5,-74 135.5,-74 135.5,-55 231.5,-55 231.5,-74"/>
<text text-anchor="middle" x="183.5" y="-62" font-family="Helvetica,sans-Serif" font-size="10.00">IPacketClassifier</text>
</a>
</g>
</g>
<!-- IPacketClassifier&#45;&gt;StreamClassifier -->
<g id="edge2" class="edge">
<title>IPacketClassifier&#45;&gt;StreamClassifier</title>
<path fill="none" stroke="black" stroke-dasharray="5,2" d="M173.38,-54.98C161.69,-45.15 142.57,-29.07 130.81,-19.17"/>
</g>
</g>
</svg>
