<?xml version="1.0" encoding="UTF-8" standalone="no"?>
<!DOCTYPE svg PUBLIC "-//W3C//DTD SVG 1.1//EN"
 "http://www.w3.org/Graphics/SVG/1.1/DTD/svg11.dtd">
<!-- Generated by graphviz version 2.43.0 (0)
 -->
<!-- Title: opp Pages: 1 -->
<svg width="424pt" height="82pt"
 viewBox="0.00 0.00 423.50 82.00" xmlns="http://www.w3.org/2000/svg" xmlns:xlink="http://www.w3.org/1999/xlink">
<g id="graph0" class="graph" transform="scale(1 1) rotate(0) translate(4 78)">
<title>opp</title>
<polygon fill="transparent" stroke="transparent" points="-4,4 -4,-78 419.5,-78 419.5,4 -4,4"/>
<!-- v3_square_2_areas -->
<g id="node1" class="node">
<title>v3_square_2_areas</title>
<g id="a_node1"><a xlink:href="inet.examples.ospfv3.v3_square_2_areas.v3_square_2_areas.html" xlink:title="Network v3_square_2_areas" target="_parent">
<polygon fill="#9090ff" stroke="black" points="235,-74 125,-74 125,-55 235,-55 235,-74"/>
<text text-anchor="middle" x="180" y="-62" font-family="Helvetica,sans-Serif" font-size="10.00">v3_square_2_areas</text>
</a>
</g>
</g>
<!-- Channel -->
<g id="node2" class="node">
<title>Channel</title>
<g id="a_node2"><a xlink:href="inet.examples.ospfv3.v3_square_2_areas.v3_square_2_areas.Channel.html" xlink:title="Channel Channel" target="_parent">
<polygon fill="#d0ffd0" stroke="black" points="56,-19 0,-19 0,0 56,0 56,-19"/>
<text text-anchor="middle" x="28" y="-7" font-family="Helvetica,sans-Serif" font-size="10.00">Channel</text>
</a>
</g>
</g>
<!-- v3_square_2_areas&#45;&gt;Channel -->
<g id="edge1" class="edge">
<title>v3_square_2_areas&#45;&gt;Channel</title>
<path fill="none" stroke="black" d="M155.58,-54.98C130.28,-46.16 90.55,-32.31 62.14,-22.41"/>
<polygon fill="black" stroke="black" points="63.21,-19.07 52.61,-19.08 60.9,-25.68 63.21,-19.07"/>
</g>
<!-- StandardHost -->
<g id="node3" class="node">
<title>StandardHost</title>
<g id="a_node3"><a xlink:href="inet.node.inet.StandardHost.html" xlink:title="Compound Module StandardHost" target="_parent">
<polygon fill="#fffcaf" stroke="black" points="157.5,-19 74.5,-19 74.5,0 157.5,0 157.5,-19"/>
<text text-anchor="middle" x="116" y="-7" font-family="Helvetica,sans-Serif" font-size="10.00">StandardHost</text>
</a>
</g>
</g>
<!-- v3_square_2_areas&#45;&gt;StandardHost -->
<g id="edge2" class="edge">
<title>v3_square_2_areas&#45;&gt;StandardHost</title>
<path fill="none" stroke="black" d="M169.72,-54.98C160.16,-47.07 145.72,-35.11 134.22,-25.58"/>
<polygon fill="black" stroke="black" points="136.4,-22.85 126.47,-19.17 131.94,-28.24 136.4,-22.85"/>
</g>
<!-- Ipv4NetworkConfigurator -->
<g id="node4" class="node">
<title>Ipv4NetworkConfigurator</title>
<g id="a_node4"><a xlink:href="inet.networklayer.configurator.ipv4.Ipv4NetworkConfigurator.html" xlink:title="Simple Module Ipv4NetworkConfigurator" target="_parent">
<polygon fill="#fffcaf" stroke="black" points="314.5,-19 175.5,-19 175.5,0 314.5,0 314.5,-19"/>
<text text-anchor="middle" x="245" y="-7" font-family="Helvetica,sans-Serif" font-size="10.00">Ipv4NetworkConfigurator</text>
</a>
</g>
</g>
<!-- v3_square_2_areas&#45;&gt;Ipv4NetworkConfigurator -->
<g id="edge3" class="edge">
<title>v3_square_2_areas&#45;&gt;Ipv4NetworkConfigurator</title>
<path fill="none" stroke="black" d="M190.44,-54.98C200.15,-47.07 214.82,-35.11 226.5,-25.58"/>
<polygon fill="black" stroke="black" points="228.83,-28.2 234.37,-19.17 224.4,-22.78 228.83,-28.2"/>
</g>
<!-- Ospfv3Router -->
<g id="node5" class="node">
<title>Ospfv3Router</title>
<g id="a_node5"><a xlink:href="inet.node.ospfv3.Ospfv3Router.html" xlink:title="Compound Module Ospfv3Router" target="_parent">
<polygon fill="#fffcaf" stroke="black" points="415.5,-19 332.5,-19 332.5,0 415.5,0 415.5,-19"/>
<text text-anchor="middle" x="374" y="-7" font-family="Helvetica,sans-Serif" font-size="10.00">Ospfv3Router</text>
</a>
</g>
</g>
<!-- v3_square_2_areas&#45;&gt;Ospfv3Router -->
<g id="edge4" class="edge">
<title>v3_square_2_areas&#45;&gt;Ospfv3Router</title>
<path fill="none" stroke="black" d="M211.17,-54.98C244.16,-45.97 296.4,-31.7 332.77,-21.76"/>
<polygon fill="black" stroke="black" points="333.86,-25.09 342.59,-19.08 332.02,-18.34 333.86,-25.09"/>
</g>
</g>
</svg>
