<?xml version="1.0" encoding="UTF-8" standalone="no"?>
<!DOCTYPE svg PUBLIC "-//W3C//DTD SVG 1.1//EN"
 "http://www.w3.org/Graphics/SVG/1.1/DTD/svg11.dtd">
<!-- Generated by graphviz version 2.43.0 (0)
 -->
<!-- Title: opp Pages: 1 -->
<svg width="343pt" height="82pt"
 viewBox="0.00 0.00 343.00 82.00" xmlns="http://www.w3.org/2000/svg" xmlns:xlink="http://www.w3.org/1999/xlink">
<g id="graph0" class="graph" transform="scale(1 1) rotate(0) translate(4 78)">
<title>opp</title>
<polygon fill="transparent" stroke="transparent" points="-4,4 -4,-78 339,-78 339,4 -4,4"/>
<!-- OSPF_BackboneTest -->
<g id="node1" class="node">
<title>OSPF_BackboneTest</title>
<g id="a_node1"><a xlink:href="inet.examples.ospfv2.areatests.OSPF_BackboneTest.html" xlink:title="Network OSPF_BackboneTest" target="_parent">
<polygon fill="#9090ff" stroke="black" points="244,-74 129,-74 129,-55 244,-55 244,-74"/>
<text text-anchor="middle" x="186.5" y="-62" font-family="Helvetica,sans-Serif" font-size="10.00">OSPF_BackboneTest</text>
</a>
</g>
</g>
<!-- Ipv4NetworkConfigurator -->
<g id="node2" class="node">
<title>Ipv4NetworkConfigurator</title>
<g id="a_node2"><a xlink:href="inet.networklayer.configurator.ipv4.Ipv4NetworkConfigurator.html" xlink:title="Simple Module Ipv4NetworkConfigurator" target="_parent">
<polygon fill="#fffcaf" stroke="black" points="139,-19 0,-19 0,0 139,0 139,-19"/>
<text text-anchor="middle" x="69.5" y="-7" font-family="Helvetica,sans-Serif" font-size="10.00">Ipv4NetworkConfigurator</text>
</a>
</g>
</g>
<!-- OSPF_BackboneTest&#45;&gt;Ipv4NetworkConfigurator -->
<g id="edge1" class="edge">
<title>OSPF_BackboneTest&#45;&gt;Ipv4NetworkConfigurator</title>
<path fill="none" stroke="black" d="M167.7,-54.98C148.88,-46.46 119.68,-33.23 98,-23.41"/>
<polygon fill="black" stroke="black" points="99.19,-20.11 88.64,-19.17 96.3,-26.48 99.19,-20.11"/>
</g>
<!-- TestArea -->
<g id="node3" class="node">
<title>TestArea</title>
<g id="a_node3"><a xlink:href="inet.examples.ospfv2.areatests.TestArea.html" xlink:title="Compound Module TestArea" target="_parent">
<polygon fill="#fffcaf" stroke="black" points="216,-19 157,-19 157,0 216,0 216,-19"/>
<text text-anchor="middle" x="186.5" y="-7" font-family="Helvetica,sans-Serif" font-size="10.00">TestArea</text>
</a>
</g>
</g>
<!-- OSPF_BackboneTest&#45;&gt;TestArea -->
<g id="edge2" class="edge">
<title>OSPF_BackboneTest&#45;&gt;TestArea</title>
<path fill="none" stroke="black" d="M186.5,-54.75C186.5,-47.8 186.5,-37.85 186.5,-29.13"/>
<polygon fill="black" stroke="black" points="190,-29.09 186.5,-19.09 183,-29.09 190,-29.09"/>
</g>
<!-- ScenarioManager -->
<g id="node4" class="node">
<title>ScenarioManager</title>
<g id="a_node4"><a xlink:href="inet.common.scenario.ScenarioManager.html" xlink:title="Simple Module ScenarioManager" target="_parent">
<polygon fill="#fffcaf" stroke="black" points="335,-19 234,-19 234,0 335,0 335,-19"/>
<text text-anchor="middle" x="284.5" y="-7" font-family="Helvetica,sans-Serif" font-size="10.00">ScenarioManager</text>
</a>
</g>
</g>
<!-- OSPF_BackboneTest&#45;&gt;ScenarioManager -->
<g id="edge3" class="edge">
<title>OSPF_BackboneTest&#45;&gt;ScenarioManager</title>
<path fill="none" stroke="black" d="M202.25,-54.98C217.73,-46.61 241.59,-33.7 259.64,-23.95"/>
<polygon fill="black" stroke="black" points="261.34,-27.01 268.47,-19.17 258.01,-20.85 261.34,-27.01"/>
</g>
</g>
</svg>
