<?xml version="1.0" encoding="UTF-8" standalone="no"?>
<!DOCTYPE svg PUBLIC "-//W3C//DTD SVG 1.1//EN"
 "http://www.w3.org/Graphics/SVG/1.1/DTD/svg11.dtd">
<!-- Generated by graphviz version 2.43.0 (0)
 -->
<!-- Title: opp Pages: 1 -->
<svg width="214pt" height="82pt"
 viewBox="0.00 0.00 214.00 82.00" xmlns="http://www.w3.org/2000/svg" xmlns:xlink="http://www.w3.org/1999/xlink">
<g id="graph0" class="graph" transform="scale(1 1) rotate(0) translate(4 78)">
<title>opp</title>
<polygon fill="transparent" stroke="transparent" points="-4,4 -4,-78 210,-78 210,4 -4,4"/>
<!-- ClockExample -->
<g id="node1" class="node">
<title>ClockExample</title>
<g id="a_node1"><a xlink:href="inet.examples.clock.ClockExample.html" xlink:title="Network ClockExample" target="_parent">
<polygon fill="#9090ff" stroke="black" points="159,-74 73,-74 73,-55 159,-55 159,-74"/>
<text text-anchor="middle" x="116" y="-62" font-family="Helvetica,sans-Serif" font-size="10.00">ClockExample</text>
</a>
</g>
</g>
<!-- OscillatorBasedClock -->
<g id="node2" class="node">
<title>OscillatorBasedClock</title>
<g id="a_node2"><a xlink:href="inet.clock.model.OscillatorBasedClock.html" xlink:title="Compound Module OscillatorBasedClock" target="_parent">
<polygon fill="#fffcaf" stroke="black" points="120,-19 0,-19 0,0 120,0 120,-19"/>
<text text-anchor="middle" x="60" y="-7" font-family="Helvetica,sans-Serif" font-size="10.00">OscillatorBasedClock</text>
</a>
</g>
</g>
<!-- ClockExample&#45;&gt;OscillatorBasedClock -->
<g id="edge1" class="edge">
<title>ClockExample&#45;&gt;OscillatorBasedClock</title>
<path fill="none" stroke="black" d="M107,-54.98C98.81,-47.23 86.49,-35.58 76.53,-26.14"/>
<polygon fill="black" stroke="black" points="78.83,-23.5 69.16,-19.17 74.02,-28.59 78.83,-23.5"/>
</g>
<!-- IdealClock -->
<g id="node3" class="node">
<title>IdealClock</title>
<g id="a_node3"><a xlink:href="inet.clock.model.IdealClock.html" xlink:title="Compound Module IdealClock" target="_parent">
<polygon fill="#fffcaf" stroke="black" points="206,-19 138,-19 138,0 206,0 206,-19"/>
<text text-anchor="middle" x="172" y="-7" font-family="Helvetica,sans-Serif" font-size="10.00">IdealClock</text>
</a>
</g>
</g>
<!-- ClockExample&#45;&gt;IdealClock -->
<g id="edge2" class="edge">
<title>ClockExample&#45;&gt;IdealClock</title>
<path fill="none" stroke="black" d="M125,-54.98C133.19,-47.23 145.51,-35.58 155.47,-26.14"/>
<polygon fill="black" stroke="black" points="157.98,-28.59 162.84,-19.17 153.17,-23.5 157.98,-28.59"/>
</g>
</g>
</svg>
