<?xml version="1.0" encoding="UTF-8" standalone="no"?>
<!DOCTYPE svg PUBLIC "-//W3C//DTD SVG 1.1//EN"
 "http://www.w3.org/Graphics/SVG/1.1/DTD/svg11.dtd">
<!-- Generated by graphviz version 2.43.0 (0)
 -->
<!-- Title: opp Pages: 1 -->
<svg width="556pt" height="137pt"
 viewBox="0.00 0.00 556.00 137.00" xmlns="http://www.w3.org/2000/svg" xmlns:xlink="http://www.w3.org/1999/xlink">
<g id="graph0" class="graph" transform="scale(1 1) rotate(0) translate(4 133)">
<title>opp</title>
<polygon fill="transparent" stroke="transparent" points="-4,4 -4,-133 552,-133 552,4 -4,4"/>
<!-- SinkClient -->
<g id="node1" class="node">
<title>SinkClient</title>
<g id="a_node1"><a xlink:href="inet.examples.wireless.ratecontrol.SinkClient.html" xlink:title="Compound Module SinkClient" target="_parent">
<polygon fill="#fff700" stroke="black" points="313,-74 247,-74 247,-55 313,-55 313,-74"/>
<text text-anchor="middle" x="280" y="-62" font-family="Helvetica,sans-Serif" font-size="10.00">SinkClient</text>
</a>
</g>
</g>
<!-- InterfaceTable -->
<g id="node2" class="node">
<title>InterfaceTable</title>
<g id="a_node2"><a xlink:href="inet.networklayer.common.InterfaceTable.html" xlink:title="Simple Module InterfaceTable" target="_parent">
<polygon fill="#fffcaf" stroke="black" points="86,-19 0,-19 0,0 86,0 86,-19"/>
<text text-anchor="middle" x="43" y="-7" font-family="Helvetica,sans-Serif" font-size="10.00">InterfaceTable</text>
</a>
</g>
</g>
<!-- SinkClient&#45;&gt;InterfaceTable -->
<g id="edge1" class="edge">
<title>SinkClient&#45;&gt;InterfaceTable</title>
<path fill="none" stroke="black" d="M246.8,-56.07C206.21,-47 137.21,-31.57 90.88,-21.21"/>
<polygon fill="black" stroke="black" points="91.6,-17.78 81.07,-19.01 90.07,-24.61 91.6,-17.78"/>
</g>
<!-- Ieee80211Interface -->
<g id="node3" class="node">
<title>Ieee80211Interface</title>
<g id="a_node3"><a xlink:href="inet.linklayer.ieee80211.Ieee80211Interface.html" xlink:title="Compound Module Ieee80211Interface" target="_parent">
<polygon fill="#fffcaf" stroke="black" points="215.5,-19 104.5,-19 104.5,0 215.5,0 215.5,-19"/>
<text text-anchor="middle" x="160" y="-7" font-family="Helvetica,sans-Serif" font-size="10.00">Ieee80211Interface</text>
</a>
</g>
</g>
<!-- SinkClient&#45;&gt;Ieee80211Interface -->
<g id="edge2" class="edge">
<title>SinkClient&#45;&gt;Ieee80211Interface</title>
<path fill="none" stroke="black" d="M260.72,-54.98C241.33,-46.42 211.19,-33.11 188.93,-23.28"/>
<polygon fill="black" stroke="black" points="190.19,-20.01 179.63,-19.17 187.36,-26.41 190.19,-20.01"/>
</g>
<!-- EtherAppServer -->
<g id="node4" class="node">
<title>EtherAppServer</title>
<g id="a_node4"><a xlink:href="inet.applications.ethernet.EtherAppServer.html" xlink:title="Simple Module EtherAppServer" target="_parent">
<polygon fill="#fffcaf" stroke="black" points="326,-19 234,-19 234,0 326,0 326,-19"/>
<text text-anchor="middle" x="280" y="-7" font-family="Helvetica,sans-Serif" font-size="10.00">EtherAppServer</text>
</a>
</g>
</g>
<!-- SinkClient&#45;&gt;EtherAppServer -->
<g id="edge3" class="edge">
<title>SinkClient&#45;&gt;EtherAppServer</title>
<path fill="none" stroke="black" d="M280,-54.75C280,-47.8 280,-37.85 280,-29.13"/>
<polygon fill="black" stroke="black" points="283.5,-29.09 280,-19.09 276.5,-29.09 283.5,-29.09"/>
</g>
<!-- RectangleMobility -->
<g id="node5" class="node">
<title>RectangleMobility</title>
<g id="a_node5"><a xlink:href="inet.mobility.single.RectangleMobility.html" xlink:title="Simple Module RectangleMobility" target="_parent">
<polygon fill="#fffcaf" stroke="black" points="449.5,-19 344.5,-19 344.5,0 449.5,0 449.5,-19"/>
<text text-anchor="middle" x="397" y="-7" font-family="Helvetica,sans-Serif" font-size="10.00">RectangleMobility</text>
</a>
</g>
</g>
<!-- SinkClient&#45;&gt;RectangleMobility -->
<g id="edge4" class="edge">
<title>SinkClient&#45;&gt;RectangleMobility</title>
<path fill="none" stroke="black" d="M298.8,-54.98C317.62,-46.46 346.82,-33.23 368.5,-23.41"/>
<polygon fill="black" stroke="black" points="370.2,-26.48 377.86,-19.17 367.31,-20.11 370.2,-26.48"/>
</g>
<!-- IdealChannel -->
<g id="node6" class="node">
<title>IdealChannel</title>
<g id="a_node6"><a xlink:href="ned.IdealChannel.html" xlink:title="Channel IdealChannel" target="_parent">
<polygon fill="#d0ffd0" stroke="black" points="548,-19 468,-19 468,0 548,0 548,-19"/>
<text text-anchor="middle" x="508" y="-7" font-family="Helvetica,sans-Serif" font-size="10.00">IdealChannel</text>
</a>
</g>
</g>
<!-- SinkClient&#45;&gt;IdealChannel -->
<g id="edge5" class="edge">
<title>SinkClient&#45;&gt;IdealChannel</title>
<path fill="none" stroke="black" d="M313.15,-55.79C352.23,-46.71 417.4,-31.56 461.51,-21.31"/>
<polygon fill="black" stroke="black" points="462.46,-24.68 471.41,-19.01 460.88,-17.86 462.46,-24.68"/>
</g>
<!-- RateControlTest -->
<g id="node7" class="node">
<title>RateControlTest</title>
<g id="a_node7"><a xlink:href="inet.examples.wireless.ratecontrol.RateControlTest.html" xlink:title="Network RateControlTest" target="_parent">
<polygon fill="#d0d0ff" stroke="black" points="327,-129 233,-129 233,-110 327,-110 327,-129"/>
<text text-anchor="middle" x="280" y="-117" font-family="Helvetica,sans-Serif" font-size="10.00">RateControlTest</text>
</a>
</g>
</g>
<!-- RateControlTest&#45;&gt;SinkClient -->
<g id="edge6" class="edge">
<title>RateControlTest&#45;&gt;SinkClient</title>
<path fill="none" stroke="black" d="M280,-109.75C280,-102.8 280,-92.85 280,-84.13"/>
<polygon fill="black" stroke="black" points="283.5,-84.09 280,-74.09 276.5,-84.09 283.5,-84.09"/>
</g>
</g>
</svg>
