<?xml version="1.0" encoding="UTF-8" standalone="no"?>
<!DOCTYPE svg PUBLIC "-//W3C//DTD SVG 1.1//EN"
 "http://www.w3.org/Graphics/SVG/1.1/DTD/svg11.dtd">
<!-- Generated by graphviz version 2.43.0 (0)
 -->
<!-- Title: opp Pages: 1 -->
<svg width="254pt" height="82pt"
 viewBox="0.00 0.00 254.00 82.00" xmlns="http://www.w3.org/2000/svg" xmlns:xlink="http://www.w3.org/1999/xlink">
<g id="graph0" class="graph" transform="scale(1 1) rotate(0) translate(4 78)">
<title>opp</title>
<polygon fill="transparent" stroke="transparent" points="-4,4 -4,-78 250,-78 250,4 -4,4"/>
<!-- StreamThroughReceiver -->
<g id="node1" class="node">
<title>StreamThroughReceiver</title>
<g id="a_node1"><a xlink:href="inet.protocolelement.transceiver.StreamThroughReceiver.html" xlink:title="Simple Module StreamThroughReceiver" target="_parent">
<polygon fill="#fff700" stroke="black" points="200,-19 66,-19 66,0 200,0 200,-19"/>
<text text-anchor="middle" x="133" y="-7" font-family="Helvetica,sans-Serif" font-size="10.00">StreamThroughReceiver</text>
</a>
</g>
</g>
<!-- StreamingReceiverBase -->
<g id="node2" class="node">
<title>StreamingReceiverBase</title>
<g id="a_node2"><a xlink:href="inet.protocolelement.transceiver.base.StreamingReceiverBase.html" xlink:title="Simple Module StreamingReceiverBase" target="_parent">
<polygon fill="#fffcaf" stroke="black" points="134,-74 0,-74 0,-55 134,-55 134,-74"/>
<text text-anchor="middle" x="67" y="-62" font-family="Helvetica,sans-Serif" font-size="10.00">StreamingReceiverBase</text>
</a>
</g>
</g>
<!-- StreamingReceiverBase&#45;&gt;StreamThroughReceiver -->
<g id="edge1" class="edge">
<title>StreamingReceiverBase&#45;&gt;StreamThroughReceiver</title>
<path fill="none" stroke="black" d="M77.6,-54.98C89.85,-45.15 109.88,-29.07 122.2,-19.17"/>
</g>
<!-- IPacketReceiver -->
<g id="node3" class="node">
<title>IPacketReceiver</title>
<g id="a_node3"><a xlink:href="inet.protocolelement.transceiver.contract.IPacketReceiver.html" xlink:title="Module Interface IPacketReceiver" target="_parent">
<polygon fill="#fffcaf" stroke="black" stroke-dasharray="5,2" points="246,-74 152,-74 152,-55 246,-55 246,-74"/>
<text text-anchor="middle" x="199" y="-62" font-family="Helvetica,sans-Serif" font-size="10.00">IPacketReceiver</text>
</a>
</g>
</g>
<!-- IPacketReceiver&#45;&gt;StreamThroughReceiver -->
<g id="edge2" class="edge">
<title>IPacketReceiver&#45;&gt;StreamThroughReceiver</title>
<path fill="none" stroke="black" stroke-dasharray="5,2" d="M188.4,-54.98C176.15,-45.15 156.12,-29.07 143.8,-19.17"/>
</g>
</g>
</svg>
