<?xml version="1.0" encoding="UTF-8" standalone="no"?>
<!DOCTYPE svg PUBLIC "-//W3C//DTD SVG 1.1//EN"
 "http://www.w3.org/Graphics/SVG/1.1/DTD/svg11.dtd">
<!-- Generated by graphviz version 2.43.0 (0)
 -->
<!-- Title: opp Pages: 1 -->
<svg width="304pt" height="82pt"
 viewBox="0.00 0.00 303.50 82.00" xmlns="http://www.w3.org/2000/svg" xmlns:xlink="http://www.w3.org/1999/xlink">
<g id="graph0" class="graph" transform="scale(1 1) rotate(0) translate(4 78)">
<title>opp</title>
<polygon fill="transparent" stroke="transparent" points="-4,4 -4,-78 299.5,-78 299.5,4 -4,4"/>
<!-- PhysicalLinkCanvasVisualizer -->
<g id="node1" class="node">
<title>PhysicalLinkCanvasVisualizer</title>
<g id="a_node1"><a xlink:href="inet.visualizer.canvas.physicallayer.PhysicalLinkCanvasVisualizer.html" xlink:title="Simple Module PhysicalLinkCanvasVisualizer" target="_parent">
<polygon fill="#fff700" stroke="black" points="233,-19 72,-19 72,0 233,0 233,-19"/>
<text text-anchor="middle" x="152.5" y="-7" font-family="Helvetica,sans-Serif" font-size="10.00">PhysicalLinkCanvasVisualizer</text>
</a>
</g>
</g>
<!-- PhysicalLinkVisualizerBase -->
<g id="node2" class="node">
<title>PhysicalLinkVisualizerBase</title>
<g id="a_node2"><a xlink:href="inet.visualizer.base.PhysicalLinkVisualizerBase.html" xlink:title="Simple Module PhysicalLinkVisualizerBase" target="_parent">
<polygon fill="#fffcaf" stroke="black" points="149,-74 0,-74 0,-55 149,-55 149,-74"/>
<text text-anchor="middle" x="74.5" y="-62" font-family="Helvetica,sans-Serif" font-size="10.00">PhysicalLinkVisualizerBase</text>
</a>
</g>
</g>
<!-- PhysicalLinkVisualizerBase&#45;&gt;PhysicalLinkCanvasVisualizer -->
<g id="edge1" class="edge">
<title>PhysicalLinkVisualizerBase&#45;&gt;PhysicalLinkCanvasVisualizer</title>
<path fill="none" stroke="black" d="M87.03,-54.98C101.5,-45.15 125.17,-29.07 139.74,-19.17"/>
</g>
<!-- IPhysicalLinkVisualizer -->
<g id="node3" class="node">
<title>IPhysicalLinkVisualizer</title>
<g id="a_node3"><a xlink:href="inet.visualizer.contract.IPhysicalLinkVisualizer.html" xlink:title="Module Interface IPhysicalLinkVisualizer" target="_parent">
<polygon fill="#fffcaf" stroke="black" stroke-dasharray="5,2" points="295.5,-74 167.5,-74 167.5,-55 295.5,-55 295.5,-74"/>
<text text-anchor="middle" x="231.5" y="-62" font-family="Helvetica,sans-Serif" font-size="10.00">IPhysicalLinkVisualizer</text>
</a>
</g>
</g>
<!-- IPhysicalLinkVisualizer&#45;&gt;PhysicalLinkCanvasVisualizer -->
<g id="edge2" class="edge">
<title>IPhysicalLinkVisualizer&#45;&gt;PhysicalLinkCanvasVisualizer</title>
<path fill="none" stroke="black" stroke-dasharray="5,2" d="M218.81,-54.98C204.15,-45.15 180.18,-29.07 165.42,-19.17"/>
</g>
</g>
</svg>
