<?xml version="1.0" encoding="UTF-8" standalone="no"?>
<!DOCTYPE svg PUBLIC "-//W3C//DTD SVG 1.1//EN"
 "http://www.w3.org/Graphics/SVG/1.1/DTD/svg11.dtd">
<!-- Generated by graphviz version 2.43.0 (0)
 -->
<!-- Title: opp Pages: 1 -->
<svg width="747pt" height="82pt"
 viewBox="0.00 0.00 747.00 82.00" xmlns="http://www.w3.org/2000/svg" xmlns:xlink="http://www.w3.org/1999/xlink">
<g id="graph0" class="graph" transform="scale(1 1) rotate(0) translate(4 78)">
<title>opp</title>
<polygon fill="transparent" stroke="transparent" points="-4,4 -4,-78 743,-78 743,4 -4,4"/>
<!-- ConfiguratorA -->
<g id="node1" class="node">
<title>ConfiguratorA</title>
<g id="a_node1"><a xlink:href="inet.tutorials.configurator.ConfiguratorA.html" xlink:title="Network ConfiguratorA" target="_parent">
<polygon fill="#9090ff" stroke="black" points="514,-74 431,-74 431,-55 514,-55 514,-74"/>
<text text-anchor="middle" x="472.5" y="-62" font-family="Helvetica,sans-Serif" font-size="10.00">ConfiguratorA</text>
</a>
</g>
</g>
<!-- StandardHost -->
<g id="node2" class="node">
<title>StandardHost</title>
<g id="a_node2"><a xlink:href="inet.node.inet.StandardHost.html" xlink:title="Compound Module StandardHost" target="_parent">
<polygon fill="#fffcaf" stroke="black" points="83,-19 0,-19 0,0 83,0 83,-19"/>
<text text-anchor="middle" x="41.5" y="-7" font-family="Helvetica,sans-Serif" font-size="10.00">StandardHost</text>
</a>
</g>
</g>
<!-- ConfiguratorA&#45;&gt;StandardHost -->
<g id="edge1" class="edge">
<title>ConfiguratorA&#45;&gt;StandardHost</title>
<path fill="none" stroke="black" d="M430.97,-59.37C362.64,-52.41 221.99,-37.43 93.25,-19.19"/>
<polygon fill="black" stroke="black" points="93.61,-15.71 83.22,-17.76 92.62,-22.64 93.61,-15.71"/>
</g>
<!-- IntegratedCanvasVisualizer -->
<g id="node3" class="node">
<title>IntegratedCanvasVisualizer</title>
<g id="a_node3"><a xlink:href="inet.visualizer.canvas.integrated.IntegratedCanvasVisualizer.html" xlink:title="Compound Module IntegratedCanvasVisualizer" target="_parent">
<polygon fill="#fffcaf" stroke="black" points="252,-19 101,-19 101,0 252,0 252,-19"/>
<text text-anchor="middle" x="176.5" y="-7" font-family="Helvetica,sans-Serif" font-size="10.00">IntegratedCanvasVisualizer</text>
</a>
</g>
</g>
<!-- ConfiguratorA&#45;&gt;IntegratedCanvasVisualizer -->
<g id="edge2" class="edge">
<title>ConfiguratorA&#45;&gt;IntegratedCanvasVisualizer</title>
<path fill="none" stroke="black" d="M430.72,-56.02C379.38,-46.83 292,-31.18 234.26,-20.84"/>
<polygon fill="black" stroke="black" points="234.65,-17.36 224.19,-19.04 233.42,-24.25 234.65,-17.36"/>
</g>
<!-- Ipv4NetworkConfigurator -->
<g id="node4" class="node">
<title>Ipv4NetworkConfigurator</title>
<g id="a_node4"><a xlink:href="inet.networklayer.configurator.ipv4.Ipv4NetworkConfigurator.html" xlink:title="Simple Module Ipv4NetworkConfigurator" target="_parent">
<polygon fill="#fffcaf" stroke="black" points="409,-19 270,-19 270,0 409,0 409,-19"/>
<text text-anchor="middle" x="339.5" y="-7" font-family="Helvetica,sans-Serif" font-size="10.00">Ipv4NetworkConfigurator</text>
</a>
</g>
</g>
<!-- ConfiguratorA&#45;&gt;Ipv4NetworkConfigurator -->
<g id="edge3" class="edge">
<title>ConfiguratorA&#45;&gt;Ipv4NetworkConfigurator</title>
<path fill="none" stroke="black" d="M451.13,-54.98C429.35,-46.3 395.34,-32.75 370.58,-22.88"/>
<polygon fill="black" stroke="black" points="371.84,-19.62 361.26,-19.17 369.25,-26.12 371.84,-19.62"/>
</g>
<!-- EthernetSwitch -->
<g id="node5" class="node">
<title>EthernetSwitch</title>
<g id="a_node5"><a xlink:href="inet.node.ethernet.EthernetSwitch.html" xlink:title="Compound Module EthernetSwitch" target="_parent">
<polygon fill="#fffcaf" stroke="black" points="517.5,-19 427.5,-19 427.5,0 517.5,0 517.5,-19"/>
<text text-anchor="middle" x="472.5" y="-7" font-family="Helvetica,sans-Serif" font-size="10.00">EthernetSwitch</text>
</a>
</g>
</g>
<!-- ConfiguratorA&#45;&gt;EthernetSwitch -->
<g id="edge4" class="edge">
<title>ConfiguratorA&#45;&gt;EthernetSwitch</title>
<path fill="none" stroke="black" d="M472.5,-54.75C472.5,-47.8 472.5,-37.85 472.5,-29.13"/>
<polygon fill="black" stroke="black" points="476,-29.09 472.5,-19.09 469,-29.09 476,-29.09"/>
</g>
<!-- Eth10M -->
<g id="node6" class="node">
<title>Eth10M</title>
<g id="a_node6"><a xlink:href="inet.node.ethernet.Eth10M.html" xlink:title="Channel Eth10M" target="_parent">
<polygon fill="#d0ffd0" stroke="black" points="589.5,-19 535.5,-19 535.5,0 589.5,0 589.5,-19"/>
<text text-anchor="middle" x="562.5" y="-7" font-family="Helvetica,sans-Serif" font-size="10.00">Eth10M</text>
</a>
</g>
</g>
<!-- ConfiguratorA&#45;&gt;Eth10M -->
<g id="edge5" class="edge">
<title>ConfiguratorA&#45;&gt;Eth10M</title>
<path fill="none" stroke="black" d="M486.96,-54.98C500.92,-46.77 522.29,-34.18 538.75,-24.49"/>
<polygon fill="black" stroke="black" points="540.94,-27.26 547.78,-19.17 537.38,-21.23 540.94,-27.26"/>
</g>
<!-- Router -->
<g id="node7" class="node">
<title>Router</title>
<g id="a_node7"><a xlink:href="inet.node.inet.Router.html" xlink:title="Compound Module Router" target="_parent">
<polygon fill="#fffcaf" stroke="black" points="661.5,-19 607.5,-19 607.5,0 661.5,0 661.5,-19"/>
<text text-anchor="middle" x="634.5" y="-7" font-family="Helvetica,sans-Serif" font-size="10.00">Router</text>
</a>
</g>
</g>
<!-- ConfiguratorA&#45;&gt;Router -->
<g id="edge6" class="edge">
<title>ConfiguratorA&#45;&gt;Router</title>
<path fill="none" stroke="black" d="M498.53,-54.98C525.61,-46.13 568.21,-32.19 598.51,-22.28"/>
<polygon fill="black" stroke="black" points="599.85,-25.52 608.27,-19.08 597.68,-18.87 599.85,-25.52"/>
</g>
<!-- Eth100M -->
<g id="node8" class="node">
<title>Eth100M</title>
<g id="a_node8"><a xlink:href="inet.node.ethernet.Eth100M.html" xlink:title="Channel Eth100M" target="_parent">
<polygon fill="#d0ffd0" stroke="black" points="739,-19 680,-19 680,0 739,0 739,-19"/>
<text text-anchor="middle" x="709.5" y="-7" font-family="Helvetica,sans-Serif" font-size="10.00">Eth100M</text>
</a>
</g>
</g>
<!-- ConfiguratorA&#45;&gt;Eth100M -->
<g id="edge7" class="edge">
<title>ConfiguratorA&#45;&gt;Eth100M</title>
<path fill="none" stroke="black" d="M510.58,-54.98C554.28,-45.21 625.61,-29.26 669.93,-19.35"/>
<polygon fill="black" stroke="black" points="670.77,-22.75 679.77,-17.15 669.25,-15.92 670.77,-22.75"/>
</g>
</g>
</svg>
