<?xml version="1.0" encoding="UTF-8" standalone="no"?>
<!DOCTYPE svg PUBLIC "-//W3C//DTD SVG 1.1//EN"
 "http://www.w3.org/Graphics/SVG/1.1/DTD/svg11.dtd">
<!-- Generated by graphviz version 2.43.0 (0)
 -->
<!-- Title: opp Pages: 1 -->
<svg width="722pt" height="82pt"
 viewBox="0.00 0.00 721.50 82.00" xmlns="http://www.w3.org/2000/svg" xmlns:xlink="http://www.w3.org/1999/xlink">
<g id="graph0" class="graph" transform="scale(1 1) rotate(0) translate(4 78)">
<title>opp</title>
<polygon fill="transparent" stroke="transparent" points="-4,4 -4,-78 717.5,-78 717.5,4 -4,4"/>
<!-- Ieee8021qTimeAwareShaper -->
<g id="node1" class="node">
<title>Ieee8021qTimeAwareShaper</title>
<g id="a_node1"><a xlink:href="inet.linklayer.ieee8021q.Ieee8021qTimeAwareShaper.html" xlink:title="Compound Module Ieee8021qTimeAwareShaper" target="_parent">
<polygon fill="#fff700" stroke="black" points="434.5,-74 277.5,-74 277.5,-55 434.5,-55 434.5,-74"/>
<text text-anchor="middle" x="356" y="-62" font-family="Helvetica,sans-Serif" font-size="10.00">Ieee8021qTimeAwareShaper</text>
</a>
</g>
</g>
<!-- GateControlList -->
<g id="node2" class="node">
<title>GateControlList</title>
<g id="a_node2"><a xlink:href="inet.queueing.gate.GateControlList.html" xlink:title="Simple Module GateControlList" target="_parent">
<polygon fill="#fffcaf" stroke="black" points="92,-19 0,-19 0,0 92,0 92,-19"/>
<text text-anchor="middle" x="46" y="-7" font-family="Helvetica,sans-Serif" font-size="10.00">GateControlList</text>
</a>
</g>
</g>
<!-- Ieee8021qTimeAwareShaper&#45;&gt;GateControlList -->
<g id="edge1" class="edge">
<title>Ieee8021qTimeAwareShaper&#45;&gt;GateControlList</title>
<path fill="none" stroke="black" d="M306.19,-54.98C250.49,-45.46 160.47,-30.07 102.27,-20.12"/>
<polygon fill="black" stroke="black" points="102.59,-16.62 92.14,-18.39 101.41,-23.52 102.59,-16.62"/>
</g>
<!-- IPacketClassifier -->
<g id="node3" class="node">
<title>IPacketClassifier</title>
<g id="a_node3"><a xlink:href="inet.queueing.contract.IPacketClassifier.html" xlink:title="Module Interface IPacketClassifier" target="_parent">
<polygon fill="#fffcaf" stroke="black" stroke-dasharray="5,2" points="206,-19 110,-19 110,0 206,0 206,-19"/>
<text text-anchor="middle" x="158" y="-7" font-family="Helvetica,sans-Serif" font-size="10.00">IPacketClassifier</text>
</a>
</g>
</g>
<!-- Ieee8021qTimeAwareShaper&#45;&gt;IPacketClassifier -->
<g id="edge2" class="edge">
<title>Ieee8021qTimeAwareShaper&#45;&gt;IPacketClassifier</title>
<path fill="none" stroke="black" d="M324.19,-54.98C290.51,-45.97 237.2,-31.7 200.08,-21.76"/>
<polygon fill="black" stroke="black" points="200.63,-18.29 190.06,-19.08 198.82,-25.05 200.63,-18.29"/>
</g>
<!-- IPacketGate -->
<g id="node4" class="node">
<title>IPacketGate</title>
<g id="a_node4"><a xlink:href="inet.queueing.contract.IPacketGate.html" xlink:title="Module Interface IPacketGate" target="_parent">
<polygon fill="#fffcaf" stroke="black" stroke-dasharray="5,2" points="298,-19 224,-19 224,0 298,0 298,-19"/>
<text text-anchor="middle" x="261" y="-7" font-family="Helvetica,sans-Serif" font-size="10.00">IPacketGate</text>
</a>
</g>
</g>
<!-- Ieee8021qTimeAwareShaper&#45;&gt;IPacketGate -->
<g id="edge3" class="edge">
<title>Ieee8021qTimeAwareShaper&#45;&gt;IPacketGate</title>
<path fill="none" stroke="black" d="M340.74,-54.98C325.87,-46.69 303.02,-33.94 285.58,-24.22"/>
<polygon fill="black" stroke="black" points="286.98,-20.99 276.54,-19.17 283.57,-27.1 286.98,-20.99"/>
</g>
<!-- IPacketBuffer -->
<g id="node5" class="node">
<title>IPacketBuffer</title>
<g id="a_node5"><a xlink:href="inet.queueing.contract.IPacketBuffer.html" xlink:title="Module Interface IPacketBuffer" target="_parent">
<polygon fill="#fffcaf" stroke="black" stroke-dasharray="5,2" points="396,-19 316,-19 316,0 396,0 396,-19"/>
<text text-anchor="middle" x="356" y="-7" font-family="Helvetica,sans-Serif" font-size="10.00">IPacketBuffer</text>
</a>
</g>
</g>
<!-- Ieee8021qTimeAwareShaper&#45;&gt;IPacketBuffer -->
<g id="edge4" class="edge">
<title>Ieee8021qTimeAwareShaper&#45;&gt;IPacketBuffer</title>
<path fill="none" stroke="black" d="M356,-54.75C356,-47.8 356,-37.85 356,-29.13"/>
<polygon fill="black" stroke="black" points="359.5,-29.09 356,-19.09 352.5,-29.09 359.5,-29.09"/>
</g>
<!-- IPacketQueue -->
<g id="node6" class="node">
<title>IPacketQueue</title>
<g id="a_node6"><a xlink:href="inet.queueing.contract.IPacketQueue.html" xlink:title="Module Interface IPacketQueue" target="_parent">
<polygon fill="#fffcaf" stroke="black" stroke-dasharray="5,2" points="497.5,-19 414.5,-19 414.5,0 497.5,0 497.5,-19"/>
<text text-anchor="middle" x="456" y="-7" font-family="Helvetica,sans-Serif" font-size="10.00">IPacketQueue</text>
</a>
</g>
</g>
<!-- Ieee8021qTimeAwareShaper&#45;&gt;IPacketQueue -->
<g id="edge5" class="edge">
<title>Ieee8021qTimeAwareShaper&#45;&gt;IPacketQueue</title>
<path fill="none" stroke="black" d="M372.07,-54.98C387.86,-46.61 412.22,-33.7 430.63,-23.95"/>
<polygon fill="black" stroke="black" points="432.44,-26.95 439.64,-19.17 429.17,-20.76 432.44,-26.95"/>
</g>
<!-- IdealChannel -->
<g id="node7" class="node">
<title>IdealChannel</title>
<g id="a_node7"><a xlink:href="ned.IdealChannel.html" xlink:title="Channel IdealChannel" target="_parent">
<polygon fill="#d0ffd0" stroke="black" points="596,-19 516,-19 516,0 596,0 596,-19"/>
<text text-anchor="middle" x="556" y="-7" font-family="Helvetica,sans-Serif" font-size="10.00">IdealChannel</text>
</a>
</g>
</g>
<!-- Ieee8021qTimeAwareShaper&#45;&gt;IdealChannel -->
<g id="edge6" class="edge">
<title>Ieee8021qTimeAwareShaper&#45;&gt;IdealChannel</title>
<path fill="none" stroke="black" d="M388.13,-54.98C422.15,-45.97 476,-31.7 513.5,-21.76"/>
<polygon fill="black" stroke="black" points="514.84,-25.03 523.61,-19.08 513.05,-18.26 514.84,-25.03"/>
</g>
<!-- IPacketScheduler -->
<g id="node8" class="node">
<title>IPacketScheduler</title>
<g id="a_node8"><a xlink:href="inet.queueing.contract.IPacketScheduler.html" xlink:title="Module Interface IPacketScheduler" target="_parent">
<polygon fill="#fffcaf" stroke="black" stroke-dasharray="5,2" points="713.5,-19 614.5,-19 614.5,0 713.5,0 713.5,-19"/>
<text text-anchor="middle" x="664" y="-7" font-family="Helvetica,sans-Serif" font-size="10.00">IPacketScheduler</text>
</a>
</g>
</g>
<!-- Ieee8021qTimeAwareShaper&#45;&gt;IPacketScheduler -->
<g id="edge7" class="edge">
<title>Ieee8021qTimeAwareShaper&#45;&gt;IPacketScheduler</title>
<path fill="none" stroke="black" d="M405.49,-54.98C459.63,-45.67 546.4,-30.74 604.28,-20.78"/>
<polygon fill="black" stroke="black" points="605.12,-24.18 614.38,-19.04 603.93,-17.28 605.12,-24.18"/>
</g>
</g>
</svg>
