<?xml version="1.0" encoding="UTF-8" standalone="no"?>
<!DOCTYPE svg PUBLIC "-//W3C//DTD SVG 1.1//EN"
 "http://www.w3.org/Graphics/SVG/1.1/DTD/svg11.dtd">
<!-- Generated by graphviz version 2.43.0 (0)
 -->
<!-- Title: opp Pages: 1 -->
<svg width="326pt" height="82pt"
 viewBox="0.00 0.00 326.00 82.00" xmlns="http://www.w3.org/2000/svg" xmlns:xlink="http://www.w3.org/1999/xlink">
<g id="graph0" class="graph" transform="scale(1 1) rotate(0) translate(4 78)">
<title>opp</title>
<polygon fill="transparent" stroke="transparent" points="-4,4 -4,-78 322,-78 322,4 -4,4"/>
<!-- IGateScheduleVisualizer -->
<g id="node1" class="node">
<title>IGateScheduleVisualizer</title>
<g id="a_node1"><a xlink:href="inet.visualizer.contract.IGateScheduleVisualizer.html" xlink:title="Module Interface IGateScheduleVisualizer" target="_parent">
<polygon fill="#fff700" stroke="black" stroke-dasharray="5,2" points="235.5,-74 100.5,-74 100.5,-55 235.5,-55 235.5,-74"/>
<text text-anchor="middle" x="168" y="-62" font-family="Helvetica,sans-Serif" font-size="10.00">IGateScheduleVisualizer</text>
</a>
</g>
</g>
<!-- GateScheduleCanvasVisualizer -->
<g id="node2" class="node">
<title>GateScheduleCanvasVisualizer</title>
<g id="a_node2"><a xlink:href="inet.visualizer.canvas.common.GateScheduleCanvasVisualizer.html" xlink:title="Simple Module GateScheduleCanvasVisualizer" target="_parent">
<polygon fill="#fffcaf" stroke="black" points="168,-19 0,-19 0,0 168,0 168,-19"/>
<text text-anchor="middle" x="84" y="-7" font-family="Helvetica,sans-Serif" font-size="10.00">GateScheduleCanvasVisualizer</text>
</a>
</g>
</g>
<!-- IGateScheduleVisualizer&#45;&gt;GateScheduleCanvasVisualizer -->
<g id="edge1" class="edge">
<title>IGateScheduleVisualizer&#45;&gt;GateScheduleCanvasVisualizer</title>
<path fill="none" stroke="black" stroke-dasharray="5,2" d="M154.5,-54.98C138.92,-45.15 113.43,-29.07 97.74,-19.17"/>
</g>
<!-- GateScheduleVisualizer -->
<g id="node3" class="node">
<title>GateScheduleVisualizer</title>
<g id="a_node3"><a xlink:href="inet.visualizer.common.GateScheduleVisualizer.html" xlink:title="Compound Module GateScheduleVisualizer" target="_parent">
<polygon fill="#fffcaf" stroke="black" points="318,-19 186,-19 186,0 318,0 318,-19"/>
<text text-anchor="middle" x="252" y="-7" font-family="Helvetica,sans-Serif" font-size="10.00">GateScheduleVisualizer</text>
</a>
</g>
</g>
<!-- IGateScheduleVisualizer&#45;&gt;GateScheduleVisualizer -->
<g id="edge2" class="edge">
<title>IGateScheduleVisualizer&#45;&gt;GateScheduleVisualizer</title>
<path fill="none" stroke="black" stroke-dasharray="5,2" d="M181.5,-54.98C197.08,-45.15 222.57,-29.07 238.26,-19.17"/>
</g>
</g>
</svg>
