<?xml version="1.0" encoding="UTF-8" standalone="no"?>
<!DOCTYPE svg PUBLIC "-//W3C//DTD SVG 1.1//EN"
 "http://www.w3.org/Graphics/SVG/1.1/DTD/svg11.dtd">
<!-- Generated by graphviz version 2.43.0 (0)
 -->
<!-- Title: opp Pages: 1 -->
<svg width="257pt" height="137pt"
 viewBox="0.00 0.00 256.50 137.00" xmlns="http://www.w3.org/2000/svg" xmlns:xlink="http://www.w3.org/1999/xlink">
<g id="graph0" class="graph" transform="scale(1 1) rotate(0) translate(4 133)">
<title>opp</title>
<polygon fill="transparent" stroke="transparent" points="-4,4 -4,-133 252.5,-133 252.5,4 -4,4"/>
<!-- ApplicationLayerNodeBase -->
<g id="node1" class="node">
<title>ApplicationLayerNodeBase</title>
<g id="a_node1"><a xlink:href="inet.node.base.ApplicationLayerNodeBase.html" xlink:title="Compound Module ApplicationLayerNodeBase" target="_parent">
<polygon fill="#fff700" stroke="black" points="184,-74 36,-74 36,-55 184,-55 184,-74"/>
<text text-anchor="middle" x="110" y="-62" font-family="Helvetica,sans-Serif" font-size="10.00">ApplicationLayerNodeBase</text>
</a>
</g>
</g>
<!-- Router -->
<g id="node3" class="node">
<title>Router</title>
<g id="a_node3"><a xlink:href="inet.node.inet.Router.html" xlink:title="Compound Module Router" target="_parent">
<polygon fill="#fffcaf" stroke="black" points="54,-19 0,-19 0,0 54,0 54,-19"/>
<text text-anchor="middle" x="27" y="-7" font-family="Helvetica,sans-Serif" font-size="10.00">Router</text>
</a>
</g>
</g>
<!-- ApplicationLayerNodeBase&#45;&gt;Router -->
<g id="edge2" class="edge">
<title>ApplicationLayerNodeBase&#45;&gt;Router</title>
<path fill="none" stroke="black" d="M96.66,-54.98C81.27,-45.15 56.08,-29.07 40.58,-19.17"/>
</g>
<!-- SensorNode -->
<g id="node4" class="node">
<title>SensorNode</title>
<g id="a_node4"><a xlink:href="inet.node.inet.SensorNode.html" xlink:title="Compound Module SensorNode" target="_parent">
<polygon fill="#fffcaf" stroke="black" points="147.5,-19 72.5,-19 72.5,0 147.5,0 147.5,-19"/>
<text text-anchor="middle" x="110" y="-7" font-family="Helvetica,sans-Serif" font-size="10.00">SensorNode</text>
</a>
</g>
</g>
<!-- ApplicationLayerNodeBase&#45;&gt;SensorNode -->
<g id="edge3" class="edge">
<title>ApplicationLayerNodeBase&#45;&gt;SensorNode</title>
<path fill="none" stroke="black" d="M110,-54.75C110,-44.87 110,-28.9 110,-19.09"/>
</g>
<!-- StandardHost -->
<g id="node5" class="node">
<title>StandardHost</title>
<g id="a_node5"><a xlink:href="inet.node.inet.StandardHost.html" xlink:title="Compound Module StandardHost" target="_parent">
<polygon fill="#fffcaf" stroke="black" points="248.5,-19 165.5,-19 165.5,0 248.5,0 248.5,-19"/>
<text text-anchor="middle" x="207" y="-7" font-family="Helvetica,sans-Serif" font-size="10.00">StandardHost</text>
</a>
</g>
</g>
<!-- ApplicationLayerNodeBase&#45;&gt;StandardHost -->
<g id="edge4" class="edge">
<title>ApplicationLayerNodeBase&#45;&gt;StandardHost</title>
<path fill="none" stroke="black" d="M125.58,-54.98C143.58,-45.15 173.02,-29.07 191.13,-19.17"/>
</g>
<!-- TransportLayerNodeBase -->
<g id="node2" class="node">
<title>TransportLayerNodeBase</title>
<g id="a_node2"><a xlink:href="inet.node.base.TransportLayerNodeBase.html" xlink:title="Compound Module TransportLayerNodeBase" target="_parent">
<polygon fill="#fffcaf" stroke="black" points="179,-129 41,-129 41,-110 179,-110 179,-129"/>
<text text-anchor="middle" x="110" y="-117" font-family="Helvetica,sans-Serif" font-size="10.00">TransportLayerNodeBase</text>
</a>
</g>
</g>
<!-- TransportLayerNodeBase&#45;&gt;ApplicationLayerNodeBase -->
<g id="edge1" class="edge">
<title>TransportLayerNodeBase&#45;&gt;ApplicationLayerNodeBase</title>
<path fill="none" stroke="black" d="M110,-109.75C110,-99.87 110,-83.9 110,-74.09"/>
</g>
</g>
</svg>
