<?xml version="1.0" encoding="UTF-8" standalone="no"?>
<!DOCTYPE svg PUBLIC "-//W3C//DTD SVG 1.1//EN"
 "http://www.w3.org/Graphics/SVG/1.1/DTD/svg11.dtd">
<!-- Generated by graphviz version 2.43.0 (0)
 -->
<!-- Title: opp Pages: 1 -->
<svg width="1160pt" height="82pt"
 viewBox="0.00 0.00 1159.50 82.00" xmlns="http://www.w3.org/2000/svg" xmlns:xlink="http://www.w3.org/1999/xlink">
<g id="graph0" class="graph" transform="scale(1 1) rotate(0) translate(4 78)">
<title>opp</title>
<polygon fill="transparent" stroke="transparent" points="-4,4 -4,-78 1155.5,-78 1155.5,4 -4,4"/>
<!-- ITransmitter -->
<g id="node1" class="node">
<title>ITransmitter</title>
<g id="a_node1"><a xlink:href="inet.physicallayer.wireless.common.contract.packetlevel.ITransmitter.html" xlink:title="Module Interface ITransmitter" target="_parent">
<polygon fill="#fff700" stroke="black" stroke-dasharray="5,2" points="652,-74 577,-74 577,-55 652,-55 652,-74"/>
<text text-anchor="middle" x="614.5" y="-62" font-family="Helvetica,sans-Serif" font-size="10.00">ITransmitter</text>
</a>
</g>
</g>
<!-- ApskLayeredTransmitter -->
<g id="node2" class="node">
<title>ApskLayeredTransmitter</title>
<g id="a_node2"><a xlink:href="inet.physicallayer.wireless.apsk.bitlevel.ApskLayeredTransmitter.html" xlink:title="Compound Module ApskLayeredTransmitter" target="_parent">
<polygon fill="#fffcaf" stroke="black" points="135,-19 0,-19 0,0 135,0 135,-19"/>
<text text-anchor="middle" x="67.5" y="-7" font-family="Helvetica,sans-Serif" font-size="10.00">ApskLayeredTransmitter</text>
</a>
</g>
</g>
<!-- ITransmitter&#45;&gt;ApskLayeredTransmitter -->
<g id="edge1" class="edge">
<title>ITransmitter&#45;&gt;ApskLayeredTransmitter</title>
<path fill="none" stroke="black" stroke-dasharray="5,2" d="M576.93,-60.17C497.09,-53.05 304.66,-35.62 143.5,-19 140.73,-18.71 137.9,-18.42 135.04,-18.11"/>
</g>
<!-- Ieee80211LayeredOfdmTransmitter -->
<g id="node3" class="node">
<title>Ieee80211LayeredOfdmTransmitter</title>
<g id="a_node3"><a xlink:href="inet.physicallayer.wireless.ieee80211.bitlevel.Ieee80211LayeredOfdmTransmitter.html" xlink:title="Compound Module Ieee80211LayeredOfdmTransmitter" target="_parent">
<polygon fill="#fffcaf" stroke="black" points="342,-19 153,-19 153,0 342,0 342,-19"/>
<text text-anchor="middle" x="247.5" y="-7" font-family="Helvetica,sans-Serif" font-size="10.00">Ieee80211LayeredOfdmTransmitter</text>
</a>
</g>
</g>
<!-- ITransmitter&#45;&gt;Ieee80211LayeredOfdmTransmitter -->
<g id="edge2" class="edge">
<title>ITransmitter&#45;&gt;Ieee80211LayeredOfdmTransmitter</title>
<path fill="none" stroke="black" stroke-dasharray="5,2" d="M576.95,-58.08C513.01,-48.84 382.54,-30 306.37,-19"/>
</g>
<!-- Ieee802154UwbIrTransmitter -->
<g id="node4" class="node">
<title>Ieee802154UwbIrTransmitter</title>
<g id="a_node4"><a xlink:href="inet.physicallayer.wireless.ieee802154.bitlevel.Ieee802154UwbIrTransmitter.html" xlink:title="Compound Module Ieee802154UwbIrTransmitter" target="_parent">
<polygon fill="#fffcaf" stroke="black" points="518.5,-19 360.5,-19 360.5,0 518.5,0 518.5,-19"/>
<text text-anchor="middle" x="439.5" y="-7" font-family="Helvetica,sans-Serif" font-size="10.00">Ieee802154UwbIrTransmitter</text>
</a>
</g>
</g>
<!-- ITransmitter&#45;&gt;Ieee802154UwbIrTransmitter -->
<g id="edge3" class="edge">
<title>ITransmitter&#45;&gt;Ieee802154UwbIrTransmitter</title>
<path fill="none" stroke="black" stroke-dasharray="5,2" d="M586.38,-54.98C553.82,-45.12 500.49,-28.97 467.84,-19.08"/>
</g>
<!-- NarrowbandTransmitterBase -->
<g id="node5" class="node">
<title>NarrowbandTransmitterBase</title>
<g id="a_node5"><a xlink:href="inet.physicallayer.wireless.common.base.packetlevel.NarrowbandTransmitterBase.html" xlink:title="Compound Module NarrowbandTransmitterBase" target="_parent">
<polygon fill="#fffcaf" stroke="black" points="692,-19 537,-19 537,0 692,0 692,-19"/>
<text text-anchor="middle" x="614.5" y="-7" font-family="Helvetica,sans-Serif" font-size="10.00">NarrowbandTransmitterBase</text>
</a>
</g>
</g>
<!-- ITransmitter&#45;&gt;NarrowbandTransmitterBase -->
<g id="edge4" class="edge">
<title>ITransmitter&#45;&gt;NarrowbandTransmitterBase</title>
<path fill="none" stroke="black" stroke-dasharray="5,2" d="M614.5,-54.75C614.5,-44.87 614.5,-28.9 614.5,-19.09"/>
</g>
<!-- NoiseDimensionalTransmitter -->
<g id="node6" class="node">
<title>NoiseDimensionalTransmitter</title>
<g id="a_node6"><a xlink:href="inet.physicallayer.wireless.noise.NoiseDimensionalTransmitter.html" xlink:title="Compound Module NoiseDimensionalTransmitter" target="_parent">
<polygon fill="#fffcaf" stroke="black" points="871,-19 710,-19 710,0 871,0 871,-19"/>
<text text-anchor="middle" x="790.5" y="-7" font-family="Helvetica,sans-Serif" font-size="10.00">NoiseDimensionalTransmitter</text>
</a>
</g>
</g>
<!-- ITransmitter&#45;&gt;NoiseDimensionalTransmitter -->
<g id="edge5" class="edge">
<title>ITransmitter&#45;&gt;NoiseDimensionalTransmitter</title>
<path fill="none" stroke="black" stroke-dasharray="5,2" d="M642.78,-54.98C675.52,-45.12 729.16,-28.97 762,-19.08"/>
</g>
<!-- NoiseScalarTransmitter -->
<g id="node7" class="node">
<title>NoiseScalarTransmitter</title>
<g id="a_node7"><a xlink:href="inet.physicallayer.wireless.noise.NoiseScalarTransmitter.html" xlink:title="Compound Module NoiseScalarTransmitter" target="_parent">
<polygon fill="#fffcaf" stroke="black" points="1019.5,-19 889.5,-19 889.5,0 1019.5,0 1019.5,-19"/>
<text text-anchor="middle" x="954.5" y="-7" font-family="Helvetica,sans-Serif" font-size="10.00">NoiseScalarTransmitter</text>
</a>
</g>
</g>
<!-- ITransmitter&#45;&gt;NoiseScalarTransmitter -->
<g id="edge6" class="edge">
<title>ITransmitter&#45;&gt;NoiseScalarTransmitter</title>
<path fill="none" stroke="black" stroke-dasharray="5,2" d="M652.19,-57.63C712.35,-48.25 830.39,-29.85 899.84,-19.02"/>
</g>
<!-- UnitDiskTransmitter -->
<g id="node8" class="node">
<title>UnitDiskTransmitter</title>
<g id="a_node8"><a xlink:href="inet.physicallayer.wireless.unitdisk.UnitDiskTransmitter.html" xlink:title="Compound Module UnitDiskTransmitter" target="_parent">
<polygon fill="#fffcaf" stroke="black" points="1151.5,-19 1037.5,-19 1037.5,0 1151.5,0 1151.5,-19"/>
<text text-anchor="middle" x="1094.5" y="-7" font-family="Helvetica,sans-Serif" font-size="10.00">UnitDiskTransmitter</text>
</a>
</g>
</g>
<!-- ITransmitter&#45;&gt;UnitDiskTransmitter -->
<g id="edge7" class="edge">
<title>ITransmitter&#45;&gt;UnitDiskTransmitter</title>
<path fill="none" stroke="black" stroke-dasharray="5,2" d="M652.2,-59.72C725,-52.35 889.95,-35.37 1028.5,-19 1031.37,-18.66 1034.31,-18.31 1037.27,-17.95"/>
</g>
</g>
</svg>
