<?xml version="1.0" encoding="UTF-8" standalone="no"?>
<!DOCTYPE svg PUBLIC "-//W3C//DTD SVG 1.1//EN"
 "http://www.w3.org/Graphics/SVG/1.1/DTD/svg11.dtd">
<!-- Generated by graphviz version 2.43.0 (0)
 -->
<!-- Title: opp Pages: 1 -->
<svg width="206pt" height="82pt"
 viewBox="0.00 0.00 205.50 82.00" xmlns="http://www.w3.org/2000/svg" xmlns:xlink="http://www.w3.org/1999/xlink">
<g id="graph0" class="graph" transform="scale(1 1) rotate(0) translate(4 78)">
<title>opp</title>
<polygon fill="transparent" stroke="transparent" points="-4,4 -4,-78 201.5,-78 201.5,4 -4,4"/>
<!-- RelayInterfaceSelector -->
<g id="node1" class="node">
<title>RelayInterfaceSelector</title>
<g id="a_node1"><a xlink:href="inet.linklayer.ethernet.common.RelayInterfaceSelector.html" xlink:title="Simple Module RelayInterfaceSelector" target="_parent">
<polygon fill="#fff700" stroke="black" points="170.5,-19 42.5,-19 42.5,0 170.5,0 170.5,-19"/>
<text text-anchor="middle" x="106.5" y="-7" font-family="Helvetica,sans-Serif" font-size="10.00">RelayInterfaceSelector</text>
</a>
</g>
</g>
<!-- PacketPusherBase -->
<g id="node2" class="node">
<title>PacketPusherBase</title>
<g id="a_node2"><a xlink:href="inet.queueing.base.PacketPusherBase.html" xlink:title="Simple Module PacketPusherBase" target="_parent">
<polygon fill="#fffcaf" stroke="black" points="105,-74 0,-74 0,-55 105,-55 105,-74"/>
<text text-anchor="middle" x="52.5" y="-62" font-family="Helvetica,sans-Serif" font-size="10.00">PacketPusherBase</text>
</a>
</g>
</g>
<!-- PacketPusherBase&#45;&gt;RelayInterfaceSelector -->
<g id="edge1" class="edge">
<title>PacketPusherBase&#45;&gt;RelayInterfaceSelector</title>
<path fill="none" stroke="black" d="M61.42,-54.75C71.48,-44.87 87.75,-28.9 97.75,-19.09"/>
</g>
<!-- IPacketFlow -->
<g id="node3" class="node">
<title>IPacketFlow</title>
<g id="a_node3"><a xlink:href="inet.queueing.contract.IPacketFlow.html" xlink:title="Module Interface IPacketFlow" target="_parent">
<polygon fill="#fffcaf" stroke="black" stroke-dasharray="5,2" points="197.5,-74 123.5,-74 123.5,-55 197.5,-55 197.5,-74"/>
<text text-anchor="middle" x="160.5" y="-62" font-family="Helvetica,sans-Serif" font-size="10.00">IPacketFlow</text>
</a>
</g>
</g>
<!-- IPacketFlow&#45;&gt;RelayInterfaceSelector -->
<g id="edge2" class="edge">
<title>IPacketFlow&#45;&gt;RelayInterfaceSelector</title>
<path fill="none" stroke="black" stroke-dasharray="5,2" d="M151.58,-54.75C141.52,-44.87 125.25,-28.9 115.25,-19.09"/>
</g>
</g>
</svg>
