<?xml version="1.0" encoding="UTF-8" standalone="no"?>
<!DOCTYPE svg PUBLIC "-//W3C//DTD SVG 1.1//EN"
 "http://www.w3.org/Graphics/SVG/1.1/DTD/svg11.dtd">
<!-- Generated by graphviz version 2.43.0 (0)
 -->
<!-- Title: opp Pages: 1 -->
<svg width="378pt" height="82pt"
 viewBox="0.00 0.00 377.50 82.00" xmlns="http://www.w3.org/2000/svg" xmlns:xlink="http://www.w3.org/1999/xlink">
<g id="graph0" class="graph" transform="scale(1 1) rotate(0) translate(4 78)">
<title>opp</title>
<polygon fill="transparent" stroke="transparent" points="-4,4 -4,-78 373.5,-78 373.5,4 -4,4"/>
<!-- NetworkBase -->
<g id="node1" class="node">
<title>NetworkBase</title>
<g id="a_node1"><a xlink:href="inet.networks.base.NetworkBase.html" xlink:title="Network NetworkBase" target="_parent">
<polygon fill="#9090ff" stroke="black" points="243,-74 161,-74 161,-55 243,-55 243,-74"/>
<text text-anchor="middle" x="202" y="-62" font-family="Helvetica,sans-Serif" font-size="10.00">NetworkBase</text>
</a>
</g>
</g>
<!-- IIntegratedVisualizer -->
<g id="node2" class="node">
<title>IIntegratedVisualizer</title>
<g id="a_node2"><a xlink:href="inet.visualizer.contract.IIntegratedVisualizer.html" xlink:title="Module Interface IIntegratedVisualizer" target="_parent">
<polygon fill="#fffcaf" stroke="black" stroke-dasharray="5,2" points="118,-19 0,-19 0,0 118,0 118,-19"/>
<text text-anchor="middle" x="59" y="-7" font-family="Helvetica,sans-Serif" font-size="10.00">IIntegratedVisualizer</text>
</a>
</g>
</g>
<!-- NetworkBase&#45;&gt;IIntegratedVisualizer -->
<g id="edge1" class="edge">
<title>NetworkBase&#45;&gt;IIntegratedVisualizer</title>
<path fill="none" stroke="black" d="M179.02,-54.98C155.5,-46.27 118.71,-32.63 92.06,-22.75"/>
<polygon fill="black" stroke="black" points="92.99,-19.36 82.39,-19.17 90.55,-25.93 92.99,-19.36"/>
</g>
<!-- IL3NetworkConfigurator -->
<g id="node3" class="node">
<title>IL3NetworkConfigurator</title>
<g id="a_node3"><a xlink:href="inet.networklayer.configurator.contract.IL3NetworkConfigurator.html" xlink:title="Module Interface IL3NetworkConfigurator" target="_parent">
<polygon fill="#fffcaf" stroke="black" stroke-dasharray="5,2" points="268,-19 136,-19 136,0 268,0 268,-19"/>
<text text-anchor="middle" x="202" y="-7" font-family="Helvetica,sans-Serif" font-size="10.00">IL3NetworkConfigurator</text>
</a>
</g>
</g>
<!-- NetworkBase&#45;&gt;IL3NetworkConfigurator -->
<g id="edge2" class="edge">
<title>NetworkBase&#45;&gt;IL3NetworkConfigurator</title>
<path fill="none" stroke="black" d="M202,-54.75C202,-47.8 202,-37.85 202,-29.13"/>
<polygon fill="black" stroke="black" points="205.5,-29.09 202,-19.09 198.5,-29.09 205.5,-29.09"/>
</g>
<!-- PcapRecorder -->
<g id="node4" class="node">
<title>PcapRecorder</title>
<g id="a_node4"><a xlink:href="inet.common.packet.recorder.PcapRecorder.html" xlink:title="Simple Module PcapRecorder" target="_parent">
<polygon fill="#fffcaf" stroke="black" points="369.5,-19 286.5,-19 286.5,0 369.5,0 369.5,-19"/>
<text text-anchor="middle" x="328" y="-7" font-family="Helvetica,sans-Serif" font-size="10.00">PcapRecorder</text>
</a>
</g>
</g>
<!-- NetworkBase&#45;&gt;PcapRecorder -->
<g id="edge3" class="edge">
<title>NetworkBase&#45;&gt;PcapRecorder</title>
<path fill="none" stroke="black" d="M222.24,-54.98C242.7,-46.38 274.53,-32.99 297.93,-23.15"/>
<polygon fill="black" stroke="black" points="299.53,-26.27 307.39,-19.17 296.81,-19.82 299.53,-26.27"/>
</g>
</g>
</svg>
