<?xml version="1.0" encoding="UTF-8" standalone="no"?>
<!DOCTYPE svg PUBLIC "-//W3C//DTD SVG 1.1//EN"
 "http://www.w3.org/Graphics/SVG/1.1/DTD/svg11.dtd">
<!-- Generated by graphviz version 2.43.0 (0)
 -->
<!-- Title: opp Pages: 1 -->
<svg width="320pt" height="137pt"
 viewBox="0.00 0.00 320.00 137.00" xmlns="http://www.w3.org/2000/svg" xmlns:xlink="http://www.w3.org/1999/xlink">
<g id="graph0" class="graph" transform="scale(1 1) rotate(0) translate(4 133)">
<title>opp</title>
<polygon fill="transparent" stroke="transparent" points="-4,4 -4,-133 316,-133 316,4 -4,4"/>
<!-- MultiTokenBucketMeter -->
<g id="node1" class="node">
<title>MultiTokenBucketMeter</title>
<g id="a_node1"><a xlink:href="inet.queueing.meter.MultiTokenBucketMeter.html" xlink:title="Simple Module MultiTokenBucketMeter" target="_parent">
<polygon fill="#fff700" stroke="black" points="219,-74 88,-74 88,-55 219,-55 219,-74"/>
<text text-anchor="middle" x="153.5" y="-62" font-family="Helvetica,sans-Serif" font-size="10.00">MultiTokenBucketMeter</text>
</a>
</g>
</g>
<!-- DualRateThreeColorMeter -->
<g id="node4" class="node">
<title>DualRateThreeColorMeter</title>
<g id="a_node4"><a xlink:href="inet.queueing.meter.DualRateThreeColorMeter.html" xlink:title="Simple Module DualRateThreeColorMeter" target="_parent">
<polygon fill="#fffcaf" stroke="black" points="143,-19 0,-19 0,0 143,0 143,-19"/>
<text text-anchor="middle" x="71.5" y="-7" font-family="Helvetica,sans-Serif" font-size="10.00">DualRateThreeColorMeter</text>
</a>
</g>
</g>
<!-- MultiTokenBucketMeter&#45;&gt;DualRateThreeColorMeter -->
<g id="edge3" class="edge">
<title>MultiTokenBucketMeter&#45;&gt;DualRateThreeColorMeter</title>
<path fill="none" stroke="black" d="M140.33,-54.98C125.11,-45.15 100.23,-29.07 84.91,-19.17"/>
</g>
<!-- SingleRateThreeColorMeter -->
<g id="node5" class="node">
<title>SingleRateThreeColorMeter</title>
<g id="a_node5"><a xlink:href="inet.queueing.meter.SingleRateThreeColorMeter.html" xlink:title="Simple Module SingleRateThreeColorMeter" target="_parent">
<polygon fill="#fffcaf" stroke="black" points="312,-19 161,-19 161,0 312,0 312,-19"/>
<text text-anchor="middle" x="236.5" y="-7" font-family="Helvetica,sans-Serif" font-size="10.00">SingleRateThreeColorMeter</text>
</a>
</g>
</g>
<!-- MultiTokenBucketMeter&#45;&gt;SingleRateThreeColorMeter -->
<g id="edge4" class="edge">
<title>MultiTokenBucketMeter&#45;&gt;SingleRateThreeColorMeter</title>
<path fill="none" stroke="black" d="M166.84,-54.98C182.23,-45.15 207.42,-29.07 222.92,-19.17"/>
</g>
<!-- PacketMeterBase -->
<g id="node2" class="node">
<title>PacketMeterBase</title>
<g id="a_node2"><a xlink:href="inet.queueing.base.PacketMeterBase.html" xlink:title="Simple Module PacketMeterBase" target="_parent">
<polygon fill="#fffcaf" stroke="black" points="150,-129 49,-129 49,-110 150,-110 150,-129"/>
<text text-anchor="middle" x="99.5" y="-117" font-family="Helvetica,sans-Serif" font-size="10.00">PacketMeterBase</text>
</a>
</g>
</g>
<!-- PacketMeterBase&#45;&gt;MultiTokenBucketMeter -->
<g id="edge1" class="edge">
<title>PacketMeterBase&#45;&gt;MultiTokenBucketMeter</title>
<path fill="none" stroke="black" d="M108.42,-109.75C118.48,-99.87 134.75,-83.9 144.75,-74.09"/>
</g>
<!-- IPacketMeter -->
<g id="node3" class="node">
<title>IPacketMeter</title>
<g id="a_node3"><a xlink:href="inet.queueing.contract.IPacketMeter.html" xlink:title="Module Interface IPacketMeter" target="_parent">
<polygon fill="#fffcaf" stroke="black" stroke-dasharray="5,2" points="248.5,-129 168.5,-129 168.5,-110 248.5,-110 248.5,-129"/>
<text text-anchor="middle" x="208.5" y="-117" font-family="Helvetica,sans-Serif" font-size="10.00">IPacketMeter</text>
</a>
</g>
</g>
<!-- IPacketMeter&#45;&gt;MultiTokenBucketMeter -->
<g id="edge2" class="edge">
<title>IPacketMeter&#45;&gt;MultiTokenBucketMeter</title>
<path fill="none" stroke="black" stroke-dasharray="5,2" d="M199.42,-109.75C189.17,-99.87 172.59,-83.9 162.41,-74.09"/>
</g>
</g>
</svg>
