<?xml version="1.0" encoding="UTF-8" standalone="no"?>
<!DOCTYPE svg PUBLIC "-//W3C//DTD SVG 1.1//EN"
 "http://www.w3.org/Graphics/SVG/1.1/DTD/svg11.dtd">
<!-- Generated by graphviz version 2.43.0 (0)
 -->
<!-- Title: opp Pages: 1 -->
<svg width="302pt" height="82pt"
 viewBox="0.00 0.00 302.00 82.00" xmlns="http://www.w3.org/2000/svg" xmlns:xlink="http://www.w3.org/1999/xlink">
<g id="graph0" class="graph" transform="scale(1 1) rotate(0) translate(4 78)">
<title>opp</title>
<polygon fill="transparent" stroke="transparent" points="-4,4 -4,-78 298,-78 298,4 -4,4"/>
<!-- Ieee8021qTagTpidHeaderInserter -->
<g id="node1" class="node">
<title>Ieee8021qTagTpidHeaderInserter</title>
<g id="a_node1"><a xlink:href="inet.linklayer.ieee8021q.Ieee8021qTagTpidHeaderInserter.html" xlink:title="Simple Module Ieee8021qTagTpidHeaderInserter" target="_parent">
<polygon fill="#fff700" stroke="black" points="214.5,-19 36.5,-19 36.5,0 214.5,0 214.5,-19"/>
<text text-anchor="middle" x="125.5" y="-7" font-family="Helvetica,sans-Serif" font-size="10.00">Ieee8021qTagTpidHeaderInserter</text>
</a>
</g>
</g>
<!-- PacketFlowBase -->
<g id="node2" class="node">
<title>PacketFlowBase</title>
<g id="a_node2"><a xlink:href="inet.queueing.base.PacketFlowBase.html" xlink:title="Simple Module PacketFlowBase" target="_parent">
<polygon fill="#fffcaf" stroke="black" points="95,-74 0,-74 0,-55 95,-55 95,-74"/>
<text text-anchor="middle" x="47.5" y="-62" font-family="Helvetica,sans-Serif" font-size="10.00">PacketFlowBase</text>
</a>
</g>
</g>
<!-- PacketFlowBase&#45;&gt;Ieee8021qTagTpidHeaderInserter -->
<g id="edge1" class="edge">
<title>PacketFlowBase&#45;&gt;Ieee8021qTagTpidHeaderInserter</title>
<path fill="none" stroke="black" d="M60.03,-54.98C74.5,-45.15 98.17,-29.07 112.74,-19.17"/>
</g>
<!-- IIeee8021qTagTpidHeaderInserter -->
<g id="node3" class="node">
<title>IIeee8021qTagTpidHeaderInserter</title>
<g id="a_node3"><a xlink:href="inet.linklayer.ieee8021q.IIeee8021qTagTpidHeaderInserter.html" xlink:title="Module Interface IIeee8021qTagTpidHeaderInserter" target="_parent">
<polygon fill="#fffcaf" stroke="black" stroke-dasharray="5,2" points="294,-74 113,-74 113,-55 294,-55 294,-74"/>
<text text-anchor="middle" x="203.5" y="-62" font-family="Helvetica,sans-Serif" font-size="10.00">IIeee8021qTagTpidHeaderInserter</text>
</a>
</g>
</g>
<!-- IIeee8021qTagTpidHeaderInserter&#45;&gt;Ieee8021qTagTpidHeaderInserter -->
<g id="edge2" class="edge">
<title>IIeee8021qTagTpidHeaderInserter&#45;&gt;Ieee8021qTagTpidHeaderInserter</title>
<path fill="none" stroke="black" stroke-dasharray="5,2" d="M190.97,-54.98C176.5,-45.15 152.83,-29.07 138.26,-19.17"/>
</g>
</g>
</svg>
