<?xml version="1.0" encoding="UTF-8" standalone="no"?>
<!DOCTYPE svg PUBLIC "-//W3C//DTD SVG 1.1//EN"
 "http://www.w3.org/Graphics/SVG/1.1/DTD/svg11.dtd">
<!-- Generated by graphviz version 2.43.0 (0)
 -->
<!-- Title: opp Pages: 1 -->
<svg width="338pt" height="82pt"
 viewBox="0.00 0.00 337.50 82.00" xmlns="http://www.w3.org/2000/svg" xmlns:xlink="http://www.w3.org/1999/xlink">
<g id="graph0" class="graph" transform="scale(1 1) rotate(0) translate(4 78)">
<title>opp</title>
<polygon fill="transparent" stroke="transparent" points="-4,4 -4,-78 333.5,-78 333.5,4 -4,4"/>
<!-- IIeee80211Llc -->
<g id="node1" class="node">
<title>IIeee80211Llc</title>
<g id="a_node1"><a xlink:href="inet.linklayer.ieee80211.llc.IIeee80211Llc.html" xlink:title="Module Interface IIeee80211Llc" target="_parent">
<polygon fill="#fff700" stroke="black" stroke-dasharray="5,2" points="208.5,-74 124.5,-74 124.5,-55 208.5,-55 208.5,-74"/>
<text text-anchor="middle" x="166.5" y="-62" font-family="Helvetica,sans-Serif" font-size="10.00">IIeee80211Llc</text>
</a>
</g>
</g>
<!-- Ieee80211LlcEpd -->
<g id="node2" class="node">
<title>Ieee80211LlcEpd</title>
<g id="a_node2"><a xlink:href="inet.linklayer.ieee80211.llc.Ieee80211LlcEpd.html" xlink:title="Simple Module Ieee80211LlcEpd" target="_parent">
<polygon fill="#fffcaf" stroke="black" points="99,-19 0,-19 0,0 99,0 99,-19"/>
<text text-anchor="middle" x="49.5" y="-7" font-family="Helvetica,sans-Serif" font-size="10.00">Ieee80211LlcEpd</text>
</a>
</g>
</g>
<!-- IIeee80211Llc&#45;&gt;Ieee80211LlcEpd -->
<g id="edge1" class="edge">
<title>IIeee80211Llc&#45;&gt;Ieee80211LlcEpd</title>
<path fill="none" stroke="black" stroke-dasharray="5,2" d="M147.7,-54.98C126,-45.15 90.49,-29.07 68.64,-19.17"/>
</g>
<!-- Ieee80211LlcLpd -->
<g id="node3" class="node">
<title>Ieee80211LlcLpd</title>
<g id="a_node3"><a xlink:href="inet.linklayer.ieee80211.llc.Ieee80211LlcLpd.html" xlink:title="Simple Module Ieee80211LlcLpd" target="_parent">
<polygon fill="#fffcaf" stroke="black" points="215.5,-19 117.5,-19 117.5,0 215.5,0 215.5,-19"/>
<text text-anchor="middle" x="166.5" y="-7" font-family="Helvetica,sans-Serif" font-size="10.00">Ieee80211LlcLpd</text>
</a>
</g>
</g>
<!-- IIeee80211Llc&#45;&gt;Ieee80211LlcLpd -->
<g id="edge2" class="edge">
<title>IIeee80211Llc&#45;&gt;Ieee80211LlcLpd</title>
<path fill="none" stroke="black" stroke-dasharray="5,2" d="M166.5,-54.75C166.5,-44.87 166.5,-28.9 166.5,-19.09"/>
</g>
<!-- Ieee80211Portal -->
<g id="node4" class="node">
<title>Ieee80211Portal</title>
<g id="a_node4"><a xlink:href="inet.linklayer.ieee80211.portal.Ieee80211Portal.html" xlink:title="Simple Module Ieee80211Portal" target="_parent">
<polygon fill="#fffcaf" stroke="black" points="329.5,-19 233.5,-19 233.5,0 329.5,0 329.5,-19"/>
<text text-anchor="middle" x="281.5" y="-7" font-family="Helvetica,sans-Serif" font-size="10.00">Ieee80211Portal</text>
</a>
</g>
</g>
<!-- IIeee80211Llc&#45;&gt;Ieee80211Portal -->
<g id="edge3" class="edge">
<title>IIeee80211Llc&#45;&gt;Ieee80211Portal</title>
<path fill="none" stroke="black" stroke-dasharray="5,2" d="M184.98,-54.98C206.31,-45.15 241.21,-29.07 262.69,-19.17"/>
</g>
</g>
</svg>
