<?xml version="1.0" encoding="UTF-8" standalone="no"?>
<!DOCTYPE svg PUBLIC "-//W3C//DTD SVG 1.1//EN"
 "http://www.w3.org/Graphics/SVG/1.1/DTD/svg11.dtd">
<!-- Generated by graphviz version 2.43.0 (0)
 -->
<!-- Title: opp Pages: 1 -->
<svg width="586pt" height="82pt"
 viewBox="0.00 0.00 585.50 82.00" xmlns="http://www.w3.org/2000/svg" xmlns:xlink="http://www.w3.org/1999/xlink">
<g id="graph0" class="graph" transform="scale(1 1) rotate(0) translate(4 78)">
<title>opp</title>
<polygon fill="transparent" stroke="transparent" points="-4,4 -4,-78 581.5,-78 581.5,4 -4,4"/>
<!-- Crosstalk -->
<g id="node1" class="node">
<title>Crosstalk</title>
<g id="a_node1"><a xlink:href="inet.examples.wireless.crosstalk.Crosstalk.html" xlink:title="Network Crosstalk" target="_parent">
<polygon fill="#9090ff" stroke="black" points="359,-74 297,-74 297,-55 359,-55 359,-74"/>
<text text-anchor="middle" x="328" y="-62" font-family="Helvetica,sans-Serif" font-size="10.00">Crosstalk</text>
</a>
</g>
</g>
<!-- IIntegratedVisualizer -->
<g id="node2" class="node">
<title>IIntegratedVisualizer</title>
<g id="a_node2"><a xlink:href="inet.visualizer.contract.IIntegratedVisualizer.html" xlink:title="Module Interface IIntegratedVisualizer" target="_parent">
<polygon fill="#fffcaf" stroke="black" stroke-dasharray="5,2" points="118,-19 0,-19 0,0 118,0 118,-19"/>
<text text-anchor="middle" x="59" y="-7" font-family="Helvetica,sans-Serif" font-size="10.00">IIntegratedVisualizer</text>
</a>
</g>
</g>
<!-- Crosstalk&#45;&gt;IIntegratedVisualizer -->
<g id="edge1" class="edge">
<title>Crosstalk&#45;&gt;IIntegratedVisualizer</title>
<path fill="none" stroke="black" d="M296.88,-57.37C251.7,-48.47 167.34,-31.85 112.18,-20.98"/>
<polygon fill="black" stroke="black" points="112.73,-17.52 102.24,-19.02 111.37,-24.39 112.73,-17.52"/>
</g>
<!-- Ieee80211DimensionalRadioMedium -->
<g id="node3" class="node">
<title>Ieee80211DimensionalRadioMedium</title>
<g id="a_node3"><a xlink:href="inet.physicallayer.wireless.ieee80211.packetlevel.Ieee80211DimensionalRadioMedium.html" xlink:title="Compound Module Ieee80211DimensionalRadioMedium" target="_parent">
<polygon fill="#fffcaf" stroke="black" points="333.5,-19 136.5,-19 136.5,0 333.5,0 333.5,-19"/>
<text text-anchor="middle" x="235" y="-7" font-family="Helvetica,sans-Serif" font-size="10.00">Ieee80211DimensionalRadioMedium</text>
</a>
</g>
</g>
<!-- Crosstalk&#45;&gt;Ieee80211DimensionalRadioMedium -->
<g id="edge2" class="edge">
<title>Crosstalk&#45;&gt;Ieee80211DimensionalRadioMedium</title>
<path fill="none" stroke="black" d="M313.06,-54.98C298.5,-46.69 276.13,-33.94 259.07,-24.22"/>
<polygon fill="black" stroke="black" points="260.64,-21.08 250.21,-19.17 257.17,-27.16 260.64,-21.08"/>
</g>
<!-- Ipv4NetworkConfigurator -->
<g id="node4" class="node">
<title>Ipv4NetworkConfigurator</title>
<g id="a_node4"><a xlink:href="inet.networklayer.configurator.ipv4.Ipv4NetworkConfigurator.html" xlink:title="Simple Module Ipv4NetworkConfigurator" target="_parent">
<polygon fill="#fffcaf" stroke="black" points="490.5,-19 351.5,-19 351.5,0 490.5,0 490.5,-19"/>
<text text-anchor="middle" x="421" y="-7" font-family="Helvetica,sans-Serif" font-size="10.00">Ipv4NetworkConfigurator</text>
</a>
</g>
</g>
<!-- Crosstalk&#45;&gt;Ipv4NetworkConfigurator -->
<g id="edge3" class="edge">
<title>Crosstalk&#45;&gt;Ipv4NetworkConfigurator</title>
<path fill="none" stroke="black" d="M342.94,-54.98C357.5,-46.69 379.87,-33.94 396.93,-24.22"/>
<polygon fill="black" stroke="black" points="398.83,-27.16 405.79,-19.17 395.36,-21.08 398.83,-27.16"/>
</g>
<!-- AdhocHost -->
<g id="node5" class="node">
<title>AdhocHost</title>
<g id="a_node5"><a xlink:href="inet.node.inet.AdhocHost.html" xlink:title="Compound Module AdhocHost" target="_parent">
<polygon fill="#fffcaf" stroke="black" points="577.5,-19 508.5,-19 508.5,0 577.5,0 577.5,-19"/>
<text text-anchor="middle" x="543" y="-7" font-family="Helvetica,sans-Serif" font-size="10.00">AdhocHost</text>
</a>
</g>
</g>
<!-- Crosstalk&#45;&gt;AdhocHost -->
<g id="edge4" class="edge">
<title>Crosstalk&#45;&gt;AdhocHost</title>
<path fill="none" stroke="black" d="M359.26,-55.79C395.95,-46.75 457.05,-31.69 498.63,-21.44"/>
<polygon fill="black" stroke="black" points="499.62,-24.8 508.49,-19.01 497.95,-18 499.62,-24.8"/>
</g>
</g>
</svg>
