<?xml version="1.0" encoding="UTF-8" standalone="no"?>
<!DOCTYPE svg PUBLIC "-//W3C//DTD SVG 1.1//EN"
 "http://www.w3.org/Graphics/SVG/1.1/DTD/svg11.dtd">
<!-- Generated by graphviz version 2.43.0 (0)
 -->
<!-- Title: opp Pages: 1 -->
<svg width="836pt" height="137pt"
 viewBox="0.00 0.00 836.00 137.00" xmlns="http://www.w3.org/2000/svg" xmlns:xlink="http://www.w3.org/1999/xlink">
<g id="graph0" class="graph" transform="scale(1 1) rotate(0) translate(4 133)">
<title>opp</title>
<polygon fill="transparent" stroke="transparent" points="-4,4 -4,-133 832,-133 832,4 -4,4"/>
<!-- ITrafficConditioner -->
<g id="node1" class="node">
<title>ITrafficConditioner</title>
<g id="a_node1"><a xlink:href="inet.queueing.contract.ITrafficConditioner.html" xlink:title="Module Interface ITrafficConditioner" target="_parent">
<polygon fill="#fff700" stroke="black" stroke-dasharray="5,2" points="529.5,-74 424.5,-74 424.5,-55 529.5,-55 529.5,-74"/>
<text text-anchor="middle" x="477" y="-62" font-family="Helvetica,sans-Serif" font-size="10.00">ITrafficConditioner</text>
</a>
</g>
</g>
<!-- DiffservTrafficConditioner -->
<g id="node4" class="node">
<title>DiffservTrafficConditioner</title>
<g id="a_node4"><a xlink:href="inet.showcases.general.diffserv.DiffservTrafficConditioner.html" xlink:title="Compound Module DiffservTrafficConditioner" target="_parent">
<polygon fill="#fffcaf" stroke="black" points="140,-19 0,-19 0,0 140,0 140,-19"/>
<text text-anchor="middle" x="70" y="-7" font-family="Helvetica,sans-Serif" font-size="10.00">DiffservTrafficConditioner</text>
</a>
</g>
</g>
<!-- ITrafficConditioner&#45;&gt;DiffservTrafficConditioner -->
<g id="edge3" class="edge">
<title>ITrafficConditioner&#45;&gt;DiffservTrafficConditioner</title>
<path fill="none" stroke="black" stroke-dasharray="5,2" d="M424.21,-56.63C350.22,-46.99 215.76,-29.48 135.48,-19.03"/>
</g>
<!-- LeakyBucket -->
<g id="node5" class="node">
<title>LeakyBucket</title>
<g id="a_node5"><a xlink:href="inet.queueing.shaper.LeakyBucket.html" xlink:title="Compound Module LeakyBucket" target="_parent">
<polygon fill="#fffcaf" stroke="black" points="236,-19 158,-19 158,0 236,0 236,-19"/>
<text text-anchor="middle" x="197" y="-7" font-family="Helvetica,sans-Serif" font-size="10.00">LeakyBucket</text>
</a>
</g>
</g>
<!-- ITrafficConditioner&#45;&gt;LeakyBucket -->
<g id="edge4" class="edge">
<title>ITrafficConditioner&#45;&gt;LeakyBucket</title>
<path fill="none" stroke="black" stroke-dasharray="5,2" d="M432.01,-54.98C377.75,-44.71 287.44,-27.62 236,-17.88"/>
</g>
<!-- OmittedTrafficConditioner -->
<g id="node6" class="node">
<title>OmittedTrafficConditioner</title>
<g id="a_node6"><a xlink:href="inet.queueing.shaper.OmittedTrafficConditioner.html" xlink:title="Compound Module OmittedTrafficConditioner" target="_parent">
<polygon fill="#fffcaf" stroke="black" points="396,-19 254,-19 254,0 396,0 396,-19"/>
<text text-anchor="middle" x="325" y="-7" font-family="Helvetica,sans-Serif" font-size="10.00">OmittedTrafficConditioner</text>
</a>
</g>
</g>
<!-- ITrafficConditioner&#45;&gt;OmittedTrafficConditioner -->
<g id="edge5" class="edge">
<title>ITrafficConditioner&#45;&gt;OmittedTrafficConditioner</title>
<path fill="none" stroke="black" stroke-dasharray="5,2" d="M452.58,-54.98C424.3,-45.12 377.97,-28.97 349.61,-19.08"/>
</g>
<!-- TC1 -->
<g id="node7" class="node">
<title>TC1</title>
<g id="a_node7"><a xlink:href="inet.examples.diffserv.onedomain.TC1.html" xlink:title="Compound Module TC1" target="_parent">
<polygon fill="#fffcaf" stroke="black" points="468,-19 414,-19 414,0 468,0 468,-19"/>
<text text-anchor="middle" x="441" y="-7" font-family="Helvetica,sans-Serif" font-size="10.00">TC1</text>
</a>
</g>
</g>
<!-- ITrafficConditioner&#45;&gt;TC1 -->
<g id="edge6" class="edge">
<title>ITrafficConditioner&#45;&gt;TC1</title>
<path fill="none" stroke="black" stroke-dasharray="5,2" d="M471.06,-54.75C464.35,-44.87 453.5,-28.9 446.83,-19.09"/>
</g>
<!-- TC2 -->
<g id="node8" class="node">
<title>TC2</title>
<g id="a_node8"><a xlink:href="inet.examples.diffserv.onedomain.TC2.html" xlink:title="Compound Module TC2" target="_parent">
<polygon fill="#fffcaf" stroke="black" points="540,-19 486,-19 486,0 540,0 540,-19"/>
<text text-anchor="middle" x="513" y="-7" font-family="Helvetica,sans-Serif" font-size="10.00">TC2</text>
</a>
</g>
</g>
<!-- ITrafficConditioner&#45;&gt;TC2 -->
<g id="edge7" class="edge">
<title>ITrafficConditioner&#45;&gt;TC2</title>
<path fill="none" stroke="black" stroke-dasharray="5,2" d="M482.94,-54.75C489.65,-44.87 500.5,-28.9 507.17,-19.09"/>
</g>
<!-- TC3 -->
<g id="node9" class="node">
<title>TC3</title>
<g id="a_node9"><a xlink:href="inet.examples.diffserv.onedomain.TC3.html" xlink:title="Compound Module TC3" target="_parent">
<polygon fill="#fffcaf" stroke="black" points="612,-19 558,-19 558,0 612,0 612,-19"/>
<text text-anchor="middle" x="585" y="-7" font-family="Helvetica,sans-Serif" font-size="10.00">TC3</text>
</a>
</g>
</g>
<!-- ITrafficConditioner&#45;&gt;TC3 -->
<g id="edge8" class="edge">
<title>ITrafficConditioner&#45;&gt;TC3</title>
<path fill="none" stroke="black" stroke-dasharray="5,2" d="M494.35,-54.98C514.39,-45.15 547.16,-29.07 567.33,-19.17"/>
</g>
<!-- TokenBucket -->
<g id="node10" class="node">
<title>TokenBucket</title>
<g id="a_node10"><a xlink:href="inet.queueing.shaper.TokenBucket.html" xlink:title="Compound Module TokenBucket" target="_parent">
<polygon fill="#fffcaf" stroke="black" points="707.5,-19 630.5,-19 630.5,0 707.5,0 707.5,-19"/>
<text text-anchor="middle" x="669" y="-7" font-family="Helvetica,sans-Serif" font-size="10.00">TokenBucket</text>
</a>
</g>
</g>
<!-- ITrafficConditioner&#45;&gt;TokenBucket -->
<g id="edge9" class="edge">
<title>ITrafficConditioner&#45;&gt;TokenBucket</title>
<path fill="none" stroke="black" stroke-dasharray="5,2" d="M507.85,-54.98C543.57,-45.12 602.08,-28.97 637.91,-19.08"/>
</g>
<!-- TrafficConditioner -->
<g id="node11" class="node">
<title>TrafficConditioner</title>
<g id="a_node11"><a xlink:href="inet.examples.diffserv.simple_.TrafficConditioner.html" xlink:title="Compound Module TrafficConditioner" target="_parent">
<polygon fill="#fffcaf" stroke="black" points="828,-19 726,-19 726,0 828,0 828,-19"/>
<text text-anchor="middle" x="777" y="-7" font-family="Helvetica,sans-Serif" font-size="10.00">TrafficConditioner</text>
</a>
</g>
</g>
<!-- ITrafficConditioner&#45;&gt;TrafficConditioner -->
<g id="edge10" class="edge">
<title>ITrafficConditioner&#45;&gt;TrafficConditioner</title>
<path fill="none" stroke="black" stroke-dasharray="5,2" d="M525.2,-54.98C581.02,-45.12 672.44,-28.97 728.42,-19.08"/>
</g>
<!-- IPassivePacketSink -->
<g id="node2" class="node">
<title>IPassivePacketSink</title>
<g id="a_node2"><a xlink:href="inet.queueing.contract.IPassivePacketSink.html" xlink:title="Module Interface IPassivePacketSink" target="_parent">
<polygon fill="#fffcaf" stroke="black" stroke-dasharray="5,2" points="466.5,-129 357.5,-129 357.5,-110 466.5,-110 466.5,-129"/>
<text text-anchor="middle" x="412" y="-117" font-family="Helvetica,sans-Serif" font-size="10.00">IPassivePacketSink</text>
</a>
</g>
</g>
<!-- IPassivePacketSink&#45;&gt;ITrafficConditioner -->
<g id="edge1" class="edge">
<title>IPassivePacketSink&#45;&gt;ITrafficConditioner</title>
<path fill="none" stroke="black" d="M422.44,-109.98C434.5,-100.15 454.23,-84.07 466.37,-74.17"/>
</g>
<!-- IActivePacketSource -->
<g id="node3" class="node">
<title>IActivePacketSource</title>
<g id="a_node3"><a xlink:href="inet.queueing.contract.IActivePacketSource.html" xlink:title="Module Interface IActivePacketSource" target="_parent">
<polygon fill="#fffcaf" stroke="black" stroke-dasharray="5,2" points="599.5,-129 484.5,-129 484.5,-110 599.5,-110 599.5,-129"/>
<text text-anchor="middle" x="542" y="-117" font-family="Helvetica,sans-Serif" font-size="10.00">IActivePacketSource</text>
</a>
</g>
</g>
<!-- IActivePacketSource&#45;&gt;ITrafficConditioner -->
<g id="edge2" class="edge">
<title>IActivePacketSource&#45;&gt;ITrafficConditioner</title>
<path fill="none" stroke="black" d="M531.56,-109.98C519.5,-100.15 499.77,-84.07 487.63,-74.17"/>
</g>
</g>
</svg>
