<?xml version="1.0" encoding="UTF-8" standalone="no"?>
<!DOCTYPE svg PUBLIC "-//W3C//DTD SVG 1.1//EN"
 "http://www.w3.org/Graphics/SVG/1.1/DTD/svg11.dtd">
<!-- Generated by graphviz version 2.43.0 (0)
 -->
<!-- Title: opp Pages: 1 -->
<svg width="268pt" height="137pt"
 viewBox="0.00 0.00 267.50 137.00" xmlns="http://www.w3.org/2000/svg" xmlns:xlink="http://www.w3.org/1999/xlink">
<g id="graph0" class="graph" transform="scale(1 1) rotate(0) translate(4 133)">
<title>opp</title>
<polygon fill="transparent" stroke="transparent" points="-4,4 -4,-133 263.5,-133 263.5,4 -4,4"/>
<!-- IEthernetInterface -->
<g id="node1" class="node">
<title>IEthernetInterface</title>
<g id="a_node1"><a xlink:href="inet.linklayer.contract.IEthernetInterface.html" xlink:title="Module Interface IEthernetInterface" target="_parent">
<polygon fill="#fff700" stroke="black" stroke-dasharray="5,2" points="171.5,-74 67.5,-74 67.5,-55 171.5,-55 171.5,-74"/>
<text text-anchor="middle" x="119.5" y="-62" font-family="Helvetica,sans-Serif" font-size="10.00">IEthernetInterface</text>
</a>
</g>
</g>
<!-- EthernetInterface -->
<g id="node3" class="node">
<title>EthernetInterface</title>
<g id="a_node3"><a xlink:href="inet.linklayer.ethernet.EthernetInterface.html" xlink:title="Compound Module EthernetInterface" target="_parent">
<polygon fill="#fffcaf" stroke="black" points="101,-19 0,-19 0,0 101,0 101,-19"/>
<text text-anchor="middle" x="50.5" y="-7" font-family="Helvetica,sans-Serif" font-size="10.00">EthernetInterface</text>
</a>
</g>
</g>
<!-- IEthernetInterface&#45;&gt;EthernetInterface -->
<g id="edge2" class="edge">
<title>IEthernetInterface&#45;&gt;EthernetInterface</title>
<path fill="none" stroke="black" stroke-dasharray="5,2" d="M108.41,-54.98C95.61,-45.15 74.67,-29.07 61.79,-19.17"/>
</g>
<!-- LayeredEthernetInterface -->
<g id="node4" class="node">
<title>LayeredEthernetInterface</title>
<g id="a_node4"><a xlink:href="inet.linklayer.ethernet.LayeredEthernetInterface.html" xlink:title="Compound Module LayeredEthernetInterface" target="_parent">
<polygon fill="#fffcaf" stroke="black" points="259.5,-19 119.5,-19 119.5,0 259.5,0 259.5,-19"/>
<text text-anchor="middle" x="189.5" y="-7" font-family="Helvetica,sans-Serif" font-size="10.00">LayeredEthernetInterface</text>
</a>
</g>
</g>
<!-- IEthernetInterface&#45;&gt;LayeredEthernetInterface -->
<g id="edge3" class="edge">
<title>IEthernetInterface&#45;&gt;LayeredEthernetInterface</title>
<path fill="none" stroke="black" stroke-dasharray="5,2" d="M130.75,-54.98C143.73,-45.15 164.98,-29.07 178.05,-19.17"/>
</g>
<!-- IWiredInterface -->
<g id="node2" class="node">
<title>IWiredInterface</title>
<g id="a_node2"><a xlink:href="inet.linklayer.contract.IWiredInterface.html" xlink:title="Module Interface IWiredInterface" target="_parent">
<polygon fill="#fffcaf" stroke="black" stroke-dasharray="5,2" points="165.5,-129 73.5,-129 73.5,-110 165.5,-110 165.5,-129"/>
<text text-anchor="middle" x="119.5" y="-117" font-family="Helvetica,sans-Serif" font-size="10.00">IWiredInterface</text>
</a>
</g>
</g>
<!-- IWiredInterface&#45;&gt;IEthernetInterface -->
<g id="edge1" class="edge">
<title>IWiredInterface&#45;&gt;IEthernetInterface</title>
<path fill="none" stroke="black" d="M119.5,-109.75C119.5,-99.87 119.5,-83.9 119.5,-74.09"/>
</g>
</g>
</svg>
