<?xml version="1.0" encoding="UTF-8" standalone="no"?>
<!DOCTYPE svg PUBLIC "-//W3C//DTD SVG 1.1//EN"
 "http://www.w3.org/Graphics/SVG/1.1/DTD/svg11.dtd">
<!-- Generated by graphviz version 2.43.0 (0)
 -->
<!-- Title: opp Pages: 1 -->
<svg width="742pt" height="82pt"
 viewBox="0.00 0.00 741.50 82.00" xmlns="http://www.w3.org/2000/svg" xmlns:xlink="http://www.w3.org/1999/xlink">
<g id="graph0" class="graph" transform="scale(1 1) rotate(0) translate(4 78)">
<title>opp</title>
<polygon fill="transparent" stroke="transparent" points="-4,4 -4,-78 737.5,-78 737.5,4 -4,4"/>
<!-- SimpleIeee8021qFilter -->
<g id="node1" class="node">
<title>SimpleIeee8021qFilter</title>
<g id="a_node1"><a xlink:href="inet.linklayer.ieee8021q.SimpleIeee8021qFilter.html" xlink:title="Compound Module SimpleIeee8021qFilter" target="_parent">
<polygon fill="#fff700" stroke="black" points="443,-74 317,-74 317,-55 443,-55 443,-74"/>
<text text-anchor="middle" x="380" y="-62" font-family="Helvetica,sans-Serif" font-size="10.00">SimpleIeee8021qFilter</text>
</a>
</g>
</g>
<!-- BackPressureBarrier -->
<g id="node2" class="node">
<title>BackPressureBarrier</title>
<g id="a_node2"><a xlink:href="inet.queueing.common.BackPressureBarrier.html" xlink:title="Simple Module BackPressureBarrier" target="_parent">
<polygon fill="#fffcaf" stroke="black" points="116,-19 0,-19 0,0 116,0 116,-19"/>
<text text-anchor="middle" x="58" y="-7" font-family="Helvetica,sans-Serif" font-size="10.00">BackPressureBarrier</text>
</a>
</g>
</g>
<!-- SimpleIeee8021qFilter&#45;&gt;BackPressureBarrier -->
<g id="edge1" class="edge">
<title>SimpleIeee8021qFilter&#45;&gt;BackPressureBarrier</title>
<path fill="none" stroke="black" d="M328.27,-54.98C271.55,-45.65 180.57,-30.67 120.06,-20.71"/>
<polygon fill="black" stroke="black" points="120.31,-17.21 109.87,-19.04 119.17,-24.12 120.31,-17.21"/>
</g>
<!-- IPacketClassifier -->
<g id="node3" class="node">
<title>IPacketClassifier</title>
<g id="a_node3"><a xlink:href="inet.queueing.contract.IPacketClassifier.html" xlink:title="Module Interface IPacketClassifier" target="_parent">
<polygon fill="#fffcaf" stroke="black" stroke-dasharray="5,2" points="230,-19 134,-19 134,0 230,0 230,-19"/>
<text text-anchor="middle" x="182" y="-7" font-family="Helvetica,sans-Serif" font-size="10.00">IPacketClassifier</text>
</a>
</g>
</g>
<!-- SimpleIeee8021qFilter&#45;&gt;IPacketClassifier -->
<g id="edge2" class="edge">
<title>SimpleIeee8021qFilter&#45;&gt;IPacketClassifier</title>
<path fill="none" stroke="black" d="M348.19,-54.98C314.51,-45.97 261.2,-31.7 224.08,-21.76"/>
<polygon fill="black" stroke="black" points="224.63,-18.29 214.06,-19.08 222.82,-25.05 224.63,-18.29"/>
</g>
<!-- IPacketGate -->
<g id="node4" class="node">
<title>IPacketGate</title>
<g id="a_node4"><a xlink:href="inet.queueing.contract.IPacketGate.html" xlink:title="Module Interface IPacketGate" target="_parent">
<polygon fill="#fffcaf" stroke="black" stroke-dasharray="5,2" points="322,-19 248,-19 248,0 322,0 322,-19"/>
<text text-anchor="middle" x="285" y="-7" font-family="Helvetica,sans-Serif" font-size="10.00">IPacketGate</text>
</a>
</g>
</g>
<!-- SimpleIeee8021qFilter&#45;&gt;IPacketGate -->
<g id="edge3" class="edge">
<title>SimpleIeee8021qFilter&#45;&gt;IPacketGate</title>
<path fill="none" stroke="black" d="M364.74,-54.98C349.87,-46.69 327.02,-33.94 309.58,-24.22"/>
<polygon fill="black" stroke="black" points="310.98,-20.99 300.54,-19.17 307.57,-27.1 310.98,-20.99"/>
</g>
<!-- IPacketMeter -->
<g id="node5" class="node">
<title>IPacketMeter</title>
<g id="a_node5"><a xlink:href="inet.queueing.contract.IPacketMeter.html" xlink:title="Module Interface IPacketMeter" target="_parent">
<polygon fill="#fffcaf" stroke="black" stroke-dasharray="5,2" points="420,-19 340,-19 340,0 420,0 420,-19"/>
<text text-anchor="middle" x="380" y="-7" font-family="Helvetica,sans-Serif" font-size="10.00">IPacketMeter</text>
</a>
</g>
</g>
<!-- SimpleIeee8021qFilter&#45;&gt;IPacketMeter -->
<g id="edge4" class="edge">
<title>SimpleIeee8021qFilter&#45;&gt;IPacketMeter</title>
<path fill="none" stroke="black" d="M380,-54.75C380,-47.8 380,-37.85 380,-29.13"/>
<polygon fill="black" stroke="black" points="383.5,-29.09 380,-19.09 376.5,-29.09 383.5,-29.09"/>
</g>
<!-- IPacketFilter -->
<g id="node6" class="node">
<title>IPacketFilter</title>
<g id="a_node6"><a xlink:href="inet.queueing.contract.IPacketFilter.html" xlink:title="Module Interface IPacketFilter" target="_parent">
<polygon fill="#fffcaf" stroke="black" stroke-dasharray="5,2" points="514,-19 438,-19 438,0 514,0 514,-19"/>
<text text-anchor="middle" x="476" y="-7" font-family="Helvetica,sans-Serif" font-size="10.00">IPacketFilter</text>
</a>
</g>
</g>
<!-- SimpleIeee8021qFilter&#45;&gt;IPacketFilter -->
<g id="edge5" class="edge">
<title>SimpleIeee8021qFilter&#45;&gt;IPacketFilter</title>
<path fill="none" stroke="black" d="M395.42,-54.98C410.45,-46.69 433.54,-33.94 451.16,-24.22"/>
<polygon fill="black" stroke="black" points="453.23,-27.07 460.3,-19.17 449.85,-20.94 453.23,-27.07"/>
</g>
<!-- IdealChannel -->
<g id="node7" class="node">
<title>IdealChannel</title>
<g id="a_node7"><a xlink:href="ned.IdealChannel.html" xlink:title="Channel IdealChannel" target="_parent">
<polygon fill="#d0ffd0" stroke="black" points="612,-19 532,-19 532,0 612,0 612,-19"/>
<text text-anchor="middle" x="572" y="-7" font-family="Helvetica,sans-Serif" font-size="10.00">IdealChannel</text>
</a>
</g>
</g>
<!-- SimpleIeee8021qFilter&#45;&gt;IdealChannel -->
<g id="edge6" class="edge">
<title>SimpleIeee8021qFilter&#45;&gt;IdealChannel</title>
<path fill="none" stroke="black" d="M410.85,-54.98C443.5,-45.97 495.2,-31.7 531.2,-21.76"/>
<polygon fill="black" stroke="black" points="532.2,-25.12 540.91,-19.08 530.34,-18.37 532.2,-25.12"/>
</g>
<!-- PacketMultiplexer -->
<g id="node8" class="node">
<title>PacketMultiplexer</title>
<g id="a_node8"><a xlink:href="inet.queueing.common.PacketMultiplexer.html" xlink:title="Simple Module PacketMultiplexer" target="_parent">
<polygon fill="#fffcaf" stroke="black" points="733.5,-19 630.5,-19 630.5,0 733.5,0 733.5,-19"/>
<text text-anchor="middle" x="682" y="-7" font-family="Helvetica,sans-Serif" font-size="10.00">PacketMultiplexer</text>
</a>
</g>
</g>
<!-- SimpleIeee8021qFilter&#45;&gt;PacketMultiplexer -->
<g id="edge7" class="edge">
<title>SimpleIeee8021qFilter&#45;&gt;PacketMultiplexer</title>
<path fill="none" stroke="black" d="M428.52,-54.98C481.61,-45.67 566.69,-30.74 623.44,-20.78"/>
<polygon fill="black" stroke="black" points="624.1,-24.21 633.35,-19.04 622.89,-17.32 624.1,-24.21"/>
</g>
</g>
</svg>
