<?xml version="1.0" encoding="UTF-8" standalone="no"?>
<!DOCTYPE svg PUBLIC "-//W3C//DTD SVG 1.1//EN"
 "http://www.w3.org/Graphics/SVG/1.1/DTD/svg11.dtd">
<!-- Generated by graphviz version 2.43.0 (0)
 -->
<!-- Title: opp Pages: 1 -->
<svg width="475pt" height="82pt"
 viewBox="0.00 0.00 474.50 82.00" xmlns="http://www.w3.org/2000/svg" xmlns:xlink="http://www.w3.org/1999/xlink">
<g id="graph0" class="graph" transform="scale(1 1) rotate(0) translate(4 78)">
<title>opp</title>
<polygon fill="transparent" stroke="transparent" points="-4,4 -4,-78 470.5,-78 470.5,4 -4,4"/>
<!-- multi -->
<g id="node1" class="node">
<title>multi</title>
<g id="a_node1"><a xlink:href="inet.examples.sctp.multihomed.multi.html" xlink:title="Network multi" target="_parent">
<polygon fill="#9090ff" stroke="black" points="274.5,-74 220.5,-74 220.5,-55 274.5,-55 274.5,-74"/>
<text text-anchor="middle" x="247.5" y="-62" font-family="Helvetica,sans-Serif" font-size="10.00">multi</text>
</a>
</g>
</g>
<!-- StandardHost -->
<g id="node2" class="node">
<title>StandardHost</title>
<g id="a_node2"><a xlink:href="inet.node.inet.StandardHost.html" xlink:title="Compound Module StandardHost" target="_parent">
<polygon fill="#fffcaf" stroke="black" points="83,-19 0,-19 0,0 83,0 83,-19"/>
<text text-anchor="middle" x="41.5" y="-7" font-family="Helvetica,sans-Serif" font-size="10.00">StandardHost</text>
</a>
</g>
</g>
<!-- multi&#45;&gt;StandardHost -->
<g id="edge1" class="edge">
<title>multi&#45;&gt;StandardHost</title>
<path fill="none" stroke="black" d="M220.14,-56.46C185.54,-47.56 125.54,-32.12 84.71,-21.62"/>
<polygon fill="black" stroke="black" points="85.33,-18.16 74.77,-19.06 83.58,-24.94 85.33,-18.16"/>
</g>
<!-- ppp2line -->
<g id="node3" class="node">
<title>ppp2line</title>
<g id="a_node3"><a xlink:href="inet.examples.sctp.multihomed.multi.ppp2line.html" xlink:title="Channel ppp2line" target="_parent">
<polygon fill="#d0ffd0" stroke="black" points="160,-19 101,-19 101,0 160,0 160,-19"/>
<text text-anchor="middle" x="130.5" y="-7" font-family="Helvetica,sans-Serif" font-size="10.00">ppp2line</text>
</a>
</g>
</g>
<!-- multi&#45;&gt;ppp2line -->
<g id="edge2" class="edge">
<title>multi&#45;&gt;ppp2line</title>
<path fill="none" stroke="black" d="M228.7,-54.98C209.88,-46.46 180.68,-33.23 159,-23.41"/>
<polygon fill="black" stroke="black" points="160.19,-20.11 149.64,-19.17 157.3,-26.48 160.19,-20.11"/>
</g>
<!-- Ipv4NetworkConfigurator -->
<g id="node4" class="node">
<title>Ipv4NetworkConfigurator</title>
<g id="a_node4"><a xlink:href="inet.networklayer.configurator.ipv4.Ipv4NetworkConfigurator.html" xlink:title="Simple Module Ipv4NetworkConfigurator" target="_parent">
<polygon fill="#fffcaf" stroke="black" points="317,-19 178,-19 178,0 317,0 317,-19"/>
<text text-anchor="middle" x="247.5" y="-7" font-family="Helvetica,sans-Serif" font-size="10.00">Ipv4NetworkConfigurator</text>
</a>
</g>
</g>
<!-- multi&#45;&gt;Ipv4NetworkConfigurator -->
<g id="edge3" class="edge">
<title>multi&#45;&gt;Ipv4NetworkConfigurator</title>
<path fill="none" stroke="black" d="M247.5,-54.75C247.5,-47.8 247.5,-37.85 247.5,-29.13"/>
<polygon fill="black" stroke="black" points="251,-29.09 247.5,-19.09 244,-29.09 251,-29.09"/>
</g>
<!-- ppp1line -->
<g id="node5" class="node">
<title>ppp1line</title>
<g id="a_node5"><a xlink:href="inet.examples.sctp.multihomed.multi.ppp1line.html" xlink:title="Channel ppp1line" target="_parent">
<polygon fill="#d0ffd0" stroke="black" points="394,-19 335,-19 335,0 394,0 394,-19"/>
<text text-anchor="middle" x="364.5" y="-7" font-family="Helvetica,sans-Serif" font-size="10.00">ppp1line</text>
</a>
</g>
</g>
<!-- multi&#45;&gt;ppp1line -->
<g id="edge4" class="edge">
<title>multi&#45;&gt;ppp1line</title>
<path fill="none" stroke="black" d="M266.3,-54.98C285.12,-46.46 314.32,-33.23 336,-23.41"/>
<polygon fill="black" stroke="black" points="337.7,-26.48 345.36,-19.17 334.81,-20.11 337.7,-26.48"/>
</g>
<!-- Router -->
<g id="node6" class="node">
<title>Router</title>
<g id="a_node6"><a xlink:href="inet.node.inet.Router.html" xlink:title="Compound Module Router" target="_parent">
<polygon fill="#fffcaf" stroke="black" points="466.5,-19 412.5,-19 412.5,0 466.5,0 466.5,-19"/>
<text text-anchor="middle" x="439.5" y="-7" font-family="Helvetica,sans-Serif" font-size="10.00">Router</text>
</a>
</g>
</g>
<!-- multi&#45;&gt;Router -->
<g id="edge5" class="edge">
<title>multi&#45;&gt;Router</title>
<path fill="none" stroke="black" d="M274.6,-56.02C307.96,-46.81 364.76,-31.13 402.21,-20.79"/>
<polygon fill="black" stroke="black" points="403.52,-24.06 412.23,-18.03 401.66,-17.32 403.52,-24.06"/>
</g>
</g>
</svg>
