<?xml version="1.0" encoding="UTF-8" standalone="no"?>
<!DOCTYPE svg PUBLIC "-//W3C//DTD SVG 1.1//EN"
 "http://www.w3.org/Graphics/SVG/1.1/DTD/svg11.dtd">
<!-- Generated by graphviz version 2.43.0 (0)
 -->
<!-- Title: opp Pages: 1 -->
<svg width="277pt" height="82pt"
 viewBox="0.00 0.00 277.00 82.00" xmlns="http://www.w3.org/2000/svg" xmlns:xlink="http://www.w3.org/1999/xlink">
<g id="graph0" class="graph" transform="scale(1 1) rotate(0) translate(4 78)">
<title>opp</title>
<polygon fill="transparent" stroke="transparent" points="-4,4 -4,-78 273,-78 273,4 -4,4"/>
<!-- MeasurementRelationshipsShowcase -->
<g id="node1" class="node">
<title>MeasurementRelationshipsShowcase</title>
<g id="a_node1"><a xlink:href="inet.showcases.measurement.relationships.MeasurementRelationshipsShowcase.html" xlink:title="Network MeasurementRelationshipsShowcase" target="_parent">
<polygon fill="#9090ff" stroke="black" points="246,-74 47,-74 47,-55 246,-55 246,-74"/>
<text text-anchor="middle" x="146.5" y="-62" font-family="Helvetica,sans-Serif" font-size="10.00">MeasurementRelationshipsShowcase</text>
</a>
</g>
</g>
<!-- StandardHost -->
<g id="node2" class="node">
<title>StandardHost</title>
<g id="a_node2"><a xlink:href="inet.node.inet.StandardHost.html" xlink:title="Compound Module StandardHost" target="_parent">
<polygon fill="#fffcaf" stroke="black" points="83,-19 0,-19 0,0 83,0 83,-19"/>
<text text-anchor="middle" x="41.5" y="-7" font-family="Helvetica,sans-Serif" font-size="10.00">StandardHost</text>
</a>
</g>
</g>
<!-- MeasurementRelationshipsShowcase&#45;&gt;StandardHost -->
<g id="edge1" class="edge">
<title>MeasurementRelationshipsShowcase&#45;&gt;StandardHost</title>
<path fill="none" stroke="black" d="M129.63,-54.98C112.89,-46.54 87,-33.47 67.61,-23.68"/>
<polygon fill="black" stroke="black" points="69.18,-20.55 58.68,-19.17 66.03,-26.8 69.18,-20.55"/>
</g>
<!-- EthernetSwitch -->
<g id="node3" class="node">
<title>EthernetSwitch</title>
<g id="a_node3"><a xlink:href="inet.node.ethernet.EthernetSwitch.html" xlink:title="Compound Module EthernetSwitch" target="_parent">
<polygon fill="#fffcaf" stroke="black" points="191.5,-19 101.5,-19 101.5,0 191.5,0 191.5,-19"/>
<text text-anchor="middle" x="146.5" y="-7" font-family="Helvetica,sans-Serif" font-size="10.00">EthernetSwitch</text>
</a>
</g>
</g>
<!-- MeasurementRelationshipsShowcase&#45;&gt;EthernetSwitch -->
<g id="edge2" class="edge">
<title>MeasurementRelationshipsShowcase&#45;&gt;EthernetSwitch</title>
<path fill="none" stroke="black" d="M146.5,-54.75C146.5,-47.8 146.5,-37.85 146.5,-29.13"/>
<polygon fill="black" stroke="black" points="150,-29.09 146.5,-19.09 143,-29.09 150,-29.09"/>
</g>
<!-- Eth100M -->
<g id="node4" class="node">
<title>Eth100M</title>
<g id="a_node4"><a xlink:href="inet.node.ethernet.Eth100M.html" xlink:title="Channel Eth100M" target="_parent">
<polygon fill="#d0ffd0" stroke="black" points="269,-19 210,-19 210,0 269,0 269,-19"/>
<text text-anchor="middle" x="239.5" y="-7" font-family="Helvetica,sans-Serif" font-size="10.00">Eth100M</text>
</a>
</g>
</g>
<!-- MeasurementRelationshipsShowcase&#45;&gt;Eth100M -->
<g id="edge3" class="edge">
<title>MeasurementRelationshipsShowcase&#45;&gt;Eth100M</title>
<path fill="none" stroke="black" d="M161.44,-54.98C176,-46.69 198.37,-33.94 215.43,-24.22"/>
<polygon fill="black" stroke="black" points="217.33,-27.16 224.29,-19.17 213.86,-21.08 217.33,-27.16"/>
</g>
</g>
</svg>
