<?xml version="1.0" encoding="UTF-8" standalone="no"?>
<!DOCTYPE svg PUBLIC "-//W3C//DTD SVG 1.1//EN"
 "http://www.w3.org/Graphics/SVG/1.1/DTD/svg11.dtd">
<!-- Generated by graphviz version 2.43.0 (0)
 -->
<!-- Title: opp Pages: 1 -->
<svg width="426pt" height="137pt"
 viewBox="0.00 0.00 425.50 137.00" xmlns="http://www.w3.org/2000/svg" xmlns:xlink="http://www.w3.org/1999/xlink">
<g id="graph0" class="graph" transform="scale(1 1) rotate(0) translate(4 133)">
<title>opp</title>
<polygon fill="transparent" stroke="transparent" points="-4,4 -4,-133 421.5,-133 421.5,4 -4,4"/>
<!-- OSPF_Area3 -->
<g id="node1" class="node">
<title>OSPF_Area3</title>
<g id="a_node1"><a xlink:href="inet.examples.ospfv2.fulltest.OSPF_Area3.html" xlink:title="Compound Module OSPF_Area3" target="_parent">
<polygon fill="#fff700" stroke="black" points="243.5,-74 167.5,-74 167.5,-55 243.5,-55 243.5,-74"/>
<text text-anchor="middle" x="205.5" y="-62" font-family="Helvetica,sans-Serif" font-size="10.00">OSPF_Area3</text>
</a>
</g>
</g>
<!-- OspfRouter -->
<g id="node2" class="node">
<title>OspfRouter</title>
<g id="a_node2"><a xlink:href="inet.node.ospfv2.OspfRouter.html" xlink:title="Compound Module OspfRouter" target="_parent">
<polygon fill="#fffcaf" stroke="black" points="71,-19 0,-19 0,0 71,0 71,-19"/>
<text text-anchor="middle" x="35.5" y="-7" font-family="Helvetica,sans-Serif" font-size="10.00">OspfRouter</text>
</a>
</g>
</g>
<!-- OSPF_Area3&#45;&gt;OspfRouter -->
<g id="edge1" class="edge">
<title>OSPF_Area3&#45;&gt;OspfRouter</title>
<path fill="none" stroke="black" d="M178.19,-54.98C149.65,-46.09 104.67,-32.07 72.86,-22.15"/>
<polygon fill="black" stroke="black" points="73.62,-18.72 63.03,-19.08 71.53,-25.4 73.62,-18.72"/>
</g>
<!-- OspfLan -->
<g id="node3" class="node">
<title>OspfLan</title>
<g id="a_node3"><a xlink:href="inet.examples.ospfv2.fulltest.OspfLan.html" xlink:title="Compound Module OspfLan" target="_parent">
<polygon fill="#fffcaf" stroke="black" points="145.5,-19 89.5,-19 89.5,0 145.5,0 145.5,-19"/>
<text text-anchor="middle" x="117.5" y="-7" font-family="Helvetica,sans-Serif" font-size="10.00">OspfLan</text>
</a>
</g>
</g>
<!-- OSPF_Area3&#45;&gt;OspfLan -->
<g id="edge2" class="edge">
<title>OSPF_Area3&#45;&gt;OspfLan</title>
<path fill="none" stroke="black" d="M191.36,-54.98C177.71,-46.77 156.81,-34.18 140.72,-24.49"/>
<polygon fill="black" stroke="black" points="142.27,-21.33 131.9,-19.17 138.66,-27.33 142.27,-21.33"/>
</g>
<!-- StandardHost -->
<g id="node4" class="node">
<title>StandardHost</title>
<g id="a_node4"><a xlink:href="inet.node.inet.StandardHost.html" xlink:title="Compound Module StandardHost" target="_parent">
<polygon fill="#fffcaf" stroke="black" points="247,-19 164,-19 164,0 247,0 247,-19"/>
<text text-anchor="middle" x="205.5" y="-7" font-family="Helvetica,sans-Serif" font-size="10.00">StandardHost</text>
</a>
</g>
</g>
<!-- OSPF_Area3&#45;&gt;StandardHost -->
<g id="edge3" class="edge">
<title>OSPF_Area3&#45;&gt;StandardHost</title>
<path fill="none" stroke="black" d="M205.5,-54.75C205.5,-47.8 205.5,-37.85 205.5,-29.13"/>
<polygon fill="black" stroke="black" points="209,-29.09 205.5,-19.09 202,-29.09 209,-29.09"/>
</g>
<!-- C -->
<g id="node5" class="node">
<title>C</title>
<g id="a_node5"><a xlink:href="inet.examples.ospfv2.fulltest.C.html" xlink:title="Channel C" target="_parent">
<polygon fill="#d0ffd0" stroke="black" points="319.5,-19 265.5,-19 265.5,0 319.5,0 319.5,-19"/>
<text text-anchor="middle" x="292.5" y="-7" font-family="Helvetica,sans-Serif" font-size="10.00">C</text>
</a>
</g>
</g>
<!-- OSPF_Area3&#45;&gt;C -->
<g id="edge4" class="edge">
<title>OSPF_Area3&#45;&gt;C</title>
<path fill="none" stroke="black" d="M219.48,-54.98C232.97,-46.77 253.63,-34.18 269.54,-24.49"/>
<polygon fill="black" stroke="black" points="271.55,-27.36 278.27,-19.17 267.91,-21.38 271.55,-27.36"/>
</g>
<!-- IdealChannel -->
<g id="node6" class="node">
<title>IdealChannel</title>
<g id="a_node6"><a xlink:href="ned.IdealChannel.html" xlink:title="Channel IdealChannel" target="_parent">
<polygon fill="#d0ffd0" stroke="black" points="417.5,-19 337.5,-19 337.5,0 417.5,0 417.5,-19"/>
<text text-anchor="middle" x="377.5" y="-7" font-family="Helvetica,sans-Serif" font-size="10.00">IdealChannel</text>
</a>
</g>
</g>
<!-- OSPF_Area3&#45;&gt;IdealChannel -->
<g id="edge5" class="edge">
<title>OSPF_Area3&#45;&gt;IdealChannel</title>
<path fill="none" stroke="black" d="M233.13,-54.98C262.01,-46.09 307.51,-32.07 339.7,-22.15"/>
<polygon fill="black" stroke="black" points="341.12,-25.37 349.65,-19.08 339.06,-18.68 341.12,-25.37"/>
</g>
<!-- OSPF_RFC2328_Fig6 -->
<g id="node7" class="node">
<title>OSPF_RFC2328_Fig6</title>
<g id="a_node7"><a xlink:href="inet.examples.ospfv2.fulltest.OSPF_RFC2328_Fig6.html" xlink:title="Network OSPF_RFC2328_Fig6" target="_parent">
<polygon fill="#d0d0ff" stroke="black" points="263.5,-129 147.5,-129 147.5,-110 263.5,-110 263.5,-129"/>
<text text-anchor="middle" x="205.5" y="-117" font-family="Helvetica,sans-Serif" font-size="10.00">OSPF_RFC2328_Fig6</text>
</a>
</g>
</g>
<!-- OSPF_RFC2328_Fig6&#45;&gt;OSPF_Area3 -->
<g id="edge6" class="edge">
<title>OSPF_RFC2328_Fig6&#45;&gt;OSPF_Area3</title>
<path fill="none" stroke="black" d="M205.5,-109.75C205.5,-102.8 205.5,-92.85 205.5,-84.13"/>
<polygon fill="black" stroke="black" points="209,-84.09 205.5,-74.09 202,-84.09 209,-84.09"/>
</g>
</g>
</svg>
