<?xml version="1.0" encoding="UTF-8" standalone="no"?>
<!DOCTYPE svg PUBLIC "-//W3C//DTD SVG 1.1//EN"
 "http://www.w3.org/Graphics/SVG/1.1/DTD/svg11.dtd">
<!-- Generated by graphviz version 2.43.0 (0)
 -->
<!-- Title: opp Pages: 1 -->
<svg width="446pt" height="82pt"
 viewBox="0.00 0.00 446.00 82.00" xmlns="http://www.w3.org/2000/svg" xmlns:xlink="http://www.w3.org/1999/xlink">
<g id="graph0" class="graph" transform="scale(1 1) rotate(0) translate(4 78)">
<title>opp</title>
<polygon fill="transparent" stroke="transparent" points="-4,4 -4,-78 442,-78 442,4 -4,4"/>
<!-- DelayerTutorialStep -->
<g id="node1" class="node">
<title>DelayerTutorialStep</title>
<g id="a_node1"><a xlink:href="inet.tutorials.queueing.DelayerTutorialStep.html" xlink:title="Network DelayerTutorialStep" target="_parent">
<polygon fill="#9090ff" stroke="black" points="277.5,-74 164.5,-74 164.5,-55 277.5,-55 277.5,-74"/>
<text text-anchor="middle" x="221" y="-62" font-family="Helvetica,sans-Serif" font-size="10.00">DelayerTutorialStep</text>
</a>
</g>
</g>
<!-- PassivePacketSink -->
<g id="node2" class="node">
<title>PassivePacketSink</title>
<g id="a_node2"><a xlink:href="inet.queueing.sink.PassivePacketSink.html" xlink:title="Simple Module PassivePacketSink" target="_parent">
<polygon fill="#fffcaf" stroke="black" points="106,-19 0,-19 0,0 106,0 106,-19"/>
<text text-anchor="middle" x="53" y="-7" font-family="Helvetica,sans-Serif" font-size="10.00">PassivePacketSink</text>
</a>
</g>
</g>
<!-- DelayerTutorialStep&#45;&gt;PassivePacketSink -->
<g id="edge1" class="edge">
<title>DelayerTutorialStep&#45;&gt;PassivePacketSink</title>
<path fill="none" stroke="black" d="M194.01,-54.98C165.8,-46.09 121.36,-32.07 89.92,-22.15"/>
<polygon fill="black" stroke="black" points="90.79,-18.75 80.2,-19.08 88.69,-25.43 90.79,-18.75"/>
</g>
<!-- IdealChannel -->
<g id="node3" class="node">
<title>IdealChannel</title>
<g id="a_node3"><a xlink:href="ned.IdealChannel.html" xlink:title="Channel IdealChannel" target="_parent">
<polygon fill="#d0ffd0" stroke="black" points="204,-19 124,-19 124,0 204,0 204,-19"/>
<text text-anchor="middle" x="164" y="-7" font-family="Helvetica,sans-Serif" font-size="10.00">IdealChannel</text>
</a>
</g>
</g>
<!-- DelayerTutorialStep&#45;&gt;IdealChannel -->
<g id="edge2" class="edge">
<title>DelayerTutorialStep&#45;&gt;IdealChannel</title>
<path fill="none" stroke="black" d="M211.84,-54.98C203.5,-47.23 190.97,-35.58 180.82,-26.14"/>
<polygon fill="black" stroke="black" points="183.03,-23.42 173.32,-19.17 178.26,-28.54 183.03,-23.42"/>
</g>
<!-- ActivePacketSource -->
<g id="node4" class="node">
<title>ActivePacketSource</title>
<g id="a_node4"><a xlink:href="inet.queueing.source.ActivePacketSource.html" xlink:title="Simple Module ActivePacketSource" target="_parent">
<polygon fill="#fffcaf" stroke="black" points="334,-19 222,-19 222,0 334,0 334,-19"/>
<text text-anchor="middle" x="278" y="-7" font-family="Helvetica,sans-Serif" font-size="10.00">ActivePacketSource</text>
</a>
</g>
</g>
<!-- DelayerTutorialStep&#45;&gt;ActivePacketSource -->
<g id="edge3" class="edge">
<title>DelayerTutorialStep&#45;&gt;ActivePacketSource</title>
<path fill="none" stroke="black" d="M230.16,-54.98C238.5,-47.23 251.03,-35.58 261.18,-26.14"/>
<polygon fill="black" stroke="black" points="263.74,-28.54 268.68,-19.17 258.97,-23.42 263.74,-28.54"/>
</g>
<!-- PacketDelayer -->
<g id="node5" class="node">
<title>PacketDelayer</title>
<g id="a_node5"><a xlink:href="inet.queueing.common.PacketDelayer.html" xlink:title="Simple Module PacketDelayer" target="_parent">
<polygon fill="#fffcaf" stroke="black" points="438,-19 352,-19 352,0 438,0 438,-19"/>
<text text-anchor="middle" x="395" y="-7" font-family="Helvetica,sans-Serif" font-size="10.00">PacketDelayer</text>
</a>
</g>
</g>
<!-- DelayerTutorialStep&#45;&gt;PacketDelayer -->
<g id="edge4" class="edge">
<title>DelayerTutorialStep&#45;&gt;PacketDelayer</title>
<path fill="none" stroke="black" d="M248.96,-54.98C278.3,-46.05 324.6,-31.94 357.19,-22.02"/>
<polygon fill="black" stroke="black" points="358.28,-25.34 366.82,-19.08 356.24,-18.65 358.28,-25.34"/>
</g>
</g>
</svg>
