<?xml version="1.0" encoding="UTF-8" standalone="no"?>
<!DOCTYPE svg PUBLIC "-//W3C//DTD SVG 1.1//EN"
 "http://www.w3.org/Graphics/SVG/1.1/DTD/svg11.dtd">
<!-- Generated by graphviz version 2.43.0 (0)
 -->
<!-- Title: opp Pages: 1 -->
<svg width="278pt" height="82pt"
 viewBox="0.00 0.00 278.00 82.00" xmlns="http://www.w3.org/2000/svg" xmlns:xlink="http://www.w3.org/1999/xlink">
<g id="graph0" class="graph" transform="scale(1 1) rotate(0) translate(4 78)">
<title>opp</title>
<polygon fill="transparent" stroke="transparent" points="-4,4 -4,-78 274,-78 274,4 -4,4"/>
<!-- FrerAndTasShowcase -->
<g id="node1" class="node">
<title>FrerAndTasShowcase</title>
<g id="a_node1"><a xlink:href="inet.showcases.tsn.combiningfeatures.frerandtas.FrerAndTasShowcase.html" xlink:title="Network FrerAndTasShowcase" target="_parent">
<polygon fill="#9090ff" stroke="black" points="206.5,-74 87.5,-74 87.5,-55 206.5,-55 206.5,-74"/>
<text text-anchor="middle" x="147" y="-62" font-family="Helvetica,sans-Serif" font-size="10.00">FrerAndTasShowcase</text>
</a>
</g>
</g>
<!-- LocalTsnSwitch -->
<g id="node2" class="node">
<title>LocalTsnSwitch</title>
<g id="a_node2"><a xlink:href="inet.showcases.tsn.combiningfeatures.frerandtas.LocalTsnSwitch.html" xlink:title="Compound Module LocalTsnSwitch" target="_parent">
<polygon fill="#fffcaf" stroke="black" points="90,-19 0,-19 0,0 90,0 90,-19"/>
<text text-anchor="middle" x="45" y="-7" font-family="Helvetica,sans-Serif" font-size="10.00">LocalTsnSwitch</text>
</a>
</g>
</g>
<!-- FrerAndTasShowcase&#45;&gt;LocalTsnSwitch -->
<g id="edge1" class="edge">
<title>FrerAndTasShowcase&#45;&gt;LocalTsnSwitch</title>
<path fill="none" stroke="black" d="M130.61,-54.98C114.43,-46.57 89.43,-33.59 70.62,-23.81"/>
<polygon fill="black" stroke="black" points="72.17,-20.68 61.69,-19.17 68.95,-26.89 72.17,-20.68"/>
</g>
<!-- EthernetLink -->
<g id="node3" class="node">
<title>EthernetLink</title>
<g id="a_node3"><a xlink:href="inet.node.ethernet.EthernetLink.html" xlink:title="Channel EthernetLink" target="_parent">
<polygon fill="#d0ffd0" stroke="black" points="186,-19 108,-19 108,0 186,0 186,-19"/>
<text text-anchor="middle" x="147" y="-7" font-family="Helvetica,sans-Serif" font-size="10.00">EthernetLink</text>
</a>
</g>
</g>
<!-- FrerAndTasShowcase&#45;&gt;EthernetLink -->
<g id="edge2" class="edge">
<title>FrerAndTasShowcase&#45;&gt;EthernetLink</title>
<path fill="none" stroke="black" d="M147,-54.75C147,-47.8 147,-37.85 147,-29.13"/>
<polygon fill="black" stroke="black" points="150.5,-29.09 147,-19.09 143.5,-29.09 150.5,-29.09"/>
</g>
<!-- TsnDevice -->
<g id="node4" class="node">
<title>TsnDevice</title>
<g id="a_node4"><a xlink:href="inet.node.tsn.TsnDevice.html" xlink:title="Compound Module TsnDevice" target="_parent">
<polygon fill="#fffcaf" stroke="black" points="270,-19 204,-19 204,0 270,0 270,-19"/>
<text text-anchor="middle" x="237" y="-7" font-family="Helvetica,sans-Serif" font-size="10.00">TsnDevice</text>
</a>
</g>
</g>
<!-- FrerAndTasShowcase&#45;&gt;TsnDevice -->
<g id="edge3" class="edge">
<title>FrerAndTasShowcase&#45;&gt;TsnDevice</title>
<path fill="none" stroke="black" d="M161.46,-54.98C175.42,-46.77 196.79,-34.18 213.25,-24.49"/>
<polygon fill="black" stroke="black" points="215.44,-27.26 222.28,-19.17 211.88,-21.23 215.44,-27.26"/>
</g>
</g>
</svg>
