<?xml version="1.0" encoding="UTF-8" standalone="no"?>
<!DOCTYPE svg PUBLIC "-//W3C//DTD SVG 1.1//EN"
 "http://www.w3.org/Graphics/SVG/1.1/DTD/svg11.dtd">
<!-- Generated by graphviz version 2.43.0 (0)
 -->
<!-- Title: opp Pages: 1 -->
<svg width="316pt" height="82pt"
 viewBox="0.00 0.00 315.50 82.00" xmlns="http://www.w3.org/2000/svg" xmlns:xlink="http://www.w3.org/1999/xlink">
<g id="graph0" class="graph" transform="scale(1 1) rotate(0) translate(4 78)">
<title>opp</title>
<polygon fill="transparent" stroke="transparent" points="-4,4 -4,-78 311.5,-78 311.5,4 -4,4"/>
<!-- IIeee8022SnapChecker -->
<g id="node1" class="node">
<title>IIeee8022SnapChecker</title>
<g id="a_node1"><a xlink:href="inet.linklayer.ieee8022.IIeee8022SnapChecker.html" xlink:title="Module Interface IIeee8022SnapChecker" target="_parent">
<polygon fill="#fff700" stroke="black" stroke-dasharray="5,2" points="207.5,-74 79.5,-74 79.5,-55 207.5,-55 207.5,-74"/>
<text text-anchor="middle" x="143.5" y="-62" font-family="Helvetica,sans-Serif" font-size="10.00">IIeee8022SnapChecker</text>
</a>
</g>
</g>
<!-- Ieee8022SnapChecker -->
<g id="node2" class="node">
<title>Ieee8022SnapChecker</title>
<g id="a_node2"><a xlink:href="inet.linklayer.ieee8022.Ieee8022SnapChecker.html" xlink:title="Simple Module Ieee8022SnapChecker" target="_parent">
<polygon fill="#fffcaf" stroke="black" points="125,-19 0,-19 0,0 125,0 125,-19"/>
<text text-anchor="middle" x="62.5" y="-7" font-family="Helvetica,sans-Serif" font-size="10.00">Ieee8022SnapChecker</text>
</a>
</g>
</g>
<!-- IIeee8022SnapChecker&#45;&gt;Ieee8022SnapChecker -->
<g id="edge1" class="edge">
<title>IIeee8022SnapChecker&#45;&gt;Ieee8022SnapChecker</title>
<path fill="none" stroke="black" stroke-dasharray="5,2" d="M130.49,-54.98C115.46,-45.15 90.88,-29.07 75.75,-19.17"/>
</g>
<!-- OmittedIeee8022SnapChecker -->
<g id="node3" class="node">
<title>OmittedIeee8022SnapChecker</title>
<g id="a_node3"><a xlink:href="inet.linklayer.ieee8022.OmittedIeee8022SnapChecker.html" xlink:title="Compound Module OmittedIeee8022SnapChecker" target="_parent">
<polygon fill="#fffcaf" stroke="black" points="307.5,-19 143.5,-19 143.5,0 307.5,0 307.5,-19"/>
<text text-anchor="middle" x="225.5" y="-7" font-family="Helvetica,sans-Serif" font-size="10.00">OmittedIeee8022SnapChecker</text>
</a>
</g>
</g>
<!-- IIeee8022SnapChecker&#45;&gt;OmittedIeee8022SnapChecker -->
<g id="edge2" class="edge">
<title>IIeee8022SnapChecker&#45;&gt;OmittedIeee8022SnapChecker</title>
<path fill="none" stroke="black" stroke-dasharray="5,2" d="M156.67,-54.98C171.89,-45.15 196.77,-29.07 212.09,-19.17"/>
</g>
</g>
</svg>
