<?xml version="1.0" encoding="UTF-8" standalone="no"?>
<!DOCTYPE svg PUBLIC "-//W3C//DTD SVG 1.1//EN"
 "http://www.w3.org/Graphics/SVG/1.1/DTD/svg11.dtd">
<!-- Generated by graphviz version 2.43.0 (0)
 -->
<!-- Title: opp Pages: 1 -->
<svg width="587pt" height="82pt"
 viewBox="0.00 0.00 586.50 82.00" xmlns="http://www.w3.org/2000/svg" xmlns:xlink="http://www.w3.org/1999/xlink">
<g id="graph0" class="graph" transform="scale(1 1) rotate(0) translate(4 78)">
<title>opp</title>
<polygon fill="transparent" stroke="transparent" points="-4,4 -4,-78 582.5,-78 582.5,4 -4,4"/>
<!-- ManetprotocolsShowcaseA -->
<g id="node1" class="node">
<title>ManetprotocolsShowcaseA</title>
<g id="a_node1"><a xlink:href="inet.showcases.routing.manet.ManetprotocolsShowcaseA.html" xlink:title="Network ManetprotocolsShowcaseA" target="_parent">
<polygon fill="#9090ff" stroke="black" points="390.5,-74 242.5,-74 242.5,-55 390.5,-55 390.5,-74"/>
<text text-anchor="middle" x="316.5" y="-62" font-family="Helvetica,sans-Serif" font-size="10.00">ManetprotocolsShowcaseA</text>
</a>
</g>
</g>
<!-- Ieee80211ScalarRadioMedium -->
<g id="node2" class="node">
<title>Ieee80211ScalarRadioMedium</title>
<g id="a_node2"><a xlink:href="inet.physicallayer.wireless.ieee80211.packetlevel.Ieee80211ScalarRadioMedium.html" xlink:title="Compound Module Ieee80211ScalarRadioMedium" target="_parent">
<polygon fill="#fffcaf" stroke="black" points="165,-19 0,-19 0,0 165,0 165,-19"/>
<text text-anchor="middle" x="82.5" y="-7" font-family="Helvetica,sans-Serif" font-size="10.00">Ieee80211ScalarRadioMedium</text>
</a>
</g>
</g>
<!-- ManetprotocolsShowcaseA&#45;&gt;Ieee80211ScalarRadioMedium -->
<g id="edge1" class="edge">
<title>ManetprotocolsShowcaseA&#45;&gt;Ieee80211ScalarRadioMedium</title>
<path fill="none" stroke="black" d="M278.9,-54.98C238.51,-45.84 174.22,-31.27 130.27,-21.32"/>
<polygon fill="black" stroke="black" points="130.92,-17.88 120.39,-19.08 129.37,-24.7 130.92,-17.88"/>
</g>
<!-- Ipv4NetworkConfigurator -->
<g id="node3" class="node">
<title>Ipv4NetworkConfigurator</title>
<g id="a_node3"><a xlink:href="inet.networklayer.configurator.ipv4.Ipv4NetworkConfigurator.html" xlink:title="Simple Module Ipv4NetworkConfigurator" target="_parent">
<polygon fill="#fffcaf" stroke="black" points="322,-19 183,-19 183,0 322,0 322,-19"/>
<text text-anchor="middle" x="252.5" y="-7" font-family="Helvetica,sans-Serif" font-size="10.00">Ipv4NetworkConfigurator</text>
</a>
</g>
</g>
<!-- ManetprotocolsShowcaseA&#45;&gt;Ipv4NetworkConfigurator -->
<g id="edge2" class="edge">
<title>ManetprotocolsShowcaseA&#45;&gt;Ipv4NetworkConfigurator</title>
<path fill="none" stroke="black" d="M306.22,-54.98C296.66,-47.07 282.22,-35.11 270.72,-25.58"/>
<polygon fill="black" stroke="black" points="272.9,-22.85 262.97,-19.17 268.44,-28.24 272.9,-22.85"/>
</g>
<!-- ManetRouter -->
<g id="node4" class="node">
<title>ManetRouter</title>
<g id="a_node4"><a xlink:href="inet.node.inet.ManetRouter.html" xlink:title="Compound Module ManetRouter" target="_parent">
<polygon fill="#fffcaf" stroke="black" points="420.5,-19 340.5,-19 340.5,0 420.5,0 420.5,-19"/>
<text text-anchor="middle" x="380.5" y="-7" font-family="Helvetica,sans-Serif" font-size="10.00">ManetRouter</text>
</a>
</g>
</g>
<!-- ManetprotocolsShowcaseA&#45;&gt;ManetRouter -->
<g id="edge3" class="edge">
<title>ManetprotocolsShowcaseA&#45;&gt;ManetRouter</title>
<path fill="none" stroke="black" d="M326.78,-54.98C336.34,-47.07 350.78,-35.11 362.28,-25.58"/>
<polygon fill="black" stroke="black" points="364.56,-28.24 370.03,-19.17 360.1,-22.85 364.56,-28.24"/>
</g>
<!-- IntegratedMultiVisualizer -->
<g id="node5" class="node">
<title>IntegratedMultiVisualizer</title>
<g id="a_node5"><a xlink:href="inet.visualizer.common.IntegratedMultiVisualizer.html" xlink:title="Compound Module IntegratedMultiVisualizer" target="_parent">
<polygon fill="#fffcaf" stroke="black" points="578.5,-19 438.5,-19 438.5,0 578.5,0 578.5,-19"/>
<text text-anchor="middle" x="508.5" y="-7" font-family="Helvetica,sans-Serif" font-size="10.00">IntegratedMultiVisualizer</text>
</a>
</g>
</g>
<!-- ManetprotocolsShowcaseA&#45;&gt;IntegratedMultiVisualizer -->
<g id="edge4" class="edge">
<title>ManetprotocolsShowcaseA&#45;&gt;IntegratedMultiVisualizer</title>
<path fill="none" stroke="black" d="M347.35,-54.98C380,-45.97 431.7,-31.7 467.7,-21.76"/>
<polygon fill="black" stroke="black" points="468.7,-25.12 477.41,-19.08 466.84,-18.37 468.7,-25.12"/>
</g>
</g>
</svg>
