<?xml version="1.0" encoding="UTF-8" standalone="no"?>
<!DOCTYPE svg PUBLIC "-//W3C//DTD SVG 1.1//EN"
 "http://www.w3.org/Graphics/SVG/1.1/DTD/svg11.dtd">
<!-- Generated by graphviz version 2.43.0 (0)
 -->
<!-- Title: opp Pages: 1 -->
<svg width="1102pt" height="82pt"
 viewBox="0.00 0.00 1102.00 82.00" xmlns="http://www.w3.org/2000/svg" xmlns:xlink="http://www.w3.org/1999/xlink">
<g id="graph0" class="graph" transform="scale(1 1) rotate(0) translate(4 78)">
<title>opp</title>
<polygon fill="transparent" stroke="transparent" points="-4,4 -4,-78 1098,-78 1098,4 -4,4"/>
<!-- InterfaceTableVisualizationAdvancedFeaturesShowcase -->
<g id="node1" class="node">
<title>InterfaceTableVisualizationAdvancedFeaturesShowcase</title>
<g id="a_node1"><a xlink:href="inet.showcases.visualizer.canvas.interfacetable.InterfaceTableVisualizationAdvancedFeaturesShowcase.html" xlink:title="Network InterfaceTableVisualizationAdvancedFeaturesShowcase" target="_parent">
<polygon fill="#9090ff" stroke="black" points="747,-74 460,-74 460,-55 747,-55 747,-74"/>
<text text-anchor="middle" x="603.5" y="-62" font-family="Helvetica,sans-Serif" font-size="10.00">InterfaceTableVisualizationAdvancedFeaturesShowcase</text>
</a>
</g>
</g>
<!-- IntegratedVisualizer -->
<g id="node2" class="node">
<title>IntegratedVisualizer</title>
<g id="a_node2"><a xlink:href="inet.visualizer.common.IntegratedVisualizer.html" xlink:title="Compound Module IntegratedVisualizer" target="_parent">
<polygon fill="#fffcaf" stroke="black" points="115,-19 0,-19 0,0 115,0 115,-19"/>
<text text-anchor="middle" x="57.5" y="-7" font-family="Helvetica,sans-Serif" font-size="10.00">IntegratedVisualizer</text>
</a>
</g>
</g>
<!-- InterfaceTableVisualizationAdvancedFeaturesShowcase&#45;&gt;IntegratedVisualizer -->
<g id="edge1" class="edge">
<title>InterfaceTableVisualizationAdvancedFeaturesShowcase&#45;&gt;IntegratedVisualizer</title>
<path fill="none" stroke="black" d="M499.93,-54.97C405.02,-46.91 260.33,-33.99 125.2,-19.16"/>
<polygon fill="black" stroke="black" points="125.4,-15.66 115.08,-18.04 124.63,-22.61 125.4,-15.66"/>
</g>
<!-- Ieee80211ScalarRadioMedium -->
<g id="node3" class="node">
<title>Ieee80211ScalarRadioMedium</title>
<g id="a_node3"><a xlink:href="inet.physicallayer.wireless.ieee80211.packetlevel.Ieee80211ScalarRadioMedium.html" xlink:title="Compound Module Ieee80211ScalarRadioMedium" target="_parent">
<polygon fill="#fffcaf" stroke="black" points="298,-19 133,-19 133,0 298,0 298,-19"/>
<text text-anchor="middle" x="215.5" y="-7" font-family="Helvetica,sans-Serif" font-size="10.00">Ieee80211ScalarRadioMedium</text>
</a>
</g>
</g>
<!-- InterfaceTableVisualizationAdvancedFeaturesShowcase&#45;&gt;Ieee80211ScalarRadioMedium -->
<g id="edge2" class="edge">
<title>InterfaceTableVisualizationAdvancedFeaturesShowcase&#45;&gt;Ieee80211ScalarRadioMedium</title>
<path fill="none" stroke="black" d="M541.16,-54.98C472.11,-45.55 360.93,-30.36 288.03,-20.41"/>
<polygon fill="black" stroke="black" points="288.39,-16.92 278.01,-19.04 287.44,-23.86 288.39,-16.92"/>
</g>
<!-- StandardHost -->
<g id="node4" class="node">
<title>StandardHost</title>
<g id="a_node4"><a xlink:href="inet.node.inet.StandardHost.html" xlink:title="Compound Module StandardHost" target="_parent">
<polygon fill="#fffcaf" stroke="black" points="399,-19 316,-19 316,0 399,0 399,-19"/>
<text text-anchor="middle" x="357.5" y="-7" font-family="Helvetica,sans-Serif" font-size="10.00">StandardHost</text>
</a>
</g>
</g>
<!-- InterfaceTableVisualizationAdvancedFeaturesShowcase&#45;&gt;StandardHost -->
<g id="edge3" class="edge">
<title>InterfaceTableVisualizationAdvancedFeaturesShowcase&#45;&gt;StandardHost</title>
<path fill="none" stroke="black" d="M563.98,-54.98C521.33,-45.8 453.35,-31.15 407.14,-21.19"/>
<polygon fill="black" stroke="black" points="407.85,-17.77 397.33,-19.08 406.37,-24.61 407.85,-17.77"/>
</g>
<!-- WirelessHost -->
<g id="node5" class="node">
<title>WirelessHost</title>
<g id="a_node5"><a xlink:href="inet.node.inet.WirelessHost.html" xlink:title="Compound Module WirelessHost" target="_parent">
<polygon fill="#fffcaf" stroke="black" points="498,-19 417,-19 417,0 498,0 498,-19"/>
<text text-anchor="middle" x="457.5" y="-7" font-family="Helvetica,sans-Serif" font-size="10.00">WirelessHost</text>
</a>
</g>
</g>
<!-- InterfaceTableVisualizationAdvancedFeaturesShowcase&#45;&gt;WirelessHost -->
<g id="edge4" class="edge">
<title>InterfaceTableVisualizationAdvancedFeaturesShowcase&#45;&gt;WirelessHost</title>
<path fill="none" stroke="black" d="M580.04,-54.98C555.92,-46.23 518.13,-32.51 490.9,-22.62"/>
<polygon fill="black" stroke="black" points="491.98,-19.29 481.38,-19.17 489.59,-25.87 491.98,-19.29"/>
</g>
<!-- AccessPoint -->
<g id="node6" class="node">
<title>AccessPoint</title>
<g id="a_node6"><a xlink:href="inet.node.wireless.AccessPoint.html" xlink:title="Compound Module AccessPoint" target="_parent">
<polygon fill="#fffcaf" stroke="black" points="591,-19 516,-19 516,0 591,0 591,-19"/>
<text text-anchor="middle" x="553.5" y="-7" font-family="Helvetica,sans-Serif" font-size="10.00">AccessPoint</text>
</a>
</g>
</g>
<!-- InterfaceTableVisualizationAdvancedFeaturesShowcase&#45;&gt;AccessPoint -->
<g id="edge5" class="edge">
<title>InterfaceTableVisualizationAdvancedFeaturesShowcase&#45;&gt;AccessPoint</title>
<path fill="none" stroke="black" d="M595.24,-54.75C588.04,-47.11 577.39,-35.82 568.65,-26.56"/>
<polygon fill="black" stroke="black" points="571.01,-23.96 561.6,-19.09 565.92,-28.76 571.01,-23.96"/>
</g>
<!-- EthernetSwitch -->
<g id="node7" class="node">
<title>EthernetSwitch</title>
<g id="a_node7"><a xlink:href="inet.node.ethernet.EthernetSwitch.html" xlink:title="Compound Module EthernetSwitch" target="_parent">
<polygon fill="#fffcaf" stroke="black" points="699.5,-19 609.5,-19 609.5,0 699.5,0 699.5,-19"/>
<text text-anchor="middle" x="654.5" y="-7" font-family="Helvetica,sans-Serif" font-size="10.00">EthernetSwitch</text>
</a>
</g>
</g>
<!-- InterfaceTableVisualizationAdvancedFeaturesShowcase&#45;&gt;EthernetSwitch -->
<g id="edge6" class="edge">
<title>InterfaceTableVisualizationAdvancedFeaturesShowcase&#45;&gt;EthernetSwitch</title>
<path fill="none" stroke="black" d="M611.92,-54.75C619.27,-47.11 630.13,-35.82 639.04,-26.56"/>
<polygon fill="black" stroke="black" points="641.82,-28.72 646.24,-19.09 636.78,-23.87 641.82,-28.72"/>
</g>
<!-- Ipv4NetworkConfigurator -->
<g id="node8" class="node">
<title>Ipv4NetworkConfigurator</title>
<g id="a_node8"><a xlink:href="inet.networklayer.configurator.ipv4.Ipv4NetworkConfigurator.html" xlink:title="Simple Module Ipv4NetworkConfigurator" target="_parent">
<polygon fill="#fffcaf" stroke="black" points="857,-19 718,-19 718,0 857,0 857,-19"/>
<text text-anchor="middle" x="787.5" y="-7" font-family="Helvetica,sans-Serif" font-size="10.00">Ipv4NetworkConfigurator</text>
</a>
</g>
</g>
<!-- InterfaceTableVisualizationAdvancedFeaturesShowcase&#45;&gt;Ipv4NetworkConfigurator -->
<g id="edge7" class="edge">
<title>InterfaceTableVisualizationAdvancedFeaturesShowcase&#45;&gt;Ipv4NetworkConfigurator</title>
<path fill="none" stroke="black" d="M633.06,-54.98C664.22,-46.01 713.47,-31.82 747.96,-21.89"/>
<polygon fill="black" stroke="black" points="749.07,-25.21 757.71,-19.08 747.13,-18.49 749.07,-25.21"/>
</g>
<!-- Router -->
<g id="node9" class="node">
<title>Router</title>
<g id="a_node9"><a xlink:href="inet.node.inet.Router.html" xlink:title="Compound Module Router" target="_parent">
<polygon fill="#fffcaf" stroke="black" points="929.5,-19 875.5,-19 875.5,0 929.5,0 929.5,-19"/>
<text text-anchor="middle" x="902.5" y="-7" font-family="Helvetica,sans-Serif" font-size="10.00">Router</text>
</a>
</g>
</g>
<!-- InterfaceTableVisualizationAdvancedFeaturesShowcase&#45;&gt;Router -->
<g id="edge8" class="edge">
<title>InterfaceTableVisualizationAdvancedFeaturesShowcase&#45;&gt;Router</title>
<path fill="none" stroke="black" d="M660.13,-55C711.33,-47.06 789,-34.42 865.59,-19.08"/>
<polygon fill="black" stroke="black" points="866.31,-22.5 875.41,-17.09 864.92,-15.64 866.31,-22.5"/>
</g>
<!-- AdhocHost -->
<g id="node10" class="node">
<title>AdhocHost</title>
<g id="a_node10"><a xlink:href="inet.node.inet.AdhocHost.html" xlink:title="Compound Module AdhocHost" target="_parent">
<polygon fill="#fffcaf" stroke="black" points="1017,-19 948,-19 948,0 1017,0 1017,-19"/>
<text text-anchor="middle" x="982.5" y="-7" font-family="Helvetica,sans-Serif" font-size="10.00">AdhocHost</text>
</a>
</g>
</g>
<!-- InterfaceTableVisualizationAdvancedFeaturesShowcase&#45;&gt;AdhocHost -->
<g id="edge9" class="edge">
<title>InterfaceTableVisualizationAdvancedFeaturesShowcase&#45;&gt;AdhocHost</title>
<path fill="none" stroke="black" d="M677.2,-54.97C742.95,-47.08 842.04,-34.47 938.07,-18.98"/>
<polygon fill="black" stroke="black" points="938.64,-22.43 947.95,-17.37 937.52,-15.52 938.64,-22.43"/>
</g>
<!-- Eth100M -->
<g id="node11" class="node">
<title>Eth100M</title>
<g id="a_node11"><a xlink:href="inet.node.ethernet.Eth100M.html" xlink:title="Channel Eth100M" target="_parent">
<polygon fill="#d0ffd0" stroke="black" points="1094,-19 1035,-19 1035,0 1094,0 1094,-19"/>
<text text-anchor="middle" x="1064.5" y="-7" font-family="Helvetica,sans-Serif" font-size="10.00">Eth100M</text>
</a>
</g>
</g>
<!-- InterfaceTableVisualizationAdvancedFeaturesShowcase&#45;&gt;Eth100M -->
<g id="edge10" class="edge">
<title>InterfaceTableVisualizationAdvancedFeaturesShowcase&#45;&gt;Eth100M</title>
<path fill="none" stroke="black" d="M718.88,-54.97C801.61,-48.01 915.86,-36.67 1024.53,-19.17"/>
<polygon fill="black" stroke="black" points="1025.39,-22.57 1034.69,-17.51 1024.26,-15.66 1025.39,-22.57"/>
</g>
</g>
</svg>
