<?xml version="1.0" encoding="UTF-8" standalone="no"?>
<!DOCTYPE svg PUBLIC "-//W3C//DTD SVG 1.1//EN"
 "http://www.w3.org/Graphics/SVG/1.1/DTD/svg11.dtd">
<!-- Generated by graphviz version 2.43.0 (0)
 -->
<!-- Title: opp Pages: 1 -->
<svg width="652pt" height="82pt"
 viewBox="0.00 0.00 651.50 82.00" xmlns="http://www.w3.org/2000/svg" xmlns:xlink="http://www.w3.org/1999/xlink">
<g id="graph0" class="graph" transform="scale(1 1) rotate(0) translate(4 78)">
<title>opp</title>
<polygon fill="transparent" stroke="transparent" points="-4,4 -4,-78 647.5,-78 647.5,4 -4,4"/>
<!-- multiple_areas2 -->
<g id="node1" class="node">
<title>multiple_areas2</title>
<g id="a_node1"><a xlink:href="inet.examples.ospfv3.multiple_areas_FINAL.multiple_areas2.html" xlink:title="Network multiple_areas2" target="_parent">
<polygon fill="#9090ff" stroke="black" points="403,-74 308,-74 308,-55 403,-55 403,-74"/>
<text text-anchor="middle" x="355.5" y="-62" font-family="Helvetica,sans-Serif" font-size="10.00">multiple_areas2</text>
</a>
</g>
</g>
<!-- StandardHost -->
<g id="node2" class="node">
<title>StandardHost</title>
<g id="a_node2"><a xlink:href="inet.node.inet.StandardHost.html" xlink:title="Compound Module StandardHost" target="_parent">
<polygon fill="#fffcaf" stroke="black" points="83,-19 0,-19 0,0 83,0 83,-19"/>
<text text-anchor="middle" x="41.5" y="-7" font-family="Helvetica,sans-Serif" font-size="10.00">StandardHost</text>
</a>
</g>
</g>
<!-- multiple_areas2&#45;&gt;StandardHost -->
<g id="edge1" class="edge">
<title>multiple_areas2&#45;&gt;StandardHost</title>
<path fill="none" stroke="black" d="M307.8,-55.48C257.1,-46.95 174.26,-33 93.58,-19.35"/>
<polygon fill="black" stroke="black" points="93.69,-15.82 83.24,-17.6 92.52,-22.72 93.69,-15.82"/>
</g>
<!-- Ipv4NetworkConfigurator -->
<g id="node3" class="node">
<title>Ipv4NetworkConfigurator</title>
<g id="a_node3"><a xlink:href="inet.networklayer.configurator.ipv4.Ipv4NetworkConfigurator.html" xlink:title="Simple Module Ipv4NetworkConfigurator" target="_parent">
<polygon fill="#fffcaf" stroke="black" points="240,-19 101,-19 101,0 240,0 240,-19"/>
<text text-anchor="middle" x="170.5" y="-7" font-family="Helvetica,sans-Serif" font-size="10.00">Ipv4NetworkConfigurator</text>
</a>
</g>
</g>
<!-- multiple_areas2&#45;&gt;Ipv4NetworkConfigurator -->
<g id="edge2" class="edge">
<title>multiple_areas2&#45;&gt;Ipv4NetworkConfigurator</title>
<path fill="none" stroke="black" d="M325.78,-54.98C294.45,-46.01 244.93,-31.82 210.26,-21.89"/>
<polygon fill="black" stroke="black" points="211.03,-18.47 200.46,-19.08 209.11,-25.2 211.03,-18.47"/>
</g>
<!-- EthernetSwitch -->
<g id="node4" class="node">
<title>EthernetSwitch</title>
<g id="a_node4"><a xlink:href="inet.node.ethernet.EthernetSwitch.html" xlink:title="Compound Module EthernetSwitch" target="_parent">
<polygon fill="#fffcaf" stroke="black" points="348.5,-19 258.5,-19 258.5,0 348.5,0 348.5,-19"/>
<text text-anchor="middle" x="303.5" y="-7" font-family="Helvetica,sans-Serif" font-size="10.00">EthernetSwitch</text>
</a>
</g>
</g>
<!-- multiple_areas2&#45;&gt;EthernetSwitch -->
<g id="edge3" class="edge">
<title>multiple_areas2&#45;&gt;EthernetSwitch</title>
<path fill="none" stroke="black" d="M346.91,-54.75C339.34,-47.03 328.12,-35.6 318.99,-26.28"/>
<polygon fill="black" stroke="black" points="321.43,-23.78 311.93,-19.09 316.43,-28.68 321.43,-23.78"/>
</g>
<!-- Ospfv3Router -->
<g id="node5" class="node">
<title>Ospfv3Router</title>
<g id="a_node5"><a xlink:href="inet.node.ospfv3.Ospfv3Router.html" xlink:title="Compound Module Ospfv3Router" target="_parent">
<polygon fill="#fffcaf" stroke="black" points="450,-19 367,-19 367,0 450,0 450,-19"/>
<text text-anchor="middle" x="408.5" y="-7" font-family="Helvetica,sans-Serif" font-size="10.00">Ospfv3Router</text>
</a>
</g>
</g>
<!-- multiple_areas2&#45;&gt;Ospfv3Router -->
<g id="edge4" class="edge">
<title>multiple_areas2&#45;&gt;Ospfv3Router</title>
<path fill="none" stroke="black" d="M364.25,-54.75C371.97,-47.03 383.4,-35.6 392.72,-26.28"/>
<polygon fill="black" stroke="black" points="395.31,-28.64 399.91,-19.09 390.36,-23.69 395.31,-28.64"/>
</g>
<!-- ScenarioManager -->
<g id="node6" class="node">
<title>ScenarioManager</title>
<g id="a_node6"><a xlink:href="inet.common.scenario.ScenarioManager.html" xlink:title="Simple Module ScenarioManager" target="_parent">
<polygon fill="#fffcaf" stroke="black" points="569,-19 468,-19 468,0 569,0 569,-19"/>
<text text-anchor="middle" x="518.5" y="-7" font-family="Helvetica,sans-Serif" font-size="10.00">ScenarioManager</text>
</a>
</g>
</g>
<!-- multiple_areas2&#45;&gt;ScenarioManager -->
<g id="edge5" class="edge">
<title>multiple_areas2&#45;&gt;ScenarioManager</title>
<path fill="none" stroke="black" d="M381.69,-54.98C408.94,-46.13 451.8,-32.19 482.28,-22.28"/>
<polygon fill="black" stroke="black" points="483.68,-25.5 492.11,-19.08 481.51,-18.85 483.68,-25.5"/>
</g>
<!-- Channel -->
<g id="node7" class="node">
<title>Channel</title>
<g id="a_node7"><a xlink:href="inet.examples.ospfv3.multiple_areas_FINAL.multiple_areas2.Channel.html" xlink:title="Channel Channel" target="_parent">
<polygon fill="#d0ffd0" stroke="black" points="643.5,-19 587.5,-19 587.5,0 643.5,0 643.5,-19"/>
<text text-anchor="middle" x="615.5" y="-7" font-family="Helvetica,sans-Serif" font-size="10.00">Channel</text>
</a>
</g>
</g>
<!-- multiple_areas2&#45;&gt;Channel -->
<g id="edge6" class="edge">
<title>multiple_areas2&#45;&gt;Channel</title>
<path fill="none" stroke="black" d="M400.43,-54.93C443.41,-46.64 510.3,-33.51 577.35,-19.2"/>
<polygon fill="black" stroke="black" points="578.19,-22.6 587.24,-17.08 576.73,-15.75 578.19,-22.6"/>
</g>
</g>
</svg>
