<?xml version="1.0" encoding="UTF-8" standalone="no"?>
<!DOCTYPE svg PUBLIC "-//W3C//DTD SVG 1.1//EN"
 "http://www.w3.org/Graphics/SVG/1.1/DTD/svg11.dtd">
<!-- Generated by graphviz version 2.43.0 (0)
 -->
<!-- Title: opp Pages: 1 -->
<svg width="327pt" height="82pt"
 viewBox="0.00 0.00 327.00 82.00" xmlns="http://www.w3.org/2000/svg" xmlns:xlink="http://www.w3.org/1999/xlink">
<g id="graph0" class="graph" transform="scale(1 1) rotate(0) translate(4 78)">
<title>opp</title>
<polygon fill="transparent" stroke="transparent" points="-4,4 -4,-78 323,-78 323,4 -4,4"/>
<!-- HiddenNode -->
<g id="node1" class="node">
<title>HiddenNode</title>
<g id="a_node1"><a xlink:href="inet.examples.wireless.hiddennode.HiddenNode.html" xlink:title="Network HiddenNode" target="_parent">
<polygon fill="#9090ff" stroke="black" points="249,-74 172,-74 172,-55 249,-55 249,-74"/>
<text text-anchor="middle" x="210.5" y="-62" font-family="Helvetica,sans-Serif" font-size="10.00">HiddenNode</text>
</a>
</g>
</g>
<!-- Ieee80211ScalarRadioMedium -->
<g id="node2" class="node">
<title>Ieee80211ScalarRadioMedium</title>
<g id="a_node2"><a xlink:href="inet.physicallayer.wireless.ieee80211.packetlevel.Ieee80211ScalarRadioMedium.html" xlink:title="Compound Module Ieee80211ScalarRadioMedium" target="_parent">
<polygon fill="#fffcaf" stroke="black" points="165,-19 0,-19 0,0 165,0 165,-19"/>
<text text-anchor="middle" x="82.5" y="-7" font-family="Helvetica,sans-Serif" font-size="10.00">Ieee80211ScalarRadioMedium</text>
</a>
</g>
</g>
<!-- HiddenNode&#45;&gt;Ieee80211ScalarRadioMedium -->
<g id="edge1" class="edge">
<title>HiddenNode&#45;&gt;Ieee80211ScalarRadioMedium</title>
<path fill="none" stroke="black" d="M189.93,-54.98C169.07,-46.34 136.53,-32.87 112.73,-23.02"/>
<polygon fill="black" stroke="black" points="114.02,-19.76 103.44,-19.17 111.34,-26.23 114.02,-19.76"/>
</g>
<!-- Node -->
<g id="node3" class="node">
<title>Node</title>
<g id="a_node3"><a xlink:href="inet.examples.wireless.hiddennode.Node.html" xlink:title="Compound Module Node" target="_parent">
<polygon fill="#fffcaf" stroke="black" points="237.5,-19 183.5,-19 183.5,0 237.5,0 237.5,-19"/>
<text text-anchor="middle" x="210.5" y="-7" font-family="Helvetica,sans-Serif" font-size="10.00">Node</text>
</a>
</g>
</g>
<!-- HiddenNode&#45;&gt;Node -->
<g id="edge2" class="edge">
<title>HiddenNode&#45;&gt;Node</title>
<path fill="none" stroke="black" d="M210.5,-54.75C210.5,-47.8 210.5,-37.85 210.5,-29.13"/>
<polygon fill="black" stroke="black" points="214,-29.09 210.5,-19.09 207,-29.09 214,-29.09"/>
</g>
<!-- SinkNode -->
<g id="node4" class="node">
<title>SinkNode</title>
<g id="a_node4"><a xlink:href="inet.examples.wireless.hiddennode.SinkNode.html" xlink:title="Compound Module SinkNode" target="_parent">
<polygon fill="#fffcaf" stroke="black" points="319,-19 256,-19 256,0 319,0 319,-19"/>
<text text-anchor="middle" x="287.5" y="-7" font-family="Helvetica,sans-Serif" font-size="10.00">SinkNode</text>
</a>
</g>
</g>
<!-- HiddenNode&#45;&gt;SinkNode -->
<g id="edge3" class="edge">
<title>HiddenNode&#45;&gt;SinkNode</title>
<path fill="none" stroke="black" d="M222.87,-54.98C234.59,-46.92 252.42,-34.65 266.39,-25.03"/>
<polygon fill="black" stroke="black" points="268.65,-27.72 274.9,-19.17 264.68,-21.96 268.65,-27.72"/>
</g>
</g>
</svg>
