<?xml version="1.0" encoding="UTF-8" standalone="no"?>
<!DOCTYPE svg PUBLIC "-//W3C//DTD SVG 1.1//EN"
 "http://www.w3.org/Graphics/SVG/1.1/DTD/svg11.dtd">
<!-- Generated by graphviz version 2.43.0 (0)
 -->
<!-- Title: opp Pages: 1 -->
<svg width="136pt" height="137pt"
 viewBox="0.00 0.00 136.00 137.00" xmlns="http://www.w3.org/2000/svg" xmlns:xlink="http://www.w3.org/1999/xlink">
<g id="graph0" class="graph" transform="scale(1 1) rotate(0) translate(4 133)">
<title>opp</title>
<polygon fill="transparent" stroke="transparent" points="-4,4 -4,-133 132,-133 132,4 -4,4"/>
<!-- NarrowbandRadioBase -->
<g id="node1" class="node">
<title>NarrowbandRadioBase</title>
<g id="a_node1"><a xlink:href="inet.physicallayer.wireless.common.base.packetlevel.NarrowbandRadioBase.html" xlink:title="Compound Module NarrowbandRadioBase" target="_parent">
<polygon fill="#fff700" stroke="black" points="128,-74 0,-74 0,-55 128,-55 128,-74"/>
<text text-anchor="middle" x="64" y="-62" font-family="Helvetica,sans-Serif" font-size="10.00">NarrowbandRadioBase</text>
</a>
</g>
</g>
<!-- FlatRadioBase -->
<g id="node3" class="node">
<title>FlatRadioBase</title>
<g id="a_node3"><a xlink:href="inet.physicallayer.wireless.common.base.packetlevel.FlatRadioBase.html" xlink:title="Compound Module FlatRadioBase" target="_parent">
<polygon fill="#fffcaf" stroke="black" points="107.5,-19 20.5,-19 20.5,0 107.5,0 107.5,-19"/>
<text text-anchor="middle" x="64" y="-7" font-family="Helvetica,sans-Serif" font-size="10.00">FlatRadioBase</text>
</a>
</g>
</g>
<!-- NarrowbandRadioBase&#45;&gt;FlatRadioBase -->
<g id="edge2" class="edge">
<title>NarrowbandRadioBase&#45;&gt;FlatRadioBase</title>
<path fill="none" stroke="black" d="M64,-54.75C64,-44.87 64,-28.9 64,-19.09"/>
</g>
<!-- Radio -->
<g id="node2" class="node">
<title>Radio</title>
<g id="a_node2"><a xlink:href="inet.physicallayer.wireless.common.radio.packetlevel.Radio.html" xlink:title="Compound Module Radio" target="_parent">
<polygon fill="#fffcaf" stroke="black" points="91,-129 37,-129 37,-110 91,-110 91,-129"/>
<text text-anchor="middle" x="64" y="-117" font-family="Helvetica,sans-Serif" font-size="10.00">Radio</text>
</a>
</g>
</g>
<!-- Radio&#45;&gt;NarrowbandRadioBase -->
<g id="edge1" class="edge">
<title>Radio&#45;&gt;NarrowbandRadioBase</title>
<path fill="none" stroke="black" d="M64,-109.75C64,-99.87 64,-83.9 64,-74.09"/>
</g>
</g>
</svg>
