<?xml version="1.0" encoding="UTF-8" standalone="no"?>
<!DOCTYPE svg PUBLIC "-//W3C//DTD SVG 1.1//EN"
 "http://www.w3.org/Graphics/SVG/1.1/DTD/svg11.dtd">
<!-- Generated by graphviz version 2.43.0 (0)
 -->
<!-- Title: opp Pages: 1 -->
<svg width="168pt" height="137pt"
 viewBox="0.00 0.00 168.00 137.00" xmlns="http://www.w3.org/2000/svg" xmlns:xlink="http://www.w3.org/1999/xlink">
<g id="graph0" class="graph" transform="scale(1 1) rotate(0) translate(4 133)">
<title>opp</title>
<polygon fill="transparent" stroke="transparent" points="-4,4 -4,-133 164,-133 164,4 -4,4"/>
<!-- IpApp -->
<g id="node1" class="node">
<title>IpApp</title>
<g id="a_node1"><a xlink:href="inet.applications.ipapp.IpApp.html" xlink:title="Compound Module IpApp" target="_parent">
<polygon fill="#fff700" stroke="black" points="103.5,-74 49.5,-74 49.5,-55 103.5,-55 103.5,-74"/>
<text text-anchor="middle" x="76.5" y="-62" font-family="Helvetica,sans-Serif" font-size="10.00">IpApp</text>
</a>
</g>
</g>
<!-- IpSinkApp -->
<g id="node3" class="node">
<title>IpSinkApp</title>
<g id="a_node3"><a xlink:href="inet.applications.ipapp.IpSinkApp.html" xlink:title="Compound Module IpSinkApp" target="_parent">
<polygon fill="#fffcaf" stroke="black" points="65,-19 0,-19 0,0 65,0 65,-19"/>
<text text-anchor="middle" x="32.5" y="-7" font-family="Helvetica,sans-Serif" font-size="10.00">IpSinkApp</text>
</a>
</g>
</g>
<!-- IpApp&#45;&gt;IpSinkApp -->
<g id="edge2" class="edge">
<title>IpApp&#45;&gt;IpSinkApp</title>
<path fill="none" stroke="black" d="M69.23,-54.75C61.03,-44.87 47.78,-28.9 39.63,-19.09"/>
</g>
<!-- IpSourceApp -->
<g id="node4" class="node">
<title>IpSourceApp</title>
<g id="a_node4"><a xlink:href="inet.applications.ipapp.IpSourceApp.html" xlink:title="Compound Module IpSourceApp" target="_parent">
<polygon fill="#fffcaf" stroke="black" points="160,-19 83,-19 83,0 160,0 160,-19"/>
<text text-anchor="middle" x="121.5" y="-7" font-family="Helvetica,sans-Serif" font-size="10.00">IpSourceApp</text>
</a>
</g>
</g>
<!-- IpApp&#45;&gt;IpSourceApp -->
<g id="edge3" class="edge">
<title>IpApp&#45;&gt;IpSourceApp</title>
<path fill="none" stroke="black" d="M83.93,-54.75C92.32,-44.87 105.88,-28.9 114.21,-19.09"/>
</g>
<!-- IApp -->
<g id="node2" class="node">
<title>IApp</title>
<g id="a_node2"><a xlink:href="inet.applications.contract.IApp.html" xlink:title="Module Interface IApp" target="_parent">
<polygon fill="#fffcaf" stroke="black" stroke-dasharray="5,2" points="103.5,-129 49.5,-129 49.5,-110 103.5,-110 103.5,-129"/>
<text text-anchor="middle" x="76.5" y="-117" font-family="Helvetica,sans-Serif" font-size="10.00">IApp</text>
</a>
</g>
</g>
<!-- IApp&#45;&gt;IpApp -->
<g id="edge1" class="edge">
<title>IApp&#45;&gt;IpApp</title>
<path fill="none" stroke="black" stroke-dasharray="5,2" d="M76.5,-109.75C76.5,-99.87 76.5,-83.9 76.5,-74.09"/>
</g>
</g>
</svg>
