<?xml version="1.0" encoding="UTF-8" standalone="no"?>
<!DOCTYPE svg PUBLIC "-//W3C//DTD SVG 1.1//EN"
 "http://www.w3.org/Graphics/SVG/1.1/DTD/svg11.dtd">
<!-- Generated by graphviz version 2.43.0 (0)
 -->
<!-- Title: opp Pages: 1 -->
<svg width="454pt" height="82pt"
 viewBox="0.00 0.00 453.50 82.00" xmlns="http://www.w3.org/2000/svg" xmlns:xlink="http://www.w3.org/1999/xlink">
<g id="graph0" class="graph" transform="scale(1 1) rotate(0) translate(4 78)">
<title>opp</title>
<polygon fill="transparent" stroke="transparent" points="-4,4 -4,-78 449.5,-78 449.5,4 -4,4"/>
<!-- ServerApp -->
<g id="node1" class="node">
<title>ServerApp</title>
<g id="a_node1"><a xlink:href="inet.tutorials.protocol.ServerApp.html" xlink:title="Compound Module ServerApp" target="_parent">
<polygon fill="#fff700" stroke="black" points="277,-74 210,-74 210,-55 277,-55 277,-74"/>
<text text-anchor="middle" x="243.5" y="-62" font-family="Helvetica,sans-Serif" font-size="10.00">ServerApp</text>
</a>
</g>
</g>
<!-- IPassivePacketSink -->
<g id="node2" class="node">
<title>IPassivePacketSink</title>
<g id="a_node2"><a xlink:href="inet.queueing.contract.IPassivePacketSink.html" xlink:title="Module Interface IPassivePacketSink" target="_parent">
<polygon fill="#fffcaf" stroke="black" stroke-dasharray="5,2" points="109,-19 0,-19 0,0 109,0 109,-19"/>
<text text-anchor="middle" x="54.5" y="-7" font-family="Helvetica,sans-Serif" font-size="10.00">IPassivePacketSink</text>
</a>
</g>
</g>
<!-- ServerApp&#45;&gt;IPassivePacketSink -->
<g id="edge1" class="edge">
<title>ServerApp&#45;&gt;IPassivePacketSink</title>
<path fill="none" stroke="black" d="M213.13,-54.98C181.13,-46.01 130.54,-31.82 95.12,-21.89"/>
<polygon fill="black" stroke="black" points="95.68,-18.41 85.1,-19.08 93.79,-25.15 95.68,-18.41"/>
</g>
<!-- ReceiveAtL3Address -->
<g id="node3" class="node">
<title>ReceiveAtL3Address</title>
<g id="a_node3"><a xlink:href="inet.protocolelement.selectivity.ReceiveAtL3Address.html" xlink:title="Simple Module ReceiveAtL3Address" target="_parent">
<polygon fill="#fffcaf" stroke="black" points="243.5,-19 127.5,-19 127.5,0 243.5,0 243.5,-19"/>
<text text-anchor="middle" x="185.5" y="-7" font-family="Helvetica,sans-Serif" font-size="10.00">ReceiveAtL3Address</text>
</a>
</g>
</g>
<!-- ServerApp&#45;&gt;ReceiveAtL3Address -->
<g id="edge2" class="edge">
<title>ServerApp&#45;&gt;ReceiveAtL3Address</title>
<path fill="none" stroke="black" d="M234.18,-54.98C225.69,-47.23 212.94,-35.58 202.62,-26.14"/>
<polygon fill="black" stroke="black" points="204.73,-23.33 194.99,-19.17 200.01,-28.5 204.73,-23.33"/>
</g>
<!-- IdealChannel -->
<g id="node4" class="node">
<title>IdealChannel</title>
<g id="a_node4"><a xlink:href="ned.IdealChannel.html" xlink:title="Channel IdealChannel" target="_parent">
<polygon fill="#d0ffd0" stroke="black" points="341.5,-19 261.5,-19 261.5,0 341.5,0 341.5,-19"/>
<text text-anchor="middle" x="301.5" y="-7" font-family="Helvetica,sans-Serif" font-size="10.00">IdealChannel</text>
</a>
</g>
</g>
<!-- ServerApp&#45;&gt;IdealChannel -->
<g id="edge3" class="edge">
<title>ServerApp&#45;&gt;IdealChannel</title>
<path fill="none" stroke="black" d="M252.82,-54.98C261.31,-47.23 274.06,-35.58 284.38,-26.14"/>
<polygon fill="black" stroke="black" points="286.99,-28.5 292.01,-19.17 282.27,-23.33 286.99,-28.5"/>
</g>
<!-- ReceiveAtPort -->
<g id="node5" class="node">
<title>ReceiveAtPort</title>
<g id="a_node5"><a xlink:href="inet.protocolelement.selectivity.ReceiveAtPort.html" xlink:title="Simple Module ReceiveAtPort" target="_parent">
<polygon fill="#fffcaf" stroke="black" points="445.5,-19 359.5,-19 359.5,0 445.5,0 445.5,-19"/>
<text text-anchor="middle" x="402.5" y="-7" font-family="Helvetica,sans-Serif" font-size="10.00">ReceiveAtPort</text>
</a>
</g>
</g>
<!-- ServerApp&#45;&gt;ReceiveAtPort -->
<g id="edge4" class="edge">
<title>ServerApp&#45;&gt;ReceiveAtPort</title>
<path fill="none" stroke="black" d="M269.05,-54.98C295.62,-46.13 337.44,-32.19 367.17,-22.28"/>
<polygon fill="black" stroke="black" points="368.37,-25.56 376.75,-19.08 366.16,-18.92 368.37,-25.56"/>
</g>
</g>
</svg>
