<?xml version="1.0" encoding="UTF-8" standalone="no"?>
<!DOCTYPE svg PUBLIC "-//W3C//DTD SVG 1.1//EN"
 "http://www.w3.org/Graphics/SVG/1.1/DTD/svg11.dtd">
<!-- Generated by graphviz version 2.43.0 (0)
 -->
<!-- Title: opp Pages: 1 -->
<svg width="700pt" height="82pt"
 viewBox="0.00 0.00 699.50 82.00" xmlns="http://www.w3.org/2000/svg" xmlns:xlink="http://www.w3.org/1999/xlink">
<g id="graph0" class="graph" transform="scale(1 1) rotate(0) translate(4 78)">
<title>opp</title>
<polygon fill="transparent" stroke="transparent" points="-4,4 -4,-78 695.5,-78 695.5,4 -4,4"/>
<!-- ComplexConfiguratorNetwork -->
<g id="node1" class="node">
<title>ComplexConfiguratorNetwork</title>
<g id="a_node1"><a xlink:href="inet.examples.wireless.configurator.ComplexConfiguratorNetwork.html" xlink:title="Network ComplexConfiguratorNetwork" target="_parent">
<polygon fill="#9090ff" stroke="black" points="527,-74 366,-74 366,-55 527,-55 527,-74"/>
<text text-anchor="middle" x="446.5" y="-62" font-family="Helvetica,sans-Serif" font-size="10.00">ComplexConfiguratorNetwork</text>
</a>
</g>
</g>
<!-- Ieee80211ScalarRadioMedium -->
<g id="node2" class="node">
<title>Ieee80211ScalarRadioMedium</title>
<g id="a_node2"><a xlink:href="inet.physicallayer.wireless.ieee80211.packetlevel.Ieee80211ScalarRadioMedium.html" xlink:title="Compound Module Ieee80211ScalarRadioMedium" target="_parent">
<polygon fill="#fffcaf" stroke="black" points="165,-19 0,-19 0,0 165,0 165,-19"/>
<text text-anchor="middle" x="82.5" y="-7" font-family="Helvetica,sans-Serif" font-size="10.00">Ieee80211ScalarRadioMedium</text>
</a>
</g>
</g>
<!-- ComplexConfiguratorNetwork&#45;&gt;Ieee80211ScalarRadioMedium -->
<g id="edge1" class="edge">
<title>ComplexConfiguratorNetwork&#45;&gt;Ieee80211ScalarRadioMedium</title>
<path fill="none" stroke="black" d="M388.02,-54.98C323.5,-45.59 219.78,-30.49 151.38,-20.53"/>
<polygon fill="black" stroke="black" points="151.54,-17.02 141.14,-19.04 150.53,-23.94 151.54,-17.02"/>
</g>
<!-- IIntegratedVisualizer -->
<g id="node3" class="node">
<title>IIntegratedVisualizer</title>
<g id="a_node3"><a xlink:href="inet.visualizer.contract.IIntegratedVisualizer.html" xlink:title="Module Interface IIntegratedVisualizer" target="_parent">
<polygon fill="#fffcaf" stroke="black" stroke-dasharray="5,2" points="301.5,-19 183.5,-19 183.5,0 301.5,0 301.5,-19"/>
<text text-anchor="middle" x="242.5" y="-7" font-family="Helvetica,sans-Serif" font-size="10.00">IIntegratedVisualizer</text>
</a>
</g>
</g>
<!-- ComplexConfiguratorNetwork&#45;&gt;IIntegratedVisualizer -->
<g id="edge2" class="edge">
<title>ComplexConfiguratorNetwork&#45;&gt;IIntegratedVisualizer</title>
<path fill="none" stroke="black" d="M413.72,-54.98C378.88,-45.93 323.63,-31.58 285.36,-21.64"/>
<polygon fill="black" stroke="black" points="286.09,-18.21 275.53,-19.08 284.33,-24.98 286.09,-18.21"/>
</g>
<!-- Ipv4NetworkConfigurator -->
<g id="node4" class="node">
<title>Ipv4NetworkConfigurator</title>
<g id="a_node4"><a xlink:href="inet.networklayer.configurator.ipv4.Ipv4NetworkConfigurator.html" xlink:title="Simple Module Ipv4NetworkConfigurator" target="_parent">
<polygon fill="#fffcaf" stroke="black" points="459,-19 320,-19 320,0 459,0 459,-19"/>
<text text-anchor="middle" x="389.5" y="-7" font-family="Helvetica,sans-Serif" font-size="10.00">Ipv4NetworkConfigurator</text>
</a>
</g>
</g>
<!-- ComplexConfiguratorNetwork&#45;&gt;Ipv4NetworkConfigurator -->
<g id="edge3" class="edge">
<title>ComplexConfiguratorNetwork&#45;&gt;Ipv4NetworkConfigurator</title>
<path fill="none" stroke="black" d="M437.34,-54.98C429,-47.23 416.47,-35.58 406.32,-26.14"/>
<polygon fill="black" stroke="black" points="408.53,-23.42 398.82,-19.17 403.76,-28.54 408.53,-23.42"/>
</g>
<!-- Router -->
<g id="node5" class="node">
<title>Router</title>
<g id="a_node5"><a xlink:href="inet.node.inet.Router.html" xlink:title="Compound Module Router" target="_parent">
<polygon fill="#fffcaf" stroke="black" points="531.5,-19 477.5,-19 477.5,0 531.5,0 531.5,-19"/>
<text text-anchor="middle" x="504.5" y="-7" font-family="Helvetica,sans-Serif" font-size="10.00">Router</text>
</a>
</g>
</g>
<!-- ComplexConfiguratorNetwork&#45;&gt;Router -->
<g id="edge4" class="edge">
<title>ComplexConfiguratorNetwork&#45;&gt;Router</title>
<path fill="none" stroke="black" d="M455.82,-54.98C464.31,-47.23 477.06,-35.58 487.38,-26.14"/>
<polygon fill="black" stroke="black" points="489.99,-28.5 495.01,-19.17 485.27,-23.33 489.99,-28.5"/>
</g>
<!-- AdhocHost -->
<g id="node6" class="node">
<title>AdhocHost</title>
<g id="a_node6"><a xlink:href="inet.node.inet.AdhocHost.html" xlink:title="Compound Module AdhocHost" target="_parent">
<polygon fill="#fffcaf" stroke="black" points="619,-19 550,-19 550,0 619,0 619,-19"/>
<text text-anchor="middle" x="584.5" y="-7" font-family="Helvetica,sans-Serif" font-size="10.00">AdhocHost</text>
</a>
</g>
</g>
<!-- ComplexConfiguratorNetwork&#45;&gt;AdhocHost -->
<g id="edge5" class="edge">
<title>ComplexConfiguratorNetwork&#45;&gt;AdhocHost</title>
<path fill="none" stroke="black" d="M468.67,-54.98C491.27,-46.3 526.56,-32.75 552.25,-22.88"/>
<polygon fill="black" stroke="black" points="553.84,-26.02 561.92,-19.17 551.33,-19.49 553.84,-26.02"/>
</g>
<!-- Eth1G -->
<g id="node7" class="node">
<title>Eth1G</title>
<g id="a_node7"><a xlink:href="inet.node.ethernet.Eth1G.html" xlink:title="Channel Eth1G" target="_parent">
<polygon fill="#d0ffd0" stroke="black" points="691.5,-19 637.5,-19 637.5,0 691.5,0 691.5,-19"/>
<text text-anchor="middle" x="664.5" y="-7" font-family="Helvetica,sans-Serif" font-size="10.00">Eth1G</text>
</a>
</g>
</g>
<!-- ComplexConfiguratorNetwork&#45;&gt;Eth1G -->
<g id="edge6" class="edge">
<title>ComplexConfiguratorNetwork&#45;&gt;Eth1G</title>
<path fill="none" stroke="black" d="M481.53,-54.98C521.58,-45.25 586.87,-29.37 627.67,-19.46"/>
<polygon fill="black" stroke="black" points="628.59,-22.83 637.48,-17.07 626.94,-16.03 628.59,-22.83"/>
</g>
</g>
</svg>
