<?xml version="1.0" encoding="UTF-8" standalone="no"?>
<!DOCTYPE svg PUBLIC "-//W3C//DTD SVG 1.1//EN"
 "http://www.w3.org/Graphics/SVG/1.1/DTD/svg11.dtd">
<!-- Generated by graphviz version 2.43.0 (0)
 -->
<!-- Title: opp Pages: 1 -->
<svg width="234pt" height="137pt"
 viewBox="0.00 0.00 234.00 137.00" xmlns="http://www.w3.org/2000/svg" xmlns:xlink="http://www.w3.org/1999/xlink">
<g id="graph0" class="graph" transform="scale(1 1) rotate(0) translate(4 133)">
<title>opp</title>
<polygon fill="transparent" stroke="transparent" points="-4,4 -4,-133 230,-133 230,4 -4,4"/>
<!-- EthernetApp -->
<g id="node1" class="node">
<title>EthernetApp</title>
<g id="a_node1"><a xlink:href="inet.applications.ethernet.EthernetApp.html" xlink:title="Compound Module EthernetApp" target="_parent">
<polygon fill="#fff700" stroke="black" points="148.5,-74 71.5,-74 71.5,-55 148.5,-55 148.5,-74"/>
<text text-anchor="middle" x="110" y="-62" font-family="Helvetica,sans-Serif" font-size="10.00">EthernetApp</text>
</a>
</g>
</g>
<!-- EthernetSinkApp -->
<g id="node3" class="node">
<title>EthernetSinkApp</title>
<g id="a_node3"><a xlink:href="inet.applications.ethernet.EthernetSinkApp.html" xlink:title="Compound Module EthernetSinkApp" target="_parent">
<polygon fill="#fffcaf" stroke="black" points="98,-19 0,-19 0,0 98,0 98,-19"/>
<text text-anchor="middle" x="49" y="-7" font-family="Helvetica,sans-Serif" font-size="10.00">EthernetSinkApp</text>
</a>
</g>
</g>
<!-- EthernetApp&#45;&gt;EthernetSinkApp -->
<g id="edge2" class="edge">
<title>EthernetApp&#45;&gt;EthernetSinkApp</title>
<path fill="none" stroke="black" d="M100.2,-54.98C88.88,-45.15 70.37,-29.07 58.98,-19.17"/>
</g>
<!-- EthernetSourceApp -->
<g id="node4" class="node">
<title>EthernetSourceApp</title>
<g id="a_node4"><a xlink:href="inet.applications.ethernet.EthernetSourceApp.html" xlink:title="Compound Module EthernetSourceApp" target="_parent">
<polygon fill="#fffcaf" stroke="black" points="226,-19 116,-19 116,0 226,0 226,-19"/>
<text text-anchor="middle" x="171" y="-7" font-family="Helvetica,sans-Serif" font-size="10.00">EthernetSourceApp</text>
</a>
</g>
</g>
<!-- EthernetApp&#45;&gt;EthernetSourceApp -->
<g id="edge3" class="edge">
<title>EthernetApp&#45;&gt;EthernetSourceApp</title>
<path fill="none" stroke="black" d="M119.8,-54.98C131.12,-45.15 149.63,-29.07 161.02,-19.17"/>
</g>
<!-- IApp -->
<g id="node2" class="node">
<title>IApp</title>
<g id="a_node2"><a xlink:href="inet.applications.contract.IApp.html" xlink:title="Module Interface IApp" target="_parent">
<polygon fill="#fffcaf" stroke="black" stroke-dasharray="5,2" points="137,-129 83,-129 83,-110 137,-110 137,-129"/>
<text text-anchor="middle" x="110" y="-117" font-family="Helvetica,sans-Serif" font-size="10.00">IApp</text>
</a>
</g>
</g>
<!-- IApp&#45;&gt;EthernetApp -->
<g id="edge1" class="edge">
<title>IApp&#45;&gt;EthernetApp</title>
<path fill="none" stroke="black" stroke-dasharray="5,2" d="M110,-109.75C110,-99.87 110,-83.9 110,-74.09"/>
</g>
</g>
</svg>
