<?xml version="1.0" encoding="UTF-8" standalone="no"?>
<!DOCTYPE svg PUBLIC "-//W3C//DTD SVG 1.1//EN"
 "http://www.w3.org/Graphics/SVG/1.1/DTD/svg11.dtd">
<!-- Generated by graphviz version 2.43.0 (0)
 -->
<!-- Title: opp Pages: 1 -->
<svg width="442pt" height="82pt"
 viewBox="0.00 0.00 442.00 82.00" xmlns="http://www.w3.org/2000/svg" xmlns:xlink="http://www.w3.org/1999/xlink">
<g id="graph0" class="graph" transform="scale(1 1) rotate(0) translate(4 78)">
<title>opp</title>
<polygon fill="transparent" stroke="transparent" points="-4,4 -4,-78 438,-78 438,4 -4,4"/>
<!-- DropTailQueueTutorialStep -->
<g id="node1" class="node">
<title>DropTailQueueTutorialStep</title>
<g id="a_node1"><a xlink:href="inet.tutorials.queueing.DropTailQueueTutorialStep.html" xlink:title="Network DropTailQueueTutorialStep" target="_parent">
<polygon fill="#9090ff" stroke="black" points="276,-74 130,-74 130,-55 276,-55 276,-74"/>
<text text-anchor="middle" x="203" y="-62" font-family="Helvetica,sans-Serif" font-size="10.00">DropTailQueueTutorialStep</text>
</a>
</g>
</g>
<!-- DropTailQueue -->
<g id="node2" class="node">
<title>DropTailQueue</title>
<g id="a_node2"><a xlink:href="inet.queueing.queue.DropTailQueue.html" xlink:title="Simple Module DropTailQueue" target="_parent">
<polygon fill="#fffcaf" stroke="black" points="88,-19 0,-19 0,0 88,0 88,-19"/>
<text text-anchor="middle" x="44" y="-7" font-family="Helvetica,sans-Serif" font-size="10.00">DropTailQueue</text>
</a>
</g>
</g>
<!-- DropTailQueueTutorialStep&#45;&gt;DropTailQueue -->
<g id="edge1" class="edge">
<title>DropTailQueueTutorialStep&#45;&gt;DropTailQueue</title>
<path fill="none" stroke="black" d="M177.45,-54.98C150.88,-46.13 109.06,-32.19 79.33,-22.28"/>
<polygon fill="black" stroke="black" points="80.34,-18.92 69.75,-19.08 78.13,-25.56 80.34,-18.92"/>
</g>
<!-- IdealChannel -->
<g id="node3" class="node">
<title>IdealChannel</title>
<g id="a_node3"><a xlink:href="ned.IdealChannel.html" xlink:title="Channel IdealChannel" target="_parent">
<polygon fill="#d0ffd0" stroke="black" points="186,-19 106,-19 106,0 186,0 186,-19"/>
<text text-anchor="middle" x="146" y="-7" font-family="Helvetica,sans-Serif" font-size="10.00">IdealChannel</text>
</a>
</g>
</g>
<!-- DropTailQueueTutorialStep&#45;&gt;IdealChannel -->
<g id="edge2" class="edge">
<title>DropTailQueueTutorialStep&#45;&gt;IdealChannel</title>
<path fill="none" stroke="black" d="M193.84,-54.98C185.5,-47.23 172.97,-35.58 162.82,-26.14"/>
<polygon fill="black" stroke="black" points="165.03,-23.42 155.32,-19.17 160.26,-28.54 165.03,-23.42"/>
</g>
<!-- ActivePacketSource -->
<g id="node4" class="node">
<title>ActivePacketSource</title>
<g id="a_node4"><a xlink:href="inet.queueing.source.ActivePacketSource.html" xlink:title="Simple Module ActivePacketSource" target="_parent">
<polygon fill="#fffcaf" stroke="black" points="316,-19 204,-19 204,0 316,0 316,-19"/>
<text text-anchor="middle" x="260" y="-7" font-family="Helvetica,sans-Serif" font-size="10.00">ActivePacketSource</text>
</a>
</g>
</g>
<!-- DropTailQueueTutorialStep&#45;&gt;ActivePacketSource -->
<g id="edge3" class="edge">
<title>DropTailQueueTutorialStep&#45;&gt;ActivePacketSource</title>
<path fill="none" stroke="black" d="M212.16,-54.98C220.5,-47.23 233.03,-35.58 243.18,-26.14"/>
<polygon fill="black" stroke="black" points="245.74,-28.54 250.68,-19.17 240.97,-23.42 245.74,-28.54"/>
</g>
<!-- ActivePacketSink -->
<g id="node5" class="node">
<title>ActivePacketSink</title>
<g id="a_node5"><a xlink:href="inet.queueing.sink.ActivePacketSink.html" xlink:title="Simple Module ActivePacketSink" target="_parent">
<polygon fill="#fffcaf" stroke="black" points="434,-19 334,-19 334,0 434,0 434,-19"/>
<text text-anchor="middle" x="384" y="-7" font-family="Helvetica,sans-Serif" font-size="10.00">ActivePacketSink</text>
</a>
</g>
</g>
<!-- DropTailQueueTutorialStep&#45;&gt;ActivePacketSink -->
<g id="edge4" class="edge">
<title>DropTailQueueTutorialStep&#45;&gt;ActivePacketSink</title>
<path fill="none" stroke="black" d="M232.08,-54.98C262.6,-46.05 310.76,-31.94 344.66,-22.02"/>
<polygon fill="black" stroke="black" points="346.08,-25.25 354.69,-19.08 344.11,-18.53 346.08,-25.25"/>
</g>
</g>
</svg>
