<?xml version="1.0" encoding="UTF-8" standalone="no"?>
<!DOCTYPE svg PUBLIC "-//W3C//DTD SVG 1.1//EN"
 "http://www.w3.org/Graphics/SVG/1.1/DTD/svg11.dtd">
<!-- Generated by graphviz version 2.43.0 (0)
 -->
<!-- Title: opp Pages: 1 -->
<svg width="462pt" height="82pt"
 viewBox="0.00 0.00 462.00 82.00" xmlns="http://www.w3.org/2000/svg" xmlns:xlink="http://www.w3.org/1999/xlink">
<g id="graph0" class="graph" transform="scale(1 1) rotate(0) translate(4 78)">
<title>opp</title>
<polygon fill="transparent" stroke="transparent" points="-4,4 -4,-78 458,-78 458,4 -4,4"/>
<!-- MarkovSchedulerTutorialStep -->
<g id="node1" class="node">
<title>MarkovSchedulerTutorialStep</title>
<g id="a_node1"><a xlink:href="inet.tutorials.queueing.MarkovSchedulerTutorialStep.html" xlink:title="Network MarkovSchedulerTutorialStep" target="_parent">
<polygon fill="#9090ff" stroke="black" points="309,-74 151,-74 151,-55 309,-55 309,-74"/>
<text text-anchor="middle" x="230" y="-62" font-family="Helvetica,sans-Serif" font-size="10.00">MarkovSchedulerTutorialStep</text>
</a>
</g>
</g>
<!-- PassivePacketSource -->
<g id="node2" class="node">
<title>PassivePacketSource</title>
<g id="a_node2"><a xlink:href="inet.queueing.source.PassivePacketSource.html" xlink:title="Simple Module PassivePacketSource" target="_parent">
<polygon fill="#fffcaf" stroke="black" points="118,-19 0,-19 0,0 118,0 118,-19"/>
<text text-anchor="middle" x="59" y="-7" font-family="Helvetica,sans-Serif" font-size="10.00">PassivePacketSource</text>
</a>
</g>
</g>
<!-- MarkovSchedulerTutorialStep&#45;&gt;PassivePacketSource -->
<g id="edge1" class="edge">
<title>MarkovSchedulerTutorialStep&#45;&gt;PassivePacketSource</title>
<path fill="none" stroke="black" d="M202.53,-54.98C173.82,-46.09 128.58,-32.07 96.58,-22.15"/>
<polygon fill="black" stroke="black" points="97.28,-18.7 86.69,-19.08 95.2,-25.39 97.28,-18.7"/>
</g>
<!-- IdealChannel -->
<g id="node3" class="node">
<title>IdealChannel</title>
<g id="a_node3"><a xlink:href="ned.IdealChannel.html" xlink:title="Channel IdealChannel" target="_parent">
<polygon fill="#d0ffd0" stroke="black" points="216,-19 136,-19 136,0 216,0 216,-19"/>
<text text-anchor="middle" x="176" y="-7" font-family="Helvetica,sans-Serif" font-size="10.00">IdealChannel</text>
</a>
</g>
</g>
<!-- MarkovSchedulerTutorialStep&#45;&gt;IdealChannel -->
<g id="edge2" class="edge">
<title>MarkovSchedulerTutorialStep&#45;&gt;IdealChannel</title>
<path fill="none" stroke="black" d="M221.08,-54.75C213.22,-47.03 201.57,-35.6 192.08,-26.28"/>
<polygon fill="black" stroke="black" points="194.34,-23.6 184.75,-19.09 189.44,-28.59 194.34,-23.6"/>
</g>
<!-- MarkovScheduler -->
<g id="node4" class="node">
<title>MarkovScheduler</title>
<g id="a_node4"><a xlink:href="inet.queueing.scheduler.MarkovScheduler.html" xlink:title="Simple Module MarkovScheduler" target="_parent">
<polygon fill="#fffcaf" stroke="black" points="335.5,-19 234.5,-19 234.5,0 335.5,0 335.5,-19"/>
<text text-anchor="middle" x="285" y="-7" font-family="Helvetica,sans-Serif" font-size="10.00">MarkovScheduler</text>
</a>
</g>
</g>
<!-- MarkovSchedulerTutorialStep&#45;&gt;MarkovScheduler -->
<g id="edge3" class="edge">
<title>MarkovSchedulerTutorialStep&#45;&gt;MarkovScheduler</title>
<path fill="none" stroke="black" d="M239.08,-54.75C247.09,-47.03 258.96,-35.6 268.62,-26.28"/>
<polygon fill="black" stroke="black" points="271.31,-28.55 276.09,-19.09 266.46,-23.51 271.31,-28.55"/>
</g>
<!-- ActivePacketSink -->
<g id="node5" class="node">
<title>ActivePacketSink</title>
<g id="a_node5"><a xlink:href="inet.queueing.sink.ActivePacketSink.html" xlink:title="Simple Module ActivePacketSink" target="_parent">
<polygon fill="#fffcaf" stroke="black" points="454,-19 354,-19 354,0 454,0 454,-19"/>
<text text-anchor="middle" x="404" y="-7" font-family="Helvetica,sans-Serif" font-size="10.00">ActivePacketSink</text>
</a>
</g>
</g>
<!-- MarkovSchedulerTutorialStep&#45;&gt;ActivePacketSink -->
<g id="edge4" class="edge">
<title>MarkovSchedulerTutorialStep&#45;&gt;ActivePacketSink</title>
<path fill="none" stroke="black" d="M257.96,-54.98C287.3,-46.05 333.6,-31.94 366.19,-22.02"/>
<polygon fill="black" stroke="black" points="367.28,-25.34 375.82,-19.08 365.24,-18.65 367.28,-25.34"/>
</g>
</g>
</svg>
