<?xml version="1.0" encoding="UTF-8" standalone="no"?>
<!DOCTYPE svg PUBLIC "-//W3C//DTD SVG 1.1//EN"
 "http://www.w3.org/Graphics/SVG/1.1/DTD/svg11.dtd">
<!-- Generated by graphviz version 2.43.0 (0)
 -->
<!-- Title: opp Pages: 1 -->
<svg width="699pt" height="137pt"
 viewBox="0.00 0.00 699.00 137.00" xmlns="http://www.w3.org/2000/svg" xmlns:xlink="http://www.w3.org/1999/xlink">
<g id="graph0" class="graph" transform="scale(1 1) rotate(0) translate(4 133)">
<title>opp</title>
<polygon fill="transparent" stroke="transparent" points="-4,4 -4,-133 695,-133 695,4 -4,4"/>
<!-- PacketMeterBase -->
<g id="node1" class="node">
<title>PacketMeterBase</title>
<g id="a_node1"><a xlink:href="inet.queueing.base.PacketMeterBase.html" xlink:title="Simple Module PacketMeterBase" target="_parent">
<polygon fill="#fff700" stroke="black" points="393.5,-74 292.5,-74 292.5,-55 393.5,-55 393.5,-74"/>
<text text-anchor="middle" x="343" y="-62" font-family="Helvetica,sans-Serif" font-size="10.00">PacketMeterBase</text>
</a>
</g>
</g>
<!-- EligibilityTimeMeter -->
<g id="node3" class="node">
<title>EligibilityTimeMeter</title>
<g id="a_node3"><a xlink:href="inet.protocolelement.shaper.EligibilityTimeMeter.html" xlink:title="Simple Module EligibilityTimeMeter" target="_parent">
<polygon fill="#fffcaf" stroke="black" points="116,-19 0,-19 0,0 116,0 116,-19"/>
<text text-anchor="middle" x="58" y="-7" font-family="Helvetica,sans-Serif" font-size="10.00">EligibilityTimeMeter</text>
</a>
</g>
</g>
<!-- PacketMeterBase&#45;&gt;EligibilityTimeMeter -->
<g id="edge2" class="edge">
<title>PacketMeterBase&#45;&gt;EligibilityTimeMeter</title>
<path fill="none" stroke="black" d="M297.21,-54.98C244.18,-45.12 157.33,-28.97 104.15,-19.08"/>
</g>
<!-- ExponentialRateMeter -->
<g id="node4" class="node">
<title>ExponentialRateMeter</title>
<g id="a_node4"><a xlink:href="inet.queueing.meter.ExponentialRateMeter.html" xlink:title="Simple Module ExponentialRateMeter" target="_parent">
<polygon fill="#fffcaf" stroke="black" points="259.5,-19 134.5,-19 134.5,0 259.5,0 259.5,-19"/>
<text text-anchor="middle" x="197" y="-7" font-family="Helvetica,sans-Serif" font-size="10.00">ExponentialRateMeter</text>
</a>
</g>
</g>
<!-- PacketMeterBase&#45;&gt;ExponentialRateMeter -->
<g id="edge3" class="edge">
<title>PacketMeterBase&#45;&gt;ExponentialRateMeter</title>
<path fill="none" stroke="black" d="M319.54,-54.98C292.46,-45.15 248.15,-29.07 220.88,-19.17"/>
</g>
<!-- MultiTokenBucketMeter -->
<g id="node5" class="node">
<title>MultiTokenBucketMeter</title>
<g id="a_node5"><a xlink:href="inet.queueing.meter.MultiTokenBucketMeter.html" xlink:title="Simple Module MultiTokenBucketMeter" target="_parent">
<polygon fill="#fffcaf" stroke="black" points="408.5,-19 277.5,-19 277.5,0 408.5,0 408.5,-19"/>
<text text-anchor="middle" x="343" y="-7" font-family="Helvetica,sans-Serif" font-size="10.00">MultiTokenBucketMeter</text>
</a>
</g>
</g>
<!-- PacketMeterBase&#45;&gt;MultiTokenBucketMeter -->
<g id="edge4" class="edge">
<title>PacketMeterBase&#45;&gt;MultiTokenBucketMeter</title>
<path fill="none" stroke="black" d="M343,-54.75C343,-44.87 343,-28.9 343,-19.09"/>
</g>
<!-- SlidingWindowRateMeter -->
<g id="node6" class="node">
<title>SlidingWindowRateMeter</title>
<g id="a_node6"><a xlink:href="inet.queueing.meter.SlidingWindowRateMeter.html" xlink:title="Simple Module SlidingWindowRateMeter" target="_parent">
<polygon fill="#fffcaf" stroke="black" points="567,-19 427,-19 427,0 567,0 567,-19"/>
<text text-anchor="middle" x="497" y="-7" font-family="Helvetica,sans-Serif" font-size="10.00">SlidingWindowRateMeter</text>
</a>
</g>
</g>
<!-- PacketMeterBase&#45;&gt;SlidingWindowRateMeter -->
<g id="edge5" class="edge">
<title>PacketMeterBase&#45;&gt;SlidingWindowRateMeter</title>
<path fill="none" stroke="black" d="M367.74,-54.98C396.4,-45.12 443.33,-28.97 472.06,-19.08"/>
</g>
<!-- TokenBucketMeter -->
<g id="node7" class="node">
<title>TokenBucketMeter</title>
<g id="a_node7"><a xlink:href="inet.queueing.meter.TokenBucketMeter.html" xlink:title="Simple Module TokenBucketMeter" target="_parent">
<polygon fill="#fffcaf" stroke="black" points="691,-19 585,-19 585,0 691,0 691,-19"/>
<text text-anchor="middle" x="638" y="-7" font-family="Helvetica,sans-Serif" font-size="10.00">TokenBucketMeter</text>
</a>
</g>
</g>
<!-- PacketMeterBase&#45;&gt;TokenBucketMeter -->
<g id="edge6" class="edge">
<title>PacketMeterBase&#45;&gt;TokenBucketMeter</title>
<path fill="none" stroke="black" d="M390.4,-54.98C445.28,-45.12 535.19,-28.97 590.23,-19.08"/>
</g>
<!-- PacketFlowBase -->
<g id="node2" class="node">
<title>PacketFlowBase</title>
<g id="a_node2"><a xlink:href="inet.queueing.base.PacketFlowBase.html" xlink:title="Simple Module PacketFlowBase" target="_parent">
<polygon fill="#fffcaf" stroke="black" points="390.5,-129 295.5,-129 295.5,-110 390.5,-110 390.5,-129"/>
<text text-anchor="middle" x="343" y="-117" font-family="Helvetica,sans-Serif" font-size="10.00">PacketFlowBase</text>
</a>
</g>
</g>
<!-- PacketFlowBase&#45;&gt;PacketMeterBase -->
<g id="edge1" class="edge">
<title>PacketFlowBase&#45;&gt;PacketMeterBase</title>
<path fill="none" stroke="black" d="M343,-109.75C343,-99.87 343,-83.9 343,-74.09"/>
</g>
</g>
</svg>
