<?xml version="1.0" encoding="UTF-8" standalone="no"?>
<!DOCTYPE svg PUBLIC "-//W3C//DTD SVG 1.1//EN"
 "http://www.w3.org/Graphics/SVG/1.1/DTD/svg11.dtd">
<!-- Generated by graphviz version 2.43.0 (0)
 -->
<!-- Title: opp Pages: 1 -->
<svg width="192pt" height="137pt"
 viewBox="0.00 0.00 192.00 137.00" xmlns="http://www.w3.org/2000/svg" xmlns:xlink="http://www.w3.org/1999/xlink">
<g id="graph0" class="graph" transform="scale(1 1) rotate(0) translate(4 133)">
<title>opp</title>
<polygon fill="transparent" stroke="transparent" points="-4,4 -4,-133 188,-133 188,4 -4,4"/>
<!-- ExampleCable -->
<g id="node1" class="node">
<title>ExampleCable</title>
<g id="a_node1"><a xlink:href="inet.tutorials.queueing.ExampleCable.html" xlink:title="Compound Module ExampleCable" target="_parent">
<polygon fill="#fff700" stroke="black" points="133.5,-74 46.5,-74 46.5,-55 133.5,-55 133.5,-74"/>
<text text-anchor="middle" x="90" y="-62" font-family="Helvetica,sans-Serif" font-size="10.00">ExampleCable</text>
</a>
</g>
</g>
<!-- IdealChannel -->
<g id="node2" class="node">
<title>IdealChannel</title>
<g id="a_node2"><a xlink:href="ned.IdealChannel.html" xlink:title="Channel IdealChannel" target="_parent">
<polygon fill="#d0ffd0" stroke="black" points="80,-19 0,-19 0,0 80,0 80,-19"/>
<text text-anchor="middle" x="40" y="-7" font-family="Helvetica,sans-Serif" font-size="10.00">IdealChannel</text>
</a>
</g>
</g>
<!-- ExampleCable&#45;&gt;IdealChannel -->
<g id="edge1" class="edge">
<title>ExampleCable&#45;&gt;IdealChannel</title>
<path fill="none" stroke="black" d="M81.74,-54.75C74.54,-47.11 63.89,-35.82 55.15,-26.56"/>
<polygon fill="black" stroke="black" points="57.51,-23.96 48.1,-19.09 52.42,-28.76 57.51,-23.96"/>
</g>
<!-- PacketDelayer -->
<g id="node3" class="node">
<title>PacketDelayer</title>
<g id="a_node3"><a xlink:href="inet.queueing.common.PacketDelayer.html" xlink:title="Simple Module PacketDelayer" target="_parent">
<polygon fill="#fffcaf" stroke="black" points="184,-19 98,-19 98,0 184,0 184,-19"/>
<text text-anchor="middle" x="141" y="-7" font-family="Helvetica,sans-Serif" font-size="10.00">PacketDelayer</text>
</a>
</g>
</g>
<!-- ExampleCable&#45;&gt;PacketDelayer -->
<g id="edge2" class="edge">
<title>ExampleCable&#45;&gt;PacketDelayer</title>
<path fill="none" stroke="black" d="M98.42,-54.75C105.77,-47.11 116.63,-35.82 125.54,-26.56"/>
<polygon fill="black" stroke="black" points="128.32,-28.72 132.74,-19.09 123.28,-23.87 128.32,-28.72"/>
</g>
<!-- ExampleNetworkTutorialStep -->
<g id="node4" class="node">
<title>ExampleNetworkTutorialStep</title>
<g id="a_node4"><a xlink:href="inet.tutorials.queueing.ExampleNetworkTutorialStep.html" xlink:title="Network ExampleNetworkTutorialStep" target="_parent">
<polygon fill="#d0d0ff" stroke="black" points="169,-129 11,-129 11,-110 169,-110 169,-129"/>
<text text-anchor="middle" x="90" y="-117" font-family="Helvetica,sans-Serif" font-size="10.00">ExampleNetworkTutorialStep</text>
</a>
</g>
</g>
<!-- ExampleNetworkTutorialStep&#45;&gt;ExampleCable -->
<g id="edge3" class="edge">
<title>ExampleNetworkTutorialStep&#45;&gt;ExampleCable</title>
<path fill="none" stroke="black" d="M90,-109.75C90,-102.8 90,-92.85 90,-84.13"/>
<polygon fill="black" stroke="black" points="93.5,-84.09 90,-74.09 86.5,-84.09 93.5,-84.09"/>
</g>
</g>
</svg>
