<?xml version="1.0" encoding="UTF-8" standalone="no"?>
<!DOCTYPE svg PUBLIC "-//W3C//DTD SVG 1.1//EN"
 "http://www.w3.org/Graphics/SVG/1.1/DTD/svg11.dtd">
<!-- Generated by graphviz version 2.43.0 (0)
 -->
<!-- Title: opp Pages: 1 -->
<svg width="158pt" height="82pt"
 viewBox="0.00 0.00 157.50 82.00" xmlns="http://www.w3.org/2000/svg" xmlns:xlink="http://www.w3.org/1999/xlink">
<g id="graph0" class="graph" transform="scale(1 1) rotate(0) translate(4 78)">
<title>opp</title>
<polygon fill="transparent" stroke="transparent" points="-4,4 -4,-78 153.5,-78 153.5,4 -4,4"/>
<!-- IApp -->
<g id="node1" class="node">
<title>IApp</title>
<g id="a_node1"><a xlink:href="inet.tutorials.protocol.IApp.html" xlink:title="Module Interface IApp" target="_parent">
<polygon fill="#fff700" stroke="black" stroke-dasharray="5,2" points="101,-74 47,-74 47,-55 101,-55 101,-74"/>
<text text-anchor="middle" x="74" y="-62" font-family="Helvetica,sans-Serif" font-size="10.00">IApp</text>
</a>
</g>
</g>
<!-- ClientApp -->
<g id="node2" class="node">
<title>ClientApp</title>
<g id="a_node2"><a xlink:href="inet.tutorials.protocol.ClientApp.html" xlink:title="Compound Module ClientApp" target="_parent">
<polygon fill="#fffcaf" stroke="black" points="64,-19 0,-19 0,0 64,0 64,-19"/>
<text text-anchor="middle" x="32" y="-7" font-family="Helvetica,sans-Serif" font-size="10.00">ClientApp</text>
</a>
</g>
</g>
<!-- IApp&#45;&gt;ClientApp -->
<g id="edge1" class="edge">
<title>IApp&#45;&gt;ClientApp</title>
<path fill="none" stroke="black" stroke-dasharray="5,2" d="M67.06,-54.75C59.24,-44.87 46.58,-28.9 38.81,-19.09"/>
</g>
<!-- ServerApp -->
<g id="node3" class="node">
<title>ServerApp</title>
<g id="a_node3"><a xlink:href="inet.tutorials.protocol.ServerApp.html" xlink:title="Compound Module ServerApp" target="_parent">
<polygon fill="#fffcaf" stroke="black" points="149.5,-19 82.5,-19 82.5,0 149.5,0 149.5,-19"/>
<text text-anchor="middle" x="116" y="-7" font-family="Helvetica,sans-Serif" font-size="10.00">ServerApp</text>
</a>
</g>
</g>
<!-- IApp&#45;&gt;ServerApp -->
<g id="edge2" class="edge">
<title>IApp&#45;&gt;ServerApp</title>
<path fill="none" stroke="black" stroke-dasharray="5,2" d="M80.94,-54.75C88.76,-44.87 101.42,-28.9 109.19,-19.09"/>
</g>
</g>
</svg>
