<?xml version="1.0" encoding="UTF-8" standalone="no"?>
<!DOCTYPE svg PUBLIC "-//W3C//DTD SVG 1.1//EN"
 "http://www.w3.org/Graphics/SVG/1.1/DTD/svg11.dtd">
<!-- Generated by graphviz version 2.43.0 (0)
 -->
<!-- Title: opp Pages: 1 -->
<svg width="166pt" height="137pt"
 viewBox="0.00 0.00 165.50 137.00" xmlns="http://www.w3.org/2000/svg" xmlns:xlink="http://www.w3.org/1999/xlink">
<g id="graph0" class="graph" transform="scale(1 1) rotate(0) translate(4 133)">
<title>opp</title>
<polygon fill="transparent" stroke="transparent" points="-4,4 -4,-133 161.5,-133 161.5,4 -4,4"/>
<!-- PhysicalLayerBase -->
<g id="node1" class="node">
<title>PhysicalLayerBase</title>
<g id="a_node1"><a xlink:href="inet.physicallayer.wireless.common.base.packetlevel.PhysicalLayerBase.html" xlink:title="Simple Module PhysicalLayerBase" target="_parent">
<polygon fill="#fff700" stroke="black" points="125,-74 17,-74 17,-55 125,-55 125,-74"/>
<text text-anchor="middle" x="71" y="-62" font-family="Helvetica,sans-Serif" font-size="10.00">PhysicalLayerBase</text>
</a>
</g>
</g>
<!-- Radio -->
<g id="node3" class="node">
<title>Radio</title>
<g id="a_node3"><a xlink:href="inet.physicallayer.wireless.common.radio.packetlevel.Radio.html" xlink:title="Compound Module Radio" target="_parent">
<polygon fill="#fffcaf" stroke="black" points="54,-19 0,-19 0,0 54,0 54,-19"/>
<text text-anchor="middle" x="27" y="-7" font-family="Helvetica,sans-Serif" font-size="10.00">Radio</text>
</a>
</g>
</g>
<!-- PhysicalLayerBase&#45;&gt;Radio -->
<g id="edge2" class="edge">
<title>PhysicalLayerBase&#45;&gt;Radio</title>
<path fill="none" stroke="black" d="M63.73,-54.75C55.53,-44.87 42.28,-28.9 34.13,-19.09"/>
</g>
<!-- ShortcutRadio -->
<g id="node4" class="node">
<title>ShortcutRadio</title>
<g id="a_node4"><a xlink:href="inet.physicallayer.wireless.shortcut.ShortcutRadio.html" xlink:title="Simple Module ShortcutRadio" target="_parent">
<polygon fill="#fffcaf" stroke="black" points="157.5,-19 72.5,-19 72.5,0 157.5,0 157.5,-19"/>
<text text-anchor="middle" x="115" y="-7" font-family="Helvetica,sans-Serif" font-size="10.00">ShortcutRadio</text>
</a>
</g>
</g>
<!-- PhysicalLayerBase&#45;&gt;ShortcutRadio -->
<g id="edge3" class="edge">
<title>PhysicalLayerBase&#45;&gt;ShortcutRadio</title>
<path fill="none" stroke="black" d="M78.27,-54.75C86.47,-44.87 99.72,-28.9 107.87,-19.09"/>
</g>
<!-- LayeredProtocolBase -->
<g id="node2" class="node">
<title>LayeredProtocolBase</title>
<g id="a_node2"><a xlink:href="inet.common.LayeredProtocolBase.html" xlink:title="Simple Module LayeredProtocolBase" target="_parent">
<polygon fill="#fffcaf" stroke="black" points="130.5,-129 11.5,-129 11.5,-110 130.5,-110 130.5,-129"/>
<text text-anchor="middle" x="71" y="-117" font-family="Helvetica,sans-Serif" font-size="10.00">LayeredProtocolBase</text>
</a>
</g>
</g>
<!-- LayeredProtocolBase&#45;&gt;PhysicalLayerBase -->
<g id="edge1" class="edge">
<title>LayeredProtocolBase&#45;&gt;PhysicalLayerBase</title>
<path fill="none" stroke="black" d="M71,-109.75C71,-99.87 71,-83.9 71,-74.09"/>
</g>
</g>
</svg>
