<?xml version="1.0" encoding="UTF-8" standalone="no"?>
<!DOCTYPE svg PUBLIC "-//W3C//DTD SVG 1.1//EN"
 "http://www.w3.org/Graphics/SVG/1.1/DTD/svg11.dtd">
<!-- Generated by graphviz version 2.43.0 (0)
 -->
<!-- Title: opp Pages: 1 -->
<svg width="300pt" height="82pt"
 viewBox="0.00 0.00 300.00 82.00" xmlns="http://www.w3.org/2000/svg" xmlns:xlink="http://www.w3.org/1999/xlink">
<g id="graph0" class="graph" transform="scale(1 1) rotate(0) translate(4 78)">
<title>opp</title>
<polygon fill="transparent" stroke="transparent" points="-4,4 -4,-78 296,-78 296,4 -4,4"/>
<!-- IClock -->
<g id="node1" class="node">
<title>IClock</title>
<g id="a_node1"><a xlink:href="inet.clock.contract.IClock.html" xlink:title="Module Interface IClock" target="_parent">
<polygon fill="#fff700" stroke="black" stroke-dasharray="5,2" points="147,-74 93,-74 93,-55 147,-55 147,-74"/>
<text text-anchor="middle" x="120" y="-62" font-family="Helvetica,sans-Serif" font-size="10.00">IClock</text>
</a>
</g>
</g>
<!-- IdealClock -->
<g id="node2" class="node">
<title>IdealClock</title>
<g id="a_node2"><a xlink:href="inet.clock.model.IdealClock.html" xlink:title="Compound Module IdealClock" target="_parent">
<polygon fill="#fffcaf" stroke="black" points="68,-19 0,-19 0,0 68,0 68,-19"/>
<text text-anchor="middle" x="34" y="-7" font-family="Helvetica,sans-Serif" font-size="10.00">IdealClock</text>
</a>
</g>
</g>
<!-- IClock&#45;&gt;IdealClock -->
<g id="edge1" class="edge">
<title>IClock&#45;&gt;IdealClock</title>
<path fill="none" stroke="black" stroke-dasharray="5,2" d="M106.18,-54.98C90.23,-45.15 64.13,-29.07 48.07,-19.17"/>
</g>
<!-- MultiClock -->
<g id="node3" class="node">
<title>MultiClock</title>
<g id="a_node3"><a xlink:href="inet.clock.model.MultiClock.html" xlink:title="Compound Module MultiClock" target="_parent">
<polygon fill="#fffcaf" stroke="black" points="154,-19 86,-19 86,0 154,0 154,-19"/>
<text text-anchor="middle" x="120" y="-7" font-family="Helvetica,sans-Serif" font-size="10.00">MultiClock</text>
</a>
</g>
</g>
<!-- IClock&#45;&gt;MultiClock -->
<g id="edge2" class="edge">
<title>IClock&#45;&gt;MultiClock</title>
<path fill="none" stroke="black" stroke-dasharray="5,2" d="M120,-54.75C120,-44.87 120,-28.9 120,-19.09"/>
</g>
<!-- OscillatorBasedClock -->
<g id="node4" class="node">
<title>OscillatorBasedClock</title>
<g id="a_node4"><a xlink:href="inet.clock.model.OscillatorBasedClock.html" xlink:title="Compound Module OscillatorBasedClock" target="_parent">
<polygon fill="#fffcaf" stroke="black" points="292,-19 172,-19 172,0 292,0 292,-19"/>
<text text-anchor="middle" x="232" y="-7" font-family="Helvetica,sans-Serif" font-size="10.00">OscillatorBasedClock</text>
</a>
</g>
</g>
<!-- IClock&#45;&gt;OscillatorBasedClock -->
<g id="edge3" class="edge">
<title>IClock&#45;&gt;OscillatorBasedClock</title>
<path fill="none" stroke="black" stroke-dasharray="5,2" d="M137.99,-54.98C158.77,-45.15 192.76,-29.07 213.68,-19.17"/>
</g>
</g>
</svg>
