<?xml version="1.0" encoding="UTF-8" standalone="no"?>
<!DOCTYPE svg PUBLIC "-//W3C//DTD SVG 1.1//EN"
 "http://www.w3.org/Graphics/SVG/1.1/DTD/svg11.dtd">
<!-- Generated by graphviz version 2.43.0 (0)
 -->
<!-- Title: opp Pages: 1 -->
<svg width="709pt" height="137pt"
 viewBox="0.00 0.00 708.50 137.00" xmlns="http://www.w3.org/2000/svg" xmlns:xlink="http://www.w3.org/1999/xlink">
<g id="graph0" class="graph" transform="scale(1 1) rotate(0) translate(4 133)">
<title>opp</title>
<polygon fill="transparent" stroke="transparent" points="-4,4 -4,-133 704.5,-133 704.5,4 -4,4"/>
<!-- Router -->
<g id="node1" class="node">
<title>Router</title>
<g id="a_node1"><a xlink:href="inet.node.inet.Router.html" xlink:title="Compound Module Router" target="_parent">
<polygon fill="#fff700" stroke="black" points="392,-74 338,-74 338,-55 392,-55 392,-74"/>
<text text-anchor="middle" x="365" y="-62" font-family="Helvetica,sans-Serif" font-size="10.00">Router</text>
</a>
</g>
</g>
<!-- BgpRouter -->
<g id="node3" class="node">
<title>BgpRouter</title>
<g id="a_node3"><a xlink:href="inet.node.bgp.BgpRouter.html" xlink:title="Compound Module BgpRouter" target="_parent">
<polygon fill="#fffcaf" stroke="black" points="68,-19 0,-19 0,0 68,0 68,-19"/>
<text text-anchor="middle" x="34" y="-7" font-family="Helvetica,sans-Serif" font-size="10.00">BgpRouter</text>
</a>
</g>
</g>
<!-- Router&#45;&gt;BgpRouter -->
<g id="edge2" class="edge">
<title>Router&#45;&gt;BgpRouter</title>
<path fill="none" stroke="black" d="M337.94,-59.7C286.83,-52.45 172.67,-35.84 77,-19 74.15,-18.5 71.2,-17.96 68.24,-17.4"/>
</g>
<!-- EigrpRouter -->
<g id="node4" class="node">
<title>EigrpRouter</title>
<g id="a_node4"><a xlink:href="inet.node.eigrp.EigrpRouter.html" xlink:title="Compound Module EigrpRouter" target="_parent">
<polygon fill="#fffcaf" stroke="black" points="160,-19 86,-19 86,0 160,0 160,-19"/>
<text text-anchor="middle" x="123" y="-7" font-family="Helvetica,sans-Serif" font-size="10.00">EigrpRouter</text>
</a>
</g>
</g>
<!-- Router&#45;&gt;EigrpRouter -->
<g id="edge3" class="edge">
<title>Router&#45;&gt;EigrpRouter</title>
<path fill="none" stroke="black" d="M337.71,-57.52C294.2,-47.99 209.03,-29.34 160.05,-18.61"/>
</g>
<!-- MulticastRouter -->
<g id="node5" class="node">
<title>MulticastRouter</title>
<g id="a_node5"><a xlink:href="inet.node.inet.MulticastRouter.html" xlink:title="Compound Module MulticastRouter" target="_parent">
<polygon fill="#fffcaf" stroke="black" points="272,-19 178,-19 178,0 272,0 272,-19"/>
<text text-anchor="middle" x="225" y="-7" font-family="Helvetica,sans-Serif" font-size="10.00">MulticastRouter</text>
</a>
</g>
</g>
<!-- Router&#45;&gt;MulticastRouter -->
<g id="edge4" class="edge">
<title>Router&#45;&gt;MulticastRouter</title>
<path fill="none" stroke="black" d="M342.51,-54.98C316.54,-45.15 274.05,-29.07 247.9,-19.17"/>
</g>
<!-- MyRouter -->
<g id="node6" class="node">
<title>MyRouter</title>
<g id="a_node6"><a xlink:href="inet.examples.inet.ipv4hook.MyRouter.html" xlink:title="Compound Module MyRouter" target="_parent">
<polygon fill="#fffcaf" stroke="black" points="354,-19 290,-19 290,0 354,0 354,-19"/>
<text text-anchor="middle" x="322" y="-7" font-family="Helvetica,sans-Serif" font-size="10.00">MyRouter</text>
</a>
</g>
</g>
<!-- Router&#45;&gt;MyRouter -->
<g id="edge5" class="edge">
<title>Router&#45;&gt;MyRouter</title>
<path fill="none" stroke="black" d="M357.9,-54.75C349.88,-44.87 336.93,-28.9 328.97,-19.09"/>
</g>
<!-- OspfRouter -->
<g id="node7" class="node">
<title>OspfRouter</title>
<g id="a_node7"><a xlink:href="inet.node.ospfv2.OspfRouter.html" xlink:title="Compound Module OspfRouter" target="_parent">
<polygon fill="#fffcaf" stroke="black" points="443.5,-19 372.5,-19 372.5,0 443.5,0 443.5,-19"/>
<text text-anchor="middle" x="408" y="-7" font-family="Helvetica,sans-Serif" font-size="10.00">OspfRouter</text>
</a>
</g>
</g>
<!-- Router&#45;&gt;OspfRouter -->
<g id="edge6" class="edge">
<title>Router&#45;&gt;OspfRouter</title>
<path fill="none" stroke="black" d="M372.1,-54.75C380.12,-44.87 393.07,-28.9 401.03,-19.09"/>
</g>
<!-- Ospfv3Router -->
<g id="node8" class="node">
<title>Ospfv3Router</title>
<g id="a_node8"><a xlink:href="inet.node.ospfv3.Ospfv3Router.html" xlink:title="Compound Module Ospfv3Router" target="_parent">
<polygon fill="#fffcaf" stroke="black" points="544.5,-19 461.5,-19 461.5,0 544.5,0 544.5,-19"/>
<text text-anchor="middle" x="503" y="-7" font-family="Helvetica,sans-Serif" font-size="10.00">Ospfv3Router</text>
</a>
</g>
</g>
<!-- Router&#45;&gt;Ospfv3Router -->
<g id="edge7" class="edge">
<title>Router&#45;&gt;Ospfv3Router</title>
<path fill="none" stroke="black" d="M387.17,-54.98C412.77,-45.15 454.65,-29.07 480.42,-19.17"/>
</g>
<!-- RipRouter -->
<g id="node9" class="node">
<title>RipRouter</title>
<g id="a_node9"><a xlink:href="inet.node.rip.RipRouter.html" xlink:title="Compound Module RipRouter" target="_parent">
<polygon fill="#fffcaf" stroke="black" points="627.5,-19 562.5,-19 562.5,0 627.5,0 627.5,-19"/>
<text text-anchor="middle" x="595" y="-7" font-family="Helvetica,sans-Serif" font-size="10.00">RipRouter</text>
</a>
</g>
</g>
<!-- Router&#45;&gt;RipRouter -->
<g id="edge8" class="edge">
<title>Router&#45;&gt;RipRouter</title>
<path fill="none" stroke="black" d="M392.29,-57.21C434.77,-47.42 516.56,-28.57 562.19,-18.06"/>
</g>
<!-- Router6 -->
<g id="node10" class="node">
<title>Router6</title>
<g id="a_node10"><a xlink:href="inet.node.ipv6.Router6.html" xlink:title="Compound Module Router6" target="_parent">
<polygon fill="#fffcaf" stroke="black" points="700.5,-19 645.5,-19 645.5,0 700.5,0 700.5,-19"/>
<text text-anchor="middle" x="673" y="-7" font-family="Helvetica,sans-Serif" font-size="10.00">Router6</text>
</a>
</g>
</g>
<!-- Router&#45;&gt;Router6 -->
<g id="edge9" class="edge">
<title>Router&#45;&gt;Router6</title>
<path fill="none" stroke="black" d="M392.14,-59.7C441.2,-52.69 547.84,-36.8 637,-19 639.65,-18.47 642.39,-17.89 645.13,-17.28"/>
</g>
<!-- ApplicationLayerNodeBase -->
<g id="node2" class="node">
<title>ApplicationLayerNodeBase</title>
<g id="a_node2"><a xlink:href="inet.node.base.ApplicationLayerNodeBase.html" xlink:title="Compound Module ApplicationLayerNodeBase" target="_parent">
<polygon fill="#fffcaf" stroke="black" points="439,-129 291,-129 291,-110 439,-110 439,-129"/>
<text text-anchor="middle" x="365" y="-117" font-family="Helvetica,sans-Serif" font-size="10.00">ApplicationLayerNodeBase</text>
</a>
</g>
</g>
<!-- ApplicationLayerNodeBase&#45;&gt;Router -->
<g id="edge1" class="edge">
<title>ApplicationLayerNodeBase&#45;&gt;Router</title>
<path fill="none" stroke="black" d="M365,-109.75C365,-99.87 365,-83.9 365,-74.09"/>
</g>
</g>
</svg>
