<?xml version="1.0" encoding="UTF-8" standalone="no"?>
<!DOCTYPE svg PUBLIC "-//W3C//DTD SVG 1.1//EN"
 "http://www.w3.org/Graphics/SVG/1.1/DTD/svg11.dtd">
<!-- Generated by graphviz version 2.43.0 (0)
 -->
<!-- Title: opp Pages: 1 -->
<svg width="212pt" height="137pt"
 viewBox="0.00 0.00 212.00 137.00" xmlns="http://www.w3.org/2000/svg" xmlns:xlink="http://www.w3.org/1999/xlink">
<g id="graph0" class="graph" transform="scale(1 1) rotate(0) translate(4 133)">
<title>opp</title>
<polygon fill="transparent" stroke="transparent" points="-4,4 -4,-133 208,-133 208,4 -4,4"/>
<!-- ServerHost1 -->
<g id="node1" class="node">
<title>ServerHost1</title>
<g id="a_node1"><a xlink:href="inet.tutorials.protocol.ServerHost1.html" xlink:title="Compound Module ServerHost1" target="_parent">
<polygon fill="#fff700" stroke="black" points="146.5,-74 69.5,-74 69.5,-55 146.5,-55 146.5,-74"/>
<text text-anchor="middle" x="108" y="-62" font-family="Helvetica,sans-Serif" font-size="10.00">ServerHost1</text>
</a>
</g>
</g>
<!-- PassivePacketSink -->
<g id="node2" class="node">
<title>PassivePacketSink</title>
<g id="a_node2"><a xlink:href="inet.queueing.sink.PassivePacketSink.html" xlink:title="Simple Module PassivePacketSink" target="_parent">
<polygon fill="#fffcaf" stroke="black" points="106,-19 0,-19 0,0 106,0 106,-19"/>
<text text-anchor="middle" x="53" y="-7" font-family="Helvetica,sans-Serif" font-size="10.00">PassivePacketSink</text>
</a>
</g>
</g>
<!-- ServerHost1&#45;&gt;PassivePacketSink -->
<g id="edge1" class="edge">
<title>ServerHost1&#45;&gt;PassivePacketSink</title>
<path fill="none" stroke="black" d="M98.92,-54.75C90.91,-47.03 79.04,-35.6 69.38,-26.28"/>
<polygon fill="black" stroke="black" points="71.54,-23.51 61.91,-19.09 66.69,-28.55 71.54,-23.51"/>
</g>
<!-- IdealChannel -->
<g id="node3" class="node">
<title>IdealChannel</title>
<g id="a_node3"><a xlink:href="ned.IdealChannel.html" xlink:title="Channel IdealChannel" target="_parent">
<polygon fill="#d0ffd0" stroke="black" points="204,-19 124,-19 124,0 204,0 204,-19"/>
<text text-anchor="middle" x="164" y="-7" font-family="Helvetica,sans-Serif" font-size="10.00">IdealChannel</text>
</a>
</g>
</g>
<!-- ServerHost1&#45;&gt;IdealChannel -->
<g id="edge2" class="edge">
<title>ServerHost1&#45;&gt;IdealChannel</title>
<path fill="none" stroke="black" d="M117,-54.98C125.19,-47.23 137.51,-35.58 147.47,-26.14"/>
<polygon fill="black" stroke="black" points="149.98,-28.59 154.84,-19.17 145.17,-23.5 149.98,-28.59"/>
</g>
<!-- Network1 -->
<g id="node4" class="node">
<title>Network1</title>
<g id="a_node4"><a xlink:href="inet.tutorials.protocol.Network1.html" xlink:title="Network Network1" target="_parent">
<polygon fill="#d0d0ff" stroke="black" points="140,-129 76,-129 76,-110 140,-110 140,-129"/>
<text text-anchor="middle" x="108" y="-117" font-family="Helvetica,sans-Serif" font-size="10.00">Network1</text>
</a>
</g>
</g>
<!-- Network1&#45;&gt;ServerHost1 -->
<g id="edge3" class="edge">
<title>Network1&#45;&gt;ServerHost1</title>
<path fill="none" stroke="black" d="M108,-109.75C108,-102.8 108,-92.85 108,-84.13"/>
<polygon fill="black" stroke="black" points="111.5,-84.09 108,-74.09 104.5,-84.09 111.5,-84.09"/>
</g>
</g>
</svg>
