<?xml version="1.0" encoding="UTF-8" standalone="no"?>
<!DOCTYPE svg PUBLIC "-//W3C//DTD SVG 1.1//EN"
 "http://www.w3.org/Graphics/SVG/1.1/DTD/svg11.dtd">
<!-- Generated by graphviz version 2.43.0 (0)
 -->
<!-- Title: opp Pages: 1 -->
<svg width="220pt" height="82pt"
 viewBox="0.00 0.00 219.50 82.00" xmlns="http://www.w3.org/2000/svg" xmlns:xlink="http://www.w3.org/1999/xlink">
<g id="graph0" class="graph" transform="scale(1 1) rotate(0) translate(4 78)">
<title>opp</title>
<polygon fill="transparent" stroke="transparent" points="-4,4 -4,-78 215.5,-78 215.5,4 -4,4"/>
<!-- ContentBasedLabeler -->
<g id="node1" class="node">
<title>ContentBasedLabeler</title>
<g id="a_node1"><a xlink:href="inet.queueing.marker.ContentBasedLabeler.html" xlink:title="Simple Module ContentBasedLabeler" target="_parent">
<polygon fill="#fff700" stroke="black" points="171.5,-19 50.5,-19 50.5,0 171.5,0 171.5,-19"/>
<text text-anchor="middle" x="111" y="-7" font-family="Helvetica,sans-Serif" font-size="10.00">ContentBasedLabeler</text>
</a>
</g>
</g>
<!-- PacketLabelerBase -->
<g id="node2" class="node">
<title>PacketLabelerBase</title>
<g id="a_node2"><a xlink:href="inet.queueing.base.PacketLabelerBase.html" xlink:title="Simple Module PacketLabelerBase" target="_parent">
<polygon fill="#fffcaf" stroke="black" points="108,-74 0,-74 0,-55 108,-55 108,-74"/>
<text text-anchor="middle" x="54" y="-62" font-family="Helvetica,sans-Serif" font-size="10.00">PacketLabelerBase</text>
</a>
</g>
</g>
<!-- PacketLabelerBase&#45;&gt;ContentBasedLabeler -->
<g id="edge1" class="edge">
<title>PacketLabelerBase&#45;&gt;ContentBasedLabeler</title>
<path fill="none" stroke="black" d="M63.16,-54.98C73.73,-45.15 91.03,-29.07 101.68,-19.17"/>
</g>
<!-- IPacketMarker -->
<g id="node3" class="node">
<title>IPacketMarker</title>
<g id="a_node3"><a xlink:href="inet.queueing.contract.IPacketMarker.html" xlink:title="Module Interface IPacketMarker" target="_parent">
<polygon fill="#fffcaf" stroke="black" stroke-dasharray="5,2" points="211.5,-74 126.5,-74 126.5,-55 211.5,-55 211.5,-74"/>
<text text-anchor="middle" x="169" y="-62" font-family="Helvetica,sans-Serif" font-size="10.00">IPacketMarker</text>
</a>
</g>
</g>
<!-- IPacketMarker&#45;&gt;ContentBasedLabeler -->
<g id="edge2" class="edge">
<title>IPacketMarker&#45;&gt;ContentBasedLabeler</title>
<path fill="none" stroke="black" stroke-dasharray="5,2" d="M159.68,-54.98C148.92,-45.15 131.32,-29.07 120.49,-19.17"/>
</g>
</g>
</svg>
