<?xml version="1.0" encoding="UTF-8" standalone="no"?>
<!DOCTYPE svg PUBLIC "-//W3C//DTD SVG 1.1//EN"
 "http://www.w3.org/Graphics/SVG/1.1/DTD/svg11.dtd">
<!-- Generated by graphviz version 2.43.0 (0)
 -->
<!-- Title: opp Pages: 1 -->
<svg width="474pt" height="82pt"
 viewBox="0.00 0.00 474.00 82.00" xmlns="http://www.w3.org/2000/svg" xmlns:xlink="http://www.w3.org/1999/xlink">
<g id="graph0" class="graph" transform="scale(1 1) rotate(0) translate(4 78)">
<title>opp</title>
<polygon fill="transparent" stroke="transparent" points="-4,4 -4,-78 470,-78 470,4 -4,4"/>
<!-- ISceneVisualizer -->
<g id="node1" class="node">
<title>ISceneVisualizer</title>
<g id="a_node1"><a xlink:href="inet.visualizer.contract.ISceneVisualizer.html" xlink:title="Module Interface ISceneVisualizer" target="_parent">
<polygon fill="#fff700" stroke="black" stroke-dasharray="5,2" points="337.5,-74 240.5,-74 240.5,-55 337.5,-55 337.5,-74"/>
<text text-anchor="middle" x="289" y="-62" font-family="Helvetica,sans-Serif" font-size="10.00">ISceneVisualizer</text>
</a>
</g>
</g>
<!-- OpenStreetMapSceneCanvasVisualizer -->
<g id="node2" class="node">
<title>OpenStreetMapSceneCanvasVisualizer</title>
<g id="a_node2"><a xlink:href="inet.visualizer.canvas.scene.OpenStreetMapSceneCanvasVisualizer.html" xlink:title="Simple Module OpenStreetMapSceneCanvasVisualizer" target="_parent">
<polygon fill="#fffcaf" stroke="black" points="206,-19 0,-19 0,0 206,0 206,-19"/>
<text text-anchor="middle" x="103" y="-7" font-family="Helvetica,sans-Serif" font-size="10.00">OpenStreetMapSceneCanvasVisualizer</text>
</a>
</g>
</g>
<!-- ISceneVisualizer&#45;&gt;OpenStreetMapSceneCanvasVisualizer -->
<g id="edge1" class="edge">
<title>ISceneVisualizer&#45;&gt;OpenStreetMapSceneCanvasVisualizer</title>
<path fill="none" stroke="black" stroke-dasharray="5,2" d="M259.12,-54.98C224.51,-45.12 167.82,-28.97 133.12,-19.08"/>
</g>
<!-- SceneCanvasVisualizer -->
<g id="node3" class="node">
<title>SceneCanvasVisualizer</title>
<g id="a_node3"><a xlink:href="inet.visualizer.canvas.scene.SceneCanvasVisualizer.html" xlink:title="Simple Module SceneCanvasVisualizer" target="_parent">
<polygon fill="#fffcaf" stroke="black" points="354,-19 224,-19 224,0 354,0 354,-19"/>
<text text-anchor="middle" x="289" y="-7" font-family="Helvetica,sans-Serif" font-size="10.00">SceneCanvasVisualizer</text>
</a>
</g>
</g>
<!-- ISceneVisualizer&#45;&gt;SceneCanvasVisualizer -->
<g id="edge2" class="edge">
<title>ISceneVisualizer&#45;&gt;SceneCanvasVisualizer</title>
<path fill="none" stroke="black" stroke-dasharray="5,2" d="M289,-54.75C289,-44.87 289,-28.9 289,-19.09"/>
</g>
<!-- SceneVisualizer -->
<g id="node4" class="node">
<title>SceneVisualizer</title>
<g id="a_node4"><a xlink:href="inet.visualizer.common.SceneVisualizer.html" xlink:title="Compound Module SceneVisualizer" target="_parent">
<polygon fill="#fffcaf" stroke="black" points="466,-19 372,-19 372,0 466,0 466,-19"/>
<text text-anchor="middle" x="419" y="-7" font-family="Helvetica,sans-Serif" font-size="10.00">SceneVisualizer</text>
</a>
</g>
</g>
<!-- ISceneVisualizer&#45;&gt;SceneVisualizer -->
<g id="edge3" class="edge">
<title>ISceneVisualizer&#45;&gt;SceneVisualizer</title>
<path fill="none" stroke="black" stroke-dasharray="5,2" d="M309.89,-54.98C334,-45.15 373.46,-29.07 397.73,-19.17"/>
</g>
</g>
</svg>
