<?xml version="1.0" encoding="UTF-8" standalone="no"?>
<!DOCTYPE svg PUBLIC "-//W3C//DTD SVG 1.1//EN"
 "http://www.w3.org/Graphics/SVG/1.1/DTD/svg11.dtd">
<!-- Generated by graphviz version 2.43.0 (0)
 -->
<!-- Title: opp Pages: 1 -->
<svg width="238pt" height="82pt"
 viewBox="0.00 0.00 237.50 82.00" xmlns="http://www.w3.org/2000/svg" xmlns:xlink="http://www.w3.org/1999/xlink">
<g id="graph0" class="graph" transform="scale(1 1) rotate(0) translate(4 78)">
<title>opp</title>
<polygon fill="transparent" stroke="transparent" points="-4,4 -4,-78 233.5,-78 233.5,4 -4,4"/>
<!-- Network91 -->
<g id="node1" class="node">
<title>Network91</title>
<g id="a_node1"><a xlink:href="inet.tutorials.protocol.Network91.html" xlink:title="Network Network91" target="_parent">
<polygon fill="#9090ff" stroke="black" points="165.5,-74 95.5,-74 95.5,-55 165.5,-55 165.5,-74"/>
<text text-anchor="middle" x="130.5" y="-62" font-family="Helvetica,sans-Serif" font-size="10.00">Network91</text>
</a>
</g>
</g>
<!-- DelayChannel -->
<g id="node2" class="node">
<title>DelayChannel</title>
<g id="a_node2"><a xlink:href="ned.DelayChannel.html" xlink:title="Channel DelayChannel" target="_parent">
<polygon fill="#d0ffd0" stroke="black" points="85,-19 0,-19 0,0 85,0 85,-19"/>
<text text-anchor="middle" x="42.5" y="-7" font-family="Helvetica,sans-Serif" font-size="10.00">DelayChannel</text>
</a>
</g>
</g>
<!-- Network91&#45;&gt;DelayChannel -->
<g id="edge1" class="edge">
<title>Network91&#45;&gt;DelayChannel</title>
<path fill="none" stroke="black" d="M116.36,-54.98C102.71,-46.77 81.81,-34.18 65.72,-24.49"/>
<polygon fill="black" stroke="black" points="67.27,-21.33 56.9,-19.17 63.66,-27.33 67.27,-21.33"/>
</g>
<!-- Router -->
<g id="node3" class="node">
<title>Router</title>
<g id="a_node3"><a xlink:href="inet.tutorials.protocol.Router.html" xlink:title="Network Router" target="_parent">
<polygon fill="#d0d0ff" stroke="black" points="157.5,-19 103.5,-19 103.5,0 157.5,0 157.5,-19"/>
<text text-anchor="middle" x="130.5" y="-7" font-family="Helvetica,sans-Serif" font-size="10.00">Router</text>
</a>
</g>
</g>
<!-- Network91&#45;&gt;Router -->
<g id="edge2" class="edge">
<title>Network91&#45;&gt;Router</title>
<path fill="none" stroke="black" d="M130.5,-54.75C130.5,-47.8 130.5,-37.85 130.5,-29.13"/>
<polygon fill="black" stroke="black" points="134,-29.09 130.5,-19.09 127,-29.09 134,-29.09"/>
</g>
<!-- Host -->
<g id="node4" class="node">
<title>Host</title>
<g id="a_node4"><a xlink:href="inet.tutorials.protocol.Host.html" xlink:title="Compound Module Host" target="_parent">
<polygon fill="#fffcaf" stroke="black" points="229.5,-19 175.5,-19 175.5,0 229.5,0 229.5,-19"/>
<text text-anchor="middle" x="202.5" y="-7" font-family="Helvetica,sans-Serif" font-size="10.00">Host</text>
</a>
</g>
</g>
<!-- Network91&#45;&gt;Host -->
<g id="edge3" class="edge">
<title>Network91&#45;&gt;Host</title>
<path fill="none" stroke="black" d="M142.07,-54.98C152.92,-47 169.38,-34.88 182.38,-25.31"/>
<polygon fill="black" stroke="black" points="184.74,-27.92 190.72,-19.17 180.59,-22.28 184.74,-27.92"/>
</g>
</g>
</svg>
