<?xml version="1.0" encoding="UTF-8" standalone="no"?>
<!DOCTYPE svg PUBLIC "-//W3C//DTD SVG 1.1//EN"
 "http://www.w3.org/Graphics/SVG/1.1/DTD/svg11.dtd">
<!-- Generated by graphviz version 2.43.0 (0)
 -->
<!-- Title: opp Pages: 1 -->
<svg width="524pt" height="137pt"
 viewBox="0.00 0.00 523.50 137.00" xmlns="http://www.w3.org/2000/svg" xmlns:xlink="http://www.w3.org/1999/xlink">
<g id="graph0" class="graph" transform="scale(1 1) rotate(0) translate(4 133)">
<title>opp</title>
<polygon fill="transparent" stroke="transparent" points="-4,4 -4,-133 519.5,-133 519.5,4 -4,4"/>
<!-- TransportRouteVisualizer -->
<g id="node1" class="node">
<title>TransportRouteVisualizer</title>
<g id="a_node1"><a xlink:href="inet.visualizer.common.TransportRouteVisualizer.html" xlink:title="Compound Module TransportRouteVisualizer" target="_parent">
<polygon fill="#fff700" stroke="black" points="323,-74 185,-74 185,-55 323,-55 323,-74"/>
<text text-anchor="middle" x="254" y="-62" font-family="Helvetica,sans-Serif" font-size="10.00">TransportRouteVisualizer</text>
</a>
</g>
</g>
<!-- ITransportRouteVisualizer -->
<g id="node2" class="node">
<title>ITransportRouteVisualizer</title>
<g id="a_node2"><a xlink:href="inet.visualizer.contract.ITransportRouteVisualizer.html" xlink:title="Module Interface ITransportRouteVisualizer" target="_parent">
<polygon fill="#fffcaf" stroke="black" stroke-dasharray="5,2" points="324.5,-19 183.5,-19 183.5,0 324.5,0 324.5,-19"/>
<text text-anchor="middle" x="254" y="-7" font-family="Helvetica,sans-Serif" font-size="10.00">ITransportRouteVisualizer</text>
</a>
</g>
</g>
<!-- TransportRouteVisualizer&#45;&gt;ITransportRouteVisualizer -->
<g id="edge1" class="edge">
<title>TransportRouteVisualizer&#45;&gt;ITransportRouteVisualizer</title>
<path fill="none" stroke="black" d="M254,-54.75C254,-47.8 254,-37.85 254,-29.13"/>
<polygon fill="black" stroke="black" points="257.5,-29.09 254,-19.09 250.5,-29.09 257.5,-29.09"/>
</g>
<!-- TransportPathVisualizerSimpleWiredShowcase -->
<g id="node3" class="node">
<title>TransportPathVisualizerSimpleWiredShowcase</title>
<g id="a_node3"><a xlink:href="inet.showcases.visualizer.canvas.transportpathactivity.TransportPathVisualizerSimpleWiredShowcase.html" xlink:title="Network TransportPathVisualizerSimpleWiredShowcase" target="_parent">
<polygon fill="#d0d0ff" stroke="black" points="242,-129 0,-129 0,-110 242,-110 242,-129"/>
<text text-anchor="middle" x="121" y="-117" font-family="Helvetica,sans-Serif" font-size="10.00">TransportPathVisualizerSimpleWiredShowcase</text>
</a>
</g>
</g>
<!-- TransportPathVisualizerSimpleWiredShowcase&#45;&gt;TransportRouteVisualizer -->
<g id="edge2" class="edge">
<title>TransportPathVisualizerSimpleWiredShowcase&#45;&gt;TransportRouteVisualizer</title>
<path fill="none" stroke="black" d="M142.37,-109.98C164.15,-101.3 198.16,-87.75 222.92,-77.88"/>
<polygon fill="black" stroke="black" points="224.25,-81.12 232.24,-74.17 221.66,-74.62 224.25,-81.12"/>
</g>
<!-- TransportPathVisualizerSimpleWirelessShowcase -->
<g id="node4" class="node">
<title>TransportPathVisualizerSimpleWirelessShowcase</title>
<g id="a_node4"><a xlink:href="inet.showcases.visualizer.canvas.transportpathactivity.TransportPathVisualizerSimpleWirelessShowcase.html" xlink:title="Network TransportPathVisualizerSimpleWirelessShowcase" target="_parent">
<polygon fill="#d0d0ff" stroke="black" points="515.5,-129 260.5,-129 260.5,-110 515.5,-110 515.5,-129"/>
<text text-anchor="middle" x="388" y="-117" font-family="Helvetica,sans-Serif" font-size="10.00">TransportPathVisualizerSimpleWirelessShowcase</text>
</a>
</g>
</g>
<!-- TransportPathVisualizerSimpleWirelessShowcase&#45;&gt;TransportRouteVisualizer -->
<g id="edge3" class="edge">
<title>TransportPathVisualizerSimpleWirelessShowcase&#45;&gt;TransportRouteVisualizer</title>
<path fill="none" stroke="black" d="M366.47,-109.98C344.53,-101.3 310.26,-87.75 285.31,-77.88"/>
<polygon fill="black" stroke="black" points="286.51,-74.59 275.92,-74.17 283.93,-81.1 286.51,-74.59"/>
</g>
</g>
</svg>
