<?xml version="1.0" encoding="UTF-8" standalone="no"?>
<!DOCTYPE svg PUBLIC "-//W3C//DTD SVG 1.1//EN"
 "http://www.w3.org/Graphics/SVG/1.1/DTD/svg11.dtd">
<!-- Generated by graphviz version 2.43.0 (0)
 -->
<!-- Title: opp Pages: 1 -->
<svg width="434pt" height="82pt"
 viewBox="0.00 0.00 434.00 82.00" xmlns="http://www.w3.org/2000/svg" xmlns:xlink="http://www.w3.org/1999/xlink">
<g id="graph0" class="graph" transform="scale(1 1) rotate(0) translate(4 78)">
<title>opp</title>
<polygon fill="transparent" stroke="transparent" points="-4,4 -4,-78 430,-78 430,4 -4,4"/>
<!-- ComparatorTutorialStep -->
<g id="node1" class="node">
<title>ComparatorTutorialStep</title>
<g id="a_node1"><a xlink:href="inet.tutorials.queueing.ComparatorTutorialStep.html" xlink:title="Network ComparatorTutorialStep" target="_parent">
<polygon fill="#9090ff" stroke="black" points="261,-74 129,-74 129,-55 261,-55 261,-74"/>
<text text-anchor="middle" x="195" y="-62" font-family="Helvetica,sans-Serif" font-size="10.00">ComparatorTutorialStep</text>
</a>
</g>
</g>
<!-- PacketQueue -->
<g id="node2" class="node">
<title>PacketQueue</title>
<g id="a_node2"><a xlink:href="inet.queueing.queue.PacketQueue.html" xlink:title="Simple Module PacketQueue" target="_parent">
<polygon fill="#fffcaf" stroke="black" points="80,-19 0,-19 0,0 80,0 80,-19"/>
<text text-anchor="middle" x="40" y="-7" font-family="Helvetica,sans-Serif" font-size="10.00">PacketQueue</text>
</a>
</g>
</g>
<!-- ComparatorTutorialStep&#45;&gt;PacketQueue -->
<g id="edge1" class="edge">
<title>ComparatorTutorialStep&#45;&gt;PacketQueue</title>
<path fill="none" stroke="black" d="M170.1,-54.98C144.3,-46.16 103.78,-32.31 74.82,-22.41"/>
<polygon fill="black" stroke="black" points="75.69,-19.01 65.1,-19.08 73.43,-25.63 75.69,-19.01"/>
</g>
<!-- IdealChannel -->
<g id="node3" class="node">
<title>IdealChannel</title>
<g id="a_node3"><a xlink:href="ned.IdealChannel.html" xlink:title="Channel IdealChannel" target="_parent">
<polygon fill="#d0ffd0" stroke="black" points="178,-19 98,-19 98,0 178,0 178,-19"/>
<text text-anchor="middle" x="138" y="-7" font-family="Helvetica,sans-Serif" font-size="10.00">IdealChannel</text>
</a>
</g>
</g>
<!-- ComparatorTutorialStep&#45;&gt;IdealChannel -->
<g id="edge2" class="edge">
<title>ComparatorTutorialStep&#45;&gt;IdealChannel</title>
<path fill="none" stroke="black" d="M185.84,-54.98C177.5,-47.23 164.97,-35.58 154.82,-26.14"/>
<polygon fill="black" stroke="black" points="157.03,-23.42 147.32,-19.17 152.26,-28.54 157.03,-23.42"/>
</g>
<!-- ActivePacketSource -->
<g id="node4" class="node">
<title>ActivePacketSource</title>
<g id="a_node4"><a xlink:href="inet.queueing.source.ActivePacketSource.html" xlink:title="Simple Module ActivePacketSource" target="_parent">
<polygon fill="#fffcaf" stroke="black" points="308,-19 196,-19 196,0 308,0 308,-19"/>
<text text-anchor="middle" x="252" y="-7" font-family="Helvetica,sans-Serif" font-size="10.00">ActivePacketSource</text>
</a>
</g>
</g>
<!-- ComparatorTutorialStep&#45;&gt;ActivePacketSource -->
<g id="edge3" class="edge">
<title>ComparatorTutorialStep&#45;&gt;ActivePacketSource</title>
<path fill="none" stroke="black" d="M204.16,-54.98C212.5,-47.23 225.03,-35.58 235.18,-26.14"/>
<polygon fill="black" stroke="black" points="237.74,-28.54 242.68,-19.17 232.97,-23.42 237.74,-28.54"/>
</g>
<!-- ActivePacketSink -->
<g id="node5" class="node">
<title>ActivePacketSink</title>
<g id="a_node5"><a xlink:href="inet.queueing.sink.ActivePacketSink.html" xlink:title="Simple Module ActivePacketSink" target="_parent">
<polygon fill="#fffcaf" stroke="black" points="426,-19 326,-19 326,0 426,0 426,-19"/>
<text text-anchor="middle" x="376" y="-7" font-family="Helvetica,sans-Serif" font-size="10.00">ActivePacketSink</text>
</a>
</g>
</g>
<!-- ComparatorTutorialStep&#45;&gt;ActivePacketSink -->
<g id="edge4" class="edge">
<title>ComparatorTutorialStep&#45;&gt;ActivePacketSink</title>
<path fill="none" stroke="black" d="M224.08,-54.98C254.6,-46.05 302.76,-31.94 336.66,-22.02"/>
<polygon fill="black" stroke="black" points="338.08,-25.25 346.69,-19.08 336.11,-18.53 338.08,-25.25"/>
</g>
</g>
</svg>
