<?xml version="1.0" encoding="UTF-8" standalone="no"?>
<!DOCTYPE svg PUBLIC "-//W3C//DTD SVG 1.1//EN"
 "http://www.w3.org/Graphics/SVG/1.1/DTD/svg11.dtd">
<!-- Generated by graphviz version 2.43.0 (0)
 -->
<!-- Title: opp Pages: 1 -->
<svg width="412pt" height="82pt"
 viewBox="0.00 0.00 411.50 82.00" xmlns="http://www.w3.org/2000/svg" xmlns:xlink="http://www.w3.org/1999/xlink">
<g id="graph0" class="graph" transform="scale(1 1) rotate(0) translate(4 78)">
<title>opp</title>
<polygon fill="transparent" stroke="transparent" points="-4,4 -4,-78 407.5,-78 407.5,4 -4,4"/>
<!-- RIPInfinityCountTest -->
<g id="node1" class="node">
<title>RIPInfinityCountTest</title>
<g id="a_node1"><a xlink:href="inet.examples.rip.infinitycount.RIPInfinityCountTest.html" xlink:title="Network RIPInfinityCountTest" target="_parent">
<polygon fill="#9090ff" stroke="black" points="256,-74 142,-74 142,-55 256,-55 256,-74"/>
<text text-anchor="middle" x="199" y="-62" font-family="Helvetica,sans-Serif" font-size="10.00">RIPInfinityCountTest</text>
</a>
</g>
</g>
<!-- C -->
<g id="node2" class="node">
<title>C</title>
<g id="a_node2"><a xlink:href="inet.examples.rip.infinitycount.RIPInfinityCountTest.C.html" xlink:title="Channel C" target="_parent">
<polygon fill="#d0ffd0" stroke="black" points="54,-19 0,-19 0,0 54,0 54,-19"/>
<text text-anchor="middle" x="27" y="-7" font-family="Helvetica,sans-Serif" font-size="10.00">C</text>
</a>
</g>
</g>
<!-- RIPInfinityCountTest&#45;&gt;C -->
<g id="edge1" class="edge">
<title>RIPInfinityCountTest&#45;&gt;C</title>
<path fill="none" stroke="black" d="M171.37,-54.98C142.32,-46.03 96.45,-31.9 64.23,-21.97"/>
<polygon fill="black" stroke="black" points="64.87,-18.51 54.28,-18.91 62.81,-25.2 64.87,-18.51"/>
</g>
<!-- Ipv4NetworkConfigurator -->
<g id="node3" class="node">
<title>Ipv4NetworkConfigurator</title>
<g id="a_node3"><a xlink:href="inet.networklayer.configurator.ipv4.Ipv4NetworkConfigurator.html" xlink:title="Simple Module Ipv4NetworkConfigurator" target="_parent">
<polygon fill="#fffcaf" stroke="black" points="211.5,-19 72.5,-19 72.5,0 211.5,0 211.5,-19"/>
<text text-anchor="middle" x="142" y="-7" font-family="Helvetica,sans-Serif" font-size="10.00">Ipv4NetworkConfigurator</text>
</a>
</g>
</g>
<!-- RIPInfinityCountTest&#45;&gt;Ipv4NetworkConfigurator -->
<g id="edge2" class="edge">
<title>RIPInfinityCountTest&#45;&gt;Ipv4NetworkConfigurator</title>
<path fill="none" stroke="black" d="M189.84,-54.98C181.5,-47.23 168.97,-35.58 158.82,-26.14"/>
<polygon fill="black" stroke="black" points="161.03,-23.42 151.32,-19.17 156.26,-28.54 161.03,-23.42"/>
</g>
<!-- Router -->
<g id="node4" class="node">
<title>Router</title>
<g id="a_node4"><a xlink:href="inet.node.inet.Router.html" xlink:title="Compound Module Router" target="_parent">
<polygon fill="#fffcaf" stroke="black" points="284,-19 230,-19 230,0 284,0 284,-19"/>
<text text-anchor="middle" x="257" y="-7" font-family="Helvetica,sans-Serif" font-size="10.00">Router</text>
</a>
</g>
</g>
<!-- RIPInfinityCountTest&#45;&gt;Router -->
<g id="edge3" class="edge">
<title>RIPInfinityCountTest&#45;&gt;Router</title>
<path fill="none" stroke="black" d="M208.32,-54.98C216.81,-47.23 229.56,-35.58 239.88,-26.14"/>
<polygon fill="black" stroke="black" points="242.49,-28.5 247.51,-19.17 237.77,-23.33 242.49,-28.5"/>
</g>
<!-- ScenarioManager -->
<g id="node5" class="node">
<title>ScenarioManager</title>
<g id="a_node5"><a xlink:href="inet.common.scenario.ScenarioManager.html" xlink:title="Simple Module ScenarioManager" target="_parent">
<polygon fill="#fffcaf" stroke="black" points="403.5,-19 302.5,-19 302.5,0 403.5,0 403.5,-19"/>
<text text-anchor="middle" x="353" y="-7" font-family="Helvetica,sans-Serif" font-size="10.00">ScenarioManager</text>
</a>
</g>
</g>
<!-- RIPInfinityCountTest&#45;&gt;ScenarioManager -->
<g id="edge4" class="edge">
<title>RIPInfinityCountTest&#45;&gt;ScenarioManager</title>
<path fill="none" stroke="black" d="M223.74,-54.98C249.37,-46.16 289.63,-32.31 318.41,-22.41"/>
<polygon fill="black" stroke="black" points="319.75,-25.65 328.06,-19.08 317.47,-19.03 319.75,-25.65"/>
</g>
</g>
</svg>
