<?xml version="1.0" encoding="UTF-8" standalone="no"?>
<!DOCTYPE svg PUBLIC "-//W3C//DTD SVG 1.1//EN"
 "http://www.w3.org/Graphics/SVG/1.1/DTD/svg11.dtd">
<!-- Generated by graphviz version 2.43.0 (0)
 -->
<!-- Title: opp Pages: 1 -->
<svg width="490pt" height="82pt"
 viewBox="0.00 0.00 490.00 82.00" xmlns="http://www.w3.org/2000/svg" xmlns:xlink="http://www.w3.org/1999/xlink">
<g id="graph0" class="graph" transform="scale(1 1) rotate(0) translate(4 78)">
<title>opp</title>
<polygon fill="transparent" stroke="transparent" points="-4,4 -4,-78 486,-78 486,4 -4,4"/>
<!-- ContentBasedClassifierTutorialStep -->
<g id="node1" class="node">
<title>ContentBasedClassifierTutorialStep</title>
<g id="a_node1"><a xlink:href="inet.tutorials.queueing.ContentBasedClassifierTutorialStep.html" xlink:title="Network ContentBasedClassifierTutorialStep" target="_parent">
<polygon fill="#9090ff" stroke="black" points="350,-74 162,-74 162,-55 350,-55 350,-74"/>
<text text-anchor="middle" x="256" y="-62" font-family="Helvetica,sans-Serif" font-size="10.00">ContentBasedClassifierTutorialStep</text>
</a>
</g>
</g>
<!-- ContentBasedClassifier -->
<g id="node2" class="node">
<title>ContentBasedClassifier</title>
<g id="a_node2"><a xlink:href="inet.queueing.classifier.ContentBasedClassifier.html" xlink:title="Simple Module ContentBasedClassifier" target="_parent">
<polygon fill="#fffcaf" stroke="black" points="130,-19 0,-19 0,0 130,0 130,-19"/>
<text text-anchor="middle" x="65" y="-7" font-family="Helvetica,sans-Serif" font-size="10.00">ContentBasedClassifier</text>
</a>
</g>
</g>
<!-- ContentBasedClassifierTutorialStep&#45;&gt;ContentBasedClassifier -->
<g id="edge1" class="edge">
<title>ContentBasedClassifierTutorialStep&#45;&gt;ContentBasedClassifier</title>
<path fill="none" stroke="black" d="M225.31,-54.98C192.83,-45.97 141.4,-31.7 105.59,-21.76"/>
<polygon fill="black" stroke="black" points="106.5,-18.38 95.93,-19.08 104.63,-25.13 106.5,-18.38"/>
</g>
<!-- PassivePacketSink -->
<g id="node3" class="node">
<title>PassivePacketSink</title>
<g id="a_node3"><a xlink:href="inet.queueing.sink.PassivePacketSink.html" xlink:title="Simple Module PassivePacketSink" target="_parent">
<polygon fill="#fffcaf" stroke="black" points="254,-19 148,-19 148,0 254,0 254,-19"/>
<text text-anchor="middle" x="201" y="-7" font-family="Helvetica,sans-Serif" font-size="10.00">PassivePacketSink</text>
</a>
</g>
</g>
<!-- ContentBasedClassifierTutorialStep&#45;&gt;PassivePacketSink -->
<g id="edge2" class="edge">
<title>ContentBasedClassifierTutorialStep&#45;&gt;PassivePacketSink</title>
<path fill="none" stroke="black" d="M246.92,-54.75C238.91,-47.03 227.04,-35.6 217.38,-26.28"/>
<polygon fill="black" stroke="black" points="219.54,-23.51 209.91,-19.09 214.69,-28.55 219.54,-23.51"/>
</g>
<!-- IdealChannel -->
<g id="node4" class="node">
<title>IdealChannel</title>
<g id="a_node4"><a xlink:href="ned.IdealChannel.html" xlink:title="Channel IdealChannel" target="_parent">
<polygon fill="#d0ffd0" stroke="black" points="352,-19 272,-19 272,0 352,0 352,-19"/>
<text text-anchor="middle" x="312" y="-7" font-family="Helvetica,sans-Serif" font-size="10.00">IdealChannel</text>
</a>
</g>
</g>
<!-- ContentBasedClassifierTutorialStep&#45;&gt;IdealChannel -->
<g id="edge3" class="edge">
<title>ContentBasedClassifierTutorialStep&#45;&gt;IdealChannel</title>
<path fill="none" stroke="black" d="M265,-54.98C273.19,-47.23 285.51,-35.58 295.47,-26.14"/>
<polygon fill="black" stroke="black" points="297.98,-28.59 302.84,-19.17 293.17,-23.5 297.98,-28.59"/>
</g>
<!-- ActivePacketSource -->
<g id="node5" class="node">
<title>ActivePacketSource</title>
<g id="a_node5"><a xlink:href="inet.queueing.source.ActivePacketSource.html" xlink:title="Simple Module ActivePacketSource" target="_parent">
<polygon fill="#fffcaf" stroke="black" points="482,-19 370,-19 370,0 482,0 482,-19"/>
<text text-anchor="middle" x="426" y="-7" font-family="Helvetica,sans-Serif" font-size="10.00">ActivePacketSource</text>
</a>
</g>
</g>
<!-- ContentBasedClassifierTutorialStep&#45;&gt;ActivePacketSource -->
<g id="edge4" class="edge">
<title>ContentBasedClassifierTutorialStep&#45;&gt;ActivePacketSource</title>
<path fill="none" stroke="black" d="M283.31,-54.98C311.85,-46.09 356.83,-32.07 388.64,-22.15"/>
<polygon fill="black" stroke="black" points="389.97,-25.4 398.47,-19.08 387.88,-18.72 389.97,-25.4"/>
</g>
</g>
</svg>
