<?xml version="1.0" encoding="UTF-8" standalone="no"?>
<!DOCTYPE svg PUBLIC "-//W3C//DTD SVG 1.1//EN"
 "http://www.w3.org/Graphics/SVG/1.1/DTD/svg11.dtd">
<!-- Generated by graphviz version 2.43.0 (0)
 -->
<!-- Title: opp Pages: 1 -->
<svg width="1273pt" height="82pt"
 viewBox="0.00 0.00 1273.00 82.00" xmlns="http://www.w3.org/2000/svg" xmlns:xlink="http://www.w3.org/1999/xlink">
<g id="graph0" class="graph" transform="scale(1 1) rotate(0) translate(4 78)">
<title>opp</title>
<polygon fill="transparent" stroke="transparent" points="-4,4 -4,-78 1269,-78 1269,4 -4,4"/>
<!-- EigrpProcessDS -->
<g id="node1" class="node">
<title>EigrpProcessDS</title>
<g id="a_node1"><a xlink:href="inet.routing.eigrp.EigrpProcessDS.html" xlink:title="Compound Module EigrpProcessDS" target="_parent">
<polygon fill="#fff700" stroke="black" points="687,-74 595,-74 595,-55 687,-55 687,-74"/>
<text text-anchor="middle" x="641" y="-62" font-family="Helvetica,sans-Serif" font-size="10.00">EigrpProcessDS</text>
</a>
</g>
</g>
<!-- EigrpRtp -->
<g id="node2" class="node">
<title>EigrpRtp</title>
<g id="a_node2"><a xlink:href="inet.routing.eigrp.EigrpRtp.html" xlink:title="Simple Module EigrpRtp" target="_parent">
<polygon fill="#fffcaf" stroke="black" points="58,-19 0,-19 0,0 58,0 58,-19"/>
<text text-anchor="middle" x="29" y="-7" font-family="Helvetica,sans-Serif" font-size="10.00">EigrpRtp</text>
</a>
</g>
</g>
<!-- EigrpProcessDS&#45;&gt;EigrpRtp -->
<g id="edge1" class="edge">
<title>EigrpProcessDS&#45;&gt;EigrpRtp</title>
<path fill="none" stroke="black" d="M594.99,-62.16C498.89,-58.88 269.75,-48.56 68.55,-19.02"/>
<polygon fill="black" stroke="black" points="68.79,-15.52 58.38,-17.51 67.76,-22.44 68.79,-15.52"/>
</g>
<!-- EigrpIpv6NeighborTable -->
<g id="node3" class="node">
<title>EigrpIpv6NeighborTable</title>
<g id="a_node3"><a xlink:href="inet.routing.eigrp.tables.EigrpIpv6NeighborTable.html" xlink:title="Simple Module EigrpIpv6NeighborTable" target="_parent">
<polygon fill="#fffcaf" stroke="black" points="208,-19 76,-19 76,0 208,0 208,-19"/>
<text text-anchor="middle" x="142" y="-7" font-family="Helvetica,sans-Serif" font-size="10.00">EigrpIpv6NeighborTable</text>
</a>
</g>
</g>
<!-- EigrpProcessDS&#45;&gt;EigrpIpv6NeighborTable -->
<g id="edge2" class="edge">
<title>EigrpProcessDS&#45;&gt;EigrpIpv6NeighborTable</title>
<path fill="none" stroke="black" d="M594.87,-58.79C518.8,-50.98 361.98,-34.78 218.55,-19.16"/>
<polygon fill="black" stroke="black" points="218.57,-15.64 208.25,-18.04 217.81,-22.6 218.57,-15.64"/>
</g>
<!-- EigrpInterfaceTable -->
<g id="node4" class="node">
<title>EigrpInterfaceTable</title>
<g id="a_node4"><a xlink:href="inet.routing.eigrp.tables.EigrpInterfaceTable.html" xlink:title="Simple Module EigrpInterfaceTable" target="_parent">
<polygon fill="#fffcaf" stroke="black" points="336,-19 226,-19 226,0 336,0 336,-19"/>
<text text-anchor="middle" x="281" y="-7" font-family="Helvetica,sans-Serif" font-size="10.00">EigrpInterfaceTable</text>
</a>
</g>
</g>
<!-- EigrpProcessDS&#45;&gt;EigrpInterfaceTable -->
<g id="edge3" class="edge">
<title>EigrpProcessDS&#45;&gt;EigrpInterfaceTable</title>
<path fill="none" stroke="black" d="M594.67,-56.68C531.59,-47.39 418.34,-30.72 346.56,-20.15"/>
<polygon fill="black" stroke="black" points="346.69,-16.63 336.29,-18.64 345.67,-23.56 346.69,-16.63"/>
</g>
<!-- EigrpIpv6TopologyTable -->
<g id="node5" class="node">
<title>EigrpIpv6TopologyTable</title>
<g id="a_node5"><a xlink:href="inet.routing.eigrp.tables.EigrpIpv6TopologyTable.html" xlink:title="Simple Module EigrpIpv6TopologyTable" target="_parent">
<polygon fill="#fffcaf" stroke="black" points="485.5,-19 354.5,-19 354.5,0 485.5,0 485.5,-19"/>
<text text-anchor="middle" x="420" y="-7" font-family="Helvetica,sans-Serif" font-size="10.00">EigrpIpv6TopologyTable</text>
</a>
</g>
</g>
<!-- EigrpProcessDS&#45;&gt;EigrpIpv6TopologyTable -->
<g id="edge4" class="edge">
<title>EigrpProcessDS&#45;&gt;EigrpIpv6TopologyTable</title>
<path fill="none" stroke="black" d="M605.49,-54.98C567.51,-45.87 507.13,-31.4 465.64,-21.45"/>
<polygon fill="black" stroke="black" points="466.33,-18.01 455.79,-19.08 464.69,-24.82 466.33,-18.01"/>
</g>
<!-- EigrpSplitter -->
<g id="node6" class="node">
<title>EigrpSplitter</title>
<g id="a_node6"><a xlink:href="inet.routing.eigrp.EigrpSplitter.html" xlink:title="Simple Module EigrpSplitter" target="_parent">
<polygon fill="#fffcaf" stroke="black" points="580.5,-19 503.5,-19 503.5,0 580.5,0 580.5,-19"/>
<text text-anchor="middle" x="542" y="-7" font-family="Helvetica,sans-Serif" font-size="10.00">EigrpSplitter</text>
</a>
</g>
</g>
<!-- EigrpProcessDS&#45;&gt;EigrpSplitter -->
<g id="edge5" class="edge">
<title>EigrpProcessDS&#45;&gt;EigrpSplitter</title>
<path fill="none" stroke="black" d="M625.09,-54.98C609.45,-46.61 585.34,-33.7 567.12,-23.95"/>
<polygon fill="black" stroke="black" points="568.66,-20.8 558.2,-19.17 565.36,-26.98 568.66,-20.8"/>
</g>
<!-- EigrpIpv6Pdm -->
<g id="node7" class="node">
<title>EigrpIpv6Pdm</title>
<g id="a_node7"><a xlink:href="inet.routing.eigrp.pdms.EigrpIpv6Pdm.html" xlink:title="Simple Module EigrpIpv6Pdm" target="_parent">
<polygon fill="#fffcaf" stroke="black" points="683,-19 599,-19 599,0 683,0 683,-19"/>
<text text-anchor="middle" x="641" y="-7" font-family="Helvetica,sans-Serif" font-size="10.00">EigrpIpv6Pdm</text>
</a>
</g>
</g>
<!-- EigrpProcessDS&#45;&gt;EigrpIpv6Pdm -->
<g id="edge6" class="edge">
<title>EigrpProcessDS&#45;&gt;EigrpIpv6Pdm</title>
<path fill="none" stroke="black" d="M641,-54.75C641,-47.8 641,-37.85 641,-29.13"/>
<polygon fill="black" stroke="black" points="644.5,-29.09 641,-19.09 637.5,-29.09 644.5,-29.09"/>
</g>
<!-- EigrpIpv4NeighborTable -->
<g id="node8" class="node">
<title>EigrpIpv4NeighborTable</title>
<g id="a_node8"><a xlink:href="inet.routing.eigrp.tables.EigrpIpv4NeighborTable.html" xlink:title="Simple Module EigrpIpv4NeighborTable" target="_parent">
<polygon fill="#fffcaf" stroke="black" points="833,-19 701,-19 701,0 833,0 833,-19"/>
<text text-anchor="middle" x="767" y="-7" font-family="Helvetica,sans-Serif" font-size="10.00">EigrpIpv4NeighborTable</text>
</a>
</g>
</g>
<!-- EigrpProcessDS&#45;&gt;EigrpIpv4NeighborTable -->
<g id="edge7" class="edge">
<title>EigrpProcessDS&#45;&gt;EigrpIpv4NeighborTable</title>
<path fill="none" stroke="black" d="M661.24,-54.98C681.7,-46.38 713.53,-32.99 736.93,-23.15"/>
<polygon fill="black" stroke="black" points="738.53,-26.27 746.39,-19.17 735.81,-19.82 738.53,-26.27"/>
</g>
<!-- EigrpIpv4Pdm -->
<g id="node9" class="node">
<title>EigrpIpv4Pdm</title>
<g id="a_node9"><a xlink:href="inet.routing.eigrp.pdms.EigrpIpv4Pdm.html" xlink:title="Simple Module EigrpIpv4Pdm" target="_parent">
<polygon fill="#fffcaf" stroke="black" points="935,-19 851,-19 851,0 935,0 935,-19"/>
<text text-anchor="middle" x="893" y="-7" font-family="Helvetica,sans-Serif" font-size="10.00">EigrpIpv4Pdm</text>
</a>
</g>
</g>
<!-- EigrpProcessDS&#45;&gt;EigrpIpv4Pdm -->
<g id="edge8" class="edge">
<title>EigrpProcessDS&#45;&gt;EigrpIpv4Pdm</title>
<path fill="none" stroke="black" d="M681.49,-54.98C725.17,-45.8 794.81,-31.15 842.15,-21.19"/>
<polygon fill="black" stroke="black" points="843.13,-24.57 852.19,-19.08 841.69,-17.72 843.13,-24.57"/>
</g>
<!-- IdealChannel -->
<g id="node10" class="node">
<title>IdealChannel</title>
<g id="a_node10"><a xlink:href="ned.IdealChannel.html" xlink:title="Channel IdealChannel" target="_parent">
<polygon fill="#d0ffd0" stroke="black" points="1033,-19 953,-19 953,0 1033,0 1033,-19"/>
<text text-anchor="middle" x="993" y="-7" font-family="Helvetica,sans-Serif" font-size="10.00">IdealChannel</text>
</a>
</g>
</g>
<!-- EigrpProcessDS&#45;&gt;IdealChannel -->
<g id="edge9" class="edge">
<title>EigrpProcessDS&#45;&gt;IdealChannel</title>
<path fill="none" stroke="black" d="M687.26,-57.09C744.76,-49.03 846.16,-34.55 942.95,-19.13"/>
<polygon fill="black" stroke="black" points="943.58,-22.58 952.9,-17.54 942.48,-15.67 943.58,-22.58"/>
</g>
<!-- EigrpIpv4TopologyTable -->
<g id="node11" class="node">
<title>EigrpIpv4TopologyTable</title>
<g id="a_node11"><a xlink:href="inet.routing.eigrp.tables.EigrpIpv4TopologyTable.html" xlink:title="Simple Module EigrpIpv4TopologyTable" target="_parent">
<polygon fill="#fffcaf" stroke="black" points="1182.5,-19 1051.5,-19 1051.5,0 1182.5,0 1182.5,-19"/>
<text text-anchor="middle" x="1117" y="-7" font-family="Helvetica,sans-Serif" font-size="10.00">EigrpIpv4TopologyTable</text>
</a>
</g>
</g>
<!-- EigrpProcessDS&#45;&gt;EigrpIpv4TopologyTable -->
<g id="edge10" class="edge">
<title>EigrpProcessDS&#45;&gt;EigrpIpv4TopologyTable</title>
<path fill="none" stroke="black" d="M687.01,-58.43C759.74,-50.41 906.03,-34.24 1041.04,-19.11"/>
<polygon fill="black" stroke="black" points="1041.6,-22.56 1051.15,-17.97 1040.82,-15.61 1041.6,-22.56"/>
</g>
<!-- EigrpRtp6 -->
<g id="node12" class="node">
<title>EigrpRtp6</title>
<g id="a_node12"><a xlink:href="inet.routing.eigrp.EigrpRtp6.html" xlink:title="Simple Module EigrpRtp6" target="_parent">
<polygon fill="#fffcaf" stroke="black" points="1265,-19 1201,-19 1201,0 1265,0 1265,-19"/>
<text text-anchor="middle" x="1233" y="-7" font-family="Helvetica,sans-Serif" font-size="10.00">EigrpRtp6</text>
</a>
</g>
</g>
<!-- EigrpProcessDS&#45;&gt;EigrpRtp6 -->
<g id="edge11" class="edge">
<title>EigrpProcessDS&#45;&gt;EigrpRtp6</title>
<path fill="none" stroke="black" d="M687.29,-61.7C780.68,-57.65 998.43,-46.09 1190.83,-18.99"/>
<polygon fill="black" stroke="black" points="1191.43,-22.44 1200.84,-17.56 1190.44,-15.51 1191.43,-22.44"/>
</g>
</g>
</svg>
