<?xml version="1.0" encoding="UTF-8" standalone="no"?>
<!DOCTYPE svg PUBLIC "-//W3C//DTD SVG 1.1//EN"
 "http://www.w3.org/Graphics/SVG/1.1/DTD/svg11.dtd">
<!-- Generated by graphviz version 2.43.0 (0)
 -->
<!-- Title: opp Pages: 1 -->
<svg width="422pt" height="82pt"
 viewBox="0.00 0.00 421.50 82.00" xmlns="http://www.w3.org/2000/svg" xmlns:xlink="http://www.w3.org/1999/xlink">
<g id="graph0" class="graph" transform="scale(1 1) rotate(0) translate(4 78)">
<title>opp</title>
<polygon fill="transparent" stroke="transparent" points="-4,4 -4,-78 417.5,-78 417.5,4 -4,4"/>
<!-- Voip -->
<g id="node1" class="node">
<title>Voip</title>
<g id="a_node1"><a xlink:href="inet.examples.voip.Voip.html" xlink:title="Network Voip" target="_parent">
<polygon fill="#9090ff" stroke="black" points="191,-74 137,-74 137,-55 191,-55 191,-74"/>
<text text-anchor="middle" x="164" y="-62" font-family="Helvetica,sans-Serif" font-size="10.00">Voip</text>
</a>
</g>
</g>
<!-- C -->
<g id="node2" class="node">
<title>C</title>
<g id="a_node2"><a xlink:href="inet.examples.voip.Voip.C.html" xlink:title="Channel C" target="_parent">
<polygon fill="#d0ffd0" stroke="black" points="54,-19 0,-19 0,0 54,0 54,-19"/>
<text text-anchor="middle" x="27" y="-7" font-family="Helvetica,sans-Serif" font-size="10.00">C</text>
</a>
</g>
</g>
<!-- Voip&#45;&gt;C -->
<g id="edge1" class="edge">
<title>Voip&#45;&gt;C</title>
<path fill="none" stroke="black" d="M141.99,-54.98C119.55,-46.3 84.52,-32.75 59.01,-22.88"/>
<polygon fill="black" stroke="black" points="60,-19.51 49.41,-19.17 57.48,-26.04 60,-19.51"/>
</g>
<!-- InternetCloud -->
<g id="node3" class="node">
<title>InternetCloud</title>
<g id="a_node3"><a xlink:href="inet.node.internetcloud.InternetCloud.html" xlink:title="Compound Module InternetCloud" target="_parent">
<polygon fill="#fffcaf" stroke="black" points="155.5,-19 72.5,-19 72.5,0 155.5,0 155.5,-19"/>
<text text-anchor="middle" x="114" y="-7" font-family="Helvetica,sans-Serif" font-size="10.00">InternetCloud</text>
</a>
</g>
</g>
<!-- Voip&#45;&gt;InternetCloud -->
<g id="edge2" class="edge">
<title>Voip&#45;&gt;InternetCloud</title>
<path fill="none" stroke="black" d="M155.74,-54.75C148.54,-47.11 137.89,-35.82 129.15,-26.56"/>
<polygon fill="black" stroke="black" points="131.51,-23.96 122.1,-19.09 126.42,-28.76 131.51,-23.96"/>
</g>
<!-- StandardHost -->
<g id="node4" class="node">
<title>StandardHost</title>
<g id="a_node4"><a xlink:href="inet.node.inet.StandardHost.html" xlink:title="Compound Module StandardHost" target="_parent">
<polygon fill="#fffcaf" stroke="black" points="256.5,-19 173.5,-19 173.5,0 256.5,0 256.5,-19"/>
<text text-anchor="middle" x="215" y="-7" font-family="Helvetica,sans-Serif" font-size="10.00">StandardHost</text>
</a>
</g>
</g>
<!-- Voip&#45;&gt;StandardHost -->
<g id="edge3" class="edge">
<title>Voip&#45;&gt;StandardHost</title>
<path fill="none" stroke="black" d="M172.42,-54.75C179.77,-47.11 190.63,-35.82 199.54,-26.56"/>
<polygon fill="black" stroke="black" points="202.32,-28.72 206.74,-19.09 197.28,-23.87 202.32,-28.72"/>
</g>
<!-- Ipv4NetworkConfigurator -->
<g id="node5" class="node">
<title>Ipv4NetworkConfigurator</title>
<g id="a_node5"><a xlink:href="inet.networklayer.configurator.ipv4.Ipv4NetworkConfigurator.html" xlink:title="Simple Module Ipv4NetworkConfigurator" target="_parent">
<polygon fill="#fffcaf" stroke="black" points="413.5,-19 274.5,-19 274.5,0 413.5,0 413.5,-19"/>
<text text-anchor="middle" x="344" y="-7" font-family="Helvetica,sans-Serif" font-size="10.00">Ipv4NetworkConfigurator</text>
</a>
</g>
</g>
<!-- Voip&#45;&gt;Ipv4NetworkConfigurator -->
<g id="edge4" class="edge">
<title>Voip&#45;&gt;Ipv4NetworkConfigurator</title>
<path fill="none" stroke="black" d="M191.34,-55.45C221.68,-46.52 270.89,-32.03 305.21,-21.92"/>
<polygon fill="black" stroke="black" points="306.31,-25.25 314.91,-19.07 304.33,-18.53 306.31,-25.25"/>
</g>
</g>
</svg>
