<?xml version="1.0" encoding="UTF-8" standalone="no"?>
<!DOCTYPE svg PUBLIC "-//W3C//DTD SVG 1.1//EN"
 "http://www.w3.org/Graphics/SVG/1.1/DTD/svg11.dtd">
<!-- Generated by graphviz version 2.43.0 (0)
 -->
<!-- Title: opp Pages: 1 -->
<svg width="442pt" height="82pt"
 viewBox="0.00 0.00 441.50 82.00" xmlns="http://www.w3.org/2000/svg" xmlns:xlink="http://www.w3.org/1999/xlink">
<g id="graph0" class="graph" transform="scale(1 1) rotate(0) translate(4 78)">
<title>opp</title>
<polygon fill="transparent" stroke="transparent" points="-4,4 -4,-78 437.5,-78 437.5,4 -4,4"/>
<!-- RSVPTE4 -->
<g id="node1" class="node">
<title>RSVPTE4</title>
<g id="a_node1"><a xlink:href="inet.examples.mpls.testte_failure.RSVPTE4.html" xlink:title="Network RSVPTE4" target="_parent">
<polygon fill="#9090ff" stroke="black" points="240,-74 180,-74 180,-55 240,-55 240,-74"/>
<text text-anchor="middle" x="210" y="-62" font-family="Helvetica,sans-Serif" font-size="10.00">RSVPTE4</text>
</a>
</g>
</g>
<!-- RsvpMplsRouter -->
<g id="node2" class="node">
<title>RsvpMplsRouter</title>
<g id="a_node2"><a xlink:href="inet.node.mpls.RsvpMplsRouter.html" xlink:title="Compound Module RsvpMplsRouter" target="_parent">
<polygon fill="#fffcaf" stroke="black" points="96,-19 0,-19 0,0 96,0 96,-19"/>
<text text-anchor="middle" x="48" y="-7" font-family="Helvetica,sans-Serif" font-size="10.00">RsvpMplsRouter</text>
</a>
</g>
</g>
<!-- RSVPTE4&#45;&gt;RsvpMplsRouter -->
<g id="edge1" class="edge">
<title>RSVPTE4&#45;&gt;RsvpMplsRouter</title>
<path fill="none" stroke="black" d="M183.97,-54.98C156.89,-46.13 114.29,-32.19 83.99,-22.28"/>
<polygon fill="black" stroke="black" points="84.82,-18.87 74.23,-19.08 82.65,-25.52 84.82,-18.87"/>
</g>
<!-- StandardHost -->
<g id="node3" class="node">
<title>StandardHost</title>
<g id="a_node3"><a xlink:href="inet.node.inet.StandardHost.html" xlink:title="Compound Module StandardHost" target="_parent">
<polygon fill="#fffcaf" stroke="black" points="197.5,-19 114.5,-19 114.5,0 197.5,0 197.5,-19"/>
<text text-anchor="middle" x="156" y="-7" font-family="Helvetica,sans-Serif" font-size="10.00">StandardHost</text>
</a>
</g>
</g>
<!-- RSVPTE4&#45;&gt;StandardHost -->
<g id="edge2" class="edge">
<title>RSVPTE4&#45;&gt;StandardHost</title>
<path fill="none" stroke="black" d="M201.08,-54.75C193.22,-47.03 181.57,-35.6 172.08,-26.28"/>
<polygon fill="black" stroke="black" points="174.34,-23.6 164.75,-19.09 169.44,-28.59 174.34,-23.6"/>
</g>
<!-- DatarateChannel -->
<g id="node4" class="node">
<title>DatarateChannel</title>
<g id="a_node4"><a xlink:href="ned.DatarateChannel.html" xlink:title="Channel DatarateChannel" target="_parent">
<polygon fill="#d0ffd0" stroke="black" points="314.5,-19 215.5,-19 215.5,0 314.5,0 314.5,-19"/>
<text text-anchor="middle" x="265" y="-7" font-family="Helvetica,sans-Serif" font-size="10.00">DatarateChannel</text>
</a>
</g>
</g>
<!-- RSVPTE4&#45;&gt;DatarateChannel -->
<g id="edge3" class="edge">
<title>RSVPTE4&#45;&gt;DatarateChannel</title>
<path fill="none" stroke="black" d="M219.08,-54.75C227.09,-47.03 238.96,-35.6 248.62,-26.28"/>
<polygon fill="black" stroke="black" points="251.31,-28.55 256.09,-19.09 246.46,-23.51 251.31,-28.55"/>
</g>
<!-- ScenarioManager -->
<g id="node5" class="node">
<title>ScenarioManager</title>
<g id="a_node5"><a xlink:href="inet.common.scenario.ScenarioManager.html" xlink:title="Simple Module ScenarioManager" target="_parent">
<polygon fill="#fffcaf" stroke="black" points="433.5,-19 332.5,-19 332.5,0 433.5,0 433.5,-19"/>
<text text-anchor="middle" x="383" y="-7" font-family="Helvetica,sans-Serif" font-size="10.00">ScenarioManager</text>
</a>
</g>
</g>
<!-- RSVPTE4&#45;&gt;ScenarioManager -->
<g id="edge4" class="edge">
<title>RSVPTE4&#45;&gt;ScenarioManager</title>
<path fill="none" stroke="black" d="M237.8,-54.98C266.97,-46.05 313,-31.94 345.4,-22.02"/>
<polygon fill="black" stroke="black" points="346.45,-25.36 354.99,-19.08 344.4,-18.66 346.45,-25.36"/>
</g>
</g>
</svg>
