<?xml version="1.0" encoding="UTF-8" standalone="no"?>
<!DOCTYPE svg PUBLIC "-//W3C//DTD SVG 1.1//EN"
 "http://www.w3.org/Graphics/SVG/1.1/DTD/svg11.dtd">
<!-- Generated by graphviz version 2.43.0 (0)
 -->
<!-- Title: opp Pages: 1 -->
<svg width="208pt" height="82pt"
 viewBox="0.00 0.00 207.50 82.00" xmlns="http://www.w3.org/2000/svg" xmlns:xlink="http://www.w3.org/1999/xlink">
<g id="graph0" class="graph" transform="scale(1 1) rotate(0) translate(4 78)">
<title>opp</title>
<polygon fill="transparent" stroke="transparent" points="-4,4 -4,-78 203.5,-78 203.5,4 -4,4"/>
<!-- SlidingWindowRateMeter -->
<g id="node1" class="node">
<title>SlidingWindowRateMeter</title>
<g id="a_node1"><a xlink:href="inet.queueing.meter.SlidingWindowRateMeter.html" xlink:title="Simple Module SlidingWindowRateMeter" target="_parent">
<polygon fill="#fff700" stroke="black" points="174.5,-19 34.5,-19 34.5,0 174.5,0 174.5,-19"/>
<text text-anchor="middle" x="104.5" y="-7" font-family="Helvetica,sans-Serif" font-size="10.00">SlidingWindowRateMeter</text>
</a>
</g>
</g>
<!-- PacketMeterBase -->
<g id="node2" class="node">
<title>PacketMeterBase</title>
<g id="a_node2"><a xlink:href="inet.queueing.base.PacketMeterBase.html" xlink:title="Simple Module PacketMeterBase" target="_parent">
<polygon fill="#fffcaf" stroke="black" points="101,-74 0,-74 0,-55 101,-55 101,-74"/>
<text text-anchor="middle" x="50.5" y="-62" font-family="Helvetica,sans-Serif" font-size="10.00">PacketMeterBase</text>
</a>
</g>
</g>
<!-- PacketMeterBase&#45;&gt;SlidingWindowRateMeter -->
<g id="edge1" class="edge">
<title>PacketMeterBase&#45;&gt;SlidingWindowRateMeter</title>
<path fill="none" stroke="black" d="M59.42,-54.75C69.48,-44.87 85.75,-28.9 95.75,-19.09"/>
</g>
<!-- IPacketMeter -->
<g id="node3" class="node">
<title>IPacketMeter</title>
<g id="a_node3"><a xlink:href="inet.queueing.contract.IPacketMeter.html" xlink:title="Module Interface IPacketMeter" target="_parent">
<polygon fill="#fffcaf" stroke="black" stroke-dasharray="5,2" points="199.5,-74 119.5,-74 119.5,-55 199.5,-55 199.5,-74"/>
<text text-anchor="middle" x="159.5" y="-62" font-family="Helvetica,sans-Serif" font-size="10.00">IPacketMeter</text>
</a>
</g>
</g>
<!-- IPacketMeter&#45;&gt;SlidingWindowRateMeter -->
<g id="edge2" class="edge">
<title>IPacketMeter&#45;&gt;SlidingWindowRateMeter</title>
<path fill="none" stroke="black" stroke-dasharray="5,2" d="M150.42,-54.75C140.17,-44.87 123.59,-28.9 113.41,-19.09"/>
</g>
</g>
</svg>
