<?xml version="1.0" encoding="UTF-8" standalone="no"?>
<!DOCTYPE svg PUBLIC "-//W3C//DTD SVG 1.1//EN"
 "http://www.w3.org/Graphics/SVG/1.1/DTD/svg11.dtd">
<!-- Generated by graphviz version 2.43.0 (0)
 -->
<!-- Title: opp Pages: 1 -->
<svg width="417pt" height="82pt"
 viewBox="0.00 0.00 417.00 82.00" xmlns="http://www.w3.org/2000/svg" xmlns:xlink="http://www.w3.org/1999/xlink">
<g id="graph0" class="graph" transform="scale(1 1) rotate(0) translate(4 78)">
<title>opp</title>
<polygon fill="transparent" stroke="transparent" points="-4,4 -4,-78 413,-78 413,4 -4,4"/>
<!-- QosThroughput -->
<g id="node1" class="node">
<title>QosThroughput</title>
<g id="a_node1"><a xlink:href="inet.examples.adhoc.qos.QosThroughput.html" xlink:title="Network QosThroughput" target="_parent">
<polygon fill="#9090ff" stroke="black" points="298,-74 207,-74 207,-55 298,-55 298,-74"/>
<text text-anchor="middle" x="252.5" y="-62" font-family="Helvetica,sans-Serif" font-size="10.00">QosThroughput</text>
</a>
</g>
</g>
<!-- Ieee80211ScalarRadioMedium -->
<g id="node2" class="node">
<title>Ieee80211ScalarRadioMedium</title>
<g id="a_node2"><a xlink:href="inet.physicallayer.wireless.ieee80211.packetlevel.Ieee80211ScalarRadioMedium.html" xlink:title="Compound Module Ieee80211ScalarRadioMedium" target="_parent">
<polygon fill="#fffcaf" stroke="black" points="165,-19 0,-19 0,0 165,0 165,-19"/>
<text text-anchor="middle" x="82.5" y="-7" font-family="Helvetica,sans-Serif" font-size="10.00">Ieee80211ScalarRadioMedium</text>
</a>
</g>
</g>
<!-- QosThroughput&#45;&gt;Ieee80211ScalarRadioMedium -->
<g id="edge1" class="edge">
<title>QosThroughput&#45;&gt;Ieee80211ScalarRadioMedium</title>
<path fill="none" stroke="black" d="M225.19,-54.98C196.65,-46.09 151.67,-32.07 119.86,-22.15"/>
<polygon fill="black" stroke="black" points="120.62,-18.72 110.03,-19.08 118.53,-25.4 120.62,-18.72"/>
</g>
<!-- Ipv4NetworkConfigurator -->
<g id="node3" class="node">
<title>Ipv4NetworkConfigurator</title>
<g id="a_node3"><a xlink:href="inet.networklayer.configurator.ipv4.Ipv4NetworkConfigurator.html" xlink:title="Simple Module Ipv4NetworkConfigurator" target="_parent">
<polygon fill="#fffcaf" stroke="black" points="322,-19 183,-19 183,0 322,0 322,-19"/>
<text text-anchor="middle" x="252.5" y="-7" font-family="Helvetica,sans-Serif" font-size="10.00">Ipv4NetworkConfigurator</text>
</a>
</g>
</g>
<!-- QosThroughput&#45;&gt;Ipv4NetworkConfigurator -->
<g id="edge2" class="edge">
<title>QosThroughput&#45;&gt;Ipv4NetworkConfigurator</title>
<path fill="none" stroke="black" d="M252.5,-54.75C252.5,-47.8 252.5,-37.85 252.5,-29.13"/>
<polygon fill="black" stroke="black" points="256,-29.09 252.5,-19.09 249,-29.09 256,-29.09"/>
</g>
<!-- AdhocHost -->
<g id="node4" class="node">
<title>AdhocHost</title>
<g id="a_node4"><a xlink:href="inet.node.inet.AdhocHost.html" xlink:title="Compound Module AdhocHost" target="_parent">
<polygon fill="#fffcaf" stroke="black" points="409,-19 340,-19 340,0 409,0 409,-19"/>
<text text-anchor="middle" x="374.5" y="-7" font-family="Helvetica,sans-Serif" font-size="10.00">AdhocHost</text>
</a>
</g>
</g>
<!-- QosThroughput&#45;&gt;AdhocHost -->
<g id="edge3" class="edge">
<title>QosThroughput&#45;&gt;AdhocHost</title>
<path fill="none" stroke="black" d="M272.1,-54.98C291.82,-46.42 322.45,-33.11 345.08,-23.28"/>
<polygon fill="black" stroke="black" points="346.76,-26.37 354.54,-19.17 343.98,-19.94 346.76,-26.37"/>
</g>
</g>
</svg>
