<?xml version="1.0" encoding="UTF-8" standalone="no"?>
<!DOCTYPE svg PUBLIC "-//W3C//DTD SVG 1.1//EN"
 "http://www.w3.org/Graphics/SVG/1.1/DTD/svg11.dtd">
<!-- Generated by graphviz version 2.43.0 (0)
 -->
<!-- Title: opp Pages: 1 -->
<svg width="260pt" height="82pt"
 viewBox="0.00 0.00 260.00 82.00" xmlns="http://www.w3.org/2000/svg" xmlns:xlink="http://www.w3.org/1999/xlink">
<g id="graph0" class="graph" transform="scale(1 1) rotate(0) translate(4 78)">
<title>opp</title>
<polygon fill="transparent" stroke="transparent" points="-4,4 -4,-78 256,-78 256,4 -4,4"/>
<!-- NetworkBase -->
<g id="node1" class="node">
<title>NetworkBase</title>
<g id="a_node1"><a xlink:href="inet.networks.base.NetworkBase.html" xlink:title="Network NetworkBase" target="_parent">
<polygon fill="#9090ff" stroke="black" points="163,-74 81,-74 81,-55 163,-55 163,-74"/>
<text text-anchor="middle" x="122" y="-62" font-family="Helvetica,sans-Serif" font-size="10.00">NetworkBase</text>
</a>
</g>
</g>
<!-- WiredNetworkBase -->
<g id="node2" class="node">
<title>WiredNetworkBase</title>
<g id="a_node2"><a xlink:href="inet.networks.base.WiredNetworkBase.html" xlink:title="Network WiredNetworkBase" target="_parent">
<polygon fill="#d0d0ff" stroke="black" points="110,-19 0,-19 0,0 110,0 110,-19"/>
<text text-anchor="middle" x="55" y="-7" font-family="Helvetica,sans-Serif" font-size="10.00">WiredNetworkBase</text>
</a>
</g>
</g>
<!-- NetworkBase&#45;&gt;WiredNetworkBase -->
<g id="edge1" class="edge">
<title>NetworkBase&#45;&gt;WiredNetworkBase</title>
<path fill="none" stroke="black" d="M111.24,-54.98C98.81,-45.15 78.47,-29.07 65.96,-19.17"/>
</g>
<!-- WirelessNetworkBase -->
<g id="node3" class="node">
<title>WirelessNetworkBase</title>
<g id="a_node3"><a xlink:href="inet.networks.base.WirelessNetworkBase.html" xlink:title="Network WirelessNetworkBase" target="_parent">
<polygon fill="#d0d0ff" stroke="black" points="252,-19 128,-19 128,0 252,0 252,-19"/>
<text text-anchor="middle" x="190" y="-7" font-family="Helvetica,sans-Serif" font-size="10.00">WirelessNetworkBase</text>
</a>
</g>
</g>
<!-- NetworkBase&#45;&gt;WirelessNetworkBase -->
<g id="edge2" class="edge">
<title>NetworkBase&#45;&gt;WirelessNetworkBase</title>
<path fill="none" stroke="black" d="M132.93,-54.98C145.54,-45.15 166.18,-29.07 178.88,-19.17"/>
</g>
</g>
</svg>
