<?xml version="1.0" encoding="UTF-8" standalone="no"?>
<!DOCTYPE svg PUBLIC "-//W3C//DTD SVG 1.1//EN"
 "http://www.w3.org/Graphics/SVG/1.1/DTD/svg11.dtd">
<!-- Generated by graphviz version 2.43.0 (0)
 -->
<!-- Title: opp Pages: 1 -->
<svg width="322pt" height="82pt"
 viewBox="0.00 0.00 321.50 82.00" xmlns="http://www.w3.org/2000/svg" xmlns:xlink="http://www.w3.org/1999/xlink">
<g id="graph0" class="graph" transform="scale(1 1) rotate(0) translate(4 78)">
<title>opp</title>
<polygon fill="transparent" stroke="transparent" points="-4,4 -4,-78 317.5,-78 317.5,4 -4,4"/>
<!-- InterfaceTableCanvasVisualizer -->
<g id="node1" class="node">
<title>InterfaceTableCanvasVisualizer</title>
<g id="a_node1"><a xlink:href="inet.visualizer.canvas.linklayer.InterfaceTableCanvasVisualizer.html" xlink:title="Simple Module InterfaceTableCanvasVisualizer" target="_parent">
<polygon fill="#fff700" stroke="black" points="247,-19 77,-19 77,0 247,0 247,-19"/>
<text text-anchor="middle" x="162" y="-7" font-family="Helvetica,sans-Serif" font-size="10.00">InterfaceTableCanvasVisualizer</text>
</a>
</g>
</g>
<!-- InterfaceTableVisualizerBase -->
<g id="node2" class="node">
<title>InterfaceTableVisualizerBase</title>
<g id="a_node2"><a xlink:href="inet.visualizer.base.InterfaceTableVisualizerBase.html" xlink:title="Simple Module InterfaceTableVisualizerBase" target="_parent">
<polygon fill="#fffcaf" stroke="black" points="158,-74 0,-74 0,-55 158,-55 158,-74"/>
<text text-anchor="middle" x="79" y="-62" font-family="Helvetica,sans-Serif" font-size="10.00">InterfaceTableVisualizerBase</text>
</a>
</g>
</g>
<!-- InterfaceTableVisualizerBase&#45;&gt;InterfaceTableCanvasVisualizer -->
<g id="edge1" class="edge">
<title>InterfaceTableVisualizerBase&#45;&gt;InterfaceTableCanvasVisualizer</title>
<path fill="none" stroke="black" d="M92.34,-54.98C107.73,-45.15 132.92,-29.07 148.42,-19.17"/>
</g>
<!-- IInterfaceTableVisualizer -->
<g id="node3" class="node">
<title>IInterfaceTableVisualizer</title>
<g id="a_node3"><a xlink:href="inet.visualizer.contract.IInterfaceTableVisualizer.html" xlink:title="Module Interface IInterfaceTableVisualizer" target="_parent">
<polygon fill="#fffcaf" stroke="black" stroke-dasharray="5,2" points="313.5,-74 176.5,-74 176.5,-55 313.5,-55 313.5,-74"/>
<text text-anchor="middle" x="245" y="-62" font-family="Helvetica,sans-Serif" font-size="10.00">IInterfaceTableVisualizer</text>
</a>
</g>
</g>
<!-- IInterfaceTableVisualizer&#45;&gt;InterfaceTableCanvasVisualizer -->
<g id="edge2" class="edge">
<title>IInterfaceTableVisualizer&#45;&gt;InterfaceTableCanvasVisualizer</title>
<path fill="none" stroke="black" stroke-dasharray="5,2" d="M231.66,-54.98C216.27,-45.15 191.08,-29.07 175.58,-19.17"/>
</g>
</g>
</svg>
