<?xml version="1.0" encoding="UTF-8" standalone="no"?>
<!DOCTYPE svg PUBLIC "-//W3C//DTD SVG 1.1//EN"
 "http://www.w3.org/Graphics/SVG/1.1/DTD/svg11.dtd">
<!-- Generated by graphviz version 2.43.0 (0)
 -->
<!-- Title: opp Pages: 1 -->
<svg width="180pt" height="137pt"
 viewBox="0.00 0.00 180.00 137.00" xmlns="http://www.w3.org/2000/svg" xmlns:xlink="http://www.w3.org/1999/xlink">
<g id="graph0" class="graph" transform="scale(1 1) rotate(0) translate(4 133)">
<title>opp</title>
<polygon fill="transparent" stroke="transparent" points="-4,4 -4,-133 176,-133 176,4 -4,4"/>
<!-- EnergyStorageVisualizerBase -->
<g id="node1" class="node">
<title>EnergyStorageVisualizerBase</title>
<g id="a_node1"><a xlink:href="inet.visualizer.base.EnergyStorageVisualizerBase.html" xlink:title="Simple Module EnergyStorageVisualizerBase" target="_parent">
<polygon fill="#fff700" stroke="black" points="166,-74 6,-74 6,-55 166,-55 166,-74"/>
<text text-anchor="middle" x="86" y="-62" font-family="Helvetica,sans-Serif" font-size="10.00">EnergyStorageVisualizerBase</text>
</a>
</g>
</g>
<!-- EnergyStorageCanvasVisualizer -->
<g id="node3" class="node">
<title>EnergyStorageCanvasVisualizer</title>
<g id="a_node3"><a xlink:href="inet.visualizer.canvas.power.EnergyStorageCanvasVisualizer.html" xlink:title="Simple Module EnergyStorageCanvasVisualizer" target="_parent">
<polygon fill="#fffcaf" stroke="black" points="172,-19 0,-19 0,0 172,0 172,-19"/>
<text text-anchor="middle" x="86" y="-7" font-family="Helvetica,sans-Serif" font-size="10.00">EnergyStorageCanvasVisualizer</text>
</a>
</g>
</g>
<!-- EnergyStorageVisualizerBase&#45;&gt;EnergyStorageCanvasVisualizer -->
<g id="edge2" class="edge">
<title>EnergyStorageVisualizerBase&#45;&gt;EnergyStorageCanvasVisualizer</title>
<path fill="none" stroke="black" d="M86,-54.75C86,-44.87 86,-28.9 86,-19.09"/>
</g>
<!-- VisualizerBase -->
<g id="node2" class="node">
<title>VisualizerBase</title>
<g id="a_node2"><a xlink:href="inet.visualizer.base.VisualizerBase.html" xlink:title="Simple Module VisualizerBase" target="_parent">
<polygon fill="#fffcaf" stroke="black" points="130.5,-129 41.5,-129 41.5,-110 130.5,-110 130.5,-129"/>
<text text-anchor="middle" x="86" y="-117" font-family="Helvetica,sans-Serif" font-size="10.00">VisualizerBase</text>
</a>
</g>
</g>
<!-- VisualizerBase&#45;&gt;EnergyStorageVisualizerBase -->
<g id="edge1" class="edge">
<title>VisualizerBase&#45;&gt;EnergyStorageVisualizerBase</title>
<path fill="none" stroke="black" d="M86,-109.75C86,-99.87 86,-83.9 86,-74.09"/>
</g>
</g>
</svg>
