<?xml version="1.0" encoding="UTF-8" standalone="no"?>
<!DOCTYPE svg PUBLIC "-//W3C//DTD SVG 1.1//EN"
 "http://www.w3.org/Graphics/SVG/1.1/DTD/svg11.dtd">
<!-- Generated by graphviz version 2.43.0 (0)
 -->
<!-- Title: opp Pages: 1 -->
<svg width="172pt" height="137pt"
 viewBox="0.00 0.00 172.00 137.00" xmlns="http://www.w3.org/2000/svg" xmlns:xlink="http://www.w3.org/1999/xlink">
<g id="graph0" class="graph" transform="scale(1 1) rotate(0) translate(4 133)">
<title>opp</title>
<polygon fill="transparent" stroke="transparent" points="-4,4 -4,-133 168,-133 168,4 -4,4"/>
<!-- RoutingTableVisualizerBase -->
<g id="node1" class="node">
<title>RoutingTableVisualizerBase</title>
<g id="a_node1"><a xlink:href="inet.visualizer.base.RoutingTableVisualizerBase.html" xlink:title="Simple Module RoutingTableVisualizerBase" target="_parent">
<polygon fill="#fff700" stroke="black" points="158,-74 6,-74 6,-55 158,-55 158,-74"/>
<text text-anchor="middle" x="82" y="-62" font-family="Helvetica,sans-Serif" font-size="10.00">RoutingTableVisualizerBase</text>
</a>
</g>
</g>
<!-- RoutingTableCanvasVisualizer -->
<g id="node3" class="node">
<title>RoutingTableCanvasVisualizer</title>
<g id="a_node3"><a xlink:href="inet.visualizer.canvas.networklayer.RoutingTableCanvasVisualizer.html" xlink:title="Simple Module RoutingTableCanvasVisualizer" target="_parent">
<polygon fill="#fffcaf" stroke="black" points="164,-19 0,-19 0,0 164,0 164,-19"/>
<text text-anchor="middle" x="82" y="-7" font-family="Helvetica,sans-Serif" font-size="10.00">RoutingTableCanvasVisualizer</text>
</a>
</g>
</g>
<!-- RoutingTableVisualizerBase&#45;&gt;RoutingTableCanvasVisualizer -->
<g id="edge2" class="edge">
<title>RoutingTableVisualizerBase&#45;&gt;RoutingTableCanvasVisualizer</title>
<path fill="none" stroke="black" d="M82,-54.75C82,-44.87 82,-28.9 82,-19.09"/>
</g>
<!-- VisualizerBase -->
<g id="node2" class="node">
<title>VisualizerBase</title>
<g id="a_node2"><a xlink:href="inet.visualizer.base.VisualizerBase.html" xlink:title="Simple Module VisualizerBase" target="_parent">
<polygon fill="#fffcaf" stroke="black" points="126.5,-129 37.5,-129 37.5,-110 126.5,-110 126.5,-129"/>
<text text-anchor="middle" x="82" y="-117" font-family="Helvetica,sans-Serif" font-size="10.00">VisualizerBase</text>
</a>
</g>
</g>
<!-- VisualizerBase&#45;&gt;RoutingTableVisualizerBase -->
<g id="edge1" class="edge">
<title>VisualizerBase&#45;&gt;RoutingTableVisualizerBase</title>
<path fill="none" stroke="black" d="M82,-109.75C82,-99.87 82,-83.9 82,-74.09"/>
</g>
</g>
</svg>
