<?xml version="1.0" encoding="UTF-8" standalone="no"?>
<!DOCTYPE svg PUBLIC "-//W3C//DTD SVG 1.1//EN"
 "http://www.w3.org/Graphics/SVG/1.1/DTD/svg11.dtd">
<!-- Generated by graphviz version 2.43.0 (0)
 -->
<!-- Title: opp Pages: 1 -->
<svg width="379pt" height="137pt"
 viewBox="0.00 0.00 378.50 137.00" xmlns="http://www.w3.org/2000/svg" xmlns:xlink="http://www.w3.org/1999/xlink">
<g id="graph0" class="graph" transform="scale(1 1) rotate(0) translate(4 133)">
<title>opp</title>
<polygon fill="transparent" stroke="transparent" points="-4,4 -4,-133 374.5,-133 374.5,4 -4,4"/>
<!-- RtpHost -->
<g id="node1" class="node">
<title>RtpHost</title>
<g id="a_node1"><a xlink:href="inet.node.rtp.RtpHost.html" xlink:title="Compound Module RtpHost" target="_parent">
<polygon fill="#fff700" stroke="black" points="217,-74 161,-74 161,-55 217,-55 217,-74"/>
<text text-anchor="middle" x="189" y="-62" font-family="Helvetica,sans-Serif" font-size="10.00">RtpHost</text>
</a>
</g>
</g>
<!-- RtpApplication -->
<g id="node2" class="node">
<title>RtpApplication</title>
<g id="a_node2"><a xlink:href="inet.applications.rtpapp.RtpApplication.html" xlink:title="Simple Module RtpApplication" target="_parent">
<polygon fill="#fffcaf" stroke="black" points="102,-19 14,-19 14,0 102,0 102,-19"/>
<text text-anchor="middle" x="58" y="-7" font-family="Helvetica,sans-Serif" font-size="10.00">RtpApplication</text>
</a>
</g>
</g>
<!-- RtpHost&#45;&gt;RtpApplication -->
<g id="edge1" class="edge">
<title>RtpHost&#45;&gt;RtpApplication</title>
<path fill="none" stroke="black" d="M167.95,-54.98C146.59,-46.34 113.3,-32.87 88.94,-23.02"/>
<polygon fill="black" stroke="black" points="90.01,-19.68 79.43,-19.17 87.39,-26.17 90.01,-19.68"/>
</g>
<!-- Rtp -->
<g id="node3" class="node">
<title>Rtp</title>
<g id="a_node3"><a xlink:href="inet.transportlayer.rtp.Rtp.html" xlink:title="Simple Module Rtp" target="_parent">
<polygon fill="#fffcaf" stroke="black" points="174,-19 120,-19 120,0 174,0 174,-19"/>
<text text-anchor="middle" x="147" y="-7" font-family="Helvetica,sans-Serif" font-size="10.00">Rtp</text>
</a>
</g>
</g>
<!-- RtpHost&#45;&gt;Rtp -->
<g id="edge2" class="edge">
<title>RtpHost&#45;&gt;Rtp</title>
<path fill="none" stroke="black" d="M182.06,-54.75C176.13,-47.26 167.43,-36.28 160.18,-27.13"/>
<polygon fill="black" stroke="black" points="162.76,-24.75 153.81,-19.09 157.27,-29.1 162.76,-24.75"/>
</g>
<!-- IdealChannel -->
<g id="node4" class="node">
<title>IdealChannel</title>
<g id="a_node4"><a xlink:href="ned.IdealChannel.html" xlink:title="Channel IdealChannel" target="_parent">
<polygon fill="#d0ffd0" stroke="black" points="272,-19 192,-19 192,0 272,0 272,-19"/>
<text text-anchor="middle" x="232" y="-7" font-family="Helvetica,sans-Serif" font-size="10.00">IdealChannel</text>
</a>
</g>
</g>
<!-- RtpHost&#45;&gt;IdealChannel -->
<g id="edge3" class="edge">
<title>RtpHost&#45;&gt;IdealChannel</title>
<path fill="none" stroke="black" d="M196.1,-54.75C202.17,-47.26 211.09,-36.28 218.51,-27.13"/>
<polygon fill="black" stroke="black" points="221.45,-29.06 225.03,-19.09 216.01,-24.65 221.45,-29.06"/>
</g>
<!-- Rtcp -->
<g id="node5" class="node">
<title>Rtcp</title>
<g id="a_node5"><a xlink:href="inet.transportlayer.rtp.Rtcp.html" xlink:title="Simple Module Rtcp" target="_parent">
<polygon fill="#fffcaf" stroke="black" points="344,-19 290,-19 290,0 344,0 344,-19"/>
<text text-anchor="middle" x="317" y="-7" font-family="Helvetica,sans-Serif" font-size="10.00">Rtcp</text>
</a>
</g>
</g>
<!-- RtpHost&#45;&gt;Rtcp -->
<g id="edge4" class="edge">
<title>RtpHost&#45;&gt;Rtcp</title>
<path fill="none" stroke="black" d="M209.57,-54.98C230.43,-46.34 262.97,-32.87 286.77,-23.02"/>
<polygon fill="black" stroke="black" points="288.16,-26.23 296.06,-19.17 285.48,-19.76 288.16,-26.23"/>
</g>
<!-- RTPMulticast1 -->
<g id="node6" class="node">
<title>RTPMulticast1</title>
<g id="a_node6"><a xlink:href="inet.examples.rtp.multicast1.RTPMulticast1.html" xlink:title="Network RTPMulticast1" target="_parent">
<polygon fill="#d0d0ff" stroke="black" points="86,-129 0,-129 0,-110 86,-110 86,-129"/>
<text text-anchor="middle" x="43" y="-117" font-family="Helvetica,sans-Serif" font-size="10.00">RTPMulticast1</text>
</a>
</g>
</g>
<!-- RTPMulticast1&#45;&gt;RtpHost -->
<g id="edge5" class="edge">
<title>RTPMulticast1&#45;&gt;RtpHost</title>
<path fill="none" stroke="black" d="M66.46,-109.98C90.58,-101.23 128.37,-87.51 155.6,-77.62"/>
<polygon fill="black" stroke="black" points="156.91,-80.87 165.12,-74.17 154.52,-74.29 156.91,-80.87"/>
</g>
<!-- RTPNetwork -->
<g id="node7" class="node">
<title>RTPNetwork</title>
<g id="a_node7"><a xlink:href="inet.examples.rtp.unicast.RTPNetwork.html" xlink:title="Network RTPNetwork" target="_parent">
<polygon fill="#d0d0ff" stroke="black" points="180,-129 104,-129 104,-110 180,-110 180,-129"/>
<text text-anchor="middle" x="142" y="-117" font-family="Helvetica,sans-Serif" font-size="10.00">RTPNetwork</text>
</a>
</g>
</g>
<!-- RTPNetwork&#45;&gt;RtpHost -->
<g id="edge6" class="edge">
<title>RTPNetwork&#45;&gt;RtpHost</title>
<path fill="none" stroke="black" d="M149.76,-109.75C156.47,-102.18 166.34,-91.05 174.51,-81.84"/>
<polygon fill="black" stroke="black" points="177.37,-83.89 181.38,-74.09 172.13,-79.25 177.37,-83.89"/>
</g>
<!-- RTPUnicast1 -->
<g id="node8" class="node">
<title>RTPUnicast1</title>
<g id="a_node8"><a xlink:href="inet.examples.rtp.unicast1.RTPUnicast1.html" xlink:title="Network RTPUnicast1" target="_parent">
<polygon fill="#d0d0ff" stroke="black" points="275.5,-129 198.5,-129 198.5,-110 275.5,-110 275.5,-129"/>
<text text-anchor="middle" x="237" y="-117" font-family="Helvetica,sans-Serif" font-size="10.00">RTPUnicast1</text>
</a>
</g>
</g>
<!-- RTPUnicast1&#45;&gt;RtpHost -->
<g id="edge7" class="edge">
<title>RTPUnicast1&#45;&gt;RtpHost</title>
<path fill="none" stroke="black" d="M229.07,-109.75C222.15,-102.11 211.93,-90.82 203.55,-81.56"/>
<polygon fill="black" stroke="black" points="206.09,-79.15 196.78,-74.09 200.9,-83.85 206.09,-79.15"/>
</g>
<!-- RTPUnicast2 -->
<g id="node9" class="node">
<title>RTPUnicast2</title>
<g id="a_node9"><a xlink:href="inet.examples.rtp.unicast2.RTPUnicast2.html" xlink:title="Network RTPUnicast2" target="_parent">
<polygon fill="#d0d0ff" stroke="black" points="370.5,-129 293.5,-129 293.5,-110 370.5,-110 370.5,-129"/>
<text text-anchor="middle" x="332" y="-117" font-family="Helvetica,sans-Serif" font-size="10.00">RTPUnicast2</text>
</a>
</g>
</g>
<!-- RTPUnicast2&#45;&gt;RtpHost -->
<g id="edge8" class="edge">
<title>RTPUnicast2&#45;&gt;RtpHost</title>
<path fill="none" stroke="black" d="M309.02,-109.98C285.5,-101.27 248.71,-87.63 222.06,-77.75"/>
<polygon fill="black" stroke="black" points="222.99,-74.36 212.39,-74.17 220.55,-80.93 222.99,-74.36"/>
</g>
</g>
</svg>
