<?xml version="1.0" encoding="UTF-8" standalone="no"?>
<!DOCTYPE svg PUBLIC "-//W3C//DTD SVG 1.1//EN"
 "http://www.w3.org/Graphics/SVG/1.1/DTD/svg11.dtd">
<!-- Generated by graphviz version 2.43.0 (0)
 -->
<!-- Title: opp Pages: 1 -->
<svg width="425pt" height="82pt"
 viewBox="0.00 0.00 425.00 82.00" xmlns="http://www.w3.org/2000/svg" xmlns:xlink="http://www.w3.org/1999/xlink">
<g id="graph0" class="graph" transform="scale(1 1) rotate(0) translate(4 78)">
<title>opp</title>
<polygon fill="transparent" stroke="transparent" points="-4,4 -4,-78 421,-78 421,4 -4,4"/>
<!-- MacService -->
<g id="node1" class="node">
<title>MacService</title>
<g id="a_node1"><a xlink:href="inet.protocolelement.service.MacService.html" xlink:title="Compound Module MacService" target="_parent">
<polygon fill="#fff700" stroke="black" points="244,-74 171,-74 171,-55 244,-55 244,-74"/>
<text text-anchor="middle" x="207.5" y="-62" font-family="Helvetica,sans-Serif" font-size="10.00">MacService</text>
</a>
</g>
</g>
<!-- DynamicClassifier -->
<g id="node2" class="node">
<title>DynamicClassifier</title>
<g id="a_node2"><a xlink:href="inet.queueing.classifier.DynamicClassifier.html" xlink:title="Simple Module DynamicClassifier" target="_parent">
<polygon fill="#fffcaf" stroke="black" points="105,-19 0,-19 0,0 105,0 105,-19"/>
<text text-anchor="middle" x="52.5" y="-7" font-family="Helvetica,sans-Serif" font-size="10.00">DynamicClassifier</text>
</a>
</g>
</g>
<!-- MacService&#45;&gt;DynamicClassifier -->
<g id="edge1" class="edge">
<title>MacService&#45;&gt;DynamicClassifier</title>
<path fill="none" stroke="black" d="M182.6,-54.98C156.8,-46.16 116.28,-32.31 87.32,-22.41"/>
<polygon fill="black" stroke="black" points="88.19,-19.01 77.6,-19.08 85.93,-25.63 88.19,-19.01"/>
</g>
<!-- PeerService -->
<g id="node3" class="node">
<title>PeerService</title>
<g id="a_node3"><a xlink:href="inet.protocolelement.service.PeerService.html" xlink:title="Compound Module PeerService" target="_parent">
<polygon fill="#fffcaf" stroke="black" points="197.5,-19 123.5,-19 123.5,0 197.5,0 197.5,-19"/>
<text text-anchor="middle" x="160.5" y="-7" font-family="Helvetica,sans-Serif" font-size="10.00">PeerService</text>
</a>
</g>
</g>
<!-- MacService&#45;&gt;PeerService -->
<g id="edge2" class="edge">
<title>MacService&#45;&gt;PeerService</title>
<path fill="none" stroke="black" d="M199.74,-54.75C193.03,-47.18 183.16,-36.05 174.99,-26.84"/>
<polygon fill="black" stroke="black" points="177.37,-24.25 168.12,-19.09 172.13,-28.89 177.37,-24.25"/>
</g>
<!-- IdealChannel -->
<g id="node4" class="node">
<title>IdealChannel</title>
<g id="a_node4"><a xlink:href="ned.IdealChannel.html" xlink:title="Channel IdealChannel" target="_parent">
<polygon fill="#d0ffd0" stroke="black" points="295.5,-19 215.5,-19 215.5,0 295.5,0 295.5,-19"/>
<text text-anchor="middle" x="255.5" y="-7" font-family="Helvetica,sans-Serif" font-size="10.00">IdealChannel</text>
</a>
</g>
</g>
<!-- MacService&#45;&gt;IdealChannel -->
<g id="edge3" class="edge">
<title>MacService&#45;&gt;IdealChannel</title>
<path fill="none" stroke="black" d="M215.43,-54.75C222.35,-47.11 232.57,-35.82 240.95,-26.56"/>
<polygon fill="black" stroke="black" points="243.6,-28.85 247.72,-19.09 238.41,-24.15 243.6,-28.85"/>
</g>
<!-- PacketMultiplexer -->
<g id="node5" class="node">
<title>PacketMultiplexer</title>
<g id="a_node5"><a xlink:href="inet.queueing.common.PacketMultiplexer.html" xlink:title="Simple Module PacketMultiplexer" target="_parent">
<polygon fill="#fffcaf" stroke="black" points="417,-19 314,-19 314,0 417,0 417,-19"/>
<text text-anchor="middle" x="365.5" y="-7" font-family="Helvetica,sans-Serif" font-size="10.00">PacketMultiplexer</text>
</a>
</g>
</g>
<!-- MacService&#45;&gt;PacketMultiplexer -->
<g id="edge4" class="edge">
<title>MacService&#45;&gt;PacketMultiplexer</title>
<path fill="none" stroke="black" d="M232.89,-54.98C259.3,-46.13 300.85,-32.19 330.39,-22.28"/>
<polygon fill="black" stroke="black" points="331.55,-25.58 339.92,-19.08 329.32,-18.94 331.55,-25.58"/>
</g>
</g>
</svg>
