<?xml version="1.0" encoding="UTF-8" standalone="no"?>
<!DOCTYPE svg PUBLIC "-//W3C//DTD SVG 1.1//EN"
 "http://www.w3.org/Graphics/SVG/1.1/DTD/svg11.dtd">
<!-- Generated by graphviz version 2.43.0 (0)
 -->
<!-- Title: opp Pages: 1 -->
<svg width="160pt" height="137pt"
 viewBox="0.00 0.00 160.00 137.00" xmlns="http://www.w3.org/2000/svg" xmlns:xlink="http://www.w3.org/1999/xlink">
<g id="graph0" class="graph" transform="scale(1 1) rotate(0) translate(4 133)">
<title>opp</title>
<polygon fill="transparent" stroke="transparent" points="-4,4 -4,-133 156,-133 156,4 -4,4"/>
<!-- Ieee80211VisualizerBase -->
<g id="node1" class="node">
<title>Ieee80211VisualizerBase</title>
<g id="a_node1"><a xlink:href="inet.visualizer.base.Ieee80211VisualizerBase.html" xlink:title="Simple Module Ieee80211VisualizerBase" target="_parent">
<polygon fill="#fff700" stroke="black" points="146,-74 6,-74 6,-55 146,-55 146,-74"/>
<text text-anchor="middle" x="76" y="-62" font-family="Helvetica,sans-Serif" font-size="10.00">Ieee80211VisualizerBase</text>
</a>
</g>
</g>
<!-- Ieee80211CanvasVisualizer -->
<g id="node3" class="node">
<title>Ieee80211CanvasVisualizer</title>
<g id="a_node3"><a xlink:href="inet.visualizer.canvas.linklayer.Ieee80211CanvasVisualizer.html" xlink:title="Simple Module Ieee80211CanvasVisualizer" target="_parent">
<polygon fill="#fffcaf" stroke="black" points="152,-19 0,-19 0,0 152,0 152,-19"/>
<text text-anchor="middle" x="76" y="-7" font-family="Helvetica,sans-Serif" font-size="10.00">Ieee80211CanvasVisualizer</text>
</a>
</g>
</g>
<!-- Ieee80211VisualizerBase&#45;&gt;Ieee80211CanvasVisualizer -->
<g id="edge2" class="edge">
<title>Ieee80211VisualizerBase&#45;&gt;Ieee80211CanvasVisualizer</title>
<path fill="none" stroke="black" d="M76,-54.75C76,-44.87 76,-28.9 76,-19.09"/>
</g>
<!-- VisualizerBase -->
<g id="node2" class="node">
<title>VisualizerBase</title>
<g id="a_node2"><a xlink:href="inet.visualizer.base.VisualizerBase.html" xlink:title="Simple Module VisualizerBase" target="_parent">
<polygon fill="#fffcaf" stroke="black" points="120.5,-129 31.5,-129 31.5,-110 120.5,-110 120.5,-129"/>
<text text-anchor="middle" x="76" y="-117" font-family="Helvetica,sans-Serif" font-size="10.00">VisualizerBase</text>
</a>
</g>
</g>
<!-- VisualizerBase&#45;&gt;Ieee80211VisualizerBase -->
<g id="edge1" class="edge">
<title>VisualizerBase&#45;&gt;Ieee80211VisualizerBase</title>
<path fill="none" stroke="black" d="M76,-109.75C76,-99.87 76,-83.9 76,-74.09"/>
</g>
</g>
</svg>
