<?xml version="1.0" encoding="UTF-8" standalone="no"?>
<!DOCTYPE svg PUBLIC "-//W3C//DTD SVG 1.1//EN"
 "http://www.w3.org/Graphics/SVG/1.1/DTD/svg11.dtd">
<!-- Generated by graphviz version 2.43.0 (0)
 -->
<!-- Title: opp Pages: 1 -->
<svg width="367pt" height="82pt"
 viewBox="0.00 0.00 367.00 82.00" xmlns="http://www.w3.org/2000/svg" xmlns:xlink="http://www.w3.org/1999/xlink">
<g id="graph0" class="graph" transform="scale(1 1) rotate(0) translate(4 78)">
<title>opp</title>
<polygon fill="transparent" stroke="transparent" points="-4,4 -4,-78 363,-78 363,4 -4,4"/>
<!-- CrosstalkShowcaseBaseNetwork -->
<g id="node1" class="node">
<title>CrosstalkShowcaseBaseNetwork</title>
<g id="a_node1"><a xlink:href="inet.showcases.wireless.crosstalk.CrosstalkShowcaseBaseNetwork.html" xlink:title="Network CrosstalkShowcaseBaseNetwork" target="_parent">
<polygon fill="#9090ff" stroke="black" points="290.5,-74 114.5,-74 114.5,-55 290.5,-55 290.5,-74"/>
<text text-anchor="middle" x="202.5" y="-62" font-family="Helvetica,sans-Serif" font-size="10.00">CrosstalkShowcaseBaseNetwork</text>
</a>
</g>
</g>
<!-- IntegratedVisualizer -->
<g id="node2" class="node">
<title>IntegratedVisualizer</title>
<g id="a_node2"><a xlink:href="inet.visualizer.common.IntegratedVisualizer.html" xlink:title="Compound Module IntegratedVisualizer" target="_parent">
<polygon fill="#fffcaf" stroke="black" points="115,-19 0,-19 0,0 115,0 115,-19"/>
<text text-anchor="middle" x="57.5" y="-7" font-family="Helvetica,sans-Serif" font-size="10.00">IntegratedVisualizer</text>
</a>
</g>
</g>
<!-- CrosstalkShowcaseBaseNetwork&#45;&gt;IntegratedVisualizer -->
<g id="edge1" class="edge">
<title>CrosstalkShowcaseBaseNetwork&#45;&gt;IntegratedVisualizer</title>
<path fill="none" stroke="black" d="M179.2,-54.98C155.25,-46.23 117.72,-32.51 90.67,-22.62"/>
<polygon fill="black" stroke="black" points="91.81,-19.32 81.22,-19.17 89.41,-25.89 91.81,-19.32"/>
</g>
<!-- Ipv4NetworkConfigurator -->
<g id="node3" class="node">
<title>Ipv4NetworkConfigurator</title>
<g id="a_node3"><a xlink:href="inet.networklayer.configurator.ipv4.Ipv4NetworkConfigurator.html" xlink:title="Simple Module Ipv4NetworkConfigurator" target="_parent">
<polygon fill="#fffcaf" stroke="black" points="272,-19 133,-19 133,0 272,0 272,-19"/>
<text text-anchor="middle" x="202.5" y="-7" font-family="Helvetica,sans-Serif" font-size="10.00">Ipv4NetworkConfigurator</text>
</a>
</g>
</g>
<!-- CrosstalkShowcaseBaseNetwork&#45;&gt;Ipv4NetworkConfigurator -->
<g id="edge2" class="edge">
<title>CrosstalkShowcaseBaseNetwork&#45;&gt;Ipv4NetworkConfigurator</title>
<path fill="none" stroke="black" d="M202.5,-54.75C202.5,-47.8 202.5,-37.85 202.5,-29.13"/>
<polygon fill="black" stroke="black" points="206,-29.09 202.5,-19.09 199,-29.09 206,-29.09"/>
</g>
<!-- AdhocHost -->
<g id="node4" class="node">
<title>AdhocHost</title>
<g id="a_node4"><a xlink:href="inet.node.inet.AdhocHost.html" xlink:title="Compound Module AdhocHost" target="_parent">
<polygon fill="#fffcaf" stroke="black" points="359,-19 290,-19 290,0 359,0 359,-19"/>
<text text-anchor="middle" x="324.5" y="-7" font-family="Helvetica,sans-Serif" font-size="10.00">AdhocHost</text>
</a>
</g>
</g>
<!-- CrosstalkShowcaseBaseNetwork&#45;&gt;AdhocHost -->
<g id="edge3" class="edge">
<title>CrosstalkShowcaseBaseNetwork&#45;&gt;AdhocHost</title>
<path fill="none" stroke="black" d="M222.1,-54.98C241.82,-46.42 272.45,-33.11 295.08,-23.28"/>
<polygon fill="black" stroke="black" points="296.76,-26.37 304.54,-19.17 293.98,-19.94 296.76,-26.37"/>
</g>
</g>
</svg>
