<?xml version="1.0" encoding="UTF-8" standalone="no"?>
<!DOCTYPE svg PUBLIC "-//W3C//DTD SVG 1.1//EN"
 "http://www.w3.org/Graphics/SVG/1.1/DTD/svg11.dtd">
<!-- Generated by graphviz version 2.43.0 (0)
 -->
<!-- Title: opp Pages: 1 -->
<svg width="1042pt" height="82pt"
 viewBox="0.00 0.00 1041.50 82.00" xmlns="http://www.w3.org/2000/svg" xmlns:xlink="http://www.w3.org/1999/xlink">
<g id="graph0" class="graph" transform="scale(1 1) rotate(0) translate(4 78)">
<title>opp</title>
<polygon fill="transparent" stroke="transparent" points="-4,4 -4,-78 1037.5,-78 1037.5,4 -4,4"/>
<!-- InputQueueSwitching -->
<g id="node1" class="node">
<title>InputQueueSwitching</title>
<g id="a_node1"><a xlink:href="inet.tutorials.queueing.InputQueueSwitching.html" xlink:title="Network InputQueueSwitching" target="_parent">
<polygon fill="#9090ff" stroke="black" points="581,-74 461,-74 461,-55 581,-55 581,-74"/>
<text text-anchor="middle" x="521" y="-62" font-family="Helvetica,sans-Serif" font-size="10.00">InputQueueSwitching</text>
</a>
</g>
</g>
<!-- InstantServer -->
<g id="node2" class="node">
<title>InstantServer</title>
<g id="a_node2"><a xlink:href="inet.queueing.server.InstantServer.html" xlink:title="Simple Module InstantServer" target="_parent">
<polygon fill="#fffcaf" stroke="black" points="82,-19 0,-19 0,0 82,0 82,-19"/>
<text text-anchor="middle" x="41" y="-7" font-family="Helvetica,sans-Serif" font-size="10.00">InstantServer</text>
</a>
</g>
</g>
<!-- InputQueueSwitching&#45;&gt;InstantServer -->
<g id="edge1" class="edge">
<title>InputQueueSwitching&#45;&gt;InstantServer</title>
<path fill="none" stroke="black" d="M460.68,-58.51C379.39,-51.5 229.95,-37.65 92.47,-19.12"/>
<polygon fill="black" stroke="black" points="92.55,-15.6 82.17,-17.72 91.61,-22.53 92.55,-15.6"/>
</g>
<!-- PacketTransmitter -->
<g id="node3" class="node">
<title>PacketTransmitter</title>
<g id="a_node3"><a xlink:href="inet.protocolelement.transceiver.PacketTransmitter.html" xlink:title="Simple Module PacketTransmitter" target="_parent">
<polygon fill="#fffcaf" stroke="black" points="204,-19 100,-19 100,0 204,0 204,-19"/>
<text text-anchor="middle" x="152" y="-7" font-family="Helvetica,sans-Serif" font-size="10.00">PacketTransmitter</text>
</a>
</g>
</g>
<!-- InputQueueSwitching&#45;&gt;PacketTransmitter -->
<g id="edge2" class="edge">
<title>InputQueueSwitching&#45;&gt;PacketTransmitter</title>
<path fill="none" stroke="black" d="M461.71,-54.98C393.99,-45.26 283.64,-29.41 214.57,-19.49"/>
<polygon fill="black" stroke="black" points="214.67,-15.97 204.27,-18.01 213.67,-22.89 214.67,-15.97"/>
</g>
<!-- ContentBasedClassifier -->
<g id="node4" class="node">
<title>ContentBasedClassifier</title>
<g id="a_node4"><a xlink:href="inet.queueing.classifier.ContentBasedClassifier.html" xlink:title="Simple Module ContentBasedClassifier" target="_parent">
<polygon fill="#fffcaf" stroke="black" points="352,-19 222,-19 222,0 352,0 352,-19"/>
<text text-anchor="middle" x="287" y="-7" font-family="Helvetica,sans-Serif" font-size="10.00">ContentBasedClassifier</text>
</a>
</g>
</g>
<!-- InputQueueSwitching&#45;&gt;ContentBasedClassifier -->
<g id="edge3" class="edge">
<title>InputQueueSwitching&#45;&gt;ContentBasedClassifier</title>
<path fill="none" stroke="black" d="M483.4,-54.98C443.01,-45.84 378.72,-31.27 334.77,-21.32"/>
<polygon fill="black" stroke="black" points="335.42,-17.88 324.89,-19.08 333.87,-24.7 335.42,-17.88"/>
</g>
<!-- PacketQueue -->
<g id="node5" class="node">
<title>PacketQueue</title>
<g id="a_node5"><a xlink:href="inet.queueing.queue.PacketQueue.html" xlink:title="Simple Module PacketQueue" target="_parent">
<polygon fill="#fffcaf" stroke="black" points="450,-19 370,-19 370,0 450,0 450,-19"/>
<text text-anchor="middle" x="410" y="-7" font-family="Helvetica,sans-Serif" font-size="10.00">PacketQueue</text>
</a>
</g>
</g>
<!-- InputQueueSwitching&#45;&gt;PacketQueue -->
<g id="edge4" class="edge">
<title>InputQueueSwitching&#45;&gt;PacketQueue</title>
<path fill="none" stroke="black" d="M503.17,-54.98C485.39,-46.5 457.85,-33.35 437.32,-23.54"/>
<polygon fill="black" stroke="black" points="438.69,-20.32 428.16,-19.17 435.67,-26.64 438.69,-20.32"/>
</g>
<!-- PassivePacketSink -->
<g id="node6" class="node">
<title>PassivePacketSink</title>
<g id="a_node6"><a xlink:href="inet.queueing.sink.PassivePacketSink.html" xlink:title="Simple Module PassivePacketSink" target="_parent">
<polygon fill="#fffcaf" stroke="black" points="574,-19 468,-19 468,0 574,0 574,-19"/>
<text text-anchor="middle" x="521" y="-7" font-family="Helvetica,sans-Serif" font-size="10.00">PassivePacketSink</text>
</a>
</g>
</g>
<!-- InputQueueSwitching&#45;&gt;PassivePacketSink -->
<g id="edge5" class="edge">
<title>InputQueueSwitching&#45;&gt;PassivePacketSink</title>
<path fill="none" stroke="black" d="M521,-54.75C521,-47.8 521,-37.85 521,-29.13"/>
<polygon fill="black" stroke="black" points="524.5,-29.09 521,-19.09 517.5,-29.09 524.5,-29.09"/>
</g>
<!-- PacketReceiver -->
<g id="node7" class="node">
<title>PacketReceiver</title>
<g id="a_node7"><a xlink:href="inet.protocolelement.transceiver.PacketReceiver.html" xlink:title="Simple Module PacketReceiver" target="_parent">
<polygon fill="#fffcaf" stroke="black" points="683.5,-19 592.5,-19 592.5,0 683.5,0 683.5,-19"/>
<text text-anchor="middle" x="638" y="-7" font-family="Helvetica,sans-Serif" font-size="10.00">PacketReceiver</text>
</a>
</g>
</g>
<!-- InputQueueSwitching&#45;&gt;PacketReceiver -->
<g id="edge6" class="edge">
<title>InputQueueSwitching&#45;&gt;PacketReceiver</title>
<path fill="none" stroke="black" d="M539.8,-54.98C558.62,-46.46 587.82,-33.23 609.5,-23.41"/>
<polygon fill="black" stroke="black" points="611.2,-26.48 618.86,-19.17 608.31,-20.11 611.2,-26.48"/>
</g>
<!-- IdealChannel -->
<g id="node8" class="node">
<title>IdealChannel</title>
<g id="a_node8"><a xlink:href="ned.IdealChannel.html" xlink:title="Channel IdealChannel" target="_parent">
<polygon fill="#d0ffd0" stroke="black" points="782,-19 702,-19 702,0 782,0 782,-19"/>
<text text-anchor="middle" x="742" y="-7" font-family="Helvetica,sans-Serif" font-size="10.00">IdealChannel</text>
</a>
</g>
</g>
<!-- InputQueueSwitching&#45;&gt;IdealChannel -->
<g id="edge7" class="edge">
<title>InputQueueSwitching&#45;&gt;IdealChannel</title>
<path fill="none" stroke="black" d="M556.51,-54.98C594.49,-45.87 654.87,-31.4 696.36,-21.45"/>
<polygon fill="black" stroke="black" points="697.31,-24.82 706.21,-19.08 695.67,-18.01 697.31,-24.82"/>
</g>
<!-- ActivePacketSource -->
<g id="node9" class="node">
<title>ActivePacketSource</title>
<g id="a_node9"><a xlink:href="inet.queueing.source.ActivePacketSource.html" xlink:title="Simple Module ActivePacketSource" target="_parent">
<polygon fill="#fffcaf" stroke="black" points="912,-19 800,-19 800,0 912,0 912,-19"/>
<text text-anchor="middle" x="856" y="-7" font-family="Helvetica,sans-Serif" font-size="10.00">ActivePacketSource</text>
</a>
</g>
</g>
<!-- InputQueueSwitching&#45;&gt;ActivePacketSource -->
<g id="edge8" class="edge">
<title>InputQueueSwitching&#45;&gt;ActivePacketSource</title>
<path fill="none" stroke="black" d="M574.82,-54.98C633.95,-45.63 728.87,-30.61 791.83,-20.65"/>
<polygon fill="black" stroke="black" points="792.7,-24.06 802.03,-19.04 791.61,-17.14 792.7,-24.06"/>
</g>
<!-- PacketMultiplexer -->
<g id="node10" class="node">
<title>PacketMultiplexer</title>
<g id="a_node10"><a xlink:href="inet.queueing.common.PacketMultiplexer.html" xlink:title="Simple Module PacketMultiplexer" target="_parent">
<polygon fill="#fffcaf" stroke="black" points="1033.5,-19 930.5,-19 930.5,0 1033.5,0 1033.5,-19"/>
<text text-anchor="middle" x="982" y="-7" font-family="Helvetica,sans-Serif" font-size="10.00">PacketMultiplexer</text>
</a>
</g>
</g>
<!-- InputQueueSwitching&#45;&gt;PacketMultiplexer -->
<g id="edge9" class="edge">
<title>InputQueueSwitching&#45;&gt;PacketMultiplexer</title>
<path fill="none" stroke="black" d="M581.03,-57.34C657.27,-49.41 793.13,-34.88 920.13,-19.08"/>
<polygon fill="black" stroke="black" points="920.94,-22.5 930.43,-17.79 920.07,-15.56 920.94,-22.5"/>
</g>
</g>
</svg>
