<?xml version="1.0" encoding="UTF-8" standalone="no"?>
<!DOCTYPE svg PUBLIC "-//W3C//DTD SVG 1.1//EN"
 "http://www.w3.org/Graphics/SVG/1.1/DTD/svg11.dtd">
<!-- Generated by graphviz version 2.43.0 (0)
 -->
<!-- Title: opp Pages: 1 -->
<svg width="200pt" height="82pt"
 viewBox="0.00 0.00 199.50 82.00" xmlns="http://www.w3.org/2000/svg" xmlns:xlink="http://www.w3.org/1999/xlink">
<g id="graph0" class="graph" transform="scale(1 1) rotate(0) translate(4 78)">
<title>opp</title>
<polygon fill="transparent" stroke="transparent" points="-4,4 -4,-78 195.5,-78 195.5,4 -4,4"/>
<!-- EthernetTypeOrLengthChecker -->
<g id="node1" class="node">
<title>EthernetTypeOrLengthChecker</title>
<g id="a_node1"><a xlink:href="inet.linklayer.ethernet.modular.EthernetTypeOrLengthChecker.html" xlink:title="Simple Module EthernetTypeOrLengthChecker" target="_parent">
<polygon fill="#fff700" stroke="black" points="182.5,-19 18.5,-19 18.5,0 182.5,0 182.5,-19"/>
<text text-anchor="middle" x="100.5" y="-7" font-family="Helvetica,sans-Serif" font-size="10.00">EthernetTypeOrLengthChecker</text>
</a>
</g>
</g>
<!-- PacketFilterBase -->
<g id="node2" class="node">
<title>PacketFilterBase</title>
<g id="a_node2"><a xlink:href="inet.queueing.base.PacketFilterBase.html" xlink:title="Simple Module PacketFilterBase" target="_parent">
<polygon fill="#fffcaf" stroke="black" points="97,-74 0,-74 0,-55 97,-55 97,-74"/>
<text text-anchor="middle" x="48.5" y="-62" font-family="Helvetica,sans-Serif" font-size="10.00">PacketFilterBase</text>
</a>
</g>
</g>
<!-- PacketFilterBase&#45;&gt;EthernetTypeOrLengthChecker -->
<g id="edge1" class="edge">
<title>PacketFilterBase&#45;&gt;EthernetTypeOrLengthChecker</title>
<path fill="none" stroke="black" d="M57.09,-54.75C66.78,-44.87 82.45,-28.9 92.07,-19.09"/>
</g>
<!-- IPacketFilter -->
<g id="node3" class="node">
<title>IPacketFilter</title>
<g id="a_node3"><a xlink:href="inet.queueing.contract.IPacketFilter.html" xlink:title="Module Interface IPacketFilter" target="_parent">
<polygon fill="#fffcaf" stroke="black" stroke-dasharray="5,2" points="191.5,-74 115.5,-74 115.5,-55 191.5,-55 191.5,-74"/>
<text text-anchor="middle" x="153.5" y="-62" font-family="Helvetica,sans-Serif" font-size="10.00">IPacketFilter</text>
</a>
</g>
</g>
<!-- IPacketFilter&#45;&gt;EthernetTypeOrLengthChecker -->
<g id="edge2" class="edge">
<title>IPacketFilter&#45;&gt;EthernetTypeOrLengthChecker</title>
<path fill="none" stroke="black" stroke-dasharray="5,2" d="M144.75,-54.75C134.87,-44.87 118.9,-28.9 109.09,-19.09"/>
</g>
</g>
</svg>
