<?xml version="1.0" encoding="UTF-8" standalone="no"?>
<!DOCTYPE svg PUBLIC "-//W3C//DTD SVG 1.1//EN"
 "http://www.w3.org/Graphics/SVG/1.1/DTD/svg11.dtd">
<!-- Generated by graphviz version 2.43.0 (0)
 -->
<!-- Title: opp Pages: 1 -->
<svg width="712pt" height="137pt"
 viewBox="0.00 0.00 712.00 137.00" xmlns="http://www.w3.org/2000/svg" xmlns:xlink="http://www.w3.org/1999/xlink">
<g id="graph0" class="graph" transform="scale(1 1) rotate(0) translate(4 133)">
<title>opp</title>
<polygon fill="transparent" stroke="transparent" points="-4,4 -4,-133 708,-133 708,4 -4,4"/>
<!-- NarrowbandTransmitterBase -->
<g id="node1" class="node">
<title>NarrowbandTransmitterBase</title>
<g id="a_node1"><a xlink:href="inet.physicallayer.wireless.common.base.packetlevel.NarrowbandTransmitterBase.html" xlink:title="Compound Module NarrowbandTransmitterBase" target="_parent">
<polygon fill="#fff700" stroke="black" points="385.5,-74 230.5,-74 230.5,-55 385.5,-55 385.5,-74"/>
<text text-anchor="middle" x="308" y="-62" font-family="Helvetica,sans-Serif" font-size="10.00">NarrowbandTransmitterBase</text>
</a>
</g>
</g>
<!-- ApskScalarTransmitter -->
<g id="node3" class="node">
<title>ApskScalarTransmitter</title>
<g id="a_node3"><a xlink:href="inet.physicallayer.wireless.apsk.packetlevel.ApskScalarTransmitter.html" xlink:title="Compound Module ApskScalarTransmitter" target="_parent">
<polygon fill="#fffcaf" stroke="black" points="126,-19 0,-19 0,0 126,0 126,-19"/>
<text text-anchor="middle" x="63" y="-7" font-family="Helvetica,sans-Serif" font-size="10.00">ApskScalarTransmitter</text>
</a>
</g>
</g>
<!-- NarrowbandTransmitterBase&#45;&gt;ApskScalarTransmitter -->
<g id="edge2" class="edge">
<title>NarrowbandTransmitterBase&#45;&gt;ApskScalarTransmitter</title>
<path fill="none" stroke="black" d="M268.64,-54.98C223.05,-45.12 148.39,-28.97 102.67,-19.08"/>
</g>
<!-- DimensionalTransmitterBase -->
<g id="node4" class="node">
<title>DimensionalTransmitterBase</title>
<g id="a_node4"><a xlink:href="inet.physicallayer.wireless.common.base.packetlevel.DimensionalTransmitterBase.html" xlink:title="Compound Module DimensionalTransmitterBase" target="_parent">
<polygon fill="#fffcaf" stroke="black" points="302,-19 144,-19 144,0 302,0 302,-19"/>
<text text-anchor="middle" x="223" y="-7" font-family="Helvetica,sans-Serif" font-size="10.00">DimensionalTransmitterBase</text>
</a>
</g>
</g>
<!-- NarrowbandTransmitterBase&#45;&gt;DimensionalTransmitterBase -->
<g id="edge3" class="edge">
<title>NarrowbandTransmitterBase&#45;&gt;DimensionalTransmitterBase</title>
<path fill="none" stroke="black" d="M294.34,-54.98C278.58,-45.15 252.78,-29.07 236.91,-19.17"/>
</g>
<!-- Ieee80211TransmitterBase -->
<g id="node5" class="node">
<title>Ieee80211TransmitterBase</title>
<g id="a_node5"><a xlink:href="inet.physicallayer.wireless.ieee80211.packetlevel.Ieee80211TransmitterBase.html" xlink:title="Compound Module Ieee80211TransmitterBase" target="_parent">
<polygon fill="#fffcaf" stroke="black" points="467.5,-19 320.5,-19 320.5,0 467.5,0 467.5,-19"/>
<text text-anchor="middle" x="394" y="-7" font-family="Helvetica,sans-Serif" font-size="10.00">Ieee80211TransmitterBase</text>
</a>
</g>
</g>
<!-- NarrowbandTransmitterBase&#45;&gt;Ieee80211TransmitterBase -->
<g id="edge4" class="edge">
<title>NarrowbandTransmitterBase&#45;&gt;Ieee80211TransmitterBase</title>
<path fill="none" stroke="black" d="M321.82,-54.98C337.77,-45.15 363.87,-29.07 379.93,-19.17"/>
</g>
<!-- Ieee802154NarrowbandScalarTransmitter -->
<g id="node6" class="node">
<title>Ieee802154NarrowbandScalarTransmitter</title>
<g id="a_node6"><a xlink:href="inet.physicallayer.wireless.ieee802154.packetlevel.Ieee802154NarrowbandScalarTransmitter.html" xlink:title="Compound Module Ieee802154NarrowbandScalarTransmitter" target="_parent">
<polygon fill="#fffcaf" stroke="black" points="704,-19 486,-19 486,0 704,0 704,-19"/>
<text text-anchor="middle" x="595" y="-7" font-family="Helvetica,sans-Serif" font-size="10.00">Ieee802154NarrowbandScalarTransmitter</text>
</a>
</g>
</g>
<!-- NarrowbandTransmitterBase&#45;&gt;Ieee802154NarrowbandScalarTransmitter -->
<g id="edge5" class="edge">
<title>NarrowbandTransmitterBase&#45;&gt;Ieee802154NarrowbandScalarTransmitter</title>
<path fill="none" stroke="black" d="M354.11,-54.98C407.51,-45.12 494.98,-28.97 548.53,-19.08"/>
</g>
<!-- ITransmitter -->
<g id="node2" class="node">
<title>ITransmitter</title>
<g id="a_node2"><a xlink:href="inet.physicallayer.wireless.common.contract.packetlevel.ITransmitter.html" xlink:title="Module Interface ITransmitter" target="_parent">
<polygon fill="#fffcaf" stroke="black" stroke-dasharray="5,2" points="345.5,-129 270.5,-129 270.5,-110 345.5,-110 345.5,-129"/>
<text text-anchor="middle" x="308" y="-117" font-family="Helvetica,sans-Serif" font-size="10.00">ITransmitter</text>
</a>
</g>
</g>
<!-- ITransmitter&#45;&gt;NarrowbandTransmitterBase -->
<g id="edge1" class="edge">
<title>ITransmitter&#45;&gt;NarrowbandTransmitterBase</title>
<path fill="none" stroke="black" stroke-dasharray="5,2" d="M308,-109.75C308,-99.87 308,-83.9 308,-74.09"/>
</g>
</g>
</svg>
