<?xml version="1.0" encoding="UTF-8" standalone="no"?>
<!DOCTYPE svg PUBLIC "-//W3C//DTD SVG 1.1//EN"
 "http://www.w3.org/Graphics/SVG/1.1/DTD/svg11.dtd">
<!-- Generated by graphviz version 2.43.0 (0)
 -->
<!-- Title: opp Pages: 1 -->
<svg width="324pt" height="137pt"
 viewBox="0.00 0.00 323.50 137.00" xmlns="http://www.w3.org/2000/svg" xmlns:xlink="http://www.w3.org/1999/xlink">
<g id="graph0" class="graph" transform="scale(1 1) rotate(0) translate(4 133)">
<title>opp</title>
<polygon fill="transparent" stroke="transparent" points="-4,4 -4,-133 319.5,-133 319.5,4 -4,4"/>
<!-- OSPF_Area1 -->
<g id="node1" class="node">
<title>OSPF_Area1</title>
<g id="a_node1"><a xlink:href="inet.examples.ospfv2.fulltest.OSPF_Area1.html" xlink:title="Compound Module OSPF_Area1" target="_parent">
<polygon fill="#fff700" stroke="black" points="191.5,-74 115.5,-74 115.5,-55 191.5,-55 191.5,-74"/>
<text text-anchor="middle" x="153.5" y="-62" font-family="Helvetica,sans-Serif" font-size="10.00">OSPF_Area1</text>
</a>
</g>
</g>
<!-- OspfRouter -->
<g id="node2" class="node">
<title>OspfRouter</title>
<g id="a_node2"><a xlink:href="inet.node.ospfv2.OspfRouter.html" xlink:title="Compound Module OspfRouter" target="_parent">
<polygon fill="#fffcaf" stroke="black" points="71,-19 0,-19 0,0 71,0 71,-19"/>
<text text-anchor="middle" x="35.5" y="-7" font-family="Helvetica,sans-Serif" font-size="10.00">OspfRouter</text>
</a>
</g>
</g>
<!-- OSPF_Area1&#45;&gt;OspfRouter -->
<g id="edge1" class="edge">
<title>OSPF_Area1&#45;&gt;OspfRouter</title>
<path fill="none" stroke="black" d="M134.54,-54.98C115.47,-46.42 85.84,-33.11 63.95,-23.28"/>
<polygon fill="black" stroke="black" points="65.36,-20.07 54.8,-19.17 62.49,-26.46 65.36,-20.07"/>
</g>
<!-- OspfLan -->
<g id="node3" class="node">
<title>OspfLan</title>
<g id="a_node3"><a xlink:href="inet.examples.ospfv2.fulltest.OspfLan.html" xlink:title="Compound Module OspfLan" target="_parent">
<polygon fill="#fffcaf" stroke="black" points="145.5,-19 89.5,-19 89.5,0 145.5,0 145.5,-19"/>
<text text-anchor="middle" x="117.5" y="-7" font-family="Helvetica,sans-Serif" font-size="10.00">OspfLan</text>
</a>
</g>
</g>
<!-- OSPF_Area1&#45;&gt;OspfLan -->
<g id="edge2" class="edge">
<title>OSPF_Area1&#45;&gt;OspfLan</title>
<path fill="none" stroke="black" d="M147.56,-54.75C142.52,-47.34 135.16,-36.5 128.99,-27.41"/>
<polygon fill="black" stroke="black" points="131.85,-25.39 123.33,-19.09 126.06,-29.33 131.85,-25.39"/>
</g>
<!-- C -->
<g id="node4" class="node">
<title>C</title>
<g id="a_node4"><a xlink:href="inet.examples.ospfv2.fulltest.C.html" xlink:title="Channel C" target="_parent">
<polygon fill="#d0ffd0" stroke="black" points="217.5,-19 163.5,-19 163.5,0 217.5,0 217.5,-19"/>
<text text-anchor="middle" x="190.5" y="-7" font-family="Helvetica,sans-Serif" font-size="10.00">C</text>
</a>
</g>
</g>
<!-- OSPF_Area1&#45;&gt;C -->
<g id="edge3" class="edge">
<title>OSPF_Area1&#45;&gt;C</title>
<path fill="none" stroke="black" d="M159.61,-54.75C164.78,-47.34 172.35,-36.5 178.69,-27.41"/>
<polygon fill="black" stroke="black" points="181.65,-29.29 184.5,-19.09 175.91,-25.29 181.65,-29.29"/>
</g>
<!-- IdealChannel -->
<g id="node5" class="node">
<title>IdealChannel</title>
<g id="a_node5"><a xlink:href="ned.IdealChannel.html" xlink:title="Channel IdealChannel" target="_parent">
<polygon fill="#d0ffd0" stroke="black" points="315.5,-19 235.5,-19 235.5,0 315.5,0 315.5,-19"/>
<text text-anchor="middle" x="275.5" y="-7" font-family="Helvetica,sans-Serif" font-size="10.00">IdealChannel</text>
</a>
</g>
</g>
<!-- OSPF_Area1&#45;&gt;IdealChannel -->
<g id="edge4" class="edge">
<title>OSPF_Area1&#45;&gt;IdealChannel</title>
<path fill="none" stroke="black" d="M173.1,-54.98C192.82,-46.42 223.45,-33.11 246.08,-23.28"/>
<polygon fill="black" stroke="black" points="247.76,-26.37 255.54,-19.17 244.98,-19.94 247.76,-26.37"/>
</g>
<!-- OSPF_RFC2328_Fig6 -->
<g id="node6" class="node">
<title>OSPF_RFC2328_Fig6</title>
<g id="a_node6"><a xlink:href="inet.examples.ospfv2.fulltest.OSPF_RFC2328_Fig6.html" xlink:title="Network OSPF_RFC2328_Fig6" target="_parent">
<polygon fill="#d0d0ff" stroke="black" points="211.5,-129 95.5,-129 95.5,-110 211.5,-110 211.5,-129"/>
<text text-anchor="middle" x="153.5" y="-117" font-family="Helvetica,sans-Serif" font-size="10.00">OSPF_RFC2328_Fig6</text>
</a>
</g>
</g>
<!-- OSPF_RFC2328_Fig6&#45;&gt;OSPF_Area1 -->
<g id="edge5" class="edge">
<title>OSPF_RFC2328_Fig6&#45;&gt;OSPF_Area1</title>
<path fill="none" stroke="black" d="M153.5,-109.75C153.5,-102.8 153.5,-92.85 153.5,-84.13"/>
<polygon fill="black" stroke="black" points="157,-84.09 153.5,-74.09 150,-84.09 157,-84.09"/>
</g>
</g>
</svg>
