<?xml version="1.0" encoding="UTF-8" standalone="no"?>
<!DOCTYPE svg PUBLIC "-//W3C//DTD SVG 1.1//EN"
 "http://www.w3.org/Graphics/SVG/1.1/DTD/svg11.dtd">
<!-- Generated by graphviz version 2.43.0 (0)
 -->
<!-- Title: opp Pages: 1 -->
<svg width="478pt" height="82pt"
 viewBox="0.00 0.00 477.50 82.00" xmlns="http://www.w3.org/2000/svg" xmlns:xlink="http://www.w3.org/1999/xlink">
<g id="graph0" class="graph" transform="scale(1 1) rotate(0) translate(4 78)">
<title>opp</title>
<polygon fill="transparent" stroke="transparent" points="-4,4 -4,-78 473.5,-78 473.5,4 -4,4"/>
<!-- DemultiplexerTutorialStep -->
<g id="node1" class="node">
<title>DemultiplexerTutorialStep</title>
<g id="a_node1"><a xlink:href="inet.tutorials.queueing.DemultiplexerTutorialStep.html" xlink:title="Network DemultiplexerTutorialStep" target="_parent">
<polygon fill="#9090ff" stroke="black" points="324,-74 181,-74 181,-55 324,-55 324,-74"/>
<text text-anchor="middle" x="252.5" y="-62" font-family="Helvetica,sans-Serif" font-size="10.00">DemultiplexerTutorialStep</text>
</a>
</g>
</g>
<!-- PacketDemultiplexer -->
<g id="node2" class="node">
<title>PacketDemultiplexer</title>
<g id="a_node2"><a xlink:href="inet.queueing.common.PacketDemultiplexer.html" xlink:title="Simple Module PacketDemultiplexer" target="_parent">
<polygon fill="#fffcaf" stroke="black" points="117,-19 0,-19 0,0 117,0 117,-19"/>
<text text-anchor="middle" x="58.5" y="-7" font-family="Helvetica,sans-Serif" font-size="10.00">PacketDemultiplexer</text>
</a>
</g>
</g>
<!-- DemultiplexerTutorialStep&#45;&gt;PacketDemultiplexer -->
<g id="edge1" class="edge">
<title>DemultiplexerTutorialStep&#45;&gt;PacketDemultiplexer</title>
<path fill="none" stroke="black" d="M221.33,-54.98C188.34,-45.97 136.1,-31.7 99.73,-21.76"/>
<polygon fill="black" stroke="black" points="100.48,-18.34 89.91,-19.08 98.64,-25.09 100.48,-18.34"/>
</g>
<!-- PassivePacketSource -->
<g id="node3" class="node">
<title>PassivePacketSource</title>
<g id="a_node3"><a xlink:href="inet.queueing.source.PassivePacketSource.html" xlink:title="Simple Module PassivePacketSource" target="_parent">
<polygon fill="#fffcaf" stroke="black" points="253.5,-19 135.5,-19 135.5,0 253.5,0 253.5,-19"/>
<text text-anchor="middle" x="194.5" y="-7" font-family="Helvetica,sans-Serif" font-size="10.00">PassivePacketSource</text>
</a>
</g>
</g>
<!-- DemultiplexerTutorialStep&#45;&gt;PassivePacketSource -->
<g id="edge2" class="edge">
<title>DemultiplexerTutorialStep&#45;&gt;PassivePacketSource</title>
<path fill="none" stroke="black" d="M243.18,-54.98C234.69,-47.23 221.94,-35.58 211.62,-26.14"/>
<polygon fill="black" stroke="black" points="213.73,-23.33 203.99,-19.17 209.01,-28.5 213.73,-23.33"/>
</g>
<!-- IdealChannel -->
<g id="node4" class="node">
<title>IdealChannel</title>
<g id="a_node4"><a xlink:href="ned.IdealChannel.html" xlink:title="Channel IdealChannel" target="_parent">
<polygon fill="#d0ffd0" stroke="black" points="351.5,-19 271.5,-19 271.5,0 351.5,0 351.5,-19"/>
<text text-anchor="middle" x="311.5" y="-7" font-family="Helvetica,sans-Serif" font-size="10.00">IdealChannel</text>
</a>
</g>
</g>
<!-- DemultiplexerTutorialStep&#45;&gt;IdealChannel -->
<g id="edge3" class="edge">
<title>DemultiplexerTutorialStep&#45;&gt;IdealChannel</title>
<path fill="none" stroke="black" d="M261.98,-54.98C270.7,-47.15 283.84,-35.34 294.4,-25.86"/>
<polygon fill="black" stroke="black" points="296.75,-28.46 301.85,-19.17 292.07,-23.25 296.75,-28.46"/>
</g>
<!-- ActivePacketSink -->
<g id="node5" class="node">
<title>ActivePacketSink</title>
<g id="a_node5"><a xlink:href="inet.queueing.sink.ActivePacketSink.html" xlink:title="Simple Module ActivePacketSink" target="_parent">
<polygon fill="#fffcaf" stroke="black" points="469.5,-19 369.5,-19 369.5,0 469.5,0 469.5,-19"/>
<text text-anchor="middle" x="419.5" y="-7" font-family="Helvetica,sans-Serif" font-size="10.00">ActivePacketSink</text>
</a>
</g>
</g>
<!-- DemultiplexerTutorialStep&#45;&gt;ActivePacketSink -->
<g id="edge4" class="edge">
<title>DemultiplexerTutorialStep&#45;&gt;ActivePacketSink</title>
<path fill="none" stroke="black" d="M279.33,-54.98C307.37,-46.09 351.55,-32.07 382.8,-22.15"/>
<polygon fill="black" stroke="black" points="383.99,-25.44 392.46,-19.08 381.87,-18.77 383.99,-25.44"/>
</g>
</g>
</svg>
