<?xml version="1.0" encoding="UTF-8" standalone="no"?>
<!DOCTYPE svg PUBLIC "-//W3C//DTD SVG 1.1//EN"
 "http://www.w3.org/Graphics/SVG/1.1/DTD/svg11.dtd">
<!-- Generated by graphviz version 2.43.0 (0)
 -->
<!-- Title: opp Pages: 1 -->
<svg width="398pt" height="82pt"
 viewBox="0.00 0.00 397.50 82.00" xmlns="http://www.w3.org/2000/svg" xmlns:xlink="http://www.w3.org/1999/xlink">
<g id="graph0" class="graph" transform="scale(1 1) rotate(0) translate(4 78)">
<title>opp</title>
<polygon fill="transparent" stroke="transparent" points="-4,4 -4,-78 393.5,-78 393.5,4 -4,4"/>
<!-- DcTcpIncast -->
<g id="node1" class="node">
<title>DcTcpIncast</title>
<g id="a_node1"><a xlink:href="inet.examples.inet.dctcp.DcTcpIncast.html" xlink:title="Network DcTcpIncast" target="_parent">
<polygon fill="#9090ff" stroke="black" points="219.5,-74 145.5,-74 145.5,-55 219.5,-55 219.5,-74"/>
<text text-anchor="middle" x="182.5" y="-62" font-family="Helvetica,sans-Serif" font-size="10.00">DcTcpIncast</text>
</a>
</g>
</g>
<!-- NormalP -->
<g id="node2" class="node">
<title>NormalP</title>
<g id="a_node2"><a xlink:href="inet.examples.inet.dctcp.DcTcpIncast.NormalP.html" xlink:title="Channel NormalP" target="_parent">
<polygon fill="#d0ffd0" stroke="black" points="59,-19 0,-19 0,0 59,0 59,-19"/>
<text text-anchor="middle" x="29.5" y="-7" font-family="Helvetica,sans-Serif" font-size="10.00">NormalP</text>
</a>
</g>
</g>
<!-- DcTcpIncast&#45;&gt;NormalP -->
<g id="edge1" class="edge">
<title>DcTcpIncast&#45;&gt;NormalP</title>
<path fill="none" stroke="black" d="M157.92,-54.98C132.45,-46.16 92.46,-32.31 63.87,-22.41"/>
<polygon fill="black" stroke="black" points="64.87,-19.05 54.27,-19.08 62.58,-25.66 64.87,-19.05"/>
</g>
<!-- StandardHost -->
<g id="node3" class="node">
<title>StandardHost</title>
<g id="a_node3"><a xlink:href="inet.node.inet.StandardHost.html" xlink:title="Compound Module StandardHost" target="_parent">
<polygon fill="#fffcaf" stroke="black" points="160,-19 77,-19 77,0 160,0 160,-19"/>
<text text-anchor="middle" x="118.5" y="-7" font-family="Helvetica,sans-Serif" font-size="10.00">StandardHost</text>
</a>
</g>
</g>
<!-- DcTcpIncast&#45;&gt;StandardHost -->
<g id="edge2" class="edge">
<title>DcTcpIncast&#45;&gt;StandardHost</title>
<path fill="none" stroke="black" d="M172.22,-54.98C162.66,-47.07 148.22,-35.11 136.72,-25.58"/>
<polygon fill="black" stroke="black" points="138.9,-22.85 128.97,-19.17 134.44,-28.24 138.9,-22.85"/>
</g>
<!-- Ipv4NetworkConfigurator -->
<g id="node4" class="node">
<title>Ipv4NetworkConfigurator</title>
<g id="a_node4"><a xlink:href="inet.networklayer.configurator.ipv4.Ipv4NetworkConfigurator.html" xlink:title="Simple Module Ipv4NetworkConfigurator" target="_parent">
<polygon fill="#fffcaf" stroke="black" points="317,-19 178,-19 178,0 317,0 317,-19"/>
<text text-anchor="middle" x="247.5" y="-7" font-family="Helvetica,sans-Serif" font-size="10.00">Ipv4NetworkConfigurator</text>
</a>
</g>
</g>
<!-- DcTcpIncast&#45;&gt;Ipv4NetworkConfigurator -->
<g id="edge3" class="edge">
<title>DcTcpIncast&#45;&gt;Ipv4NetworkConfigurator</title>
<path fill="none" stroke="black" d="M192.94,-54.98C202.65,-47.07 217.32,-35.11 229,-25.58"/>
<polygon fill="black" stroke="black" points="231.33,-28.2 236.87,-19.17 226.9,-22.78 231.33,-28.2"/>
</g>
<!-- Router -->
<g id="node5" class="node">
<title>Router</title>
<g id="a_node5"><a xlink:href="inet.node.inet.Router.html" xlink:title="Compound Module Router" target="_parent">
<polygon fill="#fffcaf" stroke="black" points="389.5,-19 335.5,-19 335.5,0 389.5,0 389.5,-19"/>
<text text-anchor="middle" x="362.5" y="-7" font-family="Helvetica,sans-Serif" font-size="10.00">Router</text>
</a>
</g>
</g>
<!-- DcTcpIncast&#45;&gt;Router -->
<g id="edge4" class="edge">
<title>DcTcpIncast&#45;&gt;Router</title>
<path fill="none" stroke="black" d="M211.42,-54.98C242.4,-45.86 291.67,-31.36 325.46,-21.41"/>
<polygon fill="black" stroke="black" points="326.81,-24.66 335.42,-18.47 324.84,-17.94 326.81,-24.66"/>
</g>
</g>
</svg>
