<?xml version="1.0" encoding="UTF-8" standalone="no"?>
<!DOCTYPE svg PUBLIC "-//W3C//DTD SVG 1.1//EN"
 "http://www.w3.org/Graphics/SVG/1.1/DTD/svg11.dtd">
<!-- Generated by graphviz version 2.43.0 (0)
 -->
<!-- Title: opp Pages: 1 -->
<svg width="493pt" height="82pt"
 viewBox="0.00 0.00 493.00 82.00" xmlns="http://www.w3.org/2000/svg" xmlns:xlink="http://www.w3.org/1999/xlink">
<g id="graph0" class="graph" transform="scale(1 1) rotate(0) translate(4 78)">
<title>opp</title>
<polygon fill="transparent" stroke="transparent" points="-4,4 -4,-78 489,-78 489,4 -4,4"/>
<!-- WirelessA -->
<g id="node1" class="node">
<title>WirelessA</title>
<g id="a_node1"><a xlink:href="inet.tutorials.wireless.WirelessA.html" xlink:title="Network WirelessA" target="_parent">
<polygon fill="#9090ff" stroke="black" points="257,-74 192,-74 192,-55 257,-55 257,-74"/>
<text text-anchor="middle" x="224.5" y="-62" font-family="Helvetica,sans-Serif" font-size="10.00">WirelessA</text>
</a>
</g>
</g>
<!-- IRadioMedium -->
<g id="node2" class="node">
<title>IRadioMedium</title>
<g id="a_node2"><a xlink:href="inet.physicallayer.wireless.common.contract.packetlevel.IRadioMedium.html" xlink:title="Module Interface IRadioMedium" target="_parent">
<polygon fill="#fffcaf" stroke="black" stroke-dasharray="5,2" points="87,-19 0,-19 0,0 87,0 87,-19"/>
<text text-anchor="middle" x="43.5" y="-7" font-family="Helvetica,sans-Serif" font-size="10.00">IRadioMedium</text>
</a>
</g>
</g>
<!-- WirelessA&#45;&gt;IRadioMedium -->
<g id="edge1" class="edge">
<title>WirelessA&#45;&gt;IRadioMedium</title>
<path fill="none" stroke="black" d="M195.42,-54.98C164.9,-46.05 116.74,-31.94 82.84,-22.02"/>
<polygon fill="black" stroke="black" points="83.39,-18.53 72.81,-19.08 81.42,-25.25 83.39,-18.53"/>
</g>
<!-- IIntegratedVisualizer -->
<g id="node3" class="node">
<title>IIntegratedVisualizer</title>
<g id="a_node3"><a xlink:href="inet.visualizer.contract.IIntegratedVisualizer.html" xlink:title="Module Interface IIntegratedVisualizer" target="_parent">
<polygon fill="#fffcaf" stroke="black" stroke-dasharray="5,2" points="223.5,-19 105.5,-19 105.5,0 223.5,0 223.5,-19"/>
<text text-anchor="middle" x="164.5" y="-7" font-family="Helvetica,sans-Serif" font-size="10.00">IIntegratedVisualizer</text>
</a>
</g>
</g>
<!-- WirelessA&#45;&gt;IIntegratedVisualizer -->
<g id="edge2" class="edge">
<title>WirelessA&#45;&gt;IIntegratedVisualizer</title>
<path fill="none" stroke="black" d="M214.86,-54.98C205.99,-47.15 192.63,-35.34 181.89,-25.86"/>
<polygon fill="black" stroke="black" points="184.13,-23.17 174.32,-19.17 179.49,-28.41 184.13,-23.17"/>
</g>
<!-- INetworkNode -->
<g id="node4" class="node">
<title>INetworkNode</title>
<g id="a_node4"><a xlink:href="inet.node.contract.INetworkNode.html" xlink:title="Module Interface INetworkNode" target="_parent">
<polygon fill="#fffcaf" stroke="black" stroke-dasharray="5,2" points="327.5,-19 241.5,-19 241.5,0 327.5,0 327.5,-19"/>
<text text-anchor="middle" x="284.5" y="-7" font-family="Helvetica,sans-Serif" font-size="10.00">INetworkNode</text>
</a>
</g>
</g>
<!-- WirelessA&#45;&gt;INetworkNode -->
<g id="edge3" class="edge">
<title>WirelessA&#45;&gt;INetworkNode</title>
<path fill="none" stroke="black" d="M234.14,-54.98C243.01,-47.15 256.37,-35.34 267.11,-25.86"/>
<polygon fill="black" stroke="black" points="269.51,-28.41 274.68,-19.17 264.87,-23.17 269.51,-28.41"/>
</g>
<!-- Ipv4NetworkConfigurator -->
<g id="node5" class="node">
<title>Ipv4NetworkConfigurator</title>
<g id="a_node5"><a xlink:href="inet.networklayer.configurator.ipv4.Ipv4NetworkConfigurator.html" xlink:title="Simple Module Ipv4NetworkConfigurator" target="_parent">
<polygon fill="#fffcaf" stroke="black" points="485,-19 346,-19 346,0 485,0 485,-19"/>
<text text-anchor="middle" x="415.5" y="-7" font-family="Helvetica,sans-Serif" font-size="10.00">Ipv4NetworkConfigurator</text>
</a>
</g>
</g>
<!-- WirelessA&#45;&gt;Ipv4NetworkConfigurator -->
<g id="edge4" class="edge">
<title>WirelessA&#45;&gt;Ipv4NetworkConfigurator</title>
<path fill="none" stroke="black" d="M255.19,-54.98C287.67,-45.97 339.1,-31.7 374.91,-21.76"/>
<polygon fill="black" stroke="black" points="375.87,-25.13 384.57,-19.08 374,-18.38 375.87,-25.13"/>
</g>
</g>
</svg>
