<?xml version="1.0" encoding="UTF-8" standalone="no"?>
<!DOCTYPE svg PUBLIC "-//W3C//DTD SVG 1.1//EN"
 "http://www.w3.org/Graphics/SVG/1.1/DTD/svg11.dtd">
<!-- Generated by graphviz version 2.43.0 (0)
 -->
<!-- Title: opp Pages: 1 -->
<svg width="514pt" height="82pt"
 viewBox="0.00 0.00 514.00 82.00" xmlns="http://www.w3.org/2000/svg" xmlns:xlink="http://www.w3.org/1999/xlink">
<g id="graph0" class="graph" transform="scale(1 1) rotate(0) translate(4 78)">
<title>opp</title>
<polygon fill="transparent" stroke="transparent" points="-4,4 -4,-78 510,-78 510,4 -4,4"/>
<!-- EthernetQosRedQueue -->
<g id="node1" class="node">
<title>EthernetQosRedQueue</title>
<g id="a_node1"><a xlink:href="inet.linklayer.ethernet.common.EthernetQosRedQueue.html" xlink:title="Compound Module EthernetQosRedQueue" target="_parent">
<polygon fill="#fff700" stroke="black" points="319.5,-74 192.5,-74 192.5,-55 319.5,-55 319.5,-74"/>
<text text-anchor="middle" x="256" y="-62" font-family="Helvetica,sans-Serif" font-size="10.00">EthernetQosRedQueue</text>
</a>
</g>
</g>
<!-- IPacketClassifier -->
<g id="node2" class="node">
<title>IPacketClassifier</title>
<g id="a_node2"><a xlink:href="inet.queueing.contract.IPacketClassifier.html" xlink:title="Module Interface IPacketClassifier" target="_parent">
<polygon fill="#fffcaf" stroke="black" stroke-dasharray="5,2" points="96,-19 0,-19 0,0 96,0 96,-19"/>
<text text-anchor="middle" x="48" y="-7" font-family="Helvetica,sans-Serif" font-size="10.00">IPacketClassifier</text>
</a>
</g>
</g>
<!-- EthernetQosRedQueue&#45;&gt;IPacketClassifier -->
<g id="edge1" class="edge">
<title>EthernetQosRedQueue&#45;&gt;IPacketClassifier</title>
<path fill="none" stroke="black" d="M222.58,-54.98C187.06,-45.93 130.73,-31.58 91.7,-21.64"/>
<polygon fill="black" stroke="black" points="92.24,-18.16 81.68,-19.08 90.51,-24.94 92.24,-18.16"/>
</g>
<!-- IPacketQueue -->
<g id="node3" class="node">
<title>IPacketQueue</title>
<g id="a_node3"><a xlink:href="inet.queueing.contract.IPacketQueue.html" xlink:title="Module Interface IPacketQueue" target="_parent">
<polygon fill="#fffcaf" stroke="black" stroke-dasharray="5,2" points="197.5,-19 114.5,-19 114.5,0 197.5,0 197.5,-19"/>
<text text-anchor="middle" x="156" y="-7" font-family="Helvetica,sans-Serif" font-size="10.00">IPacketQueue</text>
</a>
</g>
</g>
<!-- EthernetQosRedQueue&#45;&gt;IPacketQueue -->
<g id="edge2" class="edge">
<title>EthernetQosRedQueue&#45;&gt;IPacketQueue</title>
<path fill="none" stroke="black" d="M239.93,-54.98C224.14,-46.61 199.78,-33.7 181.37,-23.95"/>
<polygon fill="black" stroke="black" points="182.83,-20.76 172.36,-19.17 179.56,-26.95 182.83,-20.76"/>
</g>
<!-- IdealChannel -->
<g id="node4" class="node">
<title>IdealChannel</title>
<g id="a_node4"><a xlink:href="ned.IdealChannel.html" xlink:title="Channel IdealChannel" target="_parent">
<polygon fill="#d0ffd0" stroke="black" points="296,-19 216,-19 216,0 296,0 296,-19"/>
<text text-anchor="middle" x="256" y="-7" font-family="Helvetica,sans-Serif" font-size="10.00">IdealChannel</text>
</a>
</g>
</g>
<!-- EthernetQosRedQueue&#45;&gt;IdealChannel -->
<g id="edge3" class="edge">
<title>EthernetQosRedQueue&#45;&gt;IdealChannel</title>
<path fill="none" stroke="black" d="M256,-54.75C256,-47.8 256,-37.85 256,-29.13"/>
<polygon fill="black" stroke="black" points="259.5,-29.09 256,-19.09 252.5,-29.09 259.5,-29.09"/>
</g>
<!-- IPacketScheduler -->
<g id="node5" class="node">
<title>IPacketScheduler</title>
<g id="a_node5"><a xlink:href="inet.queueing.contract.IPacketScheduler.html" xlink:title="Module Interface IPacketScheduler" target="_parent">
<polygon fill="#fffcaf" stroke="black" stroke-dasharray="5,2" points="413.5,-19 314.5,-19 314.5,0 413.5,0 413.5,-19"/>
<text text-anchor="middle" x="364" y="-7" font-family="Helvetica,sans-Serif" font-size="10.00">IPacketScheduler</text>
</a>
</g>
</g>
<!-- EthernetQosRedQueue&#45;&gt;IPacketScheduler -->
<g id="edge4" class="edge">
<title>EthernetQosRedQueue&#45;&gt;IPacketScheduler</title>
<path fill="none" stroke="black" d="M273.35,-54.98C290.57,-46.54 317.2,-33.47 337.15,-23.68"/>
<polygon fill="black" stroke="black" points="338.9,-26.72 346.33,-19.17 335.81,-20.43 338.9,-26.72"/>
</g>
<!-- RedDropper -->
<g id="node6" class="node">
<title>RedDropper</title>
<g id="a_node6"><a xlink:href="inet.queueing.filter.RedDropper.html" xlink:title="Simple Module RedDropper" target="_parent">
<polygon fill="#fffcaf" stroke="black" points="506,-19 432,-19 432,0 506,0 506,-19"/>
<text text-anchor="middle" x="469" y="-7" font-family="Helvetica,sans-Serif" font-size="10.00">RedDropper</text>
</a>
</g>
</g>
<!-- EthernetQosRedQueue&#45;&gt;RedDropper -->
<g id="edge5" class="edge">
<title>EthernetQosRedQueue&#45;&gt;RedDropper</title>
<path fill="none" stroke="black" d="M290.22,-54.98C326.76,-45.89 384.78,-31.46 424.76,-21.51"/>
<polygon fill="black" stroke="black" points="425.65,-24.89 434.51,-19.08 423.96,-18.1 425.65,-24.89"/>
</g>
</g>
</svg>
