<?xml version="1.0" encoding="UTF-8" standalone="no"?>
<!DOCTYPE svg PUBLIC "-//W3C//DTD SVG 1.1//EN"
 "http://www.w3.org/Graphics/SVG/1.1/DTD/svg11.dtd">
<!-- Generated by graphviz version 2.43.0 (0)
 -->
<!-- Title: opp Pages: 1 -->
<svg width="157pt" height="137pt"
 viewBox="0.00 0.00 157.00 137.00" xmlns="http://www.w3.org/2000/svg" xmlns:xlink="http://www.w3.org/1999/xlink">
<g id="graph0" class="graph" transform="scale(1 1) rotate(0) translate(4 133)">
<title>opp</title>
<polygon fill="transparent" stroke="transparent" points="-4,4 -4,-133 153,-133 153,4 -4,4"/>
<!-- LinkBreakVisualizerBase -->
<g id="node1" class="node">
<title>LinkBreakVisualizerBase</title>
<g id="a_node1"><a xlink:href="inet.visualizer.base.LinkBreakVisualizerBase.html" xlink:title="Simple Module LinkBreakVisualizerBase" target="_parent">
<polygon fill="#fff700" stroke="black" points="143,-74 6,-74 6,-55 143,-55 143,-74"/>
<text text-anchor="middle" x="74.5" y="-62" font-family="Helvetica,sans-Serif" font-size="10.00">LinkBreakVisualizerBase</text>
</a>
</g>
</g>
<!-- LinkBreakCanvasVisualizer -->
<g id="node3" class="node">
<title>LinkBreakCanvasVisualizer</title>
<g id="a_node3"><a xlink:href="inet.visualizer.canvas.linklayer.LinkBreakCanvasVisualizer.html" xlink:title="Simple Module LinkBreakCanvasVisualizer" target="_parent">
<polygon fill="#fffcaf" stroke="black" points="149,-19 0,-19 0,0 149,0 149,-19"/>
<text text-anchor="middle" x="74.5" y="-7" font-family="Helvetica,sans-Serif" font-size="10.00">LinkBreakCanvasVisualizer</text>
</a>
</g>
</g>
<!-- LinkBreakVisualizerBase&#45;&gt;LinkBreakCanvasVisualizer -->
<g id="edge2" class="edge">
<title>LinkBreakVisualizerBase&#45;&gt;LinkBreakCanvasVisualizer</title>
<path fill="none" stroke="black" d="M74.5,-54.75C74.5,-44.87 74.5,-28.9 74.5,-19.09"/>
</g>
<!-- VisualizerBase -->
<g id="node2" class="node">
<title>VisualizerBase</title>
<g id="a_node2"><a xlink:href="inet.visualizer.base.VisualizerBase.html" xlink:title="Simple Module VisualizerBase" target="_parent">
<polygon fill="#fffcaf" stroke="black" points="119,-129 30,-129 30,-110 119,-110 119,-129"/>
<text text-anchor="middle" x="74.5" y="-117" font-family="Helvetica,sans-Serif" font-size="10.00">VisualizerBase</text>
</a>
</g>
</g>
<!-- VisualizerBase&#45;&gt;LinkBreakVisualizerBase -->
<g id="edge1" class="edge">
<title>VisualizerBase&#45;&gt;LinkBreakVisualizerBase</title>
<path fill="none" stroke="black" d="M74.5,-109.75C74.5,-99.87 74.5,-83.9 74.5,-74.09"/>
</g>
</g>
</svg>
