<?xml version="1.0" encoding="UTF-8" standalone="no"?>
<!DOCTYPE svg PUBLIC "-//W3C//DTD SVG 1.1//EN"
 "http://www.w3.org/Graphics/SVG/1.1/DTD/svg11.dtd">
<!-- Generated by graphviz version 2.43.0 (0)
 -->
<!-- Title: opp Pages: 1 -->
<svg width="906pt" height="137pt"
 viewBox="0.00 0.00 906.00 137.00" xmlns="http://www.w3.org/2000/svg" xmlns:xlink="http://www.w3.org/1999/xlink">
<g id="graph0" class="graph" transform="scale(1 1) rotate(0) translate(4 133)">
<title>opp</title>
<polygon fill="transparent" stroke="transparent" points="-4,4 -4,-133 902,-133 902,4 -4,4"/>
<!-- MobilityBase -->
<g id="node1" class="node">
<title>MobilityBase</title>
<g id="a_node1"><a xlink:href="inet.mobility.base.MobilityBase.html" xlink:title="Simple Module MobilityBase" target="_parent">
<polygon fill="#fff700" stroke="black" points="466,-74 386,-74 386,-55 466,-55 466,-74"/>
<text text-anchor="middle" x="426" y="-62" font-family="Helvetica,sans-Serif" font-size="10.00">MobilityBase</text>
</a>
</g>
</g>
<!-- AttachedMobility -->
<g id="node3" class="node">
<title>AttachedMobility</title>
<g id="a_node3"><a xlink:href="inet.mobility.single.AttachedMobility.html" xlink:title="Simple Module AttachedMobility" target="_parent">
<polygon fill="#fffcaf" stroke="black" points="100,-19 0,-19 0,0 100,0 100,-19"/>
<text text-anchor="middle" x="50" y="-7" font-family="Helvetica,sans-Serif" font-size="10.00">AttachedMobility</text>
</a>
</g>
</g>
<!-- MobilityBase&#45;&gt;AttachedMobility -->
<g id="edge2" class="edge">
<title>MobilityBase&#45;&gt;AttachedMobility</title>
<path fill="none" stroke="black" d="M385.96,-57.93C325.82,-49.54 208.59,-33.16 109,-19 106.13,-18.59 103.18,-18.17 100.21,-17.75"/>
</g>
<!-- FacingMobility -->
<g id="node4" class="node">
<title>FacingMobility</title>
<g id="a_node4"><a xlink:href="inet.mobility.single.FacingMobility.html" xlink:title="Simple Module FacingMobility" target="_parent">
<polygon fill="#fffcaf" stroke="black" points="205.5,-19 118.5,-19 118.5,0 205.5,0 205.5,-19"/>
<text text-anchor="middle" x="162" y="-7" font-family="Helvetica,sans-Serif" font-size="10.00">FacingMobility</text>
</a>
</g>
</g>
<!-- MobilityBase&#45;&gt;FacingMobility -->
<g id="edge3" class="edge">
<title>MobilityBase&#45;&gt;FacingMobility</title>
<path fill="none" stroke="black" d="M385.9,-55.45C337.01,-45.63 254.7,-29.11 204.67,-19.07"/>
</g>
<!-- MovingMobilityBase -->
<g id="node5" class="node">
<title>MovingMobilityBase</title>
<g id="a_node5"><a xlink:href="inet.mobility.base.MovingMobilityBase.html" xlink:title="Simple Module MovingMobilityBase" target="_parent">
<polygon fill="#fffcaf" stroke="black" points="340,-19 224,-19 224,0 340,0 340,-19"/>
<text text-anchor="middle" x="282" y="-7" font-family="Helvetica,sans-Serif" font-size="10.00">MovingMobilityBase</text>
</a>
</g>
</g>
<!-- MobilityBase&#45;&gt;MovingMobilityBase -->
<g id="edge4" class="edge">
<title>MobilityBase&#45;&gt;MovingMobilityBase</title>
<path fill="none" stroke="black" d="M402.86,-54.98C376.15,-45.15 332.45,-29.07 305.56,-19.17"/>
</g>
<!-- StaticConcentricMobility -->
<g id="node6" class="node">
<title>StaticConcentricMobility</title>
<g id="a_node6"><a xlink:href="inet.mobility.static.StaticConcentricMobility.html" xlink:title="Simple Module StaticConcentricMobility" target="_parent">
<polygon fill="#fffcaf" stroke="black" points="494,-19 358,-19 358,0 494,0 494,-19"/>
<text text-anchor="middle" x="426" y="-7" font-family="Helvetica,sans-Serif" font-size="10.00">StaticConcentricMobility</text>
</a>
</g>
</g>
<!-- MobilityBase&#45;&gt;StaticConcentricMobility -->
<g id="edge5" class="edge">
<title>MobilityBase&#45;&gt;StaticConcentricMobility</title>
<path fill="none" stroke="black" d="M426,-54.75C426,-44.87 426,-28.9 426,-19.09"/>
</g>
<!-- StaticGridMobility -->
<g id="node7" class="node">
<title>StaticGridMobility</title>
<g id="a_node7"><a xlink:href="inet.mobility.static.StaticGridMobility.html" xlink:title="Simple Module StaticGridMobility" target="_parent">
<polygon fill="#fffcaf" stroke="black" points="616,-19 512,-19 512,0 616,0 616,-19"/>
<text text-anchor="middle" x="564" y="-7" font-family="Helvetica,sans-Serif" font-size="10.00">StaticGridMobility</text>
</a>
</g>
</g>
<!-- MobilityBase&#45;&gt;StaticGridMobility -->
<g id="edge6" class="edge">
<title>MobilityBase&#45;&gt;StaticGridMobility</title>
<path fill="none" stroke="black" d="M448.17,-54.98C473.77,-45.15 515.65,-29.07 541.42,-19.17"/>
</g>
<!-- StationaryMobility -->
<g id="node8" class="node">
<title>StationaryMobility</title>
<g id="a_node8"><a xlink:href="inet.mobility.static.StationaryMobility.html" xlink:title="Simple Module StationaryMobility" target="_parent">
<polygon fill="#fffcaf" stroke="black" points="741.5,-19 634.5,-19 634.5,0 741.5,0 741.5,-19"/>
<text text-anchor="middle" x="688" y="-7" font-family="Helvetica,sans-Serif" font-size="10.00">StationaryMobility</text>
</a>
</g>
</g>
<!-- MobilityBase&#45;&gt;StationaryMobility -->
<g id="edge7" class="edge">
<title>MobilityBase&#45;&gt;StationaryMobility</title>
<path fill="none" stroke="black" d="M466.08,-55.39C514.67,-45.56 596.21,-29.07 645.76,-19.05"/>
</g>
<!-- SuperpositioningMobility -->
<g id="node9" class="node">
<title>SuperpositioningMobility</title>
<g id="a_node9"><a xlink:href="inet.mobility.single.SuperpositioningMobility.html" xlink:title="Compound Module SuperpositioningMobility" target="_parent">
<polygon fill="#fffcaf" stroke="black" points="898,-19 760,-19 760,0 898,0 898,-19"/>
<text text-anchor="middle" x="829" y="-7" font-family="Helvetica,sans-Serif" font-size="10.00">SuperpositioningMobility</text>
</a>
</g>
</g>
<!-- MobilityBase&#45;&gt;SuperpositioningMobility -->
<g id="edge8" class="edge">
<title>MobilityBase&#45;&gt;SuperpositioningMobility</title>
<path fill="none" stroke="black" d="M466.11,-58.22C535.9,-49.05 680.2,-30.07 764.29,-19.01"/>
</g>
<!-- IMobility -->
<g id="node2" class="node">
<title>IMobility</title>
<g id="a_node2"><a xlink:href="inet.mobility.contract.IMobility.html" xlink:title="Module Interface IMobility" target="_parent">
<polygon fill="#fffcaf" stroke="black" stroke-dasharray="5,2" points="455.5,-129 396.5,-129 396.5,-110 455.5,-110 455.5,-129"/>
<text text-anchor="middle" x="426" y="-117" font-family="Helvetica,sans-Serif" font-size="10.00">IMobility</text>
</a>
</g>
</g>
<!-- IMobility&#45;&gt;MobilityBase -->
<g id="edge1" class="edge">
<title>IMobility&#45;&gt;MobilityBase</title>
<path fill="none" stroke="black" stroke-dasharray="5,2" d="M426,-109.75C426,-99.87 426,-83.9 426,-74.09"/>
</g>
</g>
</svg>
