<?xml version="1.0" encoding="UTF-8" standalone="no"?>
<!DOCTYPE svg PUBLIC "-//W3C//DTD SVG 1.1//EN"
 "http://www.w3.org/Graphics/SVG/1.1/DTD/svg11.dtd">
<!-- Generated by graphviz version 2.43.0 (0)
 -->
<!-- Title: opp Pages: 1 -->
<svg width="211pt" height="137pt"
 viewBox="0.00 0.00 211.00 137.00" xmlns="http://www.w3.org/2000/svg" xmlns:xlink="http://www.w3.org/1999/xlink">
<g id="graph0" class="graph" transform="scale(1 1) rotate(0) translate(4 133)">
<title>opp</title>
<polygon fill="transparent" stroke="transparent" points="-4,4 -4,-133 207,-133 207,4 -4,4"/>
<!-- PhysicalEnvironmentVisualizerBase -->
<g id="node1" class="node">
<title>PhysicalEnvironmentVisualizerBase</title>
<g id="a_node1"><a xlink:href="inet.visualizer.base.PhysicalEnvironmentVisualizerBase.html" xlink:title="Simple Module PhysicalEnvironmentVisualizerBase" target="_parent">
<polygon fill="#fff700" stroke="black" points="197,-74 6,-74 6,-55 197,-55 197,-74"/>
<text text-anchor="middle" x="101.5" y="-62" font-family="Helvetica,sans-Serif" font-size="10.00">PhysicalEnvironmentVisualizerBase</text>
</a>
</g>
</g>
<!-- PhysicalEnvironmentCanvasVisualizer -->
<g id="node3" class="node">
<title>PhysicalEnvironmentCanvasVisualizer</title>
<g id="a_node3"><a xlink:href="inet.visualizer.canvas.environment.PhysicalEnvironmentCanvasVisualizer.html" xlink:title="Simple Module PhysicalEnvironmentCanvasVisualizer" target="_parent">
<polygon fill="#fffcaf" stroke="black" points="203,-19 0,-19 0,0 203,0 203,-19"/>
<text text-anchor="middle" x="101.5" y="-7" font-family="Helvetica,sans-Serif" font-size="10.00">PhysicalEnvironmentCanvasVisualizer</text>
</a>
</g>
</g>
<!-- PhysicalEnvironmentVisualizerBase&#45;&gt;PhysicalEnvironmentCanvasVisualizer -->
<g id="edge2" class="edge">
<title>PhysicalEnvironmentVisualizerBase&#45;&gt;PhysicalEnvironmentCanvasVisualizer</title>
<path fill="none" stroke="black" d="M101.5,-54.75C101.5,-44.87 101.5,-28.9 101.5,-19.09"/>
</g>
<!-- VisualizerBase -->
<g id="node2" class="node">
<title>VisualizerBase</title>
<g id="a_node2"><a xlink:href="inet.visualizer.base.VisualizerBase.html" xlink:title="Simple Module VisualizerBase" target="_parent">
<polygon fill="#fffcaf" stroke="black" points="146,-129 57,-129 57,-110 146,-110 146,-129"/>
<text text-anchor="middle" x="101.5" y="-117" font-family="Helvetica,sans-Serif" font-size="10.00">VisualizerBase</text>
</a>
</g>
</g>
<!-- VisualizerBase&#45;&gt;PhysicalEnvironmentVisualizerBase -->
<g id="edge1" class="edge">
<title>VisualizerBase&#45;&gt;PhysicalEnvironmentVisualizerBase</title>
<path fill="none" stroke="black" d="M101.5,-109.75C101.5,-99.87 101.5,-83.9 101.5,-74.09"/>
</g>
</g>
</svg>
