<?xml version="1.0" encoding="UTF-8" standalone="no"?>
<!DOCTYPE svg PUBLIC "-//W3C//DTD SVG 1.1//EN"
 "http://www.w3.org/Graphics/SVG/1.1/DTD/svg11.dtd">
<!-- Generated by graphviz version 2.43.0 (0)
 -->
<!-- Title: opp Pages: 1 -->
<svg width="694pt" height="82pt"
 viewBox="0.00 0.00 694.00 82.00" xmlns="http://www.w3.org/2000/svg" xmlns:xlink="http://www.w3.org/1999/xlink">
<g id="graph0" class="graph" transform="scale(1 1) rotate(0) translate(4 78)">
<title>opp</title>
<polygon fill="transparent" stroke="transparent" points="-4,4 -4,-78 690,-78 690,4 -4,4"/>
<!-- Node -->
<g id="node1" class="node">
<title>Node</title>
<g id="a_node1"><a xlink:href="inet.tutorials.protocol.Node.html" xlink:title="Compound Module Node" target="_parent">
<polygon fill="#fff700" stroke="black" points="365,-74 311,-74 311,-55 365,-55 365,-74"/>
<text text-anchor="middle" x="338" y="-62" font-family="Helvetica,sans-Serif" font-size="10.00">Node</text>
</a>
</g>
</g>
<!-- InterfaceTable -->
<g id="node2" class="node">
<title>InterfaceTable</title>
<g id="a_node2"><a xlink:href="inet.networklayer.common.InterfaceTable.html" xlink:title="Simple Module InterfaceTable" target="_parent">
<polygon fill="#fffcaf" stroke="black" points="86,-19 0,-19 0,0 86,0 86,-19"/>
<text text-anchor="middle" x="43" y="-7" font-family="Helvetica,sans-Serif" font-size="10.00">InterfaceTable</text>
</a>
</g>
</g>
<!-- Node&#45;&gt;InterfaceTable -->
<g id="edge1" class="edge">
<title>Node&#45;&gt;InterfaceTable</title>
<path fill="none" stroke="black" d="M310.78,-58.61C262.13,-49.87 159.5,-31.43 96.37,-20.09"/>
<polygon fill="black" stroke="black" points="96.67,-16.59 86.21,-18.26 95.43,-23.48 96.67,-16.59"/>
</g>
<!-- IApp -->
<g id="node3" class="node">
<title>IApp</title>
<g id="a_node3"><a xlink:href="inet.tutorials.protocol.IApp.html" xlink:title="Module Interface IApp" target="_parent">
<polygon fill="#fffcaf" stroke="black" stroke-dasharray="5,2" points="158,-19 104,-19 104,0 158,0 158,-19"/>
<text text-anchor="middle" x="131" y="-7" font-family="Helvetica,sans-Serif" font-size="10.00">IApp</text>
</a>
</g>
</g>
<!-- Node&#45;&gt;IApp -->
<g id="edge2" class="edge">
<title>Node&#45;&gt;IApp</title>
<path fill="none" stroke="black" d="M310.94,-56.57C274.37,-47.21 209.02,-30.48 167.95,-19.96"/>
<polygon fill="black" stroke="black" points="168.62,-16.52 158.07,-17.43 166.89,-23.3 168.62,-16.52"/>
</g>
<!-- MessageDispatcher -->
<g id="node4" class="node">
<title>MessageDispatcher</title>
<g id="a_node4"><a xlink:href="inet.common.MessageDispatcher.html" xlink:title="Simple Module MessageDispatcher" target="_parent">
<polygon fill="#fffcaf" stroke="black" points="289.5,-19 176.5,-19 176.5,0 289.5,0 289.5,-19"/>
<text text-anchor="middle" x="233" y="-7" font-family="Helvetica,sans-Serif" font-size="10.00">MessageDispatcher</text>
</a>
</g>
</g>
<!-- Node&#45;&gt;MessageDispatcher -->
<g id="edge3" class="edge">
<title>Node&#45;&gt;MessageDispatcher</title>
<path fill="none" stroke="black" d="M321.13,-54.98C304.39,-46.54 278.5,-33.47 259.11,-23.68"/>
<polygon fill="black" stroke="black" points="260.68,-20.55 250.18,-19.17 257.53,-26.8 260.68,-20.55"/>
</g>
<!-- Interface -->
<g id="node5" class="node">
<title>Interface</title>
<g id="a_node5"><a xlink:href="inet.tutorials.protocol.Interface.html" xlink:title="Compound Module Interface" target="_parent">
<polygon fill="#fffcaf" stroke="black" points="368,-19 308,-19 308,0 368,0 368,-19"/>
<text text-anchor="middle" x="338" y="-7" font-family="Helvetica,sans-Serif" font-size="10.00">Interface</text>
</a>
</g>
</g>
<!-- Node&#45;&gt;Interface -->
<g id="edge4" class="edge">
<title>Node&#45;&gt;Interface</title>
<path fill="none" stroke="black" d="M338,-54.75C338,-47.8 338,-37.85 338,-29.13"/>
<polygon fill="black" stroke="black" points="341.5,-29.09 338,-19.09 334.5,-29.09 341.5,-29.09"/>
</g>
<!-- IdealChannel -->
<g id="node6" class="node">
<title>IdealChannel</title>
<g id="a_node6"><a xlink:href="ned.IdealChannel.html" xlink:title="Channel IdealChannel" target="_parent">
<polygon fill="#d0ffd0" stroke="black" points="466,-19 386,-19 386,0 466,0 466,-19"/>
<text text-anchor="middle" x="426" y="-7" font-family="Helvetica,sans-Serif" font-size="10.00">IdealChannel</text>
</a>
</g>
</g>
<!-- Node&#45;&gt;IdealChannel -->
<g id="edge5" class="edge">
<title>Node&#45;&gt;IdealChannel</title>
<path fill="none" stroke="black" d="M352.14,-54.98C365.79,-46.77 386.69,-34.18 402.78,-24.49"/>
<polygon fill="black" stroke="black" points="404.84,-27.33 411.6,-19.17 401.23,-21.33 404.84,-27.33"/>
</g>
<!-- ForwardingService -->
<g id="node7" class="node">
<title>ForwardingService</title>
<g id="a_node7"><a xlink:href="inet.tutorials.protocol.ForwardingService.html" xlink:title="Compound Module ForwardingService" target="_parent">
<polygon fill="#fffcaf" stroke="black" points="591.5,-19 484.5,-19 484.5,0 591.5,0 591.5,-19"/>
<text text-anchor="middle" x="538" y="-7" font-family="Helvetica,sans-Serif" font-size="10.00">ForwardingService</text>
</a>
</g>
</g>
<!-- Node&#45;&gt;ForwardingService -->
<g id="edge6" class="edge">
<title>Node&#45;&gt;ForwardingService</title>
<path fill="none" stroke="black" d="M365.39,-56.24C399.05,-47.32 456.52,-32.09 495.82,-21.68"/>
<polygon fill="black" stroke="black" points="496.88,-25.02 505.65,-19.07 495.09,-18.25 496.88,-25.02"/>
</g>
<!-- DataService -->
<g id="node8" class="node">
<title>DataService</title>
<g id="a_node8"><a xlink:href="inet.tutorials.protocol.DataService.html" xlink:title="Compound Module DataService" target="_parent">
<polygon fill="#fffcaf" stroke="black" points="686,-19 610,-19 610,0 686,0 686,-19"/>
<text text-anchor="middle" x="648" y="-7" font-family="Helvetica,sans-Serif" font-size="10.00">DataService</text>
</a>
</g>
</g>
<!-- Node&#45;&gt;DataService -->
<g id="edge7" class="edge">
<title>Node&#45;&gt;DataService</title>
<path fill="none" stroke="black" d="M365.28,-58.99C411.38,-51.34 507.91,-35.23 599.77,-19.2"/>
<polygon fill="black" stroke="black" points="600.54,-22.62 609.79,-17.45 599.33,-15.72 600.54,-22.62"/>
</g>
</g>
</svg>
