<?xml version="1.0" encoding="UTF-8" standalone="no"?>
<!DOCTYPE svg PUBLIC "-//W3C//DTD SVG 1.1//EN"
 "http://www.w3.org/Graphics/SVG/1.1/DTD/svg11.dtd">
<!-- Generated by graphviz version 2.43.0 (0)
 -->
<!-- Title: opp Pages: 1 -->
<svg width="1164pt" height="82pt"
 viewBox="0.00 0.00 1163.50 82.00" xmlns="http://www.w3.org/2000/svg" xmlns:xlink="http://www.w3.org/1999/xlink">
<g id="graph0" class="graph" transform="scale(1 1) rotate(0) translate(4 78)">
<title>opp</title>
<polygon fill="transparent" stroke="transparent" points="-4,4 -4,-78 1159.5,-78 1159.5,4 -4,4"/>
<!-- PacketDropQueueOverflowShowcase -->
<g id="node1" class="node">
<title>PacketDropQueueOverflowShowcase</title>
<g id="a_node1"><a xlink:href="inet.showcases.visualizer.canvas.packetdrop.PacketDropQueueOverflowShowcase.html" xlink:title="Network PacketDropQueueOverflowShowcase" target="_parent">
<polygon fill="#9090ff" stroke="black" points="727.5,-74 532.5,-74 532.5,-55 727.5,-55 727.5,-74"/>
<text text-anchor="middle" x="630" y="-62" font-family="Helvetica,sans-Serif" font-size="10.00">PacketDropQueueOverflowShowcase</text>
</a>
</g>
</g>
<!-- Eth100G -->
<g id="node2" class="node">
<title>Eth100G</title>
<g id="a_node2"><a xlink:href="inet.node.ethernet.Eth100G.html" xlink:title="Channel Eth100G" target="_parent">
<polygon fill="#d0ffd0" stroke="black" points="58,-19 0,-19 0,0 58,0 58,-19"/>
<text text-anchor="middle" x="29" y="-7" font-family="Helvetica,sans-Serif" font-size="10.00">Eth100G</text>
</a>
</g>
</g>
<!-- PacketDropQueueOverflowShowcase&#45;&gt;Eth100G -->
<g id="edge1" class="edge">
<title>PacketDropQueueOverflowShowcase&#45;&gt;Eth100G</title>
<path fill="none" stroke="black" d="M532.39,-59.97C421.94,-55.02 236.57,-43.87 68.41,-19"/>
<polygon fill="black" stroke="black" points="68.79,-15.52 58.38,-17.5 67.75,-22.45 68.79,-15.52"/>
</g>
<!-- IntegratedVisualizer -->
<g id="node3" class="node">
<title>IntegratedVisualizer</title>
<g id="a_node3"><a xlink:href="inet.visualizer.common.IntegratedVisualizer.html" xlink:title="Compound Module IntegratedVisualizer" target="_parent">
<polygon fill="#fffcaf" stroke="black" points="191.5,-19 76.5,-19 76.5,0 191.5,0 191.5,-19"/>
<text text-anchor="middle" x="134" y="-7" font-family="Helvetica,sans-Serif" font-size="10.00">IntegratedVisualizer</text>
</a>
</g>
</g>
<!-- PacketDropQueueOverflowShowcase&#45;&gt;IntegratedVisualizer -->
<g id="edge2" class="edge">
<title>PacketDropQueueOverflowShowcase&#45;&gt;IntegratedVisualizer</title>
<path fill="none" stroke="black" d="M541.4,-54.98C456.7,-46.69 325.14,-33.42 201.6,-19.16"/>
<polygon fill="black" stroke="black" points="201.92,-15.68 191.58,-18 201.11,-22.63 201.92,-15.68"/>
</g>
<!-- Ieee80211ScalarRadioMedium -->
<g id="node4" class="node">
<title>Ieee80211ScalarRadioMedium</title>
<g id="a_node4"><a xlink:href="inet.physicallayer.wireless.ieee80211.packetlevel.Ieee80211ScalarRadioMedium.html" xlink:title="Compound Module Ieee80211ScalarRadioMedium" target="_parent">
<polygon fill="#fffcaf" stroke="black" points="374.5,-19 209.5,-19 209.5,0 374.5,0 374.5,-19"/>
<text text-anchor="middle" x="292" y="-7" font-family="Helvetica,sans-Serif" font-size="10.00">Ieee80211ScalarRadioMedium</text>
</a>
</g>
</g>
<!-- PacketDropQueueOverflowShowcase&#45;&gt;Ieee80211ScalarRadioMedium -->
<g id="edge3" class="edge">
<title>PacketDropQueueOverflowShowcase&#45;&gt;Ieee80211ScalarRadioMedium</title>
<path fill="none" stroke="black" d="M575.69,-54.98C515.91,-45.61 419.87,-30.55 356.36,-20.59"/>
<polygon fill="black" stroke="black" points="356.87,-17.13 346.45,-19.04 355.79,-24.05 356.87,-17.13"/>
</g>
<!-- StandardHost -->
<g id="node5" class="node">
<title>StandardHost</title>
<g id="a_node5"><a xlink:href="inet.node.inet.StandardHost.html" xlink:title="Compound Module StandardHost" target="_parent">
<polygon fill="#fffcaf" stroke="black" points="475.5,-19 392.5,-19 392.5,0 475.5,0 475.5,-19"/>
<text text-anchor="middle" x="434" y="-7" font-family="Helvetica,sans-Serif" font-size="10.00">StandardHost</text>
</a>
</g>
</g>
<!-- PacketDropQueueOverflowShowcase&#45;&gt;StandardHost -->
<g id="edge4" class="edge">
<title>PacketDropQueueOverflowShowcase&#45;&gt;StandardHost</title>
<path fill="none" stroke="black" d="M598.51,-54.98C565.18,-45.97 512.4,-31.7 475.65,-21.76"/>
<polygon fill="black" stroke="black" points="476.3,-18.31 465.74,-19.08 474.48,-25.07 476.3,-18.31"/>
</g>
<!-- WirelessHost -->
<g id="node6" class="node">
<title>WirelessHost</title>
<g id="a_node6"><a xlink:href="inet.node.inet.WirelessHost.html" xlink:title="Compound Module WirelessHost" target="_parent">
<polygon fill="#fffcaf" stroke="black" points="574.5,-19 493.5,-19 493.5,0 574.5,0 574.5,-19"/>
<text text-anchor="middle" x="534" y="-7" font-family="Helvetica,sans-Serif" font-size="10.00">WirelessHost</text>
</a>
</g>
</g>
<!-- PacketDropQueueOverflowShowcase&#45;&gt;WirelessHost -->
<g id="edge5" class="edge">
<title>PacketDropQueueOverflowShowcase&#45;&gt;WirelessHost</title>
<path fill="none" stroke="black" d="M614.58,-54.98C599.55,-46.69 576.46,-33.94 558.84,-24.22"/>
<polygon fill="black" stroke="black" points="560.15,-20.94 549.7,-19.17 556.77,-27.07 560.15,-20.94"/>
</g>
<!-- AccessPoint -->
<g id="node7" class="node">
<title>AccessPoint</title>
<g id="a_node7"><a xlink:href="inet.node.wireless.AccessPoint.html" xlink:title="Compound Module AccessPoint" target="_parent">
<polygon fill="#fffcaf" stroke="black" points="667.5,-19 592.5,-19 592.5,0 667.5,0 667.5,-19"/>
<text text-anchor="middle" x="630" y="-7" font-family="Helvetica,sans-Serif" font-size="10.00">AccessPoint</text>
</a>
</g>
</g>
<!-- PacketDropQueueOverflowShowcase&#45;&gt;AccessPoint -->
<g id="edge6" class="edge">
<title>PacketDropQueueOverflowShowcase&#45;&gt;AccessPoint</title>
<path fill="none" stroke="black" d="M630,-54.75C630,-47.8 630,-37.85 630,-29.13"/>
<polygon fill="black" stroke="black" points="633.5,-29.09 630,-19.09 626.5,-29.09 633.5,-29.09"/>
</g>
<!-- EthernetSwitch -->
<g id="node8" class="node">
<title>EthernetSwitch</title>
<g id="a_node8"><a xlink:href="inet.node.ethernet.EthernetSwitch.html" xlink:title="Compound Module EthernetSwitch" target="_parent">
<polygon fill="#fffcaf" stroke="black" points="776,-19 686,-19 686,0 776,0 776,-19"/>
<text text-anchor="middle" x="731" y="-7" font-family="Helvetica,sans-Serif" font-size="10.00">EthernetSwitch</text>
</a>
</g>
</g>
<!-- PacketDropQueueOverflowShowcase&#45;&gt;EthernetSwitch -->
<g id="edge7" class="edge">
<title>PacketDropQueueOverflowShowcase&#45;&gt;EthernetSwitch</title>
<path fill="none" stroke="black" d="M646.23,-54.98C662.18,-46.61 686.78,-33.7 705.38,-23.95"/>
<polygon fill="black" stroke="black" points="707.25,-26.92 714.48,-19.17 704,-20.72 707.25,-26.92"/>
</g>
<!-- Ipv4NetworkConfigurator -->
<g id="node9" class="node">
<title>Ipv4NetworkConfigurator</title>
<g id="a_node9"><a xlink:href="inet.networklayer.configurator.ipv4.Ipv4NetworkConfigurator.html" xlink:title="Simple Module Ipv4NetworkConfigurator" target="_parent">
<polygon fill="#fffcaf" stroke="black" points="933.5,-19 794.5,-19 794.5,0 933.5,0 933.5,-19"/>
<text text-anchor="middle" x="864" y="-7" font-family="Helvetica,sans-Serif" font-size="10.00">Ipv4NetworkConfigurator</text>
</a>
</g>
</g>
<!-- PacketDropQueueOverflowShowcase&#45;&gt;Ipv4NetworkConfigurator -->
<g id="edge8" class="edge">
<title>PacketDropQueueOverflowShowcase&#45;&gt;Ipv4NetworkConfigurator</title>
<path fill="none" stroke="black" d="M667.6,-54.98C707.99,-45.84 772.28,-31.27 816.23,-21.32"/>
<polygon fill="black" stroke="black" points="817.13,-24.7 826.11,-19.08 815.58,-17.88 817.13,-24.7"/>
</g>
<!-- Eth10M -->
<g id="node10" class="node">
<title>Eth10M</title>
<g id="a_node10"><a xlink:href="inet.node.ethernet.Eth10M.html" xlink:title="Channel Eth10M" target="_parent">
<polygon fill="#d0ffd0" stroke="black" points="1006,-19 952,-19 952,0 1006,0 1006,-19"/>
<text text-anchor="middle" x="979" y="-7" font-family="Helvetica,sans-Serif" font-size="10.00">Eth10M</text>
</a>
</g>
</g>
<!-- PacketDropQueueOverflowShowcase&#45;&gt;Eth10M -->
<g id="edge9" class="edge">
<title>PacketDropQueueOverflowShowcase&#45;&gt;Eth10M</title>
<path fill="none" stroke="black" d="M703.35,-54.98C764.62,-47.42 854.46,-35.34 941.84,-19.07"/>
<polygon fill="black" stroke="black" points="942.75,-22.46 951.93,-17.17 941.45,-15.58 942.75,-22.46"/>
</g>
<!-- Router -->
<g id="node11" class="node">
<title>Router</title>
<g id="a_node11"><a xlink:href="inet.node.inet.Router.html" xlink:title="Compound Module Router" target="_parent">
<polygon fill="#fffcaf" stroke="black" points="1078,-19 1024,-19 1024,0 1078,0 1078,-19"/>
<text text-anchor="middle" x="1051" y="-7" font-family="Helvetica,sans-Serif" font-size="10.00">Router</text>
</a>
</g>
</g>
<!-- PacketDropQueueOverflowShowcase&#45;&gt;Router -->
<g id="edge10" class="edge">
<title>PacketDropQueueOverflowShowcase&#45;&gt;Router</title>
<path fill="none" stroke="black" d="M727.77,-55.38C803.42,-48.35 910.94,-36.77 1013.99,-18.99"/>
<polygon fill="black" stroke="black" points="1014.7,-22.42 1023.94,-17.25 1013.49,-15.52 1014.7,-22.42"/>
</g>
<!-- Eth100M -->
<g id="node12" class="node">
<title>Eth100M</title>
<g id="a_node12"><a xlink:href="inet.node.ethernet.Eth100M.html" xlink:title="Channel Eth100M" target="_parent">
<polygon fill="#d0ffd0" stroke="black" points="1155.5,-19 1096.5,-19 1096.5,0 1155.5,0 1155.5,-19"/>
<text text-anchor="middle" x="1126" y="-7" font-family="Helvetica,sans-Serif" font-size="10.00">Eth100M</text>
</a>
</g>
</g>
<!-- PacketDropQueueOverflowShowcase&#45;&gt;Eth100M -->
<g id="edge11" class="edge">
<title>PacketDropQueueOverflowShowcase&#45;&gt;Eth100M</title>
<path fill="none" stroke="black" d="M727.59,-57.33C818.05,-50.85 956.51,-38.98 1086.14,-18.94"/>
<polygon fill="black" stroke="black" points="1086.92,-22.36 1096.26,-17.36 1085.84,-15.45 1086.92,-22.36"/>
</g>
</g>
</svg>
