<?xml version="1.0" encoding="UTF-8" standalone="no"?>
<!DOCTYPE svg PUBLIC "-//W3C//DTD SVG 1.1//EN"
 "http://www.w3.org/Graphics/SVG/1.1/DTD/svg11.dtd">
<!-- Generated by graphviz version 2.43.0 (0)
 -->
<!-- Title: opp Pages: 1 -->
<svg width="278pt" height="82pt"
 viewBox="0.00 0.00 278.00 82.00" xmlns="http://www.w3.org/2000/svg" xmlns:xlink="http://www.w3.org/1999/xlink">
<g id="graph0" class="graph" transform="scale(1 1) rotate(0) translate(4 78)">
<title>opp</title>
<polygon fill="transparent" stroke="transparent" points="-4,4 -4,-78 274,-78 274,4 -4,4"/>
<!-- REDQueue -->
<g id="node1" class="node">
<title>REDQueue</title>
<g id="a_node1"><a xlink:href="inet.examples.inet.netperfmeter.REDQueue.html" xlink:title="Compound Module REDQueue" target="_parent">
<polygon fill="#fff700" stroke="black" points="172,-74 104,-74 104,-55 172,-55 172,-74"/>
<text text-anchor="middle" x="138" y="-62" font-family="Helvetica,sans-Serif" font-size="10.00">REDQueue</text>
</a>
</g>
</g>
<!-- PacketQueue -->
<g id="node2" class="node">
<title>PacketQueue</title>
<g id="a_node2"><a xlink:href="inet.queueing.queue.PacketQueue.html" xlink:title="Simple Module PacketQueue" target="_parent">
<polygon fill="#fffcaf" stroke="black" points="80,-19 0,-19 0,0 80,0 80,-19"/>
<text text-anchor="middle" x="40" y="-7" font-family="Helvetica,sans-Serif" font-size="10.00">PacketQueue</text>
</a>
</g>
</g>
<!-- REDQueue&#45;&gt;PacketQueue -->
<g id="edge1" class="edge">
<title>REDQueue&#45;&gt;PacketQueue</title>
<path fill="none" stroke="black" d="M122.25,-54.98C106.77,-46.61 82.91,-33.7 64.86,-23.95"/>
<polygon fill="black" stroke="black" points="66.49,-20.85 56.03,-19.17 63.16,-27.01 66.49,-20.85"/>
</g>
<!-- IdealChannel -->
<g id="node3" class="node">
<title>IdealChannel</title>
<g id="a_node3"><a xlink:href="ned.IdealChannel.html" xlink:title="Channel IdealChannel" target="_parent">
<polygon fill="#d0ffd0" stroke="black" points="178,-19 98,-19 98,0 178,0 178,-19"/>
<text text-anchor="middle" x="138" y="-7" font-family="Helvetica,sans-Serif" font-size="10.00">IdealChannel</text>
</a>
</g>
</g>
<!-- REDQueue&#45;&gt;IdealChannel -->
<g id="edge2" class="edge">
<title>REDQueue&#45;&gt;IdealChannel</title>
<path fill="none" stroke="black" d="M138,-54.75C138,-47.8 138,-37.85 138,-29.13"/>
<polygon fill="black" stroke="black" points="141.5,-29.09 138,-19.09 134.5,-29.09 141.5,-29.09"/>
</g>
<!-- RedDropper -->
<g id="node4" class="node">
<title>RedDropper</title>
<g id="a_node4"><a xlink:href="inet.queueing.filter.RedDropper.html" xlink:title="Simple Module RedDropper" target="_parent">
<polygon fill="#fffcaf" stroke="black" points="270,-19 196,-19 196,0 270,0 270,-19"/>
<text text-anchor="middle" x="233" y="-7" font-family="Helvetica,sans-Serif" font-size="10.00">RedDropper</text>
</a>
</g>
</g>
<!-- REDQueue&#45;&gt;RedDropper -->
<g id="edge3" class="edge">
<title>REDQueue&#45;&gt;RedDropper</title>
<path fill="none" stroke="black" d="M153.26,-54.98C168.13,-46.69 190.98,-33.94 208.42,-24.22"/>
<polygon fill="black" stroke="black" points="210.43,-27.1 217.46,-19.17 207.02,-20.99 210.43,-27.1"/>
</g>
</g>
</svg>
