<?xml version="1.0" encoding="UTF-8" standalone="no"?>
<!DOCTYPE svg PUBLIC "-//W3C//DTD SVG 1.1//EN"
 "http://www.w3.org/Graphics/SVG/1.1/DTD/svg11.dtd">
<!-- Generated by graphviz version 2.43.0 (0)
 -->
<!-- Title: opp Pages: 1 -->
<svg width="148pt" height="137pt"
 viewBox="0.00 0.00 148.00 137.00" xmlns="http://www.w3.org/2000/svg" xmlns:xlink="http://www.w3.org/1999/xlink">
<g id="graph0" class="graph" transform="scale(1 1) rotate(0) translate(4 133)">
<title>opp</title>
<polygon fill="transparent" stroke="transparent" points="-4,4 -4,-133 144,-133 144,4 -4,4"/>
<!-- OscillatorBasedClock -->
<g id="node1" class="node">
<title>OscillatorBasedClock</title>
<g id="a_node1"><a xlink:href="inet.clock.model.OscillatorBasedClock.html" xlink:title="Compound Module OscillatorBasedClock" target="_parent">
<polygon fill="#fff700" stroke="black" points="133,-74 13,-74 13,-55 133,-55 133,-74"/>
<text text-anchor="middle" x="73" y="-62" font-family="Helvetica,sans-Serif" font-size="10.00">OscillatorBasedClock</text>
</a>
</g>
</g>
<!-- SettableClock -->
<g id="node4" class="node">
<title>SettableClock</title>
<g id="a_node4"><a xlink:href="inet.clock.model.SettableClock.html" xlink:title="Compound Module SettableClock" target="_parent">
<polygon fill="#fffcaf" stroke="black" points="115,-19 31,-19 31,0 115,0 115,-19"/>
<text text-anchor="middle" x="73" y="-7" font-family="Helvetica,sans-Serif" font-size="10.00">SettableClock</text>
</a>
</g>
</g>
<!-- OscillatorBasedClock&#45;&gt;SettableClock -->
<g id="edge3" class="edge">
<title>OscillatorBasedClock&#45;&gt;SettableClock</title>
<path fill="none" stroke="black" d="M73,-54.75C73,-44.87 73,-28.9 73,-19.09"/>
</g>
<!-- ClockBase -->
<g id="node2" class="node">
<title>ClockBase</title>
<g id="a_node2"><a xlink:href="inet.clock.base.ClockBase.html" xlink:title="Compound Module ClockBase" target="_parent">
<polygon fill="#fffcaf" stroke="black" points="68,-129 0,-129 0,-110 68,-110 68,-129"/>
<text text-anchor="middle" x="34" y="-117" font-family="Helvetica,sans-Serif" font-size="10.00">ClockBase</text>
</a>
</g>
</g>
<!-- ClockBase&#45;&gt;OscillatorBasedClock -->
<g id="edge1" class="edge">
<title>ClockBase&#45;&gt;OscillatorBasedClock</title>
<path fill="none" stroke="black" d="M40.44,-109.75C47.71,-99.87 59.46,-83.9 66.68,-74.09"/>
</g>
<!-- IClock -->
<g id="node3" class="node">
<title>IClock</title>
<g id="a_node3"><a xlink:href="inet.clock.contract.IClock.html" xlink:title="Module Interface IClock" target="_parent">
<polygon fill="#fffcaf" stroke="black" stroke-dasharray="5,2" points="140,-129 86,-129 86,-110 140,-110 140,-129"/>
<text text-anchor="middle" x="113" y="-117" font-family="Helvetica,sans-Serif" font-size="10.00">IClock</text>
</a>
</g>
</g>
<!-- IClock&#45;&gt;OscillatorBasedClock -->
<g id="edge2" class="edge">
<title>IClock&#45;&gt;OscillatorBasedClock</title>
<path fill="none" stroke="black" stroke-dasharray="5,2" d="M106.39,-109.75C98.94,-99.87 86.89,-83.9 79.48,-74.09"/>
</g>
</g>
</svg>
