<?xml version="1.0" encoding="UTF-8" standalone="no"?>
<!DOCTYPE svg PUBLIC "-//W3C//DTD SVG 1.1//EN"
 "http://www.w3.org/Graphics/SVG/1.1/DTD/svg11.dtd">
<!-- Generated by graphviz version 2.43.0 (0)
 -->
<!-- Title: opp Pages: 1 -->
<svg width="701pt" height="82pt"
 viewBox="0.00 0.00 700.50 82.00" xmlns="http://www.w3.org/2000/svg" xmlns:xlink="http://www.w3.org/1999/xlink">
<g id="graph0" class="graph" transform="scale(1 1) rotate(0) translate(4 78)">
<title>opp</title>
<polygon fill="transparent" stroke="transparent" points="-4,4 -4,-78 696.5,-78 696.5,4 -4,4"/>
<!-- INetworkInterface -->
<g id="node1" class="node">
<title>INetworkInterface</title>
<g id="a_node1"><a xlink:href="inet.linklayer.contract.INetworkInterface.html" xlink:title="Module Interface INetworkInterface" target="_parent">
<polygon fill="#fff700" stroke="black" stroke-dasharray="5,2" points="406,-74 302,-74 302,-55 406,-55 406,-74"/>
<text text-anchor="middle" x="354" y="-62" font-family="Helvetica,sans-Serif" font-size="10.00">INetworkInterface</text>
</a>
</g>
</g>
<!-- IExternalInterface -->
<g id="node2" class="node">
<title>IExternalInterface</title>
<g id="a_node2"><a xlink:href="inet.linklayer.contract.IExternalInterface.html" xlink:title="Module Interface IExternalInterface" target="_parent">
<polygon fill="#fffcaf" stroke="black" stroke-dasharray="5,2" points="104,-19 0,-19 0,0 104,0 104,-19"/>
<text text-anchor="middle" x="52" y="-7" font-family="Helvetica,sans-Serif" font-size="10.00">IExternalInterface</text>
</a>
</g>
</g>
<!-- INetworkInterface&#45;&gt;IExternalInterface -->
<g id="edge1" class="edge">
<title>INetworkInterface&#45;&gt;IExternalInterface</title>
<path fill="none" stroke="black" d="M305.48,-54.98C249.21,-45.11 156.98,-28.92 100.65,-19.04"/>
</g>
<!-- ILoopbackInterface -->
<g id="node3" class="node">
<title>ILoopbackInterface</title>
<g id="a_node3"><a xlink:href="inet.linklayer.contract.ILoopbackInterface.html" xlink:title="Module Interface ILoopbackInterface" target="_parent">
<polygon fill="#fffcaf" stroke="black" stroke-dasharray="5,2" points="232,-19 122,-19 122,0 232,0 232,-19"/>
<text text-anchor="middle" x="177" y="-7" font-family="Helvetica,sans-Serif" font-size="10.00">ILoopbackInterface</text>
</a>
</g>
</g>
<!-- INetworkInterface&#45;&gt;ILoopbackInterface -->
<g id="edge2" class="edge">
<title>INetworkInterface&#45;&gt;ILoopbackInterface</title>
<path fill="none" stroke="black" d="M325.56,-54.98C292.63,-45.12 238.69,-28.97 205.66,-19.08"/>
</g>
<!-- ITunnelInterface -->
<g id="node4" class="node">
<title>ITunnelInterface</title>
<g id="a_node4"><a xlink:href="inet.linklayer.contract.ITunnelInterface.html" xlink:title="Module Interface ITunnelInterface" target="_parent">
<polygon fill="#fffcaf" stroke="black" stroke-dasharray="5,2" points="345.5,-19 250.5,-19 250.5,0 345.5,0 345.5,-19"/>
<text text-anchor="middle" x="298" y="-7" font-family="Helvetica,sans-Serif" font-size="10.00">ITunnelInterface</text>
</a>
</g>
</g>
<!-- INetworkInterface&#45;&gt;ITunnelInterface -->
<g id="edge3" class="edge">
<title>INetworkInterface&#45;&gt;ITunnelInterface</title>
<path fill="none" stroke="black" d="M345,-54.98C334.61,-45.15 317.62,-29.07 307.16,-19.17"/>
</g>
<!-- IVirtualInterface -->
<g id="node5" class="node">
<title>IVirtualInterface</title>
<g id="a_node5"><a xlink:href="inet.linklayer.contract.IVirtualInterface.html" xlink:title="Module Interface IVirtualInterface" target="_parent">
<polygon fill="#fffcaf" stroke="black" stroke-dasharray="5,2" points="458.5,-19 363.5,-19 363.5,0 458.5,0 458.5,-19"/>
<text text-anchor="middle" x="411" y="-7" font-family="Helvetica,sans-Serif" font-size="10.00">IVirtualInterface</text>
</a>
</g>
</g>
<!-- INetworkInterface&#45;&gt;IVirtualInterface -->
<g id="edge4" class="edge">
<title>INetworkInterface&#45;&gt;IVirtualInterface</title>
<path fill="none" stroke="black" d="M363.16,-54.98C373.73,-45.15 391.03,-29.07 401.68,-19.17"/>
</g>
<!-- IWiredInterface -->
<g id="node6" class="node">
<title>IWiredInterface</title>
<g id="a_node6"><a xlink:href="inet.linklayer.contract.IWiredInterface.html" xlink:title="Module Interface IWiredInterface" target="_parent">
<polygon fill="#fffcaf" stroke="black" stroke-dasharray="5,2" points="569,-19 477,-19 477,0 569,0 569,-19"/>
<text text-anchor="middle" x="523" y="-7" font-family="Helvetica,sans-Serif" font-size="10.00">IWiredInterface</text>
</a>
</g>
</g>
<!-- INetworkInterface&#45;&gt;IWiredInterface -->
<g id="edge5" class="edge">
<title>INetworkInterface&#45;&gt;IWiredInterface</title>
<path fill="none" stroke="black" d="M381.15,-54.98C412.6,-45.12 464.1,-28.97 495.63,-19.08"/>
</g>
<!-- IWirelessInterface -->
<g id="node7" class="node">
<title>IWirelessInterface</title>
<g id="a_node7"><a xlink:href="inet.linklayer.contract.IWirelessInterface.html" xlink:title="Module Interface IWirelessInterface" target="_parent">
<polygon fill="#fffcaf" stroke="black" stroke-dasharray="5,2" points="692.5,-19 587.5,-19 587.5,0 692.5,0 692.5,-19"/>
<text text-anchor="middle" x="640" y="-7" font-family="Helvetica,sans-Serif" font-size="10.00">IWirelessInterface</text>
</a>
</g>
</g>
<!-- INetworkInterface&#45;&gt;IWirelessInterface -->
<g id="edge6" class="edge">
<title>INetworkInterface&#45;&gt;IWirelessInterface</title>
<path fill="none" stroke="black" d="M399.95,-54.98C453.16,-45.12 540.32,-28.97 593.69,-19.08"/>
</g>
</g>
</svg>
