<?xml version="1.0" encoding="UTF-8" standalone="no"?>
<!DOCTYPE svg PUBLIC "-//W3C//DTD SVG 1.1//EN"
 "http://www.w3.org/Graphics/SVG/1.1/DTD/svg11.dtd">
<!-- Generated by graphviz version 2.43.0 (0)
 -->
<!-- Title: opp Pages: 1 -->
<svg width="883pt" height="137pt"
 viewBox="0.00 0.00 883.00 137.00" xmlns="http://www.w3.org/2000/svg" xmlns:xlink="http://www.w3.org/1999/xlink">
<g id="graph0" class="graph" transform="scale(1 1) rotate(0) translate(4 133)">
<title>opp</title>
<polygon fill="transparent" stroke="transparent" points="-4,4 -4,-133 879,-133 879,4 -4,4"/>
<!-- RadioMedium -->
<g id="node1" class="node">
<title>RadioMedium</title>
<g id="a_node1"><a xlink:href="inet.physicallayer.wireless.common.medium.RadioMedium.html" xlink:title="Compound Module RadioMedium" target="_parent">
<polygon fill="#fff700" stroke="black" points="479,-74 395,-74 395,-55 479,-55 479,-74"/>
<text text-anchor="middle" x="437" y="-62" font-family="Helvetica,sans-Serif" font-size="10.00">RadioMedium</text>
</a>
</g>
</g>
<!-- IObstacleLoss -->
<g id="node2" class="node">
<title>IObstacleLoss</title>
<g id="a_node2"><a xlink:href="inet.physicallayer.wireless.common.contract.packetlevel.IObstacleLoss.html" xlink:title="Module Interface IObstacleLoss" target="_parent">
<polygon fill="#fffcaf" stroke="black" stroke-dasharray="5,2" points="84,-19 0,-19 0,0 84,0 84,-19"/>
<text text-anchor="middle" x="42" y="-7" font-family="Helvetica,sans-Serif" font-size="10.00">IObstacleLoss</text>
</a>
</g>
</g>
<!-- RadioMedium&#45;&gt;IObstacleLoss -->
<g id="edge1" class="edge">
<title>RadioMedium&#45;&gt;IObstacleLoss</title>
<path fill="none" stroke="black" d="M394.83,-58.55C331.74,-51.03 208.79,-35.95 94.02,-19.1"/>
<polygon fill="black" stroke="black" points="94.41,-15.62 84.01,-17.63 93.39,-22.55 94.41,-15.62"/>
</g>
<!-- IBackgroundNoise -->
<g id="node3" class="node">
<title>IBackgroundNoise</title>
<g id="a_node3"><a xlink:href="inet.physicallayer.wireless.common.contract.packetlevel.IBackgroundNoise.html" xlink:title="Module Interface IBackgroundNoise" target="_parent">
<polygon fill="#fffcaf" stroke="black" stroke-dasharray="5,2" points="207.5,-19 102.5,-19 102.5,0 207.5,0 207.5,-19"/>
<text text-anchor="middle" x="155" y="-7" font-family="Helvetica,sans-Serif" font-size="10.00">IBackgroundNoise</text>
</a>
</g>
</g>
<!-- RadioMedium&#45;&gt;IBackgroundNoise -->
<g id="edge2" class="edge">
<title>RadioMedium&#45;&gt;IBackgroundNoise</title>
<path fill="none" stroke="black" d="M394.78,-55.57C345.7,-46.34 264.54,-31.09 210.42,-20.92"/>
<polygon fill="black" stroke="black" points="210.79,-17.42 200.31,-19.02 209.49,-24.3 210.79,-17.42"/>
</g>
<!-- INeighborCache -->
<g id="node4" class="node">
<title>INeighborCache</title>
<g id="a_node4"><a xlink:href="inet.physicallayer.wireless.common.contract.packetlevel.INeighborCache.html" xlink:title="Module Interface INeighborCache" target="_parent">
<polygon fill="#fffcaf" stroke="black" stroke-dasharray="5,2" points="320,-19 226,-19 226,0 320,0 320,-19"/>
<text text-anchor="middle" x="273" y="-7" font-family="Helvetica,sans-Serif" font-size="10.00">INeighborCache</text>
</a>
</g>
</g>
<!-- RadioMedium&#45;&gt;INeighborCache -->
<g id="edge3" class="edge">
<title>RadioMedium&#45;&gt;INeighborCache</title>
<path fill="none" stroke="black" d="M410.65,-54.98C383.24,-46.13 340.11,-32.19 309.44,-22.28"/>
<polygon fill="black" stroke="black" points="310.15,-18.83 299.56,-19.08 308,-25.49 310.15,-18.83"/>
</g>
<!-- IPropagation -->
<g id="node5" class="node">
<title>IPropagation</title>
<g id="a_node5"><a xlink:href="inet.physicallayer.wireless.common.contract.packetlevel.IPropagation.html" xlink:title="Module Interface IPropagation" target="_parent">
<polygon fill="#fffcaf" stroke="black" stroke-dasharray="5,2" points="416,-19 338,-19 338,0 416,0 416,-19"/>
<text text-anchor="middle" x="377" y="-7" font-family="Helvetica,sans-Serif" font-size="10.00">IPropagation</text>
</a>
</g>
</g>
<!-- RadioMedium&#45;&gt;IPropagation -->
<g id="edge4" class="edge">
<title>RadioMedium&#45;&gt;IPropagation</title>
<path fill="none" stroke="black" d="M427.36,-54.98C418.49,-47.15 405.13,-35.34 394.39,-25.86"/>
<polygon fill="black" stroke="black" points="396.63,-23.17 386.82,-19.17 391.99,-28.41 396.63,-23.17"/>
</g>
<!-- ICommunicationCache -->
<g id="node6" class="node">
<title>ICommunicationCache</title>
<g id="a_node6"><a xlink:href="inet.physicallayer.wireless.common.contract.packetlevel.ICommunicationCache.html" xlink:title="Module Interface ICommunicationCache" target="_parent">
<polygon fill="#fffcaf" stroke="black" stroke-dasharray="5,2" points="561.5,-19 434.5,-19 434.5,0 561.5,0 561.5,-19"/>
<text text-anchor="middle" x="498" y="-7" font-family="Helvetica,sans-Serif" font-size="10.00">ICommunicationCache</text>
</a>
</g>
</g>
<!-- RadioMedium&#45;&gt;ICommunicationCache -->
<g id="edge5" class="edge">
<title>RadioMedium&#45;&gt;ICommunicationCache</title>
<path fill="none" stroke="black" d="M446.8,-54.98C455.82,-47.15 469.41,-35.34 480.32,-25.86"/>
<polygon fill="black" stroke="black" points="482.77,-28.37 488.02,-19.17 478.18,-23.09 482.77,-28.37"/>
</g>
<!-- IAnalogModel -->
<g id="node7" class="node">
<title>IAnalogModel</title>
<g id="a_node7"><a xlink:href="inet.physicallayer.wireless.common.contract.packetlevel.IAnalogModel.html" xlink:title="Module Interface IAnalogModel" target="_parent">
<polygon fill="#fffcaf" stroke="black" stroke-dasharray="5,2" points="662.5,-19 579.5,-19 579.5,0 662.5,0 662.5,-19"/>
<text text-anchor="middle" x="621" y="-7" font-family="Helvetica,sans-Serif" font-size="10.00">IAnalogModel</text>
</a>
</g>
</g>
<!-- RadioMedium&#45;&gt;IAnalogModel -->
<g id="edge6" class="edge">
<title>RadioMedium&#45;&gt;IAnalogModel</title>
<path fill="none" stroke="black" d="M466.56,-54.98C497.72,-46.01 546.97,-31.82 581.46,-21.89"/>
<polygon fill="black" stroke="black" points="582.57,-25.21 591.21,-19.08 580.63,-18.49 582.57,-25.21"/>
</g>
<!-- IPathLoss -->
<g id="node8" class="node">
<title>IPathLoss</title>
<g id="a_node8"><a xlink:href="inet.physicallayer.wireless.common.contract.packetlevel.IPathLoss.html" xlink:title="Module Interface IPathLoss" target="_parent">
<polygon fill="#fffcaf" stroke="black" stroke-dasharray="5,2" points="743,-19 681,-19 681,0 743,0 743,-19"/>
<text text-anchor="middle" x="712" y="-7" font-family="Helvetica,sans-Serif" font-size="10.00">IPathLoss</text>
</a>
</g>
</g>
<!-- RadioMedium&#45;&gt;IPathLoss -->
<g id="edge7" class="edge">
<title>RadioMedium&#45;&gt;IPathLoss</title>
<path fill="none" stroke="black" d="M479.08,-55.82C524.03,-47.56 597.64,-33.84 670.32,-19.3"/>
<polygon fill="black" stroke="black" points="671.45,-22.65 680.57,-17.25 670.08,-15.78 671.45,-22.65"/>
</g>
<!-- IMediumLimitCache -->
<g id="node9" class="node">
<title>IMediumLimitCache</title>
<g id="a_node9"><a xlink:href="inet.physicallayer.wireless.common.contract.packetlevel.IMediumLimitCache.html" xlink:title="Module Interface IMediumLimitCache" target="_parent">
<polygon fill="#fffcaf" stroke="black" stroke-dasharray="5,2" points="875,-19 761,-19 761,0 875,0 875,-19"/>
<text text-anchor="middle" x="818" y="-7" font-family="Helvetica,sans-Serif" font-size="10.00">IMediumLimitCache</text>
</a>
</g>
</g>
<!-- RadioMedium&#45;&gt;IMediumLimitCache -->
<g id="edge8" class="edge">
<title>RadioMedium&#45;&gt;IMediumLimitCache</title>
<path fill="none" stroke="black" d="M479.23,-57.63C544.87,-48.49 671.97,-30.81 750.45,-19.9"/>
<polygon fill="black" stroke="black" points="751.3,-23.31 760.72,-18.47 750.34,-16.38 751.3,-23.31"/>
</g>
<!-- CoexistenceShowcase -->
<g id="node10" class="node">
<title>CoexistenceShowcase</title>
<g id="a_node10"><a xlink:href="inet.showcases.wireless.coexistence.CoexistenceShowcase.html" xlink:title="Network CoexistenceShowcase" target="_parent">
<polygon fill="#d0d0ff" stroke="black" points="499.5,-129 374.5,-129 374.5,-110 499.5,-110 499.5,-129"/>
<text text-anchor="middle" x="437" y="-117" font-family="Helvetica,sans-Serif" font-size="10.00">CoexistenceShowcase</text>
</a>
</g>
</g>
<!-- CoexistenceShowcase&#45;&gt;RadioMedium -->
<g id="edge9" class="edge">
<title>CoexistenceShowcase&#45;&gt;RadioMedium</title>
<path fill="none" stroke="black" d="M437,-109.75C437,-102.8 437,-92.85 437,-84.13"/>
<polygon fill="black" stroke="black" points="440.5,-84.09 437,-74.09 433.5,-84.09 440.5,-84.09"/>
</g>
</g>
</svg>
