<?xml version="1.0" encoding="UTF-8" standalone="no"?>
<!DOCTYPE svg PUBLIC "-//W3C//DTD SVG 1.1//EN"
 "http://www.w3.org/Graphics/SVG/1.1/DTD/svg11.dtd">
<!-- Generated by graphviz version 2.43.0 (0)
 -->
<!-- Title: opp Pages: 1 -->
<svg width="122pt" height="137pt"
 viewBox="0.00 0.00 122.00 137.00" xmlns="http://www.w3.org/2000/svg" xmlns:xlink="http://www.w3.org/1999/xlink">
<g id="graph0" class="graph" transform="scale(1 1) rotate(0) translate(4 133)">
<title>opp</title>
<polygon fill="transparent" stroke="transparent" points="-4,4 -4,-133 118,-133 118,4 -4,4"/>
<!-- StationaryMobility -->
<g id="node1" class="node">
<title>StationaryMobility</title>
<g id="a_node1"><a xlink:href="inet.mobility.static.StationaryMobility.html" xlink:title="Simple Module StationaryMobility" target="_parent">
<polygon fill="#fff700" stroke="black" points="110.5,-74 3.5,-74 3.5,-55 110.5,-55 110.5,-74"/>
<text text-anchor="middle" x="57" y="-62" font-family="Helvetica,sans-Serif" font-size="10.00">StationaryMobility</text>
</a>
</g>
</g>
<!-- StaticLinearMobility -->
<g id="node3" class="node">
<title>StaticLinearMobility</title>
<g id="a_node3"><a xlink:href="inet.mobility.static.StaticLinearMobility.html" xlink:title="Simple Module StaticLinearMobility" target="_parent">
<polygon fill="#fffcaf" stroke="black" points="114,-19 0,-19 0,0 114,0 114,-19"/>
<text text-anchor="middle" x="57" y="-7" font-family="Helvetica,sans-Serif" font-size="10.00">StaticLinearMobility</text>
</a>
</g>
</g>
<!-- StationaryMobility&#45;&gt;StaticLinearMobility -->
<g id="edge2" class="edge">
<title>StationaryMobility&#45;&gt;StaticLinearMobility</title>
<path fill="none" stroke="black" d="M57,-54.75C57,-44.87 57,-28.9 57,-19.09"/>
</g>
<!-- MobilityBase -->
<g id="node2" class="node">
<title>MobilityBase</title>
<g id="a_node2"><a xlink:href="inet.mobility.base.MobilityBase.html" xlink:title="Simple Module MobilityBase" target="_parent">
<polygon fill="#fffcaf" stroke="black" points="97,-129 17,-129 17,-110 97,-110 97,-129"/>
<text text-anchor="middle" x="57" y="-117" font-family="Helvetica,sans-Serif" font-size="10.00">MobilityBase</text>
</a>
</g>
</g>
<!-- MobilityBase&#45;&gt;StationaryMobility -->
<g id="edge1" class="edge">
<title>MobilityBase&#45;&gt;StationaryMobility</title>
<path fill="none" stroke="black" d="M57,-109.75C57,-99.87 57,-83.9 57,-74.09"/>
</g>
</g>
</svg>
