<?xml version="1.0" encoding="UTF-8" standalone="no"?>
<!DOCTYPE svg PUBLIC "-//W3C//DTD SVG 1.1//EN"
 "http://www.w3.org/Graphics/SVG/1.1/DTD/svg11.dtd">
<!-- Generated by graphviz version 2.43.0 (0)
 -->
<!-- Title: opp Pages: 1 -->
<svg width="490pt" height="82pt"
 viewBox="0.00 0.00 489.50 82.00" xmlns="http://www.w3.org/2000/svg" xmlns:xlink="http://www.w3.org/1999/xlink">
<g id="graph0" class="graph" transform="scale(1 1) rotate(0) translate(4 78)">
<title>opp</title>
<polygon fill="transparent" stroke="transparent" points="-4,4 -4,-78 485.5,-78 485.5,4 -4,4"/>
<!-- FlatNet -->
<g id="node1" class="node">
<title>FlatNet</title>
<g id="a_node1"><a xlink:href="inet.examples.inet.flatnet.FlatNet.html" xlink:title="Network FlatNet" target="_parent">
<polygon fill="#9090ff" stroke="black" points="272.5,-74 218.5,-74 218.5,-55 272.5,-55 272.5,-74"/>
<text text-anchor="middle" x="245.5" y="-62" font-family="Helvetica,sans-Serif" font-size="10.00">FlatNet</text>
</a>
</g>
</g>
<!-- StandardHost -->
<g id="node2" class="node">
<title>StandardHost</title>
<g id="a_node2"><a xlink:href="inet.node.inet.StandardHost.html" xlink:title="Compound Module StandardHost" target="_parent">
<polygon fill="#fffcaf" stroke="black" points="83,-19 0,-19 0,0 83,0 83,-19"/>
<text text-anchor="middle" x="41.5" y="-7" font-family="Helvetica,sans-Serif" font-size="10.00">StandardHost</text>
</a>
</g>
</g>
<!-- FlatNet&#45;&gt;StandardHost -->
<g id="edge1" class="edge">
<title>FlatNet&#45;&gt;StandardHost</title>
<path fill="none" stroke="black" d="M218.41,-56.46C184.14,-47.56 124.72,-32.12 84.29,-21.62"/>
<polygon fill="black" stroke="black" points="85.01,-18.19 74.45,-19.06 83.25,-24.96 85.01,-18.19"/>
</g>
<!-- fiberline -->
<g id="node3" class="node">
<title>fiberline</title>
<g id="a_node3"><a xlink:href="inet.examples.inet.flatnet.FlatNet.fiberline.html" xlink:title="Channel fiberline" target="_parent">
<polygon fill="#d0ffd0" stroke="black" points="157.5,-19 101.5,-19 101.5,0 157.5,0 157.5,-19"/>
<text text-anchor="middle" x="129.5" y="-7" font-family="Helvetica,sans-Serif" font-size="10.00">fiberline</text>
</a>
</g>
</g>
<!-- FlatNet&#45;&gt;fiberline -->
<g id="edge2" class="edge">
<title>FlatNet&#45;&gt;fiberline</title>
<path fill="none" stroke="black" d="M226.86,-54.98C208.2,-46.46 179.25,-33.23 157.76,-23.41"/>
<polygon fill="black" stroke="black" points="159.03,-20.14 148.48,-19.17 156.12,-26.51 159.03,-20.14"/>
</g>
<!-- Ipv4NetworkConfigurator -->
<g id="node4" class="node">
<title>Ipv4NetworkConfigurator</title>
<g id="a_node4"><a xlink:href="inet.networklayer.configurator.ipv4.Ipv4NetworkConfigurator.html" xlink:title="Simple Module Ipv4NetworkConfigurator" target="_parent">
<polygon fill="#fffcaf" stroke="black" points="315,-19 176,-19 176,0 315,0 315,-19"/>
<text text-anchor="middle" x="245.5" y="-7" font-family="Helvetica,sans-Serif" font-size="10.00">Ipv4NetworkConfigurator</text>
</a>
</g>
</g>
<!-- FlatNet&#45;&gt;Ipv4NetworkConfigurator -->
<g id="edge3" class="edge">
<title>FlatNet&#45;&gt;Ipv4NetworkConfigurator</title>
<path fill="none" stroke="black" d="M245.5,-54.75C245.5,-47.8 245.5,-37.85 245.5,-29.13"/>
<polygon fill="black" stroke="black" points="249,-29.09 245.5,-19.09 242,-29.09 249,-29.09"/>
</g>
<!-- Router -->
<g id="node5" class="node">
<title>Router</title>
<g id="a_node5"><a xlink:href="inet.node.inet.Router.html" xlink:title="Compound Module Router" target="_parent">
<polygon fill="#fffcaf" stroke="black" points="387.5,-19 333.5,-19 333.5,0 387.5,0 387.5,-19"/>
<text text-anchor="middle" x="360.5" y="-7" font-family="Helvetica,sans-Serif" font-size="10.00">Router</text>
</a>
</g>
</g>
<!-- FlatNet&#45;&gt;Router -->
<g id="edge4" class="edge">
<title>FlatNet&#45;&gt;Router</title>
<path fill="none" stroke="black" d="M263.98,-54.98C282.48,-46.46 311.18,-33.23 332.48,-23.41"/>
<polygon fill="black" stroke="black" points="334.07,-26.53 341.69,-19.17 331.14,-20.18 334.07,-26.53"/>
</g>
<!-- ethernetline -->
<g id="node6" class="node">
<title>ethernetline</title>
<g id="a_node6"><a xlink:href="inet.examples.inet.flatnet.FlatNet.ethernetline.html" xlink:title="Channel ethernetline" target="_parent">
<polygon fill="#d0ffd0" stroke="black" points="481.5,-19 405.5,-19 405.5,0 481.5,0 481.5,-19"/>
<text text-anchor="middle" x="443.5" y="-7" font-family="Helvetica,sans-Serif" font-size="10.00">ethernetline</text>
</a>
</g>
</g>
<!-- FlatNet&#45;&gt;ethernetline -->
<g id="edge5" class="edge">
<title>FlatNet&#45;&gt;ethernetline</title>
<path fill="none" stroke="black" d="M272.62,-56.24C305.87,-47.34 362.59,-32.16 401.5,-21.74"/>
<polygon fill="black" stroke="black" points="402.72,-25.04 411.47,-19.07 400.91,-18.28 402.72,-25.04"/>
</g>
</g>
</svg>
