<?xml version="1.0" encoding="UTF-8" standalone="no"?>
<!DOCTYPE svg PUBLIC "-//W3C//DTD SVG 1.1//EN"
 "http://www.w3.org/Graphics/SVG/1.1/DTD/svg11.dtd">
<!-- Generated by graphviz version 2.43.0 (0)
 -->
<!-- Title: opp Pages: 1 -->
<svg width="544pt" height="82pt"
 viewBox="0.00 0.00 544.00 82.00" xmlns="http://www.w3.org/2000/svg" xmlns:xlink="http://www.w3.org/1999/xlink">
<g id="graph0" class="graph" transform="scale(1 1) rotate(0) translate(4 78)">
<title>opp</title>
<polygon fill="transparent" stroke="transparent" points="-4,4 -4,-78 540,-78 540,4 -4,4"/>
<!-- DataLinkVisualizerEnablingWirelessShowcase -->
<g id="node1" class="node">
<title>DataLinkVisualizerEnablingWirelessShowcase</title>
<g id="a_node1"><a xlink:href="inet.showcases.visualizer.canvas.datalinkactivity.DataLinkVisualizerEnablingWirelessShowcase.html" xlink:title="Network DataLinkVisualizerEnablingWirelessShowcase" target="_parent">
<polygon fill="#9090ff" stroke="black" points="444,-74 203,-74 203,-55 444,-55 444,-74"/>
<text text-anchor="middle" x="323.5" y="-62" font-family="Helvetica,sans-Serif" font-size="10.00">DataLinkVisualizerEnablingWirelessShowcase</text>
</a>
</g>
</g>
<!-- Ieee80211ScalarRadioMedium -->
<g id="node2" class="node">
<title>Ieee80211ScalarRadioMedium</title>
<g id="a_node2"><a xlink:href="inet.physicallayer.wireless.ieee80211.packetlevel.Ieee80211ScalarRadioMedium.html" xlink:title="Compound Module Ieee80211ScalarRadioMedium" target="_parent">
<polygon fill="#fffcaf" stroke="black" points="165,-19 0,-19 0,0 165,0 165,-19"/>
<text text-anchor="middle" x="82.5" y="-7" font-family="Helvetica,sans-Serif" font-size="10.00">Ieee80211ScalarRadioMedium</text>
</a>
</g>
</g>
<!-- DataLinkVisualizerEnablingWirelessShowcase&#45;&gt;Ieee80211ScalarRadioMedium -->
<g id="edge1" class="edge">
<title>DataLinkVisualizerEnablingWirelessShowcase&#45;&gt;Ieee80211ScalarRadioMedium</title>
<path fill="none" stroke="black" d="M284.78,-54.98C243.09,-45.82 176.68,-31.21 131.41,-21.26"/>
<polygon fill="black" stroke="black" points="132.04,-17.81 121.52,-19.08 130.54,-24.65 132.04,-17.81"/>
</g>
<!-- Ipv4NetworkConfigurator -->
<g id="node3" class="node">
<title>Ipv4NetworkConfigurator</title>
<g id="a_node3"><a xlink:href="inet.networklayer.configurator.ipv4.Ipv4NetworkConfigurator.html" xlink:title="Simple Module Ipv4NetworkConfigurator" target="_parent">
<polygon fill="#fffcaf" stroke="black" points="322,-19 183,-19 183,0 322,0 322,-19"/>
<text text-anchor="middle" x="252.5" y="-7" font-family="Helvetica,sans-Serif" font-size="10.00">Ipv4NetworkConfigurator</text>
</a>
</g>
</g>
<!-- DataLinkVisualizerEnablingWirelessShowcase&#45;&gt;Ipv4NetworkConfigurator -->
<g id="edge2" class="edge">
<title>DataLinkVisualizerEnablingWirelessShowcase&#45;&gt;Ipv4NetworkConfigurator</title>
<path fill="none" stroke="black" d="M312.09,-54.98C301.39,-47 285.16,-34.88 272.34,-25.31"/>
<polygon fill="black" stroke="black" points="274.22,-22.35 264.11,-19.17 270.03,-27.96 274.22,-22.35"/>
</g>
<!-- DataLinkVisualizer -->
<g id="node4" class="node">
<title>DataLinkVisualizer</title>
<g id="a_node4"><a xlink:href="inet.visualizer.common.DataLinkVisualizer.html" xlink:title="Compound Module DataLinkVisualizer" target="_parent">
<polygon fill="#fffcaf" stroke="black" points="448.5,-19 340.5,-19 340.5,0 448.5,0 448.5,-19"/>
<text text-anchor="middle" x="394.5" y="-7" font-family="Helvetica,sans-Serif" font-size="10.00">DataLinkVisualizer</text>
</a>
</g>
</g>
<!-- DataLinkVisualizerEnablingWirelessShowcase&#45;&gt;DataLinkVisualizer -->
<g id="edge3" class="edge">
<title>DataLinkVisualizerEnablingWirelessShowcase&#45;&gt;DataLinkVisualizer</title>
<path fill="none" stroke="black" d="M334.91,-54.98C345.61,-47 361.84,-34.88 374.66,-25.31"/>
<polygon fill="black" stroke="black" points="376.97,-27.96 382.89,-19.17 372.78,-22.35 376.97,-27.96"/>
</g>
<!-- AdhocHost -->
<g id="node5" class="node">
<title>AdhocHost</title>
<g id="a_node5"><a xlink:href="inet.node.inet.AdhocHost.html" xlink:title="Compound Module AdhocHost" target="_parent">
<polygon fill="#fffcaf" stroke="black" points="536,-19 467,-19 467,0 536,0 536,-19"/>
<text text-anchor="middle" x="501.5" y="-7" font-family="Helvetica,sans-Serif" font-size="10.00">AdhocHost</text>
</a>
</g>
</g>
<!-- DataLinkVisualizerEnablingWirelessShowcase&#45;&gt;AdhocHost -->
<g id="edge4" class="edge">
<title>DataLinkVisualizerEnablingWirelessShowcase&#45;&gt;AdhocHost</title>
<path fill="none" stroke="black" d="M352.1,-54.98C382.11,-46.05 429.48,-31.94 462.82,-22.02"/>
<polygon fill="black" stroke="black" points="464.09,-25.29 472.68,-19.08 462.09,-18.58 464.09,-25.29"/>
</g>
</g>
</svg>
