<?xml version="1.0" encoding="UTF-8" standalone="no"?>
<!DOCTYPE svg PUBLIC "-//W3C//DTD SVG 1.1//EN"
 "http://www.w3.org/Graphics/SVG/1.1/DTD/svg11.dtd">
<!-- Generated by graphviz version 2.43.0 (0)
 -->
<!-- Title: opp Pages: 1 -->
<svg width="128pt" height="137pt"
 viewBox="0.00 0.00 128.00 137.00" xmlns="http://www.w3.org/2000/svg" xmlns:xlink="http://www.w3.org/1999/xlink">
<g id="graph0" class="graph" transform="scale(1 1) rotate(0) translate(4 133)">
<title>opp</title>
<polygon fill="transparent" stroke="transparent" points="-4,4 -4,-133 124,-133 124,4 -4,4"/>
<!-- OscillatorBasedClock -->
<g id="node1" class="node">
<title>OscillatorBasedClock</title>
<g id="a_node1"><a xlink:href="inet.clock.model.OscillatorBasedClock.html" xlink:title="Compound Module OscillatorBasedClock" target="_parent">
<polygon fill="#fff700" stroke="black" points="120,-74 0,-74 0,-55 120,-55 120,-74"/>
<text text-anchor="middle" x="60" y="-62" font-family="Helvetica,sans-Serif" font-size="10.00">OscillatorBasedClock</text>
</a>
</g>
</g>
<!-- IOscillator -->
<g id="node2" class="node">
<title>IOscillator</title>
<g id="a_node2"><a xlink:href="inet.clock.contract.IOscillator.html" xlink:title="Module Interface IOscillator" target="_parent">
<polygon fill="#fffcaf" stroke="black" stroke-dasharray="5,2" points="93,-19 27,-19 27,0 93,0 93,-19"/>
<text text-anchor="middle" x="60" y="-7" font-family="Helvetica,sans-Serif" font-size="10.00">IOscillator</text>
</a>
</g>
</g>
<!-- OscillatorBasedClock&#45;&gt;IOscillator -->
<g id="edge1" class="edge">
<title>OscillatorBasedClock&#45;&gt;IOscillator</title>
<path fill="none" stroke="black" d="M60,-54.75C60,-47.8 60,-37.85 60,-29.13"/>
<polygon fill="black" stroke="black" points="63.5,-29.09 60,-19.09 56.5,-29.09 63.5,-29.09"/>
</g>
<!-- ClockExample -->
<g id="node3" class="node">
<title>ClockExample</title>
<g id="a_node3"><a xlink:href="inet.examples.clock.ClockExample.html" xlink:title="Network ClockExample" target="_parent">
<polygon fill="#d0d0ff" stroke="black" points="103,-129 17,-129 17,-110 103,-110 103,-129"/>
<text text-anchor="middle" x="60" y="-117" font-family="Helvetica,sans-Serif" font-size="10.00">ClockExample</text>
</a>
</g>
</g>
<!-- ClockExample&#45;&gt;OscillatorBasedClock -->
<g id="edge2" class="edge">
<title>ClockExample&#45;&gt;OscillatorBasedClock</title>
<path fill="none" stroke="black" d="M60,-109.75C60,-102.8 60,-92.85 60,-84.13"/>
<polygon fill="black" stroke="black" points="63.5,-84.09 60,-74.09 56.5,-84.09 63.5,-84.09"/>
</g>
</g>
</svg>
