<?xml version="1.0" encoding="UTF-8" standalone="no"?>
<!DOCTYPE svg PUBLIC "-//W3C//DTD SVG 1.1//EN"
 "http://www.w3.org/Graphics/SVG/1.1/DTD/svg11.dtd">
<!-- Generated by graphviz version 2.43.0 (0)
 -->
<!-- Title: opp Pages: 1 -->
<svg width="326pt" height="82pt"
 viewBox="0.00 0.00 325.50 82.00" xmlns="http://www.w3.org/2000/svg" xmlns:xlink="http://www.w3.org/1999/xlink">
<g id="graph0" class="graph" transform="scale(1 1) rotate(0) translate(4 78)">
<title>opp</title>
<polygon fill="transparent" stroke="transparent" points="-4,4 -4,-78 321.5,-78 321.5,4 -4,4"/>
<!-- EnergyStorageCanvasVisualizer -->
<g id="node1" class="node">
<title>EnergyStorageCanvasVisualizer</title>
<g id="a_node1"><a xlink:href="inet.visualizer.canvas.power.EnergyStorageCanvasVisualizer.html" xlink:title="Simple Module EnergyStorageCanvasVisualizer" target="_parent">
<polygon fill="#fff700" stroke="black" points="250,-19 78,-19 78,0 250,0 250,-19"/>
<text text-anchor="middle" x="164" y="-7" font-family="Helvetica,sans-Serif" font-size="10.00">EnergyStorageCanvasVisualizer</text>
</a>
</g>
</g>
<!-- EnergyStorageVisualizerBase -->
<g id="node2" class="node">
<title>EnergyStorageVisualizerBase</title>
<g id="a_node2"><a xlink:href="inet.visualizer.base.EnergyStorageVisualizerBase.html" xlink:title="Simple Module EnergyStorageVisualizerBase" target="_parent">
<polygon fill="#fffcaf" stroke="black" points="160,-74 0,-74 0,-55 160,-55 160,-74"/>
<text text-anchor="middle" x="80" y="-62" font-family="Helvetica,sans-Serif" font-size="10.00">EnergyStorageVisualizerBase</text>
</a>
</g>
</g>
<!-- EnergyStorageVisualizerBase&#45;&gt;EnergyStorageCanvasVisualizer -->
<g id="edge1" class="edge">
<title>EnergyStorageVisualizerBase&#45;&gt;EnergyStorageCanvasVisualizer</title>
<path fill="none" stroke="black" d="M93.5,-54.98C109.08,-45.15 134.57,-29.07 150.26,-19.17"/>
</g>
<!-- IEnergyStorageVisualizer -->
<g id="node3" class="node">
<title>IEnergyStorageVisualizer</title>
<g id="a_node3"><a xlink:href="inet.visualizer.contract.IEnergyStorageVisualizer.html" xlink:title="Module Interface IEnergyStorageVisualizer" target="_parent">
<polygon fill="#fffcaf" stroke="black" stroke-dasharray="5,2" points="317.5,-74 178.5,-74 178.5,-55 317.5,-55 317.5,-74"/>
<text text-anchor="middle" x="248" y="-62" font-family="Helvetica,sans-Serif" font-size="10.00">IEnergyStorageVisualizer</text>
</a>
</g>
</g>
<!-- IEnergyStorageVisualizer&#45;&gt;EnergyStorageCanvasVisualizer -->
<g id="edge2" class="edge">
<title>IEnergyStorageVisualizer&#45;&gt;EnergyStorageCanvasVisualizer</title>
<path fill="none" stroke="black" stroke-dasharray="5,2" d="M234.5,-54.98C218.92,-45.15 193.43,-29.07 177.74,-19.17"/>
</g>
</g>
</svg>
