<?xml version="1.0" encoding="UTF-8" standalone="no"?>
<!DOCTYPE svg PUBLIC "-//W3C//DTD SVG 1.1//EN"
 "http://www.w3.org/Graphics/SVG/1.1/DTD/svg11.dtd">
<!-- Generated by graphviz version 2.43.0 (0)
 -->
<!-- Title: opp Pages: 1 -->
<svg width="517pt" height="82pt"
 viewBox="0.00 0.00 517.00 82.00" xmlns="http://www.w3.org/2000/svg" xmlns:xlink="http://www.w3.org/1999/xlink">
<g id="graph0" class="graph" transform="scale(1 1) rotate(0) translate(4 78)">
<title>opp</title>
<polygon fill="transparent" stroke="transparent" points="-4,4 -4,-78 513,-78 513,4 -4,4"/>
<!-- ICommunicationCache -->
<g id="node1" class="node">
<title>ICommunicationCache</title>
<g id="a_node1"><a xlink:href="inet.physicallayer.wireless.common.contract.packetlevel.ICommunicationCache.html" xlink:title="Module Interface ICommunicationCache" target="_parent">
<polygon fill="#fff700" stroke="black" stroke-dasharray="5,2" points="313,-74 186,-74 186,-55 313,-55 313,-74"/>
<text text-anchor="middle" x="249.5" y="-62" font-family="Helvetica,sans-Serif" font-size="10.00">ICommunicationCache</text>
</a>
</g>
</g>
<!-- MapCommunicationCache -->
<g id="node2" class="node">
<title>MapCommunicationCache</title>
<g id="a_node2"><a xlink:href="inet.physicallayer.wireless.common.communicationcache.MapCommunicationCache.html" xlink:title="Compound Module MapCommunicationCache" target="_parent">
<polygon fill="#fffcaf" stroke="black" points="145,-19 0,-19 0,0 145,0 145,-19"/>
<text text-anchor="middle" x="72.5" y="-7" font-family="Helvetica,sans-Serif" font-size="10.00">MapCommunicationCache</text>
</a>
</g>
</g>
<!-- ICommunicationCache&#45;&gt;MapCommunicationCache -->
<g id="edge1" class="edge">
<title>ICommunicationCache&#45;&gt;MapCommunicationCache</title>
<path fill="none" stroke="black" stroke-dasharray="5,2" d="M221.06,-54.98C188.13,-45.12 134.19,-28.97 101.16,-19.08"/>
</g>
<!-- ReferenceCommunicationCache -->
<g id="node3" class="node">
<title>ReferenceCommunicationCache</title>
<g id="a_node3"><a xlink:href="inet.physicallayer.wireless.common.communicationcache.ReferenceCommunicationCache.html" xlink:title="Compound Module ReferenceCommunicationCache" target="_parent">
<polygon fill="#fffcaf" stroke="black" points="336,-19 163,-19 163,0 336,0 336,-19"/>
<text text-anchor="middle" x="249.5" y="-7" font-family="Helvetica,sans-Serif" font-size="10.00">ReferenceCommunicationCache</text>
</a>
</g>
</g>
<!-- ICommunicationCache&#45;&gt;ReferenceCommunicationCache -->
<g id="edge2" class="edge">
<title>ICommunicationCache&#45;&gt;ReferenceCommunicationCache</title>
<path fill="none" stroke="black" stroke-dasharray="5,2" d="M249.5,-54.75C249.5,-44.87 249.5,-28.9 249.5,-19.09"/>
</g>
<!-- VectorCommunicationCache -->
<g id="node4" class="node">
<title>VectorCommunicationCache</title>
<g id="a_node4"><a xlink:href="inet.physicallayer.wireless.common.communicationcache.VectorCommunicationCache.html" xlink:title="Compound Module VectorCommunicationCache" target="_parent">
<polygon fill="#fffcaf" stroke="black" points="509,-19 354,-19 354,0 509,0 509,-19"/>
<text text-anchor="middle" x="431.5" y="-7" font-family="Helvetica,sans-Serif" font-size="10.00">VectorCommunicationCache</text>
</a>
</g>
</g>
<!-- ICommunicationCache&#45;&gt;VectorCommunicationCache -->
<g id="edge3" class="edge">
<title>ICommunicationCache&#45;&gt;VectorCommunicationCache</title>
<path fill="none" stroke="black" stroke-dasharray="5,2" d="M278.74,-54.98C312.6,-45.12 368.07,-28.97 402.03,-19.08"/>
</g>
</g>
</svg>
