<?xml version="1.0" encoding="UTF-8" standalone="no"?>
<!DOCTYPE svg PUBLIC "-//W3C//DTD SVG 1.1//EN"
 "http://www.w3.org/Graphics/SVG/1.1/DTD/svg11.dtd">
<!-- Generated by graphviz version 2.43.0 (0)
 -->
<!-- Title: opp Pages: 1 -->
<svg width="288pt" height="82pt"
 viewBox="0.00 0.00 288.00 82.00" xmlns="http://www.w3.org/2000/svg" xmlns:xlink="http://www.w3.org/1999/xlink">
<g id="graph0" class="graph" transform="scale(1 1) rotate(0) translate(4 78)">
<title>opp</title>
<polygon fill="transparent" stroke="transparent" points="-4,4 -4,-78 284,-78 284,4 -4,4"/>
<!-- IDemodulator -->
<g id="node1" class="node">
<title>IDemodulator</title>
<g id="a_node1"><a xlink:href="inet.physicallayer.wireless.common.contract.bitlevel.IDemodulator.html" xlink:title="Module Interface IDemodulator" target="_parent">
<polygon fill="#fff700" stroke="black" stroke-dasharray="5,2" points="167.5,-74 84.5,-74 84.5,-55 167.5,-55 167.5,-74"/>
<text text-anchor="middle" x="126" y="-62" font-family="Helvetica,sans-Serif" font-size="10.00">IDemodulator</text>
</a>
</g>
</g>
<!-- ApskDemodulator -->
<g id="node2" class="node">
<title>ApskDemodulator</title>
<g id="a_node2"><a xlink:href="inet.physicallayer.wireless.apsk.bitlevel.ApskDemodulator.html" xlink:title="Simple Module ApskDemodulator" target="_parent">
<polygon fill="#fffcaf" stroke="black" points="104,-19 0,-19 0,0 104,0 104,-19"/>
<text text-anchor="middle" x="52" y="-7" font-family="Helvetica,sans-Serif" font-size="10.00">ApskDemodulator</text>
</a>
</g>
</g>
<!-- IDemodulator&#45;&gt;ApskDemodulator -->
<g id="edge1" class="edge">
<title>IDemodulator&#45;&gt;ApskDemodulator</title>
<path fill="none" stroke="black" stroke-dasharray="5,2" d="M114.11,-54.98C100.38,-45.15 77.92,-29.07 64.11,-19.17"/>
</g>
<!-- Ieee80211OfdmDemodulator -->
<g id="node3" class="node">
<title>Ieee80211OfdmDemodulator</title>
<g id="a_node3"><a xlink:href="inet.physicallayer.wireless.ieee80211.bitlevel.Ieee80211OfdmDemodulator.html" xlink:title="Simple Module Ieee80211OfdmDemodulator" target="_parent">
<polygon fill="#fffcaf" stroke="black" points="280,-19 122,-19 122,0 280,0 280,-19"/>
<text text-anchor="middle" x="201" y="-7" font-family="Helvetica,sans-Serif" font-size="10.00">Ieee80211OfdmDemodulator</text>
</a>
</g>
</g>
<!-- IDemodulator&#45;&gt;Ieee80211OfdmDemodulator -->
<g id="edge2" class="edge">
<title>IDemodulator&#45;&gt;Ieee80211OfdmDemodulator</title>
<path fill="none" stroke="black" stroke-dasharray="5,2" d="M138.05,-54.98C151.96,-45.15 174.73,-29.07 188.73,-19.17"/>
</g>
</g>
</svg>
