<?xml version="1.0" encoding="UTF-8" standalone="no"?>
<!DOCTYPE svg PUBLIC "-//W3C//DTD SVG 1.1//EN"
 "http://www.w3.org/Graphics/SVG/1.1/DTD/svg11.dtd">
<!-- Generated by graphviz version 2.43.0 (0)
 -->
<!-- Title: opp Pages: 1 -->
<svg width="664pt" height="82pt"
 viewBox="0.00 0.00 664.00 82.00" xmlns="http://www.w3.org/2000/svg" xmlns:xlink="http://www.w3.org/1999/xlink">
<g id="graph0" class="graph" transform="scale(1 1) rotate(0) translate(4 78)">
<title>opp</title>
<polygon fill="transparent" stroke="transparent" points="-4,4 -4,-78 660,-78 660,4 -4,4"/>
<!-- DynamicTest -->
<g id="node1" class="node">
<title>DynamicTest</title>
<g id="a_node1"><a xlink:href="inet.examples.rip.dynamictest.DynamicTest.html" xlink:title="Network DynamicTest" target="_parent">
<polygon fill="#9090ff" stroke="black" points="334.5,-74 254.5,-74 254.5,-55 334.5,-55 334.5,-74"/>
<text text-anchor="middle" x="294.5" y="-62" font-family="Helvetica,sans-Serif" font-size="10.00">DynamicTest</text>
</a>
</g>
</g>
<!-- RipRouter -->
<g id="node2" class="node">
<title>RipRouter</title>
<g id="a_node2"><a xlink:href="inet.node.rip.RipRouter.html" xlink:title="Compound Module RipRouter" target="_parent">
<polygon fill="#fffcaf" stroke="black" points="65,-19 0,-19 0,0 65,0 65,-19"/>
<text text-anchor="middle" x="32.5" y="-7" font-family="Helvetica,sans-Serif" font-size="10.00">RipRouter</text>
</a>
</g>
</g>
<!-- DynamicTest&#45;&gt;RipRouter -->
<g id="edge1" class="edge">
<title>DynamicTest&#45;&gt;RipRouter</title>
<path fill="none" stroke="black" d="M254.16,-55.45C211.92,-47 143.38,-33.25 75.22,-19.34"/>
<polygon fill="black" stroke="black" points="75.67,-15.86 65.17,-17.29 74.27,-22.72 75.67,-15.86"/>
</g>
<!-- RoutingTableRecorder -->
<g id="node3" class="node">
<title>RoutingTableRecorder</title>
<g id="a_node3"><a xlink:href="inet.networklayer.ipv4.RoutingTableRecorder.html" xlink:title="Simple Module RoutingTableRecorder" target="_parent">
<polygon fill="#fffcaf" stroke="black" points="206,-19 83,-19 83,0 206,0 206,-19"/>
<text text-anchor="middle" x="144.5" y="-7" font-family="Helvetica,sans-Serif" font-size="10.00">RoutingTableRecorder</text>
</a>
</g>
</g>
<!-- DynamicTest&#45;&gt;RoutingTableRecorder -->
<g id="edge2" class="edge">
<title>DynamicTest&#45;&gt;RoutingTableRecorder</title>
<path fill="none" stroke="black" d="M270.4,-54.98C245.62,-46.23 206.8,-32.51 178.81,-22.62"/>
<polygon fill="black" stroke="black" points="179.63,-19.2 169.04,-19.17 177.3,-25.8 179.63,-19.2"/>
</g>
<!-- C -->
<g id="node4" class="node">
<title>C</title>
<g id="a_node4"><a xlink:href="inet.examples.rip.dynamictest.DynamicTest.C.html" xlink:title="Channel C" target="_parent">
<polygon fill="#d0ffd0" stroke="black" points="278.5,-19 224.5,-19 224.5,0 278.5,0 278.5,-19"/>
<text text-anchor="middle" x="251.5" y="-7" font-family="Helvetica,sans-Serif" font-size="10.00">C</text>
</a>
</g>
</g>
<!-- DynamicTest&#45;&gt;C -->
<g id="edge3" class="edge">
<title>DynamicTest&#45;&gt;C</title>
<path fill="none" stroke="black" d="M287.4,-54.75C281.33,-47.26 272.41,-36.28 264.99,-27.13"/>
<polygon fill="black" stroke="black" points="267.49,-24.65 258.47,-19.09 262.05,-29.06 267.49,-24.65"/>
</g>
<!-- StandardHost -->
<g id="node5" class="node">
<title>StandardHost</title>
<g id="a_node5"><a xlink:href="inet.node.inet.StandardHost.html" xlink:title="Compound Module StandardHost" target="_parent">
<polygon fill="#fffcaf" stroke="black" points="380,-19 297,-19 297,0 380,0 380,-19"/>
<text text-anchor="middle" x="338.5" y="-7" font-family="Helvetica,sans-Serif" font-size="10.00">StandardHost</text>
</a>
</g>
</g>
<!-- DynamicTest&#45;&gt;StandardHost -->
<g id="edge4" class="edge">
<title>DynamicTest&#45;&gt;StandardHost</title>
<path fill="none" stroke="black" d="M301.77,-54.75C308.04,-47.18 317.29,-36.05 324.93,-26.84"/>
<polygon fill="black" stroke="black" points="327.67,-29.02 331.37,-19.09 322.29,-24.55 327.67,-29.02"/>
</g>
<!-- Ipv4NetworkConfigurator -->
<g id="node6" class="node">
<title>Ipv4NetworkConfigurator</title>
<g id="a_node6"><a xlink:href="inet.networklayer.configurator.ipv4.Ipv4NetworkConfigurator.html" xlink:title="Simple Module Ipv4NetworkConfigurator" target="_parent">
<polygon fill="#fffcaf" stroke="black" points="537,-19 398,-19 398,0 537,0 537,-19"/>
<text text-anchor="middle" x="467.5" y="-7" font-family="Helvetica,sans-Serif" font-size="10.00">Ipv4NetworkConfigurator</text>
</a>
</g>
</g>
<!-- DynamicTest&#45;&gt;Ipv4NetworkConfigurator -->
<g id="edge5" class="edge">
<title>DynamicTest&#45;&gt;Ipv4NetworkConfigurator</title>
<path fill="none" stroke="black" d="M322.3,-54.98C351.47,-46.05 397.5,-31.94 429.9,-22.02"/>
<polygon fill="black" stroke="black" points="430.95,-25.36 439.49,-19.08 428.9,-18.66 430.95,-25.36"/>
</g>
<!-- ScenarioManager -->
<g id="node7" class="node">
<title>ScenarioManager</title>
<g id="a_node7"><a xlink:href="inet.common.scenario.ScenarioManager.html" xlink:title="Simple Module ScenarioManager" target="_parent">
<polygon fill="#fffcaf" stroke="black" points="656,-19 555,-19 555,0 656,0 656,-19"/>
<text text-anchor="middle" x="605.5" y="-7" font-family="Helvetica,sans-Serif" font-size="10.00">ScenarioManager</text>
</a>
</g>
</g>
<!-- DynamicTest&#45;&gt;ScenarioManager -->
<g id="edge6" class="edge">
<title>DynamicTest&#45;&gt;ScenarioManager</title>
<path fill="none" stroke="black" d="M334.52,-56.68C388.06,-47.56 483.43,-31.3 545.56,-20.71"/>
<polygon fill="black" stroke="black" points="546.35,-24.13 555.62,-19 545.17,-17.23 546.35,-24.13"/>
</g>
</g>
</svg>
