<?xml version="1.0" encoding="UTF-8" standalone="no"?>
<!DOCTYPE svg PUBLIC "-//W3C//DTD SVG 1.1//EN"
 "http://www.w3.org/Graphics/SVG/1.1/DTD/svg11.dtd">
<!-- Generated by graphviz version 2.43.0 (0)
 -->
<!-- Title: opp Pages: 1 -->
<svg width="208pt" height="82pt"
 viewBox="0.00 0.00 207.50 82.00" xmlns="http://www.w3.org/2000/svg" xmlns:xlink="http://www.w3.org/1999/xlink">
<g id="graph0" class="graph" transform="scale(1 1) rotate(0) translate(4 78)">
<title>opp</title>
<polygon fill="transparent" stroke="transparent" points="-4,4 -4,-78 203.5,-78 203.5,4 -4,4"/>
<!-- LMac -->
<g id="node1" class="node">
<title>LMac</title>
<g id="a_node1"><a xlink:href="inet.linklayer.lmac.LMac.html" xlink:title="Compound Module LMac" target="_parent">
<polygon fill="#fff700" stroke="black" points="131.5,-19 77.5,-19 77.5,0 131.5,0 131.5,-19"/>
<text text-anchor="middle" x="104.5" y="-7" font-family="Helvetica,sans-Serif" font-size="10.00">LMac</text>
</a>
</g>
</g>
<!-- MacProtocolBase -->
<g id="node2" class="node">
<title>MacProtocolBase</title>
<g id="a_node2"><a xlink:href="inet.linklayer.base.MacProtocolBase.html" xlink:title="Simple Module MacProtocolBase" target="_parent">
<polygon fill="#fffcaf" stroke="black" points="101,-74 0,-74 0,-55 101,-55 101,-74"/>
<text text-anchor="middle" x="50.5" y="-62" font-family="Helvetica,sans-Serif" font-size="10.00">MacProtocolBase</text>
</a>
</g>
</g>
<!-- MacProtocolBase&#45;&gt;LMac -->
<g id="edge1" class="edge">
<title>MacProtocolBase&#45;&gt;LMac</title>
<path fill="none" stroke="black" d="M59.42,-54.75C69.48,-44.87 85.75,-28.9 95.75,-19.09"/>
</g>
<!-- IMacProtocol -->
<g id="node3" class="node">
<title>IMacProtocol</title>
<g id="a_node3"><a xlink:href="inet.linklayer.contract.IMacProtocol.html" xlink:title="Module Interface IMacProtocol" target="_parent">
<polygon fill="#fffcaf" stroke="black" stroke-dasharray="5,2" points="199.5,-74 119.5,-74 119.5,-55 199.5,-55 199.5,-74"/>
<text text-anchor="middle" x="159.5" y="-62" font-family="Helvetica,sans-Serif" font-size="10.00">IMacProtocol</text>
</a>
</g>
</g>
<!-- IMacProtocol&#45;&gt;LMac -->
<g id="edge2" class="edge">
<title>IMacProtocol&#45;&gt;LMac</title>
<path fill="none" stroke="black" stroke-dasharray="5,2" d="M150.42,-54.75C140.17,-44.87 123.59,-28.9 113.41,-19.09"/>
</g>
</g>
</svg>
