<?xml version="1.0" encoding="UTF-8" standalone="no"?>
<!DOCTYPE svg PUBLIC "-//W3C//DTD SVG 1.1//EN"
 "http://www.w3.org/Graphics/SVG/1.1/DTD/svg11.dtd">
<!-- Generated by graphviz version 2.43.0 (0)
 -->
<!-- Title: opp Pages: 1 -->
<svg width="735pt" height="82pt"
 viewBox="0.00 0.00 735.00 82.00" xmlns="http://www.w3.org/2000/svg" xmlns:xlink="http://www.w3.org/1999/xlink">
<g id="graph0" class="graph" transform="scale(1 1) rotate(0) translate(4 78)">
<title>opp</title>
<polygon fill="transparent" stroke="transparent" points="-4,4 -4,-78 731,-78 731,4 -4,4"/>
<!-- RateControlShowcase -->
<g id="node1" class="node">
<title>RateControlShowcase</title>
<g id="a_node1"><a xlink:href="inet.showcases.wireless.ratecontrol.RateControlShowcase.html" xlink:title="Network RateControlShowcase" target="_parent">
<polygon fill="#9090ff" stroke="black" points="419,-74 296,-74 296,-55 419,-55 419,-74"/>
<text text-anchor="middle" x="357.5" y="-62" font-family="Helvetica,sans-Serif" font-size="10.00">RateControlShowcase</text>
</a>
</g>
</g>
<!-- Ieee80211ScalarRadioMedium -->
<g id="node2" class="node">
<title>Ieee80211ScalarRadioMedium</title>
<g id="a_node2"><a xlink:href="inet.physicallayer.wireless.ieee80211.packetlevel.Ieee80211ScalarRadioMedium.html" xlink:title="Compound Module Ieee80211ScalarRadioMedium" target="_parent">
<polygon fill="#fffcaf" stroke="black" points="165,-19 0,-19 0,0 165,0 165,-19"/>
<text text-anchor="middle" x="82.5" y="-7" font-family="Helvetica,sans-Serif" font-size="10.00">Ieee80211ScalarRadioMedium</text>
</a>
</g>
</g>
<!-- RateControlShowcase&#45;&gt;Ieee80211ScalarRadioMedium -->
<g id="edge1" class="edge">
<title>RateControlShowcase&#45;&gt;Ieee80211ScalarRadioMedium</title>
<path fill="none" stroke="black" d="M313.32,-54.98C265.35,-45.74 188.69,-30.97 137.02,-21.01"/>
<polygon fill="black" stroke="black" points="137.51,-17.54 127.03,-19.08 136.19,-24.41 137.51,-17.54"/>
</g>
<!-- WirelessHost -->
<g id="node3" class="node">
<title>WirelessHost</title>
<g id="a_node3"><a xlink:href="inet.node.inet.WirelessHost.html" xlink:title="Compound Module WirelessHost" target="_parent">
<polygon fill="#fffcaf" stroke="black" points="264,-19 183,-19 183,0 264,0 264,-19"/>
<text text-anchor="middle" x="223.5" y="-7" font-family="Helvetica,sans-Serif" font-size="10.00">WirelessHost</text>
</a>
</g>
</g>
<!-- RateControlShowcase&#45;&gt;WirelessHost -->
<g id="edge2" class="edge">
<title>RateControlShowcase&#45;&gt;WirelessHost</title>
<path fill="none" stroke="black" d="M335.97,-54.98C314.03,-46.3 279.76,-32.75 254.81,-22.88"/>
<polygon fill="black" stroke="black" points="256.01,-19.59 245.42,-19.17 253.43,-26.1 256.01,-19.59"/>
</g>
<!-- IntegratedCanvasVisualizer -->
<g id="node4" class="node">
<title>IntegratedCanvasVisualizer</title>
<g id="a_node4"><a xlink:href="inet.visualizer.canvas.integrated.IntegratedCanvasVisualizer.html" xlink:title="Compound Module IntegratedCanvasVisualizer" target="_parent">
<polygon fill="#fffcaf" stroke="black" points="433,-19 282,-19 282,0 433,0 433,-19"/>
<text text-anchor="middle" x="357.5" y="-7" font-family="Helvetica,sans-Serif" font-size="10.00">IntegratedCanvasVisualizer</text>
</a>
</g>
</g>
<!-- RateControlShowcase&#45;&gt;IntegratedCanvasVisualizer -->
<g id="edge3" class="edge">
<title>RateControlShowcase&#45;&gt;IntegratedCanvasVisualizer</title>
<path fill="none" stroke="black" d="M357.5,-54.75C357.5,-47.8 357.5,-37.85 357.5,-29.13"/>
<polygon fill="black" stroke="black" points="361,-29.09 357.5,-19.09 354,-29.09 361,-29.09"/>
</g>
<!-- Ipv4NetworkConfigurator -->
<g id="node5" class="node">
<title>Ipv4NetworkConfigurator</title>
<g id="a_node5"><a xlink:href="inet.networklayer.configurator.ipv4.Ipv4NetworkConfigurator.html" xlink:title="Simple Module Ipv4NetworkConfigurator" target="_parent">
<polygon fill="#fffcaf" stroke="black" points="590,-19 451,-19 451,0 590,0 590,-19"/>
<text text-anchor="middle" x="520.5" y="-7" font-family="Helvetica,sans-Serif" font-size="10.00">Ipv4NetworkConfigurator</text>
</a>
</g>
</g>
<!-- RateControlShowcase&#45;&gt;Ipv4NetworkConfigurator -->
<g id="edge4" class="edge">
<title>RateControlShowcase&#45;&gt;Ipv4NetworkConfigurator</title>
<path fill="none" stroke="black" d="M383.69,-54.98C410.94,-46.13 453.8,-32.19 484.28,-22.28"/>
<polygon fill="black" stroke="black" points="485.68,-25.5 494.11,-19.08 483.51,-18.85 485.68,-25.5"/>
</g>
<!-- PhysicalEnvironment -->
<g id="node6" class="node">
<title>PhysicalEnvironment</title>
<g id="a_node6"><a xlink:href="inet.environment.common.PhysicalEnvironment.html" xlink:title="Compound Module PhysicalEnvironment" target="_parent">
<polygon fill="#fffcaf" stroke="black" points="727,-19 608,-19 608,0 727,0 727,-19"/>
<text text-anchor="middle" x="667.5" y="-7" font-family="Helvetica,sans-Serif" font-size="10.00">PhysicalEnvironment</text>
</a>
</g>
</g>
<!-- RateControlShowcase&#45;&gt;PhysicalEnvironment -->
<g id="edge5" class="edge">
<title>RateControlShowcase&#45;&gt;PhysicalEnvironment</title>
<path fill="none" stroke="black" d="M407.31,-54.98C461.8,-45.67 549.13,-30.74 607.39,-20.78"/>
<polygon fill="black" stroke="black" points="608.29,-24.17 617.56,-19.04 607.11,-17.27 608.29,-24.17"/>
</g>
</g>
</svg>
