<?xml version="1.0" encoding="UTF-8" standalone="no"?>
<!DOCTYPE svg PUBLIC "-//W3C//DTD SVG 1.1//EN"
 "http://www.w3.org/Graphics/SVG/1.1/DTD/svg11.dtd">
<!-- Generated by graphviz version 2.43.0 (0)
 -->
<!-- Title: opp Pages: 1 -->
<svg width="906pt" height="82pt"
 viewBox="0.00 0.00 905.50 82.00" xmlns="http://www.w3.org/2000/svg" xmlns:xlink="http://www.w3.org/1999/xlink">
<g id="graph0" class="graph" transform="scale(1 1) rotate(0) translate(4 78)">
<title>opp</title>
<polygon fill="transparent" stroke="transparent" points="-4,4 -4,-78 901.5,-78 901.5,4 -4,4"/>
<!-- EthernetPreemptingMacLayer -->
<g id="node1" class="node">
<title>EthernetPreemptingMacLayer</title>
<g id="a_node1"><a xlink:href="inet.linklayer.ethernet.modular.EthernetPreemptingMacLayer.html" xlink:title="Compound Module EthernetPreemptingMacLayer" target="_parent">
<polygon fill="#fff700" stroke="black" points="512.5,-74 351.5,-74 351.5,-55 512.5,-55 512.5,-74"/>
<text text-anchor="middle" x="432" y="-62" font-family="Helvetica,sans-Serif" font-size="10.00">EthernetPreemptingMacLayer</text>
</a>
</g>
</g>
<!-- IPacketLifeTimer -->
<g id="node2" class="node">
<title>IPacketLifeTimer</title>
<g id="a_node2"><a xlink:href="inet.protocolelement.contract.IPacketLifeTimer.html" xlink:title="Module Interface IPacketLifeTimer" target="_parent">
<polygon fill="#fffcaf" stroke="black" stroke-dasharray="5,2" points="98,-19 0,-19 0,0 98,0 98,-19"/>
<text text-anchor="middle" x="49" y="-7" font-family="Helvetica,sans-Serif" font-size="10.00">IPacketLifeTimer</text>
</a>
</g>
</g>
<!-- EthernetPreemptingMacLayer&#45;&gt;IPacketLifeTimer -->
<g id="edge1" class="edge">
<title>EthernetPreemptingMacLayer&#45;&gt;IPacketLifeTimer</title>
<path fill="none" stroke="black" d="M368.45,-54.98C305.1,-46.44 204.72,-32.81 107.99,-19.13"/>
<polygon fill="black" stroke="black" points="108.44,-15.66 98.04,-17.72 107.45,-22.59 108.44,-15.66"/>
</g>
<!-- IPacketQueue -->
<g id="node3" class="node">
<title>IPacketQueue</title>
<g id="a_node3"><a xlink:href="inet.queueing.contract.IPacketQueue.html" xlink:title="Module Interface IPacketQueue" target="_parent">
<polygon fill="#fffcaf" stroke="black" stroke-dasharray="5,2" points="199.5,-19 116.5,-19 116.5,0 199.5,0 199.5,-19"/>
<text text-anchor="middle" x="158" y="-7" font-family="Helvetica,sans-Serif" font-size="10.00">IPacketQueue</text>
</a>
</g>
</g>
<!-- EthernetPreemptingMacLayer&#45;&gt;IPacketQueue -->
<g id="edge2" class="edge">
<title>EthernetPreemptingMacLayer&#45;&gt;IPacketQueue</title>
<path fill="none" stroke="black" d="M387.98,-54.98C339.33,-45.58 261.08,-30.44 209.59,-20.48"/>
<polygon fill="black" stroke="black" points="210.15,-17.02 199.67,-18.56 208.82,-23.9 210.15,-17.02"/>
</g>
<!-- PreemptingServer -->
<g id="node4" class="node">
<title>PreemptingServer</title>
<g id="a_node4"><a xlink:href="inet.queueing.server.PreemptingServer.html" xlink:title="Simple Module PreemptingServer" target="_parent">
<polygon fill="#fffcaf" stroke="black" points="322,-19 218,-19 218,0 322,0 322,-19"/>
<text text-anchor="middle" x="270" y="-7" font-family="Helvetica,sans-Serif" font-size="10.00">PreemptingServer</text>
</a>
</g>
</g>
<!-- EthernetPreemptingMacLayer&#45;&gt;PreemptingServer -->
<g id="edge3" class="edge">
<title>EthernetPreemptingMacLayer&#45;&gt;PreemptingServer</title>
<path fill="none" stroke="black" d="M405.97,-54.98C378.89,-46.13 336.29,-32.19 305.99,-22.28"/>
<polygon fill="black" stroke="black" points="306.82,-18.87 296.23,-19.08 304.65,-25.52 306.82,-18.87"/>
</g>
<!-- IdealChannel -->
<g id="node5" class="node">
<title>IdealChannel</title>
<g id="a_node5"><a xlink:href="ned.IdealChannel.html" xlink:title="Channel IdealChannel" target="_parent">
<polygon fill="#d0ffd0" stroke="black" points="420,-19 340,-19 340,0 420,0 420,-19"/>
<text text-anchor="middle" x="380" y="-7" font-family="Helvetica,sans-Serif" font-size="10.00">IdealChannel</text>
</a>
</g>
</g>
<!-- EthernetPreemptingMacLayer&#45;&gt;IdealChannel -->
<g id="edge4" class="edge">
<title>EthernetPreemptingMacLayer&#45;&gt;IdealChannel</title>
<path fill="none" stroke="black" d="M423.41,-54.75C415.84,-47.03 404.62,-35.6 395.49,-26.28"/>
<polygon fill="black" stroke="black" points="397.93,-23.78 388.43,-19.09 392.93,-28.68 397.93,-23.78"/>
</g>
<!-- PacketClassifier -->
<g id="node6" class="node">
<title>PacketClassifier</title>
<g id="a_node6"><a xlink:href="inet.queueing.classifier.PacketClassifier.html" xlink:title="Simple Module PacketClassifier" target="_parent">
<polygon fill="#fffcaf" stroke="black" points="531.5,-19 438.5,-19 438.5,0 531.5,0 531.5,-19"/>
<text text-anchor="middle" x="485" y="-7" font-family="Helvetica,sans-Serif" font-size="10.00">PacketClassifier</text>
</a>
</g>
</g>
<!-- EthernetPreemptingMacLayer&#45;&gt;PacketClassifier -->
<g id="edge5" class="edge">
<title>EthernetPreemptingMacLayer&#45;&gt;PacketClassifier</title>
<path fill="none" stroke="black" d="M440.75,-54.75C448.47,-47.03 459.9,-35.6 469.22,-26.28"/>
<polygon fill="black" stroke="black" points="471.81,-28.64 476.41,-19.09 466.86,-23.69 471.81,-28.64"/>
</g>
<!-- PriorityScheduler -->
<g id="node7" class="node">
<title>PriorityScheduler</title>
<g id="a_node7"><a xlink:href="inet.queueing.scheduler.PriorityScheduler.html" xlink:title="Simple Module PriorityScheduler" target="_parent">
<polygon fill="#fffcaf" stroke="black" points="650,-19 550,-19 550,0 650,0 650,-19"/>
<text text-anchor="middle" x="600" y="-7" font-family="Helvetica,sans-Serif" font-size="10.00">PriorityScheduler</text>
</a>
</g>
</g>
<!-- EthernetPreemptingMacLayer&#45;&gt;PriorityScheduler -->
<g id="edge6" class="edge">
<title>EthernetPreemptingMacLayer&#45;&gt;PriorityScheduler</title>
<path fill="none" stroke="black" d="M458.99,-54.98C487.2,-46.09 531.64,-32.07 563.08,-22.15"/>
<polygon fill="black" stroke="black" points="564.31,-25.43 572.8,-19.08 562.21,-18.75 564.31,-25.43"/>
</g>
<!-- IEthernetMacLayer -->
<g id="node8" class="node">
<title>IEthernetMacLayer</title>
<g id="a_node8"><a xlink:href="inet.linklayer.ethernet.contract.IEthernetMacLayer.html" xlink:title="Module Interface IEthernetMacLayer" target="_parent">
<polygon fill="#fffcaf" stroke="black" stroke-dasharray="5,2" points="776,-19 668,-19 668,0 776,0 776,-19"/>
<text text-anchor="middle" x="722" y="-7" font-family="Helvetica,sans-Serif" font-size="10.00">IEthernetMacLayer</text>
</a>
</g>
</g>
<!-- EthernetPreemptingMacLayer&#45;&gt;IEthernetMacLayer -->
<g id="edge7" class="edge">
<title>EthernetPreemptingMacLayer&#45;&gt;IEthernetMacLayer</title>
<path fill="none" stroke="black" d="M478.59,-54.98C529.39,-45.7 610.69,-30.84 665.19,-20.88"/>
<polygon fill="black" stroke="black" points="665.83,-24.32 675.04,-19.08 664.57,-17.44 665.83,-24.32"/>
</g>
<!-- PacketMultiplexer -->
<g id="node9" class="node">
<title>PacketMultiplexer</title>
<g id="a_node9"><a xlink:href="inet.queueing.common.PacketMultiplexer.html" xlink:title="Simple Module PacketMultiplexer" target="_parent">
<polygon fill="#fffcaf" stroke="black" points="897.5,-19 794.5,-19 794.5,0 897.5,0 897.5,-19"/>
<text text-anchor="middle" x="846" y="-7" font-family="Helvetica,sans-Serif" font-size="10.00">PacketMultiplexer</text>
</a>
</g>
</g>
<!-- EthernetPreemptingMacLayer&#45;&gt;PacketMultiplexer -->
<g id="edge8" class="edge">
<title>EthernetPreemptingMacLayer&#45;&gt;PacketMultiplexer</title>
<path fill="none" stroke="black" d="M501.69,-54.99C570.69,-46.5 679.65,-32.92 784.31,-19.08"/>
<polygon fill="black" stroke="black" points="784.97,-22.52 794.42,-17.74 784.05,-15.58 784.97,-22.52"/>
</g>
</g>
</svg>
