<?xml version="1.0" encoding="UTF-8" standalone="no"?>
<!DOCTYPE svg PUBLIC "-//W3C//DTD SVG 1.1//EN"
 "http://www.w3.org/Graphics/SVG/1.1/DTD/svg11.dtd">
<!-- Generated by graphviz version 2.43.0 (0)
 -->
<!-- Title: opp Pages: 1 -->
<svg width="308pt" height="82pt"
 viewBox="0.00 0.00 308.00 82.00" xmlns="http://www.w3.org/2000/svg" xmlns:xlink="http://www.w3.org/1999/xlink">
<g id="graph0" class="graph" transform="scale(1 1) rotate(0) translate(4 78)">
<title>opp</title>
<polygon fill="transparent" stroke="transparent" points="-4,4 -4,-78 304,-78 304,4 -4,4"/>
<!-- TC1 -->
<g id="node1" class="node">
<title>TC1</title>
<g id="a_node1"><a xlink:href="inet.examples.diffserv.onedomain.TC1.html" xlink:title="Compound Module TC1" target="_parent">
<polygon fill="#fff700" stroke="black" points="174,-74 120,-74 120,-55 174,-55 174,-74"/>
<text text-anchor="middle" x="147" y="-62" font-family="Helvetica,sans-Serif" font-size="10.00">TC1</text>
</a>
</g>
</g>
<!-- DscpMarker -->
<g id="node2" class="node">
<title>DscpMarker</title>
<g id="a_node2"><a xlink:href="inet.networklayer.diffserv.DscpMarker.html" xlink:title="Simple Module DscpMarker" target="_parent">
<polygon fill="#fffcaf" stroke="black" points="74,-19 0,-19 0,0 74,0 74,-19"/>
<text text-anchor="middle" x="37" y="-7" font-family="Helvetica,sans-Serif" font-size="10.00">DscpMarker</text>
</a>
</g>
</g>
<!-- TC1&#45;&gt;DscpMarker -->
<g id="edge1" class="edge">
<title>TC1&#45;&gt;DscpMarker</title>
<path fill="none" stroke="black" d="M129.33,-54.98C111.71,-46.5 84.42,-33.35 64.07,-23.54"/>
<polygon fill="black" stroke="black" points="65.52,-20.36 54.99,-19.17 62.48,-26.66 65.52,-20.36"/>
</g>
<!-- MultiFieldClassifier -->
<g id="node3" class="node">
<title>MultiFieldClassifier</title>
<g id="a_node3"><a xlink:href="inet.networklayer.diffserv.MultiFieldClassifier.html" xlink:title="Simple Module MultiFieldClassifier" target="_parent">
<polygon fill="#fffcaf" stroke="black" points="202,-19 92,-19 92,0 202,0 202,-19"/>
<text text-anchor="middle" x="147" y="-7" font-family="Helvetica,sans-Serif" font-size="10.00">MultiFieldClassifier</text>
</a>
</g>
</g>
<!-- TC1&#45;&gt;MultiFieldClassifier -->
<g id="edge2" class="edge">
<title>TC1&#45;&gt;MultiFieldClassifier</title>
<path fill="none" stroke="black" d="M147,-54.75C147,-47.8 147,-37.85 147,-29.13"/>
<polygon fill="black" stroke="black" points="150.5,-29.09 147,-19.09 143.5,-29.09 150.5,-29.09"/>
</g>
<!-- IdealChannel -->
<g id="node4" class="node">
<title>IdealChannel</title>
<g id="a_node4"><a xlink:href="ned.IdealChannel.html" xlink:title="Channel IdealChannel" target="_parent">
<polygon fill="#d0ffd0" stroke="black" points="300,-19 220,-19 220,0 300,0 300,-19"/>
<text text-anchor="middle" x="260" y="-7" font-family="Helvetica,sans-Serif" font-size="10.00">IdealChannel</text>
</a>
</g>
</g>
<!-- TC1&#45;&gt;IdealChannel -->
<g id="edge3" class="edge">
<title>TC1&#45;&gt;IdealChannel</title>
<path fill="none" stroke="black" d="M165.16,-54.98C183.25,-46.5 211.28,-33.35 232.19,-23.54"/>
<polygon fill="black" stroke="black" points="233.95,-26.59 241.51,-19.17 230.97,-20.25 233.95,-26.59"/>
</g>
</g>
</svg>
