<?xml version="1.0" encoding="UTF-8" standalone="no"?>
<!DOCTYPE svg PUBLIC "-//W3C//DTD SVG 1.1//EN"
 "http://www.w3.org/Graphics/SVG/1.1/DTD/svg11.dtd">
<!-- Generated by graphviz version 2.43.0 (0)
 -->
<!-- Title: opp Pages: 1 -->
<svg width="535pt" height="82pt"
 viewBox="0.00 0.00 534.50 82.00" xmlns="http://www.w3.org/2000/svg" xmlns:xlink="http://www.w3.org/1999/xlink">
<g id="graph0" class="graph" transform="scale(1 1) rotate(0) translate(4 78)">
<title>opp</title>
<polygon fill="transparent" stroke="transparent" points="-4,4 -4,-78 530.5,-78 530.5,4 -4,4"/>
<!-- LDPTEST -->
<g id="node1" class="node">
<title>LDPTEST</title>
<g id="a_node1"><a xlink:href="inet.examples.mpls.ldp.LDPTEST.html" xlink:title="Network LDPTEST" target="_parent">
<polygon fill="#9090ff" stroke="black" points="292.5,-74 233.5,-74 233.5,-55 292.5,-55 292.5,-74"/>
<text text-anchor="middle" x="263" y="-62" font-family="Helvetica,sans-Serif" font-size="10.00">LDPTEST</text>
</a>
</g>
</g>
<!-- C5 -->
<g id="node2" class="node">
<title>C5</title>
<g id="a_node2"><a xlink:href="inet.examples.mpls.ldp.LDPTEST.C5.html" xlink:title="Channel C5" target="_parent">
<polygon fill="#d0ffd0" stroke="black" points="54,-19 0,-19 0,0 54,0 54,-19"/>
<text text-anchor="middle" x="27" y="-7" font-family="Helvetica,sans-Serif" font-size="10.00">C5</text>
</a>
</g>
</g>
<!-- LDPTEST&#45;&gt;C5 -->
<g id="edge1" class="edge">
<title>LDPTEST&#45;&gt;C5</title>
<path fill="none" stroke="black" d="M233.49,-57.06C196.28,-48.91 130.08,-34.32 63.88,-19.18"/>
<polygon fill="black" stroke="black" points="64.65,-15.76 54.12,-16.94 63.08,-22.59 64.65,-15.76"/>
</g>
<!-- StandardHost -->
<g id="node3" class="node">
<title>StandardHost</title>
<g id="a_node3"><a xlink:href="inet.node.inet.StandardHost.html" xlink:title="Compound Module StandardHost" target="_parent">
<polygon fill="#fffcaf" stroke="black" points="155.5,-19 72.5,-19 72.5,0 155.5,0 155.5,-19"/>
<text text-anchor="middle" x="114" y="-7" font-family="Helvetica,sans-Serif" font-size="10.00">StandardHost</text>
</a>
</g>
</g>
<!-- LDPTEST&#45;&gt;StandardHost -->
<g id="edge2" class="edge">
<title>LDPTEST&#45;&gt;StandardHost</title>
<path fill="none" stroke="black" d="M239.06,-54.98C214.44,-46.23 175.88,-32.51 148.08,-22.62"/>
<polygon fill="black" stroke="black" points="148.97,-19.22 138.38,-19.17 146.62,-25.82 148.97,-19.22"/>
</g>
<!-- LdpMplsRouter -->
<g id="node4" class="node">
<title>LdpMplsRouter</title>
<g id="a_node4"><a xlink:href="inet.node.mpls.LdpMplsRouter.html" xlink:title="Compound Module LdpMplsRouter" target="_parent">
<polygon fill="#fffcaf" stroke="black" points="262.5,-19 173.5,-19 173.5,0 262.5,0 262.5,-19"/>
<text text-anchor="middle" x="218" y="-7" font-family="Helvetica,sans-Serif" font-size="10.00">LdpMplsRouter</text>
</a>
</g>
</g>
<!-- LDPTEST&#45;&gt;LdpMplsRouter -->
<g id="edge3" class="edge">
<title>LDPTEST&#45;&gt;LdpMplsRouter</title>
<path fill="none" stroke="black" d="M255.57,-54.75C249.15,-47.18 239.69,-36.05 231.88,-26.84"/>
<polygon fill="black" stroke="black" points="234.43,-24.45 225.29,-19.09 229.1,-28.98 234.43,-24.45"/>
</g>
<!-- C10 -->
<g id="node5" class="node">
<title>C10</title>
<g id="a_node5"><a xlink:href="inet.examples.mpls.ldp.LDPTEST.C10.html" xlink:title="Channel C10" target="_parent">
<polygon fill="#d0ffd0" stroke="black" points="335,-19 281,-19 281,0 335,0 335,-19"/>
<text text-anchor="middle" x="308" y="-7" font-family="Helvetica,sans-Serif" font-size="10.00">C10</text>
</a>
</g>
</g>
<!-- LDPTEST&#45;&gt;C10 -->
<g id="edge4" class="edge">
<title>LDPTEST&#45;&gt;C10</title>
<path fill="none" stroke="black" d="M270.43,-54.75C276.85,-47.18 286.31,-36.05 294.12,-26.84"/>
<polygon fill="black" stroke="black" points="296.9,-28.98 300.71,-19.09 291.57,-24.45 296.9,-28.98"/>
</g>
<!-- C15 -->
<g id="node6" class="node">
<title>C15</title>
<g id="a_node6"><a xlink:href="inet.examples.mpls.ldp.LDPTEST.C15.html" xlink:title="Channel C15" target="_parent">
<polygon fill="#d0ffd0" stroke="black" points="407,-19 353,-19 353,0 407,0 407,-19"/>
<text text-anchor="middle" x="380" y="-7" font-family="Helvetica,sans-Serif" font-size="10.00">C15</text>
</a>
</g>
</g>
<!-- LDPTEST&#45;&gt;C15 -->
<g id="edge5" class="edge">
<title>LDPTEST&#45;&gt;C15</title>
<path fill="none" stroke="black" d="M281.8,-54.98C300.62,-46.46 329.82,-33.23 351.5,-23.41"/>
<polygon fill="black" stroke="black" points="353.2,-26.48 360.86,-19.17 350.31,-20.11 353.2,-26.48"/>
</g>
<!-- ScenarioManager -->
<g id="node7" class="node">
<title>ScenarioManager</title>
<g id="a_node7"><a xlink:href="inet.common.scenario.ScenarioManager.html" xlink:title="Simple Module ScenarioManager" target="_parent">
<polygon fill="#fffcaf" stroke="black" points="526.5,-19 425.5,-19 425.5,0 526.5,0 526.5,-19"/>
<text text-anchor="middle" x="476" y="-7" font-family="Helvetica,sans-Serif" font-size="10.00">ScenarioManager</text>
</a>
</g>
</g>
<!-- LDPTEST&#45;&gt;ScenarioManager -->
<g id="edge6" class="edge">
<title>LDPTEST&#45;&gt;ScenarioManager</title>
<path fill="none" stroke="black" d="M292.62,-56.13C328.73,-47.14 390.11,-31.87 431.81,-21.49"/>
<polygon fill="black" stroke="black" points="432.84,-24.84 441.7,-19.03 431.15,-18.05 432.84,-24.84"/>
</g>
</g>
</svg>
