<?xml version="1.0" encoding="UTF-8" standalone="no"?>
<!DOCTYPE svg PUBLIC "-//W3C//DTD SVG 1.1//EN"
 "http://www.w3.org/Graphics/SVG/1.1/DTD/svg11.dtd">
<!-- Generated by graphviz version 2.43.0 (0)
 -->
<!-- Title: opp Pages: 1 -->
<svg width="656pt" height="137pt"
 viewBox="0.00 0.00 655.50 137.00" xmlns="http://www.w3.org/2000/svg" xmlns:xlink="http://www.w3.org/1999/xlink">
<g id="graph0" class="graph" transform="scale(1 1) rotate(0) translate(4 133)">
<title>opp</title>
<polygon fill="transparent" stroke="transparent" points="-4,4 -4,-133 651.5,-133 651.5,4 -4,4"/>
<!-- ExampleCompoundPriorityQueue -->
<g id="node1" class="node">
<title>ExampleCompoundPriorityQueue</title>
<g id="a_node1"><a xlink:href="inet.tutorials.queueing.ExampleCompoundPriorityQueue.html" xlink:title="Compound Module ExampleCompoundPriorityQueue" target="_parent">
<polygon fill="#fff700" stroke="black" points="393,-74 214,-74 214,-55 393,-55 393,-74"/>
<text text-anchor="middle" x="303.5" y="-62" font-family="Helvetica,sans-Serif" font-size="10.00">ExampleCompoundPriorityQueue</text>
</a>
</g>
</g>
<!-- WrrClassifier -->
<g id="node2" class="node">
<title>WrrClassifier</title>
<g id="a_node2"><a xlink:href="inet.queueing.classifier.WrrClassifier.html" xlink:title="Simple Module WrrClassifier" target="_parent">
<polygon fill="#fffcaf" stroke="black" points="79,-19 0,-19 0,0 79,0 79,-19"/>
<text text-anchor="middle" x="39.5" y="-7" font-family="Helvetica,sans-Serif" font-size="10.00">WrrClassifier</text>
</a>
</g>
</g>
<!-- ExampleCompoundPriorityQueue&#45;&gt;WrrClassifier -->
<g id="edge1" class="edge">
<title>ExampleCompoundPriorityQueue&#45;&gt;WrrClassifier</title>
<path fill="none" stroke="black" d="M261.08,-54.98C214.18,-45.57 138.69,-30.41 89.09,-20.45"/>
<polygon fill="black" stroke="black" points="89.71,-17.01 79.22,-18.47 88.34,-23.87 89.71,-17.01"/>
</g>
<!-- PacketQueue -->
<g id="node3" class="node">
<title>PacketQueue</title>
<g id="a_node3"><a xlink:href="inet.queueing.queue.PacketQueue.html" xlink:title="Simple Module PacketQueue" target="_parent">
<polygon fill="#fffcaf" stroke="black" points="177.5,-19 97.5,-19 97.5,0 177.5,0 177.5,-19"/>
<text text-anchor="middle" x="137.5" y="-7" font-family="Helvetica,sans-Serif" font-size="10.00">PacketQueue</text>
</a>
</g>
</g>
<!-- ExampleCompoundPriorityQueue&#45;&gt;PacketQueue -->
<g id="edge2" class="edge">
<title>ExampleCompoundPriorityQueue&#45;&gt;PacketQueue</title>
<path fill="none" stroke="black" d="M276.83,-54.98C248.96,-46.09 205.05,-32.07 173.98,-22.15"/>
<polygon fill="black" stroke="black" points="174.97,-18.79 164.38,-19.08 172.84,-25.46 174.97,-18.79"/>
</g>
<!-- PassivePacketSink -->
<g id="node4" class="node">
<title>PassivePacketSink</title>
<g id="a_node4"><a xlink:href="inet.queueing.sink.PassivePacketSink.html" xlink:title="Simple Module PassivePacketSink" target="_parent">
<polygon fill="#fffcaf" stroke="black" points="301.5,-19 195.5,-19 195.5,0 301.5,0 301.5,-19"/>
<text text-anchor="middle" x="248.5" y="-7" font-family="Helvetica,sans-Serif" font-size="10.00">PassivePacketSink</text>
</a>
</g>
</g>
<!-- ExampleCompoundPriorityQueue&#45;&gt;PassivePacketSink -->
<g id="edge3" class="edge">
<title>ExampleCompoundPriorityQueue&#45;&gt;PassivePacketSink</title>
<path fill="none" stroke="black" d="M294.42,-54.75C286.41,-47.03 274.54,-35.6 264.88,-26.28"/>
<polygon fill="black" stroke="black" points="267.04,-23.51 257.41,-19.09 262.19,-28.55 267.04,-23.51"/>
</g>
<!-- IdealChannel -->
<g id="node5" class="node">
<title>IdealChannel</title>
<g id="a_node5"><a xlink:href="ned.IdealChannel.html" xlink:title="Channel IdealChannel" target="_parent">
<polygon fill="#d0ffd0" stroke="black" points="399.5,-19 319.5,-19 319.5,0 399.5,0 399.5,-19"/>
<text text-anchor="middle" x="359.5" y="-7" font-family="Helvetica,sans-Serif" font-size="10.00">IdealChannel</text>
</a>
</g>
</g>
<!-- ExampleCompoundPriorityQueue&#45;&gt;IdealChannel -->
<g id="edge4" class="edge">
<title>ExampleCompoundPriorityQueue&#45;&gt;IdealChannel</title>
<path fill="none" stroke="black" d="M312.5,-54.98C320.69,-47.23 333.01,-35.58 342.97,-26.14"/>
<polygon fill="black" stroke="black" points="345.48,-28.59 350.34,-19.17 340.67,-23.5 345.48,-28.59"/>
</g>
<!-- ActivePacketSource -->
<g id="node6" class="node">
<title>ActivePacketSource</title>
<g id="a_node6"><a xlink:href="inet.queueing.source.ActivePacketSource.html" xlink:title="Simple Module ActivePacketSource" target="_parent">
<polygon fill="#fffcaf" stroke="black" points="529.5,-19 417.5,-19 417.5,0 529.5,0 529.5,-19"/>
<text text-anchor="middle" x="473.5" y="-7" font-family="Helvetica,sans-Serif" font-size="10.00">ActivePacketSource</text>
</a>
</g>
</g>
<!-- ExampleCompoundPriorityQueue&#45;&gt;ActivePacketSource -->
<g id="edge5" class="edge">
<title>ExampleCompoundPriorityQueue&#45;&gt;ActivePacketSource</title>
<path fill="none" stroke="black" d="M330.81,-54.98C359.35,-46.09 404.33,-32.07 436.14,-22.15"/>
<polygon fill="black" stroke="black" points="437.47,-25.4 445.97,-19.08 435.38,-18.72 437.47,-25.4"/>
</g>
<!-- PriorityScheduler -->
<g id="node7" class="node">
<title>PriorityScheduler</title>
<g id="a_node7"><a xlink:href="inet.queueing.scheduler.PriorityScheduler.html" xlink:title="Simple Module PriorityScheduler" target="_parent">
<polygon fill="#fffcaf" stroke="black" points="647.5,-19 547.5,-19 547.5,0 647.5,0 647.5,-19"/>
<text text-anchor="middle" x="597.5" y="-7" font-family="Helvetica,sans-Serif" font-size="10.00">PriorityScheduler</text>
</a>
</g>
</g>
<!-- ExampleCompoundPriorityQueue&#45;&gt;PriorityScheduler -->
<g id="edge6" class="edge">
<title>ExampleCompoundPriorityQueue&#45;&gt;PriorityScheduler</title>
<path fill="none" stroke="black" d="M350.74,-54.98C402.23,-45.7 484.66,-30.84 539.91,-20.88"/>
<polygon fill="black" stroke="black" points="540.67,-24.3 549.89,-19.08 539.43,-17.41 540.67,-24.3"/>
</g>
<!-- CompoundPacketQueueTutorialStep -->
<g id="node8" class="node">
<title>CompoundPacketQueueTutorialStep</title>
<g id="a_node8"><a xlink:href="inet.tutorials.queueing.CompoundPacketQueueTutorialStep.html" xlink:title="Network CompoundPacketQueueTutorialStep" target="_parent">
<polygon fill="#d0d0ff" stroke="black" points="398.5,-129 208.5,-129 208.5,-110 398.5,-110 398.5,-129"/>
<text text-anchor="middle" x="303.5" y="-117" font-family="Helvetica,sans-Serif" font-size="10.00">CompoundPacketQueueTutorialStep</text>
</a>
</g>
</g>
<!-- CompoundPacketQueueTutorialStep&#45;&gt;ExampleCompoundPriorityQueue -->
<g id="edge7" class="edge">
<title>CompoundPacketQueueTutorialStep&#45;&gt;ExampleCompoundPriorityQueue</title>
<path fill="none" stroke="black" d="M303.5,-109.75C303.5,-102.8 303.5,-92.85 303.5,-84.13"/>
<polygon fill="black" stroke="black" points="307,-84.09 303.5,-74.09 300,-84.09 307,-84.09"/>
</g>
</g>
</svg>
