<?xml version="1.0" encoding="UTF-8" standalone="no"?>
<!DOCTYPE svg PUBLIC "-//W3C//DTD SVG 1.1//EN"
 "http://www.w3.org/Graphics/SVG/1.1/DTD/svg11.dtd">
<!-- Generated by graphviz version 2.43.0 (0)
 -->
<!-- Title: opp Pages: 1 -->
<svg width="405pt" height="82pt"
 viewBox="0.00 0.00 404.50 82.00" xmlns="http://www.w3.org/2000/svg" xmlns:xlink="http://www.w3.org/1999/xlink">
<g id="graph0" class="graph" transform="scale(1 1) rotate(0) translate(4 78)">
<title>opp</title>
<polygon fill="transparent" stroke="transparent" points="-4,4 -4,-78 400.5,-78 400.5,4 -4,4"/>
<!-- ApskLayeredTransmitter -->
<g id="node1" class="node">
<title>ApskLayeredTransmitter</title>
<g id="a_node1"><a xlink:href="inet.physicallayer.wireless.apsk.bitlevel.ApskLayeredTransmitter.html" xlink:title="Compound Module ApskLayeredTransmitter" target="_parent">
<polygon fill="#fff700" stroke="black" points="303.5,-74 168.5,-74 168.5,-55 303.5,-55 303.5,-74"/>
<text text-anchor="middle" x="236" y="-62" font-family="Helvetica,sans-Serif" font-size="10.00">ApskLayeredTransmitter</text>
</a>
</g>
</g>
<!-- IDigitalAnalogConverter -->
<g id="node2" class="node">
<title>IDigitalAnalogConverter</title>
<g id="a_node2"><a xlink:href="inet.physicallayer.wireless.common.contract.bitlevel.IDigitalAnalogConverter.html" xlink:title="Module Interface IDigitalAnalogConverter" target="_parent">
<polygon fill="#fffcaf" stroke="black" stroke-dasharray="5,2" points="134,-19 0,-19 0,0 134,0 134,-19"/>
<text text-anchor="middle" x="67" y="-7" font-family="Helvetica,sans-Serif" font-size="10.00">IDigitalAnalogConverter</text>
</a>
</g>
</g>
<!-- ApskLayeredTransmitter&#45;&gt;IDigitalAnalogConverter -->
<g id="edge1" class="edge">
<title>ApskLayeredTransmitter&#45;&gt;IDigitalAnalogConverter</title>
<path fill="none" stroke="black" d="M208.85,-54.98C180.47,-46.09 135.77,-32.07 104.14,-22.15"/>
<polygon fill="black" stroke="black" points="104.95,-18.73 94.37,-19.08 102.86,-25.41 104.95,-18.73"/>
</g>
<!-- IPulseShaper -->
<g id="node3" class="node">
<title>IPulseShaper</title>
<g id="a_node3"><a xlink:href="inet.physicallayer.wireless.common.contract.bitlevel.IPulseShaper.html" xlink:title="Module Interface IPulseShaper" target="_parent">
<polygon fill="#fffcaf" stroke="black" stroke-dasharray="5,2" points="232,-19 152,-19 152,0 232,0 232,-19"/>
<text text-anchor="middle" x="192" y="-7" font-family="Helvetica,sans-Serif" font-size="10.00">IPulseShaper</text>
</a>
</g>
</g>
<!-- ApskLayeredTransmitter&#45;&gt;IPulseShaper -->
<g id="edge2" class="edge">
<title>ApskLayeredTransmitter&#45;&gt;IPulseShaper</title>
<path fill="none" stroke="black" d="M228.73,-54.75C222.46,-47.18 213.21,-36.05 205.57,-26.84"/>
<polygon fill="black" stroke="black" points="208.21,-24.55 199.13,-19.09 202.83,-29.02 208.21,-24.55"/>
</g>
<!-- IEncoder -->
<g id="node4" class="node">
<title>IEncoder</title>
<g id="a_node4"><a xlink:href="inet.physicallayer.wireless.common.contract.bitlevel.IEncoder.html" xlink:title="Module Interface IEncoder" target="_parent">
<polygon fill="#fffcaf" stroke="black" stroke-dasharray="5,2" points="309.5,-19 250.5,-19 250.5,0 309.5,0 309.5,-19"/>
<text text-anchor="middle" x="280" y="-7" font-family="Helvetica,sans-Serif" font-size="10.00">IEncoder</text>
</a>
</g>
</g>
<!-- ApskLayeredTransmitter&#45;&gt;IEncoder -->
<g id="edge3" class="edge">
<title>ApskLayeredTransmitter&#45;&gt;IEncoder</title>
<path fill="none" stroke="black" d="M243.27,-54.75C249.54,-47.18 258.79,-36.05 266.43,-26.84"/>
<polygon fill="black" stroke="black" points="269.17,-29.02 272.87,-19.09 263.79,-24.55 269.17,-29.02"/>
</g>
<!-- IModulator -->
<g id="node5" class="node">
<title>IModulator</title>
<g id="a_node5"><a xlink:href="inet.physicallayer.wireless.common.contract.bitlevel.IModulator.html" xlink:title="Module Interface IModulator" target="_parent">
<polygon fill="#fffcaf" stroke="black" stroke-dasharray="5,2" points="396.5,-19 327.5,-19 327.5,0 396.5,0 396.5,-19"/>
<text text-anchor="middle" x="362" y="-7" font-family="Helvetica,sans-Serif" font-size="10.00">IModulator</text>
</a>
</g>
</g>
<!-- ApskLayeredTransmitter&#45;&gt;IModulator -->
<g id="edge4" class="edge">
<title>ApskLayeredTransmitter&#45;&gt;IModulator</title>
<path fill="none" stroke="black" d="M256.24,-54.98C276.7,-46.38 308.53,-32.99 331.93,-23.15"/>
<polygon fill="black" stroke="black" points="333.53,-26.27 341.39,-19.17 330.81,-19.82 333.53,-26.27"/>
</g>
</g>
</svg>
