<?xml version="1.0" encoding="UTF-8" standalone="no"?>
<!DOCTYPE svg PUBLIC "-//W3C//DTD SVG 1.1//EN"
 "http://www.w3.org/Graphics/SVG/1.1/DTD/svg11.dtd">
<!-- Generated by graphviz version 2.43.0 (0)
 -->
<!-- Title: opp Pages: 1 -->
<svg width="586pt" height="82pt"
 viewBox="0.00 0.00 586.00 82.00" xmlns="http://www.w3.org/2000/svg" xmlns:xlink="http://www.w3.org/1999/xlink">
<g id="graph0" class="graph" transform="scale(1 1) rotate(0) translate(4 78)">
<title>opp</title>
<polygon fill="transparent" stroke="transparent" points="-4,4 -4,-78 582,-78 582,4 -4,4"/>
<!-- PowerConsumptionShowcase -->
<g id="node1" class="node">
<title>PowerConsumptionShowcase</title>
<g id="a_node1"><a xlink:href="inet.showcases.wireless.power.PowerConsumptionShowcase.html" xlink:title="Network PowerConsumptionShowcase" target="_parent">
<polygon fill="#9090ff" stroke="black" points="419.5,-74 259.5,-74 259.5,-55 419.5,-55 419.5,-74"/>
<text text-anchor="middle" x="339.5" y="-62" font-family="Helvetica,sans-Serif" font-size="10.00">PowerConsumptionShowcase</text>
</a>
</g>
</g>
<!-- Ieee80211ScalarRadioMedium -->
<g id="node2" class="node">
<title>Ieee80211ScalarRadioMedium</title>
<g id="a_node2"><a xlink:href="inet.physicallayer.wireless.ieee80211.packetlevel.Ieee80211ScalarRadioMedium.html" xlink:title="Compound Module Ieee80211ScalarRadioMedium" target="_parent">
<polygon fill="#fffcaf" stroke="black" points="165,-19 0,-19 0,0 165,0 165,-19"/>
<text text-anchor="middle" x="82.5" y="-7" font-family="Helvetica,sans-Serif" font-size="10.00">Ieee80211ScalarRadioMedium</text>
</a>
</g>
</g>
<!-- PowerConsumptionShowcase&#45;&gt;Ieee80211ScalarRadioMedium -->
<g id="edge1" class="edge">
<title>PowerConsumptionShowcase&#45;&gt;Ieee80211ScalarRadioMedium</title>
<path fill="none" stroke="black" d="M298.21,-54.98C253.57,-45.78 182.34,-31.09 134.05,-21.13"/>
<polygon fill="black" stroke="black" points="134.62,-17.67 124.12,-19.08 133.2,-24.53 134.62,-17.67"/>
</g>
<!-- IntegratedCanvasVisualizer -->
<g id="node3" class="node">
<title>IntegratedCanvasVisualizer</title>
<g id="a_node3"><a xlink:href="inet.visualizer.canvas.integrated.IntegratedCanvasVisualizer.html" xlink:title="Compound Module IntegratedCanvasVisualizer" target="_parent">
<polygon fill="#fffcaf" stroke="black" points="334,-19 183,-19 183,0 334,0 334,-19"/>
<text text-anchor="middle" x="258.5" y="-7" font-family="Helvetica,sans-Serif" font-size="10.00">IntegratedCanvasVisualizer</text>
</a>
</g>
</g>
<!-- PowerConsumptionShowcase&#45;&gt;IntegratedCanvasVisualizer -->
<g id="edge2" class="edge">
<title>PowerConsumptionShowcase&#45;&gt;IntegratedCanvasVisualizer</title>
<path fill="none" stroke="black" d="M326.49,-54.98C314.04,-46.84 295.04,-34.41 280.29,-24.76"/>
<polygon fill="black" stroke="black" points="282.04,-21.72 271.75,-19.17 278.2,-27.57 282.04,-21.72"/>
</g>
<!-- Ipv4NetworkConfigurator -->
<g id="node4" class="node">
<title>Ipv4NetworkConfigurator</title>
<g id="a_node4"><a xlink:href="inet.networklayer.configurator.ipv4.Ipv4NetworkConfigurator.html" xlink:title="Simple Module Ipv4NetworkConfigurator" target="_parent">
<polygon fill="#fffcaf" stroke="black" points="491,-19 352,-19 352,0 491,0 491,-19"/>
<text text-anchor="middle" x="421.5" y="-7" font-family="Helvetica,sans-Serif" font-size="10.00">Ipv4NetworkConfigurator</text>
</a>
</g>
</g>
<!-- PowerConsumptionShowcase&#45;&gt;Ipv4NetworkConfigurator -->
<g id="edge3" class="edge">
<title>PowerConsumptionShowcase&#45;&gt;Ipv4NetworkConfigurator</title>
<path fill="none" stroke="black" d="M352.67,-54.98C365.27,-46.84 384.5,-34.41 399.44,-24.76"/>
<polygon fill="black" stroke="black" points="401.59,-27.54 408.09,-19.17 397.79,-21.66 401.59,-27.54"/>
</g>
<!-- AdhocHost -->
<g id="node5" class="node">
<title>AdhocHost</title>
<g id="a_node5"><a xlink:href="inet.node.inet.AdhocHost.html" xlink:title="Compound Module AdhocHost" target="_parent">
<polygon fill="#fffcaf" stroke="black" points="578,-19 509,-19 509,0 578,0 578,-19"/>
<text text-anchor="middle" x="543.5" y="-7" font-family="Helvetica,sans-Serif" font-size="10.00">AdhocHost</text>
</a>
</g>
</g>
<!-- PowerConsumptionShowcase&#45;&gt;AdhocHost -->
<g id="edge4" class="edge">
<title>PowerConsumptionShowcase&#45;&gt;AdhocHost</title>
<path fill="none" stroke="black" d="M372.28,-54.98C407.12,-45.93 462.37,-31.58 500.64,-21.64"/>
<polygon fill="black" stroke="black" points="501.67,-24.98 510.47,-19.08 499.91,-18.21 501.67,-24.98"/>
</g>
</g>
</svg>
