<?xml version="1.0" encoding="UTF-8" standalone="no"?>
<!DOCTYPE svg PUBLIC "-//W3C//DTD SVG 1.1//EN"
 "http://www.w3.org/Graphics/SVG/1.1/DTD/svg11.dtd">
<!-- Generated by graphviz version 2.43.0 (0)
 -->
<!-- Title: opp Pages: 1 -->
<svg width="318pt" height="137pt"
 viewBox="0.00 0.00 318.00 137.00" xmlns="http://www.w3.org/2000/svg" xmlns:xlink="http://www.w3.org/1999/xlink">
<g id="graph0" class="graph" transform="scale(1 1) rotate(0) translate(4 133)">
<title>opp</title>
<polygon fill="transparent" stroke="transparent" points="-4,4 -4,-133 314,-133 314,4 -4,4"/>
<!-- LayeredErrorModelBase -->
<g id="node1" class="node">
<title>LayeredErrorModelBase</title>
<g id="a_node1"><a xlink:href="inet.physicallayer.wireless.common.base.bitlevel.LayeredErrorModelBase.html" xlink:title="Compound Module LayeredErrorModelBase" target="_parent">
<polygon fill="#fff700" stroke="black" points="215,-74 82,-74 82,-55 215,-55 215,-74"/>
<text text-anchor="middle" x="148.5" y="-62" font-family="Helvetica,sans-Serif" font-size="10.00">LayeredErrorModelBase</text>
</a>
</g>
</g>
<!-- ApskLayeredErrorModel -->
<g id="node3" class="node">
<title>ApskLayeredErrorModel</title>
<g id="a_node3"><a xlink:href="inet.physicallayer.wireless.apsk.bitlevel.errormodel.ApskLayeredErrorModel.html" xlink:title="Compound Module ApskLayeredErrorModel" target="_parent">
<polygon fill="#fffcaf" stroke="black" points="133,-19 0,-19 0,0 133,0 133,-19"/>
<text text-anchor="middle" x="66.5" y="-7" font-family="Helvetica,sans-Serif" font-size="10.00">ApskLayeredErrorModel</text>
</a>
</g>
</g>
<!-- LayeredErrorModelBase&#45;&gt;ApskLayeredErrorModel -->
<g id="edge2" class="edge">
<title>LayeredErrorModelBase&#45;&gt;ApskLayeredErrorModel</title>
<path fill="none" stroke="black" d="M135.33,-54.98C120.11,-45.15 95.23,-29.07 79.91,-19.17"/>
</g>
<!-- StochasticLayeredErrorModel -->
<g id="node4" class="node">
<title>StochasticLayeredErrorModel</title>
<g id="a_node4"><a xlink:href="inet.physicallayer.wireless.common.errormodel.bitlevel.StochasticLayeredErrorModel.html" xlink:title="Compound Module StochasticLayeredErrorModel" target="_parent">
<polygon fill="#fffcaf" stroke="black" points="310,-19 151,-19 151,0 310,0 310,-19"/>
<text text-anchor="middle" x="230.5" y="-7" font-family="Helvetica,sans-Serif" font-size="10.00">StochasticLayeredErrorModel</text>
</a>
</g>
</g>
<!-- LayeredErrorModelBase&#45;&gt;StochasticLayeredErrorModel -->
<g id="edge3" class="edge">
<title>LayeredErrorModelBase&#45;&gt;StochasticLayeredErrorModel</title>
<path fill="none" stroke="black" d="M161.67,-54.98C176.89,-45.15 201.77,-29.07 217.09,-19.17"/>
</g>
<!-- ILayeredErrorModel -->
<g id="node2" class="node">
<title>ILayeredErrorModel</title>
<g id="a_node2"><a xlink:href="inet.physicallayer.wireless.common.contract.bitlevel.ILayeredErrorModel.html" xlink:title="Module Interface ILayeredErrorModel" target="_parent">
<polygon fill="#fffcaf" stroke="black" stroke-dasharray="5,2" points="204.5,-129 92.5,-129 92.5,-110 204.5,-110 204.5,-129"/>
<text text-anchor="middle" x="148.5" y="-117" font-family="Helvetica,sans-Serif" font-size="10.00">ILayeredErrorModel</text>
</a>
</g>
</g>
<!-- ILayeredErrorModel&#45;&gt;LayeredErrorModelBase -->
<g id="edge1" class="edge">
<title>ILayeredErrorModel&#45;&gt;LayeredErrorModelBase</title>
<path fill="none" stroke="black" stroke-dasharray="5,2" d="M148.5,-109.75C148.5,-99.87 148.5,-83.9 148.5,-74.09"/>
</g>
</g>
</svg>
