<?xml version="1.0" encoding="UTF-8" standalone="no"?>
<!DOCTYPE svg PUBLIC "-//W3C//DTD SVG 1.1//EN"
 "http://www.w3.org/Graphics/SVG/1.1/DTD/svg11.dtd">
<!-- Generated by graphviz version 2.43.0 (0)
 -->
<!-- Title: opp Pages: 1 -->
<svg width="1372pt" height="82pt"
 viewBox="0.00 0.00 1372.00 82.00" xmlns="http://www.w3.org/2000/svg" xmlns:xlink="http://www.w3.org/1999/xlink">
<g id="graph0" class="graph" transform="scale(1 1) rotate(0) translate(4 78)">
<title>opp</title>
<polygon fill="transparent" stroke="transparent" points="-4,4 -4,-78 1368,-78 1368,4 -4,4"/>
<!-- Ieee8022LlcLayer -->
<g id="node1" class="node">
<title>Ieee8022LlcLayer</title>
<g id="a_node1"><a xlink:href="inet.linklayer.ieee8022.Ieee8022LlcLayer.html" xlink:title="Compound Module Ieee8022LlcLayer" target="_parent">
<polygon fill="#fff700" stroke="black" points="704.5,-74 602.5,-74 602.5,-55 704.5,-55 704.5,-74"/>
<text text-anchor="middle" x="653.5" y="-62" font-family="Helvetica,sans-Serif" font-size="10.00">Ieee8022LlcLayer</text>
</a>
</g>
</g>
<!-- MessageDispatcher -->
<g id="node2" class="node">
<title>MessageDispatcher</title>
<g id="a_node2"><a xlink:href="inet.common.MessageDispatcher.html" xlink:title="Simple Module MessageDispatcher" target="_parent">
<polygon fill="#fffcaf" stroke="black" points="113,-19 0,-19 0,0 113,0 113,-19"/>
<text text-anchor="middle" x="56.5" y="-7" font-family="Helvetica,sans-Serif" font-size="10.00">MessageDispatcher</text>
</a>
</g>
</g>
<!-- Ieee8022LlcLayer&#45;&gt;MessageDispatcher -->
<g id="edge1" class="edge">
<title>Ieee8022LlcLayer&#45;&gt;MessageDispatcher</title>
<path fill="none" stroke="black" d="M602.17,-59.96C509.02,-53.37 305.72,-38.23 123.07,-19.01"/>
<polygon fill="black" stroke="black" points="123.32,-15.52 113.01,-17.95 122.58,-22.48 123.32,-15.52"/>
</g>
<!-- IIeee8022SnapInserter -->
<g id="node3" class="node">
<title>IIeee8022SnapInserter</title>
<g id="a_node3"><a xlink:href="inet.linklayer.ieee8022.IIeee8022SnapInserter.html" xlink:title="Module Interface IIeee8022SnapInserter" target="_parent">
<polygon fill="#fffcaf" stroke="black" stroke-dasharray="5,2" points="257.5,-19 131.5,-19 131.5,0 257.5,0 257.5,-19"/>
<text text-anchor="middle" x="194.5" y="-7" font-family="Helvetica,sans-Serif" font-size="10.00">IIeee8022SnapInserter</text>
</a>
</g>
</g>
<!-- Ieee8022LlcLayer&#45;&gt;IIeee8022SnapInserter -->
<g id="edge2" class="edge">
<title>Ieee8022LlcLayer&#45;&gt;IIeee8022SnapInserter</title>
<path fill="none" stroke="black" d="M602.47,-57.68C530.39,-49.45 394.33,-33.88 267.96,-19.17"/>
<polygon fill="black" stroke="black" points="268.05,-15.65 257.71,-17.97 267.24,-22.61 268.05,-15.65"/>
</g>
<!-- IPacketFlow -->
<g id="node4" class="node">
<title>IPacketFlow</title>
<g id="a_node4"><a xlink:href="inet.queueing.contract.IPacketFlow.html" xlink:title="Module Interface IPacketFlow" target="_parent">
<polygon fill="#fffcaf" stroke="black" stroke-dasharray="5,2" points="349.5,-19 275.5,-19 275.5,0 349.5,0 349.5,-19"/>
<text text-anchor="middle" x="312.5" y="-7" font-family="Helvetica,sans-Serif" font-size="10.00">IPacketFlow</text>
</a>
</g>
</g>
<!-- Ieee8022LlcLayer&#45;&gt;IPacketFlow -->
<g id="edge3" class="edge">
<title>Ieee8022LlcLayer&#45;&gt;IPacketFlow</title>
<path fill="none" stroke="black" d="M602.26,-56.29C545.42,-48.18 450.75,-34.33 359.59,-19.14"/>
<polygon fill="black" stroke="black" points="360.08,-15.67 349.64,-17.47 358.92,-22.57 360.08,-15.67"/>
</g>
<!-- IPacketClassifier -->
<g id="node5" class="node">
<title>IPacketClassifier</title>
<g id="a_node5"><a xlink:href="inet.queueing.contract.IPacketClassifier.html" xlink:title="Module Interface IPacketClassifier" target="_parent">
<polygon fill="#fffcaf" stroke="black" stroke-dasharray="5,2" points="463.5,-19 367.5,-19 367.5,0 463.5,0 463.5,-19"/>
<text text-anchor="middle" x="415.5" y="-7" font-family="Helvetica,sans-Serif" font-size="10.00">IPacketClassifier</text>
</a>
</g>
</g>
<!-- Ieee8022LlcLayer&#45;&gt;IPacketClassifier -->
<g id="edge4" class="edge">
<title>Ieee8022LlcLayer&#45;&gt;IPacketClassifier</title>
<path fill="none" stroke="black" d="M615.26,-54.98C574.09,-45.82 508.51,-31.21 463.8,-21.26"/>
<polygon fill="black" stroke="black" points="464.56,-17.84 454.04,-19.08 463.04,-24.67 464.56,-17.84"/>
</g>
<!-- ProtocolChecker -->
<g id="node6" class="node">
<title>ProtocolChecker</title>
<g id="a_node6"><a xlink:href="inet.protocolelement.common.ProtocolChecker.html" xlink:title="Simple Module ProtocolChecker" target="_parent">
<polygon fill="#fffcaf" stroke="black" points="577,-19 482,-19 482,0 577,0 577,-19"/>
<text text-anchor="middle" x="529.5" y="-7" font-family="Helvetica,sans-Serif" font-size="10.00">ProtocolChecker</text>
</a>
</g>
</g>
<!-- Ieee8022LlcLayer&#45;&gt;ProtocolChecker -->
<g id="edge5" class="edge">
<title>Ieee8022LlcLayer&#45;&gt;ProtocolChecker</title>
<path fill="none" stroke="black" d="M633.58,-54.98C613.45,-46.38 582.12,-32.99 559.09,-23.15"/>
<polygon fill="black" stroke="black" points="560.36,-19.88 549.79,-19.17 557.6,-26.32 560.36,-19.88"/>
</g>
<!-- IIeee8022LlcChecker -->
<g id="node7" class="node">
<title>IIeee8022LlcChecker</title>
<g id="a_node7"><a xlink:href="inet.linklayer.ieee8022.IIeee8022LlcChecker.html" xlink:title="Module Interface IIeee8022LlcChecker" target="_parent">
<polygon fill="#fffcaf" stroke="black" stroke-dasharray="5,2" points="712,-19 595,-19 595,0 712,0 712,-19"/>
<text text-anchor="middle" x="653.5" y="-7" font-family="Helvetica,sans-Serif" font-size="10.00">IIeee8022LlcChecker</text>
</a>
</g>
</g>
<!-- Ieee8022LlcLayer&#45;&gt;IIeee8022LlcChecker -->
<g id="edge6" class="edge">
<title>Ieee8022LlcLayer&#45;&gt;IIeee8022LlcChecker</title>
<path fill="none" stroke="black" d="M653.5,-54.75C653.5,-47.8 653.5,-37.85 653.5,-29.13"/>
<polygon fill="black" stroke="black" points="657,-29.09 653.5,-19.09 650,-29.09 657,-29.09"/>
</g>
<!-- IdealChannel -->
<g id="node8" class="node">
<title>IdealChannel</title>
<g id="a_node8"><a xlink:href="ned.IdealChannel.html" xlink:title="Channel IdealChannel" target="_parent">
<polygon fill="#d0ffd0" stroke="black" points="810.5,-19 730.5,-19 730.5,0 810.5,0 810.5,-19"/>
<text text-anchor="middle" x="770.5" y="-7" font-family="Helvetica,sans-Serif" font-size="10.00">IdealChannel</text>
</a>
</g>
</g>
<!-- Ieee8022LlcLayer&#45;&gt;IdealChannel -->
<g id="edge7" class="edge">
<title>Ieee8022LlcLayer&#45;&gt;IdealChannel</title>
<path fill="none" stroke="black" d="M672.3,-54.98C691.12,-46.46 720.32,-33.23 742,-23.41"/>
<polygon fill="black" stroke="black" points="743.7,-26.48 751.36,-19.17 740.81,-20.11 743.7,-26.48"/>
</g>
<!-- Ieee8022LlcSocketTable -->
<g id="node9" class="node">
<title>Ieee8022LlcSocketTable</title>
<g id="a_node9"><a xlink:href="inet.linklayer.ieee8022.Ieee8022LlcSocketTable.html" xlink:title="Simple Module Ieee8022LlcSocketTable" target="_parent">
<polygon fill="#fffcaf" stroke="black" points="962,-19 829,-19 829,0 962,0 962,-19"/>
<text text-anchor="middle" x="895.5" y="-7" font-family="Helvetica,sans-Serif" font-size="10.00">Ieee8022LlcSocketTable</text>
</a>
</g>
</g>
<!-- Ieee8022LlcLayer&#45;&gt;Ieee8022LlcSocketTable -->
<g id="edge8" class="edge">
<title>Ieee8022LlcLayer&#45;&gt;Ieee8022LlcSocketTable</title>
<path fill="none" stroke="black" d="M692.38,-54.98C734.24,-45.82 800.93,-31.21 846.38,-21.26"/>
<polygon fill="black" stroke="black" points="847.29,-24.64 856.31,-19.08 845.8,-17.8 847.29,-24.64"/>
</g>
<!-- IIeee8022LlcInserter -->
<g id="node10" class="node">
<title>IIeee8022LlcInserter</title>
<g id="a_node10"><a xlink:href="inet.linklayer.ieee8022.IIeee8022LlcInserter.html" xlink:title="Module Interface IIeee8022LlcInserter" target="_parent">
<polygon fill="#fffcaf" stroke="black" stroke-dasharray="5,2" points="1096.5,-19 980.5,-19 980.5,0 1096.5,0 1096.5,-19"/>
<text text-anchor="middle" x="1038.5" y="-7" font-family="Helvetica,sans-Serif" font-size="10.00">IIeee8022LlcInserter</text>
</a>
</g>
</g>
<!-- Ieee8022LlcLayer&#45;&gt;IIeee8022LlcInserter -->
<g id="edge9" class="edge">
<title>Ieee8022LlcLayer&#45;&gt;IIeee8022LlcInserter</title>
<path fill="none" stroke="black" d="M704.63,-56.46C772.94,-47.06 894.21,-30.36 970.27,-19.89"/>
<polygon fill="black" stroke="black" points="970.81,-23.35 980.23,-18.52 969.85,-16.42 970.81,-23.35"/>
</g>
<!-- IIeee8022SnapChecker -->
<g id="node11" class="node">
<title>IIeee8022SnapChecker</title>
<g id="a_node11"><a xlink:href="inet.linklayer.ieee8022.IIeee8022SnapChecker.html" xlink:title="Module Interface IIeee8022SnapChecker" target="_parent">
<polygon fill="#fffcaf" stroke="black" stroke-dasharray="5,2" points="1242.5,-19 1114.5,-19 1114.5,0 1242.5,0 1242.5,-19"/>
<text text-anchor="middle" x="1178.5" y="-7" font-family="Helvetica,sans-Serif" font-size="10.00">IIeee8022SnapChecker</text>
</a>
</g>
</g>
<!-- Ieee8022LlcLayer&#45;&gt;IIeee8022SnapChecker -->
<g id="edge10" class="edge">
<title>Ieee8022LlcLayer&#45;&gt;IIeee8022SnapChecker</title>
<path fill="none" stroke="black" d="M704.71,-58.76C786.73,-51.1 952.92,-35.3 1104.45,-19.1"/>
<polygon fill="black" stroke="black" points="1104.84,-22.57 1114.41,-18.03 1104.1,-15.61 1104.84,-22.57"/>
</g>
<!-- PacketMultiplexer -->
<g id="node12" class="node">
<title>PacketMultiplexer</title>
<g id="a_node12"><a xlink:href="inet.queueing.common.PacketMultiplexer.html" xlink:title="Simple Module PacketMultiplexer" target="_parent">
<polygon fill="#fffcaf" stroke="black" points="1364,-19 1261,-19 1261,0 1364,0 1364,-19"/>
<text text-anchor="middle" x="1312.5" y="-7" font-family="Helvetica,sans-Serif" font-size="10.00">PacketMultiplexer</text>
</a>
</g>
</g>
<!-- Ieee8022LlcLayer&#45;&gt;PacketMultiplexer -->
<g id="edge11" class="edge">
<title>Ieee8022LlcLayer&#45;&gt;PacketMultiplexer</title>
<path fill="none" stroke="black" d="M704.8,-60.8C806.66,-55.18 1041.9,-41.02 1250.71,-19.01"/>
<polygon fill="black" stroke="black" points="1251.37,-22.46 1260.94,-17.92 1250.63,-15.5 1251.37,-22.46"/>
</g>
</g>
</svg>
