<?xml version="1.0" encoding="UTF-8" standalone="no"?>
<!DOCTYPE svg PUBLIC "-//W3C//DTD SVG 1.1//EN"
 "http://www.w3.org/Graphics/SVG/1.1/DTD/svg11.dtd">
<!-- Generated by graphviz version 2.43.0 (0)
 -->
<!-- Title: opp Pages: 1 -->
<svg width="596pt" height="82pt"
 viewBox="0.00 0.00 595.50 82.00" xmlns="http://www.w3.org/2000/svg" xmlns:xlink="http://www.w3.org/1999/xlink">
<g id="graph0" class="graph" transform="scale(1 1) rotate(0) translate(4 78)">
<title>opp</title>
<polygon fill="transparent" stroke="transparent" points="-4,4 -4,-78 591.5,-78 591.5,4 -4,4"/>
<!-- DiffservNetwork -->
<g id="node1" class="node">
<title>DiffservNetwork</title>
<g id="a_node1"><a xlink:href="inet.examples.diffserv.simple_.DiffservNetwork.html" xlink:title="Network DiffservNetwork" target="_parent">
<polygon fill="#9090ff" stroke="black" points="379.5,-74 283.5,-74 283.5,-55 379.5,-55 379.5,-74"/>
<text text-anchor="middle" x="331.5" y="-62" font-family="Helvetica,sans-Serif" font-size="10.00">DiffservNetwork</text>
</a>
</g>
</g>
<!-- StandardHost -->
<g id="node2" class="node">
<title>StandardHost</title>
<g id="a_node2"><a xlink:href="inet.node.inet.StandardHost.html" xlink:title="Compound Module StandardHost" target="_parent">
<polygon fill="#fffcaf" stroke="black" points="83,-19 0,-19 0,0 83,0 83,-19"/>
<text text-anchor="middle" x="41.5" y="-7" font-family="Helvetica,sans-Serif" font-size="10.00">StandardHost</text>
</a>
</g>
</g>
<!-- DiffservNetwork&#45;&gt;StandardHost -->
<g id="edge1" class="edge">
<title>DiffservNetwork&#45;&gt;StandardHost</title>
<path fill="none" stroke="black" d="M284.91,-54.98C232.56,-45.42 147.82,-29.93 93.4,-19.99"/>
<polygon fill="black" stroke="black" points="93.74,-16.49 83.27,-18.13 92.48,-23.38 93.74,-16.49"/>
</g>
<!-- ethernetline -->
<g id="node3" class="node">
<title>ethernetline</title>
<g id="a_node3"><a xlink:href="inet.examples.diffserv.simple_.DiffservNetwork.ethernetline.html" xlink:title="Channel ethernetline" target="_parent">
<polygon fill="#d0ffd0" stroke="black" points="177.5,-19 101.5,-19 101.5,0 177.5,0 177.5,-19"/>
<text text-anchor="middle" x="139.5" y="-7" font-family="Helvetica,sans-Serif" font-size="10.00">ethernetline</text>
</a>
</g>
</g>
<!-- DiffservNetwork&#45;&gt;ethernetline -->
<g id="edge2" class="edge">
<title>DiffservNetwork&#45;&gt;ethernetline</title>
<path fill="none" stroke="black" d="M300.65,-54.98C268,-45.97 216.3,-31.7 180.3,-21.76"/>
<polygon fill="black" stroke="black" points="181.16,-18.37 170.59,-19.08 179.3,-25.12 181.16,-18.37"/>
</g>
<!-- Ipv4NetworkConfigurator -->
<g id="node4" class="node">
<title>Ipv4NetworkConfigurator</title>
<g id="a_node4"><a xlink:href="inet.networklayer.configurator.ipv4.Ipv4NetworkConfigurator.html" xlink:title="Simple Module Ipv4NetworkConfigurator" target="_parent">
<polygon fill="#fffcaf" stroke="black" points="335,-19 196,-19 196,0 335,0 335,-19"/>
<text text-anchor="middle" x="265.5" y="-7" font-family="Helvetica,sans-Serif" font-size="10.00">Ipv4NetworkConfigurator</text>
</a>
</g>
</g>
<!-- DiffservNetwork&#45;&gt;Ipv4NetworkConfigurator -->
<g id="edge3" class="edge">
<title>DiffservNetwork&#45;&gt;Ipv4NetworkConfigurator</title>
<path fill="none" stroke="black" d="M320.9,-54.98C311.04,-47.07 296.15,-35.11 284.28,-25.58"/>
<polygon fill="black" stroke="black" points="286.29,-22.7 276.3,-19.17 281.9,-28.16 286.29,-22.7"/>
</g>
<!-- EthernetSwitch -->
<g id="node5" class="node">
<title>EthernetSwitch</title>
<g id="a_node5"><a xlink:href="inet.node.ethernet.EthernetSwitch.html" xlink:title="Compound Module EthernetSwitch" target="_parent">
<polygon fill="#fffcaf" stroke="black" points="443.5,-19 353.5,-19 353.5,0 443.5,0 443.5,-19"/>
<text text-anchor="middle" x="398.5" y="-7" font-family="Helvetica,sans-Serif" font-size="10.00">EthernetSwitch</text>
</a>
</g>
</g>
<!-- DiffservNetwork&#45;&gt;EthernetSwitch -->
<g id="edge4" class="edge">
<title>DiffservNetwork&#45;&gt;EthernetSwitch</title>
<path fill="none" stroke="black" d="M342.26,-54.98C352.27,-47.07 367.39,-35.11 379.43,-25.58"/>
<polygon fill="black" stroke="black" points="381.87,-28.12 387.54,-19.17 377.53,-22.63 381.87,-28.12"/>
</g>
<!-- Router -->
<g id="node6" class="node">
<title>Router</title>
<g id="a_node6"><a xlink:href="inet.node.inet.Router.html" xlink:title="Compound Module Router" target="_parent">
<polygon fill="#fffcaf" stroke="black" points="515.5,-19 461.5,-19 461.5,0 515.5,0 515.5,-19"/>
<text text-anchor="middle" x="488.5" y="-7" font-family="Helvetica,sans-Serif" font-size="10.00">Router</text>
</a>
</g>
</g>
<!-- DiffservNetwork&#45;&gt;Router -->
<g id="edge5" class="edge">
<title>DiffservNetwork&#45;&gt;Router</title>
<path fill="none" stroke="black" d="M356.72,-54.98C382.86,-46.16 423.9,-32.31 453.23,-22.41"/>
<polygon fill="black" stroke="black" points="454.72,-25.6 463.08,-19.08 452.48,-18.96 454.72,-25.6"/>
</g>
<!-- dialup -->
<g id="node7" class="node">
<title>dialup</title>
<g id="a_node7"><a xlink:href="inet.examples.diffserv.simple_.DiffservNetwork.dialup.html" xlink:title="Channel dialup" target="_parent">
<polygon fill="#d0ffd0" stroke="black" points="587.5,-19 533.5,-19 533.5,0 587.5,0 587.5,-19"/>
<text text-anchor="middle" x="560.5" y="-7" font-family="Helvetica,sans-Serif" font-size="10.00">dialup</text>
</a>
</g>
</g>
<!-- DiffservNetwork&#45;&gt;dialup -->
<g id="edge6" class="edge">
<title>DiffservNetwork&#45;&gt;dialup</title>
<path fill="none" stroke="black" d="M368.87,-54.94C405.71,-46.5 463.88,-33.12 523.42,-19.24"/>
<polygon fill="black" stroke="black" points="524.43,-22.6 533.38,-16.92 522.84,-15.78 524.43,-22.6"/>
</g>
</g>
</svg>
