<?xml version="1.0" encoding="UTF-8" standalone="no"?>
<!DOCTYPE svg PUBLIC "-//W3C//DTD SVG 1.1//EN"
 "http://www.w3.org/Graphics/SVG/1.1/DTD/svg11.dtd">
<!-- Generated by graphviz version 2.43.0 (0)
 -->
<!-- Title: opp Pages: 1 -->
<svg width="817pt" height="82pt"
 viewBox="0.00 0.00 817.00 82.00" xmlns="http://www.w3.org/2000/svg" xmlns:xlink="http://www.w3.org/1999/xlink">
<g id="graph0" class="graph" transform="scale(1 1) rotate(0) translate(4 78)">
<title>opp</title>
<polygon fill="transparent" stroke="transparent" points="-4,4 -4,-78 813,-78 813,4 -4,4"/>
<!-- IPv4LargeNet -->
<g id="node1" class="node">
<title>IPv4LargeNet</title>
<g id="a_node1"><a xlink:href="inet.examples.inet.ipv4largenet.IPv4LargeNet.html" xlink:title="Network IPv4LargeNet" target="_parent">
<polygon fill="#9090ff" stroke="black" points="455,-74 373,-74 373,-55 455,-55 455,-74"/>
<text text-anchor="middle" x="414" y="-62" font-family="Helvetica,sans-Serif" font-size="10.00">IPv4LargeNet</text>
</a>
</g>
</g>
<!-- IPv4SmallLAN -->
<g id="node2" class="node">
<title>IPv4SmallLAN</title>
<g id="a_node2"><a xlink:href="inet.examples.inet.ipv4largenet.IPv4SmallLAN.html" xlink:title="Compound Module IPv4SmallLAN" target="_parent">
<polygon fill="#fffcaf" stroke="black" points="86,-19 0,-19 0,0 86,0 86,-19"/>
<text text-anchor="middle" x="43" y="-7" font-family="Helvetica,sans-Serif" font-size="10.00">IPv4SmallLAN</text>
</a>
</g>
</g>
<!-- IPv4LargeNet&#45;&gt;IPv4SmallLAN -->
<g id="edge1" class="edge">
<title>IPv4LargeNet&#45;&gt;IPv4SmallLAN</title>
<path fill="none" stroke="black" d="M372.91,-58.08C314.02,-50.25 201.94,-35.08 96.32,-19.17"/>
<polygon fill="black" stroke="black" points="96.53,-15.66 86.12,-17.63 95.48,-22.58 96.53,-15.66"/>
</g>
<!-- IPv4MediumLAN -->
<g id="node3" class="node">
<title>IPv4MediumLAN</title>
<g id="a_node3"><a xlink:href="inet.examples.inet.ipv4largenet.IPv4MediumLAN.html" xlink:title="Compound Module IPv4MediumLAN" target="_parent">
<polygon fill="#fffcaf" stroke="black" points="202,-19 104,-19 104,0 202,0 202,-19"/>
<text text-anchor="middle" x="153" y="-7" font-family="Helvetica,sans-Serif" font-size="10.00">IPv4MediumLAN</text>
</a>
</g>
</g>
<!-- IPv4LargeNet&#45;&gt;IPv4MediumLAN -->
<g id="edge2" class="edge">
<title>IPv4LargeNet&#45;&gt;IPv4MediumLAN</title>
<path fill="none" stroke="black" d="M372.93,-55.16C327.54,-45.94 254.32,-31.08 204.97,-21.05"/>
<polygon fill="black" stroke="black" points="205.62,-17.61 195.13,-19.05 204.23,-24.47 205.62,-17.61"/>
</g>
<!-- StandardHost -->
<g id="node4" class="node">
<title>StandardHost</title>
<g id="a_node4"><a xlink:href="inet.node.inet.StandardHost.html" xlink:title="Compound Module StandardHost" target="_parent">
<polygon fill="#fffcaf" stroke="black" points="303.5,-19 220.5,-19 220.5,0 303.5,0 303.5,-19"/>
<text text-anchor="middle" x="262" y="-7" font-family="Helvetica,sans-Serif" font-size="10.00">StandardHost</text>
</a>
</g>
</g>
<!-- IPv4LargeNet&#45;&gt;StandardHost -->
<g id="edge3" class="edge">
<title>IPv4LargeNet&#45;&gt;StandardHost</title>
<path fill="none" stroke="black" d="M389.58,-54.98C364.28,-46.16 324.55,-32.31 296.14,-22.41"/>
<polygon fill="black" stroke="black" points="297.21,-19.07 286.61,-19.08 294.9,-25.68 297.21,-19.07"/>
</g>
<!-- cabletoserver -->
<g id="node5" class="node">
<title>cabletoserver</title>
<g id="a_node5"><a xlink:href="inet.examples.inet.ipv4largenet.IPv4LargeNet.cabletoserver.html" xlink:title="Channel cabletoserver" target="_parent">
<polygon fill="#d0ffd0" stroke="black" points="404.5,-19 321.5,-19 321.5,0 404.5,0 404.5,-19"/>
<text text-anchor="middle" x="363" y="-7" font-family="Helvetica,sans-Serif" font-size="10.00">cabletoserver</text>
</a>
</g>
</g>
<!-- IPv4LargeNet&#45;&gt;cabletoserver -->
<g id="edge4" class="edge">
<title>IPv4LargeNet&#45;&gt;cabletoserver</title>
<path fill="none" stroke="black" d="M405.58,-54.75C398.23,-47.11 387.37,-35.82 378.46,-26.56"/>
<polygon fill="black" stroke="black" points="380.72,-23.87 371.26,-19.09 375.68,-28.72 380.72,-23.87"/>
</g>
<!-- IPv4LargeLAN -->
<g id="node6" class="node">
<title>IPv4LargeLAN</title>
<g id="a_node6"><a xlink:href="inet.examples.inet.ipv4largenet.IPv4LargeLAN.html" xlink:title="Compound Module IPv4LargeLAN" target="_parent">
<polygon fill="#fffcaf" stroke="black" points="507.5,-19 422.5,-19 422.5,0 507.5,0 507.5,-19"/>
<text text-anchor="middle" x="465" y="-7" font-family="Helvetica,sans-Serif" font-size="10.00">IPv4LargeLAN</text>
</a>
</g>
</g>
<!-- IPv4LargeNet&#45;&gt;IPv4LargeLAN -->
<g id="edge5" class="edge">
<title>IPv4LargeNet&#45;&gt;IPv4LargeLAN</title>
<path fill="none" stroke="black" d="M422.42,-54.75C429.77,-47.11 440.63,-35.82 449.54,-26.56"/>
<polygon fill="black" stroke="black" points="452.32,-28.72 456.74,-19.09 447.28,-23.87 452.32,-28.72"/>
</g>
<!-- Ipv4NetworkConfigurator -->
<g id="node7" class="node">
<title>Ipv4NetworkConfigurator</title>
<g id="a_node7"><a xlink:href="inet.networklayer.configurator.ipv4.Ipv4NetworkConfigurator.html" xlink:title="Simple Module Ipv4NetworkConfigurator" target="_parent">
<polygon fill="#fffcaf" stroke="black" points="664.5,-19 525.5,-19 525.5,0 664.5,0 664.5,-19"/>
<text text-anchor="middle" x="595" y="-7" font-family="Helvetica,sans-Serif" font-size="10.00">Ipv4NetworkConfigurator</text>
</a>
</g>
</g>
<!-- IPv4LargeNet&#45;&gt;Ipv4NetworkConfigurator -->
<g id="edge6" class="edge">
<title>IPv4LargeNet&#45;&gt;Ipv4NetworkConfigurator</title>
<path fill="none" stroke="black" d="M443.08,-54.98C473.6,-46.05 521.76,-31.94 555.66,-22.02"/>
<polygon fill="black" stroke="black" points="557.08,-25.25 565.69,-19.08 555.11,-18.53 557.08,-25.25"/>
</g>
<!-- Router -->
<g id="node8" class="node">
<title>Router</title>
<g id="a_node8"><a xlink:href="inet.node.inet.Router.html" xlink:title="Compound Module Router" target="_parent">
<polygon fill="#fffcaf" stroke="black" points="737,-19 683,-19 683,0 737,0 737,-19"/>
<text text-anchor="middle" x="710" y="-7" font-family="Helvetica,sans-Serif" font-size="10.00">Router</text>
</a>
</g>
</g>
<!-- IPv4LargeNet&#45;&gt;Router -->
<g id="edge7" class="edge">
<title>IPv4LargeNet&#45;&gt;Router</title>
<path fill="none" stroke="black" d="M455.13,-57.27C504.55,-49.61 590.2,-35.76 673.08,-19.08"/>
<polygon fill="black" stroke="black" points="673.81,-22.51 682.91,-17.09 672.42,-15.65 673.81,-22.51"/>
</g>
<!-- cable -->
<g id="node9" class="node">
<title>cable</title>
<g id="a_node9"><a xlink:href="inet.examples.inet.ipv4largenet.cable.html" xlink:title="Channel cable" target="_parent">
<polygon fill="#d0ffd0" stroke="black" points="809,-19 755,-19 755,0 809,0 809,-19"/>
<text text-anchor="middle" x="782" y="-7" font-family="Helvetica,sans-Serif" font-size="10.00">cable</text>
</a>
</g>
</g>
<!-- IPv4LargeNet&#45;&gt;cable -->
<g id="edge8" class="edge">
<title>IPv4LargeNet&#45;&gt;cable</title>
<path fill="none" stroke="black" d="M455.09,-59.31C516.18,-52.8 634.71,-39.05 744.97,-19.02"/>
<polygon fill="black" stroke="black" points="745.73,-22.44 754.93,-17.19 744.47,-15.56 745.73,-22.44"/>
</g>
</g>
</svg>
