<?xml version="1.0" encoding="UTF-8" standalone="no"?>
<!DOCTYPE svg PUBLIC "-//W3C//DTD SVG 1.1//EN"
 "http://www.w3.org/Graphics/SVG/1.1/DTD/svg11.dtd">
<!-- Generated by graphviz version 2.43.0 (0)
 -->
<!-- Title: opp Pages: 1 -->
<svg width="362pt" height="82pt"
 viewBox="0.00 0.00 362.00 82.00" xmlns="http://www.w3.org/2000/svg" xmlns:xlink="http://www.w3.org/1999/xlink">
<g id="graph0" class="graph" transform="scale(1 1) rotate(0) translate(4 78)">
<title>opp</title>
<polygon fill="transparent" stroke="transparent" points="-4,4 -4,-78 358,-78 358,4 -4,4"/>
<!-- Radio -->
<g id="node1" class="node">
<title>Radio</title>
<g id="a_node1"><a xlink:href="inet.physicallayer.wireless.common.radio.packetlevel.Radio.html" xlink:title="Compound Module Radio" target="_parent">
<polygon fill="#fff700" stroke="black" points="210,-74 156,-74 156,-55 210,-55 210,-74"/>
<text text-anchor="middle" x="183" y="-62" font-family="Helvetica,sans-Serif" font-size="10.00">Radio</text>
</a>
</g>
</g>
<!-- IAntenna -->
<g id="node2" class="node">
<title>IAntenna</title>
<g id="a_node2"><a xlink:href="inet.physicallayer.wireless.common.contract.packetlevel.IAntenna.html" xlink:title="Module Interface IAntenna" target="_parent">
<polygon fill="#fffcaf" stroke="black" stroke-dasharray="5,2" points="60,-19 0,-19 0,0 60,0 60,-19"/>
<text text-anchor="middle" x="30" y="-7" font-family="Helvetica,sans-Serif" font-size="10.00">IAntenna</text>
</a>
</g>
</g>
<!-- Radio&#45;&gt;IAntenna -->
<g id="edge1" class="edge">
<title>Radio&#45;&gt;IAntenna</title>
<path fill="none" stroke="black" d="M158.42,-54.98C132.95,-46.16 92.96,-32.31 64.37,-22.41"/>
<polygon fill="black" stroke="black" points="65.37,-19.05 54.77,-19.08 63.08,-25.66 65.37,-19.05"/>
</g>
<!-- IEnergyConsumer -->
<g id="node3" class="node">
<title>IEnergyConsumer</title>
<g id="a_node3"><a xlink:href="inet.power.contract.IEnergyConsumer.html" xlink:title="Module Interface IEnergyConsumer" target="_parent">
<polygon fill="#fffcaf" stroke="black" stroke-dasharray="5,2" points="181.5,-19 78.5,-19 78.5,0 181.5,0 181.5,-19"/>
<text text-anchor="middle" x="130" y="-7" font-family="Helvetica,sans-Serif" font-size="10.00">IEnergyConsumer</text>
</a>
</g>
</g>
<!-- Radio&#45;&gt;IEnergyConsumer -->
<g id="edge2" class="edge">
<title>Radio&#45;&gt;IEnergyConsumer</title>
<path fill="none" stroke="black" d="M174.25,-54.75C166.53,-47.03 155.1,-35.6 145.78,-26.28"/>
<polygon fill="black" stroke="black" points="148.14,-23.69 138.59,-19.09 143.19,-28.64 148.14,-23.69"/>
</g>
<!-- ITransmitter -->
<g id="node4" class="node">
<title>ITransmitter</title>
<g id="a_node4"><a xlink:href="inet.physicallayer.wireless.common.contract.packetlevel.ITransmitter.html" xlink:title="Module Interface ITransmitter" target="_parent">
<polygon fill="#fffcaf" stroke="black" stroke-dasharray="5,2" points="274.5,-19 199.5,-19 199.5,0 274.5,0 274.5,-19"/>
<text text-anchor="middle" x="237" y="-7" font-family="Helvetica,sans-Serif" font-size="10.00">ITransmitter</text>
</a>
</g>
</g>
<!-- Radio&#45;&gt;ITransmitter -->
<g id="edge3" class="edge">
<title>Radio&#45;&gt;ITransmitter</title>
<path fill="none" stroke="black" d="M191.92,-54.75C199.78,-47.03 211.43,-35.6 220.92,-26.28"/>
<polygon fill="black" stroke="black" points="223.56,-28.59 228.25,-19.09 218.66,-23.6 223.56,-28.59"/>
</g>
<!-- IReceiver -->
<g id="node5" class="node">
<title>IReceiver</title>
<g id="a_node5"><a xlink:href="inet.physicallayer.wireless.common.contract.packetlevel.IReceiver.html" xlink:title="Module Interface IReceiver" target="_parent">
<polygon fill="#fffcaf" stroke="black" stroke-dasharray="5,2" points="354,-19 292,-19 292,0 354,0 354,-19"/>
<text text-anchor="middle" x="323" y="-7" font-family="Helvetica,sans-Serif" font-size="10.00">IReceiver</text>
</a>
</g>
</g>
<!-- Radio&#45;&gt;IReceiver -->
<g id="edge4" class="edge">
<title>Radio&#45;&gt;IReceiver</title>
<path fill="none" stroke="black" d="M205.49,-54.98C228.52,-46.27 264.54,-32.63 290.63,-22.75"/>
<polygon fill="black" stroke="black" points="291.98,-25.98 300.1,-19.17 289.51,-19.44 291.98,-25.98"/>
</g>
</g>
</svg>
