<?xml version="1.0" encoding="UTF-8" standalone="no"?>
<!DOCTYPE svg PUBLIC "-//W3C//DTD SVG 1.1//EN"
 "http://www.w3.org/Graphics/SVG/1.1/DTD/svg11.dtd">
<!-- Generated by graphviz version 2.43.0 (0)
 -->
<!-- Title: opp Pages: 1 -->
<svg width="514pt" height="82pt"
 viewBox="0.00 0.00 514.00 82.00" xmlns="http://www.w3.org/2000/svg" xmlns:xlink="http://www.w3.org/1999/xlink">
<g id="graph0" class="graph" transform="scale(1 1) rotate(0) translate(4 78)">
<title>opp</title>
<polygon fill="transparent" stroke="transparent" points="-4,4 -4,-78 510,-78 510,4 -4,4"/>
<!-- NClientsEthPpp -->
<g id="node1" class="node">
<title>NClientsEthPpp</title>
<g id="a_node1"><a xlink:href="inet.examples.ipv6.ipv6nclients.NClientsEthPpp.html" xlink:title="Network NClientsEthPpp" target="_parent">
<polygon fill="#9090ff" stroke="black" points="231.5,-74 139.5,-74 139.5,-55 231.5,-55 231.5,-74"/>
<text text-anchor="middle" x="185.5" y="-62" font-family="Helvetica,sans-Serif" font-size="10.00">NClientsEthPpp</text>
</a>
</g>
</g>
<!-- Router6 -->
<g id="node2" class="node">
<title>Router6</title>
<g id="a_node2"><a xlink:href="inet.node.ipv6.Router6.html" xlink:title="Compound Module Router6" target="_parent">
<polygon fill="#fffcaf" stroke="black" points="55,-19 0,-19 0,0 55,0 55,-19"/>
<text text-anchor="middle" x="27.5" y="-7" font-family="Helvetica,sans-Serif" font-size="10.00">Router6</text>
</a>
</g>
</g>
<!-- NClientsEthPpp&#45;&gt;Router6 -->
<g id="edge1" class="edge">
<title>NClientsEthPpp&#45;&gt;Router6</title>
<path fill="none" stroke="black" d="M160.11,-54.98C133.7,-46.13 92.15,-32.19 62.61,-22.28"/>
<polygon fill="black" stroke="black" points="63.68,-18.94 53.08,-19.08 61.45,-25.58 63.68,-18.94"/>
</g>
<!-- fiberline -->
<g id="node3" class="node">
<title>fiberline</title>
<g id="a_node3"><a xlink:href="inet.examples.ipv6.ipv6nclients.NClientsEthPpp.fiberline.html" xlink:title="Channel fiberline" target="_parent">
<polygon fill="#d0ffd0" stroke="black" points="129.5,-19 73.5,-19 73.5,0 129.5,0 129.5,-19"/>
<text text-anchor="middle" x="101.5" y="-7" font-family="Helvetica,sans-Serif" font-size="10.00">fiberline</text>
</a>
</g>
</g>
<!-- NClientsEthPpp&#45;&gt;fiberline -->
<g id="edge2" class="edge">
<title>NClientsEthPpp&#45;&gt;fiberline</title>
<path fill="none" stroke="black" d="M172,-54.98C159.1,-46.84 139.4,-34.41 124.1,-24.76"/>
<polygon fill="black" stroke="black" points="125.57,-21.55 115.24,-19.17 121.83,-27.47 125.57,-21.55"/>
</g>
<!-- ethernetline -->
<g id="node4" class="node">
<title>ethernetline</title>
<g id="a_node4"><a xlink:href="inet.examples.ipv6.ipv6nclients.NClientsEthPpp.ethernetline.html" xlink:title="Channel ethernetline" target="_parent">
<polygon fill="#d0ffd0" stroke="black" points="223.5,-19 147.5,-19 147.5,0 223.5,0 223.5,-19"/>
<text text-anchor="middle" x="185.5" y="-7" font-family="Helvetica,sans-Serif" font-size="10.00">ethernetline</text>
</a>
</g>
</g>
<!-- NClientsEthPpp&#45;&gt;ethernetline -->
<g id="edge3" class="edge">
<title>NClientsEthPpp&#45;&gt;ethernetline</title>
<path fill="none" stroke="black" d="M185.5,-54.75C185.5,-47.8 185.5,-37.85 185.5,-29.13"/>
<polygon fill="black" stroke="black" points="189,-29.09 185.5,-19.09 182,-29.09 189,-29.09"/>
</g>
<!-- Ipv6FlatNetworkConfigurator -->
<g id="node5" class="node">
<title>Ipv6FlatNetworkConfigurator</title>
<g id="a_node5"><a xlink:href="inet.networklayer.configurator.ipv6.Ipv6FlatNetworkConfigurator.html" xlink:title="Simple Module Ipv6FlatNetworkConfigurator" target="_parent">
<polygon fill="#fffcaf" stroke="black" points="399.5,-19 241.5,-19 241.5,0 399.5,0 399.5,-19"/>
<text text-anchor="middle" x="320.5" y="-7" font-family="Helvetica,sans-Serif" font-size="10.00">Ipv6FlatNetworkConfigurator</text>
</a>
</g>
</g>
<!-- NClientsEthPpp&#45;&gt;Ipv6FlatNetworkConfigurator -->
<g id="edge4" class="edge">
<title>NClientsEthPpp&#45;&gt;Ipv6FlatNetworkConfigurator</title>
<path fill="none" stroke="black" d="M207.19,-54.98C229.3,-46.3 263.82,-32.75 288.95,-22.88"/>
<polygon fill="black" stroke="black" points="290.39,-26.08 298.42,-19.17 287.83,-19.57 290.39,-26.08"/>
</g>
<!-- StandardHost6 -->
<g id="node6" class="node">
<title>StandardHost6</title>
<g id="a_node6"><a xlink:href="inet.node.ipv6.StandardHost6.html" xlink:title="Compound Module StandardHost6" target="_parent">
<polygon fill="#fffcaf" stroke="black" points="506,-19 417,-19 417,0 506,0 506,-19"/>
<text text-anchor="middle" x="461.5" y="-7" font-family="Helvetica,sans-Serif" font-size="10.00">StandardHost6</text>
</a>
</g>
</g>
<!-- NClientsEthPpp&#45;&gt;StandardHost6 -->
<g id="edge5" class="edge">
<title>NClientsEthPpp&#45;&gt;StandardHost6</title>
<path fill="none" stroke="black" d="M229.84,-54.98C277.99,-45.74 354.92,-30.97 406.79,-21.01"/>
<polygon fill="black" stroke="black" points="407.65,-24.41 416.81,-19.08 406.33,-17.53 407.65,-24.41"/>
</g>
</g>
</svg>
