<?xml version="1.0" encoding="UTF-8" standalone="no"?>
<!DOCTYPE svg PUBLIC "-//W3C//DTD SVG 1.1//EN"
 "http://www.w3.org/Graphics/SVG/1.1/DTD/svg11.dtd">
<!-- Generated by graphviz version 2.43.0 (0)
 -->
<!-- Title: opp Pages: 1 -->
<svg width="301pt" height="82pt"
 viewBox="0.00 0.00 300.50 82.00" xmlns="http://www.w3.org/2000/svg" xmlns:xlink="http://www.w3.org/1999/xlink">
<g id="graph0" class="graph" transform="scale(1 1) rotate(0) translate(4 78)">
<title>opp</title>
<polygon fill="transparent" stroke="transparent" points="-4,4 -4,-78 296.5,-78 296.5,4 -4,4"/>
<!-- HubLAN -->
<g id="node1" class="node">
<title>HubLAN</title>
<g id="a_node1"><a xlink:href="inet.examples.ethernet.lans.HubLAN.html" xlink:title="Network HubLAN" target="_parent">
<polygon fill="#9090ff" stroke="black" points="172.5,-74 116.5,-74 116.5,-55 172.5,-55 172.5,-74"/>
<text text-anchor="middle" x="144.5" y="-62" font-family="Helvetica,sans-Serif" font-size="10.00">HubLAN</text>
</a>
</g>
</g>
<!-- EthernetHub -->
<g id="node2" class="node">
<title>EthernetHub</title>
<g id="a_node2"><a xlink:href="inet.node.ethernet.EthernetHub.html" xlink:title="Simple Module EthernetHub" target="_parent">
<polygon fill="#fffcaf" stroke="black" points="77,-19 0,-19 0,0 77,0 77,-19"/>
<text text-anchor="middle" x="38.5" y="-7" font-family="Helvetica,sans-Serif" font-size="10.00">EthernetHub</text>
</a>
</g>
</g>
<!-- HubLAN&#45;&gt;EthernetHub -->
<g id="edge1" class="edge">
<title>HubLAN&#45;&gt;EthernetHub</title>
<path fill="none" stroke="black" d="M127.47,-54.98C110.57,-46.54 84.44,-33.47 64.86,-23.68"/>
<polygon fill="black" stroke="black" points="66.35,-20.51 55.84,-19.17 63.22,-26.77 66.35,-20.51"/>
</g>
<!-- DatarateChannel -->
<g id="node3" class="node">
<title>DatarateChannel</title>
<g id="a_node3"><a xlink:href="ned.DatarateChannel.html" xlink:title="Channel DatarateChannel" target="_parent">
<polygon fill="#d0ffd0" stroke="black" points="194,-19 95,-19 95,0 194,0 194,-19"/>
<text text-anchor="middle" x="144.5" y="-7" font-family="Helvetica,sans-Serif" font-size="10.00">DatarateChannel</text>
</a>
</g>
</g>
<!-- HubLAN&#45;&gt;DatarateChannel -->
<g id="edge2" class="edge">
<title>HubLAN&#45;&gt;DatarateChannel</title>
<path fill="none" stroke="black" d="M144.5,-54.75C144.5,-47.8 144.5,-37.85 144.5,-29.13"/>
<polygon fill="black" stroke="black" points="148,-29.09 144.5,-19.09 141,-29.09 148,-29.09"/>
</g>
<!-- EthernetHost -->
<g id="node4" class="node">
<title>EthernetHost</title>
<g id="a_node4"><a xlink:href="inet.node.ethernet.EthernetHost.html" xlink:title="Compound Module EthernetHost" target="_parent">
<polygon fill="#fffcaf" stroke="black" points="292.5,-19 212.5,-19 212.5,0 292.5,0 292.5,-19"/>
<text text-anchor="middle" x="252.5" y="-7" font-family="Helvetica,sans-Serif" font-size="10.00">EthernetHost</text>
</a>
</g>
</g>
<!-- HubLAN&#45;&gt;EthernetHost -->
<g id="edge3" class="edge">
<title>HubLAN&#45;&gt;EthernetHost</title>
<path fill="none" stroke="black" d="M161.85,-54.98C179.07,-46.54 205.7,-33.47 225.65,-23.68"/>
<polygon fill="black" stroke="black" points="227.4,-26.72 234.83,-19.17 224.31,-20.43 227.4,-26.72"/>
</g>
</g>
</svg>
