<?xml version="1.0" encoding="UTF-8" standalone="no"?>
<!DOCTYPE svg PUBLIC "-//W3C//DTD SVG 1.1//EN"
 "http://www.w3.org/Graphics/SVG/1.1/DTD/svg11.dtd">
<!-- Generated by graphviz version 2.43.0 (0)
 -->
<!-- Title: opp Pages: 1 -->
<svg width="584pt" height="137pt"
 viewBox="0.00 0.00 584.00 137.00" xmlns="http://www.w3.org/2000/svg" xmlns:xlink="http://www.w3.org/1999/xlink">
<g id="graph0" class="graph" transform="scale(1 1) rotate(0) translate(4 133)">
<title>opp</title>
<polygon fill="transparent" stroke="transparent" points="-4,4 -4,-133 580,-133 580,4 -4,4"/>
<!-- EthernetLink -->
<g id="node1" class="node">
<title>EthernetLink</title>
<g id="a_node1"><a xlink:href="inet.node.ethernet.EthernetLink.html" xlink:title="Channel EthernetLink" target="_parent">
<polygon fill="#90ff90" stroke="black" points="328,-74 250,-74 250,-55 328,-55 328,-74"/>
<text text-anchor="middle" x="289" y="-62" font-family="Helvetica,sans-Serif" font-size="10.00">EthernetLink</text>
</a>
</g>
</g>
<!-- Eth100G -->
<g id="node3" class="node">
<title>Eth100G</title>
<g id="a_node3"><a xlink:href="inet.node.ethernet.Eth100G.html" xlink:title="Channel Eth100G" target="_parent">
<polygon fill="#d0ffd0" stroke="black" points="58,-19 0,-19 0,0 58,0 58,-19"/>
<text text-anchor="middle" x="29" y="-7" font-family="Helvetica,sans-Serif" font-size="10.00">Eth100G</text>
</a>
</g>
</g>
<!-- EthernetLink&#45;&gt;Eth100G -->
<g id="edge2" class="edge">
<title>EthernetLink&#45;&gt;Eth100G</title>
<path fill="none" stroke="black" d="M249.65,-55.89C205.23,-47.23 130.83,-32.54 67,-19 64.09,-18.38 61.06,-17.73 58.03,-17.06"/>
</g>
<!-- Eth100M -->
<g id="node4" class="node">
<title>Eth100M</title>
<g id="a_node4"><a xlink:href="inet.node.ethernet.Eth100M.html" xlink:title="Channel Eth100M" target="_parent">
<polygon fill="#d0ffd0" stroke="black" points="135.5,-19 76.5,-19 76.5,0 135.5,0 135.5,-19"/>
<text text-anchor="middle" x="106" y="-7" font-family="Helvetica,sans-Serif" font-size="10.00">Eth100M</text>
</a>
</g>
</g>
<!-- EthernetLink&#45;&gt;Eth100M -->
<g id="edge3" class="edge">
<title>EthernetLink&#45;&gt;Eth100M</title>
<path fill="none" stroke="black" d="M259.6,-54.98C225.55,-45.12 169.78,-28.97 135.63,-19.08"/>
</g>
<!-- Eth10G -->
<g id="node5" class="node">
<title>Eth10G</title>
<g id="a_node5"><a xlink:href="inet.node.ethernet.Eth10G.html" xlink:title="Channel Eth10G" target="_parent">
<polygon fill="#d0ffd0" stroke="black" points="208,-19 154,-19 154,0 208,0 208,-19"/>
<text text-anchor="middle" x="181" y="-7" font-family="Helvetica,sans-Serif" font-size="10.00">Eth10G</text>
</a>
</g>
</g>
<!-- EthernetLink&#45;&gt;Eth10G -->
<g id="edge4" class="edge">
<title>EthernetLink&#45;&gt;Eth10G</title>
<path fill="none" stroke="black" d="M271.65,-54.98C251.61,-45.15 218.84,-29.07 198.67,-19.17"/>
</g>
<!-- Eth10M -->
<g id="node6" class="node">
<title>Eth10M</title>
<g id="a_node6"><a xlink:href="inet.node.ethernet.Eth10M.html" xlink:title="Channel Eth10M" target="_parent">
<polygon fill="#d0ffd0" stroke="black" points="280,-19 226,-19 226,0 280,0 280,-19"/>
<text text-anchor="middle" x="253" y="-7" font-family="Helvetica,sans-Serif" font-size="10.00">Eth10M</text>
</a>
</g>
</g>
<!-- EthernetLink&#45;&gt;Eth10M -->
<g id="edge5" class="edge">
<title>EthernetLink&#45;&gt;Eth10M</title>
<path fill="none" stroke="black" d="M283.06,-54.75C276.35,-44.87 265.5,-28.9 258.83,-19.09"/>
</g>
<!-- Eth1G -->
<g id="node7" class="node">
<title>Eth1G</title>
<g id="a_node7"><a xlink:href="inet.node.ethernet.Eth1G.html" xlink:title="Channel Eth1G" target="_parent">
<polygon fill="#d0ffd0" stroke="black" points="352,-19 298,-19 298,0 352,0 352,-19"/>
<text text-anchor="middle" x="325" y="-7" font-family="Helvetica,sans-Serif" font-size="10.00">Eth1G</text>
</a>
</g>
</g>
<!-- EthernetLink&#45;&gt;Eth1G -->
<g id="edge6" class="edge">
<title>EthernetLink&#45;&gt;Eth1G</title>
<path fill="none" stroke="black" d="M294.94,-54.75C301.65,-44.87 312.5,-28.9 319.17,-19.09"/>
</g>
<!-- Eth200G -->
<g id="node8" class="node">
<title>Eth200G</title>
<g id="a_node8"><a xlink:href="inet.node.ethernet.Eth200G.html" xlink:title="Channel Eth200G" target="_parent">
<polygon fill="#d0ffd0" stroke="black" points="428,-19 370,-19 370,0 428,0 428,-19"/>
<text text-anchor="middle" x="399" y="-7" font-family="Helvetica,sans-Serif" font-size="10.00">Eth200G</text>
</a>
</g>
</g>
<!-- EthernetLink&#45;&gt;Eth200G -->
<g id="edge7" class="edge">
<title>EthernetLink&#45;&gt;Eth200G</title>
<path fill="none" stroke="black" d="M306.67,-54.98C327.08,-45.15 360.46,-29.07 381.01,-19.17"/>
</g>
<!-- Eth400G -->
<g id="node9" class="node">
<title>Eth400G</title>
<g id="a_node9"><a xlink:href="inet.node.ethernet.Eth400G.html" xlink:title="Channel Eth400G" target="_parent">
<polygon fill="#d0ffd0" stroke="black" points="504,-19 446,-19 446,0 504,0 504,-19"/>
<text text-anchor="middle" x="475" y="-7" font-family="Helvetica,sans-Serif" font-size="10.00">Eth400G</text>
</a>
</g>
</g>
<!-- EthernetLink&#45;&gt;Eth400G -->
<g id="edge8" class="edge">
<title>EthernetLink&#45;&gt;Eth400G</title>
<path fill="none" stroke="black" d="M318.88,-54.98C353.8,-45.04 411.19,-28.68 445.8,-18.82"/>
</g>
<!-- Eth40G -->
<g id="node10" class="node">
<title>Eth40G</title>
<g id="a_node10"><a xlink:href="inet.node.ethernet.Eth40G.html" xlink:title="Channel Eth40G" target="_parent">
<polygon fill="#d0ffd0" stroke="black" points="576,-19 522,-19 522,0 576,0 576,-19"/>
<text text-anchor="middle" x="549" y="-7" font-family="Helvetica,sans-Serif" font-size="10.00">Eth40G</text>
</a>
</g>
</g>
<!-- EthernetLink&#45;&gt;Eth40G -->
<g id="edge9" class="edge">
<title>EthernetLink&#45;&gt;Eth40G</title>
<path fill="none" stroke="black" d="M328.34,-56.13C373.14,-47.63 448.49,-33.02 513,-19 515.89,-18.37 518.9,-17.7 521.9,-17.01"/>
</g>
<!-- DatarateChannel -->
<g id="node2" class="node">
<title>DatarateChannel</title>
<g id="a_node2"><a xlink:href="ned.DatarateChannel.html" xlink:title="Channel DatarateChannel" target="_parent">
<polygon fill="#d0ffd0" stroke="black" points="338.5,-129 239.5,-129 239.5,-110 338.5,-110 338.5,-129"/>
<text text-anchor="middle" x="289" y="-117" font-family="Helvetica,sans-Serif" font-size="10.00">DatarateChannel</text>
</a>
</g>
</g>
<!-- DatarateChannel&#45;&gt;EthernetLink -->
<g id="edge1" class="edge">
<title>DatarateChannel&#45;&gt;EthernetLink</title>
<path fill="none" stroke="black" d="M289,-109.75C289,-99.87 289,-83.9 289,-74.09"/>
</g>
</g>
</svg>
