<?xml version="1.0" encoding="UTF-8" standalone="no"?>
<!DOCTYPE svg PUBLIC "-//W3C//DTD SVG 1.1//EN"
 "http://www.w3.org/Graphics/SVG/1.1/DTD/svg11.dtd">
<!-- Generated by graphviz version 2.43.0 (0)
 -->
<!-- Title: opp Pages: 1 -->
<svg width="458pt" height="82pt"
 viewBox="0.00 0.00 458.00 82.00" xmlns="http://www.w3.org/2000/svg" xmlns:xlink="http://www.w3.org/1999/xlink">
<g id="graph0" class="graph" transform="scale(1 1) rotate(0) translate(4 78)">
<title>opp</title>
<polygon fill="transparent" stroke="transparent" points="-4,4 -4,-78 454,-78 454,4 -4,4"/>
<!-- MarkovClassifierTutorialStep -->
<g id="node1" class="node">
<title>MarkovClassifierTutorialStep</title>
<g id="a_node1"><a xlink:href="inet.tutorials.queueing.MarkovClassifierTutorialStep.html" xlink:title="Network MarkovClassifierTutorialStep" target="_parent">
<polygon fill="#9090ff" stroke="black" points="301.5,-74 146.5,-74 146.5,-55 301.5,-55 301.5,-74"/>
<text text-anchor="middle" x="224" y="-62" font-family="Helvetica,sans-Serif" font-size="10.00">MarkovClassifierTutorialStep</text>
</a>
</g>
</g>
<!-- MarkovClassifier -->
<g id="node2" class="node">
<title>MarkovClassifier</title>
<g id="a_node2"><a xlink:href="inet.queueing.classifier.MarkovClassifier.html" xlink:title="Simple Module MarkovClassifier" target="_parent">
<polygon fill="#fffcaf" stroke="black" points="98,-19 0,-19 0,0 98,0 98,-19"/>
<text text-anchor="middle" x="49" y="-7" font-family="Helvetica,sans-Serif" font-size="10.00">MarkovClassifier</text>
</a>
</g>
</g>
<!-- MarkovClassifierTutorialStep&#45;&gt;MarkovClassifier -->
<g id="edge1" class="edge">
<title>MarkovClassifierTutorialStep&#45;&gt;MarkovClassifier</title>
<path fill="none" stroke="black" d="M195.88,-54.98C166.38,-46.05 119.81,-31.94 87.03,-22.02"/>
<polygon fill="black" stroke="black" points="87.92,-18.63 77.34,-19.08 85.89,-25.33 87.92,-18.63"/>
</g>
<!-- PassivePacketSink -->
<g id="node3" class="node">
<title>PassivePacketSink</title>
<g id="a_node3"><a xlink:href="inet.queueing.sink.PassivePacketSink.html" xlink:title="Simple Module PassivePacketSink" target="_parent">
<polygon fill="#fffcaf" stroke="black" points="222,-19 116,-19 116,0 222,0 222,-19"/>
<text text-anchor="middle" x="169" y="-7" font-family="Helvetica,sans-Serif" font-size="10.00">PassivePacketSink</text>
</a>
</g>
</g>
<!-- MarkovClassifierTutorialStep&#45;&gt;PassivePacketSink -->
<g id="edge2" class="edge">
<title>MarkovClassifierTutorialStep&#45;&gt;PassivePacketSink</title>
<path fill="none" stroke="black" d="M214.92,-54.75C206.91,-47.03 195.04,-35.6 185.38,-26.28"/>
<polygon fill="black" stroke="black" points="187.54,-23.51 177.91,-19.09 182.69,-28.55 187.54,-23.51"/>
</g>
<!-- IdealChannel -->
<g id="node4" class="node">
<title>IdealChannel</title>
<g id="a_node4"><a xlink:href="ned.IdealChannel.html" xlink:title="Channel IdealChannel" target="_parent">
<polygon fill="#d0ffd0" stroke="black" points="320,-19 240,-19 240,0 320,0 320,-19"/>
<text text-anchor="middle" x="280" y="-7" font-family="Helvetica,sans-Serif" font-size="10.00">IdealChannel</text>
</a>
</g>
</g>
<!-- MarkovClassifierTutorialStep&#45;&gt;IdealChannel -->
<g id="edge3" class="edge">
<title>MarkovClassifierTutorialStep&#45;&gt;IdealChannel</title>
<path fill="none" stroke="black" d="M233,-54.98C241.19,-47.23 253.51,-35.58 263.47,-26.14"/>
<polygon fill="black" stroke="black" points="265.98,-28.59 270.84,-19.17 261.17,-23.5 265.98,-28.59"/>
</g>
<!-- ActivePacketSource -->
<g id="node5" class="node">
<title>ActivePacketSource</title>
<g id="a_node5"><a xlink:href="inet.queueing.source.ActivePacketSource.html" xlink:title="Simple Module ActivePacketSource" target="_parent">
<polygon fill="#fffcaf" stroke="black" points="450,-19 338,-19 338,0 450,0 450,-19"/>
<text text-anchor="middle" x="394" y="-7" font-family="Helvetica,sans-Serif" font-size="10.00">ActivePacketSource</text>
</a>
</g>
</g>
<!-- MarkovClassifierTutorialStep&#45;&gt;ActivePacketSource -->
<g id="edge4" class="edge">
<title>MarkovClassifierTutorialStep&#45;&gt;ActivePacketSource</title>
<path fill="none" stroke="black" d="M251.31,-54.98C279.85,-46.09 324.83,-32.07 356.64,-22.15"/>
<polygon fill="black" stroke="black" points="357.97,-25.4 366.47,-19.08 355.88,-18.72 357.97,-25.4"/>
</g>
</g>
</svg>
