<?xml version="1.0" encoding="UTF-8" standalone="no"?>
<!DOCTYPE svg PUBLIC "-//W3C//DTD SVG 1.1//EN"
 "http://www.w3.org/Graphics/SVG/1.1/DTD/svg11.dtd">
<!-- Generated by graphviz version 2.43.0 (0)
 -->
<!-- Title: opp Pages: 1 -->
<svg width="1405pt" height="137pt"
 viewBox="0.00 0.00 1405.00 137.00" xmlns="http://www.w3.org/2000/svg" xmlns:xlink="http://www.w3.org/1999/xlink">
<g id="graph0" class="graph" transform="scale(1 1) rotate(0) translate(4 133)">
<title>opp</title>
<polygon fill="transparent" stroke="transparent" points="-4,4 -4,-133 1401,-133 1401,4 -4,4"/>
<!-- PacketPusherBase -->
<g id="node1" class="node">
<title>PacketPusherBase</title>
<g id="a_node1"><a xlink:href="inet.queueing.base.PacketPusherBase.html" xlink:title="Simple Module PacketPusherBase" target="_parent">
<polygon fill="#fff700" stroke="black" points="778,-74 673,-74 673,-55 778,-55 778,-74"/>
<text text-anchor="middle" x="725.5" y="-62" font-family="Helvetica,sans-Serif" font-size="10.00">PacketPusherBase</text>
</a>
</g>
</g>
<!-- AggregatorBase -->
<g id="node3" class="node">
<title>AggregatorBase</title>
<g id="a_node3"><a xlink:href="inet.protocolelement.aggregation.base.AggregatorBase.html" xlink:title="Compound Module AggregatorBase" target="_parent">
<polygon fill="#fffcaf" stroke="black" points="95,-19 0,-19 0,0 95,0 95,-19"/>
<text text-anchor="middle" x="47.5" y="-7" font-family="Helvetica,sans-Serif" font-size="10.00">AggregatorBase</text>
</a>
</g>
</g>
<!-- PacketPusherBase&#45;&gt;AggregatorBase -->
<g id="edge2" class="edge">
<title>PacketPusherBase&#45;&gt;AggregatorBase</title>
<path fill="none" stroke="black" d="M672.95,-61.15C565.67,-56.04 313.85,-42.45 103.5,-19 100.76,-18.69 97.96,-18.35 95.13,-17.99"/>
</g>
<!-- DeaggregatorBase -->
<g id="node4" class="node">
<title>DeaggregatorBase</title>
<g id="a_node4"><a xlink:href="inet.protocolelement.aggregation.base.DeaggregatorBase.html" xlink:title="Simple Module DeaggregatorBase" target="_parent">
<polygon fill="#fffcaf" stroke="black" points="220,-19 113,-19 113,0 220,0 220,-19"/>
<text text-anchor="middle" x="166.5" y="-7" font-family="Helvetica,sans-Serif" font-size="10.00">DeaggregatorBase</text>
</a>
</g>
</g>
<!-- PacketPusherBase&#45;&gt;DeaggregatorBase -->
<g id="edge3" class="edge">
<title>PacketPusherBase&#45;&gt;DeaggregatorBase</title>
<path fill="none" stroke="black" d="M672.82,-59.6C582,-52.69 390.11,-37.3 228.5,-19 225.8,-18.69 223.04,-18.37 220.25,-18.03"/>
</g>
<!-- DefragmenterBase -->
<g id="node5" class="node">
<title>DefragmenterBase</title>
<g id="a_node5"><a xlink:href="inet.protocolelement.fragmentation.base.DefragmenterBase.html" xlink:title="Simple Module DefragmenterBase" target="_parent">
<polygon fill="#fffcaf" stroke="black" points="347,-19 238,-19 238,0 347,0 347,-19"/>
<text text-anchor="middle" x="292.5" y="-7" font-family="Helvetica,sans-Serif" font-size="10.00">DefragmenterBase</text>
</a>
</g>
</g>
<!-- PacketPusherBase&#45;&gt;DefragmenterBase -->
<g id="edge4" class="edge">
<title>PacketPusherBase&#45;&gt;DefragmenterBase</title>
<path fill="none" stroke="black" d="M672.78,-57.4C600.98,-49.04 468.45,-33.41 355.5,-19 352.76,-18.65 349.96,-18.29 347.13,-17.92"/>
</g>
<!-- DuplicateRemoval -->
<g id="node6" class="node">
<title>DuplicateRemoval</title>
<g id="a_node6"><a xlink:href="inet.protocolelement.ordering.DuplicateRemoval.html" xlink:title="Simple Module DuplicateRemoval" target="_parent">
<polygon fill="#fffcaf" stroke="black" points="472,-19 365,-19 365,0 472,0 472,-19"/>
<text text-anchor="middle" x="418.5" y="-7" font-family="Helvetica,sans-Serif" font-size="10.00">DuplicateRemoval</text>
</a>
</g>
</g>
<!-- PacketPusherBase&#45;&gt;DuplicateRemoval -->
<g id="edge5" class="edge">
<title>PacketPusherBase&#45;&gt;DuplicateRemoval</title>
<path fill="none" stroke="black" d="M676.18,-54.98C618.97,-45.11 525.22,-28.92 467.96,-19.04"/>
</g>
<!-- EthernetSocketPacketProcessor -->
<g id="node7" class="node">
<title>EthernetSocketPacketProcessor</title>
<g id="a_node7"><a xlink:href="inet.linklayer.ethernet.modular.EthernetSocketPacketProcessor.html" xlink:title="Simple Module EthernetSocketPacketProcessor" target="_parent">
<polygon fill="#fffcaf" stroke="black" points="659,-19 490,-19 490,0 659,0 659,-19"/>
<text text-anchor="middle" x="574.5" y="-7" font-family="Helvetica,sans-Serif" font-size="10.00">EthernetSocketPacketProcessor</text>
</a>
</g>
</g>
<!-- PacketPusherBase&#45;&gt;EthernetSocketPacketProcessor -->
<g id="edge6" class="edge">
<title>PacketPusherBase&#45;&gt;EthernetSocketPacketProcessor</title>
<path fill="none" stroke="black" d="M701.24,-54.98C673.23,-45.15 627.4,-29.07 599.2,-19.17"/>
</g>
<!-- FragmenterBase -->
<g id="node8" class="node">
<title>FragmenterBase</title>
<g id="a_node8"><a xlink:href="inet.protocolelement.fragmentation.base.FragmenterBase.html" xlink:title="Compound Module FragmenterBase" target="_parent">
<polygon fill="#fffcaf" stroke="black" points="774,-19 677,-19 677,0 774,0 774,-19"/>
<text text-anchor="middle" x="725.5" y="-7" font-family="Helvetica,sans-Serif" font-size="10.00">FragmenterBase</text>
</a>
</g>
</g>
<!-- PacketPusherBase&#45;&gt;FragmenterBase -->
<g id="edge7" class="edge">
<title>PacketPusherBase&#45;&gt;FragmenterBase</title>
<path fill="none" stroke="black" d="M725.5,-54.75C725.5,-44.87 725.5,-28.9 725.5,-19.09"/>
</g>
<!-- Ieee8021qSocketPacketProcessor -->
<g id="node9" class="node">
<title>Ieee8021qSocketPacketProcessor</title>
<g id="a_node9"><a xlink:href="inet.linklayer.ieee8021q.Ieee8021qSocketPacketProcessor.html" xlink:title="Simple Module Ieee8021qSocketPacketProcessor" target="_parent">
<polygon fill="#fffcaf" stroke="black" points="971,-19 792,-19 792,0 971,0 971,-19"/>
<text text-anchor="middle" x="881.5" y="-7" font-family="Helvetica,sans-Serif" font-size="10.00">Ieee8021qSocketPacketProcessor</text>
</a>
</g>
</g>
<!-- PacketPusherBase&#45;&gt;Ieee8021qSocketPacketProcessor -->
<g id="edge8" class="edge">
<title>PacketPusherBase&#45;&gt;Ieee8021qSocketPacketProcessor</title>
<path fill="none" stroke="black" d="M750.56,-54.98C779.59,-45.12 827.13,-28.97 856.24,-19.08"/>
</g>
<!-- RelayInterfaceSelector -->
<g id="node10" class="node">
<title>RelayInterfaceSelector</title>
<g id="a_node10"><a xlink:href="inet.linklayer.ethernet.common.RelayInterfaceSelector.html" xlink:title="Simple Module RelayInterfaceSelector" target="_parent">
<polygon fill="#fffcaf" stroke="black" points="1117.5,-19 989.5,-19 989.5,0 1117.5,0 1117.5,-19"/>
<text text-anchor="middle" x="1053.5" y="-7" font-family="Helvetica,sans-Serif" font-size="10.00">RelayInterfaceSelector</text>
</a>
</g>
</g>
<!-- PacketPusherBase&#45;&gt;RelayInterfaceSelector -->
<g id="edge9" class="edge">
<title>PacketPusherBase&#45;&gt;RelayInterfaceSelector</title>
<path fill="none" stroke="black" d="M778.2,-54.98C839.32,-45.11 939.48,-28.92 1000.66,-19.04"/>
</g>
<!-- Reordering -->
<g id="node11" class="node">
<title>Reordering</title>
<g id="a_node11"><a xlink:href="inet.protocolelement.ordering.Reordering.html" xlink:title="Simple Module Reordering" target="_parent">
<polygon fill="#fffcaf" stroke="black" points="1205.5,-19 1135.5,-19 1135.5,0 1205.5,0 1205.5,-19"/>
<text text-anchor="middle" x="1170.5" y="-7" font-family="Helvetica,sans-Serif" font-size="10.00">Reordering</text>
</a>
</g>
</g>
<!-- PacketPusherBase&#45;&gt;Reordering -->
<g id="edge10" class="edge">
<title>PacketPusherBase&#45;&gt;Reordering</title>
<path fill="none" stroke="black" d="M778.22,-59.01C855.06,-52.16 1002.19,-37.87 1126.5,-19 1129.42,-18.56 1132.45,-18.06 1135.48,-17.53"/>
</g>
<!-- Resending -->
<g id="node12" class="node">
<title>Resending</title>
<g id="a_node12"><a xlink:href="inet.protocolelement.acknowledgement.Resending.html" xlink:title="Simple Module Resending" target="_parent">
<polygon fill="#fffcaf" stroke="black" points="1291.5,-19 1223.5,-19 1223.5,0 1291.5,0 1291.5,-19"/>
<text text-anchor="middle" x="1257.5" y="-7" font-family="Helvetica,sans-Serif" font-size="10.00">Resending</text>
</a>
</g>
</g>
<!-- PacketPusherBase&#45;&gt;Resending -->
<g id="edge11" class="edge">
<title>PacketPusherBase&#45;&gt;Resending</title>
<path fill="none" stroke="black" d="M778.18,-60.52C868.02,-55.02 1056.5,-41.74 1214.5,-19 1217.36,-18.59 1220.32,-18.11 1223.29,-17.6"/>
</g>
<!-- StreamSplitter -->
<g id="node13" class="node">
<title>StreamSplitter</title>
<g id="a_node13"><a xlink:href="inet.protocolelement.redundancy.StreamSplitter.html" xlink:title="Simple Module StreamSplitter" target="_parent">
<polygon fill="#fffcaf" stroke="black" points="1397,-19 1310,-19 1310,0 1397,0 1397,-19"/>
<text text-anchor="middle" x="1353.5" y="-7" font-family="Helvetica,sans-Serif" font-size="10.00">StreamSplitter</text>
</a>
</g>
</g>
<!-- PacketPusherBase&#45;&gt;StreamSplitter -->
<g id="edge12" class="edge">
<title>PacketPusherBase&#45;&gt;StreamSplitter</title>
<path fill="none" stroke="black" d="M778.36,-60.86C879.83,-55.47 1108.85,-41.75 1300.5,-19 1303.55,-18.64 1306.7,-18.23 1309.87,-17.79"/>
</g>
<!-- PacketProcessorBase -->
<g id="node2" class="node">
<title>PacketProcessorBase</title>
<g id="a_node2"><a xlink:href="inet.queueing.base.PacketProcessorBase.html" xlink:title="Simple Module PacketProcessorBase" target="_parent">
<polygon fill="#fffcaf" stroke="black" points="785,-129 666,-129 666,-110 785,-110 785,-129"/>
<text text-anchor="middle" x="725.5" y="-117" font-family="Helvetica,sans-Serif" font-size="10.00">PacketProcessorBase</text>
</a>
</g>
</g>
<!-- PacketProcessorBase&#45;&gt;PacketPusherBase -->
<g id="edge1" class="edge">
<title>PacketProcessorBase&#45;&gt;PacketPusherBase</title>
<path fill="none" stroke="black" d="M725.5,-109.75C725.5,-99.87 725.5,-83.9 725.5,-74.09"/>
</g>
</g>
</svg>
