<?xml version="1.0" encoding="UTF-8" standalone="no"?>
<!DOCTYPE svg PUBLIC "-//W3C//DTD SVG 1.1//EN"
 "http://www.w3.org/Graphics/SVG/1.1/DTD/svg11.dtd">
<!-- Generated by graphviz version 2.43.0 (0)
 -->
<!-- Title: opp Pages: 1 -->
<svg width="463pt" height="137pt"
 viewBox="0.00 0.00 463.00 137.00" xmlns="http://www.w3.org/2000/svg" xmlns:xlink="http://www.w3.org/1999/xlink">
<g id="graph0" class="graph" transform="scale(1 1) rotate(0) translate(4 133)">
<title>opp</title>
<polygon fill="transparent" stroke="transparent" points="-4,4 -4,-133 459,-133 459,4 -4,4"/>
<!-- Ieee80211Radio -->
<g id="node1" class="node">
<title>Ieee80211Radio</title>
<g id="a_node1"><a xlink:href="inet.physicallayer.wireless.ieee80211.packetlevel.Ieee80211Radio.html" xlink:title="Compound Module Ieee80211Radio" target="_parent">
<polygon fill="#fff700" stroke="black" points="285,-74 190,-74 190,-55 285,-55 285,-74"/>
<text text-anchor="middle" x="237.5" y="-62" font-family="Helvetica,sans-Serif" font-size="10.00">Ieee80211Radio</text>
</a>
</g>
</g>
<!-- Ieee80211DimensionalRadio -->
<g id="node3" class="node">
<title>Ieee80211DimensionalRadio</title>
<g id="a_node3"><a xlink:href="inet.physicallayer.wireless.ieee80211.packetlevel.Ieee80211DimensionalRadio.html" xlink:title="Compound Module Ieee80211DimensionalRadio" target="_parent">
<polygon fill="#fffcaf" stroke="black" points="157,-19 0,-19 0,0 157,0 157,-19"/>
<text text-anchor="middle" x="78.5" y="-7" font-family="Helvetica,sans-Serif" font-size="10.00">Ieee80211DimensionalRadio</text>
</a>
</g>
</g>
<!-- Ieee80211Radio&#45;&gt;Ieee80211DimensionalRadio -->
<g id="edge2" class="edge">
<title>Ieee80211Radio&#45;&gt;Ieee80211DimensionalRadio</title>
<path fill="none" stroke="black" d="M211.95,-54.98C182.37,-45.12 133.91,-28.97 104.25,-19.08"/>
</g>
<!-- Ieee80211ScalarRadio -->
<g id="node4" class="node">
<title>Ieee80211ScalarRadio</title>
<g id="a_node4"><a xlink:href="inet.physicallayer.wireless.ieee80211.packetlevel.Ieee80211ScalarRadio.html" xlink:title="Compound Module Ieee80211ScalarRadio" target="_parent">
<polygon fill="#fffcaf" stroke="black" points="300,-19 175,-19 175,0 300,0 300,-19"/>
<text text-anchor="middle" x="237.5" y="-7" font-family="Helvetica,sans-Serif" font-size="10.00">Ieee80211ScalarRadio</text>
</a>
</g>
</g>
<!-- Ieee80211Radio&#45;&gt;Ieee80211ScalarRadio -->
<g id="edge3" class="edge">
<title>Ieee80211Radio&#45;&gt;Ieee80211ScalarRadio</title>
<path fill="none" stroke="black" d="M237.5,-54.75C237.5,-44.87 237.5,-28.9 237.5,-19.09"/>
</g>
<!-- Ieee80211UnitDiskRadio -->
<g id="node5" class="node">
<title>Ieee80211UnitDiskRadio</title>
<g id="a_node5"><a xlink:href="inet.physicallayer.wireless.ieee80211.packetlevel.Ieee80211UnitDiskRadio.html" xlink:title="Compound Module Ieee80211UnitDiskRadio" target="_parent">
<polygon fill="#fffcaf" stroke="black" points="455,-19 318,-19 318,0 455,0 455,-19"/>
<text text-anchor="middle" x="386.5" y="-7" font-family="Helvetica,sans-Serif" font-size="10.00">Ieee80211UnitDiskRadio</text>
</a>
</g>
</g>
<!-- Ieee80211Radio&#45;&gt;Ieee80211UnitDiskRadio -->
<g id="edge4" class="edge">
<title>Ieee80211Radio&#45;&gt;Ieee80211UnitDiskRadio</title>
<path fill="none" stroke="black" d="M261.44,-54.98C289.08,-45.15 334.3,-29.07 362.12,-19.17"/>
</g>
<!-- FlatRadioBase -->
<g id="node2" class="node">
<title>FlatRadioBase</title>
<g id="a_node2"><a xlink:href="inet.physicallayer.wireless.common.base.packetlevel.FlatRadioBase.html" xlink:title="Compound Module FlatRadioBase" target="_parent">
<polygon fill="#fffcaf" stroke="black" points="281,-129 194,-129 194,-110 281,-110 281,-129"/>
<text text-anchor="middle" x="237.5" y="-117" font-family="Helvetica,sans-Serif" font-size="10.00">FlatRadioBase</text>
</a>
</g>
</g>
<!-- FlatRadioBase&#45;&gt;Ieee80211Radio -->
<g id="edge1" class="edge">
<title>FlatRadioBase&#45;&gt;Ieee80211Radio</title>
<path fill="none" stroke="black" d="M237.5,-109.75C237.5,-99.87 237.5,-83.9 237.5,-74.09"/>
</g>
</g>
</svg>
