<?xml version="1.0" encoding="UTF-8" standalone="no"?>
<!DOCTYPE svg PUBLIC "-//W3C//DTD SVG 1.1//EN"
 "http://www.w3.org/Graphics/SVG/1.1/DTD/svg11.dtd">
<!-- Generated by graphviz version 2.43.0 (0)
 -->
<!-- Title: opp Pages: 1 -->
<svg width="248pt" height="82pt"
 viewBox="0.00 0.00 248.00 82.00" xmlns="http://www.w3.org/2000/svg" xmlns:xlink="http://www.w3.org/1999/xlink">
<g id="graph0" class="graph" transform="scale(1 1) rotate(0) translate(4 78)">
<title>opp</title>
<polygon fill="transparent" stroke="transparent" points="-4,4 -4,-78 244,-78 244,4 -4,4"/>
<!-- PacketDemultiplexer -->
<g id="node1" class="node">
<title>PacketDemultiplexer</title>
<g id="a_node1"><a xlink:href="inet.queueing.common.PacketDemultiplexer.html" xlink:title="Simple Module PacketDemultiplexer" target="_parent">
<polygon fill="#fff700" stroke="black" points="182,-19 65,-19 65,0 182,0 182,-19"/>
<text text-anchor="middle" x="123.5" y="-7" font-family="Helvetica,sans-Serif" font-size="10.00">PacketDemultiplexer</text>
</a>
</g>
</g>
<!-- PacketProcessorBase -->
<g id="node2" class="node">
<title>PacketProcessorBase</title>
<g id="a_node2"><a xlink:href="inet.queueing.base.PacketProcessorBase.html" xlink:title="Simple Module PacketProcessorBase" target="_parent">
<polygon fill="#fffcaf" stroke="black" points="119,-74 0,-74 0,-55 119,-55 119,-74"/>
<text text-anchor="middle" x="59.5" y="-62" font-family="Helvetica,sans-Serif" font-size="10.00">PacketProcessorBase</text>
</a>
</g>
</g>
<!-- PacketProcessorBase&#45;&gt;PacketDemultiplexer -->
<g id="edge1" class="edge">
<title>PacketProcessorBase&#45;&gt;PacketDemultiplexer</title>
<path fill="none" stroke="black" d="M69.78,-54.98C81.66,-45.15 101.08,-29.07 113.03,-19.17"/>
</g>
<!-- IActivePacketSink -->
<g id="node3" class="node">
<title>IActivePacketSink</title>
<g id="a_node3"><a xlink:href="inet.queueing.contract.IActivePacketSink.html" xlink:title="Module Interface IActivePacketSink" target="_parent">
<polygon fill="#fffcaf" stroke="black" stroke-dasharray="5,2" points="240,-74 137,-74 137,-55 240,-55 240,-74"/>
<text text-anchor="middle" x="188.5" y="-62" font-family="Helvetica,sans-Serif" font-size="10.00">IActivePacketSink</text>
</a>
</g>
</g>
<!-- IActivePacketSink&#45;&gt;PacketDemultiplexer -->
<g id="edge2" class="edge">
<title>IActivePacketSink&#45;&gt;PacketDemultiplexer</title>
<path fill="none" stroke="black" stroke-dasharray="5,2" d="M178.06,-54.98C166,-45.15 146.27,-29.07 134.13,-19.17"/>
</g>
</g>
</svg>
