<?xml version="1.0" encoding="UTF-8" standalone="no"?>
<!DOCTYPE svg PUBLIC "-//W3C//DTD SVG 1.1//EN"
 "http://www.w3.org/Graphics/SVG/1.1/DTD/svg11.dtd">
<!-- Generated by graphviz version 2.43.0 (0)
 -->
<!-- Title: opp Pages: 1 -->
<svg width="216pt" height="82pt"
 viewBox="0.00 0.00 215.50 82.00" xmlns="http://www.w3.org/2000/svg" xmlns:xlink="http://www.w3.org/1999/xlink">
<g id="graph0" class="graph" transform="scale(1 1) rotate(0) translate(4 78)">
<title>opp</title>
<polygon fill="transparent" stroke="transparent" points="-4,4 -4,-78 211.5,-78 211.5,4 -4,4"/>
<!-- SinkApp -->
<g id="node1" class="node">
<title>SinkApp</title>
<g id="a_node1"><a xlink:href="inet.applications.common.SinkApp.html" xlink:title="Compound Module SinkApp" target="_parent">
<polygon fill="#fff700" stroke="black" points="138.5,-74 82.5,-74 82.5,-55 138.5,-55 138.5,-74"/>
<text text-anchor="middle" x="110.5" y="-62" font-family="Helvetica,sans-Serif" font-size="10.00">SinkApp</text>
</a>
</g>
</g>
<!-- IPassivePacketSink -->
<g id="node2" class="node">
<title>IPassivePacketSink</title>
<g id="a_node2"><a xlink:href="inet.queueing.contract.IPassivePacketSink.html" xlink:title="Module Interface IPassivePacketSink" target="_parent">
<polygon fill="#fffcaf" stroke="black" stroke-dasharray="5,2" points="109,-19 0,-19 0,0 109,0 109,-19"/>
<text text-anchor="middle" x="54.5" y="-7" font-family="Helvetica,sans-Serif" font-size="10.00">IPassivePacketSink</text>
</a>
</g>
</g>
<!-- SinkApp&#45;&gt;IPassivePacketSink -->
<g id="edge1" class="edge">
<title>SinkApp&#45;&gt;IPassivePacketSink</title>
<path fill="none" stroke="black" d="M101.5,-54.98C93.31,-47.23 80.99,-35.58 71.03,-26.14"/>
<polygon fill="black" stroke="black" points="73.33,-23.5 63.66,-19.17 68.52,-28.59 73.33,-23.5"/>
</g>
<!-- IdealChannel -->
<g id="node3" class="node">
<title>IdealChannel</title>
<g id="a_node3"><a xlink:href="ned.IdealChannel.html" xlink:title="Channel IdealChannel" target="_parent">
<polygon fill="#d0ffd0" stroke="black" points="207.5,-19 127.5,-19 127.5,0 207.5,0 207.5,-19"/>
<text text-anchor="middle" x="167.5" y="-7" font-family="Helvetica,sans-Serif" font-size="10.00">IdealChannel</text>
</a>
</g>
</g>
<!-- SinkApp&#45;&gt;IdealChannel -->
<g id="edge2" class="edge">
<title>SinkApp&#45;&gt;IdealChannel</title>
<path fill="none" stroke="black" d="M119.66,-54.98C128,-47.23 140.53,-35.58 150.68,-26.14"/>
<polygon fill="black" stroke="black" points="153.24,-28.54 158.18,-19.17 148.47,-23.42 153.24,-28.54"/>
</g>
</g>
</svg>
