<?xml version="1.0" encoding="UTF-8" standalone="no"?>
<!DOCTYPE svg PUBLIC "-//W3C//DTD SVG 1.1//EN"
 "http://www.w3.org/Graphics/SVG/1.1/DTD/svg11.dtd">
<!-- Generated by graphviz version 2.43.0 (0)
 -->
<!-- Title: opp Pages: 1 -->
<svg width="643pt" height="82pt"
 viewBox="0.00 0.00 643.00 82.00" xmlns="http://www.w3.org/2000/svg" xmlns:xlink="http://www.w3.org/1999/xlink">
<g id="graph0" class="graph" transform="scale(1 1) rotate(0) translate(4 78)">
<title>opp</title>
<polygon fill="transparent" stroke="transparent" points="-4,4 -4,-78 639,-78 639,4 -4,4"/>
<!-- NClients -->
<g id="node1" class="node">
<title>NClients</title>
<g id="a_node1"><a xlink:href="inet.examples.inet.shutdownrestart.NClients.html" xlink:title="Network NClients" target="_parent">
<polygon fill="#9090ff" stroke="black" points="335.5,-74 277.5,-74 277.5,-55 335.5,-55 335.5,-74"/>
<text text-anchor="middle" x="306.5" y="-62" font-family="Helvetica,sans-Serif" font-size="10.00">NClients</text>
</a>
</g>
</g>
<!-- StandardHost -->
<g id="node2" class="node">
<title>StandardHost</title>
<g id="a_node2"><a xlink:href="inet.node.inet.StandardHost.html" xlink:title="Compound Module StandardHost" target="_parent">
<polygon fill="#fffcaf" stroke="black" points="83,-19 0,-19 0,0 83,0 83,-19"/>
<text text-anchor="middle" x="41.5" y="-7" font-family="Helvetica,sans-Serif" font-size="10.00">StandardHost</text>
</a>
</g>
</g>
<!-- NClients&#45;&gt;StandardHost -->
<g id="edge1" class="edge">
<title>NClients&#45;&gt;StandardHost</title>
<path fill="none" stroke="black" d="M277.38,-57.68C233.08,-48.82 148.11,-31.82 93.16,-20.83"/>
<polygon fill="black" stroke="black" points="93.76,-17.38 83.27,-18.85 92.39,-24.25 93.76,-17.38"/>
</g>
<!-- ethernetline -->
<g id="node3" class="node">
<title>ethernetline</title>
<g id="a_node3"><a xlink:href="inet.examples.inet.shutdownrestart.NClients.ethernetline.html" xlink:title="Channel ethernetline" target="_parent">
<polygon fill="#d0ffd0" stroke="black" points="177.5,-19 101.5,-19 101.5,0 177.5,0 177.5,-19"/>
<text text-anchor="middle" x="139.5" y="-7" font-family="Helvetica,sans-Serif" font-size="10.00">ethernetline</text>
</a>
</g>
</g>
<!-- NClients&#45;&gt;ethernetline -->
<g id="edge2" class="edge">
<title>NClients&#45;&gt;ethernetline</title>
<path fill="none" stroke="black" d="M279.67,-54.98C251.63,-46.09 207.45,-32.07 176.2,-22.15"/>
<polygon fill="black" stroke="black" points="177.13,-18.77 166.54,-19.08 175.01,-25.44 177.13,-18.77"/>
</g>
<!-- EthernetSwitch -->
<g id="node4" class="node">
<title>EthernetSwitch</title>
<g id="a_node4"><a xlink:href="inet.node.ethernet.EthernetSwitch.html" xlink:title="Compound Module EthernetSwitch" target="_parent">
<polygon fill="#fffcaf" stroke="black" points="285.5,-19 195.5,-19 195.5,0 285.5,0 285.5,-19"/>
<text text-anchor="middle" x="240.5" y="-7" font-family="Helvetica,sans-Serif" font-size="10.00">EthernetSwitch</text>
</a>
</g>
</g>
<!-- NClients&#45;&gt;EthernetSwitch -->
<g id="edge3" class="edge">
<title>NClients&#45;&gt;EthernetSwitch</title>
<path fill="none" stroke="black" d="M295.9,-54.98C286.04,-47.07 271.15,-35.11 259.28,-25.58"/>
<polygon fill="black" stroke="black" points="261.29,-22.7 251.3,-19.17 256.9,-28.16 261.29,-22.7"/>
</g>
<!-- Ipv4NetworkConfigurator -->
<g id="node5" class="node">
<title>Ipv4NetworkConfigurator</title>
<g id="a_node5"><a xlink:href="inet.networklayer.configurator.ipv4.Ipv4NetworkConfigurator.html" xlink:title="Simple Module Ipv4NetworkConfigurator" target="_parent">
<polygon fill="#fffcaf" stroke="black" points="443,-19 304,-19 304,0 443,0 443,-19"/>
<text text-anchor="middle" x="373.5" y="-7" font-family="Helvetica,sans-Serif" font-size="10.00">Ipv4NetworkConfigurator</text>
</a>
</g>
</g>
<!-- NClients&#45;&gt;Ipv4NetworkConfigurator -->
<g id="edge4" class="edge">
<title>NClients&#45;&gt;Ipv4NetworkConfigurator</title>
<path fill="none" stroke="black" d="M317.26,-54.98C327.27,-47.07 342.39,-35.11 354.43,-25.58"/>
<polygon fill="black" stroke="black" points="356.87,-28.12 362.54,-19.17 352.53,-22.63 356.87,-28.12"/>
</g>
<!-- Router -->
<g id="node6" class="node">
<title>Router</title>
<g id="a_node6"><a xlink:href="inet.node.inet.Router.html" xlink:title="Compound Module Router" target="_parent">
<polygon fill="#fffcaf" stroke="black" points="515.5,-19 461.5,-19 461.5,0 515.5,0 515.5,-19"/>
<text text-anchor="middle" x="488.5" y="-7" font-family="Helvetica,sans-Serif" font-size="10.00">Router</text>
</a>
</g>
</g>
<!-- NClients&#45;&gt;Router -->
<g id="edge5" class="edge">
<title>NClients&#45;&gt;Router</title>
<path fill="none" stroke="black" d="M335.74,-54.98C367.29,-45.8 417.6,-31.15 451.79,-21.19"/>
<polygon fill="black" stroke="black" points="452.79,-24.55 461.41,-18.39 450.83,-17.82 452.79,-24.55"/>
</g>
<!-- ScenarioManager -->
<g id="node7" class="node">
<title>ScenarioManager</title>
<g id="a_node7"><a xlink:href="inet.common.scenario.ScenarioManager.html" xlink:title="Simple Module ScenarioManager" target="_parent">
<polygon fill="#fffcaf" stroke="black" points="635,-19 534,-19 534,0 635,0 635,-19"/>
<text text-anchor="middle" x="584.5" y="-7" font-family="Helvetica,sans-Serif" font-size="10.00">ScenarioManager</text>
</a>
</g>
</g>
<!-- NClients&#45;&gt;ScenarioManager -->
<g id="edge6" class="edge">
<title>NClients&#45;&gt;ScenarioManager</title>
<path fill="none" stroke="black" d="M335.73,-57.93C381.62,-49.18 471.36,-32.07 529.58,-20.97"/>
<polygon fill="black" stroke="black" points="530.54,-24.35 539.71,-19.04 529.23,-17.47 530.54,-24.35"/>
</g>
</g>
</svg>
