<?xml version="1.0" encoding="UTF-8" standalone="no"?>
<!DOCTYPE svg PUBLIC "-//W3C//DTD SVG 1.1//EN"
 "http://www.w3.org/Graphics/SVG/1.1/DTD/svg11.dtd">
<!-- Generated by graphviz version 2.43.0 (0)
 -->
<!-- Title: opp Pages: 1 -->
<svg width="501pt" height="82pt"
 viewBox="0.00 0.00 501.00 82.00" xmlns="http://www.w3.org/2000/svg" xmlns:xlink="http://www.w3.org/1999/xlink">
<g id="graph0" class="graph" transform="scale(1 1) rotate(0) translate(4 78)">
<title>opp</title>
<polygon fill="transparent" stroke="transparent" points="-4,4 -4,-78 497,-78 497,4 -4,4"/>
<!-- EmptyPacketSource -->
<g id="node1" class="node">
<title>EmptyPacketSource</title>
<g id="a_node1"><a xlink:href="inet.queueing.source.EmptyPacketSource.html" xlink:title="Simple Module EmptyPacketSource" target="_parent">
<polygon fill="#fff700" stroke="black" points="294,-19 181,-19 181,0 294,0 294,-19"/>
<text text-anchor="middle" x="237.5" y="-7" font-family="Helvetica,sans-Serif" font-size="10.00">EmptyPacketSource</text>
</a>
</g>
</g>
<!-- PacketProcessorBase -->
<g id="node2" class="node">
<title>PacketProcessorBase</title>
<g id="a_node2"><a xlink:href="inet.queueing.base.PacketProcessorBase.html" xlink:title="Simple Module PacketProcessorBase" target="_parent">
<polygon fill="#fffcaf" stroke="black" points="119,-74 0,-74 0,-55 119,-55 119,-74"/>
<text text-anchor="middle" x="59.5" y="-62" font-family="Helvetica,sans-Serif" font-size="10.00">PacketProcessorBase</text>
</a>
</g>
</g>
<!-- PacketProcessorBase&#45;&gt;EmptyPacketSource -->
<g id="edge1" class="edge">
<title>PacketProcessorBase&#45;&gt;EmptyPacketSource</title>
<path fill="none" stroke="black" d="M88.1,-54.98C121.22,-45.12 175.46,-28.97 208.68,-19.08"/>
</g>
<!-- IPacketSource -->
<g id="node3" class="node">
<title>IPacketSource</title>
<g id="a_node3"><a xlink:href="inet.queueing.contract.IPacketSource.html" xlink:title="Module Interface IPacketSource" target="_parent">
<polygon fill="#fffcaf" stroke="black" stroke-dasharray="5,2" points="221.5,-74 137.5,-74 137.5,-55 221.5,-55 221.5,-74"/>
<text text-anchor="middle" x="179.5" y="-62" font-family="Helvetica,sans-Serif" font-size="10.00">IPacketSource</text>
</a>
</g>
</g>
<!-- IPacketSource&#45;&gt;EmptyPacketSource -->
<g id="edge2" class="edge">
<title>IPacketSource&#45;&gt;EmptyPacketSource</title>
<path fill="none" stroke="black" stroke-dasharray="5,2" d="M188.82,-54.98C199.58,-45.15 217.18,-29.07 228.01,-19.17"/>
</g>
<!-- IActivePacketSource -->
<g id="node4" class="node">
<title>IActivePacketSource</title>
<g id="a_node4"><a xlink:href="inet.queueing.contract.IActivePacketSource.html" xlink:title="Module Interface IActivePacketSource" target="_parent">
<polygon fill="#fffcaf" stroke="black" stroke-dasharray="5,2" points="354,-74 239,-74 239,-55 354,-55 354,-74"/>
<text text-anchor="middle" x="296.5" y="-62" font-family="Helvetica,sans-Serif" font-size="10.00">IActivePacketSource</text>
</a>
</g>
</g>
<!-- IActivePacketSource&#45;&gt;EmptyPacketSource -->
<g id="edge3" class="edge">
<title>IActivePacketSource&#45;&gt;EmptyPacketSource</title>
<path fill="none" stroke="black" stroke-dasharray="5,2" d="M287.02,-54.98C276.08,-45.15 258.17,-29.07 247.15,-19.17"/>
</g>
<!-- IPassivePacketSource -->
<g id="node5" class="node">
<title>IPassivePacketSource</title>
<g id="a_node5"><a xlink:href="inet.queueing.contract.IPassivePacketSource.html" xlink:title="Module Interface IPassivePacketSource" target="_parent">
<polygon fill="#fffcaf" stroke="black" stroke-dasharray="5,2" points="493,-74 372,-74 372,-55 493,-55 493,-74"/>
<text text-anchor="middle" x="432.5" y="-62" font-family="Helvetica,sans-Serif" font-size="10.00">IPassivePacketSource</text>
</a>
</g>
</g>
<!-- IPassivePacketSource&#45;&gt;EmptyPacketSource -->
<g id="edge4" class="edge">
<title>IPassivePacketSource&#45;&gt;EmptyPacketSource</title>
<path fill="none" stroke="black" stroke-dasharray="5,2" d="M401.17,-54.98C364.89,-45.12 305.46,-28.97 269.08,-19.08"/>
</g>
</g>
</svg>
