<?xml version="1.0" encoding="UTF-8" standalone="no"?>
<!DOCTYPE svg PUBLIC "-//W3C//DTD SVG 1.1//EN"
 "http://www.w3.org/Graphics/SVG/1.1/DTD/svg11.dtd">
<!-- Generated by graphviz version 2.43.0 (0)
 -->
<!-- Title: opp Pages: 1 -->
<svg width="262pt" height="137pt"
 viewBox="0.00 0.00 261.50 137.00" xmlns="http://www.w3.org/2000/svg" xmlns:xlink="http://www.w3.org/1999/xlink">
<g id="graph0" class="graph" transform="scale(1 1) rotate(0) translate(4 133)">
<title>opp</title>
<polygon fill="transparent" stroke="transparent" points="-4,4 -4,-133 257.5,-133 257.5,4 -4,4"/>
<!-- IPv4SmallLAN -->
<g id="node1" class="node">
<title>IPv4SmallLAN</title>
<g id="a_node1"><a xlink:href="inet.examples.inet.ipv4largenet.IPv4SmallLAN.html" xlink:title="Compound Module IPv4SmallLAN" target="_parent">
<polygon fill="#fff700" stroke="black" points="184.5,-74 98.5,-74 98.5,-55 184.5,-55 184.5,-74"/>
<text text-anchor="middle" x="141.5" y="-62" font-family="Helvetica,sans-Serif" font-size="10.00">IPv4SmallLAN</text>
</a>
</g>
</g>
<!-- StandardHost -->
<g id="node2" class="node">
<title>StandardHost</title>
<g id="a_node2"><a xlink:href="inet.node.inet.StandardHost.html" xlink:title="Compound Module StandardHost" target="_parent">
<polygon fill="#fffcaf" stroke="black" points="83,-19 0,-19 0,0 83,0 83,-19"/>
<text text-anchor="middle" x="41.5" y="-7" font-family="Helvetica,sans-Serif" font-size="10.00">StandardHost</text>
</a>
</g>
</g>
<!-- IPv4SmallLAN&#45;&gt;StandardHost -->
<g id="edge1" class="edge">
<title>IPv4SmallLAN&#45;&gt;StandardHost</title>
<path fill="none" stroke="black" d="M125.43,-54.98C109.64,-46.61 85.28,-33.7 66.87,-23.95"/>
<polygon fill="black" stroke="black" points="68.33,-20.76 57.86,-19.17 65.06,-26.95 68.33,-20.76"/>
</g>
<!-- IdealChannel -->
<g id="node3" class="node">
<title>IdealChannel</title>
<g id="a_node3"><a xlink:href="ned.IdealChannel.html" xlink:title="Channel IdealChannel" target="_parent">
<polygon fill="#d0ffd0" stroke="black" points="181.5,-19 101.5,-19 101.5,0 181.5,0 181.5,-19"/>
<text text-anchor="middle" x="141.5" y="-7" font-family="Helvetica,sans-Serif" font-size="10.00">IdealChannel</text>
</a>
</g>
</g>
<!-- IPv4SmallLAN&#45;&gt;IdealChannel -->
<g id="edge2" class="edge">
<title>IPv4SmallLAN&#45;&gt;IdealChannel</title>
<path fill="none" stroke="black" d="M141.5,-54.75C141.5,-47.8 141.5,-37.85 141.5,-29.13"/>
<polygon fill="black" stroke="black" points="145,-29.09 141.5,-19.09 138,-29.09 145,-29.09"/>
</g>
<!-- Router -->
<g id="node4" class="node">
<title>Router</title>
<g id="a_node4"><a xlink:href="inet.node.inet.Router.html" xlink:title="Compound Module Router" target="_parent">
<polygon fill="#fffcaf" stroke="black" points="253.5,-19 199.5,-19 199.5,0 253.5,0 253.5,-19"/>
<text text-anchor="middle" x="226.5" y="-7" font-family="Helvetica,sans-Serif" font-size="10.00">Router</text>
</a>
</g>
</g>
<!-- IPv4SmallLAN&#45;&gt;Router -->
<g id="edge3" class="edge">
<title>IPv4SmallLAN&#45;&gt;Router</title>
<path fill="none" stroke="black" d="M155.16,-54.98C168.34,-46.77 188.53,-34.18 204.07,-24.49"/>
<polygon fill="black" stroke="black" points="205.96,-27.43 212.59,-19.17 202.26,-21.49 205.96,-27.43"/>
</g>
<!-- IPv4LargeNet -->
<g id="node5" class="node">
<title>IPv4LargeNet</title>
<g id="a_node5"><a xlink:href="inet.examples.inet.ipv4largenet.IPv4LargeNet.html" xlink:title="Network IPv4LargeNet" target="_parent">
<polygon fill="#d0d0ff" stroke="black" points="182.5,-129 100.5,-129 100.5,-110 182.5,-110 182.5,-129"/>
<text text-anchor="middle" x="141.5" y="-117" font-family="Helvetica,sans-Serif" font-size="10.00">IPv4LargeNet</text>
</a>
</g>
</g>
<!-- IPv4LargeNet&#45;&gt;IPv4SmallLAN -->
<g id="edge4" class="edge">
<title>IPv4LargeNet&#45;&gt;IPv4SmallLAN</title>
<path fill="none" stroke="black" d="M141.5,-109.75C141.5,-102.8 141.5,-92.85 141.5,-84.13"/>
<polygon fill="black" stroke="black" points="145,-84.09 141.5,-74.09 138,-84.09 145,-84.09"/>
</g>
</g>
</svg>
