<?xml version="1.0" encoding="UTF-8" standalone="no"?>
<!DOCTYPE svg PUBLIC "-//W3C//DTD SVG 1.1//EN"
 "http://www.w3.org/Graphics/SVG/1.1/DTD/svg11.dtd">
<!-- Generated by graphviz version 2.43.0 (0)
 -->
<!-- Title: opp Pages: 1 -->
<svg width="400pt" height="137pt"
 viewBox="0.00 0.00 399.50 137.00" xmlns="http://www.w3.org/2000/svg" xmlns:xlink="http://www.w3.org/1999/xlink">
<g id="graph0" class="graph" transform="scale(1 1) rotate(0) translate(4 133)">
<title>opp</title>
<polygon fill="transparent" stroke="transparent" points="-4,4 -4,-133 395.5,-133 395.5,4 -4,4"/>
<!-- AFxyQueue -->
<g id="node1" class="node">
<title>AFxyQueue</title>
<g id="a_node1"><a xlink:href="inet.networklayer.diffserv.AFxyQueue.html" xlink:title="Compound Module AFxyQueue" target="_parent">
<polygon fill="#fff700" stroke="black" points="221.5,-74 148.5,-74 148.5,-55 221.5,-55 221.5,-74"/>
<text text-anchor="middle" x="185" y="-62" font-family="Helvetica,sans-Serif" font-size="10.00">AFxyQueue</text>
</a>
</g>
</g>
<!-- PacketQueue -->
<g id="node2" class="node">
<title>PacketQueue</title>
<g id="a_node2"><a xlink:href="inet.queueing.queue.PacketQueue.html" xlink:title="Simple Module PacketQueue" target="_parent">
<polygon fill="#fffcaf" stroke="black" points="80,-19 0,-19 0,0 80,0 80,-19"/>
<text text-anchor="middle" x="40" y="-7" font-family="Helvetica,sans-Serif" font-size="10.00">PacketQueue</text>
</a>
</g>
</g>
<!-- AFxyQueue&#45;&gt;PacketQueue -->
<g id="edge1" class="edge">
<title>AFxyQueue&#45;&gt;PacketQueue</title>
<path fill="none" stroke="black" d="M161.7,-54.98C137.75,-46.23 100.22,-32.51 73.17,-22.62"/>
<polygon fill="black" stroke="black" points="74.31,-19.32 63.72,-19.17 71.91,-25.89 74.31,-19.32"/>
</g>
<!-- IdealChannel -->
<g id="node3" class="node">
<title>IdealChannel</title>
<g id="a_node3"><a xlink:href="ned.IdealChannel.html" xlink:title="Channel IdealChannel" target="_parent">
<polygon fill="#d0ffd0" stroke="black" points="178,-19 98,-19 98,0 178,0 178,-19"/>
<text text-anchor="middle" x="138" y="-7" font-family="Helvetica,sans-Serif" font-size="10.00">IdealChannel</text>
</a>
</g>
</g>
<!-- AFxyQueue&#45;&gt;IdealChannel -->
<g id="edge2" class="edge">
<title>AFxyQueue&#45;&gt;IdealChannel</title>
<path fill="none" stroke="black" d="M177.24,-54.75C170.53,-47.18 160.66,-36.05 152.49,-26.84"/>
<polygon fill="black" stroke="black" points="154.87,-24.25 145.62,-19.09 149.63,-28.89 154.87,-24.25"/>
</g>
<!-- RedDropper -->
<g id="node4" class="node">
<title>RedDropper</title>
<g id="a_node4"><a xlink:href="inet.queueing.filter.RedDropper.html" xlink:title="Simple Module RedDropper" target="_parent">
<polygon fill="#fffcaf" stroke="black" points="270,-19 196,-19 196,0 270,0 270,-19"/>
<text text-anchor="middle" x="233" y="-7" font-family="Helvetica,sans-Serif" font-size="10.00">RedDropper</text>
</a>
</g>
</g>
<!-- AFxyQueue&#45;&gt;RedDropper -->
<g id="edge3" class="edge">
<title>AFxyQueue&#45;&gt;RedDropper</title>
<path fill="none" stroke="black" d="M192.93,-54.75C199.85,-47.11 210.07,-35.82 218.45,-26.56"/>
<polygon fill="black" stroke="black" points="221.1,-28.85 225.22,-19.09 215.91,-24.15 221.1,-28.85"/>
</g>
<!-- PacketMultiplexer -->
<g id="node5" class="node">
<title>PacketMultiplexer</title>
<g id="a_node5"><a xlink:href="inet.queueing.common.PacketMultiplexer.html" xlink:title="Simple Module PacketMultiplexer" target="_parent">
<polygon fill="#fffcaf" stroke="black" points="391.5,-19 288.5,-19 288.5,0 391.5,0 391.5,-19"/>
<text text-anchor="middle" x="340" y="-7" font-family="Helvetica,sans-Serif" font-size="10.00">PacketMultiplexer</text>
</a>
</g>
</g>
<!-- AFxyQueue&#45;&gt;PacketMultiplexer -->
<g id="edge4" class="edge">
<title>AFxyQueue&#45;&gt;PacketMultiplexer</title>
<path fill="none" stroke="black" d="M209.9,-54.98C235.7,-46.16 276.22,-32.31 305.18,-22.41"/>
<polygon fill="black" stroke="black" points="306.57,-25.63 314.9,-19.08 304.31,-19.01 306.57,-25.63"/>
</g>
<!-- DiffservQueue -->
<g id="node6" class="node">
<title>DiffservQueue</title>
<g id="a_node6"><a xlink:href="inet.networklayer.diffserv.DiffservQueue.html" xlink:title="Compound Module DiffservQueue" target="_parent">
<polygon fill="#fffcaf" stroke="black" points="228,-129 142,-129 142,-110 228,-110 228,-129"/>
<text text-anchor="middle" x="185" y="-117" font-family="Helvetica,sans-Serif" font-size="10.00">DiffservQueue</text>
</a>
</g>
</g>
<!-- DiffservQueue&#45;&gt;AFxyQueue -->
<g id="edge5" class="edge">
<title>DiffservQueue&#45;&gt;AFxyQueue</title>
<path fill="none" stroke="black" d="M185,-109.75C185,-102.8 185,-92.85 185,-84.13"/>
<polygon fill="black" stroke="black" points="188.5,-84.09 185,-74.09 181.5,-84.09 188.5,-84.09"/>
</g>
</g>
</svg>
