<?xml version="1.0" encoding="UTF-8" standalone="no"?>
<!DOCTYPE svg PUBLIC "-//W3C//DTD SVG 1.1//EN"
 "http://www.w3.org/Graphics/SVG/1.1/DTD/svg11.dtd">
<!-- Generated by graphviz version 2.43.0 (0)
 -->
<!-- Title: opp Pages: 1 -->
<svg width="232pt" height="137pt"
 viewBox="0.00 0.00 232.00 137.00" xmlns="http://www.w3.org/2000/svg" xmlns:xlink="http://www.w3.org/1999/xlink">
<g id="graph0" class="graph" transform="scale(1 1) rotate(0) translate(4 133)">
<title>opp</title>
<polygon fill="transparent" stroke="transparent" points="-4,4 -4,-133 228,-133 228,4 -4,4"/>
<!-- IEnergyStorage -->
<g id="node1" class="node">
<title>IEnergyStorage</title>
<g id="a_node1"><a xlink:href="inet.power.contract.IEnergyStorage.html" xlink:title="Module Interface IEnergyStorage" target="_parent">
<polygon fill="#fff700" stroke="black" stroke-dasharray="5,2" points="157,-74 66,-74 66,-55 157,-55 157,-74"/>
<text text-anchor="middle" x="111.5" y="-62" font-family="Helvetica,sans-Serif" font-size="10.00">IEnergyStorage</text>
</a>
</g>
</g>
<!-- ICcEnergyStorage -->
<g id="node4" class="node">
<title>ICcEnergyStorage</title>
<g id="a_node4"><a xlink:href="inet.power.contract.ICcEnergyStorage.html" xlink:title="Module Interface ICcEnergyStorage" target="_parent">
<polygon fill="#fffcaf" stroke="black" stroke-dasharray="5,2" points="103,-19 0,-19 0,0 103,0 103,-19"/>
<text text-anchor="middle" x="51.5" y="-7" font-family="Helvetica,sans-Serif" font-size="10.00">ICcEnergyStorage</text>
</a>
</g>
</g>
<!-- IEnergyStorage&#45;&gt;ICcEnergyStorage -->
<g id="edge3" class="edge">
<title>IEnergyStorage&#45;&gt;ICcEnergyStorage</title>
<path fill="none" stroke="black" d="M101.86,-54.98C90.73,-45.15 72.52,-29.07 61.32,-19.17"/>
</g>
<!-- IEpEnergyStorage -->
<g id="node5" class="node">
<title>IEpEnergyStorage</title>
<g id="a_node5"><a xlink:href="inet.power.contract.IEpEnergyStorage.html" xlink:title="Module Interface IEpEnergyStorage" target="_parent">
<polygon fill="#fffcaf" stroke="black" stroke-dasharray="5,2" points="224,-19 121,-19 121,0 224,0 224,-19"/>
<text text-anchor="middle" x="172.5" y="-7" font-family="Helvetica,sans-Serif" font-size="10.00">IEpEnergyStorage</text>
</a>
</g>
</g>
<!-- IEnergyStorage&#45;&gt;IEpEnergyStorage -->
<g id="edge4" class="edge">
<title>IEnergyStorage&#45;&gt;IEpEnergyStorage</title>
<path fill="none" stroke="black" d="M121.3,-54.98C132.62,-45.15 151.13,-29.07 162.52,-19.17"/>
</g>
<!-- IEnergySink -->
<g id="node2" class="node">
<title>IEnergySink</title>
<g id="a_node2"><a xlink:href="inet.power.contract.IEnergySink.html" xlink:title="Module Interface IEnergySink" target="_parent">
<polygon fill="#fffcaf" stroke="black" stroke-dasharray="5,2" points="99.5,-129 25.5,-129 25.5,-110 99.5,-110 99.5,-129"/>
<text text-anchor="middle" x="62.5" y="-117" font-family="Helvetica,sans-Serif" font-size="10.00">IEnergySink</text>
</a>
</g>
</g>
<!-- IEnergySink&#45;&gt;IEnergyStorage -->
<g id="edge1" class="edge">
<title>IEnergySink&#45;&gt;IEnergyStorage</title>
<path fill="none" stroke="black" d="M70.59,-109.75C79.72,-99.87 94.49,-83.9 103.56,-74.09"/>
</g>
<!-- IEnergySource -->
<g id="node3" class="node">
<title>IEnergySource</title>
<g id="a_node3"><a xlink:href="inet.power.contract.IEnergySource.html" xlink:title="Module Interface IEnergySource" target="_parent">
<polygon fill="#fffcaf" stroke="black" stroke-dasharray="5,2" points="203.5,-129 117.5,-129 117.5,-110 203.5,-110 203.5,-129"/>
<text text-anchor="middle" x="160.5" y="-117" font-family="Helvetica,sans-Serif" font-size="10.00">IEnergySource</text>
</a>
</g>
</g>
<!-- IEnergySource&#45;&gt;IEnergyStorage -->
<g id="edge2" class="edge">
<title>IEnergySource&#45;&gt;IEnergyStorage</title>
<path fill="none" stroke="black" d="M152.41,-109.75C143.28,-99.87 128.51,-83.9 119.44,-74.09"/>
</g>
</g>
</svg>
