<?xml version="1.0" encoding="UTF-8" standalone="no"?>
<!DOCTYPE svg PUBLIC "-//W3C//DTD SVG 1.1//EN"
 "http://www.w3.org/Graphics/SVG/1.1/DTD/svg11.dtd">
<!-- Generated by graphviz version 2.43.0 (0)
 -->
<!-- Title: opp Pages: 1 -->
<svg width="292pt" height="82pt"
 viewBox="0.00 0.00 291.50 82.00" xmlns="http://www.w3.org/2000/svg" xmlns:xlink="http://www.w3.org/1999/xlink">
<g id="graph0" class="graph" transform="scale(1 1) rotate(0) translate(4 78)">
<title>opp</title>
<polygon fill="transparent" stroke="transparent" points="-4,4 -4,-78 287.5,-78 287.5,4 -4,4"/>
<!-- PacketDropCanvasVisualizer -->
<g id="node1" class="node">
<title>PacketDropCanvasVisualizer</title>
<g id="a_node1"><a xlink:href="inet.visualizer.canvas.common.PacketDropCanvasVisualizer.html" xlink:title="Simple Module PacketDropCanvasVisualizer" target="_parent">
<polygon fill="#fff700" stroke="black" points="224,-19 69,-19 69,0 224,0 224,-19"/>
<text text-anchor="middle" x="146.5" y="-7" font-family="Helvetica,sans-Serif" font-size="10.00">PacketDropCanvasVisualizer</text>
</a>
</g>
</g>
<!-- PacketDropVisualizerBase -->
<g id="node2" class="node">
<title>PacketDropVisualizerBase</title>
<g id="a_node2"><a xlink:href="inet.visualizer.base.PacketDropVisualizerBase.html" xlink:title="Simple Module PacketDropVisualizerBase" target="_parent">
<polygon fill="#fffcaf" stroke="black" points="143,-74 0,-74 0,-55 143,-55 143,-74"/>
<text text-anchor="middle" x="71.5" y="-62" font-family="Helvetica,sans-Serif" font-size="10.00">PacketDropVisualizerBase</text>
</a>
</g>
</g>
<!-- PacketDropVisualizerBase&#45;&gt;PacketDropCanvasVisualizer -->
<g id="edge1" class="edge">
<title>PacketDropVisualizerBase&#45;&gt;PacketDropCanvasVisualizer</title>
<path fill="none" stroke="black" d="M83.55,-54.98C97.46,-45.15 120.23,-29.07 134.23,-19.17"/>
</g>
<!-- IPacketDropVisualizer -->
<g id="node3" class="node">
<title>IPacketDropVisualizer</title>
<g id="a_node3"><a xlink:href="inet.visualizer.contract.IPacketDropVisualizer.html" xlink:title="Module Interface IPacketDropVisualizer" target="_parent">
<polygon fill="#fffcaf" stroke="black" stroke-dasharray="5,2" points="283.5,-74 161.5,-74 161.5,-55 283.5,-55 283.5,-74"/>
<text text-anchor="middle" x="222.5" y="-62" font-family="Helvetica,sans-Serif" font-size="10.00">IPacketDropVisualizer</text>
</a>
</g>
</g>
<!-- IPacketDropVisualizer&#45;&gt;PacketDropCanvasVisualizer -->
<g id="edge2" class="edge">
<title>IPacketDropVisualizer&#45;&gt;PacketDropCanvasVisualizer</title>
<path fill="none" stroke="black" stroke-dasharray="5,2" d="M210.29,-54.98C196.19,-45.15 173.12,-29.07 158.93,-19.17"/>
</g>
</g>
</svg>
