<?xml version="1.0" encoding="UTF-8" standalone="no"?>
<!DOCTYPE svg PUBLIC "-//W3C//DTD SVG 1.1//EN"
 "http://www.w3.org/Graphics/SVG/1.1/DTD/svg11.dtd">
<!-- Generated by graphviz version 2.43.0 (0)
 -->
<!-- Title: opp Pages: 1 -->
<svg width="222pt" height="82pt"
 viewBox="0.00 0.00 222.00 82.00" xmlns="http://www.w3.org/2000/svg" xmlns:xlink="http://www.w3.org/1999/xlink">
<g id="graph0" class="graph" transform="scale(1 1) rotate(0) translate(4 78)">
<title>opp</title>
<polygon fill="transparent" stroke="transparent" points="-4,4 -4,-78 218,-78 218,4 -4,4"/>
<!-- VirtualInterface -->
<g id="node1" class="node">
<title>VirtualInterface</title>
<g id="a_node1"><a xlink:href="inet.linklayer.virtual.VirtualInterface.html" xlink:title="Compound Module VirtualInterface" target="_parent">
<polygon fill="#fff700" stroke="black" points="154.5,-19 62.5,-19 62.5,0 154.5,0 154.5,-19"/>
<text text-anchor="middle" x="108.5" y="-7" font-family="Helvetica,sans-Serif" font-size="10.00">VirtualInterface</text>
</a>
</g>
</g>
<!-- NetworkInterface -->
<g id="node2" class="node">
<title>NetworkInterface</title>
<g id="a_node2"><a xlink:href="inet.networklayer.common.NetworkInterface.html" xlink:title="Compound Module NetworkInterface" target="_parent">
<polygon fill="#fffcaf" stroke="black" points="101,-74 0,-74 0,-55 101,-55 101,-74"/>
<text text-anchor="middle" x="50.5" y="-62" font-family="Helvetica,sans-Serif" font-size="10.00">NetworkInterface</text>
</a>
</g>
</g>
<!-- NetworkInterface&#45;&gt;VirtualInterface -->
<g id="edge1" class="edge">
<title>NetworkInterface&#45;&gt;VirtualInterface</title>
<path fill="none" stroke="black" d="M59.82,-54.98C70.58,-45.15 88.18,-29.07 99.01,-19.17"/>
</g>
<!-- IVirtualInterface -->
<g id="node3" class="node">
<title>IVirtualInterface</title>
<g id="a_node3"><a xlink:href="inet.linklayer.contract.IVirtualInterface.html" xlink:title="Module Interface IVirtualInterface" target="_parent">
<polygon fill="#fffcaf" stroke="black" stroke-dasharray="5,2" points="214,-74 119,-74 119,-55 214,-55 214,-74"/>
<text text-anchor="middle" x="166.5" y="-62" font-family="Helvetica,sans-Serif" font-size="10.00">IVirtualInterface</text>
</a>
</g>
</g>
<!-- IVirtualInterface&#45;&gt;VirtualInterface -->
<g id="edge2" class="edge">
<title>IVirtualInterface&#45;&gt;VirtualInterface</title>
<path fill="none" stroke="black" stroke-dasharray="5,2" d="M157.18,-54.98C146.42,-45.15 128.82,-29.07 117.99,-19.17"/>
</g>
</g>
</svg>
