<?xml version="1.0" encoding="UTF-8" standalone="no"?>
<!DOCTYPE svg PUBLIC "-//W3C//DTD SVG 1.1//EN"
 "http://www.w3.org/Graphics/SVG/1.1/DTD/svg11.dtd">
<!-- Generated by graphviz version 2.43.0 (0)
 -->
<!-- Title: opp Pages: 1 -->
<svg width="268pt" height="82pt"
 viewBox="0.00 0.00 268.00 82.00" xmlns="http://www.w3.org/2000/svg" xmlns:xlink="http://www.w3.org/1999/xlink">
<g id="graph0" class="graph" transform="scale(1 1) rotate(0) translate(4 78)">
<title>opp</title>
<polygon fill="transparent" stroke="transparent" points="-4,4 -4,-78 264,-78 264,4 -4,4"/>
<!-- LargeNet -->
<g id="node1" class="node">
<title>LargeNet</title>
<g id="a_node1"><a xlink:href="inet.examples.ieee8021d.LargeNet.html" xlink:title="Network LargeNet" target="_parent">
<polygon fill="#9090ff" stroke="black" points="178.5,-74 117.5,-74 117.5,-55 178.5,-55 178.5,-74"/>
<text text-anchor="middle" x="148" y="-62" font-family="Helvetica,sans-Serif" font-size="10.00">LargeNet</text>
</a>
</g>
</g>
<!-- EthernetSwitch -->
<g id="node2" class="node">
<title>EthernetSwitch</title>
<g id="a_node2"><a xlink:href="inet.node.ethernet.EthernetSwitch.html" xlink:title="Compound Module EthernetSwitch" target="_parent">
<polygon fill="#fffcaf" stroke="black" points="90,-19 0,-19 0,0 90,0 90,-19"/>
<text text-anchor="middle" x="45" y="-7" font-family="Helvetica,sans-Serif" font-size="10.00">EthernetSwitch</text>
</a>
</g>
</g>
<!-- LargeNet&#45;&gt;EthernetSwitch -->
<g id="edge1" class="edge">
<title>LargeNet&#45;&gt;EthernetSwitch</title>
<path fill="none" stroke="black" d="M131.45,-54.98C115.11,-46.57 89.87,-33.59 70.87,-23.81"/>
<polygon fill="black" stroke="black" points="72.34,-20.63 61.85,-19.17 69.14,-26.86 72.34,-20.63"/>
</g>
<!-- EthernetHost -->
<g id="node3" class="node">
<title>EthernetHost</title>
<g id="a_node3"><a xlink:href="inet.node.ethernet.EthernetHost.html" xlink:title="Compound Module EthernetHost" target="_parent">
<polygon fill="#fffcaf" stroke="black" points="188,-19 108,-19 108,0 188,0 188,-19"/>
<text text-anchor="middle" x="148" y="-7" font-family="Helvetica,sans-Serif" font-size="10.00">EthernetHost</text>
</a>
</g>
</g>
<!-- LargeNet&#45;&gt;EthernetHost -->
<g id="edge2" class="edge">
<title>LargeNet&#45;&gt;EthernetHost</title>
<path fill="none" stroke="black" d="M148,-54.75C148,-47.8 148,-37.85 148,-29.13"/>
<polygon fill="black" stroke="black" points="151.5,-29.09 148,-19.09 144.5,-29.09 151.5,-29.09"/>
</g>
<!-- Eth1G -->
<g id="node4" class="node">
<title>Eth1G</title>
<g id="a_node4"><a xlink:href="inet.node.ethernet.Eth1G.html" xlink:title="Channel Eth1G" target="_parent">
<polygon fill="#d0ffd0" stroke="black" points="260,-19 206,-19 206,0 260,0 260,-19"/>
<text text-anchor="middle" x="233" y="-7" font-family="Helvetica,sans-Serif" font-size="10.00">Eth1G</text>
</a>
</g>
</g>
<!-- LargeNet&#45;&gt;Eth1G -->
<g id="edge3" class="edge">
<title>LargeNet&#45;&gt;Eth1G</title>
<path fill="none" stroke="black" d="M161.66,-54.98C174.84,-46.77 195.03,-34.18 210.57,-24.49"/>
<polygon fill="black" stroke="black" points="212.46,-27.43 219.09,-19.17 208.76,-21.49 212.46,-27.43"/>
</g>
</g>
</svg>
