<?xml version="1.0" encoding="UTF-8" standalone="no"?>
<!DOCTYPE svg PUBLIC "-//W3C//DTD SVG 1.1//EN"
 "http://www.w3.org/Graphics/SVG/1.1/DTD/svg11.dtd">
<!-- Generated by graphviz version 2.43.0 (0)
 -->
<!-- Title: opp Pages: 1 -->
<svg width="336pt" height="82pt"
 viewBox="0.00 0.00 335.50 82.00" xmlns="http://www.w3.org/2000/svg" xmlns:xlink="http://www.w3.org/1999/xlink">
<g id="graph0" class="graph" transform="scale(1 1) rotate(0) translate(4 78)">
<title>opp</title>
<polygon fill="transparent" stroke="transparent" points="-4,4 -4,-78 331.5,-78 331.5,4 -4,4"/>
<!-- TelnetTutorialStep -->
<g id="node1" class="node">
<title>TelnetTutorialStep</title>
<g id="a_node1"><a xlink:href="inet.tutorials.queueing.TelnetTutorialStep.html" xlink:title="Network TelnetTutorialStep" target="_parent">
<polygon fill="#9090ff" stroke="black" points="214,-74 110,-74 110,-55 214,-55 214,-74"/>
<text text-anchor="middle" x="162" y="-62" font-family="Helvetica,sans-Serif" font-size="10.00">TelnetTutorialStep</text>
</a>
</g>
</g>
<!-- TelnetClientTraffic -->
<g id="node2" class="node">
<title>TelnetClientTraffic</title>
<g id="a_node2"><a xlink:href="inet.tutorials.queueing.TelnetClientTraffic.html" xlink:title="Compound Module TelnetClientTraffic" target="_parent">
<polygon fill="#fffcaf" stroke="black" points="104,-19 0,-19 0,0 104,0 104,-19"/>
<text text-anchor="middle" x="52" y="-7" font-family="Helvetica,sans-Serif" font-size="10.00">TelnetClientTraffic</text>
</a>
</g>
</g>
<!-- TelnetTutorialStep&#45;&gt;TelnetClientTraffic -->
<g id="edge1" class="edge">
<title>TelnetTutorialStep&#45;&gt;TelnetClientTraffic</title>
<path fill="none" stroke="black" d="M144.33,-54.98C126.71,-46.5 99.42,-33.35 79.07,-23.54"/>
<polygon fill="black" stroke="black" points="80.52,-20.36 69.99,-19.17 77.48,-26.66 80.52,-20.36"/>
</g>
<!-- IdealChannel -->
<g id="node3" class="node">
<title>IdealChannel</title>
<g id="a_node3"><a xlink:href="ned.IdealChannel.html" xlink:title="Channel IdealChannel" target="_parent">
<polygon fill="#d0ffd0" stroke="black" points="202,-19 122,-19 122,0 202,0 202,-19"/>
<text text-anchor="middle" x="162" y="-7" font-family="Helvetica,sans-Serif" font-size="10.00">IdealChannel</text>
</a>
</g>
</g>
<!-- TelnetTutorialStep&#45;&gt;IdealChannel -->
<g id="edge2" class="edge">
<title>TelnetTutorialStep&#45;&gt;IdealChannel</title>
<path fill="none" stroke="black" d="M162,-54.75C162,-47.8 162,-37.85 162,-29.13"/>
<polygon fill="black" stroke="black" points="165.5,-29.09 162,-19.09 158.5,-29.09 165.5,-29.09"/>
</g>
<!-- TelnetServerTraffic -->
<g id="node4" class="node">
<title>TelnetServerTraffic</title>
<g id="a_node4"><a xlink:href="inet.tutorials.queueing.TelnetServerTraffic.html" xlink:title="Compound Module TelnetServerTraffic" target="_parent">
<polygon fill="#fffcaf" stroke="black" points="327.5,-19 220.5,-19 220.5,0 327.5,0 327.5,-19"/>
<text text-anchor="middle" x="274" y="-7" font-family="Helvetica,sans-Serif" font-size="10.00">TelnetServerTraffic</text>
</a>
</g>
</g>
<!-- TelnetTutorialStep&#45;&gt;TelnetServerTraffic -->
<g id="edge3" class="edge">
<title>TelnetTutorialStep&#45;&gt;TelnetServerTraffic</title>
<path fill="none" stroke="black" d="M179.99,-54.98C197.93,-46.5 225.72,-33.35 246.43,-23.54"/>
<polygon fill="black" stroke="black" points="248.14,-26.61 255.68,-19.17 245.14,-20.28 248.14,-26.61"/>
</g>
</g>
</svg>
