<?xml version="1.0" encoding="UTF-8" standalone="no"?>
<!DOCTYPE svg PUBLIC "-//W3C//DTD SVG 1.1//EN"
 "http://www.w3.org/Graphics/SVG/1.1/DTD/svg11.dtd">
<!-- Generated by graphviz version 2.43.0 (0)
 -->
<!-- Title: opp Pages: 1 -->
<svg width="674pt" height="137pt"
 viewBox="0.00 0.00 673.50 137.00" xmlns="http://www.w3.org/2000/svg" xmlns:xlink="http://www.w3.org/1999/xlink">
<g id="graph0" class="graph" transform="scale(1 1) rotate(0) translate(4 133)">
<title>opp</title>
<polygon fill="transparent" stroke="transparent" points="-4,4 -4,-133 669.5,-133 669.5,4 -4,4"/>
<!-- TokenGeneratorBase -->
<g id="node1" class="node">
<title>TokenGeneratorBase</title>
<g id="a_node1"><a xlink:href="inet.queueing.base.TokenGeneratorBase.html" xlink:title="Simple Module TokenGeneratorBase" target="_parent">
<polygon fill="#fff700" stroke="black" points="395,-74 278,-74 278,-55 395,-55 395,-74"/>
<text text-anchor="middle" x="336.5" y="-62" font-family="Helvetica,sans-Serif" font-size="10.00">TokenGeneratorBase</text>
</a>
</g>
</g>
<!-- PacketBasedTokenGenerator -->
<g id="node3" class="node">
<title>PacketBasedTokenGenerator</title>
<g id="a_node3"><a xlink:href="inet.queueing.tokengenerator.PacketBasedTokenGenerator.html" xlink:title="Simple Module PacketBasedTokenGenerator" target="_parent">
<polygon fill="#fffcaf" stroke="black" points="155,-19 0,-19 0,0 155,0 155,-19"/>
<text text-anchor="middle" x="77.5" y="-7" font-family="Helvetica,sans-Serif" font-size="10.00">PacketBasedTokenGenerator</text>
</a>
</g>
</g>
<!-- TokenGeneratorBase&#45;&gt;PacketBasedTokenGenerator -->
<g id="edge2" class="edge">
<title>TokenGeneratorBase&#45;&gt;PacketBasedTokenGenerator</title>
<path fill="none" stroke="black" d="M294.89,-54.98C246.7,-45.12 167.77,-28.97 119.44,-19.08"/>
</g>
<!-- QueueBasedTokenGenerator -->
<g id="node4" class="node">
<title>QueueBasedTokenGenerator</title>
<g id="a_node4"><a xlink:href="inet.queueing.tokengenerator.QueueBasedTokenGenerator.html" xlink:title="Simple Module QueueBasedTokenGenerator" target="_parent">
<polygon fill="#fffcaf" stroke="black" points="328,-19 173,-19 173,0 328,0 328,-19"/>
<text text-anchor="middle" x="250.5" y="-7" font-family="Helvetica,sans-Serif" font-size="10.00">QueueBasedTokenGenerator</text>
</a>
</g>
</g>
<!-- TokenGeneratorBase&#45;&gt;QueueBasedTokenGenerator -->
<g id="edge3" class="edge">
<title>TokenGeneratorBase&#45;&gt;QueueBasedTokenGenerator</title>
<path fill="none" stroke="black" d="M322.68,-54.98C306.73,-45.15 280.63,-29.07 264.57,-19.17"/>
</g>
<!-- SignalBasedTokenGenerator -->
<g id="node5" class="node">
<title>SignalBasedTokenGenerator</title>
<g id="a_node5"><a xlink:href="inet.queueing.tokengenerator.SignalBasedTokenGenerator.html" xlink:title="Simple Module SignalBasedTokenGenerator" target="_parent">
<polygon fill="#fffcaf" stroke="black" points="499,-19 346,-19 346,0 499,0 499,-19"/>
<text text-anchor="middle" x="422.5" y="-7" font-family="Helvetica,sans-Serif" font-size="10.00">SignalBasedTokenGenerator</text>
</a>
</g>
</g>
<!-- TokenGeneratorBase&#45;&gt;SignalBasedTokenGenerator -->
<g id="edge4" class="edge">
<title>TokenGeneratorBase&#45;&gt;SignalBasedTokenGenerator</title>
<path fill="none" stroke="black" d="M350.32,-54.98C366.27,-45.15 392.37,-29.07 408.43,-19.17"/>
</g>
<!-- TimeBasedTokenGenerator -->
<g id="node6" class="node">
<title>TimeBasedTokenGenerator</title>
<g id="a_node6"><a xlink:href="inet.queueing.tokengenerator.TimeBasedTokenGenerator.html" xlink:title="Simple Module TimeBasedTokenGenerator" target="_parent">
<polygon fill="#fffcaf" stroke="black" points="665.5,-19 517.5,-19 517.5,0 665.5,0 665.5,-19"/>
<text text-anchor="middle" x="591.5" y="-7" font-family="Helvetica,sans-Serif" font-size="10.00">TimeBasedTokenGenerator</text>
</a>
</g>
</g>
<!-- TokenGeneratorBase&#45;&gt;TimeBasedTokenGenerator -->
<g id="edge5" class="edge">
<title>TokenGeneratorBase&#45;&gt;TimeBasedTokenGenerator</title>
<path fill="none" stroke="black" d="M377.47,-54.98C424.92,-45.12 502.63,-28.97 550.21,-19.08"/>
</g>
<!-- PacketProcessorBase -->
<g id="node2" class="node">
<title>PacketProcessorBase</title>
<g id="a_node2"><a xlink:href="inet.queueing.base.PacketProcessorBase.html" xlink:title="Simple Module PacketProcessorBase" target="_parent">
<polygon fill="#fffcaf" stroke="black" points="396,-129 277,-129 277,-110 396,-110 396,-129"/>
<text text-anchor="middle" x="336.5" y="-117" font-family="Helvetica,sans-Serif" font-size="10.00">PacketProcessorBase</text>
</a>
</g>
</g>
<!-- PacketProcessorBase&#45;&gt;TokenGeneratorBase -->
<g id="edge1" class="edge">
<title>PacketProcessorBase&#45;&gt;TokenGeneratorBase</title>
<path fill="none" stroke="black" d="M336.5,-109.75C336.5,-99.87 336.5,-83.9 336.5,-74.09"/>
</g>
</g>
</svg>
