<?xml version="1.0" encoding="UTF-8" standalone="no"?>
<!DOCTYPE svg PUBLIC "-//W3C//DTD SVG 1.1//EN"
 "http://www.w3.org/Graphics/SVG/1.1/DTD/svg11.dtd">
<!-- Generated by graphviz version 2.43.0 (0)
 -->
<!-- Title: opp Pages: 1 -->
<svg width="6321pt" height="137pt"
 viewBox="0.00 0.00 6321.00 137.00" xmlns="http://www.w3.org/2000/svg" xmlns:xlink="http://www.w3.org/1999/xlink">
<g id="graph0" class="graph" transform="scale(1 1) rotate(0) translate(4 133)">
<title>opp</title>
<polygon fill="transparent" stroke="transparent" points="-4,4 -4,-133 6317,-133 6317,4 -4,4"/>
<!-- Router -->
<g id="node1" class="node">
<title>Router</title>
<g id="a_node1"><a xlink:href="inet.node.inet.Router.html" xlink:title="Compound Module Router" target="_parent">
<polygon fill="#fff700" stroke="black" points="2599,-74 2545,-74 2545,-55 2599,-55 2599,-74"/>
<text text-anchor="middle" x="2572" y="-62" font-family="Helvetica,sans-Serif" font-size="10.00">Router</text>
</a>
</g>
</g>
<!-- IBgp -->
<g id="node2" class="node">
<title>IBgp</title>
<g id="a_node2"><a xlink:href="inet.routing.contract.IBgp.html" xlink:title="Module Interface IBgp" target="_parent">
<polygon fill="#fffcaf" stroke="black" stroke-dasharray="5,2" points="2419,-19 2365,-19 2365,0 2419,0 2419,-19"/>
<text text-anchor="middle" x="2392" y="-7" font-family="Helvetica,sans-Serif" font-size="10.00">IBgp</text>
</a>
</g>
</g>
<!-- Router&#45;&gt;IBgp -->
<g id="edge1" class="edge">
<title>Router&#45;&gt;IBgp</title>
<path fill="none" stroke="black" d="M2544.66,-55.45C2513.69,-46.33 2463.07,-31.42 2428.68,-21.3"/>
<polygon fill="black" stroke="black" points="2429.59,-17.92 2419.01,-18.45 2427.61,-24.63 2429.59,-17.92"/>
</g>
<!-- IPim -->
<g id="node3" class="node">
<title>IPim</title>
<g id="a_node3"><a xlink:href="inet.routing.contract.IPim.html" xlink:title="Module Interface IPim" target="_parent">
<polygon fill="#fffcaf" stroke="black" stroke-dasharray="5,2" points="2491,-19 2437,-19 2437,0 2491,0 2491,-19"/>
<text text-anchor="middle" x="2464" y="-7" font-family="Helvetica,sans-Serif" font-size="10.00">IPim</text>
</a>
</g>
</g>
<!-- Router&#45;&gt;IPim -->
<g id="edge2" class="edge">
<title>Router&#45;&gt;IPim</title>
<path fill="none" stroke="black" d="M2554.65,-54.98C2537.43,-46.54 2510.8,-33.47 2490.85,-23.68"/>
<polygon fill="black" stroke="black" points="2492.19,-20.43 2481.67,-19.17 2489.1,-26.72 2492.19,-20.43"/>
</g>
<!-- IOspf -->
<g id="node4" class="node">
<title>IOspf</title>
<g id="a_node4"><a xlink:href="inet.routing.contract.IOspf.html" xlink:title="Module Interface IOspf" target="_parent">
<polygon fill="#fffcaf" stroke="black" stroke-dasharray="5,2" points="2563,-19 2509,-19 2509,0 2563,0 2563,-19"/>
<text text-anchor="middle" x="2536" y="-7" font-family="Helvetica,sans-Serif" font-size="10.00">IOspf</text>
</a>
</g>
</g>
<!-- Router&#45;&gt;IOspf -->
<g id="edge3" class="edge">
<title>Router&#45;&gt;IOspf</title>
<path fill="none" stroke="black" d="M2566.06,-54.75C2561.02,-47.34 2553.66,-36.5 2547.49,-27.41"/>
<polygon fill="black" stroke="black" points="2550.35,-25.39 2541.83,-19.09 2544.56,-29.33 2550.35,-25.39"/>
</g>
<!-- IApp -->
<g id="node5" class="node">
<title>IApp</title>
<g id="a_node5"><a xlink:href="inet.applications.contract.IApp.html" xlink:title="Module Interface IApp" target="_parent">
<polygon fill="#fffcaf" stroke="black" stroke-dasharray="5,2" points="2635,-19 2581,-19 2581,0 2635,0 2635,-19"/>
<text text-anchor="middle" x="2608" y="-7" font-family="Helvetica,sans-Serif" font-size="10.00">IApp</text>
</a>
</g>
</g>
<!-- Router&#45;&gt;IApp -->
<g id="edge4" class="edge">
<title>Router&#45;&gt;IApp</title>
<path fill="none" stroke="black" d="M2577.94,-54.75C2582.98,-47.34 2590.34,-36.5 2596.51,-27.41"/>
<polygon fill="black" stroke="black" points="2599.44,-29.33 2602.17,-19.09 2593.65,-25.39 2599.44,-29.33"/>
</g>
<!-- IdealChannel -->
<g id="node6" class="node">
<title>IdealChannel</title>
<g id="a_node6"><a xlink:href="ned.IdealChannel.html" xlink:title="Channel IdealChannel" target="_parent">
<polygon fill="#d0ffd0" stroke="black" points="2733,-19 2653,-19 2653,0 2733,0 2733,-19"/>
<text text-anchor="middle" x="2693" y="-7" font-family="Helvetica,sans-Serif" font-size="10.00">IdealChannel</text>
</a>
</g>
</g>
<!-- Router&#45;&gt;IdealChannel -->
<g id="edge5" class="edge">
<title>Router&#45;&gt;IdealChannel</title>
<path fill="none" stroke="black" d="M2591.44,-54.98C2610.99,-46.42 2641.38,-33.11 2663.82,-23.28"/>
<polygon fill="black" stroke="black" points="2665.45,-26.39 2673.21,-19.17 2662.64,-19.98 2665.45,-26.39"/>
</g>
<!-- IEigrp -->
<g id="node7" class="node">
<title>IEigrp</title>
<g id="a_node7"><a xlink:href="inet.routing.contract.IEigrp.html" xlink:title="Module Interface IEigrp" target="_parent">
<polygon fill="#fffcaf" stroke="black" stroke-dasharray="5,2" points="2805,-19 2751,-19 2751,0 2805,0 2805,-19"/>
<text text-anchor="middle" x="2778" y="-7" font-family="Helvetica,sans-Serif" font-size="10.00">IEigrp</text>
</a>
</g>
</g>
<!-- Router&#45;&gt;IEigrp -->
<g id="edge6" class="edge">
<title>Router&#45;&gt;IEigrp</title>
<path fill="none" stroke="black" d="M2599.36,-56.46C2635.78,-47.09 2700.33,-30.48 2741.05,-20.01"/>
<polygon fill="black" stroke="black" points="2742.05,-23.36 2750.86,-17.48 2740.3,-16.58 2742.05,-23.36"/>
</g>
<!-- ARPTest -->
<g id="node8" class="node">
<title>ARPTest</title>
<g id="a_node8"><a xlink:href="inet.examples.ethernet.arptest2.ARPTest.html" xlink:title="Network ARPTest" target="_parent">
<polygon fill="#d0d0ff" stroke="black" points="56,-129 0,-129 0,-110 56,-110 56,-129"/>
<text text-anchor="middle" x="28" y="-117" font-family="Helvetica,sans-Serif" font-size="10.00">ARPTest</text>
</a>
</g>
</g>
<!-- ARPTest&#45;&gt;Router -->
<g id="edge7" class="edge">
<title>ARPTest&#45;&gt;Router</title>
<path fill="none" stroke="black" d="M55.61,-110.05C55.74,-110.03 55.87,-110.02 56,-110 311.95,-78.67 2241.81,-67.21 2534.8,-65.68"/>
<polygon fill="black" stroke="black" points="2534.92,-69.18 2544.9,-65.63 2534.88,-62.18 2534.92,-69.18"/>
</g>
<!-- ARPTest&#45;&gt;Router -->
<g id="edge8" class="edge">
<title>ARPTest&#45;&gt;Router</title>
<path fill="none" stroke="black" d="M56.09,-113.23C62.07,-111.93 68.24,-110.7 74,-110 328.89,-78.81 2243.75,-67.31 2534.95,-65.7"/>
<polygon fill="black" stroke="black" points="2535.02,-69.2 2545,-65.65 2534.98,-62.2 2535.02,-69.2"/>
</g>
<!-- BulkTransfer -->
<g id="node9" class="node">
<title>BulkTransfer</title>
<g id="a_node9"><a xlink:href="inet.examples.inet.bulktransfer.BulkTransfer.html" xlink:title="Network BulkTransfer" target="_parent">
<polygon fill="#d0d0ff" stroke="black" points="151.5,-129 74.5,-129 74.5,-110 151.5,-110 151.5,-129"/>
<text text-anchor="middle" x="113" y="-117" font-family="Helvetica,sans-Serif" font-size="10.00">BulkTransfer</text>
</a>
</g>
</g>
<!-- BulkTransfer&#45;&gt;Router -->
<g id="edge9" class="edge">
<title>BulkTransfer&#45;&gt;Router</title>
<path fill="none" stroke="black" d="M151.66,-111C154.47,-110.61 157.28,-110.27 160,-110 648.93,-61.59 2267.65,-64.54 2534.58,-65.37"/>
<polygon fill="black" stroke="black" points="2534.88,-68.87 2544.89,-65.4 2534.91,-61.87 2534.88,-68.87"/>
</g>
<!-- CloudAndRouters -->
<g id="node10" class="node">
<title>CloudAndRouters</title>
<g id="a_node10"><a xlink:href="inet.examples.internetcloud.cloudandrouters.CloudAndRouters.html" xlink:title="Network CloudAndRouters" target="_parent">
<polygon fill="#d0d0ff" stroke="black" points="270.5,-129 169.5,-129 169.5,-110 270.5,-110 270.5,-129"/>
<text text-anchor="middle" x="220" y="-117" font-family="Helvetica,sans-Serif" font-size="10.00">CloudAndRouters</text>
</a>
</g>
</g>
<!-- CloudAndRouters&#45;&gt;Router -->
<g id="edge10" class="edge">
<title>CloudAndRouters&#45;&gt;Router</title>
<path fill="none" stroke="black" d="M270.8,-110.77C273.57,-110.48 276.32,-110.22 279,-110 743.57,-72.17 2276.33,-66.32 2534.83,-65.59"/>
<polygon fill="black" stroke="black" points="2534.84,-69.09 2544.83,-65.56 2534.82,-62.09 2534.84,-69.09"/>
</g>
<!-- ComplexConfiguratorNetwork -->
<g id="node11" class="node">
<title>ComplexConfiguratorNetwork</title>
<g id="a_node11"><a xlink:href="inet.examples.wireless.configurator.ComplexConfiguratorNetwork.html" xlink:title="Network ComplexConfiguratorNetwork" target="_parent">
<polygon fill="#d0d0ff" stroke="black" points="449.5,-129 288.5,-129 288.5,-110 449.5,-110 449.5,-129"/>
<text text-anchor="middle" x="369" y="-117" font-family="Helvetica,sans-Serif" font-size="10.00">ComplexConfiguratorNetwork</text>
</a>
</g>
</g>
<!-- ComplexConfiguratorNetwork&#45;&gt;Router -->
<g id="edge11" class="edge">
<title>ComplexConfiguratorNetwork&#45;&gt;Router</title>
<path fill="none" stroke="black" d="M449.51,-110.54C452.37,-110.34 455.21,-110.16 458,-110 1297.74,-61.13 2327.89,-64.09 2534.8,-65.25"/>
<polygon fill="black" stroke="black" points="2534.82,-68.75 2544.84,-65.31 2534.86,-61.75 2534.82,-68.75"/>
</g>
<!-- Complexer -->
<g id="node12" class="node">
<title>Complexer</title>
<g id="a_node12"><a xlink:href="inet.showcases.visualizer.canvas.transportconnection.Complexer.html" xlink:title="Network Complexer" target="_parent">
<polygon fill="#d0d0ff" stroke="black" points="536.5,-129 467.5,-129 467.5,-110 536.5,-110 536.5,-129"/>
<text text-anchor="middle" x="502" y="-117" font-family="Helvetica,sans-Serif" font-size="10.00">Complexer</text>
</a>
</g>
</g>
<!-- Complexer&#45;&gt;Router -->
<g id="edge12" class="edge">
<title>Complexer&#45;&gt;Router</title>
<path fill="none" stroke="black" d="M536.65,-111.11C539.47,-110.68 542.28,-110.3 545,-110 952.08,-65.64 2293.53,-65.16 2534.7,-65.44"/>
<polygon fill="black" stroke="black" points="2534.71,-68.94 2544.71,-65.45 2534.72,-61.94 2534.71,-68.94"/>
</g>
<!-- ConfiguratorA -->
<g id="node13" class="node">
<title>ConfiguratorA</title>
<g id="a_node13"><a xlink:href="inet.tutorials.configurator.ConfiguratorA.html" xlink:title="Network ConfiguratorA" target="_parent">
<polygon fill="#d0d0ff" stroke="black" points="637.5,-129 554.5,-129 554.5,-110 637.5,-110 637.5,-129"/>
<text text-anchor="middle" x="596" y="-117" font-family="Helvetica,sans-Serif" font-size="10.00">ConfiguratorA</text>
</a>
</g>
</g>
<!-- ConfiguratorA&#45;&gt;Router -->
<g id="edge13" class="edge">
<title>ConfiguratorA&#45;&gt;Router</title>
<path fill="none" stroke="black" d="M637.68,-110.95C640.49,-110.58 643.28,-110.26 646,-110 1032.3,-72.9 2300.85,-66.49 2534.75,-65.62"/>
<polygon fill="black" stroke="black" points="2534.81,-69.12 2544.79,-65.58 2534.78,-62.12 2534.81,-69.12"/>
</g>
<!-- ConfiguratorB -->
<g id="node14" class="node">
<title>ConfiguratorB</title>
<g id="a_node14"><a xlink:href="inet.tutorials.configurator.ConfiguratorB.html" xlink:title="Network ConfiguratorB" target="_parent">
<polygon fill="#d0d0ff" stroke="black" points="738.5,-129 655.5,-129 655.5,-110 738.5,-110 738.5,-129"/>
<text text-anchor="middle" x="697" y="-117" font-family="Helvetica,sans-Serif" font-size="10.00">ConfiguratorB</text>
</a>
</g>
</g>
<!-- ConfiguratorB&#45;&gt;Router -->
<g id="edge14" class="edge">
<title>ConfiguratorB&#45;&gt;Router</title>
<path fill="none" stroke="black" d="M738.68,-110.95C741.49,-110.59 744.28,-110.26 747,-110 1112.07,-74.7 2308.79,-66.86 2534.94,-65.68"/>
<polygon fill="black" stroke="black" points="2534.99,-69.18 2544.97,-65.62 2534.95,-62.18 2534.99,-69.18"/>
</g>
<!-- ConfiguratorE -->
<g id="node15" class="node">
<title>ConfiguratorE</title>
<g id="a_node15"><a xlink:href="inet.tutorials.configurator.ConfiguratorE.html" xlink:title="Network ConfiguratorE" target="_parent">
<polygon fill="#d0d0ff" stroke="black" points="839.5,-129 756.5,-129 756.5,-110 839.5,-110 839.5,-129"/>
<text text-anchor="middle" x="798" y="-117" font-family="Helvetica,sans-Serif" font-size="10.00">ConfiguratorE</text>
</a>
</g>
</g>
<!-- ConfiguratorE&#45;&gt;Router -->
<g id="edge15" class="edge">
<title>ConfiguratorE&#45;&gt;Router</title>
<path fill="none" stroke="black" d="M839.69,-111.07C842.83,-110.65 845.96,-110.29 849,-110 1192.62,-77.09 2316.39,-67.35 2534.97,-65.75"/>
<polygon fill="black" stroke="black" points="2535,-69.25 2544.97,-65.68 2534.95,-62.25 2535,-69.25"/>
</g>
<!-- DcTcpIncast -->
<g id="node16" class="node">
<title>DcTcpIncast</title>
<g id="a_node16"><a xlink:href="inet.examples.inet.dctcp.DcTcpIncast.html" xlink:title="Network DcTcpIncast" target="_parent">
<polygon fill="#d0d0ff" stroke="black" points="932,-129 858,-129 858,-110 932,-110 932,-129"/>
<text text-anchor="middle" x="895" y="-117" font-family="Helvetica,sans-Serif" font-size="10.00">DcTcpIncast</text>
</a>
</g>
</g>
<!-- DcTcpIncast&#45;&gt;Router -->
<g id="edge16" class="edge">
<title>DcTcpIncast&#45;&gt;Router</title>
<path fill="none" stroke="black" d="M932.08,-111.14C935.09,-110.69 938.09,-110.31 941,-110 1264.79,-75.88 2322.21,-67.15 2534.63,-65.73"/>
<polygon fill="black" stroke="black" points="2534.96,-69.23 2544.94,-65.66 2534.92,-62.23 2534.96,-69.23"/>
</g>
<!-- DiffservNetwork -->
<g id="node17" class="node">
<title>DiffservNetwork</title>
<g id="a_node17"><a xlink:href="inet.showcases.general.diffserv.DiffservNetwork.html" xlink:title="Network DiffservNetwork" target="_parent">
<polygon fill="#d0d0ff" stroke="black" points="1046,-129 950,-129 950,-110 1046,-110 1046,-129"/>
<text text-anchor="middle" x="998" y="-117" font-family="Helvetica,sans-Serif" font-size="10.00">DiffservNetwork</text>
</a>
</g>
</g>
<!-- DiffservNetwork&#45;&gt;Router -->
<g id="edge17" class="edge">
<title>DiffservNetwork&#45;&gt;Router</title>
<path fill="none" stroke="black" d="M1037.49,-109.96C1340.88,-83.06 2329.42,-68.53 2534.68,-65.93"/>
<polygon fill="black" stroke="black" points="2534.98,-69.42 2544.94,-65.8 2534.89,-62.42 2534.98,-69.42"/>
</g>
<!-- DiffservNetwork&#45;&gt;Router -->
<g id="edge18" class="edge">
<title>DiffservNetwork&#45;&gt;Router</title>
<path fill="none" stroke="black" d="M1046.15,-110.91C1049.14,-110.56 1052.11,-110.26 1055,-110 1355.38,-83.29 2331.45,-68.77 2534.71,-65.99"/>
<polygon fill="black" stroke="black" points="2534.92,-69.49 2544.87,-65.85 2534.82,-62.49 2534.92,-69.49"/>
</g>
<!-- DiffservNetwork&#45;&gt;Router -->
<g id="edge19" class="edge">
<title>DiffservNetwork&#45;&gt;Router</title>
<path fill="none" stroke="black" d="M1046,-113.24C1055.18,-111.97 1064.43,-110.76 1073,-110 1370.8,-83.52 2332.75,-69.02 2534.77,-66.07"/>
<polygon fill="black" stroke="black" points="2534.92,-69.56 2544.87,-65.92 2534.82,-62.57 2534.92,-69.56"/>
</g>
<!-- FlatNet -->
<g id="node18" class="node">
<title>FlatNet</title>
<g id="a_node18"><a xlink:href="inet.examples.inet.flatnet.FlatNet.html" xlink:title="Network FlatNet" target="_parent">
<polygon fill="#d0d0ff" stroke="black" points="1118,-129 1064,-129 1064,-110 1118,-110 1118,-129"/>
<text text-anchor="middle" x="1091" y="-117" font-family="Helvetica,sans-Serif" font-size="10.00">FlatNet</text>
</a>
</g>
</g>
<!-- FlatNet&#45;&gt;Router -->
<g id="edge20" class="edge">
<title>FlatNet&#45;&gt;Router</title>
<path fill="none" stroke="black" d="M1118.02,-111.51C1121.03,-110.91 1124.07,-110.39 1127,-110 1410.88,-72.5 2336.68,-66.5 2534.56,-65.63"/>
<polygon fill="black" stroke="black" points="2534.75,-69.13 2544.74,-65.59 2534.72,-62.13 2534.75,-69.13"/>
</g>
<!-- Hierarchical -->
<g id="node19" class="node">
<title>Hierarchical</title>
<g id="a_node19"><a xlink:href="inet.examples.inet.hierarchical.Hierarchical.html" xlink:title="Network Hierarchical" target="_parent">
<polygon fill="#d0d0ff" stroke="black" points="1211.5,-129 1136.5,-129 1136.5,-110 1211.5,-110 1211.5,-129"/>
<text text-anchor="middle" x="1174" y="-117" font-family="Helvetica,sans-Serif" font-size="10.00">Hierarchical</text>
</a>
</g>
</g>
<!-- Hierarchical&#45;&gt;Router -->
<g id="edge21" class="edge">
<title>Hierarchical&#45;&gt;Router</title>
<path fill="none" stroke="black" d="M1211.59,-111.08C1214.43,-110.67 1217.25,-110.3 1220,-110 1485.39,-81.28 2345.55,-68.48 2534.91,-65.97"/>
<polygon fill="black" stroke="black" points="2534.96,-69.47 2544.92,-65.84 2534.87,-62.47 2534.96,-69.47"/>
</g>
<!-- Hierarchical99 -->
<g id="node20" class="node">
<title>Hierarchical99</title>
<g id="a_node20"><a xlink:href="inet.examples.inet.hierarchical99.Hierarchical99.html" xlink:title="Network Hierarchical99" target="_parent">
<polygon fill="#d0d0ff" stroke="black" points="1316.5,-129 1229.5,-129 1229.5,-110 1316.5,-110 1316.5,-129"/>
<text text-anchor="middle" x="1273" y="-117" font-family="Helvetica,sans-Serif" font-size="10.00">Hierarchical99</text>
</a>
</g>
</g>
<!-- Hierarchical99&#45;&gt;Router -->
<g id="edge22" class="edge">
<title>Hierarchical99&#45;&gt;Router</title>
<path fill="none" stroke="black" d="M1316.64,-110.96C1319.46,-110.59 1322.27,-110.27 1325,-110 1800.78,-62.82 2383.04,-63.91 2534.55,-65.11"/>
<polygon fill="black" stroke="black" points="2534.68,-68.61 2544.71,-65.2 2534.74,-61.62 2534.68,-68.61"/>
</g>
<!-- InterfaceTableVisualizationAdvancedFeaturesShowcase -->
<g id="node21" class="node">
<title>InterfaceTableVisualizationAdvancedFeaturesShowcase</title>
<g id="a_node21"><a xlink:href="inet.showcases.visualizer.canvas.interfacetable.InterfaceTableVisualizationAdvancedFeaturesShowcase.html" xlink:title="Network InterfaceTableVisualizationAdvancedFeaturesShowcase" target="_parent">
<polygon fill="#d0d0ff" stroke="black" points="1621.5,-129 1334.5,-129 1334.5,-110 1621.5,-110 1621.5,-129"/>
<text text-anchor="middle" x="1478" y="-117" font-family="Helvetica,sans-Serif" font-size="10.00">InterfaceTableVisualizationAdvancedFeaturesShowcase</text>
</a>
</g>
</g>
<!-- InterfaceTableVisualizationAdvancedFeaturesShowcase&#45;&gt;Router -->
<g id="edge23" class="edge">
<title>InterfaceTableVisualizationAdvancedFeaturesShowcase&#45;&gt;Router</title>
<path fill="none" stroke="black" d="M1621.61,-110.44C1624.43,-110.29 1627.23,-110.14 1630,-110 1981.51,-91.87 2406.97,-72.81 2534.28,-67.16"/>
<polygon fill="black" stroke="black" points="2534.8,-70.64 2544.64,-66.71 2534.49,-63.65 2534.8,-70.64"/>
</g>
<!-- IPv4LargeLAN -->
<g id="node22" class="node">
<title>IPv4LargeLAN</title>
<g id="a_node22"><a xlink:href="inet.examples.inet.ipv4largenet.IPv4LargeLAN.html" xlink:title="Compound Module IPv4LargeLAN" target="_parent">
<polygon fill="#fffcaf" stroke="black" points="1724.5,-129 1639.5,-129 1639.5,-110 1724.5,-110 1724.5,-129"/>
<text text-anchor="middle" x="1682" y="-117" font-family="Helvetica,sans-Serif" font-size="10.00">IPv4LargeLAN</text>
</a>
</g>
</g>
<!-- IPv4LargeLAN&#45;&gt;Router -->
<g id="edge24" class="edge">
<title>IPv4LargeLAN&#45;&gt;Router</title>
<path fill="none" stroke="black" d="M1724.52,-111.16C1727.72,-110.73 1730.91,-110.33 1734,-110 2041.97,-76.75 2416.41,-68.04 2534.48,-66.04"/>
<polygon fill="black" stroke="black" points="2534.84,-69.53 2544.78,-65.87 2534.73,-62.53 2534.84,-69.53"/>
</g>
<!-- IPv4LargeNet -->
<g id="node23" class="node">
<title>IPv4LargeNet</title>
<g id="a_node23"><a xlink:href="inet.examples.inet.ipv4largenet.IPv4LargeNet.html" xlink:title="Network IPv4LargeNet" target="_parent">
<polygon fill="#d0d0ff" stroke="black" points="1825,-129 1743,-129 1743,-110 1825,-110 1825,-129"/>
<text text-anchor="middle" x="1784" y="-117" font-family="Helvetica,sans-Serif" font-size="10.00">IPv4LargeNet</text>
</a>
</g>
</g>
<!-- IPv4LargeNet&#45;&gt;Router -->
<g id="edge25" class="edge">
<title>IPv4LargeNet&#45;&gt;Router</title>
<path fill="none" stroke="black" d="M1825.15,-111.14C1828.14,-110.72 1831.11,-110.33 1834,-110 2101.49,-79.29 2426.12,-69.03 2534.65,-66.33"/>
<polygon fill="black" stroke="black" points="2534.85,-69.82 2544.77,-66.08 2534.68,-62.82 2534.85,-69.82"/>
</g>
<!-- IPv4MediumLAN -->
<g id="node24" class="node">
<title>IPv4MediumLAN</title>
<g id="a_node24"><a xlink:href="inet.examples.inet.ipv4largenet.IPv4MediumLAN.html" xlink:title="Compound Module IPv4MediumLAN" target="_parent">
<polygon fill="#fffcaf" stroke="black" points="1941,-129 1843,-129 1843,-110 1941,-110 1941,-129"/>
<text text-anchor="middle" x="1892" y="-117" font-family="Helvetica,sans-Serif" font-size="10.00">IPv4MediumLAN</text>
</a>
</g>
</g>
<!-- IPv4MediumLAN&#45;&gt;Router -->
<g id="edge26" class="edge">
<title>IPv4MediumLAN&#45;&gt;Router</title>
<path fill="none" stroke="black" d="M1941.02,-111.06C1944.05,-110.68 1947.07,-110.32 1950,-110 2171.22,-85.91 2438.18,-71.82 2534.82,-67.2"/>
<polygon fill="black" stroke="black" points="2535.13,-70.69 2544.96,-66.72 2534.8,-63.69 2535.13,-70.69"/>
</g>
<!-- IPv4SmallLAN -->
<g id="node25" class="node">
<title>IPv4SmallLAN</title>
<g id="a_node25"><a xlink:href="inet.examples.inet.ipv4largenet.IPv4SmallLAN.html" xlink:title="Compound Module IPv4SmallLAN" target="_parent">
<polygon fill="#fffcaf" stroke="black" points="2045,-129 1959,-129 1959,-110 2045,-110 2045,-129"/>
<text text-anchor="middle" x="2002" y="-117" font-family="Helvetica,sans-Serif" font-size="10.00">IPv4SmallLAN</text>
</a>
</g>
</g>
<!-- IPv4SmallLAN&#45;&gt;Router -->
<g id="edge27" class="edge">
<title>IPv4SmallLAN&#45;&gt;Router</title>
<path fill="none" stroke="black" d="M2045.09,-111.2C2048.1,-110.77 2051.1,-110.36 2054,-110 2233.52,-87.65 2449.46,-73.02 2534.75,-67.72"/>
<polygon fill="black" stroke="black" points="2535.19,-71.2 2544.96,-67.09 2534.76,-64.21 2535.19,-71.2"/>
</g>
<!-- KIDSNw1 -->
<g id="node26" class="node">
<title>KIDSNw1</title>
<g id="a_node26"><a xlink:href="inet.examples.inet.kidsnw1.KIDSNw1.html" xlink:title="Network KIDSNw1" target="_parent">
<polygon fill="#d0d0ff" stroke="black" points="2125,-129 2063,-129 2063,-110 2125,-110 2125,-129"/>
<text text-anchor="middle" x="2094" y="-117" font-family="Helvetica,sans-Serif" font-size="10.00">KIDSNw1</text>
</a>
</g>
</g>
<!-- KIDSNw1&#45;&gt;Router -->
<g id="edge28" class="edge">
<title>KIDSNw1&#45;&gt;Router</title>
<path fill="none" stroke="black" d="M2125.38,-111.5C2128.29,-110.95 2131.19,-110.44 2134,-110 2281.67,-86.88 2459.31,-73.11 2534.97,-67.9"/>
<polygon fill="black" stroke="black" points="2535.22,-71.4 2544.96,-67.23 2534.74,-64.41 2535.22,-71.4"/>
</g>
<!-- MixedNetwork -->
<g id="node27" class="node">
<title>MixedNetwork</title>
<g id="a_node27"><a xlink:href="inet.examples.rip.mixednetwork.MixedNetwork.html" xlink:title="Network MixedNetwork" target="_parent">
<polygon fill="#d0d0ff" stroke="black" points="2230.5,-129 2143.5,-129 2143.5,-110 2230.5,-110 2230.5,-129"/>
<text text-anchor="middle" x="2187" y="-117" font-family="Helvetica,sans-Serif" font-size="10.00">MixedNetwork</text>
</a>
</g>
</g>
<!-- MixedNetwork&#45;&gt;Router -->
<g id="edge29" class="edge">
<title>MixedNetwork&#45;&gt;Router</title>
<path fill="none" stroke="black" d="M2230.66,-111.41C2233.82,-110.92 2236.96,-110.45 2240,-110 2346.87,-94.27 2473.45,-77.94 2534.87,-70.16"/>
<polygon fill="black" stroke="black" points="2535.37,-73.62 2544.85,-68.9 2534.49,-66.68 2535.37,-73.62"/>
</g>
<!-- multi -->
<g id="node28" class="node">
<title>multi</title>
<g id="a_node28"><a xlink:href="inet.examples.sctp.multihomed.multi.html" xlink:title="Network multi" target="_parent">
<polygon fill="#d0d0ff" stroke="black" points="2303,-129 2249,-129 2249,-110 2303,-110 2303,-129"/>
<text text-anchor="middle" x="2276" y="-117" font-family="Helvetica,sans-Serif" font-size="10.00">multi</text>
</a>
</g>
</g>
<!-- multi&#45;&gt;Router -->
<g id="edge30" class="edge">
<title>multi&#45;&gt;Router</title>
<path fill="none" stroke="black" d="M2303.09,-111.91C2306.09,-111.24 2309.11,-110.59 2312,-110 2390.97,-93.93 2484.24,-78.93 2534.82,-71.12"/>
<polygon fill="black" stroke="black" points="2535.59,-74.54 2544.95,-69.56 2534.53,-67.62 2535.59,-74.54"/>
</g>
<!-- MulticastNetwork -->
<g id="node29" class="node">
<title>MulticastNetwork</title>
<g id="a_node29"><a xlink:href="inet.examples.inet.multicast.MulticastNetwork.html" xlink:title="Network MulticastNetwork" target="_parent">
<polygon fill="#d0d0ff" stroke="black" points="2424.5,-129 2321.5,-129 2321.5,-110 2424.5,-110 2424.5,-129"/>
<text text-anchor="middle" x="2373" y="-117" font-family="Helvetica,sans-Serif" font-size="10.00">MulticastNetwork</text>
</a>
</g>
</g>
<!-- MulticastNetwork&#45;&gt;Router -->
<g id="edge31" class="edge">
<title>MulticastNetwork&#45;&gt;Router</title>
<path fill="none" stroke="black" d="M2404.97,-109.98C2440.42,-100.54 2497.53,-85.33 2534.91,-75.38"/>
<polygon fill="black" stroke="black" points="2536.14,-78.67 2544.9,-72.72 2534.34,-71.91 2536.14,-78.67"/>
</g>
<!-- multihomed -->
<g id="node30" class="node">
<title>multihomed</title>
<g id="a_node30"><a xlink:href="inet.examples.sctp.cmttest.multihomed.html" xlink:title="Network multihomed" target="_parent">
<polygon fill="#d0d0ff" stroke="black" points="2519,-129 2443,-129 2443,-110 2519,-110 2519,-129"/>
<text text-anchor="middle" x="2481" y="-117" font-family="Helvetica,sans-Serif" font-size="10.00">multihomed</text>
</a>
</g>
</g>
<!-- multihomed&#45;&gt;Router -->
<g id="edge32" class="edge">
<title>multihomed&#45;&gt;Router</title>
<path fill="none" stroke="black" d="M2495.62,-109.98C2509.86,-101.69 2531.75,-88.94 2548.45,-79.22"/>
<polygon fill="black" stroke="black" points="2550.23,-82.23 2557.11,-74.17 2546.71,-76.18 2550.23,-82.23"/>
</g>
<!-- MultiRadio -->
<g id="node31" class="node">
<title>MultiRadio</title>
<g id="a_node31"><a xlink:href="inet.examples.wireless.multiradio.MultiRadio.html" xlink:title="Network MultiRadio" target="_parent">
<polygon fill="#d0d0ff" stroke="black" points="2606.5,-129 2537.5,-129 2537.5,-110 2606.5,-110 2606.5,-129"/>
<text text-anchor="middle" x="2572" y="-117" font-family="Helvetica,sans-Serif" font-size="10.00">MultiRadio</text>
</a>
</g>
</g>
<!-- MultiRadio&#45;&gt;Router -->
<g id="edge33" class="edge">
<title>MultiRadio&#45;&gt;Router</title>
<path fill="none" stroke="black" d="M2572,-109.75C2572,-102.8 2572,-92.85 2572,-84.13"/>
<polygon fill="black" stroke="black" points="2575.5,-84.09 2572,-74.09 2568.5,-84.09 2575.5,-84.09"/>
</g>
<!-- NClients -->
<g id="node32" class="node">
<title>NClients</title>
<g id="a_node32"><a xlink:href="inet.examples.sctp.nclients.NClients.html" xlink:title="Network NClients" target="_parent">
<polygon fill="#d0d0ff" stroke="black" points="2683,-129 2625,-129 2625,-110 2683,-110 2683,-129"/>
<text text-anchor="middle" x="2654" y="-117" font-family="Helvetica,sans-Serif" font-size="10.00">NClients</text>
</a>
</g>
</g>
<!-- NClients&#45;&gt;Router -->
<g id="edge34" class="edge">
<title>NClients&#45;&gt;Router</title>
<path fill="none" stroke="black" d="M2630.6,-109.98C2614.86,-102.07 2595.66,-90.11 2583.02,-80.58"/>
<polygon fill="black" stroke="black" points="2585.09,-77.75 2575.12,-74.17 2580.68,-83.19 2585.09,-77.75"/>
</g>
<!-- NClients&#45;&gt;Router -->
<g id="edge35" class="edge">
<title>NClients&#45;&gt;Router</title>
<path fill="none" stroke="black" d="M2640.83,-109.98C2628.23,-101.84 2609,-89.41 2594.06,-79.76"/>
<polygon fill="black" stroke="black" points="2595.71,-76.66 2585.41,-74.17 2591.91,-82.54 2595.71,-76.66"/>
</g>
<!-- NClients&#45;&gt;Router -->
<g id="edge36" class="edge">
<title>NClients&#45;&gt;Router</title>
<path fill="none" stroke="black" d="M2651.05,-109.98C2641.8,-101.61 2622.39,-88.7 2604.73,-78.95"/>
<polygon fill="black" stroke="black" points="2606.19,-75.76 2595.71,-74.17 2602.91,-81.94 2606.19,-75.76"/>
</g>
<!-- NClients2 -->
<g id="node33" class="node">
<title>NClients2</title>
<g id="a_node33"><a xlink:href="inet.examples.inet.nclients.NClients2.html" xlink:title="Network NClients2" target="_parent">
<polygon fill="#d0d0ff" stroke="black" points="2765,-129 2701,-129 2701,-110 2765,-110 2765,-129"/>
<text text-anchor="middle" x="2733" y="-117" font-family="Helvetica,sans-Serif" font-size="10.00">NClients2</text>
</a>
</g>
</g>
<!-- NClients2&#45;&gt;Router -->
<g id="edge37" class="edge">
<title>NClients2&#45;&gt;Router</title>
<path fill="none" stroke="black" d="M2707.13,-109.98C2680.22,-101.13 2637.88,-87.19 2607.77,-77.28"/>
<polygon fill="black" stroke="black" points="2608.66,-73.88 2598.07,-74.08 2606.47,-80.53 2608.66,-73.88"/>
</g>
<!-- Network -->
<g id="node34" class="node">
<title>Network</title>
<g id="a_node34"><a xlink:href="inet.examples.inet.igmp.Network.html" xlink:title="Network Network" target="_parent">
<polygon fill="#d0d0ff" stroke="black" points="2841,-129 2783,-129 2783,-110 2841,-110 2841,-129"/>
<text text-anchor="middle" x="2812" y="-117" font-family="Helvetica,sans-Serif" font-size="10.00">Network</text>
</a>
</g>
</g>
<!-- Network&#45;&gt;Router -->
<g id="edge38" class="edge">
<title>Network&#45;&gt;Router</title>
<path fill="none" stroke="black" d="M2782.96,-111.99C2779.93,-111.32 2776.9,-110.64 2774,-110 2716.43,-97.22 2649.61,-82.53 2609.09,-73.63"/>
<polygon fill="black" stroke="black" points="2609.64,-70.17 2599.12,-71.45 2608.14,-77.01 2609.64,-70.17"/>
</g>
<!-- NetworkPathComplexShowcase -->
<g id="node35" class="node">
<title>NetworkPathComplexShowcase</title>
<g id="a_node35"><a xlink:href="inet.showcases.visualizer.canvas.networkpathactivity.NetworkPathComplexShowcase.html" xlink:title="Network NetworkPathComplexShowcase" target="_parent">
<polygon fill="#d0d0ff" stroke="black" points="3030.5,-129 2859.5,-129 2859.5,-110 3030.5,-110 3030.5,-129"/>
<text text-anchor="middle" x="2945" y="-117" font-family="Helvetica,sans-Serif" font-size="10.00">NetworkPathComplexShowcase</text>
</a>
</g>
</g>
<!-- NetworkPathComplexShowcase&#45;&gt;Router -->
<g id="edge39" class="edge">
<title>NetworkPathComplexShowcase&#45;&gt;Router</title>
<path fill="none" stroke="black" d="M2885.07,-109.98C2807.24,-98.92 2673.71,-79.95 2609.13,-70.78"/>
<polygon fill="black" stroke="black" points="2609.4,-67.28 2599.01,-69.34 2608.42,-74.21 2609.4,-67.28"/>
</g>
<!-- NetworkPathRIPShowcase -->
<g id="node36" class="node">
<title>NetworkPathRIPShowcase</title>
<g id="a_node36"><a xlink:href="inet.showcases.visualizer.canvas.networkpathactivity.NetworkPathRIPShowcase.html" xlink:title="Network NetworkPathRIPShowcase" target="_parent">
<polygon fill="#d0d0ff" stroke="black" points="3191.5,-129 3048.5,-129 3048.5,-110 3191.5,-110 3191.5,-129"/>
<text text-anchor="middle" x="3120" y="-117" font-family="Helvetica,sans-Serif" font-size="10.00">NetworkPathRIPShowcase</text>
</a>
</g>
</g>
<!-- NetworkPathRIPShowcase&#45;&gt;Router -->
<g id="edge40" class="edge">
<title>NetworkPathRIPShowcase&#45;&gt;Router</title>
<path fill="none" stroke="black" d="M3048.47,-110.86C3045.61,-110.57 3042.78,-110.28 3040,-110 2879.71,-93.86 2688.37,-76.16 2609.16,-68.89"/>
<polygon fill="black" stroke="black" points="2609.46,-65.41 2599.18,-67.98 2608.82,-72.38 2609.46,-65.41"/>
</g>
<!-- PacketDropQueueOverflowShowcase -->
<g id="node37" class="node">
<title>PacketDropQueueOverflowShowcase</title>
<g id="a_node37"><a xlink:href="inet.showcases.visualizer.canvas.packetdrop.PacketDropQueueOverflowShowcase.html" xlink:title="Network PacketDropQueueOverflowShowcase" target="_parent">
<polygon fill="#d0d0ff" stroke="black" points="3404.5,-129 3209.5,-129 3209.5,-110 3404.5,-110 3404.5,-129"/>
<text text-anchor="middle" x="3307" y="-117" font-family="Helvetica,sans-Serif" font-size="10.00">PacketDropQueueOverflowShowcase</text>
</a>
</g>
</g>
<!-- PacketDropQueueOverflowShowcase&#45;&gt;Router -->
<g id="edge41" class="edge">
<title>PacketDropQueueOverflowShowcase&#45;&gt;Router</title>
<path fill="none" stroke="black" d="M3209.39,-110.64C3206.56,-110.42 3203.76,-110.21 3201,-110 2976.62,-93.07 2707.06,-74.64 2609.52,-68.03"/>
<polygon fill="black" stroke="black" points="2609.5,-64.52 2599.29,-67.34 2609.03,-71.51 2609.5,-64.52"/>
</g>
<!-- PcapRecordingShowcase -->
<g id="node38" class="node">
<title>PcapRecordingShowcase</title>
<g id="a_node38"><a xlink:href="inet.showcases.general.pcaprecording.PcapRecordingShowcase.html" xlink:title="Network PcapRecordingShowcase" target="_parent">
<polygon fill="#d0d0ff" stroke="black" points="3559.5,-129 3422.5,-129 3422.5,-110 3559.5,-110 3559.5,-129"/>
<text text-anchor="middle" x="3491" y="-117" font-family="Helvetica,sans-Serif" font-size="10.00">PcapRecordingShowcase</text>
</a>
</g>
</g>
<!-- PcapRecordingShowcase&#45;&gt;Router -->
<g id="edge42" class="edge">
<title>PcapRecordingShowcase&#45;&gt;Router</title>
<path fill="none" stroke="black" d="M3422.17,-110.7C3419.41,-110.45 3416.68,-110.22 3414,-110 3103.8,-84.7 2728.07,-70.73 2609.63,-66.72"/>
<polygon fill="black" stroke="black" points="2609.41,-63.21 2599.3,-66.38 2609.17,-70.21 2609.41,-63.21"/>
</g>
<!-- RedMarkerNetwork -->
<g id="node39" class="node">
<title>RedMarkerNetwork</title>
<g id="a_node39"><a xlink:href="inet.examples.inet.redmarker.RedMarkerNetwork.html" xlink:title="Network RedMarkerNetwork" target="_parent">
<polygon fill="#d0d0ff" stroke="black" points="3688,-129 3578,-129 3578,-110 3688,-110 3688,-129"/>
<text text-anchor="middle" x="3633" y="-117" font-family="Helvetica,sans-Serif" font-size="10.00">RedMarkerNetwork</text>
</a>
</g>
</g>
<!-- RedMarkerNetwork&#45;&gt;Router -->
<g id="edge43" class="edge">
<title>RedMarkerNetwork&#45;&gt;Router</title>
<path fill="none" stroke="black" d="M3577.88,-110.87C3574.88,-110.55 3571.9,-110.26 3569,-110 3195.49,-76.93 2740.98,-67.97 2609.35,-65.99"/>
<polygon fill="black" stroke="black" points="2609.07,-62.49 2599.02,-65.84 2608.97,-69.49 2609.07,-62.49"/>
</g>
<!-- RegressionTestingTutorialWired -->
<g id="node40" class="node">
<title>RegressionTestingTutorialWired</title>
<g id="a_node40"><a xlink:href="inet.tutorials.fingerprint.RegressionTestingTutorialWired.html" xlink:title="Network RegressionTestingTutorialWired" target="_parent">
<polygon fill="#d0d0ff" stroke="black" points="3876,-129 3706,-129 3706,-110 3876,-110 3876,-129"/>
<text text-anchor="middle" x="3791" y="-117" font-family="Helvetica,sans-Serif" font-size="10.00">RegressionTestingTutorialWired</text>
</a>
</g>
</g>
<!-- RegressionTestingTutorialWired&#45;&gt;Router -->
<g id="edge44" class="edge">
<title>RegressionTestingTutorialWired&#45;&gt;Router</title>
<path fill="none" stroke="black" d="M3705.96,-110.62C3702.94,-110.4 3699.94,-110.19 3697,-110 3270.22,-82.28 2751.17,-69.44 2609.33,-66.29"/>
<polygon fill="black" stroke="black" points="2609.09,-62.78 2599.02,-66.06 2608.94,-69.78 2609.09,-62.78"/>
</g>
<!-- RIPInfinityCountTest -->
<g id="node41" class="node">
<title>RIPInfinityCountTest</title>
<g id="a_node41"><a xlink:href="inet.examples.rip.infinitycount.RIPInfinityCountTest.html" xlink:title="Network RIPInfinityCountTest" target="_parent">
<polygon fill="#d0d0ff" stroke="black" points="4008,-129 3894,-129 3894,-110 4008,-110 4008,-129"/>
<text text-anchor="middle" x="3951" y="-117" font-family="Helvetica,sans-Serif" font-size="10.00">RIPInfinityCountTest</text>
</a>
</g>
</g>
<!-- RIPInfinityCountTest&#45;&gt;Router -->
<g id="edge45" class="edge">
<title>RIPInfinityCountTest&#45;&gt;Router</title>
<path fill="none" stroke="black" d="M3893.8,-110.8C3890.82,-110.5 3887.88,-110.23 3885,-110 3381.1,-69.1 2765.45,-65.67 2609.34,-65.48"/>
<polygon fill="black" stroke="black" points="2609.32,-61.98 2599.32,-65.47 2609.31,-68.98 2609.32,-61.98"/>
</g>
<!-- RouterPerfNetwork -->
<g id="node42" class="node">
<title>RouterPerfNetwork</title>
<g id="a_node42"><a xlink:href="inet.examples.inet.routerperf.RouterPerfNetwork.html" xlink:title="Network RouterPerfNetwork" target="_parent">
<polygon fill="#d0d0ff" stroke="black" points="4136,-129 4026,-129 4026,-110 4136,-110 4136,-129"/>
<text text-anchor="middle" x="4081" y="-117" font-family="Helvetica,sans-Serif" font-size="10.00">RouterPerfNetwork</text>
</a>
</g>
</g>
<!-- RouterPerfNetwork&#45;&gt;Router -->
<g id="edge46" class="edge">
<title>RouterPerfNetwork&#45;&gt;Router</title>
<path fill="none" stroke="black" d="M4025.88,-110.82C4022.88,-110.51 4019.9,-110.24 4017,-110 3458.29,-64.41 2774.59,-64.5 2609.26,-65.26"/>
<polygon fill="black" stroke="black" points="2609.11,-61.76 2599.13,-65.31 2609.15,-68.76 2609.11,-61.76"/>
</g>
<!-- RoutingTableVisualizationDisplayingAllShowcase -->
<g id="node43" class="node">
<title>RoutingTableVisualizationDisplayingAllShowcase</title>
<g id="a_node43"><a xlink:href="inet.showcases.visualizer.canvas.routingtable.RoutingTableVisualizationDisplayingAllShowcase.html" xlink:title="Network RoutingTableVisualizationDisplayingAllShowcase" target="_parent">
<polygon fill="#d0d0ff" stroke="black" points="4410,-129 4154,-129 4154,-110 4410,-110 4410,-129"/>
<text text-anchor="middle" x="4282" y="-117" font-family="Helvetica,sans-Serif" font-size="10.00">RoutingTableVisualizationDisplayingAllShowcase</text>
</a>
</g>
</g>
<!-- RoutingTableVisualizationDisplayingAllShowcase&#45;&gt;Router -->
<g id="edge47" class="edge">
<title>RoutingTableVisualizationDisplayingAllShowcase&#45;&gt;Router</title>
<path fill="none" stroke="black" d="M4153.66,-110.41C4150.75,-110.26 4147.86,-110.13 4145,-110 3532.16,-82.33 2784.18,-68.96 2609.64,-66.1"/>
<polygon fill="black" stroke="black" points="2609.5,-62.59 2599.44,-65.93 2609.38,-69.59 2609.5,-62.59"/>
</g>
<!-- RoutingTableVisualizationFilteringShowcase -->
<g id="node44" class="node">
<title>RoutingTableVisualizationFilteringShowcase</title>
<g id="a_node44"><a xlink:href="inet.showcases.visualizer.canvas.routingtable.RoutingTableVisualizationFilteringShowcase.html" xlink:title="Network RoutingTableVisualizationFilteringShowcase" target="_parent">
<polygon fill="#d0d0ff" stroke="black" points="4659.5,-129 4428.5,-129 4428.5,-110 4659.5,-110 4659.5,-129"/>
<text text-anchor="middle" x="4544" y="-117" font-family="Helvetica,sans-Serif" font-size="10.00">RoutingTableVisualizationFilteringShowcase</text>
</a>
</g>
</g>
<!-- RoutingTableVisualizationFilteringShowcase&#45;&gt;Router -->
<g id="edge48" class="edge">
<title>RoutingTableVisualizationFilteringShowcase&#45;&gt;Router</title>
<path fill="none" stroke="black" d="M4428.24,-110.45C4425.13,-110.29 4422.04,-110.14 4419,-110 3691.01,-76.49 2800.37,-67.41 2609.22,-65.79"/>
<polygon fill="black" stroke="black" points="2609.16,-62.29 2599.13,-65.71 2609.1,-69.29 2609.16,-62.29"/>
</g>
<!-- RTPMulticast1 -->
<g id="node45" class="node">
<title>RTPMulticast1</title>
<g id="a_node45"><a xlink:href="inet.examples.rtp.multicast1.RTPMulticast1.html" xlink:title="Network RTPMulticast1" target="_parent">
<polygon fill="#d0d0ff" stroke="black" points="4764,-129 4678,-129 4678,-110 4764,-110 4764,-129"/>
<text text-anchor="middle" x="4721" y="-117" font-family="Helvetica,sans-Serif" font-size="10.00">RTPMulticast1</text>
</a>
</g>
</g>
<!-- RTPMulticast1&#45;&gt;Router -->
<g id="edge49" class="edge">
<title>RTPMulticast1&#45;&gt;Router</title>
<path fill="none" stroke="black" d="M4677.93,-110.98C4674.91,-110.6 4671.91,-110.27 4669,-110 4246.49,-71.18 2855.54,-66.16 2609.4,-65.57"/>
<polygon fill="black" stroke="black" points="2609.19,-62.07 2599.18,-65.55 2609.18,-69.07 2609.19,-62.07"/>
</g>
<!-- RTPUnicast1 -->
<g id="node46" class="node">
<title>RTPUnicast1</title>
<g id="a_node46"><a xlink:href="inet.examples.rtp.unicast1.RTPUnicast1.html" xlink:title="Network RTPUnicast1" target="_parent">
<polygon fill="#d0d0ff" stroke="black" points="4859.5,-129 4782.5,-129 4782.5,-110 4859.5,-110 4859.5,-129"/>
<text text-anchor="middle" x="4821" y="-117" font-family="Helvetica,sans-Serif" font-size="10.00">RTPUnicast1</text>
</a>
</g>
</g>
<!-- RTPUnicast1&#45;&gt;Router -->
<g id="edge50" class="edge">
<title>RTPUnicast1&#45;&gt;Router</title>
<path fill="none" stroke="black" d="M4782.3,-111.12C4779.16,-110.68 4776.03,-110.3 4773,-110 4328.64,-66.43 2862.02,-65.32 2609.26,-65.46"/>
<polygon fill="black" stroke="black" points="2609.12,-61.96 2599.12,-65.47 2609.13,-68.96 2609.12,-61.96"/>
</g>
<!-- SimpleContinentCloud -->
<g id="node47" class="node">
<title>SimpleContinentCloud</title>
<g id="a_node47"><a xlink:href="inet.examples.internetcloud.earthcloud.SimpleContinentCloud.html" xlink:title="Network SimpleContinentCloud" target="_parent">
<polygon fill="#d0d0ff" stroke="black" points="5002.5,-129 4877.5,-129 4877.5,-110 5002.5,-110 5002.5,-129"/>
<text text-anchor="middle" x="4940" y="-117" font-family="Helvetica,sans-Serif" font-size="10.00">SimpleContinentCloud</text>
</a>
</g>
</g>
<!-- SimpleContinentCloud&#45;&gt;Router -->
<g id="edge51" class="edge">
<title>SimpleContinentCloud&#45;&gt;Router</title>
<path fill="none" stroke="black" d="M4877.31,-110.65C4874.51,-110.41 4871.72,-110.19 4869,-110 4403.2,-77.69 2868.12,-67.26 2609.23,-65.71"/>
<polygon fill="black" stroke="black" points="2609.23,-62.21 2599.21,-65.65 2609.19,-69.21 2609.23,-62.21"/>
</g>
<!-- testNetwork -->
<g id="node48" class="node">
<title>testNetwork</title>
<g id="a_node48"><a xlink:href="inet.examples.inet.netperfmeter.testNetwork.html" xlink:title="Network testNetwork" target="_parent">
<polygon fill="#d0d0ff" stroke="black" points="5097.5,-129 5020.5,-129 5020.5,-110 5097.5,-110 5097.5,-129"/>
<text text-anchor="middle" x="5059" y="-117" font-family="Helvetica,sans-Serif" font-size="10.00">testNetwork</text>
</a>
</g>
</g>
<!-- testNetwork&#45;&gt;Router -->
<g id="edge52" class="edge">
<title>testNetwork&#45;&gt;Router</title>
<path fill="none" stroke="black" d="M5020.34,-111C5017.53,-110.61 5014.72,-110.27 5012,-110 4517.13,-61.06 2878.16,-64.46 2609.43,-65.36"/>
<polygon fill="black" stroke="black" points="2609.04,-61.86 2599.05,-65.39 2609.06,-68.86 2609.04,-61.86"/>
</g>
<!-- TransportConnectionVisualizationMultipleConnectionsShowcase -->
<g id="node49" class="node">
<title>TransportConnectionVisualizationMultipleConnectionsShowcase</title>
<g id="a_node49"><a xlink:href="inet.showcases.visualizer.canvas.transportconnection.TransportConnectionVisualizationMultipleConnectionsShowcase.html" xlink:title="Network TransportConnectionVisualizationMultipleConnectionsShowcase" target="_parent">
<polygon fill="#d0d0ff" stroke="black" points="5444,-129 5116,-129 5116,-110 5444,-110 5444,-129"/>
<text text-anchor="middle" x="5280" y="-117" font-family="Helvetica,sans-Serif" font-size="10.00">TransportConnectionVisualizationMultipleConnectionsShowcase</text>
</a>
</g>
</g>
<!-- TransportConnectionVisualizationMultipleConnectionsShowcase&#45;&gt;Router -->
<g id="edge53" class="edge">
<title>TransportConnectionVisualizationMultipleConnectionsShowcase&#45;&gt;Router</title>
<path fill="none" stroke="black" d="M5115.64,-110.3C5112.74,-110.19 5109.86,-110.1 5107,-110 4088.78,-76.06 2839.59,-67.12 2609.37,-65.71"/>
<polygon fill="black" stroke="black" points="2609.21,-62.21 2599.19,-65.65 2609.16,-69.21 2609.21,-62.21"/>
</g>
<!-- TransportPathVisualizerFilteringShowcase -->
<g id="node50" class="node">
<title>TransportPathVisualizerFilteringShowcase</title>
<g id="a_node50"><a xlink:href="inet.showcases.visualizer.canvas.transportpathactivity.TransportPathVisualizerFilteringShowcase.html" xlink:title="Network TransportPathVisualizerFilteringShowcase" target="_parent">
<polygon fill="#d0d0ff" stroke="black" points="5681.5,-129 5462.5,-129 5462.5,-110 5681.5,-110 5681.5,-129"/>
<text text-anchor="middle" x="5572" y="-117" font-family="Helvetica,sans-Serif" font-size="10.00">TransportPathVisualizerFilteringShowcase</text>
</a>
</g>
</g>
<!-- TransportPathVisualizerFilteringShowcase&#45;&gt;Router -->
<g id="edge54" class="edge">
<title>TransportPathVisualizerFilteringShowcase&#45;&gt;Router</title>
<path fill="none" stroke="black" d="M5462.43,-110.44C5459.25,-110.28 5456.1,-110.13 5453,-110 4288.37,-59.45 2856.75,-64.06 2609.28,-65.29"/>
<polygon fill="black" stroke="black" points="2609.01,-61.79 2599.03,-65.34 2609.05,-68.79 2609.01,-61.79"/>
</g>
<!-- Tunnel -->
<g id="node51" class="node">
<title>Tunnel</title>
<g id="a_node51"><a xlink:href="inet.examples.inet.tunnel.Tunnel.html" xlink:title="Network Tunnel" target="_parent">
<polygon fill="#d0d0ff" stroke="black" points="5754,-129 5700,-129 5700,-110 5754,-110 5754,-129"/>
<text text-anchor="middle" x="5727" y="-117" font-family="Helvetica,sans-Serif" font-size="10.00">Tunnel</text>
</a>
</g>
</g>
<!-- Tunnel&#45;&gt;Router -->
<g id="edge55" class="edge">
<title>Tunnel&#45;&gt;Router</title>
<path fill="none" stroke="black" d="M5699.99,-111.46C5696.97,-110.87 5693.93,-110.36 5691,-110 5370.5,-70.36 2939.33,-65.96 2609.1,-65.54"/>
<polygon fill="black" stroke="black" points="2609.09,-62.04 2599.09,-65.53 2609.08,-69.04 2609.09,-62.04"/>
</g>
<!-- UDPBroadcastNetwork -->
<g id="node52" class="node">
<title>UDPBroadcastNetwork</title>
<g id="a_node52"><a xlink:href="inet.examples.inet.broadcast.UDPBroadcastNetwork.html" xlink:title="Network UDPBroadcastNetwork" target="_parent">
<polygon fill="#d0d0ff" stroke="black" points="5900,-129 5772,-129 5772,-110 5900,-110 5900,-129"/>
<text text-anchor="middle" x="5836" y="-117" font-family="Helvetica,sans-Serif" font-size="10.00">UDPBroadcastNetwork</text>
</a>
</g>
</g>
<!-- UDPBroadcastNetwork&#45;&gt;Router -->
<g id="edge56" class="edge">
<title>UDPBroadcastNetwork&#45;&gt;Router</title>
<path fill="none" stroke="black" d="M5771.94,-110.67C5768.92,-110.42 5765.93,-110.19 5763,-110 5106.64,-67.32 2922.85,-65.53 2609.56,-65.49"/>
<polygon fill="black" stroke="black" points="2609.21,-61.99 2599.21,-65.49 2609.21,-68.99 2609.21,-61.99"/>
</g>
<!-- UDPBurst -->
<g id="node53" class="node">
<title>UDPBurst</title>
<g id="a_node53"><a xlink:href="inet.examples.inet.udpburst.UDPBurst.html" xlink:title="Network UDPBurst" target="_parent">
<polygon fill="#d0d0ff" stroke="black" points="5981.5,-129 5918.5,-129 5918.5,-110 5981.5,-110 5981.5,-129"/>
<text text-anchor="middle" x="5950" y="-117" font-family="Helvetica,sans-Serif" font-size="10.00">UDPBurst</text>
</a>
</g>
</g>
<!-- UDPBurst&#45;&gt;Router -->
<g id="edge57" class="edge">
<title>UDPBurst&#45;&gt;Router</title>
<path fill="none" stroke="black" d="M5918.31,-111.31C5915.18,-110.78 5912.04,-110.33 5909,-110 5564.74,-72.37 2952.84,-66.21 2609.26,-65.56"/>
<polygon fill="black" stroke="black" points="2609.1,-62.06 2599.09,-65.55 2609.09,-69.06 2609.1,-62.06"/>
</g>
<!-- WiredAndWirelessHostsWithAP -->
<g id="node54" class="node">
<title>WiredAndWirelessHostsWithAP</title>
<g id="a_node54"><a xlink:href="inet.examples.wireless.wiredandwirelesshostswithap.WiredAndWirelessHostsWithAP.html" xlink:title="Network WiredAndWirelessHostsWithAP" target="_parent">
<polygon fill="#d0d0ff" stroke="black" points="6168.5,-129 5999.5,-129 5999.5,-110 6168.5,-110 6168.5,-129"/>
<text text-anchor="middle" x="6084" y="-117" font-family="Helvetica,sans-Serif" font-size="10.00">WiredAndWirelessHostsWithAP</text>
</a>
</g>
</g>
<!-- WiredAndWirelessHostsWithAP&#45;&gt;Router -->
<g id="edge58" class="edge">
<title>WiredAndWirelessHostsWithAP&#45;&gt;Router</title>
<path fill="none" stroke="black" d="M5999.37,-110.48C5996.55,-110.31 5993.75,-110.14 5991,-110 5285.4,-73.22 2935.78,-66.36 2609.68,-65.58"/>
<polygon fill="black" stroke="black" points="2609.36,-62.08 2599.36,-65.56 2609.35,-69.08 2609.36,-62.08"/>
</g>
<!-- WirelessNetWithDHCP -->
<g id="node55" class="node">
<title>WirelessNetWithDHCP</title>
<g id="a_node55"><a xlink:href="inet.examples.dhcp.WirelessNetWithDHCP.html" xlink:title="Network WirelessNetWithDHCP" target="_parent">
<polygon fill="#d0d0ff" stroke="black" points="6313,-129 6187,-129 6187,-110 6313,-110 6313,-129"/>
<text text-anchor="middle" x="6250" y="-117" font-family="Helvetica,sans-Serif" font-size="10.00">WirelessNetWithDHCP</text>
</a>
</g>
</g>
<!-- WirelessNetWithDHCP&#45;&gt;Router -->
<g id="edge59" class="edge">
<title>WirelessNetWithDHCP&#45;&gt;Router</title>
<path fill="none" stroke="black" d="M6186.82,-110.66C6183.84,-110.41 6180.89,-110.19 6178,-110 5432.47,-61.53 2942.99,-64.76 2609.14,-65.42"/>
<polygon fill="black" stroke="black" points="2609.02,-61.92 2599.03,-65.44 2609.04,-68.92 2609.02,-61.92"/>
</g>
</g>
</svg>
