<?xml version="1.0" encoding="UTF-8" standalone="no"?>
<!DOCTYPE svg PUBLIC "-//W3C//DTD SVG 1.1//EN"
 "http://www.w3.org/Graphics/SVG/1.1/DTD/svg11.dtd">
<!-- Generated by graphviz version 2.43.0 (0)
 -->
<!-- Title: opp Pages: 1 -->
<svg width="394pt" height="137pt"
 viewBox="0.00 0.00 394.00 137.00" xmlns="http://www.w3.org/2000/svg" xmlns:xlink="http://www.w3.org/1999/xlink">
<g id="graph0" class="graph" transform="scale(1 1) rotate(0) translate(4 133)">
<title>opp</title>
<polygon fill="transparent" stroke="transparent" points="-4,4 -4,-133 390,-133 390,4 -4,4"/>
<!-- PassivePacketSinkBase -->
<g id="node1" class="node">
<title>PassivePacketSinkBase</title>
<g id="a_node1"><a xlink:href="inet.queueing.base.PassivePacketSinkBase.html" xlink:title="Simple Module PassivePacketSinkBase" target="_parent">
<polygon fill="#fff700" stroke="black" points="242,-74 112,-74 112,-55 242,-55 242,-74"/>
<text text-anchor="middle" x="177" y="-62" font-family="Helvetica,sans-Serif" font-size="10.00">PassivePacketSinkBase</text>
</a>
</g>
</g>
<!-- PacketPushToSend -->
<g id="node3" class="node">
<title>PacketPushToSend</title>
<g id="a_node3"><a xlink:href="inet.queueing.common.PacketPushToSend.html" xlink:title="Simple Module PacketPushToSend" target="_parent">
<polygon fill="#fffcaf" stroke="black" points="106,-19 0,-19 0,0 106,0 106,-19"/>
<text text-anchor="middle" x="53" y="-7" font-family="Helvetica,sans-Serif" font-size="10.00">PacketPushToSend</text>
</a>
</g>
</g>
<!-- PassivePacketSinkBase&#45;&gt;PacketPushToSend -->
<g id="edge2" class="edge">
<title>PassivePacketSinkBase&#45;&gt;PacketPushToSend</title>
<path fill="none" stroke="black" d="M157.08,-54.98C134.07,-45.15 96.44,-29.07 73.29,-19.17"/>
</g>
<!-- PassivePacketSink -->
<g id="node4" class="node">
<title>PassivePacketSink</title>
<g id="a_node4"><a xlink:href="inet.queueing.sink.PassivePacketSink.html" xlink:title="Simple Module PassivePacketSink" target="_parent">
<polygon fill="#fffcaf" stroke="black" points="230,-19 124,-19 124,0 230,0 230,-19"/>
<text text-anchor="middle" x="177" y="-7" font-family="Helvetica,sans-Serif" font-size="10.00">PassivePacketSink</text>
</a>
</g>
</g>
<!-- PassivePacketSinkBase&#45;&gt;PassivePacketSink -->
<g id="edge3" class="edge">
<title>PassivePacketSinkBase&#45;&gt;PassivePacketSink</title>
<path fill="none" stroke="black" d="M177,-54.75C177,-44.87 177,-28.9 177,-19.09"/>
</g>
<!-- PcapFilePacketConsumer -->
<g id="node5" class="node">
<title>PcapFilePacketConsumer</title>
<g id="a_node5"><a xlink:href="inet.queueing.sink.PcapFilePacketConsumer.html" xlink:title="Simple Module PcapFilePacketConsumer" target="_parent">
<polygon fill="#fffcaf" stroke="black" points="386,-19 248,-19 248,0 386,0 386,-19"/>
<text text-anchor="middle" x="317" y="-7" font-family="Helvetica,sans-Serif" font-size="10.00">PcapFilePacketConsumer</text>
</a>
</g>
</g>
<!-- PassivePacketSinkBase&#45;&gt;PcapFilePacketConsumer -->
<g id="edge4" class="edge">
<title>PassivePacketSinkBase&#45;&gt;PcapFilePacketConsumer</title>
<path fill="none" stroke="black" d="M199.49,-54.98C225.46,-45.15 267.95,-29.07 294.1,-19.17"/>
</g>
<!-- PacketSinkBase -->
<g id="node2" class="node">
<title>PacketSinkBase</title>
<g id="a_node2"><a xlink:href="inet.queueing.base.PacketSinkBase.html" xlink:title="Simple Module PacketSinkBase" target="_parent">
<polygon fill="#fffcaf" stroke="black" points="223.5,-129 130.5,-129 130.5,-110 223.5,-110 223.5,-129"/>
<text text-anchor="middle" x="177" y="-117" font-family="Helvetica,sans-Serif" font-size="10.00">PacketSinkBase</text>
</a>
</g>
</g>
<!-- PacketSinkBase&#45;&gt;PassivePacketSinkBase -->
<g id="edge1" class="edge">
<title>PacketSinkBase&#45;&gt;PassivePacketSinkBase</title>
<path fill="none" stroke="black" d="M177,-109.75C177,-99.87 177,-83.9 177,-74.09"/>
</g>
</g>
</svg>
