<?xml version="1.0" encoding="UTF-8" standalone="no"?>
<!DOCTYPE svg PUBLIC "-//W3C//DTD SVG 1.1//EN"
 "http://www.w3.org/Graphics/SVG/1.1/DTD/svg11.dtd">
<!-- Generated by graphviz version 2.43.0 (0)
 -->
<!-- Title: opp Pages: 1 -->
<svg width="883pt" height="137pt"
 viewBox="0.00 0.00 882.50 137.00" xmlns="http://www.w3.org/2000/svg" xmlns:xlink="http://www.w3.org/1999/xlink">
<g id="graph0" class="graph" transform="scale(1 1) rotate(0) translate(4 133)">
<title>opp</title>
<polygon fill="transparent" stroke="transparent" points="-4,4 -4,-133 878.5,-133 878.5,4 -4,4"/>
<!-- AntennaBase -->
<g id="node1" class="node">
<title>AntennaBase</title>
<g id="a_node1"><a xlink:href="inet.physicallayer.wireless.common.base.packetlevel.AntennaBase.html" xlink:title="Compound Module AntennaBase" target="_parent">
<polygon fill="#fff700" stroke="black" points="497.5,-74 416.5,-74 416.5,-55 497.5,-55 497.5,-74"/>
<text text-anchor="middle" x="457" y="-62" font-family="Helvetica,sans-Serif" font-size="10.00">AntennaBase</text>
</a>
</g>
</g>
<!-- AxiallySymmetricAntenna -->
<g id="node3" class="node">
<title>AxiallySymmetricAntenna</title>
<g id="a_node3"><a xlink:href="inet.physicallayer.wireless.common.antenna.AxiallySymmetricAntenna.html" xlink:title="Compound Module AxiallySymmetricAntenna" target="_parent">
<polygon fill="#fffcaf" stroke="black" points="144,-19 0,-19 0,0 144,0 144,-19"/>
<text text-anchor="middle" x="72" y="-7" font-family="Helvetica,sans-Serif" font-size="10.00">AxiallySymmetricAntenna</text>
</a>
</g>
</g>
<!-- AntennaBase&#45;&gt;AxiallySymmetricAntenna -->
<g id="edge2" class="edge">
<title>AntennaBase&#45;&gt;AxiallySymmetricAntenna</title>
<path fill="none" stroke="black" d="M416.16,-57.88C348.62,-48.58 213.25,-29.94 133.9,-19.02"/>
</g>
<!-- ConstantGainAntenna -->
<g id="node4" class="node">
<title>ConstantGainAntenna</title>
<g id="a_node4"><a xlink:href="inet.physicallayer.wireless.common.antenna.ConstantGainAntenna.html" xlink:title="Compound Module ConstantGainAntenna" target="_parent">
<polygon fill="#fffcaf" stroke="black" points="285.5,-19 162.5,-19 162.5,0 285.5,0 285.5,-19"/>
<text text-anchor="middle" x="224" y="-7" font-family="Helvetica,sans-Serif" font-size="10.00">ConstantGainAntenna</text>
</a>
</g>
</g>
<!-- AntennaBase&#45;&gt;ConstantGainAntenna -->
<g id="edge3" class="edge">
<title>AntennaBase&#45;&gt;ConstantGainAntenna</title>
<path fill="none" stroke="black" d="M419.56,-54.98C376.21,-45.12 305.2,-28.97 261.73,-19.08"/>
</g>
<!-- CosineAntenna -->
<g id="node5" class="node">
<title>CosineAntenna</title>
<g id="a_node5"><a xlink:href="inet.physicallayer.wireless.common.antenna.CosineAntenna.html" xlink:title="Compound Module CosineAntenna" target="_parent">
<polygon fill="#fffcaf" stroke="black" points="394,-19 304,-19 304,0 394,0 394,-19"/>
<text text-anchor="middle" x="349" y="-7" font-family="Helvetica,sans-Serif" font-size="10.00">CosineAntenna</text>
</a>
</g>
</g>
<!-- AntennaBase&#45;&gt;CosineAntenna -->
<g id="edge4" class="edge">
<title>AntennaBase&#45;&gt;CosineAntenna</title>
<path fill="none" stroke="black" d="M439.65,-54.98C419.61,-45.15 386.84,-29.07 366.67,-19.17"/>
</g>
<!-- DipoleAntenna -->
<g id="node6" class="node">
<title>DipoleAntenna</title>
<g id="a_node6"><a xlink:href="inet.physicallayer.wireless.common.antenna.DipoleAntenna.html" xlink:title="Compound Module DipoleAntenna" target="_parent">
<polygon fill="#fffcaf" stroke="black" points="501.5,-19 412.5,-19 412.5,0 501.5,0 501.5,-19"/>
<text text-anchor="middle" x="457" y="-7" font-family="Helvetica,sans-Serif" font-size="10.00">DipoleAntenna</text>
</a>
</g>
</g>
<!-- AntennaBase&#45;&gt;DipoleAntenna -->
<g id="edge5" class="edge">
<title>AntennaBase&#45;&gt;DipoleAntenna</title>
<path fill="none" stroke="black" d="M457,-54.75C457,-44.87 457,-28.9 457,-19.09"/>
</g>
<!-- InterpolatingAntenna -->
<g id="node7" class="node">
<title>InterpolatingAntenna</title>
<g id="a_node7"><a xlink:href="inet.physicallayer.wireless.common.antenna.InterpolatingAntenna.html" xlink:title="Compound Module InterpolatingAntenna" target="_parent">
<polygon fill="#fffcaf" stroke="black" points="638.5,-19 519.5,-19 519.5,0 638.5,0 638.5,-19"/>
<text text-anchor="middle" x="579" y="-7" font-family="Helvetica,sans-Serif" font-size="10.00">InterpolatingAntenna</text>
</a>
</g>
</g>
<!-- AntennaBase&#45;&gt;InterpolatingAntenna -->
<g id="edge6" class="edge">
<title>AntennaBase&#45;&gt;InterpolatingAntenna</title>
<path fill="none" stroke="black" d="M476.6,-54.98C499.23,-45.15 536.26,-29.07 559.04,-19.17"/>
</g>
<!-- IsotropicAntenna -->
<g id="node8" class="node">
<title>IsotropicAntenna</title>
<g id="a_node8"><a xlink:href="inet.physicallayer.wireless.common.antenna.IsotropicAntenna.html" xlink:title="Compound Module IsotropicAntenna" target="_parent">
<polygon fill="#fffcaf" stroke="black" points="755.5,-19 656.5,-19 656.5,0 755.5,0 755.5,-19"/>
<text text-anchor="middle" x="706" y="-7" font-family="Helvetica,sans-Serif" font-size="10.00">IsotropicAntenna</text>
</a>
</g>
</g>
<!-- AntennaBase&#45;&gt;IsotropicAntenna -->
<g id="edge7" class="edge">
<title>AntennaBase&#45;&gt;IsotropicAntenna</title>
<path fill="none" stroke="black" d="M497.01,-54.98C543.33,-45.12 619.22,-28.97 665.68,-19.08"/>
</g>
<!-- ParabolicAntenna -->
<g id="node9" class="node">
<title>ParabolicAntenna</title>
<g id="a_node9"><a xlink:href="inet.physicallayer.wireless.common.antenna.ParabolicAntenna.html" xlink:title="Compound Module ParabolicAntenna" target="_parent">
<polygon fill="#fffcaf" stroke="black" points="874.5,-19 773.5,-19 773.5,0 874.5,0 874.5,-19"/>
<text text-anchor="middle" x="824" y="-7" font-family="Helvetica,sans-Serif" font-size="10.00">ParabolicAntenna</text>
</a>
</g>
</g>
<!-- AntennaBase&#45;&gt;ParabolicAntenna -->
<g id="edge8" class="edge">
<title>AntennaBase&#45;&gt;ParabolicAntenna</title>
<path fill="none" stroke="black" d="M497.68,-57.63C565.14,-47.88 700.02,-28.41 773.48,-17.8"/>
</g>
<!-- IAntenna -->
<g id="node2" class="node">
<title>IAntenna</title>
<g id="a_node2"><a xlink:href="inet.physicallayer.wireless.common.contract.packetlevel.IAntenna.html" xlink:title="Module Interface IAntenna" target="_parent">
<polygon fill="#fffcaf" stroke="black" stroke-dasharray="5,2" points="487,-129 427,-129 427,-110 487,-110 487,-129"/>
<text text-anchor="middle" x="457" y="-117" font-family="Helvetica,sans-Serif" font-size="10.00">IAntenna</text>
</a>
</g>
</g>
<!-- IAntenna&#45;&gt;AntennaBase -->
<g id="edge1" class="edge">
<title>IAntenna&#45;&gt;AntennaBase</title>
<path fill="none" stroke="black" stroke-dasharray="5,2" d="M457,-109.75C457,-99.87 457,-83.9 457,-74.09"/>
</g>
</g>
</svg>
