<?xml version="1.0" encoding="UTF-8" standalone="no"?>
<!DOCTYPE svg PUBLIC "-//W3C//DTD SVG 1.1//EN"
 "http://www.w3.org/Graphics/SVG/1.1/DTD/svg11.dtd">
<!-- Generated by graphviz version 2.43.0 (0)
 -->
<!-- Title: opp Pages: 1 -->
<svg width="272pt" height="82pt"
 viewBox="0.00 0.00 271.50 82.00" xmlns="http://www.w3.org/2000/svg" xmlns:xlink="http://www.w3.org/1999/xlink">
<g id="graph0" class="graph" transform="scale(1 1) rotate(0) translate(4 78)">
<title>opp</title>
<polygon fill="transparent" stroke="transparent" points="-4,4 -4,-78 267.5,-78 267.5,4 -4,4"/>
<!-- IIpv4NodeConfigurator -->
<g id="node1" class="node">
<title>IIpv4NodeConfigurator</title>
<g id="a_node1"><a xlink:href="inet.networklayer.configurator.contract.IIpv4NodeConfigurator.html" xlink:title="Module Interface IIpv4NodeConfigurator" target="_parent">
<polygon fill="#fff700" stroke="black" stroke-dasharray="5,2" points="194,-74 68,-74 68,-55 194,-55 194,-74"/>
<text text-anchor="middle" x="131" y="-62" font-family="Helvetica,sans-Serif" font-size="10.00">IIpv4NodeConfigurator</text>
</a>
</g>
</g>
<!-- HostAutoConfigurator -->
<g id="node2" class="node">
<title>HostAutoConfigurator</title>
<g id="a_node2"><a xlink:href="inet.networklayer.configurator.ipv4.HostAutoConfigurator.html" xlink:title="Simple Module HostAutoConfigurator" target="_parent">
<polygon fill="#fffcaf" stroke="black" points="122,-19 0,-19 0,0 122,0 122,-19"/>
<text text-anchor="middle" x="61" y="-7" font-family="Helvetica,sans-Serif" font-size="10.00">HostAutoConfigurator</text>
</a>
</g>
</g>
<!-- IIpv4NodeConfigurator&#45;&gt;HostAutoConfigurator -->
<g id="edge1" class="edge">
<title>IIpv4NodeConfigurator&#45;&gt;HostAutoConfigurator</title>
<path fill="none" stroke="black" stroke-dasharray="5,2" d="M119.75,-54.98C106.77,-45.15 85.52,-29.07 72.45,-19.17"/>
</g>
<!-- Ipv4NodeConfigurator -->
<g id="node3" class="node">
<title>Ipv4NodeConfigurator</title>
<g id="a_node3"><a xlink:href="inet.networklayer.configurator.ipv4.Ipv4NodeConfigurator.html" xlink:title="Simple Module Ipv4NodeConfigurator" target="_parent">
<polygon fill="#fffcaf" stroke="black" points="263.5,-19 140.5,-19 140.5,0 263.5,0 263.5,-19"/>
<text text-anchor="middle" x="202" y="-7" font-family="Helvetica,sans-Serif" font-size="10.00">Ipv4NodeConfigurator</text>
</a>
</g>
</g>
<!-- IIpv4NodeConfigurator&#45;&gt;Ipv4NodeConfigurator -->
<g id="edge2" class="edge">
<title>IIpv4NodeConfigurator&#45;&gt;Ipv4NodeConfigurator</title>
<path fill="none" stroke="black" stroke-dasharray="5,2" d="M142.41,-54.98C155.58,-45.15 177.13,-29.07 190.39,-19.17"/>
</g>
</g>
</svg>
