<?xml version="1.0" encoding="UTF-8" standalone="no"?>
<!DOCTYPE svg PUBLIC "-//W3C//DTD SVG 1.1//EN"
 "http://www.w3.org/Graphics/SVG/1.1/DTD/svg11.dtd">
<!-- Generated by graphviz version 2.43.0 (0)
 -->
<!-- Title: opp Pages: 1 -->
<svg width="565pt" height="82pt"
 viewBox="0.00 0.00 564.50 82.00" xmlns="http://www.w3.org/2000/svg" xmlns:xlink="http://www.w3.org/1999/xlink">
<g id="graph0" class="graph" transform="scale(1 1) rotate(0) translate(4 78)">
<title>opp</title>
<polygon fill="transparent" stroke="transparent" points="-4,4 -4,-78 560.5,-78 560.5,4 -4,4"/>
<!-- TcpServerConnection -->
<g id="node1" class="node">
<title>TcpServerConnection</title>
<g id="a_node1"><a xlink:href="inet.applications.tcpapp.TcpServerConnection.html" xlink:title="Compound Module TcpServerConnection" target="_parent">
<polygon fill="#fff700" stroke="black" points="347,-74 228,-74 228,-55 347,-55 347,-74"/>
<text text-anchor="middle" x="287.5" y="-62" font-family="Helvetica,sans-Serif" font-size="10.00">TcpServerConnection</text>
</a>
</g>
</g>
<!-- TcpServerSocketIo -->
<g id="node2" class="node">
<title>TcpServerSocketIo</title>
<g id="a_node2"><a xlink:href="inet.applications.tcpapp.TcpServerSocketIo.html" xlink:title="Simple Module TcpServerSocketIo" target="_parent">
<polygon fill="#fffcaf" stroke="black" points="105,-19 0,-19 0,0 105,0 105,-19"/>
<text text-anchor="middle" x="52.5" y="-7" font-family="Helvetica,sans-Serif" font-size="10.00">TcpServerSocketIo</text>
</a>
</g>
</g>
<!-- TcpServerConnection&#45;&gt;TcpServerSocketIo -->
<g id="edge1" class="edge">
<title>TcpServerConnection&#45;&gt;TcpServerSocketIo</title>
<path fill="none" stroke="black" d="M249.74,-54.98C209.18,-45.84 144.61,-31.27 100.47,-21.32"/>
<polygon fill="black" stroke="black" points="101.08,-17.87 90.55,-19.08 99.54,-24.7 101.08,-17.87"/>
</g>
<!-- IPassivePacketSink -->
<g id="node3" class="node">
<title>IPassivePacketSink</title>
<g id="a_node3"><a xlink:href="inet.queueing.contract.IPassivePacketSink.html" xlink:title="Module Interface IPassivePacketSink" target="_parent">
<polygon fill="#fffcaf" stroke="black" stroke-dasharray="5,2" points="232,-19 123,-19 123,0 232,0 232,-19"/>
<text text-anchor="middle" x="177.5" y="-7" font-family="Helvetica,sans-Serif" font-size="10.00">IPassivePacketSink</text>
</a>
</g>
</g>
<!-- TcpServerConnection&#45;&gt;IPassivePacketSink -->
<g id="edge2" class="edge">
<title>TcpServerConnection&#45;&gt;IPassivePacketSink</title>
<path fill="none" stroke="black" d="M269.83,-54.98C252.21,-46.5 224.92,-33.35 204.57,-23.54"/>
<polygon fill="black" stroke="black" points="206.02,-20.36 195.49,-19.17 202.98,-26.66 206.02,-20.36"/>
</g>
<!-- IPacketFlow -->
<g id="node4" class="node">
<title>IPacketFlow</title>
<g id="a_node4"><a xlink:href="inet.queueing.contract.IPacketFlow.html" xlink:title="Module Interface IPacketFlow" target="_parent">
<polygon fill="#fffcaf" stroke="black" stroke-dasharray="5,2" points="324.5,-19 250.5,-19 250.5,0 324.5,0 324.5,-19"/>
<text text-anchor="middle" x="287.5" y="-7" font-family="Helvetica,sans-Serif" font-size="10.00">IPacketFlow</text>
</a>
</g>
</g>
<!-- TcpServerConnection&#45;&gt;IPacketFlow -->
<g id="edge3" class="edge">
<title>TcpServerConnection&#45;&gt;IPacketFlow</title>
<path fill="none" stroke="black" d="M287.5,-54.75C287.5,-47.8 287.5,-37.85 287.5,-29.13"/>
<polygon fill="black" stroke="black" points="291,-29.09 287.5,-19.09 284,-29.09 291,-29.09"/>
</g>
<!-- IActivePacketSource -->
<g id="node5" class="node">
<title>IActivePacketSource</title>
<g id="a_node5"><a xlink:href="inet.queueing.contract.IActivePacketSource.html" xlink:title="Module Interface IActivePacketSource" target="_parent">
<polygon fill="#fffcaf" stroke="black" stroke-dasharray="5,2" points="458,-19 343,-19 343,0 458,0 458,-19"/>
<text text-anchor="middle" x="400.5" y="-7" font-family="Helvetica,sans-Serif" font-size="10.00">IActivePacketSource</text>
</a>
</g>
</g>
<!-- TcpServerConnection&#45;&gt;IActivePacketSource -->
<g id="edge4" class="edge">
<title>TcpServerConnection&#45;&gt;IActivePacketSource</title>
<path fill="none" stroke="black" d="M305.66,-54.98C323.75,-46.5 351.78,-33.35 372.69,-23.54"/>
<polygon fill="black" stroke="black" points="374.45,-26.59 382.01,-19.17 371.47,-20.25 374.45,-26.59"/>
</g>
<!-- IdealChannel -->
<g id="node6" class="node">
<title>IdealChannel</title>
<g id="a_node6"><a xlink:href="ned.IdealChannel.html" xlink:title="Channel IdealChannel" target="_parent">
<polygon fill="#d0ffd0" stroke="black" points="556.5,-19 476.5,-19 476.5,0 556.5,0 556.5,-19"/>
<text text-anchor="middle" x="516.5" y="-7" font-family="Helvetica,sans-Serif" font-size="10.00">IdealChannel</text>
</a>
</g>
</g>
<!-- TcpServerConnection&#45;&gt;IdealChannel -->
<g id="edge5" class="edge">
<title>TcpServerConnection&#45;&gt;IdealChannel</title>
<path fill="none" stroke="black" d="M324.29,-54.98C363.74,-45.86 426.48,-31.33 469.48,-21.38"/>
<polygon fill="black" stroke="black" points="470.47,-24.75 479.42,-19.08 468.89,-17.93 470.47,-24.75"/>
</g>
</g>
</svg>
