<?xml version="1.0" encoding="UTF-8" standalone="no"?>
<!DOCTYPE svg PUBLIC "-//W3C//DTD SVG 1.1//EN"
 "http://www.w3.org/Graphics/SVG/1.1/DTD/svg11.dtd">
<!-- Generated by graphviz version 2.43.0 (0)
 -->
<!-- Title: opp Pages: 1 -->
<svg width="516pt" height="82pt"
 viewBox="0.00 0.00 515.50 82.00" xmlns="http://www.w3.org/2000/svg" xmlns:xlink="http://www.w3.org/1999/xlink">
<g id="graph0" class="graph" transform="scale(1 1) rotate(0) translate(4 78)">
<title>opp</title>
<polygon fill="transparent" stroke="transparent" points="-4,4 -4,-78 511.5,-78 511.5,4 -4,4"/>
<!-- MultiPacketPolicing -->
<g id="node1" class="node">
<title>MultiPacketPolicing</title>
<g id="a_node1"><a xlink:href="inet.queueing.policing.MultiPacketPolicing.html" xlink:title="Compound Module MultiPacketPolicing" target="_parent">
<polygon fill="#fff700" stroke="black" points="305.5,-74 194.5,-74 194.5,-55 305.5,-55 305.5,-74"/>
<text text-anchor="middle" x="250" y="-62" font-family="Helvetica,sans-Serif" font-size="10.00">MultiPacketPolicing</text>
</a>
</g>
</g>
<!-- IPacketClassifier -->
<g id="node2" class="node">
<title>IPacketClassifier</title>
<g id="a_node2"><a xlink:href="inet.queueing.contract.IPacketClassifier.html" xlink:title="Module Interface IPacketClassifier" target="_parent">
<polygon fill="#fffcaf" stroke="black" stroke-dasharray="5,2" points="96,-19 0,-19 0,0 96,0 96,-19"/>
<text text-anchor="middle" x="48" y="-7" font-family="Helvetica,sans-Serif" font-size="10.00">IPacketClassifier</text>
</a>
</g>
</g>
<!-- MultiPacketPolicing&#45;&gt;IPacketClassifier -->
<g id="edge1" class="edge">
<title>MultiPacketPolicing&#45;&gt;IPacketClassifier</title>
<path fill="none" stroke="black" d="M217.55,-54.98C183.04,-45.93 128.34,-31.58 90.44,-21.64"/>
<polygon fill="black" stroke="black" points="91.27,-18.23 80.71,-19.08 89.49,-25.01 91.27,-18.23"/>
</g>
<!-- IPacketMeter -->
<g id="node3" class="node">
<title>IPacketMeter</title>
<g id="a_node3"><a xlink:href="inet.queueing.contract.IPacketMeter.html" xlink:title="Module Interface IPacketMeter" target="_parent">
<polygon fill="#fffcaf" stroke="black" stroke-dasharray="5,2" points="194,-19 114,-19 114,0 194,0 194,-19"/>
<text text-anchor="middle" x="154" y="-7" font-family="Helvetica,sans-Serif" font-size="10.00">IPacketMeter</text>
</a>
</g>
</g>
<!-- MultiPacketPolicing&#45;&gt;IPacketMeter -->
<g id="edge2" class="edge">
<title>MultiPacketPolicing&#45;&gt;IPacketMeter</title>
<path fill="none" stroke="black" d="M234.58,-54.98C219.55,-46.69 196.46,-33.94 178.84,-24.22"/>
<polygon fill="black" stroke="black" points="180.15,-20.94 169.7,-19.17 176.77,-27.07 180.15,-20.94"/>
</g>
<!-- IPacketFilter -->
<g id="node4" class="node">
<title>IPacketFilter</title>
<g id="a_node4"><a xlink:href="inet.queueing.contract.IPacketFilter.html" xlink:title="Module Interface IPacketFilter" target="_parent">
<polygon fill="#fffcaf" stroke="black" stroke-dasharray="5,2" points="288,-19 212,-19 212,0 288,0 288,-19"/>
<text text-anchor="middle" x="250" y="-7" font-family="Helvetica,sans-Serif" font-size="10.00">IPacketFilter</text>
</a>
</g>
</g>
<!-- MultiPacketPolicing&#45;&gt;IPacketFilter -->
<g id="edge3" class="edge">
<title>MultiPacketPolicing&#45;&gt;IPacketFilter</title>
<path fill="none" stroke="black" d="M250,-54.75C250,-47.8 250,-37.85 250,-29.13"/>
<polygon fill="black" stroke="black" points="253.5,-29.09 250,-19.09 246.5,-29.09 253.5,-29.09"/>
</g>
<!-- IdealChannel -->
<g id="node5" class="node">
<title>IdealChannel</title>
<g id="a_node5"><a xlink:href="ned.IdealChannel.html" xlink:title="Channel IdealChannel" target="_parent">
<polygon fill="#d0ffd0" stroke="black" points="386,-19 306,-19 306,0 386,0 386,-19"/>
<text text-anchor="middle" x="346" y="-7" font-family="Helvetica,sans-Serif" font-size="10.00">IdealChannel</text>
</a>
</g>
</g>
<!-- MultiPacketPolicing&#45;&gt;IdealChannel -->
<g id="edge4" class="edge">
<title>MultiPacketPolicing&#45;&gt;IdealChannel</title>
<path fill="none" stroke="black" d="M265.42,-54.98C280.45,-46.69 303.54,-33.94 321.16,-24.22"/>
<polygon fill="black" stroke="black" points="323.23,-27.07 330.3,-19.17 319.85,-20.94 323.23,-27.07"/>
</g>
<!-- PacketMultiplexer -->
<g id="node6" class="node">
<title>PacketMultiplexer</title>
<g id="a_node6"><a xlink:href="inet.queueing.common.PacketMultiplexer.html" xlink:title="Simple Module PacketMultiplexer" target="_parent">
<polygon fill="#fffcaf" stroke="black" points="507.5,-19 404.5,-19 404.5,0 507.5,0 507.5,-19"/>
<text text-anchor="middle" x="456" y="-7" font-family="Helvetica,sans-Serif" font-size="10.00">PacketMultiplexer</text>
</a>
</g>
</g>
<!-- MultiPacketPolicing&#45;&gt;PacketMultiplexer -->
<g id="edge5" class="edge">
<title>MultiPacketPolicing&#45;&gt;PacketMultiplexer</title>
<path fill="none" stroke="black" d="M283.1,-54.98C318.28,-45.93 374.07,-31.58 412.72,-21.64"/>
<polygon fill="black" stroke="black" points="413.83,-24.96 422.64,-19.08 412.09,-18.18 413.83,-24.96"/>
</g>
</g>
</svg>
