<?xml version="1.0" encoding="UTF-8" standalone="no"?>
<!DOCTYPE svg PUBLIC "-//W3C//DTD SVG 1.1//EN"
 "http://www.w3.org/Graphics/SVG/1.1/DTD/svg11.dtd">
<!-- Generated by graphviz version 2.43.0 (0)
 -->
<!-- Title: opp Pages: 1 -->
<svg width="780pt" height="82pt"
 viewBox="0.00 0.00 779.50 82.00" xmlns="http://www.w3.org/2000/svg" xmlns:xlink="http://www.w3.org/1999/xlink">
<g id="graph0" class="graph" transform="scale(1 1) rotate(0) translate(4 78)">
<title>opp</title>
<polygon fill="transparent" stroke="transparent" points="-4,4 -4,-78 775.5,-78 775.5,4 -4,4"/>
<!-- DSQueue2 -->
<g id="node1" class="node">
<title>DSQueue2</title>
<g id="a_node1"><a xlink:href="inet.examples.diffserv.onedomain.DSQueue2.html" xlink:title="Compound Module DSQueue2" target="_parent">
<polygon fill="#fff700" stroke="black" points="451.5,-74 383.5,-74 383.5,-55 451.5,-55 451.5,-74"/>
<text text-anchor="middle" x="417.5" y="-62" font-family="Helvetica,sans-Serif" font-size="10.00">DSQueue2</text>
</a>
</g>
</g>
<!-- BehaviorAggregateClassifier -->
<g id="node2" class="node">
<title>BehaviorAggregateClassifier</title>
<g id="a_node2"><a xlink:href="inet.networklayer.diffserv.BehaviorAggregateClassifier.html" xlink:title="Simple Module BehaviorAggregateClassifier" target="_parent">
<polygon fill="#fffcaf" stroke="black" points="155,-19 0,-19 0,0 155,0 155,-19"/>
<text text-anchor="middle" x="77.5" y="-7" font-family="Helvetica,sans-Serif" font-size="10.00">BehaviorAggregateClassifier</text>
</a>
</g>
</g>
<!-- DSQueue2&#45;&gt;BehaviorAggregateClassifier -->
<g id="edge1" class="edge">
<title>DSQueue2&#45;&gt;BehaviorAggregateClassifier</title>
<path fill="none" stroke="black" d="M383.34,-58.18C327.17,-49.42 214.36,-31.83 142.56,-20.64"/>
<polygon fill="black" stroke="black" points="142.7,-17.12 132.28,-19.04 141.62,-24.04 142.7,-17.12"/>
</g>
<!-- DropTailQueue -->
<g id="node3" class="node">
<title>DropTailQueue</title>
<g id="a_node3"><a xlink:href="inet.queueing.queue.DropTailQueue.html" xlink:title="Simple Module DropTailQueue" target="_parent">
<polygon fill="#fffcaf" stroke="black" points="261.5,-19 173.5,-19 173.5,0 261.5,0 261.5,-19"/>
<text text-anchor="middle" x="217.5" y="-7" font-family="Helvetica,sans-Serif" font-size="10.00">DropTailQueue</text>
</a>
</g>
</g>
<!-- DSQueue2&#45;&gt;DropTailQueue -->
<g id="edge2" class="edge">
<title>DSQueue2&#45;&gt;DropTailQueue</title>
<path fill="none" stroke="black" d="M385.37,-54.98C351.35,-45.97 297.5,-31.7 260,-21.76"/>
<polygon fill="black" stroke="black" points="260.45,-18.26 249.89,-19.08 258.66,-25.03 260.45,-18.26"/>
</g>
<!-- PacketQueue -->
<g id="node4" class="node">
<title>PacketQueue</title>
<g id="a_node4"><a xlink:href="inet.queueing.queue.PacketQueue.html" xlink:title="Simple Module PacketQueue" target="_parent">
<polygon fill="#fffcaf" stroke="black" points="359.5,-19 279.5,-19 279.5,0 359.5,0 359.5,-19"/>
<text text-anchor="middle" x="319.5" y="-7" font-family="Helvetica,sans-Serif" font-size="10.00">PacketQueue</text>
</a>
</g>
</g>
<!-- DSQueue2&#45;&gt;PacketQueue -->
<g id="edge3" class="edge">
<title>DSQueue2&#45;&gt;PacketQueue</title>
<path fill="none" stroke="black" d="M401.75,-54.98C386.27,-46.61 362.41,-33.7 344.36,-23.95"/>
<polygon fill="black" stroke="black" points="345.99,-20.85 335.53,-19.17 342.66,-27.01 345.99,-20.85"/>
</g>
<!-- IdealChannel -->
<g id="node5" class="node">
<title>IdealChannel</title>
<g id="a_node5"><a xlink:href="ned.IdealChannel.html" xlink:title="Channel IdealChannel" target="_parent">
<polygon fill="#d0ffd0" stroke="black" points="457.5,-19 377.5,-19 377.5,0 457.5,0 457.5,-19"/>
<text text-anchor="middle" x="417.5" y="-7" font-family="Helvetica,sans-Serif" font-size="10.00">IdealChannel</text>
</a>
</g>
</g>
<!-- DSQueue2&#45;&gt;IdealChannel -->
<g id="edge4" class="edge">
<title>DSQueue2&#45;&gt;IdealChannel</title>
<path fill="none" stroke="black" d="M417.5,-54.75C417.5,-47.8 417.5,-37.85 417.5,-29.13"/>
<polygon fill="black" stroke="black" points="421,-29.09 417.5,-19.09 414,-29.09 421,-29.09"/>
</g>
<!-- RedDropper -->
<g id="node6" class="node">
<title>RedDropper</title>
<g id="a_node6"><a xlink:href="inet.queueing.filter.RedDropper.html" xlink:title="Simple Module RedDropper" target="_parent">
<polygon fill="#fffcaf" stroke="black" points="549.5,-19 475.5,-19 475.5,0 549.5,0 549.5,-19"/>
<text text-anchor="middle" x="512.5" y="-7" font-family="Helvetica,sans-Serif" font-size="10.00">RedDropper</text>
</a>
</g>
</g>
<!-- DSQueue2&#45;&gt;RedDropper -->
<g id="edge5" class="edge">
<title>DSQueue2&#45;&gt;RedDropper</title>
<path fill="none" stroke="black" d="M432.76,-54.98C447.63,-46.69 470.48,-33.94 487.92,-24.22"/>
<polygon fill="black" stroke="black" points="489.93,-27.1 496.96,-19.17 486.52,-20.99 489.93,-27.1"/>
</g>
<!-- PacketMultiplexer -->
<g id="node7" class="node">
<title>PacketMultiplexer</title>
<g id="a_node7"><a xlink:href="inet.queueing.common.PacketMultiplexer.html" xlink:title="Simple Module PacketMultiplexer" target="_parent">
<polygon fill="#fffcaf" stroke="black" points="671,-19 568,-19 568,0 671,0 671,-19"/>
<text text-anchor="middle" x="619.5" y="-7" font-family="Helvetica,sans-Serif" font-size="10.00">PacketMultiplexer</text>
</a>
</g>
</g>
<!-- DSQueue2&#45;&gt;PacketMultiplexer -->
<g id="edge6" class="edge">
<title>DSQueue2&#45;&gt;PacketMultiplexer</title>
<path fill="none" stroke="black" d="M449.95,-54.98C484.46,-45.93 539.16,-31.58 577.06,-21.64"/>
<polygon fill="black" stroke="black" points="578.01,-25.01 586.79,-19.08 576.23,-18.23 578.01,-25.01"/>
</g>
<!-- WrrScheduler -->
<g id="node8" class="node">
<title>WrrScheduler</title>
<g id="a_node8"><a xlink:href="inet.queueing.scheduler.WrrScheduler.html" xlink:title="Simple Module WrrScheduler" target="_parent">
<polygon fill="#fffcaf" stroke="black" points="771.5,-19 689.5,-19 689.5,0 771.5,0 771.5,-19"/>
<text text-anchor="middle" x="730.5" y="-7" font-family="Helvetica,sans-Serif" font-size="10.00">WrrScheduler</text>
</a>
</g>
</g>
<!-- DSQueue2&#45;&gt;WrrScheduler -->
<g id="edge7" class="edge">
<title>DSQueue2&#45;&gt;WrrScheduler</title>
<path fill="none" stroke="black" d="M451.55,-57.75C499.87,-49.58 591.4,-34.11 679.42,-19.18"/>
<polygon fill="black" stroke="black" points="680.03,-22.63 689.3,-17.51 678.86,-15.73 680.03,-22.63"/>
</g>
</g>
</svg>
