<?xml version="1.0" encoding="UTF-8" standalone="no"?>
<!DOCTYPE svg PUBLIC "-//W3C//DTD SVG 1.1//EN"
 "http://www.w3.org/Graphics/SVG/1.1/DTD/svg11.dtd">
<!-- Generated by graphviz version 2.43.0 (0)
 -->
<!-- Title: opp Pages: 1 -->
<svg width="438pt" height="82pt"
 viewBox="0.00 0.00 437.50 82.00" xmlns="http://www.w3.org/2000/svg" xmlns:xlink="http://www.w3.org/1999/xlink">
<g id="graph0" class="graph" transform="scale(1 1) rotate(0) translate(4 78)">
<title>opp</title>
<polygon fill="transparent" stroke="transparent" points="-4,4 -4,-78 433.5,-78 433.5,4 -4,4"/>
<!-- PIM_SM_Network -->
<g id="node1" class="node">
<title>PIM_SM_Network</title>
<g id="a_node1"><a xlink:href="inet.examples.pim.sm.basic.PIM_SM_Network.html" xlink:title="Network PIM_SM_Network" target="_parent">
<polygon fill="#9090ff" stroke="black" points="268.5,-74 167.5,-74 167.5,-55 268.5,-55 268.5,-74"/>
<text text-anchor="middle" x="218" y="-62" font-family="Helvetica,sans-Serif" font-size="10.00">PIM_SM_Network</text>
</a>
</g>
</g>
<!-- MulticastRouter -->
<g id="node2" class="node">
<title>MulticastRouter</title>
<g id="a_node2"><a xlink:href="inet.node.inet.MulticastRouter.html" xlink:title="Compound Module MulticastRouter" target="_parent">
<polygon fill="#fffcaf" stroke="black" points="94,-19 0,-19 0,0 94,0 94,-19"/>
<text text-anchor="middle" x="47" y="-7" font-family="Helvetica,sans-Serif" font-size="10.00">MulticastRouter</text>
</a>
</g>
</g>
<!-- PIM_SM_Network&#45;&gt;MulticastRouter -->
<g id="edge1" class="edge">
<title>PIM_SM_Network&#45;&gt;MulticastRouter</title>
<path fill="none" stroke="black" d="M190.53,-54.98C161.82,-46.09 116.58,-32.07 84.58,-22.15"/>
<polygon fill="black" stroke="black" points="85.28,-18.7 74.69,-19.08 83.2,-25.39 85.28,-18.7"/>
</g>
<!-- StandardHost -->
<g id="node3" class="node">
<title>StandardHost</title>
<g id="a_node3"><a xlink:href="inet.node.inet.StandardHost.html" xlink:title="Compound Module StandardHost" target="_parent">
<polygon fill="#fffcaf" stroke="black" points="195.5,-19 112.5,-19 112.5,0 195.5,0 195.5,-19"/>
<text text-anchor="middle" x="154" y="-7" font-family="Helvetica,sans-Serif" font-size="10.00">StandardHost</text>
</a>
</g>
</g>
<!-- PIM_SM_Network&#45;&gt;StandardHost -->
<g id="edge2" class="edge">
<title>PIM_SM_Network&#45;&gt;StandardHost</title>
<path fill="none" stroke="black" d="M207.72,-54.98C198.16,-47.07 183.72,-35.11 172.22,-25.58"/>
<polygon fill="black" stroke="black" points="174.4,-22.85 164.47,-19.17 169.94,-28.24 174.4,-22.85"/>
</g>
<!-- Ipv4NetworkConfigurator -->
<g id="node4" class="node">
<title>Ipv4NetworkConfigurator</title>
<g id="a_node4"><a xlink:href="inet.networklayer.configurator.ipv4.Ipv4NetworkConfigurator.html" xlink:title="Simple Module Ipv4NetworkConfigurator" target="_parent">
<polygon fill="#fffcaf" stroke="black" points="352.5,-19 213.5,-19 213.5,0 352.5,0 352.5,-19"/>
<text text-anchor="middle" x="283" y="-7" font-family="Helvetica,sans-Serif" font-size="10.00">Ipv4NetworkConfigurator</text>
</a>
</g>
</g>
<!-- PIM_SM_Network&#45;&gt;Ipv4NetworkConfigurator -->
<g id="edge3" class="edge">
<title>PIM_SM_Network&#45;&gt;Ipv4NetworkConfigurator</title>
<path fill="none" stroke="black" d="M228.44,-54.98C238.15,-47.07 252.82,-35.11 264.5,-25.58"/>
<polygon fill="black" stroke="black" points="266.83,-28.2 272.37,-19.17 262.4,-22.78 266.83,-28.2"/>
</g>
<!-- Eth100M -->
<g id="node5" class="node">
<title>Eth100M</title>
<g id="a_node5"><a xlink:href="inet.node.ethernet.Eth100M.html" xlink:title="Channel Eth100M" target="_parent">
<polygon fill="#d0ffd0" stroke="black" points="429.5,-19 370.5,-19 370.5,0 429.5,0 429.5,-19"/>
<text text-anchor="middle" x="400" y="-7" font-family="Helvetica,sans-Serif" font-size="10.00">Eth100M</text>
</a>
</g>
</g>
<!-- PIM_SM_Network&#45;&gt;Eth100M -->
<g id="edge4" class="edge">
<title>PIM_SM_Network&#45;&gt;Eth100M</title>
<path fill="none" stroke="black" d="M247.24,-54.98C278.06,-46.01 326.78,-31.82 360.89,-21.89"/>
<polygon fill="black" stroke="black" points="361.91,-25.24 370.53,-19.08 359.95,-18.52 361.91,-25.24"/>
</g>
</g>
</svg>
