<?xml version="1.0" encoding="UTF-8" standalone="no"?>
<!DOCTYPE svg PUBLIC "-//W3C//DTD SVG 1.1//EN"
 "http://www.w3.org/Graphics/SVG/1.1/DTD/svg11.dtd">
<!-- Generated by graphviz version 2.43.0 (0)
 -->
<!-- Title: opp Pages: 1 -->
<svg width="458pt" height="82pt"
 viewBox="0.00 0.00 458.00 82.00" xmlns="http://www.w3.org/2000/svg" xmlns:xlink="http://www.w3.org/1999/xlink">
<g id="graph0" class="graph" transform="scale(1 1) rotate(0) translate(4 78)">
<title>opp</title>
<polygon fill="transparent" stroke="transparent" points="-4,4 -4,-78 454,-78 454,4 -4,4"/>
<!-- TransportConnectionVisualizationEnablingShowcase -->
<g id="node1" class="node">
<title>TransportConnectionVisualizationEnablingShowcase</title>
<g id="a_node1"><a xlink:href="inet.showcases.visualizer.canvas.transportconnection.TransportConnectionVisualizationEnablingShowcase.html" xlink:title="Network TransportConnectionVisualizationEnablingShowcase" target="_parent">
<polygon fill="#9090ff" stroke="black" points="373.5,-74 103.5,-74 103.5,-55 373.5,-55 373.5,-74"/>
<text text-anchor="middle" x="238.5" y="-62" font-family="Helvetica,sans-Serif" font-size="10.00">TransportConnectionVisualizationEnablingShowcase</text>
</a>
</g>
</g>
<!-- IntegratedVisualizer -->
<g id="node2" class="node">
<title>IntegratedVisualizer</title>
<g id="a_node2"><a xlink:href="inet.visualizer.common.IntegratedVisualizer.html" xlink:title="Compound Module IntegratedVisualizer" target="_parent">
<polygon fill="#fffcaf" stroke="black" points="115,-19 0,-19 0,0 115,0 115,-19"/>
<text text-anchor="middle" x="57.5" y="-7" font-family="Helvetica,sans-Serif" font-size="10.00">IntegratedVisualizer</text>
</a>
</g>
</g>
<!-- TransportConnectionVisualizationEnablingShowcase&#45;&gt;IntegratedVisualizer -->
<g id="edge1" class="edge">
<title>TransportConnectionVisualizationEnablingShowcase&#45;&gt;IntegratedVisualizer</title>
<path fill="none" stroke="black" d="M209.42,-54.98C178.9,-46.05 130.74,-31.94 96.84,-22.02"/>
<polygon fill="black" stroke="black" points="97.39,-18.53 86.81,-19.08 95.42,-25.25 97.39,-18.53"/>
</g>
<!-- StandardHost -->
<g id="node3" class="node">
<title>StandardHost</title>
<g id="a_node3"><a xlink:href="inet.node.inet.StandardHost.html" xlink:title="Compound Module StandardHost" target="_parent">
<polygon fill="#fffcaf" stroke="black" points="216,-19 133,-19 133,0 216,0 216,-19"/>
<text text-anchor="middle" x="174.5" y="-7" font-family="Helvetica,sans-Serif" font-size="10.00">StandardHost</text>
</a>
</g>
</g>
<!-- TransportConnectionVisualizationEnablingShowcase&#45;&gt;StandardHost -->
<g id="edge2" class="edge">
<title>TransportConnectionVisualizationEnablingShowcase&#45;&gt;StandardHost</title>
<path fill="none" stroke="black" d="M228.22,-54.98C218.66,-47.07 204.22,-35.11 192.72,-25.58"/>
<polygon fill="black" stroke="black" points="194.9,-22.85 184.97,-19.17 190.44,-28.24 194.9,-22.85"/>
</g>
<!-- Ipv4NetworkConfigurator -->
<g id="node4" class="node">
<title>Ipv4NetworkConfigurator</title>
<g id="a_node4"><a xlink:href="inet.networklayer.configurator.ipv4.Ipv4NetworkConfigurator.html" xlink:title="Simple Module Ipv4NetworkConfigurator" target="_parent">
<polygon fill="#fffcaf" stroke="black" points="373,-19 234,-19 234,0 373,0 373,-19"/>
<text text-anchor="middle" x="303.5" y="-7" font-family="Helvetica,sans-Serif" font-size="10.00">Ipv4NetworkConfigurator</text>
</a>
</g>
</g>
<!-- TransportConnectionVisualizationEnablingShowcase&#45;&gt;Ipv4NetworkConfigurator -->
<g id="edge3" class="edge">
<title>TransportConnectionVisualizationEnablingShowcase&#45;&gt;Ipv4NetworkConfigurator</title>
<path fill="none" stroke="black" d="M248.94,-54.98C258.65,-47.07 273.32,-35.11 285,-25.58"/>
<polygon fill="black" stroke="black" points="287.33,-28.2 292.87,-19.17 282.9,-22.78 287.33,-28.2"/>
</g>
<!-- Eth100M -->
<g id="node5" class="node">
<title>Eth100M</title>
<g id="a_node5"><a xlink:href="inet.node.ethernet.Eth100M.html" xlink:title="Channel Eth100M" target="_parent">
<polygon fill="#d0ffd0" stroke="black" points="450,-19 391,-19 391,0 450,0 450,-19"/>
<text text-anchor="middle" x="420.5" y="-7" font-family="Helvetica,sans-Serif" font-size="10.00">Eth100M</text>
</a>
</g>
</g>
<!-- TransportConnectionVisualizationEnablingShowcase&#45;&gt;Eth100M -->
<g id="edge4" class="edge">
<title>TransportConnectionVisualizationEnablingShowcase&#45;&gt;Eth100M</title>
<path fill="none" stroke="black" d="M267.74,-54.98C298.56,-46.01 347.28,-31.82 381.39,-21.89"/>
<polygon fill="black" stroke="black" points="382.41,-25.24 391.03,-19.08 380.45,-18.52 382.41,-25.24"/>
</g>
</g>
</svg>
