<?xml version="1.0" encoding="UTF-8" standalone="no"?>
<!DOCTYPE svg PUBLIC "-//W3C//DTD SVG 1.1//EN"
 "http://www.w3.org/Graphics/SVG/1.1/DTD/svg11.dtd">
<!-- Generated by graphviz version 2.43.0 (0)
 -->
<!-- Title: opp Pages: 1 -->
<svg width="188pt" height="82pt"
 viewBox="0.00 0.00 188.00 82.00" xmlns="http://www.w3.org/2000/svg" xmlns:xlink="http://www.w3.org/1999/xlink">
<g id="graph0" class="graph" transform="scale(1 1) rotate(0) translate(4 78)">
<title>opp</title>
<polygon fill="transparent" stroke="transparent" points="-4,4 -4,-78 184,-78 184,4 -4,4"/>
<!-- Ieee80211Portal -->
<g id="node1" class="node">
<title>Ieee80211Portal</title>
<g id="a_node1"><a xlink:href="inet.linklayer.ieee80211.portal.Ieee80211Portal.html" xlink:title="Simple Module Ieee80211Portal" target="_parent">
<polygon fill="#fff700" stroke="black" points="139,-19 43,-19 43,0 139,0 139,-19"/>
<text text-anchor="middle" x="91" y="-7" font-family="Helvetica,sans-Serif" font-size="10.00">Ieee80211Portal</text>
</a>
</g>
</g>
<!-- IIeee80211Llc -->
<g id="node2" class="node">
<title>IIeee80211Llc</title>
<g id="a_node2"><a xlink:href="inet.linklayer.ieee80211.llc.IIeee80211Llc.html" xlink:title="Module Interface IIeee80211Llc" target="_parent">
<polygon fill="#fffcaf" stroke="black" stroke-dasharray="5,2" points="84,-74 0,-74 0,-55 84,-55 84,-74"/>
<text text-anchor="middle" x="42" y="-62" font-family="Helvetica,sans-Serif" font-size="10.00">IIeee80211Llc</text>
</a>
</g>
</g>
<!-- IIeee80211Llc&#45;&gt;Ieee80211Portal -->
<g id="edge1" class="edge">
<title>IIeee80211Llc&#45;&gt;Ieee80211Portal</title>
<path fill="none" stroke="black" stroke-dasharray="5,2" d="M50.09,-54.75C59.22,-44.87 73.99,-28.9 83.06,-19.09"/>
</g>
<!-- IIeee8022Llc -->
<g id="node3" class="node">
<title>IIeee8022Llc</title>
<g id="a_node3"><a xlink:href="inet.linklayer.ieee8022.IIeee8022Llc.html" xlink:title="Module Interface IIeee8022Llc" target="_parent">
<polygon fill="#fffcaf" stroke="black" stroke-dasharray="5,2" points="180,-74 102,-74 102,-55 180,-55 180,-74"/>
<text text-anchor="middle" x="141" y="-62" font-family="Helvetica,sans-Serif" font-size="10.00">IIeee8022Llc</text>
</a>
</g>
</g>
<!-- IIeee8022Llc&#45;&gt;Ieee80211Portal -->
<g id="edge2" class="edge">
<title>IIeee8022Llc&#45;&gt;Ieee80211Portal</title>
<path fill="none" stroke="black" stroke-dasharray="5,2" d="M132.74,-54.75C123.42,-44.87 108.36,-28.9 99.1,-19.09"/>
</g>
</g>
</svg>
