<?xml version="1.0" encoding="UTF-8" standalone="no"?>
<!DOCTYPE svg PUBLIC "-//W3C//DTD SVG 1.1//EN"
 "http://www.w3.org/Graphics/SVG/1.1/DTD/svg11.dtd">
<!-- Generated by graphviz version 2.43.0 (0)
 -->
<!-- Title: opp Pages: 1 -->
<svg width="308pt" height="137pt"
 viewBox="0.00 0.00 307.50 137.00" xmlns="http://www.w3.org/2000/svg" xmlns:xlink="http://www.w3.org/1999/xlink">
<g id="graph0" class="graph" transform="scale(1 1) rotate(0) translate(4 133)">
<title>opp</title>
<polygon fill="transparent" stroke="transparent" points="-4,4 -4,-133 303.5,-133 303.5,4 -4,4"/>
<!-- LinkVisualizerBase -->
<g id="node1" class="node">
<title>LinkVisualizerBase</title>
<g id="a_node1"><a xlink:href="inet.visualizer.base.LinkVisualizerBase.html" xlink:title="Simple Module LinkVisualizerBase" target="_parent">
<polygon fill="#fff700" stroke="black" points="199.5,-74 90.5,-74 90.5,-55 199.5,-55 199.5,-74"/>
<text text-anchor="middle" x="145" y="-62" font-family="Helvetica,sans-Serif" font-size="10.00">LinkVisualizerBase</text>
</a>
</g>
</g>
<!-- DataLinkVisualizerBase -->
<g id="node3" class="node">
<title>DataLinkVisualizerBase</title>
<g id="a_node3"><a xlink:href="inet.visualizer.base.DataLinkVisualizerBase.html" xlink:title="Simple Module DataLinkVisualizerBase" target="_parent">
<polygon fill="#fffcaf" stroke="black" points="132,-19 0,-19 0,0 132,0 132,-19"/>
<text text-anchor="middle" x="66" y="-7" font-family="Helvetica,sans-Serif" font-size="10.00">DataLinkVisualizerBase</text>
</a>
</g>
</g>
<!-- LinkVisualizerBase&#45;&gt;DataLinkVisualizerBase -->
<g id="edge2" class="edge">
<title>LinkVisualizerBase&#45;&gt;DataLinkVisualizerBase</title>
<path fill="none" stroke="black" d="M132.31,-54.98C117.65,-45.15 93.68,-29.07 78.92,-19.17"/>
</g>
<!-- PhysicalLinkVisualizerBase -->
<g id="node4" class="node">
<title>PhysicalLinkVisualizerBase</title>
<g id="a_node4"><a xlink:href="inet.visualizer.base.PhysicalLinkVisualizerBase.html" xlink:title="Simple Module PhysicalLinkVisualizerBase" target="_parent">
<polygon fill="#fffcaf" stroke="black" points="299.5,-19 150.5,-19 150.5,0 299.5,0 299.5,-19"/>
<text text-anchor="middle" x="225" y="-7" font-family="Helvetica,sans-Serif" font-size="10.00">PhysicalLinkVisualizerBase</text>
</a>
</g>
</g>
<!-- LinkVisualizerBase&#45;&gt;PhysicalLinkVisualizerBase -->
<g id="edge3" class="edge">
<title>LinkVisualizerBase&#45;&gt;PhysicalLinkVisualizerBase</title>
<path fill="none" stroke="black" d="M157.85,-54.98C172.69,-45.15 196.97,-29.07 211.91,-19.17"/>
</g>
<!-- VisualizerBase -->
<g id="node2" class="node">
<title>VisualizerBase</title>
<g id="a_node2"><a xlink:href="inet.visualizer.base.VisualizerBase.html" xlink:title="Simple Module VisualizerBase" target="_parent">
<polygon fill="#fffcaf" stroke="black" points="189.5,-129 100.5,-129 100.5,-110 189.5,-110 189.5,-129"/>
<text text-anchor="middle" x="145" y="-117" font-family="Helvetica,sans-Serif" font-size="10.00">VisualizerBase</text>
</a>
</g>
</g>
<!-- VisualizerBase&#45;&gt;LinkVisualizerBase -->
<g id="edge1" class="edge">
<title>VisualizerBase&#45;&gt;LinkVisualizerBase</title>
<path fill="none" stroke="black" d="M145,-109.75C145,-99.87 145,-83.9 145,-74.09"/>
</g>
</g>
</svg>
