<?xml version="1.0" encoding="UTF-8" standalone="no"?>
<!DOCTYPE svg PUBLIC "-//W3C//DTD SVG 1.1//EN"
 "http://www.w3.org/Graphics/SVG/1.1/DTD/svg11.dtd">
<!-- Generated by graphviz version 2.43.0 (0)
 -->
<!-- Title: opp Pages: 1 -->
<svg width="290pt" height="82pt"
 viewBox="0.00 0.00 290.00 82.00" xmlns="http://www.w3.org/2000/svg" xmlns:xlink="http://www.w3.org/1999/xlink">
<g id="graph0" class="graph" transform="scale(1 1) rotate(0) translate(4 78)">
<title>opp</title>
<polygon fill="transparent" stroke="transparent" points="-4,4 -4,-78 286,-78 286,4 -4,4"/>
<!-- SwitchedDuplexLAN -->
<g id="node1" class="node">
<title>SwitchedDuplexLAN</title>
<g id="a_node1"><a xlink:href="inet.examples.ethernet.lans.SwitchedDuplexLAN.html" xlink:title="Network SwitchedDuplexLAN" target="_parent">
<polygon fill="#9090ff" stroke="black" points="197,-74 81,-74 81,-55 197,-55 197,-74"/>
<text text-anchor="middle" x="139" y="-62" font-family="Helvetica,sans-Serif" font-size="10.00">SwitchedDuplexLAN</text>
</a>
</g>
</g>
<!-- ethernetline -->
<g id="node2" class="node">
<title>ethernetline</title>
<g id="a_node2"><a xlink:href="inet.examples.ethernet.lans.SwitchedDuplexLAN.ethernetline.html" xlink:title="Channel ethernetline" target="_parent">
<polygon fill="#d0ffd0" stroke="black" points="76,-19 0,-19 0,0 76,0 76,-19"/>
<text text-anchor="middle" x="38" y="-7" font-family="Helvetica,sans-Serif" font-size="10.00">ethernetline</text>
</a>
</g>
</g>
<!-- SwitchedDuplexLAN&#45;&gt;ethernetline -->
<g id="edge1" class="edge">
<title>SwitchedDuplexLAN&#45;&gt;ethernetline</title>
<path fill="none" stroke="black" d="M122.77,-54.98C106.82,-46.61 82.22,-33.7 63.62,-23.95"/>
<polygon fill="black" stroke="black" points="65,-20.72 54.52,-19.17 61.75,-26.92 65,-20.72"/>
</g>
<!-- EthernetSwitch -->
<g id="node3" class="node">
<title>EthernetSwitch</title>
<g id="a_node3"><a xlink:href="inet.node.ethernet.EthernetSwitch.html" xlink:title="Compound Module EthernetSwitch" target="_parent">
<polygon fill="#fffcaf" stroke="black" points="184,-19 94,-19 94,0 184,0 184,-19"/>
<text text-anchor="middle" x="139" y="-7" font-family="Helvetica,sans-Serif" font-size="10.00">EthernetSwitch</text>
</a>
</g>
</g>
<!-- SwitchedDuplexLAN&#45;&gt;EthernetSwitch -->
<g id="edge2" class="edge">
<title>SwitchedDuplexLAN&#45;&gt;EthernetSwitch</title>
<path fill="none" stroke="black" d="M139,-54.75C139,-47.8 139,-37.85 139,-29.13"/>
<polygon fill="black" stroke="black" points="142.5,-29.09 139,-19.09 135.5,-29.09 142.5,-29.09"/>
</g>
<!-- EthernetHost -->
<g id="node4" class="node">
<title>EthernetHost</title>
<g id="a_node4"><a xlink:href="inet.node.ethernet.EthernetHost.html" xlink:title="Compound Module EthernetHost" target="_parent">
<polygon fill="#fffcaf" stroke="black" points="282,-19 202,-19 202,0 282,0 282,-19"/>
<text text-anchor="middle" x="242" y="-7" font-family="Helvetica,sans-Serif" font-size="10.00">EthernetHost</text>
</a>
</g>
</g>
<!-- SwitchedDuplexLAN&#45;&gt;EthernetHost -->
<g id="edge3" class="edge">
<title>SwitchedDuplexLAN&#45;&gt;EthernetHost</title>
<path fill="none" stroke="black" d="M155.55,-54.98C171.89,-46.57 197.13,-33.59 216.13,-23.81"/>
<polygon fill="black" stroke="black" points="217.86,-26.86 225.15,-19.17 214.66,-20.63 217.86,-26.86"/>
</g>
</g>
</svg>
