<?xml version="1.0" encoding="UTF-8" standalone="no"?>
<!DOCTYPE svg PUBLIC "-//W3C//DTD SVG 1.1//EN"
 "http://www.w3.org/Graphics/SVG/1.1/DTD/svg11.dtd">
<!-- Generated by graphviz version 2.43.0 (0)
 -->
<!-- Title: opp Pages: 1 -->
<svg width="208pt" height="82pt"
 viewBox="0.00 0.00 208.00 82.00" xmlns="http://www.w3.org/2000/svg" xmlns:xlink="http://www.w3.org/1999/xlink">
<g id="graph0" class="graph" transform="scale(1 1) rotate(0) translate(4 78)">
<title>opp</title>
<polygon fill="transparent" stroke="transparent" points="-4,4 -4,-78 204,-78 204,4 -4,4"/>
<!-- PppInterface -->
<g id="node1" class="node">
<title>PppInterface</title>
<g id="a_node1"><a xlink:href="inet.linklayer.ppp.PppInterface.html" xlink:title="Compound Module PppInterface" target="_parent">
<polygon fill="#fff700" stroke="black" points="143.5,-19 65.5,-19 65.5,0 143.5,0 143.5,-19"/>
<text text-anchor="middle" x="104.5" y="-7" font-family="Helvetica,sans-Serif" font-size="10.00">PppInterface</text>
</a>
</g>
</g>
<!-- NetworkInterface -->
<g id="node2" class="node">
<title>NetworkInterface</title>
<g id="a_node2"><a xlink:href="inet.networklayer.common.NetworkInterface.html" xlink:title="Compound Module NetworkInterface" target="_parent">
<polygon fill="#fffcaf" stroke="black" points="101,-74 0,-74 0,-55 101,-55 101,-74"/>
<text text-anchor="middle" x="50.5" y="-62" font-family="Helvetica,sans-Serif" font-size="10.00">NetworkInterface</text>
</a>
</g>
</g>
<!-- NetworkInterface&#45;&gt;PppInterface -->
<g id="edge1" class="edge">
<title>NetworkInterface&#45;&gt;PppInterface</title>
<path fill="none" stroke="black" d="M59.42,-54.75C69.48,-44.87 85.75,-28.9 95.75,-19.09"/>
</g>
<!-- IPppInterface -->
<g id="node3" class="node">
<title>IPppInterface</title>
<g id="a_node3"><a xlink:href="inet.linklayer.contract.IPppInterface.html" xlink:title="Module Interface IPppInterface" target="_parent">
<polygon fill="#fffcaf" stroke="black" stroke-dasharray="5,2" points="200,-74 119,-74 119,-55 200,-55 200,-74"/>
<text text-anchor="middle" x="159.5" y="-62" font-family="Helvetica,sans-Serif" font-size="10.00">IPppInterface</text>
</a>
</g>
</g>
<!-- IPppInterface&#45;&gt;PppInterface -->
<g id="edge2" class="edge">
<title>IPppInterface&#45;&gt;PppInterface</title>
<path fill="none" stroke="black" stroke-dasharray="5,2" d="M150.42,-54.75C140.17,-44.87 123.59,-28.9 113.41,-19.09"/>
</g>
</g>
</svg>
