<?xml version="1.0" encoding="UTF-8" standalone="no"?>
<!DOCTYPE svg PUBLIC "-//W3C//DTD SVG 1.1//EN"
 "http://www.w3.org/Graphics/SVG/1.1/DTD/svg11.dtd">
<!-- Generated by graphviz version 2.43.0 (0)
 -->
<!-- Title: opp Pages: 1 -->
<svg width="554pt" height="82pt"
 viewBox="0.00 0.00 554.00 82.00" xmlns="http://www.w3.org/2000/svg" xmlns:xlink="http://www.w3.org/1999/xlink">
<g id="graph0" class="graph" transform="scale(1 1) rotate(0) translate(4 78)">
<title>opp</title>
<polygon fill="transparent" stroke="transparent" points="-4,4 -4,-78 550,-78 550,4 -4,4"/>
<!-- AntennaDirectionalSelectivityExample -->
<g id="node1" class="node">
<title>AntennaDirectionalSelectivityExample</title>
<g id="a_node1"><a xlink:href="inet.examples.wireless.antenna.AntennaDirectionalSelectivityExample.html" xlink:title="Network AntennaDirectionalSelectivityExample" target="_parent">
<polygon fill="#9090ff" stroke="black" points="418,-74 213,-74 213,-55 418,-55 418,-74"/>
<text text-anchor="middle" x="315.5" y="-62" font-family="Helvetica,sans-Serif" font-size="10.00">AntennaDirectionalSelectivityExample</text>
</a>
</g>
</g>
<!-- Ieee80211ScalarRadioMedium -->
<g id="node2" class="node">
<title>Ieee80211ScalarRadioMedium</title>
<g id="a_node2"><a xlink:href="inet.physicallayer.wireless.ieee80211.packetlevel.Ieee80211ScalarRadioMedium.html" xlink:title="Compound Module Ieee80211ScalarRadioMedium" target="_parent">
<polygon fill="#fffcaf" stroke="black" points="165,-19 0,-19 0,0 165,0 165,-19"/>
<text text-anchor="middle" x="82.5" y="-7" font-family="Helvetica,sans-Serif" font-size="10.00">Ieee80211ScalarRadioMedium</text>
</a>
</g>
</g>
<!-- AntennaDirectionalSelectivityExample&#45;&gt;Ieee80211ScalarRadioMedium -->
<g id="edge1" class="edge">
<title>AntennaDirectionalSelectivityExample&#45;&gt;Ieee80211ScalarRadioMedium</title>
<path fill="none" stroke="black" d="M278.06,-54.98C237.85,-45.84 173.82,-31.27 130.06,-21.32"/>
<polygon fill="black" stroke="black" points="130.76,-17.89 120.23,-19.08 129.2,-24.71 130.76,-17.89"/>
</g>
<!-- IIntegratedVisualizer -->
<g id="node3" class="node">
<title>IIntegratedVisualizer</title>
<g id="a_node3"><a xlink:href="inet.visualizer.contract.IIntegratedVisualizer.html" xlink:title="Module Interface IIntegratedVisualizer" target="_parent">
<polygon fill="#fffcaf" stroke="black" stroke-dasharray="5,2" points="301.5,-19 183.5,-19 183.5,0 301.5,0 301.5,-19"/>
<text text-anchor="middle" x="242.5" y="-7" font-family="Helvetica,sans-Serif" font-size="10.00">IIntegratedVisualizer</text>
</a>
</g>
</g>
<!-- AntennaDirectionalSelectivityExample&#45;&gt;IIntegratedVisualizer -->
<g id="edge2" class="edge">
<title>AntennaDirectionalSelectivityExample&#45;&gt;IIntegratedVisualizer</title>
<path fill="none" stroke="black" d="M303.77,-54.98C292.77,-47 276.08,-34.88 262.9,-25.31"/>
<polygon fill="black" stroke="black" points="264.59,-22.21 254.44,-19.17 260.48,-27.88 264.59,-22.21"/>
</g>
<!-- Ipv4NetworkConfigurator -->
<g id="node4" class="node">
<title>Ipv4NetworkConfigurator</title>
<g id="a_node4"><a xlink:href="inet.networklayer.configurator.ipv4.Ipv4NetworkConfigurator.html" xlink:title="Simple Module Ipv4NetworkConfigurator" target="_parent">
<polygon fill="#fffcaf" stroke="black" points="459,-19 320,-19 320,0 459,0 459,-19"/>
<text text-anchor="middle" x="389.5" y="-7" font-family="Helvetica,sans-Serif" font-size="10.00">Ipv4NetworkConfigurator</text>
</a>
</g>
</g>
<!-- AntennaDirectionalSelectivityExample&#45;&gt;Ipv4NetworkConfigurator -->
<g id="edge3" class="edge">
<title>AntennaDirectionalSelectivityExample&#45;&gt;Ipv4NetworkConfigurator</title>
<path fill="none" stroke="black" d="M327.39,-54.98C338.65,-46.92 355.79,-34.65 369.21,-25.03"/>
<polygon fill="black" stroke="black" points="371.3,-27.84 377.39,-19.17 367.23,-22.15 371.3,-27.84"/>
</g>
<!-- AdhocHost -->
<g id="node5" class="node">
<title>AdhocHost</title>
<g id="a_node5"><a xlink:href="inet.node.inet.AdhocHost.html" xlink:title="Compound Module AdhocHost" target="_parent">
<polygon fill="#fffcaf" stroke="black" points="546,-19 477,-19 477,0 546,0 546,-19"/>
<text text-anchor="middle" x="511.5" y="-7" font-family="Helvetica,sans-Serif" font-size="10.00">AdhocHost</text>
</a>
</g>
</g>
<!-- AntennaDirectionalSelectivityExample&#45;&gt;AdhocHost -->
<g id="edge4" class="edge">
<title>AntennaDirectionalSelectivityExample&#45;&gt;AdhocHost</title>
<path fill="none" stroke="black" d="M346.99,-54.98C380.32,-45.97 433.1,-31.7 469.85,-21.76"/>
<polygon fill="black" stroke="black" points="471.02,-25.07 479.76,-19.08 469.2,-18.31 471.02,-25.07"/>
</g>
</g>
</svg>
