<?xml version="1.0" encoding="UTF-8" standalone="no"?>
<!DOCTYPE svg PUBLIC "-//W3C//DTD SVG 1.1//EN"
 "http://www.w3.org/Graphics/SVG/1.1/DTD/svg11.dtd">
<!-- Generated by graphviz version 2.43.0 (0)
 -->
<!-- Title: opp Pages: 1 -->
<svg width="146pt" height="82pt"
 viewBox="0.00 0.00 145.50 82.00" xmlns="http://www.w3.org/2000/svg" xmlns:xlink="http://www.w3.org/1999/xlink">
<g id="graph0" class="graph" transform="scale(1 1) rotate(0) translate(4 78)">
<title>opp</title>
<polygon fill="transparent" stroke="transparent" points="-4,4 -4,-78 141.5,-78 141.5,4 -4,4"/>
<!-- IArp -->
<g id="node1" class="node">
<title>IArp</title>
<g id="a_node1"><a xlink:href="inet.networklayer.contract.IArp.html" xlink:title="Module Interface IArp" target="_parent">
<polygon fill="#fff700" stroke="black" stroke-dasharray="5,2" points="93,-74 39,-74 39,-55 93,-55 93,-74"/>
<text text-anchor="middle" x="66" y="-62" font-family="Helvetica,sans-Serif" font-size="10.00">IArp</text>
</a>
</g>
</g>
<!-- Arp -->
<g id="node2" class="node">
<title>Arp</title>
<g id="a_node2"><a xlink:href="inet.networklayer.arp.ipv4.Arp.html" xlink:title="Simple Module Arp" target="_parent">
<polygon fill="#fffcaf" stroke="black" points="54,-19 0,-19 0,0 54,0 54,-19"/>
<text text-anchor="middle" x="27" y="-7" font-family="Helvetica,sans-Serif" font-size="10.00">Arp</text>
</a>
</g>
</g>
<!-- IArp&#45;&gt;Arp -->
<g id="edge1" class="edge">
<title>IArp&#45;&gt;Arp</title>
<path fill="none" stroke="black" stroke-dasharray="5,2" d="M59.56,-54.75C52.29,-44.87 40.54,-28.9 33.32,-19.09"/>
</g>
<!-- GlobalArp -->
<g id="node3" class="node">
<title>GlobalArp</title>
<g id="a_node3"><a xlink:href="inet.networklayer.arp.ipv4.GlobalArp.html" xlink:title="Simple Module GlobalArp" target="_parent">
<polygon fill="#fffcaf" stroke="black" points="137.5,-19 72.5,-19 72.5,0 137.5,0 137.5,-19"/>
<text text-anchor="middle" x="105" y="-7" font-family="Helvetica,sans-Serif" font-size="10.00">GlobalArp</text>
</a>
</g>
</g>
<!-- IArp&#45;&gt;GlobalArp -->
<g id="edge2" class="edge">
<title>IArp&#45;&gt;GlobalArp</title>
<path fill="none" stroke="black" stroke-dasharray="5,2" d="M72.44,-54.75C79.71,-44.87 91.46,-28.9 98.68,-19.09"/>
</g>
</g>
</svg>
