<?xml version="1.0" encoding="UTF-8" standalone="no"?>
<!DOCTYPE svg PUBLIC "-//W3C//DTD SVG 1.1//EN"
 "http://www.w3.org/Graphics/SVG/1.1/DTD/svg11.dtd">
<!-- Generated by graphviz version 2.43.0 (0)
 -->
<!-- Title: opp Pages: 1 -->
<svg width="462pt" height="137pt"
 viewBox="0.00 0.00 461.50 137.00" xmlns="http://www.w3.org/2000/svg" xmlns:xlink="http://www.w3.org/1999/xlink">
<g id="graph0" class="graph" transform="scale(1 1) rotate(0) translate(4 133)">
<title>opp</title>
<polygon fill="transparent" stroke="transparent" points="-4,4 -4,-133 457.5,-133 457.5,4 -4,4"/>
<!-- SmallLAN -->
<g id="node1" class="node">
<title>SmallLAN</title>
<g id="a_node1"><a xlink:href="inet.examples.ethernet.lans.SmallLAN.html" xlink:title="Compound Module SmallLAN" target="_parent">
<polygon fill="#fff700" stroke="black" points="263,-74 198,-74 198,-55 263,-55 263,-74"/>
<text text-anchor="middle" x="230.5" y="-62" font-family="Helvetica,sans-Serif" font-size="10.00">SmallLAN</text>
</a>
</g>
</g>
<!-- EthernetHub -->
<g id="node2" class="node">
<title>EthernetHub</title>
<g id="a_node2"><a xlink:href="inet.node.ethernet.EthernetHub.html" xlink:title="Simple Module EthernetHub" target="_parent">
<polygon fill="#fffcaf" stroke="black" points="77,-19 0,-19 0,0 77,0 77,-19"/>
<text text-anchor="middle" x="38.5" y="-7" font-family="Helvetica,sans-Serif" font-size="10.00">EthernetHub</text>
</a>
</g>
</g>
<!-- SmallLAN&#45;&gt;EthernetHub -->
<g id="edge1" class="edge">
<title>SmallLAN&#45;&gt;EthernetHub</title>
<path fill="none" stroke="black" d="M199.65,-54.98C167,-45.97 115.3,-31.7 79.3,-21.76"/>
<polygon fill="black" stroke="black" points="80.16,-18.37 69.59,-19.08 78.3,-25.12 80.16,-18.37"/>
</g>
<!-- EthernetSwitch -->
<g id="node3" class="node">
<title>EthernetSwitch</title>
<g id="a_node3"><a xlink:href="inet.node.ethernet.EthernetSwitch.html" xlink:title="Compound Module EthernetSwitch" target="_parent">
<polygon fill="#fffcaf" stroke="black" points="185.5,-19 95.5,-19 95.5,0 185.5,0 185.5,-19"/>
<text text-anchor="middle" x="140.5" y="-7" font-family="Helvetica,sans-Serif" font-size="10.00">EthernetSwitch</text>
</a>
</g>
</g>
<!-- SmallLAN&#45;&gt;EthernetSwitch -->
<g id="edge2" class="edge">
<title>SmallLAN&#45;&gt;EthernetSwitch</title>
<path fill="none" stroke="black" d="M216.04,-54.98C202.08,-46.77 180.71,-34.18 164.25,-24.49"/>
<polygon fill="black" stroke="black" points="165.62,-21.23 155.22,-19.17 162.06,-27.26 165.62,-21.23"/>
</g>
<!-- cable -->
<g id="node4" class="node">
<title>cable</title>
<g id="a_node4"><a xlink:href="inet.examples.ethernet.lans.cable.html" xlink:title="Channel cable" target="_parent">
<polygon fill="#d0ffd0" stroke="black" points="257.5,-19 203.5,-19 203.5,0 257.5,0 257.5,-19"/>
<text text-anchor="middle" x="230.5" y="-7" font-family="Helvetica,sans-Serif" font-size="10.00">cable</text>
</a>
</g>
</g>
<!-- SmallLAN&#45;&gt;cable -->
<g id="edge3" class="edge">
<title>SmallLAN&#45;&gt;cable</title>
<path fill="none" stroke="black" d="M230.5,-54.75C230.5,-47.8 230.5,-37.85 230.5,-29.13"/>
<polygon fill="black" stroke="black" points="234,-29.09 230.5,-19.09 227,-29.09 234,-29.09"/>
</g>
<!-- IdealChannel -->
<g id="node5" class="node">
<title>IdealChannel</title>
<g id="a_node5"><a xlink:href="ned.IdealChannel.html" xlink:title="Channel IdealChannel" target="_parent">
<polygon fill="#d0ffd0" stroke="black" points="355.5,-19 275.5,-19 275.5,0 355.5,0 355.5,-19"/>
<text text-anchor="middle" x="315.5" y="-7" font-family="Helvetica,sans-Serif" font-size="10.00">IdealChannel</text>
</a>
</g>
</g>
<!-- SmallLAN&#45;&gt;IdealChannel -->
<g id="edge4" class="edge">
<title>SmallLAN&#45;&gt;IdealChannel</title>
<path fill="none" stroke="black" d="M244.16,-54.98C257.34,-46.77 277.53,-34.18 293.07,-24.49"/>
<polygon fill="black" stroke="black" points="294.96,-27.43 301.59,-19.17 291.26,-21.49 294.96,-27.43"/>
</g>
<!-- EthernetHost -->
<g id="node6" class="node">
<title>EthernetHost</title>
<g id="a_node6"><a xlink:href="inet.node.ethernet.EthernetHost.html" xlink:title="Compound Module EthernetHost" target="_parent">
<polygon fill="#fffcaf" stroke="black" points="453.5,-19 373.5,-19 373.5,0 453.5,0 453.5,-19"/>
<text text-anchor="middle" x="413.5" y="-7" font-family="Helvetica,sans-Serif" font-size="10.00">EthernetHost</text>
</a>
</g>
</g>
<!-- SmallLAN&#45;&gt;EthernetHost -->
<g id="edge5" class="edge">
<title>SmallLAN&#45;&gt;EthernetHost</title>
<path fill="none" stroke="black" d="M259.9,-54.98C290.89,-46.01 339.88,-31.82 374.17,-21.89"/>
<polygon fill="black" stroke="black" points="375.24,-25.23 383.87,-19.08 373.29,-18.5 375.24,-25.23"/>
</g>
<!-- LargeNet -->
<g id="node7" class="node">
<title>LargeNet</title>
<g id="a_node7"><a xlink:href="inet.examples.ethernet.lans.LargeNet.html" xlink:title="Network LargeNet" target="_parent">
<polygon fill="#d0d0ff" stroke="black" points="261,-129 200,-129 200,-110 261,-110 261,-129"/>
<text text-anchor="middle" x="230.5" y="-117" font-family="Helvetica,sans-Serif" font-size="10.00">LargeNet</text>
</a>
</g>
</g>
<!-- LargeNet&#45;&gt;SmallLAN -->
<g id="edge6" class="edge">
<title>LargeNet&#45;&gt;SmallLAN</title>
<path fill="none" stroke="black" d="M230.5,-109.75C230.5,-102.8 230.5,-92.85 230.5,-84.13"/>
<polygon fill="black" stroke="black" points="234,-84.09 230.5,-74.09 227,-84.09 234,-84.09"/>
</g>
</g>
</svg>
