<?xml version="1.0" encoding="UTF-8" standalone="no"?>
<!DOCTYPE svg PUBLIC "-//W3C//DTD SVG 1.1//EN"
 "http://www.w3.org/Graphics/SVG/1.1/DTD/svg11.dtd">
<!-- Generated by graphviz version 2.43.0 (0)
 -->
<!-- Title: opp Pages: 1 -->
<svg width="440pt" height="137pt"
 viewBox="0.00 0.00 440.00 137.00" xmlns="http://www.w3.org/2000/svg" xmlns:xlink="http://www.w3.org/1999/xlink">
<g id="graph0" class="graph" transform="scale(1 1) rotate(0) translate(4 133)">
<title>opp</title>
<polygon fill="transparent" stroke="transparent" points="-4,4 -4,-133 436,-133 436,4 -4,4"/>
<!-- DefragmenterBase -->
<g id="node1" class="node">
<title>DefragmenterBase</title>
<g id="a_node1"><a xlink:href="inet.protocolelement.fragmentation.base.DefragmenterBase.html" xlink:title="Simple Module DefragmenterBase" target="_parent">
<polygon fill="#fff700" stroke="black" points="284.5,-74 175.5,-74 175.5,-55 284.5,-55 284.5,-74"/>
<text text-anchor="middle" x="230" y="-62" font-family="Helvetica,sans-Serif" font-size="10.00">DefragmenterBase</text>
</a>
</g>
</g>
<!-- FragmentNumberHeaderBasedDefragmenter -->
<g id="node3" class="node">
<title>FragmentNumberHeaderBasedDefragmenter</title>
<g id="a_node3"><a xlink:href="inet.protocolelement.fragmentation.FragmentNumberHeaderBasedDefragmenter.html" xlink:title="Simple Module FragmentNumberHeaderBasedDefragmenter" target="_parent">
<polygon fill="#fffcaf" stroke="black" points="236,-19 0,-19 0,0 236,0 236,-19"/>
<text text-anchor="middle" x="118" y="-7" font-family="Helvetica,sans-Serif" font-size="10.00">FragmentNumberHeaderBasedDefragmenter</text>
</a>
</g>
</g>
<!-- DefragmenterBase&#45;&gt;FragmentNumberHeaderBasedDefragmenter -->
<g id="edge2" class="edge">
<title>DefragmenterBase&#45;&gt;FragmentNumberHeaderBasedDefragmenter</title>
<path fill="none" stroke="black" d="M212.01,-54.98C191.23,-45.15 157.24,-29.07 136.32,-19.17"/>
</g>
<!-- FragmentTagBasedDefragmenter -->
<g id="node4" class="node">
<title>FragmentTagBasedDefragmenter</title>
<g id="a_node4"><a xlink:href="inet.protocolelement.fragmentation.FragmentTagBasedDefragmenter.html" xlink:title="Simple Module FragmentTagBasedDefragmenter" target="_parent">
<polygon fill="#fffcaf" stroke="black" points="432,-19 254,-19 254,0 432,0 432,-19"/>
<text text-anchor="middle" x="343" y="-7" font-family="Helvetica,sans-Serif" font-size="10.00">FragmentTagBasedDefragmenter</text>
</a>
</g>
</g>
<!-- DefragmenterBase&#45;&gt;FragmentTagBasedDefragmenter -->
<g id="edge3" class="edge">
<title>DefragmenterBase&#45;&gt;FragmentTagBasedDefragmenter</title>
<path fill="none" stroke="black" d="M248.16,-54.98C269.12,-45.15 303.41,-29.07 324.51,-19.17"/>
</g>
<!-- PacketPusherBase -->
<g id="node2" class="node">
<title>PacketPusherBase</title>
<g id="a_node2"><a xlink:href="inet.queueing.base.PacketPusherBase.html" xlink:title="Simple Module PacketPusherBase" target="_parent">
<polygon fill="#fffcaf" stroke="black" points="282.5,-129 177.5,-129 177.5,-110 282.5,-110 282.5,-129"/>
<text text-anchor="middle" x="230" y="-117" font-family="Helvetica,sans-Serif" font-size="10.00">PacketPusherBase</text>
</a>
</g>
</g>
<!-- PacketPusherBase&#45;&gt;DefragmenterBase -->
<g id="edge1" class="edge">
<title>PacketPusherBase&#45;&gt;DefragmenterBase</title>
<path fill="none" stroke="black" d="M230,-109.75C230,-99.87 230,-83.9 230,-74.09"/>
</g>
</g>
</svg>
