<?xml version="1.0" encoding="UTF-8" standalone="no"?>
<!DOCTYPE svg PUBLIC "-//W3C//DTD SVG 1.1//EN"
 "http://www.w3.org/Graphics/SVG/1.1/DTD/svg11.dtd">
<!-- Generated by graphviz version 2.43.0 (0)
 -->
<!-- Title: opp Pages: 1 -->
<svg width="127pt" height="137pt"
 viewBox="0.00 0.00 127.00 137.00" xmlns="http://www.w3.org/2000/svg" xmlns:xlink="http://www.w3.org/1999/xlink">
<g id="graph0" class="graph" transform="scale(1 1) rotate(0) translate(4 133)">
<title>opp</title>
<polygon fill="transparent" stroke="transparent" points="-4,4 -4,-133 123,-133 123,4 -4,4"/>
<!-- InfoVisualizerBase -->
<g id="node1" class="node">
<title>InfoVisualizerBase</title>
<g id="a_node1"><a xlink:href="inet.visualizer.base.InfoVisualizerBase.html" xlink:title="Simple Module InfoVisualizerBase" target="_parent">
<polygon fill="#fff700" stroke="black" points="113,-74 6,-74 6,-55 113,-55 113,-74"/>
<text text-anchor="middle" x="59.5" y="-62" font-family="Helvetica,sans-Serif" font-size="10.00">InfoVisualizerBase</text>
</a>
</g>
</g>
<!-- InfoCanvasVisualizer -->
<g id="node3" class="node">
<title>InfoCanvasVisualizer</title>
<g id="a_node3"><a xlink:href="inet.visualizer.canvas.common.InfoCanvasVisualizer.html" xlink:title="Simple Module InfoCanvasVisualizer" target="_parent">
<polygon fill="#fffcaf" stroke="black" points="119,-19 0,-19 0,0 119,0 119,-19"/>
<text text-anchor="middle" x="59.5" y="-7" font-family="Helvetica,sans-Serif" font-size="10.00">InfoCanvasVisualizer</text>
</a>
</g>
</g>
<!-- InfoVisualizerBase&#45;&gt;InfoCanvasVisualizer -->
<g id="edge2" class="edge">
<title>InfoVisualizerBase&#45;&gt;InfoCanvasVisualizer</title>
<path fill="none" stroke="black" d="M59.5,-54.75C59.5,-44.87 59.5,-28.9 59.5,-19.09"/>
</g>
<!-- VisualizerBase -->
<g id="node2" class="node">
<title>VisualizerBase</title>
<g id="a_node2"><a xlink:href="inet.visualizer.base.VisualizerBase.html" xlink:title="Simple Module VisualizerBase" target="_parent">
<polygon fill="#fffcaf" stroke="black" points="104,-129 15,-129 15,-110 104,-110 104,-129"/>
<text text-anchor="middle" x="59.5" y="-117" font-family="Helvetica,sans-Serif" font-size="10.00">VisualizerBase</text>
</a>
</g>
</g>
<!-- VisualizerBase&#45;&gt;InfoVisualizerBase -->
<g id="edge1" class="edge">
<title>VisualizerBase&#45;&gt;InfoVisualizerBase</title>
<path fill="none" stroke="black" d="M59.5,-109.75C59.5,-99.87 59.5,-83.9 59.5,-74.09"/>
</g>
</g>
</svg>
