<?xml version="1.0" encoding="UTF-8" standalone="no"?>
<!DOCTYPE svg PUBLIC "-//W3C//DTD SVG 1.1//EN"
 "http://www.w3.org/Graphics/SVG/1.1/DTD/svg11.dtd">
<!-- Generated by graphviz version 2.43.0 (0)
 -->
<!-- Title: opp Pages: 1 -->
<svg width="671pt" height="137pt"
 viewBox="0.00 0.00 671.00 137.00" xmlns="http://www.w3.org/2000/svg" xmlns:xlink="http://www.w3.org/1999/xlink">
<g id="graph0" class="graph" transform="scale(1 1) rotate(0) translate(4 133)">
<title>opp</title>
<polygon fill="transparent" stroke="transparent" points="-4,4 -4,-133 667,-133 667,4 -4,4"/>
<!-- IPacketQueue -->
<g id="node1" class="node">
<title>IPacketQueue</title>
<g id="a_node1"><a xlink:href="inet.queueing.contract.IPacketQueue.html" xlink:title="Module Interface IPacketQueue" target="_parent">
<polygon fill="#fff700" stroke="black" stroke-dasharray="5,2" points="405.5,-74 322.5,-74 322.5,-55 405.5,-55 405.5,-74"/>
<text text-anchor="middle" x="364" y="-62" font-family="Helvetica,sans-Serif" font-size="10.00">IPacketQueue</text>
</a>
</g>
</g>
<!-- CompoundPacketQueueBase -->
<g id="node4" class="node">
<title>CompoundPacketQueueBase</title>
<g id="a_node4"><a xlink:href="inet.queueing.queue.CompoundPacketQueueBase.html" xlink:title="Compound Module CompoundPacketQueueBase" target="_parent">
<polygon fill="#fffcaf" stroke="black" points="156,-19 0,-19 0,0 156,0 156,-19"/>
<text text-anchor="middle" x="78" y="-7" font-family="Helvetica,sans-Serif" font-size="10.00">CompoundPacketQueueBase</text>
</a>
</g>
</g>
<!-- IPacketQueue&#45;&gt;CompoundPacketQueueBase -->
<g id="edge3" class="edge">
<title>IPacketQueue&#45;&gt;CompoundPacketQueueBase</title>
<path fill="none" stroke="black" stroke-dasharray="5,2" d="M322.41,-55.79C269.58,-46 178.71,-29.16 123.9,-19.01"/>
</g>
<!-- EthernetQosQueue -->
<g id="node5" class="node">
<title>EthernetQosQueue</title>
<g id="a_node5"><a xlink:href="inet.linklayer.ethernet.common.EthernetQosQueue.html" xlink:title="Compound Module EthernetQosQueue" target="_parent">
<polygon fill="#fffcaf" stroke="black" points="282,-19 174,-19 174,0 282,0 282,-19"/>
<text text-anchor="middle" x="228" y="-7" font-family="Helvetica,sans-Serif" font-size="10.00">EthernetQosQueue</text>
</a>
</g>
</g>
<!-- IPacketQueue&#45;&gt;EthernetQosQueue -->
<g id="edge4" class="edge">
<title>IPacketQueue&#45;&gt;EthernetQosQueue</title>
<path fill="none" stroke="black" stroke-dasharray="5,2" d="M342.15,-54.98C316.92,-45.15 275.64,-29.07 250.25,-19.17"/>
</g>
<!-- EthernetQosRedQueue -->
<g id="node6" class="node">
<title>EthernetQosRedQueue</title>
<g id="a_node6"><a xlink:href="inet.linklayer.ethernet.common.EthernetQosRedQueue.html" xlink:title="Compound Module EthernetQosRedQueue" target="_parent">
<polygon fill="#fffcaf" stroke="black" points="427.5,-19 300.5,-19 300.5,0 427.5,0 427.5,-19"/>
<text text-anchor="middle" x="364" y="-7" font-family="Helvetica,sans-Serif" font-size="10.00">EthernetQosRedQueue</text>
</a>
</g>
</g>
<!-- IPacketQueue&#45;&gt;EthernetQosRedQueue -->
<g id="edge5" class="edge">
<title>IPacketQueue&#45;&gt;EthernetQosRedQueue</title>
<path fill="none" stroke="black" stroke-dasharray="5,2" d="M364,-54.75C364,-44.87 364,-28.9 364,-19.09"/>
</g>
<!-- OmittedPacketQueue -->
<g id="node7" class="node">
<title>OmittedPacketQueue</title>
<g id="a_node7"><a xlink:href="inet.queueing.queue.OmittedPacketQueue.html" xlink:title="Compound Module OmittedPacketQueue" target="_parent">
<polygon fill="#fffcaf" stroke="black" points="564.5,-19 445.5,-19 445.5,0 564.5,0 564.5,-19"/>
<text text-anchor="middle" x="505" y="-7" font-family="Helvetica,sans-Serif" font-size="10.00">OmittedPacketQueue</text>
</a>
</g>
</g>
<!-- IPacketQueue&#45;&gt;OmittedPacketQueue -->
<g id="edge6" class="edge">
<title>IPacketQueue&#45;&gt;OmittedPacketQueue</title>
<path fill="none" stroke="black" stroke-dasharray="5,2" d="M386.65,-54.98C412.81,-45.15 455.6,-29.07 481.93,-19.17"/>
</g>
<!-- PacketQueue -->
<g id="node8" class="node">
<title>PacketQueue</title>
<g id="a_node8"><a xlink:href="inet.queueing.queue.PacketQueue.html" xlink:title="Simple Module PacketQueue" target="_parent">
<polygon fill="#fffcaf" stroke="black" points="663,-19 583,-19 583,0 663,0 663,-19"/>
<text text-anchor="middle" x="623" y="-7" font-family="Helvetica,sans-Serif" font-size="10.00">PacketQueue</text>
</a>
</g>
</g>
<!-- IPacketQueue&#45;&gt;PacketQueue -->
<g id="edge7" class="edge">
<title>IPacketQueue&#45;&gt;PacketQueue</title>
<path fill="none" stroke="black" stroke-dasharray="5,2" d="M405.61,-54.98C454.37,-45.01 534.61,-28.59 582.77,-18.73"/>
</g>
<!-- IPassivePacketSink -->
<g id="node2" class="node">
<title>IPassivePacketSink</title>
<g id="a_node2"><a xlink:href="inet.queueing.contract.IPassivePacketSink.html" xlink:title="Module Interface IPassivePacketSink" target="_parent">
<polygon fill="#fffcaf" stroke="black" stroke-dasharray="5,2" points="352.5,-129 243.5,-129 243.5,-110 352.5,-110 352.5,-129"/>
<text text-anchor="middle" x="298" y="-117" font-family="Helvetica,sans-Serif" font-size="10.00">IPassivePacketSink</text>
</a>
</g>
</g>
<!-- IPassivePacketSink&#45;&gt;IPacketQueue -->
<g id="edge1" class="edge">
<title>IPassivePacketSink&#45;&gt;IPacketQueue</title>
<path fill="none" stroke="black" d="M308.6,-109.98C320.85,-100.15 340.88,-84.07 353.2,-74.17"/>
</g>
<!-- IPassivePacketSource -->
<g id="node3" class="node">
<title>IPassivePacketSource</title>
<g id="a_node3"><a xlink:href="inet.queueing.contract.IPassivePacketSource.html" xlink:title="Module Interface IPassivePacketSource" target="_parent">
<polygon fill="#fffcaf" stroke="black" stroke-dasharray="5,2" points="491.5,-129 370.5,-129 370.5,-110 491.5,-110 491.5,-129"/>
<text text-anchor="middle" x="431" y="-117" font-family="Helvetica,sans-Serif" font-size="10.00">IPassivePacketSource</text>
</a>
</g>
</g>
<!-- IPassivePacketSource&#45;&gt;IPacketQueue -->
<g id="edge2" class="edge">
<title>IPassivePacketSource&#45;&gt;IPacketQueue</title>
<path fill="none" stroke="black" d="M420.24,-109.98C407.81,-100.15 387.47,-84.07 374.96,-74.17"/>
</g>
</g>
</svg>
