<?xml version="1.0" encoding="UTF-8" standalone="no"?>
<!DOCTYPE svg PUBLIC "-//W3C//DTD SVG 1.1//EN"
 "http://www.w3.org/Graphics/SVG/1.1/DTD/svg11.dtd">
<!-- Generated by graphviz version 2.43.0 (0)
 -->
<!-- Title: opp Pages: 1 -->
<svg width="751pt" height="137pt"
 viewBox="0.00 0.00 750.50 137.00" xmlns="http://www.w3.org/2000/svg" xmlns:xlink="http://www.w3.org/1999/xlink">
<g id="graph0" class="graph" transform="scale(1 1) rotate(0) translate(4 133)">
<title>opp</title>
<polygon fill="transparent" stroke="transparent" points="-4,4 -4,-133 746.5,-133 746.5,4 -4,4"/>
<!-- IWirelessInterface -->
<g id="node1" class="node">
<title>IWirelessInterface</title>
<g id="a_node1"><a xlink:href="inet.linklayer.contract.IWirelessInterface.html" xlink:title="Module Interface IWirelessInterface" target="_parent">
<polygon fill="#fff700" stroke="black" stroke-dasharray="5,2" points="423,-74 318,-74 318,-55 423,-55 423,-74"/>
<text text-anchor="middle" x="370.5" y="-62" font-family="Helvetica,sans-Serif" font-size="10.00">IWirelessInterface</text>
</a>
</g>
</g>
<!-- AckingWirelessInterface -->
<g id="node3" class="node">
<title>AckingWirelessInterface</title>
<g id="a_node3"><a xlink:href="inet.linklayer.acking.AckingWirelessInterface.html" xlink:title="Compound Module AckingWirelessInterface" target="_parent">
<polygon fill="#fffcaf" stroke="black" points="135,-19 0,-19 0,0 135,0 135,-19"/>
<text text-anchor="middle" x="67.5" y="-7" font-family="Helvetica,sans-Serif" font-size="10.00">AckingWirelessInterface</text>
</a>
</g>
</g>
<!-- IWirelessInterface&#45;&gt;AckingWirelessInterface -->
<g id="edge2" class="edge">
<title>IWirelessInterface&#45;&gt;AckingWirelessInterface</title>
<path fill="none" stroke="black" stroke-dasharray="5,2" d="M321.82,-54.98C265.36,-45.11 172.83,-28.92 116.31,-19.04"/>
</g>
<!-- Ieee80211Interface -->
<g id="node4" class="node">
<title>Ieee80211Interface</title>
<g id="a_node4"><a xlink:href="inet.linklayer.ieee80211.Ieee80211Interface.html" xlink:title="Compound Module Ieee80211Interface" target="_parent">
<polygon fill="#fffcaf" stroke="black" points="264,-19 153,-19 153,0 264,0 264,-19"/>
<text text-anchor="middle" x="208.5" y="-7" font-family="Helvetica,sans-Serif" font-size="10.00">Ieee80211Interface</text>
</a>
</g>
</g>
<!-- IWirelessInterface&#45;&gt;Ieee80211Interface -->
<g id="edge3" class="edge">
<title>IWirelessInterface&#45;&gt;Ieee80211Interface</title>
<path fill="none" stroke="black" stroke-dasharray="5,2" d="M344.47,-54.98C314.33,-45.12 264.96,-28.97 234.73,-19.08"/>
</g>
<!-- Ieee802154NarrowbandInterface -->
<g id="node5" class="node">
<title>Ieee802154NarrowbandInterface</title>
<g id="a_node5"><a xlink:href="inet.linklayer.ieee802154.Ieee802154NarrowbandInterface.html" xlink:title="Compound Module Ieee802154NarrowbandInterface" target="_parent">
<polygon fill="#fffcaf" stroke="black" points="458.5,-19 282.5,-19 282.5,0 458.5,0 458.5,-19"/>
<text text-anchor="middle" x="370.5" y="-7" font-family="Helvetica,sans-Serif" font-size="10.00">Ieee802154NarrowbandInterface</text>
</a>
</g>
</g>
<!-- IWirelessInterface&#45;&gt;Ieee802154NarrowbandInterface -->
<g id="edge4" class="edge">
<title>IWirelessInterface&#45;&gt;Ieee802154NarrowbandInterface</title>
<path fill="none" stroke="black" stroke-dasharray="5,2" d="M370.5,-54.75C370.5,-44.87 370.5,-28.9 370.5,-19.09"/>
</g>
<!-- Ieee802154UwbIrInterface -->
<g id="node6" class="node">
<title>Ieee802154UwbIrInterface</title>
<g id="a_node6"><a xlink:href="inet.linklayer.ieee802154.Ieee802154UwbIrInterface.html" xlink:title="Compound Module Ieee802154UwbIrInterface" target="_parent">
<polygon fill="#fffcaf" stroke="black" points="622.5,-19 476.5,-19 476.5,0 622.5,0 622.5,-19"/>
<text text-anchor="middle" x="549.5" y="-7" font-family="Helvetica,sans-Serif" font-size="10.00">Ieee802154UwbIrInterface</text>
</a>
</g>
</g>
<!-- IWirelessInterface&#45;&gt;Ieee802154UwbIrInterface -->
<g id="edge5" class="edge">
<title>IWirelessInterface&#45;&gt;Ieee802154UwbIrInterface</title>
<path fill="none" stroke="black" stroke-dasharray="5,2" d="M399.26,-54.98C432.56,-45.12 487.12,-28.97 520.52,-19.08"/>
</g>
<!-- WirelessInterface -->
<g id="node7" class="node">
<title>WirelessInterface</title>
<g id="a_node7"><a xlink:href="inet.linklayer.common.WirelessInterface.html" xlink:title="Compound Module WirelessInterface" target="_parent">
<polygon fill="#fffcaf" stroke="black" points="742.5,-19 640.5,-19 640.5,0 742.5,0 742.5,-19"/>
<text text-anchor="middle" x="691.5" y="-7" font-family="Helvetica,sans-Serif" font-size="10.00">WirelessInterface</text>
</a>
</g>
</g>
<!-- IWirelessInterface&#45;&gt;WirelessInterface -->
<g id="edge6" class="edge">
<title>IWirelessInterface&#45;&gt;WirelessInterface</title>
<path fill="none" stroke="black" stroke-dasharray="5,2" d="M422.07,-54.98C482.06,-45.08 580.5,-28.83 640.32,-18.95"/>
</g>
<!-- INetworkInterface -->
<g id="node2" class="node">
<title>INetworkInterface</title>
<g id="a_node2"><a xlink:href="inet.linklayer.contract.INetworkInterface.html" xlink:title="Module Interface INetworkInterface" target="_parent">
<polygon fill="#fffcaf" stroke="black" stroke-dasharray="5,2" points="422.5,-129 318.5,-129 318.5,-110 422.5,-110 422.5,-129"/>
<text text-anchor="middle" x="370.5" y="-117" font-family="Helvetica,sans-Serif" font-size="10.00">INetworkInterface</text>
</a>
</g>
</g>
<!-- INetworkInterface&#45;&gt;IWirelessInterface -->
<g id="edge1" class="edge">
<title>INetworkInterface&#45;&gt;IWirelessInterface</title>
<path fill="none" stroke="black" d="M370.5,-109.75C370.5,-99.87 370.5,-83.9 370.5,-74.09"/>
</g>
</g>
</svg>
