<?xml version="1.0" encoding="UTF-8" standalone="no"?>
<!DOCTYPE svg PUBLIC "-//W3C//DTD SVG 1.1//EN"
 "http://www.w3.org/Graphics/SVG/1.1/DTD/svg11.dtd">
<!-- Generated by graphviz version 2.43.0 (0)
 -->
<!-- Title: opp Pages: 1 -->
<svg width="506pt" height="82pt"
 viewBox="0.00 0.00 505.50 82.00" xmlns="http://www.w3.org/2000/svg" xmlns:xlink="http://www.w3.org/1999/xlink">
<g id="graph0" class="graph" transform="scale(1 1) rotate(0) translate(4 78)">
<title>opp</title>
<polygon fill="transparent" stroke="transparent" points="-4,4 -4,-78 501.5,-78 501.5,4 -4,4"/>
<!-- MobileNetwork -->
<g id="node1" class="node">
<title>MobileNetwork</title>
<g id="a_node1"><a xlink:href="inet.examples.mobility.MobileNetwork.html" xlink:title="Network MobileNetwork" target="_parent">
<polygon fill="#9090ff" stroke="black" points="287.5,-74 196.5,-74 196.5,-55 287.5,-55 287.5,-74"/>
<text text-anchor="middle" x="242" y="-62" font-family="Helvetica,sans-Serif" font-size="10.00">MobileNetwork</text>
</a>
</g>
</g>
<!-- MobileHost -->
<g id="node2" class="node">
<title>MobileHost</title>
<g id="a_node2"><a xlink:href="inet.examples.mobility.MobileHost.html" xlink:title="Compound Module MobileHost" target="_parent">
<polygon fill="#fffcaf" stroke="black" points="72,-19 0,-19 0,0 72,0 72,-19"/>
<text text-anchor="middle" x="36" y="-7" font-family="Helvetica,sans-Serif" font-size="10.00">MobileHost</text>
</a>
</g>
</g>
<!-- MobileNetwork&#45;&gt;MobileHost -->
<g id="edge1" class="edge">
<title>MobileNetwork&#45;&gt;MobileHost</title>
<path fill="none" stroke="black" d="M208.9,-54.98C173.72,-45.93 117.93,-31.58 79.28,-21.64"/>
<polygon fill="black" stroke="black" points="79.91,-18.18 69.36,-19.08 78.17,-24.96 79.91,-18.18"/>
</g>
<!-- IntegratedCanvasVisualizer -->
<g id="node3" class="node">
<title>IntegratedCanvasVisualizer</title>
<g id="a_node3"><a xlink:href="inet.visualizer.canvas.integrated.IntegratedCanvasVisualizer.html" xlink:title="Compound Module IntegratedCanvasVisualizer" target="_parent">
<polygon fill="#fffcaf" stroke="black" points="241.5,-19 90.5,-19 90.5,0 241.5,0 241.5,-19"/>
<text text-anchor="middle" x="166" y="-7" font-family="Helvetica,sans-Serif" font-size="10.00">IntegratedCanvasVisualizer</text>
</a>
</g>
</g>
<!-- MobileNetwork&#45;&gt;IntegratedCanvasVisualizer -->
<g id="edge2" class="edge">
<title>MobileNetwork&#45;&gt;IntegratedCanvasVisualizer</title>
<path fill="none" stroke="black" d="M229.79,-54.98C218.22,-46.92 200.62,-34.65 186.84,-25.03"/>
<polygon fill="black" stroke="black" points="188.64,-22.02 178.43,-19.17 184.63,-27.76 188.64,-22.02"/>
</g>
<!-- PhysicalEnvironment -->
<g id="node4" class="node">
<title>PhysicalEnvironment</title>
<g id="a_node4"><a xlink:href="inet.environment.common.PhysicalEnvironment.html" xlink:title="Compound Module PhysicalEnvironment" target="_parent">
<polygon fill="#fffcaf" stroke="black" points="378.5,-19 259.5,-19 259.5,0 378.5,0 378.5,-19"/>
<text text-anchor="middle" x="319" y="-7" font-family="Helvetica,sans-Serif" font-size="10.00">PhysicalEnvironment</text>
</a>
</g>
</g>
<!-- MobileNetwork&#45;&gt;PhysicalEnvironment -->
<g id="edge3" class="edge">
<title>MobileNetwork&#45;&gt;PhysicalEnvironment</title>
<path fill="none" stroke="black" d="M254.37,-54.98C266.09,-46.92 283.92,-34.65 297.89,-25.03"/>
<polygon fill="black" stroke="black" points="300.15,-27.72 306.4,-19.17 296.18,-21.96 300.15,-27.72"/>
</g>
<!-- ScenarioManager -->
<g id="node5" class="node">
<title>ScenarioManager</title>
<g id="a_node5"><a xlink:href="inet.common.scenario.ScenarioManager.html" xlink:title="Simple Module ScenarioManager" target="_parent">
<polygon fill="#fffcaf" stroke="black" points="497.5,-19 396.5,-19 396.5,0 497.5,0 497.5,-19"/>
<text text-anchor="middle" x="447" y="-7" font-family="Helvetica,sans-Serif" font-size="10.00">ScenarioManager</text>
</a>
</g>
</g>
<!-- MobileNetwork&#45;&gt;ScenarioManager -->
<g id="edge4" class="edge">
<title>MobileNetwork&#45;&gt;ScenarioManager</title>
<path fill="none" stroke="black" d="M274.94,-54.98C309.95,-45.93 365.47,-31.58 403.93,-21.64"/>
<polygon fill="black" stroke="black" points="405,-24.97 413.81,-19.08 403.25,-18.2 405,-24.97"/>
</g>
</g>
</svg>
