<?xml version="1.0" encoding="UTF-8" standalone="no"?>
<!DOCTYPE svg PUBLIC "-//W3C//DTD SVG 1.1//EN"
 "http://www.w3.org/Graphics/SVG/1.1/DTD/svg11.dtd">
<!-- Generated by graphviz version 2.43.0 (0)
 -->
<!-- Title: opp Pages: 1 -->
<svg width="329pt" height="137pt"
 viewBox="0.00 0.00 329.00 137.00" xmlns="http://www.w3.org/2000/svg" xmlns:xlink="http://www.w3.org/1999/xlink">
<g id="graph0" class="graph" transform="scale(1 1) rotate(0) translate(4 133)">
<title>opp</title>
<polygon fill="transparent" stroke="transparent" points="-4,4 -4,-133 325,-133 325,4 -4,4"/>
<!-- StandardHost6 -->
<g id="node1" class="node">
<title>StandardHost6</title>
<g id="a_node1"><a xlink:href="inet.node.ipv6.StandardHost6.html" xlink:title="Compound Module StandardHost6" target="_parent">
<polygon fill="#fff700" stroke="black" points="221,-74 132,-74 132,-55 221,-55 221,-74"/>
<text text-anchor="middle" x="176.5" y="-62" font-family="Helvetica,sans-Serif" font-size="10.00">StandardHost6</text>
</a>
</g>
</g>
<!-- CorrespondentNode6 -->
<g id="node3" class="node">
<title>CorrespondentNode6</title>
<g id="a_node3"><a xlink:href="inet.node.xmipv6.CorrespondentNode6.html" xlink:title="Compound Module CorrespondentNode6" target="_parent">
<polygon fill="#fffcaf" stroke="black" points="119,-19 0,-19 0,0 119,0 119,-19"/>
<text text-anchor="middle" x="59.5" y="-7" font-family="Helvetica,sans-Serif" font-size="10.00">CorrespondentNode6</text>
</a>
</g>
</g>
<!-- StandardHost6&#45;&gt;CorrespondentNode6 -->
<g id="edge2" class="edge">
<title>StandardHost6&#45;&gt;CorrespondentNode6</title>
<path fill="none" stroke="black" d="M157.7,-54.98C136,-45.15 100.49,-29.07 78.64,-19.17"/>
</g>
<!-- MobileHost6 -->
<g id="node4" class="node">
<title>MobileHost6</title>
<g id="a_node4"><a xlink:href="inet.node.xmipv6.MobileHost6.html" xlink:title="Compound Module MobileHost6" target="_parent">
<polygon fill="#fffcaf" stroke="black" points="215.5,-19 137.5,-19 137.5,0 215.5,0 215.5,-19"/>
<text text-anchor="middle" x="176.5" y="-7" font-family="Helvetica,sans-Serif" font-size="10.00">MobileHost6</text>
</a>
</g>
</g>
<!-- StandardHost6&#45;&gt;MobileHost6 -->
<g id="edge3" class="edge">
<title>StandardHost6&#45;&gt;MobileHost6</title>
<path fill="none" stroke="black" d="M176.5,-54.75C176.5,-44.87 176.5,-28.9 176.5,-19.09"/>
</g>
<!-- WirelessHost6 -->
<g id="node5" class="node">
<title>WirelessHost6</title>
<g id="a_node5"><a xlink:href="inet.node.xmipv6.WirelessHost6.html" xlink:title="Compound Module WirelessHost6" target="_parent">
<polygon fill="#fffcaf" stroke="black" points="321,-19 234,-19 234,0 321,0 321,-19"/>
<text text-anchor="middle" x="277.5" y="-7" font-family="Helvetica,sans-Serif" font-size="10.00">WirelessHost6</text>
</a>
</g>
</g>
<!-- StandardHost6&#45;&gt;WirelessHost6 -->
<g id="edge4" class="edge">
<title>StandardHost6&#45;&gt;WirelessHost6</title>
<path fill="none" stroke="black" d="M192.73,-54.98C211.46,-45.15 242.12,-29.07 260.98,-19.17"/>
</g>
<!-- StandardHost -->
<g id="node2" class="node">
<title>StandardHost</title>
<g id="a_node2"><a xlink:href="inet.node.inet.StandardHost.html" xlink:title="Compound Module StandardHost" target="_parent">
<polygon fill="#fffcaf" stroke="black" points="218,-129 135,-129 135,-110 218,-110 218,-129"/>
<text text-anchor="middle" x="176.5" y="-117" font-family="Helvetica,sans-Serif" font-size="10.00">StandardHost</text>
</a>
</g>
</g>
<!-- StandardHost&#45;&gt;StandardHost6 -->
<g id="edge1" class="edge">
<title>StandardHost&#45;&gt;StandardHost6</title>
<path fill="none" stroke="black" d="M176.5,-109.75C176.5,-99.87 176.5,-83.9 176.5,-74.09"/>
</g>
</g>
</svg>
