<?xml version="1.0" encoding="UTF-8" standalone="no"?>
<!DOCTYPE svg PUBLIC "-//W3C//DTD SVG 1.1//EN"
 "http://www.w3.org/Graphics/SVG/1.1/DTD/svg11.dtd">
<!-- Generated by graphviz version 2.43.0 (0)
 -->
<!-- Title: opp Pages: 1 -->
<svg width="163pt" height="137pt"
 viewBox="0.00 0.00 163.00 137.00" xmlns="http://www.w3.org/2000/svg" xmlns:xlink="http://www.w3.org/1999/xlink">
<g id="graph0" class="graph" transform="scale(1 1) rotate(0) translate(4 133)">
<title>opp</title>
<polygon fill="transparent" stroke="transparent" points="-4,4 -4,-133 159,-133 159,4 -4,4"/>
<!-- PacketDropVisualizerBase -->
<g id="node1" class="node">
<title>PacketDropVisualizerBase</title>
<g id="a_node1"><a xlink:href="inet.visualizer.base.PacketDropVisualizerBase.html" xlink:title="Simple Module PacketDropVisualizerBase" target="_parent">
<polygon fill="#fff700" stroke="black" points="149,-74 6,-74 6,-55 149,-55 149,-74"/>
<text text-anchor="middle" x="77.5" y="-62" font-family="Helvetica,sans-Serif" font-size="10.00">PacketDropVisualizerBase</text>
</a>
</g>
</g>
<!-- PacketDropCanvasVisualizer -->
<g id="node3" class="node">
<title>PacketDropCanvasVisualizer</title>
<g id="a_node3"><a xlink:href="inet.visualizer.canvas.common.PacketDropCanvasVisualizer.html" xlink:title="Simple Module PacketDropCanvasVisualizer" target="_parent">
<polygon fill="#fffcaf" stroke="black" points="155,-19 0,-19 0,0 155,0 155,-19"/>
<text text-anchor="middle" x="77.5" y="-7" font-family="Helvetica,sans-Serif" font-size="10.00">PacketDropCanvasVisualizer</text>
</a>
</g>
</g>
<!-- PacketDropVisualizerBase&#45;&gt;PacketDropCanvasVisualizer -->
<g id="edge2" class="edge">
<title>PacketDropVisualizerBase&#45;&gt;PacketDropCanvasVisualizer</title>
<path fill="none" stroke="black" d="M77.5,-54.75C77.5,-44.87 77.5,-28.9 77.5,-19.09"/>
</g>
<!-- VisualizerBase -->
<g id="node2" class="node">
<title>VisualizerBase</title>
<g id="a_node2"><a xlink:href="inet.visualizer.base.VisualizerBase.html" xlink:title="Simple Module VisualizerBase" target="_parent">
<polygon fill="#fffcaf" stroke="black" points="122,-129 33,-129 33,-110 122,-110 122,-129"/>
<text text-anchor="middle" x="77.5" y="-117" font-family="Helvetica,sans-Serif" font-size="10.00">VisualizerBase</text>
</a>
</g>
</g>
<!-- VisualizerBase&#45;&gt;PacketDropVisualizerBase -->
<g id="edge1" class="edge">
<title>VisualizerBase&#45;&gt;PacketDropVisualizerBase</title>
<path fill="none" stroke="black" d="M77.5,-109.75C77.5,-99.87 77.5,-83.9 77.5,-74.09"/>
</g>
</g>
</svg>
