<?xml version="1.0" encoding="UTF-8" standalone="no"?>
<!DOCTYPE svg PUBLIC "-//W3C//DTD SVG 1.1//EN"
 "http://www.w3.org/Graphics/SVG/1.1/DTD/svg11.dtd">
<!-- Generated by graphviz version 2.43.0 (0)
 -->
<!-- Title: opp Pages: 1 -->
<svg width="610pt" height="137pt"
 viewBox="0.00 0.00 609.50 137.00" xmlns="http://www.w3.org/2000/svg" xmlns:xlink="http://www.w3.org/1999/xlink">
<g id="graph0" class="graph" transform="scale(1 1) rotate(0) translate(4 133)">
<title>opp</title>
<polygon fill="transparent" stroke="transparent" points="-4,4 -4,-133 605.5,-133 605.5,4 -4,4"/>
<!-- FreeSpacePathLoss -->
<g id="node1" class="node">
<title>FreeSpacePathLoss</title>
<g id="a_node1"><a xlink:href="inet.physicallayer.wireless.common.pathloss.FreeSpacePathLoss.html" xlink:title="Compound Module FreeSpacePathLoss" target="_parent">
<polygon fill="#fff700" stroke="black" points="358.5,-74 248.5,-74 248.5,-55 358.5,-55 358.5,-74"/>
<text text-anchor="middle" x="303.5" y="-62" font-family="Helvetica,sans-Serif" font-size="10.00">FreeSpacePathLoss</text>
</a>
</g>
</g>
<!-- LogNormalShadowing -->
<g id="node3" class="node">
<title>LogNormalShadowing</title>
<g id="a_node3"><a xlink:href="inet.physicallayer.wireless.common.pathloss.LogNormalShadowing.html" xlink:title="Compound Module LogNormalShadowing" target="_parent">
<polygon fill="#fffcaf" stroke="black" points="123,-19 0,-19 0,0 123,0 123,-19"/>
<text text-anchor="middle" x="61.5" y="-7" font-family="Helvetica,sans-Serif" font-size="10.00">LogNormalShadowing</text>
</a>
</g>
</g>
<!-- FreeSpacePathLoss&#45;&gt;LogNormalShadowing -->
<g id="edge2" class="edge">
<title>FreeSpacePathLoss&#45;&gt;LogNormalShadowing</title>
<path fill="none" stroke="black" d="M264.62,-54.98C219.59,-45.12 145.84,-28.97 100.69,-19.08"/>
</g>
<!-- NakagamiFading -->
<g id="node4" class="node">
<title>NakagamiFading</title>
<g id="a_node4"><a xlink:href="inet.physicallayer.wireless.common.pathloss.NakagamiFading.html" xlink:title="Compound Module NakagamiFading" target="_parent">
<polygon fill="#fffcaf" stroke="black" points="239.5,-19 141.5,-19 141.5,0 239.5,0 239.5,-19"/>
<text text-anchor="middle" x="190.5" y="-7" font-family="Helvetica,sans-Serif" font-size="10.00">NakagamiFading</text>
</a>
</g>
</g>
<!-- FreeSpacePathLoss&#45;&gt;NakagamiFading -->
<g id="edge3" class="edge">
<title>FreeSpacePathLoss&#45;&gt;NakagamiFading</title>
<path fill="none" stroke="black" d="M285.34,-54.98C264.38,-45.15 230.09,-29.07 208.99,-19.17"/>
</g>
<!-- RayleighFading -->
<g id="node5" class="node">
<title>RayleighFading</title>
<g id="a_node5"><a xlink:href="inet.physicallayer.wireless.common.pathloss.RayleighFading.html" xlink:title="Compound Module RayleighFading" target="_parent">
<polygon fill="#fffcaf" stroke="black" points="349,-19 258,-19 258,0 349,0 349,-19"/>
<text text-anchor="middle" x="303.5" y="-7" font-family="Helvetica,sans-Serif" font-size="10.00">RayleighFading</text>
</a>
</g>
</g>
<!-- FreeSpacePathLoss&#45;&gt;RayleighFading -->
<g id="edge4" class="edge">
<title>FreeSpacePathLoss&#45;&gt;RayleighFading</title>
<path fill="none" stroke="black" d="M303.5,-54.75C303.5,-44.87 303.5,-28.9 303.5,-19.09"/>
</g>
<!-- RicianFading -->
<g id="node6" class="node">
<title>RicianFading</title>
<g id="a_node6"><a xlink:href="inet.physicallayer.wireless.common.pathloss.RicianFading.html" xlink:title="Compound Module RicianFading" target="_parent">
<polygon fill="#fffcaf" stroke="black" points="445.5,-19 367.5,-19 367.5,0 445.5,0 445.5,-19"/>
<text text-anchor="middle" x="406.5" y="-7" font-family="Helvetica,sans-Serif" font-size="10.00">RicianFading</text>
</a>
</g>
</g>
<!-- FreeSpacePathLoss&#45;&gt;RicianFading -->
<g id="edge5" class="edge">
<title>FreeSpacePathLoss&#45;&gt;RicianFading</title>
<path fill="none" stroke="black" d="M320.05,-54.98C339.16,-45.15 370.42,-29.07 389.65,-19.17"/>
</g>
<!-- TwoRayGroundReflection -->
<g id="node7" class="node">
<title>TwoRayGroundReflection</title>
<g id="a_node7"><a xlink:href="inet.physicallayer.wireless.common.pathloss.TwoRayGroundReflection.html" xlink:title="Compound Module TwoRayGroundReflection" target="_parent">
<polygon fill="#fffcaf" stroke="black" points="601.5,-19 463.5,-19 463.5,0 601.5,0 601.5,-19"/>
<text text-anchor="middle" x="532.5" y="-7" font-family="Helvetica,sans-Serif" font-size="10.00">TwoRayGroundReflection</text>
</a>
</g>
</g>
<!-- FreeSpacePathLoss&#45;&gt;TwoRayGroundReflection -->
<g id="edge6" class="edge">
<title>FreeSpacePathLoss&#45;&gt;TwoRayGroundReflection</title>
<path fill="none" stroke="black" d="M340.29,-54.98C382.9,-45.12 452.69,-28.97 495.42,-19.08"/>
</g>
<!-- IPathLoss -->
<g id="node2" class="node">
<title>IPathLoss</title>
<g id="a_node2"><a xlink:href="inet.physicallayer.wireless.common.contract.packetlevel.IPathLoss.html" xlink:title="Module Interface IPathLoss" target="_parent">
<polygon fill="#fffcaf" stroke="black" stroke-dasharray="5,2" points="334.5,-129 272.5,-129 272.5,-110 334.5,-110 334.5,-129"/>
<text text-anchor="middle" x="303.5" y="-117" font-family="Helvetica,sans-Serif" font-size="10.00">IPathLoss</text>
</a>
</g>
</g>
<!-- IPathLoss&#45;&gt;FreeSpacePathLoss -->
<g id="edge1" class="edge">
<title>IPathLoss&#45;&gt;FreeSpacePathLoss</title>
<path fill="none" stroke="black" stroke-dasharray="5,2" d="M303.5,-109.75C303.5,-99.87 303.5,-83.9 303.5,-74.09"/>
</g>
</g>
</svg>
