<?xml version="1.0" encoding="UTF-8" standalone="no"?>
<!DOCTYPE svg PUBLIC "-//W3C//DTD SVG 1.1//EN"
 "http://www.w3.org/Graphics/SVG/1.1/DTD/svg11.dtd">
<!-- Generated by graphviz version 2.43.0 (0)
 -->
<!-- Title: opp Pages: 1 -->
<svg width="3805pt" height="137pt"
 viewBox="0.00 0.00 3805.00 137.00" xmlns="http://www.w3.org/2000/svg" xmlns:xlink="http://www.w3.org/1999/xlink">
<g id="graph0" class="graph" transform="scale(1 1) rotate(0) translate(4 133)">
<title>opp</title>
<polygon fill="transparent" stroke="transparent" points="-4,4 -4,-133 3801,-133 3801,4 -4,4"/>
<!-- IntegratedMultiCanvasVisualizer -->
<g id="node1" class="node">
<title>IntegratedMultiCanvasVisualizer</title>
<g id="a_node1"><a xlink:href="inet.visualizer.canvas.integrated.IntegratedMultiCanvasVisualizer.html" xlink:title="Compound Module IntegratedMultiCanvasVisualizer" target="_parent">
<polygon fill="#fff700" stroke="black" points="1844,-74 1668,-74 1668,-55 1844,-55 1844,-74"/>
<text text-anchor="middle" x="1756" y="-62" font-family="Helvetica,sans-Serif" font-size="10.00">IntegratedMultiCanvasVisualizer</text>
</a>
</g>
</g>
<!-- INetworkNodeVisualizer -->
<g id="node2" class="node">
<title>INetworkNodeVisualizer</title>
<g id="a_node2"><a xlink:href="inet.visualizer.contract.INetworkNodeVisualizer.html" xlink:title="Module Interface INetworkNodeVisualizer" target="_parent">
<polygon fill="#fffcaf" stroke="black" stroke-dasharray="5,2" points="134,-19 0,-19 0,0 134,0 134,-19"/>
<text text-anchor="middle" x="67" y="-7" font-family="Helvetica,sans-Serif" font-size="10.00">INetworkNodeVisualizer</text>
</a>
</g>
</g>
<!-- IntegratedMultiCanvasVisualizer&#45;&gt;INetworkNodeVisualizer -->
<g id="edge1" class="edge">
<title>IntegratedMultiCanvasVisualizer&#45;&gt;INetworkNodeVisualizer</title>
<path fill="none" stroke="black" d="M1667.57,-63.66C1425.56,-63.54 731.78,-59.45 144.48,-19.03"/>
<polygon fill="black" stroke="black" points="144.33,-15.51 134.11,-18.31 143.84,-22.5 144.33,-15.51"/>
</g>
<!-- IQueueVisualizer -->
<g id="node3" class="node">
<title>IQueueVisualizer</title>
<g id="a_node3"><a xlink:href="inet.visualizer.contract.IQueueVisualizer.html" xlink:title="Module Interface IQueueVisualizer" target="_parent">
<polygon fill="#fffcaf" stroke="black" stroke-dasharray="5,2" points="251.5,-19 152.5,-19 152.5,0 251.5,0 251.5,-19"/>
<text text-anchor="middle" x="202" y="-7" font-family="Helvetica,sans-Serif" font-size="10.00">IQueueVisualizer</text>
</a>
</g>
</g>
<!-- IntegratedMultiCanvasVisualizer&#45;&gt;IQueueVisualizer -->
<g id="edge2" class="edge">
<title>IntegratedMultiCanvasVisualizer&#45;&gt;IQueueVisualizer</title>
<path fill="none" stroke="black" d="M1667.87,-62.22C1393.51,-58.03 555.93,-43.59 261.86,-19.04"/>
<polygon fill="black" stroke="black" points="261.89,-15.53 251.63,-18.16 261.29,-22.5 261.89,-15.53"/>
</g>
<!-- IInterfaceTableVisualizer -->
<g id="node4" class="node">
<title>IInterfaceTableVisualizer</title>
<g id="a_node4"><a xlink:href="inet.visualizer.contract.IInterfaceTableVisualizer.html" xlink:title="Module Interface IInterfaceTableVisualizer" target="_parent">
<polygon fill="#fffcaf" stroke="black" stroke-dasharray="5,2" points="406.5,-19 269.5,-19 269.5,0 406.5,0 406.5,-19"/>
<text text-anchor="middle" x="338" y="-7" font-family="Helvetica,sans-Serif" font-size="10.00">IInterfaceTableVisualizer</text>
</a>
</g>
</g>
<!-- IntegratedMultiCanvasVisualizer&#45;&gt;IInterfaceTableVisualizer -->
<g id="edge3" class="edge">
<title>IntegratedMultiCanvasVisualizer&#45;&gt;IInterfaceTableVisualizer</title>
<path fill="none" stroke="black" d="M1667.62,-62.91C1454.34,-60.98 894.37,-52.9 417.02,-19.09"/>
<polygon fill="black" stroke="black" points="417.05,-15.58 406.82,-18.36 416.55,-22.56 417.05,-15.58"/>
</g>
<!-- ITransportConnectionVisualizer -->
<g id="node5" class="node">
<title>ITransportConnectionVisualizer</title>
<g id="a_node5"><a xlink:href="inet.visualizer.contract.ITransportConnectionVisualizer.html" xlink:title="Module Interface ITransportConnectionVisualizer" target="_parent">
<polygon fill="#fffcaf" stroke="black" stroke-dasharray="5,2" points="591.5,-19 424.5,-19 424.5,0 591.5,0 591.5,-19"/>
<text text-anchor="middle" x="508" y="-7" font-family="Helvetica,sans-Serif" font-size="10.00">ITransportConnectionVisualizer</text>
</a>
</g>
</g>
<!-- IntegratedMultiCanvasVisualizer&#45;&gt;ITransportConnectionVisualizer -->
<g id="edge4" class="edge">
<title>IntegratedMultiCanvasVisualizer&#45;&gt;ITransportConnectionVisualizer</title>
<path fill="none" stroke="black" d="M1667.89,-61.69C1476.19,-57.4 1006.62,-45.03 601.79,-19.01"/>
<polygon fill="black" stroke="black" points="601.84,-15.51 591.64,-18.35 601.39,-22.49 601.84,-15.51"/>
</g>
<!-- IPacketDropVisualizer -->
<g id="node6" class="node">
<title>IPacketDropVisualizer</title>
<g id="a_node6"><a xlink:href="inet.visualizer.contract.IPacketDropVisualizer.html" xlink:title="Module Interface IPacketDropVisualizer" target="_parent">
<polygon fill="#fffcaf" stroke="black" stroke-dasharray="5,2" points="732,-19 610,-19 610,0 732,0 732,-19"/>
<text text-anchor="middle" x="671" y="-7" font-family="Helvetica,sans-Serif" font-size="10.00">IPacketDropVisualizer</text>
</a>
</g>
</g>
<!-- IntegratedMultiCanvasVisualizer&#45;&gt;IPacketDropVisualizer -->
<g id="edge5" class="edge">
<title>IntegratedMultiCanvasVisualizer&#45;&gt;IPacketDropVisualizer</title>
<path fill="none" stroke="black" d="M1667.95,-61.92C1493.38,-58.29 1090.89,-47.44 742.1,-19.02"/>
<polygon fill="black" stroke="black" points="742.31,-15.52 732.06,-18.19 741.74,-22.5 742.31,-15.52"/>
</g>
<!-- IGateScheduleVisualizer -->
<g id="node7" class="node">
<title>IGateScheduleVisualizer</title>
<g id="a_node7"><a xlink:href="inet.visualizer.contract.IGateScheduleVisualizer.html" xlink:title="Module Interface IGateScheduleVisualizer" target="_parent">
<polygon fill="#fffcaf" stroke="black" stroke-dasharray="5,2" points="885.5,-19 750.5,-19 750.5,0 885.5,0 885.5,-19"/>
<text text-anchor="middle" x="818" y="-7" font-family="Helvetica,sans-Serif" font-size="10.00">IGateScheduleVisualizer</text>
</a>
</g>
</g>
<!-- IntegratedMultiCanvasVisualizer&#45;&gt;IGateScheduleVisualizer -->
<g id="edge6" class="edge">
<title>IntegratedMultiCanvasVisualizer&#45;&gt;IGateScheduleVisualizer</title>
<path fill="none" stroke="black" d="M1667.78,-60.69C1513.43,-55.38 1184.12,-42.36 895.76,-19.1"/>
<polygon fill="black" stroke="black" points="895.78,-15.59 885.52,-18.26 895.21,-22.56 895.78,-15.59"/>
</g>
<!-- IStatisticVisualizer -->
<g id="node8" class="node">
<title>IStatisticVisualizer</title>
<g id="a_node8"><a xlink:href="inet.visualizer.contract.IStatisticVisualizer.html" xlink:title="Module Interface IStatisticVisualizer" target="_parent">
<polygon fill="#fffcaf" stroke="black" stroke-dasharray="5,2" points="1010.5,-19 903.5,-19 903.5,0 1010.5,0 1010.5,-19"/>
<text text-anchor="middle" x="957" y="-7" font-family="Helvetica,sans-Serif" font-size="10.00">IStatisticVisualizer</text>
</a>
</g>
</g>
<!-- IntegratedMultiCanvasVisualizer&#45;&gt;IStatisticVisualizer -->
<g id="edge7" class="edge">
<title>IntegratedMultiCanvasVisualizer&#45;&gt;IStatisticVisualizer</title>
<path fill="none" stroke="black" d="M1667.91,-60.35C1531.46,-54.98 1260.57,-42.41 1021.04,-19.13"/>
<polygon fill="black" stroke="black" points="1021.03,-15.61 1010.74,-18.12 1020.35,-22.58 1021.03,-15.61"/>
</g>
<!-- IRadioVisualizer -->
<g id="node9" class="node">
<title>IRadioVisualizer</title>
<g id="a_node9"><a xlink:href="inet.visualizer.contract.IRadioVisualizer.html" xlink:title="Module Interface IRadioVisualizer" target="_parent">
<polygon fill="#fffcaf" stroke="black" stroke-dasharray="5,2" points="1123.5,-19 1028.5,-19 1028.5,0 1123.5,0 1123.5,-19"/>
<text text-anchor="middle" x="1076" y="-7" font-family="Helvetica,sans-Serif" font-size="10.00">IRadioVisualizer</text>
</a>
</g>
</g>
<!-- IntegratedMultiCanvasVisualizer&#45;&gt;IRadioVisualizer -->
<g id="edge8" class="edge">
<title>IntegratedMultiCanvasVisualizer&#45;&gt;IRadioVisualizer</title>
<path fill="none" stroke="black" d="M1667.85,-59.34C1548.99,-53.25 1330.51,-40.37 1133.51,-18.96"/>
<polygon fill="black" stroke="black" points="1133.87,-15.48 1123.55,-17.87 1133.11,-22.44 1133.87,-15.48"/>
</g>
<!-- IInfoVisualizer -->
<g id="node10" class="node">
<title>IInfoVisualizer</title>
<g id="a_node10"><a xlink:href="inet.visualizer.contract.IInfoVisualizer.html" xlink:title="Module Interface IInfoVisualizer" target="_parent">
<polygon fill="#fffcaf" stroke="black" stroke-dasharray="5,2" points="1228,-19 1142,-19 1142,0 1228,0 1228,-19"/>
<text text-anchor="middle" x="1185" y="-7" font-family="Helvetica,sans-Serif" font-size="10.00">IInfoVisualizer</text>
</a>
</g>
</g>
<!-- IntegratedMultiCanvasVisualizer&#45;&gt;IInfoVisualizer -->
<g id="edge9" class="edge">
<title>IntegratedMultiCanvasVisualizer&#45;&gt;IInfoVisualizer</title>
<path fill="none" stroke="black" d="M1667.63,-57.99C1566.39,-51.21 1395.31,-38.33 1238.41,-19.08"/>
<polygon fill="black" stroke="black" points="1238.45,-15.56 1228.09,-17.8 1237.59,-22.51 1238.45,-15.56"/>
</g>
<!-- INetworkRouteVisualizer -->
<g id="node11" class="node">
<title>INetworkRouteVisualizer</title>
<g id="a_node11"><a xlink:href="inet.visualizer.contract.INetworkRouteVisualizer.html" xlink:title="Module Interface INetworkRouteVisualizer" target="_parent">
<polygon fill="#fffcaf" stroke="black" stroke-dasharray="5,2" points="1383.5,-19 1246.5,-19 1246.5,0 1383.5,0 1383.5,-19"/>
<text text-anchor="middle" x="1315" y="-7" font-family="Helvetica,sans-Serif" font-size="10.00">INetworkRouteVisualizer</text>
</a>
</g>
</g>
<!-- IntegratedMultiCanvasVisualizer&#45;&gt;INetworkRouteVisualizer -->
<g id="edge10" class="edge">
<title>IntegratedMultiCanvasVisualizer&#45;&gt;INetworkRouteVisualizer</title>
<path fill="none" stroke="black" d="M1685.15,-54.98C1605.44,-45.41 1476.35,-29.89 1393.61,-19.95"/>
<polygon fill="black" stroke="black" points="1393.85,-16.45 1383.5,-18.73 1393.01,-23.4 1393.85,-16.45"/>
</g>
<!-- IMobilityVisualizer -->
<g id="node12" class="node">
<title>IMobilityVisualizer</title>
<g id="a_node12"><a xlink:href="inet.visualizer.contract.IMobilityVisualizer.html" xlink:title="Module Interface IMobilityVisualizer" target="_parent">
<polygon fill="#fffcaf" stroke="black" stroke-dasharray="5,2" points="1508.5,-19 1401.5,-19 1401.5,0 1508.5,0 1508.5,-19"/>
<text text-anchor="middle" x="1455" y="-7" font-family="Helvetica,sans-Serif" font-size="10.00">IMobilityVisualizer</text>
</a>
</g>
</g>
<!-- IntegratedMultiCanvasVisualizer&#45;&gt;IMobilityVisualizer -->
<g id="edge11" class="edge">
<title>IntegratedMultiCanvasVisualizer&#45;&gt;IMobilityVisualizer</title>
<path fill="none" stroke="black" d="M1707.64,-54.98C1654.81,-45.68 1570.18,-30.78 1513.61,-20.82"/>
<polygon fill="black" stroke="black" points="1514.2,-17.37 1503.74,-19.08 1512.98,-24.26 1514.2,-17.37"/>
</g>
<!-- ISceneVisualizer -->
<g id="node13" class="node">
<title>ISceneVisualizer</title>
<g id="a_node13"><a xlink:href="inet.visualizer.contract.ISceneVisualizer.html" xlink:title="Module Interface ISceneVisualizer" target="_parent">
<polygon fill="#fffcaf" stroke="black" stroke-dasharray="5,2" points="1623.5,-19 1526.5,-19 1526.5,0 1623.5,0 1623.5,-19"/>
<text text-anchor="middle" x="1575" y="-7" font-family="Helvetica,sans-Serif" font-size="10.00">ISceneVisualizer</text>
</a>
</g>
</g>
<!-- IntegratedMultiCanvasVisualizer&#45;&gt;ISceneVisualizer -->
<g id="edge12" class="edge">
<title>IntegratedMultiCanvasVisualizer&#45;&gt;ISceneVisualizer</title>
<path fill="none" stroke="black" d="M1726.92,-54.98C1696.4,-46.05 1648.24,-31.94 1614.34,-22.02"/>
<polygon fill="black" stroke="black" points="1614.89,-18.53 1604.31,-19.08 1612.92,-25.25 1614.89,-18.53"/>
</g>
<!-- IStreamRedundancyConfigurationVisualizer -->
<g id="node14" class="node">
<title>IStreamRedundancyConfigurationVisualizer</title>
<g id="a_node14"><a xlink:href="inet.visualizer.contract.IStreamRedundancyConfigurationVisualizer.html" xlink:title="Module Interface IStreamRedundancyConfigurationVisualizer" target="_parent">
<polygon fill="#fffcaf" stroke="black" stroke-dasharray="5,2" points="1870,-19 1642,-19 1642,0 1870,0 1870,-19"/>
<text text-anchor="middle" x="1756" y="-7" font-family="Helvetica,sans-Serif" font-size="10.00">IStreamRedundancyConfigurationVisualizer</text>
</a>
</g>
</g>
<!-- IntegratedMultiCanvasVisualizer&#45;&gt;IStreamRedundancyConfigurationVisualizer -->
<g id="edge13" class="edge">
<title>IntegratedMultiCanvasVisualizer&#45;&gt;IStreamRedundancyConfigurationVisualizer</title>
<path fill="none" stroke="black" d="M1756,-54.75C1756,-47.8 1756,-37.85 1756,-29.13"/>
<polygon fill="black" stroke="black" points="1759.5,-29.09 1756,-19.09 1752.5,-29.09 1759.5,-29.09"/>
</g>
<!-- IMediumVisualizer -->
<g id="node15" class="node">
<title>IMediumVisualizer</title>
<g id="a_node15"><a xlink:href="inet.visualizer.contract.IMediumVisualizer.html" xlink:title="Module Interface IMediumVisualizer" target="_parent">
<polygon fill="#fffcaf" stroke="black" stroke-dasharray="5,2" points="1995.5,-19 1888.5,-19 1888.5,0 1995.5,0 1995.5,-19"/>
<text text-anchor="middle" x="1942" y="-7" font-family="Helvetica,sans-Serif" font-size="10.00">IMediumVisualizer</text>
</a>
</g>
</g>
<!-- IntegratedMultiCanvasVisualizer&#45;&gt;IMediumVisualizer -->
<g id="edge14" class="edge">
<title>IntegratedMultiCanvasVisualizer&#45;&gt;IMediumVisualizer</title>
<path fill="none" stroke="black" d="M1785.88,-54.98C1817.38,-46.01 1867.17,-31.82 1902.03,-21.89"/>
<polygon fill="black" stroke="black" points="1903.22,-25.19 1911.88,-19.08 1901.31,-18.46 1903.22,-25.19"/>
</g>
<!-- IDataLinkVisualizer -->
<g id="node16" class="node">
<title>IDataLinkVisualizer</title>
<g id="a_node16"><a xlink:href="inet.visualizer.contract.IDataLinkVisualizer.html" xlink:title="Module Interface IDataLinkVisualizer" target="_parent">
<polygon fill="#fffcaf" stroke="black" stroke-dasharray="5,2" points="2124.5,-19 2013.5,-19 2013.5,0 2124.5,0 2124.5,-19"/>
<text text-anchor="middle" x="2069" y="-7" font-family="Helvetica,sans-Serif" font-size="10.00">IDataLinkVisualizer</text>
</a>
</g>
</g>
<!-- IntegratedMultiCanvasVisualizer&#45;&gt;IDataLinkVisualizer -->
<g id="edge15" class="edge">
<title>IntegratedMultiCanvasVisualizer&#45;&gt;IDataLinkVisualizer</title>
<path fill="none" stroke="black" d="M1806.29,-54.98C1861.42,-45.65 1949.85,-30.67 2008.68,-20.71"/>
<polygon fill="black" stroke="black" points="2009.3,-24.16 2018.58,-19.04 2008.13,-17.26 2009.3,-24.16"/>
</g>
<!-- IFailureProtectionConfigurationVisualizer -->
<g id="node17" class="node">
<title>IFailureProtectionConfigurationVisualizer</title>
<g id="a_node17"><a xlink:href="inet.visualizer.contract.IFailureProtectionConfigurationVisualizer.html" xlink:title="Module Interface IFailureProtectionConfigurationVisualizer" target="_parent">
<polygon fill="#fffcaf" stroke="black" stroke-dasharray="5,2" points="2357.5,-19 2142.5,-19 2142.5,0 2357.5,0 2357.5,-19"/>
<text text-anchor="middle" x="2250" y="-7" font-family="Helvetica,sans-Serif" font-size="10.00">IFailureProtectionConfigurationVisualizer</text>
</a>
</g>
</g>
<!-- IntegratedMultiCanvasVisualizer&#45;&gt;IFailureProtectionConfigurationVisualizer -->
<g id="edge16" class="edge">
<title>IntegratedMultiCanvasVisualizer&#45;&gt;IFailureProtectionConfigurationVisualizer</title>
<path fill="none" stroke="black" d="M1835.37,-54.98C1924.09,-45.47 2067.45,-30.08 2160.21,-20.13"/>
<polygon fill="black" stroke="black" points="2160.85,-23.58 2170.42,-19.04 2160.1,-16.62 2160.85,-23.58"/>
</g>
<!-- IIeee80211Visualizer -->
<g id="node18" class="node">
<title>IIeee80211Visualizer</title>
<g id="a_node18"><a xlink:href="inet.visualizer.contract.IIeee80211Visualizer.html" xlink:title="Module Interface IIeee80211Visualizer" target="_parent">
<polygon fill="#fffcaf" stroke="black" stroke-dasharray="5,2" points="2494.5,-19 2375.5,-19 2375.5,0 2494.5,0 2494.5,-19"/>
<text text-anchor="middle" x="2435" y="-7" font-family="Helvetica,sans-Serif" font-size="10.00">IIeee80211Visualizer</text>
</a>
</g>
</g>
<!-- IntegratedMultiCanvasVisualizer&#45;&gt;IIeee80211Visualizer -->
<g id="edge17" class="edge">
<title>IntegratedMultiCanvasVisualizer&#45;&gt;IIeee80211Visualizer</title>
<path fill="none" stroke="black" d="M1844.15,-58.51C1960.99,-51.58 2173.82,-37.84 2365.35,-19.12"/>
<polygon fill="black" stroke="black" points="2365.71,-22.6 2375.32,-18.14 2365.02,-15.63 2365.71,-22.6"/>
</g>
<!-- IEnergyStorageVisualizer -->
<g id="node19" class="node">
<title>IEnergyStorageVisualizer</title>
<g id="a_node19"><a xlink:href="inet.visualizer.contract.IEnergyStorageVisualizer.html" xlink:title="Module Interface IEnergyStorageVisualizer" target="_parent">
<polygon fill="#fffcaf" stroke="black" stroke-dasharray="5,2" points="2651.5,-19 2512.5,-19 2512.5,0 2651.5,0 2651.5,-19"/>
<text text-anchor="middle" x="2582" y="-7" font-family="Helvetica,sans-Serif" font-size="10.00">IEnergyStorageVisualizer</text>
</a>
</g>
</g>
<!-- IntegratedMultiCanvasVisualizer&#45;&gt;IEnergyStorageVisualizer -->
<g id="edge18" class="edge">
<title>IntegratedMultiCanvasVisualizer&#45;&gt;IEnergyStorageVisualizer</title>
<path fill="none" stroke="black" d="M1844.19,-59.66C1982.27,-53.33 2258.13,-39.44 2502.15,-19.12"/>
<polygon fill="black" stroke="black" points="2502.6,-22.59 2512.28,-18.27 2502.02,-15.62 2502.6,-22.59"/>
</g>
<!-- ITracingObstacleLossVisualizer -->
<g id="node20" class="node">
<title>ITracingObstacleLossVisualizer</title>
<g id="a_node20"><a xlink:href="inet.visualizer.contract.ITracingObstacleLossVisualizer.html" xlink:title="Module Interface ITracingObstacleLossVisualizer" target="_parent">
<polygon fill="#fffcaf" stroke="black" stroke-dasharray="5,2" points="2836.5,-19 2669.5,-19 2669.5,0 2836.5,0 2836.5,-19"/>
<text text-anchor="middle" x="2753" y="-7" font-family="Helvetica,sans-Serif" font-size="10.00">ITracingObstacleLossVisualizer</text>
</a>
</g>
</g>
<!-- IntegratedMultiCanvasVisualizer&#45;&gt;ITracingObstacleLossVisualizer -->
<g id="edge19" class="edge">
<title>IntegratedMultiCanvasVisualizer&#45;&gt;ITracingObstacleLossVisualizer</title>
<path fill="none" stroke="black" d="M1844.07,-60.43C2004.14,-54.57 2353.72,-40.5 2658.89,-19.12"/>
<polygon fill="black" stroke="black" points="2659.55,-22.58 2669.28,-18.39 2659.05,-15.6 2659.55,-22.58"/>
</g>
<!-- INetworkConnectionVisualizer -->
<g id="node21" class="node">
<title>INetworkConnectionVisualizer</title>
<g id="a_node21"><a xlink:href="inet.visualizer.contract.INetworkConnectionVisualizer.html" xlink:title="Module Interface INetworkConnectionVisualizer" target="_parent">
<polygon fill="#fffcaf" stroke="black" stroke-dasharray="5,2" points="3019,-19 2855,-19 2855,0 3019,0 3019,-19"/>
<text text-anchor="middle" x="2937" y="-7" font-family="Helvetica,sans-Serif" font-size="10.00">INetworkConnectionVisualizer</text>
</a>
</g>
</g>
<!-- IntegratedMultiCanvasVisualizer&#45;&gt;INetworkConnectionVisualizer -->
<g id="edge20" class="edge">
<title>IntegratedMultiCanvasVisualizer&#45;&gt;INetworkConnectionVisualizer</title>
<path fill="none" stroke="black" d="M1844.03,-61.47C2027.87,-56.88 2466.17,-44.18 2844.62,-19.06"/>
<polygon fill="black" stroke="black" points="2844.93,-22.54 2854.68,-18.38 2844.46,-15.56 2844.93,-22.54"/>
</g>
<!-- IRoutingTableVisualizer -->
<g id="node22" class="node">
<title>IRoutingTableVisualizer</title>
<g id="a_node22"><a xlink:href="inet.visualizer.contract.IRoutingTableVisualizer.html" xlink:title="Module Interface IRoutingTableVisualizer" target="_parent">
<polygon fill="#fffcaf" stroke="black" stroke-dasharray="5,2" points="3168.5,-19 3037.5,-19 3037.5,0 3168.5,0 3168.5,-19"/>
<text text-anchor="middle" x="3103" y="-7" font-family="Helvetica,sans-Serif" font-size="10.00">IRoutingTableVisualizer</text>
</a>
</g>
</g>
<!-- IntegratedMultiCanvasVisualizer&#45;&gt;IRoutingTableVisualizer -->
<g id="edge21" class="edge">
<title>IntegratedMultiCanvasVisualizer&#45;&gt;IRoutingTableVisualizer</title>
<path fill="none" stroke="black" d="M1844.03,-62.78C2049.32,-60.59 2575.91,-52.01 3026.87,-19.01"/>
<polygon fill="black" stroke="black" points="3027.46,-22.48 3037.18,-18.25 3026.95,-15.5 3027.46,-22.48"/>
</g>
<!-- IPhysicalLinkVisualizer -->
<g id="node23" class="node">
<title>IPhysicalLinkVisualizer</title>
<g id="a_node23"><a xlink:href="inet.visualizer.contract.IPhysicalLinkVisualizer.html" xlink:title="Module Interface IPhysicalLinkVisualizer" target="_parent">
<polygon fill="#fffcaf" stroke="black" stroke-dasharray="5,2" points="3315,-19 3187,-19 3187,0 3315,0 3315,-19"/>
<text text-anchor="middle" x="3251" y="-7" font-family="Helvetica,sans-Serif" font-size="10.00">IPhysicalLinkVisualizer</text>
</a>
</g>
</g>
<!-- IntegratedMultiCanvasVisualizer&#45;&gt;IPhysicalLinkVisualizer -->
<g id="edge22" class="edge">
<title>IntegratedMultiCanvasVisualizer&#45;&gt;IPhysicalLinkVisualizer</title>
<path fill="none" stroke="black" d="M1844.33,-63.33C2066.43,-62.35 2666.28,-56.22 3176.78,-19.02"/>
<polygon fill="black" stroke="black" points="3177.22,-22.49 3186.94,-18.27 3176.71,-15.51 3177.22,-22.49"/>
</g>
<!-- IPhysicalEnvironmentVisualizer -->
<g id="node24" class="node">
<title>IPhysicalEnvironmentVisualizer</title>
<g id="a_node24"><a xlink:href="inet.visualizer.contract.IPhysicalEnvironmentVisualizer.html" xlink:title="Module Interface IPhysicalEnvironmentVisualizer" target="_parent">
<polygon fill="#fffcaf" stroke="black" stroke-dasharray="5,2" points="3503,-19 3333,-19 3333,0 3503,0 3503,-19"/>
<text text-anchor="middle" x="3418" y="-7" font-family="Helvetica,sans-Serif" font-size="10.00">IPhysicalEnvironmentVisualizer</text>
</a>
</g>
</g>
<!-- IntegratedMultiCanvasVisualizer&#45;&gt;IPhysicalEnvironmentVisualizer -->
<g id="edge23" class="edge">
<title>IntegratedMultiCanvasVisualizer&#45;&gt;IPhysicalEnvironmentVisualizer</title>
<path fill="none" stroke="black" d="M1844.06,-62.91C2081.17,-60.9 2752.99,-52.52 3322.9,-19.02"/>
<polygon fill="black" stroke="black" points="3323.19,-22.51 3332.96,-18.43 3322.77,-15.52 3323.19,-22.51"/>
</g>
<!-- ITransportRouteVisualizer -->
<g id="node25" class="node">
<title>ITransportRouteVisualizer</title>
<g id="a_node25"><a xlink:href="inet.visualizer.contract.ITransportRouteVisualizer.html" xlink:title="Module Interface ITransportRouteVisualizer" target="_parent">
<polygon fill="#fffcaf" stroke="black" stroke-dasharray="5,2" points="3662.5,-19 3521.5,-19 3521.5,0 3662.5,0 3662.5,-19"/>
<text text-anchor="middle" x="3592" y="-7" font-family="Helvetica,sans-Serif" font-size="10.00">ITransportRouteVisualizer</text>
</a>
</g>
</g>
<!-- IntegratedMultiCanvasVisualizer&#45;&gt;ITransportRouteVisualizer -->
<g id="edge24" class="edge">
<title>IntegratedMultiCanvasVisualizer&#45;&gt;ITransportRouteVisualizer</title>
<path fill="none" stroke="black" d="M1844.28,-63.77C2100.25,-64.03 2865.07,-60.99 3510.9,-19"/>
<polygon fill="black" stroke="black" points="3511.61,-22.46 3521.36,-18.32 3511.15,-15.48 3511.61,-22.46"/>
</g>
<!-- ILinkBreakVisualizer -->
<g id="node26" class="node">
<title>ILinkBreakVisualizer</title>
<g id="a_node26"><a xlink:href="inet.visualizer.contract.ILinkBreakVisualizer.html" xlink:title="Module Interface ILinkBreakVisualizer" target="_parent">
<polygon fill="#fffcaf" stroke="black" stroke-dasharray="5,2" points="3797,-19 3681,-19 3681,0 3797,0 3797,-19"/>
<text text-anchor="middle" x="3739" y="-7" font-family="Helvetica,sans-Serif" font-size="10.00">ILinkBreakVisualizer</text>
</a>
</g>
</g>
<!-- IntegratedMultiCanvasVisualizer&#45;&gt;ILinkBreakVisualizer -->
<g id="edge25" class="edge">
<title>IntegratedMultiCanvasVisualizer&#45;&gt;ILinkBreakVisualizer</title>
<path fill="none" stroke="black" d="M1844.24,-62.66C2167.72,-59.39 3289.1,-46.36 3670.68,-18.99"/>
<polygon fill="black" stroke="black" points="3671.22,-22.46 3680.93,-18.24 3670.7,-15.48 3671.22,-22.46"/>
</g>
<!-- MultiRadioShowcase -->
<g id="node27" class="node">
<title>MultiRadioShowcase</title>
<g id="a_node27"><a xlink:href="inet.showcases.wireless.multiradio.MultiRadioShowcase.html" xlink:title="Network MultiRadioShowcase" target="_parent">
<polygon fill="#d0d0ff" stroke="black" points="1734,-129 1616,-129 1616,-110 1734,-110 1734,-129"/>
<text text-anchor="middle" x="1675" y="-117" font-family="Helvetica,sans-Serif" font-size="10.00">MultiRadioShowcase</text>
</a>
</g>
</g>
<!-- MultiRadioShowcase&#45;&gt;IntegratedMultiCanvasVisualizer -->
<g id="edge26" class="edge">
<title>MultiRadioShowcase&#45;&gt;IntegratedMultiCanvasVisualizer</title>
<path fill="none" stroke="black" d="M1688.01,-109.98C1700.46,-101.84 1719.46,-89.41 1734.21,-79.76"/>
<polygon fill="black" stroke="black" points="1736.3,-82.57 1742.75,-74.17 1732.46,-76.72 1736.3,-82.57"/>
</g>
<!-- RegressionTestingTutorialWired -->
<g id="node28" class="node">
<title>RegressionTestingTutorialWired</title>
<g id="a_node28"><a xlink:href="inet.tutorials.fingerprint.RegressionTestingTutorialWired.html" xlink:title="Network RegressionTestingTutorialWired" target="_parent">
<polygon fill="#d0d0ff" stroke="black" points="1922,-129 1752,-129 1752,-110 1922,-110 1922,-129"/>
<text text-anchor="middle" x="1837" y="-117" font-family="Helvetica,sans-Serif" font-size="10.00">RegressionTestingTutorialWired</text>
</a>
</g>
</g>
<!-- RegressionTestingTutorialWired&#45;&gt;IntegratedMultiCanvasVisualizer -->
<g id="edge27" class="edge">
<title>RegressionTestingTutorialWired&#45;&gt;IntegratedMultiCanvasVisualizer</title>
<path fill="none" stroke="black" d="M1823.99,-109.98C1811.54,-101.84 1792.54,-89.41 1777.79,-79.76"/>
<polygon fill="black" stroke="black" points="1779.54,-76.72 1769.25,-74.17 1775.7,-82.57 1779.54,-76.72"/>
</g>
</g>
</svg>
