<?xml version="1.0" encoding="UTF-8" standalone="no"?>
<!DOCTYPE svg PUBLIC "-//W3C//DTD SVG 1.1//EN"
 "http://www.w3.org/Graphics/SVG/1.1/DTD/svg11.dtd">
<!-- Generated by graphviz version 2.43.0 (0)
 -->
<!-- Title: opp Pages: 1 -->
<svg width="586pt" height="82pt"
 viewBox="0.00 0.00 585.50 82.00" xmlns="http://www.w3.org/2000/svg" xmlns:xlink="http://www.w3.org/1999/xlink">
<g id="graph0" class="graph" transform="scale(1 1) rotate(0) translate(4 78)">
<title>opp</title>
<polygon fill="transparent" stroke="transparent" points="-4,4 -4,-78 581.5,-78 581.5,4 -4,4"/>
<!-- TC3 -->
<g id="node1" class="node">
<title>TC3</title>
<g id="a_node1"><a xlink:href="inet.examples.diffserv.onedomain.TC3.html" xlink:title="Compound Module TC3" target="_parent">
<polygon fill="#fff700" stroke="black" points="330,-74 276,-74 276,-55 330,-55 330,-74"/>
<text text-anchor="middle" x="303" y="-62" font-family="Helvetica,sans-Serif" font-size="10.00">TC3</text>
</a>
</g>
</g>
<!-- TokenBucketMeter -->
<g id="node2" class="node">
<title>TokenBucketMeter</title>
<g id="a_node2"><a xlink:href="inet.networklayer.diffserv.TokenBucketMeter.html" xlink:title="Simple Module TokenBucketMeter" target="_parent">
<polygon fill="#fffcaf" stroke="black" points="106,-19 0,-19 0,0 106,0 106,-19"/>
<text text-anchor="middle" x="53" y="-7" font-family="Helvetica,sans-Serif" font-size="10.00">TokenBucketMeter</text>
</a>
</g>
</g>
<!-- TC3&#45;&gt;TokenBucketMeter -->
<g id="edge1" class="edge">
<title>TC3&#45;&gt;TokenBucketMeter</title>
<path fill="none" stroke="black" d="M275.77,-57.73C234.48,-48.97 155.36,-32.2 103.38,-21.18"/>
<polygon fill="black" stroke="black" points="103.88,-17.71 93.37,-19.06 102.43,-24.56 103.88,-17.71"/>
</g>
<!-- PassivePacketSink -->
<g id="node3" class="node">
<title>PassivePacketSink</title>
<g id="a_node3"><a xlink:href="inet.queueing.sink.PassivePacketSink.html" xlink:title="Simple Module PassivePacketSink" target="_parent">
<polygon fill="#fffcaf" stroke="black" points="230,-19 124,-19 124,0 230,0 230,-19"/>
<text text-anchor="middle" x="177" y="-7" font-family="Helvetica,sans-Serif" font-size="10.00">PassivePacketSink</text>
</a>
</g>
</g>
<!-- TC3&#45;&gt;PassivePacketSink -->
<g id="edge2" class="edge">
<title>TC3&#45;&gt;PassivePacketSink</title>
<path fill="none" stroke="black" d="M282.76,-54.98C262.3,-46.38 230.47,-32.99 207.07,-23.15"/>
<polygon fill="black" stroke="black" points="208.19,-19.82 197.61,-19.17 205.47,-26.27 208.19,-19.82"/>
</g>
<!-- MultiFieldClassifier -->
<g id="node4" class="node">
<title>MultiFieldClassifier</title>
<g id="a_node4"><a xlink:href="inet.networklayer.diffserv.MultiFieldClassifier.html" xlink:title="Simple Module MultiFieldClassifier" target="_parent">
<polygon fill="#fffcaf" stroke="black" points="358,-19 248,-19 248,0 358,0 358,-19"/>
<text text-anchor="middle" x="303" y="-7" font-family="Helvetica,sans-Serif" font-size="10.00">MultiFieldClassifier</text>
</a>
</g>
</g>
<!-- TC3&#45;&gt;MultiFieldClassifier -->
<g id="edge3" class="edge">
<title>TC3&#45;&gt;MultiFieldClassifier</title>
<path fill="none" stroke="black" d="M303,-54.75C303,-47.8 303,-37.85 303,-29.13"/>
<polygon fill="black" stroke="black" points="306.5,-29.09 303,-19.09 299.5,-29.09 306.5,-29.09"/>
</g>
<!-- IdealChannel -->
<g id="node5" class="node">
<title>IdealChannel</title>
<g id="a_node5"><a xlink:href="ned.IdealChannel.html" xlink:title="Channel IdealChannel" target="_parent">
<polygon fill="#d0ffd0" stroke="black" points="456,-19 376,-19 376,0 456,0 456,-19"/>
<text text-anchor="middle" x="416" y="-7" font-family="Helvetica,sans-Serif" font-size="10.00">IdealChannel</text>
</a>
</g>
</g>
<!-- TC3&#45;&gt;IdealChannel -->
<g id="edge4" class="edge">
<title>TC3&#45;&gt;IdealChannel</title>
<path fill="none" stroke="black" d="M321.16,-54.98C339.25,-46.5 367.28,-33.35 388.19,-23.54"/>
<polygon fill="black" stroke="black" points="389.95,-26.59 397.51,-19.17 386.97,-20.25 389.95,-26.59"/>
</g>
<!-- PacketMultiplexer -->
<g id="node6" class="node">
<title>PacketMultiplexer</title>
<g id="a_node6"><a xlink:href="inet.queueing.common.PacketMultiplexer.html" xlink:title="Simple Module PacketMultiplexer" target="_parent">
<polygon fill="#fffcaf" stroke="black" points="577.5,-19 474.5,-19 474.5,0 577.5,0 577.5,-19"/>
<text text-anchor="middle" x="526" y="-7" font-family="Helvetica,sans-Serif" font-size="10.00">PacketMultiplexer</text>
</a>
</g>
</g>
<!-- TC3&#45;&gt;PacketMultiplexer -->
<g id="edge5" class="edge">
<title>TC3&#45;&gt;PacketMultiplexer</title>
<path fill="none" stroke="black" d="M330.34,-57C367.65,-48.14 435,-32.13 480.11,-21.41"/>
<polygon fill="black" stroke="black" points="481.02,-24.79 489.94,-19.07 479.4,-17.98 481.02,-24.79"/>
</g>
</g>
</svg>
