<?xml version="1.0" encoding="UTF-8" standalone="no"?>
<!DOCTYPE svg PUBLIC "-//W3C//DTD SVG 1.1//EN"
 "http://www.w3.org/Graphics/SVG/1.1/DTD/svg11.dtd">
<!-- Generated by graphviz version 2.43.0 (0)
 -->
<!-- Title: opp Pages: 1 -->
<svg width="785pt" height="82pt"
 viewBox="0.00 0.00 785.00 82.00" xmlns="http://www.w3.org/2000/svg" xmlns:xlink="http://www.w3.org/1999/xlink">
<g id="graph0" class="graph" transform="scale(1 1) rotate(0) translate(4 78)">
<title>opp</title>
<polygon fill="transparent" stroke="transparent" points="-4,4 -4,-78 781,-78 781,4 -4,4"/>
<!-- IAnalogModel -->
<g id="node1" class="node">
<title>IAnalogModel</title>
<g id="a_node1"><a xlink:href="inet.physicallayer.wireless.common.contract.packetlevel.IAnalogModel.html" xlink:title="Module Interface IAnalogModel" target="_parent">
<polygon fill="#fff700" stroke="black" stroke-dasharray="5,2" points="475.5,-74 392.5,-74 392.5,-55 475.5,-55 475.5,-74"/>
<text text-anchor="middle" x="434" y="-62" font-family="Helvetica,sans-Serif" font-size="10.00">IAnalogModel</text>
</a>
</g>
</g>
<!-- DimensionalAnalogModel -->
<g id="node2" class="node">
<title>DimensionalAnalogModel</title>
<g id="a_node2"><a xlink:href="inet.physicallayer.wireless.common.analogmodel.packetlevel.DimensionalAnalogModel.html" xlink:title="Compound Module DimensionalAnalogModel" target="_parent">
<polygon fill="#fffcaf" stroke="black" points="142,-19 0,-19 0,0 142,0 142,-19"/>
<text text-anchor="middle" x="71" y="-7" font-family="Helvetica,sans-Serif" font-size="10.00">DimensionalAnalogModel</text>
</a>
</g>
</g>
<!-- IAnalogModel&#45;&gt;DimensionalAnalogModel -->
<g id="edge1" class="edge">
<title>IAnalogModel&#45;&gt;DimensionalAnalogModel</title>
<path fill="none" stroke="black" stroke-dasharray="5,2" d="M392.36,-57.42C327.74,-47.99 203.1,-29.79 129.48,-19.04"/>
</g>
<!-- LayeredDimensionalAnalogModel -->
<g id="node3" class="node">
<title>LayeredDimensionalAnalogModel</title>
<g id="a_node3"><a xlink:href="inet.physicallayer.wireless.common.analogmodel.bitlevel.LayeredDimensionalAnalogModel.html" xlink:title="Compound Module LayeredDimensionalAnalogModel" target="_parent">
<polygon fill="#fffcaf" stroke="black" points="341.5,-19 160.5,-19 160.5,0 341.5,0 341.5,-19"/>
<text text-anchor="middle" x="251" y="-7" font-family="Helvetica,sans-Serif" font-size="10.00">LayeredDimensionalAnalogModel</text>
</a>
</g>
</g>
<!-- IAnalogModel&#45;&gt;LayeredDimensionalAnalogModel -->
<g id="edge2" class="edge">
<title>IAnalogModel&#45;&gt;LayeredDimensionalAnalogModel</title>
<path fill="none" stroke="black" stroke-dasharray="5,2" d="M404.6,-54.98C370.55,-45.12 314.78,-28.97 280.63,-19.08"/>
</g>
<!-- LayeredScalarAnalogModel -->
<g id="node4" class="node">
<title>LayeredScalarAnalogModel</title>
<g id="a_node4"><a xlink:href="inet.physicallayer.wireless.common.analogmodel.bitlevel.LayeredScalarAnalogModel.html" xlink:title="Compound Module LayeredScalarAnalogModel" target="_parent">
<polygon fill="#fffcaf" stroke="black" points="508.5,-19 359.5,-19 359.5,0 508.5,0 508.5,-19"/>
<text text-anchor="middle" x="434" y="-7" font-family="Helvetica,sans-Serif" font-size="10.00">LayeredScalarAnalogModel</text>
</a>
</g>
</g>
<!-- IAnalogModel&#45;&gt;LayeredScalarAnalogModel -->
<g id="edge3" class="edge">
<title>IAnalogModel&#45;&gt;LayeredScalarAnalogModel</title>
<path fill="none" stroke="black" stroke-dasharray="5,2" d="M434,-54.75C434,-44.87 434,-28.9 434,-19.09"/>
</g>
<!-- ScalarAnalogModel -->
<g id="node5" class="node">
<title>ScalarAnalogModel</title>
<g id="a_node5"><a xlink:href="inet.physicallayer.wireless.common.analogmodel.packetlevel.ScalarAnalogModel.html" xlink:title="Compound Module ScalarAnalogModel" target="_parent">
<polygon fill="#fffcaf" stroke="black" points="637,-19 527,-19 527,0 637,0 637,-19"/>
<text text-anchor="middle" x="582" y="-7" font-family="Helvetica,sans-Serif" font-size="10.00">ScalarAnalogModel</text>
</a>
</g>
</g>
<!-- IAnalogModel&#45;&gt;ScalarAnalogModel -->
<g id="edge4" class="edge">
<title>IAnalogModel&#45;&gt;ScalarAnalogModel</title>
<path fill="none" stroke="black" stroke-dasharray="5,2" d="M457.78,-54.98C485.23,-45.15 530.15,-29.07 557.79,-19.17"/>
</g>
<!-- UnitDiskAnalogModel -->
<g id="node6" class="node">
<title>UnitDiskAnalogModel</title>
<g id="a_node6"><a xlink:href="inet.physicallayer.wireless.unitdisk.UnitDiskAnalogModel.html" xlink:title="Compound Module UnitDiskAnalogModel" target="_parent">
<polygon fill="#fffcaf" stroke="black" points="777,-19 655,-19 655,0 777,0 777,-19"/>
<text text-anchor="middle" x="716" y="-7" font-family="Helvetica,sans-Serif" font-size="10.00">UnitDiskAnalogModel</text>
</a>
</g>
</g>
<!-- IAnalogModel&#45;&gt;UnitDiskAnalogModel -->
<g id="edge5" class="edge">
<title>IAnalogModel&#45;&gt;UnitDiskAnalogModel</title>
<path fill="none" stroke="black" stroke-dasharray="5,2" d="M475.61,-55.68C527.7,-45.89 616.62,-29.18 670.48,-19.06"/>
</g>
</g>
</svg>
