<?xml version="1.0" encoding="UTF-8" standalone="no"?>
<!DOCTYPE svg PUBLIC "-//W3C//DTD SVG 1.1//EN"
 "http://www.w3.org/Graphics/SVG/1.1/DTD/svg11.dtd">
<!-- Generated by graphviz version 2.43.0 (0)
 -->
<!-- Title: opp Pages: 1 -->
<svg width="866pt" height="82pt"
 viewBox="0.00 0.00 866.00 82.00" xmlns="http://www.w3.org/2000/svg" xmlns:xlink="http://www.w3.org/1999/xlink">
<g id="graph0" class="graph" transform="scale(1 1) rotate(0) translate(4 78)">
<title>opp</title>
<polygon fill="transparent" stroke="transparent" points="-4,4 -4,-78 862,-78 862,4 -4,4"/>
<!-- INetworkConfigurator -->
<g id="node1" class="node">
<title>INetworkConfigurator</title>
<g id="a_node1"><a xlink:href="inet.networklayer.configurator.contract.INetworkConfigurator.html" xlink:title="Module Interface INetworkConfigurator" target="_parent">
<polygon fill="#fff700" stroke="black" stroke-dasharray="5,2" points="516.5,-74 395.5,-74 395.5,-55 516.5,-55 516.5,-74"/>
<text text-anchor="middle" x="456" y="-62" font-family="Helvetica,sans-Serif" font-size="10.00">INetworkConfigurator</text>
</a>
</g>
</g>
<!-- FailureProtectionConfigurator -->
<g id="node2" class="node">
<title>FailureProtectionConfigurator</title>
<g id="a_node2"><a xlink:href="inet.linklayer.configurator.FailureProtectionConfigurator.html" xlink:title="Simple Module FailureProtectionConfigurator" target="_parent">
<polygon fill="#fffcaf" stroke="black" points="158,-19 0,-19 0,0 158,0 158,-19"/>
<text text-anchor="middle" x="79" y="-7" font-family="Helvetica,sans-Serif" font-size="10.00">FailureProtectionConfigurator</text>
</a>
</g>
</g>
<!-- INetworkConfigurator&#45;&gt;FailureProtectionConfigurator -->
<g id="edge1" class="edge">
<title>INetworkConfigurator&#45;&gt;FailureProtectionConfigurator</title>
<path fill="none" stroke="black" stroke-dasharray="5,2" d="M395.43,-54.98C325.18,-45.11 210.05,-28.92 139.73,-19.04"/>
</g>
<!-- MacForwardingTableConfigurator -->
<g id="node3" class="node">
<title>MacForwardingTableConfigurator</title>
<g id="a_node3"><a xlink:href="inet.linklayer.configurator.MacForwardingTableConfigurator.html" xlink:title="Simple Module MacForwardingTableConfigurator" target="_parent">
<polygon fill="#fffcaf" stroke="black" points="352,-19 176,-19 176,0 352,0 352,-19"/>
<text text-anchor="middle" x="264" y="-7" font-family="Helvetica,sans-Serif" font-size="10.00">MacForwardingTableConfigurator</text>
</a>
</g>
</g>
<!-- INetworkConfigurator&#45;&gt;MacForwardingTableConfigurator -->
<g id="edge2" class="edge">
<title>INetworkConfigurator&#45;&gt;MacForwardingTableConfigurator</title>
<path fill="none" stroke="black" stroke-dasharray="5,2" d="M425.15,-54.98C389.43,-45.12 330.92,-28.97 295.09,-19.08"/>
</g>
<!-- StreamRedundancyConfigurator -->
<g id="node4" class="node">
<title>StreamRedundancyConfigurator</title>
<g id="a_node4"><a xlink:href="inet.linklayer.configurator.StreamRedundancyConfigurator.html" xlink:title="Simple Module StreamRedundancyConfigurator" target="_parent">
<polygon fill="#fffcaf" stroke="black" points="542,-19 370,-19 370,0 542,0 542,-19"/>
<text text-anchor="middle" x="456" y="-7" font-family="Helvetica,sans-Serif" font-size="10.00">StreamRedundancyConfigurator</text>
</a>
</g>
</g>
<!-- INetworkConfigurator&#45;&gt;StreamRedundancyConfigurator -->
<g id="edge3" class="edge">
<title>INetworkConfigurator&#45;&gt;StreamRedundancyConfigurator</title>
<path fill="none" stroke="black" stroke-dasharray="5,2" d="M456,-54.75C456,-44.87 456,-28.9 456,-19.09"/>
</g>
<!-- IGateScheduleConfigurator -->
<g id="node5" class="node">
<title>IGateScheduleConfigurator</title>
<g id="a_node5"><a xlink:href="inet.linklayer.configurator.gatescheduling.contract.IGateScheduleConfigurator.html" xlink:title="Module Interface IGateScheduleConfigurator" target="_parent">
<polygon fill="#fffcaf" stroke="black" stroke-dasharray="5,2" points="707.5,-19 560.5,-19 560.5,0 707.5,0 707.5,-19"/>
<text text-anchor="middle" x="634" y="-7" font-family="Helvetica,sans-Serif" font-size="10.00">IGateScheduleConfigurator</text>
</a>
</g>
</g>
<!-- INetworkConfigurator&#45;&gt;IGateScheduleConfigurator -->
<g id="edge4" class="edge">
<title>INetworkConfigurator&#45;&gt;IGateScheduleConfigurator</title>
<path fill="none" stroke="black" d="M484.6,-54.98C517.72,-45.12 571.96,-28.97 605.18,-19.08"/>
</g>
<!-- IL3NetworkConfigurator -->
<g id="node6" class="node">
<title>IL3NetworkConfigurator</title>
<g id="a_node6"><a xlink:href="inet.networklayer.configurator.contract.IL3NetworkConfigurator.html" xlink:title="Module Interface IL3NetworkConfigurator" target="_parent">
<polygon fill="#fffcaf" stroke="black" stroke-dasharray="5,2" points="858,-19 726,-19 726,0 858,0 858,-19"/>
<text text-anchor="middle" x="792" y="-7" font-family="Helvetica,sans-Serif" font-size="10.00">IL3NetworkConfigurator</text>
</a>
</g>
</g>
<!-- INetworkConfigurator&#45;&gt;IL3NetworkConfigurator -->
<g id="edge5" class="edge">
<title>INetworkConfigurator&#45;&gt;IL3NetworkConfigurator</title>
<path fill="none" stroke="black" d="M509.98,-54.98C572.59,-45.11 675.2,-28.92 737.87,-19.04"/>
</g>
</g>
</svg>
