<?xml version="1.0" encoding="UTF-8" standalone="no"?>
<!DOCTYPE svg PUBLIC "-//W3C//DTD SVG 1.1//EN"
 "http://www.w3.org/Graphics/SVG/1.1/DTD/svg11.dtd">
<!-- Generated by graphviz version 2.43.0 (0)
 -->
<!-- Title: opp Pages: 1 -->
<svg width="318pt" height="82pt"
 viewBox="0.00 0.00 317.50 82.00" xmlns="http://www.w3.org/2000/svg" xmlns:xlink="http://www.w3.org/1999/xlink">
<g id="graph0" class="graph" transform="scale(1 1) rotate(0) translate(4 78)">
<title>opp</title>
<polygon fill="transparent" stroke="transparent" points="-4,4 -4,-78 313.5,-78 313.5,4 -4,4"/>
<!-- GateScheduleCanvasVisualizer -->
<g id="node1" class="node">
<title>GateScheduleCanvasVisualizer</title>
<g id="a_node1"><a xlink:href="inet.visualizer.canvas.common.GateScheduleCanvasVisualizer.html" xlink:title="Simple Module GateScheduleCanvasVisualizer" target="_parent">
<polygon fill="#fff700" stroke="black" points="244,-19 76,-19 76,0 244,0 244,-19"/>
<text text-anchor="middle" x="160" y="-7" font-family="Helvetica,sans-Serif" font-size="10.00">GateScheduleCanvasVisualizer</text>
</a>
</g>
</g>
<!-- GateScheduleVisualizerBase -->
<g id="node2" class="node">
<title>GateScheduleVisualizerBase</title>
<g id="a_node2"><a xlink:href="inet.visualizer.base.GateScheduleVisualizerBase.html" xlink:title="Simple Module GateScheduleVisualizerBase" target="_parent">
<polygon fill="#fffcaf" stroke="black" points="156,-74 0,-74 0,-55 156,-55 156,-74"/>
<text text-anchor="middle" x="78" y="-62" font-family="Helvetica,sans-Serif" font-size="10.00">GateScheduleVisualizerBase</text>
</a>
</g>
</g>
<!-- GateScheduleVisualizerBase&#45;&gt;GateScheduleCanvasVisualizer -->
<g id="edge1" class="edge">
<title>GateScheduleVisualizerBase&#45;&gt;GateScheduleCanvasVisualizer</title>
<path fill="none" stroke="black" d="M91.17,-54.98C106.39,-45.15 131.27,-29.07 146.59,-19.17"/>
</g>
<!-- IGateScheduleVisualizer -->
<g id="node3" class="node">
<title>IGateScheduleVisualizer</title>
<g id="a_node3"><a xlink:href="inet.visualizer.contract.IGateScheduleVisualizer.html" xlink:title="Module Interface IGateScheduleVisualizer" target="_parent">
<polygon fill="#fffcaf" stroke="black" stroke-dasharray="5,2" points="309.5,-74 174.5,-74 174.5,-55 309.5,-55 309.5,-74"/>
<text text-anchor="middle" x="242" y="-62" font-family="Helvetica,sans-Serif" font-size="10.00">IGateScheduleVisualizer</text>
</a>
</g>
</g>
<!-- IGateScheduleVisualizer&#45;&gt;GateScheduleCanvasVisualizer -->
<g id="edge2" class="edge">
<title>IGateScheduleVisualizer&#45;&gt;GateScheduleCanvasVisualizer</title>
<path fill="none" stroke="black" stroke-dasharray="5,2" d="M228.83,-54.98C213.61,-45.15 188.73,-29.07 173.41,-19.17"/>
</g>
</g>
</svg>
