<?xml version="1.0" encoding="UTF-8" standalone="no"?>
<!DOCTYPE svg PUBLIC "-//W3C//DTD SVG 1.1//EN"
 "http://www.w3.org/Graphics/SVG/1.1/DTD/svg11.dtd">
<!-- Generated by graphviz version 2.43.0 (0)
 -->
<!-- Title: opp Pages: 1 -->
<svg width="168pt" height="82pt"
 viewBox="0.00 0.00 168.00 82.00" xmlns="http://www.w3.org/2000/svg" xmlns:xlink="http://www.w3.org/1999/xlink">
<g id="graph0" class="graph" transform="scale(1 1) rotate(0) translate(4 78)">
<title>opp</title>
<polygon fill="transparent" stroke="transparent" points="-4,4 -4,-78 164,-78 164,4 -4,4"/>
<!-- ICtsPolicy -->
<g id="node1" class="node">
<title>ICtsPolicy</title>
<g id="a_node1"><a xlink:href="inet.linklayer.ieee80211.mac.contract.ICtsPolicy.html" xlink:title="Module Interface ICtsPolicy" target="_parent">
<polygon fill="#fff700" stroke="black" stroke-dasharray="5,2" points="107.5,-74 42.5,-74 42.5,-55 107.5,-55 107.5,-74"/>
<text text-anchor="middle" x="75" y="-62" font-family="Helvetica,sans-Serif" font-size="10.00">ICtsPolicy</text>
</a>
</g>
</g>
<!-- CtsPolicy -->
<g id="node2" class="node">
<title>CtsPolicy</title>
<g id="a_node2"><a xlink:href="inet.linklayer.ieee80211.mac.recipient.CtsPolicy.html" xlink:title="Simple Module CtsPolicy" target="_parent">
<polygon fill="#fffcaf" stroke="black" points="62,-19 0,-19 0,0 62,0 62,-19"/>
<text text-anchor="middle" x="31" y="-7" font-family="Helvetica,sans-Serif" font-size="10.00">CtsPolicy</text>
</a>
</g>
</g>
<!-- ICtsPolicy&#45;&gt;CtsPolicy -->
<g id="edge1" class="edge">
<title>ICtsPolicy&#45;&gt;CtsPolicy</title>
<path fill="none" stroke="black" stroke-dasharray="5,2" d="M67.73,-54.75C59.53,-44.87 46.28,-28.9 38.13,-19.09"/>
</g>
<!-- QosCtsPolicy -->
<g id="node3" class="node">
<title>QosCtsPolicy</title>
<g id="a_node3"><a xlink:href="inet.linklayer.ieee80211.mac.recipient.QosCtsPolicy.html" xlink:title="Simple Module QosCtsPolicy" target="_parent">
<polygon fill="#fffcaf" stroke="black" points="160,-19 80,-19 80,0 160,0 160,-19"/>
<text text-anchor="middle" x="120" y="-7" font-family="Helvetica,sans-Serif" font-size="10.00">QosCtsPolicy</text>
</a>
</g>
</g>
<!-- ICtsPolicy&#45;&gt;QosCtsPolicy -->
<g id="edge2" class="edge">
<title>ICtsPolicy&#45;&gt;QosCtsPolicy</title>
<path fill="none" stroke="black" stroke-dasharray="5,2" d="M82.43,-54.75C90.82,-44.87 104.38,-28.9 112.71,-19.09"/>
</g>
</g>
</svg>
