<?xml version="1.0" encoding="UTF-8" standalone="no"?>
<!DOCTYPE svg PUBLIC "-//W3C//DTD SVG 1.1//EN"
 "http://www.w3.org/Graphics/SVG/1.1/DTD/svg11.dtd">
<!-- Generated by graphviz version 2.43.0 (0)
 -->
<!-- Title: opp Pages: 1 -->
<svg width="396pt" height="82pt"
 viewBox="0.00 0.00 395.50 82.00" xmlns="http://www.w3.org/2000/svg" xmlns:xlink="http://www.w3.org/1999/xlink">
<g id="graph0" class="graph" transform="scale(1 1) rotate(0) translate(4 78)">
<title>opp</title>
<polygon fill="transparent" stroke="transparent" points="-4,4 -4,-78 391.5,-78 391.5,4 -4,4"/>
<!-- EthernetInterface -->
<g id="node1" class="node">
<title>EthernetInterface</title>
<g id="a_node1"><a xlink:href="inet.linklayer.ethernet.EthernetInterface.html" xlink:title="Compound Module EthernetInterface" target="_parent">
<polygon fill="#fff700" stroke="black" points="252,-74 151,-74 151,-55 252,-55 252,-74"/>
<text text-anchor="middle" x="201.5" y="-62" font-family="Helvetica,sans-Serif" font-size="10.00">EthernetInterface</text>
</a>
</g>
</g>
<!-- ITrafficConditioner -->
<g id="node2" class="node">
<title>ITrafficConditioner</title>
<g id="a_node2"><a xlink:href="inet.queueing.contract.ITrafficConditioner.html" xlink:title="Module Interface ITrafficConditioner" target="_parent">
<polygon fill="#fffcaf" stroke="black" stroke-dasharray="5,2" points="105,-19 0,-19 0,0 105,0 105,-19"/>
<text text-anchor="middle" x="52.5" y="-7" font-family="Helvetica,sans-Serif" font-size="10.00">ITrafficConditioner</text>
</a>
</g>
</g>
<!-- EthernetInterface&#45;&gt;ITrafficConditioner -->
<g id="edge1" class="edge">
<title>EthernetInterface&#45;&gt;ITrafficConditioner</title>
<path fill="none" stroke="black" d="M177.56,-54.98C152.94,-46.23 114.38,-32.51 86.58,-22.62"/>
<polygon fill="black" stroke="black" points="87.47,-19.22 76.88,-19.17 85.12,-25.82 87.47,-19.22"/>
</g>
<!-- IEtherMac -->
<g id="node3" class="node">
<title>IEtherMac</title>
<g id="a_node3"><a xlink:href="inet.linklayer.contract.IEtherMac.html" xlink:title="Module Interface IEtherMac" target="_parent">
<polygon fill="#fffcaf" stroke="black" stroke-dasharray="5,2" points="188,-19 123,-19 123,0 188,0 188,-19"/>
<text text-anchor="middle" x="155.5" y="-7" font-family="Helvetica,sans-Serif" font-size="10.00">IEtherMac</text>
</a>
</g>
</g>
<!-- EthernetInterface&#45;&gt;IEtherMac -->
<g id="edge2" class="edge">
<title>EthernetInterface&#45;&gt;IEtherMac</title>
<path fill="none" stroke="black" d="M193.9,-54.75C187.34,-47.18 177.68,-36.05 169.69,-26.84"/>
<polygon fill="black" stroke="black" points="172.15,-24.35 162.95,-19.09 166.87,-28.94 172.15,-24.35"/>
</g>
<!-- IPacketQueue -->
<g id="node4" class="node">
<title>IPacketQueue</title>
<g id="a_node4"><a xlink:href="inet.queueing.contract.IPacketQueue.html" xlink:title="Module Interface IPacketQueue" target="_parent">
<polygon fill="#fffcaf" stroke="black" stroke-dasharray="5,2" points="289,-19 206,-19 206,0 289,0 289,-19"/>
<text text-anchor="middle" x="247.5" y="-7" font-family="Helvetica,sans-Serif" font-size="10.00">IPacketQueue</text>
</a>
</g>
</g>
<!-- EthernetInterface&#45;&gt;IPacketQueue -->
<g id="edge3" class="edge">
<title>EthernetInterface&#45;&gt;IPacketQueue</title>
<path fill="none" stroke="black" d="M209.1,-54.75C215.66,-47.18 225.32,-36.05 233.31,-26.84"/>
<polygon fill="black" stroke="black" points="236.13,-28.94 240.05,-19.09 230.85,-24.35 236.13,-28.94"/>
</g>
<!-- IdealChannel -->
<g id="node5" class="node">
<title>IdealChannel</title>
<g id="a_node5"><a xlink:href="ned.IdealChannel.html" xlink:title="Channel IdealChannel" target="_parent">
<polygon fill="#d0ffd0" stroke="black" points="387.5,-19 307.5,-19 307.5,0 387.5,0 387.5,-19"/>
<text text-anchor="middle" x="347.5" y="-7" font-family="Helvetica,sans-Serif" font-size="10.00">IdealChannel</text>
</a>
</g>
</g>
<!-- EthernetInterface&#45;&gt;IdealChannel -->
<g id="edge4" class="edge">
<title>EthernetInterface&#45;&gt;IdealChannel</title>
<path fill="none" stroke="black" d="M224.96,-54.98C249.08,-46.23 286.87,-32.51 314.1,-22.62"/>
<polygon fill="black" stroke="black" points="315.41,-25.87 323.62,-19.17 313.02,-19.29 315.41,-25.87"/>
</g>
</g>
</svg>
