<?xml version="1.0" encoding="UTF-8" standalone="no"?>
<!DOCTYPE svg PUBLIC "-//W3C//DTD SVG 1.1//EN"
 "http://www.w3.org/Graphics/SVG/1.1/DTD/svg11.dtd">
<!-- Generated by graphviz version 2.43.0 (0)
 -->
<!-- Title: opp Pages: 1 -->
<svg width="1636pt" height="137pt"
 viewBox="0.00 0.00 1635.50 137.00" xmlns="http://www.w3.org/2000/svg" xmlns:xlink="http://www.w3.org/1999/xlink">
<g id="graph0" class="graph" transform="scale(1 1) rotate(0) translate(4 133)">
<title>opp</title>
<polygon fill="transparent" stroke="transparent" points="-4,4 -4,-133 1631.5,-133 1631.5,4 -4,4"/>
<!-- Interface -->
<g id="node1" class="node">
<title>Interface</title>
<g id="a_node1"><a xlink:href="inet.tutorials.protocol.Interface.html" xlink:title="Compound Module Interface" target="_parent">
<polygon fill="#fff700" stroke="black" points="895,-74 835,-74 835,-55 895,-55 895,-74"/>
<text text-anchor="middle" x="865" y="-62" font-family="Helvetica,sans-Serif" font-size="10.00">Interface</text>
</a>
</g>
</g>
<!-- FcsHeaderInserter -->
<g id="node2" class="node">
<title>FcsHeaderInserter</title>
<g id="a_node2"><a xlink:href="inet.protocolelement.checksum.FcsHeaderInserter.html" xlink:title="Simple Module FcsHeaderInserter" target="_parent">
<polygon fill="#fffcaf" stroke="black" points="106,-19 0,-19 0,0 106,0 106,-19"/>
<text text-anchor="middle" x="53" y="-7" font-family="Helvetica,sans-Serif" font-size="10.00">FcsHeaderInserter</text>
</a>
</g>
</g>
<!-- Interface&#45;&gt;FcsHeaderInserter -->
<g id="edge1" class="edge">
<title>Interface&#45;&gt;FcsHeaderInserter</title>
<path fill="none" stroke="black" d="M834.93,-62.55C734.59,-59.19 402.02,-46.67 116.22,-19.04"/>
<polygon fill="black" stroke="black" points="116.36,-15.54 106.07,-18.05 115.68,-22.5 116.36,-15.54"/>
</g>
<!-- ReceiveWithAcknowledge -->
<g id="node3" class="node">
<title>ReceiveWithAcknowledge</title>
<g id="a_node3"><a xlink:href="inet.protocolelement.acknowledgement.ReceiveWithAcknowledge.html" xlink:title="Simple Module ReceiveWithAcknowledge" target="_parent">
<polygon fill="#fffcaf" stroke="black" points="267.5,-19 124.5,-19 124.5,0 267.5,0 267.5,-19"/>
<text text-anchor="middle" x="196" y="-7" font-family="Helvetica,sans-Serif" font-size="10.00">ReceiveWithAcknowledge</text>
</a>
</g>
</g>
<!-- Interface&#45;&gt;ReceiveWithAcknowledge -->
<g id="edge2" class="edge">
<title>Interface&#45;&gt;ReceiveWithAcknowledge</title>
<path fill="none" stroke="black" d="M834.99,-61.54C749.7,-55.9 498.37,-38.81 277.7,-19.04"/>
<polygon fill="black" stroke="black" points="277.82,-15.53 267.54,-18.12 277.19,-22.5 277.82,-15.53"/>
</g>
<!-- ReceiveWithProtocol -->
<g id="node4" class="node">
<title>ReceiveWithProtocol</title>
<g id="a_node4"><a xlink:href="inet.protocolelement.dispatching.ReceiveWithProtocol.html" xlink:title="Simple Module ReceiveWithProtocol" target="_parent">
<polygon fill="#fffcaf" stroke="black" points="404,-19 286,-19 286,0 404,0 404,-19"/>
<text text-anchor="middle" x="345" y="-7" font-family="Helvetica,sans-Serif" font-size="10.00">ReceiveWithProtocol</text>
</a>
</g>
</g>
<!-- Interface&#45;&gt;ReceiveWithProtocol -->
<g id="edge3" class="edge">
<title>Interface&#45;&gt;ReceiveWithProtocol</title>
<path fill="none" stroke="black" d="M834.82,-60.8C763.64,-54.39 579.45,-37.44 414.65,-19.16"/>
<polygon fill="black" stroke="black" points="414.65,-15.64 404.33,-18.01 413.88,-22.59 414.65,-15.64"/>
</g>
<!-- ReceiveAtMacAddress -->
<g id="node5" class="node">
<title>ReceiveAtMacAddress</title>
<g id="a_node5"><a xlink:href="inet.protocolelement.selectivity.ReceiveAtMacAddress.html" xlink:title="Simple Module ReceiveAtMacAddress" target="_parent">
<polygon fill="#fffcaf" stroke="black" points="547.5,-19 422.5,-19 422.5,0 547.5,0 547.5,-19"/>
<text text-anchor="middle" x="485" y="-7" font-family="Helvetica,sans-Serif" font-size="10.00">ReceiveAtMacAddress</text>
</a>
</g>
</g>
<!-- Interface&#45;&gt;ReceiveAtMacAddress -->
<g id="edge4" class="edge">
<title>Interface&#45;&gt;ReceiveAtMacAddress</title>
<path fill="none" stroke="black" d="M834.86,-59.3C775.07,-50.96 639.96,-32.11 556.23,-20.44"/>
<polygon fill="black" stroke="black" points="556.67,-16.96 546.29,-19.05 555.71,-23.9 556.67,-16.96"/>
</g>
<!-- PacketTransmitter -->
<g id="node6" class="node">
<title>PacketTransmitter</title>
<g id="a_node6"><a xlink:href="inet.protocolelement.transceiver.PacketTransmitter.html" xlink:title="Simple Module PacketTransmitter" target="_parent">
<polygon fill="#fffcaf" stroke="black" points="670,-19 566,-19 566,0 670,0 670,-19"/>
<text text-anchor="middle" x="618" y="-7" font-family="Helvetica,sans-Serif" font-size="10.00">PacketTransmitter</text>
</a>
</g>
</g>
<!-- Interface&#45;&gt;PacketTransmitter -->
<g id="edge5" class="edge">
<title>Interface&#45;&gt;PacketTransmitter</title>
<path fill="none" stroke="black" d="M834.71,-57C793.13,-48.08 717.86,-31.93 667.89,-21.21"/>
<polygon fill="black" stroke="black" points="668.45,-17.75 657.94,-19.07 666.99,-24.59 668.45,-17.75"/>
</g>
<!-- FcsHeaderChecker -->
<g id="node7" class="node">
<title>FcsHeaderChecker</title>
<g id="a_node7"><a xlink:href="inet.protocolelement.checksum.FcsHeaderChecker.html" xlink:title="Simple Module FcsHeaderChecker" target="_parent">
<polygon fill="#fffcaf" stroke="black" points="795.5,-19 688.5,-19 688.5,0 795.5,0 795.5,-19"/>
<text text-anchor="middle" x="742" y="-7" font-family="Helvetica,sans-Serif" font-size="10.00">FcsHeaderChecker</text>
</a>
</g>
</g>
<!-- Interface&#45;&gt;FcsHeaderChecker -->
<g id="edge6" class="edge">
<title>Interface&#45;&gt;FcsHeaderChecker</title>
<path fill="none" stroke="black" d="M845.24,-54.98C825.27,-46.38 794.2,-32.99 771.35,-23.15"/>
<polygon fill="black" stroke="black" points="772.69,-19.91 762.12,-19.17 769.92,-26.34 772.69,-19.91"/>
</g>
<!-- SendWithProtocol -->
<g id="node8" class="node">
<title>SendWithProtocol</title>
<g id="a_node8"><a xlink:href="inet.protocolelement.dispatching.SendWithProtocol.html" xlink:title="Simple Module SendWithProtocol" target="_parent">
<polygon fill="#fffcaf" stroke="black" points="916.5,-19 813.5,-19 813.5,0 916.5,0 916.5,-19"/>
<text text-anchor="middle" x="865" y="-7" font-family="Helvetica,sans-Serif" font-size="10.00">SendWithProtocol</text>
</a>
</g>
</g>
<!-- Interface&#45;&gt;SendWithProtocol -->
<g id="edge7" class="edge">
<title>Interface&#45;&gt;SendWithProtocol</title>
<path fill="none" stroke="black" d="M865,-54.75C865,-47.8 865,-37.85 865,-29.13"/>
<polygon fill="black" stroke="black" points="868.5,-29.09 865,-19.09 861.5,-29.09 868.5,-29.09"/>
</g>
<!-- MessageDispatcher -->
<g id="node9" class="node">
<title>MessageDispatcher</title>
<g id="a_node9"><a xlink:href="inet.common.MessageDispatcher.html" xlink:title="Simple Module MessageDispatcher" target="_parent">
<polygon fill="#fffcaf" stroke="black" points="1047.5,-19 934.5,-19 934.5,0 1047.5,0 1047.5,-19"/>
<text text-anchor="middle" x="991" y="-7" font-family="Helvetica,sans-Serif" font-size="10.00">MessageDispatcher</text>
</a>
</g>
</g>
<!-- Interface&#45;&gt;MessageDispatcher -->
<g id="edge8" class="edge">
<title>Interface&#45;&gt;MessageDispatcher</title>
<path fill="none" stroke="black" d="M885.24,-54.98C905.7,-46.38 937.53,-32.99 960.93,-23.15"/>
<polygon fill="black" stroke="black" points="962.53,-26.27 970.39,-19.17 959.81,-19.82 962.53,-26.27"/>
</g>
<!-- SendWithAcknowledge -->
<g id="node10" class="node">
<title>SendWithAcknowledge</title>
<g id="a_node10"><a xlink:href="inet.protocolelement.acknowledgement.SendWithAcknowledge.html" xlink:title="Simple Module SendWithAcknowledge" target="_parent">
<polygon fill="#fffcaf" stroke="black" points="1194,-19 1066,-19 1066,0 1194,0 1194,-19"/>
<text text-anchor="middle" x="1130" y="-7" font-family="Helvetica,sans-Serif" font-size="10.00">SendWithAcknowledge</text>
</a>
</g>
</g>
<!-- Interface&#45;&gt;SendWithAcknowledge -->
<g id="edge9" class="edge">
<title>Interface&#45;&gt;SendWithAcknowledge</title>
<path fill="none" stroke="black" d="M895.14,-57.47C939.46,-48.61 1022.83,-31.93 1077.38,-21.02"/>
<polygon fill="black" stroke="black" points="1078.09,-24.45 1087.21,-19.06 1076.72,-17.59 1078.09,-24.45"/>
</g>
<!-- SendToMacAddress -->
<g id="node11" class="node">
<title>SendToMacAddress</title>
<g id="a_node11"><a xlink:href="inet.protocolelement.selectivity.SendToMacAddress.html" xlink:title="Simple Module SendToMacAddress" target="_parent">
<polygon fill="#fffcaf" stroke="black" points="1322,-19 1212,-19 1212,0 1322,0 1322,-19"/>
<text text-anchor="middle" x="1267" y="-7" font-family="Helvetica,sans-Serif" font-size="10.00">SendToMacAddress</text>
</a>
</g>
</g>
<!-- Interface&#45;&gt;SendToMacAddress -->
<g id="edge10" class="edge">
<title>Interface&#45;&gt;SendToMacAddress</title>
<path fill="none" stroke="black" d="M895.3,-59.52C952.84,-51.97 1082.14,-34.98 1201.78,-19.16"/>
<polygon fill="black" stroke="black" points="1202.39,-22.61 1211.84,-17.83 1201.47,-15.67 1202.39,-22.61"/>
</g>
<!-- IdealChannel -->
<g id="node12" class="node">
<title>IdealChannel</title>
<g id="a_node12"><a xlink:href="ned.IdealChannel.html" xlink:title="Channel IdealChannel" target="_parent">
<polygon fill="#d0ffd0" stroke="black" points="1420,-19 1340,-19 1340,0 1420,0 1420,-19"/>
<text text-anchor="middle" x="1380" y="-7" font-family="Helvetica,sans-Serif" font-size="10.00">IdealChannel</text>
</a>
</g>
</g>
<!-- Interface&#45;&gt;IdealChannel -->
<g id="edge11" class="edge">
<title>Interface&#45;&gt;IdealChannel</title>
<path fill="none" stroke="black" d="M895.08,-61.43C967.85,-56.25 1159.41,-41.6 1329.77,-19.06"/>
<polygon fill="black" stroke="black" points="1330.48,-22.5 1339.93,-17.71 1329.55,-15.56 1330.48,-22.5"/>
</g>
<!-- Resending -->
<g id="node13" class="node">
<title>Resending</title>
<g id="a_node13"><a xlink:href="inet.protocolelement.acknowledgement.Resending.html" xlink:title="Simple Module Resending" target="_parent">
<polygon fill="#fffcaf" stroke="black" points="1506,-19 1438,-19 1438,0 1506,0 1506,-19"/>
<text text-anchor="middle" x="1472" y="-7" font-family="Helvetica,sans-Serif" font-size="10.00">Resending</text>
</a>
</g>
</g>
<!-- Interface&#45;&gt;Resending -->
<g id="edge12" class="edge">
<title>Interface&#45;&gt;Resending</title>
<path fill="none" stroke="black" d="M895.09,-62.36C978.27,-58.95 1218.46,-47.33 1427.85,-19"/>
<polygon fill="black" stroke="black" points="1428.36,-22.46 1437.79,-17.63 1427.41,-15.52 1428.36,-22.46"/>
</g>
<!-- PacketMultiplexer -->
<g id="node14" class="node">
<title>PacketMultiplexer</title>
<g id="a_node14"><a xlink:href="inet.queueing.common.PacketMultiplexer.html" xlink:title="Simple Module PacketMultiplexer" target="_parent">
<polygon fill="#fffcaf" stroke="black" points="1627.5,-19 1524.5,-19 1524.5,0 1627.5,0 1627.5,-19"/>
<text text-anchor="middle" x="1576" y="-7" font-family="Helvetica,sans-Serif" font-size="10.00">PacketMultiplexer</text>
</a>
</g>
</g>
<!-- Interface&#45;&gt;PacketMultiplexer -->
<g id="edge13" class="edge">
<title>Interface&#45;&gt;PacketMultiplexer</title>
<path fill="none" stroke="black" d="M895.19,-62.19C986.66,-58.05 1268.9,-44.11 1514.27,-18.99"/>
<polygon fill="black" stroke="black" points="1514.86,-22.45 1524.45,-17.94 1514.14,-15.49 1514.86,-22.45"/>
</g>
<!-- Node -->
<g id="node15" class="node">
<title>Node</title>
<g id="a_node15"><a xlink:href="inet.tutorials.protocol.Node.html" xlink:title="Compound Module Node" target="_parent">
<polygon fill="#fffcaf" stroke="black" points="892,-129 838,-129 838,-110 892,-110 892,-129"/>
<text text-anchor="middle" x="865" y="-117" font-family="Helvetica,sans-Serif" font-size="10.00">Node</text>
</a>
</g>
</g>
<!-- Node&#45;&gt;Interface -->
<g id="edge14" class="edge">
<title>Node&#45;&gt;Interface</title>
<path fill="none" stroke="black" d="M865,-109.75C865,-102.8 865,-92.85 865,-84.13"/>
<polygon fill="black" stroke="black" points="868.5,-84.09 865,-74.09 861.5,-84.09 868.5,-84.09"/>
</g>
</g>
</svg>
