<?xml version="1.0" encoding="UTF-8" standalone="no"?>
<!DOCTYPE svg PUBLIC "-//W3C//DTD SVG 1.1//EN"
 "http://www.w3.org/Graphics/SVG/1.1/DTD/svg11.dtd">
<!-- Generated by graphviz version 2.43.0 (0)
 -->
<!-- Title: opp Pages: 1 -->
<svg width="2059pt" height="137pt"
 viewBox="0.00 0.00 2059.00 137.00" xmlns="http://www.w3.org/2000/svg" xmlns:xlink="http://www.w3.org/1999/xlink">
<g id="graph0" class="graph" transform="scale(1 1) rotate(0) translate(4 133)">
<title>opp</title>
<polygon fill="transparent" stroke="transparent" points="-4,4 -4,-133 2055,-133 2055,4 -4,4"/>
<!-- RadioMedium -->
<g id="node1" class="node">
<title>RadioMedium</title>
<g id="a_node1"><a xlink:href="inet.physicallayer.wireless.common.medium.RadioMedium.html" xlink:title="Compound Module RadioMedium" target="_parent">
<polygon fill="#fff700" stroke="black" points="1046,-74 962,-74 962,-55 1046,-55 1046,-74"/>
<text text-anchor="middle" x="1004" y="-62" font-family="Helvetica,sans-Serif" font-size="10.00">RadioMedium</text>
</a>
</g>
</g>
<!-- ApskDimensionalRadioMedium -->
<g id="node3" class="node">
<title>ApskDimensionalRadioMedium</title>
<g id="a_node3"><a xlink:href="inet.physicallayer.wireless.apsk.packetlevel.ApskDimensionalRadioMedium.html" xlink:title="Compound Module ApskDimensionalRadioMedium" target="_parent">
<polygon fill="#fffcaf" stroke="black" points="170,-19 0,-19 0,0 170,0 170,-19"/>
<text text-anchor="middle" x="85" y="-7" font-family="Helvetica,sans-Serif" font-size="10.00">ApskDimensionalRadioMedium</text>
</a>
</g>
</g>
<!-- RadioMedium&#45;&gt;ApskDimensionalRadioMedium -->
<g id="edge2" class="edge">
<title>RadioMedium&#45;&gt;ApskDimensionalRadioMedium</title>
<path fill="none" stroke="black" d="M961.9,-61.77C840.4,-56.66 478.72,-40.63 179,-19 176.06,-18.79 173.07,-18.56 170.04,-18.33"/>
</g>
<!-- ApskLayeredDimensionalRadioMedium -->
<g id="node4" class="node">
<title>ApskLayeredDimensionalRadioMedium</title>
<g id="a_node4"><a xlink:href="inet.physicallayer.wireless.apsk.bitlevel.ApskLayeredDimensionalRadioMedium.html" xlink:title="Compound Module ApskLayeredDimensionalRadioMedium" target="_parent">
<polygon fill="#fffcaf" stroke="black" points="397.5,-19 188.5,-19 188.5,0 397.5,0 397.5,-19"/>
<text text-anchor="middle" x="293" y="-7" font-family="Helvetica,sans-Serif" font-size="10.00">ApskLayeredDimensionalRadioMedium</text>
</a>
</g>
</g>
<!-- RadioMedium&#45;&gt;ApskLayeredDimensionalRadioMedium -->
<g id="edge3" class="edge">
<title>RadioMedium&#45;&gt;ApskLayeredDimensionalRadioMedium</title>
<path fill="none" stroke="black" d="M961.95,-60.38C864.31,-53.14 614.67,-34.61 406,-19 403.25,-18.79 400.47,-18.59 397.66,-18.38"/>
</g>
<!-- ApskLayeredScalarRadioMedium -->
<g id="node5" class="node">
<title>ApskLayeredScalarRadioMedium</title>
<g id="a_node5"><a xlink:href="inet.physicallayer.wireless.apsk.bitlevel.ApskLayeredScalarRadioMedium.html" xlink:title="Compound Module ApskLayeredScalarRadioMedium" target="_parent">
<polygon fill="#fffcaf" stroke="black" points="592.5,-19 415.5,-19 415.5,0 592.5,0 592.5,-19"/>
<text text-anchor="middle" x="504" y="-7" font-family="Helvetica,sans-Serif" font-size="10.00">ApskLayeredScalarRadioMedium</text>
</a>
</g>
</g>
<!-- RadioMedium&#45;&gt;ApskLayeredScalarRadioMedium -->
<g id="edge4" class="edge">
<title>RadioMedium&#45;&gt;ApskLayeredScalarRadioMedium</title>
<path fill="none" stroke="black" d="M961.8,-59.03C878.57,-50.2 692.04,-30.43 584.53,-19.04"/>
</g>
<!-- ApskScalarRadioMedium -->
<g id="node6" class="node">
<title>ApskScalarRadioMedium</title>
<g id="a_node6"><a xlink:href="inet.physicallayer.wireless.apsk.packetlevel.ApskScalarRadioMedium.html" xlink:title="Compound Module ApskScalarRadioMedium" target="_parent">
<polygon fill="#fffcaf" stroke="black" points="749,-19 611,-19 611,0 749,0 749,-19"/>
<text text-anchor="middle" x="680" y="-7" font-family="Helvetica,sans-Serif" font-size="10.00">ApskScalarRadioMedium</text>
</a>
</g>
</g>
<!-- RadioMedium&#45;&gt;ApskScalarRadioMedium -->
<g id="edge5" class="edge">
<title>RadioMedium&#45;&gt;ApskScalarRadioMedium</title>
<path fill="none" stroke="black" d="M961.97,-56.63C903.07,-46.99 796.03,-29.48 732.13,-19.03"/>
</g>
<!-- Ieee80211LayeredDimensionalRadioMedium -->
<g id="node7" class="node">
<title>Ieee80211LayeredDimensionalRadioMedium</title>
<g id="a_node7"><a xlink:href="inet.physicallayer.wireless.ieee80211.bitlevel.Ieee80211LayeredDimensionalRadioMedium.html" xlink:title="Compound Module Ieee80211LayeredDimensionalRadioMedium" target="_parent">
<polygon fill="#fffcaf" stroke="black" points="1003,-19 767,-19 767,0 1003,0 1003,-19"/>
<text text-anchor="middle" x="885" y="-7" font-family="Helvetica,sans-Serif" font-size="10.00">Ieee80211LayeredDimensionalRadioMedium</text>
</a>
</g>
</g>
<!-- RadioMedium&#45;&gt;Ieee80211LayeredDimensionalRadioMedium -->
<g id="edge6" class="edge">
<title>RadioMedium&#45;&gt;Ieee80211LayeredDimensionalRadioMedium</title>
<path fill="none" stroke="black" d="M984.88,-54.98C962.81,-45.15 926.69,-29.07 904.47,-19.17"/>
</g>
<!-- Ieee80211LayeredScalarRadioMedium -->
<g id="node8" class="node">
<title>Ieee80211LayeredScalarRadioMedium</title>
<g id="a_node8"><a xlink:href="inet.physicallayer.wireless.ieee80211.bitlevel.Ieee80211LayeredScalarRadioMedium.html" xlink:title="Compound Module Ieee80211LayeredScalarRadioMedium" target="_parent">
<polygon fill="#fffcaf" stroke="black" points="1225,-19 1021,-19 1021,0 1225,0 1225,-19"/>
<text text-anchor="middle" x="1123" y="-7" font-family="Helvetica,sans-Serif" font-size="10.00">Ieee80211LayeredScalarRadioMedium</text>
</a>
</g>
</g>
<!-- RadioMedium&#45;&gt;Ieee80211LayeredScalarRadioMedium -->
<g id="edge7" class="edge">
<title>RadioMedium&#45;&gt;Ieee80211LayeredScalarRadioMedium</title>
<path fill="none" stroke="black" d="M1023.12,-54.98C1045.19,-45.15 1081.31,-29.07 1103.53,-19.17"/>
</g>
<!-- Ieee80211RadioMedium -->
<g id="node9" class="node">
<title>Ieee80211RadioMedium</title>
<g id="a_node9"><a xlink:href="inet.physicallayer.wireless.ieee80211.packetlevel.Ieee80211RadioMedium.html" xlink:title="Compound Module Ieee80211RadioMedium" target="_parent">
<polygon fill="#fffcaf" stroke="black" points="1378.5,-19 1243.5,-19 1243.5,0 1378.5,0 1378.5,-19"/>
<text text-anchor="middle" x="1311" y="-7" font-family="Helvetica,sans-Serif" font-size="10.00">Ieee80211RadioMedium</text>
</a>
</g>
</g>
<!-- RadioMedium&#45;&gt;Ieee80211RadioMedium -->
<g id="edge8" class="edge">
<title>RadioMedium&#45;&gt;Ieee80211RadioMedium</title>
<path fill="none" stroke="black" d="M1046.04,-56.24C1102.29,-46.53 1201.85,-29.34 1261.6,-19.03"/>
</g>
<!-- Ieee802154NarrowbandDimensionalRadioMedium -->
<g id="node10" class="node">
<title>Ieee802154NarrowbandDimensionalRadioMedium</title>
<g id="a_node10"><a xlink:href="inet.physicallayer.wireless.ieee802154.packetlevel.Ieee802154NarrowbandDimensionalRadioMedium.html" xlink:title="Compound Module Ieee802154NarrowbandDimensionalRadioMedium" target="_parent">
<polygon fill="#fffcaf" stroke="black" points="1659,-19 1397,-19 1397,0 1659,0 1659,-19"/>
<text text-anchor="middle" x="1528" y="-7" font-family="Helvetica,sans-Serif" font-size="10.00">Ieee802154NarrowbandDimensionalRadioMedium</text>
</a>
</g>
</g>
<!-- RadioMedium&#45;&gt;Ieee802154NarrowbandDimensionalRadioMedium -->
<g id="edge9" class="edge">
<title>RadioMedium&#45;&gt;Ieee802154NarrowbandDimensionalRadioMedium</title>
<path fill="none" stroke="black" d="M1046.44,-59.21C1132.81,-50.47 1330.43,-30.48 1443.85,-19.01"/>
</g>
<!-- Ieee802154NarrowbandScalarRadioMedium -->
<g id="node11" class="node">
<title>Ieee802154NarrowbandScalarRadioMedium</title>
<g id="a_node11"><a xlink:href="inet.physicallayer.wireless.ieee802154.packetlevel.Ieee802154NarrowbandScalarRadioMedium.html" xlink:title="Compound Module Ieee802154NarrowbandScalarRadioMedium" target="_parent">
<polygon fill="#fffcaf" stroke="black" points="1907,-19 1677,-19 1677,0 1907,0 1907,-19"/>
<text text-anchor="middle" x="1792" y="-7" font-family="Helvetica,sans-Serif" font-size="10.00">Ieee802154NarrowbandScalarRadioMedium</text>
</a>
</g>
</g>
<!-- RadioMedium&#45;&gt;Ieee802154NarrowbandScalarRadioMedium -->
<g id="edge10" class="edge">
<title>RadioMedium&#45;&gt;Ieee802154NarrowbandScalarRadioMedium</title>
<path fill="none" stroke="black" d="M1046.34,-60.68C1151.51,-53.69 1433.13,-34.92 1668,-19 1670.91,-18.8 1673.85,-18.6 1676.82,-18.4"/>
</g>
<!-- UnitDiskRadioMedium -->
<g id="node12" class="node">
<title>UnitDiskRadioMedium</title>
<g id="a_node12"><a xlink:href="inet.physicallayer.wireless.unitdisk.UnitDiskRadioMedium.html" xlink:title="Compound Module UnitDiskRadioMedium" target="_parent">
<polygon fill="#fffcaf" stroke="black" points="2051,-19 1925,-19 1925,0 2051,0 2051,-19"/>
<text text-anchor="middle" x="1988" y="-7" font-family="Helvetica,sans-Serif" font-size="10.00">UnitDiskRadioMedium</text>
</a>
</g>
</g>
<!-- RadioMedium&#45;&gt;UnitDiskRadioMedium -->
<g id="edge11" class="edge">
<title>RadioMedium&#45;&gt;UnitDiskRadioMedium</title>
<path fill="none" stroke="black" d="M1046.34,-62.47C1176.39,-59.08 1581.49,-46.87 1916,-19 1918.88,-18.76 1921.83,-18.49 1924.81,-18.21"/>
</g>
<!-- IRadioMedium -->
<g id="node2" class="node">
<title>IRadioMedium</title>
<g id="a_node2"><a xlink:href="inet.physicallayer.wireless.common.contract.packetlevel.IRadioMedium.html" xlink:title="Module Interface IRadioMedium" target="_parent">
<polygon fill="#fffcaf" stroke="black" stroke-dasharray="5,2" points="1047.5,-129 960.5,-129 960.5,-110 1047.5,-110 1047.5,-129"/>
<text text-anchor="middle" x="1004" y="-117" font-family="Helvetica,sans-Serif" font-size="10.00">IRadioMedium</text>
</a>
</g>
</g>
<!-- IRadioMedium&#45;&gt;RadioMedium -->
<g id="edge1" class="edge">
<title>IRadioMedium&#45;&gt;RadioMedium</title>
<path fill="none" stroke="black" stroke-dasharray="5,2" d="M1004,-109.75C1004,-99.87 1004,-83.9 1004,-74.09"/>
</g>
</g>
</svg>
