<?xml version="1.0" encoding="UTF-8" standalone="no"?>
<!DOCTYPE svg PUBLIC "-//W3C//DTD SVG 1.1//EN"
 "http://www.w3.org/Graphics/SVG/1.1/DTD/svg11.dtd">
<!-- Generated by graphviz version 2.43.0 (0)
 -->
<!-- Title: opp Pages: 1 -->
<svg width="435pt" height="82pt"
 viewBox="0.00 0.00 435.00 82.00" xmlns="http://www.w3.org/2000/svg" xmlns:xlink="http://www.w3.org/1999/xlink">
<g id="graph0" class="graph" transform="scale(1 1) rotate(0) translate(4 78)">
<title>opp</title>
<polygon fill="transparent" stroke="transparent" points="-4,4 -4,-78 431,-78 431,4 -4,4"/>
<!-- R37 -->
<g id="node1" class="node">
<title>R37</title>
<g id="a_node1"><a xlink:href="inet.examples.mpls.net37.R37.html" xlink:title="Network R37" target="_parent">
<polygon fill="#9090ff" stroke="black" points="247,-74 193,-74 193,-55 247,-55 247,-74"/>
<text text-anchor="middle" x="220" y="-62" font-family="Helvetica,sans-Serif" font-size="10.00">R37</text>
</a>
</g>
</g>
<!-- RsvpMplsRouter -->
<g id="node2" class="node">
<title>RsvpMplsRouter</title>
<g id="a_node2"><a xlink:href="inet.node.mpls.RsvpMplsRouter.html" xlink:title="Compound Module RsvpMplsRouter" target="_parent">
<polygon fill="#fffcaf" stroke="black" points="96,-19 0,-19 0,0 96,0 96,-19"/>
<text text-anchor="middle" x="48" y="-7" font-family="Helvetica,sans-Serif" font-size="10.00">RsvpMplsRouter</text>
</a>
</g>
</g>
<!-- R37&#45;&gt;RsvpMplsRouter -->
<g id="edge1" class="edge">
<title>R37&#45;&gt;RsvpMplsRouter</title>
<path fill="none" stroke="black" d="M192.75,-55.1C163.73,-46.16 117.63,-31.95 85.26,-21.98"/>
<polygon fill="black" stroke="black" points="86.28,-18.63 75.7,-19.03 84.22,-25.32 86.28,-18.63"/>
</g>
<!-- StandardHost -->
<g id="node3" class="node">
<title>StandardHost</title>
<g id="a_node3"><a xlink:href="inet.node.inet.StandardHost.html" xlink:title="Compound Module StandardHost" target="_parent">
<polygon fill="#fffcaf" stroke="black" points="197.5,-19 114.5,-19 114.5,0 197.5,0 197.5,-19"/>
<text text-anchor="middle" x="156" y="-7" font-family="Helvetica,sans-Serif" font-size="10.00">StandardHost</text>
</a>
</g>
</g>
<!-- R37&#45;&gt;StandardHost -->
<g id="edge2" class="edge">
<title>R37&#45;&gt;StandardHost</title>
<path fill="none" stroke="black" d="M209.72,-54.98C200.16,-47.07 185.72,-35.11 174.22,-25.58"/>
<polygon fill="black" stroke="black" points="176.4,-22.85 166.47,-19.17 171.94,-28.24 176.4,-22.85"/>
</g>
<!-- Ipv4NetworkConfigurator -->
<g id="node4" class="node">
<title>Ipv4NetworkConfigurator</title>
<g id="a_node4"><a xlink:href="inet.networklayer.configurator.ipv4.Ipv4NetworkConfigurator.html" xlink:title="Simple Module Ipv4NetworkConfigurator" target="_parent">
<polygon fill="#fffcaf" stroke="black" points="354.5,-19 215.5,-19 215.5,0 354.5,0 354.5,-19"/>
<text text-anchor="middle" x="285" y="-7" font-family="Helvetica,sans-Serif" font-size="10.00">Ipv4NetworkConfigurator</text>
</a>
</g>
</g>
<!-- R37&#45;&gt;Ipv4NetworkConfigurator -->
<g id="edge3" class="edge">
<title>R37&#45;&gt;Ipv4NetworkConfigurator</title>
<path fill="none" stroke="black" d="M230.44,-54.98C240.15,-47.07 254.82,-35.11 266.5,-25.58"/>
<polygon fill="black" stroke="black" points="268.83,-28.2 274.37,-19.17 264.4,-22.78 268.83,-28.2"/>
</g>
<!-- line -->
<g id="node5" class="node">
<title>line</title>
<g id="a_node5"><a xlink:href="inet.examples.mpls.net37.R37.line.html" xlink:title="Channel line" target="_parent">
<polygon fill="#d0ffd0" stroke="black" points="427,-19 373,-19 373,0 427,0 427,-19"/>
<text text-anchor="middle" x="400" y="-7" font-family="Helvetica,sans-Serif" font-size="10.00">line</text>
</a>
</g>
</g>
<!-- R37&#45;&gt;line -->
<g id="edge4" class="edge">
<title>R37&#45;&gt;line</title>
<path fill="none" stroke="black" d="M247.34,-55.45C278.31,-46.33 328.93,-31.42 363.32,-21.3"/>
<polygon fill="black" stroke="black" points="364.39,-24.63 372.99,-18.45 362.41,-17.92 364.39,-24.63"/>
</g>
</g>
</svg>
