<?xml version="1.0" encoding="UTF-8" standalone="no"?>
<!DOCTYPE svg PUBLIC "-//W3C//DTD SVG 1.1//EN"
 "http://www.w3.org/Graphics/SVG/1.1/DTD/svg11.dtd">
<!-- Generated by graphviz version 2.43.0 (0)
 -->
<!-- Title: opp Pages: 1 -->
<svg width="254pt" height="82pt"
 viewBox="0.00 0.00 253.50 82.00" xmlns="http://www.w3.org/2000/svg" xmlns:xlink="http://www.w3.org/1999/xlink">
<g id="graph0" class="graph" transform="scale(1 1) rotate(0) translate(4 78)">
<title>opp</title>
<polygon fill="transparent" stroke="transparent" points="-4,4 -4,-78 249.5,-78 249.5,4 -4,4"/>
<!-- EthernetMacHeaderInserter -->
<g id="node1" class="node">
<title>EthernetMacHeaderInserter</title>
<g id="a_node1"><a xlink:href="inet.linklayer.ethernet.modular.EthernetMacHeaderInserter.html" xlink:title="Simple Module EthernetMacHeaderInserter" target="_parent">
<polygon fill="#fff700" stroke="black" points="189,-19 38,-19 38,0 189,0 189,-19"/>
<text text-anchor="middle" x="113.5" y="-7" font-family="Helvetica,sans-Serif" font-size="10.00">EthernetMacHeaderInserter</text>
</a>
</g>
</g>
<!-- PacketFlowBase -->
<g id="node2" class="node">
<title>PacketFlowBase</title>
<g id="a_node2"><a xlink:href="inet.queueing.base.PacketFlowBase.html" xlink:title="Simple Module PacketFlowBase" target="_parent">
<polygon fill="#fffcaf" stroke="black" points="95,-74 0,-74 0,-55 95,-55 95,-74"/>
<text text-anchor="middle" x="47.5" y="-62" font-family="Helvetica,sans-Serif" font-size="10.00">PacketFlowBase</text>
</a>
</g>
</g>
<!-- PacketFlowBase&#45;&gt;EthernetMacHeaderInserter -->
<g id="edge1" class="edge">
<title>PacketFlowBase&#45;&gt;EthernetMacHeaderInserter</title>
<path fill="none" stroke="black" d="M58.1,-54.98C70.35,-45.15 90.38,-29.07 102.7,-19.17"/>
</g>
<!-- IProtocolHeaderInserter -->
<g id="node3" class="node">
<title>IProtocolHeaderInserter</title>
<g id="a_node3"><a xlink:href="inet.protocolelement.contract.IProtocolHeaderInserter.html" xlink:title="Module Interface IProtocolHeaderInserter" target="_parent">
<polygon fill="#fffcaf" stroke="black" stroke-dasharray="5,2" points="245.5,-74 113.5,-74 113.5,-55 245.5,-55 245.5,-74"/>
<text text-anchor="middle" x="179.5" y="-62" font-family="Helvetica,sans-Serif" font-size="10.00">IProtocolHeaderInserter</text>
</a>
</g>
</g>
<!-- IProtocolHeaderInserter&#45;&gt;EthernetMacHeaderInserter -->
<g id="edge2" class="edge">
<title>IProtocolHeaderInserter&#45;&gt;EthernetMacHeaderInserter</title>
<path fill="none" stroke="black" stroke-dasharray="5,2" d="M168.9,-54.98C156.65,-45.15 136.62,-29.07 124.3,-19.17"/>
</g>
</g>
</svg>
