<?xml version="1.0" encoding="UTF-8" standalone="no"?>
<!DOCTYPE svg PUBLIC "-//W3C//DTD SVG 1.1//EN"
 "http://www.w3.org/Graphics/SVG/1.1/DTD/svg11.dtd">
<!-- Generated by graphviz version 2.43.0 (0)
 -->
<!-- Title: opp Pages: 1 -->
<svg width="472pt" height="82pt"
 viewBox="0.00 0.00 472.00 82.00" xmlns="http://www.w3.org/2000/svg" xmlns:xlink="http://www.w3.org/1999/xlink">
<g id="graph0" class="graph" transform="scale(1 1) rotate(0) translate(4 78)">
<title>opp</title>
<polygon fill="transparent" stroke="transparent" points="-4,4 -4,-78 468,-78 468,4 -4,4"/>
<!-- TokenBasedServerTutorialStep -->
<g id="node1" class="node">
<title>TokenBasedServerTutorialStep</title>
<g id="a_node1"><a xlink:href="inet.tutorials.queueing.TokenBasedServerTutorialStep.html" xlink:title="Network TokenBasedServerTutorialStep" target="_parent">
<polygon fill="#9090ff" stroke="black" points="333,-74 169,-74 169,-55 333,-55 333,-74"/>
<text text-anchor="middle" x="251" y="-62" font-family="Helvetica,sans-Serif" font-size="10.00">TokenBasedServerTutorialStep</text>
</a>
</g>
</g>
<!-- PassivePacketSource -->
<g id="node2" class="node">
<title>PassivePacketSource</title>
<g id="a_node2"><a xlink:href="inet.queueing.source.PassivePacketSource.html" xlink:title="Simple Module PassivePacketSource" target="_parent">
<polygon fill="#fffcaf" stroke="black" points="118,-19 0,-19 0,0 118,0 118,-19"/>
<text text-anchor="middle" x="59" y="-7" font-family="Helvetica,sans-Serif" font-size="10.00">PassivePacketSource</text>
</a>
</g>
</g>
<!-- TokenBasedServerTutorialStep&#45;&gt;PassivePacketSource -->
<g id="edge1" class="edge">
<title>TokenBasedServerTutorialStep&#45;&gt;PassivePacketSource</title>
<path fill="none" stroke="black" d="M220.15,-54.98C187.5,-45.97 135.8,-31.7 99.8,-21.76"/>
<polygon fill="black" stroke="black" points="100.66,-18.37 90.09,-19.08 98.8,-25.12 100.66,-18.37"/>
</g>
<!-- TokenBasedServer -->
<g id="node3" class="node">
<title>TokenBasedServer</title>
<g id="a_node3"><a xlink:href="inet.queueing.server.TokenBasedServer.html" xlink:title="Simple Module TokenBasedServer" target="_parent">
<polygon fill="#fffcaf" stroke="black" points="242,-19 136,-19 136,0 242,0 242,-19"/>
<text text-anchor="middle" x="189" y="-7" font-family="Helvetica,sans-Serif" font-size="10.00">TokenBasedServer</text>
</a>
</g>
</g>
<!-- TokenBasedServerTutorialStep&#45;&gt;TokenBasedServer -->
<g id="edge2" class="edge">
<title>TokenBasedServerTutorialStep&#45;&gt;TokenBasedServer</title>
<path fill="none" stroke="black" d="M241.04,-54.98C231.87,-47.15 218.06,-35.34 206.97,-25.86"/>
<polygon fill="black" stroke="black" points="209.02,-23.01 199.14,-19.17 204.47,-28.33 209.02,-23.01"/>
</g>
<!-- PassivePacketSink -->
<g id="node4" class="node">
<title>PassivePacketSink</title>
<g id="a_node4"><a xlink:href="inet.queueing.sink.PassivePacketSink.html" xlink:title="Simple Module PassivePacketSink" target="_parent">
<polygon fill="#fffcaf" stroke="black" points="366,-19 260,-19 260,0 366,0 366,-19"/>
<text text-anchor="middle" x="313" y="-7" font-family="Helvetica,sans-Serif" font-size="10.00">PassivePacketSink</text>
</a>
</g>
</g>
<!-- TokenBasedServerTutorialStep&#45;&gt;PassivePacketSink -->
<g id="edge3" class="edge">
<title>TokenBasedServerTutorialStep&#45;&gt;PassivePacketSink</title>
<path fill="none" stroke="black" d="M260.96,-54.98C270.13,-47.15 283.94,-35.34 295.03,-25.86"/>
<polygon fill="black" stroke="black" points="297.53,-28.33 302.86,-19.17 292.98,-23.01 297.53,-28.33"/>
</g>
<!-- IdealChannel -->
<g id="node5" class="node">
<title>IdealChannel</title>
<g id="a_node5"><a xlink:href="ned.IdealChannel.html" xlink:title="Channel IdealChannel" target="_parent">
<polygon fill="#d0ffd0" stroke="black" points="464,-19 384,-19 384,0 464,0 464,-19"/>
<text text-anchor="middle" x="424" y="-7" font-family="Helvetica,sans-Serif" font-size="10.00">IdealChannel</text>
</a>
</g>
</g>
<!-- TokenBasedServerTutorialStep&#45;&gt;IdealChannel -->
<g id="edge4" class="edge">
<title>TokenBasedServerTutorialStep&#45;&gt;IdealChannel</title>
<path fill="none" stroke="black" d="M278.8,-54.98C307.97,-46.05 354,-31.94 386.4,-22.02"/>
<polygon fill="black" stroke="black" points="387.45,-25.36 395.99,-19.08 385.4,-18.66 387.45,-25.36"/>
</g>
</g>
</svg>
