<?xml version="1.0" encoding="UTF-8" standalone="no"?>
<!DOCTYPE svg PUBLIC "-//W3C//DTD SVG 1.1//EN"
 "http://www.w3.org/Graphics/SVG/1.1/DTD/svg11.dtd">
<!-- Generated by graphviz version 2.43.0 (0)
 -->
<!-- Title: opp Pages: 1 -->
<svg width="385pt" height="82pt"
 viewBox="0.00 0.00 385.00 82.00" xmlns="http://www.w3.org/2000/svg" xmlns:xlink="http://www.w3.org/1999/xlink">
<g id="graph0" class="graph" transform="scale(1 1) rotate(0) translate(4 78)">
<title>opp</title>
<polygon fill="transparent" stroke="transparent" points="-4,4 -4,-78 381,-78 381,4 -4,4"/>
<!-- PppInterface -->
<g id="node1" class="node">
<title>PppInterface</title>
<g id="a_node1"><a xlink:href="inet.linklayer.ppp.PppInterface.html" xlink:title="Compound Module PppInterface" target="_parent">
<polygon fill="#fff700" stroke="black" points="220,-74 142,-74 142,-55 220,-55 220,-74"/>
<text text-anchor="middle" x="181" y="-62" font-family="Helvetica,sans-Serif" font-size="10.00">PppInterface</text>
</a>
</g>
</g>
<!-- Ppp -->
<g id="node2" class="node">
<title>Ppp</title>
<g id="a_node2"><a xlink:href="inet.linklayer.ppp.Ppp.html" xlink:title="Simple Module Ppp" target="_parent">
<polygon fill="#fffcaf" stroke="black" points="54,-19 0,-19 0,0 54,0 54,-19"/>
<text text-anchor="middle" x="27" y="-7" font-family="Helvetica,sans-Serif" font-size="10.00">Ppp</text>
</a>
</g>
</g>
<!-- PppInterface&#45;&gt;Ppp -->
<g id="edge1" class="edge">
<title>PppInterface&#45;&gt;Ppp</title>
<path fill="none" stroke="black" d="M156.26,-54.98C130.63,-46.16 90.37,-32.31 61.59,-22.41"/>
<polygon fill="black" stroke="black" points="62.53,-19.03 51.94,-19.08 60.25,-25.65 62.53,-19.03"/>
</g>
<!-- ITrafficConditioner -->
<g id="node3" class="node">
<title>ITrafficConditioner</title>
<g id="a_node3"><a xlink:href="inet.queueing.contract.ITrafficConditioner.html" xlink:title="Module Interface ITrafficConditioner" target="_parent">
<polygon fill="#fffcaf" stroke="black" stroke-dasharray="5,2" points="177.5,-19 72.5,-19 72.5,0 177.5,0 177.5,-19"/>
<text text-anchor="middle" x="125" y="-7" font-family="Helvetica,sans-Serif" font-size="10.00">ITrafficConditioner</text>
</a>
</g>
</g>
<!-- PppInterface&#45;&gt;ITrafficConditioner -->
<g id="edge2" class="edge">
<title>PppInterface&#45;&gt;ITrafficConditioner</title>
<path fill="none" stroke="black" d="M172,-54.98C163.81,-47.23 151.49,-35.58 141.53,-26.14"/>
<polygon fill="black" stroke="black" points="143.83,-23.5 134.16,-19.17 139.02,-28.59 143.83,-23.5"/>
</g>
<!-- IPacketQueue -->
<g id="node4" class="node">
<title>IPacketQueue</title>
<g id="a_node4"><a xlink:href="inet.queueing.contract.IPacketQueue.html" xlink:title="Module Interface IPacketQueue" target="_parent">
<polygon fill="#fffcaf" stroke="black" stroke-dasharray="5,2" points="278.5,-19 195.5,-19 195.5,0 278.5,0 278.5,-19"/>
<text text-anchor="middle" x="237" y="-7" font-family="Helvetica,sans-Serif" font-size="10.00">IPacketQueue</text>
</a>
</g>
</g>
<!-- PppInterface&#45;&gt;IPacketQueue -->
<g id="edge3" class="edge">
<title>PppInterface&#45;&gt;IPacketQueue</title>
<path fill="none" stroke="black" d="M190,-54.98C198.19,-47.23 210.51,-35.58 220.47,-26.14"/>
<polygon fill="black" stroke="black" points="222.98,-28.59 227.84,-19.17 218.17,-23.5 222.98,-28.59"/>
</g>
<!-- IdealChannel -->
<g id="node5" class="node">
<title>IdealChannel</title>
<g id="a_node5"><a xlink:href="ned.IdealChannel.html" xlink:title="Channel IdealChannel" target="_parent">
<polygon fill="#d0ffd0" stroke="black" points="377,-19 297,-19 297,0 377,0 377,-19"/>
<text text-anchor="middle" x="337" y="-7" font-family="Helvetica,sans-Serif" font-size="10.00">IdealChannel</text>
</a>
</g>
</g>
<!-- PppInterface&#45;&gt;IdealChannel -->
<g id="edge4" class="edge">
<title>PppInterface&#45;&gt;IdealChannel</title>
<path fill="none" stroke="black" d="M206.06,-54.98C232.03,-46.16 272.81,-32.31 301.96,-22.41"/>
<polygon fill="black" stroke="black" points="303.4,-25.61 311.74,-19.08 301.15,-18.99 303.4,-25.61"/>
</g>
</g>
</svg>
