<?xml version="1.0" encoding="UTF-8" standalone="no"?>
<!DOCTYPE svg PUBLIC "-//W3C//DTD SVG 1.1//EN"
 "http://www.w3.org/Graphics/SVG/1.1/DTD/svg11.dtd">
<!-- Generated by graphviz version 2.43.0 (0)
 -->
<!-- Title: opp Pages: 1 -->
<svg width="250pt" height="82pt"
 viewBox="0.00 0.00 250.00 82.00" xmlns="http://www.w3.org/2000/svg" xmlns:xlink="http://www.w3.org/1999/xlink">
<g id="graph0" class="graph" transform="scale(1 1) rotate(0) translate(4 78)">
<title>opp</title>
<polygon fill="transparent" stroke="transparent" points="-4,4 -4,-78 246,-78 246,4 -4,4"/>
<!-- IPacketPuller -->
<g id="node1" class="node">
<title>IPacketPuller</title>
<g id="a_node1"><a xlink:href="inet.queueing.contract.IPacketPuller.html" xlink:title="Module Interface IPacketPuller" target="_parent">
<polygon fill="#fff700" stroke="black" stroke-dasharray="5,2" points="156,-19 77,-19 77,0 156,0 156,-19"/>
<text text-anchor="middle" x="116.5" y="-7" font-family="Helvetica,sans-Serif" font-size="10.00">IPacketPuller</text>
</a>
</g>
</g>
<!-- IActivePacketSink -->
<g id="node2" class="node">
<title>IActivePacketSink</title>
<g id="a_node2"><a xlink:href="inet.queueing.contract.IActivePacketSink.html" xlink:title="Module Interface IActivePacketSink" target="_parent">
<polygon fill="#fffcaf" stroke="black" stroke-dasharray="5,2" points="103,-74 0,-74 0,-55 103,-55 103,-74"/>
<text text-anchor="middle" x="51.5" y="-62" font-family="Helvetica,sans-Serif" font-size="10.00">IActivePacketSink</text>
</a>
</g>
</g>
<!-- IActivePacketSink&#45;&gt;IPacketPuller -->
<g id="edge1" class="edge">
<title>IActivePacketSink&#45;&gt;IPacketPuller</title>
<path fill="none" stroke="black" d="M61.94,-54.98C74,-45.15 93.73,-29.07 105.87,-19.17"/>
</g>
<!-- IPassivePacketSource -->
<g id="node3" class="node">
<title>IPassivePacketSource</title>
<g id="a_node3"><a xlink:href="inet.queueing.contract.IPassivePacketSource.html" xlink:title="Module Interface IPassivePacketSource" target="_parent">
<polygon fill="#fffcaf" stroke="black" stroke-dasharray="5,2" points="242,-74 121,-74 121,-55 242,-55 242,-74"/>
<text text-anchor="middle" x="181.5" y="-62" font-family="Helvetica,sans-Serif" font-size="10.00">IPassivePacketSource</text>
</a>
</g>
</g>
<!-- IPassivePacketSource&#45;&gt;IPacketPuller -->
<g id="edge2" class="edge">
<title>IPassivePacketSource&#45;&gt;IPacketPuller</title>
<path fill="none" stroke="black" d="M171.06,-54.98C159,-45.15 139.27,-29.07 127.13,-19.17"/>
</g>
</g>
</svg>
