<?xml version="1.0" encoding="UTF-8" standalone="no"?>
<!DOCTYPE svg PUBLIC "-//W3C//DTD SVG 1.1//EN"
 "http://www.w3.org/Graphics/SVG/1.1/DTD/svg11.dtd">
<!-- Generated by graphviz version 2.43.0 (0)
 -->
<!-- Title: opp Pages: 1 -->
<svg width="666pt" height="82pt"
 viewBox="0.00 0.00 665.50 82.00" xmlns="http://www.w3.org/2000/svg" xmlns:xlink="http://www.w3.org/1999/xlink">
<g id="graph0" class="graph" transform="scale(1 1) rotate(0) translate(4 78)">
<title>opp</title>
<polygon fill="transparent" stroke="transparent" points="-4,4 -4,-78 661.5,-78 661.5,4 -4,4"/>
<!-- OSPF_RFC2328_Fig6 -->
<g id="node1" class="node">
<title>OSPF_RFC2328_Fig6</title>
<g id="a_node1"><a xlink:href="inet.examples.ospfv2.fulltest.OSPF_RFC2328_Fig6.html" xlink:title="Network OSPF_RFC2328_Fig6" target="_parent">
<polygon fill="#9090ff" stroke="black" points="342.5,-74 226.5,-74 226.5,-55 342.5,-55 342.5,-74"/>
<text text-anchor="middle" x="284.5" y="-62" font-family="Helvetica,sans-Serif" font-size="10.00">OSPF_RFC2328_Fig6</text>
</a>
</g>
</g>
<!-- OspfRouter -->
<g id="node2" class="node">
<title>OspfRouter</title>
<g id="a_node2"><a xlink:href="inet.node.ospfv2.OspfRouter.html" xlink:title="Compound Module OspfRouter" target="_parent">
<polygon fill="#fffcaf" stroke="black" points="71,-19 0,-19 0,0 71,0 71,-19"/>
<text text-anchor="middle" x="35.5" y="-7" font-family="Helvetica,sans-Serif" font-size="10.00">OspfRouter</text>
</a>
</g>
</g>
<!-- OSPF_RFC2328_Fig6&#45;&gt;OspfRouter -->
<g id="edge1" class="edge">
<title>OSPF_RFC2328_Fig6&#45;&gt;OspfRouter</title>
<path fill="none" stroke="black" d="M244.49,-54.98C199.92,-45.5 128,-30.19 81.23,-20.23"/>
<polygon fill="black" stroke="black" points="81.88,-16.79 71.37,-18.13 80.42,-23.64 81.88,-16.79"/>
</g>
<!-- OSPF_Area2 -->
<g id="node3" class="node">
<title>OSPF_Area2</title>
<g id="a_node3"><a xlink:href="inet.examples.ospfv2.fulltest.OSPF_Area2.html" xlink:title="Compound Module OSPF_Area2" target="_parent">
<polygon fill="#fffcaf" stroke="black" points="165.5,-19 89.5,-19 89.5,0 165.5,0 165.5,-19"/>
<text text-anchor="middle" x="127.5" y="-7" font-family="Helvetica,sans-Serif" font-size="10.00">OSPF_Area2</text>
</a>
</g>
</g>
<!-- OSPF_RFC2328_Fig6&#45;&gt;OSPF_Area2 -->
<g id="edge2" class="edge">
<title>OSPF_RFC2328_Fig6&#45;&gt;OSPF_Area2</title>
<path fill="none" stroke="black" d="M259.28,-54.98C233.14,-46.16 192.1,-32.31 162.77,-22.41"/>
<polygon fill="black" stroke="black" points="163.52,-18.96 152.92,-19.08 161.28,-25.6 163.52,-18.96"/>
</g>
<!-- OspfLan -->
<g id="node4" class="node">
<title>OspfLan</title>
<g id="a_node4"><a xlink:href="inet.examples.ospfv2.fulltest.OspfLan.html" xlink:title="Compound Module OspfLan" target="_parent">
<polygon fill="#fffcaf" stroke="black" points="239.5,-19 183.5,-19 183.5,0 239.5,0 239.5,-19"/>
<text text-anchor="middle" x="211.5" y="-7" font-family="Helvetica,sans-Serif" font-size="10.00">OspfLan</text>
</a>
</g>
</g>
<!-- OSPF_RFC2328_Fig6&#45;&gt;OspfLan -->
<g id="edge3" class="edge">
<title>OSPF_RFC2328_Fig6&#45;&gt;OspfLan</title>
<path fill="none" stroke="black" d="M272.77,-54.98C261.77,-47 245.08,-34.88 231.9,-25.31"/>
<polygon fill="black" stroke="black" points="233.59,-22.21 223.44,-19.17 229.48,-27.88 233.59,-22.21"/>
</g>
<!-- C -->
<g id="node5" class="node">
<title>C</title>
<g id="a_node5"><a xlink:href="inet.examples.ospfv2.fulltest.C.html" xlink:title="Channel C" target="_parent">
<polygon fill="#d0ffd0" stroke="black" points="311.5,-19 257.5,-19 257.5,0 311.5,0 311.5,-19"/>
<text text-anchor="middle" x="284.5" y="-7" font-family="Helvetica,sans-Serif" font-size="10.00">C</text>
</a>
</g>
</g>
<!-- OSPF_RFC2328_Fig6&#45;&gt;C -->
<g id="edge4" class="edge">
<title>OSPF_RFC2328_Fig6&#45;&gt;C</title>
<path fill="none" stroke="black" d="M284.5,-54.75C284.5,-47.8 284.5,-37.85 284.5,-29.13"/>
<polygon fill="black" stroke="black" points="288,-29.09 284.5,-19.09 281,-29.09 288,-29.09"/>
</g>
<!-- Ipv4NetworkConfigurator -->
<g id="node6" class="node">
<title>Ipv4NetworkConfigurator</title>
<g id="a_node6"><a xlink:href="inet.networklayer.configurator.ipv4.Ipv4NetworkConfigurator.html" xlink:title="Simple Module Ipv4NetworkConfigurator" target="_parent">
<polygon fill="#fffcaf" stroke="black" points="469,-19 330,-19 330,0 469,0 469,-19"/>
<text text-anchor="middle" x="399.5" y="-7" font-family="Helvetica,sans-Serif" font-size="10.00">Ipv4NetworkConfigurator</text>
</a>
</g>
</g>
<!-- OSPF_RFC2328_Fig6&#45;&gt;Ipv4NetworkConfigurator -->
<g id="edge5" class="edge">
<title>OSPF_RFC2328_Fig6&#45;&gt;Ipv4NetworkConfigurator</title>
<path fill="none" stroke="black" d="M302.98,-54.98C321.48,-46.46 350.18,-33.23 371.48,-23.41"/>
<polygon fill="black" stroke="black" points="373.07,-26.53 380.69,-19.17 370.14,-20.18 373.07,-26.53"/>
</g>
<!-- OSPF_Area3 -->
<g id="node7" class="node">
<title>OSPF_Area3</title>
<g id="a_node7"><a xlink:href="inet.examples.ospfv2.fulltest.OSPF_Area3.html" xlink:title="Compound Module OSPF_Area3" target="_parent">
<polygon fill="#fffcaf" stroke="black" points="563.5,-19 487.5,-19 487.5,0 563.5,0 563.5,-19"/>
<text text-anchor="middle" x="525.5" y="-7" font-family="Helvetica,sans-Serif" font-size="10.00">OSPF_Area3</text>
</a>
</g>
</g>
<!-- OSPF_RFC2328_Fig6&#45;&gt;OSPF_Area3 -->
<g id="edge6" class="edge">
<title>OSPF_RFC2328_Fig6&#45;&gt;OSPF_Area3</title>
<path fill="none" stroke="black" d="M323.22,-54.98C365.16,-45.76 432.11,-31.04 477.39,-21.08"/>
<polygon fill="black" stroke="black" points="478.26,-24.47 487.27,-18.91 476.75,-17.64 478.26,-24.47"/>
</g>
<!-- OSPF_Area1 -->
<g id="node8" class="node">
<title>OSPF_Area1</title>
<g id="a_node8"><a xlink:href="inet.examples.ospfv2.fulltest.OSPF_Area1.html" xlink:title="Compound Module OSPF_Area1" target="_parent">
<polygon fill="#fffcaf" stroke="black" points="657.5,-19 581.5,-19 581.5,0 657.5,0 657.5,-19"/>
<text text-anchor="middle" x="619.5" y="-7" font-family="Helvetica,sans-Serif" font-size="10.00">OSPF_Area1</text>
</a>
</g>
</g>
<!-- OSPF_RFC2328_Fig6&#45;&gt;OSPF_Area1 -->
<g id="edge7" class="edge">
<title>OSPF_RFC2328_Fig6&#45;&gt;OSPF_Area1</title>
<path fill="none" stroke="black" d="M342.49,-54.99C398.48,-46.66 485.94,-33.4 571.18,-19.19"/>
<polygon fill="black" stroke="black" points="572.01,-22.6 581.29,-17.49 570.85,-15.69 572.01,-22.6"/>
</g>
</g>
</svg>
