<?xml version="1.0" encoding="UTF-8" standalone="no"?>
<!DOCTYPE svg PUBLIC "-//W3C//DTD SVG 1.1//EN"
 "http://www.w3.org/Graphics/SVG/1.1/DTD/svg11.dtd">
<!-- Generated by graphviz version 2.43.0 (0)
 -->
<!-- Title: opp Pages: 1 -->
<svg width="721pt" height="137pt"
 viewBox="0.00 0.00 720.50 137.00" xmlns="http://www.w3.org/2000/svg" xmlns:xlink="http://www.w3.org/1999/xlink">
<g id="graph0" class="graph" transform="scale(1 1) rotate(0) translate(4 133)">
<title>opp</title>
<polygon fill="transparent" stroke="transparent" points="-4,4 -4,-133 716.5,-133 716.5,4 -4,4"/>
<!-- IPv4LargeLAN -->
<g id="node1" class="node">
<title>IPv4LargeLAN</title>
<g id="a_node1"><a xlink:href="inet.examples.inet.ipv4largenet.IPv4LargeLAN.html" xlink:title="Compound Module IPv4LargeLAN" target="_parent">
<polygon fill="#fff700" stroke="black" points="419,-74 334,-74 334,-55 419,-55 419,-74"/>
<text text-anchor="middle" x="376.5" y="-62" font-family="Helvetica,sans-Serif" font-size="10.00">IPv4LargeLAN</text>
</a>
</g>
</g>
<!-- EthernetHub -->
<g id="node2" class="node">
<title>EthernetHub</title>
<g id="a_node2"><a xlink:href="inet.node.ethernet.EthernetHub.html" xlink:title="Simple Module EthernetHub" target="_parent">
<polygon fill="#fffcaf" stroke="black" points="77,-19 0,-19 0,0 77,0 77,-19"/>
<text text-anchor="middle" x="38.5" y="-7" font-family="Helvetica,sans-Serif" font-size="10.00">EthernetHub</text>
</a>
</g>
</g>
<!-- IPv4LargeLAN&#45;&gt;EthernetHub -->
<g id="edge1" class="edge">
<title>IPv4LargeLAN&#45;&gt;EthernetHub</title>
<path fill="none" stroke="black" d="M333.55,-57.3C278.66,-49.3 180.47,-34.72 87.11,-19.23"/>
<polygon fill="black" stroke="black" points="87.65,-15.78 77.21,-17.59 86.5,-22.68 87.65,-15.78"/>
</g>
<!-- StandardHost -->
<g id="node3" class="node">
<title>StandardHost</title>
<g id="a_node3"><a xlink:href="inet.node.inet.StandardHost.html" xlink:title="Compound Module StandardHost" target="_parent">
<polygon fill="#fffcaf" stroke="black" points="178,-19 95,-19 95,0 178,0 178,-19"/>
<text text-anchor="middle" x="136.5" y="-7" font-family="Helvetica,sans-Serif" font-size="10.00">StandardHost</text>
</a>
</g>
</g>
<!-- IPv4LargeLAN&#45;&gt;StandardHost -->
<g id="edge2" class="edge">
<title>IPv4LargeLAN&#45;&gt;StandardHost</title>
<path fill="none" stroke="black" d="M337.94,-54.98C296.43,-45.82 230.29,-31.21 185.21,-21.26"/>
<polygon fill="black" stroke="black" points="185.88,-17.82 175.36,-19.08 184.37,-24.66 185.88,-17.82"/>
</g>
<!-- WireJunction -->
<g id="node4" class="node">
<title>WireJunction</title>
<g id="a_node4"><a xlink:href="inet.physicallayer.wired.common.WireJunction.html" xlink:title="Simple Module WireJunction" target="_parent">
<polygon fill="#fffcaf" stroke="black" points="274.5,-19 196.5,-19 196.5,0 274.5,0 274.5,-19"/>
<text text-anchor="middle" x="235.5" y="-7" font-family="Helvetica,sans-Serif" font-size="10.00">WireJunction</text>
</a>
</g>
</g>
<!-- IPv4LargeLAN&#45;&gt;WireJunction -->
<g id="edge3" class="edge">
<title>IPv4LargeLAN&#45;&gt;WireJunction</title>
<path fill="none" stroke="black" d="M353.85,-54.98C330.65,-46.27 294.38,-32.63 268.1,-22.75"/>
<polygon fill="black" stroke="black" points="269.16,-19.41 258.57,-19.17 266.7,-25.97 269.16,-19.41"/>
</g>
<!-- cabletobus -->
<g id="node5" class="node">
<title>cabletobus</title>
<g id="a_node5"><a xlink:href="inet.examples.inet.ipv4largenet.IPv4LargeLAN.cabletobus.html" xlink:title="Channel cabletobus" target="_parent">
<polygon fill="#d0ffd0" stroke="black" points="362.5,-19 292.5,-19 292.5,0 362.5,0 362.5,-19"/>
<text text-anchor="middle" x="327.5" y="-7" font-family="Helvetica,sans-Serif" font-size="10.00">cabletobus</text>
</a>
</g>
</g>
<!-- IPv4LargeLAN&#45;&gt;cabletobus -->
<g id="edge4" class="edge">
<title>IPv4LargeLAN&#45;&gt;cabletobus</title>
<path fill="none" stroke="black" d="M368.41,-54.75C361.34,-47.11 350.91,-35.82 342.35,-26.56"/>
<polygon fill="black" stroke="black" points="344.8,-24.06 335.44,-19.09 339.66,-28.81 344.8,-24.06"/>
</g>
<!-- EthernetSwitch -->
<g id="node6" class="node">
<title>EthernetSwitch</title>
<g id="a_node6"><a xlink:href="inet.node.ethernet.EthernetSwitch.html" xlink:title="Compound Module EthernetSwitch" target="_parent">
<polygon fill="#fffcaf" stroke="black" points="470.5,-19 380.5,-19 380.5,0 470.5,0 470.5,-19"/>
<text text-anchor="middle" x="425.5" y="-7" font-family="Helvetica,sans-Serif" font-size="10.00">EthernetSwitch</text>
</a>
</g>
</g>
<!-- IPv4LargeLAN&#45;&gt;EthernetSwitch -->
<g id="edge5" class="edge">
<title>IPv4LargeLAN&#45;&gt;EthernetSwitch</title>
<path fill="none" stroke="black" d="M384.59,-54.75C391.66,-47.11 402.09,-35.82 410.65,-26.56"/>
<polygon fill="black" stroke="black" points="413.34,-28.81 417.56,-19.09 408.2,-24.06 413.34,-28.81"/>
</g>
<!-- IdealChannel -->
<g id="node7" class="node">
<title>IdealChannel</title>
<g id="a_node7"><a xlink:href="ned.IdealChannel.html" xlink:title="Channel IdealChannel" target="_parent">
<polygon fill="#d0ffd0" stroke="black" points="568.5,-19 488.5,-19 488.5,0 568.5,0 568.5,-19"/>
<text text-anchor="middle" x="528.5" y="-7" font-family="Helvetica,sans-Serif" font-size="10.00">IdealChannel</text>
</a>
</g>
</g>
<!-- IPv4LargeLAN&#45;&gt;IdealChannel -->
<g id="edge6" class="edge">
<title>IPv4LargeLAN&#45;&gt;IdealChannel</title>
<path fill="none" stroke="black" d="M400.92,-54.98C426.22,-46.16 465.95,-32.31 494.36,-22.41"/>
<polygon fill="black" stroke="black" points="495.6,-25.68 503.89,-19.08 493.29,-19.07 495.6,-25.68"/>
</g>
<!-- Router -->
<g id="node8" class="node">
<title>Router</title>
<g id="a_node8"><a xlink:href="inet.node.inet.Router.html" xlink:title="Compound Module Router" target="_parent">
<polygon fill="#fffcaf" stroke="black" points="640.5,-19 586.5,-19 586.5,0 640.5,0 640.5,-19"/>
<text text-anchor="middle" x="613.5" y="-7" font-family="Helvetica,sans-Serif" font-size="10.00">Router</text>
</a>
</g>
</g>
<!-- IPv4LargeLAN&#45;&gt;Router -->
<g id="edge7" class="edge">
<title>IPv4LargeLAN&#45;&gt;Router</title>
<path fill="none" stroke="black" d="M415.82,-54.96C454.31,-46.57 514.86,-33.27 576.49,-19.21"/>
<polygon fill="black" stroke="black" points="577.41,-22.59 586.38,-16.95 575.85,-15.76 577.41,-22.59"/>
</g>
<!-- cable -->
<g id="node9" class="node">
<title>cable</title>
<g id="a_node9"><a xlink:href="inet.examples.inet.ipv4largenet.cable.html" xlink:title="Channel cable" target="_parent">
<polygon fill="#d0ffd0" stroke="black" points="712.5,-19 658.5,-19 658.5,0 712.5,0 712.5,-19"/>
<text text-anchor="middle" x="685.5" y="-7" font-family="Helvetica,sans-Serif" font-size="10.00">cable</text>
</a>
</g>
</g>
<!-- IPv4LargeLAN&#45;&gt;cable -->
<g id="edge8" class="edge">
<title>IPv4LargeLAN&#45;&gt;cable</title>
<path fill="none" stroke="black" d="M419.23,-57.49C471.11,-49.97 561.47,-36.21 648.39,-19.1"/>
<polygon fill="black" stroke="black" points="649.29,-22.49 658.42,-17.11 647.93,-15.63 649.29,-22.49"/>
</g>
<!-- IPv4LargeNet -->
<g id="node10" class="node">
<title>IPv4LargeNet</title>
<g id="a_node10"><a xlink:href="inet.examples.inet.ipv4largenet.IPv4LargeNet.html" xlink:title="Network IPv4LargeNet" target="_parent">
<polygon fill="#d0d0ff" stroke="black" points="417.5,-129 335.5,-129 335.5,-110 417.5,-110 417.5,-129"/>
<text text-anchor="middle" x="376.5" y="-117" font-family="Helvetica,sans-Serif" font-size="10.00">IPv4LargeNet</text>
</a>
</g>
</g>
<!-- IPv4LargeNet&#45;&gt;IPv4LargeLAN -->
<g id="edge9" class="edge">
<title>IPv4LargeNet&#45;&gt;IPv4LargeLAN</title>
<path fill="none" stroke="black" d="M376.5,-109.75C376.5,-102.8 376.5,-92.85 376.5,-84.13"/>
<polygon fill="black" stroke="black" points="380,-84.09 376.5,-74.09 373,-84.09 380,-84.09"/>
</g>
</g>
</svg>
