<?xml version="1.0" encoding="UTF-8" standalone="no"?>
<!DOCTYPE svg PUBLIC "-//W3C//DTD SVG 1.1//EN"
 "http://www.w3.org/Graphics/SVG/1.1/DTD/svg11.dtd">
<!-- Generated by graphviz version 2.43.0 (0)
 -->
<!-- Title: opp Pages: 1 -->
<svg width="638pt" height="82pt"
 viewBox="0.00 0.00 638.00 82.00" xmlns="http://www.w3.org/2000/svg" xmlns:xlink="http://www.w3.org/1999/xlink">
<g id="graph0" class="graph" transform="scale(1 1) rotate(0) translate(4 78)">
<title>opp</title>
<polygon fill="transparent" stroke="transparent" points="-4,4 -4,-78 634,-78 634,4 -4,4"/>
<!-- TimeBasedTokenGeneratorTutorialStep -->
<g id="node1" class="node">
<title>TimeBasedTokenGeneratorTutorialStep</title>
<g id="a_node1"><a xlink:href="inet.tutorials.queueing.TimeBasedTokenGeneratorTutorialStep.html" xlink:title="Network TimeBasedTokenGeneratorTutorialStep" target="_parent">
<polygon fill="#9090ff" stroke="black" points="416,-74 210,-74 210,-55 416,-55 416,-74"/>
<text text-anchor="middle" x="313" y="-62" font-family="Helvetica,sans-Serif" font-size="10.00">TimeBasedTokenGeneratorTutorialStep</text>
</a>
</g>
</g>
<!-- PassivePacketSource -->
<g id="node2" class="node">
<title>PassivePacketSource</title>
<g id="a_node2"><a xlink:href="inet.queueing.source.PassivePacketSource.html" xlink:title="Simple Module PassivePacketSource" target="_parent">
<polygon fill="#fffcaf" stroke="black" points="118,-19 0,-19 0,0 118,0 118,-19"/>
<text text-anchor="middle" x="59" y="-7" font-family="Helvetica,sans-Serif" font-size="10.00">PassivePacketSource</text>
</a>
</g>
</g>
<!-- TimeBasedTokenGeneratorTutorialStep&#45;&gt;PassivePacketSource -->
<g id="edge1" class="edge">
<title>TimeBasedTokenGeneratorTutorialStep&#45;&gt;PassivePacketSource</title>
<path fill="none" stroke="black" d="M272.19,-54.98C228.07,-45.78 157.67,-31.09 109.95,-21.13"/>
<polygon fill="black" stroke="black" points="110.63,-17.7 100.13,-19.08 109.2,-24.55 110.63,-17.7"/>
</g>
<!-- TokenBasedServer -->
<g id="node3" class="node">
<title>TokenBasedServer</title>
<g id="a_node3"><a xlink:href="inet.queueing.server.TokenBasedServer.html" xlink:title="Simple Module TokenBasedServer" target="_parent">
<polygon fill="#fffcaf" stroke="black" points="242,-19 136,-19 136,0 242,0 242,-19"/>
<text text-anchor="middle" x="189" y="-7" font-family="Helvetica,sans-Serif" font-size="10.00">TokenBasedServer</text>
</a>
</g>
</g>
<!-- TimeBasedTokenGeneratorTutorialStep&#45;&gt;TokenBasedServer -->
<g id="edge2" class="edge">
<title>TimeBasedTokenGeneratorTutorialStep&#45;&gt;TokenBasedServer</title>
<path fill="none" stroke="black" d="M293.08,-54.98C272.95,-46.38 241.62,-32.99 218.59,-23.15"/>
<polygon fill="black" stroke="black" points="219.86,-19.88 209.29,-19.17 217.1,-26.32 219.86,-19.88"/>
</g>
<!-- PassivePacketSink -->
<g id="node4" class="node">
<title>PassivePacketSink</title>
<g id="a_node4"><a xlink:href="inet.queueing.sink.PassivePacketSink.html" xlink:title="Simple Module PassivePacketSink" target="_parent">
<polygon fill="#fffcaf" stroke="black" points="366,-19 260,-19 260,0 366,0 366,-19"/>
<text text-anchor="middle" x="313" y="-7" font-family="Helvetica,sans-Serif" font-size="10.00">PassivePacketSink</text>
</a>
</g>
</g>
<!-- TimeBasedTokenGeneratorTutorialStep&#45;&gt;PassivePacketSink -->
<g id="edge3" class="edge">
<title>TimeBasedTokenGeneratorTutorialStep&#45;&gt;PassivePacketSink</title>
<path fill="none" stroke="black" d="M313,-54.75C313,-47.8 313,-37.85 313,-29.13"/>
<polygon fill="black" stroke="black" points="316.5,-29.09 313,-19.09 309.5,-29.09 316.5,-29.09"/>
</g>
<!-- IdealChannel -->
<g id="node5" class="node">
<title>IdealChannel</title>
<g id="a_node5"><a xlink:href="ned.IdealChannel.html" xlink:title="Channel IdealChannel" target="_parent">
<polygon fill="#d0ffd0" stroke="black" points="464,-19 384,-19 384,0 464,0 464,-19"/>
<text text-anchor="middle" x="424" y="-7" font-family="Helvetica,sans-Serif" font-size="10.00">IdealChannel</text>
</a>
</g>
</g>
<!-- TimeBasedTokenGeneratorTutorialStep&#45;&gt;IdealChannel -->
<g id="edge4" class="edge">
<title>TimeBasedTokenGeneratorTutorialStep&#45;&gt;IdealChannel</title>
<path fill="none" stroke="black" d="M330.83,-54.98C348.61,-46.5 376.15,-33.35 396.68,-23.54"/>
<polygon fill="black" stroke="black" points="398.33,-26.64 405.84,-19.17 395.31,-20.32 398.33,-26.64"/>
</g>
<!-- TimeBasedTokenGenerator -->
<g id="node6" class="node">
<title>TimeBasedTokenGenerator</title>
<g id="a_node6"><a xlink:href="inet.queueing.tokengenerator.TimeBasedTokenGenerator.html" xlink:title="Simple Module TimeBasedTokenGenerator" target="_parent">
<polygon fill="#fffcaf" stroke="black" points="630,-19 482,-19 482,0 630,0 630,-19"/>
<text text-anchor="middle" x="556" y="-7" font-family="Helvetica,sans-Serif" font-size="10.00">TimeBasedTokenGenerator</text>
</a>
</g>
</g>
<!-- TimeBasedTokenGeneratorTutorialStep&#45;&gt;TimeBasedTokenGenerator -->
<g id="edge5" class="edge">
<title>TimeBasedTokenGeneratorTutorialStep&#45;&gt;TimeBasedTokenGenerator</title>
<path fill="none" stroke="black" d="M352.04,-54.98C394.08,-45.82 461.04,-31.21 506.68,-21.26"/>
<polygon fill="black" stroke="black" points="507.63,-24.63 516.65,-19.08 506.14,-17.79 507.63,-24.63"/>
</g>
</g>
</svg>
