<?xml version="1.0" encoding="UTF-8" standalone="no"?>
<!DOCTYPE svg PUBLIC "-//W3C//DTD SVG 1.1//EN"
 "http://www.w3.org/Graphics/SVG/1.1/DTD/svg11.dtd">
<!-- Generated by graphviz version 2.43.0 (0)
 -->
<!-- Title: opp Pages: 1 -->
<svg width="236pt" height="82pt"
 viewBox="0.00 0.00 236.00 82.00" xmlns="http://www.w3.org/2000/svg" xmlns:xlink="http://www.w3.org/1999/xlink">
<g id="graph0" class="graph" transform="scale(1 1) rotate(0) translate(4 78)">
<title>opp</title>
<polygon fill="transparent" stroke="transparent" points="-4,4 -4,-78 232,-78 232,4 -4,4"/>
<!-- OscillatorBase -->
<g id="node1" class="node">
<title>OscillatorBase</title>
<g id="a_node1"><a xlink:href="inet.clock.base.OscillatorBase.html" xlink:title="Simple Module OscillatorBase" target="_parent">
<polygon fill="#fff700" stroke="black" points="166,-74 79,-74 79,-55 166,-55 166,-74"/>
<text text-anchor="middle" x="122.5" y="-62" font-family="Helvetica,sans-Serif" font-size="10.00">OscillatorBase</text>
</a>
</g>
</g>
<!-- DriftingOscillatorBase -->
<g id="node2" class="node">
<title>DriftingOscillatorBase</title>
<g id="a_node2"><a xlink:href="inet.clock.base.DriftingOscillatorBase.html" xlink:title="Simple Module DriftingOscillatorBase" target="_parent">
<polygon fill="#fffcaf" stroke="black" points="123,-19 0,-19 0,0 123,0 123,-19"/>
<text text-anchor="middle" x="61.5" y="-7" font-family="Helvetica,sans-Serif" font-size="10.00">DriftingOscillatorBase</text>
</a>
</g>
</g>
<!-- OscillatorBase&#45;&gt;DriftingOscillatorBase -->
<g id="edge1" class="edge">
<title>OscillatorBase&#45;&gt;DriftingOscillatorBase</title>
<path fill="none" stroke="black" d="M112.7,-54.98C101.38,-45.15 82.87,-29.07 71.48,-19.17"/>
</g>
<!-- IdealOscillator -->
<g id="node3" class="node">
<title>IdealOscillator</title>
<g id="a_node3"><a xlink:href="inet.clock.oscillator.IdealOscillator.html" xlink:title="Simple Module IdealOscillator" target="_parent">
<polygon fill="#fffcaf" stroke="black" points="228,-19 141,-19 141,0 228,0 228,-19"/>
<text text-anchor="middle" x="184.5" y="-7" font-family="Helvetica,sans-Serif" font-size="10.00">IdealOscillator</text>
</a>
</g>
</g>
<!-- OscillatorBase&#45;&gt;IdealOscillator -->
<g id="edge2" class="edge">
<title>OscillatorBase&#45;&gt;IdealOscillator</title>
<path fill="none" stroke="black" d="M132.46,-54.98C143.96,-45.15 162.78,-29.07 174.36,-19.17"/>
</g>
</g>
</svg>
