<?xml version="1.0" encoding="UTF-8" standalone="no"?>
<!DOCTYPE svg PUBLIC "-//W3C//DTD SVG 1.1//EN"
 "http://www.w3.org/Graphics/SVG/1.1/DTD/svg11.dtd">
<!-- Generated by graphviz version 2.43.0 (0)
 -->
<!-- Title: opp Pages: 1 -->
<svg width="222pt" height="82pt"
 viewBox="0.00 0.00 221.50 82.00" xmlns="http://www.w3.org/2000/svg" xmlns:xlink="http://www.w3.org/1999/xlink">
<g id="graph0" class="graph" transform="scale(1 1) rotate(0) translate(4 78)">
<title>opp</title>
<polygon fill="transparent" stroke="transparent" points="-4,4 -4,-78 217.5,-78 217.5,4 -4,4"/>
<!-- IObjectCache -->
<g id="node1" class="node">
<title>IObjectCache</title>
<g id="a_node1"><a xlink:href="inet.environment.contract.IObjectCache.html" xlink:title="Module Interface IObjectCache" target="_parent">
<polygon fill="#fff700" stroke="black" stroke-dasharray="5,2" points="147,-74 66,-74 66,-55 147,-55 147,-74"/>
<text text-anchor="middle" x="106.5" y="-62" font-family="Helvetica,sans-Serif" font-size="10.00">IObjectCache</text>
</a>
</g>
</g>
<!-- BvhObjectCache -->
<g id="node2" class="node">
<title>BvhObjectCache</title>
<g id="a_node2"><a xlink:href="inet.environment.objectcache.BvhObjectCache.html" xlink:title="Compound Module BvhObjectCache" target="_parent">
<polygon fill="#fffcaf" stroke="black" points="97,-19 0,-19 0,0 97,0 97,-19"/>
<text text-anchor="middle" x="48.5" y="-7" font-family="Helvetica,sans-Serif" font-size="10.00">BvhObjectCache</text>
</a>
</g>
</g>
<!-- IObjectCache&#45;&gt;BvhObjectCache -->
<g id="edge1" class="edge">
<title>IObjectCache&#45;&gt;BvhObjectCache</title>
<path fill="none" stroke="black" stroke-dasharray="5,2" d="M97.18,-54.98C86.42,-45.15 68.82,-29.07 57.99,-19.17"/>
</g>
<!-- GridObjectCache -->
<g id="node3" class="node">
<title>GridObjectCache</title>
<g id="a_node3"><a xlink:href="inet.environment.objectcache.GridObjectCache.html" xlink:title="Compound Module GridObjectCache" target="_parent">
<polygon fill="#fffcaf" stroke="black" points="213.5,-19 115.5,-19 115.5,0 213.5,0 213.5,-19"/>
<text text-anchor="middle" x="164.5" y="-7" font-family="Helvetica,sans-Serif" font-size="10.00">GridObjectCache</text>
</a>
</g>
</g>
<!-- IObjectCache&#45;&gt;GridObjectCache -->
<g id="edge2" class="edge">
<title>IObjectCache&#45;&gt;GridObjectCache</title>
<path fill="none" stroke="black" stroke-dasharray="5,2" d="M115.82,-54.98C126.58,-45.15 144.18,-29.07 155.01,-19.17"/>
</g>
</g>
</svg>
