<?xml version="1.0" encoding="UTF-8" standalone="no"?>
<!DOCTYPE svg PUBLIC "-//W3C//DTD SVG 1.1//EN"
 "http://www.w3.org/Graphics/SVG/1.1/DTD/svg11.dtd">
<!-- Generated by graphviz version 2.43.0 (0)
 -->
<!-- Title: opp Pages: 1 -->
<svg width="216pt" height="82pt"
 viewBox="0.00 0.00 216.00 82.00" xmlns="http://www.w3.org/2000/svg" xmlns:xlink="http://www.w3.org/1999/xlink">
<g id="graph0" class="graph" transform="scale(1 1) rotate(0) translate(4 78)">
<title>opp</title>
<polygon fill="transparent" stroke="transparent" points="-4,4 -4,-78 212,-78 212,4 -4,4"/>
<!-- EndToEndDelayMeasurementShowcase -->
<g id="node1" class="node">
<title>EndToEndDelayMeasurementShowcase</title>
<g id="a_node1"><a xlink:href="inet.showcases.measurement.endtoenddelay.EndToEndDelayMeasurementShowcase.html" xlink:title="Network EndToEndDelayMeasurementShowcase" target="_parent">
<polygon fill="#9090ff" stroke="black" points="208,-74 0,-74 0,-55 208,-55 208,-74"/>
<text text-anchor="middle" x="104" y="-62" font-family="Helvetica,sans-Serif" font-size="10.00">EndToEndDelayMeasurementShowcase</text>
</a>
</g>
</g>
<!-- StandardHost -->
<g id="node2" class="node">
<title>StandardHost</title>
<g id="a_node2"><a xlink:href="inet.node.inet.StandardHost.html" xlink:title="Compound Module StandardHost" target="_parent">
<polygon fill="#fffcaf" stroke="black" points="101.5,-19 18.5,-19 18.5,0 101.5,0 101.5,-19"/>
<text text-anchor="middle" x="60" y="-7" font-family="Helvetica,sans-Serif" font-size="10.00">StandardHost</text>
</a>
</g>
</g>
<!-- EndToEndDelayMeasurementShowcase&#45;&gt;StandardHost -->
<g id="edge1" class="edge">
<title>EndToEndDelayMeasurementShowcase&#45;&gt;StandardHost</title>
<path fill="none" stroke="black" d="M96.73,-54.75C90.46,-47.18 81.21,-36.05 73.57,-26.84"/>
<polygon fill="black" stroke="black" points="76.21,-24.55 67.13,-19.09 70.83,-29.02 76.21,-24.55"/>
</g>
<!-- Eth100M -->
<g id="node3" class="node">
<title>Eth100M</title>
<g id="a_node3"><a xlink:href="inet.node.ethernet.Eth100M.html" xlink:title="Channel Eth100M" target="_parent">
<polygon fill="#d0ffd0" stroke="black" points="178.5,-19 119.5,-19 119.5,0 178.5,0 178.5,-19"/>
<text text-anchor="middle" x="149" y="-7" font-family="Helvetica,sans-Serif" font-size="10.00">Eth100M</text>
</a>
</g>
</g>
<!-- EndToEndDelayMeasurementShowcase&#45;&gt;Eth100M -->
<g id="edge2" class="edge">
<title>EndToEndDelayMeasurementShowcase&#45;&gt;Eth100M</title>
<path fill="none" stroke="black" d="M111.43,-54.75C117.85,-47.18 127.31,-36.05 135.12,-26.84"/>
<polygon fill="black" stroke="black" points="137.9,-28.98 141.71,-19.09 132.57,-24.45 137.9,-28.98"/>
</g>
</g>
</svg>
