<?xml version="1.0" encoding="UTF-8" standalone="no"?>
<!DOCTYPE svg PUBLIC "-//W3C//DTD SVG 1.1//EN"
 "http://www.w3.org/Graphics/SVG/1.1/DTD/svg11.dtd">
<!-- Generated by graphviz version 2.43.0 (0)
 -->
<!-- Title: opp Pages: 1 -->
<svg width="470pt" height="82pt"
 viewBox="0.00 0.00 470.00 82.00" xmlns="http://www.w3.org/2000/svg" xmlns:xlink="http://www.w3.org/1999/xlink">
<g id="graph0" class="graph" transform="scale(1 1) rotate(0) translate(4 78)">
<title>opp</title>
<polygon fill="transparent" stroke="transparent" points="-4,4 -4,-78 466,-78 466,4 -4,4"/>
<!-- Filter1TutorialStep -->
<g id="node1" class="node">
<title>Filter1TutorialStep</title>
<g id="a_node1"><a xlink:href="inet.tutorials.queueing.Filter1TutorialStep.html" xlink:title="Network Filter1TutorialStep" target="_parent">
<polygon fill="#9090ff" stroke="black" points="288.5,-74 183.5,-74 183.5,-55 288.5,-55 288.5,-74"/>
<text text-anchor="middle" x="236" y="-62" font-family="Helvetica,sans-Serif" font-size="10.00">Filter1TutorialStep</text>
</a>
</g>
</g>
<!-- ContentBasedFilter -->
<g id="node2" class="node">
<title>ContentBasedFilter</title>
<g id="a_node2"><a xlink:href="inet.queueing.filter.ContentBasedFilter.html" xlink:title="Simple Module ContentBasedFilter" target="_parent">
<polygon fill="#fffcaf" stroke="black" points="110,-19 0,-19 0,0 110,0 110,-19"/>
<text text-anchor="middle" x="55" y="-7" font-family="Helvetica,sans-Serif" font-size="10.00">ContentBasedFilter</text>
</a>
</g>
</g>
<!-- Filter1TutorialStep&#45;&gt;ContentBasedFilter -->
<g id="edge1" class="edge">
<title>Filter1TutorialStep&#45;&gt;ContentBasedFilter</title>
<path fill="none" stroke="black" d="M206.92,-54.98C176.4,-46.05 128.24,-31.94 94.34,-22.02"/>
<polygon fill="black" stroke="black" points="94.89,-18.53 84.31,-19.08 92.92,-25.25 94.89,-18.53"/>
</g>
<!-- PassivePacketSink -->
<g id="node3" class="node">
<title>PassivePacketSink</title>
<g id="a_node3"><a xlink:href="inet.queueing.sink.PassivePacketSink.html" xlink:title="Simple Module PassivePacketSink" target="_parent">
<polygon fill="#fffcaf" stroke="black" points="234,-19 128,-19 128,0 234,0 234,-19"/>
<text text-anchor="middle" x="181" y="-7" font-family="Helvetica,sans-Serif" font-size="10.00">PassivePacketSink</text>
</a>
</g>
</g>
<!-- Filter1TutorialStep&#45;&gt;PassivePacketSink -->
<g id="edge2" class="edge">
<title>Filter1TutorialStep&#45;&gt;PassivePacketSink</title>
<path fill="none" stroke="black" d="M226.92,-54.75C218.91,-47.03 207.04,-35.6 197.38,-26.28"/>
<polygon fill="black" stroke="black" points="199.54,-23.51 189.91,-19.09 194.69,-28.55 199.54,-23.51"/>
</g>
<!-- IdealChannel -->
<g id="node4" class="node">
<title>IdealChannel</title>
<g id="a_node4"><a xlink:href="ned.IdealChannel.html" xlink:title="Channel IdealChannel" target="_parent">
<polygon fill="#d0ffd0" stroke="black" points="332,-19 252,-19 252,0 332,0 332,-19"/>
<text text-anchor="middle" x="292" y="-7" font-family="Helvetica,sans-Serif" font-size="10.00">IdealChannel</text>
</a>
</g>
</g>
<!-- Filter1TutorialStep&#45;&gt;IdealChannel -->
<g id="edge3" class="edge">
<title>Filter1TutorialStep&#45;&gt;IdealChannel</title>
<path fill="none" stroke="black" d="M245,-54.98C253.19,-47.23 265.51,-35.58 275.47,-26.14"/>
<polygon fill="black" stroke="black" points="277.98,-28.59 282.84,-19.17 273.17,-23.5 277.98,-28.59"/>
</g>
<!-- ActivePacketSource -->
<g id="node5" class="node">
<title>ActivePacketSource</title>
<g id="a_node5"><a xlink:href="inet.queueing.source.ActivePacketSource.html" xlink:title="Simple Module ActivePacketSource" target="_parent">
<polygon fill="#fffcaf" stroke="black" points="462,-19 350,-19 350,0 462,0 462,-19"/>
<text text-anchor="middle" x="406" y="-7" font-family="Helvetica,sans-Serif" font-size="10.00">ActivePacketSource</text>
</a>
</g>
</g>
<!-- Filter1TutorialStep&#45;&gt;ActivePacketSource -->
<g id="edge4" class="edge">
<title>Filter1TutorialStep&#45;&gt;ActivePacketSource</title>
<path fill="none" stroke="black" d="M263.31,-54.98C291.85,-46.09 336.83,-32.07 368.64,-22.15"/>
<polygon fill="black" stroke="black" points="369.97,-25.4 378.47,-19.08 367.88,-18.72 369.97,-25.4"/>
</g>
</g>
</svg>
