<?xml version="1.0" encoding="UTF-8" standalone="no"?>
<!DOCTYPE svg PUBLIC "-//W3C//DTD SVG 1.1//EN"
 "http://www.w3.org/Graphics/SVG/1.1/DTD/svg11.dtd">
<!-- Generated by graphviz version 2.43.0 (0)
 -->
<!-- Title: opp Pages: 1 -->
<svg width="1733pt" height="137pt"
 viewBox="0.00 0.00 1732.50 137.00" xmlns="http://www.w3.org/2000/svg" xmlns:xlink="http://www.w3.org/1999/xlink">
<g id="graph0" class="graph" transform="scale(1 1) rotate(0) translate(4 133)">
<title>opp</title>
<polygon fill="transparent" stroke="transparent" points="-4,4 -4,-133 1728.5,-133 1728.5,4 -4,4"/>
<!-- MovingMobilityBase -->
<g id="node1" class="node">
<title>MovingMobilityBase</title>
<g id="a_node1"><a xlink:href="inet.mobility.base.MovingMobilityBase.html" xlink:title="Simple Module MovingMobilityBase" target="_parent">
<polygon fill="#fff700" stroke="black" points="904.5,-74 788.5,-74 788.5,-55 904.5,-55 904.5,-74"/>
<text text-anchor="middle" x="846.5" y="-62" font-family="Helvetica,sans-Serif" font-size="10.00">MovingMobilityBase</text>
</a>
</g>
</g>
<!-- AnsimMobility -->
<g id="node3" class="node">
<title>AnsimMobility</title>
<g id="a_node3"><a xlink:href="inet.mobility.single.AnsimMobility.html" xlink:title="Simple Module AnsimMobility" target="_parent">
<polygon fill="#fffcaf" stroke="black" points="87,-19 0,-19 0,0 87,0 87,-19"/>
<text text-anchor="middle" x="43.5" y="-7" font-family="Helvetica,sans-Serif" font-size="10.00">AnsimMobility</text>
</a>
</g>
</g>
<!-- MovingMobilityBase&#45;&gt;AnsimMobility -->
<g id="edge2" class="edge">
<title>MovingMobilityBase&#45;&gt;AnsimMobility</title>
<path fill="none" stroke="black" d="M788.38,-62.09C662,-58.58 352.85,-47.58 95.5,-19 92.77,-18.7 89.97,-18.35 87.15,-17.97"/>
</g>
<!-- BonnMotionMobility -->
<g id="node4" class="node">
<title>BonnMotionMobility</title>
<g id="a_node4"><a xlink:href="inet.mobility.single.BonnMotionMobility.html" xlink:title="Simple Module BonnMotionMobility" target="_parent">
<polygon fill="#fffcaf" stroke="black" points="220,-19 105,-19 105,0 220,0 220,-19"/>
<text text-anchor="middle" x="162.5" y="-7" font-family="Helvetica,sans-Serif" font-size="10.00">BonnMotionMobility</text>
</a>
</g>
</g>
<!-- MovingMobilityBase&#45;&gt;BonnMotionMobility -->
<g id="edge3" class="edge">
<title>MovingMobilityBase&#45;&gt;BonnMotionMobility</title>
<path fill="none" stroke="black" d="M788.14,-60.35C678.52,-54.19 434.42,-39.37 229.5,-19 226.47,-18.7 223.36,-18.37 220.22,-18.02"/>
</g>
<!-- ChiangMobility -->
<g id="node5" class="node">
<title>ChiangMobility</title>
<g id="a_node5"><a xlink:href="inet.mobility.single.ChiangMobility.html" xlink:title="Simple Module ChiangMobility" target="_parent">
<polygon fill="#fffcaf" stroke="black" points="328.5,-19 238.5,-19 238.5,0 328.5,0 328.5,-19"/>
<text text-anchor="middle" x="283.5" y="-7" font-family="Helvetica,sans-Serif" font-size="10.00">ChiangMobility</text>
</a>
</g>
</g>
<!-- MovingMobilityBase&#45;&gt;ChiangMobility -->
<g id="edge4" class="edge">
<title>MovingMobilityBase&#45;&gt;ChiangMobility</title>
<path fill="none" stroke="black" d="M788.35,-59.73C693.67,-53.29 500.39,-38.92 337.5,-19 334.58,-18.64 331.57,-18.25 328.55,-17.83"/>
</g>
<!-- CircleMobility -->
<g id="node6" class="node">
<title>CircleMobility</title>
<g id="a_node6"><a xlink:href="inet.mobility.single.CircleMobility.html" xlink:title="Simple Module CircleMobility" target="_parent">
<polygon fill="#fffcaf" stroke="black" points="430.5,-19 346.5,-19 346.5,0 430.5,0 430.5,-19"/>
<text text-anchor="middle" x="388.5" y="-7" font-family="Helvetica,sans-Serif" font-size="10.00">CircleMobility</text>
</a>
</g>
</g>
<!-- MovingMobilityBase&#45;&gt;CircleMobility -->
<g id="edge5" class="edge">
<title>MovingMobilityBase&#45;&gt;CircleMobility</title>
<path fill="none" stroke="black" d="M788.41,-58.19C709.33,-50.71 563.43,-36.09 439.5,-19 436.65,-18.61 433.72,-18.18 430.77,-17.73"/>
</g>
<!-- GaussMarkovMobility -->
<g id="node7" class="node">
<title>GaussMarkovMobility</title>
<g id="a_node7"><a xlink:href="inet.mobility.single.GaussMarkovMobility.html" xlink:title="Simple Module GaussMarkovMobility" target="_parent">
<polygon fill="#fffcaf" stroke="black" points="570.5,-19 448.5,-19 448.5,0 570.5,0 570.5,-19"/>
<text text-anchor="middle" x="509.5" y="-7" font-family="Helvetica,sans-Serif" font-size="10.00">GaussMarkovMobility</text>
</a>
</g>
</g>
<!-- MovingMobilityBase&#45;&gt;GaussMarkovMobility -->
<g id="edge6" class="edge">
<title>MovingMobilityBase&#45;&gt;GaussMarkovMobility</title>
<path fill="none" stroke="black" d="M792.36,-54.98C729.56,-45.11 626.65,-28.92 563.79,-19.04"/>
</g>
<!-- LinearMobility -->
<g id="node8" class="node">
<title>LinearMobility</title>
<g id="a_node8"><a xlink:href="inet.mobility.single.LinearMobility.html" xlink:title="Simple Module LinearMobility" target="_parent">
<polygon fill="#fffcaf" stroke="black" points="674.5,-19 588.5,-19 588.5,0 674.5,0 674.5,-19"/>
<text text-anchor="middle" x="631.5" y="-7" font-family="Helvetica,sans-Serif" font-size="10.00">LinearMobility</text>
</a>
</g>
</g>
<!-- MovingMobilityBase&#45;&gt;LinearMobility -->
<g id="edge7" class="edge">
<title>MovingMobilityBase&#45;&gt;LinearMobility</title>
<path fill="none" stroke="black" d="M811.96,-54.98C771.95,-45.12 706.43,-28.97 666.31,-19.08"/>
</g>
<!-- MassMobility -->
<g id="node9" class="node">
<title>MassMobility</title>
<g id="a_node9"><a xlink:href="inet.mobility.single.MassMobility.html" xlink:title="Simple Module MassMobility" target="_parent">
<polygon fill="#fffcaf" stroke="black" points="774.5,-19 692.5,-19 692.5,0 774.5,0 774.5,-19"/>
<text text-anchor="middle" x="733.5" y="-7" font-family="Helvetica,sans-Serif" font-size="10.00">MassMobility</text>
</a>
</g>
</g>
<!-- MovingMobilityBase&#45;&gt;MassMobility -->
<g id="edge8" class="edge">
<title>MovingMobilityBase&#45;&gt;MassMobility</title>
<path fill="none" stroke="black" d="M828.34,-54.98C807.38,-45.15 773.09,-29.07 751.99,-19.17"/>
</g>
<!-- MoBanCoordinator -->
<g id="node10" class="node">
<title>MoBanCoordinator</title>
<g id="a_node10"><a xlink:href="inet.mobility.group.MoBanCoordinator.html" xlink:title="Simple Module MoBanCoordinator" target="_parent">
<polygon fill="#fffcaf" stroke="black" points="900,-19 793,-19 793,0 900,0 900,-19"/>
<text text-anchor="middle" x="846.5" y="-7" font-family="Helvetica,sans-Serif" font-size="10.00">MoBanCoordinator</text>
</a>
</g>
</g>
<!-- MovingMobilityBase&#45;&gt;MoBanCoordinator -->
<g id="edge9" class="edge">
<title>MovingMobilityBase&#45;&gt;MoBanCoordinator</title>
<path fill="none" stroke="black" d="M846.5,-54.75C846.5,-44.87 846.5,-28.9 846.5,-19.09"/>
</g>
<!-- MoBanLocal -->
<g id="node11" class="node">
<title>MoBanLocal</title>
<g id="a_node11"><a xlink:href="inet.mobility.group.MoBanLocal.html" xlink:title="Simple Module MoBanLocal" target="_parent">
<polygon fill="#fffcaf" stroke="black" points="994.5,-19 918.5,-19 918.5,0 994.5,0 994.5,-19"/>
<text text-anchor="middle" x="956.5" y="-7" font-family="Helvetica,sans-Serif" font-size="10.00">MoBanLocal</text>
</a>
</g>
</g>
<!-- MovingMobilityBase&#45;&gt;MoBanLocal -->
<g id="edge10" class="edge">
<title>MovingMobilityBase&#45;&gt;MoBanLocal</title>
<path fill="none" stroke="black" d="M864.17,-54.98C884.58,-45.15 917.96,-29.07 938.51,-19.17"/>
</g>
<!-- Ns2MotionMobility -->
<g id="node12" class="node">
<title>Ns2MotionMobility</title>
<g id="a_node12"><a xlink:href="inet.mobility.single.Ns2MotionMobility.html" xlink:title="Simple Module Ns2MotionMobility" target="_parent">
<polygon fill="#fffcaf" stroke="black" points="1122,-19 1013,-19 1013,0 1122,0 1122,-19"/>
<text text-anchor="middle" x="1067.5" y="-7" font-family="Helvetica,sans-Serif" font-size="10.00">Ns2MotionMobility</text>
</a>
</g>
</g>
<!-- MovingMobilityBase&#45;&gt;Ns2MotionMobility -->
<g id="edge11" class="edge">
<title>MovingMobilityBase&#45;&gt;Ns2MotionMobility</title>
<path fill="none" stroke="black" d="M882.01,-54.98C923.13,-45.12 990.48,-28.97 1031.71,-19.08"/>
</g>
<!-- RandomWaypointMobility -->
<g id="node13" class="node">
<title>RandomWaypointMobility</title>
<g id="a_node13"><a xlink:href="inet.mobility.single.RandomWaypointMobility.html" xlink:title="Simple Module RandomWaypointMobility" target="_parent">
<polygon fill="#fffcaf" stroke="black" points="1283,-19 1140,-19 1140,0 1283,0 1283,-19"/>
<text text-anchor="middle" x="1211.5" y="-7" font-family="Helvetica,sans-Serif" font-size="10.00">RandomWaypointMobility</text>
</a>
</g>
</g>
<!-- MovingMobilityBase&#45;&gt;RandomWaypointMobility -->
<g id="edge12" class="edge">
<title>MovingMobilityBase&#45;&gt;RandomWaypointMobility</title>
<path fill="none" stroke="black" d="M904.74,-55.04C972.77,-45.17 1084.67,-28.92 1152.86,-19.01"/>
</g>
<!-- RectangleMobility -->
<g id="node14" class="node">
<title>RectangleMobility</title>
<g id="a_node14"><a xlink:href="inet.mobility.single.RectangleMobility.html" xlink:title="Simple Module RectangleMobility" target="_parent">
<polygon fill="#fffcaf" stroke="black" points="1406,-19 1301,-19 1301,0 1406,0 1406,-19"/>
<text text-anchor="middle" x="1353.5" y="-7" font-family="Helvetica,sans-Serif" font-size="10.00">RectangleMobility</text>
</a>
</g>
</g>
<!-- MovingMobilityBase&#45;&gt;RectangleMobility -->
<g id="edge13" class="edge">
<title>MovingMobilityBase&#45;&gt;RectangleMobility</title>
<path fill="none" stroke="black" d="M904.67,-58.43C989.88,-50.83 1153.62,-35.6 1292.5,-19 1295.26,-18.67 1298.09,-18.32 1300.94,-17.96"/>
</g>
<!-- TractorMobility -->
<g id="node15" class="node">
<title>TractorMobility</title>
<g id="a_node15"><a xlink:href="inet.mobility.single.TractorMobility.html" xlink:title="Simple Module TractorMobility" target="_parent">
<polygon fill="#fffcaf" stroke="black" points="1513,-19 1424,-19 1424,0 1513,0 1513,-19"/>
<text text-anchor="middle" x="1468.5" y="-7" font-family="Helvetica,sans-Serif" font-size="10.00">TractorMobility</text>
</a>
</g>
</g>
<!-- MovingMobilityBase&#45;&gt;TractorMobility -->
<g id="edge14" class="edge">
<title>MovingMobilityBase&#45;&gt;TractorMobility</title>
<path fill="none" stroke="black" d="M904.81,-60.5C1008.02,-54.85 1229.54,-41.15 1415.5,-19 1418.18,-18.68 1420.94,-18.32 1423.72,-17.94"/>
</g>
<!-- TurtleMobility -->
<g id="node16" class="node">
<title>TurtleMobility</title>
<g id="a_node16"><a xlink:href="inet.mobility.single.TurtleMobility.html" xlink:title="Simple Module TurtleMobility" target="_parent">
<polygon fill="#fffcaf" stroke="black" points="1614,-19 1531,-19 1531,0 1614,0 1614,-19"/>
<text text-anchor="middle" x="1572.5" y="-7" font-family="Helvetica,sans-Serif" font-size="10.00">TurtleMobility</text>
</a>
</g>
</g>
<!-- MovingMobilityBase&#45;&gt;TurtleMobility -->
<g id="edge15" class="edge">
<title>MovingMobilityBase&#45;&gt;TurtleMobility</title>
<path fill="none" stroke="black" d="M904.56,-61.69C1021.72,-57.59 1294.72,-45.79 1522.5,-19 1525.21,-18.68 1528,-18.31 1530.8,-17.92"/>
</g>
<!-- VehicleMobility -->
<g id="node17" class="node">
<title>VehicleMobility</title>
<g id="a_node17"><a xlink:href="inet.mobility.single.VehicleMobility.html" xlink:title="Simple Module VehicleMobility" target="_parent">
<polygon fill="#fffcaf" stroke="black" points="1724.5,-19 1632.5,-19 1632.5,0 1724.5,0 1724.5,-19"/>
<text text-anchor="middle" x="1678.5" y="-7" font-family="Helvetica,sans-Serif" font-size="10.00">VehicleMobility</text>
</a>
</g>
</g>
<!-- MovingMobilityBase&#45;&gt;VehicleMobility -->
<g id="edge16" class="edge">
<title>MovingMobilityBase&#45;&gt;VehicleMobility</title>
<path fill="none" stroke="black" d="M904.65,-62.08C1034.11,-58.5 1355.77,-47.29 1623.5,-19 1626.38,-18.7 1629.34,-18.35 1632.33,-17.97"/>
</g>
<!-- MobilityBase -->
<g id="node2" class="node">
<title>MobilityBase</title>
<g id="a_node2"><a xlink:href="inet.mobility.base.MobilityBase.html" xlink:title="Simple Module MobilityBase" target="_parent">
<polygon fill="#fffcaf" stroke="black" points="886.5,-129 806.5,-129 806.5,-110 886.5,-110 886.5,-129"/>
<text text-anchor="middle" x="846.5" y="-117" font-family="Helvetica,sans-Serif" font-size="10.00">MobilityBase</text>
</a>
</g>
</g>
<!-- MobilityBase&#45;&gt;MovingMobilityBase -->
<g id="edge1" class="edge">
<title>MobilityBase&#45;&gt;MovingMobilityBase</title>
<path fill="none" stroke="black" d="M846.5,-109.75C846.5,-99.87 846.5,-83.9 846.5,-74.09"/>
</g>
</g>
</svg>
