<?xml version="1.0" encoding="UTF-8" standalone="no"?>
<!DOCTYPE svg PUBLIC "-//W3C//DTD SVG 1.1//EN"
 "http://www.w3.org/Graphics/SVG/1.1/DTD/svg11.dtd">
<!-- Generated by graphviz version 2.43.0 (0)
 -->
<!-- Title: opp Pages: 1 -->
<svg width="917pt" height="137pt"
 viewBox="0.00 0.00 916.50 137.00" xmlns="http://www.w3.org/2000/svg" xmlns:xlink="http://www.w3.org/1999/xlink">
<g id="graph0" class="graph" transform="scale(1 1) rotate(0) translate(4 133)">
<title>opp</title>
<polygon fill="transparent" stroke="transparent" points="-4,4 -4,-133 912.5,-133 912.5,4 -4,4"/>
<!-- NarrowbandReceiverBase -->
<g id="node1" class="node">
<title>NarrowbandReceiverBase</title>
<g id="a_node1"><a xlink:href="inet.physicallayer.wireless.common.base.packetlevel.NarrowbandReceiverBase.html" xlink:title="Compound Module NarrowbandReceiverBase" target="_parent">
<polygon fill="#fff700" stroke="black" points="433,-74 290,-74 290,-55 433,-55 433,-74"/>
<text text-anchor="middle" x="361.5" y="-62" font-family="Helvetica,sans-Serif" font-size="10.00">NarrowbandReceiverBase</text>
</a>
</g>
</g>
<!-- ApskDimensionalReceiver -->
<g id="node4" class="node">
<title>ApskDimensionalReceiver</title>
<g id="a_node4"><a xlink:href="inet.physicallayer.wireless.apsk.packetlevel.ApskDimensionalReceiver.html" xlink:title="Compound Module ApskDimensionalReceiver" target="_parent">
<polygon fill="#fffcaf" stroke="black" points="145,-19 0,-19 0,0 145,0 145,-19"/>
<text text-anchor="middle" x="72.5" y="-7" font-family="Helvetica,sans-Serif" font-size="10.00">ApskDimensionalReceiver</text>
</a>
</g>
</g>
<!-- NarrowbandReceiverBase&#45;&gt;ApskDimensionalReceiver -->
<g id="edge3" class="edge">
<title>NarrowbandReceiverBase&#45;&gt;ApskDimensionalReceiver</title>
<path fill="none" stroke="black" d="M315.07,-54.98C261.3,-45.12 173.22,-28.97 119.3,-19.08"/>
</g>
<!-- ApskScalarReceiver -->
<g id="node5" class="node">
<title>ApskScalarReceiver</title>
<g id="a_node5"><a xlink:href="inet.physicallayer.wireless.apsk.packetlevel.ApskScalarReceiver.html" xlink:title="Compound Module ApskScalarReceiver" target="_parent">
<polygon fill="#fffcaf" stroke="black" points="276,-19 163,-19 163,0 276,0 276,-19"/>
<text text-anchor="middle" x="219.5" y="-7" font-family="Helvetica,sans-Serif" font-size="10.00">ApskScalarReceiver</text>
</a>
</g>
</g>
<!-- NarrowbandReceiverBase&#45;&gt;ApskScalarReceiver -->
<g id="edge4" class="edge">
<title>NarrowbandReceiverBase&#45;&gt;ApskScalarReceiver</title>
<path fill="none" stroke="black" d="M338.69,-54.98C312.34,-45.15 269.25,-29.07 242.73,-19.17"/>
</g>
<!-- Ieee80211ReceiverBase -->
<g id="node6" class="node">
<title>Ieee80211ReceiverBase</title>
<g id="a_node6"><a xlink:href="inet.physicallayer.wireless.ieee80211.packetlevel.Ieee80211ReceiverBase.html" xlink:title="Compound Module Ieee80211ReceiverBase" target="_parent">
<polygon fill="#fffcaf" stroke="black" points="428.5,-19 294.5,-19 294.5,0 428.5,0 428.5,-19"/>
<text text-anchor="middle" x="361.5" y="-7" font-family="Helvetica,sans-Serif" font-size="10.00">Ieee80211ReceiverBase</text>
</a>
</g>
</g>
<!-- NarrowbandReceiverBase&#45;&gt;Ieee80211ReceiverBase -->
<g id="edge5" class="edge">
<title>NarrowbandReceiverBase&#45;&gt;Ieee80211ReceiverBase</title>
<path fill="none" stroke="black" d="M361.5,-54.75C361.5,-44.87 361.5,-28.9 361.5,-19.09"/>
</g>
<!-- Ieee802154NarrowbandDimensionalReceiver -->
<g id="node7" class="node">
<title>Ieee802154NarrowbandDimensionalReceiver</title>
<g id="a_node7"><a xlink:href="inet.physicallayer.wireless.ieee802154.packetlevel.Ieee802154NarrowbandDimensionalReceiver.html" xlink:title="Compound Module Ieee802154NarrowbandDimensionalReceiver" target="_parent">
<polygon fill="#fffcaf" stroke="black" points="684,-19 447,-19 447,0 684,0 684,-19"/>
<text text-anchor="middle" x="565.5" y="-7" font-family="Helvetica,sans-Serif" font-size="10.00">Ieee802154NarrowbandDimensionalReceiver</text>
</a>
</g>
</g>
<!-- NarrowbandReceiverBase&#45;&gt;Ieee802154NarrowbandDimensionalReceiver -->
<g id="edge6" class="edge">
<title>NarrowbandReceiverBase&#45;&gt;Ieee802154NarrowbandDimensionalReceiver</title>
<path fill="none" stroke="black" d="M394.28,-54.98C432.23,-45.12 494.4,-28.97 532.47,-19.08"/>
</g>
<!-- Ieee802154NarrowbandScalarReceiver -->
<g id="node8" class="node">
<title>Ieee802154NarrowbandScalarReceiver</title>
<g id="a_node8"><a xlink:href="inet.physicallayer.wireless.ieee802154.packetlevel.Ieee802154NarrowbandScalarReceiver.html" xlink:title="Compound Module Ieee802154NarrowbandScalarReceiver" target="_parent">
<polygon fill="#fffcaf" stroke="black" points="908.5,-19 702.5,-19 702.5,0 908.5,0 908.5,-19"/>
<text text-anchor="middle" x="805.5" y="-7" font-family="Helvetica,sans-Serif" font-size="10.00">Ieee802154NarrowbandScalarReceiver</text>
</a>
</g>
</g>
<!-- NarrowbandReceiverBase&#45;&gt;Ieee802154NarrowbandScalarReceiver -->
<g id="edge7" class="edge">
<title>NarrowbandReceiverBase&#45;&gt;Ieee802154NarrowbandScalarReceiver</title>
<path fill="none" stroke="black" d="M432.84,-54.98C515.57,-45.11 651.16,-28.92 733.97,-19.04"/>
</g>
<!-- SnirReceiverBase -->
<g id="node2" class="node">
<title>SnirReceiverBase</title>
<g id="a_node2"><a xlink:href="inet.physicallayer.wireless.common.base.packetlevel.SnirReceiverBase.html" xlink:title="Compound Module SnirReceiverBase" target="_parent">
<polygon fill="#fffcaf" stroke="black" points="362.5,-129 260.5,-129 260.5,-110 362.5,-110 362.5,-129"/>
<text text-anchor="middle" x="311.5" y="-117" font-family="Helvetica,sans-Serif" font-size="10.00">SnirReceiverBase</text>
</a>
</g>
</g>
<!-- SnirReceiverBase&#45;&gt;NarrowbandReceiverBase -->
<g id="edge1" class="edge">
<title>SnirReceiverBase&#45;&gt;NarrowbandReceiverBase</title>
<path fill="none" stroke="black" d="M319.76,-109.75C329.08,-99.87 344.14,-83.9 353.4,-74.09"/>
</g>
<!-- IReceiver -->
<g id="node3" class="node">
<title>IReceiver</title>
<g id="a_node3"><a xlink:href="inet.physicallayer.wireless.common.contract.packetlevel.IReceiver.html" xlink:title="Module Interface IReceiver" target="_parent">
<polygon fill="#fffcaf" stroke="black" stroke-dasharray="5,2" points="442.5,-129 380.5,-129 380.5,-110 442.5,-110 442.5,-129"/>
<text text-anchor="middle" x="411.5" y="-117" font-family="Helvetica,sans-Serif" font-size="10.00">IReceiver</text>
</a>
</g>
</g>
<!-- IReceiver&#45;&gt;NarrowbandReceiverBase -->
<g id="edge2" class="edge">
<title>IReceiver&#45;&gt;NarrowbandReceiverBase</title>
<path fill="none" stroke="black" stroke-dasharray="5,2" d="M403.24,-109.75C393.92,-99.87 378.86,-83.9 369.6,-74.09"/>
</g>
</g>
</svg>
