<?xml version="1.0" encoding="UTF-8" standalone="no"?>
<!DOCTYPE svg PUBLIC "-//W3C//DTD SVG 1.1//EN"
 "http://www.w3.org/Graphics/SVG/1.1/DTD/svg11.dtd">
<!-- Generated by graphviz version 2.43.0 (0)
 -->
<!-- Title: opp Pages: 1 -->
<svg width="507pt" height="82pt"
 viewBox="0.00 0.00 507.00 82.00" xmlns="http://www.w3.org/2000/svg" xmlns:xlink="http://www.w3.org/1999/xlink">
<g id="graph0" class="graph" transform="scale(1 1) rotate(0) translate(4 78)">
<title>opp</title>
<polygon fill="transparent" stroke="transparent" points="-4,4 -4,-78 503,-78 503,4 -4,4"/>
<!-- Network -->
<g id="node1" class="node">
<title>Network</title>
<g id="a_node1"><a xlink:href="inet.examples.inet.igmp.Network.html" xlink:title="Network Network" target="_parent">
<polygon fill="#9090ff" stroke="black" points="308.5,-74 250.5,-74 250.5,-55 308.5,-55 308.5,-74"/>
<text text-anchor="middle" x="279.5" y="-62" font-family="Helvetica,sans-Serif" font-size="10.00">Network</text>
</a>
</g>
</g>
<!-- StandardHost -->
<g id="node2" class="node">
<title>StandardHost</title>
<g id="a_node2"><a xlink:href="inet.node.inet.StandardHost.html" xlink:title="Compound Module StandardHost" target="_parent">
<polygon fill="#fffcaf" stroke="black" points="83,-19 0,-19 0,0 83,0 83,-19"/>
<text text-anchor="middle" x="41.5" y="-7" font-family="Helvetica,sans-Serif" font-size="10.00">StandardHost</text>
</a>
</g>
</g>
<!-- Network&#45;&gt;StandardHost -->
<g id="edge1" class="edge">
<title>Network&#45;&gt;StandardHost</title>
<path fill="none" stroke="black" d="M250.32,-57C210.34,-48.1 138.02,-31.99 89.87,-21.27"/>
<polygon fill="black" stroke="black" points="90.51,-17.83 79.99,-19.07 88.99,-24.66 90.51,-17.83"/>
</g>
<!-- EthernetSwitch -->
<g id="node3" class="node">
<title>EthernetSwitch</title>
<g id="a_node3"><a xlink:href="inet.node.ethernet.EthernetSwitch.html" xlink:title="Compound Module EthernetSwitch" target="_parent">
<polygon fill="#fffcaf" stroke="black" points="191.5,-19 101.5,-19 101.5,0 191.5,0 191.5,-19"/>
<text text-anchor="middle" x="146.5" y="-7" font-family="Helvetica,sans-Serif" font-size="10.00">EthernetSwitch</text>
</a>
</g>
</g>
<!-- Network&#45;&gt;EthernetSwitch -->
<g id="edge2" class="edge">
<title>Network&#45;&gt;EthernetSwitch</title>
<path fill="none" stroke="black" d="M258.13,-54.98C236.35,-46.3 202.34,-32.75 177.58,-22.88"/>
<polygon fill="black" stroke="black" points="178.84,-19.62 168.26,-19.17 176.25,-26.12 178.84,-19.62"/>
</g>
<!-- Ipv4NetworkConfigurator -->
<g id="node4" class="node">
<title>Ipv4NetworkConfigurator</title>
<g id="a_node4"><a xlink:href="inet.networklayer.configurator.ipv4.Ipv4NetworkConfigurator.html" xlink:title="Simple Module Ipv4NetworkConfigurator" target="_parent">
<polygon fill="#fffcaf" stroke="black" points="349,-19 210,-19 210,0 349,0 349,-19"/>
<text text-anchor="middle" x="279.5" y="-7" font-family="Helvetica,sans-Serif" font-size="10.00">Ipv4NetworkConfigurator</text>
</a>
</g>
</g>
<!-- Network&#45;&gt;Ipv4NetworkConfigurator -->
<g id="edge3" class="edge">
<title>Network&#45;&gt;Ipv4NetworkConfigurator</title>
<path fill="none" stroke="black" d="M279.5,-54.75C279.5,-47.8 279.5,-37.85 279.5,-29.13"/>
<polygon fill="black" stroke="black" points="283,-29.09 279.5,-19.09 276,-29.09 283,-29.09"/>
</g>
<!-- Router -->
<g id="node5" class="node">
<title>Router</title>
<g id="a_node5"><a xlink:href="inet.node.inet.Router.html" xlink:title="Compound Module Router" target="_parent">
<polygon fill="#fffcaf" stroke="black" points="421.5,-19 367.5,-19 367.5,0 421.5,0 421.5,-19"/>
<text text-anchor="middle" x="394.5" y="-7" font-family="Helvetica,sans-Serif" font-size="10.00">Router</text>
</a>
</g>
</g>
<!-- Network&#45;&gt;Router -->
<g id="edge4" class="edge">
<title>Network&#45;&gt;Router</title>
<path fill="none" stroke="black" d="M297.98,-54.98C316.48,-46.46 345.18,-33.23 366.48,-23.41"/>
<polygon fill="black" stroke="black" points="368.07,-26.53 375.69,-19.17 365.14,-20.18 368.07,-26.53"/>
</g>
<!-- Eth100M -->
<g id="node6" class="node">
<title>Eth100M</title>
<g id="a_node6"><a xlink:href="inet.node.ethernet.Eth100M.html" xlink:title="Channel Eth100M" target="_parent">
<polygon fill="#d0ffd0" stroke="black" points="499,-19 440,-19 440,0 499,0 499,-19"/>
<text text-anchor="middle" x="469.5" y="-7" font-family="Helvetica,sans-Serif" font-size="10.00">Eth100M</text>
</a>
</g>
</g>
<!-- Network&#45;&gt;Eth100M -->
<g id="edge5" class="edge">
<title>Network&#45;&gt;Eth100M</title>
<path fill="none" stroke="black" d="M308.77,-55.33C341.31,-46.26 394.03,-31.55 430.16,-21.47"/>
<polygon fill="black" stroke="black" points="431.19,-24.82 439.88,-18.76 429.31,-18.08 431.19,-24.82"/>
</g>
</g>
</svg>
