<?xml version="1.0" encoding="UTF-8" standalone="no"?>
<!DOCTYPE svg PUBLIC "-//W3C//DTD SVG 1.1//EN"
 "http://www.w3.org/Graphics/SVG/1.1/DTD/svg11.dtd">
<!-- Generated by graphviz version 2.43.0 (0)
 -->
<!-- Title: opp Pages: 1 -->
<svg width="508pt" height="137pt"
 viewBox="0.00 0.00 508.00 137.00" xmlns="http://www.w3.org/2000/svg" xmlns:xlink="http://www.w3.org/1999/xlink">
<g id="graph0" class="graph" transform="scale(1 1) rotate(0) translate(4 133)">
<title>opp</title>
<polygon fill="transparent" stroke="transparent" points="-4,4 -4,-133 504,-133 504,4 -4,4"/>
<!-- Ieee80211ReceiverBase -->
<g id="node1" class="node">
<title>Ieee80211ReceiverBase</title>
<g id="a_node1"><a xlink:href="inet.physicallayer.wireless.ieee80211.packetlevel.Ieee80211ReceiverBase.html" xlink:title="Compound Module Ieee80211ReceiverBase" target="_parent">
<polygon fill="#fff700" stroke="black" points="327,-74 193,-74 193,-55 327,-55 327,-74"/>
<text text-anchor="middle" x="260" y="-62" font-family="Helvetica,sans-Serif" font-size="10.00">Ieee80211ReceiverBase</text>
</a>
</g>
</g>
<!-- Ieee80211DimensionalReceiver -->
<g id="node3" class="node">
<title>Ieee80211DimensionalReceiver</title>
<g id="a_node3"><a xlink:href="inet.physicallayer.wireless.ieee80211.packetlevel.Ieee80211DimensionalReceiver.html" xlink:title="Compound Module Ieee80211DimensionalReceiver" target="_parent">
<polygon fill="#fffcaf" stroke="black" points="172,-19 0,-19 0,0 172,0 172,-19"/>
<text text-anchor="middle" x="86" y="-7" font-family="Helvetica,sans-Serif" font-size="10.00">Ieee80211DimensionalReceiver</text>
</a>
</g>
</g>
<!-- Ieee80211ReceiverBase&#45;&gt;Ieee80211DimensionalReceiver -->
<g id="edge2" class="edge">
<title>Ieee80211ReceiverBase&#45;&gt;Ieee80211DimensionalReceiver</title>
<path fill="none" stroke="black" d="M232.04,-54.98C199.67,-45.12 146.64,-28.97 114.18,-19.08"/>
</g>
<!-- Ieee80211ScalarReceiver -->
<g id="node4" class="node">
<title>Ieee80211ScalarReceiver</title>
<g id="a_node4"><a xlink:href="inet.physicallayer.wireless.ieee80211.packetlevel.Ieee80211ScalarReceiver.html" xlink:title="Compound Module Ieee80211ScalarReceiver" target="_parent">
<polygon fill="#fffcaf" stroke="black" points="330,-19 190,-19 190,0 330,0 330,-19"/>
<text text-anchor="middle" x="260" y="-7" font-family="Helvetica,sans-Serif" font-size="10.00">Ieee80211ScalarReceiver</text>
</a>
</g>
</g>
<!-- Ieee80211ReceiverBase&#45;&gt;Ieee80211ScalarReceiver -->
<g id="edge3" class="edge">
<title>Ieee80211ReceiverBase&#45;&gt;Ieee80211ScalarReceiver</title>
<path fill="none" stroke="black" d="M260,-54.75C260,-44.87 260,-28.9 260,-19.09"/>
</g>
<!-- Ieee80211UnitDiskReceiver -->
<g id="node5" class="node">
<title>Ieee80211UnitDiskReceiver</title>
<g id="a_node5"><a xlink:href="inet.physicallayer.wireless.ieee80211.packetlevel.Ieee80211UnitDiskReceiver.html" xlink:title="Compound Module Ieee80211UnitDiskReceiver" target="_parent">
<polygon fill="#fffcaf" stroke="black" points="500,-19 348,-19 348,0 500,0 500,-19"/>
<text text-anchor="middle" x="424" y="-7" font-family="Helvetica,sans-Serif" font-size="10.00">Ieee80211UnitDiskReceiver</text>
</a>
</g>
</g>
<!-- Ieee80211ReceiverBase&#45;&gt;Ieee80211UnitDiskReceiver -->
<g id="edge4" class="edge">
<title>Ieee80211ReceiverBase&#45;&gt;Ieee80211UnitDiskReceiver</title>
<path fill="none" stroke="black" d="M286.35,-54.98C316.86,-45.12 366.84,-28.97 397.44,-19.08"/>
</g>
<!-- NarrowbandReceiverBase -->
<g id="node2" class="node">
<title>NarrowbandReceiverBase</title>
<g id="a_node2"><a xlink:href="inet.physicallayer.wireless.common.base.packetlevel.NarrowbandReceiverBase.html" xlink:title="Compound Module NarrowbandReceiverBase" target="_parent">
<polygon fill="#fffcaf" stroke="black" points="331.5,-129 188.5,-129 188.5,-110 331.5,-110 331.5,-129"/>
<text text-anchor="middle" x="260" y="-117" font-family="Helvetica,sans-Serif" font-size="10.00">NarrowbandReceiverBase</text>
</a>
</g>
</g>
<!-- NarrowbandReceiverBase&#45;&gt;Ieee80211ReceiverBase -->
<g id="edge1" class="edge">
<title>NarrowbandReceiverBase&#45;&gt;Ieee80211ReceiverBase</title>
<path fill="none" stroke="black" d="M260,-109.75C260,-99.87 260,-83.9 260,-74.09"/>
</g>
</g>
</svg>
