<?xml version="1.0" encoding="UTF-8" standalone="no"?>
<!DOCTYPE svg PUBLIC "-//W3C//DTD SVG 1.1//EN"
 "http://www.w3.org/Graphics/SVG/1.1/DTD/svg11.dtd">
<!-- Generated by graphviz version 2.43.0 (0)
 -->
<!-- Title: opp Pages: 1 -->
<svg width="175pt" height="137pt"
 viewBox="0.00 0.00 175.00 137.00" xmlns="http://www.w3.org/2000/svg" xmlns:xlink="http://www.w3.org/1999/xlink">
<g id="graph0" class="graph" transform="scale(1 1) rotate(0) translate(4 133)">
<title>opp</title>
<polygon fill="transparent" stroke="transparent" points="-4,4 -4,-133 171,-133 171,4 -4,4"/>
<!-- NetworkNodeVisualizerBase -->
<g id="node1" class="node">
<title>NetworkNodeVisualizerBase</title>
<g id="a_node1"><a xlink:href="inet.visualizer.base.NetworkNodeVisualizerBase.html" xlink:title="Simple Module NetworkNodeVisualizerBase" target="_parent">
<polygon fill="#fff700" stroke="black" points="161,-74 6,-74 6,-55 161,-55 161,-74"/>
<text text-anchor="middle" x="83.5" y="-62" font-family="Helvetica,sans-Serif" font-size="10.00">NetworkNodeVisualizerBase</text>
</a>
</g>
</g>
<!-- NetworkNodeCanvasVisualizer -->
<g id="node3" class="node">
<title>NetworkNodeCanvasVisualizer</title>
<g id="a_node3"><a xlink:href="inet.visualizer.canvas.scene.NetworkNodeCanvasVisualizer.html" xlink:title="Simple Module NetworkNodeCanvasVisualizer" target="_parent">
<polygon fill="#fffcaf" stroke="black" points="167,-19 0,-19 0,0 167,0 167,-19"/>
<text text-anchor="middle" x="83.5" y="-7" font-family="Helvetica,sans-Serif" font-size="10.00">NetworkNodeCanvasVisualizer</text>
</a>
</g>
</g>
<!-- NetworkNodeVisualizerBase&#45;&gt;NetworkNodeCanvasVisualizer -->
<g id="edge2" class="edge">
<title>NetworkNodeVisualizerBase&#45;&gt;NetworkNodeCanvasVisualizer</title>
<path fill="none" stroke="black" d="M83.5,-54.75C83.5,-44.87 83.5,-28.9 83.5,-19.09"/>
</g>
<!-- VisualizerBase -->
<g id="node2" class="node">
<title>VisualizerBase</title>
<g id="a_node2"><a xlink:href="inet.visualizer.base.VisualizerBase.html" xlink:title="Simple Module VisualizerBase" target="_parent">
<polygon fill="#fffcaf" stroke="black" points="128,-129 39,-129 39,-110 128,-110 128,-129"/>
<text text-anchor="middle" x="83.5" y="-117" font-family="Helvetica,sans-Serif" font-size="10.00">VisualizerBase</text>
</a>
</g>
</g>
<!-- VisualizerBase&#45;&gt;NetworkNodeVisualizerBase -->
<g id="edge1" class="edge">
<title>VisualizerBase&#45;&gt;NetworkNodeVisualizerBase</title>
<path fill="none" stroke="black" d="M83.5,-109.75C83.5,-99.87 83.5,-83.9 83.5,-74.09"/>
</g>
</g>
</svg>
