<?xml version="1.0" encoding="UTF-8" standalone="no"?>
<!DOCTYPE svg PUBLIC "-//W3C//DTD SVG 1.1//EN"
 "http://www.w3.org/Graphics/SVG/1.1/DTD/svg11.dtd">
<!-- Generated by graphviz version 2.43.0 (0)
 -->
<!-- Title: opp Pages: 1 -->
<svg width="1021pt" height="82pt"
 viewBox="0.00 0.00 1020.50 82.00" xmlns="http://www.w3.org/2000/svg" xmlns:xlink="http://www.w3.org/1999/xlink">
<g id="graph0" class="graph" transform="scale(1 1) rotate(0) translate(4 78)">
<title>opp</title>
<polygon fill="transparent" stroke="transparent" points="-4,4 -4,-78 1016.5,-78 1016.5,4 -4,4"/>
<!-- TrafficConditioner -->
<g id="node1" class="node">
<title>TrafficConditioner</title>
<g id="a_node1"><a xlink:href="inet.examples.diffserv.simple_.TrafficConditioner.html" xlink:title="Compound Module TrafficConditioner" target="_parent">
<polygon fill="#fff700" stroke="black" points="557,-74 455,-74 455,-55 557,-55 557,-74"/>
<text text-anchor="middle" x="506" y="-62" font-family="Helvetica,sans-Serif" font-size="10.00">TrafficConditioner</text>
</a>
</g>
</g>
<!-- TokenBucketMeter -->
<g id="node2" class="node">
<title>TokenBucketMeter</title>
<g id="a_node2"><a xlink:href="inet.networklayer.diffserv.TokenBucketMeter.html" xlink:title="Simple Module TokenBucketMeter" target="_parent">
<polygon fill="#fffcaf" stroke="black" points="106,-19 0,-19 0,0 106,0 106,-19"/>
<text text-anchor="middle" x="53" y="-7" font-family="Helvetica,sans-Serif" font-size="10.00">TokenBucketMeter</text>
</a>
</g>
</g>
<!-- TrafficConditioner&#45;&gt;TokenBucketMeter -->
<g id="edge1" class="edge">
<title>TrafficConditioner&#45;&gt;TokenBucketMeter</title>
<path fill="none" stroke="black" d="M454.72,-58.04C381.85,-50.2 243.91,-35.06 116.06,-19.11"/>
<polygon fill="black" stroke="black" points="116.45,-15.63 106.09,-17.86 115.58,-22.57 116.45,-15.63"/>
</g>
<!-- BehaviorAggregateClassifier -->
<g id="node3" class="node">
<title>BehaviorAggregateClassifier</title>
<g id="a_node3"><a xlink:href="inet.networklayer.diffserv.BehaviorAggregateClassifier.html" xlink:title="Simple Module BehaviorAggregateClassifier" target="_parent">
<polygon fill="#fffcaf" stroke="black" points="279.5,-19 124.5,-19 124.5,0 279.5,0 279.5,-19"/>
<text text-anchor="middle" x="202" y="-7" font-family="Helvetica,sans-Serif" font-size="10.00">BehaviorAggregateClassifier</text>
</a>
</g>
</g>
<!-- TrafficConditioner&#45;&gt;BehaviorAggregateClassifier -->
<g id="edge2" class="edge">
<title>TrafficConditioner&#45;&gt;BehaviorAggregateClassifier</title>
<path fill="none" stroke="black" d="M457.16,-54.98C403.72,-45.67 318.08,-30.74 260.94,-20.78"/>
<polygon fill="black" stroke="black" points="261.43,-17.31 250.97,-19.04 260.22,-24.2 261.43,-17.31"/>
</g>
<!-- DscpMarker -->
<g id="node4" class="node">
<title>DscpMarker</title>
<g id="a_node4"><a xlink:href="inet.networklayer.diffserv.DscpMarker.html" xlink:title="Simple Module DscpMarker" target="_parent">
<polygon fill="#fffcaf" stroke="black" points="372,-19 298,-19 298,0 372,0 372,-19"/>
<text text-anchor="middle" x="335" y="-7" font-family="Helvetica,sans-Serif" font-size="10.00">DscpMarker</text>
</a>
</g>
</g>
<!-- TrafficConditioner&#45;&gt;DscpMarker -->
<g id="edge3" class="edge">
<title>TrafficConditioner&#45;&gt;DscpMarker</title>
<path fill="none" stroke="black" d="M478.53,-54.98C449.82,-46.09 404.58,-32.07 372.58,-22.15"/>
<polygon fill="black" stroke="black" points="373.28,-18.7 362.69,-19.08 371.2,-25.39 373.28,-18.7"/>
</g>
<!-- PassivePacketSink -->
<g id="node5" class="node">
<title>PassivePacketSink</title>
<g id="a_node5"><a xlink:href="inet.queueing.sink.PassivePacketSink.html" xlink:title="Simple Module PassivePacketSink" target="_parent">
<polygon fill="#fffcaf" stroke="black" points="496,-19 390,-19 390,0 496,0 496,-19"/>
<text text-anchor="middle" x="443" y="-7" font-family="Helvetica,sans-Serif" font-size="10.00">PassivePacketSink</text>
</a>
</g>
</g>
<!-- TrafficConditioner&#45;&gt;PassivePacketSink -->
<g id="edge4" class="edge">
<title>TrafficConditioner&#45;&gt;PassivePacketSink</title>
<path fill="none" stroke="black" d="M495.88,-54.98C486.56,-47.15 472.53,-35.34 461.26,-25.86"/>
<polygon fill="black" stroke="black" points="463.21,-22.93 453.31,-19.17 458.71,-28.29 463.21,-22.93"/>
</g>
<!-- MultiFieldClassifier -->
<g id="node6" class="node">
<title>MultiFieldClassifier</title>
<g id="a_node6"><a xlink:href="inet.networklayer.diffserv.MultiFieldClassifier.html" xlink:title="Simple Module MultiFieldClassifier" target="_parent">
<polygon fill="#fffcaf" stroke="black" points="624,-19 514,-19 514,0 624,0 624,-19"/>
<text text-anchor="middle" x="569" y="-7" font-family="Helvetica,sans-Serif" font-size="10.00">MultiFieldClassifier</text>
</a>
</g>
</g>
<!-- TrafficConditioner&#45;&gt;MultiFieldClassifier -->
<g id="edge5" class="edge">
<title>TrafficConditioner&#45;&gt;MultiFieldClassifier</title>
<path fill="none" stroke="black" d="M516.12,-54.98C525.44,-47.15 539.47,-35.34 550.74,-25.86"/>
<polygon fill="black" stroke="black" points="553.29,-28.29 558.69,-19.17 548.79,-22.93 553.29,-28.29"/>
</g>
<!-- IdealChannel -->
<g id="node7" class="node">
<title>IdealChannel</title>
<g id="a_node7"><a xlink:href="ned.IdealChannel.html" xlink:title="Channel IdealChannel" target="_parent">
<polygon fill="#d0ffd0" stroke="black" points="722,-19 642,-19 642,0 722,0 722,-19"/>
<text text-anchor="middle" x="682" y="-7" font-family="Helvetica,sans-Serif" font-size="10.00">IdealChannel</text>
</a>
</g>
</g>
<!-- TrafficConditioner&#45;&gt;IdealChannel -->
<g id="edge6" class="edge">
<title>TrafficConditioner&#45;&gt;IdealChannel</title>
<path fill="none" stroke="black" d="M534.28,-54.98C563.95,-46.05 610.79,-31.94 643.75,-22.02"/>
<polygon fill="black" stroke="black" points="644.93,-25.32 653.5,-19.08 642.92,-18.61 644.93,-25.32"/>
</g>
<!-- SingleRateThreeColorMeter -->
<g id="node8" class="node">
<title>SingleRateThreeColorMeter</title>
<g id="a_node8"><a xlink:href="inet.networklayer.diffserv.SingleRateThreeColorMeter.html" xlink:title="Simple Module SingleRateThreeColorMeter" target="_parent">
<polygon fill="#fffcaf" stroke="black" points="891.5,-19 740.5,-19 740.5,0 891.5,0 891.5,-19"/>
<text text-anchor="middle" x="816" y="-7" font-family="Helvetica,sans-Serif" font-size="10.00">SingleRateThreeColorMeter</text>
</a>
</g>
</g>
<!-- TrafficConditioner&#45;&gt;SingleRateThreeColorMeter -->
<g id="edge7" class="edge">
<title>TrafficConditioner&#45;&gt;SingleRateThreeColorMeter</title>
<path fill="none" stroke="black" d="M555.81,-54.98C610.3,-45.67 697.63,-30.74 755.89,-20.78"/>
<polygon fill="black" stroke="black" points="756.79,-24.17 766.06,-19.04 755.61,-17.27 756.79,-24.17"/>
</g>
<!-- PacketMultiplexer -->
<g id="node9" class="node">
<title>PacketMultiplexer</title>
<g id="a_node9"><a xlink:href="inet.queueing.common.PacketMultiplexer.html" xlink:title="Simple Module PacketMultiplexer" target="_parent">
<polygon fill="#fffcaf" stroke="black" points="1012.5,-19 909.5,-19 909.5,0 1012.5,0 1012.5,-19"/>
<text text-anchor="middle" x="961" y="-7" font-family="Helvetica,sans-Serif" font-size="10.00">PacketMultiplexer</text>
</a>
</g>
</g>
<!-- TrafficConditioner&#45;&gt;PacketMultiplexer -->
<g id="edge8" class="edge">
<title>TrafficConditioner&#45;&gt;PacketMultiplexer</title>
<path fill="none" stroke="black" d="M557.19,-58.2C630.64,-50.5 770.44,-35.46 899.26,-19.19"/>
<polygon fill="black" stroke="black" points="899.82,-22.65 909.3,-17.92 898.94,-15.71 899.82,-22.65"/>
</g>
</g>
</svg>
