<?xml version="1.0" encoding="UTF-8" standalone="no"?>
<!DOCTYPE svg PUBLIC "-//W3C//DTD SVG 1.1//EN"
 "http://www.w3.org/Graphics/SVG/1.1/DTD/svg11.dtd">
<!-- Generated by graphviz version 2.43.0 (0)
 -->
<!-- Title: opp Pages: 1 -->
<svg width="379pt" height="137pt"
 viewBox="0.00 0.00 378.50 137.00" xmlns="http://www.w3.org/2000/svg" xmlns:xlink="http://www.w3.org/1999/xlink">
<g id="graph0" class="graph" transform="scale(1 1) rotate(0) translate(4 133)">
<title>opp</title>
<polygon fill="transparent" stroke="transparent" points="-4,4 -4,-133 374.5,-133 374.5,4 -4,4"/>
<!-- InternetCloud -->
<g id="node1" class="node">
<title>InternetCloud</title>
<g id="a_node1"><a xlink:href="inet.node.internetcloud.InternetCloud.html" xlink:title="Compound Module InternetCloud" target="_parent">
<polygon fill="#fff700" stroke="black" points="253,-74 170,-74 170,-55 253,-55 253,-74"/>
<text text-anchor="middle" x="211.5" y="-62" font-family="Helvetica,sans-Serif" font-size="10.00">InternetCloud</text>
</a>
</g>
</g>
<!-- ICloudDelayer -->
<g id="node2" class="node">
<title>ICloudDelayer</title>
<g id="a_node2"><a xlink:href="inet.networklayer.internetcloud.ICloudDelayer.html" xlink:title="Module Interface ICloudDelayer" target="_parent">
<polygon fill="#fffcaf" stroke="black" stroke-dasharray="5,2" points="254.5,-19 168.5,-19 168.5,0 254.5,0 254.5,-19"/>
<text text-anchor="middle" x="211.5" y="-7" font-family="Helvetica,sans-Serif" font-size="10.00">ICloudDelayer</text>
</a>
</g>
</g>
<!-- InternetCloud&#45;&gt;ICloudDelayer -->
<g id="edge1" class="edge">
<title>InternetCloud&#45;&gt;ICloudDelayer</title>
<path fill="none" stroke="black" d="M211.5,-54.75C211.5,-47.8 211.5,-37.85 211.5,-29.13"/>
<polygon fill="black" stroke="black" points="215,-29.09 211.5,-19.09 208,-29.09 215,-29.09"/>
</g>
<!-- CloudAndHosts -->
<g id="node3" class="node">
<title>CloudAndHosts</title>
<g id="a_node3"><a xlink:href="inet.examples.internetcloud.cloudandhosts.CloudAndHosts.html" xlink:title="Network CloudAndHosts" target="_parent">
<polygon fill="#d0d0ff" stroke="black" points="91,-129 0,-129 0,-110 91,-110 91,-129"/>
<text text-anchor="middle" x="45.5" y="-117" font-family="Helvetica,sans-Serif" font-size="10.00">CloudAndHosts</text>
</a>
</g>
</g>
<!-- CloudAndHosts&#45;&gt;InternetCloud -->
<g id="edge2" class="edge">
<title>CloudAndHosts&#45;&gt;InternetCloud</title>
<path fill="none" stroke="black" d="M72.17,-109.98C100.04,-101.09 143.95,-87.07 175.02,-77.15"/>
<polygon fill="black" stroke="black" points="176.16,-80.46 184.62,-74.08 174.03,-73.79 176.16,-80.46"/>
</g>
<!-- CloudAndRouters -->
<g id="node4" class="node">
<title>CloudAndRouters</title>
<g id="a_node4"><a xlink:href="inet.examples.internetcloud.cloudandrouters.CloudAndRouters.html" xlink:title="Network CloudAndRouters" target="_parent">
<polygon fill="#d0d0ff" stroke="black" points="210,-129 109,-129 109,-110 210,-110 210,-129"/>
<text text-anchor="middle" x="159.5" y="-117" font-family="Helvetica,sans-Serif" font-size="10.00">CloudAndRouters</text>
</a>
</g>
</g>
<!-- CloudAndRouters&#45;&gt;InternetCloud -->
<g id="edge3" class="edge">
<title>CloudAndRouters&#45;&gt;InternetCloud</title>
<path fill="none" stroke="black" d="M168.09,-109.75C175.66,-102.03 186.88,-90.6 196.01,-81.28"/>
<polygon fill="black" stroke="black" points="198.57,-83.68 203.07,-74.09 193.57,-78.78 198.57,-83.68"/>
</g>
<!-- EarthCloud -->
<g id="node5" class="node">
<title>EarthCloud</title>
<g id="a_node5"><a xlink:href="inet.examples.internetcloud.earthcloud.EarthCloud.html" xlink:title="Network EarthCloud" target="_parent">
<polygon fill="#d0d0ff" stroke="black" points="298.5,-129 228.5,-129 228.5,-110 298.5,-110 298.5,-129"/>
<text text-anchor="middle" x="263.5" y="-117" font-family="Helvetica,sans-Serif" font-size="10.00">EarthCloud</text>
</a>
</g>
</g>
<!-- EarthCloud&#45;&gt;InternetCloud -->
<g id="edge4" class="edge">
<title>EarthCloud&#45;&gt;InternetCloud</title>
<path fill="none" stroke="black" d="M254.91,-109.75C247.34,-102.03 236.12,-90.6 226.99,-81.28"/>
<polygon fill="black" stroke="black" points="229.43,-78.78 219.93,-74.09 224.43,-83.68 229.43,-78.78"/>
</g>
<!-- Voip -->
<g id="node6" class="node">
<title>Voip</title>
<g id="a_node6"><a xlink:href="inet.examples.voip.Voip.html" xlink:title="Network Voip" target="_parent">
<polygon fill="#d0d0ff" stroke="black" points="370.5,-129 316.5,-129 316.5,-110 370.5,-110 370.5,-129"/>
<text text-anchor="middle" x="343.5" y="-117" font-family="Helvetica,sans-Serif" font-size="10.00">Voip</text>
</a>
</g>
</g>
<!-- Voip&#45;&gt;InternetCloud -->
<g id="edge5" class="edge">
<title>Voip&#45;&gt;InternetCloud</title>
<path fill="none" stroke="black" d="M322.29,-109.98C300.77,-101.34 267.22,-87.87 242.67,-78.02"/>
<polygon fill="black" stroke="black" points="243.68,-74.65 233.09,-74.17 241.07,-81.14 243.68,-74.65"/>
</g>
</g>
</svg>
