<?xml version="1.0" encoding="UTF-8" standalone="no"?>
<!DOCTYPE svg PUBLIC "-//W3C//DTD SVG 1.1//EN"
 "http://www.w3.org/Graphics/SVG/1.1/DTD/svg11.dtd">
<!-- Generated by graphviz version 2.43.0 (0)
 -->
<!-- Title: opp Pages: 1 -->
<svg width="212pt" height="82pt"
 viewBox="0.00 0.00 211.50 82.00" xmlns="http://www.w3.org/2000/svg" xmlns:xlink="http://www.w3.org/1999/xlink">
<g id="graph0" class="graph" transform="scale(1 1) rotate(0) translate(4 78)">
<title>opp</title>
<polygon fill="transparent" stroke="transparent" points="-4,4 -4,-78 207.5,-78 207.5,4 -4,4"/>
<!-- TrafficConditionerLayer -->
<g id="node1" class="node">
<title>TrafficConditionerLayer</title>
<g id="a_node1"><a xlink:href="inet.protocolelement.trafficconditioner.TrafficConditionerLayer.html" xlink:title="Compound Module TrafficConditionerLayer" target="_parent">
<polygon fill="#fff700" stroke="black" points="172,-74 43,-74 43,-55 172,-55 172,-74"/>
<text text-anchor="middle" x="107.5" y="-62" font-family="Helvetica,sans-Serif" font-size="10.00">TrafficConditionerLayer</text>
</a>
</g>
</g>
<!-- ITrafficConditioner -->
<g id="node2" class="node">
<title>ITrafficConditioner</title>
<g id="a_node2"><a xlink:href="inet.queueing.contract.ITrafficConditioner.html" xlink:title="Module Interface ITrafficConditioner" target="_parent">
<polygon fill="#fffcaf" stroke="black" stroke-dasharray="5,2" points="105,-19 0,-19 0,0 105,0 105,-19"/>
<text text-anchor="middle" x="52.5" y="-7" font-family="Helvetica,sans-Serif" font-size="10.00">ITrafficConditioner</text>
</a>
</g>
</g>
<!-- TrafficConditionerLayer&#45;&gt;ITrafficConditioner -->
<g id="edge1" class="edge">
<title>TrafficConditionerLayer&#45;&gt;ITrafficConditioner</title>
<path fill="none" stroke="black" d="M98.42,-54.75C90.41,-47.03 78.54,-35.6 68.88,-26.28"/>
<polygon fill="black" stroke="black" points="71.04,-23.51 61.41,-19.09 66.19,-28.55 71.04,-23.51"/>
</g>
<!-- IdealChannel -->
<g id="node3" class="node">
<title>IdealChannel</title>
<g id="a_node3"><a xlink:href="ned.IdealChannel.html" xlink:title="Channel IdealChannel" target="_parent">
<polygon fill="#d0ffd0" stroke="black" points="203.5,-19 123.5,-19 123.5,0 203.5,0 203.5,-19"/>
<text text-anchor="middle" x="163.5" y="-7" font-family="Helvetica,sans-Serif" font-size="10.00">IdealChannel</text>
</a>
</g>
</g>
<!-- TrafficConditionerLayer&#45;&gt;IdealChannel -->
<g id="edge2" class="edge">
<title>TrafficConditionerLayer&#45;&gt;IdealChannel</title>
<path fill="none" stroke="black" d="M116.5,-54.98C124.69,-47.23 137.01,-35.58 146.97,-26.14"/>
<polygon fill="black" stroke="black" points="149.48,-28.59 154.34,-19.17 144.67,-23.5 149.48,-28.59"/>
</g>
</g>
</svg>
