<?xml version="1.0" encoding="UTF-8" standalone="no"?>
<!DOCTYPE svg PUBLIC "-//W3C//DTD SVG 1.1//EN"
 "http://www.w3.org/Graphics/SVG/1.1/DTD/svg11.dtd">
<!-- Generated by graphviz version 2.43.0 (0)
 -->
<!-- Title: opp Pages: 1 -->
<svg width="220pt" height="137pt"
 viewBox="0.00 0.00 220.00 137.00" xmlns="http://www.w3.org/2000/svg" xmlns:xlink="http://www.w3.org/1999/xlink">
<g id="graph0" class="graph" transform="scale(1 1) rotate(0) translate(4 133)">
<title>opp</title>
<polygon fill="transparent" stroke="transparent" points="-4,4 -4,-133 216,-133 216,4 -4,4"/>
<!-- LinkLayerNodeBase -->
<g id="node1" class="node">
<title>LinkLayerNodeBase</title>
<g id="a_node1"><a xlink:href="inet.node.base.LinkLayerNodeBase.html" xlink:title="Compound Module LinkLayerNodeBase" target="_parent">
<polygon fill="#fff700" stroke="black" points="146.5,-74 33.5,-74 33.5,-55 146.5,-55 146.5,-74"/>
<text text-anchor="middle" x="90" y="-62" font-family="Helvetica,sans-Serif" font-size="10.00">LinkLayerNodeBase</text>
</a>
</g>
</g>
<!-- NetworkLayerNodeBase -->
<g id="node4" class="node">
<title>NetworkLayerNodeBase</title>
<g id="a_node4"><a xlink:href="inet.node.base.NetworkLayerNodeBase.html" xlink:title="Compound Module NetworkLayerNodeBase" target="_parent">
<polygon fill="#fffcaf" stroke="black" points="157,-19 23,-19 23,0 157,0 157,-19"/>
<text text-anchor="middle" x="90" y="-7" font-family="Helvetica,sans-Serif" font-size="10.00">NetworkLayerNodeBase</text>
</a>
</g>
</g>
<!-- LinkLayerNodeBase&#45;&gt;NetworkLayerNodeBase -->
<g id="edge3" class="edge">
<title>LinkLayerNodeBase&#45;&gt;NetworkLayerNodeBase</title>
<path fill="none" stroke="black" d="M90,-54.75C90,-44.87 90,-28.9 90,-19.09"/>
</g>
<!-- NodeBase -->
<g id="node2" class="node">
<title>NodeBase</title>
<g id="a_node2"><a xlink:href="inet.node.base.NodeBase.html" xlink:title="Compound Module NodeBase" target="_parent">
<polygon fill="#fffcaf" stroke="black" points="66,-129 0,-129 0,-110 66,-110 66,-129"/>
<text text-anchor="middle" x="33" y="-117" font-family="Helvetica,sans-Serif" font-size="10.00">NodeBase</text>
</a>
</g>
</g>
<!-- NodeBase&#45;&gt;LinkLayerNodeBase -->
<g id="edge1" class="edge">
<title>NodeBase&#45;&gt;LinkLayerNodeBase</title>
<path fill="none" stroke="black" d="M42.16,-109.98C52.73,-100.15 70.03,-84.07 80.68,-74.17"/>
</g>
<!-- IEthernetNetworkNode -->
<g id="node3" class="node">
<title>IEthernetNetworkNode</title>
<g id="a_node3"><a xlink:href="inet.node.contract.IEthernetNetworkNode.html" xlink:title="Module Interface IEthernetNetworkNode" target="_parent">
<polygon fill="#fffcaf" stroke="black" stroke-dasharray="5,2" points="212,-129 84,-129 84,-110 212,-110 212,-129"/>
<text text-anchor="middle" x="148" y="-117" font-family="Helvetica,sans-Serif" font-size="10.00">IEthernetNetworkNode</text>
</a>
</g>
</g>
<!-- IEthernetNetworkNode&#45;&gt;LinkLayerNodeBase -->
<g id="edge2" class="edge">
<title>IEthernetNetworkNode&#45;&gt;LinkLayerNodeBase</title>
<path fill="none" stroke="black" stroke-dasharray="5,2" d="M138.68,-109.98C127.92,-100.15 110.32,-84.07 99.49,-74.17"/>
</g>
</g>
</svg>
