<?xml version="1.0" encoding="UTF-8" standalone="no"?>
<!DOCTYPE svg PUBLIC "-//W3C//DTD SVG 1.1//EN"
 "http://www.w3.org/Graphics/SVG/1.1/DTD/svg11.dtd">
<!-- Generated by graphviz version 2.43.0 (0)
 -->
<!-- Title: opp Pages: 1 -->
<svg width="870pt" height="137pt"
 viewBox="0.00 0.00 869.50 137.00" xmlns="http://www.w3.org/2000/svg" xmlns:xlink="http://www.w3.org/1999/xlink">
<g id="graph0" class="graph" transform="scale(1 1) rotate(0) translate(4 133)">
<title>opp</title>
<polygon fill="transparent" stroke="transparent" points="-4,4 -4,-133 865.5,-133 865.5,4 -4,4"/>
<!-- Ipv4NetworkLayer -->
<g id="node1" class="node">
<title>Ipv4NetworkLayer</title>
<g id="a_node1"><a xlink:href="inet.networklayer.ipv4.Ipv4NetworkLayer.html" xlink:title="Compound Module Ipv4NetworkLayer" target="_parent">
<polygon fill="#fff700" stroke="black" points="511.5,-74 405.5,-74 405.5,-55 511.5,-55 511.5,-74"/>
<text text-anchor="middle" x="458.5" y="-62" font-family="Helvetica,sans-Serif" font-size="10.00">Ipv4NetworkLayer</text>
</a>
</g>
</g>
<!-- MessageDispatcher -->
<g id="node2" class="node">
<title>MessageDispatcher</title>
<g id="a_node2"><a xlink:href="inet.common.MessageDispatcher.html" xlink:title="Simple Module MessageDispatcher" target="_parent">
<polygon fill="#fffcaf" stroke="black" points="113,-19 0,-19 0,0 113,0 113,-19"/>
<text text-anchor="middle" x="56.5" y="-7" font-family="Helvetica,sans-Serif" font-size="10.00">MessageDispatcher</text>
</a>
</g>
</g>
<!-- Ipv4NetworkLayer&#45;&gt;MessageDispatcher -->
<g id="edge1" class="edge">
<title>Ipv4NetworkLayer&#45;&gt;MessageDispatcher</title>
<path fill="none" stroke="black" d="M405.12,-56.46C332.45,-46.88 202.42,-29.74 123.35,-19.31"/>
<polygon fill="black" stroke="black" points="123.39,-15.79 113.02,-17.95 122.48,-22.73 123.39,-15.79"/>
</g>
<!-- IIpv4 -->
<g id="node3" class="node">
<title>IIpv4</title>
<g id="a_node3"><a xlink:href="inet.networklayer.ipv4.IIpv4.html" xlink:title="Module Interface IIpv4" target="_parent">
<polygon fill="#fffcaf" stroke="black" stroke-dasharray="5,2" points="185.5,-19 131.5,-19 131.5,0 185.5,0 185.5,-19"/>
<text text-anchor="middle" x="158.5" y="-7" font-family="Helvetica,sans-Serif" font-size="10.00">IIpv4</text>
</a>
</g>
</g>
<!-- Ipv4NetworkLayer&#45;&gt;IIpv4 -->
<g id="edge2" class="edge">
<title>Ipv4NetworkLayer&#45;&gt;IIpv4</title>
<path fill="none" stroke="black" d="M405.47,-55.6C354.22,-47.73 274.18,-34.82 195.65,-19.12"/>
<polygon fill="black" stroke="black" points="196.08,-15.64 185.59,-17.09 194.7,-22.5 196.08,-15.64"/>
</g>
<!-- Ipv4RoutingTable -->
<g id="node4" class="node">
<title>Ipv4RoutingTable</title>
<g id="a_node4"><a xlink:href="inet.networklayer.ipv4.Ipv4RoutingTable.html" xlink:title="Simple Module Ipv4RoutingTable" target="_parent">
<polygon fill="#fffcaf" stroke="black" points="305,-19 204,-19 204,0 305,0 305,-19"/>
<text text-anchor="middle" x="254.5" y="-7" font-family="Helvetica,sans-Serif" font-size="10.00">Ipv4RoutingTable</text>
</a>
</g>
</g>
<!-- Ipv4NetworkLayer&#45;&gt;Ipv4RoutingTable -->
<g id="edge3" class="edge">
<title>Ipv4NetworkLayer&#45;&gt;Ipv4RoutingTable</title>
<path fill="none" stroke="black" d="M425.72,-54.98C390.88,-45.93 335.63,-31.58 297.36,-21.64"/>
<polygon fill="black" stroke="black" points="298.09,-18.21 287.53,-19.08 296.33,-24.98 298.09,-18.21"/>
</g>
<!-- IIgmp -->
<g id="node5" class="node">
<title>IIgmp</title>
<g id="a_node5"><a xlink:href="inet.networklayer.ipv4.IIgmp.html" xlink:title="Module Interface IIgmp" target="_parent">
<polygon fill="#fffcaf" stroke="black" stroke-dasharray="5,2" points="377.5,-19 323.5,-19 323.5,0 377.5,0 377.5,-19"/>
<text text-anchor="middle" x="350.5" y="-7" font-family="Helvetica,sans-Serif" font-size="10.00">IIgmp</text>
</a>
</g>
</g>
<!-- Ipv4NetworkLayer&#45;&gt;IIgmp -->
<g id="edge4" class="edge">
<title>Ipv4NetworkLayer&#45;&gt;IIgmp</title>
<path fill="none" stroke="black" d="M441.15,-54.98C423.93,-46.54 397.3,-33.47 377.35,-23.68"/>
<polygon fill="black" stroke="black" points="378.69,-20.43 368.17,-19.17 375.6,-26.72 378.69,-20.43"/>
</g>
<!-- IIpv4NodeConfigurator -->
<g id="node6" class="node">
<title>IIpv4NodeConfigurator</title>
<g id="a_node6"><a xlink:href="inet.networklayer.configurator.contract.IIpv4NodeConfigurator.html" xlink:title="Module Interface IIpv4NodeConfigurator" target="_parent">
<polygon fill="#fffcaf" stroke="black" stroke-dasharray="5,2" points="521.5,-19 395.5,-19 395.5,0 521.5,0 521.5,-19"/>
<text text-anchor="middle" x="458.5" y="-7" font-family="Helvetica,sans-Serif" font-size="10.00">IIpv4NodeConfigurator</text>
</a>
</g>
</g>
<!-- Ipv4NetworkLayer&#45;&gt;IIpv4NodeConfigurator -->
<g id="edge5" class="edge">
<title>Ipv4NetworkLayer&#45;&gt;IIpv4NodeConfigurator</title>
<path fill="none" stroke="black" d="M458.5,-54.75C458.5,-47.8 458.5,-37.85 458.5,-29.13"/>
<polygon fill="black" stroke="black" points="462,-29.09 458.5,-19.09 455,-29.09 462,-29.09"/>
</g>
<!-- Ipv4NatTable -->
<g id="node7" class="node">
<title>Ipv4NatTable</title>
<g id="a_node7"><a xlink:href="inet.networklayer.ipv4.Ipv4NatTable.html" xlink:title="Simple Module Ipv4NatTable" target="_parent">
<polygon fill="#fffcaf" stroke="black" points="619.5,-19 539.5,-19 539.5,0 619.5,0 619.5,-19"/>
<text text-anchor="middle" x="579.5" y="-7" font-family="Helvetica,sans-Serif" font-size="10.00">Ipv4NatTable</text>
</a>
</g>
</g>
<!-- Ipv4NetworkLayer&#45;&gt;Ipv4NatTable -->
<g id="edge6" class="edge">
<title>Ipv4NetworkLayer&#45;&gt;Ipv4NatTable</title>
<path fill="none" stroke="black" d="M477.94,-54.98C497.49,-46.42 527.88,-33.11 550.32,-23.28"/>
<polygon fill="black" stroke="black" points="551.95,-26.39 559.71,-19.17 549.14,-19.98 551.95,-26.39"/>
</g>
<!-- IArp -->
<g id="node8" class="node">
<title>IArp</title>
<g id="a_node8"><a xlink:href="inet.networklayer.contract.IArp.html" xlink:title="Module Interface IArp" target="_parent">
<polygon fill="#fffcaf" stroke="black" stroke-dasharray="5,2" points="691.5,-19 637.5,-19 637.5,0 691.5,0 691.5,-19"/>
<text text-anchor="middle" x="664.5" y="-7" font-family="Helvetica,sans-Serif" font-size="10.00">IArp</text>
</a>
</g>
</g>
<!-- Ipv4NetworkLayer&#45;&gt;IArp -->
<g id="edge7" class="edge">
<title>Ipv4NetworkLayer&#45;&gt;IArp</title>
<path fill="none" stroke="black" d="M491.6,-54.98C528.77,-45.42 588.93,-29.94 627.59,-20"/>
<polygon fill="black" stroke="black" points="628.59,-23.35 637.4,-17.47 626.85,-16.57 628.59,-23.35"/>
</g>
<!-- IdealChannel -->
<g id="node9" class="node">
<title>IdealChannel</title>
<g id="a_node9"><a xlink:href="ned.IdealChannel.html" xlink:title="Channel IdealChannel" target="_parent">
<polygon fill="#d0ffd0" stroke="black" points="789.5,-19 709.5,-19 709.5,0 789.5,0 789.5,-19"/>
<text text-anchor="middle" x="749.5" y="-7" font-family="Helvetica,sans-Serif" font-size="10.00">IdealChannel</text>
</a>
</g>
</g>
<!-- Ipv4NetworkLayer&#45;&gt;IdealChannel -->
<g id="edge8" class="edge">
<title>Ipv4NetworkLayer&#45;&gt;IdealChannel</title>
<path fill="none" stroke="black" d="M505.25,-54.98C558.38,-45.31 644.77,-29.57 699.29,-19.64"/>
<polygon fill="black" stroke="black" points="700.21,-23.04 709.42,-17.8 698.95,-16.15 700.21,-23.04"/>
</g>
<!-- Icmp -->
<g id="node10" class="node">
<title>Icmp</title>
<g id="a_node10"><a xlink:href="inet.networklayer.ipv4.Icmp.html" xlink:title="Simple Module Icmp" target="_parent">
<polygon fill="#fffcaf" stroke="black" points="861.5,-19 807.5,-19 807.5,0 861.5,0 861.5,-19"/>
<text text-anchor="middle" x="834.5" y="-7" font-family="Helvetica,sans-Serif" font-size="10.00">Icmp</text>
</a>
</g>
</g>
<!-- Ipv4NetworkLayer&#45;&gt;Icmp -->
<g id="edge9" class="edge">
<title>Ipv4NetworkLayer&#45;&gt;Icmp</title>
<path fill="none" stroke="black" d="M511.76,-58.22C576.89,-51.4 690.63,-38.26 797.45,-19.02"/>
<polygon fill="black" stroke="black" points="798.23,-22.44 807.44,-17.2 796.97,-15.55 798.23,-22.44"/>
</g>
<!-- BGPRouterEx -->
<g id="node11" class="node">
<title>BGPRouterEx</title>
<g id="a_node11"><a xlink:href="inet.examples.bgpv4.BgpUpdate.BGPRouterEx.html" xlink:title="Compound Module BGPRouterEx" target="_parent">
<polygon fill="#fffcaf" stroke="black" points="332,-129 251,-129 251,-110 332,-110 332,-129"/>
<text text-anchor="middle" x="291.5" y="-117" font-family="Helvetica,sans-Serif" font-size="10.00">BGPRouterEx</text>
</a>
</g>
</g>
<!-- BGPRouterEx&#45;&gt;Ipv4NetworkLayer -->
<g id="edge10" class="edge">
<title>BGPRouterEx&#45;&gt;Ipv4NetworkLayer</title>
<path fill="none" stroke="black" d="M318.33,-109.98C346.37,-101.09 390.55,-87.07 421.8,-77.15"/>
<polygon fill="black" stroke="black" points="422.99,-80.44 431.46,-74.08 420.87,-73.77 422.99,-80.44"/>
</g>
<!-- BGPRouterSimple -->
<g id="node12" class="node">
<title>BGPRouterSimple</title>
<g id="a_node12"><a xlink:href="inet.examples.bgpv4.BgpOpen.BGPRouterSimple.html" xlink:title="Compound Module BGPRouterSimple" target="_parent">
<polygon fill="#fffcaf" stroke="black" points="453,-129 350,-129 350,-110 453,-110 453,-129"/>
<text text-anchor="middle" x="401.5" y="-117" font-family="Helvetica,sans-Serif" font-size="10.00">BGPRouterSimple</text>
</a>
</g>
</g>
<!-- BGPRouterSimple&#45;&gt;Ipv4NetworkLayer -->
<g id="edge11" class="edge">
<title>BGPRouterSimple&#45;&gt;Ipv4NetworkLayer</title>
<path fill="none" stroke="black" d="M410.66,-109.98C419,-102.23 431.53,-90.58 441.68,-81.14"/>
<polygon fill="black" stroke="black" points="444.24,-83.54 449.18,-74.17 439.47,-78.42 444.24,-83.54"/>
</g>
<!-- LdpMplsRouter -->
<g id="node13" class="node">
<title>LdpMplsRouter</title>
<g id="a_node13"><a xlink:href="inet.node.mpls.LdpMplsRouter.html" xlink:title="Compound Module LdpMplsRouter" target="_parent">
<polygon fill="#fffcaf" stroke="black" points="560,-129 471,-129 471,-110 560,-110 560,-129"/>
<text text-anchor="middle" x="515.5" y="-117" font-family="Helvetica,sans-Serif" font-size="10.00">LdpMplsRouter</text>
</a>
</g>
</g>
<!-- LdpMplsRouter&#45;&gt;Ipv4NetworkLayer -->
<g id="edge12" class="edge">
<title>LdpMplsRouter&#45;&gt;Ipv4NetworkLayer</title>
<path fill="none" stroke="black" d="M506.34,-109.98C498,-102.23 485.47,-90.58 475.32,-81.14"/>
<polygon fill="black" stroke="black" points="477.53,-78.42 467.82,-74.17 472.76,-83.54 477.53,-78.42"/>
</g>
<!-- RsvpMplsRouter -->
<g id="node14" class="node">
<title>RsvpMplsRouter</title>
<g id="a_node14"><a xlink:href="inet.node.mpls.RsvpMplsRouter.html" xlink:title="Compound Module RsvpMplsRouter" target="_parent">
<polygon fill="#fffcaf" stroke="black" points="674.5,-129 578.5,-129 578.5,-110 674.5,-110 674.5,-129"/>
<text text-anchor="middle" x="626.5" y="-117" font-family="Helvetica,sans-Serif" font-size="10.00">RsvpMplsRouter</text>
</a>
</g>
</g>
<!-- RsvpMplsRouter&#45;&gt;Ipv4NetworkLayer -->
<g id="edge13" class="edge">
<title>RsvpMplsRouter&#45;&gt;Ipv4NetworkLayer</title>
<path fill="none" stroke="black" d="M599.51,-109.98C571.3,-101.09 526.86,-87.07 495.42,-77.15"/>
<polygon fill="black" stroke="black" points="496.29,-73.75 485.7,-74.08 494.19,-80.43 496.29,-73.75"/>
</g>
</g>
</svg>
