<?xml version="1.0" encoding="UTF-8" standalone="no"?>
<!DOCTYPE svg PUBLIC "-//W3C//DTD SVG 1.1//EN"
 "http://www.w3.org/Graphics/SVG/1.1/DTD/svg11.dtd">
<!-- Generated by graphviz version 2.43.0 (0)
 -->
<!-- Title: opp Pages: 1 -->
<svg width="466pt" height="137pt"
 viewBox="0.00 0.00 466.00 137.00" xmlns="http://www.w3.org/2000/svg" xmlns:xlink="http://www.w3.org/1999/xlink">
<g id="graph0" class="graph" transform="scale(1 1) rotate(0) translate(4 133)">
<title>opp</title>
<polygon fill="transparent" stroke="transparent" points="-4,4 -4,-133 462,-133 462,4 -4,4"/>
<!-- PacketQueue -->
<g id="node1" class="node">
<title>PacketQueue</title>
<g id="a_node1"><a xlink:href="inet.queueing.queue.PacketQueue.html" xlink:title="Simple Module PacketQueue" target="_parent">
<polygon fill="#fff700" stroke="black" points="260.5,-74 180.5,-74 180.5,-55 260.5,-55 260.5,-74"/>
<text text-anchor="middle" x="220.5" y="-62" font-family="Helvetica,sans-Serif" font-size="10.00">PacketQueue</text>
</a>
</g>
</g>
<!-- DropHeadQueue -->
<g id="node4" class="node">
<title>DropHeadQueue</title>
<g id="a_node4"><a xlink:href="inet.queueing.queue.DropHeadQueue.html" xlink:title="Simple Module DropHeadQueue" target="_parent">
<polygon fill="#fffcaf" stroke="black" points="97,-19 0,-19 0,0 97,0 97,-19"/>
<text text-anchor="middle" x="48.5" y="-7" font-family="Helvetica,sans-Serif" font-size="10.00">DropHeadQueue</text>
</a>
</g>
</g>
<!-- PacketQueue&#45;&gt;DropHeadQueue -->
<g id="edge3" class="edge">
<title>PacketQueue&#45;&gt;DropHeadQueue</title>
<path fill="none" stroke="black" d="M192.87,-54.98C160.86,-45.12 108.45,-28.97 76.35,-19.08"/>
</g>
<!-- DropTailQueue -->
<g id="node5" class="node">
<title>DropTailQueue</title>
<g id="a_node5"><a xlink:href="inet.queueing.queue.DropTailQueue.html" xlink:title="Simple Module DropTailQueue" target="_parent">
<polygon fill="#fffcaf" stroke="black" points="203.5,-19 115.5,-19 115.5,0 203.5,0 203.5,-19"/>
<text text-anchor="middle" x="159.5" y="-7" font-family="Helvetica,sans-Serif" font-size="10.00">DropTailQueue</text>
</a>
</g>
</g>
<!-- PacketQueue&#45;&gt;DropTailQueue -->
<g id="edge4" class="edge">
<title>PacketQueue&#45;&gt;DropTailQueue</title>
<path fill="none" stroke="black" d="M210.7,-54.98C199.38,-45.15 180.87,-29.07 169.48,-19.17"/>
</g>
<!-- EligibilityTimeQueue -->
<g id="node6" class="node">
<title>EligibilityTimeQueue</title>
<g id="a_node6"><a xlink:href="inet.protocolelement.shaper.EligibilityTimeQueue.html" xlink:title="Simple Module EligibilityTimeQueue" target="_parent">
<polygon fill="#fffcaf" stroke="black" points="341,-19 222,-19 222,0 341,0 341,-19"/>
<text text-anchor="middle" x="281.5" y="-7" font-family="Helvetica,sans-Serif" font-size="10.00">EligibilityTimeQueue</text>
</a>
</g>
</g>
<!-- PacketQueue&#45;&gt;EligibilityTimeQueue -->
<g id="edge5" class="edge">
<title>PacketQueue&#45;&gt;EligibilityTimeQueue</title>
<path fill="none" stroke="black" d="M230.3,-54.98C241.62,-45.15 260.13,-29.07 271.52,-19.17"/>
</g>
<!-- InProgressQueue -->
<g id="node7" class="node">
<title>InProgressQueue</title>
<g id="a_node7"><a xlink:href="inet.queueing.queue.InProgressQueue.html" xlink:title="Simple Module InProgressQueue" target="_parent">
<polygon fill="#fffcaf" stroke="black" points="458,-19 359,-19 359,0 458,0 458,-19"/>
<text text-anchor="middle" x="408.5" y="-7" font-family="Helvetica,sans-Serif" font-size="10.00">InProgressQueue</text>
</a>
</g>
</g>
<!-- PacketQueue&#45;&gt;InProgressQueue -->
<g id="edge6" class="edge">
<title>PacketQueue&#45;&gt;InProgressQueue</title>
<path fill="none" stroke="black" d="M250.71,-54.98C285.68,-45.12 342.98,-28.97 378.06,-19.08"/>
</g>
<!-- PacketQueueBase -->
<g id="node2" class="node">
<title>PacketQueueBase</title>
<g id="a_node2"><a xlink:href="inet.queueing.base.PacketQueueBase.html" xlink:title="Simple Module PacketQueueBase" target="_parent">
<polygon fill="#fffcaf" stroke="black" points="216.5,-129 112.5,-129 112.5,-110 216.5,-110 216.5,-129"/>
<text text-anchor="middle" x="164.5" y="-117" font-family="Helvetica,sans-Serif" font-size="10.00">PacketQueueBase</text>
</a>
</g>
</g>
<!-- PacketQueueBase&#45;&gt;PacketQueue -->
<g id="edge1" class="edge">
<title>PacketQueueBase&#45;&gt;PacketQueue</title>
<path fill="none" stroke="black" d="M173.5,-109.98C183.89,-100.15 200.88,-84.07 211.34,-74.17"/>
</g>
<!-- IPacketQueue -->
<g id="node3" class="node">
<title>IPacketQueue</title>
<g id="a_node3"><a xlink:href="inet.queueing.contract.IPacketQueue.html" xlink:title="Module Interface IPacketQueue" target="_parent">
<polygon fill="#fffcaf" stroke="black" stroke-dasharray="5,2" points="318,-129 235,-129 235,-110 318,-110 318,-129"/>
<text text-anchor="middle" x="276.5" y="-117" font-family="Helvetica,sans-Serif" font-size="10.00">IPacketQueue</text>
</a>
</g>
</g>
<!-- IPacketQueue&#45;&gt;PacketQueue -->
<g id="edge2" class="edge">
<title>IPacketQueue&#45;&gt;PacketQueue</title>
<path fill="none" stroke="black" stroke-dasharray="5,2" d="M267.5,-109.98C257.11,-100.15 240.12,-84.07 229.66,-74.17"/>
</g>
</g>
</svg>
