<?xml version="1.0" encoding="UTF-8" standalone="no"?>
<!DOCTYPE svg PUBLIC "-//W3C//DTD SVG 1.1//EN"
 "http://www.w3.org/Graphics/SVG/1.1/DTD/svg11.dtd">
<!-- Generated by graphviz version 2.43.0 (0)
 -->
<!-- Title: opp Pages: 1 -->
<svg width="239pt" height="137pt"
 viewBox="0.00 0.00 238.50 137.00" xmlns="http://www.w3.org/2000/svg" xmlns:xlink="http://www.w3.org/1999/xlink">
<g id="graph0" class="graph" transform="scale(1 1) rotate(0) translate(4 133)">
<title>opp</title>
<polygon fill="transparent" stroke="transparent" points="-4,4 -4,-133 234.5,-133 234.5,4 -4,4"/>
<!-- NoiseSource -->
<g id="node1" class="node">
<title>NoiseSource</title>
<g id="a_node1"><a xlink:href="inet.physicallayer.wireless.noise.NoiseSource.html" xlink:title="Compound Module NoiseSource" target="_parent">
<polygon fill="#fff700" stroke="black" points="146.5,-74 69.5,-74 69.5,-55 146.5,-55 146.5,-74"/>
<text text-anchor="middle" x="108" y="-62" font-family="Helvetica,sans-Serif" font-size="10.00">NoiseSource</text>
</a>
</g>
</g>
<!-- IAntenna -->
<g id="node2" class="node">
<title>IAntenna</title>
<g id="a_node2"><a xlink:href="inet.physicallayer.wireless.common.contract.packetlevel.IAntenna.html" xlink:title="Module Interface IAntenna" target="_parent">
<polygon fill="#fffcaf" stroke="black" stroke-dasharray="5,2" points="60,-19 0,-19 0,0 60,0 60,-19"/>
<text text-anchor="middle" x="30" y="-7" font-family="Helvetica,sans-Serif" font-size="10.00">IAntenna</text>
</a>
</g>
</g>
<!-- NoiseSource&#45;&gt;IAntenna -->
<g id="edge1" class="edge">
<title>NoiseSource&#45;&gt;IAntenna</title>
<path fill="none" stroke="black" d="M95.47,-54.98C83.6,-46.92 65.54,-34.65 51.39,-25.03"/>
<polygon fill="black" stroke="black" points="53,-21.9 42.76,-19.17 49.06,-27.69 53,-21.9"/>
</g>
<!-- IMobility -->
<g id="node3" class="node">
<title>IMobility</title>
<g id="a_node3"><a xlink:href="inet.mobility.contract.IMobility.html" xlink:title="Module Interface IMobility" target="_parent">
<polygon fill="#fffcaf" stroke="black" stroke-dasharray="5,2" points="137.5,-19 78.5,-19 78.5,0 137.5,0 137.5,-19"/>
<text text-anchor="middle" x="108" y="-7" font-family="Helvetica,sans-Serif" font-size="10.00">IMobility</text>
</a>
</g>
</g>
<!-- NoiseSource&#45;&gt;IMobility -->
<g id="edge2" class="edge">
<title>NoiseSource&#45;&gt;IMobility</title>
<path fill="none" stroke="black" d="M108,-54.75C108,-47.8 108,-37.85 108,-29.13"/>
<polygon fill="black" stroke="black" points="111.5,-29.09 108,-19.09 104.5,-29.09 111.5,-29.09"/>
</g>
<!-- ITransmitter -->
<g id="node4" class="node">
<title>ITransmitter</title>
<g id="a_node4"><a xlink:href="inet.physicallayer.wireless.common.contract.packetlevel.ITransmitter.html" xlink:title="Module Interface ITransmitter" target="_parent">
<polygon fill="#fffcaf" stroke="black" stroke-dasharray="5,2" points="230.5,-19 155.5,-19 155.5,0 230.5,0 230.5,-19"/>
<text text-anchor="middle" x="193" y="-7" font-family="Helvetica,sans-Serif" font-size="10.00">ITransmitter</text>
</a>
</g>
</g>
<!-- NoiseSource&#45;&gt;ITransmitter -->
<g id="edge3" class="edge">
<title>NoiseSource&#45;&gt;ITransmitter</title>
<path fill="none" stroke="black" d="M121.66,-54.98C134.84,-46.77 155.03,-34.18 170.57,-24.49"/>
<polygon fill="black" stroke="black" points="172.46,-27.43 179.09,-19.17 168.76,-21.49 172.46,-27.43"/>
</g>
<!-- AnalogModelShowcaseNoiseNetwork -->
<g id="node5" class="node">
<title>AnalogModelShowcaseNoiseNetwork</title>
<g id="a_node5"><a xlink:href="inet.showcases.wireless.analogmodel.AnalogModelShowcaseNoiseNetwork.html" xlink:title="Network AnalogModelShowcaseNoiseNetwork" target="_parent">
<polygon fill="#d0d0ff" stroke="black" points="207,-129 9,-129 9,-110 207,-110 207,-129"/>
<text text-anchor="middle" x="108" y="-117" font-family="Helvetica,sans-Serif" font-size="10.00">AnalogModelShowcaseNoiseNetwork</text>
</a>
</g>
</g>
<!-- AnalogModelShowcaseNoiseNetwork&#45;&gt;NoiseSource -->
<g id="edge4" class="edge">
<title>AnalogModelShowcaseNoiseNetwork&#45;&gt;NoiseSource</title>
<path fill="none" stroke="black" d="M108,-109.75C108,-102.8 108,-92.85 108,-84.13"/>
<polygon fill="black" stroke="black" points="111.5,-84.09 108,-74.09 104.5,-84.09 111.5,-84.09"/>
</g>
</g>
</svg>
