<?xml version="1.0" encoding="UTF-8" standalone="no"?>
<!DOCTYPE svg PUBLIC "-//W3C//DTD SVG 1.1//EN"
 "http://www.w3.org/Graphics/SVG/1.1/DTD/svg11.dtd">
<!-- Generated by graphviz version 2.43.0 (0)
 -->
<!-- Title: opp Pages: 1 -->
<svg width="226pt" height="137pt"
 viewBox="0.00 0.00 225.50 137.00" xmlns="http://www.w3.org/2000/svg" xmlns:xlink="http://www.w3.org/1999/xlink">
<g id="graph0" class="graph" transform="scale(1 1) rotate(0) translate(4 133)">
<title>opp</title>
<polygon fill="transparent" stroke="transparent" points="-4,4 -4,-133 221.5,-133 221.5,4 -4,4"/>
<!-- BurstHost -->
<g id="node1" class="node">
<title>BurstHost</title>
<g id="a_node1"><a xlink:href="inet.examples.inet.routerperf.BurstHost.html" xlink:title="Compound Module BurstHost" target="_parent">
<polygon fill="#fff700" stroke="black" points="131.5,-74 66.5,-74 66.5,-55 131.5,-55 131.5,-74"/>
<text text-anchor="middle" x="99" y="-62" font-family="Helvetica,sans-Serif" font-size="10.00">BurstHost</text>
</a>
</g>
</g>
<!-- IdealChannel -->
<g id="node2" class="node">
<title>IdealChannel</title>
<g id="a_node2"><a xlink:href="ned.IdealChannel.html" xlink:title="Channel IdealChannel" target="_parent">
<polygon fill="#d0ffd0" stroke="black" points="80,-19 0,-19 0,0 80,0 80,-19"/>
<text text-anchor="middle" x="40" y="-7" font-family="Helvetica,sans-Serif" font-size="10.00">IdealChannel</text>
</a>
</g>
</g>
<!-- BurstHost&#45;&gt;IdealChannel -->
<g id="edge1" class="edge">
<title>BurstHost&#45;&gt;IdealChannel</title>
<path fill="none" stroke="black" d="M89.52,-54.98C80.8,-47.15 67.66,-35.34 57.1,-25.86"/>
<polygon fill="black" stroke="black" points="59.43,-23.25 49.65,-19.17 54.75,-28.46 59.43,-23.25"/>
</g>
<!-- IIpvxTrafficGenerator -->
<g id="node3" class="node">
<title>IIpvxTrafficGenerator</title>
<g id="a_node3"><a xlink:href="inet.applications.generic.IIpvxTrafficGenerator.html" xlink:title="Module Interface IIpvxTrafficGenerator" target="_parent">
<polygon fill="#fffcaf" stroke="black" stroke-dasharray="5,2" points="217.5,-19 98.5,-19 98.5,0 217.5,0 217.5,-19"/>
<text text-anchor="middle" x="158" y="-7" font-family="Helvetica,sans-Serif" font-size="10.00">IIpvxTrafficGenerator</text>
</a>
</g>
</g>
<!-- BurstHost&#45;&gt;IIpvxTrafficGenerator -->
<g id="edge2" class="edge">
<title>BurstHost&#45;&gt;IIpvxTrafficGenerator</title>
<path fill="none" stroke="black" d="M108.48,-54.98C117.2,-47.15 130.34,-35.34 140.9,-25.86"/>
<polygon fill="black" stroke="black" points="143.25,-28.46 148.35,-19.17 138.57,-23.25 143.25,-28.46"/>
</g>
<!-- RouterPerfNetwork -->
<g id="node4" class="node">
<title>RouterPerfNetwork</title>
<g id="a_node4"><a xlink:href="inet.examples.inet.routerperf.RouterPerfNetwork.html" xlink:title="Network RouterPerfNetwork" target="_parent">
<polygon fill="#d0d0ff" stroke="black" points="154,-129 44,-129 44,-110 154,-110 154,-129"/>
<text text-anchor="middle" x="99" y="-117" font-family="Helvetica,sans-Serif" font-size="10.00">RouterPerfNetwork</text>
</a>
</g>
</g>
<!-- RouterPerfNetwork&#45;&gt;BurstHost -->
<g id="edge3" class="edge">
<title>RouterPerfNetwork&#45;&gt;BurstHost</title>
<path fill="none" stroke="black" d="M99,-109.75C99,-102.8 99,-92.85 99,-84.13"/>
<polygon fill="black" stroke="black" points="102.5,-84.09 99,-74.09 95.5,-84.09 102.5,-84.09"/>
</g>
</g>
</svg>
