<?xml version="1.0" encoding="UTF-8" standalone="no"?>
<!DOCTYPE svg PUBLIC "-//W3C//DTD SVG 1.1//EN"
 "http://www.w3.org/Graphics/SVG/1.1/DTD/svg11.dtd">
<!-- Generated by graphviz version 2.43.0 (0)
 -->
<!-- Title: opp Pages: 1 -->
<svg width="576pt" height="82pt"
 viewBox="0.00 0.00 576.00 82.00" xmlns="http://www.w3.org/2000/svg" xmlns:xlink="http://www.w3.org/1999/xlink">
<g id="graph0" class="graph" transform="scale(1 1) rotate(0) translate(4 78)">
<title>opp</title>
<polygon fill="transparent" stroke="transparent" points="-4,4 -4,-78 572,-78 572,4 -4,4"/>
<!-- DataLinkVisualizerActivityLevelShowcase -->
<g id="node1" class="node">
<title>DataLinkVisualizerActivityLevelShowcase</title>
<g id="a_node1"><a xlink:href="inet.showcases.visualizer.canvas.datalinkactivity.DataLinkVisualizerActivityLevelShowcase.html" xlink:title="Network DataLinkVisualizerActivityLevelShowcase" target="_parent">
<polygon fill="#9090ff" stroke="black" points="442,-74 221,-74 221,-55 442,-55 442,-74"/>
<text text-anchor="middle" x="331.5" y="-62" font-family="Helvetica,sans-Serif" font-size="10.00">DataLinkVisualizerActivityLevelShowcase</text>
</a>
</g>
</g>
<!-- Ieee80211ScalarRadioMedium -->
<g id="node2" class="node">
<title>Ieee80211ScalarRadioMedium</title>
<g id="a_node2"><a xlink:href="inet.physicallayer.wireless.ieee80211.packetlevel.Ieee80211ScalarRadioMedium.html" xlink:title="Compound Module Ieee80211ScalarRadioMedium" target="_parent">
<polygon fill="#fffcaf" stroke="black" points="165,-19 0,-19 0,0 165,0 165,-19"/>
<text text-anchor="middle" x="82.5" y="-7" font-family="Helvetica,sans-Serif" font-size="10.00">Ieee80211ScalarRadioMedium</text>
</a>
</g>
</g>
<!-- DataLinkVisualizerActivityLevelShowcase&#45;&gt;Ieee80211ScalarRadioMedium -->
<g id="edge1" class="edge">
<title>DataLinkVisualizerActivityLevelShowcase&#45;&gt;Ieee80211ScalarRadioMedium</title>
<path fill="none" stroke="black" d="M291.49,-54.98C248.33,-45.8 179.52,-31.15 132.74,-21.19"/>
<polygon fill="black" stroke="black" points="133.33,-17.74 122.82,-19.08 131.87,-24.59 133.33,-17.74"/>
</g>
<!-- Ipv4NetworkConfigurator -->
<g id="node3" class="node">
<title>Ipv4NetworkConfigurator</title>
<g id="a_node3"><a xlink:href="inet.networklayer.configurator.ipv4.Ipv4NetworkConfigurator.html" xlink:title="Simple Module Ipv4NetworkConfigurator" target="_parent">
<polygon fill="#fffcaf" stroke="black" points="322,-19 183,-19 183,0 322,0 322,-19"/>
<text text-anchor="middle" x="252.5" y="-7" font-family="Helvetica,sans-Serif" font-size="10.00">Ipv4NetworkConfigurator</text>
</a>
</g>
</g>
<!-- DataLinkVisualizerActivityLevelShowcase&#45;&gt;Ipv4NetworkConfigurator -->
<g id="edge2" class="edge">
<title>DataLinkVisualizerActivityLevelShowcase&#45;&gt;Ipv4NetworkConfigurator</title>
<path fill="none" stroke="black" d="M318.81,-54.98C306.67,-46.84 288.14,-34.41 273.75,-24.76"/>
<polygon fill="black" stroke="black" points="275.68,-21.84 265.42,-19.17 271.78,-27.65 275.68,-21.84"/>
</g>
<!-- IntegratedMultiVisualizer -->
<g id="node4" class="node">
<title>IntegratedMultiVisualizer</title>
<g id="a_node4"><a xlink:href="inet.visualizer.common.IntegratedMultiVisualizer.html" xlink:title="Compound Module IntegratedMultiVisualizer" target="_parent">
<polygon fill="#fffcaf" stroke="black" points="480.5,-19 340.5,-19 340.5,0 480.5,0 480.5,-19"/>
<text text-anchor="middle" x="410.5" y="-7" font-family="Helvetica,sans-Serif" font-size="10.00">IntegratedMultiVisualizer</text>
</a>
</g>
</g>
<!-- DataLinkVisualizerActivityLevelShowcase&#45;&gt;IntegratedMultiVisualizer -->
<g id="edge3" class="edge">
<title>DataLinkVisualizerActivityLevelShowcase&#45;&gt;IntegratedMultiVisualizer</title>
<path fill="none" stroke="black" d="M344.19,-54.98C356.33,-46.84 374.86,-34.41 389.25,-24.76"/>
<polygon fill="black" stroke="black" points="391.22,-27.65 397.58,-19.17 387.32,-21.84 391.22,-27.65"/>
</g>
<!-- AdhocHost -->
<g id="node5" class="node">
<title>AdhocHost</title>
<g id="a_node5"><a xlink:href="inet.node.inet.AdhocHost.html" xlink:title="Compound Module AdhocHost" target="_parent">
<polygon fill="#fffcaf" stroke="black" points="568,-19 499,-19 499,0 568,0 568,-19"/>
<text text-anchor="middle" x="533.5" y="-7" font-family="Helvetica,sans-Serif" font-size="10.00">AdhocHost</text>
</a>
</g>
</g>
<!-- DataLinkVisualizerActivityLevelShowcase&#45;&gt;AdhocHost -->
<g id="edge4" class="edge">
<title>DataLinkVisualizerActivityLevelShowcase&#45;&gt;AdhocHost</title>
<path fill="none" stroke="black" d="M363.95,-54.98C398.46,-45.93 453.16,-31.58 491.06,-21.64"/>
<polygon fill="black" stroke="black" points="492.01,-25.01 500.79,-19.08 490.23,-18.23 492.01,-25.01"/>
</g>
</g>
</svg>
