<?xml version="1.0" encoding="UTF-8" standalone="no"?>
<!DOCTYPE svg PUBLIC "-//W3C//DTD SVG 1.1//EN"
 "http://www.w3.org/Graphics/SVG/1.1/DTD/svg11.dtd">
<!-- Generated by graphviz version 2.43.0 (0)
 -->
<!-- Title: opp Pages: 1 -->
<svg width="554pt" height="82pt"
 viewBox="0.00 0.00 553.50 82.00" xmlns="http://www.w3.org/2000/svg" xmlns:xlink="http://www.w3.org/1999/xlink">
<g id="graph0" class="graph" transform="scale(1 1) rotate(0) translate(4 78)">
<title>opp</title>
<polygon fill="transparent" stroke="transparent" points="-4,4 -4,-78 549.5,-78 549.5,4 -4,4"/>
<!-- TC2 -->
<g id="node1" class="node">
<title>TC2</title>
<g id="a_node1"><a xlink:href="inet.examples.diffserv.onedomain.TC2.html" xlink:title="Compound Module TC2" target="_parent">
<polygon fill="#fff700" stroke="black" points="298,-74 244,-74 244,-55 298,-55 298,-74"/>
<text text-anchor="middle" x="271" y="-62" font-family="Helvetica,sans-Serif" font-size="10.00">TC2</text>
</a>
</g>
</g>
<!-- TokenBucketMeter -->
<g id="node2" class="node">
<title>TokenBucketMeter</title>
<g id="a_node2"><a xlink:href="inet.networklayer.diffserv.TokenBucketMeter.html" xlink:title="Simple Module TokenBucketMeter" target="_parent">
<polygon fill="#fffcaf" stroke="black" points="106,-19 0,-19 0,0 106,0 106,-19"/>
<text text-anchor="middle" x="53" y="-7" font-family="Helvetica,sans-Serif" font-size="10.00">TokenBucketMeter</text>
</a>
</g>
</g>
<!-- TC2&#45;&gt;TokenBucketMeter -->
<g id="edge1" class="edge">
<title>TC2&#45;&gt;TokenBucketMeter</title>
<path fill="none" stroke="black" d="M243.83,-56.89C207.3,-48.01 141.87,-32.11 97.94,-21.43"/>
<polygon fill="black" stroke="black" points="98.64,-17.99 88.09,-19.03 96.98,-24.8 98.64,-17.99"/>
</g>
<!-- DscpMarker -->
<g id="node3" class="node">
<title>DscpMarker</title>
<g id="a_node3"><a xlink:href="inet.networklayer.diffserv.DscpMarker.html" xlink:title="Simple Module DscpMarker" target="_parent">
<polygon fill="#fffcaf" stroke="black" points="198,-19 124,-19 124,0 198,0 198,-19"/>
<text text-anchor="middle" x="161" y="-7" font-family="Helvetica,sans-Serif" font-size="10.00">DscpMarker</text>
</a>
</g>
</g>
<!-- TC2&#45;&gt;DscpMarker -->
<g id="edge2" class="edge">
<title>TC2&#45;&gt;DscpMarker</title>
<path fill="none" stroke="black" d="M253.33,-54.98C235.71,-46.5 208.42,-33.35 188.07,-23.54"/>
<polygon fill="black" stroke="black" points="189.52,-20.36 178.99,-19.17 186.48,-26.66 189.52,-20.36"/>
</g>
<!-- MultiFieldClassifier -->
<g id="node4" class="node">
<title>MultiFieldClassifier</title>
<g id="a_node4"><a xlink:href="inet.networklayer.diffserv.MultiFieldClassifier.html" xlink:title="Simple Module MultiFieldClassifier" target="_parent">
<polygon fill="#fffcaf" stroke="black" points="326,-19 216,-19 216,0 326,0 326,-19"/>
<text text-anchor="middle" x="271" y="-7" font-family="Helvetica,sans-Serif" font-size="10.00">MultiFieldClassifier</text>
</a>
</g>
</g>
<!-- TC2&#45;&gt;MultiFieldClassifier -->
<g id="edge3" class="edge">
<title>TC2&#45;&gt;MultiFieldClassifier</title>
<path fill="none" stroke="black" d="M271,-54.75C271,-47.8 271,-37.85 271,-29.13"/>
<polygon fill="black" stroke="black" points="274.5,-29.09 271,-19.09 267.5,-29.09 274.5,-29.09"/>
</g>
<!-- IdealChannel -->
<g id="node5" class="node">
<title>IdealChannel</title>
<g id="a_node5"><a xlink:href="ned.IdealChannel.html" xlink:title="Channel IdealChannel" target="_parent">
<polygon fill="#d0ffd0" stroke="black" points="424,-19 344,-19 344,0 424,0 424,-19"/>
<text text-anchor="middle" x="384" y="-7" font-family="Helvetica,sans-Serif" font-size="10.00">IdealChannel</text>
</a>
</g>
</g>
<!-- TC2&#45;&gt;IdealChannel -->
<g id="edge4" class="edge">
<title>TC2&#45;&gt;IdealChannel</title>
<path fill="none" stroke="black" d="M289.16,-54.98C307.25,-46.5 335.28,-33.35 356.19,-23.54"/>
<polygon fill="black" stroke="black" points="357.95,-26.59 365.51,-19.17 354.97,-20.25 357.95,-26.59"/>
</g>
<!-- PacketMultiplexer -->
<g id="node6" class="node">
<title>PacketMultiplexer</title>
<g id="a_node6"><a xlink:href="inet.queueing.common.PacketMultiplexer.html" xlink:title="Simple Module PacketMultiplexer" target="_parent">
<polygon fill="#fffcaf" stroke="black" points="545.5,-19 442.5,-19 442.5,0 545.5,0 545.5,-19"/>
<text text-anchor="middle" x="494" y="-7" font-family="Helvetica,sans-Serif" font-size="10.00">PacketMultiplexer</text>
</a>
</g>
</g>
<!-- TC2&#45;&gt;PacketMultiplexer -->
<g id="edge5" class="edge">
<title>TC2&#45;&gt;PacketMultiplexer</title>
<path fill="none" stroke="black" d="M298.34,-57C335.65,-48.14 403,-32.13 448.11,-21.41"/>
<polygon fill="black" stroke="black" points="449.02,-24.79 457.94,-19.07 447.4,-17.98 449.02,-24.79"/>
</g>
</g>
</svg>
