<?xml version="1.0" encoding="UTF-8" standalone="no"?>
<!DOCTYPE svg PUBLIC "-//W3C//DTD SVG 1.1//EN"
 "http://www.w3.org/Graphics/SVG/1.1/DTD/svg11.dtd">
<!-- Generated by graphviz version 2.43.0 (0)
 -->
<!-- Title: opp Pages: 1 -->
<svg width="776pt" height="82pt"
 viewBox="0.00 0.00 776.00 82.00" xmlns="http://www.w3.org/2000/svg" xmlns:xlink="http://www.w3.org/1999/xlink">
<g id="graph0" class="graph" transform="scale(1 1) rotate(0) translate(4 78)">
<title>opp</title>
<polygon fill="transparent" stroke="transparent" points="-4,4 -4,-78 772,-78 772,4 -4,4"/>
<!-- PacketBasedTokenGeneratorTutorialStep -->
<g id="node1" class="node">
<title>PacketBasedTokenGeneratorTutorialStep</title>
<g id="a_node1"><a xlink:href="inet.tutorials.queueing.PacketBasedTokenGeneratorTutorialStep.html" xlink:title="Network PacketBasedTokenGeneratorTutorialStep" target="_parent">
<polygon fill="#9090ff" stroke="black" points="518,-74 306,-74 306,-55 518,-55 518,-74"/>
<text text-anchor="middle" x="412" y="-62" font-family="Helvetica,sans-Serif" font-size="10.00">PacketBasedTokenGeneratorTutorialStep</text>
</a>
</g>
</g>
<!-- PassivePacketSource -->
<g id="node2" class="node">
<title>PassivePacketSource</title>
<g id="a_node2"><a xlink:href="inet.queueing.source.PassivePacketSource.html" xlink:title="Simple Module PassivePacketSource" target="_parent">
<polygon fill="#fffcaf" stroke="black" points="118,-19 0,-19 0,0 118,0 118,-19"/>
<text text-anchor="middle" x="59" y="-7" font-family="Helvetica,sans-Serif" font-size="10.00">PassivePacketSource</text>
</a>
</g>
</g>
<!-- PacketBasedTokenGeneratorTutorialStep&#45;&gt;PassivePacketSource -->
<g id="edge1" class="edge">
<title>PacketBasedTokenGeneratorTutorialStep&#45;&gt;PassivePacketSource</title>
<path fill="none" stroke="black" d="M355.28,-54.98C292.72,-45.59 192.14,-30.49 125.8,-20.53"/>
<polygon fill="black" stroke="black" points="126.28,-17.06 115.87,-19.04 125.24,-23.98 126.28,-17.06"/>
</g>
<!-- TokenBasedServer -->
<g id="node3" class="node">
<title>TokenBasedServer</title>
<g id="a_node3"><a xlink:href="inet.queueing.server.TokenBasedServer.html" xlink:title="Simple Module TokenBasedServer" target="_parent">
<polygon fill="#fffcaf" stroke="black" points="242,-19 136,-19 136,0 242,0 242,-19"/>
<text text-anchor="middle" x="189" y="-7" font-family="Helvetica,sans-Serif" font-size="10.00">TokenBasedServer</text>
</a>
</g>
</g>
<!-- PacketBasedTokenGeneratorTutorialStep&#45;&gt;TokenBasedServer -->
<g id="edge2" class="edge">
<title>PacketBasedTokenGeneratorTutorialStep&#45;&gt;TokenBasedServer</title>
<path fill="none" stroke="black" d="M376.17,-54.98C337.84,-45.87 276.92,-31.4 235.05,-21.45"/>
<polygon fill="black" stroke="black" points="235.65,-17.99 225.11,-19.08 234.03,-24.8 235.65,-17.99"/>
</g>
<!-- PacketBasedTokenGenerator -->
<g id="node4" class="node">
<title>PacketBasedTokenGenerator</title>
<g id="a_node4"><a xlink:href="inet.queueing.tokengenerator.PacketBasedTokenGenerator.html" xlink:title="Simple Module PacketBasedTokenGenerator" target="_parent">
<polygon fill="#fffcaf" stroke="black" points="415.5,-19 260.5,-19 260.5,0 415.5,0 415.5,-19"/>
<text text-anchor="middle" x="338" y="-7" font-family="Helvetica,sans-Serif" font-size="10.00">PacketBasedTokenGenerator</text>
</a>
</g>
</g>
<!-- PacketBasedTokenGeneratorTutorialStep&#45;&gt;PacketBasedTokenGenerator -->
<g id="edge3" class="edge">
<title>PacketBasedTokenGeneratorTutorialStep&#45;&gt;PacketBasedTokenGenerator</title>
<path fill="none" stroke="black" d="M400.11,-54.98C388.85,-46.92 371.71,-34.65 358.29,-25.03"/>
<polygon fill="black" stroke="black" points="360.27,-22.15 350.11,-19.17 356.2,-27.84 360.27,-22.15"/>
</g>
<!-- PassivePacketSink -->
<g id="node5" class="node">
<title>PassivePacketSink</title>
<g id="a_node5"><a xlink:href="inet.queueing.sink.PassivePacketSink.html" xlink:title="Simple Module PassivePacketSink" target="_parent">
<polygon fill="#fffcaf" stroke="black" points="540,-19 434,-19 434,0 540,0 540,-19"/>
<text text-anchor="middle" x="487" y="-7" font-family="Helvetica,sans-Serif" font-size="10.00">PassivePacketSink</text>
</a>
</g>
</g>
<!-- PacketBasedTokenGeneratorTutorialStep&#45;&gt;PassivePacketSink -->
<g id="edge4" class="edge">
<title>PacketBasedTokenGeneratorTutorialStep&#45;&gt;PassivePacketSink</title>
<path fill="none" stroke="black" d="M424.05,-54.98C435.46,-46.92 452.83,-34.65 466.43,-25.03"/>
<polygon fill="black" stroke="black" points="468.58,-27.8 474.73,-19.17 464.54,-22.08 468.58,-27.8"/>
</g>
<!-- IdealChannel -->
<g id="node6" class="node">
<title>IdealChannel</title>
<g id="a_node6"><a xlink:href="ned.IdealChannel.html" xlink:title="Channel IdealChannel" target="_parent">
<polygon fill="#d0ffd0" stroke="black" points="638,-19 558,-19 558,0 638,0 638,-19"/>
<text text-anchor="middle" x="598" y="-7" font-family="Helvetica,sans-Serif" font-size="10.00">IdealChannel</text>
</a>
</g>
</g>
<!-- PacketBasedTokenGeneratorTutorialStep&#45;&gt;IdealChannel -->
<g id="edge5" class="edge">
<title>PacketBasedTokenGeneratorTutorialStep&#45;&gt;IdealChannel</title>
<path fill="none" stroke="black" d="M441.88,-54.98C473.38,-46.01 523.17,-31.82 558.03,-21.89"/>
<polygon fill="black" stroke="black" points="559.22,-25.19 567.88,-19.08 557.31,-18.46 559.22,-25.19"/>
</g>
<!-- ActivePacketSource -->
<g id="node7" class="node">
<title>ActivePacketSource</title>
<g id="a_node7"><a xlink:href="inet.queueing.source.ActivePacketSource.html" xlink:title="Simple Module ActivePacketSource" target="_parent">
<polygon fill="#fffcaf" stroke="black" points="768,-19 656,-19 656,0 768,0 768,-19"/>
<text text-anchor="middle" x="712" y="-7" font-family="Helvetica,sans-Serif" font-size="10.00">ActivePacketSource</text>
</a>
</g>
</g>
<!-- PacketBasedTokenGeneratorTutorialStep&#45;&gt;ActivePacketSource -->
<g id="edge6" class="edge">
<title>PacketBasedTokenGeneratorTutorialStep&#45;&gt;ActivePacketSource</title>
<path fill="none" stroke="black" d="M460.2,-54.98C512.75,-45.7 596.85,-30.84 653.23,-20.88"/>
<polygon fill="black" stroke="black" points="654.18,-24.27 663.42,-19.08 652.97,-17.38 654.18,-24.27"/>
</g>
</g>
</svg>
