<?xml version="1.0" encoding="UTF-8" standalone="no"?>
<!DOCTYPE svg PUBLIC "-//W3C//DTD SVG 1.1//EN"
 "http://www.w3.org/Graphics/SVG/1.1/DTD/svg11.dtd">
<!-- Generated by graphviz version 2.43.0 (0)
 -->
<!-- Title: opp Pages: 1 -->
<svg width="612pt" height="82pt"
 viewBox="0.00 0.00 611.50 82.00" xmlns="http://www.w3.org/2000/svg" xmlns:xlink="http://www.w3.org/1999/xlink">
<g id="graph0" class="graph" transform="scale(1 1) rotate(0) translate(4 78)">
<title>opp</title>
<polygon fill="transparent" stroke="transparent" points="-4,4 -4,-78 607.5,-78 607.5,4 -4,4"/>
<!-- GatingPriorityQueue -->
<g id="node1" class="node">
<title>GatingPriorityQueue</title>
<g id="a_node1"><a xlink:href="inet.queueing.queue.GatingPriorityQueue.html" xlink:title="Compound Module GatingPriorityQueue" target="_parent">
<polygon fill="#fff700" stroke="black" points="354,-74 238,-74 238,-55 354,-55 354,-74"/>
<text text-anchor="middle" x="296" y="-62" font-family="Helvetica,sans-Serif" font-size="10.00">GatingPriorityQueue</text>
</a>
</g>
</g>
<!-- IPacketClassifier -->
<g id="node2" class="node">
<title>IPacketClassifier</title>
<g id="a_node2"><a xlink:href="inet.queueing.contract.IPacketClassifier.html" xlink:title="Module Interface IPacketClassifier" target="_parent">
<polygon fill="#fffcaf" stroke="black" stroke-dasharray="5,2" points="96,-19 0,-19 0,0 96,0 96,-19"/>
<text text-anchor="middle" x="48" y="-7" font-family="Helvetica,sans-Serif" font-size="10.00">IPacketClassifier</text>
</a>
</g>
</g>
<!-- GatingPriorityQueue&#45;&gt;IPacketClassifier -->
<g id="edge1" class="edge">
<title>GatingPriorityQueue&#45;&gt;IPacketClassifier</title>
<path fill="none" stroke="black" d="M256.15,-54.98C213.17,-45.8 144.63,-31.15 98.04,-21.19"/>
<polygon fill="black" stroke="black" points="98.67,-17.75 88.16,-19.08 97.21,-24.59 98.67,-17.75"/>
</g>
<!-- IPacketGate -->
<g id="node3" class="node">
<title>IPacketGate</title>
<g id="a_node3"><a xlink:href="inet.queueing.contract.IPacketGate.html" xlink:title="Module Interface IPacketGate" target="_parent">
<polygon fill="#fffcaf" stroke="black" stroke-dasharray="5,2" points="188,-19 114,-19 114,0 188,0 188,-19"/>
<text text-anchor="middle" x="151" y="-7" font-family="Helvetica,sans-Serif" font-size="10.00">IPacketGate</text>
</a>
</g>
</g>
<!-- GatingPriorityQueue&#45;&gt;IPacketGate -->
<g id="edge2" class="edge">
<title>GatingPriorityQueue&#45;&gt;IPacketGate</title>
<path fill="none" stroke="black" d="M272.7,-54.98C248.75,-46.23 211.22,-32.51 184.17,-22.62"/>
<polygon fill="black" stroke="black" points="185.31,-19.32 174.72,-19.17 182.91,-25.89 185.31,-19.32"/>
</g>
<!-- IPacketBuffer -->
<g id="node4" class="node">
<title>IPacketBuffer</title>
<g id="a_node4"><a xlink:href="inet.queueing.contract.IPacketBuffer.html" xlink:title="Module Interface IPacketBuffer" target="_parent">
<polygon fill="#fffcaf" stroke="black" stroke-dasharray="5,2" points="286,-19 206,-19 206,0 286,0 286,-19"/>
<text text-anchor="middle" x="246" y="-7" font-family="Helvetica,sans-Serif" font-size="10.00">IPacketBuffer</text>
</a>
</g>
</g>
<!-- GatingPriorityQueue&#45;&gt;IPacketBuffer -->
<g id="edge3" class="edge">
<title>GatingPriorityQueue&#45;&gt;IPacketBuffer</title>
<path fill="none" stroke="black" d="M287.74,-54.75C280.54,-47.11 269.89,-35.82 261.15,-26.56"/>
<polygon fill="black" stroke="black" points="263.51,-23.96 254.1,-19.09 258.42,-28.76 263.51,-23.96"/>
</g>
<!-- IPacketQueue -->
<g id="node5" class="node">
<title>IPacketQueue</title>
<g id="a_node5"><a xlink:href="inet.queueing.contract.IPacketQueue.html" xlink:title="Module Interface IPacketQueue" target="_parent">
<polygon fill="#fffcaf" stroke="black" stroke-dasharray="5,2" points="387.5,-19 304.5,-19 304.5,0 387.5,0 387.5,-19"/>
<text text-anchor="middle" x="346" y="-7" font-family="Helvetica,sans-Serif" font-size="10.00">IPacketQueue</text>
</a>
</g>
</g>
<!-- GatingPriorityQueue&#45;&gt;IPacketQueue -->
<g id="edge4" class="edge">
<title>GatingPriorityQueue&#45;&gt;IPacketQueue</title>
<path fill="none" stroke="black" d="M304.26,-54.75C311.46,-47.11 322.11,-35.82 330.85,-26.56"/>
<polygon fill="black" stroke="black" points="333.58,-28.76 337.9,-19.09 328.49,-23.96 333.58,-28.76"/>
</g>
<!-- IdealChannel -->
<g id="node6" class="node">
<title>IdealChannel</title>
<g id="a_node6"><a xlink:href="ned.IdealChannel.html" xlink:title="Channel IdealChannel" target="_parent">
<polygon fill="#d0ffd0" stroke="black" points="486,-19 406,-19 406,0 486,0 486,-19"/>
<text text-anchor="middle" x="446" y="-7" font-family="Helvetica,sans-Serif" font-size="10.00">IdealChannel</text>
</a>
</g>
</g>
<!-- GatingPriorityQueue&#45;&gt;IdealChannel -->
<g id="edge5" class="edge">
<title>GatingPriorityQueue&#45;&gt;IdealChannel</title>
<path fill="none" stroke="black" d="M320.1,-54.98C344.88,-46.23 383.7,-32.51 411.69,-22.62"/>
<polygon fill="black" stroke="black" points="413.2,-25.8 421.46,-19.17 410.87,-19.2 413.2,-25.8"/>
</g>
<!-- IPacketScheduler -->
<g id="node7" class="node">
<title>IPacketScheduler</title>
<g id="a_node7"><a xlink:href="inet.queueing.contract.IPacketScheduler.html" xlink:title="Module Interface IPacketScheduler" target="_parent">
<polygon fill="#fffcaf" stroke="black" stroke-dasharray="5,2" points="603.5,-19 504.5,-19 504.5,0 603.5,0 603.5,-19"/>
<text text-anchor="middle" x="554" y="-7" font-family="Helvetica,sans-Serif" font-size="10.00">IPacketScheduler</text>
</a>
</g>
</g>
<!-- GatingPriorityQueue&#45;&gt;IPacketScheduler -->
<g id="edge6" class="edge">
<title>GatingPriorityQueue&#45;&gt;IPacketScheduler</title>
<path fill="none" stroke="black" d="M337.45,-54.98C382.27,-45.78 453.77,-31.09 502.25,-21.13"/>
<polygon fill="black" stroke="black" points="503.13,-24.52 512.22,-19.08 501.72,-17.67 503.13,-24.52"/>
</g>
</g>
</svg>
