<?xml version="1.0" encoding="UTF-8" standalone="no"?>
<!DOCTYPE svg PUBLIC "-//W3C//DTD SVG 1.1//EN"
 "http://www.w3.org/Graphics/SVG/1.1/DTD/svg11.dtd">
<!-- Generated by graphviz version 2.43.0 (0)
 -->
<!-- Title: opp Pages: 1 -->
<svg width="478pt" height="82pt"
 viewBox="0.00 0.00 477.50 82.00" xmlns="http://www.w3.org/2000/svg" xmlns:xlink="http://www.w3.org/1999/xlink">
<g id="graph0" class="graph" transform="scale(1 1) rotate(0) translate(4 78)">
<title>opp</title>
<polygon fill="transparent" stroke="transparent" points="-4,4 -4,-78 473.5,-78 473.5,4 -4,4"/>
<!-- ContentBasedTaggerTutorialStep -->
<g id="node1" class="node">
<title>ContentBasedTaggerTutorialStep</title>
<g id="a_node1"><a xlink:href="inet.tutorials.queueing.ContentBasedTaggerTutorialStep.html" xlink:title="Network ContentBasedTaggerTutorialStep" target="_parent">
<polygon fill="#9090ff" stroke="black" points="331,-74 156,-74 156,-55 331,-55 331,-74"/>
<text text-anchor="middle" x="243.5" y="-62" font-family="Helvetica,sans-Serif" font-size="10.00">ContentBasedTaggerTutorialStep</text>
</a>
</g>
</g>
<!-- ContentBasedTagger -->
<g id="node2" class="node">
<title>ContentBasedTagger</title>
<g id="a_node2"><a xlink:href="inet.queueing.marker.ContentBasedTagger.html" xlink:title="Simple Module ContentBasedTagger" target="_parent">
<polygon fill="#fffcaf" stroke="black" points="117,-19 0,-19 0,0 117,0 117,-19"/>
<text text-anchor="middle" x="58.5" y="-7" font-family="Helvetica,sans-Serif" font-size="10.00">ContentBasedTagger</text>
</a>
</g>
</g>
<!-- ContentBasedTaggerTutorialStep&#45;&gt;ContentBasedTagger -->
<g id="edge1" class="edge">
<title>ContentBasedTaggerTutorialStep&#45;&gt;ContentBasedTagger</title>
<path fill="none" stroke="black" d="M213.78,-54.98C182.45,-46.01 132.93,-31.82 98.26,-21.89"/>
<polygon fill="black" stroke="black" points="99.03,-18.47 88.46,-19.08 97.11,-25.2 99.03,-18.47"/>
</g>
<!-- PassivePacketSink -->
<g id="node3" class="node">
<title>PassivePacketSink</title>
<g id="a_node3"><a xlink:href="inet.queueing.sink.PassivePacketSink.html" xlink:title="Simple Module PassivePacketSink" target="_parent">
<polygon fill="#fffcaf" stroke="black" points="241.5,-19 135.5,-19 135.5,0 241.5,0 241.5,-19"/>
<text text-anchor="middle" x="188.5" y="-7" font-family="Helvetica,sans-Serif" font-size="10.00">PassivePacketSink</text>
</a>
</g>
</g>
<!-- ContentBasedTaggerTutorialStep&#45;&gt;PassivePacketSink -->
<g id="edge2" class="edge">
<title>ContentBasedTaggerTutorialStep&#45;&gt;PassivePacketSink</title>
<path fill="none" stroke="black" d="M234.42,-54.75C226.41,-47.03 214.54,-35.6 204.88,-26.28"/>
<polygon fill="black" stroke="black" points="207.04,-23.51 197.41,-19.09 202.19,-28.55 207.04,-23.51"/>
</g>
<!-- IdealChannel -->
<g id="node4" class="node">
<title>IdealChannel</title>
<g id="a_node4"><a xlink:href="ned.IdealChannel.html" xlink:title="Channel IdealChannel" target="_parent">
<polygon fill="#d0ffd0" stroke="black" points="339.5,-19 259.5,-19 259.5,0 339.5,0 339.5,-19"/>
<text text-anchor="middle" x="299.5" y="-7" font-family="Helvetica,sans-Serif" font-size="10.00">IdealChannel</text>
</a>
</g>
</g>
<!-- ContentBasedTaggerTutorialStep&#45;&gt;IdealChannel -->
<g id="edge3" class="edge">
<title>ContentBasedTaggerTutorialStep&#45;&gt;IdealChannel</title>
<path fill="none" stroke="black" d="M252.5,-54.98C260.69,-47.23 273.01,-35.58 282.97,-26.14"/>
<polygon fill="black" stroke="black" points="285.48,-28.59 290.34,-19.17 280.67,-23.5 285.48,-28.59"/>
</g>
<!-- ActivePacketSource -->
<g id="node5" class="node">
<title>ActivePacketSource</title>
<g id="a_node5"><a xlink:href="inet.queueing.source.ActivePacketSource.html" xlink:title="Simple Module ActivePacketSource" target="_parent">
<polygon fill="#fffcaf" stroke="black" points="469.5,-19 357.5,-19 357.5,0 469.5,0 469.5,-19"/>
<text text-anchor="middle" x="413.5" y="-7" font-family="Helvetica,sans-Serif" font-size="10.00">ActivePacketSource</text>
</a>
</g>
</g>
<!-- ContentBasedTaggerTutorialStep&#45;&gt;ActivePacketSource -->
<g id="edge4" class="edge">
<title>ContentBasedTaggerTutorialStep&#45;&gt;ActivePacketSource</title>
<path fill="none" stroke="black" d="M270.81,-54.98C299.35,-46.09 344.33,-32.07 376.14,-22.15"/>
<polygon fill="black" stroke="black" points="377.47,-25.4 385.97,-19.08 375.38,-18.72 377.47,-25.4"/>
</g>
</g>
</svg>
