<?xml version="1.0" encoding="UTF-8" standalone="no"?>
<!DOCTYPE svg PUBLIC "-//W3C//DTD SVG 1.1//EN"
 "http://www.w3.org/Graphics/SVG/1.1/DTD/svg11.dtd">
<!-- Generated by graphviz version 2.43.0 (0)
 -->
<!-- Title: opp Pages: 1 -->
<svg width="196pt" height="82pt"
 viewBox="0.00 0.00 195.50 82.00" xmlns="http://www.w3.org/2000/svg" xmlns:xlink="http://www.w3.org/1999/xlink">
<g id="graph0" class="graph" transform="scale(1 1) rotate(0) translate(4 78)">
<title>opp</title>
<polygon fill="transparent" stroke="transparent" points="-4,4 -4,-78 191.5,-78 191.5,4 -4,4"/>
<!-- ProcessingDelayLayer -->
<g id="node1" class="node">
<title>ProcessingDelayLayer</title>
<g id="a_node1"><a xlink:href="inet.protocolelement.processing.ProcessingDelayLayer.html" xlink:title="Compound Module ProcessingDelayLayer" target="_parent">
<polygon fill="#fff700" stroke="black" points="158,-74 33,-74 33,-55 158,-55 158,-74"/>
<text text-anchor="middle" x="95.5" y="-62" font-family="Helvetica,sans-Serif" font-size="10.00">ProcessingDelayLayer</text>
</a>
</g>
</g>
<!-- IPacketDelayer -->
<g id="node2" class="node">
<title>IPacketDelayer</title>
<g id="a_node2"><a xlink:href="inet.queueing.contract.IPacketDelayer.html" xlink:title="Module Interface IPacketDelayer" target="_parent">
<polygon fill="#fffcaf" stroke="black" stroke-dasharray="5,2" points="89,-19 0,-19 0,0 89,0 89,-19"/>
<text text-anchor="middle" x="44.5" y="-7" font-family="Helvetica,sans-Serif" font-size="10.00">IPacketDelayer</text>
</a>
</g>
</g>
<!-- ProcessingDelayLayer&#45;&gt;IPacketDelayer -->
<g id="edge1" class="edge">
<title>ProcessingDelayLayer&#45;&gt;IPacketDelayer</title>
<path fill="none" stroke="black" d="M87.08,-54.75C79.73,-47.11 68.87,-35.82 59.96,-26.56"/>
<polygon fill="black" stroke="black" points="62.22,-23.87 52.76,-19.09 57.18,-28.72 62.22,-23.87"/>
</g>
<!-- IdealChannel -->
<g id="node3" class="node">
<title>IdealChannel</title>
<g id="a_node3"><a xlink:href="ned.IdealChannel.html" xlink:title="Channel IdealChannel" target="_parent">
<polygon fill="#d0ffd0" stroke="black" points="187.5,-19 107.5,-19 107.5,0 187.5,0 187.5,-19"/>
<text text-anchor="middle" x="147.5" y="-7" font-family="Helvetica,sans-Serif" font-size="10.00">IdealChannel</text>
</a>
</g>
</g>
<!-- ProcessingDelayLayer&#45;&gt;IdealChannel -->
<g id="edge2" class="edge">
<title>ProcessingDelayLayer&#45;&gt;IdealChannel</title>
<path fill="none" stroke="black" d="M104.09,-54.75C111.66,-47.03 122.88,-35.6 132.01,-26.28"/>
<polygon fill="black" stroke="black" points="134.57,-28.68 139.07,-19.09 129.57,-23.78 134.57,-28.68"/>
</g>
</g>
</svg>
