<?xml version="1.0" encoding="UTF-8" standalone="no"?>
<!DOCTYPE svg PUBLIC "-//W3C//DTD SVG 1.1//EN"
 "http://www.w3.org/Graphics/SVG/1.1/DTD/svg11.dtd">
<!-- Generated by graphviz version 2.43.0 (0)
 -->
<!-- Title: opp Pages: 1 -->
<svg width="246pt" height="82pt"
 viewBox="0.00 0.00 246.00 82.00" xmlns="http://www.w3.org/2000/svg" xmlns:xlink="http://www.w3.org/1999/xlink">
<g id="graph0" class="graph" transform="scale(1 1) rotate(0) translate(4 78)">
<title>opp</title>
<polygon fill="transparent" stroke="transparent" points="-4,4 -4,-78 242,-78 242,4 -4,4"/>
<!-- IRadioVisualizer -->
<g id="node1" class="node">
<title>IRadioVisualizer</title>
<g id="a_node1"><a xlink:href="inet.visualizer.contract.IRadioVisualizer.html" xlink:title="Module Interface IRadioVisualizer" target="_parent">
<polygon fill="#fff700" stroke="black" stroke-dasharray="5,2" points="175.5,-74 80.5,-74 80.5,-55 175.5,-55 175.5,-74"/>
<text text-anchor="middle" x="128" y="-62" font-family="Helvetica,sans-Serif" font-size="10.00">IRadioVisualizer</text>
</a>
</g>
</g>
<!-- RadioCanvasVisualizer -->
<g id="node2" class="node">
<title>RadioCanvasVisualizer</title>
<g id="a_node2"><a xlink:href="inet.visualizer.canvas.physicallayer.RadioCanvasVisualizer.html" xlink:title="Simple Module RadioCanvasVisualizer" target="_parent">
<polygon fill="#fffcaf" stroke="black" points="128,-19 0,-19 0,0 128,0 128,-19"/>
<text text-anchor="middle" x="64" y="-7" font-family="Helvetica,sans-Serif" font-size="10.00">RadioCanvasVisualizer</text>
</a>
</g>
</g>
<!-- IRadioVisualizer&#45;&gt;RadioCanvasVisualizer -->
<g id="edge1" class="edge">
<title>IRadioVisualizer&#45;&gt;RadioCanvasVisualizer</title>
<path fill="none" stroke="black" stroke-dasharray="5,2" d="M117.72,-54.98C105.84,-45.15 86.42,-29.07 74.47,-19.17"/>
</g>
<!-- RadioVisualizer -->
<g id="node3" class="node">
<title>RadioVisualizer</title>
<g id="a_node3"><a xlink:href="inet.visualizer.common.RadioVisualizer.html" xlink:title="Compound Module RadioVisualizer" target="_parent">
<polygon fill="#fffcaf" stroke="black" points="238,-19 146,-19 146,0 238,0 238,-19"/>
<text text-anchor="middle" x="192" y="-7" font-family="Helvetica,sans-Serif" font-size="10.00">RadioVisualizer</text>
</a>
</g>
</g>
<!-- IRadioVisualizer&#45;&gt;RadioVisualizer -->
<g id="edge2" class="edge">
<title>IRadioVisualizer&#45;&gt;RadioVisualizer</title>
<path fill="none" stroke="black" stroke-dasharray="5,2" d="M138.28,-54.98C150.16,-45.15 169.58,-29.07 181.53,-19.17"/>
</g>
</g>
</svg>
