<?xml version="1.0" encoding="UTF-8" standalone="no"?>
<!DOCTYPE svg PUBLIC "-//W3C//DTD SVG 1.1//EN"
 "http://www.w3.org/Graphics/SVG/1.1/DTD/svg11.dtd">
<!-- Generated by graphviz version 2.43.0 (0)
 -->
<!-- Title: opp Pages: 1 -->
<svg width="512pt" height="82pt"
 viewBox="0.00 0.00 512.00 82.00" xmlns="http://www.w3.org/2000/svg" xmlns:xlink="http://www.w3.org/1999/xlink">
<g id="graph0" class="graph" transform="scale(1 1) rotate(0) translate(4 78)">
<title>opp</title>
<polygon fill="transparent" stroke="transparent" points="-4,4 -4,-78 508,-78 508,4 -4,4"/>
<!-- WirelessInterface -->
<g id="node1" class="node">
<title>WirelessInterface</title>
<g id="a_node1"><a xlink:href="inet.linklayer.common.WirelessInterface.html" xlink:title="Compound Module WirelessInterface" target="_parent">
<polygon fill="#fff700" stroke="black" points="328,-74 226,-74 226,-55 328,-55 328,-74"/>
<text text-anchor="middle" x="277" y="-62" font-family="Helvetica,sans-Serif" font-size="10.00">WirelessInterface</text>
</a>
</g>
</g>
<!-- IMacProtocol -->
<g id="node2" class="node">
<title>IMacProtocol</title>
<g id="a_node2"><a xlink:href="inet.linklayer.contract.IMacProtocol.html" xlink:title="Module Interface IMacProtocol" target="_parent">
<polygon fill="#fffcaf" stroke="black" stroke-dasharray="5,2" points="80,-19 0,-19 0,0 80,0 80,-19"/>
<text text-anchor="middle" x="40" y="-7" font-family="Helvetica,sans-Serif" font-size="10.00">IMacProtocol</text>
</a>
</g>
</g>
<!-- WirelessInterface&#45;&gt;IMacProtocol -->
<g id="edge1" class="edge">
<title>WirelessInterface&#45;&gt;IMacProtocol</title>
<path fill="none" stroke="black" d="M238.92,-54.98C198.01,-45.84 132.89,-31.27 88.38,-21.32"/>
<polygon fill="black" stroke="black" points="88.9,-17.85 78.38,-19.08 87.37,-24.68 88.9,-17.85"/>
</g>
<!-- IIeee8021dQosClassifier -->
<g id="node3" class="node">
<title>IIeee8021dQosClassifier</title>
<g id="a_node3"><a xlink:href="inet.linklayer.common.IIeee8021dQosClassifier.html" xlink:title="Module Interface IIeee8021dQosClassifier" target="_parent">
<polygon fill="#fffcaf" stroke="black" stroke-dasharray="5,2" points="232,-19 98,-19 98,0 232,0 232,-19"/>
<text text-anchor="middle" x="165" y="-7" font-family="Helvetica,sans-Serif" font-size="10.00">IIeee8021dQosClassifier</text>
</a>
</g>
</g>
<!-- WirelessInterface&#45;&gt;IIeee8021dQosClassifier -->
<g id="edge2" class="edge">
<title>WirelessInterface&#45;&gt;IIeee8021dQosClassifier</title>
<path fill="none" stroke="black" d="M259.01,-54.98C241.07,-46.5 213.28,-33.35 192.57,-23.54"/>
<polygon fill="black" stroke="black" points="193.86,-20.28 183.32,-19.17 190.86,-26.61 193.86,-20.28"/>
</g>
<!-- IRadio -->
<g id="node4" class="node">
<title>IRadio</title>
<g id="a_node4"><a xlink:href="inet.physicallayer.wireless.common.contract.packetlevel.IRadio.html" xlink:title="Module Interface IRadio" target="_parent">
<polygon fill="#fffcaf" stroke="black" stroke-dasharray="5,2" points="304,-19 250,-19 250,0 304,0 304,-19"/>
<text text-anchor="middle" x="277" y="-7" font-family="Helvetica,sans-Serif" font-size="10.00">IRadio</text>
</a>
</g>
</g>
<!-- WirelessInterface&#45;&gt;IRadio -->
<g id="edge3" class="edge">
<title>WirelessInterface&#45;&gt;IRadio</title>
<path fill="none" stroke="black" d="M277,-54.75C277,-47.8 277,-37.85 277,-29.13"/>
<polygon fill="black" stroke="black" points="280.5,-29.09 277,-19.09 273.5,-29.09 280.5,-29.09"/>
</g>
<!-- IPacketQueue -->
<g id="node5" class="node">
<title>IPacketQueue</title>
<g id="a_node5"><a xlink:href="inet.queueing.contract.IPacketQueue.html" xlink:title="Module Interface IPacketQueue" target="_parent">
<polygon fill="#fffcaf" stroke="black" stroke-dasharray="5,2" points="405.5,-19 322.5,-19 322.5,0 405.5,0 405.5,-19"/>
<text text-anchor="middle" x="364" y="-7" font-family="Helvetica,sans-Serif" font-size="10.00">IPacketQueue</text>
</a>
</g>
</g>
<!-- WirelessInterface&#45;&gt;IPacketQueue -->
<g id="edge4" class="edge">
<title>WirelessInterface&#45;&gt;IPacketQueue</title>
<path fill="none" stroke="black" d="M290.98,-54.98C304.47,-46.77 325.13,-34.18 341.04,-24.49"/>
<polygon fill="black" stroke="black" points="343.05,-27.36 349.77,-19.17 339.41,-21.38 343.05,-27.36"/>
</g>
<!-- IdealChannel -->
<g id="node6" class="node">
<title>IdealChannel</title>
<g id="a_node6"><a xlink:href="ned.IdealChannel.html" xlink:title="Channel IdealChannel" target="_parent">
<polygon fill="#d0ffd0" stroke="black" points="504,-19 424,-19 424,0 504,0 504,-19"/>
<text text-anchor="middle" x="464" y="-7" font-family="Helvetica,sans-Serif" font-size="10.00">IdealChannel</text>
</a>
</g>
</g>
<!-- WirelessInterface&#45;&gt;IdealChannel -->
<g id="edge5" class="edge">
<title>WirelessInterface&#45;&gt;IdealChannel</title>
<path fill="none" stroke="black" d="M307.04,-54.98C338.71,-46.01 388.77,-31.82 423.81,-21.89"/>
<polygon fill="black" stroke="black" points="425.05,-25.18 433.72,-19.08 423.14,-18.44 425.05,-25.18"/>
</g>
</g>
</svg>
