<?xml version="1.0" encoding="UTF-8" standalone="no"?>
<!DOCTYPE svg PUBLIC "-//W3C//DTD SVG 1.1//EN"
 "http://www.w3.org/Graphics/SVG/1.1/DTD/svg11.dtd">
<!-- Generated by graphviz version 2.43.0 (0)
 -->
<!-- Title: opp Pages: 1 -->
<svg width="370pt" height="82pt"
 viewBox="0.00 0.00 370.00 82.00" xmlns="http://www.w3.org/2000/svg" xmlns:xlink="http://www.w3.org/1999/xlink">
<g id="graph0" class="graph" transform="scale(1 1) rotate(0) translate(4 78)">
<title>opp</title>
<polygon fill="transparent" stroke="transparent" points="-4,4 -4,-78 366,-78 366,4 -4,4"/>
<!-- RTPMulticast1 -->
<g id="node1" class="node">
<title>RTPMulticast1</title>
<g id="a_node1"><a xlink:href="inet.examples.rtp.multicast1.RTPMulticast1.html" xlink:title="Network RTPMulticast1" target="_parent">
<polygon fill="#9090ff" stroke="black" points="205,-74 119,-74 119,-55 205,-55 205,-74"/>
<text text-anchor="middle" x="162" y="-62" font-family="Helvetica,sans-Serif" font-size="10.00">RTPMulticast1</text>
</a>
</g>
</g>
<!-- ethernet -->
<g id="node2" class="node">
<title>ethernet</title>
<g id="a_node2"><a xlink:href="inet.examples.rtp.multicast1.RTPMulticast1.ethernet.html" xlink:title="Channel ethernet" target="_parent">
<polygon fill="#d0ffd0" stroke="black" points="58,-19 0,-19 0,0 58,0 58,-19"/>
<text text-anchor="middle" x="29" y="-7" font-family="Helvetica,sans-Serif" font-size="10.00">ethernet</text>
</a>
</g>
</g>
<!-- RTPMulticast1&#45;&gt;ethernet -->
<g id="edge1" class="edge">
<title>RTPMulticast1&#45;&gt;ethernet</title>
<path fill="none" stroke="black" d="M140.63,-54.98C118.85,-46.3 84.84,-32.75 60.08,-22.88"/>
<polygon fill="black" stroke="black" points="61.34,-19.62 50.76,-19.17 58.75,-26.12 61.34,-19.62"/>
</g>
<!-- RtpHost -->
<g id="node3" class="node">
<title>RtpHost</title>
<g id="a_node3"><a xlink:href="inet.node.rtp.RtpHost.html" xlink:title="Compound Module RtpHost" target="_parent">
<polygon fill="#fffcaf" stroke="black" points="132,-19 76,-19 76,0 132,0 132,-19"/>
<text text-anchor="middle" x="104" y="-7" font-family="Helvetica,sans-Serif" font-size="10.00">RtpHost</text>
</a>
</g>
</g>
<!-- RTPMulticast1&#45;&gt;RtpHost -->
<g id="edge2" class="edge">
<title>RTPMulticast1&#45;&gt;RtpHost</title>
<path fill="none" stroke="black" d="M152.68,-54.98C144.19,-47.23 131.44,-35.58 121.12,-26.14"/>
<polygon fill="black" stroke="black" points="123.23,-23.33 113.49,-19.17 118.51,-28.5 123.23,-23.33"/>
</g>
<!-- Ipv4NetworkConfigurator -->
<g id="node4" class="node">
<title>Ipv4NetworkConfigurator</title>
<g id="a_node4"><a xlink:href="inet.networklayer.configurator.ipv4.Ipv4NetworkConfigurator.html" xlink:title="Simple Module Ipv4NetworkConfigurator" target="_parent">
<polygon fill="#fffcaf" stroke="black" points="289.5,-19 150.5,-19 150.5,0 289.5,0 289.5,-19"/>
<text text-anchor="middle" x="220" y="-7" font-family="Helvetica,sans-Serif" font-size="10.00">Ipv4NetworkConfigurator</text>
</a>
</g>
</g>
<!-- RTPMulticast1&#45;&gt;Ipv4NetworkConfigurator -->
<g id="edge3" class="edge">
<title>RTPMulticast1&#45;&gt;Ipv4NetworkConfigurator</title>
<path fill="none" stroke="black" d="M171.32,-54.98C179.81,-47.23 192.56,-35.58 202.88,-26.14"/>
<polygon fill="black" stroke="black" points="205.49,-28.5 210.51,-19.17 200.77,-23.33 205.49,-28.5"/>
</g>
<!-- Router -->
<g id="node5" class="node">
<title>Router</title>
<g id="a_node5"><a xlink:href="inet.node.inet.Router.html" xlink:title="Compound Module Router" target="_parent">
<polygon fill="#fffcaf" stroke="black" points="362,-19 308,-19 308,0 362,0 362,-19"/>
<text text-anchor="middle" x="335" y="-7" font-family="Helvetica,sans-Serif" font-size="10.00">Router</text>
</a>
</g>
</g>
<!-- RTPMulticast1&#45;&gt;Router -->
<g id="edge4" class="edge">
<title>RTPMulticast1&#45;&gt;Router</title>
<path fill="none" stroke="black" d="M189.8,-54.98C219.23,-45.97 265.82,-31.69 298.26,-21.75"/>
<polygon fill="black" stroke="black" points="299.31,-25.1 307.84,-18.82 297.26,-18.4 299.31,-25.1"/>
</g>
</g>
</svg>
