<?xml version="1.0" encoding="UTF-8" standalone="no"?>
<!DOCTYPE svg PUBLIC "-//W3C//DTD SVG 1.1//EN"
 "http://www.w3.org/Graphics/SVG/1.1/DTD/svg11.dtd">
<!-- Generated by graphviz version 2.43.0 (0)
 -->
<!-- Title: opp Pages: 1 -->
<svg width="152pt" height="137pt"
 viewBox="0.00 0.00 152.00 137.00" xmlns="http://www.w3.org/2000/svg" xmlns:xlink="http://www.w3.org/1999/xlink">
<g id="graph0" class="graph" transform="scale(1 1) rotate(0) translate(4 133)">
<title>opp</title>
<polygon fill="transparent" stroke="transparent" points="-4,4 -4,-133 148,-133 148,4 -4,4"/>
<!-- DataLinkVisualizerBase -->
<g id="node1" class="node">
<title>DataLinkVisualizerBase</title>
<g id="a_node1"><a xlink:href="inet.visualizer.base.DataLinkVisualizerBase.html" xlink:title="Simple Module DataLinkVisualizerBase" target="_parent">
<polygon fill="#fff700" stroke="black" points="138,-74 6,-74 6,-55 138,-55 138,-74"/>
<text text-anchor="middle" x="72" y="-62" font-family="Helvetica,sans-Serif" font-size="10.00">DataLinkVisualizerBase</text>
</a>
</g>
</g>
<!-- DataLinkCanvasVisualizer -->
<g id="node3" class="node">
<title>DataLinkCanvasVisualizer</title>
<g id="a_node3"><a xlink:href="inet.visualizer.canvas.linklayer.DataLinkCanvasVisualizer.html" xlink:title="Simple Module DataLinkCanvasVisualizer" target="_parent">
<polygon fill="#fffcaf" stroke="black" points="144,-19 0,-19 0,0 144,0 144,-19"/>
<text text-anchor="middle" x="72" y="-7" font-family="Helvetica,sans-Serif" font-size="10.00">DataLinkCanvasVisualizer</text>
</a>
</g>
</g>
<!-- DataLinkVisualizerBase&#45;&gt;DataLinkCanvasVisualizer -->
<g id="edge2" class="edge">
<title>DataLinkVisualizerBase&#45;&gt;DataLinkCanvasVisualizer</title>
<path fill="none" stroke="black" d="M72,-54.75C72,-44.87 72,-28.9 72,-19.09"/>
</g>
<!-- LinkVisualizerBase -->
<g id="node2" class="node">
<title>LinkVisualizerBase</title>
<g id="a_node2"><a xlink:href="inet.visualizer.base.LinkVisualizerBase.html" xlink:title="Simple Module LinkVisualizerBase" target="_parent">
<polygon fill="#fffcaf" stroke="black" points="126.5,-129 17.5,-129 17.5,-110 126.5,-110 126.5,-129"/>
<text text-anchor="middle" x="72" y="-117" font-family="Helvetica,sans-Serif" font-size="10.00">LinkVisualizerBase</text>
</a>
</g>
</g>
<!-- LinkVisualizerBase&#45;&gt;DataLinkVisualizerBase -->
<g id="edge1" class="edge">
<title>LinkVisualizerBase&#45;&gt;DataLinkVisualizerBase</title>
<path fill="none" stroke="black" d="M72,-109.75C72,-99.87 72,-83.9 72,-74.09"/>
</g>
</g>
</svg>
