<?xml version="1.0" encoding="UTF-8" standalone="no"?>
<!DOCTYPE svg PUBLIC "-//W3C//DTD SVG 1.1//EN"
 "http://www.w3.org/Graphics/SVG/1.1/DTD/svg11.dtd">
<!-- Generated by graphviz version 2.43.0 (0)
 -->
<!-- Title: opp Pages: 1 -->
<svg width="560pt" height="82pt"
 viewBox="0.00 0.00 560.00 82.00" xmlns="http://www.w3.org/2000/svg" xmlns:xlink="http://www.w3.org/1999/xlink">
<g id="graph0" class="graph" transform="scale(1 1) rotate(0) translate(4 78)">
<title>opp</title>
<polygon fill="transparent" stroke="transparent" points="-4,4 -4,-78 556,-78 556,4 -4,4"/>
<!-- PhysicalLinkVisualizerEnablingShowcase -->
<g id="node1" class="node">
<title>PhysicalLinkVisualizerEnablingShowcase</title>
<g id="a_node1"><a xlink:href="inet.showcases.visualizer.canvas.physicallinkactivity.PhysicalLinkVisualizerEnablingShowcase.html" xlink:title="Network PhysicalLinkVisualizerEnablingShowcase" target="_parent">
<polygon fill="#9090ff" stroke="black" points="421.5,-74 205.5,-74 205.5,-55 421.5,-55 421.5,-74"/>
<text text-anchor="middle" x="313.5" y="-62" font-family="Helvetica,sans-Serif" font-size="10.00">PhysicalLinkVisualizerEnablingShowcase</text>
</a>
</g>
</g>
<!-- Ieee80211ScalarRadioMedium -->
<g id="node2" class="node">
<title>Ieee80211ScalarRadioMedium</title>
<g id="a_node2"><a xlink:href="inet.physicallayer.wireless.ieee80211.packetlevel.Ieee80211ScalarRadioMedium.html" xlink:title="Compound Module Ieee80211ScalarRadioMedium" target="_parent">
<polygon fill="#fffcaf" stroke="black" points="165,-19 0,-19 0,0 165,0 165,-19"/>
<text text-anchor="middle" x="82.5" y="-7" font-family="Helvetica,sans-Serif" font-size="10.00">Ieee80211ScalarRadioMedium</text>
</a>
</g>
</g>
<!-- PhysicalLinkVisualizerEnablingShowcase&#45;&gt;Ieee80211ScalarRadioMedium -->
<g id="edge1" class="edge">
<title>PhysicalLinkVisualizerEnablingShowcase&#45;&gt;Ieee80211ScalarRadioMedium</title>
<path fill="none" stroke="black" d="M276.39,-54.98C236.51,-45.84 173.04,-31.27 129.66,-21.32"/>
<polygon fill="black" stroke="black" points="130.43,-17.91 119.91,-19.08 128.87,-24.73 130.43,-17.91"/>
</g>
<!-- Ipv4NetworkConfigurator -->
<g id="node3" class="node">
<title>Ipv4NetworkConfigurator</title>
<g id="a_node3"><a xlink:href="inet.networklayer.configurator.ipv4.Ipv4NetworkConfigurator.html" xlink:title="Simple Module Ipv4NetworkConfigurator" target="_parent">
<polygon fill="#fffcaf" stroke="black" points="322,-19 183,-19 183,0 322,0 322,-19"/>
<text text-anchor="middle" x="252.5" y="-7" font-family="Helvetica,sans-Serif" font-size="10.00">Ipv4NetworkConfigurator</text>
</a>
</g>
</g>
<!-- PhysicalLinkVisualizerEnablingShowcase&#45;&gt;Ipv4NetworkConfigurator -->
<g id="edge2" class="edge">
<title>PhysicalLinkVisualizerEnablingShowcase&#45;&gt;Ipv4NetworkConfigurator</title>
<path fill="none" stroke="black" d="M303.7,-54.98C294.68,-47.15 281.09,-35.34 270.18,-25.86"/>
<polygon fill="black" stroke="black" points="272.32,-23.09 262.48,-19.17 267.73,-28.37 272.32,-23.09"/>
</g>
<!-- AdhocHost -->
<g id="node4" class="node">
<title>AdhocHost</title>
<g id="a_node4"><a xlink:href="inet.node.inet.AdhocHost.html" xlink:title="Compound Module AdhocHost" target="_parent">
<polygon fill="#fffcaf" stroke="black" points="409,-19 340,-19 340,0 409,0 409,-19"/>
<text text-anchor="middle" x="374.5" y="-7" font-family="Helvetica,sans-Serif" font-size="10.00">AdhocHost</text>
</a>
</g>
</g>
<!-- PhysicalLinkVisualizerEnablingShowcase&#45;&gt;AdhocHost -->
<g id="edge3" class="edge">
<title>PhysicalLinkVisualizerEnablingShowcase&#45;&gt;AdhocHost</title>
<path fill="none" stroke="black" d="M323.3,-54.98C332.32,-47.15 345.91,-35.34 356.82,-25.86"/>
<polygon fill="black" stroke="black" points="359.27,-28.37 364.52,-19.17 354.68,-23.09 359.27,-28.37"/>
</g>
<!-- PhysicalLinkVisualizer -->
<g id="node5" class="node">
<title>PhysicalLinkVisualizer</title>
<g id="a_node5"><a xlink:href="inet.visualizer.common.PhysicalLinkVisualizer.html" xlink:title="Compound Module PhysicalLinkVisualizer" target="_parent">
<polygon fill="#fffcaf" stroke="black" points="552,-19 427,-19 427,0 552,0 552,-19"/>
<text text-anchor="middle" x="489.5" y="-7" font-family="Helvetica,sans-Serif" font-size="10.00">PhysicalLinkVisualizer</text>
</a>
</g>
</g>
<!-- PhysicalLinkVisualizerEnablingShowcase&#45;&gt;PhysicalLinkVisualizer -->
<g id="edge4" class="edge">
<title>PhysicalLinkVisualizerEnablingShowcase&#45;&gt;PhysicalLinkVisualizer</title>
<path fill="none" stroke="black" d="M341.78,-54.98C371.45,-46.05 418.29,-31.94 451.25,-22.02"/>
<polygon fill="black" stroke="black" points="452.43,-25.32 461,-19.08 450.42,-18.61 452.43,-25.32"/>
</g>
</g>
</svg>
