<?xml version="1.0" encoding="UTF-8" standalone="no"?>
<!DOCTYPE svg PUBLIC "-//W3C//DTD SVG 1.1//EN"
 "http://www.w3.org/Graphics/SVG/1.1/DTD/svg11.dtd">
<!-- Generated by graphviz version 2.43.0 (0)
 -->
<!-- Title: opp Pages: 1 -->
<svg width="518pt" height="82pt"
 viewBox="0.00 0.00 518.00 82.00" xmlns="http://www.w3.org/2000/svg" xmlns:xlink="http://www.w3.org/1999/xlink">
<g id="graph0" class="graph" transform="scale(1 1) rotate(0) translate(4 78)">
<title>opp</title>
<polygon fill="transparent" stroke="transparent" points="-4,4 -4,-78 514,-78 514,4 -4,4"/>
<!-- Backbone -->
<g id="node1" class="node">
<title>Backbone</title>
<g id="a_node1"><a xlink:href="inet.examples.ospfv2.backbone.Backbone.html" xlink:title="Network Backbone" target="_parent">
<polygon fill="#9090ff" stroke="black" points="250,-74 185,-74 185,-55 250,-55 250,-74"/>
<text text-anchor="middle" x="217.5" y="-62" font-family="Helvetica,sans-Serif" font-size="10.00">Backbone</text>
</a>
</g>
</g>
<!-- OspfRouter -->
<g id="node2" class="node">
<title>OspfRouter</title>
<g id="a_node2"><a xlink:href="inet.node.ospfv2.OspfRouter.html" xlink:title="Compound Module OspfRouter" target="_parent">
<polygon fill="#fffcaf" stroke="black" points="71,-19 0,-19 0,0 71,0 71,-19"/>
<text text-anchor="middle" x="35.5" y="-7" font-family="Helvetica,sans-Serif" font-size="10.00">OspfRouter</text>
</a>
</g>
</g>
<!-- Backbone&#45;&gt;OspfRouter -->
<g id="edge1" class="edge">
<title>Backbone&#45;&gt;OspfRouter</title>
<path fill="none" stroke="black" d="M188.26,-54.98C157.44,-46.01 108.72,-31.82 74.61,-21.89"/>
<polygon fill="black" stroke="black" points="75.55,-18.52 64.97,-19.08 73.59,-25.24 75.55,-18.52"/>
</g>
<!-- StandardHost -->
<g id="node3" class="node">
<title>StandardHost</title>
<g id="a_node3"><a xlink:href="inet.node.inet.StandardHost.html" xlink:title="Compound Module StandardHost" target="_parent">
<polygon fill="#fffcaf" stroke="black" points="172,-19 89,-19 89,0 172,0 172,-19"/>
<text text-anchor="middle" x="130.5" y="-7" font-family="Helvetica,sans-Serif" font-size="10.00">StandardHost</text>
</a>
</g>
</g>
<!-- Backbone&#45;&gt;StandardHost -->
<g id="edge2" class="edge">
<title>Backbone&#45;&gt;StandardHost</title>
<path fill="none" stroke="black" d="M203.52,-54.98C190.03,-46.77 169.37,-34.18 153.46,-24.49"/>
<polygon fill="black" stroke="black" points="155.09,-21.38 144.73,-19.17 151.45,-27.36 155.09,-21.38"/>
</g>
<!-- C -->
<g id="node4" class="node">
<title>C</title>
<g id="a_node4"><a xlink:href="inet.examples.ospfv2.backbone.Backbone.C.html" xlink:title="Channel C" target="_parent">
<polygon fill="#d0ffd0" stroke="black" points="244.5,-19 190.5,-19 190.5,0 244.5,0 244.5,-19"/>
<text text-anchor="middle" x="217.5" y="-7" font-family="Helvetica,sans-Serif" font-size="10.00">C</text>
</a>
</g>
</g>
<!-- Backbone&#45;&gt;C -->
<g id="edge3" class="edge">
<title>Backbone&#45;&gt;C</title>
<path fill="none" stroke="black" d="M217.5,-54.75C217.5,-47.8 217.5,-37.85 217.5,-29.13"/>
<polygon fill="black" stroke="black" points="221,-29.09 217.5,-19.09 214,-29.09 221,-29.09"/>
</g>
<!-- EthernetSwitch -->
<g id="node5" class="node">
<title>EthernetSwitch</title>
<g id="a_node5"><a xlink:href="inet.node.ethernet.EthernetSwitch.html" xlink:title="Compound Module EthernetSwitch" target="_parent">
<polygon fill="#fffcaf" stroke="black" points="352.5,-19 262.5,-19 262.5,0 352.5,0 352.5,-19"/>
<text text-anchor="middle" x="307.5" y="-7" font-family="Helvetica,sans-Serif" font-size="10.00">EthernetSwitch</text>
</a>
</g>
</g>
<!-- Backbone&#45;&gt;EthernetSwitch -->
<g id="edge4" class="edge">
<title>Backbone&#45;&gt;EthernetSwitch</title>
<path fill="none" stroke="black" d="M231.96,-54.98C245.92,-46.77 267.29,-34.18 283.75,-24.49"/>
<polygon fill="black" stroke="black" points="285.94,-27.26 292.78,-19.17 282.38,-21.23 285.94,-27.26"/>
</g>
<!-- Ipv4NetworkConfigurator -->
<g id="node6" class="node">
<title>Ipv4NetworkConfigurator</title>
<g id="a_node6"><a xlink:href="inet.networklayer.configurator.ipv4.Ipv4NetworkConfigurator.html" xlink:title="Simple Module Ipv4NetworkConfigurator" target="_parent">
<polygon fill="#fffcaf" stroke="black" points="510,-19 371,-19 371,0 510,0 510,-19"/>
<text text-anchor="middle" x="440.5" y="-7" font-family="Helvetica,sans-Serif" font-size="10.00">Ipv4NetworkConfigurator</text>
</a>
</g>
</g>
<!-- Backbone&#45;&gt;Ipv4NetworkConfigurator -->
<g id="edge5" class="edge">
<title>Backbone&#45;&gt;Ipv4NetworkConfigurator</title>
<path fill="none" stroke="black" d="M250.4,-55.68C288.54,-46.62 351.63,-31.62 394.58,-21.41"/>
<polygon fill="black" stroke="black" points="395.58,-24.77 404.5,-19.06 393.96,-17.96 395.58,-24.77"/>
</g>
</g>
</svg>
