<?xml version="1.0" encoding="UTF-8" standalone="no"?>
<!DOCTYPE svg PUBLIC "-//W3C//DTD SVG 1.1//EN"
 "http://www.w3.org/Graphics/SVG/1.1/DTD/svg11.dtd">
<!-- Generated by graphviz version 2.43.0 (0)
 -->
<!-- Title: opp Pages: 1 -->
<svg width="248pt" height="137pt"
 viewBox="0.00 0.00 248.00 137.00" xmlns="http://www.w3.org/2000/svg" xmlns:xlink="http://www.w3.org/1999/xlink">
<g id="graph0" class="graph" transform="scale(1 1) rotate(0) translate(4 133)">
<title>opp</title>
<polygon fill="transparent" stroke="transparent" points="-4,4 -4,-133 244,-133 244,4 -4,4"/>
<!-- ICcEnergySource -->
<g id="node1" class="node">
<title>ICcEnergySource</title>
<g id="a_node1"><a xlink:href="inet.power.contract.ICcEnergySource.html" xlink:title="Module Interface ICcEnergySource" target="_parent">
<polygon fill="#fff700" stroke="black" stroke-dasharray="5,2" points="172.5,-74 74.5,-74 74.5,-55 172.5,-55 172.5,-74"/>
<text text-anchor="middle" x="123.5" y="-62" font-family="Helvetica,sans-Serif" font-size="10.00">ICcEnergySource</text>
</a>
</g>
</g>
<!-- CcEnergySourceBase -->
<g id="node3" class="node">
<title>CcEnergySourceBase</title>
<g id="a_node3"><a xlink:href="inet.power.base.CcEnergySourceBase.html" xlink:title="Simple Module CcEnergySourceBase" target="_parent">
<polygon fill="#fffcaf" stroke="black" points="119,-19 0,-19 0,0 119,0 119,-19"/>
<text text-anchor="middle" x="59.5" y="-7" font-family="Helvetica,sans-Serif" font-size="10.00">CcEnergySourceBase</text>
</a>
</g>
</g>
<!-- ICcEnergySource&#45;&gt;CcEnergySourceBase -->
<g id="edge2" class="edge">
<title>ICcEnergySource&#45;&gt;CcEnergySourceBase</title>
<path fill="none" stroke="black" stroke-dasharray="5,2" d="M113.22,-54.98C101.34,-45.15 81.92,-29.07 69.97,-19.17"/>
</g>
<!-- ICcEnergyStorage -->
<g id="node4" class="node">
<title>ICcEnergyStorage</title>
<g id="a_node4"><a xlink:href="inet.power.contract.ICcEnergyStorage.html" xlink:title="Module Interface ICcEnergyStorage" target="_parent">
<polygon fill="#fffcaf" stroke="black" stroke-dasharray="5,2" points="240,-19 137,-19 137,0 240,0 240,-19"/>
<text text-anchor="middle" x="188.5" y="-7" font-family="Helvetica,sans-Serif" font-size="10.00">ICcEnergyStorage</text>
</a>
</g>
</g>
<!-- ICcEnergySource&#45;&gt;ICcEnergyStorage -->
<g id="edge3" class="edge">
<title>ICcEnergySource&#45;&gt;ICcEnergyStorage</title>
<path fill="none" stroke="black" d="M133.94,-54.98C146,-45.15 165.73,-29.07 177.87,-19.17"/>
</g>
<!-- IEnergySource -->
<g id="node2" class="node">
<title>IEnergySource</title>
<g id="a_node2"><a xlink:href="inet.power.contract.IEnergySource.html" xlink:title="Module Interface IEnergySource" target="_parent">
<polygon fill="#fffcaf" stroke="black" stroke-dasharray="5,2" points="166.5,-129 80.5,-129 80.5,-110 166.5,-110 166.5,-129"/>
<text text-anchor="middle" x="123.5" y="-117" font-family="Helvetica,sans-Serif" font-size="10.00">IEnergySource</text>
</a>
</g>
</g>
<!-- IEnergySource&#45;&gt;ICcEnergySource -->
<g id="edge1" class="edge">
<title>IEnergySource&#45;&gt;ICcEnergySource</title>
<path fill="none" stroke="black" d="M123.5,-109.75C123.5,-99.87 123.5,-83.9 123.5,-74.09"/>
</g>
</g>
</svg>
