<?xml version="1.0" encoding="UTF-8" standalone="no"?>
<!DOCTYPE svg PUBLIC "-//W3C//DTD SVG 1.1//EN"
 "http://www.w3.org/Graphics/SVG/1.1/DTD/svg11.dtd">
<!-- Generated by graphviz version 2.43.0 (0)
 -->
<!-- Title: opp Pages: 1 -->
<svg width="213pt" height="82pt"
 viewBox="0.00 0.00 213.00 82.00" xmlns="http://www.w3.org/2000/svg" xmlns:xlink="http://www.w3.org/1999/xlink">
<g id="graph0" class="graph" transform="scale(1 1) rotate(0) translate(4 78)">
<title>opp</title>
<polygon fill="transparent" stroke="transparent" points="-4,4 -4,-78 209,-78 209,4 -4,4"/>
<!-- Ieee8022LlcSocketCommandProcessor -->
<g id="node1" class="node">
<title>Ieee8022LlcSocketCommandProcessor</title>
<g id="a_node1"><a xlink:href="inet.linklayer.ieee8022.Ieee8022LlcSocketCommandProcessor.html" xlink:title="Simple Module Ieee8022LlcSocketCommandProcessor" target="_parent">
<polygon fill="#fff700" stroke="black" points="205,-19 0,-19 0,0 205,0 205,-19"/>
<text text-anchor="middle" x="102.5" y="-7" font-family="Helvetica,sans-Serif" font-size="10.00">Ieee8022LlcSocketCommandProcessor</text>
</a>
</g>
</g>
<!-- PacketFlowBase -->
<g id="node2" class="node">
<title>PacketFlowBase</title>
<g id="a_node2"><a xlink:href="inet.queueing.base.PacketFlowBase.html" xlink:title="Simple Module PacketFlowBase" target="_parent">
<polygon fill="#fffcaf" stroke="black" points="99,-74 4,-74 4,-55 99,-55 99,-74"/>
<text text-anchor="middle" x="51.5" y="-62" font-family="Helvetica,sans-Serif" font-size="10.00">PacketFlowBase</text>
</a>
</g>
</g>
<!-- PacketFlowBase&#45;&gt;Ieee8022LlcSocketCommandProcessor -->
<g id="edge1" class="edge">
<title>PacketFlowBase&#45;&gt;Ieee8022LlcSocketCommandProcessor</title>
<path fill="none" stroke="black" d="M59.92,-54.75C69.43,-44.87 84.79,-28.9 94.24,-19.09"/>
</g>
<!-- IPacketFlow -->
<g id="node3" class="node">
<title>IPacketFlow</title>
<g id="a_node3"><a xlink:href="inet.queueing.contract.IPacketFlow.html" xlink:title="Module Interface IPacketFlow" target="_parent">
<polygon fill="#fffcaf" stroke="black" stroke-dasharray="5,2" points="191.5,-74 117.5,-74 117.5,-55 191.5,-55 191.5,-74"/>
<text text-anchor="middle" x="154.5" y="-62" font-family="Helvetica,sans-Serif" font-size="10.00">IPacketFlow</text>
</a>
</g>
</g>
<!-- IPacketFlow&#45;&gt;Ieee8022LlcSocketCommandProcessor -->
<g id="edge2" class="edge">
<title>IPacketFlow&#45;&gt;Ieee8022LlcSocketCommandProcessor</title>
<path fill="none" stroke="black" stroke-dasharray="5,2" d="M145.91,-54.75C136.22,-44.87 120.55,-28.9 110.93,-19.09"/>
</g>
</g>
</svg>
