<?xml version="1.0" encoding="UTF-8" standalone="no"?>
<!DOCTYPE svg PUBLIC "-//W3C//DTD SVG 1.1//EN"
 "http://www.w3.org/Graphics/SVG/1.1/DTD/svg11.dtd">
<!-- Generated by graphviz version 2.43.0 (0)
 -->
<!-- Title: opp Pages: 1 -->
<svg width="572pt" height="137pt"
 viewBox="0.00 0.00 572.00 137.00" xmlns="http://www.w3.org/2000/svg" xmlns:xlink="http://www.w3.org/1999/xlink">
<g id="graph0" class="graph" transform="scale(1 1) rotate(0) translate(4 133)">
<title>opp</title>
<polygon fill="transparent" stroke="transparent" points="-4,4 -4,-133 568,-133 568,4 -4,4"/>
<!-- IPacketServer -->
<g id="node1" class="node">
<title>IPacketServer</title>
<g id="a_node1"><a xlink:href="inet.queueing.contract.IPacketServer.html" xlink:title="Module Interface IPacketServer" target="_parent">
<polygon fill="#fff700" stroke="black" stroke-dasharray="5,2" points="319.5,-74 236.5,-74 236.5,-55 319.5,-55 319.5,-74"/>
<text text-anchor="middle" x="278" y="-62" font-family="Helvetica,sans-Serif" font-size="10.00">IPacketServer</text>
</a>
</g>
</g>
<!-- InstantServer -->
<g id="node4" class="node">
<title>InstantServer</title>
<g id="a_node4"><a xlink:href="inet.queueing.server.InstantServer.html" xlink:title="Simple Module InstantServer" target="_parent">
<polygon fill="#fffcaf" stroke="black" points="82,-19 0,-19 0,0 82,0 82,-19"/>
<text text-anchor="middle" x="41" y="-7" font-family="Helvetica,sans-Serif" font-size="10.00">InstantServer</text>
</a>
</g>
</g>
<!-- IPacketServer&#45;&gt;InstantServer -->
<g id="edge3" class="edge">
<title>IPacketServer&#45;&gt;InstantServer</title>
<path fill="none" stroke="black" stroke-dasharray="5,2" d="M239.92,-54.98C195.83,-45.12 123.6,-28.97 79.38,-19.08"/>
</g>
<!-- OmittedPacketServer -->
<g id="node5" class="node">
<title>OmittedPacketServer</title>
<g id="a_node5"><a xlink:href="inet.queueing.server.OmittedPacketServer.html" xlink:title="Compound Module OmittedPacketServer" target="_parent">
<polygon fill="#fffcaf" stroke="black" points="219.5,-19 100.5,-19 100.5,0 219.5,0 219.5,-19"/>
<text text-anchor="middle" x="160" y="-7" font-family="Helvetica,sans-Serif" font-size="10.00">OmittedPacketServer</text>
</a>
</g>
</g>
<!-- IPacketServer&#45;&gt;OmittedPacketServer -->
<g id="edge4" class="edge">
<title>IPacketServer&#45;&gt;OmittedPacketServer</title>
<path fill="none" stroke="black" stroke-dasharray="5,2" d="M259.04,-54.98C237.15,-45.15 201.34,-29.07 179.3,-19.17"/>
</g>
<!-- PacketServer -->
<g id="node6" class="node">
<title>PacketServer</title>
<g id="a_node6"><a xlink:href="inet.queueing.server.PacketServer.html" xlink:title="Simple Module PacketServer" target="_parent">
<polygon fill="#fffcaf" stroke="black" points="318,-19 238,-19 238,0 318,0 318,-19"/>
<text text-anchor="middle" x="278" y="-7" font-family="Helvetica,sans-Serif" font-size="10.00">PacketServer</text>
</a>
</g>
</g>
<!-- IPacketServer&#45;&gt;PacketServer -->
<g id="edge5" class="edge">
<title>IPacketServer&#45;&gt;PacketServer</title>
<path fill="none" stroke="black" stroke-dasharray="5,2" d="M278,-54.75C278,-44.87 278,-28.9 278,-19.09"/>
</g>
<!-- PreemptingServer -->
<g id="node7" class="node">
<title>PreemptingServer</title>
<g id="a_node7"><a xlink:href="inet.queueing.server.PreemptingServer.html" xlink:title="Simple Module PreemptingServer" target="_parent">
<polygon fill="#fffcaf" stroke="black" points="440,-19 336,-19 336,0 440,0 440,-19"/>
<text text-anchor="middle" x="388" y="-7" font-family="Helvetica,sans-Serif" font-size="10.00">PreemptingServer</text>
</a>
</g>
</g>
<!-- IPacketServer&#45;&gt;PreemptingServer -->
<g id="edge6" class="edge">
<title>IPacketServer&#45;&gt;PreemptingServer</title>
<path fill="none" stroke="black" stroke-dasharray="5,2" d="M295.67,-54.98C316.08,-45.15 349.46,-29.07 370.01,-19.17"/>
</g>
<!-- TokenBasedServer -->
<g id="node8" class="node">
<title>TokenBasedServer</title>
<g id="a_node8"><a xlink:href="inet.queueing.server.TokenBasedServer.html" xlink:title="Simple Module TokenBasedServer" target="_parent">
<polygon fill="#fffcaf" stroke="black" points="564,-19 458,-19 458,0 564,0 564,-19"/>
<text text-anchor="middle" x="511" y="-7" font-family="Helvetica,sans-Serif" font-size="10.00">TokenBasedServer</text>
</a>
</g>
</g>
<!-- IPacketServer&#45;&gt;TokenBasedServer -->
<g id="edge7" class="edge">
<title>IPacketServer&#45;&gt;TokenBasedServer</title>
<path fill="none" stroke="black" stroke-dasharray="5,2" d="M315.44,-54.98C358.79,-45.12 429.8,-28.97 473.27,-19.08"/>
</g>
<!-- IActivePacketSink -->
<g id="node2" class="node">
<title>IActivePacketSink</title>
<g id="a_node2"><a xlink:href="inet.queueing.contract.IActivePacketSink.html" xlink:title="Module Interface IActivePacketSink" target="_parent">
<polygon fill="#fffcaf" stroke="black" stroke-dasharray="5,2" points="266.5,-129 163.5,-129 163.5,-110 266.5,-110 266.5,-129"/>
<text text-anchor="middle" x="215" y="-117" font-family="Helvetica,sans-Serif" font-size="10.00">IActivePacketSink</text>
</a>
</g>
</g>
<!-- IActivePacketSink&#45;&gt;IPacketServer -->
<g id="edge1" class="edge">
<title>IActivePacketSink&#45;&gt;IPacketServer</title>
<path fill="none" stroke="black" d="M225.12,-109.98C236.81,-100.15 255.93,-84.07 267.69,-74.17"/>
</g>
<!-- IActivePacketSource -->
<g id="node3" class="node">
<title>IActivePacketSource</title>
<g id="a_node3"><a xlink:href="inet.queueing.contract.IActivePacketSource.html" xlink:title="Module Interface IActivePacketSource" target="_parent">
<polygon fill="#fffcaf" stroke="black" stroke-dasharray="5,2" points="399.5,-129 284.5,-129 284.5,-110 399.5,-110 399.5,-129"/>
<text text-anchor="middle" x="342" y="-117" font-family="Helvetica,sans-Serif" font-size="10.00">IActivePacketSource</text>
</a>
</g>
</g>
<!-- IActivePacketSource&#45;&gt;IPacketServer -->
<g id="edge2" class="edge">
<title>IActivePacketSource&#45;&gt;IPacketServer</title>
<path fill="none" stroke="black" d="M331.72,-109.98C319.84,-100.15 300.42,-84.07 288.47,-74.17"/>
</g>
</g>
</svg>
