<?xml version="1.0" encoding="UTF-8" standalone="no"?>
<!DOCTYPE svg PUBLIC "-//W3C//DTD SVG 1.1//EN"
 "http://www.w3.org/Graphics/SVG/1.1/DTD/svg11.dtd">
<!-- Generated by graphviz version 2.43.0 (0)
 -->
<!-- Title: opp Pages: 1 -->
<svg width="518pt" height="82pt"
 viewBox="0.00 0.00 517.50 82.00" xmlns="http://www.w3.org/2000/svg" xmlns:xlink="http://www.w3.org/1999/xlink">
<g id="graph0" class="graph" transform="scale(1 1) rotate(0) translate(4 78)">
<title>opp</title>
<polygon fill="transparent" stroke="transparent" points="-4,4 -4,-78 513.5,-78 513.5,4 -4,4"/>
<!-- BgpNetwork -->
<g id="node1" class="node">
<title>BgpNetwork</title>
<g id="a_node1"><a xlink:href="inet.examples.bgpv4.BgpOpen.BgpNetwork.html" xlink:title="Network BgpNetwork" target="_parent">
<polygon fill="#9090ff" stroke="black" points="266.5,-74 189.5,-74 189.5,-55 266.5,-55 266.5,-74"/>
<text text-anchor="middle" x="228" y="-62" font-family="Helvetica,sans-Serif" font-size="10.00">BgpNetwork</text>
</a>
</g>
</g>
<!-- LINK_100 -->
<g id="node2" class="node">
<title>LINK_100</title>
<g id="a_node2"><a xlink:href="inet.examples.bgpv4.BgpOpen.BgpNetwork.LINK_100.html" xlink:title="Channel LINK_100" target="_parent">
<polygon fill="#d0ffd0" stroke="black" points="62,-19 0,-19 0,0 62,0 62,-19"/>
<text text-anchor="middle" x="31" y="-7" font-family="Helvetica,sans-Serif" font-size="10.00">LINK_100</text>
</a>
</g>
</g>
<!-- BgpNetwork&#45;&gt;LINK_100 -->
<g id="edge1" class="edge">
<title>BgpNetwork&#45;&gt;LINK_100</title>
<path fill="none" stroke="black" d="M196.35,-54.98C162.65,-45.92 109.17,-31.53 72.21,-21.59"/>
<polygon fill="black" stroke="black" points="72.81,-18.12 62.25,-18.91 70.99,-24.88 72.81,-18.12"/>
</g>
<!-- IntegratedCanvasVisualizer -->
<g id="node3" class="node">
<title>IntegratedCanvasVisualizer</title>
<g id="a_node3"><a xlink:href="inet.visualizer.canvas.integrated.IntegratedCanvasVisualizer.html" xlink:title="Compound Module IntegratedCanvasVisualizer" target="_parent">
<polygon fill="#fffcaf" stroke="black" points="231.5,-19 80.5,-19 80.5,0 231.5,0 231.5,-19"/>
<text text-anchor="middle" x="156" y="-7" font-family="Helvetica,sans-Serif" font-size="10.00">IntegratedCanvasVisualizer</text>
</a>
</g>
</g>
<!-- BgpNetwork&#45;&gt;IntegratedCanvasVisualizer -->
<g id="edge2" class="edge">
<title>BgpNetwork&#45;&gt;IntegratedCanvasVisualizer</title>
<path fill="none" stroke="black" d="M216.43,-54.98C205.58,-47 189.12,-34.88 176.12,-25.31"/>
<polygon fill="black" stroke="black" points="177.91,-22.28 167.78,-19.17 173.76,-27.92 177.91,-22.28"/>
</g>
<!-- BGPRouterSimple -->
<g id="node4" class="node">
<title>BGPRouterSimple</title>
<g id="a_node4"><a xlink:href="inet.examples.bgpv4.BgpOpen.BGPRouterSimple.html" xlink:title="Compound Module BGPRouterSimple" target="_parent">
<polygon fill="#fffcaf" stroke="black" points="352.5,-19 249.5,-19 249.5,0 352.5,0 352.5,-19"/>
<text text-anchor="middle" x="301" y="-7" font-family="Helvetica,sans-Serif" font-size="10.00">BGPRouterSimple</text>
</a>
</g>
</g>
<!-- BgpNetwork&#45;&gt;BGPRouterSimple -->
<g id="edge3" class="edge">
<title>BgpNetwork&#45;&gt;BGPRouterSimple</title>
<path fill="none" stroke="black" d="M239.73,-54.98C250.73,-47 267.42,-34.88 280.6,-25.31"/>
<polygon fill="black" stroke="black" points="283.02,-27.88 289.06,-19.17 278.91,-22.21 283.02,-27.88"/>
</g>
<!-- Ipv4NetworkConfigurator -->
<g id="node5" class="node">
<title>Ipv4NetworkConfigurator</title>
<g id="a_node5"><a xlink:href="inet.networklayer.configurator.ipv4.Ipv4NetworkConfigurator.html" xlink:title="Simple Module Ipv4NetworkConfigurator" target="_parent">
<polygon fill="#fffcaf" stroke="black" points="509.5,-19 370.5,-19 370.5,0 509.5,0 509.5,-19"/>
<text text-anchor="middle" x="440" y="-7" font-family="Helvetica,sans-Serif" font-size="10.00">Ipv4NetworkConfigurator</text>
</a>
</g>
</g>
<!-- BgpNetwork&#45;&gt;Ipv4NetworkConfigurator -->
<g id="edge4" class="edge">
<title>BgpNetwork&#45;&gt;Ipv4NetworkConfigurator</title>
<path fill="none" stroke="black" d="M262.06,-54.98C298.42,-45.89 356.17,-31.46 395.97,-21.51"/>
<polygon fill="black" stroke="black" points="396.82,-24.9 405.67,-19.08 395.12,-18.11 396.82,-24.9"/>
</g>
</g>
</svg>
