<?xml version="1.0" encoding="UTF-8" standalone="no"?>
<!DOCTYPE svg PUBLIC "-//W3C//DTD SVG 1.1//EN"
 "http://www.w3.org/Graphics/SVG/1.1/DTD/svg11.dtd">
<!-- Generated by graphviz version 2.43.0 (0)
 -->
<!-- Title: opp Pages: 1 -->
<svg width="423pt" height="82pt"
 viewBox="0.00 0.00 423.00 82.00" xmlns="http://www.w3.org/2000/svg" xmlns:xlink="http://www.w3.org/1999/xlink">
<g id="graph0" class="graph" transform="scale(1 1) rotate(0) translate(4 78)">
<title>opp</title>
<polygon fill="transparent" stroke="transparent" points="-4,4 -4,-78 419,-78 419,4 -4,4"/>
<!-- PriorityShaper -->
<g id="node1" class="node">
<title>PriorityShaper</title>
<g id="a_node1"><a xlink:href="inet.queueing.shaper.PriorityShaper.html" xlink:title="Compound Module PriorityShaper" target="_parent">
<polygon fill="#fff700" stroke="black" points="247.5,-74 161.5,-74 161.5,-55 247.5,-55 247.5,-74"/>
<text text-anchor="middle" x="204.5" y="-62" font-family="Helvetica,sans-Serif" font-size="10.00">PriorityShaper</text>
</a>
</g>
</g>
<!-- IPacketShaper -->
<g id="node2" class="node">
<title>IPacketShaper</title>
<g id="a_node2"><a xlink:href="inet.queueing.contract.IPacketShaper.html" xlink:title="Module Interface IPacketShaper" target="_parent">
<polygon fill="#fffcaf" stroke="black" stroke-dasharray="5,2" points="85,-19 0,-19 0,0 85,0 85,-19"/>
<text text-anchor="middle" x="42.5" y="-7" font-family="Helvetica,sans-Serif" font-size="10.00">IPacketShaper</text>
</a>
</g>
</g>
<!-- PriorityShaper&#45;&gt;IPacketShaper -->
<g id="edge1" class="edge">
<title>PriorityShaper&#45;&gt;IPacketShaper</title>
<path fill="none" stroke="black" d="M178.47,-54.98C151.39,-46.13 108.79,-32.19 78.49,-22.28"/>
<polygon fill="black" stroke="black" points="79.32,-18.87 68.73,-19.08 77.15,-25.52 79.32,-18.87"/>
</g>
<!-- IPacketClassifier -->
<g id="node3" class="node">
<title>IPacketClassifier</title>
<g id="a_node3"><a xlink:href="inet.queueing.contract.IPacketClassifier.html" xlink:title="Module Interface IPacketClassifier" target="_parent">
<polygon fill="#fffcaf" stroke="black" stroke-dasharray="5,2" points="199.5,-19 103.5,-19 103.5,0 199.5,0 199.5,-19"/>
<text text-anchor="middle" x="151.5" y="-7" font-family="Helvetica,sans-Serif" font-size="10.00">IPacketClassifier</text>
</a>
</g>
</g>
<!-- PriorityShaper&#45;&gt;IPacketClassifier -->
<g id="edge2" class="edge">
<title>PriorityShaper&#45;&gt;IPacketClassifier</title>
<path fill="none" stroke="black" d="M195.75,-54.75C188.03,-47.03 176.6,-35.6 167.28,-26.28"/>
<polygon fill="black" stroke="black" points="169.64,-23.69 160.09,-19.09 164.69,-28.64 169.64,-23.69"/>
</g>
<!-- IdealChannel -->
<g id="node4" class="node">
<title>IdealChannel</title>
<g id="a_node4"><a xlink:href="ned.IdealChannel.html" xlink:title="Channel IdealChannel" target="_parent">
<polygon fill="#d0ffd0" stroke="black" points="297.5,-19 217.5,-19 217.5,0 297.5,0 297.5,-19"/>
<text text-anchor="middle" x="257.5" y="-7" font-family="Helvetica,sans-Serif" font-size="10.00">IdealChannel</text>
</a>
</g>
</g>
<!-- PriorityShaper&#45;&gt;IdealChannel -->
<g id="edge3" class="edge">
<title>PriorityShaper&#45;&gt;IdealChannel</title>
<path fill="none" stroke="black" d="M213.25,-54.75C220.97,-47.03 232.4,-35.6 241.72,-26.28"/>
<polygon fill="black" stroke="black" points="244.31,-28.64 248.91,-19.09 239.36,-23.69 244.31,-28.64"/>
</g>
<!-- IPacketScheduler -->
<g id="node5" class="node">
<title>IPacketScheduler</title>
<g id="a_node5"><a xlink:href="inet.queueing.contract.IPacketScheduler.html" xlink:title="Module Interface IPacketScheduler" target="_parent">
<polygon fill="#fffcaf" stroke="black" stroke-dasharray="5,2" points="415,-19 316,-19 316,0 415,0 415,-19"/>
<text text-anchor="middle" x="365.5" y="-7" font-family="Helvetica,sans-Serif" font-size="10.00">IPacketScheduler</text>
</a>
</g>
</g>
<!-- PriorityShaper&#45;&gt;IPacketScheduler -->
<g id="edge4" class="edge">
<title>PriorityShaper&#45;&gt;IPacketScheduler</title>
<path fill="none" stroke="black" d="M230.37,-54.98C257.28,-46.13 299.62,-32.19 329.73,-22.28"/>
<polygon fill="black" stroke="black" points="331.03,-25.53 339.43,-19.08 328.84,-18.88 331.03,-25.53"/>
</g>
</g>
</svg>
