<?xml version="1.0" encoding="UTF-8" standalone="no"?>
<!DOCTYPE svg PUBLIC "-//W3C//DTD SVG 1.1//EN"
 "http://www.w3.org/Graphics/SVG/1.1/DTD/svg11.dtd">
<!-- Generated by graphviz version 2.43.0 (0)
 -->
<!-- Title: opp Pages: 1 -->
<svg width="254pt" height="82pt"
 viewBox="0.00 0.00 254.00 82.00" xmlns="http://www.w3.org/2000/svg" xmlns:xlink="http://www.w3.org/1999/xlink">
<g id="graph0" class="graph" transform="scale(1 1) rotate(0) translate(4 78)">
<title>opp</title>
<polygon fill="transparent" stroke="transparent" points="-4,4 -4,-78 250,-78 250,4 -4,4"/>
<!-- FragmentTagBasedDefragmenter -->
<g id="node1" class="node">
<title>FragmentTagBasedDefragmenter</title>
<g id="a_node1"><a xlink:href="inet.protocolelement.fragmentation.FragmentTagBasedDefragmenter.html" xlink:title="Simple Module FragmentTagBasedDefragmenter" target="_parent">
<polygon fill="#fff700" stroke="black" points="209.5,-19 31.5,-19 31.5,0 209.5,0 209.5,-19"/>
<text text-anchor="middle" x="120.5" y="-7" font-family="Helvetica,sans-Serif" font-size="10.00">FragmentTagBasedDefragmenter</text>
</a>
</g>
</g>
<!-- DefragmenterBase -->
<g id="node2" class="node">
<title>DefragmenterBase</title>
<g id="a_node2"><a xlink:href="inet.protocolelement.fragmentation.base.DefragmenterBase.html" xlink:title="Simple Module DefragmenterBase" target="_parent">
<polygon fill="#fffcaf" stroke="black" points="109,-74 0,-74 0,-55 109,-55 109,-74"/>
<text text-anchor="middle" x="54.5" y="-62" font-family="Helvetica,sans-Serif" font-size="10.00">DefragmenterBase</text>
</a>
</g>
</g>
<!-- DefragmenterBase&#45;&gt;FragmentTagBasedDefragmenter -->
<g id="edge1" class="edge">
<title>DefragmenterBase&#45;&gt;FragmentTagBasedDefragmenter</title>
<path fill="none" stroke="black" d="M65.1,-54.98C77.35,-45.15 97.38,-29.07 109.7,-19.17"/>
</g>
<!-- IPacketDefragmenter -->
<g id="node3" class="node">
<title>IPacketDefragmenter</title>
<g id="a_node3"><a xlink:href="inet.protocolelement.fragmentation.contract.IPacketDefragmenter.html" xlink:title="Module Interface IPacketDefragmenter" target="_parent">
<polygon fill="#fffcaf" stroke="black" stroke-dasharray="5,2" points="246,-74 127,-74 127,-55 246,-55 246,-74"/>
<text text-anchor="middle" x="186.5" y="-62" font-family="Helvetica,sans-Serif" font-size="10.00">IPacketDefragmenter</text>
</a>
</g>
</g>
<!-- IPacketDefragmenter&#45;&gt;FragmentTagBasedDefragmenter -->
<g id="edge2" class="edge">
<title>IPacketDefragmenter&#45;&gt;FragmentTagBasedDefragmenter</title>
<path fill="none" stroke="black" stroke-dasharray="5,2" d="M175.9,-54.98C163.65,-45.15 143.62,-29.07 131.3,-19.17"/>
</g>
</g>
</svg>
