<?xml version="1.0" encoding="UTF-8" standalone="no"?>
<!DOCTYPE svg PUBLIC "-//W3C//DTD SVG 1.1//EN"
 "http://www.w3.org/Graphics/SVG/1.1/DTD/svg11.dtd">
<!-- Generated by graphviz version 2.43.0 (0)
 -->
<!-- Title: opp Pages: 1 -->
<svg width="370pt" height="82pt"
 viewBox="0.00 0.00 370.00 82.00" xmlns="http://www.w3.org/2000/svg" xmlns:xlink="http://www.w3.org/1999/xlink">
<g id="graph0" class="graph" transform="scale(1 1) rotate(0) translate(4 78)">
<title>opp</title>
<polygon fill="transparent" stroke="transparent" points="-4,4 -4,-78 366,-78 366,4 -4,4"/>
<!-- RTPUnicast1 -->
<g id="node1" class="node">
<title>RTPUnicast1</title>
<g id="a_node1"><a xlink:href="inet.examples.rtp.unicast1.RTPUnicast1.html" xlink:title="Network RTPUnicast1" target="_parent">
<polygon fill="#9090ff" stroke="black" points="239.5,-74 162.5,-74 162.5,-55 239.5,-55 239.5,-74"/>
<text text-anchor="middle" x="201" y="-62" font-family="Helvetica,sans-Serif" font-size="10.00">RTPUnicast1</text>
</a>
</g>
</g>
<!-- RtpHost -->
<g id="node2" class="node">
<title>RtpHost</title>
<g id="a_node2"><a xlink:href="inet.node.rtp.RtpHost.html" xlink:title="Compound Module RtpHost" target="_parent">
<polygon fill="#fffcaf" stroke="black" points="56,-19 0,-19 0,0 56,0 56,-19"/>
<text text-anchor="middle" x="28" y="-7" font-family="Helvetica,sans-Serif" font-size="10.00">RtpHost</text>
</a>
</g>
</g>
<!-- RTPUnicast1&#45;&gt;RtpHost -->
<g id="edge1" class="edge">
<title>RTPUnicast1&#45;&gt;RtpHost</title>
<path fill="none" stroke="black" d="M173.2,-54.98C144.03,-46.05 98,-31.94 65.6,-22.02"/>
<polygon fill="black" stroke="black" points="66.6,-18.66 56.01,-19.08 64.55,-25.36 66.6,-18.66"/>
</g>
<!-- Ipv4NetworkConfigurator -->
<g id="node3" class="node">
<title>Ipv4NetworkConfigurator</title>
<g id="a_node3"><a xlink:href="inet.networklayer.configurator.ipv4.Ipv4NetworkConfigurator.html" xlink:title="Simple Module Ipv4NetworkConfigurator" target="_parent">
<polygon fill="#fffcaf" stroke="black" points="213.5,-19 74.5,-19 74.5,0 213.5,0 213.5,-19"/>
<text text-anchor="middle" x="144" y="-7" font-family="Helvetica,sans-Serif" font-size="10.00">Ipv4NetworkConfigurator</text>
</a>
</g>
</g>
<!-- RTPUnicast1&#45;&gt;Ipv4NetworkConfigurator -->
<g id="edge2" class="edge">
<title>RTPUnicast1&#45;&gt;Ipv4NetworkConfigurator</title>
<path fill="none" stroke="black" d="M191.84,-54.98C183.5,-47.23 170.97,-35.58 160.82,-26.14"/>
<polygon fill="black" stroke="black" points="163.03,-23.42 153.32,-19.17 158.26,-28.54 163.03,-23.42"/>
</g>
<!-- Router -->
<g id="node4" class="node">
<title>Router</title>
<g id="a_node4"><a xlink:href="inet.node.inet.Router.html" xlink:title="Compound Module Router" target="_parent">
<polygon fill="#fffcaf" stroke="black" points="286,-19 232,-19 232,0 286,0 286,-19"/>
<text text-anchor="middle" x="259" y="-7" font-family="Helvetica,sans-Serif" font-size="10.00">Router</text>
</a>
</g>
</g>
<!-- RTPUnicast1&#45;&gt;Router -->
<g id="edge3" class="edge">
<title>RTPUnicast1&#45;&gt;Router</title>
<path fill="none" stroke="black" d="M210.32,-54.98C218.81,-47.23 231.56,-35.58 241.88,-26.14"/>
<polygon fill="black" stroke="black" points="244.49,-28.5 249.51,-19.17 239.77,-23.33 244.49,-28.5"/>
</g>
<!-- ethernet -->
<g id="node5" class="node">
<title>ethernet</title>
<g id="a_node5"><a xlink:href="inet.examples.rtp.unicast1.RTPUnicast1.ethernet.html" xlink:title="Channel ethernet" target="_parent">
<polygon fill="#d0ffd0" stroke="black" points="362,-19 304,-19 304,0 362,0 362,-19"/>
<text text-anchor="middle" x="333" y="-7" font-family="Helvetica,sans-Serif" font-size="10.00">ethernet</text>
</a>
</g>
</g>
<!-- RTPUnicast1&#45;&gt;ethernet -->
<g id="edge4" class="edge">
<title>RTPUnicast1&#45;&gt;ethernet</title>
<path fill="none" stroke="black" d="M222.21,-54.98C243.73,-46.34 277.28,-32.87 301.83,-23.02"/>
<polygon fill="black" stroke="black" points="303.43,-26.14 311.41,-19.17 300.82,-19.65 303.43,-26.14"/>
</g>
</g>
</svg>
