<?xml version="1.0" encoding="UTF-8" standalone="no"?>
<!DOCTYPE svg PUBLIC "-//W3C//DTD SVG 1.1//EN"
 "http://www.w3.org/Graphics/SVG/1.1/DTD/svg11.dtd">
<!-- Generated by graphviz version 2.43.0 (0)
 -->
<!-- Title: opp Pages: 1 -->
<svg width="398pt" height="82pt"
 viewBox="0.00 0.00 397.50 82.00" xmlns="http://www.w3.org/2000/svg" xmlns:xlink="http://www.w3.org/1999/xlink">
<g id="graph0" class="graph" transform="scale(1 1) rotate(0) translate(4 78)">
<title>opp</title>
<polygon fill="transparent" stroke="transparent" points="-4,4 -4,-78 393.5,-78 393.5,4 -4,4"/>
<!-- ManualConfigurationShowcase -->
<g id="node1" class="node">
<title>ManualConfigurationShowcase</title>
<g id="a_node1"><a xlink:href="inet.showcases.tsn.framereplication.manualconfiguration.ManualConfigurationShowcase.html" xlink:title="Network ManualConfigurationShowcase" target="_parent">
<polygon fill="#9090ff" stroke="black" points="272.5,-74 105.5,-74 105.5,-55 272.5,-55 272.5,-74"/>
<text text-anchor="middle" x="189" y="-62" font-family="Helvetica,sans-Serif" font-size="10.00">ManualConfigurationShowcase</text>
</a>
</g>
</g>
<!-- EthernetLink -->
<g id="node2" class="node">
<title>EthernetLink</title>
<g id="a_node2"><a xlink:href="inet.node.ethernet.EthernetLink.html" xlink:title="Channel EthernetLink" target="_parent">
<polygon fill="#d0ffd0" stroke="black" points="78,-19 0,-19 0,0 78,0 78,-19"/>
<text text-anchor="middle" x="39" y="-7" font-family="Helvetica,sans-Serif" font-size="10.00">EthernetLink</text>
</a>
</g>
</g>
<!-- ManualConfigurationShowcase&#45;&gt;EthernetLink -->
<g id="edge1" class="edge">
<title>ManualConfigurationShowcase&#45;&gt;EthernetLink</title>
<path fill="none" stroke="black" d="M164.9,-54.98C140.12,-46.23 101.3,-32.51 73.31,-22.62"/>
<polygon fill="black" stroke="black" points="74.13,-19.2 63.54,-19.17 71.8,-25.8 74.13,-19.2"/>
</g>
<!-- LocalTsnSwitch -->
<g id="node3" class="node">
<title>LocalTsnSwitch</title>
<g id="a_node3"><a xlink:href="inet.showcases.tsn.framereplication.manualconfiguration.LocalTsnSwitch.html" xlink:title="Compound Module LocalTsnSwitch" target="_parent">
<polygon fill="#fffcaf" stroke="black" points="186,-19 96,-19 96,0 186,0 186,-19"/>
<text text-anchor="middle" x="141" y="-7" font-family="Helvetica,sans-Serif" font-size="10.00">LocalTsnSwitch</text>
</a>
</g>
</g>
<!-- ManualConfigurationShowcase&#45;&gt;LocalTsnSwitch -->
<g id="edge2" class="edge">
<title>ManualConfigurationShowcase&#45;&gt;LocalTsnSwitch</title>
<path fill="none" stroke="black" d="M181.07,-54.75C174.15,-47.11 163.93,-35.82 155.55,-26.56"/>
<polygon fill="black" stroke="black" points="158.09,-24.15 148.78,-19.09 152.9,-28.85 158.09,-24.15"/>
</g>
<!-- TsnDevice -->
<g id="node4" class="node">
<title>TsnDevice</title>
<g id="a_node4"><a xlink:href="inet.node.tsn.TsnDevice.html" xlink:title="Compound Module TsnDevice" target="_parent">
<polygon fill="#fffcaf" stroke="black" points="270,-19 204,-19 204,0 270,0 270,-19"/>
<text text-anchor="middle" x="237" y="-7" font-family="Helvetica,sans-Serif" font-size="10.00">TsnDevice</text>
</a>
</g>
</g>
<!-- ManualConfigurationShowcase&#45;&gt;TsnDevice -->
<g id="edge3" class="edge">
<title>ManualConfigurationShowcase&#45;&gt;TsnDevice</title>
<path fill="none" stroke="black" d="M196.93,-54.75C203.85,-47.11 214.07,-35.82 222.45,-26.56"/>
<polygon fill="black" stroke="black" points="225.1,-28.85 229.22,-19.09 219.91,-24.15 225.1,-28.85"/>
</g>
<!-- ScenarioManager -->
<g id="node5" class="node">
<title>ScenarioManager</title>
<g id="a_node5"><a xlink:href="inet.common.scenario.ScenarioManager.html" xlink:title="Simple Module ScenarioManager" target="_parent">
<polygon fill="#fffcaf" stroke="black" points="389.5,-19 288.5,-19 288.5,0 389.5,0 389.5,-19"/>
<text text-anchor="middle" x="339" y="-7" font-family="Helvetica,sans-Serif" font-size="10.00">ScenarioManager</text>
</a>
</g>
</g>
<!-- ManualConfigurationShowcase&#45;&gt;ScenarioManager -->
<g id="edge4" class="edge">
<title>ManualConfigurationShowcase&#45;&gt;ScenarioManager</title>
<path fill="none" stroke="black" d="M213.1,-54.98C237.88,-46.23 276.7,-32.51 304.69,-22.62"/>
<polygon fill="black" stroke="black" points="306.2,-25.8 314.46,-19.17 303.87,-19.2 306.2,-25.8"/>
</g>
</g>
</svg>
