<?xml version="1.0" encoding="UTF-8" standalone="no"?>
<!DOCTYPE svg PUBLIC "-//W3C//DTD SVG 1.1//EN"
 "http://www.w3.org/Graphics/SVG/1.1/DTD/svg11.dtd">
<!-- Generated by graphviz version 2.43.0 (0)
 -->
<!-- Title: opp Pages: 1 -->
<svg width="440pt" height="82pt"
 viewBox="0.00 0.00 440.00 82.00" xmlns="http://www.w3.org/2000/svg" xmlns:xlink="http://www.w3.org/1999/xlink">
<g id="graph0" class="graph" transform="scale(1 1) rotate(0) translate(4 78)">
<title>opp</title>
<polygon fill="transparent" stroke="transparent" points="-4,4 -4,-78 436,-78 436,4 -4,4"/>
<!-- NClientsEth -->
<g id="node1" class="node">
<title>NClientsEth</title>
<g id="a_node1"><a xlink:href="inet.examples.ipv6.ipv6nclients.NClientsEth.html" xlink:title="Network NClientsEth" target="_parent">
<polygon fill="#9090ff" stroke="black" points="255.5,-74 181.5,-74 181.5,-55 255.5,-55 255.5,-74"/>
<text text-anchor="middle" x="218.5" y="-62" font-family="Helvetica,sans-Serif" font-size="10.00">NClientsEth</text>
</a>
</g>
</g>
<!-- Router6 -->
<g id="node2" class="node">
<title>Router6</title>
<g id="a_node2"><a xlink:href="inet.node.ipv6.Router6.html" xlink:title="Compound Module Router6" target="_parent">
<polygon fill="#fffcaf" stroke="black" points="55,-19 0,-19 0,0 55,0 55,-19"/>
<text text-anchor="middle" x="27.5" y="-7" font-family="Helvetica,sans-Serif" font-size="10.00">Router6</text>
</a>
</g>
</g>
<!-- NClientsEth&#45;&gt;Router6 -->
<g id="edge1" class="edge">
<title>NClientsEth&#45;&gt;Router6</title>
<path fill="none" stroke="black" d="M187.81,-54.98C154.41,-45.72 100.99,-30.89 65.09,-20.93"/>
<polygon fill="black" stroke="black" points="65.58,-17.44 55.01,-18.13 63.71,-24.18 65.58,-17.44"/>
</g>
<!-- Ipv6FlatNetworkConfigurator -->
<g id="node3" class="node">
<title>Ipv6FlatNetworkConfigurator</title>
<g id="a_node3"><a xlink:href="inet.networklayer.configurator.ipv6.Ipv6FlatNetworkConfigurator.html" xlink:title="Simple Module Ipv6FlatNetworkConfigurator" target="_parent">
<polygon fill="#fffcaf" stroke="black" points="230.5,-19 72.5,-19 72.5,0 230.5,0 230.5,-19"/>
<text text-anchor="middle" x="151.5" y="-7" font-family="Helvetica,sans-Serif" font-size="10.00">Ipv6FlatNetworkConfigurator</text>
</a>
</g>
</g>
<!-- NClientsEth&#45;&gt;Ipv6FlatNetworkConfigurator -->
<g id="edge2" class="edge">
<title>NClientsEth&#45;&gt;Ipv6FlatNetworkConfigurator</title>
<path fill="none" stroke="black" d="M207.74,-54.98C197.73,-47.07 182.61,-35.11 170.57,-25.58"/>
<polygon fill="black" stroke="black" points="172.47,-22.63 162.46,-19.17 168.13,-28.12 172.47,-22.63"/>
</g>
<!-- ethernetline -->
<g id="node4" class="node">
<title>ethernetline</title>
<g id="a_node4"><a xlink:href="inet.examples.ipv6.ipv6nclients.NClientsEth.ethernetline.html" xlink:title="Channel ethernetline" target="_parent">
<polygon fill="#d0ffd0" stroke="black" points="324.5,-19 248.5,-19 248.5,0 324.5,0 324.5,-19"/>
<text text-anchor="middle" x="286.5" y="-7" font-family="Helvetica,sans-Serif" font-size="10.00">ethernetline</text>
</a>
</g>
</g>
<!-- NClientsEth&#45;&gt;ethernetline -->
<g id="edge3" class="edge">
<title>NClientsEth&#45;&gt;ethernetline</title>
<path fill="none" stroke="black" d="M229.43,-54.98C239.58,-47.07 254.92,-35.11 267.15,-25.58"/>
<polygon fill="black" stroke="black" points="269.64,-28.08 275.38,-19.17 265.34,-22.56 269.64,-28.08"/>
</g>
<!-- StandardHost6 -->
<g id="node5" class="node">
<title>StandardHost6</title>
<g id="a_node5"><a xlink:href="inet.node.ipv6.StandardHost6.html" xlink:title="Compound Module StandardHost6" target="_parent">
<polygon fill="#fffcaf" stroke="black" points="432,-19 343,-19 343,0 432,0 432,-19"/>
<text text-anchor="middle" x="387.5" y="-7" font-family="Helvetica,sans-Serif" font-size="10.00">StandardHost6</text>
</a>
</g>
</g>
<!-- NClientsEth&#45;&gt;StandardHost6 -->
<g id="edge4" class="edge">
<title>NClientsEth&#45;&gt;StandardHost6</title>
<path fill="none" stroke="black" d="M245.65,-54.98C274.03,-46.09 318.73,-32.07 350.36,-22.15"/>
<polygon fill="black" stroke="black" points="351.64,-25.41 360.13,-19.08 349.55,-18.73 351.64,-25.41"/>
</g>
</g>
</svg>
