<?xml version="1.0" encoding="UTF-8" standalone="no"?>
<!DOCTYPE svg PUBLIC "-//W3C//DTD SVG 1.1//EN"
 "http://www.w3.org/Graphics/SVG/1.1/DTD/svg11.dtd">
<!-- Generated by graphviz version 2.43.0 (0)
 -->
<!-- Title: opp Pages: 1 -->
<svg width="452pt" height="82pt"
 viewBox="0.00 0.00 452.00 82.00" xmlns="http://www.w3.org/2000/svg" xmlns:xlink="http://www.w3.org/1999/xlink">
<g id="graph0" class="graph" transform="scale(1 1) rotate(0) translate(4 78)">
<title>opp</title>
<polygon fill="transparent" stroke="transparent" points="-4,4 -4,-78 448,-78 448,4 -4,4"/>
<!-- DataLinkVisualizerEnablingWiredShowcase -->
<g id="node1" class="node">
<title>DataLinkVisualizerEnablingWiredShowcase</title>
<g id="a_node1"><a xlink:href="inet.showcases.visualizer.canvas.datalinkactivity.DataLinkVisualizerEnablingWiredShowcase.html" xlink:title="Network DataLinkVisualizerEnablingWiredShowcase" target="_parent">
<polygon fill="#9090ff" stroke="black" points="355,-74 128,-74 128,-55 355,-55 355,-74"/>
<text text-anchor="middle" x="241.5" y="-62" font-family="Helvetica,sans-Serif" font-size="10.00">DataLinkVisualizerEnablingWiredShowcase</text>
</a>
</g>
</g>
<!-- StandardHost -->
<g id="node2" class="node">
<title>StandardHost</title>
<g id="a_node2"><a xlink:href="inet.node.inet.StandardHost.html" xlink:title="Compound Module StandardHost" target="_parent">
<polygon fill="#fffcaf" stroke="black" points="83,-19 0,-19 0,0 83,0 83,-19"/>
<text text-anchor="middle" x="41.5" y="-7" font-family="Helvetica,sans-Serif" font-size="10.00">StandardHost</text>
</a>
</g>
</g>
<!-- DataLinkVisualizerEnablingWiredShowcase&#45;&gt;StandardHost -->
<g id="edge1" class="edge">
<title>DataLinkVisualizerEnablingWiredShowcase&#45;&gt;StandardHost</title>
<path fill="none" stroke="black" d="M209.37,-54.98C175.35,-45.97 121.5,-31.7 84,-21.76"/>
<polygon fill="black" stroke="black" points="84.45,-18.26 73.89,-19.08 82.66,-25.03 84.45,-18.26"/>
</g>
<!-- Ipv4NetworkConfigurator -->
<g id="node3" class="node">
<title>Ipv4NetworkConfigurator</title>
<g id="a_node3"><a xlink:href="inet.networklayer.configurator.ipv4.Ipv4NetworkConfigurator.html" xlink:title="Simple Module Ipv4NetworkConfigurator" target="_parent">
<polygon fill="#fffcaf" stroke="black" points="240,-19 101,-19 101,0 240,0 240,-19"/>
<text text-anchor="middle" x="170.5" y="-7" font-family="Helvetica,sans-Serif" font-size="10.00">Ipv4NetworkConfigurator</text>
</a>
</g>
</g>
<!-- DataLinkVisualizerEnablingWiredShowcase&#45;&gt;Ipv4NetworkConfigurator -->
<g id="edge2" class="edge">
<title>DataLinkVisualizerEnablingWiredShowcase&#45;&gt;Ipv4NetworkConfigurator</title>
<path fill="none" stroke="black" d="M230.09,-54.98C219.39,-47 203.16,-34.88 190.34,-25.31"/>
<polygon fill="black" stroke="black" points="192.22,-22.35 182.11,-19.17 188.03,-27.96 192.22,-22.35"/>
</g>
<!-- DataLinkVisualizer -->
<g id="node4" class="node">
<title>DataLinkVisualizer</title>
<g id="a_node4"><a xlink:href="inet.visualizer.common.DataLinkVisualizer.html" xlink:title="Compound Module DataLinkVisualizer" target="_parent">
<polygon fill="#fffcaf" stroke="black" points="366.5,-19 258.5,-19 258.5,0 366.5,0 366.5,-19"/>
<text text-anchor="middle" x="312.5" y="-7" font-family="Helvetica,sans-Serif" font-size="10.00">DataLinkVisualizer</text>
</a>
</g>
</g>
<!-- DataLinkVisualizerEnablingWiredShowcase&#45;&gt;DataLinkVisualizer -->
<g id="edge3" class="edge">
<title>DataLinkVisualizerEnablingWiredShowcase&#45;&gt;DataLinkVisualizer</title>
<path fill="none" stroke="black" d="M252.91,-54.98C263.61,-47 279.84,-34.88 292.66,-25.31"/>
<polygon fill="black" stroke="black" points="294.97,-27.96 300.89,-19.17 290.78,-22.35 294.97,-27.96"/>
</g>
<!-- Eth100M -->
<g id="node5" class="node">
<title>Eth100M</title>
<g id="a_node5"><a xlink:href="inet.node.ethernet.Eth100M.html" xlink:title="Channel Eth100M" target="_parent">
<polygon fill="#d0ffd0" stroke="black" points="444,-19 385,-19 385,0 444,0 444,-19"/>
<text text-anchor="middle" x="414.5" y="-7" font-family="Helvetica,sans-Serif" font-size="10.00">Eth100M</text>
</a>
</g>
</g>
<!-- DataLinkVisualizerEnablingWiredShowcase&#45;&gt;Eth100M -->
<g id="edge4" class="edge">
<title>DataLinkVisualizerEnablingWiredShowcase&#45;&gt;Eth100M</title>
<path fill="none" stroke="black" d="M269.3,-54.98C298.47,-46.05 344.5,-31.94 376.9,-22.02"/>
<polygon fill="black" stroke="black" points="377.95,-25.36 386.49,-19.08 375.9,-18.66 377.95,-25.36"/>
</g>
</g>
</svg>
