<?xml version="1.0" encoding="UTF-8" standalone="no"?>
<!DOCTYPE svg PUBLIC "-//W3C//DTD SVG 1.1//EN"
 "http://www.w3.org/Graphics/SVG/1.1/DTD/svg11.dtd">
<!-- Generated by graphviz version 2.43.0 (0)
 -->
<!-- Title: opp Pages: 1 -->
<svg width="465pt" height="137pt"
 viewBox="0.00 0.00 464.50 137.00" xmlns="http://www.w3.org/2000/svg" xmlns:xlink="http://www.w3.org/1999/xlink">
<g id="graph0" class="graph" transform="scale(1 1) rotate(0) translate(4 133)">
<title>opp</title>
<polygon fill="transparent" stroke="transparent" points="-4,4 -4,-133 460.5,-133 460.5,4 -4,4"/>
<!-- IPacketMarker -->
<g id="node1" class="node">
<title>IPacketMarker</title>
<g id="a_node1"><a xlink:href="inet.queueing.contract.IPacketMarker.html" xlink:title="Module Interface IPacketMarker" target="_parent">
<polygon fill="#fff700" stroke="black" stroke-dasharray="5,2" points="299,-74 214,-74 214,-55 299,-55 299,-74"/>
<text text-anchor="middle" x="256.5" y="-62" font-family="Helvetica,sans-Serif" font-size="10.00">IPacketMarker</text>
</a>
</g>
</g>
<!-- ContentBasedLabeler -->
<g id="node3" class="node">
<title>ContentBasedLabeler</title>
<g id="a_node3"><a xlink:href="inet.queueing.marker.ContentBasedLabeler.html" xlink:title="Simple Module ContentBasedLabeler" target="_parent">
<polygon fill="#fffcaf" stroke="black" points="121,-19 0,-19 0,0 121,0 121,-19"/>
<text text-anchor="middle" x="60.5" y="-7" font-family="Helvetica,sans-Serif" font-size="10.00">ContentBasedLabeler</text>
</a>
</g>
</g>
<!-- IPacketMarker&#45;&gt;ContentBasedLabeler -->
<g id="edge2" class="edge">
<title>IPacketMarker&#45;&gt;ContentBasedLabeler</title>
<path fill="none" stroke="black" stroke-dasharray="5,2" d="M225.01,-54.98C188.54,-45.12 128.81,-28.97 92.24,-19.08"/>
</g>
<!-- ContentBasedTagger -->
<g id="node4" class="node">
<title>ContentBasedTagger</title>
<g id="a_node4"><a xlink:href="inet.queueing.marker.ContentBasedTagger.html" xlink:title="Simple Module ContentBasedTagger" target="_parent">
<polygon fill="#fffcaf" stroke="black" points="256,-19 139,-19 139,0 256,0 256,-19"/>
<text text-anchor="middle" x="197.5" y="-7" font-family="Helvetica,sans-Serif" font-size="10.00">ContentBasedTagger</text>
</a>
</g>
</g>
<!-- IPacketMarker&#45;&gt;ContentBasedTagger -->
<g id="edge3" class="edge">
<title>IPacketMarker&#45;&gt;ContentBasedTagger</title>
<path fill="none" stroke="black" stroke-dasharray="5,2" d="M247.02,-54.98C236.08,-45.15 218.17,-29.07 207.15,-19.17"/>
</g>
<!-- PacketLabeler -->
<g id="node5" class="node">
<title>PacketLabeler</title>
<g id="a_node5"><a xlink:href="inet.queueing.marker.PacketLabeler.html" xlink:title="Simple Module PacketLabeler" target="_parent">
<polygon fill="#fffcaf" stroke="black" points="358.5,-19 274.5,-19 274.5,0 358.5,0 358.5,-19"/>
<text text-anchor="middle" x="316.5" y="-7" font-family="Helvetica,sans-Serif" font-size="10.00">PacketLabeler</text>
</a>
</g>
</g>
<!-- IPacketMarker&#45;&gt;PacketLabeler -->
<g id="edge4" class="edge">
<title>IPacketMarker&#45;&gt;PacketLabeler</title>
<path fill="none" stroke="black" stroke-dasharray="5,2" d="M266.14,-54.98C277.27,-45.15 295.48,-29.07 306.68,-19.17"/>
</g>
<!-- PacketTagger -->
<g id="node6" class="node">
<title>PacketTagger</title>
<g id="a_node6"><a xlink:href="inet.queueing.marker.PacketTagger.html" xlink:title="Simple Module PacketTagger" target="_parent">
<polygon fill="#fffcaf" stroke="black" points="456.5,-19 376.5,-19 376.5,0 456.5,0 456.5,-19"/>
<text text-anchor="middle" x="416.5" y="-7" font-family="Helvetica,sans-Serif" font-size="10.00">PacketTagger</text>
</a>
</g>
</g>
<!-- IPacketMarker&#45;&gt;PacketTagger -->
<g id="edge5" class="edge">
<title>IPacketMarker&#45;&gt;PacketTagger</title>
<path fill="none" stroke="black" stroke-dasharray="5,2" d="M282.21,-54.98C311.98,-45.12 360.74,-28.97 390.59,-19.08"/>
</g>
<!-- IPacketFlow -->
<g id="node2" class="node">
<title>IPacketFlow</title>
<g id="a_node2"><a xlink:href="inet.queueing.contract.IPacketFlow.html" xlink:title="Module Interface IPacketFlow" target="_parent">
<polygon fill="#fffcaf" stroke="black" stroke-dasharray="5,2" points="293.5,-129 219.5,-129 219.5,-110 293.5,-110 293.5,-129"/>
<text text-anchor="middle" x="256.5" y="-117" font-family="Helvetica,sans-Serif" font-size="10.00">IPacketFlow</text>
</a>
</g>
</g>
<!-- IPacketFlow&#45;&gt;IPacketMarker -->
<g id="edge1" class="edge">
<title>IPacketFlow&#45;&gt;IPacketMarker</title>
<path fill="none" stroke="black" d="M256.5,-109.75C256.5,-99.87 256.5,-83.9 256.5,-74.09"/>
</g>
</g>
</svg>
