<?xml version="1.0" encoding="UTF-8" standalone="no"?>
<!DOCTYPE svg PUBLIC "-//W3C//DTD SVG 1.1//EN"
 "http://www.w3.org/Graphics/SVG/1.1/DTD/svg11.dtd">
<!-- Generated by graphviz version 2.43.0 (0)
 -->
<!-- Title: opp Pages: 1 -->
<svg width="782pt" height="82pt"
 viewBox="0.00 0.00 781.50 82.00" xmlns="http://www.w3.org/2000/svg" xmlns:xlink="http://www.w3.org/1999/xlink">
<g id="graph0" class="graph" transform="scale(1 1) rotate(0) translate(4 78)">
<title>opp</title>
<polygon fill="transparent" stroke="transparent" points="-4,4 -4,-78 777.5,-78 777.5,4 -4,4"/>
<!-- BgpNetwork -->
<g id="node1" class="node">
<title>BgpNetwork</title>
<g id="a_node1"><a xlink:href="inet.examples.bgpv4.BgpCompleteTest.BgpNetwork.html" xlink:title="Network BgpNetwork" target="_parent">
<polygon fill="#9090ff" stroke="black" points="336,-74 259,-74 259,-55 336,-55 336,-74"/>
<text text-anchor="middle" x="297.5" y="-62" font-family="Helvetica,sans-Serif" font-size="10.00">BgpNetwork</text>
</a>
</g>
</g>
<!-- OspfRouter -->
<g id="node2" class="node">
<title>OspfRouter</title>
<g id="a_node2"><a xlink:href="inet.node.ospfv2.OspfRouter.html" xlink:title="Compound Module OspfRouter" target="_parent">
<polygon fill="#fffcaf" stroke="black" points="71,-19 0,-19 0,0 71,0 71,-19"/>
<text text-anchor="middle" x="35.5" y="-7" font-family="Helvetica,sans-Serif" font-size="10.00">OspfRouter</text>
</a>
</g>
</g>
<!-- BgpNetwork&#45;&gt;OspfRouter -->
<g id="edge1" class="edge">
<title>BgpNetwork&#45;&gt;OspfRouter</title>
<path fill="none" stroke="black" d="M258.84,-55.68C211.57,-46.12 131.65,-29.95 81.33,-19.77"/>
<polygon fill="black" stroke="black" points="81.86,-16.31 71.37,-17.76 80.48,-23.17 81.86,-16.31"/>
</g>
<!-- BgpRouter -->
<g id="node3" class="node">
<title>BgpRouter</title>
<g id="a_node3"><a xlink:href="inet.node.bgp.BgpRouter.html" xlink:title="Compound Module BgpRouter" target="_parent">
<polygon fill="#fffcaf" stroke="black" points="157.5,-19 89.5,-19 89.5,0 157.5,0 157.5,-19"/>
<text text-anchor="middle" x="123.5" y="-7" font-family="Helvetica,sans-Serif" font-size="10.00">BgpRouter</text>
</a>
</g>
</g>
<!-- BgpNetwork&#45;&gt;BgpRouter -->
<g id="edge2" class="edge">
<title>BgpNetwork&#45;&gt;BgpRouter</title>
<path fill="none" stroke="black" d="M269.54,-54.98C240.2,-46.05 193.9,-31.94 161.31,-22.02"/>
<polygon fill="black" stroke="black" points="162.26,-18.65 151.68,-19.08 160.22,-25.34 162.26,-18.65"/>
</g>
<!-- LINK_100 -->
<g id="node4" class="node">
<title>LINK_100</title>
<g id="a_node4"><a xlink:href="inet.examples.bgpv4.BgpCompleteTest.BgpNetwork.LINK_100.html" xlink:title="Channel LINK_100" target="_parent">
<polygon fill="#d0ffd0" stroke="black" points="237.5,-19 175.5,-19 175.5,0 237.5,0 237.5,-19"/>
<text text-anchor="middle" x="206.5" y="-7" font-family="Helvetica,sans-Serif" font-size="10.00">LINK_100</text>
</a>
</g>
</g>
<!-- BgpNetwork&#45;&gt;LINK_100 -->
<g id="edge3" class="edge">
<title>BgpNetwork&#45;&gt;LINK_100</title>
<path fill="none" stroke="black" d="M282.88,-54.98C268.64,-46.69 246.75,-33.94 230.05,-24.22"/>
<polygon fill="black" stroke="black" points="231.79,-21.18 221.39,-19.17 228.27,-27.23 231.79,-21.18"/>
</g>
<!-- StandardHost -->
<g id="node5" class="node">
<title>StandardHost</title>
<g id="a_node5"><a xlink:href="inet.node.inet.StandardHost.html" xlink:title="Compound Module StandardHost" target="_parent">
<polygon fill="#fffcaf" stroke="black" points="339,-19 256,-19 256,0 339,0 339,-19"/>
<text text-anchor="middle" x="297.5" y="-7" font-family="Helvetica,sans-Serif" font-size="10.00">StandardHost</text>
</a>
</g>
</g>
<!-- BgpNetwork&#45;&gt;StandardHost -->
<g id="edge4" class="edge">
<title>BgpNetwork&#45;&gt;StandardHost</title>
<path fill="none" stroke="black" d="M297.5,-54.75C297.5,-47.8 297.5,-37.85 297.5,-29.13"/>
<polygon fill="black" stroke="black" points="301,-29.09 297.5,-19.09 294,-29.09 301,-29.09"/>
</g>
<!-- IntegratedCanvasVisualizer -->
<g id="node6" class="node">
<title>IntegratedCanvasVisualizer</title>
<g id="a_node6"><a xlink:href="inet.visualizer.canvas.integrated.IntegratedCanvasVisualizer.html" xlink:title="Compound Module IntegratedCanvasVisualizer" target="_parent">
<polygon fill="#fffcaf" stroke="black" points="508,-19 357,-19 357,0 508,0 508,-19"/>
<text text-anchor="middle" x="432.5" y="-7" font-family="Helvetica,sans-Serif" font-size="10.00">IntegratedCanvasVisualizer</text>
</a>
</g>
</g>
<!-- BgpNetwork&#45;&gt;IntegratedCanvasVisualizer -->
<g id="edge5" class="edge">
<title>BgpNetwork&#45;&gt;IntegratedCanvasVisualizer</title>
<path fill="none" stroke="black" d="M319.19,-54.98C341.3,-46.3 375.82,-32.75 400.95,-22.88"/>
<polygon fill="black" stroke="black" points="402.39,-26.08 410.42,-19.17 399.83,-19.57 402.39,-26.08"/>
</g>
<!-- Ipv4NetworkConfigurator -->
<g id="node7" class="node">
<title>Ipv4NetworkConfigurator</title>
<g id="a_node7"><a xlink:href="inet.networklayer.configurator.ipv4.Ipv4NetworkConfigurator.html" xlink:title="Simple Module Ipv4NetworkConfigurator" target="_parent">
<polygon fill="#fffcaf" stroke="black" points="665,-19 526,-19 526,0 665,0 665,-19"/>
<text text-anchor="middle" x="595.5" y="-7" font-family="Helvetica,sans-Serif" font-size="10.00">Ipv4NetworkConfigurator</text>
</a>
</g>
</g>
<!-- BgpNetwork&#45;&gt;Ipv4NetworkConfigurator -->
<g id="edge6" class="edge">
<title>BgpNetwork&#45;&gt;Ipv4NetworkConfigurator</title>
<path fill="none" stroke="black" d="M336.15,-56.63C387.36,-47.52 478.14,-31.37 537.57,-20.8"/>
<polygon fill="black" stroke="black" points="538.32,-24.22 547.55,-19.03 537.1,-17.33 538.32,-24.22"/>
</g>
<!-- EthernetSwitch -->
<g id="node8" class="node">
<title>EthernetSwitch</title>
<g id="a_node8"><a xlink:href="inet.node.ethernet.EthernetSwitch.html" xlink:title="Compound Module EthernetSwitch" target="_parent">
<polygon fill="#fffcaf" stroke="black" points="773.5,-19 683.5,-19 683.5,0 773.5,0 773.5,-19"/>
<text text-anchor="middle" x="728.5" y="-7" font-family="Helvetica,sans-Serif" font-size="10.00">EthernetSwitch</text>
</a>
</g>
</g>
<!-- BgpNetwork&#45;&gt;EthernetSwitch -->
<g id="edge7" class="edge">
<title>BgpNetwork&#45;&gt;EthernetSwitch</title>
<path fill="none" stroke="black" d="M336.1,-59.44C402.69,-52.33 543.7,-36.8 673.33,-19.11"/>
<polygon fill="black" stroke="black" points="674.01,-22.55 683.44,-17.73 673.05,-15.62 674.01,-22.55"/>
</g>
</g>
</svg>
