<?xml version="1.0" encoding="UTF-8" standalone="no"?>
<!DOCTYPE svg PUBLIC "-//W3C//DTD SVG 1.1//EN"
 "http://www.w3.org/Graphics/SVG/1.1/DTD/svg11.dtd">
<!-- Generated by graphviz version 2.43.0 (0)
 -->
<!-- Title: opp Pages: 1 -->
<svg width="141pt" height="137pt"
 viewBox="0.00 0.00 141.00 137.00" xmlns="http://www.w3.org/2000/svg" xmlns:xlink="http://www.w3.org/1999/xlink">
<g id="graph0" class="graph" transform="scale(1 1) rotate(0) translate(4 133)">
<title>opp</title>
<polygon fill="transparent" stroke="transparent" points="-4,4 -4,-133 137,-133 137,4 -4,4"/>
<!-- WirelessNetworkBase -->
<g id="node1" class="node">
<title>WirelessNetworkBase</title>
<g id="a_node1"><a xlink:href="inet.networks.base.WirelessNetworkBase.html" xlink:title="Network WirelessNetworkBase" target="_parent">
<polygon fill="#9090ff" stroke="black" points="128.5,-74 4.5,-74 4.5,-55 128.5,-55 128.5,-74"/>
<text text-anchor="middle" x="66.5" y="-62" font-family="Helvetica,sans-Serif" font-size="10.00">WirelessNetworkBase</text>
</a>
</g>
</g>
<!-- Ieee80211NetworkBase -->
<g id="node3" class="node">
<title>Ieee80211NetworkBase</title>
<g id="a_node3"><a xlink:href="inet.networks.base.Ieee80211NetworkBase.html" xlink:title="Network Ieee80211NetworkBase" target="_parent">
<polygon fill="#d0d0ff" stroke="black" points="133,-19 0,-19 0,0 133,0 133,-19"/>
<text text-anchor="middle" x="66.5" y="-7" font-family="Helvetica,sans-Serif" font-size="10.00">Ieee80211NetworkBase</text>
</a>
</g>
</g>
<!-- WirelessNetworkBase&#45;&gt;Ieee80211NetworkBase -->
<g id="edge2" class="edge">
<title>WirelessNetworkBase&#45;&gt;Ieee80211NetworkBase</title>
<path fill="none" stroke="black" d="M66.5,-54.75C66.5,-44.87 66.5,-28.9 66.5,-19.09"/>
</g>
<!-- NetworkBase -->
<g id="node2" class="node">
<title>NetworkBase</title>
<g id="a_node2"><a xlink:href="inet.networks.base.NetworkBase.html" xlink:title="Network NetworkBase" target="_parent">
<polygon fill="#d0d0ff" stroke="black" points="107.5,-129 25.5,-129 25.5,-110 107.5,-110 107.5,-129"/>
<text text-anchor="middle" x="66.5" y="-117" font-family="Helvetica,sans-Serif" font-size="10.00">NetworkBase</text>
</a>
</g>
</g>
<!-- NetworkBase&#45;&gt;WirelessNetworkBase -->
<g id="edge1" class="edge">
<title>NetworkBase&#45;&gt;WirelessNetworkBase</title>
<path fill="none" stroke="black" d="M66.5,-109.75C66.5,-99.87 66.5,-83.9 66.5,-74.09"/>
</g>
</g>
</svg>
