<?xml version="1.0" encoding="UTF-8" standalone="no"?>
<!DOCTYPE svg PUBLIC "-//W3C//DTD SVG 1.1//EN"
 "http://www.w3.org/Graphics/SVG/1.1/DTD/svg11.dtd">
<!-- Generated by graphviz version 2.43.0 (0)
 -->
<!-- Title: opp Pages: 1 -->
<svg width="529pt" height="82pt"
 viewBox="0.00 0.00 529.00 82.00" xmlns="http://www.w3.org/2000/svg" xmlns:xlink="http://www.w3.org/1999/xlink">
<g id="graph0" class="graph" transform="scale(1 1) rotate(0) translate(4 78)">
<title>opp</title>
<polygon fill="transparent" stroke="transparent" points="-4,4 -4,-78 525,-78 525,4 -4,4"/>
<!-- DynamicTest -->
<g id="node1" class="node">
<title>DynamicTest</title>
<g id="a_node1"><a xlink:href="inet.examples.ospfv2.dynamictest.DynamicTest.html" xlink:title="Network DynamicTest" target="_parent">
<polygon fill="#9090ff" stroke="black" points="243.5,-74 163.5,-74 163.5,-55 243.5,-55 243.5,-74"/>
<text text-anchor="middle" x="203.5" y="-62" font-family="Helvetica,sans-Serif" font-size="10.00">DynamicTest</text>
</a>
</g>
</g>
<!-- OspfRouter -->
<g id="node2" class="node">
<title>OspfRouter</title>
<g id="a_node2"><a xlink:href="inet.node.ospfv2.OspfRouter.html" xlink:title="Compound Module OspfRouter" target="_parent">
<polygon fill="#fffcaf" stroke="black" points="71,-19 0,-19 0,0 71,0 71,-19"/>
<text text-anchor="middle" x="35.5" y="-7" font-family="Helvetica,sans-Serif" font-size="10.00">OspfRouter</text>
</a>
</g>
</g>
<!-- DynamicTest&#45;&gt;OspfRouter -->
<g id="edge1" class="edge">
<title>DynamicTest&#45;&gt;OspfRouter</title>
<path fill="none" stroke="black" d="M176.51,-54.98C148.3,-46.09 103.86,-32.07 72.42,-22.15"/>
<polygon fill="black" stroke="black" points="73.29,-18.75 62.7,-19.08 71.19,-25.43 73.29,-18.75"/>
</g>
<!-- C -->
<g id="node3" class="node">
<title>C</title>
<g id="a_node3"><a xlink:href="inet.examples.ospfv2.dynamictest.DynamicTest.C.html" xlink:title="Channel C" target="_parent">
<polygon fill="#d0ffd0" stroke="black" points="143.5,-19 89.5,-19 89.5,0 143.5,0 143.5,-19"/>
<text text-anchor="middle" x="116.5" y="-7" font-family="Helvetica,sans-Serif" font-size="10.00">C</text>
</a>
</g>
</g>
<!-- DynamicTest&#45;&gt;C -->
<g id="edge2" class="edge">
<title>DynamicTest&#45;&gt;C</title>
<path fill="none" stroke="black" d="M189.52,-54.98C176.03,-46.77 155.37,-34.18 139.46,-24.49"/>
<polygon fill="black" stroke="black" points="141.09,-21.38 130.73,-19.17 137.45,-27.36 141.09,-21.38"/>
</g>
<!-- StandardHost -->
<g id="node4" class="node">
<title>StandardHost</title>
<g id="a_node4"><a xlink:href="inet.node.inet.StandardHost.html" xlink:title="Compound Module StandardHost" target="_parent">
<polygon fill="#fffcaf" stroke="black" points="245,-19 162,-19 162,0 245,0 245,-19"/>
<text text-anchor="middle" x="203.5" y="-7" font-family="Helvetica,sans-Serif" font-size="10.00">StandardHost</text>
</a>
</g>
</g>
<!-- DynamicTest&#45;&gt;StandardHost -->
<g id="edge3" class="edge">
<title>DynamicTest&#45;&gt;StandardHost</title>
<path fill="none" stroke="black" d="M203.5,-54.75C203.5,-47.8 203.5,-37.85 203.5,-29.13"/>
<polygon fill="black" stroke="black" points="207,-29.09 203.5,-19.09 200,-29.09 207,-29.09"/>
</g>
<!-- Ipv4NetworkConfigurator -->
<g id="node5" class="node">
<title>Ipv4NetworkConfigurator</title>
<g id="a_node5"><a xlink:href="inet.networklayer.configurator.ipv4.Ipv4NetworkConfigurator.html" xlink:title="Simple Module Ipv4NetworkConfigurator" target="_parent">
<polygon fill="#fffcaf" stroke="black" points="402,-19 263,-19 263,0 402,0 402,-19"/>
<text text-anchor="middle" x="332.5" y="-7" font-family="Helvetica,sans-Serif" font-size="10.00">Ipv4NetworkConfigurator</text>
</a>
</g>
</g>
<!-- DynamicTest&#45;&gt;Ipv4NetworkConfigurator -->
<g id="edge4" class="edge">
<title>DynamicTest&#45;&gt;Ipv4NetworkConfigurator</title>
<path fill="none" stroke="black" d="M224.23,-54.98C245.26,-46.34 278.05,-32.87 302.04,-23.02"/>
<polygon fill="black" stroke="black" points="303.48,-26.21 311.4,-19.17 300.82,-19.73 303.48,-26.21"/>
</g>
<!-- ScenarioManager -->
<g id="node6" class="node">
<title>ScenarioManager</title>
<g id="a_node6"><a xlink:href="inet.common.scenario.ScenarioManager.html" xlink:title="Simple Module ScenarioManager" target="_parent">
<polygon fill="#fffcaf" stroke="black" points="521,-19 420,-19 420,0 521,0 521,-19"/>
<text text-anchor="middle" x="470.5" y="-7" font-family="Helvetica,sans-Serif" font-size="10.00">ScenarioManager</text>
</a>
</g>
</g>
<!-- DynamicTest&#45;&gt;ScenarioManager -->
<g id="edge5" class="edge">
<title>DynamicTest&#45;&gt;ScenarioManager</title>
<path fill="none" stroke="black" d="M243.76,-55.51C290.06,-46.32 366.24,-31.19 417.37,-21.05"/>
<polygon fill="black" stroke="black" points="418.12,-24.47 427.25,-19.09 416.76,-17.6 418.12,-24.47"/>
</g>
</g>
</svg>
