<?xml version="1.0" encoding="UTF-8" standalone="no"?>
<!DOCTYPE svg PUBLIC "-//W3C//DTD SVG 1.1//EN"
 "http://www.w3.org/Graphics/SVG/1.1/DTD/svg11.dtd">
<!-- Generated by graphviz version 2.43.0 (0)
 -->
<!-- Title: opp Pages: 1 -->
<svg width="1870pt" height="82pt"
 viewBox="0.00 0.00 1869.50 82.00" xmlns="http://www.w3.org/2000/svg" xmlns:xlink="http://www.w3.org/1999/xlink">
<g id="graph0" class="graph" transform="scale(1 1) rotate(0) translate(4 78)">
<title>opp</title>
<polygon fill="transparent" stroke="transparent" points="-4,4 -4,-78 1865.5,-78 1865.5,4 -4,4"/>
<!-- IPassivePacketSink -->
<g id="node1" class="node">
<title>IPassivePacketSink</title>
<g id="a_node1"><a xlink:href="inet.queueing.contract.IPassivePacketSink.html" xlink:title="Module Interface IPassivePacketSink" target="_parent">
<polygon fill="#fff700" stroke="black" stroke-dasharray="5,2" points="1035.5,-74 926.5,-74 926.5,-55 1035.5,-55 1035.5,-74"/>
<text text-anchor="middle" x="981" y="-62" font-family="Helvetica,sans-Serif" font-size="10.00">IPassivePacketSink</text>
</a>
</g>
</g>
<!-- FullPacketSink -->
<g id="node2" class="node">
<title>FullPacketSink</title>
<g id="a_node2"><a xlink:href="inet.queueing.sink.FullPacketSink.html" xlink:title="Simple Module FullPacketSink" target="_parent">
<polygon fill="#fffcaf" stroke="black" points="86,-19 0,-19 0,0 86,0 86,-19"/>
<text text-anchor="middle" x="43" y="-7" font-family="Helvetica,sans-Serif" font-size="10.00">FullPacketSink</text>
</a>
</g>
</g>
<!-- IPassivePacketSink&#45;&gt;FullPacketSink -->
<g id="edge1" class="edge">
<title>IPassivePacketSink&#45;&gt;FullPacketSink</title>
<path fill="none" stroke="black" stroke-dasharray="5,2" d="M926.39,-62.88C787.31,-60.84 408.57,-52.4 95,-19 92.09,-18.69 89.09,-18.32 86.08,-17.92"/>
</g>
<!-- PacketBasedTokenGenerator -->
<g id="node3" class="node">
<title>PacketBasedTokenGenerator</title>
<g id="a_node3"><a xlink:href="inet.queueing.tokengenerator.PacketBasedTokenGenerator.html" xlink:title="Simple Module PacketBasedTokenGenerator" target="_parent">
<polygon fill="#fffcaf" stroke="black" points="259.5,-19 104.5,-19 104.5,0 259.5,0 259.5,-19"/>
<text text-anchor="middle" x="182" y="-7" font-family="Helvetica,sans-Serif" font-size="10.00">PacketBasedTokenGenerator</text>
</a>
</g>
</g>
<!-- IPassivePacketSink&#45;&gt;PacketBasedTokenGenerator -->
<g id="edge2" class="edge">
<title>IPassivePacketSink&#45;&gt;PacketBasedTokenGenerator</title>
<path fill="none" stroke="black" stroke-dasharray="5,2" d="M926.47,-60.74C807.16,-54.57 514.06,-38.62 269,-19 265.97,-18.76 262.89,-18.5 259.78,-18.23"/>
</g>
<!-- PacketCloner -->
<g id="node4" class="node">
<title>PacketCloner</title>
<g id="a_node4"><a xlink:href="inet.queueing.common.PacketCloner.html" xlink:title="Simple Module PacketCloner" target="_parent">
<polygon fill="#fffcaf" stroke="black" points="358,-19 278,-19 278,0 358,0 358,-19"/>
<text text-anchor="middle" x="318" y="-7" font-family="Helvetica,sans-Serif" font-size="10.00">PacketCloner</text>
</a>
</g>
</g>
<!-- IPassivePacketSink&#45;&gt;PacketCloner -->
<g id="edge3" class="edge">
<title>IPassivePacketSink&#45;&gt;PacketCloner</title>
<path fill="none" stroke="black" stroke-dasharray="5,2" d="M926.2,-61.36C818.66,-56.75 572.53,-44.21 367,-19 364.09,-18.64 361.08,-18.23 358.06,-17.78"/>
</g>
<!-- PacketDuplicator -->
<g id="node5" class="node">
<title>PacketDuplicator</title>
<g id="a_node5"><a xlink:href="inet.queueing.common.PacketDuplicator.html" xlink:title="Simple Module PacketDuplicator" target="_parent">
<polygon fill="#fffcaf" stroke="black" points="474,-19 376,-19 376,0 474,0 474,-19"/>
<text text-anchor="middle" x="425" y="-7" font-family="Helvetica,sans-Serif" font-size="10.00">PacketDuplicator</text>
</a>
</g>
</g>
<!-- IPassivePacketSink&#45;&gt;PacketDuplicator -->
<g id="edge4" class="edge">
<title>IPassivePacketSink&#45;&gt;PacketDuplicator</title>
<path fill="none" stroke="black" stroke-dasharray="5,2" d="M926.37,-59.63C834.6,-52.91 643.77,-37.95 483,-19 480.07,-18.65 477.06,-18.28 474.02,-17.88"/>
</g>
<!-- PacketHistory -->
<g id="node6" class="node">
<title>PacketHistory</title>
<g id="a_node6"><a xlink:href="inet.queueing.common.PacketHistory.html" xlink:title="Compound Module PacketHistory" target="_parent">
<polygon fill="#fffcaf" stroke="black" points="575.5,-19 492.5,-19 492.5,0 575.5,0 575.5,-19"/>
<text text-anchor="middle" x="534" y="-7" font-family="Helvetica,sans-Serif" font-size="10.00">PacketHistory</text>
</a>
</g>
</g>
<!-- IPassivePacketSink&#45;&gt;PacketHistory -->
<g id="edge5" class="edge">
<title>IPassivePacketSink&#45;&gt;PacketHistory</title>
<path fill="none" stroke="black" stroke-dasharray="5,2" d="M926.44,-58.3C849.96,-50.79 706.62,-35.96 585,-19 581.98,-18.58 578.86,-18.12 575.72,-17.64"/>
</g>
<!-- PacketPushToSend -->
<g id="node7" class="node">
<title>PacketPushToSend</title>
<g id="a_node7"><a xlink:href="inet.queueing.common.PacketPushToSend.html" xlink:title="Simple Module PacketPushToSend" target="_parent">
<polygon fill="#fffcaf" stroke="black" points="700,-19 594,-19 594,0 700,0 700,-19"/>
<text text-anchor="middle" x="647" y="-7" font-family="Helvetica,sans-Serif" font-size="10.00">PacketPushToSend</text>
</a>
</g>
</g>
<!-- IPassivePacketSink&#45;&gt;PacketPushToSend -->
<g id="edge6" class="edge">
<title>IPassivePacketSink&#45;&gt;PacketPushToSend</title>
<path fill="none" stroke="black" stroke-dasharray="5,2" d="M927.34,-54.98C864.92,-45.08 762.5,-28.83 700.25,-18.95"/>
</g>
<!-- PassivePacketSink -->
<g id="node8" class="node">
<title>PassivePacketSink</title>
<g id="a_node8"><a xlink:href="inet.queueing.sink.PassivePacketSink.html" xlink:title="Simple Module PassivePacketSink" target="_parent">
<polygon fill="#fffcaf" stroke="black" points="824,-19 718,-19 718,0 824,0 824,-19"/>
<text text-anchor="middle" x="771" y="-7" font-family="Helvetica,sans-Serif" font-size="10.00">PassivePacketSink</text>
</a>
</g>
</g>
<!-- IPassivePacketSink&#45;&gt;PassivePacketSink -->
<g id="edge7" class="edge">
<title>IPassivePacketSink&#45;&gt;PassivePacketSink</title>
<path fill="none" stroke="black" stroke-dasharray="5,2" d="M947.26,-54.98C908.19,-45.12 844.19,-28.97 805,-19.08"/>
</g>
<!-- PcapFilePacketConsumer -->
<g id="node9" class="node">
<title>PcapFilePacketConsumer</title>
<g id="a_node9"><a xlink:href="inet.queueing.sink.PcapFilePacketConsumer.html" xlink:title="Simple Module PcapFilePacketConsumer" target="_parent">
<polygon fill="#fffcaf" stroke="black" points="980,-19 842,-19 842,0 980,0 980,-19"/>
<text text-anchor="middle" x="911" y="-7" font-family="Helvetica,sans-Serif" font-size="10.00">PcapFilePacketConsumer</text>
</a>
</g>
</g>
<!-- IPassivePacketSink&#45;&gt;PcapFilePacketConsumer -->
<g id="edge8" class="edge">
<title>IPassivePacketSink&#45;&gt;PcapFilePacketConsumer</title>
<path fill="none" stroke="black" stroke-dasharray="5,2" d="M969.75,-54.98C956.77,-45.15 935.52,-29.07 922.45,-19.17"/>
</g>
<!-- RequestConsumer -->
<g id="node10" class="node">
<title>RequestConsumer</title>
<g id="a_node10"><a xlink:href="inet.queueing.sink.RequestConsumer.html" xlink:title="Compound Module RequestConsumer" target="_parent">
<polygon fill="#fffcaf" stroke="black" points="1104,-19 998,-19 998,0 1104,0 1104,-19"/>
<text text-anchor="middle" x="1051" y="-7" font-family="Helvetica,sans-Serif" font-size="10.00">RequestConsumer</text>
</a>
</g>
</g>
<!-- IPassivePacketSink&#45;&gt;RequestConsumer -->
<g id="edge9" class="edge">
<title>IPassivePacketSink&#45;&gt;RequestConsumer</title>
<path fill="none" stroke="black" stroke-dasharray="5,2" d="M992.25,-54.98C1005.23,-45.15 1026.48,-29.07 1039.55,-19.17"/>
</g>
<!-- IPacketClassifier -->
<g id="node11" class="node">
<title>IPacketClassifier</title>
<g id="a_node11"><a xlink:href="inet.queueing.contract.IPacketClassifier.html" xlink:title="Module Interface IPacketClassifier" target="_parent">
<polygon fill="#fffcaf" stroke="black" stroke-dasharray="5,2" points="1218,-19 1122,-19 1122,0 1218,0 1218,-19"/>
<text text-anchor="middle" x="1170" y="-7" font-family="Helvetica,sans-Serif" font-size="10.00">IPacketClassifier</text>
</a>
</g>
</g>
<!-- IPassivePacketSink&#45;&gt;IPacketClassifier -->
<g id="edge10" class="edge">
<title>IPassivePacketSink&#45;&gt;IPacketClassifier</title>
<path fill="none" stroke="black" d="M1011.37,-54.98C1046.53,-45.12 1104.13,-28.97 1139.4,-19.08"/>
</g>
<!-- IPacketDelayer -->
<g id="node12" class="node">
<title>IPacketDelayer</title>
<g id="a_node12"><a xlink:href="inet.queueing.contract.IPacketDelayer.html" xlink:title="Module Interface IPacketDelayer" target="_parent">
<polygon fill="#fffcaf" stroke="black" stroke-dasharray="5,2" points="1325.5,-19 1236.5,-19 1236.5,0 1325.5,0 1325.5,-19"/>
<text text-anchor="middle" x="1281" y="-7" font-family="Helvetica,sans-Serif" font-size="10.00">IPacketDelayer</text>
</a>
</g>
</g>
<!-- IPassivePacketSink&#45;&gt;IPacketDelayer -->
<g id="edge11" class="edge">
<title>IPassivePacketSink&#45;&gt;IPacketDelayer</title>
<path fill="none" stroke="black" d="M1029.2,-54.98C1086.34,-44.89 1180.81,-28.2 1236.35,-18.39"/>
</g>
<!-- IPacketPolicing -->
<g id="node13" class="node">
<title>IPacketPolicing</title>
<g id="a_node13"><a xlink:href="inet.queueing.contract.IPacketPolicing.html" xlink:title="Module Interface IPacketPolicing" target="_parent">
<polygon fill="#fffcaf" stroke="black" stroke-dasharray="5,2" points="1432.5,-19 1343.5,-19 1343.5,0 1432.5,0 1432.5,-19"/>
<text text-anchor="middle" x="1388" y="-7" font-family="Helvetica,sans-Serif" font-size="10.00">IPacketPolicing</text>
</a>
</g>
</g>
<!-- IPassivePacketSink&#45;&gt;IPacketPolicing -->
<g id="edge12" class="edge">
<title>IPassivePacketSink&#45;&gt;IPacketPolicing</title>
<path fill="none" stroke="black" d="M1035.66,-57.21C1105.27,-49.07 1229.23,-34.13 1335,-19 1337.77,-18.6 1340.61,-18.18 1343.48,-17.75"/>
</g>
<!-- IPacketPusher -->
<g id="node14" class="node">
<title>IPacketPusher</title>
<g id="a_node14"><a xlink:href="inet.queueing.contract.IPacketPusher.html" xlink:title="Module Interface IPacketPusher" target="_parent">
<polygon fill="#fffcaf" stroke="black" stroke-dasharray="5,2" points="1534,-19 1450,-19 1450,0 1534,0 1534,-19"/>
<text text-anchor="middle" x="1492" y="-7" font-family="Helvetica,sans-Serif" font-size="10.00">IPacketPusher</text>
</a>
</g>
</g>
<!-- IPassivePacketSink&#45;&gt;IPacketPusher -->
<g id="edge13" class="edge">
<title>IPassivePacketSink&#45;&gt;IPacketPusher</title>
<path fill="none" stroke="black" d="M1035.79,-59.5C1122.3,-52.89 1295.74,-38.47 1442,-19 1444.53,-18.66 1447.13,-18.29 1449.75,-17.9"/>
</g>
<!-- IPacketQueue -->
<g id="node15" class="node">
<title>IPacketQueue</title>
<g id="a_node15"><a xlink:href="inet.queueing.contract.IPacketQueue.html" xlink:title="Module Interface IPacketQueue" target="_parent">
<polygon fill="#fffcaf" stroke="black" stroke-dasharray="5,2" points="1635.5,-19 1552.5,-19 1552.5,0 1635.5,0 1635.5,-19"/>
<text text-anchor="middle" x="1594" y="-7" font-family="Helvetica,sans-Serif" font-size="10.00">IPacketQueue</text>
</a>
</g>
</g>
<!-- IPassivePacketSink&#45;&gt;IPacketQueue -->
<g id="edge14" class="edge">
<title>IPassivePacketSink&#45;&gt;IPacketQueue</title>
<path fill="none" stroke="black" d="M1035.8,-60.73C1136.51,-55.3 1357.69,-41.74 1543,-19 1546.03,-18.63 1549.15,-18.21 1552.29,-17.75"/>
</g>
<!-- IPacketShaper -->
<g id="node16" class="node">
<title>IPacketShaper</title>
<g id="a_node16"><a xlink:href="inet.queueing.contract.IPacketShaper.html" xlink:title="Module Interface IPacketShaper" target="_parent">
<polygon fill="#fffcaf" stroke="black" stroke-dasharray="5,2" points="1738.5,-19 1653.5,-19 1653.5,0 1738.5,0 1738.5,-19"/>
<text text-anchor="middle" x="1696" y="-7" font-family="Helvetica,sans-Serif" font-size="10.00">IPacketShaper</text>
</a>
</g>
</g>
<!-- IPassivePacketSink&#45;&gt;IPacketShaper -->
<g id="edge15" class="edge">
<title>IPassivePacketSink&#45;&gt;IPacketShaper</title>
<path fill="none" stroke="black" d="M1035.82,-61.65C1149.65,-57.41 1419.78,-45.25 1645,-19 1647.76,-18.68 1650.61,-18.31 1653.47,-17.91"/>
</g>
<!-- ITrafficConditioner -->
<g id="node17" class="node">
<title>ITrafficConditioner</title>
<g id="a_node17"><a xlink:href="inet.queueing.contract.ITrafficConditioner.html" xlink:title="Module Interface ITrafficConditioner" target="_parent">
<polygon fill="#fffcaf" stroke="black" stroke-dasharray="5,2" points="1861.5,-19 1756.5,-19 1756.5,0 1861.5,0 1861.5,-19"/>
<text text-anchor="middle" x="1809" y="-7" font-family="Helvetica,sans-Serif" font-size="10.00">ITrafficConditioner</text>
</a>
</g>
</g>
<!-- IPassivePacketSink&#45;&gt;ITrafficConditioner -->
<g id="edge16" class="edge">
<title>IPassivePacketSink&#45;&gt;ITrafficConditioner</title>
<path fill="none" stroke="black" d="M1035.52,-61.84C1161.32,-57.7 1481.52,-45.25 1748,-19 1750.77,-18.73 1753.6,-18.42 1756.46,-18.09"/>
</g>
</g>
</svg>
