<?xml version="1.0" encoding="UTF-8" standalone="no"?>
<!DOCTYPE svg PUBLIC "-//W3C//DTD SVG 1.1//EN"
 "http://www.w3.org/Graphics/SVG/1.1/DTD/svg11.dtd">
<!-- Generated by graphviz version 2.43.0 (0)
 -->
<!-- Title: opp Pages: 1 -->
<svg width="553pt" height="137pt"
 viewBox="0.00 0.00 553.00 137.00" xmlns="http://www.w3.org/2000/svg" xmlns:xlink="http://www.w3.org/1999/xlink">
<g id="graph0" class="graph" transform="scale(1 1) rotate(0) translate(4 133)">
<title>opp</title>
<polygon fill="transparent" stroke="transparent" points="-4,4 -4,-133 549,-133 549,4 -4,4"/>
<!-- IPacketDelayer -->
<g id="node1" class="node">
<title>IPacketDelayer</title>
<g id="a_node1"><a xlink:href="inet.queueing.contract.IPacketDelayer.html" xlink:title="Module Interface IPacketDelayer" target="_parent">
<polygon fill="#fff700" stroke="black" stroke-dasharray="5,2" points="333,-74 244,-74 244,-55 333,-55 333,-74"/>
<text text-anchor="middle" x="288.5" y="-62" font-family="Helvetica,sans-Serif" font-size="10.00">IPacketDelayer</text>
</a>
</g>
</g>
<!-- EthernetCutthroughBarrier -->
<g id="node4" class="node">
<title>EthernetCutthroughBarrier</title>
<g id="a_node4"><a xlink:href="inet.linklayer.ethernet.modular.EthernetCutthroughBarrier.html" xlink:title="Simple Module EthernetCutthroughBarrier" target="_parent">
<polygon fill="#fffcaf" stroke="black" points="145,-19 0,-19 0,0 145,0 145,-19"/>
<text text-anchor="middle" x="72.5" y="-7" font-family="Helvetica,sans-Serif" font-size="10.00">EthernetCutthroughBarrier</text>
</a>
</g>
</g>
<!-- IPacketDelayer&#45;&gt;EthernetCutthroughBarrier -->
<g id="edge3" class="edge">
<title>IPacketDelayer&#45;&gt;EthernetCutthroughBarrier</title>
<path fill="none" stroke="black" stroke-dasharray="5,2" d="M253.8,-54.98C213.61,-45.12 147.78,-28.97 107.48,-19.08"/>
</g>
<!-- OmittedPacketDelayer -->
<g id="node5" class="node">
<title>OmittedPacketDelayer</title>
<g id="a_node5"><a xlink:href="inet.queueing.common.OmittedPacketDelayer.html" xlink:title="Compound Module OmittedPacketDelayer" target="_parent">
<polygon fill="#fffcaf" stroke="black" points="289.5,-19 163.5,-19 163.5,0 289.5,0 289.5,-19"/>
<text text-anchor="middle" x="226.5" y="-7" font-family="Helvetica,sans-Serif" font-size="10.00">OmittedPacketDelayer</text>
</a>
</g>
</g>
<!-- IPacketDelayer&#45;&gt;OmittedPacketDelayer -->
<g id="edge4" class="edge">
<title>IPacketDelayer&#45;&gt;OmittedPacketDelayer</title>
<path fill="none" stroke="black" stroke-dasharray="5,2" d="M278.54,-54.98C267.04,-45.15 248.22,-29.07 236.64,-19.17"/>
</g>
<!-- PacketDelayer -->
<g id="node6" class="node">
<title>PacketDelayer</title>
<g id="a_node6"><a xlink:href="inet.queueing.common.PacketDelayer.html" xlink:title="Simple Module PacketDelayer" target="_parent">
<polygon fill="#fffcaf" stroke="black" points="393.5,-19 307.5,-19 307.5,0 393.5,0 393.5,-19"/>
<text text-anchor="middle" x="350.5" y="-7" font-family="Helvetica,sans-Serif" font-size="10.00">PacketDelayer</text>
</a>
</g>
</g>
<!-- IPacketDelayer&#45;&gt;PacketDelayer -->
<g id="edge5" class="edge">
<title>IPacketDelayer&#45;&gt;PacketDelayer</title>
<path fill="none" stroke="black" stroke-dasharray="5,2" d="M298.46,-54.98C309.96,-45.15 328.78,-29.07 340.36,-19.17"/>
</g>
<!-- QueueingPacketDelayer -->
<g id="node7" class="node">
<title>QueueingPacketDelayer</title>
<g id="a_node7"><a xlink:href="inet.queueing.common.QueueingPacketDelayer.html" xlink:title="Compound Module QueueingPacketDelayer" target="_parent">
<polygon fill="#fffcaf" stroke="black" points="545,-19 412,-19 412,0 545,0 545,-19"/>
<text text-anchor="middle" x="478.5" y="-7" font-family="Helvetica,sans-Serif" font-size="10.00">QueueingPacketDelayer</text>
</a>
</g>
</g>
<!-- IPacketDelayer&#45;&gt;QueueingPacketDelayer -->
<g id="edge6" class="edge">
<title>IPacketDelayer&#45;&gt;QueueingPacketDelayer</title>
<path fill="none" stroke="black" stroke-dasharray="5,2" d="M319.03,-54.98C354.38,-45.12 412.28,-28.97 447.73,-19.08"/>
</g>
<!-- IPassivePacketSink -->
<g id="node2" class="node">
<title>IPassivePacketSink</title>
<g id="a_node2"><a xlink:href="inet.queueing.contract.IPassivePacketSink.html" xlink:title="Module Interface IPassivePacketSink" target="_parent">
<polygon fill="#fffcaf" stroke="black" stroke-dasharray="5,2" points="278,-129 169,-129 169,-110 278,-110 278,-129"/>
<text text-anchor="middle" x="223.5" y="-117" font-family="Helvetica,sans-Serif" font-size="10.00">IPassivePacketSink</text>
</a>
</g>
</g>
<!-- IPassivePacketSink&#45;&gt;IPacketDelayer -->
<g id="edge1" class="edge">
<title>IPassivePacketSink&#45;&gt;IPacketDelayer</title>
<path fill="none" stroke="black" d="M233.94,-109.98C246,-100.15 265.73,-84.07 277.87,-74.17"/>
</g>
<!-- IActivePacketSource -->
<g id="node3" class="node">
<title>IActivePacketSource</title>
<g id="a_node3"><a xlink:href="inet.queueing.contract.IActivePacketSource.html" xlink:title="Module Interface IActivePacketSource" target="_parent">
<polygon fill="#fffcaf" stroke="black" stroke-dasharray="5,2" points="411,-129 296,-129 296,-110 411,-110 411,-129"/>
<text text-anchor="middle" x="353.5" y="-117" font-family="Helvetica,sans-Serif" font-size="10.00">IActivePacketSource</text>
</a>
</g>
</g>
<!-- IActivePacketSource&#45;&gt;IPacketDelayer -->
<g id="edge2" class="edge">
<title>IActivePacketSource&#45;&gt;IPacketDelayer</title>
<path fill="none" stroke="black" d="M343.06,-109.98C331,-100.15 311.27,-84.07 299.13,-74.17"/>
</g>
</g>
</svg>
