<?xml version="1.0" encoding="UTF-8" standalone="no"?>
<!DOCTYPE svg PUBLIC "-//W3C//DTD SVG 1.1//EN"
 "http://www.w3.org/Graphics/SVG/1.1/DTD/svg11.dtd">
<!-- Generated by graphviz version 2.43.0 (0)
 -->
<!-- Title: opp Pages: 1 -->
<svg width="344pt" height="137pt"
 viewBox="0.00 0.00 344.00 137.00" xmlns="http://www.w3.org/2000/svg" xmlns:xlink="http://www.w3.org/1999/xlink">
<g id="graph0" class="graph" transform="scale(1 1) rotate(0) translate(4 133)">
<title>opp</title>
<polygon fill="transparent" stroke="transparent" points="-4,4 -4,-133 340,-133 340,4 -4,4"/>
<!-- Ieee80211TransmitterBase -->
<g id="node1" class="node">
<title>Ieee80211TransmitterBase</title>
<g id="a_node1"><a xlink:href="inet.physicallayer.wireless.ieee80211.packetlevel.Ieee80211TransmitterBase.html" xlink:title="Compound Module Ieee80211TransmitterBase" target="_parent">
<polygon fill="#fff700" stroke="black" points="238,-74 91,-74 91,-55 238,-55 238,-74"/>
<text text-anchor="middle" x="164.5" y="-62" font-family="Helvetica,sans-Serif" font-size="10.00">Ieee80211TransmitterBase</text>
</a>
</g>
</g>
<!-- Ieee80211ScalarTransmitter -->
<g id="node3" class="node">
<title>Ieee80211ScalarTransmitter</title>
<g id="a_node3"><a xlink:href="inet.physicallayer.wireless.ieee80211.packetlevel.Ieee80211ScalarTransmitter.html" xlink:title="Compound Module Ieee80211ScalarTransmitter" target="_parent">
<polygon fill="#fffcaf" stroke="black" points="153,-19 0,-19 0,0 153,0 153,-19"/>
<text text-anchor="middle" x="76.5" y="-7" font-family="Helvetica,sans-Serif" font-size="10.00">Ieee80211ScalarTransmitter</text>
</a>
</g>
</g>
<!-- Ieee80211TransmitterBase&#45;&gt;Ieee80211ScalarTransmitter -->
<g id="edge2" class="edge">
<title>Ieee80211TransmitterBase&#45;&gt;Ieee80211ScalarTransmitter</title>
<path fill="none" stroke="black" d="M150.36,-54.98C134.04,-45.15 107.33,-29.07 90.9,-19.17"/>
</g>
<!-- Ieee80211UnitDiskTransmitter -->
<g id="node4" class="node">
<title>Ieee80211UnitDiskTransmitter</title>
<g id="a_node4"><a xlink:href="inet.physicallayer.wireless.ieee80211.packetlevel.Ieee80211UnitDiskTransmitter.html" xlink:title="Compound Module Ieee80211UnitDiskTransmitter" target="_parent">
<polygon fill="#fffcaf" stroke="black" points="336,-19 171,-19 171,0 336,0 336,-19"/>
<text text-anchor="middle" x="253.5" y="-7" font-family="Helvetica,sans-Serif" font-size="10.00">Ieee80211UnitDiskTransmitter</text>
</a>
</g>
</g>
<!-- Ieee80211TransmitterBase&#45;&gt;Ieee80211UnitDiskTransmitter -->
<g id="edge3" class="edge">
<title>Ieee80211TransmitterBase&#45;&gt;Ieee80211UnitDiskTransmitter</title>
<path fill="none" stroke="black" d="M178.8,-54.98C195.31,-45.15 222.32,-29.07 238.94,-19.17"/>
</g>
<!-- NarrowbandTransmitterBase -->
<g id="node2" class="node">
<title>NarrowbandTransmitterBase</title>
<g id="a_node2"><a xlink:href="inet.physicallayer.wireless.common.base.packetlevel.NarrowbandTransmitterBase.html" xlink:title="Compound Module NarrowbandTransmitterBase" target="_parent">
<polygon fill="#fffcaf" stroke="black" points="242,-129 87,-129 87,-110 242,-110 242,-129"/>
<text text-anchor="middle" x="164.5" y="-117" font-family="Helvetica,sans-Serif" font-size="10.00">NarrowbandTransmitterBase</text>
</a>
</g>
</g>
<!-- NarrowbandTransmitterBase&#45;&gt;Ieee80211TransmitterBase -->
<g id="edge1" class="edge">
<title>NarrowbandTransmitterBase&#45;&gt;Ieee80211TransmitterBase</title>
<path fill="none" stroke="black" d="M164.5,-109.75C164.5,-99.87 164.5,-83.9 164.5,-74.09"/>
</g>
</g>
</svg>
