<?xml version="1.0" encoding="UTF-8" standalone="no"?>
<!DOCTYPE svg PUBLIC "-//W3C//DTD SVG 1.1//EN"
 "http://www.w3.org/Graphics/SVG/1.1/DTD/svg11.dtd">
<!-- Generated by graphviz version 2.43.0 (0)
 -->
<!-- Title: opp Pages: 1 -->
<svg width="292pt" height="82pt"
 viewBox="0.00 0.00 291.50 82.00" xmlns="http://www.w3.org/2000/svg" xmlns:xlink="http://www.w3.org/1999/xlink">
<g id="graph0" class="graph" transform="scale(1 1) rotate(0) translate(4 78)">
<title>opp</title>
<polygon fill="transparent" stroke="transparent" points="-4,4 -4,-78 287.5,-78 287.5,4 -4,4"/>
<!-- IIeee8022LlcInserter -->
<g id="node1" class="node">
<title>IIeee8022LlcInserter</title>
<g id="a_node1"><a xlink:href="inet.linklayer.ieee8022.IIeee8022LlcInserter.html" xlink:title="Module Interface IIeee8022LlcInserter" target="_parent">
<polygon fill="#fff700" stroke="black" stroke-dasharray="5,2" points="189.5,-74 73.5,-74 73.5,-55 189.5,-55 189.5,-74"/>
<text text-anchor="middle" x="131.5" y="-62" font-family="Helvetica,sans-Serif" font-size="10.00">IIeee8022LlcInserter</text>
</a>
</g>
</g>
<!-- Ieee8022LlcInserter -->
<g id="node2" class="node">
<title>Ieee8022LlcInserter</title>
<g id="a_node2"><a xlink:href="inet.linklayer.ieee8022.Ieee8022LlcInserter.html" xlink:title="Simple Module Ieee8022LlcInserter" target="_parent">
<polygon fill="#fffcaf" stroke="black" points="113,-19 0,-19 0,0 113,0 113,-19"/>
<text text-anchor="middle" x="56.5" y="-7" font-family="Helvetica,sans-Serif" font-size="10.00">Ieee8022LlcInserter</text>
</a>
</g>
</g>
<!-- IIeee8022LlcInserter&#45;&gt;Ieee8022LlcInserter -->
<g id="edge1" class="edge">
<title>IIeee8022LlcInserter&#45;&gt;Ieee8022LlcInserter</title>
<path fill="none" stroke="black" stroke-dasharray="5,2" d="M119.45,-54.98C105.54,-45.15 82.77,-29.07 68.77,-19.17"/>
</g>
<!-- OmittedIeee8022LlcInserter -->
<g id="node3" class="node">
<title>OmittedIeee8022LlcInserter</title>
<g id="a_node3"><a xlink:href="inet.linklayer.ieee8022.OmittedIeee8022LlcInserter.html" xlink:title="Compound Module OmittedIeee8022LlcInserter" target="_parent">
<polygon fill="#fffcaf" stroke="black" points="283.5,-19 131.5,-19 131.5,0 283.5,0 283.5,-19"/>
<text text-anchor="middle" x="207.5" y="-7" font-family="Helvetica,sans-Serif" font-size="10.00">OmittedIeee8022LlcInserter</text>
</a>
</g>
</g>
<!-- IIeee8022LlcInserter&#45;&gt;OmittedIeee8022LlcInserter -->
<g id="edge2" class="edge">
<title>IIeee8022LlcInserter&#45;&gt;OmittedIeee8022LlcInserter</title>
<path fill="none" stroke="black" stroke-dasharray="5,2" d="M143.71,-54.98C157.81,-45.15 180.88,-29.07 195.07,-19.17"/>
</g>
</g>
</svg>
