<?xml version="1.0" encoding="UTF-8" standalone="no"?>
<!DOCTYPE svg PUBLIC "-//W3C//DTD SVG 1.1//EN"
 "http://www.w3.org/Graphics/SVG/1.1/DTD/svg11.dtd">
<!-- Generated by graphviz version 2.43.0 (0)
 -->
<!-- Title: opp Pages: 1 -->
<svg width="546pt" height="82pt"
 viewBox="0.00 0.00 545.50 82.00" xmlns="http://www.w3.org/2000/svg" xmlns:xlink="http://www.w3.org/1999/xlink">
<g id="graph0" class="graph" transform="scale(1 1) rotate(0) translate(4 78)">
<title>opp</title>
<polygon fill="transparent" stroke="transparent" points="-4,4 -4,-78 541.5,-78 541.5,4 -4,4"/>
<!-- IActivePacketSink -->
<g id="node1" class="node">
<title>IActivePacketSink</title>
<g id="a_node1"><a xlink:href="inet.queueing.contract.IActivePacketSink.html" xlink:title="Module Interface IActivePacketSink" target="_parent">
<polygon fill="#fff700" stroke="black" stroke-dasharray="5,2" points="332.5,-74 229.5,-74 229.5,-55 332.5,-55 332.5,-74"/>
<text text-anchor="middle" x="281" y="-62" font-family="Helvetica,sans-Serif" font-size="10.00">IActivePacketSink</text>
</a>
</g>
</g>
<!-- ActivePacketSink -->
<g id="node2" class="node">
<title>ActivePacketSink</title>
<g id="a_node2"><a xlink:href="inet.queueing.sink.ActivePacketSink.html" xlink:title="Simple Module ActivePacketSink" target="_parent">
<polygon fill="#fffcaf" stroke="black" points="100,-19 0,-19 0,0 100,0 100,-19"/>
<text text-anchor="middle" x="50" y="-7" font-family="Helvetica,sans-Serif" font-size="10.00">ActivePacketSink</text>
</a>
</g>
</g>
<!-- IActivePacketSink&#45;&gt;ActivePacketSink -->
<g id="edge1" class="edge">
<title>IActivePacketSink&#45;&gt;ActivePacketSink</title>
<path fill="none" stroke="black" stroke-dasharray="5,2" d="M243.89,-54.98C200.91,-45.12 130.51,-28.97 87.41,-19.08"/>
</g>
<!-- FullPacketSink -->
<g id="node3" class="node">
<title>FullPacketSink</title>
<g id="a_node3"><a xlink:href="inet.queueing.sink.FullPacketSink.html" xlink:title="Simple Module FullPacketSink" target="_parent">
<polygon fill="#fffcaf" stroke="black" points="204,-19 118,-19 118,0 204,0 204,-19"/>
<text text-anchor="middle" x="161" y="-7" font-family="Helvetica,sans-Serif" font-size="10.00">FullPacketSink</text>
</a>
</g>
</g>
<!-- IActivePacketSink&#45;&gt;FullPacketSink -->
<g id="edge2" class="edge">
<title>IActivePacketSink&#45;&gt;FullPacketSink</title>
<path fill="none" stroke="black" stroke-dasharray="5,2" d="M261.72,-54.98C239.46,-45.15 203.04,-29.07 180.63,-19.17"/>
</g>
<!-- PacketDemultiplexer -->
<g id="node4" class="node">
<title>PacketDemultiplexer</title>
<g id="a_node4"><a xlink:href="inet.queueing.common.PacketDemultiplexer.html" xlink:title="Simple Module PacketDemultiplexer" target="_parent">
<polygon fill="#fffcaf" stroke="black" points="339.5,-19 222.5,-19 222.5,0 339.5,0 339.5,-19"/>
<text text-anchor="middle" x="281" y="-7" font-family="Helvetica,sans-Serif" font-size="10.00">PacketDemultiplexer</text>
</a>
</g>
</g>
<!-- IActivePacketSink&#45;&gt;PacketDemultiplexer -->
<g id="edge3" class="edge">
<title>IActivePacketSink&#45;&gt;PacketDemultiplexer</title>
<path fill="none" stroke="black" stroke-dasharray="5,2" d="M281,-54.75C281,-44.87 281,-28.9 281,-19.09"/>
</g>
<!-- IPacketPuller -->
<g id="node5" class="node">
<title>IPacketPuller</title>
<g id="a_node5"><a xlink:href="inet.queueing.contract.IPacketPuller.html" xlink:title="Module Interface IPacketPuller" target="_parent">
<polygon fill="#fffcaf" stroke="black" stroke-dasharray="5,2" points="436.5,-19 357.5,-19 357.5,0 436.5,0 436.5,-19"/>
<text text-anchor="middle" x="397" y="-7" font-family="Helvetica,sans-Serif" font-size="10.00">IPacketPuller</text>
</a>
</g>
</g>
<!-- IActivePacketSink&#45;&gt;IPacketPuller -->
<g id="edge4" class="edge">
<title>IActivePacketSink&#45;&gt;IPacketPuller</title>
<path fill="none" stroke="black" d="M299.64,-54.98C321.16,-45.15 356.36,-29.07 378.02,-19.17"/>
</g>
<!-- IPacketServer -->
<g id="node6" class="node">
<title>IPacketServer</title>
<g id="a_node6"><a xlink:href="inet.queueing.contract.IPacketServer.html" xlink:title="Module Interface IPacketServer" target="_parent">
<polygon fill="#fffcaf" stroke="black" stroke-dasharray="5,2" points="537.5,-19 454.5,-19 454.5,0 537.5,0 537.5,-19"/>
<text text-anchor="middle" x="496" y="-7" font-family="Helvetica,sans-Serif" font-size="10.00">IPacketServer</text>
</a>
</g>
</g>
<!-- IActivePacketSink&#45;&gt;IPacketServer -->
<g id="edge5" class="edge">
<title>IActivePacketSink&#45;&gt;IPacketServer</title>
<path fill="none" stroke="black" d="M315.54,-54.98C355.55,-45.12 421.07,-28.97 461.19,-19.08"/>
</g>
</g>
</svg>
