<?xml version="1.0" encoding="UTF-8" standalone="no"?>
<!DOCTYPE svg PUBLIC "-//W3C//DTD SVG 1.1//EN"
 "http://www.w3.org/Graphics/SVG/1.1/DTD/svg11.dtd">
<!-- Generated by graphviz version 2.43.0 (0)
 -->
<!-- Title: opp Pages: 1 -->
<svg width="1092pt" height="82pt"
 viewBox="0.00 0.00 1092.00 82.00" xmlns="http://www.w3.org/2000/svg" xmlns:xlink="http://www.w3.org/1999/xlink">
<g id="graph0" class="graph" transform="scale(1 1) rotate(0) translate(4 78)">
<title>opp</title>
<polygon fill="transparent" stroke="transparent" points="-4,4 -4,-78 1088,-78 1088,4 -4,4"/>
<!-- PeekingUnderTheHoodShowcase -->
<g id="node1" class="node">
<title>PeekingUnderTheHoodShowcase</title>
<g id="a_node1"><a xlink:href="inet.showcases.tsn.trafficshaping.underthehood.PeekingUnderTheHoodShowcase.html" xlink:title="Network PeekingUnderTheHoodShowcase" target="_parent">
<polygon fill="#9090ff" stroke="black" points="671.5,-74 494.5,-74 494.5,-55 671.5,-55 671.5,-74"/>
<text text-anchor="middle" x="583" y="-62" font-family="Helvetica,sans-Serif" font-size="10.00">PeekingUnderTheHoodShowcase</text>
</a>
</g>
</g>
<!-- EligibilityTimeGate -->
<g id="node2" class="node">
<title>EligibilityTimeGate</title>
<g id="a_node2"><a xlink:href="inet.protocolelement.shaper.EligibilityTimeGate.html" xlink:title="Simple Module EligibilityTimeGate" target="_parent">
<polygon fill="#fffcaf" stroke="black" points="110,-19 0,-19 0,0 110,0 110,-19"/>
<text text-anchor="middle" x="55" y="-7" font-family="Helvetica,sans-Serif" font-size="10.00">EligibilityTimeGate</text>
</a>
</g>
</g>
<!-- PeekingUnderTheHoodShowcase&#45;&gt;EligibilityTimeGate -->
<g id="edge1" class="edge">
<title>PeekingUnderTheHoodShowcase&#45;&gt;EligibilityTimeGate</title>
<path fill="none" stroke="black" d="M494.38,-55.97C403.21,-48 256.81,-34.59 120.37,-19.12"/>
<polygon fill="black" stroke="black" points="120.47,-15.61 110.14,-17.95 119.68,-22.56 120.47,-15.61"/>
</g>
<!-- EligibilityTimeMeter -->
<g id="node3" class="node">
<title>EligibilityTimeMeter</title>
<g id="a_node3"><a xlink:href="inet.protocolelement.shaper.EligibilityTimeMeter.html" xlink:title="Simple Module EligibilityTimeMeter" target="_parent">
<polygon fill="#fffcaf" stroke="black" points="244,-19 128,-19 128,0 244,0 244,-19"/>
<text text-anchor="middle" x="186" y="-7" font-family="Helvetica,sans-Serif" font-size="10.00">EligibilityTimeMeter</text>
</a>
</g>
</g>
<!-- PeekingUnderTheHoodShowcase&#45;&gt;EligibilityTimeMeter -->
<g id="edge2" class="edge">
<title>PeekingUnderTheHoodShowcase&#45;&gt;EligibilityTimeMeter</title>
<path fill="none" stroke="black" d="M519.22,-54.98C446.68,-45.3 328.7,-29.55 254.33,-19.62"/>
<polygon fill="black" stroke="black" points="254.51,-16.12 244.13,-18.26 253.58,-23.05 254.51,-16.12"/>
</g>
<!-- EligibilityTimeFilter -->
<g id="node4" class="node">
<title>EligibilityTimeFilter</title>
<g id="a_node4"><a xlink:href="inet.protocolelement.shaper.EligibilityTimeFilter.html" xlink:title="Simple Module EligibilityTimeFilter" target="_parent">
<polygon fill="#fffcaf" stroke="black" points="374,-19 262,-19 262,0 374,0 374,-19"/>
<text text-anchor="middle" x="318" y="-7" font-family="Helvetica,sans-Serif" font-size="10.00">EligibilityTimeFilter</text>
</a>
</g>
</g>
<!-- PeekingUnderTheHoodShowcase&#45;&gt;EligibilityTimeFilter -->
<g id="edge3" class="edge">
<title>PeekingUnderTheHoodShowcase&#45;&gt;EligibilityTimeFilter</title>
<path fill="none" stroke="black" d="M540.42,-54.98C494.3,-45.76 420.64,-31.03 370.84,-21.07"/>
<polygon fill="black" stroke="black" points="371.4,-17.61 360.91,-19.08 370.03,-24.48 371.4,-17.61"/>
</g>
<!-- EligibilityTimeQueue -->
<g id="node5" class="node">
<title>EligibilityTimeQueue</title>
<g id="a_node5"><a xlink:href="inet.protocolelement.shaper.EligibilityTimeQueue.html" xlink:title="Simple Module EligibilityTimeQueue" target="_parent">
<polygon fill="#fffcaf" stroke="black" points="511.5,-19 392.5,-19 392.5,0 511.5,0 511.5,-19"/>
<text text-anchor="middle" x="452" y="-7" font-family="Helvetica,sans-Serif" font-size="10.00">EligibilityTimeQueue</text>
</a>
</g>
</g>
<!-- PeekingUnderTheHoodShowcase&#45;&gt;EligibilityTimeQueue -->
<g id="edge4" class="edge">
<title>PeekingUnderTheHoodShowcase&#45;&gt;EligibilityTimeQueue</title>
<path fill="none" stroke="black" d="M561.95,-54.98C540.59,-46.34 507.3,-32.87 482.94,-23.02"/>
<polygon fill="black" stroke="black" points="484.01,-19.68 473.43,-19.17 481.39,-26.17 484.01,-19.68"/>
</g>
<!-- PassivePacketSink -->
<g id="node6" class="node">
<title>PassivePacketSink</title>
<g id="a_node6"><a xlink:href="inet.queueing.sink.PassivePacketSink.html" xlink:title="Simple Module PassivePacketSink" target="_parent">
<polygon fill="#fffcaf" stroke="black" points="636,-19 530,-19 530,0 636,0 636,-19"/>
<text text-anchor="middle" x="583" y="-7" font-family="Helvetica,sans-Serif" font-size="10.00">PassivePacketSink</text>
</a>
</g>
</g>
<!-- PeekingUnderTheHoodShowcase&#45;&gt;PassivePacketSink -->
<g id="edge5" class="edge">
<title>PeekingUnderTheHoodShowcase&#45;&gt;PassivePacketSink</title>
<path fill="none" stroke="black" d="M583,-54.75C583,-47.8 583,-37.85 583,-29.13"/>
<polygon fill="black" stroke="black" points="586.5,-29.09 583,-19.09 579.5,-29.09 586.5,-29.09"/>
</g>
<!-- IdealChannel -->
<g id="node7" class="node">
<title>IdealChannel</title>
<g id="a_node7"><a xlink:href="ned.IdealChannel.html" xlink:title="Channel IdealChannel" target="_parent">
<polygon fill="#d0ffd0" stroke="black" points="734,-19 654,-19 654,0 734,0 734,-19"/>
<text text-anchor="middle" x="694" y="-7" font-family="Helvetica,sans-Serif" font-size="10.00">IdealChannel</text>
</a>
</g>
</g>
<!-- PeekingUnderTheHoodShowcase&#45;&gt;IdealChannel -->
<g id="edge6" class="edge">
<title>PeekingUnderTheHoodShowcase&#45;&gt;IdealChannel</title>
<path fill="none" stroke="black" d="M600.83,-54.98C618.61,-46.5 646.15,-33.35 666.68,-23.54"/>
<polygon fill="black" stroke="black" points="668.33,-26.64 675.84,-19.17 665.31,-20.32 668.33,-26.64"/>
</g>
<!-- ActivePacketSource -->
<g id="node8" class="node">
<title>ActivePacketSource</title>
<g id="a_node8"><a xlink:href="inet.queueing.source.ActivePacketSource.html" xlink:title="Simple Module ActivePacketSource" target="_parent">
<polygon fill="#fffcaf" stroke="black" points="864,-19 752,-19 752,0 864,0 864,-19"/>
<text text-anchor="middle" x="808" y="-7" font-family="Helvetica,sans-Serif" font-size="10.00">ActivePacketSource</text>
</a>
</g>
</g>
<!-- PeekingUnderTheHoodShowcase&#45;&gt;ActivePacketSource -->
<g id="edge7" class="edge">
<title>PeekingUnderTheHoodShowcase&#45;&gt;ActivePacketSource</title>
<path fill="none" stroke="black" d="M619.15,-54.98C657.91,-45.86 719.55,-31.33 761.8,-21.38"/>
<polygon fill="black" stroke="black" points="762.64,-24.78 771.57,-19.08 761.03,-17.97 762.64,-24.78"/>
</g>
<!-- PacketMultiplexer -->
<g id="node9" class="node">
<title>PacketMultiplexer</title>
<g id="a_node9"><a xlink:href="inet.queueing.common.PacketMultiplexer.html" xlink:title="Simple Module PacketMultiplexer" target="_parent">
<polygon fill="#fffcaf" stroke="black" points="985.5,-19 882.5,-19 882.5,0 985.5,0 985.5,-19"/>
<text text-anchor="middle" x="934" y="-7" font-family="Helvetica,sans-Serif" font-size="10.00">PacketMultiplexer</text>
</a>
</g>
</g>
<!-- PeekingUnderTheHoodShowcase&#45;&gt;PacketMultiplexer -->
<g id="edge8" class="edge">
<title>PeekingUnderTheHoodShowcase&#45;&gt;PacketMultiplexer</title>
<path fill="none" stroke="black" d="M639.39,-54.98C703.04,-45.37 806.26,-29.79 872.09,-19.85"/>
<polygon fill="black" stroke="black" points="872.96,-23.26 882.32,-18.3 871.91,-16.34 872.96,-23.26"/>
</g>
<!-- PacketServer -->
<g id="node10" class="node">
<title>PacketServer</title>
<g id="a_node10"><a xlink:href="inet.queueing.server.PacketServer.html" xlink:title="Simple Module PacketServer" target="_parent">
<polygon fill="#fffcaf" stroke="black" points="1084,-19 1004,-19 1004,0 1084,0 1084,-19"/>
<text text-anchor="middle" x="1044" y="-7" font-family="Helvetica,sans-Serif" font-size="10.00">PacketServer</text>
</a>
</g>
</g>
<!-- PeekingUnderTheHoodShowcase&#45;&gt;PacketServer -->
<g id="edge9" class="edge">
<title>PeekingUnderTheHoodShowcase&#45;&gt;PacketServer</title>
<path fill="none" stroke="black" d="M671.61,-55.59C752.81,-47.95 876.61,-35.36 993.7,-19.1"/>
<polygon fill="black" stroke="black" points="994.5,-22.52 1003.92,-17.67 993.53,-15.59 994.5,-22.52"/>
</g>
</g>
</svg>
