<?xml version="1.0" encoding="UTF-8" standalone="no"?>
<!DOCTYPE svg PUBLIC "-//W3C//DTD SVG 1.1//EN"
 "http://www.w3.org/Graphics/SVG/1.1/DTD/svg11.dtd">
<!-- Generated by graphviz version 2.43.0 (0)
 -->
<!-- Title: opp Pages: 1 -->
<svg width="218pt" height="137pt"
 viewBox="0.00 0.00 218.00 137.00" xmlns="http://www.w3.org/2000/svg" xmlns:xlink="http://www.w3.org/1999/xlink">
<g id="graph0" class="graph" transform="scale(1 1) rotate(0) translate(4 133)">
<title>opp</title>
<polygon fill="transparent" stroke="transparent" points="-4,4 -4,-133 214,-133 214,4 -4,4"/>
<!-- ILinkLayer -->
<g id="node1" class="node">
<title>ILinkLayer</title>
<g id="a_node1"><a xlink:href="inet.linklayer.contract.ILinkLayer.html" xlink:title="Module Interface ILinkLayer" target="_parent">
<polygon fill="#fff700" stroke="black" stroke-dasharray="5,2" points="138.5,-74 71.5,-74 71.5,-55 138.5,-55 138.5,-74"/>
<text text-anchor="middle" x="105" y="-62" font-family="Helvetica,sans-Serif" font-size="10.00">ILinkLayer</text>
</a>
</g>
</g>
<!-- AckingMac -->
<g id="node4" class="node">
<title>AckingMac</title>
<g id="a_node4"><a xlink:href="inet.linklayer.acking.AckingMac.html" xlink:title="Compound Module AckingMac" target="_parent">
<polygon fill="#fffcaf" stroke="black" points="94,-19 24,-19 24,0 94,0 94,-19"/>
<text text-anchor="middle" x="59" y="-7" font-family="Helvetica,sans-Serif" font-size="10.00">AckingMac</text>
</a>
</g>
</g>
<!-- ILinkLayer&#45;&gt;AckingMac -->
<g id="edge3" class="edge">
<title>ILinkLayer&#45;&gt;AckingMac</title>
<path fill="none" stroke="black" stroke-dasharray="5,2" d="M97.4,-54.75C88.83,-44.87 74.97,-28.9 66.45,-19.09"/>
</g>
<!-- ShortcutMac -->
<g id="node5" class="node">
<title>ShortcutMac</title>
<g id="a_node5"><a xlink:href="inet.linklayer.shortcut.ShortcutMac.html" xlink:title="Simple Module ShortcutMac" target="_parent">
<polygon fill="#fffcaf" stroke="black" points="189.5,-19 112.5,-19 112.5,0 189.5,0 189.5,-19"/>
<text text-anchor="middle" x="151" y="-7" font-family="Helvetica,sans-Serif" font-size="10.00">ShortcutMac</text>
</a>
</g>
</g>
<!-- ILinkLayer&#45;&gt;ShortcutMac -->
<g id="edge4" class="edge">
<title>ILinkLayer&#45;&gt;ShortcutMac</title>
<path fill="none" stroke="black" stroke-dasharray="5,2" d="M112.6,-54.75C121.17,-44.87 135.03,-28.9 143.55,-19.09"/>
</g>
<!-- ILinkLayerUpper -->
<g id="node2" class="node">
<title>ILinkLayerUpper</title>
<g id="a_node2"><a xlink:href="inet.linklayer.contract.ILinkLayerUpper.html" xlink:title="Module Interface ILinkLayerUpper" target="_parent">
<polygon fill="#fffcaf" stroke="black" stroke-dasharray="5,2" points="96,-129 0,-129 0,-110 96,-110 96,-129"/>
<text text-anchor="middle" x="48" y="-117" font-family="Helvetica,sans-Serif" font-size="10.00">ILinkLayerUpper</text>
</a>
</g>
</g>
<!-- ILinkLayerUpper&#45;&gt;ILinkLayer -->
<g id="edge1" class="edge">
<title>ILinkLayerUpper&#45;&gt;ILinkLayer</title>
<path fill="none" stroke="black" d="M57.16,-109.98C67.73,-100.15 85.03,-84.07 95.68,-74.17"/>
</g>
<!-- ILinkLayerLower -->
<g id="node3" class="node">
<title>ILinkLayerLower</title>
<g id="a_node3"><a xlink:href="inet.linklayer.contract.ILinkLayerLower.html" xlink:title="Module Interface ILinkLayerLower" target="_parent">
<polygon fill="#fffcaf" stroke="black" stroke-dasharray="5,2" points="210,-129 114,-129 114,-110 210,-110 210,-129"/>
<text text-anchor="middle" x="162" y="-117" font-family="Helvetica,sans-Serif" font-size="10.00">ILinkLayerLower</text>
</a>
</g>
</g>
<!-- ILinkLayerLower&#45;&gt;ILinkLayer -->
<g id="edge2" class="edge">
<title>ILinkLayerLower&#45;&gt;ILinkLayer</title>
<path fill="none" stroke="black" d="M152.84,-109.98C142.27,-100.15 124.97,-84.07 114.32,-74.17"/>
</g>
</g>
</svg>
