<?xml version="1.0" encoding="UTF-8" standalone="no"?>
<!DOCTYPE svg PUBLIC "-//W3C//DTD SVG 1.1//EN"
 "http://www.w3.org/Graphics/SVG/1.1/DTD/svg11.dtd">
<!-- Generated by graphviz version 2.43.0 (0)
 -->
<!-- Title: opp Pages: 1 -->
<svg width="252pt" height="82pt"
 viewBox="0.00 0.00 251.50 82.00" xmlns="http://www.w3.org/2000/svg" xmlns:xlink="http://www.w3.org/1999/xlink">
<g id="graph0" class="graph" transform="scale(1 1) rotate(0) translate(4 78)">
<title>opp</title>
<polygon fill="transparent" stroke="transparent" points="-4,4 -4,-78 247.5,-78 247.5,4 -4,4"/>
<!-- SubpacketLengthHeaderBasedDeaggregator -->
<g id="node1" class="node">
<title>SubpacketLengthHeaderBasedDeaggregator</title>
<g id="a_node1"><a xlink:href="inet.protocolelement.aggregation.SubpacketLengthHeaderBasedDeaggregator.html" xlink:title="Simple Module SubpacketLengthHeaderBasedDeaggregator" target="_parent">
<polygon fill="#fff700" stroke="black" points="234.5,-19 2.5,-19 2.5,0 234.5,0 234.5,-19"/>
<text text-anchor="middle" x="118.5" y="-7" font-family="Helvetica,sans-Serif" font-size="10.00">SubpacketLengthHeaderBasedDeaggregator</text>
</a>
</g>
</g>
<!-- DeaggregatorBase -->
<g id="node2" class="node">
<title>DeaggregatorBase</title>
<g id="a_node2"><a xlink:href="inet.protocolelement.aggregation.base.DeaggregatorBase.html" xlink:title="Simple Module DeaggregatorBase" target="_parent">
<polygon fill="#fffcaf" stroke="black" points="107,-74 0,-74 0,-55 107,-55 107,-74"/>
<text text-anchor="middle" x="53.5" y="-62" font-family="Helvetica,sans-Serif" font-size="10.00">DeaggregatorBase</text>
</a>
</g>
</g>
<!-- DeaggregatorBase&#45;&gt;SubpacketLengthHeaderBasedDeaggregator -->
<g id="edge1" class="edge">
<title>DeaggregatorBase&#45;&gt;SubpacketLengthHeaderBasedDeaggregator</title>
<path fill="none" stroke="black" d="M63.94,-54.98C76,-45.15 95.73,-29.07 107.87,-19.17"/>
</g>
<!-- IPacketDeaggregator -->
<g id="node3" class="node">
<title>IPacketDeaggregator</title>
<g id="a_node3"><a xlink:href="inet.protocolelement.aggregation.contract.IPacketDeaggregator.html" xlink:title="Module Interface IPacketDeaggregator" target="_parent">
<polygon fill="#fffcaf" stroke="black" stroke-dasharray="5,2" points="243.5,-74 125.5,-74 125.5,-55 243.5,-55 243.5,-74"/>
<text text-anchor="middle" x="184.5" y="-62" font-family="Helvetica,sans-Serif" font-size="10.00">IPacketDeaggregator</text>
</a>
</g>
</g>
<!-- IPacketDeaggregator&#45;&gt;SubpacketLengthHeaderBasedDeaggregator -->
<g id="edge2" class="edge">
<title>IPacketDeaggregator&#45;&gt;SubpacketLengthHeaderBasedDeaggregator</title>
<path fill="none" stroke="black" stroke-dasharray="5,2" d="M173.9,-54.98C161.65,-45.15 141.62,-29.07 129.3,-19.17"/>
</g>
</g>
</svg>
