<?xml version="1.0" encoding="UTF-8" standalone="no"?>
<!DOCTYPE svg PUBLIC "-//W3C//DTD SVG 1.1//EN"
 "http://www.w3.org/Graphics/SVG/1.1/DTD/svg11.dtd">
<!-- Generated by graphviz version 2.43.0 (0)
 -->
<!-- Title: opp Pages: 1 -->
<svg width="322pt" height="82pt"
 viewBox="0.00 0.00 321.50 82.00" xmlns="http://www.w3.org/2000/svg" xmlns:xlink="http://www.w3.org/1999/xlink">
<g id="graph0" class="graph" transform="scale(1 1) rotate(0) translate(4 78)">
<title>opp</title>
<polygon fill="transparent" stroke="transparent" points="-4,4 -4,-78 317.5,-78 317.5,4 -4,4"/>
<!-- FlowMeasurementShowcase -->
<g id="node1" class="node">
<title>FlowMeasurementShowcase</title>
<g id="a_node1"><a xlink:href="inet.showcases.measurement.flow.FlowMeasurementShowcase.html" xlink:title="Network FlowMeasurementShowcase" target="_parent">
<polygon fill="#9090ff" stroke="black" points="269,-74 113,-74 113,-55 269,-55 269,-74"/>
<text text-anchor="middle" x="191" y="-62" font-family="Helvetica,sans-Serif" font-size="10.00">FlowMeasurementShowcase</text>
</a>
</g>
</g>
<!-- IEthernetNetworkNode -->
<g id="node2" class="node">
<title>IEthernetNetworkNode</title>
<g id="a_node2"><a xlink:href="inet.node.contract.IEthernetNetworkNode.html" xlink:title="Module Interface IEthernetNetworkNode" target="_parent">
<polygon fill="#fffcaf" stroke="black" stroke-dasharray="5,2" points="128,-19 0,-19 0,0 128,0 128,-19"/>
<text text-anchor="middle" x="64" y="-7" font-family="Helvetica,sans-Serif" font-size="10.00">IEthernetNetworkNode</text>
</a>
</g>
</g>
<!-- FlowMeasurementShowcase&#45;&gt;IEthernetNetworkNode -->
<g id="edge1" class="edge">
<title>FlowMeasurementShowcase&#45;&gt;IEthernetNetworkNode</title>
<path fill="none" stroke="black" d="M170.6,-54.98C149.98,-46.38 117.89,-32.99 94.31,-23.15"/>
<polygon fill="black" stroke="black" points="95.35,-19.79 84.78,-19.17 92.66,-26.25 95.35,-19.79"/>
</g>
<!-- EthernetSwitch -->
<g id="node3" class="node">
<title>EthernetSwitch</title>
<g id="a_node3"><a xlink:href="inet.node.ethernet.EthernetSwitch.html" xlink:title="Compound Module EthernetSwitch" target="_parent">
<polygon fill="#fffcaf" stroke="black" points="236,-19 146,-19 146,0 236,0 236,-19"/>
<text text-anchor="middle" x="191" y="-7" font-family="Helvetica,sans-Serif" font-size="10.00">EthernetSwitch</text>
</a>
</g>
</g>
<!-- FlowMeasurementShowcase&#45;&gt;EthernetSwitch -->
<g id="edge2" class="edge">
<title>FlowMeasurementShowcase&#45;&gt;EthernetSwitch</title>
<path fill="none" stroke="black" d="M191,-54.75C191,-47.8 191,-37.85 191,-29.13"/>
<polygon fill="black" stroke="black" points="194.5,-29.09 191,-19.09 187.5,-29.09 194.5,-29.09"/>
</g>
<!-- Eth100M -->
<g id="node4" class="node">
<title>Eth100M</title>
<g id="a_node4"><a xlink:href="inet.node.ethernet.Eth100M.html" xlink:title="Channel Eth100M" target="_parent">
<polygon fill="#d0ffd0" stroke="black" points="313.5,-19 254.5,-19 254.5,0 313.5,0 313.5,-19"/>
<text text-anchor="middle" x="284" y="-7" font-family="Helvetica,sans-Serif" font-size="10.00">Eth100M</text>
</a>
</g>
</g>
<!-- FlowMeasurementShowcase&#45;&gt;Eth100M -->
<g id="edge3" class="edge">
<title>FlowMeasurementShowcase&#45;&gt;Eth100M</title>
<path fill="none" stroke="black" d="M205.94,-54.98C220.5,-46.69 242.87,-33.94 259.93,-24.22"/>
<polygon fill="black" stroke="black" points="261.83,-27.16 268.79,-19.17 258.36,-21.08 261.83,-27.16"/>
</g>
</g>
</svg>
