<?xml version="1.0" encoding="UTF-8" standalone="no"?>
<!DOCTYPE svg PUBLIC "-//W3C//DTD SVG 1.1//EN"
 "http://www.w3.org/Graphics/SVG/1.1/DTD/svg11.dtd">
<!-- Generated by graphviz version 2.43.0 (0)
 -->
<!-- Title: opp Pages: 1 -->
<svg width="677pt" height="82pt"
 viewBox="0.00 0.00 677.00 82.00" xmlns="http://www.w3.org/2000/svg" xmlns:xlink="http://www.w3.org/1999/xlink">
<g id="graph0" class="graph" transform="scale(1 1) rotate(0) translate(4 78)">
<title>opp</title>
<polygon fill="transparent" stroke="transparent" points="-4,4 -4,-78 673,-78 673,4 -4,4"/>
<!-- AnalogModelShowcaseNoiseNetwork -->
<g id="node1" class="node">
<title>AnalogModelShowcaseNoiseNetwork</title>
<g id="a_node1"><a xlink:href="inet.showcases.wireless.analogmodel.AnalogModelShowcaseNoiseNetwork.html" xlink:title="Network AnalogModelShowcaseNoiseNetwork" target="_parent">
<polygon fill="#9090ff" stroke="black" points="516.5,-74 318.5,-74 318.5,-55 516.5,-55 516.5,-74"/>
<text text-anchor="middle" x="417.5" y="-62" font-family="Helvetica,sans-Serif" font-size="10.00">AnalogModelShowcaseNoiseNetwork</text>
</a>
</g>
</g>
<!-- IntegratedVisualizer -->
<g id="node2" class="node">
<title>IntegratedVisualizer</title>
<g id="a_node2"><a xlink:href="inet.visualizer.common.IntegratedVisualizer.html" xlink:title="Compound Module IntegratedVisualizer" target="_parent">
<polygon fill="#fffcaf" stroke="black" points="115,-19 0,-19 0,0 115,0 115,-19"/>
<text text-anchor="middle" x="57.5" y="-7" font-family="Helvetica,sans-Serif" font-size="10.00">IntegratedVisualizer</text>
</a>
</g>
</g>
<!-- AnalogModelShowcaseNoiseNetwork&#45;&gt;IntegratedVisualizer -->
<g id="edge1" class="edge">
<title>AnalogModelShowcaseNoiseNetwork&#45;&gt;IntegratedVisualizer</title>
<path fill="none" stroke="black" d="M359.66,-54.98C295.76,-45.58 192.97,-30.44 125.33,-20.49"/>
<polygon fill="black" stroke="black" points="125.6,-16.99 115.2,-18.99 124.58,-23.91 125.6,-16.99"/>
</g>
<!-- Ieee80211DimensionalRadioMedium -->
<g id="node3" class="node">
<title>Ieee80211DimensionalRadioMedium</title>
<g id="a_node3"><a xlink:href="inet.physicallayer.wireless.ieee80211.packetlevel.Ieee80211DimensionalRadioMedium.html" xlink:title="Compound Module Ieee80211DimensionalRadioMedium" target="_parent">
<polygon fill="#fffcaf" stroke="black" points="330,-19 133,-19 133,0 330,0 330,-19"/>
<text text-anchor="middle" x="231.5" y="-7" font-family="Helvetica,sans-Serif" font-size="10.00">Ieee80211DimensionalRadioMedium</text>
</a>
</g>
</g>
<!-- AnalogModelShowcaseNoiseNetwork&#45;&gt;Ieee80211DimensionalRadioMedium -->
<g id="edge2" class="edge">
<title>AnalogModelShowcaseNoiseNetwork&#45;&gt;Ieee80211DimensionalRadioMedium</title>
<path fill="none" stroke="black" d="M387.62,-54.98C356.12,-46.01 306.33,-31.82 271.47,-21.89"/>
<polygon fill="black" stroke="black" points="272.19,-18.46 261.62,-19.08 270.28,-25.19 272.19,-18.46"/>
</g>
<!-- Ipv4NetworkConfigurator -->
<g id="node4" class="node">
<title>Ipv4NetworkConfigurator</title>
<g id="a_node4"><a xlink:href="inet.networklayer.configurator.ipv4.Ipv4NetworkConfigurator.html" xlink:title="Simple Module Ipv4NetworkConfigurator" target="_parent">
<polygon fill="#fffcaf" stroke="black" points="487,-19 348,-19 348,0 487,0 487,-19"/>
<text text-anchor="middle" x="417.5" y="-7" font-family="Helvetica,sans-Serif" font-size="10.00">Ipv4NetworkConfigurator</text>
</a>
</g>
</g>
<!-- AnalogModelShowcaseNoiseNetwork&#45;&gt;Ipv4NetworkConfigurator -->
<g id="edge3" class="edge">
<title>AnalogModelShowcaseNoiseNetwork&#45;&gt;Ipv4NetworkConfigurator</title>
<path fill="none" stroke="black" d="M417.5,-54.75C417.5,-47.8 417.5,-37.85 417.5,-29.13"/>
<polygon fill="black" stroke="black" points="421,-29.09 417.5,-19.09 414,-29.09 421,-29.09"/>
</g>
<!-- AdhocHost -->
<g id="node5" class="node">
<title>AdhocHost</title>
<g id="a_node5"><a xlink:href="inet.node.inet.AdhocHost.html" xlink:title="Compound Module AdhocHost" target="_parent">
<polygon fill="#fffcaf" stroke="black" points="574,-19 505,-19 505,0 574,0 574,-19"/>
<text text-anchor="middle" x="539.5" y="-7" font-family="Helvetica,sans-Serif" font-size="10.00">AdhocHost</text>
</a>
</g>
</g>
<!-- AnalogModelShowcaseNoiseNetwork&#45;&gt;AdhocHost -->
<g id="edge4" class="edge">
<title>AnalogModelShowcaseNoiseNetwork&#45;&gt;AdhocHost</title>
<path fill="none" stroke="black" d="M437.1,-54.98C456.82,-46.42 487.45,-33.11 510.08,-23.28"/>
<polygon fill="black" stroke="black" points="511.76,-26.37 519.54,-19.17 508.98,-19.94 511.76,-26.37"/>
</g>
<!-- NoiseSource -->
<g id="node6" class="node">
<title>NoiseSource</title>
<g id="a_node6"><a xlink:href="inet.physicallayer.wireless.noise.NoiseSource.html" xlink:title="Compound Module NoiseSource" target="_parent">
<polygon fill="#fffcaf" stroke="black" points="669,-19 592,-19 592,0 669,0 669,-19"/>
<text text-anchor="middle" x="630.5" y="-7" font-family="Helvetica,sans-Serif" font-size="10.00">NoiseSource</text>
</a>
</g>
</g>
<!-- AnalogModelShowcaseNoiseNetwork&#45;&gt;NoiseSource -->
<g id="edge5" class="edge">
<title>AnalogModelShowcaseNoiseNetwork&#45;&gt;NoiseSource</title>
<path fill="none" stroke="black" d="M451.72,-54.98C488.26,-45.89 546.28,-31.46 586.26,-21.51"/>
<polygon fill="black" stroke="black" points="587.15,-24.89 596.01,-19.08 585.46,-18.1 587.15,-24.89"/>
</g>
</g>
</svg>
