<?xml version="1.0" encoding="UTF-8" standalone="no"?>
<!DOCTYPE svg PUBLIC "-//W3C//DTD SVG 1.1//EN"
 "http://www.w3.org/Graphics/SVG/1.1/DTD/svg11.dtd">
<!-- Generated by graphviz version 2.43.0 (0)
 -->
<!-- Title: opp Pages: 1 -->
<svg width="196pt" height="82pt"
 viewBox="0.00 0.00 195.50 82.00" xmlns="http://www.w3.org/2000/svg" xmlns:xlink="http://www.w3.org/1999/xlink">
<g id="graph0" class="graph" transform="scale(1 1) rotate(0) translate(4 78)">
<title>opp</title>
<polygon fill="transparent" stroke="transparent" points="-4,4 -4,-78 191.5,-78 191.5,4 -4,4"/>
<!-- EthernetAddressInserter -->
<g id="node1" class="node">
<title>EthernetAddressInserter</title>
<g id="a_node1"><a xlink:href="inet.linklayer.ethernet.modular.EthernetAddressInserter.html" xlink:title="Simple Module EthernetAddressInserter" target="_parent">
<polygon fill="#fff700" stroke="black" points="165.5,-19 31.5,-19 31.5,0 165.5,0 165.5,-19"/>
<text text-anchor="middle" x="98.5" y="-7" font-family="Helvetica,sans-Serif" font-size="10.00">EthernetAddressInserter</text>
</a>
</g>
</g>
<!-- PacketFlowBase -->
<g id="node2" class="node">
<title>PacketFlowBase</title>
<g id="a_node2"><a xlink:href="inet.queueing.base.PacketFlowBase.html" xlink:title="Simple Module PacketFlowBase" target="_parent">
<polygon fill="#fffcaf" stroke="black" points="95,-74 0,-74 0,-55 95,-55 95,-74"/>
<text text-anchor="middle" x="47.5" y="-62" font-family="Helvetica,sans-Serif" font-size="10.00">PacketFlowBase</text>
</a>
</g>
</g>
<!-- PacketFlowBase&#45;&gt;EthernetAddressInserter -->
<g id="edge1" class="edge">
<title>PacketFlowBase&#45;&gt;EthernetAddressInserter</title>
<path fill="none" stroke="black" d="M55.92,-54.75C65.43,-44.87 80.79,-28.9 90.24,-19.09"/>
</g>
<!-- IPacketFlow -->
<g id="node3" class="node">
<title>IPacketFlow</title>
<g id="a_node3"><a xlink:href="inet.queueing.contract.IPacketFlow.html" xlink:title="Module Interface IPacketFlow" target="_parent">
<polygon fill="#fffcaf" stroke="black" stroke-dasharray="5,2" points="187.5,-74 113.5,-74 113.5,-55 187.5,-55 187.5,-74"/>
<text text-anchor="middle" x="150.5" y="-62" font-family="Helvetica,sans-Serif" font-size="10.00">IPacketFlow</text>
</a>
</g>
</g>
<!-- IPacketFlow&#45;&gt;EthernetAddressInserter -->
<g id="edge2" class="edge">
<title>IPacketFlow&#45;&gt;EthernetAddressInserter</title>
<path fill="none" stroke="black" stroke-dasharray="5,2" d="M141.91,-54.75C132.22,-44.87 116.55,-28.9 106.93,-19.09"/>
</g>
</g>
</svg>
