<?xml version="1.0" encoding="UTF-8" standalone="no"?>
<!DOCTYPE svg PUBLIC "-//W3C//DTD SVG 1.1//EN"
 "http://www.w3.org/Graphics/SVG/1.1/DTD/svg11.dtd">
<!-- Generated by graphviz version 2.43.0 (0)
 -->
<!-- Title: opp Pages: 1 -->
<svg width="312pt" height="82pt"
 viewBox="0.00 0.00 312.00 82.00" xmlns="http://www.w3.org/2000/svg" xmlns:xlink="http://www.w3.org/1999/xlink">
<g id="graph0" class="graph" transform="scale(1 1) rotate(0) translate(4 78)">
<title>opp</title>
<polygon fill="transparent" stroke="transparent" points="-4,4 -4,-78 308,-78 308,4 -4,4"/>
<!-- IPhysicalLinkVisualizer -->
<g id="node1" class="node">
<title>IPhysicalLinkVisualizer</title>
<g id="a_node1"><a xlink:href="inet.visualizer.contract.IPhysicalLinkVisualizer.html" xlink:title="Module Interface IPhysicalLinkVisualizer" target="_parent">
<polygon fill="#fff700" stroke="black" stroke-dasharray="5,2" points="224.5,-74 96.5,-74 96.5,-55 224.5,-55 224.5,-74"/>
<text text-anchor="middle" x="160.5" y="-62" font-family="Helvetica,sans-Serif" font-size="10.00">IPhysicalLinkVisualizer</text>
</a>
</g>
</g>
<!-- PhysicalLinkCanvasVisualizer -->
<g id="node2" class="node">
<title>PhysicalLinkCanvasVisualizer</title>
<g id="a_node2"><a xlink:href="inet.visualizer.canvas.physicallayer.PhysicalLinkCanvasVisualizer.html" xlink:title="Simple Module PhysicalLinkCanvasVisualizer" target="_parent">
<polygon fill="#fffcaf" stroke="black" points="161,-19 0,-19 0,0 161,0 161,-19"/>
<text text-anchor="middle" x="80.5" y="-7" font-family="Helvetica,sans-Serif" font-size="10.00">PhysicalLinkCanvasVisualizer</text>
</a>
</g>
</g>
<!-- IPhysicalLinkVisualizer&#45;&gt;PhysicalLinkCanvasVisualizer -->
<g id="edge1" class="edge">
<title>IPhysicalLinkVisualizer&#45;&gt;PhysicalLinkCanvasVisualizer</title>
<path fill="none" stroke="black" stroke-dasharray="5,2" d="M147.65,-54.98C132.81,-45.15 108.53,-29.07 93.59,-19.17"/>
</g>
<!-- PhysicalLinkVisualizer -->
<g id="node3" class="node">
<title>PhysicalLinkVisualizer</title>
<g id="a_node3"><a xlink:href="inet.visualizer.common.PhysicalLinkVisualizer.html" xlink:title="Compound Module PhysicalLinkVisualizer" target="_parent">
<polygon fill="#fffcaf" stroke="black" points="304,-19 179,-19 179,0 304,0 304,-19"/>
<text text-anchor="middle" x="241.5" y="-7" font-family="Helvetica,sans-Serif" font-size="10.00">PhysicalLinkVisualizer</text>
</a>
</g>
</g>
<!-- IPhysicalLinkVisualizer&#45;&gt;PhysicalLinkVisualizer -->
<g id="edge2" class="edge">
<title>IPhysicalLinkVisualizer&#45;&gt;PhysicalLinkVisualizer</title>
<path fill="none" stroke="black" stroke-dasharray="5,2" d="M173.51,-54.98C188.54,-45.15 213.12,-29.07 228.25,-19.17"/>
</g>
</g>
</svg>
