<?xml version="1.0" encoding="UTF-8" standalone="no"?>
<!DOCTYPE svg PUBLIC "-//W3C//DTD SVG 1.1//EN"
 "http://www.w3.org/Graphics/SVG/1.1/DTD/svg11.dtd">
<!-- Generated by graphviz version 2.43.0 (0)
 -->
<!-- Title: opp Pages: 1 -->
<svg width="349pt" height="82pt"
 viewBox="0.00 0.00 349.00 82.00" xmlns="http://www.w3.org/2000/svg" xmlns:xlink="http://www.w3.org/1999/xlink">
<g id="graph0" class="graph" transform="scale(1 1) rotate(0) translate(4 78)">
<title>opp</title>
<polygon fill="transparent" stroke="transparent" points="-4,4 -4,-78 345,-78 345,4 -4,4"/>
<!-- ResidenceTimeMeasurementShowcase -->
<g id="node1" class="node">
<title>ResidenceTimeMeasurementShowcase</title>
<g id="a_node1"><a xlink:href="inet.showcases.measurement.residencetime.ResidenceTimeMeasurementShowcase.html" xlink:title="Network ResidenceTimeMeasurementShowcase" target="_parent">
<polygon fill="#9090ff" stroke="black" points="295.5,-74 87.5,-74 87.5,-55 295.5,-55 295.5,-74"/>
<text text-anchor="middle" x="191.5" y="-62" font-family="Helvetica,sans-Serif" font-size="10.00">ResidenceTimeMeasurementShowcase</text>
</a>
</g>
</g>
<!-- StandardHost -->
<g id="node2" class="node">
<title>StandardHost</title>
<g id="a_node2"><a xlink:href="inet.node.inet.StandardHost.html" xlink:title="Compound Module StandardHost" target="_parent">
<polygon fill="#fffcaf" stroke="black" points="83,-19 0,-19 0,0 83,0 83,-19"/>
<text text-anchor="middle" x="41.5" y="-7" font-family="Helvetica,sans-Serif" font-size="10.00">StandardHost</text>
</a>
</g>
</g>
<!-- ResidenceTimeMeasurementShowcase&#45;&gt;StandardHost -->
<g id="edge1" class="edge">
<title>ResidenceTimeMeasurementShowcase&#45;&gt;StandardHost</title>
<path fill="none" stroke="black" d="M167.4,-54.98C142.62,-46.23 103.8,-32.51 75.81,-22.62"/>
<polygon fill="black" stroke="black" points="76.63,-19.2 66.04,-19.17 74.3,-25.8 76.63,-19.2"/>
</g>
<!-- EthernetSwitch -->
<g id="node3" class="node">
<title>EthernetSwitch</title>
<g id="a_node3"><a xlink:href="inet.node.ethernet.EthernetSwitch.html" xlink:title="Compound Module EthernetSwitch" target="_parent">
<polygon fill="#fffcaf" stroke="black" points="191.5,-19 101.5,-19 101.5,0 191.5,0 191.5,-19"/>
<text text-anchor="middle" x="146.5" y="-7" font-family="Helvetica,sans-Serif" font-size="10.00">EthernetSwitch</text>
</a>
</g>
</g>
<!-- ResidenceTimeMeasurementShowcase&#45;&gt;EthernetSwitch -->
<g id="edge2" class="edge">
<title>ResidenceTimeMeasurementShowcase&#45;&gt;EthernetSwitch</title>
<path fill="none" stroke="black" d="M184.07,-54.75C177.65,-47.18 168.19,-36.05 160.38,-26.84"/>
<polygon fill="black" stroke="black" points="162.93,-24.45 153.79,-19.09 157.6,-28.98 162.93,-24.45"/>
</g>
<!-- Eth1G -->
<g id="node4" class="node">
<title>Eth1G</title>
<g id="a_node4"><a xlink:href="inet.node.ethernet.Eth1G.html" xlink:title="Channel Eth1G" target="_parent">
<polygon fill="#d0ffd0" stroke="black" points="263.5,-19 209.5,-19 209.5,0 263.5,0 263.5,-19"/>
<text text-anchor="middle" x="236.5" y="-7" font-family="Helvetica,sans-Serif" font-size="10.00">Eth1G</text>
</a>
</g>
</g>
<!-- ResidenceTimeMeasurementShowcase&#45;&gt;Eth1G -->
<g id="edge3" class="edge">
<title>ResidenceTimeMeasurementShowcase&#45;&gt;Eth1G</title>
<path fill="none" stroke="black" d="M198.93,-54.75C205.35,-47.18 214.81,-36.05 222.62,-26.84"/>
<polygon fill="black" stroke="black" points="225.4,-28.98 229.21,-19.09 220.07,-24.45 225.4,-28.98"/>
</g>
<!-- Eth100M -->
<g id="node5" class="node">
<title>Eth100M</title>
<g id="a_node5"><a xlink:href="inet.node.ethernet.Eth100M.html" xlink:title="Channel Eth100M" target="_parent">
<polygon fill="#d0ffd0" stroke="black" points="341,-19 282,-19 282,0 341,0 341,-19"/>
<text text-anchor="middle" x="311.5" y="-7" font-family="Helvetica,sans-Serif" font-size="10.00">Eth100M</text>
</a>
</g>
</g>
<!-- ResidenceTimeMeasurementShowcase&#45;&gt;Eth100M -->
<g id="edge4" class="edge">
<title>ResidenceTimeMeasurementShowcase&#45;&gt;Eth100M</title>
<path fill="none" stroke="black" d="M210.78,-54.98C230.17,-46.42 260.31,-33.11 282.57,-23.28"/>
<polygon fill="black" stroke="black" points="284.14,-26.41 291.87,-19.17 281.31,-20.01 284.14,-26.41"/>
</g>
</g>
</svg>
