<?xml version="1.0" encoding="UTF-8" standalone="no"?>
<!DOCTYPE svg PUBLIC "-//W3C//DTD SVG 1.1//EN"
 "http://www.w3.org/Graphics/SVG/1.1/DTD/svg11.dtd">
<!-- Generated by graphviz version 2.43.0 (0)
 -->
<!-- Title: opp Pages: 1 -->
<svg width="160pt" height="82pt"
 viewBox="0.00 0.00 160.00 82.00" xmlns="http://www.w3.org/2000/svg" xmlns:xlink="http://www.w3.org/1999/xlink">
<g id="graph0" class="graph" transform="scale(1 1) rotate(0) translate(4 78)">
<title>opp</title>
<polygon fill="transparent" stroke="transparent" points="-4,4 -4,-78 156,-78 156,4 -4,4"/>
<!-- TunInterface -->
<g id="node1" class="node">
<title>TunInterface</title>
<g id="a_node1"><a xlink:href="inet.linklayer.tun.TunInterface.html" xlink:title="Compound Module TunInterface" target="_parent">
<polygon fill="#fff700" stroke="black" points="107.5,-74 30.5,-74 30.5,-55 107.5,-55 107.5,-74"/>
<text text-anchor="middle" x="69" y="-62" font-family="Helvetica,sans-Serif" font-size="10.00">TunInterface</text>
</a>
</g>
</g>
<!-- Tun -->
<g id="node2" class="node">
<title>Tun</title>
<g id="a_node2"><a xlink:href="inet.linklayer.tun.Tun.html" xlink:title="Simple Module Tun" target="_parent">
<polygon fill="#fffcaf" stroke="black" points="54,-19 0,-19 0,0 54,0 54,-19"/>
<text text-anchor="middle" x="27" y="-7" font-family="Helvetica,sans-Serif" font-size="10.00">Tun</text>
</a>
</g>
</g>
<!-- TunInterface&#45;&gt;Tun -->
<g id="edge1" class="edge">
<title>TunInterface&#45;&gt;Tun</title>
<path fill="none" stroke="black" d="M62.06,-54.75C56.13,-47.26 47.43,-36.28 40.18,-27.13"/>
<polygon fill="black" stroke="black" points="42.76,-24.75 33.81,-19.09 37.27,-29.1 42.76,-24.75"/>
</g>
<!-- IdealChannel -->
<g id="node3" class="node">
<title>IdealChannel</title>
<g id="a_node3"><a xlink:href="ned.IdealChannel.html" xlink:title="Channel IdealChannel" target="_parent">
<polygon fill="#d0ffd0" stroke="black" points="152,-19 72,-19 72,0 152,0 152,-19"/>
<text text-anchor="middle" x="112" y="-7" font-family="Helvetica,sans-Serif" font-size="10.00">IdealChannel</text>
</a>
</g>
</g>
<!-- TunInterface&#45;&gt;IdealChannel -->
<g id="edge2" class="edge">
<title>TunInterface&#45;&gt;IdealChannel</title>
<path fill="none" stroke="black" d="M76.1,-54.75C82.17,-47.26 91.09,-36.28 98.51,-27.13"/>
<polygon fill="black" stroke="black" points="101.45,-29.06 105.03,-19.09 96.01,-24.65 101.45,-29.06"/>
</g>
</g>
</svg>
