<?xml version="1.0" encoding="UTF-8" standalone="no"?>
<!DOCTYPE svg PUBLIC "-//W3C//DTD SVG 1.1//EN"
 "http://www.w3.org/Graphics/SVG/1.1/DTD/svg11.dtd">
<!-- Generated by graphviz version 2.43.0 (0)
 -->
<!-- Title: opp Pages: 1 -->
<svg width="1618pt" height="137pt"
 viewBox="0.00 0.00 1618.00 137.00" xmlns="http://www.w3.org/2000/svg" xmlns:xlink="http://www.w3.org/1999/xlink">
<g id="graph0" class="graph" transform="scale(1 1) rotate(0) translate(4 133)">
<title>opp</title>
<polygon fill="transparent" stroke="transparent" points="-4,4 -4,-133 1614,-133 1614,4 -4,4"/>
<!-- CompoundPacketQueueBase -->
<g id="node1" class="node">
<title>CompoundPacketQueueBase</title>
<g id="a_node1"><a xlink:href="inet.queueing.queue.CompoundPacketQueueBase.html" xlink:title="Compound Module CompoundPacketQueueBase" target="_parent">
<polygon fill="#fff700" stroke="black" points="873,-74 717,-74 717,-55 873,-55 873,-74"/>
<text text-anchor="middle" x="795" y="-62" font-family="Helvetica,sans-Serif" font-size="10.00">CompoundPacketQueueBase</text>
</a>
</g>
</g>
<!-- CompoundPendingQueue -->
<g id="node4" class="node">
<title>CompoundPendingQueue</title>
<g id="a_node4"><a xlink:href="inet.linklayer.ieee80211.mac.queue.CompoundPendingQueue.html" xlink:title="Compound Module CompoundPendingQueue" target="_parent">
<polygon fill="#fffcaf" stroke="black" points="140,-19 0,-19 0,0 140,0 140,-19"/>
<text text-anchor="middle" x="70" y="-7" font-family="Helvetica,sans-Serif" font-size="10.00">CompoundPendingQueue</text>
</a>
</g>
</g>
<!-- CompoundPacketQueueBase&#45;&gt;CompoundPendingQueue -->
<g id="edge3" class="edge">
<title>CompoundPacketQueueBase&#45;&gt;CompoundPendingQueue</title>
<path fill="none" stroke="black" d="M716.86,-59.09C595.32,-52.01 353.65,-37.05 149,-19 146.11,-18.75 143.17,-18.48 140.2,-18.19"/>
</g>
<!-- DiffservQueue -->
<g id="node5" class="node">
<title>DiffservQueue</title>
<g id="a_node5"><a xlink:href="inet.networklayer.diffserv.DiffservQueue.html" xlink:title="Compound Module DiffservQueue" target="_parent">
<polygon fill="#fffcaf" stroke="black" points="244,-19 158,-19 158,0 244,0 244,-19"/>
<text text-anchor="middle" x="201" y="-7" font-family="Helvetica,sans-Serif" font-size="10.00">DiffservQueue</text>
</a>
</g>
</g>
<!-- CompoundPacketQueueBase&#45;&gt;DiffservQueue -->
<g id="edge4" class="edge">
<title>CompoundPacketQueueBase&#45;&gt;DiffservQueue</title>
<path fill="none" stroke="black" d="M716.71,-59.05C611.16,-52.59 417.47,-39.16 253,-19 250.09,-18.64 247.1,-18.24 244.09,-17.82"/>
</g>
<!-- DSQueue1 -->
<g id="node6" class="node">
<title>DSQueue1</title>
<g id="a_node6"><a xlink:href="inet.examples.diffserv.onedomain.DSQueue1.html" xlink:title="Compound Module DSQueue1" target="_parent">
<polygon fill="#fffcaf" stroke="black" points="330,-19 262,-19 262,0 330,0 330,-19"/>
<text text-anchor="middle" x="296" y="-7" font-family="Helvetica,sans-Serif" font-size="10.00">DSQueue1</text>
</a>
</g>
</g>
<!-- CompoundPacketQueueBase&#45;&gt;DSQueue1 -->
<g id="edge5" class="edge">
<title>CompoundPacketQueueBase&#45;&gt;DSQueue1</title>
<path fill="none" stroke="black" d="M716.86,-58.21C625.81,-51.51 471.01,-38.44 339,-19 336.14,-18.58 333.18,-18.1 330.22,-17.58"/>
</g>
<!-- DSQueue2 -->
<g id="node7" class="node">
<title>DSQueue2</title>
<g id="a_node7"><a xlink:href="inet.examples.diffserv.onedomain.DSQueue2.html" xlink:title="Compound Module DSQueue2" target="_parent">
<polygon fill="#fffcaf" stroke="black" points="416,-19 348,-19 348,0 416,0 416,-19"/>
<text text-anchor="middle" x="382" y="-7" font-family="Helvetica,sans-Serif" font-size="10.00">DSQueue2</text>
</a>
</g>
</g>
<!-- CompoundPacketQueueBase&#45;&gt;DSQueue2 -->
<g id="edge6" class="edge">
<title>CompoundPacketQueueBase&#45;&gt;DSQueue2</title>
<path fill="none" stroke="black" d="M716.8,-55.83C641.75,-48.05 525.32,-34.93 425,-19 422.14,-18.55 419.19,-18.04 416.23,-17.51"/>
</g>
<!-- EthernetQosQueue -->
<g id="node8" class="node">
<title>EthernetQosQueue</title>
<g id="a_node8"><a xlink:href="inet.linklayer.ethernet.common.EthernetQosQueue.html" xlink:title="Compound Module EthernetQosQueue" target="_parent">
<polygon fill="#fffcaf" stroke="black" points="542,-19 434,-19 434,0 542,0 542,-19"/>
<text text-anchor="middle" x="488" y="-7" font-family="Helvetica,sans-Serif" font-size="10.00">EthernetQosQueue</text>
</a>
</g>
</g>
<!-- CompoundPacketQueueBase&#45;&gt;EthernetQosQueue -->
<g id="edge7" class="edge">
<title>CompoundPacketQueueBase&#45;&gt;EthernetQosQueue</title>
<path fill="none" stroke="black" d="M745.68,-54.98C688.47,-45.11 594.72,-28.92 537.46,-19.04"/>
</g>
<!-- EthernetQosRedQueue -->
<g id="node9" class="node">
<title>EthernetQosRedQueue</title>
<g id="a_node9"><a xlink:href="inet.linklayer.ethernet.common.EthernetQosRedQueue.html" xlink:title="Compound Module EthernetQosRedQueue" target="_parent">
<polygon fill="#fffcaf" stroke="black" points="687.5,-19 560.5,-19 560.5,0 687.5,0 687.5,-19"/>
<text text-anchor="middle" x="624" y="-7" font-family="Helvetica,sans-Serif" font-size="10.00">EthernetQosRedQueue</text>
</a>
</g>
</g>
<!-- CompoundPacketQueueBase&#45;&gt;EthernetQosRedQueue -->
<g id="edge8" class="edge">
<title>CompoundPacketQueueBase&#45;&gt;EthernetQosRedQueue</title>
<path fill="none" stroke="black" d="M767.53,-54.98C735.71,-45.12 683.6,-28.97 651.69,-19.08"/>
</g>
<!-- ExampleCompoundPriorityQueue -->
<g id="node10" class="node">
<title>ExampleCompoundPriorityQueue</title>
<g id="a_node10"><a xlink:href="inet.tutorials.queueing.ExampleCompoundPriorityQueue.html" xlink:title="Compound Module ExampleCompoundPriorityQueue" target="_parent">
<polygon fill="#fffcaf" stroke="black" points="884.5,-19 705.5,-19 705.5,0 884.5,0 884.5,-19"/>
<text text-anchor="middle" x="795" y="-7" font-family="Helvetica,sans-Serif" font-size="10.00">ExampleCompoundPriorityQueue</text>
</a>
</g>
</g>
<!-- CompoundPacketQueueBase&#45;&gt;ExampleCompoundPriorityQueue -->
<g id="edge9" class="edge">
<title>CompoundPacketQueueBase&#45;&gt;ExampleCompoundPriorityQueue</title>
<path fill="none" stroke="black" d="M795,-54.75C795,-44.87 795,-28.9 795,-19.09"/>
</g>
<!-- GatingPriorityQueue -->
<g id="node11" class="node">
<title>GatingPriorityQueue</title>
<g id="a_node11"><a xlink:href="inet.queueing.queue.GatingPriorityQueue.html" xlink:title="Compound Module GatingPriorityQueue" target="_parent">
<polygon fill="#fffcaf" stroke="black" points="1019,-19 903,-19 903,0 1019,0 1019,-19"/>
<text text-anchor="middle" x="961" y="-7" font-family="Helvetica,sans-Serif" font-size="10.00">GatingPriorityQueue</text>
</a>
</g>
</g>
<!-- CompoundPacketQueueBase&#45;&gt;GatingPriorityQueue -->
<g id="edge10" class="edge">
<title>CompoundPacketQueueBase&#45;&gt;GatingPriorityQueue</title>
<path fill="none" stroke="black" d="M821.67,-54.98C852.56,-45.12 903.15,-28.97 934.12,-19.08"/>
</g>
<!-- Ieee8021qTimeAwareShaper -->
<g id="node12" class="node">
<title>Ieee8021qTimeAwareShaper</title>
<g id="a_node12"><a xlink:href="inet.linklayer.ieee8021q.Ieee8021qTimeAwareShaper.html" xlink:title="Compound Module Ieee8021qTimeAwareShaper" target="_parent">
<polygon fill="#fffcaf" stroke="black" points="1194.5,-19 1037.5,-19 1037.5,0 1194.5,0 1194.5,-19"/>
<text text-anchor="middle" x="1116" y="-7" font-family="Helvetica,sans-Serif" font-size="10.00">Ieee8021qTimeAwareShaper</text>
</a>
</g>
</g>
<!-- CompoundPacketQueueBase&#45;&gt;Ieee8021qTimeAwareShaper -->
<g id="edge11" class="edge">
<title>CompoundPacketQueueBase&#45;&gt;Ieee8021qTimeAwareShaper</title>
<path fill="none" stroke="black" d="M846.57,-54.98C906.39,-45.11 1004.42,-28.92 1064.29,-19.04"/>
</g>
<!-- PriorityQueue -->
<g id="node13" class="node">
<title>PriorityQueue</title>
<g id="a_node13"><a xlink:href="inet.queueing.queue.PriorityQueue.html" xlink:title="Compound Module PriorityQueue" target="_parent">
<polygon fill="#fffcaf" stroke="black" points="1295.5,-19 1212.5,-19 1212.5,0 1295.5,0 1295.5,-19"/>
<text text-anchor="middle" x="1254" y="-7" font-family="Helvetica,sans-Serif" font-size="10.00">PriorityQueue</text>
</a>
</g>
</g>
<!-- CompoundPacketQueueBase&#45;&gt;PriorityQueue -->
<g id="edge12" class="edge">
<title>CompoundPacketQueueBase&#45;&gt;PriorityQueue</title>
<path fill="none" stroke="black" d="M873.2,-56.4C955.64,-48.58 1089.22,-34.99 1204,-19 1206.7,-18.62 1209.49,-18.21 1212.29,-17.78"/>
</g>
<!-- PriorityShaper -->
<g id="node14" class="node">
<title>PriorityShaper</title>
<g id="a_node14"><a xlink:href="inet.queueing.shaper.PriorityShaper.html" xlink:title="Compound Module PriorityShaper" target="_parent">
<polygon fill="#fffcaf" stroke="black" points="1400,-19 1314,-19 1314,0 1400,0 1400,-19"/>
<text text-anchor="middle" x="1357" y="-7" font-family="Helvetica,sans-Serif" font-size="10.00">PriorityShaper</text>
</a>
</g>
</g>
<!-- CompoundPacketQueueBase&#45;&gt;PriorityShaper -->
<g id="edge13" class="edge">
<title>CompoundPacketQueueBase&#45;&gt;PriorityShaper</title>
<path fill="none" stroke="black" d="M873.39,-58.49C973.68,-51.67 1152.65,-38.07 1305,-19 1307.9,-18.64 1310.9,-18.23 1313.91,-17.8"/>
</g>
<!-- RedDropperQueue -->
<g id="node15" class="node">
<title>RedDropperQueue</title>
<g id="a_node15"><a xlink:href="inet.queueing.queue.RedDropperQueue.html" xlink:title="Compound Module RedDropperQueue" target="_parent">
<polygon fill="#fffcaf" stroke="black" points="1524,-19 1418,-19 1418,0 1524,0 1524,-19"/>
<text text-anchor="middle" x="1471" y="-7" font-family="Helvetica,sans-Serif" font-size="10.00">RedDropperQueue</text>
</a>
</g>
</g>
<!-- CompoundPacketQueueBase&#45;&gt;RedDropperQueue -->
<g id="edge14" class="edge">
<title>CompoundPacketQueueBase&#45;&gt;RedDropperQueue</title>
<path fill="none" stroke="black" d="M873.16,-59.44C989.96,-53.01 1216.87,-39.11 1409,-19 1411.92,-18.69 1414.91,-18.36 1417.93,-18"/>
</g>
<!-- REDQueue -->
<g id="node16" class="node">
<title>REDQueue</title>
<g id="a_node16"><a xlink:href="inet.examples.inet.netperfmeter.REDQueue.html" xlink:title="Compound Module REDQueue" target="_parent">
<polygon fill="#fffcaf" stroke="black" points="1610,-19 1542,-19 1542,0 1610,0 1610,-19"/>
<text text-anchor="middle" x="1576" y="-7" font-family="Helvetica,sans-Serif" font-size="10.00">REDQueue</text>
</a>
</g>
</g>
<!-- CompoundPacketQueueBase&#45;&gt;REDQueue -->
<g id="edge15" class="edge">
<title>CompoundPacketQueueBase&#45;&gt;REDQueue</title>
<path fill="none" stroke="black" d="M873.16,-62.25C1008.22,-59.31 1293.81,-49.71 1533,-19 1535.87,-18.63 1538.83,-18.19 1541.8,-17.69"/>
</g>
<!-- PacketQueueBase -->
<g id="node2" class="node">
<title>PacketQueueBase</title>
<g id="a_node2"><a xlink:href="inet.queueing.base.PacketQueueBase.html" xlink:title="Simple Module PacketQueueBase" target="_parent">
<polygon fill="#fffcaf" stroke="black" points="791,-129 687,-129 687,-110 791,-110 791,-129"/>
<text text-anchor="middle" x="739" y="-117" font-family="Helvetica,sans-Serif" font-size="10.00">PacketQueueBase</text>
</a>
</g>
</g>
<!-- PacketQueueBase&#45;&gt;CompoundPacketQueueBase -->
<g id="edge1" class="edge">
<title>PacketQueueBase&#45;&gt;CompoundPacketQueueBase</title>
<path fill="none" stroke="black" d="M748,-109.98C758.39,-100.15 775.38,-84.07 785.84,-74.17"/>
</g>
<!-- IPacketQueue -->
<g id="node3" class="node">
<title>IPacketQueue</title>
<g id="a_node3"><a xlink:href="inet.queueing.contract.IPacketQueue.html" xlink:title="Module Interface IPacketQueue" target="_parent">
<polygon fill="#fffcaf" stroke="black" stroke-dasharray="5,2" points="892.5,-129 809.5,-129 809.5,-110 892.5,-110 892.5,-129"/>
<text text-anchor="middle" x="851" y="-117" font-family="Helvetica,sans-Serif" font-size="10.00">IPacketQueue</text>
</a>
</g>
</g>
<!-- IPacketQueue&#45;&gt;CompoundPacketQueueBase -->
<g id="edge2" class="edge">
<title>IPacketQueue&#45;&gt;CompoundPacketQueueBase</title>
<path fill="none" stroke="black" stroke-dasharray="5,2" d="M842,-109.98C831.61,-100.15 814.62,-84.07 804.16,-74.17"/>
</g>
</g>
</svg>
