<?xml version="1.0" encoding="UTF-8" standalone="no"?>
<!DOCTYPE svg PUBLIC "-//W3C//DTD SVG 1.1//EN"
 "http://www.w3.org/Graphics/SVG/1.1/DTD/svg11.dtd">
<!-- Generated by graphviz version 2.43.0 (0)
 -->
<!-- Title: opp Pages: 1 -->
<svg width="2882pt" height="137pt"
 viewBox="0.00 0.00 2881.50 137.00" xmlns="http://www.w3.org/2000/svg" xmlns:xlink="http://www.w3.org/1999/xlink">
<g id="graph0" class="graph" transform="scale(1 1) rotate(0) translate(4 133)">
<title>opp</title>
<polygon fill="transparent" stroke="transparent" points="-4,4 -4,-133 2877.5,-133 2877.5,4 -4,4"/>
<!-- TsnNetworkBase -->
<g id="node1" class="node">
<title>TsnNetworkBase</title>
<g id="a_node1"><a xlink:href="inet.networks.base.TsnNetworkBase.html" xlink:title="Network TsnNetworkBase" target="_parent">
<polygon fill="#9090ff" stroke="black" points="1352.5,-74 1254.5,-74 1254.5,-55 1352.5,-55 1352.5,-74"/>
<text text-anchor="middle" x="1303.5" y="-62" font-family="Helvetica,sans-Serif" font-size="10.00">TsnNetworkBase</text>
</a>
</g>
</g>
<!-- AsynchronousShaperValidation -->
<g id="node3" class="node">
<title>AsynchronousShaperValidation</title>
<g id="a_node3"><a xlink:href="inet.validation.tsn.trafficshaping.asynchronousshaper.icct.AsynchronousShaperValidation.html" xlink:title="Network AsynchronousShaperValidation" target="_parent">
<polygon fill="#d0d0ff" stroke="black" points="167,-19 0,-19 0,0 167,0 167,-19"/>
<text text-anchor="middle" x="83.5" y="-7" font-family="Helvetica,sans-Serif" font-size="10.00">AsynchronousShaperValidation</text>
</a>
</g>
</g>
<!-- TsnNetworkBase&#45;&gt;AsynchronousShaperValidation -->
<g id="edge2" class="edge">
<title>TsnNetworkBase&#45;&gt;AsynchronousShaperValidation</title>
<path fill="none" stroke="black" d="M1254.38,-62.57C1096.24,-59.25 586.96,-46.69 166.81,-19.02"/>
</g>
<!-- TsnNetworkBase&#45;&gt;AsynchronousShaperValidation -->
<g id="edge3" class="edge">
<title>TsnNetworkBase&#45;&gt;AsynchronousShaperValidation</title>
<path fill="none" stroke="black" d="M1254.24,-62.4C1097.63,-58.83 597.87,-46.23 184.5,-19 178.82,-18.63 172.94,-18.19 167.01,-17.72"/>
</g>
<!-- AutomaticFailureProtectionShowcase -->
<g id="node4" class="node">
<title>AutomaticFailureProtectionShowcase</title>
<g id="a_node4"><a xlink:href="inet.showcases.tsn.framereplication.automaticfailureprotection.AutomaticFailureProtectionShowcase.html" xlink:title="Network AutomaticFailureProtectionShowcase" target="_parent">
<polygon fill="#d0d0ff" stroke="black" points="382,-19 185,-19 185,0 382,0 382,-19"/>
<text text-anchor="middle" x="283.5" y="-7" font-family="Helvetica,sans-Serif" font-size="10.00">AutomaticFailureProtectionShowcase</text>
</a>
</g>
</g>
<!-- TsnNetworkBase&#45;&gt;AutomaticFailureProtectionShowcase -->
<g id="edge4" class="edge">
<title>TsnNetworkBase&#45;&gt;AutomaticFailureProtectionShowcase</title>
<path fill="none" stroke="black" d="M1254.33,-61.79C1116.41,-56.64 714.87,-40.35 381.99,-19.03"/>
</g>
<!-- TsnNetworkBase&#45;&gt;AutomaticFailureProtectionShowcase -->
<g id="edge5" class="edge">
<title>TsnNetworkBase&#45;&gt;AutomaticFailureProtectionShowcase</title>
<path fill="none" stroke="black" d="M1254.27,-61.46C1118.13,-55.98 725.74,-39.9 399.5,-19 393.83,-18.64 387.99,-18.24 382.09,-17.82"/>
</g>
<!-- AutomaticMultipathConfigurationShowcase -->
<g id="node5" class="node">
<title>AutomaticMultipathConfigurationShowcase</title>
<g id="a_node5"><a xlink:href="inet.showcases.tsn.framereplication.automaticmultipathconfiguration.AutomaticMultipathConfigurationShowcase.html" xlink:title="Network AutomaticMultipathConfigurationShowcase" target="_parent">
<polygon fill="#d0d0ff" stroke="black" points="627,-19 400,-19 400,0 627,0 627,-19"/>
<text text-anchor="middle" x="513.5" y="-7" font-family="Helvetica,sans-Serif" font-size="10.00">AutomaticMultipathConfigurationShowcase</text>
</a>
</g>
</g>
<!-- TsnNetworkBase&#45;&gt;AutomaticMultipathConfigurationShowcase -->
<g id="edge6" class="edge">
<title>TsnNetworkBase&#45;&gt;AutomaticMultipathConfigurationShowcase</title>
<path fill="none" stroke="black" d="M1254.13,-60.25C1143.54,-52.95 867.5,-34.69 636.5,-19 633.4,-18.79 630.26,-18.58 627.09,-18.36"/>
</g>
<!-- CreditBasedShaperValidation -->
<g id="node6" class="node">
<title>CreditBasedShaperValidation</title>
<g id="a_node6"><a xlink:href="inet.validation.tsn.trafficshaping.creditbasedshaper.CreditBasedShaperValidation.html" xlink:title="Network CreditBasedShaperValidation" target="_parent">
<polygon fill="#d0d0ff" stroke="black" points="803.5,-19 645.5,-19 645.5,0 803.5,0 803.5,-19"/>
<text text-anchor="middle" x="724.5" y="-7" font-family="Helvetica,sans-Serif" font-size="10.00">CreditBasedShaperValidation</text>
</a>
</g>
</g>
<!-- TsnNetworkBase&#45;&gt;CreditBasedShaperValidation -->
<g id="edge7" class="edge">
<title>TsnNetworkBase&#45;&gt;CreditBasedShaperValidation</title>
<path fill="none" stroke="black" d="M1254.26,-59.16C1165.66,-51.34 973.52,-34.24 811.5,-19 808.93,-18.76 806.32,-18.51 803.68,-18.26"/>
</g>
<!-- CutthroughSwitchingShowcase -->
<g id="node7" class="node">
<title>CutthroughSwitchingShowcase</title>
<g id="a_node7"><a xlink:href="inet.showcases.tsn.cutthroughswitching.CutthroughSwitchingShowcase.html" xlink:title="Network CutthroughSwitchingShowcase" target="_parent">
<polygon fill="#d0d0ff" stroke="black" points="988,-19 821,-19 821,0 988,0 988,-19"/>
<text text-anchor="middle" x="904.5" y="-7" font-family="Helvetica,sans-Serif" font-size="10.00">CutthroughSwitchingShowcase</text>
</a>
</g>
</g>
<!-- TsnNetworkBase&#45;&gt;CutthroughSwitchingShowcase -->
<g id="edge8" class="edge">
<title>TsnNetworkBase&#45;&gt;CutthroughSwitchingShowcase</title>
<path fill="none" stroke="black" d="M1254.17,-56.95C1182.14,-47.38 1048.09,-29.57 968.53,-19.01"/>
</g>
<!-- FrameReplicationValidation -->
<g id="node8" class="node">
<title>FrameReplicationValidation</title>
<g id="a_node8"><a xlink:href="inet.validation.tsn.framereplication.FrameReplicationValidation.html" xlink:title="Network FrameReplicationValidation" target="_parent">
<polygon fill="#d0d0ff" stroke="black" points="1157,-19 1006,-19 1006,0 1157,0 1157,-19"/>
<text text-anchor="middle" x="1081.5" y="-7" font-family="Helvetica,sans-Serif" font-size="10.00">FrameReplicationValidation</text>
</a>
</g>
</g>
<!-- TsnNetworkBase&#45;&gt;FrameReplicationValidation -->
<g id="edge9" class="edge">
<title>TsnNetworkBase&#45;&gt;FrameReplicationValidation</title>
<path fill="none" stroke="black" d="M1267.83,-54.98C1226.53,-45.12 1158.87,-28.97 1117.45,-19.08"/>
</g>
<!-- FrerAndTasShowcase -->
<g id="node9" class="node">
<title>FrerAndTasShowcase</title>
<g id="a_node9"><a xlink:href="inet.showcases.tsn.combiningfeatures.frerandtas.FrerAndTasShowcase.html" xlink:title="Network FrerAndTasShowcase" target="_parent">
<polygon fill="#d0d0ff" stroke="black" points="1294,-19 1175,-19 1175,0 1294,0 1294,-19"/>
<text text-anchor="middle" x="1234.5" y="-7" font-family="Helvetica,sans-Serif" font-size="10.00">FrerAndTasShowcase</text>
</a>
</g>
</g>
<!-- TsnNetworkBase&#45;&gt;FrerAndTasShowcase -->
<g id="edge10" class="edge">
<title>TsnNetworkBase&#45;&gt;FrerAndTasShowcase</title>
<path fill="none" stroke="black" d="M1292.41,-54.98C1279.61,-45.15 1258.67,-29.07 1245.79,-19.17"/>
</g>
<!-- GptpAndTasShowcase -->
<g id="node10" class="node">
<title>GptpAndTasShowcase</title>
<g id="a_node10"><a xlink:href="inet.showcases.tsn.combiningfeatures.gptpandtas.GptpAndTasShowcase.html" xlink:title="Network GptpAndTasShowcase" target="_parent">
<polygon fill="#d0d0ff" stroke="black" points="1435,-19 1312,-19 1312,0 1435,0 1435,-19"/>
<text text-anchor="middle" x="1373.5" y="-7" font-family="Helvetica,sans-Serif" font-size="10.00">GptpAndTasShowcase</text>
</a>
</g>
</g>
<!-- TsnNetworkBase&#45;&gt;GptpAndTasShowcase -->
<g id="edge11" class="edge">
<title>TsnNetworkBase&#45;&gt;GptpAndTasShowcase</title>
<path fill="none" stroke="black" d="M1314.75,-54.98C1327.73,-45.15 1348.98,-29.07 1362.05,-19.17"/>
</g>
<!-- InVehicleNetworkShowcase -->
<g id="node11" class="node">
<title>InVehicleNetworkShowcase</title>
<g id="a_node11"><a xlink:href="inet.showcases.tsn.combiningfeatures.invehicle.InVehicleNetworkShowcase.html" xlink:title="Network InVehicleNetworkShowcase" target="_parent">
<polygon fill="#d0d0ff" stroke="black" points="1604,-19 1453,-19 1453,0 1604,0 1604,-19"/>
<text text-anchor="middle" x="1528.5" y="-7" font-family="Helvetica,sans-Serif" font-size="10.00">InVehicleNetworkShowcase</text>
</a>
</g>
</g>
<!-- TsnNetworkBase&#45;&gt;InVehicleNetworkShowcase -->
<g id="edge12" class="edge">
<title>TsnNetworkBase&#45;&gt;InVehicleNetworkShowcase</title>
<path fill="none" stroke="black" d="M1339.65,-54.98C1381.51,-45.12 1450.08,-28.97 1492.07,-19.08"/>
</g>
<!-- ManualConfigurationShowcase -->
<g id="node12" class="node">
<title>ManualConfigurationShowcase</title>
<g id="a_node12"><a xlink:href="inet.showcases.tsn.framereplication.manualconfiguration.ManualConfigurationShowcase.html" xlink:title="Network ManualConfigurationShowcase" target="_parent">
<polygon fill="#d0d0ff" stroke="black" points="1789,-19 1622,-19 1622,0 1789,0 1789,-19"/>
<text text-anchor="middle" x="1705.5" y="-7" font-family="Helvetica,sans-Serif" font-size="10.00">ManualConfigurationShowcase</text>
</a>
</g>
</g>
<!-- TsnNetworkBase&#45;&gt;ManualConfigurationShowcase -->
<g id="edge13" class="edge">
<title>TsnNetworkBase&#45;&gt;ManualConfigurationShowcase</title>
<path fill="none" stroke="black" d="M1352.79,-57C1425.23,-47.45 1560.51,-29.61 1640.84,-19.02"/>
</g>
<!-- MulticastFailureProtectionShowcase -->
<g id="node13" class="node">
<title>MulticastFailureProtectionShowcase</title>
<g id="a_node13"><a xlink:href="inet.showcases.tsn.framereplication.multicastfailureprotection.MulticastFailureProtectionShowcase.html" xlink:title="Network MulticastFailureProtectionShowcase" target="_parent">
<polygon fill="#d0d0ff" stroke="black" points="1999.5,-19 1807.5,-19 1807.5,0 1999.5,0 1999.5,-19"/>
<text text-anchor="middle" x="1903.5" y="-7" font-family="Helvetica,sans-Serif" font-size="10.00">MulticastFailureProtectionShowcase</text>
</a>
</g>
</g>
<!-- TsnNetworkBase&#45;&gt;MulticastFailureProtectionShowcase -->
<g id="edge14" class="edge">
<title>TsnNetworkBase&#45;&gt;MulticastFailureProtectionShowcase</title>
<path fill="none" stroke="black" d="M1352.6,-59.16C1451.82,-50.4 1677.74,-30.44 1807.35,-18.99"/>
</g>
<!-- OneMasterClockGptpShowcase -->
<g id="node14" class="node">
<title>OneMasterClockGptpShowcase</title>
<g id="a_node14"><a xlink:href="inet.showcases.tsn.timesynchronization.gptp.OneMasterClockGptpShowcase.html" xlink:title="Network OneMasterClockGptpShowcase" target="_parent">
<polygon fill="#d0d0ff" stroke="black" points="2187,-19 2018,-19 2018,0 2187,0 2187,-19"/>
<text text-anchor="middle" x="2102.5" y="-7" font-family="Helvetica,sans-Serif" font-size="10.00">OneMasterClockGptpShowcase</text>
</a>
</g>
</g>
<!-- TsnNetworkBase&#45;&gt;OneMasterClockGptpShowcase -->
<g id="edge15" class="edge">
<title>TsnNetworkBase&#45;&gt;OneMasterClockGptpShowcase</title>
<path fill="none" stroke="black" d="M1352.68,-60.86C1467.55,-54.58 1762.41,-37.89 2008.5,-19 2011.6,-18.76 2014.77,-18.51 2017.96,-18.25"/>
</g>
<!-- TsnDumbbellNetwork -->
<g id="node15" class="node">
<title>TsnDumbbellNetwork</title>
<g id="a_node15"><a xlink:href="inet.networks.tsn.TsnDumbbellNetwork.html" xlink:title="Network TsnDumbbellNetwork" target="_parent">
<polygon fill="#d0d0ff" stroke="black" points="2326,-19 2205,-19 2205,0 2326,0 2326,-19"/>
<text text-anchor="middle" x="2265.5" y="-7" font-family="Helvetica,sans-Serif" font-size="10.00">TsnDumbbellNetwork</text>
</a>
</g>
</g>
<!-- TsnNetworkBase&#45;&gt;TsnDumbbellNetwork -->
<g id="edge16" class="edge">
<title>TsnNetworkBase&#45;&gt;TsnDumbbellNetwork</title>
<path fill="none" stroke="black" d="M1352.96,-62.3C1488.22,-58.74 1875.6,-46.72 2196.5,-19 2199.27,-18.76 2202.09,-18.5 2204.94,-18.21"/>
</g>
<!-- TsnLinearNetwork -->
<g id="node16" class="node">
<title>TsnLinearNetwork</title>
<g id="a_node16"><a xlink:href="inet.networks.tsn.TsnLinearNetwork.html" xlink:title="Network TsnLinearNetwork" target="_parent">
<polygon fill="#d0d0ff" stroke="black" points="2448.5,-19 2344.5,-19 2344.5,0 2448.5,0 2448.5,-19"/>
<text text-anchor="middle" x="2396.5" y="-7" font-family="Helvetica,sans-Serif" font-size="10.00">TsnLinearNetwork</text>
</a>
</g>
</g>
<!-- TsnNetworkBase&#45;&gt;TsnLinearNetwork -->
<g id="edge17" class="edge">
<title>TsnNetworkBase&#45;&gt;TsnLinearNetwork</title>
<path fill="none" stroke="black" d="M1352.76,-63.04C1501.4,-61.3 1958.44,-53.32 2335.5,-19 2338.38,-18.74 2341.32,-18.44 2344.29,-18.11"/>
</g>
<!-- TwoMasterClocksRingGptpShowcase -->
<g id="node17" class="node">
<title>TwoMasterClocksRingGptpShowcase</title>
<g id="a_node17"><a xlink:href="inet.showcases.tsn.timesynchronization.gptp.TwoMasterClocksRingGptpShowcase.html" xlink:title="Network TwoMasterClocksRingGptpShowcase" target="_parent">
<polygon fill="#d0d0ff" stroke="black" points="2662,-19 2467,-19 2467,0 2662,0 2662,-19"/>
<text text-anchor="middle" x="2564.5" y="-7" font-family="Helvetica,sans-Serif" font-size="10.00">TwoMasterClocksRingGptpShowcase</text>
</a>
</g>
</g>
<!-- TsnNetworkBase&#45;&gt;TwoMasterClocksRingGptpShowcase -->
<g id="edge18" class="edge">
<title>TsnNetworkBase&#45;&gt;TwoMasterClocksRingGptpShowcase</title>
<path fill="none" stroke="black" d="M1352.74,-62.32C1512.37,-58.34 2029.93,-44.22 2457.5,-19 2460.57,-18.82 2463.69,-18.63 2466.84,-18.42"/>
</g>
<!-- TwoMasterClocksTreeGptpShowcase -->
<g id="node18" class="node">
<title>TwoMasterClocksTreeGptpShowcase</title>
<g id="a_node18"><a xlink:href="inet.showcases.tsn.timesynchronization.gptp.TwoMasterClocksTreeGptpShowcase.html" xlink:title="Network TwoMasterClocksTreeGptpShowcase" target="_parent">
<polygon fill="#d0d0ff" stroke="black" points="2873.5,-19 2679.5,-19 2679.5,0 2873.5,0 2873.5,-19"/>
<text text-anchor="middle" x="2776.5" y="-7" font-family="Helvetica,sans-Serif" font-size="10.00">TwoMasterClocksTreeGptpShowcase</text>
</a>
</g>
</g>
<!-- TsnNetworkBase&#45;&gt;TwoMasterClocksTreeGptpShowcase -->
<g id="edge19" class="edge">
<title>TsnNetworkBase&#45;&gt;TwoMasterClocksTreeGptpShowcase</title>
<path fill="none" stroke="black" d="M1352.61,-62.76C1530.26,-59.9 2156.09,-48.23 2671.5,-19 2674.06,-18.86 2676.65,-18.7 2679.26,-18.54"/>
</g>
<!-- WiredNetworkBase -->
<g id="node2" class="node">
<title>WiredNetworkBase</title>
<g id="a_node2"><a xlink:href="inet.networks.base.WiredNetworkBase.html" xlink:title="Network WiredNetworkBase" target="_parent">
<polygon fill="#d0d0ff" stroke="black" points="1358.5,-129 1248.5,-129 1248.5,-110 1358.5,-110 1358.5,-129"/>
<text text-anchor="middle" x="1303.5" y="-117" font-family="Helvetica,sans-Serif" font-size="10.00">WiredNetworkBase</text>
</a>
</g>
</g>
<!-- WiredNetworkBase&#45;&gt;TsnNetworkBase -->
<g id="edge1" class="edge">
<title>WiredNetworkBase&#45;&gt;TsnNetworkBase</title>
<path fill="none" stroke="black" d="M1303.5,-109.75C1303.5,-99.87 1303.5,-83.9 1303.5,-74.09"/>
</g>
</g>
</svg>
