<?xml version="1.0" encoding="UTF-8" standalone="no"?>
<!DOCTYPE svg PUBLIC "-//W3C//DTD SVG 1.1//EN"
 "http://www.w3.org/Graphics/SVG/1.1/DTD/svg11.dtd">
<!-- Generated by graphviz version 2.43.0 (0)
 -->
<!-- Title: opp Pages: 1 -->
<svg width="278pt" height="82pt"
 viewBox="0.00 0.00 278.00 82.00" xmlns="http://www.w3.org/2000/svg" xmlns:xlink="http://www.w3.org/1999/xlink">
<g id="graph0" class="graph" transform="scale(1 1) rotate(0) translate(4 78)">
<title>opp</title>
<polygon fill="transparent" stroke="transparent" points="-4,4 -4,-78 274,-78 274,4 -4,4"/>
<!-- IPacketSink -->
<g id="node1" class="node">
<title>IPacketSink</title>
<g id="a_node1"><a xlink:href="inet.queueing.contract.IPacketSink.html" xlink:title="Module Interface IPacketSink" target="_parent">
<polygon fill="#fff700" stroke="black" stroke-dasharray="5,2" points="177,-74 105,-74 105,-55 177,-55 177,-74"/>
<text text-anchor="middle" x="141" y="-62" font-family="Helvetica,sans-Serif" font-size="10.00">IPacketSink</text>
</a>
</g>
</g>
<!-- FullPacketSink -->
<g id="node2" class="node">
<title>FullPacketSink</title>
<g id="a_node2"><a xlink:href="inet.queueing.sink.FullPacketSink.html" xlink:title="Simple Module FullPacketSink" target="_parent">
<polygon fill="#fffcaf" stroke="black" points="86,-19 0,-19 0,0 86,0 86,-19"/>
<text text-anchor="middle" x="43" y="-7" font-family="Helvetica,sans-Serif" font-size="10.00">FullPacketSink</text>
</a>
</g>
</g>
<!-- IPacketSink&#45;&gt;FullPacketSink -->
<g id="edge1" class="edge">
<title>IPacketSink&#45;&gt;FullPacketSink</title>
<path fill="none" stroke="black" stroke-dasharray="5,2" d="M125.25,-54.98C107.07,-45.15 77.33,-29.07 59.03,-19.17"/>
</g>
<!-- IPacketFlow -->
<g id="node3" class="node">
<title>IPacketFlow</title>
<g id="a_node3"><a xlink:href="inet.queueing.contract.IPacketFlow.html" xlink:title="Module Interface IPacketFlow" target="_parent">
<polygon fill="#fffcaf" stroke="black" stroke-dasharray="5,2" points="178,-19 104,-19 104,0 178,0 178,-19"/>
<text text-anchor="middle" x="141" y="-7" font-family="Helvetica,sans-Serif" font-size="10.00">IPacketFlow</text>
</a>
</g>
</g>
<!-- IPacketSink&#45;&gt;IPacketFlow -->
<g id="edge2" class="edge">
<title>IPacketSink&#45;&gt;IPacketFlow</title>
<path fill="none" stroke="black" d="M141,-54.75C141,-44.87 141,-28.9 141,-19.09"/>
</g>
<!-- IPacketGate -->
<g id="node4" class="node">
<title>IPacketGate</title>
<g id="a_node4"><a xlink:href="inet.queueing.contract.IPacketGate.html" xlink:title="Module Interface IPacketGate" target="_parent">
<polygon fill="#fffcaf" stroke="black" stroke-dasharray="5,2" points="270,-19 196,-19 196,0 270,0 270,-19"/>
<text text-anchor="middle" x="233" y="-7" font-family="Helvetica,sans-Serif" font-size="10.00">IPacketGate</text>
</a>
</g>
</g>
<!-- IPacketSink&#45;&gt;IPacketGate -->
<g id="edge3" class="edge">
<title>IPacketSink&#45;&gt;IPacketGate</title>
<path fill="none" stroke="black" d="M155.78,-54.98C172.85,-45.15 200.77,-29.07 217.95,-19.17"/>
</g>
</g>
</svg>
