<?xml version="1.0" encoding="UTF-8" standalone="no"?>
<!DOCTYPE svg PUBLIC "-//W3C//DTD SVG 1.1//EN"
 "http://www.w3.org/Graphics/SVG/1.1/DTD/svg11.dtd">
<!-- Generated by graphviz version 2.43.0 (0)
 -->
<!-- Title: opp Pages: 1 -->
<svg width="394pt" height="82pt"
 viewBox="0.00 0.00 394.00 82.00" xmlns="http://www.w3.org/2000/svg" xmlns:xlink="http://www.w3.org/1999/xlink">
<g id="graph0" class="graph" transform="scale(1 1) rotate(0) translate(4 78)">
<title>opp</title>
<polygon fill="transparent" stroke="transparent" points="-4,4 -4,-78 390,-78 390,4 -4,4"/>
<!-- QueueFillerTutorialStep -->
<g id="node1" class="node">
<title>QueueFillerTutorialStep</title>
<g id="a_node1"><a xlink:href="inet.tutorials.queueing.QueueFillerTutorialStep.html" xlink:title="Network QueueFillerTutorialStep" target="_parent">
<polygon fill="#9090ff" stroke="black" points="257,-74 127,-74 127,-55 257,-55 257,-74"/>
<text text-anchor="middle" x="192" y="-62" font-family="Helvetica,sans-Serif" font-size="10.00">QueueFillerTutorialStep</text>
</a>
</g>
</g>
<!-- PacketQueue -->
<g id="node2" class="node">
<title>PacketQueue</title>
<g id="a_node2"><a xlink:href="inet.queueing.queue.PacketQueue.html" xlink:title="Simple Module PacketQueue" target="_parent">
<polygon fill="#fffcaf" stroke="black" points="80,-19 0,-19 0,0 80,0 80,-19"/>
<text text-anchor="middle" x="40" y="-7" font-family="Helvetica,sans-Serif" font-size="10.00">PacketQueue</text>
</a>
</g>
</g>
<!-- QueueFillerTutorialStep&#45;&gt;PacketQueue -->
<g id="edge1" class="edge">
<title>QueueFillerTutorialStep&#45;&gt;PacketQueue</title>
<path fill="none" stroke="black" d="M167.58,-54.98C142.28,-46.16 102.55,-32.31 74.14,-22.41"/>
<polygon fill="black" stroke="black" points="75.21,-19.07 64.61,-19.08 72.9,-25.68 75.21,-19.07"/>
</g>
<!-- IdealChannel -->
<g id="node3" class="node">
<title>IdealChannel</title>
<g id="a_node3"><a xlink:href="ned.IdealChannel.html" xlink:title="Channel IdealChannel" target="_parent">
<polygon fill="#d0ffd0" stroke="black" points="178,-19 98,-19 98,0 178,0 178,-19"/>
<text text-anchor="middle" x="138" y="-7" font-family="Helvetica,sans-Serif" font-size="10.00">IdealChannel</text>
</a>
</g>
</g>
<!-- QueueFillerTutorialStep&#45;&gt;IdealChannel -->
<g id="edge2" class="edge">
<title>QueueFillerTutorialStep&#45;&gt;IdealChannel</title>
<path fill="none" stroke="black" d="M183.08,-54.75C175.22,-47.03 163.57,-35.6 154.08,-26.28"/>
<polygon fill="black" stroke="black" points="156.34,-23.6 146.75,-19.09 151.44,-28.59 156.34,-23.6"/>
</g>
<!-- ActivePacketSink -->
<g id="node4" class="node">
<title>ActivePacketSink</title>
<g id="a_node4"><a xlink:href="inet.queueing.sink.ActivePacketSink.html" xlink:title="Simple Module ActivePacketSink" target="_parent">
<polygon fill="#fffcaf" stroke="black" points="296,-19 196,-19 196,0 296,0 296,-19"/>
<text text-anchor="middle" x="246" y="-7" font-family="Helvetica,sans-Serif" font-size="10.00">ActivePacketSink</text>
</a>
</g>
</g>
<!-- QueueFillerTutorialStep&#45;&gt;ActivePacketSink -->
<g id="edge3" class="edge">
<title>QueueFillerTutorialStep&#45;&gt;ActivePacketSink</title>
<path fill="none" stroke="black" d="M200.92,-54.75C208.78,-47.03 220.43,-35.6 229.92,-26.28"/>
<polygon fill="black" stroke="black" points="232.56,-28.59 237.25,-19.09 227.66,-23.6 232.56,-28.59"/>
</g>
<!-- QueueFiller -->
<g id="node5" class="node">
<title>QueueFiller</title>
<g id="a_node5"><a xlink:href="inet.queueing.source.QueueFiller.html" xlink:title="Compound Module QueueFiller" target="_parent">
<polygon fill="#fffcaf" stroke="black" points="386,-19 314,-19 314,0 386,0 386,-19"/>
<text text-anchor="middle" x="350" y="-7" font-family="Helvetica,sans-Serif" font-size="10.00">QueueFiller</text>
</a>
</g>
</g>
<!-- QueueFillerTutorialStep&#45;&gt;QueueFiller -->
<g id="edge4" class="edge">
<title>QueueFillerTutorialStep&#45;&gt;QueueFiller</title>
<path fill="none" stroke="black" d="M217.39,-54.98C243.8,-46.13 285.35,-32.19 314.89,-22.28"/>
<polygon fill="black" stroke="black" points="316.05,-25.58 324.42,-19.08 313.82,-18.94 316.05,-25.58"/>
</g>
</g>
</svg>
