<?xml version="1.0" encoding="UTF-8" standalone="no"?>
<!DOCTYPE svg PUBLIC "-//W3C//DTD SVG 1.1//EN"
 "http://www.w3.org/Graphics/SVG/1.1/DTD/svg11.dtd">
<!-- Generated by graphviz version 2.43.0 (0)
 -->
<!-- Title: opp Pages: 1 -->
<svg width="645pt" height="82pt"
 viewBox="0.00 0.00 644.50 82.00" xmlns="http://www.w3.org/2000/svg" xmlns:xlink="http://www.w3.org/1999/xlink">
<g id="graph0" class="graph" transform="scale(1 1) rotate(0) translate(4 78)">
<title>opp</title>
<polygon fill="transparent" stroke="transparent" points="-4,4 -4,-78 640.5,-78 640.5,4 -4,4"/>
<!-- AODVNetwork -->
<g id="node1" class="node">
<title>AODVNetwork</title>
<g id="a_node1"><a xlink:href="inet.examples.aodv.AODVNetwork.html" xlink:title="Network AODVNetwork" target="_parent">
<polygon fill="#9090ff" stroke="black" points="398,-74 312,-74 312,-55 398,-55 398,-74"/>
<text text-anchor="middle" x="355" y="-62" font-family="Helvetica,sans-Serif" font-size="10.00">AODVNetwork</text>
</a>
</g>
</g>
<!-- UnitDiskRadioMedium -->
<g id="node2" class="node">
<title>UnitDiskRadioMedium</title>
<g id="a_node2"><a xlink:href="inet.physicallayer.wireless.unitdisk.UnitDiskRadioMedium.html" xlink:title="Compound Module UnitDiskRadioMedium" target="_parent">
<polygon fill="#fffcaf" stroke="black" points="126,-19 0,-19 0,0 126,0 126,-19"/>
<text text-anchor="middle" x="63" y="-7" font-family="Helvetica,sans-Serif" font-size="10.00">UnitDiskRadioMedium</text>
</a>
</g>
</g>
<!-- AODVNetwork&#45;&gt;UnitDiskRadioMedium -->
<g id="edge1" class="edge">
<title>AODVNetwork&#45;&gt;UnitDiskRadioMedium</title>
<path fill="none" stroke="black" d="M311.91,-55.68C261.14,-46.46 176.57,-31.11 120.3,-20.9"/>
<polygon fill="black" stroke="black" points="120.6,-17.4 110.14,-19.06 119.35,-24.29 120.6,-17.4"/>
</g>
<!-- RoutingTableRecorder -->
<g id="node3" class="node">
<title>RoutingTableRecorder</title>
<g id="a_node3"><a xlink:href="inet.networklayer.ipv4.RoutingTableRecorder.html" xlink:title="Simple Module RoutingTableRecorder" target="_parent">
<polygon fill="#fffcaf" stroke="black" points="267.5,-19 144.5,-19 144.5,0 267.5,0 267.5,-19"/>
<text text-anchor="middle" x="206" y="-7" font-family="Helvetica,sans-Serif" font-size="10.00">RoutingTableRecorder</text>
</a>
</g>
</g>
<!-- AODVNetwork&#45;&gt;RoutingTableRecorder -->
<g id="edge2" class="edge">
<title>AODVNetwork&#45;&gt;RoutingTableRecorder</title>
<path fill="none" stroke="black" d="M331.06,-54.98C306.44,-46.23 267.88,-32.51 240.08,-22.62"/>
<polygon fill="black" stroke="black" points="240.97,-19.22 230.38,-19.17 238.62,-25.82 240.97,-19.22"/>
</g>
<!-- Ipv4NetworkConfigurator -->
<g id="node4" class="node">
<title>Ipv4NetworkConfigurator</title>
<g id="a_node4"><a xlink:href="inet.networklayer.configurator.ipv4.Ipv4NetworkConfigurator.html" xlink:title="Simple Module Ipv4NetworkConfigurator" target="_parent">
<polygon fill="#fffcaf" stroke="black" points="424.5,-19 285.5,-19 285.5,0 424.5,0 424.5,-19"/>
<text text-anchor="middle" x="355" y="-7" font-family="Helvetica,sans-Serif" font-size="10.00">Ipv4NetworkConfigurator</text>
</a>
</g>
</g>
<!-- AODVNetwork&#45;&gt;Ipv4NetworkConfigurator -->
<g id="edge3" class="edge">
<title>AODVNetwork&#45;&gt;Ipv4NetworkConfigurator</title>
<path fill="none" stroke="black" d="M355,-54.75C355,-47.8 355,-37.85 355,-29.13"/>
<polygon fill="black" stroke="black" points="358.5,-29.09 355,-19.09 351.5,-29.09 358.5,-29.09"/>
</g>
<!-- AodvRouter -->
<g id="node5" class="node">
<title>AodvRouter</title>
<g id="a_node5"><a xlink:href="inet.node.aodv.AodvRouter.html" xlink:title="Compound Module AodvRouter" target="_parent">
<polygon fill="#fffcaf" stroke="black" points="517,-19 443,-19 443,0 517,0 517,-19"/>
<text text-anchor="middle" x="480" y="-7" font-family="Helvetica,sans-Serif" font-size="10.00">AodvRouter</text>
</a>
</g>
</g>
<!-- AODVNetwork&#45;&gt;AodvRouter -->
<g id="edge4" class="edge">
<title>AODVNetwork&#45;&gt;AodvRouter</title>
<path fill="none" stroke="black" d="M375.08,-54.98C395.37,-46.38 426.96,-32.99 450.17,-23.15"/>
<polygon fill="black" stroke="black" points="451.71,-26.3 459.55,-19.17 448.98,-19.85 451.71,-26.3"/>
</g>
<!-- ScenarioManager -->
<g id="node6" class="node">
<title>ScenarioManager</title>
<g id="a_node6"><a xlink:href="inet.common.scenario.ScenarioManager.html" xlink:title="Simple Module ScenarioManager" target="_parent">
<polygon fill="#fffcaf" stroke="black" points="636.5,-19 535.5,-19 535.5,0 636.5,0 636.5,-19"/>
<text text-anchor="middle" x="586" y="-7" font-family="Helvetica,sans-Serif" font-size="10.00">ScenarioManager</text>
</a>
</g>
</g>
<!-- AODVNetwork&#45;&gt;ScenarioManager -->
<g id="edge5" class="edge">
<title>AODVNetwork&#45;&gt;ScenarioManager</title>
<path fill="none" stroke="black" d="M392.11,-54.98C431.99,-45.84 495.46,-31.27 538.84,-21.32"/>
<polygon fill="black" stroke="black" points="539.63,-24.73 548.59,-19.08 538.07,-17.91 539.63,-24.73"/>
</g>
</g>
</svg>
