<?xml version="1.0" encoding="UTF-8" standalone="no"?>
<!DOCTYPE svg PUBLIC "-//W3C//DTD SVG 1.1//EN"
 "http://www.w3.org/Graphics/SVG/1.1/DTD/svg11.dtd">
<!-- Generated by graphviz version 2.43.0 (0)
 -->
<!-- Title: opp Pages: 1 -->
<svg width="440pt" height="82pt"
 viewBox="0.00 0.00 439.50 82.00" xmlns="http://www.w3.org/2000/svg" xmlns:xlink="http://www.w3.org/1999/xlink">
<g id="graph0" class="graph" transform="scale(1 1) rotate(0) translate(4 78)">
<title>opp</title>
<polygon fill="transparent" stroke="transparent" points="-4,4 -4,-78 435.5,-78 435.5,4 -4,4"/>
<!-- ClientServerWithSM -->
<g id="node1" class="node">
<title>ClientServerWithSM</title>
<g id="a_node1"><a xlink:href="inet.examples.inet.tcp_ppp_reconnect.ClientServerWithSM.html" xlink:title="Network ClientServerWithSM" target="_parent">
<polygon fill="#9090ff" stroke="black" points="235,-74 121,-74 121,-55 235,-55 235,-74"/>
<text text-anchor="middle" x="178" y="-62" font-family="Helvetica,sans-Serif" font-size="10.00">ClientServerWithSM</text>
</a>
</g>
</g>
<!-- C -->
<g id="node2" class="node">
<title>C</title>
<g id="a_node2"><a xlink:href="inet.examples.inet.tcp_ppp_reconnect.ClientServerWithSM.C.html" xlink:title="Channel C" target="_parent">
<polygon fill="#d0ffd0" stroke="black" points="54,-19 0,-19 0,0 54,0 54,-19"/>
<text text-anchor="middle" x="27" y="-7" font-family="Helvetica,sans-Serif" font-size="10.00">C</text>
</a>
</g>
</g>
<!-- ClientServerWithSM&#45;&gt;C -->
<g id="edge1" class="edge">
<title>ClientServerWithSM&#45;&gt;C</title>
<path fill="none" stroke="black" d="M153.74,-54.98C128.68,-46.19 89.37,-32.39 61.17,-22.49"/>
<polygon fill="black" stroke="black" points="62.3,-19.18 51.7,-19.17 59.98,-25.78 62.3,-19.18"/>
</g>
<!-- StandardHost -->
<g id="node3" class="node">
<title>StandardHost</title>
<g id="a_node3"><a xlink:href="inet.node.inet.StandardHost.html" xlink:title="Compound Module StandardHost" target="_parent">
<polygon fill="#fffcaf" stroke="black" points="155.5,-19 72.5,-19 72.5,0 155.5,0 155.5,-19"/>
<text text-anchor="middle" x="114" y="-7" font-family="Helvetica,sans-Serif" font-size="10.00">StandardHost</text>
</a>
</g>
</g>
<!-- ClientServerWithSM&#45;&gt;StandardHost -->
<g id="edge2" class="edge">
<title>ClientServerWithSM&#45;&gt;StandardHost</title>
<path fill="none" stroke="black" d="M167.72,-54.98C158.16,-47.07 143.72,-35.11 132.22,-25.58"/>
<polygon fill="black" stroke="black" points="134.4,-22.85 124.47,-19.17 129.94,-28.24 134.4,-22.85"/>
</g>
<!-- Ipv4NetworkConfigurator -->
<g id="node4" class="node">
<title>Ipv4NetworkConfigurator</title>
<g id="a_node4"><a xlink:href="inet.networklayer.configurator.ipv4.Ipv4NetworkConfigurator.html" xlink:title="Simple Module Ipv4NetworkConfigurator" target="_parent">
<polygon fill="#fffcaf" stroke="black" points="312.5,-19 173.5,-19 173.5,0 312.5,0 312.5,-19"/>
<text text-anchor="middle" x="243" y="-7" font-family="Helvetica,sans-Serif" font-size="10.00">Ipv4NetworkConfigurator</text>
</a>
</g>
</g>
<!-- ClientServerWithSM&#45;&gt;Ipv4NetworkConfigurator -->
<g id="edge3" class="edge">
<title>ClientServerWithSM&#45;&gt;Ipv4NetworkConfigurator</title>
<path fill="none" stroke="black" d="M188.44,-54.98C198.15,-47.07 212.82,-35.11 224.5,-25.58"/>
<polygon fill="black" stroke="black" points="226.83,-28.2 232.37,-19.17 222.4,-22.78 226.83,-28.2"/>
</g>
<!-- ScenarioManager -->
<g id="node5" class="node">
<title>ScenarioManager</title>
<g id="a_node5"><a xlink:href="inet.common.scenario.ScenarioManager.html" xlink:title="Simple Module ScenarioManager" target="_parent">
<polygon fill="#fffcaf" stroke="black" points="431.5,-19 330.5,-19 330.5,0 431.5,0 431.5,-19"/>
<text text-anchor="middle" x="381" y="-7" font-family="Helvetica,sans-Serif" font-size="10.00">ScenarioManager</text>
</a>
</g>
</g>
<!-- ClientServerWithSM&#45;&gt;ScenarioManager -->
<g id="edge4" class="edge">
<title>ClientServerWithSM&#45;&gt;ScenarioManager</title>
<path fill="none" stroke="black" d="M210.62,-54.98C245.29,-45.93 300.26,-31.58 338.35,-21.64"/>
<polygon fill="black" stroke="black" points="339.34,-24.99 348.13,-19.08 337.57,-18.22 339.34,-24.99"/>
</g>
</g>
</svg>
