<?xml version="1.0" encoding="UTF-8" standalone="no"?>
<!DOCTYPE svg PUBLIC "-//W3C//DTD SVG 1.1//EN"
 "http://www.w3.org/Graphics/SVG/1.1/DTD/svg11.dtd">
<!-- Generated by graphviz version 2.43.0 (0)
 -->
<!-- Title: opp Pages: 1 -->
<svg width="369pt" height="82pt"
 viewBox="0.00 0.00 368.50 82.00" xmlns="http://www.w3.org/2000/svg" xmlns:xlink="http://www.w3.org/1999/xlink">
<g id="graph0" class="graph" transform="scale(1 1) rotate(0) translate(4 78)">
<title>opp</title>
<polygon fill="transparent" stroke="transparent" points="-4,4 -4,-78 364.5,-78 364.5,4 -4,4"/>
<!-- IRoutingTable -->
<g id="node1" class="node">
<title>IRoutingTable</title>
<g id="a_node1"><a xlink:href="inet.networklayer.contract.IRoutingTable.html" xlink:title="Module Interface IRoutingTable" target="_parent">
<polygon fill="#fff700" stroke="black" stroke-dasharray="5,2" points="211,-74 128,-74 128,-55 211,-55 211,-74"/>
<text text-anchor="middle" x="169.5" y="-62" font-family="Helvetica,sans-Serif" font-size="10.00">IRoutingTable</text>
</a>
</g>
</g>
<!-- Ipv4RoutingTable -->
<g id="node2" class="node">
<title>Ipv4RoutingTable</title>
<g id="a_node2"><a xlink:href="inet.networklayer.ipv4.Ipv4RoutingTable.html" xlink:title="Simple Module Ipv4RoutingTable" target="_parent">
<polygon fill="#fffcaf" stroke="black" points="101,-19 0,-19 0,0 101,0 101,-19"/>
<text text-anchor="middle" x="50.5" y="-7" font-family="Helvetica,sans-Serif" font-size="10.00">Ipv4RoutingTable</text>
</a>
</g>
</g>
<!-- IRoutingTable&#45;&gt;Ipv4RoutingTable -->
<g id="edge1" class="edge">
<title>IRoutingTable&#45;&gt;Ipv4RoutingTable</title>
<path fill="none" stroke="black" stroke-dasharray="5,2" d="M150.38,-54.98C128.31,-45.15 92.19,-29.07 69.97,-19.17"/>
</g>
<!-- Ipv6RoutingTable -->
<g id="node3" class="node">
<title>Ipv6RoutingTable</title>
<g id="a_node3"><a xlink:href="inet.networklayer.ipv6.Ipv6RoutingTable.html" xlink:title="Simple Module Ipv6RoutingTable" target="_parent">
<polygon fill="#fffcaf" stroke="black" points="220,-19 119,-19 119,0 220,0 220,-19"/>
<text text-anchor="middle" x="169.5" y="-7" font-family="Helvetica,sans-Serif" font-size="10.00">Ipv6RoutingTable</text>
</a>
</g>
</g>
<!-- IRoutingTable&#45;&gt;Ipv6RoutingTable -->
<g id="edge2" class="edge">
<title>IRoutingTable&#45;&gt;Ipv6RoutingTable</title>
<path fill="none" stroke="black" stroke-dasharray="5,2" d="M169.5,-54.75C169.5,-44.87 169.5,-28.9 169.5,-19.09"/>
</g>
<!-- NextHopRoutingTable -->
<g id="node4" class="node">
<title>NextHopRoutingTable</title>
<g id="a_node4"><a xlink:href="inet.networklayer.nexthop.NextHopRoutingTable.html" xlink:title="Simple Module NextHopRoutingTable" target="_parent">
<polygon fill="#fffcaf" stroke="black" points="360.5,-19 238.5,-19 238.5,0 360.5,0 360.5,-19"/>
<text text-anchor="middle" x="299.5" y="-7" font-family="Helvetica,sans-Serif" font-size="10.00">NextHopRoutingTable</text>
</a>
</g>
</g>
<!-- IRoutingTable&#45;&gt;NextHopRoutingTable -->
<g id="edge3" class="edge">
<title>IRoutingTable&#45;&gt;NextHopRoutingTable</title>
<path fill="none" stroke="black" stroke-dasharray="5,2" d="M190.39,-54.98C214.5,-45.15 253.96,-29.07 278.23,-19.17"/>
</g>
</g>
</svg>
