<?xml version="1.0" encoding="UTF-8" standalone="no"?>
<!DOCTYPE svg PUBLIC "-//W3C//DTD SVG 1.1//EN"
 "http://www.w3.org/Graphics/SVG/1.1/DTD/svg11.dtd">
<!-- Generated by graphviz version 2.43.0 (0)
 -->
<!-- Title: opp Pages: 1 -->
<svg width="306pt" height="82pt"
 viewBox="0.00 0.00 305.50 82.00" xmlns="http://www.w3.org/2000/svg" xmlns:xlink="http://www.w3.org/1999/xlink">
<g id="graph0" class="graph" transform="scale(1 1) rotate(0) translate(4 78)">
<title>opp</title>
<polygon fill="transparent" stroke="transparent" points="-4,4 -4,-78 301.5,-78 301.5,4 -4,4"/>
<!-- Ieee8021rLayer -->
<g id="node1" class="node">
<title>Ieee8021rLayer</title>
<g id="a_node1"><a xlink:href="inet.linklayer.ieee8021r.Ieee8021rLayer.html" xlink:title="Compound Module Ieee8021rLayer" target="_parent">
<polygon fill="#fff700" stroke="black" points="199.5,-74 107.5,-74 107.5,-55 199.5,-55 199.5,-74"/>
<text text-anchor="middle" x="153.5" y="-62" font-family="Helvetica,sans-Serif" font-size="10.00">Ieee8021rLayer</text>
</a>
</g>
</g>
<!-- IIeee8021rLayer -->
<g id="node2" class="node">
<title>IIeee8021rLayer</title>
<g id="a_node2"><a xlink:href="inet.linklayer.ieee8021r.IIeee8021rLayer.html" xlink:title="Module Interface IIeee8021rLayer" target="_parent">
<polygon fill="#fffcaf" stroke="black" stroke-dasharray="5,2" points="95,-19 0,-19 0,0 95,0 95,-19"/>
<text text-anchor="middle" x="47.5" y="-7" font-family="Helvetica,sans-Serif" font-size="10.00">IIeee8021rLayer</text>
</a>
</g>
</g>
<!-- Ieee8021rLayer&#45;&gt;IIeee8021rLayer -->
<g id="edge1" class="edge">
<title>Ieee8021rLayer&#45;&gt;IIeee8021rLayer</title>
<path fill="none" stroke="black" d="M136.47,-54.98C119.57,-46.54 93.44,-33.47 73.86,-23.68"/>
<polygon fill="black" stroke="black" points="75.35,-20.51 64.84,-19.17 72.22,-26.77 75.35,-20.51"/>
</g>
<!-- IdealChannel -->
<g id="node3" class="node">
<title>IdealChannel</title>
<g id="a_node3"><a xlink:href="ned.IdealChannel.html" xlink:title="Channel IdealChannel" target="_parent">
<polygon fill="#d0ffd0" stroke="black" points="193.5,-19 113.5,-19 113.5,0 193.5,0 193.5,-19"/>
<text text-anchor="middle" x="153.5" y="-7" font-family="Helvetica,sans-Serif" font-size="10.00">IdealChannel</text>
</a>
</g>
</g>
<!-- Ieee8021rLayer&#45;&gt;IdealChannel -->
<g id="edge2" class="edge">
<title>Ieee8021rLayer&#45;&gt;IdealChannel</title>
<path fill="none" stroke="black" d="M153.5,-54.75C153.5,-47.8 153.5,-37.85 153.5,-29.13"/>
<polygon fill="black" stroke="black" points="157,-29.09 153.5,-19.09 150,-29.09 157,-29.09"/>
</g>
<!-- IProtocolLayer -->
<g id="node4" class="node">
<title>IProtocolLayer</title>
<g id="a_node4"><a xlink:href="inet.protocolelement.contract.IProtocolLayer.html" xlink:title="Module Interface IProtocolLayer" target="_parent">
<polygon fill="#fffcaf" stroke="black" stroke-dasharray="5,2" points="297.5,-19 211.5,-19 211.5,0 297.5,0 297.5,-19"/>
<text text-anchor="middle" x="254.5" y="-7" font-family="Helvetica,sans-Serif" font-size="10.00">IProtocolLayer</text>
</a>
</g>
</g>
<!-- Ieee8021rLayer&#45;&gt;IProtocolLayer -->
<g id="edge3" class="edge">
<title>Ieee8021rLayer&#45;&gt;IProtocolLayer</title>
<path fill="none" stroke="black" d="M169.73,-54.98C185.68,-46.61 210.28,-33.7 228.88,-23.95"/>
<polygon fill="black" stroke="black" points="230.75,-26.92 237.98,-19.17 227.5,-20.72 230.75,-26.92"/>
</g>
</g>
</svg>
