<?xml version="1.0" encoding="UTF-8" standalone="no"?>
<!DOCTYPE svg PUBLIC "-//W3C//DTD SVG 1.1//EN"
 "http://www.w3.org/Graphics/SVG/1.1/DTD/svg11.dtd">
<!-- Generated by graphviz version 2.43.0 (0)
 -->
<!-- Title: opp Pages: 1 -->
<svg width="759pt" height="137pt"
 viewBox="0.00 0.00 758.50 137.00" xmlns="http://www.w3.org/2000/svg" xmlns:xlink="http://www.w3.org/1999/xlink">
<g id="graph0" class="graph" transform="scale(1 1) rotate(0) translate(4 133)">
<title>opp</title>
<polygon fill="transparent" stroke="transparent" points="-4,4 -4,-133 754.5,-133 754.5,4 -4,4"/>
<!-- StandardHost -->
<g id="node1" class="node">
<title>StandardHost</title>
<g id="a_node1"><a xlink:href="inet.node.inet.StandardHost.html" xlink:title="Compound Module StandardHost" target="_parent">
<polygon fill="#fff700" stroke="black" points="412.5,-74 329.5,-74 329.5,-55 412.5,-55 412.5,-74"/>
<text text-anchor="middle" x="371" y="-62" font-family="Helvetica,sans-Serif" font-size="10.00">StandardHost</text>
</a>
</g>
</g>
<!-- GptpEndstation -->
<g id="node3" class="node">
<title>GptpEndstation</title>
<g id="a_node3"><a xlink:href="inet.linklayer.ieee8021as.GptpEndstation.html" xlink:title="Compound Module GptpEndstation" target="_parent">
<polygon fill="#fffcaf" stroke="black" points="92,-19 0,-19 0,0 92,0 92,-19"/>
<text text-anchor="middle" x="46" y="-7" font-family="Helvetica,sans-Serif" font-size="10.00">GptpEndstation</text>
</a>
</g>
</g>
<!-- StandardHost&#45;&gt;GptpEndstation -->
<g id="edge2" class="edge">
<title>StandardHost&#45;&gt;GptpEndstation</title>
<path fill="none" stroke="black" d="M329.18,-56.68C268.23,-46.74 155.4,-28.34 92.12,-18.02"/>
</g>
<!-- MyHost -->
<g id="node4" class="node">
<title>MyHost</title>
<g id="a_node4"><a xlink:href="inet.examples.inet.ipv4hook.MyHost.html" xlink:title="Compound Module MyHost" target="_parent">
<polygon fill="#fffcaf" stroke="black" points="164,-19 110,-19 110,0 164,0 164,-19"/>
<text text-anchor="middle" x="137" y="-7" font-family="Helvetica,sans-Serif" font-size="10.00">MyHost</text>
</a>
</g>
</g>
<!-- StandardHost&#45;&gt;MyHost -->
<g id="edge3" class="edge">
<title>StandardHost&#45;&gt;MyHost</title>
<path fill="none" stroke="black" d="M332.27,-54.93C292.34,-46.05 228.28,-31.74 173,-19 170.12,-18.34 167.11,-17.64 164.12,-16.94"/>
</g>
<!-- MyStandardHost -->
<g id="node5" class="node">
<title>MyStandardHost</title>
<g id="a_node5"><a xlink:href="inet.showcases.measurement.flow.MyStandardHost.html" xlink:title="Compound Module MyStandardHost" target="_parent">
<polygon fill="#fffcaf" stroke="black" points="280,-19 182,-19 182,0 280,0 280,-19"/>
<text text-anchor="middle" x="231" y="-7" font-family="Helvetica,sans-Serif" font-size="10.00">MyStandardHost</text>
</a>
</g>
</g>
<!-- StandardHost&#45;&gt;MyStandardHost -->
<g id="edge4" class="edge">
<title>StandardHost&#45;&gt;MyStandardHost</title>
<path fill="none" stroke="black" d="M348.51,-54.98C322.54,-45.15 280.05,-29.07 253.9,-19.17"/>
</g>
<!-- RtpHost -->
<g id="node6" class="node">
<title>RtpHost</title>
<g id="a_node6"><a xlink:href="inet.node.rtp.RtpHost.html" xlink:title="Compound Module RtpHost" target="_parent">
<polygon fill="#fffcaf" stroke="black" points="354,-19 298,-19 298,0 354,0 354,-19"/>
<text text-anchor="middle" x="326" y="-7" font-family="Helvetica,sans-Serif" font-size="10.00">RtpHost</text>
</a>
</g>
</g>
<!-- StandardHost&#45;&gt;RtpHost -->
<g id="edge5" class="edge">
<title>StandardHost&#45;&gt;RtpHost</title>
<path fill="none" stroke="black" d="M363.57,-54.75C355.18,-44.87 341.62,-28.9 333.29,-19.09"/>
</g>
<!-- SctpNatRouter -->
<g id="node7" class="node">
<title>SctpNatRouter</title>
<g id="a_node7"><a xlink:href="inet.transportlayer.sctp.SctpNatRouter.html" xlink:title="Compound Module SctpNatRouter" target="_parent">
<polygon fill="#fffcaf" stroke="black" points="459.5,-19 372.5,-19 372.5,0 459.5,0 459.5,-19"/>
<text text-anchor="middle" x="416" y="-7" font-family="Helvetica,sans-Serif" font-size="10.00">SctpNatRouter</text>
</a>
</g>
</g>
<!-- StandardHost&#45;&gt;SctpNatRouter -->
<g id="edge6" class="edge">
<title>StandardHost&#45;&gt;SctpNatRouter</title>
<path fill="none" stroke="black" d="M378.43,-54.75C386.82,-44.87 400.38,-28.9 408.71,-19.09"/>
</g>
<!-- StandardHost6 -->
<g id="node8" class="node">
<title>StandardHost6</title>
<g id="a_node8"><a xlink:href="inet.node.ipv6.StandardHost6.html" xlink:title="Compound Module StandardHost6" target="_parent">
<polygon fill="#fffcaf" stroke="black" points="566.5,-19 477.5,-19 477.5,0 566.5,0 566.5,-19"/>
<text text-anchor="middle" x="522" y="-7" font-family="Helvetica,sans-Serif" font-size="10.00">StandardHost6</text>
</a>
</g>
</g>
<!-- StandardHost&#45;&gt;StandardHost6 -->
<g id="edge7" class="edge">
<title>StandardHost&#45;&gt;StandardHost6</title>
<path fill="none" stroke="black" d="M395.26,-54.98C423.27,-45.15 469.1,-29.07 497.3,-19.17"/>
</g>
<!-- TsnDevice -->
<g id="node9" class="node">
<title>TsnDevice</title>
<g id="a_node9"><a xlink:href="inet.node.tsn.TsnDevice.html" xlink:title="Compound Module TsnDevice" target="_parent">
<polygon fill="#fffcaf" stroke="black" points="651,-19 585,-19 585,0 651,0 651,-19"/>
<text text-anchor="middle" x="618" y="-7" font-family="Helvetica,sans-Serif" font-size="10.00">TsnDevice</text>
</a>
</g>
</g>
<!-- StandardHost&#45;&gt;TsnDevice -->
<g id="edge8" class="edge">
<title>StandardHost&#45;&gt;TsnDevice</title>
<path fill="none" stroke="black" d="M410.68,-54.98C458.96,-44.63 539.58,-27.33 584.75,-17.63"/>
</g>
<!-- WirelessHost -->
<g id="node10" class="node">
<title>WirelessHost</title>
<g id="a_node10"><a xlink:href="inet.node.inet.WirelessHost.html" xlink:title="Compound Module WirelessHost" target="_parent">
<polygon fill="#fffcaf" stroke="black" points="750.5,-19 669.5,-19 669.5,0 750.5,0 750.5,-19"/>
<text text-anchor="middle" x="710" y="-7" font-family="Helvetica,sans-Serif" font-size="10.00">WirelessHost</text>
</a>
</g>
</g>
<!-- StandardHost&#45;&gt;WirelessHost -->
<g id="edge9" class="edge">
<title>StandardHost&#45;&gt;WirelessHost</title>
<path fill="none" stroke="black" d="M412.67,-57.29C468.87,-48.87 572.05,-33.25 660,-19 663.04,-18.51 666.19,-17.99 669.35,-17.47"/>
</g>
<!-- ApplicationLayerNodeBase -->
<g id="node2" class="node">
<title>ApplicationLayerNodeBase</title>
<g id="a_node2"><a xlink:href="inet.node.base.ApplicationLayerNodeBase.html" xlink:title="Compound Module ApplicationLayerNodeBase" target="_parent">
<polygon fill="#fffcaf" stroke="black" points="445,-129 297,-129 297,-110 445,-110 445,-129"/>
<text text-anchor="middle" x="371" y="-117" font-family="Helvetica,sans-Serif" font-size="10.00">ApplicationLayerNodeBase</text>
</a>
</g>
</g>
<!-- ApplicationLayerNodeBase&#45;&gt;StandardHost -->
<g id="edge1" class="edge">
<title>ApplicationLayerNodeBase&#45;&gt;StandardHost</title>
<path fill="none" stroke="black" d="M371,-109.75C371,-99.87 371,-83.9 371,-74.09"/>
</g>
</g>
</svg>
