<?xml version="1.0" encoding="UTF-8" standalone="no"?>
<!DOCTYPE svg PUBLIC "-//W3C//DTD SVG 1.1//EN"
 "http://www.w3.org/Graphics/SVG/1.1/DTD/svg11.dtd">
<!-- Generated by graphviz version 2.43.0 (0)
 -->
<!-- Title: opp Pages: 1 -->
<svg width="303pt" height="82pt"
 viewBox="0.00 0.00 302.50 82.00" xmlns="http://www.w3.org/2000/svg" xmlns:xlink="http://www.w3.org/1999/xlink">
<g id="graph0" class="graph" transform="scale(1 1) rotate(0) translate(4 78)">
<title>opp</title>
<polygon fill="transparent" stroke="transparent" points="-4,4 -4,-78 298.5,-78 298.5,4 -4,4"/>
<!-- RouterPerfNetwork -->
<g id="node1" class="node">
<title>RouterPerfNetwork</title>
<g id="a_node1"><a xlink:href="inet.examples.inet.routerperf.RouterPerfNetwork.html" xlink:title="Network RouterPerfNetwork" target="_parent">
<polygon fill="#9090ff" stroke="black" points="207.5,-74 97.5,-74 97.5,-55 207.5,-55 207.5,-74"/>
<text text-anchor="middle" x="152.5" y="-62" font-family="Helvetica,sans-Serif" font-size="10.00">RouterPerfNetwork</text>
</a>
</g>
</g>
<!-- BurstHost -->
<g id="node2" class="node">
<title>BurstHost</title>
<g id="a_node2"><a xlink:href="inet.examples.inet.routerperf.BurstHost.html" xlink:title="Compound Module BurstHost" target="_parent">
<polygon fill="#fffcaf" stroke="black" points="65,-19 0,-19 0,0 65,0 65,-19"/>
<text text-anchor="middle" x="32.5" y="-7" font-family="Helvetica,sans-Serif" font-size="10.00">BurstHost</text>
</a>
</g>
</g>
<!-- RouterPerfNetwork&#45;&gt;BurstHost -->
<g id="edge1" class="edge">
<title>RouterPerfNetwork&#45;&gt;BurstHost</title>
<path fill="none" stroke="black" d="M133.22,-54.98C113.83,-46.42 83.69,-33.11 61.43,-23.28"/>
<polygon fill="black" stroke="black" points="62.69,-20.01 52.13,-19.17 59.86,-26.41 62.69,-20.01"/>
</g>
<!-- Ipv4NetworkConfigurator -->
<g id="node3" class="node">
<title>Ipv4NetworkConfigurator</title>
<g id="a_node3"><a xlink:href="inet.networklayer.configurator.ipv4.Ipv4NetworkConfigurator.html" xlink:title="Simple Module Ipv4NetworkConfigurator" target="_parent">
<polygon fill="#fffcaf" stroke="black" points="222,-19 83,-19 83,0 222,0 222,-19"/>
<text text-anchor="middle" x="152.5" y="-7" font-family="Helvetica,sans-Serif" font-size="10.00">Ipv4NetworkConfigurator</text>
</a>
</g>
</g>
<!-- RouterPerfNetwork&#45;&gt;Ipv4NetworkConfigurator -->
<g id="edge2" class="edge">
<title>RouterPerfNetwork&#45;&gt;Ipv4NetworkConfigurator</title>
<path fill="none" stroke="black" d="M152.5,-54.75C152.5,-47.8 152.5,-37.85 152.5,-29.13"/>
<polygon fill="black" stroke="black" points="156,-29.09 152.5,-19.09 149,-29.09 156,-29.09"/>
</g>
<!-- Router -->
<g id="node4" class="node">
<title>Router</title>
<g id="a_node4"><a xlink:href="inet.node.inet.Router.html" xlink:title="Compound Module Router" target="_parent">
<polygon fill="#fffcaf" stroke="black" points="294.5,-19 240.5,-19 240.5,0 294.5,0 294.5,-19"/>
<text text-anchor="middle" x="267.5" y="-7" font-family="Helvetica,sans-Serif" font-size="10.00">Router</text>
</a>
</g>
</g>
<!-- RouterPerfNetwork&#45;&gt;Router -->
<g id="edge3" class="edge">
<title>RouterPerfNetwork&#45;&gt;Router</title>
<path fill="none" stroke="black" d="M170.98,-54.98C189.48,-46.46 218.18,-33.23 239.48,-23.41"/>
<polygon fill="black" stroke="black" points="241.07,-26.53 248.69,-19.17 238.14,-20.18 241.07,-26.53"/>
</g>
</g>
</svg>
