<?xml version="1.0" encoding="UTF-8" standalone="no"?>
<!DOCTYPE svg PUBLIC "-//W3C//DTD SVG 1.1//EN"
 "http://www.w3.org/Graphics/SVG/1.1/DTD/svg11.dtd">
<!-- Generated by graphviz version 2.43.0 (0)
 -->
<!-- Title: opp Pages: 1 -->
<svg width="340pt" height="137pt"
 viewBox="0.00 0.00 340.00 137.00" xmlns="http://www.w3.org/2000/svg" xmlns:xlink="http://www.w3.org/1999/xlink">
<g id="graph0" class="graph" transform="scale(1 1) rotate(0) translate(4 133)">
<title>opp</title>
<polygon fill="transparent" stroke="transparent" points="-4,4 -4,-133 336,-133 336,4 -4,4"/>
<!-- ClientHost2 -->
<g id="node1" class="node">
<title>ClientHost2</title>
<g id="a_node1"><a xlink:href="inet.tutorials.protocol.ClientHost2.html" xlink:title="Compound Module ClientHost2" target="_parent">
<polygon fill="#fff700" stroke="black" points="199,-74 125,-74 125,-55 199,-55 199,-74"/>
<text text-anchor="middle" x="162" y="-62" font-family="Helvetica,sans-Serif" font-size="10.00">ClientHost2</text>
</a>
</g>
</g>
<!-- PacketTransmitter -->
<g id="node2" class="node">
<title>PacketTransmitter</title>
<g id="a_node2"><a xlink:href="inet.protocolelement.transceiver.PacketTransmitter.html" xlink:title="Simple Module PacketTransmitter" target="_parent">
<polygon fill="#fffcaf" stroke="black" points="104,-19 0,-19 0,0 104,0 104,-19"/>
<text text-anchor="middle" x="52" y="-7" font-family="Helvetica,sans-Serif" font-size="10.00">PacketTransmitter</text>
</a>
</g>
</g>
<!-- ClientHost2&#45;&gt;PacketTransmitter -->
<g id="edge1" class="edge">
<title>ClientHost2&#45;&gt;PacketTransmitter</title>
<path fill="none" stroke="black" d="M144.33,-54.98C126.71,-46.5 99.42,-33.35 79.07,-23.54"/>
<polygon fill="black" stroke="black" points="80.52,-20.36 69.99,-19.17 77.48,-26.66 80.52,-20.36"/>
</g>
<!-- IdealChannel -->
<g id="node3" class="node">
<title>IdealChannel</title>
<g id="a_node3"><a xlink:href="ned.IdealChannel.html" xlink:title="Channel IdealChannel" target="_parent">
<polygon fill="#d0ffd0" stroke="black" points="202,-19 122,-19 122,0 202,0 202,-19"/>
<text text-anchor="middle" x="162" y="-7" font-family="Helvetica,sans-Serif" font-size="10.00">IdealChannel</text>
</a>
</g>
</g>
<!-- ClientHost2&#45;&gt;IdealChannel -->
<g id="edge2" class="edge">
<title>ClientHost2&#45;&gt;IdealChannel</title>
<path fill="none" stroke="black" d="M162,-54.75C162,-47.8 162,-37.85 162,-29.13"/>
<polygon fill="black" stroke="black" points="165.5,-29.09 162,-19.09 158.5,-29.09 165.5,-29.09"/>
</g>
<!-- ActivePacketSource -->
<g id="node4" class="node">
<title>ActivePacketSource</title>
<g id="a_node4"><a xlink:href="inet.queueing.source.ActivePacketSource.html" xlink:title="Simple Module ActivePacketSource" target="_parent">
<polygon fill="#fffcaf" stroke="black" points="332,-19 220,-19 220,0 332,0 332,-19"/>
<text text-anchor="middle" x="276" y="-7" font-family="Helvetica,sans-Serif" font-size="10.00">ActivePacketSource</text>
</a>
</g>
</g>
<!-- ClientHost2&#45;&gt;ActivePacketSource -->
<g id="edge3" class="edge">
<title>ClientHost2&#45;&gt;ActivePacketSource</title>
<path fill="none" stroke="black" d="M180.32,-54.98C198.66,-46.46 227.11,-33.23 248.23,-23.41"/>
<polygon fill="black" stroke="black" points="249.76,-26.56 257.35,-19.17 246.81,-20.21 249.76,-26.56"/>
</g>
<!-- Network2 -->
<g id="node5" class="node">
<title>Network2</title>
<g id="a_node5"><a xlink:href="inet.tutorials.protocol.Network2.html" xlink:title="Network Network2" target="_parent">
<polygon fill="#d0d0ff" stroke="black" points="194,-129 130,-129 130,-110 194,-110 194,-129"/>
<text text-anchor="middle" x="162" y="-117" font-family="Helvetica,sans-Serif" font-size="10.00">Network2</text>
</a>
</g>
</g>
<!-- Network2&#45;&gt;ClientHost2 -->
<g id="edge4" class="edge">
<title>Network2&#45;&gt;ClientHost2</title>
<path fill="none" stroke="black" d="M162,-109.75C162,-102.8 162,-92.85 162,-84.13"/>
<polygon fill="black" stroke="black" points="165.5,-84.09 162,-74.09 158.5,-84.09 165.5,-84.09"/>
</g>
</g>
</svg>
