<?xml version="1.0" encoding="UTF-8" standalone="no"?>
<!DOCTYPE svg PUBLIC "-//W3C//DTD SVG 1.1//EN"
 "http://www.w3.org/Graphics/SVG/1.1/DTD/svg11.dtd">
<!-- Generated by graphviz version 2.43.0 (0)
 -->
<!-- Title: opp Pages: 1 -->
<svg width="300pt" height="82pt"
 viewBox="0.00 0.00 300.00 82.00" xmlns="http://www.w3.org/2000/svg" xmlns:xlink="http://www.w3.org/1999/xlink">
<g id="graph0" class="graph" transform="scale(1 1) rotate(0) translate(4 78)">
<title>opp</title>
<polygon fill="transparent" stroke="transparent" points="-4,4 -4,-78 296,-78 296,4 -4,4"/>
<!-- IPacketFlowVisualizer -->
<g id="node1" class="node">
<title>IPacketFlowVisualizer</title>
<g id="a_node1"><a xlink:href="inet.visualizer.contract.IPacketFlowVisualizer.html" xlink:title="Module Interface IPacketFlowVisualizer" target="_parent">
<polygon fill="#fff700" stroke="black" stroke-dasharray="5,2" points="215.5,-74 93.5,-74 93.5,-55 215.5,-55 215.5,-74"/>
<text text-anchor="middle" x="154.5" y="-62" font-family="Helvetica,sans-Serif" font-size="10.00">IPacketFlowVisualizer</text>
</a>
</g>
</g>
<!-- PacketFlowCanvasVisualizer -->
<g id="node2" class="node">
<title>PacketFlowCanvasVisualizer</title>
<g id="a_node2"><a xlink:href="inet.visualizer.canvas.flow.PacketFlowCanvasVisualizer.html" xlink:title="Simple Module PacketFlowCanvasVisualizer" target="_parent">
<polygon fill="#fffcaf" stroke="black" points="155,-19 0,-19 0,0 155,0 155,-19"/>
<text text-anchor="middle" x="77.5" y="-7" font-family="Helvetica,sans-Serif" font-size="10.00">PacketFlowCanvasVisualizer</text>
</a>
</g>
</g>
<!-- IPacketFlowVisualizer&#45;&gt;PacketFlowCanvasVisualizer -->
<g id="edge1" class="edge">
<title>IPacketFlowVisualizer&#45;&gt;PacketFlowCanvasVisualizer</title>
<path fill="none" stroke="black" stroke-dasharray="5,2" d="M142.13,-54.98C127.84,-45.15 104.48,-29.07 90.1,-19.17"/>
</g>
<!-- PacketFlowVisualizer -->
<g id="node3" class="node">
<title>PacketFlowVisualizer</title>
<g id="a_node3"><a xlink:href="inet.visualizer.common.PacketFlowVisualizer.html" xlink:title="Compound Module PacketFlowVisualizer" target="_parent">
<polygon fill="#fffcaf" stroke="black" points="292,-19 173,-19 173,0 292,0 292,-19"/>
<text text-anchor="middle" x="232.5" y="-7" font-family="Helvetica,sans-Serif" font-size="10.00">PacketFlowVisualizer</text>
</a>
</g>
</g>
<!-- IPacketFlowVisualizer&#45;&gt;PacketFlowVisualizer -->
<g id="edge2" class="edge">
<title>IPacketFlowVisualizer&#45;&gt;PacketFlowVisualizer</title>
<path fill="none" stroke="black" stroke-dasharray="5,2" d="M167.03,-54.98C181.5,-45.15 205.17,-29.07 219.74,-19.17"/>
</g>
</g>
</svg>
