<?xml version="1.0" encoding="UTF-8" standalone="no"?>
<!DOCTYPE svg PUBLIC "-//W3C//DTD SVG 1.1//EN"
 "http://www.w3.org/Graphics/SVG/1.1/DTD/svg11.dtd">
<!-- Generated by graphviz version 2.43.0 (0)
 -->
<!-- Title: opp Pages: 1 -->
<svg width="172pt" height="82pt"
 viewBox="0.00 0.00 171.50 82.00" xmlns="http://www.w3.org/2000/svg" xmlns:xlink="http://www.w3.org/1999/xlink">
<g id="graph0" class="graph" transform="scale(1 1) rotate(0) translate(4 78)">
<title>opp</title>
<polygon fill="transparent" stroke="transparent" points="-4,4 -4,-78 167.5,-78 167.5,4 -4,4"/>
<!-- JitterMeasurementShowcase -->
<g id="node1" class="node">
<title>JitterMeasurementShowcase</title>
<g id="a_node1"><a xlink:href="inet.showcases.measurement.jitter.JitterMeasurementShowcase.html" xlink:title="Network JitterMeasurementShowcase" target="_parent">
<polygon fill="#9090ff" stroke="black" points="163.5,-74 7.5,-74 7.5,-55 163.5,-55 163.5,-74"/>
<text text-anchor="middle" x="85.5" y="-62" font-family="Helvetica,sans-Serif" font-size="10.00">JitterMeasurementShowcase</text>
</a>
</g>
</g>
<!-- StandardHost -->
<g id="node2" class="node">
<title>StandardHost</title>
<g id="a_node2"><a xlink:href="inet.node.inet.StandardHost.html" xlink:title="Compound Module StandardHost" target="_parent">
<polygon fill="#fffcaf" stroke="black" points="83,-19 0,-19 0,0 83,0 83,-19"/>
<text text-anchor="middle" x="41.5" y="-7" font-family="Helvetica,sans-Serif" font-size="10.00">StandardHost</text>
</a>
</g>
</g>
<!-- JitterMeasurementShowcase&#45;&gt;StandardHost -->
<g id="edge1" class="edge">
<title>JitterMeasurementShowcase&#45;&gt;StandardHost</title>
<path fill="none" stroke="black" d="M78.23,-54.75C71.96,-47.18 62.71,-36.05 55.07,-26.84"/>
<polygon fill="black" stroke="black" points="57.71,-24.55 48.63,-19.09 52.33,-29.02 57.71,-24.55"/>
</g>
<!-- Eth100M -->
<g id="node3" class="node">
<title>Eth100M</title>
<g id="a_node3"><a xlink:href="inet.node.ethernet.Eth100M.html" xlink:title="Channel Eth100M" target="_parent">
<polygon fill="#d0ffd0" stroke="black" points="160,-19 101,-19 101,0 160,0 160,-19"/>
<text text-anchor="middle" x="130.5" y="-7" font-family="Helvetica,sans-Serif" font-size="10.00">Eth100M</text>
</a>
</g>
</g>
<!-- JitterMeasurementShowcase&#45;&gt;Eth100M -->
<g id="edge2" class="edge">
<title>JitterMeasurementShowcase&#45;&gt;Eth100M</title>
<path fill="none" stroke="black" d="M92.93,-54.75C99.35,-47.18 108.81,-36.05 116.62,-26.84"/>
<polygon fill="black" stroke="black" points="119.4,-28.98 123.21,-19.09 114.07,-24.45 119.4,-28.98"/>
</g>
</g>
</svg>
