<?xml version="1.0" encoding="UTF-8" standalone="no"?>
<!DOCTYPE svg PUBLIC "-//W3C//DTD SVG 1.1//EN"
 "http://www.w3.org/Graphics/SVG/1.1/DTD/svg11.dtd">
<!-- Generated by graphviz version 2.43.0 (0)
 -->
<!-- Title: opp Pages: 1 -->
<svg width="416pt" height="82pt"
 viewBox="0.00 0.00 416.00 82.00" xmlns="http://www.w3.org/2000/svg" xmlns:xlink="http://www.w3.org/1999/xlink">
<g id="graph0" class="graph" transform="scale(1 1) rotate(0) translate(4 78)">
<title>opp</title>
<polygon fill="transparent" stroke="transparent" points="-4,4 -4,-78 412,-78 412,4 -4,4"/>
<!-- CompoundPendingQueue -->
<g id="node1" class="node">
<title>CompoundPendingQueue</title>
<g id="a_node1"><a xlink:href="inet.linklayer.ieee80211.mac.queue.CompoundPendingQueue.html" xlink:title="Compound Module CompoundPendingQueue" target="_parent">
<polygon fill="#fff700" stroke="black" points="260,-74 120,-74 120,-55 260,-55 260,-74"/>
<text text-anchor="middle" x="190" y="-62" font-family="Helvetica,sans-Serif" font-size="10.00">CompoundPendingQueue</text>
</a>
</g>
</g>
<!-- PacketQueue -->
<g id="node2" class="node">
<title>PacketQueue</title>
<g id="a_node2"><a xlink:href="inet.queueing.queue.PacketQueue.html" xlink:title="Simple Module PacketQueue" target="_parent">
<polygon fill="#fffcaf" stroke="black" points="80,-19 0,-19 0,0 80,0 80,-19"/>
<text text-anchor="middle" x="40" y="-7" font-family="Helvetica,sans-Serif" font-size="10.00">PacketQueue</text>
</a>
</g>
</g>
<!-- CompoundPendingQueue&#45;&gt;PacketQueue -->
<g id="edge1" class="edge">
<title>CompoundPendingQueue&#45;&gt;PacketQueue</title>
<path fill="none" stroke="black" d="M165.9,-54.98C141.12,-46.23 102.3,-32.51 74.31,-22.62"/>
<polygon fill="black" stroke="black" points="75.13,-19.2 64.54,-19.17 72.8,-25.8 75.13,-19.2"/>
</g>
<!-- IdealChannel -->
<g id="node3" class="node">
<title>IdealChannel</title>
<g id="a_node3"><a xlink:href="ned.IdealChannel.html" xlink:title="Channel IdealChannel" target="_parent">
<polygon fill="#d0ffd0" stroke="black" points="178,-19 98,-19 98,0 178,0 178,-19"/>
<text text-anchor="middle" x="138" y="-7" font-family="Helvetica,sans-Serif" font-size="10.00">IdealChannel</text>
</a>
</g>
</g>
<!-- CompoundPendingQueue&#45;&gt;IdealChannel -->
<g id="edge2" class="edge">
<title>CompoundPendingQueue&#45;&gt;IdealChannel</title>
<path fill="none" stroke="black" d="M181.41,-54.75C173.84,-47.03 162.62,-35.6 153.49,-26.28"/>
<polygon fill="black" stroke="black" points="155.93,-23.78 146.43,-19.09 150.93,-28.68 155.93,-23.78"/>
</g>
<!-- PacketClassifier -->
<g id="node4" class="node">
<title>PacketClassifier</title>
<g id="a_node4"><a xlink:href="inet.queueing.classifier.PacketClassifier.html" xlink:title="Simple Module PacketClassifier" target="_parent">
<polygon fill="#fffcaf" stroke="black" points="289.5,-19 196.5,-19 196.5,0 289.5,0 289.5,-19"/>
<text text-anchor="middle" x="243" y="-7" font-family="Helvetica,sans-Serif" font-size="10.00">PacketClassifier</text>
</a>
</g>
</g>
<!-- CompoundPendingQueue&#45;&gt;PacketClassifier -->
<g id="edge3" class="edge">
<title>CompoundPendingQueue&#45;&gt;PacketClassifier</title>
<path fill="none" stroke="black" d="M198.75,-54.75C206.47,-47.03 217.9,-35.6 227.22,-26.28"/>
<polygon fill="black" stroke="black" points="229.81,-28.64 234.41,-19.09 224.86,-23.69 229.81,-28.64"/>
</g>
<!-- PriorityScheduler -->
<g id="node5" class="node">
<title>PriorityScheduler</title>
<g id="a_node5"><a xlink:href="inet.queueing.scheduler.PriorityScheduler.html" xlink:title="Simple Module PriorityScheduler" target="_parent">
<polygon fill="#fffcaf" stroke="black" points="408,-19 308,-19 308,0 408,0 408,-19"/>
<text text-anchor="middle" x="358" y="-7" font-family="Helvetica,sans-Serif" font-size="10.00">PriorityScheduler</text>
</a>
</g>
</g>
<!-- CompoundPendingQueue&#45;&gt;PriorityScheduler -->
<g id="edge4" class="edge">
<title>CompoundPendingQueue&#45;&gt;PriorityScheduler</title>
<path fill="none" stroke="black" d="M216.99,-54.98C245.2,-46.09 289.64,-32.07 321.08,-22.15"/>
<polygon fill="black" stroke="black" points="322.31,-25.43 330.8,-19.08 320.21,-18.75 322.31,-25.43"/>
</g>
</g>
</svg>
