<?xml version="1.0" encoding="UTF-8" standalone="no"?>
<!DOCTYPE svg PUBLIC "-//W3C//DTD SVG 1.1//EN"
 "http://www.w3.org/Graphics/SVG/1.1/DTD/svg11.dtd">
<!-- Generated by graphviz version 2.43.0 (0)
 -->
<!-- Title: opp Pages: 1 -->
<svg width="99pt" height="137pt"
 viewBox="0.00 0.00 99.00 137.00" xmlns="http://www.w3.org/2000/svg" xmlns:xlink="http://www.w3.org/1999/xlink">
<g id="graph0" class="graph" transform="scale(1 1) rotate(0) translate(4 133)">
<title>opp</title>
<polygon fill="transparent" stroke="transparent" points="-4,4 -4,-133 95,-133 95,4 -4,4"/>
<!-- IIeee80211Mac -->
<g id="node1" class="node">
<title>IIeee80211Mac</title>
<g id="a_node1"><a xlink:href="inet.linklayer.ieee80211.IIeee80211Mac.html" xlink:title="Module Interface IIeee80211Mac" target="_parent">
<polygon fill="#fff700" stroke="black" stroke-dasharray="5,2" points="91,-74 0,-74 0,-55 91,-55 91,-74"/>
<text text-anchor="middle" x="45.5" y="-62" font-family="Helvetica,sans-Serif" font-size="10.00">IIeee80211Mac</text>
</a>
</g>
</g>
<!-- Ieee80211Mac -->
<g id="node3" class="node">
<title>Ieee80211Mac</title>
<g id="a_node3"><a xlink:href="inet.linklayer.ieee80211.mac.Ieee80211Mac.html" xlink:title="Compound Module Ieee80211Mac" target="_parent">
<polygon fill="#fffcaf" stroke="black" points="89.5,-19 1.5,-19 1.5,0 89.5,0 89.5,-19"/>
<text text-anchor="middle" x="45.5" y="-7" font-family="Helvetica,sans-Serif" font-size="10.00">Ieee80211Mac</text>
</a>
</g>
</g>
<!-- IIeee80211Mac&#45;&gt;Ieee80211Mac -->
<g id="edge2" class="edge">
<title>IIeee80211Mac&#45;&gt;Ieee80211Mac</title>
<path fill="none" stroke="black" stroke-dasharray="5,2" d="M45.5,-54.75C45.5,-44.87 45.5,-28.9 45.5,-19.09"/>
</g>
<!-- IMacProtocol -->
<g id="node2" class="node">
<title>IMacProtocol</title>
<g id="a_node2"><a xlink:href="inet.linklayer.contract.IMacProtocol.html" xlink:title="Module Interface IMacProtocol" target="_parent">
<polygon fill="#fffcaf" stroke="black" stroke-dasharray="5,2" points="85.5,-129 5.5,-129 5.5,-110 85.5,-110 85.5,-129"/>
<text text-anchor="middle" x="45.5" y="-117" font-family="Helvetica,sans-Serif" font-size="10.00">IMacProtocol</text>
</a>
</g>
</g>
<!-- IMacProtocol&#45;&gt;IIeee80211Mac -->
<g id="edge1" class="edge">
<title>IMacProtocol&#45;&gt;IIeee80211Mac</title>
<path fill="none" stroke="black" d="M45.5,-109.75C45.5,-99.87 45.5,-83.9 45.5,-74.09"/>
</g>
</g>
</svg>
