<?xml version="1.0" encoding="UTF-8" standalone="no"?>
<!DOCTYPE svg PUBLIC "-//W3C//DTD SVG 1.1//EN"
 "http://www.w3.org/Graphics/SVG/1.1/DTD/svg11.dtd">
<!-- Generated by graphviz version 2.43.0 (0)
 -->
<!-- Title: opp Pages: 1 -->
<svg width="100pt" height="137pt"
 viewBox="0.00 0.00 100.00 137.00" xmlns="http://www.w3.org/2000/svg" xmlns:xlink="http://www.w3.org/1999/xlink">
<g id="graph0" class="graph" transform="scale(1 1) rotate(0) translate(4 133)">
<title>opp</title>
<polygon fill="transparent" stroke="transparent" points="-4,4 -4,-133 96,-133 96,4 -4,4"/>
<!-- IPppInterface -->
<g id="node1" class="node">
<title>IPppInterface</title>
<g id="a_node1"><a xlink:href="inet.linklayer.contract.IPppInterface.html" xlink:title="Module Interface IPppInterface" target="_parent">
<polygon fill="#fff700" stroke="black" stroke-dasharray="5,2" points="86.5,-74 5.5,-74 5.5,-55 86.5,-55 86.5,-74"/>
<text text-anchor="middle" x="46" y="-62" font-family="Helvetica,sans-Serif" font-size="10.00">IPppInterface</text>
</a>
</g>
</g>
<!-- PppInterface -->
<g id="node3" class="node">
<title>PppInterface</title>
<g id="a_node3"><a xlink:href="inet.linklayer.ppp.PppInterface.html" xlink:title="Compound Module PppInterface" target="_parent">
<polygon fill="#fffcaf" stroke="black" points="85,-19 7,-19 7,0 85,0 85,-19"/>
<text text-anchor="middle" x="46" y="-7" font-family="Helvetica,sans-Serif" font-size="10.00">PppInterface</text>
</a>
</g>
</g>
<!-- IPppInterface&#45;&gt;PppInterface -->
<g id="edge2" class="edge">
<title>IPppInterface&#45;&gt;PppInterface</title>
<path fill="none" stroke="black" stroke-dasharray="5,2" d="M46,-54.75C46,-44.87 46,-28.9 46,-19.09"/>
</g>
<!-- IWiredInterface -->
<g id="node2" class="node">
<title>IWiredInterface</title>
<g id="a_node2"><a xlink:href="inet.linklayer.contract.IWiredInterface.html" xlink:title="Module Interface IWiredInterface" target="_parent">
<polygon fill="#fffcaf" stroke="black" stroke-dasharray="5,2" points="92,-129 0,-129 0,-110 92,-110 92,-129"/>
<text text-anchor="middle" x="46" y="-117" font-family="Helvetica,sans-Serif" font-size="10.00">IWiredInterface</text>
</a>
</g>
</g>
<!-- IWiredInterface&#45;&gt;IPppInterface -->
<g id="edge1" class="edge">
<title>IWiredInterface&#45;&gt;IPppInterface</title>
<path fill="none" stroke="black" d="M46,-109.75C46,-99.87 46,-83.9 46,-74.09"/>
</g>
</g>
</svg>
