<?xml version="1.0" encoding="UTF-8" standalone="no"?>
<!DOCTYPE svg PUBLIC "-//W3C//DTD SVG 1.1//EN"
 "http://www.w3.org/Graphics/SVG/1.1/DTD/svg11.dtd">
<!-- Generated by graphviz version 2.43.0 (0)
 -->
<!-- Title: opp Pages: 1 -->
<svg width="501pt" height="82pt"
 viewBox="0.00 0.00 500.50 82.00" xmlns="http://www.w3.org/2000/svg" xmlns:xlink="http://www.w3.org/1999/xlink">
<g id="graph0" class="graph" transform="scale(1 1) rotate(0) translate(4 78)">
<title>opp</title>
<polygon fill="transparent" stroke="transparent" points="-4,4 -4,-78 496.5,-78 496.5,4 -4,4"/>
<!-- UDPBroadcastNetwork -->
<g id="node1" class="node">
<title>UDPBroadcastNetwork</title>
<g id="a_node1"><a xlink:href="inet.examples.inet.broadcast.UDPBroadcastNetwork.html" xlink:title="Network UDPBroadcastNetwork" target="_parent">
<polygon fill="#9090ff" stroke="black" points="367.5,-74 239.5,-74 239.5,-55 367.5,-55 367.5,-74"/>
<text text-anchor="middle" x="303.5" y="-62" font-family="Helvetica,sans-Serif" font-size="10.00">UDPBroadcastNetwork</text>
</a>
</g>
</g>
<!-- StandardHost -->
<g id="node2" class="node">
<title>StandardHost</title>
<g id="a_node2"><a xlink:href="inet.node.inet.StandardHost.html" xlink:title="Compound Module StandardHost" target="_parent">
<polygon fill="#fffcaf" stroke="black" points="83,-19 0,-19 0,0 83,0 83,-19"/>
<text text-anchor="middle" x="41.5" y="-7" font-family="Helvetica,sans-Serif" font-size="10.00">StandardHost</text>
</a>
</g>
</g>
<!-- UDPBroadcastNetwork&#45;&gt;StandardHost -->
<g id="edge1" class="edge">
<title>UDPBroadcastNetwork&#45;&gt;StandardHost</title>
<path fill="none" stroke="black" d="M261.41,-54.98C215.53,-45.7 142.11,-30.85 92.87,-20.89"/>
<polygon fill="black" stroke="black" points="93.55,-17.46 83.06,-18.91 92.17,-24.32 93.55,-17.46"/>
</g>
<!-- Ipv4NetworkConfigurator -->
<g id="node3" class="node">
<title>Ipv4NetworkConfigurator</title>
<g id="a_node3"><a xlink:href="inet.networklayer.configurator.ipv4.Ipv4NetworkConfigurator.html" xlink:title="Simple Module Ipv4NetworkConfigurator" target="_parent">
<polygon fill="#fffcaf" stroke="black" points="240,-19 101,-19 101,0 240,0 240,-19"/>
<text text-anchor="middle" x="170.5" y="-7" font-family="Helvetica,sans-Serif" font-size="10.00">Ipv4NetworkConfigurator</text>
</a>
</g>
</g>
<!-- UDPBroadcastNetwork&#45;&gt;Ipv4NetworkConfigurator -->
<g id="edge2" class="edge">
<title>UDPBroadcastNetwork&#45;&gt;Ipv4NetworkConfigurator</title>
<path fill="none" stroke="black" d="M282.13,-54.98C260.35,-46.3 226.34,-32.75 201.58,-22.88"/>
<polygon fill="black" stroke="black" points="202.84,-19.62 192.26,-19.17 200.25,-26.12 202.84,-19.62"/>
</g>
<!-- EthernetSwitch -->
<g id="node4" class="node">
<title>EthernetSwitch</title>
<g id="a_node4"><a xlink:href="inet.node.ethernet.EthernetSwitch.html" xlink:title="Compound Module EthernetSwitch" target="_parent">
<polygon fill="#fffcaf" stroke="black" points="348.5,-19 258.5,-19 258.5,0 348.5,0 348.5,-19"/>
<text text-anchor="middle" x="303.5" y="-7" font-family="Helvetica,sans-Serif" font-size="10.00">EthernetSwitch</text>
</a>
</g>
</g>
<!-- UDPBroadcastNetwork&#45;&gt;EthernetSwitch -->
<g id="edge3" class="edge">
<title>UDPBroadcastNetwork&#45;&gt;EthernetSwitch</title>
<path fill="none" stroke="black" d="M303.5,-54.75C303.5,-47.8 303.5,-37.85 303.5,-29.13"/>
<polygon fill="black" stroke="black" points="307,-29.09 303.5,-19.09 300,-29.09 307,-29.09"/>
</g>
<!-- C -->
<g id="node5" class="node">
<title>C</title>
<g id="a_node5"><a xlink:href="inet.examples.inet.broadcast.UDPBroadcastNetwork.C.html" xlink:title="Channel C" target="_parent">
<polygon fill="#d0ffd0" stroke="black" points="420.5,-19 366.5,-19 366.5,0 420.5,0 420.5,-19"/>
<text text-anchor="middle" x="393.5" y="-7" font-family="Helvetica,sans-Serif" font-size="10.00">C</text>
</a>
</g>
</g>
<!-- UDPBroadcastNetwork&#45;&gt;C -->
<g id="edge4" class="edge">
<title>UDPBroadcastNetwork&#45;&gt;C</title>
<path fill="none" stroke="black" d="M317.96,-54.98C331.92,-46.77 353.29,-34.18 369.75,-24.49"/>
<polygon fill="black" stroke="black" points="371.94,-27.26 378.78,-19.17 368.38,-21.23 371.94,-27.26"/>
</g>
<!-- Router -->
<g id="node6" class="node">
<title>Router</title>
<g id="a_node6"><a xlink:href="inet.node.inet.Router.html" xlink:title="Compound Module Router" target="_parent">
<polygon fill="#fffcaf" stroke="black" points="492.5,-19 438.5,-19 438.5,0 492.5,0 492.5,-19"/>
<text text-anchor="middle" x="465.5" y="-7" font-family="Helvetica,sans-Serif" font-size="10.00">Router</text>
</a>
</g>
</g>
<!-- UDPBroadcastNetwork&#45;&gt;Router -->
<g id="edge5" class="edge">
<title>UDPBroadcastNetwork&#45;&gt;Router</title>
<path fill="none" stroke="black" d="M329.53,-54.98C356.61,-46.13 399.21,-32.19 429.51,-22.28"/>
<polygon fill="black" stroke="black" points="430.85,-25.52 439.27,-19.08 428.68,-18.87 430.85,-25.52"/>
</g>
</g>
</svg>
