<?xml version="1.0" encoding="UTF-8" standalone="no"?>
<!DOCTYPE svg PUBLIC "-//W3C//DTD SVG 1.1//EN"
 "http://www.w3.org/Graphics/SVG/1.1/DTD/svg11.dtd">
<!-- Generated by graphviz version 2.43.0 (0)
 -->
<!-- Title: opp Pages: 1 -->
<svg width="150pt" height="137pt"
 viewBox="0.00 0.00 150.00 137.00" xmlns="http://www.w3.org/2000/svg" xmlns:xlink="http://www.w3.org/1999/xlink">
<g id="graph0" class="graph" transform="scale(1 1) rotate(0) translate(4 133)">
<title>opp</title>
<polygon fill="transparent" stroke="transparent" points="-4,4 -4,-133 146,-133 146,4 -4,4"/>
<!-- PassivePacketSourceBase -->
<g id="node1" class="node">
<title>PassivePacketSourceBase</title>
<g id="a_node1"><a xlink:href="inet.queueing.base.PassivePacketSourceBase.html" xlink:title="Simple Module PassivePacketSourceBase" target="_parent">
<polygon fill="#fff700" stroke="black" points="142,-74 0,-74 0,-55 142,-55 142,-74"/>
<text text-anchor="middle" x="71" y="-62" font-family="Helvetica,sans-Serif" font-size="10.00">PassivePacketSourceBase</text>
</a>
</g>
</g>
<!-- PassivePacketSource -->
<g id="node3" class="node">
<title>PassivePacketSource</title>
<g id="a_node3"><a xlink:href="inet.queueing.source.PassivePacketSource.html" xlink:title="Simple Module PassivePacketSource" target="_parent">
<polygon fill="#fffcaf" stroke="black" points="130,-19 12,-19 12,0 130,0 130,-19"/>
<text text-anchor="middle" x="71" y="-7" font-family="Helvetica,sans-Serif" font-size="10.00">PassivePacketSource</text>
</a>
</g>
</g>
<!-- PassivePacketSourceBase&#45;&gt;PassivePacketSource -->
<g id="edge2" class="edge">
<title>PassivePacketSourceBase&#45;&gt;PassivePacketSource</title>
<path fill="none" stroke="black" d="M71,-54.75C71,-44.87 71,-28.9 71,-19.09"/>
</g>
<!-- PacketSourceBase -->
<g id="node2" class="node">
<title>PacketSourceBase</title>
<g id="a_node2"><a xlink:href="inet.queueing.base.PacketSourceBase.html" xlink:title="Simple Module PacketSourceBase" target="_parent">
<polygon fill="#fffcaf" stroke="black" points="123.5,-129 18.5,-129 18.5,-110 123.5,-110 123.5,-129"/>
<text text-anchor="middle" x="71" y="-117" font-family="Helvetica,sans-Serif" font-size="10.00">PacketSourceBase</text>
</a>
</g>
</g>
<!-- PacketSourceBase&#45;&gt;PassivePacketSourceBase -->
<g id="edge1" class="edge">
<title>PacketSourceBase&#45;&gt;PassivePacketSourceBase</title>
<path fill="none" stroke="black" d="M71,-109.75C71,-99.87 71,-83.9 71,-74.09"/>
</g>
</g>
</svg>
