<?xml version="1.0" encoding="UTF-8" standalone="no"?>
<!DOCTYPE svg PUBLIC "-//W3C//DTD SVG 1.1//EN"
 "http://www.w3.org/Graphics/SVG/1.1/DTD/svg11.dtd">
<!-- Generated by graphviz version 2.43.0 (0)
 -->
<!-- Title: opp Pages: 1 -->
<svg width="440pt" height="82pt"
 viewBox="0.00 0.00 440.00 82.00" xmlns="http://www.w3.org/2000/svg" xmlns:xlink="http://www.w3.org/1999/xlink">
<g id="graph0" class="graph" transform="scale(1 1) rotate(0) translate(4 78)">
<title>opp</title>
<polygon fill="transparent" stroke="transparent" points="-4,4 -4,-78 436,-78 436,4 -4,4"/>
<!-- ClonerTutorialStep -->
<g id="node1" class="node">
<title>ClonerTutorialStep</title>
<g id="a_node1"><a xlink:href="inet.tutorials.queueing.ClonerTutorialStep.html" xlink:title="Network ClonerTutorialStep" target="_parent">
<polygon fill="#9090ff" stroke="black" points="259,-74 153,-74 153,-55 259,-55 259,-74"/>
<text text-anchor="middle" x="206" y="-62" font-family="Helvetica,sans-Serif" font-size="10.00">ClonerTutorialStep</text>
</a>
</g>
</g>
<!-- PacketCloner -->
<g id="node2" class="node">
<title>PacketCloner</title>
<g id="a_node2"><a xlink:href="inet.queueing.common.PacketCloner.html" xlink:title="Simple Module PacketCloner" target="_parent">
<polygon fill="#fffcaf" stroke="black" points="80,-19 0,-19 0,0 80,0 80,-19"/>
<text text-anchor="middle" x="40" y="-7" font-family="Helvetica,sans-Serif" font-size="10.00">PacketCloner</text>
</a>
</g>
</g>
<!-- ClonerTutorialStep&#45;&gt;PacketCloner -->
<g id="edge1" class="edge">
<title>ClonerTutorialStep&#45;&gt;PacketCloner</title>
<path fill="none" stroke="black" d="M179.33,-54.98C151.46,-46.09 107.55,-32.07 76.48,-22.15"/>
<polygon fill="black" stroke="black" points="77.47,-18.79 66.88,-19.08 75.34,-25.46 77.47,-18.79"/>
</g>
<!-- PassivePacketSink -->
<g id="node3" class="node">
<title>PassivePacketSink</title>
<g id="a_node3"><a xlink:href="inet.queueing.sink.PassivePacketSink.html" xlink:title="Simple Module PassivePacketSink" target="_parent">
<polygon fill="#fffcaf" stroke="black" points="204,-19 98,-19 98,0 204,0 204,-19"/>
<text text-anchor="middle" x="151" y="-7" font-family="Helvetica,sans-Serif" font-size="10.00">PassivePacketSink</text>
</a>
</g>
</g>
<!-- ClonerTutorialStep&#45;&gt;PassivePacketSink -->
<g id="edge2" class="edge">
<title>ClonerTutorialStep&#45;&gt;PassivePacketSink</title>
<path fill="none" stroke="black" d="M196.92,-54.75C188.91,-47.03 177.04,-35.6 167.38,-26.28"/>
<polygon fill="black" stroke="black" points="169.54,-23.51 159.91,-19.09 164.69,-28.55 169.54,-23.51"/>
</g>
<!-- IdealChannel -->
<g id="node4" class="node">
<title>IdealChannel</title>
<g id="a_node4"><a xlink:href="ned.IdealChannel.html" xlink:title="Channel IdealChannel" target="_parent">
<polygon fill="#d0ffd0" stroke="black" points="302,-19 222,-19 222,0 302,0 302,-19"/>
<text text-anchor="middle" x="262" y="-7" font-family="Helvetica,sans-Serif" font-size="10.00">IdealChannel</text>
</a>
</g>
</g>
<!-- ClonerTutorialStep&#45;&gt;IdealChannel -->
<g id="edge3" class="edge">
<title>ClonerTutorialStep&#45;&gt;IdealChannel</title>
<path fill="none" stroke="black" d="M215,-54.98C223.19,-47.23 235.51,-35.58 245.47,-26.14"/>
<polygon fill="black" stroke="black" points="247.98,-28.59 252.84,-19.17 243.17,-23.5 247.98,-28.59"/>
</g>
<!-- ActivePacketSource -->
<g id="node5" class="node">
<title>ActivePacketSource</title>
<g id="a_node5"><a xlink:href="inet.queueing.source.ActivePacketSource.html" xlink:title="Simple Module ActivePacketSource" target="_parent">
<polygon fill="#fffcaf" stroke="black" points="432,-19 320,-19 320,0 432,0 432,-19"/>
<text text-anchor="middle" x="376" y="-7" font-family="Helvetica,sans-Serif" font-size="10.00">ActivePacketSource</text>
</a>
</g>
</g>
<!-- ClonerTutorialStep&#45;&gt;ActivePacketSource -->
<g id="edge4" class="edge">
<title>ClonerTutorialStep&#45;&gt;ActivePacketSource</title>
<path fill="none" stroke="black" d="M233.31,-54.98C261.85,-46.09 306.83,-32.07 338.64,-22.15"/>
<polygon fill="black" stroke="black" points="339.97,-25.4 348.47,-19.08 337.88,-18.72 339.97,-25.4"/>
</g>
</g>
</svg>
