<?xml version="1.0" encoding="UTF-8" standalone="no"?>
<!DOCTYPE svg PUBLIC "-//W3C//DTD SVG 1.1//EN"
 "http://www.w3.org/Graphics/SVG/1.1/DTD/svg11.dtd">
<!-- Generated by graphviz version 2.43.0 (0)
 -->
<!-- Title: opp Pages: 1 -->
<svg width="442pt" height="82pt"
 viewBox="0.00 0.00 442.00 82.00" xmlns="http://www.w3.org/2000/svg" xmlns:xlink="http://www.w3.org/1999/xlink">
<g id="graph0" class="graph" transform="scale(1 1) rotate(0) translate(4 78)">
<title>opp</title>
<polygon fill="transparent" stroke="transparent" points="-4,4 -4,-78 438,-78 438,4 -4,4"/>
<!-- v3_2_routers -->
<g id="node1" class="node">
<title>v3_2_routers</title>
<g id="a_node1"><a xlink:href="inet.examples.ospfv3.v3_2_routers.v3_2_routers.html" xlink:title="Network v3_2_routers" target="_parent">
<polygon fill="#9090ff" stroke="black" points="269.5,-74 189.5,-74 189.5,-55 269.5,-55 269.5,-74"/>
<text text-anchor="middle" x="229.5" y="-62" font-family="Helvetica,sans-Serif" font-size="10.00">v3_2_routers</text>
</a>
</g>
</g>
<!-- Ipv4NetworkConfigurator -->
<g id="node2" class="node">
<title>Ipv4NetworkConfigurator</title>
<g id="a_node2"><a xlink:href="inet.networklayer.configurator.ipv4.Ipv4NetworkConfigurator.html" xlink:title="Simple Module Ipv4NetworkConfigurator" target="_parent">
<polygon fill="#fffcaf" stroke="black" points="139,-19 0,-19 0,0 139,0 139,-19"/>
<text text-anchor="middle" x="69.5" y="-7" font-family="Helvetica,sans-Serif" font-size="10.00">Ipv4NetworkConfigurator</text>
</a>
</g>
</g>
<!-- v3_2_routers&#45;&gt;Ipv4NetworkConfigurator -->
<g id="edge1" class="edge">
<title>v3_2_routers&#45;&gt;Ipv4NetworkConfigurator</title>
<path fill="none" stroke="black" d="M203.79,-54.98C177.05,-46.13 134.97,-32.19 105.05,-22.28"/>
<polygon fill="black" stroke="black" points="106,-18.9 95.41,-19.08 103.8,-25.55 106,-18.9"/>
</g>
<!-- Channel -->
<g id="node3" class="node">
<title>Channel</title>
<g id="a_node3"><a xlink:href="inet.examples.ospfv3.v3_2_routers.v3_2_routers.Channel.html" xlink:title="Channel Channel" target="_parent">
<polygon fill="#d0ffd0" stroke="black" points="213.5,-19 157.5,-19 157.5,0 213.5,0 213.5,-19"/>
<text text-anchor="middle" x="185.5" y="-7" font-family="Helvetica,sans-Serif" font-size="10.00">Channel</text>
</a>
</g>
</g>
<!-- v3_2_routers&#45;&gt;Channel -->
<g id="edge2" class="edge">
<title>v3_2_routers&#45;&gt;Channel</title>
<path fill="none" stroke="black" d="M222.23,-54.75C215.96,-47.18 206.71,-36.05 199.07,-26.84"/>
<polygon fill="black" stroke="black" points="201.71,-24.55 192.63,-19.09 196.33,-29.02 201.71,-24.55"/>
</g>
<!-- Ospfv3Router -->
<g id="node4" class="node">
<title>Ospfv3Router</title>
<g id="a_node4"><a xlink:href="inet.node.ospfv3.Ospfv3Router.html" xlink:title="Compound Module Ospfv3Router" target="_parent">
<polygon fill="#fffcaf" stroke="black" points="315,-19 232,-19 232,0 315,0 315,-19"/>
<text text-anchor="middle" x="273.5" y="-7" font-family="Helvetica,sans-Serif" font-size="10.00">Ospfv3Router</text>
</a>
</g>
</g>
<!-- v3_2_routers&#45;&gt;Ospfv3Router -->
<g id="edge3" class="edge">
<title>v3_2_routers&#45;&gt;Ospfv3Router</title>
<path fill="none" stroke="black" d="M236.77,-54.75C243.04,-47.18 252.29,-36.05 259.93,-26.84"/>
<polygon fill="black" stroke="black" points="262.67,-29.02 266.37,-19.09 257.29,-24.55 262.67,-29.02"/>
</g>
<!-- ScenarioManager -->
<g id="node5" class="node">
<title>ScenarioManager</title>
<g id="a_node5"><a xlink:href="inet.common.scenario.ScenarioManager.html" xlink:title="Simple Module ScenarioManager" target="_parent">
<polygon fill="#fffcaf" stroke="black" points="434,-19 333,-19 333,0 434,0 434,-19"/>
<text text-anchor="middle" x="383.5" y="-7" font-family="Helvetica,sans-Serif" font-size="10.00">ScenarioManager</text>
</a>
</g>
</g>
<!-- v3_2_routers&#45;&gt;ScenarioManager -->
<g id="edge4" class="edge">
<title>v3_2_routers&#45;&gt;ScenarioManager</title>
<path fill="none" stroke="black" d="M254.24,-54.98C279.87,-46.16 320.13,-32.31 348.91,-22.41"/>
<polygon fill="black" stroke="black" points="350.25,-25.65 358.56,-19.08 347.97,-19.03 350.25,-25.65"/>
</g>
</g>
</svg>
