<?xml version="1.0" encoding="UTF-8" standalone="no"?>
<!DOCTYPE svg PUBLIC "-//W3C//DTD SVG 1.1//EN"
 "http://www.w3.org/Graphics/SVG/1.1/DTD/svg11.dtd">
<!-- Generated by graphviz version 2.43.0 (0)
 -->
<!-- Title: opp Pages: 1 -->
<svg width="278pt" height="82pt"
 viewBox="0.00 0.00 277.50 82.00" xmlns="http://www.w3.org/2000/svg" xmlns:xlink="http://www.w3.org/1999/xlink">
<g id="graph0" class="graph" transform="scale(1 1) rotate(0) translate(4 78)">
<title>opp</title>
<polygon fill="transparent" stroke="transparent" points="-4,4 -4,-78 273.5,-78 273.5,4 -4,4"/>
<!-- TransportRouteCanvasVisualizer -->
<g id="node1" class="node">
<title>TransportRouteCanvasVisualizer</title>
<g id="a_node1"><a xlink:href="inet.visualizer.canvas.transportlayer.TransportRouteCanvasVisualizer.html" xlink:title="Simple Module TransportRouteCanvasVisualizer" target="_parent">
<polygon fill="#fff700" stroke="black" points="214,-19 40,-19 40,0 214,0 214,-19"/>
<text text-anchor="middle" x="127" y="-7" font-family="Helvetica,sans-Serif" font-size="10.00">TransportRouteCanvasVisualizer</text>
</a>
</g>
</g>
<!-- PathVisualizerBase -->
<g id="node2" class="node">
<title>PathVisualizerBase</title>
<g id="a_node2"><a xlink:href="inet.visualizer.base.PathVisualizerBase.html" xlink:title="Simple Module PathVisualizerBase" target="_parent">
<polygon fill="#fffcaf" stroke="black" points="110,-74 0,-74 0,-55 110,-55 110,-74"/>
<text text-anchor="middle" x="55" y="-62" font-family="Helvetica,sans-Serif" font-size="10.00">PathVisualizerBase</text>
</a>
</g>
</g>
<!-- PathVisualizerBase&#45;&gt;TransportRouteCanvasVisualizer -->
<g id="edge1" class="edge">
<title>PathVisualizerBase&#45;&gt;TransportRouteCanvasVisualizer</title>
<path fill="none" stroke="black" d="M66.57,-54.98C79.92,-45.15 101.78,-29.07 115.22,-19.17"/>
</g>
<!-- ITransportRouteVisualizer -->
<g id="node3" class="node">
<title>ITransportRouteVisualizer</title>
<g id="a_node3"><a xlink:href="inet.visualizer.contract.ITransportRouteVisualizer.html" xlink:title="Module Interface ITransportRouteVisualizer" target="_parent">
<polygon fill="#fffcaf" stroke="black" stroke-dasharray="5,2" points="269.5,-74 128.5,-74 128.5,-55 269.5,-55 269.5,-74"/>
<text text-anchor="middle" x="199" y="-62" font-family="Helvetica,sans-Serif" font-size="10.00">ITransportRouteVisualizer</text>
</a>
</g>
</g>
<!-- ITransportRouteVisualizer&#45;&gt;TransportRouteCanvasVisualizer -->
<g id="edge2" class="edge">
<title>ITransportRouteVisualizer&#45;&gt;TransportRouteCanvasVisualizer</title>
<path fill="none" stroke="black" stroke-dasharray="5,2" d="M187.43,-54.98C174.08,-45.15 152.22,-29.07 138.78,-19.17"/>
</g>
</g>
</svg>
