<?xml version="1.0" encoding="UTF-8" standalone="no"?>
<!DOCTYPE svg PUBLIC "-//W3C//DTD SVG 1.1//EN"
 "http://www.w3.org/Graphics/SVG/1.1/DTD/svg11.dtd">
<!-- Generated by graphviz version 2.43.0 (0)
 -->
<!-- Title: opp Pages: 1 -->
<svg width="534pt" height="82pt"
 viewBox="0.00 0.00 534.00 82.00" xmlns="http://www.w3.org/2000/svg" xmlns:xlink="http://www.w3.org/1999/xlink">
<g id="graph0" class="graph" transform="scale(1 1) rotate(0) translate(4 78)">
<title>opp</title>
<polygon fill="transparent" stroke="transparent" points="-4,4 -4,-78 530,-78 530,4 -4,4"/>
<!-- HandoverShowcase -->
<g id="node1" class="node">
<title>HandoverShowcase</title>
<g id="a_node1"><a xlink:href="inet.showcases.wireless.handover.HandoverShowcase.html" xlink:title="Network HandoverShowcase" target="_parent">
<polygon fill="#9090ff" stroke="black" points="347,-74 234,-74 234,-55 347,-55 347,-74"/>
<text text-anchor="middle" x="290.5" y="-62" font-family="Helvetica,sans-Serif" font-size="10.00">HandoverShowcase</text>
</a>
</g>
</g>
<!-- Ieee80211ScalarRadioMedium -->
<g id="node2" class="node">
<title>Ieee80211ScalarRadioMedium</title>
<g id="a_node2"><a xlink:href="inet.physicallayer.wireless.ieee80211.packetlevel.Ieee80211ScalarRadioMedium.html" xlink:title="Compound Module Ieee80211ScalarRadioMedium" target="_parent">
<polygon fill="#fffcaf" stroke="black" points="165,-19 0,-19 0,0 165,0 165,-19"/>
<text text-anchor="middle" x="82.5" y="-7" font-family="Helvetica,sans-Serif" font-size="10.00">Ieee80211ScalarRadioMedium</text>
</a>
</g>
</g>
<!-- HandoverShowcase&#45;&gt;Ieee80211ScalarRadioMedium -->
<g id="edge1" class="edge">
<title>HandoverShowcase&#45;&gt;Ieee80211ScalarRadioMedium</title>
<path fill="none" stroke="black" d="M257.08,-54.98C221.56,-45.93 165.23,-31.58 126.2,-21.64"/>
<polygon fill="black" stroke="black" points="126.74,-18.16 116.18,-19.08 125.01,-24.94 126.74,-18.16"/>
</g>
<!-- WirelessHost -->
<g id="node3" class="node">
<title>WirelessHost</title>
<g id="a_node3"><a xlink:href="inet.node.inet.WirelessHost.html" xlink:title="Compound Module WirelessHost" target="_parent">
<polygon fill="#fffcaf" stroke="black" points="264,-19 183,-19 183,0 264,0 264,-19"/>
<text text-anchor="middle" x="223.5" y="-7" font-family="Helvetica,sans-Serif" font-size="10.00">WirelessHost</text>
</a>
</g>
</g>
<!-- HandoverShowcase&#45;&gt;WirelessHost -->
<g id="edge2" class="edge">
<title>HandoverShowcase&#45;&gt;WirelessHost</title>
<path fill="none" stroke="black" d="M279.74,-54.98C269.73,-47.07 254.61,-35.11 242.57,-25.58"/>
<polygon fill="black" stroke="black" points="244.47,-22.63 234.46,-19.17 240.13,-28.12 244.47,-22.63"/>
</g>
<!-- IntegratedCanvasVisualizer -->
<g id="node4" class="node">
<title>IntegratedCanvasVisualizer</title>
<g id="a_node4"><a xlink:href="inet.visualizer.canvas.integrated.IntegratedCanvasVisualizer.html" xlink:title="Compound Module IntegratedCanvasVisualizer" target="_parent">
<polygon fill="#fffcaf" stroke="black" points="433,-19 282,-19 282,0 433,0 433,-19"/>
<text text-anchor="middle" x="357.5" y="-7" font-family="Helvetica,sans-Serif" font-size="10.00">IntegratedCanvasVisualizer</text>
</a>
</g>
</g>
<!-- HandoverShowcase&#45;&gt;IntegratedCanvasVisualizer -->
<g id="edge3" class="edge">
<title>HandoverShowcase&#45;&gt;IntegratedCanvasVisualizer</title>
<path fill="none" stroke="black" d="M301.26,-54.98C311.27,-47.07 326.39,-35.11 338.43,-25.58"/>
<polygon fill="black" stroke="black" points="340.87,-28.12 346.54,-19.17 336.53,-22.63 340.87,-28.12"/>
</g>
<!-- AccessPoint -->
<g id="node5" class="node">
<title>AccessPoint</title>
<g id="a_node5"><a xlink:href="inet.node.wireless.AccessPoint.html" xlink:title="Compound Module AccessPoint" target="_parent">
<polygon fill="#fffcaf" stroke="black" points="526,-19 451,-19 451,0 526,0 526,-19"/>
<text text-anchor="middle" x="488.5" y="-7" font-family="Helvetica,sans-Serif" font-size="10.00">AccessPoint</text>
</a>
</g>
</g>
<!-- HandoverShowcase&#45;&gt;AccessPoint -->
<g id="edge4" class="edge">
<title>HandoverShowcase&#45;&gt;AccessPoint</title>
<path fill="none" stroke="black" d="M322.31,-54.98C355.99,-45.97 409.3,-31.7 446.42,-21.76"/>
<polygon fill="black" stroke="black" points="447.68,-25.05 456.44,-19.08 445.87,-18.29 447.68,-25.05"/>
</g>
</g>
</svg>
