<?xml version="1.0" encoding="UTF-8" standalone="no"?>
<!DOCTYPE svg PUBLIC "-//W3C//DTD SVG 1.1//EN"
 "http://www.w3.org/Graphics/SVG/1.1/DTD/svg11.dtd">
<!-- Generated by graphviz version 2.43.0 (0)
 -->
<!-- Title: opp Pages: 1 -->
<svg width="542pt" height="82pt"
 viewBox="0.00 0.00 541.50 82.00" xmlns="http://www.w3.org/2000/svg" xmlns:xlink="http://www.w3.org/1999/xlink">
<g id="graph0" class="graph" transform="scale(1 1) rotate(0) translate(4 78)">
<title>opp</title>
<polygon fill="transparent" stroke="transparent" points="-4,4 -4,-78 537.5,-78 537.5,4 -4,4"/>
<!-- Ieee80211LayeredOfdmReceiver -->
<g id="node1" class="node">
<title>Ieee80211LayeredOfdmReceiver</title>
<g id="a_node1"><a xlink:href="inet.physicallayer.wireless.ieee80211.bitlevel.Ieee80211LayeredOfdmReceiver.html" xlink:title="Compound Module Ieee80211LayeredOfdmReceiver" target="_parent">
<polygon fill="#fff700" stroke="black" points="332,-74 156,-74 156,-55 332,-55 332,-74"/>
<text text-anchor="middle" x="244" y="-62" font-family="Helvetica,sans-Serif" font-size="10.00">Ieee80211LayeredOfdmReceiver</text>
</a>
</g>
</g>
<!-- IDecoder -->
<g id="node2" class="node">
<title>IDecoder</title>
<g id="a_node2"><a xlink:href="inet.physicallayer.wireless.common.contract.bitlevel.IDecoder.html" xlink:title="Module Interface IDecoder" target="_parent">
<polygon fill="#fffcaf" stroke="black" stroke-dasharray="5,2" points="60,-19 0,-19 0,0 60,0 60,-19"/>
<text text-anchor="middle" x="30" y="-7" font-family="Helvetica,sans-Serif" font-size="10.00">IDecoder</text>
</a>
</g>
</g>
<!-- Ieee80211LayeredOfdmReceiver&#45;&gt;IDecoder -->
<g id="edge1" class="edge">
<title>Ieee80211LayeredOfdmReceiver&#45;&gt;IDecoder</title>
<path fill="none" stroke="black" d="M209.62,-54.98C171.5,-45.54 110.09,-30.34 69.88,-20.38"/>
<polygon fill="black" stroke="black" points="70.7,-16.97 60.15,-17.97 69.01,-23.77 70.7,-16.97"/>
</g>
<!-- ILayeredErrorModel -->
<g id="node3" class="node">
<title>ILayeredErrorModel</title>
<g id="a_node3"><a xlink:href="inet.physicallayer.wireless.common.contract.bitlevel.ILayeredErrorModel.html" xlink:title="Module Interface ILayeredErrorModel" target="_parent">
<polygon fill="#fffcaf" stroke="black" stroke-dasharray="5,2" points="190,-19 78,-19 78,0 190,0 190,-19"/>
<text text-anchor="middle" x="134" y="-7" font-family="Helvetica,sans-Serif" font-size="10.00">ILayeredErrorModel</text>
</a>
</g>
</g>
<!-- Ieee80211LayeredOfdmReceiver&#45;&gt;ILayeredErrorModel -->
<g id="edge2" class="edge">
<title>Ieee80211LayeredOfdmReceiver&#45;&gt;ILayeredErrorModel</title>
<path fill="none" stroke="black" d="M226.33,-54.98C208.71,-46.5 181.42,-33.35 161.07,-23.54"/>
<polygon fill="black" stroke="black" points="162.52,-20.36 151.99,-19.17 159.48,-26.66 162.52,-20.36"/>
</g>
<!-- IPulseFilter -->
<g id="node4" class="node">
<title>IPulseFilter</title>
<g id="a_node4"><a xlink:href="inet.physicallayer.wireless.common.contract.bitlevel.IPulseFilter.html" xlink:title="Module Interface IPulseFilter" target="_parent">
<polygon fill="#fffcaf" stroke="black" stroke-dasharray="5,2" points="279.5,-19 208.5,-19 208.5,0 279.5,0 279.5,-19"/>
<text text-anchor="middle" x="244" y="-7" font-family="Helvetica,sans-Serif" font-size="10.00">IPulseFilter</text>
</a>
</g>
</g>
<!-- Ieee80211LayeredOfdmReceiver&#45;&gt;IPulseFilter -->
<g id="edge3" class="edge">
<title>Ieee80211LayeredOfdmReceiver&#45;&gt;IPulseFilter</title>
<path fill="none" stroke="black" d="M244,-54.75C244,-47.8 244,-37.85 244,-29.13"/>
<polygon fill="black" stroke="black" points="247.5,-29.09 244,-19.09 240.5,-29.09 247.5,-29.09"/>
</g>
<!-- IAnalogDigitalConverter -->
<g id="node5" class="node">
<title>IAnalogDigitalConverter</title>
<g id="a_node5"><a xlink:href="inet.physicallayer.wireless.common.contract.bitlevel.IAnalogDigitalConverter.html" xlink:title="Module Interface IAnalogDigitalConverter" target="_parent">
<polygon fill="#fffcaf" stroke="black" stroke-dasharray="5,2" points="432,-19 298,-19 298,0 432,0 432,-19"/>
<text text-anchor="middle" x="365" y="-7" font-family="Helvetica,sans-Serif" font-size="10.00">IAnalogDigitalConverter</text>
</a>
</g>
</g>
<!-- Ieee80211LayeredOfdmReceiver&#45;&gt;IAnalogDigitalConverter -->
<g id="edge4" class="edge">
<title>Ieee80211LayeredOfdmReceiver&#45;&gt;IAnalogDigitalConverter</title>
<path fill="none" stroke="black" d="M263.44,-54.98C282.99,-46.42 313.38,-33.11 335.82,-23.28"/>
<polygon fill="black" stroke="black" points="337.45,-26.39 345.21,-19.17 334.64,-19.98 337.45,-26.39"/>
</g>
<!-- IDemodulator -->
<g id="node6" class="node">
<title>IDemodulator</title>
<g id="a_node6"><a xlink:href="inet.physicallayer.wireless.common.contract.bitlevel.IDemodulator.html" xlink:title="Module Interface IDemodulator" target="_parent">
<polygon fill="#fffcaf" stroke="black" stroke-dasharray="5,2" points="533.5,-19 450.5,-19 450.5,0 533.5,0 533.5,-19"/>
<text text-anchor="middle" x="492" y="-7" font-family="Helvetica,sans-Serif" font-size="10.00">IDemodulator</text>
</a>
</g>
</g>
<!-- Ieee80211LayeredOfdmReceiver&#45;&gt;IDemodulator -->
<g id="edge5" class="edge">
<title>Ieee80211LayeredOfdmReceiver&#45;&gt;IDemodulator</title>
<path fill="none" stroke="black" d="M283.85,-54.98C326.83,-45.8 395.37,-31.15 441.96,-21.19"/>
<polygon fill="black" stroke="black" points="442.79,-24.59 451.84,-19.08 441.33,-17.75 442.79,-24.59"/>
</g>
</g>
</svg>
