<?xml version="1.0" encoding="UTF-8" standalone="no"?>
<!DOCTYPE svg PUBLIC "-//W3C//DTD SVG 1.1//EN"
 "http://www.w3.org/Graphics/SVG/1.1/DTD/svg11.dtd">
<!-- Generated by graphviz version 2.43.0 (0)
 -->
<!-- Title: opp Pages: 1 -->
<svg width="826pt" height="82pt"
 viewBox="0.00 0.00 826.00 82.00" xmlns="http://www.w3.org/2000/svg" xmlns:xlink="http://www.w3.org/1999/xlink">
<g id="graph0" class="graph" transform="scale(1 1) rotate(0) translate(4 78)">
<title>opp</title>
<polygon fill="transparent" stroke="transparent" points="-4,4 -4,-78 822,-78 822,4 -4,4"/>
<!-- PcapRecordingShowcase -->
<g id="node1" class="node">
<title>PcapRecordingShowcase</title>
<g id="a_node1"><a xlink:href="inet.showcases.general.pcaprecording.PcapRecordingShowcase.html" xlink:title="Network PcapRecordingShowcase" target="_parent">
<polygon fill="#9090ff" stroke="black" points="537,-74 400,-74 400,-55 537,-55 537,-74"/>
<text text-anchor="middle" x="468.5" y="-62" font-family="Helvetica,sans-Serif" font-size="10.00">PcapRecordingShowcase</text>
</a>
</g>
</g>
<!-- Ieee80211ScalarRadioMedium -->
<g id="node2" class="node">
<title>Ieee80211ScalarRadioMedium</title>
<g id="a_node2"><a xlink:href="inet.physicallayer.wireless.ieee80211.packetlevel.Ieee80211ScalarRadioMedium.html" xlink:title="Compound Module Ieee80211ScalarRadioMedium" target="_parent">
<polygon fill="#fffcaf" stroke="black" points="165,-19 0,-19 0,0 165,0 165,-19"/>
<text text-anchor="middle" x="82.5" y="-7" font-family="Helvetica,sans-Serif" font-size="10.00">Ieee80211ScalarRadioMedium</text>
</a>
</g>
</g>
<!-- PcapRecordingShowcase&#45;&gt;Ieee80211ScalarRadioMedium -->
<g id="edge1" class="edge">
<title>PcapRecordingShowcase&#45;&gt;Ieee80211ScalarRadioMedium</title>
<path fill="none" stroke="black" d="M406.48,-54.98C337.79,-45.55 227.18,-30.36 154.66,-20.41"/>
<polygon fill="black" stroke="black" points="155.07,-16.93 144.68,-19.04 154.11,-23.87 155.07,-16.93"/>
</g>
<!-- StandardHost -->
<g id="node3" class="node">
<title>StandardHost</title>
<g id="a_node3"><a xlink:href="inet.node.inet.StandardHost.html" xlink:title="Compound Module StandardHost" target="_parent">
<polygon fill="#fffcaf" stroke="black" points="266,-19 183,-19 183,0 266,0 266,-19"/>
<text text-anchor="middle" x="224.5" y="-7" font-family="Helvetica,sans-Serif" font-size="10.00">StandardHost</text>
</a>
</g>
</g>
<!-- PcapRecordingShowcase&#45;&gt;StandardHost -->
<g id="edge2" class="edge">
<title>PcapRecordingShowcase&#45;&gt;StandardHost</title>
<path fill="none" stroke="black" d="M429.3,-54.98C387.09,-45.82 319.85,-31.21 274.02,-21.26"/>
<polygon fill="black" stroke="black" points="274.53,-17.78 264.01,-19.08 273.04,-24.63 274.53,-17.78"/>
</g>
<!-- Ipv4NetworkConfigurator -->
<g id="node4" class="node">
<title>Ipv4NetworkConfigurator</title>
<g id="a_node4"><a xlink:href="inet.networklayer.configurator.ipv4.Ipv4NetworkConfigurator.html" xlink:title="Simple Module Ipv4NetworkConfigurator" target="_parent">
<polygon fill="#fffcaf" stroke="black" points="423,-19 284,-19 284,0 423,0 423,-19"/>
<text text-anchor="middle" x="353.5" y="-7" font-family="Helvetica,sans-Serif" font-size="10.00">Ipv4NetworkConfigurator</text>
</a>
</g>
</g>
<!-- PcapRecordingShowcase&#45;&gt;Ipv4NetworkConfigurator -->
<g id="edge3" class="edge">
<title>PcapRecordingShowcase&#45;&gt;Ipv4NetworkConfigurator</title>
<path fill="none" stroke="black" d="M450.02,-54.98C431.52,-46.46 402.82,-33.23 381.52,-23.41"/>
<polygon fill="black" stroke="black" points="382.86,-20.18 372.31,-19.17 379.93,-26.53 382.86,-20.18"/>
</g>
<!-- Router -->
<g id="node5" class="node">
<title>Router</title>
<g id="a_node5"><a xlink:href="inet.node.inet.Router.html" xlink:title="Compound Module Router" target="_parent">
<polygon fill="#fffcaf" stroke="black" points="495.5,-19 441.5,-19 441.5,0 495.5,0 495.5,-19"/>
<text text-anchor="middle" x="468.5" y="-7" font-family="Helvetica,sans-Serif" font-size="10.00">Router</text>
</a>
</g>
</g>
<!-- PcapRecordingShowcase&#45;&gt;Router -->
<g id="edge4" class="edge">
<title>PcapRecordingShowcase&#45;&gt;Router</title>
<path fill="none" stroke="black" d="M468.5,-54.75C468.5,-47.8 468.5,-37.85 468.5,-29.13"/>
<polygon fill="black" stroke="black" points="472,-29.09 468.5,-19.09 465,-29.09 472,-29.09"/>
</g>
<!-- IntegratedMultiVisualizer -->
<g id="node6" class="node">
<title>IntegratedMultiVisualizer</title>
<g id="a_node6"><a xlink:href="inet.visualizer.common.IntegratedMultiVisualizer.html" xlink:title="Compound Module IntegratedMultiVisualizer" target="_parent">
<polygon fill="#fffcaf" stroke="black" points="653.5,-19 513.5,-19 513.5,0 653.5,0 653.5,-19"/>
<text text-anchor="middle" x="583.5" y="-7" font-family="Helvetica,sans-Serif" font-size="10.00">IntegratedMultiVisualizer</text>
</a>
</g>
</g>
<!-- PcapRecordingShowcase&#45;&gt;IntegratedMultiVisualizer -->
<g id="edge5" class="edge">
<title>PcapRecordingShowcase&#45;&gt;IntegratedMultiVisualizer</title>
<path fill="none" stroke="black" d="M486.98,-54.98C505.48,-46.46 534.18,-33.23 555.48,-23.41"/>
<polygon fill="black" stroke="black" points="557.07,-26.53 564.69,-19.17 554.14,-20.18 557.07,-26.53"/>
</g>
<!-- AdhocHost -->
<g id="node7" class="node">
<title>AdhocHost</title>
<g id="a_node7"><a xlink:href="inet.node.inet.AdhocHost.html" xlink:title="Compound Module AdhocHost" target="_parent">
<polygon fill="#fffcaf" stroke="black" points="741,-19 672,-19 672,0 741,0 741,-19"/>
<text text-anchor="middle" x="706.5" y="-7" font-family="Helvetica,sans-Serif" font-size="10.00">AdhocHost</text>
</a>
</g>
</g>
<!-- PcapRecordingShowcase&#45;&gt;AdhocHost -->
<g id="edge6" class="edge">
<title>PcapRecordingShowcase&#45;&gt;AdhocHost</title>
<path fill="none" stroke="black" d="M506.74,-54.98C549.04,-45.56 617.12,-30.4 661.84,-20.45"/>
<polygon fill="black" stroke="black" points="662.84,-23.81 671.84,-18.22 661.32,-16.98 662.84,-23.81"/>
</g>
<!-- Eth100M -->
<g id="node8" class="node">
<title>Eth100M</title>
<g id="a_node8"><a xlink:href="inet.node.ethernet.Eth100M.html" xlink:title="Channel Eth100M" target="_parent">
<polygon fill="#d0ffd0" stroke="black" points="818,-19 759,-19 759,0 818,0 818,-19"/>
<text text-anchor="middle" x="788.5" y="-7" font-family="Helvetica,sans-Serif" font-size="10.00">Eth100M</text>
</a>
</g>
</g>
<!-- PcapRecordingShowcase&#45;&gt;Eth100M -->
<g id="edge7" class="edge">
<title>PcapRecordingShowcase&#45;&gt;Eth100M</title>
<path fill="none" stroke="black" d="M529.75,-54.98C584.77,-47.07 667.98,-34.46 748.82,-19.23"/>
<polygon fill="black" stroke="black" points="749.5,-22.67 758.67,-17.36 748.19,-15.79 749.5,-22.67"/>
</g>
</g>
</svg>
