<?xml version="1.0" encoding="UTF-8" standalone="no"?>
<!DOCTYPE svg PUBLIC "-//W3C//DTD SVG 1.1//EN"
 "http://www.w3.org/Graphics/SVG/1.1/DTD/svg11.dtd">
<!-- Generated by graphviz version 2.43.0 (0)
 -->
<!-- Title: opp Pages: 1 -->
<svg width="434pt" height="82pt"
 viewBox="0.00 0.00 433.50 82.00" xmlns="http://www.w3.org/2000/svg" xmlns:xlink="http://www.w3.org/1999/xlink">
<g id="graph0" class="graph" transform="scale(1 1) rotate(0) translate(4 78)">
<title>opp</title>
<polygon fill="transparent" stroke="transparent" points="-4,4 -4,-78 429.5,-78 429.5,4 -4,4"/>
<!-- Ieee802154NarrowbandInterface -->
<g id="node1" class="node">
<title>Ieee802154NarrowbandInterface</title>
<g id="a_node1"><a xlink:href="inet.linklayer.ieee802154.Ieee802154NarrowbandInterface.html" xlink:title="Compound Module Ieee802154NarrowbandInterface" target="_parent">
<polygon fill="#fff700" stroke="black" points="252,-74 76,-74 76,-55 252,-55 252,-74"/>
<text text-anchor="middle" x="164" y="-62" font-family="Helvetica,sans-Serif" font-size="10.00">Ieee802154NarrowbandInterface</text>
</a>
</g>
</g>
<!-- IRadio -->
<g id="node2" class="node">
<title>IRadio</title>
<g id="a_node2"><a xlink:href="inet.physicallayer.wireless.common.contract.packetlevel.IRadio.html" xlink:title="Module Interface IRadio" target="_parent">
<polygon fill="#fffcaf" stroke="black" stroke-dasharray="5,2" points="54,-19 0,-19 0,0 54,0 54,-19"/>
<text text-anchor="middle" x="27" y="-7" font-family="Helvetica,sans-Serif" font-size="10.00">IRadio</text>
</a>
</g>
</g>
<!-- Ieee802154NarrowbandInterface&#45;&gt;IRadio -->
<g id="edge1" class="edge">
<title>Ieee802154NarrowbandInterface&#45;&gt;IRadio</title>
<path fill="none" stroke="black" d="M141.99,-54.98C119.55,-46.3 84.52,-32.75 59.01,-22.88"/>
<polygon fill="black" stroke="black" points="60,-19.51 49.41,-19.17 57.48,-26.04 60,-19.51"/>
</g>
<!-- IPacketQueue -->
<g id="node3" class="node">
<title>IPacketQueue</title>
<g id="a_node3"><a xlink:href="inet.queueing.contract.IPacketQueue.html" xlink:title="Module Interface IPacketQueue" target="_parent">
<polygon fill="#fffcaf" stroke="black" stroke-dasharray="5,2" points="155.5,-19 72.5,-19 72.5,0 155.5,0 155.5,-19"/>
<text text-anchor="middle" x="114" y="-7" font-family="Helvetica,sans-Serif" font-size="10.00">IPacketQueue</text>
</a>
</g>
</g>
<!-- Ieee802154NarrowbandInterface&#45;&gt;IPacketQueue -->
<g id="edge2" class="edge">
<title>Ieee802154NarrowbandInterface&#45;&gt;IPacketQueue</title>
<path fill="none" stroke="black" d="M155.74,-54.75C148.54,-47.11 137.89,-35.82 129.15,-26.56"/>
<polygon fill="black" stroke="black" points="131.51,-23.96 122.1,-19.09 126.42,-28.76 131.51,-23.96"/>
</g>
<!-- IdealChannel -->
<g id="node4" class="node">
<title>IdealChannel</title>
<g id="a_node4"><a xlink:href="ned.IdealChannel.html" xlink:title="Channel IdealChannel" target="_parent">
<polygon fill="#d0ffd0" stroke="black" points="254,-19 174,-19 174,0 254,0 254,-19"/>
<text text-anchor="middle" x="214" y="-7" font-family="Helvetica,sans-Serif" font-size="10.00">IdealChannel</text>
</a>
</g>
</g>
<!-- Ieee802154NarrowbandInterface&#45;&gt;IdealChannel -->
<g id="edge3" class="edge">
<title>Ieee802154NarrowbandInterface&#45;&gt;IdealChannel</title>
<path fill="none" stroke="black" d="M172.26,-54.75C179.46,-47.11 190.11,-35.82 198.85,-26.56"/>
<polygon fill="black" stroke="black" points="201.58,-28.76 205.9,-19.09 196.49,-23.96 201.58,-28.76"/>
</g>
<!-- Ieee802154NarrowbandMac -->
<g id="node5" class="node">
<title>Ieee802154NarrowbandMac</title>
<g id="a_node5"><a xlink:href="inet.linklayer.ieee802154.Ieee802154NarrowbandMac.html" xlink:title="Compound Module Ieee802154NarrowbandMac" target="_parent">
<polygon fill="#fffcaf" stroke="black" points="425.5,-19 272.5,-19 272.5,0 425.5,0 425.5,-19"/>
<text text-anchor="middle" x="349" y="-7" font-family="Helvetica,sans-Serif" font-size="10.00">Ieee802154NarrowbandMac</text>
</a>
</g>
</g>
<!-- Ieee802154NarrowbandInterface&#45;&gt;Ieee802154NarrowbandMac -->
<g id="edge4" class="edge">
<title>Ieee802154NarrowbandInterface&#45;&gt;Ieee802154NarrowbandMac</title>
<path fill="none" stroke="black" d="M193.72,-54.98C225.05,-46.01 274.57,-31.82 309.24,-21.89"/>
<polygon fill="black" stroke="black" points="310.39,-25.2 319.04,-19.08 308.47,-18.47 310.39,-25.2"/>
</g>
</g>
</svg>
