<?xml version="1.0" encoding="UTF-8" standalone="no"?>
<!DOCTYPE svg PUBLIC "-//W3C//DTD SVG 1.1//EN"
 "http://www.w3.org/Graphics/SVG/1.1/DTD/svg11.dtd">
<!-- Generated by graphviz version 2.43.0 (0)
 -->
<!-- Title: opp Pages: 1 -->
<svg width="251pt" height="82pt"
 viewBox="0.00 0.00 251.00 82.00" xmlns="http://www.w3.org/2000/svg" xmlns:xlink="http://www.w3.org/1999/xlink">
<g id="graph0" class="graph" transform="scale(1 1) rotate(0) translate(4 78)">
<title>opp</title>
<polygon fill="transparent" stroke="transparent" points="-4,4 -4,-78 247,-78 247,4 -4,4"/>
<!-- Ieee80211OfdmEncoder -->
<g id="node1" class="node">
<title>Ieee80211OfdmEncoder</title>
<g id="a_node1"><a xlink:href="inet.physicallayer.wireless.ieee80211.bitlevel.Ieee80211OfdmEncoder.html" xlink:title="Compound Module Ieee80211OfdmEncoder" target="_parent">
<polygon fill="#fff700" stroke="black" points="186.5,-74 52.5,-74 52.5,-55 186.5,-55 186.5,-74"/>
<text text-anchor="middle" x="119.5" y="-62" font-family="Helvetica,sans-Serif" font-size="10.00">Ieee80211OfdmEncoder</text>
</a>
</g>
</g>
<!-- IScrambler -->
<g id="node2" class="node">
<title>IScrambler</title>
<g id="a_node2"><a xlink:href="inet.physicallayer.wireless.common.contract.bitlevel.IScrambler.html" xlink:title="Module Interface IScrambler" target="_parent">
<polygon fill="#fffcaf" stroke="black" stroke-dasharray="5,2" points="69,-19 0,-19 0,0 69,0 69,-19"/>
<text text-anchor="middle" x="34.5" y="-7" font-family="Helvetica,sans-Serif" font-size="10.00">IScrambler</text>
</a>
</g>
</g>
<!-- Ieee80211OfdmEncoder&#45;&gt;IScrambler -->
<g id="edge1" class="edge">
<title>Ieee80211OfdmEncoder&#45;&gt;IScrambler</title>
<path fill="none" stroke="black" d="M105.84,-54.98C92.66,-46.77 72.47,-34.18 56.93,-24.49"/>
<polygon fill="black" stroke="black" points="58.74,-21.49 48.41,-19.17 55.04,-27.43 58.74,-21.49"/>
</g>
<!-- IFecCoder -->
<g id="node3" class="node">
<title>IFecCoder</title>
<g id="a_node3"><a xlink:href="inet.physicallayer.wireless.common.contract.bitlevel.IFecCoder.html" xlink:title="Module Interface IFecCoder" target="_parent">
<polygon fill="#fffcaf" stroke="black" stroke-dasharray="5,2" points="152,-19 87,-19 87,0 152,0 152,-19"/>
<text text-anchor="middle" x="119.5" y="-7" font-family="Helvetica,sans-Serif" font-size="10.00">IFecCoder</text>
</a>
</g>
</g>
<!-- Ieee80211OfdmEncoder&#45;&gt;IFecCoder -->
<g id="edge2" class="edge">
<title>Ieee80211OfdmEncoder&#45;&gt;IFecCoder</title>
<path fill="none" stroke="black" d="M119.5,-54.75C119.5,-47.8 119.5,-37.85 119.5,-29.13"/>
<polygon fill="black" stroke="black" points="123,-29.09 119.5,-19.09 116,-29.09 123,-29.09"/>
</g>
<!-- IInterleaver -->
<g id="node4" class="node">
<title>IInterleaver</title>
<g id="a_node4"><a xlink:href="inet.physicallayer.wireless.common.contract.bitlevel.IInterleaver.html" xlink:title="Module Interface IInterleaver" target="_parent">
<polygon fill="#fffcaf" stroke="black" stroke-dasharray="5,2" points="243,-19 170,-19 170,0 243,0 243,-19"/>
<text text-anchor="middle" x="206.5" y="-7" font-family="Helvetica,sans-Serif" font-size="10.00">IInterleaver</text>
</a>
</g>
</g>
<!-- Ieee80211OfdmEncoder&#45;&gt;IInterleaver -->
<g id="edge3" class="edge">
<title>Ieee80211OfdmEncoder&#45;&gt;IInterleaver</title>
<path fill="none" stroke="black" d="M133.48,-54.98C146.97,-46.77 167.63,-34.18 183.54,-24.49"/>
<polygon fill="black" stroke="black" points="185.55,-27.36 192.27,-19.17 181.91,-21.38 185.55,-27.36"/>
</g>
</g>
</svg>
