<?xml version="1.0" encoding="UTF-8" standalone="no"?>
<!DOCTYPE svg PUBLIC "-//W3C//DTD SVG 1.1//EN"
 "http://www.w3.org/Graphics/SVG/1.1/DTD/svg11.dtd">
<!-- Generated by graphviz version 2.43.0 (0)
 -->
<!-- Title: opp Pages: 1 -->
<svg width="260pt" height="82pt"
 viewBox="0.00 0.00 260.00 82.00" xmlns="http://www.w3.org/2000/svg" xmlns:xlink="http://www.w3.org/1999/xlink">
<g id="graph0" class="graph" transform="scale(1 1) rotate(0) translate(4 78)">
<title>opp</title>
<polygon fill="transparent" stroke="transparent" points="-4,4 -4,-78 256,-78 256,4 -4,4"/>
<!-- IModulator -->
<g id="node1" class="node">
<title>IModulator</title>
<g id="a_node1"><a xlink:href="inet.physicallayer.wireless.common.contract.bitlevel.IModulator.html" xlink:title="Module Interface IModulator" target="_parent">
<polygon fill="#fff700" stroke="black" stroke-dasharray="5,2" points="146.5,-74 77.5,-74 77.5,-55 146.5,-55 146.5,-74"/>
<text text-anchor="middle" x="112" y="-62" font-family="Helvetica,sans-Serif" font-size="10.00">IModulator</text>
</a>
</g>
</g>
<!-- ApskModulator -->
<g id="node2" class="node">
<title>ApskModulator</title>
<g id="a_node2"><a xlink:href="inet.physicallayer.wireless.apsk.bitlevel.ApskModulator.html" xlink:title="Simple Module ApskModulator" target="_parent">
<polygon fill="#fffcaf" stroke="black" points="90,-19 0,-19 0,0 90,0 90,-19"/>
<text text-anchor="middle" x="45" y="-7" font-family="Helvetica,sans-Serif" font-size="10.00">ApskModulator</text>
</a>
</g>
</g>
<!-- IModulator&#45;&gt;ApskModulator -->
<g id="edge1" class="edge">
<title>IModulator&#45;&gt;ApskModulator</title>
<path fill="none" stroke="black" stroke-dasharray="5,2" d="M101.24,-54.98C88.81,-45.15 68.47,-29.07 55.96,-19.17"/>
</g>
<!-- Ieee80211OfdmModulator -->
<g id="node3" class="node">
<title>Ieee80211OfdmModulator</title>
<g id="a_node3"><a xlink:href="inet.physicallayer.wireless.ieee80211.bitlevel.Ieee80211OfdmModulator.html" xlink:title="Simple Module Ieee80211OfdmModulator" target="_parent">
<polygon fill="#fffcaf" stroke="black" points="252,-19 108,-19 108,0 252,0 252,-19"/>
<text text-anchor="middle" x="180" y="-7" font-family="Helvetica,sans-Serif" font-size="10.00">Ieee80211OfdmModulator</text>
</a>
</g>
</g>
<!-- IModulator&#45;&gt;Ieee80211OfdmModulator -->
<g id="edge2" class="edge">
<title>IModulator&#45;&gt;Ieee80211OfdmModulator</title>
<path fill="none" stroke="black" stroke-dasharray="5,2" d="M122.93,-54.98C135.54,-45.15 156.18,-29.07 168.88,-19.17"/>
</g>
</g>
</svg>
