<?xml version="1.0" encoding="UTF-8" standalone="no"?>
<!DOCTYPE svg PUBLIC "-//W3C//DTD SVG 1.1//EN"
 "http://www.w3.org/Graphics/SVG/1.1/DTD/svg11.dtd">
<!-- Generated by graphviz version 2.43.0 (0)
 -->
<!-- Title: opp Pages: 1 -->
<svg width="331pt" height="82pt"
 viewBox="0.00 0.00 330.50 82.00" xmlns="http://www.w3.org/2000/svg" xmlns:xlink="http://www.w3.org/1999/xlink">
<g id="graph0" class="graph" transform="scale(1 1) rotate(0) translate(4 78)">
<title>opp</title>
<polygon fill="transparent" stroke="transparent" points="-4,4 -4,-78 326.5,-78 326.5,4 -4,4"/>
<!-- IIeee8022Llc -->
<g id="node1" class="node">
<title>IIeee8022Llc</title>
<g id="a_node1"><a xlink:href="inet.linklayer.ieee8022.IIeee8022Llc.html" xlink:title="Module Interface IIeee8022Llc" target="_parent">
<polygon fill="#fff700" stroke="black" stroke-dasharray="5,2" points="191,-74 113,-74 113,-55 191,-55 191,-74"/>
<text text-anchor="middle" x="152" y="-62" font-family="Helvetica,sans-Serif" font-size="10.00">IIeee8022Llc</text>
</a>
</g>
</g>
<!-- Ieee80211Portal -->
<g id="node2" class="node">
<title>Ieee80211Portal</title>
<g id="a_node2"><a xlink:href="inet.linklayer.ieee80211.portal.Ieee80211Portal.html" xlink:title="Simple Module Ieee80211Portal" target="_parent">
<polygon fill="#fffcaf" stroke="black" points="96,-19 0,-19 0,0 96,0 96,-19"/>
<text text-anchor="middle" x="48" y="-7" font-family="Helvetica,sans-Serif" font-size="10.00">Ieee80211Portal</text>
</a>
</g>
</g>
<!-- IIeee8022Llc&#45;&gt;Ieee80211Portal -->
<g id="edge1" class="edge">
<title>IIeee8022Llc&#45;&gt;Ieee80211Portal</title>
<path fill="none" stroke="black" stroke-dasharray="5,2" d="M135.29,-54.98C116,-45.15 84.43,-29.07 65.01,-19.17"/>
</g>
<!-- Ieee8022Llc -->
<g id="node3" class="node">
<title>Ieee8022Llc</title>
<g id="a_node3"><a xlink:href="inet.linklayer.ieee8022.Ieee8022Llc.html" xlink:title="Simple Module Ieee8022Llc" target="_parent">
<polygon fill="#fffcaf" stroke="black" points="189.5,-19 114.5,-19 114.5,0 189.5,0 189.5,-19"/>
<text text-anchor="middle" x="152" y="-7" font-family="Helvetica,sans-Serif" font-size="10.00">Ieee8022Llc</text>
</a>
</g>
</g>
<!-- IIeee8022Llc&#45;&gt;Ieee8022Llc -->
<g id="edge2" class="edge">
<title>IIeee8022Llc&#45;&gt;Ieee8022Llc</title>
<path fill="none" stroke="black" stroke-dasharray="5,2" d="M152,-54.75C152,-44.87 152,-28.9 152,-19.09"/>
</g>
<!-- OmittedIeee8022Llc -->
<g id="node4" class="node">
<title>OmittedIeee8022Llc</title>
<g id="a_node4"><a xlink:href="inet.linklayer.ieee8022.OmittedIeee8022Llc.html" xlink:title="Compound Module OmittedIeee8022Llc" target="_parent">
<polygon fill="#fffcaf" stroke="black" points="322.5,-19 207.5,-19 207.5,0 322.5,0 322.5,-19"/>
<text text-anchor="middle" x="265" y="-7" font-family="Helvetica,sans-Serif" font-size="10.00">OmittedIeee8022Llc</text>
</a>
</g>
</g>
<!-- IIeee8022Llc&#45;&gt;OmittedIeee8022Llc -->
<g id="edge3" class="edge">
<title>IIeee8022Llc&#45;&gt;OmittedIeee8022Llc</title>
<path fill="none" stroke="black" stroke-dasharray="5,2" d="M170.16,-54.98C191.12,-45.15 225.41,-29.07 246.51,-19.17"/>
</g>
</g>
</svg>
