<?xml version="1.0" encoding="UTF-8" standalone="no"?>
<!DOCTYPE svg PUBLIC "-//W3C//DTD SVG 1.1//EN"
 "http://www.w3.org/Graphics/SVG/1.1/DTD/svg11.dtd">
<!-- Generated by graphviz version 2.43.0 (0)
 -->
<!-- Title: opp Pages: 1 -->
<svg width="184pt" height="137pt"
 viewBox="0.00 0.00 183.50 137.00" xmlns="http://www.w3.org/2000/svg" xmlns:xlink="http://www.w3.org/1999/xlink">
<g id="graph0" class="graph" transform="scale(1 1) rotate(0) translate(4 133)">
<title>opp</title>
<polygon fill="transparent" stroke="transparent" points="-4,4 -4,-133 179.5,-133 179.5,4 -4,4"/>
<!-- DymoRouter -->
<g id="node1" class="node">
<title>DymoRouter</title>
<g id="a_node1"><a xlink:href="inet.node.dymo.DymoRouter.html" xlink:title="Compound Module DymoRouter" target="_parent">
<polygon fill="#fff700" stroke="black" points="131,-74 53,-74 53,-55 131,-55 131,-74"/>
<text text-anchor="middle" x="92" y="-62" font-family="Helvetica,sans-Serif" font-size="10.00">DymoRouter</text>
</a>
</g>
</g>
<!-- IdealChannel -->
<g id="node2" class="node">
<title>IdealChannel</title>
<g id="a_node2"><a xlink:href="ned.IdealChannel.html" xlink:title="Channel IdealChannel" target="_parent">
<polygon fill="#d0ffd0" stroke="black" points="90,-19 10,-19 10,0 90,0 90,-19"/>
<text text-anchor="middle" x="50" y="-7" font-family="Helvetica,sans-Serif" font-size="10.00">IdealChannel</text>
</a>
</g>
</g>
<!-- DymoRouter&#45;&gt;IdealChannel -->
<g id="edge1" class="edge">
<title>DymoRouter&#45;&gt;IdealChannel</title>
<path fill="none" stroke="black" d="M85.06,-54.75C79.13,-47.26 70.43,-36.28 63.18,-27.13"/>
<polygon fill="black" stroke="black" points="65.76,-24.75 56.81,-19.09 60.27,-29.1 65.76,-24.75"/>
</g>
<!-- Dymo -->
<g id="node3" class="node">
<title>Dymo</title>
<g id="a_node3"><a xlink:href="inet.routing.dymo.Dymo.html" xlink:title="Simple Module Dymo" target="_parent">
<polygon fill="#fffcaf" stroke="black" points="162,-19 108,-19 108,0 162,0 162,-19"/>
<text text-anchor="middle" x="135" y="-7" font-family="Helvetica,sans-Serif" font-size="10.00">Dymo</text>
</a>
</g>
</g>
<!-- DymoRouter&#45;&gt;Dymo -->
<g id="edge2" class="edge">
<title>DymoRouter&#45;&gt;Dymo</title>
<path fill="none" stroke="black" d="M99.1,-54.75C105.17,-47.26 114.09,-36.28 121.51,-27.13"/>
<polygon fill="black" stroke="black" points="124.45,-29.06 128.03,-19.09 119.01,-24.65 124.45,-29.06"/>
</g>
<!-- DYMONetwork -->
<g id="node4" class="node">
<title>DYMONetwork</title>
<g id="a_node4"><a xlink:href="inet.examples.manetrouting.dymo.DYMONetwork.html" xlink:title="Network DYMONetwork" target="_parent">
<polygon fill="#d0d0ff" stroke="black" points="88,-129 0,-129 0,-110 88,-110 88,-129"/>
<text text-anchor="middle" x="44" y="-117" font-family="Helvetica,sans-Serif" font-size="10.00">DYMONetwork</text>
</a>
</g>
</g>
<!-- DYMONetwork&#45;&gt;DymoRouter -->
<g id="edge3" class="edge">
<title>DYMONetwork&#45;&gt;DymoRouter</title>
<path fill="none" stroke="black" d="M51.93,-109.75C58.85,-102.11 69.07,-90.82 77.45,-81.56"/>
<polygon fill="black" stroke="black" points="80.1,-83.85 84.22,-74.09 74.91,-79.15 80.1,-83.85"/>
</g>
<!-- MultiRadio -->
<g id="node5" class="node">
<title>MultiRadio</title>
<g id="a_node5"><a xlink:href="inet.examples.manetrouting.multiradio.MultiRadio.html" xlink:title="Network MultiRadio" target="_parent">
<polygon fill="#d0d0ff" stroke="black" points="175.5,-129 106.5,-129 106.5,-110 175.5,-110 175.5,-129"/>
<text text-anchor="middle" x="141" y="-117" font-family="Helvetica,sans-Serif" font-size="10.00">MultiRadio</text>
</a>
</g>
</g>
<!-- MultiRadio&#45;&gt;DymoRouter -->
<g id="edge4" class="edge">
<title>MultiRadio&#45;&gt;DymoRouter</title>
<path fill="none" stroke="black" d="M132.91,-109.75C125.84,-102.11 115.41,-90.82 106.85,-81.56"/>
<polygon fill="black" stroke="black" points="109.3,-79.06 99.94,-74.09 104.16,-83.81 109.3,-79.06"/>
</g>
</g>
</svg>
