<?xml version="1.0" encoding="UTF-8" standalone="no"?>
<!DOCTYPE svg PUBLIC "-//W3C//DTD SVG 1.1//EN"
 "http://www.w3.org/Graphics/SVG/1.1/DTD/svg11.dtd">
<!-- Generated by graphviz version 2.43.0 (0)
 -->
<!-- Title: opp Pages: 1 -->
<svg width="282pt" height="82pt"
 viewBox="0.00 0.00 281.50 82.00" xmlns="http://www.w3.org/2000/svg" xmlns:xlink="http://www.w3.org/1999/xlink">
<g id="graph0" class="graph" transform="scale(1 1) rotate(0) translate(4 78)">
<title>opp</title>
<polygon fill="transparent" stroke="transparent" points="-4,4 -4,-78 277.5,-78 277.5,4 -4,4"/>
<!-- RedDropperQueue -->
<g id="node1" class="node">
<title>RedDropperQueue</title>
<g id="a_node1"><a xlink:href="inet.queueing.queue.RedDropperQueue.html" xlink:title="Compound Module RedDropperQueue" target="_parent">
<polygon fill="#fff700" stroke="black" points="194.5,-74 88.5,-74 88.5,-55 194.5,-55 194.5,-74"/>
<text text-anchor="middle" x="141.5" y="-62" font-family="Helvetica,sans-Serif" font-size="10.00">RedDropperQueue</text>
</a>
</g>
</g>
<!-- IPacketQueue -->
<g id="node2" class="node">
<title>IPacketQueue</title>
<g id="a_node2"><a xlink:href="inet.queueing.contract.IPacketQueue.html" xlink:title="Module Interface IPacketQueue" target="_parent">
<polygon fill="#fffcaf" stroke="black" stroke-dasharray="5,2" points="83,-19 0,-19 0,0 83,0 83,-19"/>
<text text-anchor="middle" x="41.5" y="-7" font-family="Helvetica,sans-Serif" font-size="10.00">IPacketQueue</text>
</a>
</g>
</g>
<!-- RedDropperQueue&#45;&gt;IPacketQueue -->
<g id="edge1" class="edge">
<title>RedDropperQueue&#45;&gt;IPacketQueue</title>
<path fill="none" stroke="black" d="M125.43,-54.98C109.64,-46.61 85.28,-33.7 66.87,-23.95"/>
<polygon fill="black" stroke="black" points="68.33,-20.76 57.86,-19.17 65.06,-26.95 68.33,-20.76"/>
</g>
<!-- IdealChannel -->
<g id="node3" class="node">
<title>IdealChannel</title>
<g id="a_node3"><a xlink:href="ned.IdealChannel.html" xlink:title="Channel IdealChannel" target="_parent">
<polygon fill="#d0ffd0" stroke="black" points="181.5,-19 101.5,-19 101.5,0 181.5,0 181.5,-19"/>
<text text-anchor="middle" x="141.5" y="-7" font-family="Helvetica,sans-Serif" font-size="10.00">IdealChannel</text>
</a>
</g>
</g>
<!-- RedDropperQueue&#45;&gt;IdealChannel -->
<g id="edge2" class="edge">
<title>RedDropperQueue&#45;&gt;IdealChannel</title>
<path fill="none" stroke="black" d="M141.5,-54.75C141.5,-47.8 141.5,-37.85 141.5,-29.13"/>
<polygon fill="black" stroke="black" points="145,-29.09 141.5,-19.09 138,-29.09 145,-29.09"/>
</g>
<!-- RedDropper -->
<g id="node4" class="node">
<title>RedDropper</title>
<g id="a_node4"><a xlink:href="inet.queueing.filter.RedDropper.html" xlink:title="Simple Module RedDropper" target="_parent">
<polygon fill="#fffcaf" stroke="black" points="273.5,-19 199.5,-19 199.5,0 273.5,0 273.5,-19"/>
<text text-anchor="middle" x="236.5" y="-7" font-family="Helvetica,sans-Serif" font-size="10.00">RedDropper</text>
</a>
</g>
</g>
<!-- RedDropperQueue&#45;&gt;RedDropper -->
<g id="edge3" class="edge">
<title>RedDropperQueue&#45;&gt;RedDropper</title>
<path fill="none" stroke="black" d="M156.76,-54.98C171.63,-46.69 194.48,-33.94 211.92,-24.22"/>
<polygon fill="black" stroke="black" points="213.93,-27.1 220.96,-19.17 210.52,-20.99 213.93,-27.1"/>
</g>
</g>
</svg>
