<?xml version="1.0" encoding="UTF-8" standalone="no"?>
<!DOCTYPE svg PUBLIC "-//W3C//DTD SVG 1.1//EN"
 "http://www.w3.org/Graphics/SVG/1.1/DTD/svg11.dtd">
<!-- Generated by graphviz version 2.43.0 (0)
 -->
<!-- Title: opp Pages: 1 -->
<svg width="505pt" height="82pt"
 viewBox="0.00 0.00 505.00 82.00" xmlns="http://www.w3.org/2000/svg" xmlns:xlink="http://www.w3.org/1999/xlink">
<g id="graph0" class="graph" transform="scale(1 1) rotate(0) translate(4 78)">
<title>opp</title>
<polygon fill="transparent" stroke="transparent" points="-4,4 -4,-78 501,-78 501,4 -4,4"/>
<!-- OSPF_BackboneAndTwoStubsTest -->
<g id="node1" class="node">
<title>OSPF_BackboneAndTwoStubsTest</title>
<g id="a_node1"><a xlink:href="inet.examples.ospfv2.areatests.OSPF_BackboneAndTwoStubsTest.html" xlink:title="Network OSPF_BackboneAndTwoStubsTest" target="_parent">
<polygon fill="#9090ff" stroke="black" points="363,-74 184,-74 184,-55 363,-55 363,-74"/>
<text text-anchor="middle" x="273.5" y="-62" font-family="Helvetica,sans-Serif" font-size="10.00">OSPF_BackboneAndTwoStubsTest</text>
</a>
</g>
</g>
<!-- OspfRouter -->
<g id="node2" class="node">
<title>OspfRouter</title>
<g id="a_node2"><a xlink:href="inet.node.ospfv2.OspfRouter.html" xlink:title="Compound Module OspfRouter" target="_parent">
<polygon fill="#fffcaf" stroke="black" points="71,-19 0,-19 0,0 71,0 71,-19"/>
<text text-anchor="middle" x="35.5" y="-7" font-family="Helvetica,sans-Serif" font-size="10.00">OspfRouter</text>
</a>
</g>
</g>
<!-- OSPF_BackboneAndTwoStubsTest&#45;&gt;OspfRouter -->
<g id="edge1" class="edge">
<title>OSPF_BackboneAndTwoStubsTest&#45;&gt;OspfRouter</title>
<path fill="none" stroke="black" d="M235.26,-54.98C193.33,-45.65 126.06,-30.67 81.33,-20.71"/>
<polygon fill="black" stroke="black" points="81.83,-17.23 71.31,-18.47 80.31,-24.06 81.83,-17.23"/>
</g>
<!-- Ipv4NetworkConfigurator -->
<g id="node3" class="node">
<title>Ipv4NetworkConfigurator</title>
<g id="a_node3"><a xlink:href="inet.networklayer.configurator.ipv4.Ipv4NetworkConfigurator.html" xlink:title="Simple Module Ipv4NetworkConfigurator" target="_parent">
<polygon fill="#fffcaf" stroke="black" points="228,-19 89,-19 89,0 228,0 228,-19"/>
<text text-anchor="middle" x="158.5" y="-7" font-family="Helvetica,sans-Serif" font-size="10.00">Ipv4NetworkConfigurator</text>
</a>
</g>
</g>
<!-- OSPF_BackboneAndTwoStubsTest&#45;&gt;Ipv4NetworkConfigurator -->
<g id="edge2" class="edge">
<title>OSPF_BackboneAndTwoStubsTest&#45;&gt;Ipv4NetworkConfigurator</title>
<path fill="none" stroke="black" d="M255.02,-54.98C236.52,-46.46 207.82,-33.23 186.52,-23.41"/>
<polygon fill="black" stroke="black" points="187.86,-20.18 177.31,-19.17 184.93,-26.53 187.86,-20.18"/>
</g>
<!-- C -->
<g id="node4" class="node">
<title>C</title>
<g id="a_node4"><a xlink:href="inet.examples.ospfv2.areatests.OSPF_BackboneAndTwoStubsTest.C.html" xlink:title="Channel C" target="_parent">
<polygon fill="#d0ffd0" stroke="black" points="300.5,-19 246.5,-19 246.5,0 300.5,0 300.5,-19"/>
<text text-anchor="middle" x="273.5" y="-7" font-family="Helvetica,sans-Serif" font-size="10.00">C</text>
</a>
</g>
</g>
<!-- OSPF_BackboneAndTwoStubsTest&#45;&gt;C -->
<g id="edge3" class="edge">
<title>OSPF_BackboneAndTwoStubsTest&#45;&gt;C</title>
<path fill="none" stroke="black" d="M273.5,-54.75C273.5,-47.8 273.5,-37.85 273.5,-29.13"/>
<polygon fill="black" stroke="black" points="277,-29.09 273.5,-19.09 270,-29.09 277,-29.09"/>
</g>
<!-- TestArea -->
<g id="node5" class="node">
<title>TestArea</title>
<g id="a_node5"><a xlink:href="inet.examples.ospfv2.areatests.TestArea.html" xlink:title="Compound Module TestArea" target="_parent">
<polygon fill="#fffcaf" stroke="black" points="378,-19 319,-19 319,0 378,0 378,-19"/>
<text text-anchor="middle" x="348.5" y="-7" font-family="Helvetica,sans-Serif" font-size="10.00">TestArea</text>
</a>
</g>
</g>
<!-- OSPF_BackboneAndTwoStubsTest&#45;&gt;TestArea -->
<g id="edge4" class="edge">
<title>OSPF_BackboneAndTwoStubsTest&#45;&gt;TestArea</title>
<path fill="none" stroke="black" d="M285.55,-54.98C296.96,-46.92 314.33,-34.65 327.93,-25.03"/>
<polygon fill="black" stroke="black" points="330.08,-27.8 336.23,-19.17 326.04,-22.08 330.08,-27.8"/>
</g>
<!-- ScenarioManager -->
<g id="node6" class="node">
<title>ScenarioManager</title>
<g id="a_node6"><a xlink:href="inet.common.scenario.ScenarioManager.html" xlink:title="Simple Module ScenarioManager" target="_parent">
<polygon fill="#fffcaf" stroke="black" points="497,-19 396,-19 396,0 497,0 497,-19"/>
<text text-anchor="middle" x="446.5" y="-7" font-family="Helvetica,sans-Serif" font-size="10.00">ScenarioManager</text>
</a>
</g>
</g>
<!-- OSPF_BackboneAndTwoStubsTest&#45;&gt;ScenarioManager -->
<g id="edge5" class="edge">
<title>OSPF_BackboneAndTwoStubsTest&#45;&gt;ScenarioManager</title>
<path fill="none" stroke="black" d="M301.3,-54.98C330.47,-46.05 376.5,-31.94 408.9,-22.02"/>
<polygon fill="black" stroke="black" points="409.95,-25.36 418.49,-19.08 407.9,-18.66 409.95,-25.36"/>
</g>
</g>
</svg>
