<?xml version="1.0" encoding="UTF-8" standalone="no"?>
<!DOCTYPE svg PUBLIC "-//W3C//DTD SVG 1.1//EN"
 "http://www.w3.org/Graphics/SVG/1.1/DTD/svg11.dtd">
<!-- Generated by graphviz version 2.43.0 (0)
 -->
<!-- Title: opp Pages: 1 -->
<svg width="145pt" height="137pt"
 viewBox="0.00 0.00 145.00 137.00" xmlns="http://www.w3.org/2000/svg" xmlns:xlink="http://www.w3.org/1999/xlink">
<g id="graph0" class="graph" transform="scale(1 1) rotate(0) translate(4 133)">
<title>opp</title>
<polygon fill="transparent" stroke="transparent" points="-4,4 -4,-133 141,-133 141,4 -4,4"/>
<!-- ThruputMeteringChannel -->
<g id="node1" class="node">
<title>ThruputMeteringChannel</title>
<g id="a_node1"><a xlink:href="inet.common.misc.ThruputMeteringChannel.html" xlink:title="Channel ThruputMeteringChannel" target="_parent">
<polygon fill="#90ff90" stroke="black" points="137,-74 0,-74 0,-55 137,-55 137,-74"/>
<text text-anchor="middle" x="68.5" y="-62" font-family="Helvetica,sans-Serif" font-size="10.00">ThruputMeteringChannel</text>
</a>
</g>
</g>
<!-- C -->
<g id="node3" class="node">
<title>C</title>
<g id="a_node3"><a xlink:href="inet.examples.ospfv2.fulltest.C.html" xlink:title="Channel C" target="_parent">
<polygon fill="#d0ffd0" stroke="black" points="95.5,-19 41.5,-19 41.5,0 95.5,0 95.5,-19"/>
<text text-anchor="middle" x="68.5" y="-7" font-family="Helvetica,sans-Serif" font-size="10.00">C</text>
</a>
</g>
</g>
<!-- ThruputMeteringChannel&#45;&gt;C -->
<g id="edge2" class="edge">
<title>ThruputMeteringChannel&#45;&gt;C</title>
<path fill="none" stroke="black" d="M68.5,-54.75C68.5,-44.87 68.5,-28.9 68.5,-19.09"/>
</g>
<!-- DatarateChannel -->
<g id="node2" class="node">
<title>DatarateChannel</title>
<g id="a_node2"><a xlink:href="ned.DatarateChannel.html" xlink:title="Channel DatarateChannel" target="_parent">
<polygon fill="#d0ffd0" stroke="black" points="118,-129 19,-129 19,-110 118,-110 118,-129"/>
<text text-anchor="middle" x="68.5" y="-117" font-family="Helvetica,sans-Serif" font-size="10.00">DatarateChannel</text>
</a>
</g>
</g>
<!-- DatarateChannel&#45;&gt;ThruputMeteringChannel -->
<g id="edge1" class="edge">
<title>DatarateChannel&#45;&gt;ThruputMeteringChannel</title>
<path fill="none" stroke="black" d="M68.5,-109.75C68.5,-99.87 68.5,-83.9 68.5,-74.09"/>
</g>
</g>
</svg>
