<?xml version="1.0" encoding="UTF-8" standalone="no"?>
<!DOCTYPE svg PUBLIC "-//W3C//DTD SVG 1.1//EN"
 "http://www.w3.org/Graphics/SVG/1.1/DTD/svg11.dtd">
<!-- Generated by graphviz version 2.43.0 (0)
 -->
<!-- Title: opp Pages: 1 -->
<svg width="214pt" height="82pt"
 viewBox="0.00 0.00 214.00 82.00" xmlns="http://www.w3.org/2000/svg" xmlns:xlink="http://www.w3.org/1999/xlink">
<g id="graph0" class="graph" transform="scale(1 1) rotate(0) translate(4 78)">
<title>opp</title>
<polygon fill="transparent" stroke="transparent" points="-4,4 -4,-78 210,-78 210,4 -4,4"/>
<!-- ClockBase -->
<g id="node1" class="node">
<title>ClockBase</title>
<g id="a_node1"><a xlink:href="inet.clock.base.ClockBase.html" xlink:title="Compound Module ClockBase" target="_parent">
<polygon fill="#fff700" stroke="black" points="124,-74 56,-74 56,-55 124,-55 124,-74"/>
<text text-anchor="middle" x="90" y="-62" font-family="Helvetica,sans-Serif" font-size="10.00">ClockBase</text>
</a>
</g>
</g>
<!-- IdealClock -->
<g id="node2" class="node">
<title>IdealClock</title>
<g id="a_node2"><a xlink:href="inet.clock.model.IdealClock.html" xlink:title="Compound Module IdealClock" target="_parent">
<polygon fill="#fffcaf" stroke="black" points="68,-19 0,-19 0,0 68,0 68,-19"/>
<text text-anchor="middle" x="34" y="-7" font-family="Helvetica,sans-Serif" font-size="10.00">IdealClock</text>
</a>
</g>
</g>
<!-- ClockBase&#45;&gt;IdealClock -->
<g id="edge1" class="edge">
<title>ClockBase&#45;&gt;IdealClock</title>
<path fill="none" stroke="black" d="M81,-54.98C70.61,-45.15 53.62,-29.07 43.16,-19.17"/>
</g>
<!-- OscillatorBasedClock -->
<g id="node3" class="node">
<title>OscillatorBasedClock</title>
<g id="a_node3"><a xlink:href="inet.clock.model.OscillatorBasedClock.html" xlink:title="Compound Module OscillatorBasedClock" target="_parent">
<polygon fill="#fffcaf" stroke="black" points="206,-19 86,-19 86,0 206,0 206,-19"/>
<text text-anchor="middle" x="146" y="-7" font-family="Helvetica,sans-Serif" font-size="10.00">OscillatorBasedClock</text>
</a>
</g>
</g>
<!-- ClockBase&#45;&gt;OscillatorBasedClock -->
<g id="edge2" class="edge">
<title>ClockBase&#45;&gt;OscillatorBasedClock</title>
<path fill="none" stroke="black" d="M99,-54.98C109.39,-45.15 126.38,-29.07 136.84,-19.17"/>
</g>
</g>
</svg>
