<?xml version="1.0" encoding="UTF-8" standalone="no"?>
<!DOCTYPE svg PUBLIC "-//W3C//DTD SVG 1.1//EN"
 "http://www.w3.org/Graphics/SVG/1.1/DTD/svg11.dtd">
<!-- Generated by graphviz version 2.43.0 (0)
 -->
<!-- Title: opp Pages: 1 -->
<svg width="416pt" height="137pt"
 viewBox="0.00 0.00 416.00 137.00" xmlns="http://www.w3.org/2000/svg" xmlns:xlink="http://www.w3.org/1999/xlink">
<g id="graph0" class="graph" transform="scale(1 1) rotate(0) translate(4 133)">
<title>opp</title>
<polygon fill="transparent" stroke="transparent" points="-4,4 -4,-133 412,-133 412,4 -4,4"/>
<!-- FragmenterBase -->
<g id="node1" class="node">
<title>FragmenterBase</title>
<g id="a_node1"><a xlink:href="inet.protocolelement.fragmentation.base.FragmenterBase.html" xlink:title="Compound Module FragmenterBase" target="_parent">
<polygon fill="#fff700" stroke="black" points="266.5,-74 169.5,-74 169.5,-55 266.5,-55 266.5,-74"/>
<text text-anchor="middle" x="218" y="-62" font-family="Helvetica,sans-Serif" font-size="10.00">FragmenterBase</text>
</a>
</g>
</g>
<!-- FragmentNumberHeaderBasedFragmenter -->
<g id="node3" class="node">
<title>FragmentNumberHeaderBasedFragmenter</title>
<g id="a_node3"><a xlink:href="inet.protocolelement.fragmentation.FragmentNumberHeaderBasedFragmenter.html" xlink:title="Compound Module FragmentNumberHeaderBasedFragmenter" target="_parent">
<polygon fill="#fffcaf" stroke="black" points="224,-19 0,-19 0,0 224,0 224,-19"/>
<text text-anchor="middle" x="112" y="-7" font-family="Helvetica,sans-Serif" font-size="10.00">FragmentNumberHeaderBasedFragmenter</text>
</a>
</g>
</g>
<!-- FragmenterBase&#45;&gt;FragmentNumberHeaderBasedFragmenter -->
<g id="edge2" class="edge">
<title>FragmenterBase&#45;&gt;FragmentNumberHeaderBasedFragmenter</title>
<path fill="none" stroke="black" d="M200.97,-54.98C181.31,-45.15 149.13,-29.07 129.34,-19.17"/>
</g>
<!-- FragmentTagBasedFragmenter -->
<g id="node4" class="node">
<title>FragmentTagBasedFragmenter</title>
<g id="a_node4"><a xlink:href="inet.protocolelement.fragmentation.FragmentTagBasedFragmenter.html" xlink:title="Compound Module FragmentTagBasedFragmenter" target="_parent">
<polygon fill="#fffcaf" stroke="black" points="408,-19 242,-19 242,0 408,0 408,-19"/>
<text text-anchor="middle" x="325" y="-7" font-family="Helvetica,sans-Serif" font-size="10.00">FragmentTagBasedFragmenter</text>
</a>
</g>
</g>
<!-- FragmenterBase&#45;&gt;FragmentTagBasedFragmenter -->
<g id="edge3" class="edge">
<title>FragmenterBase&#45;&gt;FragmentTagBasedFragmenter</title>
<path fill="none" stroke="black" d="M235.19,-54.98C255.04,-45.15 287.52,-29.07 307.5,-19.17"/>
</g>
<!-- PacketPusherBase -->
<g id="node2" class="node">
<title>PacketPusherBase</title>
<g id="a_node2"><a xlink:href="inet.queueing.base.PacketPusherBase.html" xlink:title="Simple Module PacketPusherBase" target="_parent">
<polygon fill="#fffcaf" stroke="black" points="270.5,-129 165.5,-129 165.5,-110 270.5,-110 270.5,-129"/>
<text text-anchor="middle" x="218" y="-117" font-family="Helvetica,sans-Serif" font-size="10.00">PacketPusherBase</text>
</a>
</g>
</g>
<!-- PacketPusherBase&#45;&gt;FragmenterBase -->
<g id="edge1" class="edge">
<title>PacketPusherBase&#45;&gt;FragmenterBase</title>
<path fill="none" stroke="black" d="M218,-109.75C218,-99.87 218,-83.9 218,-74.09"/>
</g>
</g>
</svg>
