<?xml version="1.0" encoding="UTF-8" standalone="no"?>
<!DOCTYPE svg PUBLIC "-//W3C//DTD SVG 1.1//EN"
 "http://www.w3.org/Graphics/SVG/1.1/DTD/svg11.dtd">
<!-- Generated by graphviz version 2.43.0 (0)
 -->
<!-- Title: opp Pages: 1 -->
<svg width="252pt" height="82pt"
 viewBox="0.00 0.00 252.00 82.00" xmlns="http://www.w3.org/2000/svg" xmlns:xlink="http://www.w3.org/1999/xlink">
<g id="graph0" class="graph" transform="scale(1 1) rotate(0) translate(4 78)">
<title>opp</title>
<polygon fill="transparent" stroke="transparent" points="-4,4 -4,-78 248,-78 248,4 -4,4"/>
<!-- PacketBasedTokenGenerator -->
<g id="node1" class="node">
<title>PacketBasedTokenGenerator</title>
<g id="a_node1"><a xlink:href="inet.queueing.tokengenerator.PacketBasedTokenGenerator.html" xlink:title="Simple Module PacketBasedTokenGenerator" target="_parent">
<polygon fill="#fff700" stroke="black" points="201,-19 46,-19 46,0 201,0 201,-19"/>
<text text-anchor="middle" x="123.5" y="-7" font-family="Helvetica,sans-Serif" font-size="10.00">PacketBasedTokenGenerator</text>
</a>
</g>
</g>
<!-- TokenGeneratorBase -->
<g id="node2" class="node">
<title>TokenGeneratorBase</title>
<g id="a_node2"><a xlink:href="inet.queueing.base.TokenGeneratorBase.html" xlink:title="Simple Module TokenGeneratorBase" target="_parent">
<polygon fill="#fffcaf" stroke="black" points="117,-74 0,-74 0,-55 117,-55 117,-74"/>
<text text-anchor="middle" x="58.5" y="-62" font-family="Helvetica,sans-Serif" font-size="10.00">TokenGeneratorBase</text>
</a>
</g>
</g>
<!-- TokenGeneratorBase&#45;&gt;PacketBasedTokenGenerator -->
<g id="edge1" class="edge">
<title>TokenGeneratorBase&#45;&gt;PacketBasedTokenGenerator</title>
<path fill="none" stroke="black" d="M68.94,-54.98C81,-45.15 100.73,-29.07 112.87,-19.17"/>
</g>
<!-- IPassivePacketSink -->
<g id="node3" class="node">
<title>IPassivePacketSink</title>
<g id="a_node3"><a xlink:href="inet.queueing.contract.IPassivePacketSink.html" xlink:title="Module Interface IPassivePacketSink" target="_parent">
<polygon fill="#fffcaf" stroke="black" stroke-dasharray="5,2" points="244,-74 135,-74 135,-55 244,-55 244,-74"/>
<text text-anchor="middle" x="189.5" y="-62" font-family="Helvetica,sans-Serif" font-size="10.00">IPassivePacketSink</text>
</a>
</g>
</g>
<!-- IPassivePacketSink&#45;&gt;PacketBasedTokenGenerator -->
<g id="edge2" class="edge">
<title>IPassivePacketSink&#45;&gt;PacketBasedTokenGenerator</title>
<path fill="none" stroke="black" stroke-dasharray="5,2" d="M178.9,-54.98C166.65,-45.15 146.62,-29.07 134.3,-19.17"/>
</g>
</g>
</svg>
