<?xml version="1.0" encoding="UTF-8" standalone="no"?>
<!DOCTYPE svg PUBLIC "-//W3C//DTD SVG 1.1//EN"
 "http://www.w3.org/Graphics/SVG/1.1/DTD/svg11.dtd">
<!-- Generated by graphviz version 2.43.0 (0)
 -->
<!-- Title: opp Pages: 1 -->
<svg width="278pt" height="82pt"
 viewBox="0.00 0.00 278.00 82.00" xmlns="http://www.w3.org/2000/svg" xmlns:xlink="http://www.w3.org/1999/xlink">
<g id="graph0" class="graph" transform="scale(1 1) rotate(0) translate(4 78)">
<title>opp</title>
<polygon fill="transparent" stroke="transparent" points="-4,4 -4,-78 274,-78 274,4 -4,4"/>
<!-- AutomaticFailureProtectionShowcase -->
<g id="node1" class="node">
<title>AutomaticFailureProtectionShowcase</title>
<g id="a_node1"><a xlink:href="inet.showcases.tsn.combiningfeatures.frerandcs.AutomaticFailureProtectionShowcase.html" xlink:title="Network AutomaticFailureProtectionShowcase" target="_parent">
<polygon fill="#9090ff" stroke="black" points="239.5,-74 42.5,-74 42.5,-55 239.5,-55 239.5,-74"/>
<text text-anchor="middle" x="141" y="-62" font-family="Helvetica,sans-Serif" font-size="10.00">AutomaticFailureProtectionShowcase</text>
</a>
</g>
</g>
<!-- EthernetLink -->
<g id="node2" class="node">
<title>EthernetLink</title>
<g id="a_node2"><a xlink:href="inet.node.ethernet.EthernetLink.html" xlink:title="Channel EthernetLink" target="_parent">
<polygon fill="#d0ffd0" stroke="black" points="78,-19 0,-19 0,0 78,0 78,-19"/>
<text text-anchor="middle" x="39" y="-7" font-family="Helvetica,sans-Serif" font-size="10.00">EthernetLink</text>
</a>
</g>
</g>
<!-- AutomaticFailureProtectionShowcase&#45;&gt;EthernetLink -->
<g id="edge1" class="edge">
<title>AutomaticFailureProtectionShowcase&#45;&gt;EthernetLink</title>
<path fill="none" stroke="black" d="M124.61,-54.98C108.43,-46.57 83.43,-33.59 64.62,-23.81"/>
<polygon fill="black" stroke="black" points="66.17,-20.68 55.69,-19.17 62.95,-26.89 66.17,-20.68"/>
</g>
<!-- LocalTsnSwitch -->
<g id="node3" class="node">
<title>LocalTsnSwitch</title>
<g id="a_node3"><a xlink:href="inet.showcases.tsn.combiningfeatures.frerandcs.LocalTsnSwitch.html" xlink:title="Compound Module LocalTsnSwitch" target="_parent">
<polygon fill="#fffcaf" stroke="black" points="186,-19 96,-19 96,0 186,0 186,-19"/>
<text text-anchor="middle" x="141" y="-7" font-family="Helvetica,sans-Serif" font-size="10.00">LocalTsnSwitch</text>
</a>
</g>
</g>
<!-- AutomaticFailureProtectionShowcase&#45;&gt;LocalTsnSwitch -->
<g id="edge2" class="edge">
<title>AutomaticFailureProtectionShowcase&#45;&gt;LocalTsnSwitch</title>
<path fill="none" stroke="black" d="M141,-54.75C141,-47.8 141,-37.85 141,-29.13"/>
<polygon fill="black" stroke="black" points="144.5,-29.09 141,-19.09 137.5,-29.09 144.5,-29.09"/>
</g>
<!-- TsnDevice -->
<g id="node4" class="node">
<title>TsnDevice</title>
<g id="a_node4"><a xlink:href="inet.node.tsn.TsnDevice.html" xlink:title="Compound Module TsnDevice" target="_parent">
<polygon fill="#fffcaf" stroke="black" points="270,-19 204,-19 204,0 270,0 270,-19"/>
<text text-anchor="middle" x="237" y="-7" font-family="Helvetica,sans-Serif" font-size="10.00">TsnDevice</text>
</a>
</g>
</g>
<!-- AutomaticFailureProtectionShowcase&#45;&gt;TsnDevice -->
<g id="edge3" class="edge">
<title>AutomaticFailureProtectionShowcase&#45;&gt;TsnDevice</title>
<path fill="none" stroke="black" d="M156.42,-54.98C171.45,-46.69 194.54,-33.94 212.16,-24.22"/>
<polygon fill="black" stroke="black" points="214.23,-27.07 221.3,-19.17 210.85,-20.94 214.23,-27.07"/>
</g>
</g>
</svg>
