<?xml version="1.0" encoding="UTF-8" standalone="no"?>
<!DOCTYPE svg PUBLIC "-//W3C//DTD SVG 1.1//EN"
 "http://www.w3.org/Graphics/SVG/1.1/DTD/svg11.dtd">
<!-- Generated by graphviz version 2.43.0 (0)
 -->
<!-- Title: opp Pages: 1 -->
<svg width="510pt" height="82pt"
 viewBox="0.00 0.00 509.50 82.00" xmlns="http://www.w3.org/2000/svg" xmlns:xlink="http://www.w3.org/1999/xlink">
<g id="graph0" class="graph" transform="scale(1 1) rotate(0) translate(4 78)">
<title>opp</title>
<polygon fill="transparent" stroke="transparent" points="-4,4 -4,-78 505.5,-78 505.5,4 -4,4"/>
<!-- SimpleNetworkLayer -->
<g id="node1" class="node">
<title>SimpleNetworkLayer</title>
<g id="a_node1"><a xlink:href="inet.networklayer.common.SimpleNetworkLayer.html" xlink:title="Compound Module SimpleNetworkLayer" target="_parent">
<polygon fill="#fff700" stroke="black" points="340,-74 221,-74 221,-55 340,-55 340,-74"/>
<text text-anchor="middle" x="280.5" y="-62" font-family="Helvetica,sans-Serif" font-size="10.00">SimpleNetworkLayer</text>
</a>
</g>
</g>
<!-- MessageDispatcher -->
<g id="node2" class="node">
<title>MessageDispatcher</title>
<g id="a_node2"><a xlink:href="inet.common.MessageDispatcher.html" xlink:title="Simple Module MessageDispatcher" target="_parent">
<polygon fill="#fffcaf" stroke="black" points="113,-19 0,-19 0,0 113,0 113,-19"/>
<text text-anchor="middle" x="56.5" y="-7" font-family="Helvetica,sans-Serif" font-size="10.00">MessageDispatcher</text>
</a>
</g>
</g>
<!-- SimpleNetworkLayer&#45;&gt;MessageDispatcher -->
<g id="edge1" class="edge">
<title>SimpleNetworkLayer&#45;&gt;MessageDispatcher</title>
<path fill="none" stroke="black" d="M244.51,-54.98C206.01,-45.87 144.81,-31.4 102.76,-21.45"/>
<polygon fill="black" stroke="black" points="103.31,-17.98 92.77,-19.08 101.7,-24.79 103.31,-17.98"/>
</g>
<!-- EchoProtocol -->
<g id="node3" class="node">
<title>EchoProtocol</title>
<g id="a_node3"><a xlink:href="inet.networklayer.common.EchoProtocol.html" xlink:title="Simple Module EchoProtocol" target="_parent">
<polygon fill="#fffcaf" stroke="black" points="211.5,-19 131.5,-19 131.5,0 211.5,0 211.5,-19"/>
<text text-anchor="middle" x="171.5" y="-7" font-family="Helvetica,sans-Serif" font-size="10.00">EchoProtocol</text>
</a>
</g>
</g>
<!-- SimpleNetworkLayer&#45;&gt;EchoProtocol -->
<g id="edge2" class="edge">
<title>SimpleNetworkLayer&#45;&gt;EchoProtocol</title>
<path fill="none" stroke="black" d="M262.99,-54.98C245.53,-46.5 218.49,-33.35 198.33,-23.54"/>
<polygon fill="black" stroke="black" points="199.86,-20.4 189.33,-19.17 196.79,-26.69 199.86,-20.4"/>
</g>
<!-- INetworkProtocol -->
<g id="node4" class="node">
<title>INetworkProtocol</title>
<g id="a_node4"><a xlink:href="inet.networklayer.contract.INetworkProtocol.html" xlink:title="Module Interface INetworkProtocol" target="_parent">
<polygon fill="#fffcaf" stroke="black" stroke-dasharray="5,2" points="331,-19 230,-19 230,0 331,0 331,-19"/>
<text text-anchor="middle" x="280.5" y="-7" font-family="Helvetica,sans-Serif" font-size="10.00">INetworkProtocol</text>
</a>
</g>
</g>
<!-- SimpleNetworkLayer&#45;&gt;INetworkProtocol -->
<g id="edge3" class="edge">
<title>SimpleNetworkLayer&#45;&gt;INetworkProtocol</title>
<path fill="none" stroke="black" d="M280.5,-54.75C280.5,-47.8 280.5,-37.85 280.5,-29.13"/>
<polygon fill="black" stroke="black" points="284,-29.09 280.5,-19.09 277,-29.09 284,-29.09"/>
</g>
<!-- IArp -->
<g id="node5" class="node">
<title>IArp</title>
<g id="a_node5"><a xlink:href="inet.networklayer.contract.IArp.html" xlink:title="Module Interface IArp" target="_parent">
<polygon fill="#fffcaf" stroke="black" stroke-dasharray="5,2" points="403.5,-19 349.5,-19 349.5,0 403.5,0 403.5,-19"/>
<text text-anchor="middle" x="376.5" y="-7" font-family="Helvetica,sans-Serif" font-size="10.00">IArp</text>
</a>
</g>
</g>
<!-- SimpleNetworkLayer&#45;&gt;IArp -->
<g id="edge4" class="edge">
<title>SimpleNetworkLayer&#45;&gt;IArp</title>
<path fill="none" stroke="black" d="M295.92,-54.98C310.95,-46.69 334.04,-33.94 351.66,-24.22"/>
<polygon fill="black" stroke="black" points="353.73,-27.07 360.8,-19.17 350.35,-20.94 353.73,-27.07"/>
</g>
<!-- IdealChannel -->
<g id="node6" class="node">
<title>IdealChannel</title>
<g id="a_node6"><a xlink:href="ned.IdealChannel.html" xlink:title="Channel IdealChannel" target="_parent">
<polygon fill="#d0ffd0" stroke="black" points="501.5,-19 421.5,-19 421.5,0 501.5,0 501.5,-19"/>
<text text-anchor="middle" x="461.5" y="-7" font-family="Helvetica,sans-Serif" font-size="10.00">IdealChannel</text>
</a>
</g>
</g>
<!-- SimpleNetworkLayer&#45;&gt;IdealChannel -->
<g id="edge5" class="edge">
<title>SimpleNetworkLayer&#45;&gt;IdealChannel</title>
<path fill="none" stroke="black" d="M309.58,-54.98C340.1,-46.05 388.26,-31.94 422.16,-22.02"/>
<polygon fill="black" stroke="black" points="423.58,-25.25 432.19,-19.08 421.61,-18.53 423.58,-25.25"/>
</g>
</g>
</svg>
