<?xml version="1.0" encoding="UTF-8" standalone="no"?>
<!DOCTYPE svg PUBLIC "-//W3C//DTD SVG 1.1//EN"
 "http://www.w3.org/Graphics/SVG/1.1/DTD/svg11.dtd">
<!-- Generated by graphviz version 2.43.0 (0)
 -->
<!-- Title: opp Pages: 1 -->
<svg width="238pt" height="82pt"
 viewBox="0.00 0.00 237.50 82.00" xmlns="http://www.w3.org/2000/svg" xmlns:xlink="http://www.w3.org/1999/xlink">
<g id="graph0" class="graph" transform="scale(1 1) rotate(0) translate(4 78)">
<title>opp</title>
<polygon fill="transparent" stroke="transparent" points="-4,4 -4,-78 233.5,-78 233.5,4 -4,4"/>
<!-- RadioCanvasVisualizer -->
<g id="node1" class="node">
<title>RadioCanvasVisualizer</title>
<g id="a_node1"><a xlink:href="inet.visualizer.canvas.physicallayer.RadioCanvasVisualizer.html" xlink:title="Simple Module RadioCanvasVisualizer" target="_parent">
<polygon fill="#fff700" stroke="black" points="184,-19 56,-19 56,0 184,0 184,-19"/>
<text text-anchor="middle" x="120" y="-7" font-family="Helvetica,sans-Serif" font-size="10.00">RadioCanvasVisualizer</text>
</a>
</g>
</g>
<!-- RadioVisualizerBase -->
<g id="node2" class="node">
<title>RadioVisualizerBase</title>
<g id="a_node2"><a xlink:href="inet.visualizer.base.RadioVisualizerBase.html" xlink:title="Simple Module RadioVisualizerBase" target="_parent">
<polygon fill="#fffcaf" stroke="black" points="116,-74 0,-74 0,-55 116,-55 116,-74"/>
<text text-anchor="middle" x="58" y="-62" font-family="Helvetica,sans-Serif" font-size="10.00">RadioVisualizerBase</text>
</a>
</g>
</g>
<!-- RadioVisualizerBase&#45;&gt;RadioCanvasVisualizer -->
<g id="edge1" class="edge">
<title>RadioVisualizerBase&#45;&gt;RadioCanvasVisualizer</title>
<path fill="none" stroke="black" d="M67.96,-54.98C79.46,-45.15 98.28,-29.07 109.86,-19.17"/>
</g>
<!-- IRadioVisualizer -->
<g id="node3" class="node">
<title>IRadioVisualizer</title>
<g id="a_node3"><a xlink:href="inet.visualizer.contract.IRadioVisualizer.html" xlink:title="Module Interface IRadioVisualizer" target="_parent">
<polygon fill="#fffcaf" stroke="black" stroke-dasharray="5,2" points="229.5,-74 134.5,-74 134.5,-55 229.5,-55 229.5,-74"/>
<text text-anchor="middle" x="182" y="-62" font-family="Helvetica,sans-Serif" font-size="10.00">IRadioVisualizer</text>
</a>
</g>
</g>
<!-- IRadioVisualizer&#45;&gt;RadioCanvasVisualizer -->
<g id="edge2" class="edge">
<title>IRadioVisualizer&#45;&gt;RadioCanvasVisualizer</title>
<path fill="none" stroke="black" stroke-dasharray="5,2" d="M172.04,-54.98C160.54,-45.15 141.72,-29.07 130.14,-19.17"/>
</g>
</g>
</svg>
