<?xml version="1.0" encoding="UTF-8" standalone="no"?>
<!DOCTYPE svg PUBLIC "-//W3C//DTD SVG 1.1//EN"
 "http://www.w3.org/Graphics/SVG/1.1/DTD/svg11.dtd">
<!-- Generated by graphviz version 2.43.0 (0)
 -->
<!-- Title: opp Pages: 1 -->
<svg width="222pt" height="82pt"
 viewBox="0.00 0.00 221.50 82.00" xmlns="http://www.w3.org/2000/svg" xmlns:xlink="http://www.w3.org/1999/xlink">
<g id="graph0" class="graph" transform="scale(1 1) rotate(0) translate(4 78)">
<title>opp</title>
<polygon fill="transparent" stroke="transparent" points="-4,4 -4,-78 217.5,-78 217.5,4 -4,4"/>
<!-- IRateControl -->
<g id="node1" class="node">
<title>IRateControl</title>
<g id="a_node1"><a xlink:href="inet.linklayer.ieee80211.mac.contract.IRateControl.html" xlink:title="Module Interface IRateControl" target="_parent">
<polygon fill="#fff700" stroke="black" stroke-dasharray="5,2" points="144,-74 67,-74 67,-55 144,-55 144,-74"/>
<text text-anchor="middle" x="105.5" y="-62" font-family="Helvetica,sans-Serif" font-size="10.00">IRateControl</text>
</a>
</g>
</g>
<!-- AarfRateControl -->
<g id="node2" class="node">
<title>AarfRateControl</title>
<g id="a_node2"><a xlink:href="inet.linklayer.ieee80211.mac.ratecontrol.AarfRateControl.html" xlink:title="Simple Module AarfRateControl" target="_parent">
<polygon fill="#fffcaf" stroke="black" points="95,-19 0,-19 0,0 95,0 95,-19"/>
<text text-anchor="middle" x="47.5" y="-7" font-family="Helvetica,sans-Serif" font-size="10.00">AarfRateControl</text>
</a>
</g>
</g>
<!-- IRateControl&#45;&gt;AarfRateControl -->
<g id="edge1" class="edge">
<title>IRateControl&#45;&gt;AarfRateControl</title>
<path fill="none" stroke="black" stroke-dasharray="5,2" d="M96.18,-54.98C85.42,-45.15 67.82,-29.07 56.99,-19.17"/>
</g>
<!-- OnoeRateControl -->
<g id="node3" class="node">
<title>OnoeRateControl</title>
<g id="a_node3"><a xlink:href="inet.linklayer.ieee80211.mac.ratecontrol.OnoeRateControl.html" xlink:title="Simple Module OnoeRateControl" target="_parent">
<polygon fill="#fffcaf" stroke="black" points="213.5,-19 113.5,-19 113.5,0 213.5,0 213.5,-19"/>
<text text-anchor="middle" x="163.5" y="-7" font-family="Helvetica,sans-Serif" font-size="10.00">OnoeRateControl</text>
</a>
</g>
</g>
<!-- IRateControl&#45;&gt;OnoeRateControl -->
<g id="edge2" class="edge">
<title>IRateControl&#45;&gt;OnoeRateControl</title>
<path fill="none" stroke="black" stroke-dasharray="5,2" d="M114.82,-54.98C125.58,-45.15 143.18,-29.07 154.01,-19.17"/>
</g>
</g>
</svg>
