<?xml version="1.0" encoding="UTF-8" standalone="no"?>
<!DOCTYPE svg PUBLIC "-//W3C//DTD SVG 1.1//EN"
 "http://www.w3.org/Graphics/SVG/1.1/DTD/svg11.dtd">
<!-- Generated by graphviz version 2.43.0 (0)
 -->
<!-- Title: opp Pages: 1 -->
<svg width="467pt" height="82pt"
 viewBox="0.00 0.00 467.00 82.00" xmlns="http://www.w3.org/2000/svg" xmlns:xlink="http://www.w3.org/1999/xlink">
<g id="graph0" class="graph" transform="scale(1 1) rotate(0) translate(4 78)">
<title>opp</title>
<polygon fill="transparent" stroke="transparent" points="-4,4 -4,-78 463,-78 463,4 -4,4"/>
<!-- RateControlTest -->
<g id="node1" class="node">
<title>RateControlTest</title>
<g id="a_node1"><a xlink:href="inet.examples.wireless.ratecontrol.RateControlTest.html" xlink:title="Network RateControlTest" target="_parent">
<polygon fill="#9090ff" stroke="black" points="302.5,-74 208.5,-74 208.5,-55 302.5,-55 302.5,-74"/>
<text text-anchor="middle" x="255.5" y="-62" font-family="Helvetica,sans-Serif" font-size="10.00">RateControlTest</text>
</a>
</g>
</g>
<!-- Ieee80211ScalarRadioMedium -->
<g id="node2" class="node">
<title>Ieee80211ScalarRadioMedium</title>
<g id="a_node2"><a xlink:href="inet.physicallayer.wireless.ieee80211.packetlevel.Ieee80211ScalarRadioMedium.html" xlink:title="Compound Module Ieee80211ScalarRadioMedium" target="_parent">
<polygon fill="#fffcaf" stroke="black" points="165,-19 0,-19 0,0 165,0 165,-19"/>
<text text-anchor="middle" x="82.5" y="-7" font-family="Helvetica,sans-Serif" font-size="10.00">Ieee80211ScalarRadioMedium</text>
</a>
</g>
</g>
<!-- RateControlTest&#45;&gt;Ieee80211ScalarRadioMedium -->
<g id="edge1" class="edge">
<title>RateControlTest&#45;&gt;Ieee80211ScalarRadioMedium</title>
<path fill="none" stroke="black" d="M227.7,-54.98C198.53,-46.05 152.5,-31.94 120.1,-22.02"/>
<polygon fill="black" stroke="black" points="121.1,-18.66 110.51,-19.08 119.05,-25.36 121.1,-18.66"/>
</g>
<!-- SinkClient -->
<g id="node3" class="node">
<title>SinkClient</title>
<g id="a_node3"><a xlink:href="inet.examples.wireless.ratecontrol.SinkClient.html" xlink:title="Compound Module SinkClient" target="_parent">
<polygon fill="#fffcaf" stroke="black" points="249.5,-19 183.5,-19 183.5,0 249.5,0 249.5,-19"/>
<text text-anchor="middle" x="216.5" y="-7" font-family="Helvetica,sans-Serif" font-size="10.00">SinkClient</text>
</a>
</g>
</g>
<!-- RateControlTest&#45;&gt;SinkClient -->
<g id="edge2" class="edge">
<title>RateControlTest&#45;&gt;SinkClient</title>
<path fill="none" stroke="black" d="M249.06,-54.75C243.61,-47.34 235.64,-36.5 228.94,-27.41"/>
<polygon fill="black" stroke="black" points="231.57,-25.07 222.82,-19.09 225.93,-29.22 231.57,-25.07"/>
</g>
<!-- Client -->
<g id="node4" class="node">
<title>Client</title>
<g id="a_node4"><a xlink:href="inet.examples.wireless.ratecontrol.Client.html" xlink:title="Compound Module Client" target="_parent">
<polygon fill="#fffcaf" stroke="black" points="321.5,-19 267.5,-19 267.5,0 321.5,0 321.5,-19"/>
<text text-anchor="middle" x="294.5" y="-7" font-family="Helvetica,sans-Serif" font-size="10.00">Client</text>
</a>
</g>
</g>
<!-- RateControlTest&#45;&gt;Client -->
<g id="edge3" class="edge">
<title>RateControlTest&#45;&gt;Client</title>
<path fill="none" stroke="black" d="M261.94,-54.75C267.39,-47.34 275.36,-36.5 282.06,-27.41"/>
<polygon fill="black" stroke="black" points="285.07,-29.22 288.18,-19.09 279.43,-25.07 285.07,-29.22"/>
</g>
<!-- PhysicalEnvironment -->
<g id="node5" class="node">
<title>PhysicalEnvironment</title>
<g id="a_node5"><a xlink:href="inet.environment.common.PhysicalEnvironment.html" xlink:title="Compound Module PhysicalEnvironment" target="_parent">
<polygon fill="#fffcaf" stroke="black" points="459,-19 340,-19 340,0 459,0 459,-19"/>
<text text-anchor="middle" x="399.5" y="-7" font-family="Helvetica,sans-Serif" font-size="10.00">PhysicalEnvironment</text>
</a>
</g>
</g>
<!-- RateControlTest&#45;&gt;PhysicalEnvironment -->
<g id="edge4" class="edge">
<title>RateControlTest&#45;&gt;PhysicalEnvironment</title>
<path fill="none" stroke="black" d="M278.64,-54.98C302.32,-46.27 339.37,-32.63 366.21,-22.75"/>
<polygon fill="black" stroke="black" points="367.77,-25.91 375.94,-19.17 365.35,-19.34 367.77,-25.91"/>
</g>
</g>
</svg>
