<?xml version="1.0" encoding="UTF-8" standalone="no"?>
<!DOCTYPE svg PUBLIC "-//W3C//DTD SVG 1.1//EN"
 "http://www.w3.org/Graphics/SVG/1.1/DTD/svg11.dtd">
<!-- Generated by graphviz version 2.43.0 (0)
 -->
<!-- Title: opp Pages: 1 -->
<svg width="258pt" height="82pt"
 viewBox="0.00 0.00 258.00 82.00" xmlns="http://www.w3.org/2000/svg" xmlns:xlink="http://www.w3.org/1999/xlink">
<g id="graph0" class="graph" transform="scale(1 1) rotate(0) translate(4 78)">
<title>opp</title>
<polygon fill="transparent" stroke="transparent" points="-4,4 -4,-78 254,-78 254,4 -4,4"/>
<!-- PacketFlowCanvasVisualizer -->
<g id="node1" class="node">
<title>PacketFlowCanvasVisualizer</title>
<g id="a_node1"><a xlink:href="inet.visualizer.canvas.flow.PacketFlowCanvasVisualizer.html" xlink:title="Simple Module PacketFlowCanvasVisualizer" target="_parent">
<polygon fill="#fff700" stroke="black" points="199.5,-19 44.5,-19 44.5,0 199.5,0 199.5,-19"/>
<text text-anchor="middle" x="122" y="-7" font-family="Helvetica,sans-Serif" font-size="10.00">PacketFlowCanvasVisualizer</text>
</a>
</g>
</g>
<!-- PathVisualizerBase -->
<g id="node2" class="node">
<title>PathVisualizerBase</title>
<g id="a_node2"><a xlink:href="inet.visualizer.base.PathVisualizerBase.html" xlink:title="Simple Module PathVisualizerBase" target="_parent">
<polygon fill="#fffcaf" stroke="black" points="110,-74 0,-74 0,-55 110,-55 110,-74"/>
<text text-anchor="middle" x="55" y="-62" font-family="Helvetica,sans-Serif" font-size="10.00">PathVisualizerBase</text>
</a>
</g>
</g>
<!-- PathVisualizerBase&#45;&gt;PacketFlowCanvasVisualizer -->
<g id="edge1" class="edge">
<title>PathVisualizerBase&#45;&gt;PacketFlowCanvasVisualizer</title>
<path fill="none" stroke="black" d="M65.76,-54.98C78.19,-45.15 98.53,-29.07 111.04,-19.17"/>
</g>
<!-- IPacketFlowVisualizer -->
<g id="node3" class="node">
<title>IPacketFlowVisualizer</title>
<g id="a_node3"><a xlink:href="inet.visualizer.contract.IPacketFlowVisualizer.html" xlink:title="Module Interface IPacketFlowVisualizer" target="_parent">
<polygon fill="#fffcaf" stroke="black" stroke-dasharray="5,2" points="250,-74 128,-74 128,-55 250,-55 250,-74"/>
<text text-anchor="middle" x="189" y="-62" font-family="Helvetica,sans-Serif" font-size="10.00">IPacketFlowVisualizer</text>
</a>
</g>
</g>
<!-- IPacketFlowVisualizer&#45;&gt;PacketFlowCanvasVisualizer -->
<g id="edge2" class="edge">
<title>IPacketFlowVisualizer&#45;&gt;PacketFlowCanvasVisualizer</title>
<path fill="none" stroke="black" stroke-dasharray="5,2" d="M178.24,-54.98C165.81,-45.15 145.47,-29.07 132.96,-19.17"/>
</g>
</g>
</svg>
