<?xml version="1.0" encoding="UTF-8" standalone="no"?>
<!DOCTYPE svg PUBLIC "-//W3C//DTD SVG 1.1//EN"
 "http://www.w3.org/Graphics/SVG/1.1/DTD/svg11.dtd">
<!-- Generated by graphviz version 2.43.0 (0)
 -->
<!-- Title: opp Pages: 1 -->
<svg width="134pt" height="82pt"
 viewBox="0.00 0.00 134.00 82.00" xmlns="http://www.w3.org/2000/svg" xmlns:xlink="http://www.w3.org/1999/xlink">
<g id="graph0" class="graph" transform="scale(1 1) rotate(0) translate(4 78)">
<title>opp</title>
<polygon fill="transparent" stroke="transparent" points="-4,4 -4,-78 130,-78 130,4 -4,4"/>
<!-- IIgmp -->
<g id="node1" class="node">
<title>IIgmp</title>
<g id="a_node1"><a xlink:href="inet.networklayer.ipv4.IIgmp.html" xlink:title="Module Interface IIgmp" target="_parent">
<polygon fill="#fff700" stroke="black" stroke-dasharray="5,2" points="90,-74 36,-74 36,-55 90,-55 90,-74"/>
<text text-anchor="middle" x="63" y="-62" font-family="Helvetica,sans-Serif" font-size="10.00">IIgmp</text>
</a>
</g>
</g>
<!-- Igmpv2 -->
<g id="node2" class="node">
<title>Igmpv2</title>
<g id="a_node2"><a xlink:href="inet.networklayer.ipv4.Igmpv2.html" xlink:title="Simple Module Igmpv2" target="_parent">
<polygon fill="#fffcaf" stroke="black" points="54,-19 0,-19 0,0 54,0 54,-19"/>
<text text-anchor="middle" x="27" y="-7" font-family="Helvetica,sans-Serif" font-size="10.00">Igmpv2</text>
</a>
</g>
</g>
<!-- IIgmp&#45;&gt;Igmpv2 -->
<g id="edge1" class="edge">
<title>IIgmp&#45;&gt;Igmpv2</title>
<path fill="none" stroke="black" stroke-dasharray="5,2" d="M57.06,-54.75C50.35,-44.87 39.5,-28.9 32.83,-19.09"/>
</g>
<!-- Igmpv3 -->
<g id="node3" class="node">
<title>Igmpv3</title>
<g id="a_node3"><a xlink:href="inet.networklayer.ipv4.Igmpv3.html" xlink:title="Simple Module Igmpv3" target="_parent">
<polygon fill="#fffcaf" stroke="black" points="126,-19 72,-19 72,0 126,0 126,-19"/>
<text text-anchor="middle" x="99" y="-7" font-family="Helvetica,sans-Serif" font-size="10.00">Igmpv3</text>
</a>
</g>
</g>
<!-- IIgmp&#45;&gt;Igmpv3 -->
<g id="edge2" class="edge">
<title>IIgmp&#45;&gt;Igmpv3</title>
<path fill="none" stroke="black" stroke-dasharray="5,2" d="M68.94,-54.75C75.65,-44.87 86.5,-28.9 93.17,-19.09"/>
</g>
</g>
</svg>
