<?xml version="1.0" encoding="UTF-8" standalone="no"?>
<!DOCTYPE svg PUBLIC "-//W3C//DTD SVG 1.1//EN"
 "http://www.w3.org/Graphics/SVG/1.1/DTD/svg11.dtd">
<!-- Generated by graphviz version 2.43.0 (0)
 -->
<!-- Title: opp Pages: 1 -->
<svg width="224pt" height="82pt"
 viewBox="0.00 0.00 224.00 82.00" xmlns="http://www.w3.org/2000/svg" xmlns:xlink="http://www.w3.org/1999/xlink">
<g id="graph0" class="graph" transform="scale(1 1) rotate(0) translate(4 78)">
<title>opp</title>
<polygon fill="transparent" stroke="transparent" points="-4,4 -4,-78 220,-78 220,4 -4,4"/>
<!-- BasicMobilityShowcase -->
<g id="node1" class="node">
<title>BasicMobilityShowcase</title>
<g id="a_node1"><a xlink:href="inet.showcases.mobility.basic.BasicMobilityShowcase.html" xlink:title="Network BasicMobilityShowcase" target="_parent">
<polygon fill="#9090ff" stroke="black" points="181,-74 50,-74 50,-55 181,-55 181,-74"/>
<text text-anchor="middle" x="115.5" y="-62" font-family="Helvetica,sans-Serif" font-size="10.00">BasicMobilityShowcase</text>
</a>
</g>
</g>
<!-- IntegratedVisualizer -->
<g id="node2" class="node">
<title>IntegratedVisualizer</title>
<g id="a_node2"><a xlink:href="inet.visualizer.common.IntegratedVisualizer.html" xlink:title="Compound Module IntegratedVisualizer" target="_parent">
<polygon fill="#fffcaf" stroke="black" points="115,-19 0,-19 0,0 115,0 115,-19"/>
<text text-anchor="middle" x="57.5" y="-7" font-family="Helvetica,sans-Serif" font-size="10.00">IntegratedVisualizer</text>
</a>
</g>
</g>
<!-- BasicMobilityShowcase&#45;&gt;IntegratedVisualizer -->
<g id="edge1" class="edge">
<title>BasicMobilityShowcase&#45;&gt;IntegratedVisualizer</title>
<path fill="none" stroke="black" d="M106.18,-54.98C97.69,-47.23 84.94,-35.58 74.62,-26.14"/>
<polygon fill="black" stroke="black" points="76.73,-23.33 66.99,-19.17 72.01,-28.5 76.73,-23.33"/>
</g>
<!-- StandardHost -->
<g id="node3" class="node">
<title>StandardHost</title>
<g id="a_node3"><a xlink:href="inet.node.inet.StandardHost.html" xlink:title="Compound Module StandardHost" target="_parent">
<polygon fill="#fffcaf" stroke="black" points="216,-19 133,-19 133,0 216,0 216,-19"/>
<text text-anchor="middle" x="174.5" y="-7" font-family="Helvetica,sans-Serif" font-size="10.00">StandardHost</text>
</a>
</g>
</g>
<!-- BasicMobilityShowcase&#45;&gt;StandardHost -->
<g id="edge2" class="edge">
<title>BasicMobilityShowcase&#45;&gt;StandardHost</title>
<path fill="none" stroke="black" d="M124.98,-54.98C133.7,-47.15 146.84,-35.34 157.4,-25.86"/>
<polygon fill="black" stroke="black" points="159.75,-28.46 164.85,-19.17 155.07,-23.25 159.75,-28.46"/>
</g>
</g>
</svg>
