<?xml version="1.0" encoding="UTF-8" standalone="no"?>
<!DOCTYPE svg PUBLIC "-//W3C//DTD SVG 1.1//EN"
 "http://www.w3.org/Graphics/SVG/1.1/DTD/svg11.dtd">
<!-- Generated by graphviz version 2.43.0 (0)
 -->
<!-- Title: opp Pages: 1 -->
<svg width="1808pt" height="137pt"
 viewBox="0.00 0.00 1808.00 137.00" xmlns="http://www.w3.org/2000/svg" xmlns:xlink="http://www.w3.org/1999/xlink">
<g id="graph0" class="graph" transform="scale(1 1) rotate(0) translate(4 133)">
<title>opp</title>
<polygon fill="transparent" stroke="transparent" points="-4,4 -4,-133 1804,-133 1804,4 -4,4"/>
<!-- PacketClassifierBase -->
<g id="node1" class="node">
<title>PacketClassifierBase</title>
<g id="a_node1"><a xlink:href="inet.queueing.base.PacketClassifierBase.html" xlink:title="Simple Module PacketClassifierBase" target="_parent">
<polygon fill="#fff700" stroke="black" points="1025,-74 908,-74 908,-55 1025,-55 1025,-74"/>
<text text-anchor="middle" x="966.5" y="-62" font-family="Helvetica,sans-Serif" font-size="10.00">PacketClassifierBase</text>
</a>
</g>
</g>
<!-- BehaviorAggregateClassifier -->
<g id="node3" class="node">
<title>BehaviorAggregateClassifier</title>
<g id="a_node3"><a xlink:href="inet.networklayer.diffserv.BehaviorAggregateClassifier.html" xlink:title="Simple Module BehaviorAggregateClassifier" target="_parent">
<polygon fill="#fffcaf" stroke="black" points="155,-19 0,-19 0,0 155,0 155,-19"/>
<text text-anchor="middle" x="77.5" y="-7" font-family="Helvetica,sans-Serif" font-size="10.00">BehaviorAggregateClassifier</text>
</a>
</g>
</g>
<!-- PacketClassifierBase&#45;&gt;BehaviorAggregateClassifier -->
<g id="edge2" class="edge">
<title>PacketClassifierBase&#45;&gt;BehaviorAggregateClassifier</title>
<path fill="none" stroke="black" d="M907.58,-61.08C774.83,-55.44 442.24,-40.26 164.5,-19 161.47,-18.77 158.39,-18.52 155.27,-18.26"/>
</g>
<!-- ContentBasedClassifier -->
<g id="node4" class="node">
<title>ContentBasedClassifier</title>
<g id="a_node4"><a xlink:href="inet.queueing.classifier.ContentBasedClassifier.html" xlink:title="Simple Module ContentBasedClassifier" target="_parent">
<polygon fill="#fffcaf" stroke="black" points="303.5,-19 173.5,-19 173.5,0 303.5,0 303.5,-19"/>
<text text-anchor="middle" x="238.5" y="-7" font-family="Helvetica,sans-Serif" font-size="10.00">ContentBasedClassifier</text>
</a>
</g>
</g>
<!-- PacketClassifierBase&#45;&gt;ContentBasedClassifier -->
<g id="edge3" class="edge">
<title>PacketClassifierBase&#45;&gt;ContentBasedClassifier</title>
<path fill="none" stroke="black" d="M907.8,-60.42C793.22,-54.21 531.8,-39.04 312.5,-19 309.67,-18.74 306.77,-18.46 303.85,-18.17"/>
</g>
<!-- EthernetFrameClassifier -->
<g id="node5" class="node">
<title>EthernetFrameClassifier</title>
<g id="a_node5"><a xlink:href="inet.linklayer.ethernet.common.EthernetFrameClassifier.html" xlink:title="Simple Module EthernetFrameClassifier" target="_parent">
<polygon fill="#fffcaf" stroke="black" points="455.5,-19 321.5,-19 321.5,0 455.5,0 455.5,-19"/>
<text text-anchor="middle" x="388.5" y="-7" font-family="Helvetica,sans-Serif" font-size="10.00">EthernetFrameClassifier</text>
</a>
</g>
</g>
<!-- PacketClassifierBase&#45;&gt;EthernetFrameClassifier -->
<g id="edge4" class="edge">
<title>PacketClassifierBase&#45;&gt;EthernetFrameClassifier</title>
<path fill="none" stroke="black" d="M907.72,-58.73C813.94,-51.02 624.69,-35.06 464.5,-19 461.59,-18.71 458.63,-18.4 455.63,-18.09"/>
</g>
<!-- LabelClassifier -->
<g id="node6" class="node">
<title>LabelClassifier</title>
<g id="a_node6"><a xlink:href="inet.queueing.classifier.LabelClassifier.html" xlink:title="Simple Module LabelClassifier" target="_parent">
<polygon fill="#fffcaf" stroke="black" points="561.5,-19 473.5,-19 473.5,0 561.5,0 561.5,-19"/>
<text text-anchor="middle" x="517.5" y="-7" font-family="Helvetica,sans-Serif" font-size="10.00">LabelClassifier</text>
</a>
</g>
</g>
<!-- PacketClassifierBase&#45;&gt;LabelClassifier -->
<g id="edge5" class="edge">
<title>PacketClassifierBase&#45;&gt;LabelClassifier</title>
<path fill="none" stroke="black" d="M907.69,-57.77C830.26,-50.01 689.95,-35.28 570.5,-19 567.64,-18.61 564.69,-18.19 561.72,-17.75"/>
</g>
<!-- MarkovClassifier -->
<g id="node7" class="node">
<title>MarkovClassifier</title>
<g id="a_node7"><a xlink:href="inet.queueing.classifier.MarkovClassifier.html" xlink:title="Simple Module MarkovClassifier" target="_parent">
<polygon fill="#fffcaf" stroke="black" points="677.5,-19 579.5,-19 579.5,0 677.5,0 677.5,-19"/>
<text text-anchor="middle" x="628.5" y="-7" font-family="Helvetica,sans-Serif" font-size="10.00">MarkovClassifier</text>
</a>
</g>
</g>
<!-- PacketClassifierBase&#45;&gt;MarkovClassifier -->
<g id="edge6" class="edge">
<title>PacketClassifierBase&#45;&gt;MarkovClassifier</title>
<path fill="none" stroke="black" d="M912.19,-54.98C847.44,-44.83 740.15,-28.01 677.72,-18.22"/>
</g>
<!-- MultiFieldClassifier -->
<g id="node8" class="node">
<title>MultiFieldClassifier</title>
<g id="a_node8"><a xlink:href="inet.networklayer.diffserv.MultiFieldClassifier.html" xlink:title="Simple Module MultiFieldClassifier" target="_parent">
<polygon fill="#fffcaf" stroke="black" points="805.5,-19 695.5,-19 695.5,0 805.5,0 805.5,-19"/>
<text text-anchor="middle" x="750.5" y="-7" font-family="Helvetica,sans-Serif" font-size="10.00">MultiFieldClassifier</text>
</a>
</g>
</g>
<!-- PacketClassifierBase&#45;&gt;MultiFieldClassifier -->
<g id="edge7" class="edge">
<title>PacketClassifierBase&#45;&gt;MultiFieldClassifier</title>
<path fill="none" stroke="black" d="M931.8,-54.98C891.61,-45.12 825.78,-28.97 785.48,-19.08"/>
</g>
<!-- MultiTokenBucketClassifier -->
<g id="node9" class="node">
<title>MultiTokenBucketClassifier</title>
<g id="a_node9"><a xlink:href="inet.queueing.classifier.MultiTokenBucketClassifier.html" xlink:title="Simple Module MultiTokenBucketClassifier" target="_parent">
<polygon fill="#fffcaf" stroke="black" points="971,-19 824,-19 824,0 971,0 971,-19"/>
<text text-anchor="middle" x="897.5" y="-7" font-family="Helvetica,sans-Serif" font-size="10.00">MultiTokenBucketClassifier</text>
</a>
</g>
</g>
<!-- PacketClassifierBase&#45;&gt;MultiTokenBucketClassifier -->
<g id="edge8" class="edge">
<title>PacketClassifierBase&#45;&gt;MultiTokenBucketClassifier</title>
<path fill="none" stroke="black" d="M955.41,-54.98C942.61,-45.15 921.67,-29.07 908.79,-19.17"/>
</g>
<!-- PacketClassifier -->
<g id="node10" class="node">
<title>PacketClassifier</title>
<g id="a_node10"><a xlink:href="inet.queueing.classifier.PacketClassifier.html" xlink:title="Simple Module PacketClassifier" target="_parent">
<polygon fill="#fffcaf" stroke="black" points="1082,-19 989,-19 989,0 1082,0 1082,-19"/>
<text text-anchor="middle" x="1035.5" y="-7" font-family="Helvetica,sans-Serif" font-size="10.00">PacketClassifier</text>
</a>
</g>
</g>
<!-- PacketClassifierBase&#45;&gt;PacketClassifier -->
<g id="edge9" class="edge">
<title>PacketClassifierBase&#45;&gt;PacketClassifier</title>
<path fill="none" stroke="black" d="M977.59,-54.98C990.39,-45.15 1011.33,-29.07 1024.21,-19.17"/>
</g>
<!-- PcpClassifier -->
<g id="node11" class="node">
<title>PcpClassifier</title>
<g id="a_node11"><a xlink:href="inet.linklayer.ieee8021q.PcpClassifier.html" xlink:title="Simple Module PcpClassifier" target="_parent">
<polygon fill="#fffcaf" stroke="black" points="1179,-19 1100,-19 1100,0 1179,0 1179,-19"/>
<text text-anchor="middle" x="1139.5" y="-7" font-family="Helvetica,sans-Serif" font-size="10.00">PcpClassifier</text>
</a>
</g>
</g>
<!-- PacketClassifierBase&#45;&gt;PcpClassifier -->
<g id="edge10" class="edge">
<title>PacketClassifierBase&#45;&gt;PcpClassifier</title>
<path fill="none" stroke="black" d="M994.3,-54.98C1026.48,-45.12 1079.21,-28.97 1111.49,-19.08"/>
</g>
<!-- PcpTrafficClassClassifier -->
<g id="node12" class="node">
<title>PcpTrafficClassClassifier</title>
<g id="a_node12"><a xlink:href="inet.linklayer.ieee8021q.PcpTrafficClassClassifier.html" xlink:title="Compound Module PcpTrafficClassClassifier" target="_parent">
<polygon fill="#fffcaf" stroke="black" points="1331.5,-19 1197.5,-19 1197.5,0 1331.5,0 1331.5,-19"/>
<text text-anchor="middle" x="1264.5" y="-7" font-family="Helvetica,sans-Serif" font-size="10.00">PcpTrafficClassClassifier</text>
</a>
</g>
</g>
<!-- PacketClassifierBase&#45;&gt;PcpTrafficClassClassifier -->
<g id="edge11" class="edge">
<title>PacketClassifierBase&#45;&gt;PcpTrafficClassClassifier</title>
<path fill="none" stroke="black" d="M1014.38,-54.98C1069.82,-45.12 1160.64,-28.97 1216.25,-19.08"/>
</g>
<!-- PriorityClassifier -->
<g id="node13" class="node">
<title>PriorityClassifier</title>
<g id="a_node13"><a xlink:href="inet.queueing.classifier.PriorityClassifier.html" xlink:title="Simple Module PriorityClassifier" target="_parent">
<polygon fill="#fffcaf" stroke="black" points="1447,-19 1350,-19 1350,0 1447,0 1447,-19"/>
<text text-anchor="middle" x="1398.5" y="-7" font-family="Helvetica,sans-Serif" font-size="10.00">PriorityClassifier</text>
</a>
</g>
</g>
<!-- PacketClassifierBase&#45;&gt;PriorityClassifier -->
<g id="edge12" class="edge">
<title>PacketClassifierBase&#45;&gt;PriorityClassifier</title>
<path fill="none" stroke="black" d="M1025.19,-57.01C1098.88,-48.76 1229.17,-33.78 1340.5,-19 1343.53,-18.6 1346.64,-18.17 1349.78,-17.74"/>
</g>
<!-- StreamClassifier -->
<g id="node14" class="node">
<title>StreamClassifier</title>
<g id="a_node14"><a xlink:href="inet.protocolelement.redundancy.StreamClassifier.html" xlink:title="Simple Module StreamClassifier" target="_parent">
<polygon fill="#fffcaf" stroke="black" points="1562,-19 1465,-19 1465,0 1562,0 1562,-19"/>
<text text-anchor="middle" x="1513.5" y="-7" font-family="Helvetica,sans-Serif" font-size="10.00">StreamClassifier</text>
</a>
</g>
</g>
<!-- PacketClassifierBase&#45;&gt;StreamClassifier -->
<g id="edge13" class="edge">
<title>PacketClassifierBase&#45;&gt;StreamClassifier</title>
<path fill="none" stroke="black" d="M1025.07,-59.27C1117.09,-52.39 1301.08,-37.63 1456.5,-19 1459.18,-18.68 1461.93,-18.33 1464.71,-17.96"/>
</g>
<!-- TokenBucketClassifier -->
<g id="node15" class="node">
<title>TokenBucketClassifier</title>
<g id="a_node15"><a xlink:href="inet.queueing.classifier.TokenBucketClassifier.html" xlink:title="Simple Module TokenBucketClassifier" target="_parent">
<polygon fill="#fffcaf" stroke="black" points="1702.5,-19 1580.5,-19 1580.5,0 1702.5,0 1702.5,-19"/>
<text text-anchor="middle" x="1641.5" y="-7" font-family="Helvetica,sans-Serif" font-size="10.00">TokenBucketClassifier</text>
</a>
</g>
</g>
<!-- PacketClassifierBase&#45;&gt;TokenBucketClassifier -->
<g id="edge14" class="edge">
<title>PacketClassifierBase&#45;&gt;TokenBucketClassifier</title>
<path fill="none" stroke="black" d="M1025.41,-60.1C1133.68,-53.64 1371.55,-38.48 1571.5,-19 1574.42,-18.72 1577.42,-18.41 1580.44,-18.09"/>
</g>
<!-- WrrClassifier -->
<g id="node16" class="node">
<title>WrrClassifier</title>
<g id="a_node16"><a xlink:href="inet.queueing.classifier.WrrClassifier.html" xlink:title="Simple Module WrrClassifier" target="_parent">
<polygon fill="#fffcaf" stroke="black" points="1800,-19 1721,-19 1721,0 1800,0 1800,-19"/>
<text text-anchor="middle" x="1760.5" y="-7" font-family="Helvetica,sans-Serif" font-size="10.00">WrrClassifier</text>
</a>
</g>
</g>
<!-- PacketClassifierBase&#45;&gt;WrrClassifier -->
<g id="edge15" class="edge">
<title>PacketClassifierBase&#45;&gt;WrrClassifier</title>
<path fill="none" stroke="black" d="M1025.13,-62.23C1151.14,-59.02 1456.99,-48.58 1711.5,-19 1714.59,-18.64 1717.78,-18.22 1720.97,-17.75"/>
</g>
<!-- PacketProcessorBase -->
<g id="node2" class="node">
<title>PacketProcessorBase</title>
<g id="a_node2"><a xlink:href="inet.queueing.base.PacketProcessorBase.html" xlink:title="Simple Module PacketProcessorBase" target="_parent">
<polygon fill="#fffcaf" stroke="black" points="1026,-129 907,-129 907,-110 1026,-110 1026,-129"/>
<text text-anchor="middle" x="966.5" y="-117" font-family="Helvetica,sans-Serif" font-size="10.00">PacketProcessorBase</text>
</a>
</g>
</g>
<!-- PacketProcessorBase&#45;&gt;PacketClassifierBase -->
<g id="edge1" class="edge">
<title>PacketProcessorBase&#45;&gt;PacketClassifierBase</title>
<path fill="none" stroke="black" d="M966.5,-109.75C966.5,-99.87 966.5,-83.9 966.5,-74.09"/>
</g>
</g>
</svg>
