<?xml version="1.0" encoding="UTF-8" standalone="no"?>
<!DOCTYPE svg PUBLIC "-//W3C//DTD SVG 1.1//EN"
 "http://www.w3.org/Graphics/SVG/1.1/DTD/svg11.dtd">
<!-- Generated by graphviz version 2.43.0 (0)
 -->
<!-- Title: opp Pages: 1 -->
<svg width="148pt" height="137pt"
 viewBox="0.00 0.00 148.00 137.00" xmlns="http://www.w3.org/2000/svg" xmlns:xlink="http://www.w3.org/1999/xlink">
<g id="graph0" class="graph" transform="scale(1 1) rotate(0) translate(4 133)">
<title>opp</title>
<polygon fill="transparent" stroke="transparent" points="-4,4 -4,-133 144,-133 144,4 -4,4"/>
<!-- MediumVisualizerBase -->
<g id="node1" class="node">
<title>MediumVisualizerBase</title>
<g id="a_node1"><a xlink:href="inet.visualizer.base.MediumVisualizerBase.html" xlink:title="Simple Module MediumVisualizerBase" target="_parent">
<polygon fill="#fff700" stroke="black" points="134,-74 6,-74 6,-55 134,-55 134,-74"/>
<text text-anchor="middle" x="70" y="-62" font-family="Helvetica,sans-Serif" font-size="10.00">MediumVisualizerBase</text>
</a>
</g>
</g>
<!-- MediumCanvasVisualizer -->
<g id="node3" class="node">
<title>MediumCanvasVisualizer</title>
<g id="a_node3"><a xlink:href="inet.visualizer.canvas.physicallayer.MediumCanvasVisualizer.html" xlink:title="Simple Module MediumCanvasVisualizer" target="_parent">
<polygon fill="#fffcaf" stroke="black" points="140,-19 0,-19 0,0 140,0 140,-19"/>
<text text-anchor="middle" x="70" y="-7" font-family="Helvetica,sans-Serif" font-size="10.00">MediumCanvasVisualizer</text>
</a>
</g>
</g>
<!-- MediumVisualizerBase&#45;&gt;MediumCanvasVisualizer -->
<g id="edge2" class="edge">
<title>MediumVisualizerBase&#45;&gt;MediumCanvasVisualizer</title>
<path fill="none" stroke="black" d="M70,-54.75C70,-44.87 70,-28.9 70,-19.09"/>
</g>
<!-- VisualizerBase -->
<g id="node2" class="node">
<title>VisualizerBase</title>
<g id="a_node2"><a xlink:href="inet.visualizer.base.VisualizerBase.html" xlink:title="Simple Module VisualizerBase" target="_parent">
<polygon fill="#fffcaf" stroke="black" points="114.5,-129 25.5,-129 25.5,-110 114.5,-110 114.5,-129"/>
<text text-anchor="middle" x="70" y="-117" font-family="Helvetica,sans-Serif" font-size="10.00">VisualizerBase</text>
</a>
</g>
</g>
<!-- VisualizerBase&#45;&gt;MediumVisualizerBase -->
<g id="edge1" class="edge">
<title>VisualizerBase&#45;&gt;MediumVisualizerBase</title>
<path fill="none" stroke="black" d="M70,-109.75C70,-99.87 70,-83.9 70,-74.09"/>
</g>
</g>
</svg>
