<?xml version="1.0" encoding="UTF-8" standalone="no"?>
<!DOCTYPE svg PUBLIC "-//W3C//DTD SVG 1.1//EN"
 "http://www.w3.org/Graphics/SVG/1.1/DTD/svg11.dtd">
<!-- Generated by graphviz version 2.43.0 (0)
 -->
<!-- Title: opp Pages: 1 -->
<svg width="242pt" height="82pt"
 viewBox="0.00 0.00 241.50 82.00" xmlns="http://www.w3.org/2000/svg" xmlns:xlink="http://www.w3.org/1999/xlink">
<g id="graph0" class="graph" transform="scale(1 1) rotate(0) translate(4 78)">
<title>opp</title>
<polygon fill="transparent" stroke="transparent" points="-4,4 -4,-78 237.5,-78 237.5,4 -4,4"/>
<!-- OpenStreetMapSceneCanvasVisualizer -->
<g id="node1" class="node">
<title>OpenStreetMapSceneCanvasVisualizer</title>
<g id="a_node1"><a xlink:href="inet.visualizer.canvas.scene.OpenStreetMapSceneCanvasVisualizer.html" xlink:title="Simple Module OpenStreetMapSceneCanvasVisualizer" target="_parent">
<polygon fill="#fff700" stroke="black" points="225,-19 19,-19 19,0 225,0 225,-19"/>
<text text-anchor="middle" x="122" y="-7" font-family="Helvetica,sans-Serif" font-size="10.00">OpenStreetMapSceneCanvasVisualizer</text>
</a>
</g>
</g>
<!-- SceneVisualizerBase -->
<g id="node2" class="node">
<title>SceneVisualizerBase</title>
<g id="a_node2"><a xlink:href="inet.visualizer.base.SceneVisualizerBase.html" xlink:title="Simple Module SceneVisualizerBase" target="_parent">
<polygon fill="#fffcaf" stroke="black" points="118,-74 0,-74 0,-55 118,-55 118,-74"/>
<text text-anchor="middle" x="59" y="-62" font-family="Helvetica,sans-Serif" font-size="10.00">SceneVisualizerBase</text>
</a>
</g>
</g>
<!-- SceneVisualizerBase&#45;&gt;OpenStreetMapSceneCanvasVisualizer -->
<g id="edge1" class="edge">
<title>SceneVisualizerBase&#45;&gt;OpenStreetMapSceneCanvasVisualizer</title>
<path fill="none" stroke="black" d="M69.12,-54.98C80.81,-45.15 99.93,-29.07 111.69,-19.17"/>
</g>
<!-- ISceneVisualizer -->
<g id="node3" class="node">
<title>ISceneVisualizer</title>
<g id="a_node3"><a xlink:href="inet.visualizer.contract.ISceneVisualizer.html" xlink:title="Module Interface ISceneVisualizer" target="_parent">
<polygon fill="#fffcaf" stroke="black" stroke-dasharray="5,2" points="233.5,-74 136.5,-74 136.5,-55 233.5,-55 233.5,-74"/>
<text text-anchor="middle" x="185" y="-62" font-family="Helvetica,sans-Serif" font-size="10.00">ISceneVisualizer</text>
</a>
</g>
</g>
<!-- ISceneVisualizer&#45;&gt;OpenStreetMapSceneCanvasVisualizer -->
<g id="edge2" class="edge">
<title>ISceneVisualizer&#45;&gt;OpenStreetMapSceneCanvasVisualizer</title>
<path fill="none" stroke="black" stroke-dasharray="5,2" d="M174.88,-54.98C163.19,-45.15 144.07,-29.07 132.31,-19.17"/>
</g>
</g>
</svg>
