<?xml version="1.0" encoding="UTF-8" standalone="no"?>
<!DOCTYPE svg PUBLIC "-//W3C//DTD SVG 1.1//EN"
 "http://www.w3.org/Graphics/SVG/1.1/DTD/svg11.dtd">
<!-- Generated by graphviz version 2.43.0 (0)
 -->
<!-- Title: opp Pages: 1 -->
<svg width="332pt" height="82pt"
 viewBox="0.00 0.00 332.00 82.00" xmlns="http://www.w3.org/2000/svg" xmlns:xlink="http://www.w3.org/1999/xlink">
<g id="graph0" class="graph" transform="scale(1 1) rotate(0) translate(4 78)">
<title>opp</title>
<polygon fill="transparent" stroke="transparent" points="-4,4 -4,-78 328,-78 328,4 -4,4"/>
<!-- IEnergySource -->
<g id="node1" class="node">
<title>IEnergySource</title>
<g id="a_node1"><a xlink:href="inet.power.contract.IEnergySource.html" xlink:title="Module Interface IEnergySource" target="_parent">
<polygon fill="#fff700" stroke="black" stroke-dasharray="5,2" points="205,-74 119,-74 119,-55 205,-55 205,-74"/>
<text text-anchor="middle" x="162" y="-62" font-family="Helvetica,sans-Serif" font-size="10.00">IEnergySource</text>
</a>
</g>
</g>
<!-- ICcEnergySource -->
<g id="node2" class="node">
<title>ICcEnergySource</title>
<g id="a_node2"><a xlink:href="inet.power.contract.ICcEnergySource.html" xlink:title="Module Interface ICcEnergySource" target="_parent">
<polygon fill="#fffcaf" stroke="black" stroke-dasharray="5,2" points="98,-19 0,-19 0,0 98,0 98,-19"/>
<text text-anchor="middle" x="49" y="-7" font-family="Helvetica,sans-Serif" font-size="10.00">ICcEnergySource</text>
</a>
</g>
</g>
<!-- IEnergySource&#45;&gt;ICcEnergySource -->
<g id="edge1" class="edge">
<title>IEnergySource&#45;&gt;ICcEnergySource</title>
<path fill="none" stroke="black" d="M143.84,-54.98C122.88,-45.15 88.59,-29.07 67.49,-19.17"/>
</g>
<!-- IEnergyStorage -->
<g id="node3" class="node">
<title>IEnergyStorage</title>
<g id="a_node3"><a xlink:href="inet.power.contract.IEnergyStorage.html" xlink:title="Module Interface IEnergyStorage" target="_parent">
<polygon fill="#fffcaf" stroke="black" stroke-dasharray="5,2" points="207.5,-19 116.5,-19 116.5,0 207.5,0 207.5,-19"/>
<text text-anchor="middle" x="162" y="-7" font-family="Helvetica,sans-Serif" font-size="10.00">IEnergyStorage</text>
</a>
</g>
</g>
<!-- IEnergySource&#45;&gt;IEnergyStorage -->
<g id="edge2" class="edge">
<title>IEnergySource&#45;&gt;IEnergyStorage</title>
<path fill="none" stroke="black" d="M162,-54.75C162,-44.87 162,-28.9 162,-19.09"/>
</g>
<!-- IEpEnergySource -->
<g id="node4" class="node">
<title>IEpEnergySource</title>
<g id="a_node4"><a xlink:href="inet.power.contract.IEpEnergySource.html" xlink:title="Module Interface IEpEnergySource" target="_parent">
<polygon fill="#fffcaf" stroke="black" stroke-dasharray="5,2" points="324,-19 226,-19 226,0 324,0 324,-19"/>
<text text-anchor="middle" x="275" y="-7" font-family="Helvetica,sans-Serif" font-size="10.00">IEpEnergySource</text>
</a>
</g>
</g>
<!-- IEnergySource&#45;&gt;IEpEnergySource -->
<g id="edge3" class="edge">
<title>IEnergySource&#45;&gt;IEpEnergySource</title>
<path fill="none" stroke="black" d="M180.16,-54.98C201.12,-45.15 235.41,-29.07 256.51,-19.17"/>
</g>
</g>
</svg>
