<?xml version="1.0" encoding="UTF-8" standalone="no"?>
<!DOCTYPE svg PUBLIC "-//W3C//DTD SVG 1.1//EN"
 "http://www.w3.org/Graphics/SVG/1.1/DTD/svg11.dtd">
<!-- Generated by graphviz version 2.43.0 (0)
 -->
<!-- Title: opp Pages: 1 -->
<svg width="178pt" height="137pt"
 viewBox="0.00 0.00 178.00 137.00" xmlns="http://www.w3.org/2000/svg" xmlns:xlink="http://www.w3.org/1999/xlink">
<g id="graph0" class="graph" transform="scale(1 1) rotate(0) translate(4 133)">
<title>opp</title>
<polygon fill="transparent" stroke="transparent" points="-4,4 -4,-133 174,-133 174,4 -4,4"/>
<!-- ApskDimensionalRadioMedium -->
<g id="node1" class="node">
<title>ApskDimensionalRadioMedium</title>
<g id="a_node1"><a xlink:href="inet.physicallayer.wireless.apsk.packetlevel.ApskDimensionalRadioMedium.html" xlink:title="Compound Module ApskDimensionalRadioMedium" target="_parent">
<polygon fill="#fff700" stroke="black" points="170,-74 0,-74 0,-55 170,-55 170,-74"/>
<text text-anchor="middle" x="85" y="-62" font-family="Helvetica,sans-Serif" font-size="10.00">ApskDimensionalRadioMedium</text>
</a>
</g>
</g>
<!-- Ieee802154UwbIrRadioMedium -->
<g id="node3" class="node">
<title>Ieee802154UwbIrRadioMedium</title>
<g id="a_node3"><a xlink:href="inet.physicallayer.wireless.ieee802154.bitlevel.Ieee802154UwbIrRadioMedium.html" xlink:title="Compound Module Ieee802154UwbIrRadioMedium" target="_parent">
<polygon fill="#fffcaf" stroke="black" points="170,-19 0,-19 0,0 170,0 170,-19"/>
<text text-anchor="middle" x="85" y="-7" font-family="Helvetica,sans-Serif" font-size="10.00">Ieee802154UwbIrRadioMedium</text>
</a>
</g>
</g>
<!-- ApskDimensionalRadioMedium&#45;&gt;Ieee802154UwbIrRadioMedium -->
<g id="edge2" class="edge">
<title>ApskDimensionalRadioMedium&#45;&gt;Ieee802154UwbIrRadioMedium</title>
<path fill="none" stroke="black" d="M85,-54.75C85,-44.87 85,-28.9 85,-19.09"/>
</g>
<!-- RadioMedium -->
<g id="node2" class="node">
<title>RadioMedium</title>
<g id="a_node2"><a xlink:href="inet.physicallayer.wireless.common.medium.RadioMedium.html" xlink:title="Compound Module RadioMedium" target="_parent">
<polygon fill="#fffcaf" stroke="black" points="127,-129 43,-129 43,-110 127,-110 127,-129"/>
<text text-anchor="middle" x="85" y="-117" font-family="Helvetica,sans-Serif" font-size="10.00">RadioMedium</text>
</a>
</g>
</g>
<!-- RadioMedium&#45;&gt;ApskDimensionalRadioMedium -->
<g id="edge1" class="edge">
<title>RadioMedium&#45;&gt;ApskDimensionalRadioMedium</title>
<path fill="none" stroke="black" d="M85,-109.75C85,-99.87 85,-83.9 85,-74.09"/>
</g>
</g>
</svg>
