<?xml version="1.0" encoding="UTF-8" standalone="no"?>
<!DOCTYPE svg PUBLIC "-//W3C//DTD SVG 1.1//EN"
 "http://www.w3.org/Graphics/SVG/1.1/DTD/svg11.dtd">
<!-- Generated by graphviz version 2.43.0 (0)
 -->
<!-- Title: opp Pages: 1 -->
<svg width="252pt" height="82pt"
 viewBox="0.00 0.00 251.50 82.00" xmlns="http://www.w3.org/2000/svg" xmlns:xlink="http://www.w3.org/1999/xlink">
<g id="graph0" class="graph" transform="scale(1 1) rotate(0) translate(4 78)">
<title>opp</title>
<polygon fill="transparent" stroke="transparent" points="-4,4 -4,-78 247.5,-78 247.5,4 -4,4"/>
<!-- Ieee8022SnapChecker -->
<g id="node1" class="node">
<title>Ieee8022SnapChecker</title>
<g id="a_node1"><a xlink:href="inet.linklayer.ieee8022.Ieee8022SnapChecker.html" xlink:title="Simple Module Ieee8022SnapChecker" target="_parent">
<polygon fill="#fff700" stroke="black" points="176,-19 51,-19 51,0 176,0 176,-19"/>
<text text-anchor="middle" x="113.5" y="-7" font-family="Helvetica,sans-Serif" font-size="10.00">Ieee8022SnapChecker</text>
</a>
</g>
</g>
<!-- PacketFilterBase -->
<g id="node2" class="node">
<title>PacketFilterBase</title>
<g id="a_node2"><a xlink:href="inet.queueing.base.PacketFilterBase.html" xlink:title="Simple Module PacketFilterBase" target="_parent">
<polygon fill="#fffcaf" stroke="black" points="97,-74 0,-74 0,-55 97,-55 97,-74"/>
<text text-anchor="middle" x="48.5" y="-62" font-family="Helvetica,sans-Serif" font-size="10.00">PacketFilterBase</text>
</a>
</g>
</g>
<!-- PacketFilterBase&#45;&gt;Ieee8022SnapChecker -->
<g id="edge1" class="edge">
<title>PacketFilterBase&#45;&gt;Ieee8022SnapChecker</title>
<path fill="none" stroke="black" d="M58.94,-54.98C71,-45.15 90.73,-29.07 102.87,-19.17"/>
</g>
<!-- IIeee8022SnapChecker -->
<g id="node3" class="node">
<title>IIeee8022SnapChecker</title>
<g id="a_node3"><a xlink:href="inet.linklayer.ieee8022.IIeee8022SnapChecker.html" xlink:title="Module Interface IIeee8022SnapChecker" target="_parent">
<polygon fill="#fffcaf" stroke="black" stroke-dasharray="5,2" points="243.5,-74 115.5,-74 115.5,-55 243.5,-55 243.5,-74"/>
<text text-anchor="middle" x="179.5" y="-62" font-family="Helvetica,sans-Serif" font-size="10.00">IIeee8022SnapChecker</text>
</a>
</g>
</g>
<!-- IIeee8022SnapChecker&#45;&gt;Ieee8022SnapChecker -->
<g id="edge2" class="edge">
<title>IIeee8022SnapChecker&#45;&gt;Ieee8022SnapChecker</title>
<path fill="none" stroke="black" stroke-dasharray="5,2" d="M168.9,-54.98C156.65,-45.15 136.62,-29.07 124.3,-19.17"/>
</g>
</g>
</svg>
