<?xml version="1.0" encoding="UTF-8" standalone="no"?>
<!DOCTYPE svg PUBLIC "-//W3C//DTD SVG 1.1//EN"
 "http://www.w3.org/Graphics/SVG/1.1/DTD/svg11.dtd">
<!-- Generated by graphviz version 2.43.0 (0)
 -->
<!-- Title: opp Pages: 1 -->
<svg width="172pt" height="137pt"
 viewBox="0.00 0.00 172.00 137.00" xmlns="http://www.w3.org/2000/svg" xmlns:xlink="http://www.w3.org/1999/xlink">
<g id="graph0" class="graph" transform="scale(1 1) rotate(0) translate(4 133)">
<title>opp</title>
<polygon fill="transparent" stroke="transparent" points="-4,4 -4,-133 168,-133 168,4 -4,4"/>
<!-- TcpServerHostApp -->
<g id="node1" class="node">
<title>TcpServerHostApp</title>
<g id="a_node1"><a xlink:href="inet.applications.tcpapp.TcpServerHostApp.html" xlink:title="Simple Module TcpServerHostApp" target="_parent">
<polygon fill="#fff700" stroke="black" points="134.5,-74 29.5,-74 29.5,-55 134.5,-55 134.5,-74"/>
<text text-anchor="middle" x="82" y="-62" font-family="Helvetica,sans-Serif" font-size="10.00">TcpServerHostApp</text>
</a>
</g>
</g>
<!-- TcpEchoApp -->
<g id="node3" class="node">
<title>TcpEchoApp</title>
<g id="a_node3"><a xlink:href="inet.applications.tcpapp.TcpEchoApp.html" xlink:title="Simple Module TcpEchoApp" target="_parent">
<polygon fill="#fffcaf" stroke="black" points="74,-19 0,-19 0,0 74,0 74,-19"/>
<text text-anchor="middle" x="37" y="-7" font-family="Helvetica,sans-Serif" font-size="10.00">TcpEchoApp</text>
</a>
</g>
</g>
<!-- TcpServerHostApp&#45;&gt;TcpEchoApp -->
<g id="edge2" class="edge">
<title>TcpServerHostApp&#45;&gt;TcpEchoApp</title>
<path fill="none" stroke="black" d="M74.57,-54.75C66.18,-44.87 52.62,-28.9 44.29,-19.09"/>
</g>
<!-- TcpSinkApp -->
<g id="node4" class="node">
<title>TcpSinkApp</title>
<g id="a_node4"><a xlink:href="inet.applications.tcpapp.TcpSinkApp.html" xlink:title="Compound Module TcpSinkApp" target="_parent">
<polygon fill="#fffcaf" stroke="black" points="164,-19 92,-19 92,0 164,0 164,-19"/>
<text text-anchor="middle" x="128" y="-7" font-family="Helvetica,sans-Serif" font-size="10.00">TcpSinkApp</text>
</a>
</g>
</g>
<!-- TcpServerHostApp&#45;&gt;TcpSinkApp -->
<g id="edge3" class="edge">
<title>TcpServerHostApp&#45;&gt;TcpSinkApp</title>
<path fill="none" stroke="black" d="M89.6,-54.75C98.17,-44.87 112.03,-28.9 120.55,-19.09"/>
</g>
<!-- IApp -->
<g id="node2" class="node">
<title>IApp</title>
<g id="a_node2"><a xlink:href="inet.applications.contract.IApp.html" xlink:title="Module Interface IApp" target="_parent">
<polygon fill="#fffcaf" stroke="black" stroke-dasharray="5,2" points="109,-129 55,-129 55,-110 109,-110 109,-129"/>
<text text-anchor="middle" x="82" y="-117" font-family="Helvetica,sans-Serif" font-size="10.00">IApp</text>
</a>
</g>
</g>
<!-- IApp&#45;&gt;TcpServerHostApp -->
<g id="edge1" class="edge">
<title>IApp&#45;&gt;TcpServerHostApp</title>
<path fill="none" stroke="black" stroke-dasharray="5,2" d="M82,-109.75C82,-99.87 82,-83.9 82,-74.09"/>
</g>
</g>
</svg>
