<?xml version="1.0" encoding="UTF-8" standalone="no"?>
<!DOCTYPE svg PUBLIC "-//W3C//DTD SVG 1.1//EN"
 "http://www.w3.org/Graphics/SVG/1.1/DTD/svg11.dtd">
<!-- Generated by graphviz version 2.43.0 (0)
 -->
<!-- Title: opp Pages: 1 -->
<svg width="655pt" height="82pt"
 viewBox="0.00 0.00 655.00 82.00" xmlns="http://www.w3.org/2000/svg" xmlns:xlink="http://www.w3.org/1999/xlink">
<g id="graph0" class="graph" transform="scale(1 1) rotate(0) translate(4 78)">
<title>opp</title>
<polygon fill="transparent" stroke="transparent" points="-4,4 -4,-78 651,-78 651,4 -4,4"/>
<!-- QosShowcase -->
<g id="node1" class="node">
<title>QosShowcase</title>
<g id="a_node1"><a xlink:href="inet.showcases.wireless.qos.QosShowcase.html" xlink:title="Network QosShowcase" target="_parent">
<polygon fill="#9090ff" stroke="black" points="398.5,-74 314.5,-74 314.5,-55 398.5,-55 398.5,-74"/>
<text text-anchor="middle" x="356.5" y="-62" font-family="Helvetica,sans-Serif" font-size="10.00">QosShowcase</text>
</a>
</g>
</g>
<!-- Ieee80211ScalarRadioMedium -->
<g id="node2" class="node">
<title>Ieee80211ScalarRadioMedium</title>
<g id="a_node2"><a xlink:href="inet.physicallayer.wireless.ieee80211.packetlevel.Ieee80211ScalarRadioMedium.html" xlink:title="Compound Module Ieee80211ScalarRadioMedium" target="_parent">
<polygon fill="#fffcaf" stroke="black" points="165,-19 0,-19 0,0 165,0 165,-19"/>
<text text-anchor="middle" x="82.5" y="-7" font-family="Helvetica,sans-Serif" font-size="10.00">Ieee80211ScalarRadioMedium</text>
</a>
</g>
</g>
<!-- QosShowcase&#45;&gt;Ieee80211ScalarRadioMedium -->
<g id="edge1" class="edge">
<title>QosShowcase&#45;&gt;Ieee80211ScalarRadioMedium</title>
<path fill="none" stroke="black" d="M314.29,-55.33C266.58,-46.11 188.79,-31.06 136.65,-20.97"/>
<polygon fill="black" stroke="black" points="137.06,-17.49 126.58,-19.03 135.73,-24.36 137.06,-17.49"/>
</g>
<!-- IntegratedVisualizer -->
<g id="node3" class="node">
<title>IntegratedVisualizer</title>
<g id="a_node3"><a xlink:href="inet.visualizer.common.IntegratedVisualizer.html" xlink:title="Compound Module IntegratedVisualizer" target="_parent">
<polygon fill="#fffcaf" stroke="black" points="298,-19 183,-19 183,0 298,0 298,-19"/>
<text text-anchor="middle" x="240.5" y="-7" font-family="Helvetica,sans-Serif" font-size="10.00">IntegratedVisualizer</text>
</a>
</g>
</g>
<!-- QosShowcase&#45;&gt;IntegratedVisualizer -->
<g id="edge2" class="edge">
<title>QosShowcase&#45;&gt;IntegratedVisualizer</title>
<path fill="none" stroke="black" d="M337.86,-54.98C319.2,-46.46 290.25,-33.23 268.76,-23.41"/>
<polygon fill="black" stroke="black" points="270.03,-20.14 259.48,-19.17 267.12,-26.51 270.03,-20.14"/>
</g>
<!-- WirelessHost -->
<g id="node4" class="node">
<title>WirelessHost</title>
<g id="a_node4"><a xlink:href="inet.node.inet.WirelessHost.html" xlink:title="Compound Module WirelessHost" target="_parent">
<polygon fill="#fffcaf" stroke="black" points="397,-19 316,-19 316,0 397,0 397,-19"/>
<text text-anchor="middle" x="356.5" y="-7" font-family="Helvetica,sans-Serif" font-size="10.00">WirelessHost</text>
</a>
</g>
</g>
<!-- QosShowcase&#45;&gt;WirelessHost -->
<g id="edge3" class="edge">
<title>QosShowcase&#45;&gt;WirelessHost</title>
<path fill="none" stroke="black" d="M356.5,-54.75C356.5,-47.8 356.5,-37.85 356.5,-29.13"/>
<polygon fill="black" stroke="black" points="360,-29.09 356.5,-19.09 353,-29.09 360,-29.09"/>
</g>
<!-- AccessPoint -->
<g id="node5" class="node">
<title>AccessPoint</title>
<g id="a_node5"><a xlink:href="inet.node.wireless.AccessPoint.html" xlink:title="Compound Module AccessPoint" target="_parent">
<polygon fill="#fffcaf" stroke="black" points="490,-19 415,-19 415,0 490,0 490,-19"/>
<text text-anchor="middle" x="452.5" y="-7" font-family="Helvetica,sans-Serif" font-size="10.00">AccessPoint</text>
</a>
</g>
</g>
<!-- QosShowcase&#45;&gt;AccessPoint -->
<g id="edge4" class="edge">
<title>QosShowcase&#45;&gt;AccessPoint</title>
<path fill="none" stroke="black" d="M371.92,-54.98C386.95,-46.69 410.04,-33.94 427.66,-24.22"/>
<polygon fill="black" stroke="black" points="429.73,-27.07 436.8,-19.17 426.35,-20.94 429.73,-27.07"/>
</g>
<!-- Ipv4NetworkConfigurator -->
<g id="node6" class="node">
<title>Ipv4NetworkConfigurator</title>
<g id="a_node6"><a xlink:href="inet.networklayer.configurator.ipv4.Ipv4NetworkConfigurator.html" xlink:title="Simple Module Ipv4NetworkConfigurator" target="_parent">
<polygon fill="#fffcaf" stroke="black" points="647,-19 508,-19 508,0 647,0 647,-19"/>
<text text-anchor="middle" x="577.5" y="-7" font-family="Helvetica,sans-Serif" font-size="10.00">Ipv4NetworkConfigurator</text>
</a>
</g>
</g>
<!-- QosShowcase&#45;&gt;Ipv4NetworkConfigurator -->
<g id="edge5" class="edge">
<title>QosShowcase&#45;&gt;Ipv4NetworkConfigurator</title>
<path fill="none" stroke="black" d="M392.01,-54.98C429.99,-45.87 490.37,-31.4 531.86,-21.45"/>
<polygon fill="black" stroke="black" points="532.81,-24.82 541.71,-19.08 531.17,-18.01 532.81,-24.82"/>
</g>
</g>
</svg>
