<?xml version="1.0" encoding="UTF-8" standalone="no"?>
<!DOCTYPE svg PUBLIC "-//W3C//DTD SVG 1.1//EN"
 "http://www.w3.org/Graphics/SVG/1.1/DTD/svg11.dtd">
<!-- Generated by graphviz version 2.43.0 (0)
 -->
<!-- Title: opp Pages: 1 -->
<svg width="272pt" height="137pt"
 viewBox="0.00 0.00 271.50 137.00" xmlns="http://www.w3.org/2000/svg" xmlns:xlink="http://www.w3.org/1999/xlink">
<g id="graph0" class="graph" transform="scale(1 1) rotate(0) translate(4 133)">
<title>opp</title>
<polygon fill="transparent" stroke="transparent" points="-4,4 -4,-133 267.5,-133 267.5,4 -4,4"/>
<!-- GpsrRouter -->
<g id="node1" class="node">
<title>GpsrRouter</title>
<g id="a_node1"><a xlink:href="inet.node.gpsr.GpsrRouter.html" xlink:title="Compound Module GpsrRouter" target="_parent">
<polygon fill="#fff700" stroke="black" points="165.5,-74 94.5,-74 94.5,-55 165.5,-55 165.5,-74"/>
<text text-anchor="middle" x="130" y="-62" font-family="Helvetica,sans-Serif" font-size="10.00">GpsrRouter</text>
</a>
</g>
</g>
<!-- IdealChannel -->
<g id="node2" class="node">
<title>IdealChannel</title>
<g id="a_node2"><a xlink:href="ned.IdealChannel.html" xlink:title="Channel IdealChannel" target="_parent">
<polygon fill="#d0ffd0" stroke="black" points="128,-19 48,-19 48,0 128,0 128,-19"/>
<text text-anchor="middle" x="88" y="-7" font-family="Helvetica,sans-Serif" font-size="10.00">IdealChannel</text>
</a>
</g>
</g>
<!-- GpsrRouter&#45;&gt;IdealChannel -->
<g id="edge1" class="edge">
<title>GpsrRouter&#45;&gt;IdealChannel</title>
<path fill="none" stroke="black" d="M123.06,-54.75C117.13,-47.26 108.43,-36.28 101.18,-27.13"/>
<polygon fill="black" stroke="black" points="103.76,-24.75 94.81,-19.09 98.27,-29.1 103.76,-24.75"/>
</g>
<!-- Gpsr -->
<g id="node3" class="node">
<title>Gpsr</title>
<g id="a_node3"><a xlink:href="inet.routing.gpsr.Gpsr.html" xlink:title="Simple Module Gpsr" target="_parent">
<polygon fill="#fffcaf" stroke="black" points="200,-19 146,-19 146,0 200,0 200,-19"/>
<text text-anchor="middle" x="173" y="-7" font-family="Helvetica,sans-Serif" font-size="10.00">Gpsr</text>
</a>
</g>
</g>
<!-- GpsrRouter&#45;&gt;Gpsr -->
<g id="edge2" class="edge">
<title>GpsrRouter&#45;&gt;Gpsr</title>
<path fill="none" stroke="black" d="M137.1,-54.75C143.17,-47.26 152.09,-36.28 159.51,-27.13"/>
<polygon fill="black" stroke="black" points="162.45,-29.06 166.03,-19.09 157.01,-24.65 162.45,-29.06"/>
</g>
<!-- GPSRNetworkManual -->
<g id="node4" class="node">
<title>GPSRNetworkManual</title>
<g id="a_node4"><a xlink:href="inet.examples.manetrouting.gpsr.GPSRNetworkManual.html" xlink:title="Network GPSRNetworkManual" target="_parent">
<polygon fill="#d0d0ff" stroke="black" points="120,-129 0,-129 0,-110 120,-110 120,-129"/>
<text text-anchor="middle" x="60" y="-117" font-family="Helvetica,sans-Serif" font-size="10.00">GPSRNetworkManual</text>
</a>
</g>
</g>
<!-- GPSRNetworkManual&#45;&gt;GpsrRouter -->
<g id="edge3" class="edge">
<title>GPSRNetworkManual&#45;&gt;GpsrRouter</title>
<path fill="none" stroke="black" d="M71.25,-109.98C81.8,-102 97.8,-89.88 110.44,-80.31"/>
<polygon fill="black" stroke="black" points="112.69,-83 118.55,-74.17 108.46,-77.42 112.69,-83"/>
</g>
<!-- GPSRNetworkRandom -->
<g id="node5" class="node">
<title>GPSRNetworkRandom</title>
<g id="a_node5"><a xlink:href="inet.examples.manetrouting.gpsr.GPSRNetworkRandom.html" xlink:title="Network GPSRNetworkRandom" target="_parent">
<polygon fill="#d0d0ff" stroke="black" points="263.5,-129 138.5,-129 138.5,-110 263.5,-110 263.5,-129"/>
<text text-anchor="middle" x="201" y="-117" font-family="Helvetica,sans-Serif" font-size="10.00">GPSRNetworkRandom</text>
</a>
</g>
</g>
<!-- GPSRNetworkRandom&#45;&gt;GpsrRouter -->
<g id="edge4" class="edge">
<title>GPSRNetworkRandom&#45;&gt;GpsrRouter</title>
<path fill="none" stroke="black" d="M189.59,-109.98C178.89,-102 162.66,-89.88 149.84,-80.31"/>
<polygon fill="black" stroke="black" points="151.72,-77.35 141.61,-74.17 147.53,-82.96 151.72,-77.35"/>
</g>
</g>
</svg>
