<?xml version="1.0" encoding="UTF-8" standalone="no"?>
<!DOCTYPE svg PUBLIC "-//W3C//DTD SVG 1.1//EN"
 "http://www.w3.org/Graphics/SVG/1.1/DTD/svg11.dtd">
<!-- Generated by graphviz version 2.43.0 (0)
 -->
<!-- Title: opp Pages: 1 -->
<svg width="305pt" height="137pt"
 viewBox="0.00 0.00 304.50 137.00" xmlns="http://www.w3.org/2000/svg" xmlns:xlink="http://www.w3.org/1999/xlink">
<g id="graph0" class="graph" transform="scale(1 1) rotate(0) translate(4 133)">
<title>opp</title>
<polygon fill="transparent" stroke="transparent" points="-4,4 -4,-133 300.5,-133 300.5,4 -4,4"/>
<!-- Dcaf -->
<g id="node1" class="node">
<title>Dcaf</title>
<g id="a_node1"><a xlink:href="inet.linklayer.ieee80211.mac.channelaccess.Dcaf.html" xlink:title="Compound Module Dcaf" target="_parent">
<polygon fill="#fff700" stroke="black" points="159.5,-74 105.5,-74 105.5,-55 159.5,-55 159.5,-74"/>
<text text-anchor="middle" x="132.5" y="-62" font-family="Helvetica,sans-Serif" font-size="10.00">Dcaf</text>
</a>
</g>
</g>
<!-- IContention -->
<g id="node2" class="node">
<title>IContention</title>
<g id="a_node2"><a xlink:href="inet.linklayer.ieee80211.mac.contract.IContention.html" xlink:title="Module Interface IContention" target="_parent">
<polygon fill="#fffcaf" stroke="black" stroke-dasharray="5,2" points="73,-19 0,-19 0,0 73,0 73,-19"/>
<text text-anchor="middle" x="36.5" y="-7" font-family="Helvetica,sans-Serif" font-size="10.00">IContention</text>
</a>
</g>
</g>
<!-- Dcaf&#45;&gt;IContention -->
<g id="edge1" class="edge">
<title>Dcaf&#45;&gt;IContention</title>
<path fill="none" stroke="black" d="M117.08,-54.98C102.05,-46.69 78.96,-33.94 61.34,-24.22"/>
<polygon fill="black" stroke="black" points="62.65,-20.94 52.2,-19.17 59.27,-27.07 62.65,-20.94"/>
</g>
<!-- IPacketQueue -->
<g id="node3" class="node">
<title>IPacketQueue</title>
<g id="a_node3"><a xlink:href="inet.queueing.contract.IPacketQueue.html" xlink:title="Module Interface IPacketQueue" target="_parent">
<polygon fill="#fffcaf" stroke="black" stroke-dasharray="5,2" points="174,-19 91,-19 91,0 174,0 174,-19"/>
<text text-anchor="middle" x="132.5" y="-7" font-family="Helvetica,sans-Serif" font-size="10.00">IPacketQueue</text>
</a>
</g>
</g>
<!-- Dcaf&#45;&gt;IPacketQueue -->
<g id="edge2" class="edge">
<title>Dcaf&#45;&gt;IPacketQueue</title>
<path fill="none" stroke="black" d="M132.5,-54.75C132.5,-47.8 132.5,-37.85 132.5,-29.13"/>
<polygon fill="black" stroke="black" points="136,-29.09 132.5,-19.09 129,-29.09 136,-29.09"/>
</g>
<!-- InProgressFrames -->
<g id="node4" class="node">
<title>InProgressFrames</title>
<g id="a_node4"><a xlink:href="inet.linklayer.ieee80211.mac.queue.InProgressFrames.html" xlink:title="Simple Module InProgressFrames" target="_parent">
<polygon fill="#fffcaf" stroke="black" points="296.5,-19 192.5,-19 192.5,0 296.5,0 296.5,-19"/>
<text text-anchor="middle" x="244.5" y="-7" font-family="Helvetica,sans-Serif" font-size="10.00">InProgressFrames</text>
</a>
</g>
</g>
<!-- Dcaf&#45;&gt;InProgressFrames -->
<g id="edge3" class="edge">
<title>Dcaf&#45;&gt;InProgressFrames</title>
<path fill="none" stroke="black" d="M150.49,-54.98C168.43,-46.5 196.22,-33.35 216.93,-23.54"/>
<polygon fill="black" stroke="black" points="218.64,-26.61 226.18,-19.17 215.64,-20.28 218.64,-26.61"/>
</g>
<!-- Dcf -->
<g id="node5" class="node">
<title>Dcf</title>
<g id="a_node5"><a xlink:href="inet.linklayer.ieee80211.mac.coordinationfunction.Dcf.html" xlink:title="Compound Module Dcf" target="_parent">
<polygon fill="#fffcaf" stroke="black" points="159.5,-129 105.5,-129 105.5,-110 159.5,-110 159.5,-129"/>
<text text-anchor="middle" x="132.5" y="-117" font-family="Helvetica,sans-Serif" font-size="10.00">Dcf</text>
</a>
</g>
</g>
<!-- Dcf&#45;&gt;Dcaf -->
<g id="edge4" class="edge">
<title>Dcf&#45;&gt;Dcaf</title>
<path fill="none" stroke="black" d="M132.5,-109.75C132.5,-102.8 132.5,-92.85 132.5,-84.13"/>
<polygon fill="black" stroke="black" points="136,-84.09 132.5,-74.09 129,-84.09 136,-84.09"/>
</g>
</g>
</svg>
