<?xml version="1.0" encoding="UTF-8" standalone="no"?>
<!DOCTYPE svg PUBLIC "-//W3C//DTD SVG 1.1//EN"
 "http://www.w3.org/Graphics/SVG/1.1/DTD/svg11.dtd">
<!-- Generated by graphviz version 2.43.0 (0)
 -->
<!-- Title: opp Pages: 1 -->
<svg width="470pt" height="82pt"
 viewBox="0.00 0.00 469.50 82.00" xmlns="http://www.w3.org/2000/svg" xmlns:xlink="http://www.w3.org/1999/xlink">
<g id="graph0" class="graph" transform="scale(1 1) rotate(0) translate(4 78)">
<title>opp</title>
<polygon fill="transparent" stroke="transparent" points="-4,4 -4,-78 465.5,-78 465.5,4 -4,4"/>
<!-- RedMarkerNetwork -->
<g id="node1" class="node">
<title>RedMarkerNetwork</title>
<g id="a_node1"><a xlink:href="inet.examples.inet.redmarker.RedMarkerNetwork.html" xlink:title="Network RedMarkerNetwork" target="_parent">
<polygon fill="#9090ff" stroke="black" points="342.5,-74 232.5,-74 232.5,-55 342.5,-55 342.5,-74"/>
<text text-anchor="middle" x="287.5" y="-62" font-family="Helvetica,sans-Serif" font-size="10.00">RedMarkerNetwork</text>
</a>
</g>
</g>
<!-- StandardHost -->
<g id="node2" class="node">
<title>StandardHost</title>
<g id="a_node2"><a xlink:href="inet.node.inet.StandardHost.html" xlink:title="Compound Module StandardHost" target="_parent">
<polygon fill="#fffcaf" stroke="black" points="83,-19 0,-19 0,0 83,0 83,-19"/>
<text text-anchor="middle" x="41.5" y="-7" font-family="Helvetica,sans-Serif" font-size="10.00">StandardHost</text>
</a>
</g>
</g>
<!-- RedMarkerNetwork&#45;&gt;StandardHost -->
<g id="edge1" class="edge">
<title>RedMarkerNetwork&#45;&gt;StandardHost</title>
<path fill="none" stroke="black" d="M247.98,-54.98C205.33,-45.8 137.35,-31.15 91.14,-21.19"/>
<polygon fill="black" stroke="black" points="91.85,-17.77 81.33,-19.08 90.37,-24.61 91.85,-17.77"/>
</g>
<!-- Ipv4NetworkConfigurator -->
<g id="node3" class="node">
<title>Ipv4NetworkConfigurator</title>
<g id="a_node3"><a xlink:href="inet.networklayer.configurator.ipv4.Ipv4NetworkConfigurator.html" xlink:title="Simple Module Ipv4NetworkConfigurator" target="_parent">
<polygon fill="#fffcaf" stroke="black" points="240,-19 101,-19 101,0 240,0 240,-19"/>
<text text-anchor="middle" x="170.5" y="-7" font-family="Helvetica,sans-Serif" font-size="10.00">Ipv4NetworkConfigurator</text>
</a>
</g>
</g>
<!-- RedMarkerNetwork&#45;&gt;Ipv4NetworkConfigurator -->
<g id="edge2" class="edge">
<title>RedMarkerNetwork&#45;&gt;Ipv4NetworkConfigurator</title>
<path fill="none" stroke="black" d="M268.7,-54.98C249.88,-46.46 220.68,-33.23 199,-23.41"/>
<polygon fill="black" stroke="black" points="200.19,-20.11 189.64,-19.17 197.3,-26.48 200.19,-20.11"/>
</g>
<!-- NormalP -->
<g id="node4" class="node">
<title>NormalP</title>
<g id="a_node4"><a xlink:href="inet.examples.inet.redmarker.NormalP.html" xlink:title="Channel NormalP" target="_parent">
<polygon fill="#d0ffd0" stroke="black" points="317,-19 258,-19 258,0 317,0 317,-19"/>
<text text-anchor="middle" x="287.5" y="-7" font-family="Helvetica,sans-Serif" font-size="10.00">NormalP</text>
</a>
</g>
</g>
<!-- RedMarkerNetwork&#45;&gt;NormalP -->
<g id="edge3" class="edge">
<title>RedMarkerNetwork&#45;&gt;NormalP</title>
<path fill="none" stroke="black" d="M287.5,-54.75C287.5,-47.8 287.5,-37.85 287.5,-29.13"/>
<polygon fill="black" stroke="black" points="291,-29.09 287.5,-19.09 284,-29.09 291,-29.09"/>
</g>
<!-- Router -->
<g id="node5" class="node">
<title>Router</title>
<g id="a_node5"><a xlink:href="inet.node.inet.Router.html" xlink:title="Compound Module Router" target="_parent">
<polygon fill="#fffcaf" stroke="black" points="389.5,-19 335.5,-19 335.5,0 389.5,0 389.5,-19"/>
<text text-anchor="middle" x="362.5" y="-7" font-family="Helvetica,sans-Serif" font-size="10.00">Router</text>
</a>
</g>
</g>
<!-- RedMarkerNetwork&#45;&gt;Router -->
<g id="edge4" class="edge">
<title>RedMarkerNetwork&#45;&gt;Router</title>
<path fill="none" stroke="black" d="M299.55,-54.98C310.96,-46.92 328.33,-34.65 341.93,-25.03"/>
<polygon fill="black" stroke="black" points="344.08,-27.8 350.23,-19.17 340.04,-22.08 344.08,-27.8"/>
</g>
<!-- FastP -->
<g id="node6" class="node">
<title>FastP</title>
<g id="a_node6"><a xlink:href="inet.examples.inet.redmarker.FastP.html" xlink:title="Channel FastP" target="_parent">
<polygon fill="#d0ffd0" stroke="black" points="461.5,-19 407.5,-19 407.5,0 461.5,0 461.5,-19"/>
<text text-anchor="middle" x="434.5" y="-7" font-family="Helvetica,sans-Serif" font-size="10.00">FastP</text>
</a>
</g>
</g>
<!-- RedMarkerNetwork&#45;&gt;FastP -->
<g id="edge5" class="edge">
<title>RedMarkerNetwork&#45;&gt;FastP</title>
<path fill="none" stroke="black" d="M311.12,-54.98C335.4,-46.23 373.45,-32.51 400.87,-22.62"/>
<polygon fill="black" stroke="black" points="402.23,-25.85 410.45,-19.17 399.86,-19.27 402.23,-25.85"/>
</g>
</g>
</svg>
