<?xml version="1.0" encoding="UTF-8" standalone="no"?>
<!DOCTYPE svg PUBLIC "-//W3C//DTD SVG 1.1//EN"
 "http://www.w3.org/Graphics/SVG/1.1/DTD/svg11.dtd">
<!-- Generated by graphviz version 2.43.0 (0)
 -->
<!-- Title: opp Pages: 1 -->
<svg width="432pt" height="82pt"
 viewBox="0.00 0.00 432.00 82.00" xmlns="http://www.w3.org/2000/svg" xmlns:xlink="http://www.w3.org/1999/xlink">
<g id="graph0" class="graph" transform="scale(1 1) rotate(0) translate(4 78)">
<title>opp</title>
<polygon fill="transparent" stroke="transparent" points="-4,4 -4,-78 428,-78 428,4 -4,4"/>
<!-- Gate2TutorialStep -->
<g id="node1" class="node">
<title>Gate2TutorialStep</title>
<g id="a_node1"><a xlink:href="inet.tutorials.queueing.Gate2TutorialStep.html" xlink:title="Network Gate2TutorialStep" target="_parent">
<polygon fill="#9090ff" stroke="black" points="271,-74 167,-74 167,-55 271,-55 271,-74"/>
<text text-anchor="middle" x="219" y="-62" font-family="Helvetica,sans-Serif" font-size="10.00">Gate2TutorialStep</text>
</a>
</g>
</g>
<!-- PassivePacketSource -->
<g id="node2" class="node">
<title>PassivePacketSource</title>
<g id="a_node2"><a xlink:href="inet.queueing.source.PassivePacketSource.html" xlink:title="Simple Module PassivePacketSource" target="_parent">
<polygon fill="#fffcaf" stroke="black" points="118,-19 0,-19 0,0 118,0 118,-19"/>
<text text-anchor="middle" x="59" y="-7" font-family="Helvetica,sans-Serif" font-size="10.00">PassivePacketSource</text>
</a>
</g>
</g>
<!-- Gate2TutorialStep&#45;&gt;PassivePacketSource -->
<g id="edge1" class="edge">
<title>Gate2TutorialStep&#45;&gt;PassivePacketSource</title>
<path fill="none" stroke="black" d="M193.29,-54.98C166.55,-46.13 124.47,-32.19 94.55,-22.28"/>
<polygon fill="black" stroke="black" points="95.5,-18.9 84.91,-19.08 93.3,-25.55 95.5,-18.9"/>
</g>
<!-- PacketGate -->
<g id="node3" class="node">
<title>PacketGate</title>
<g id="a_node3"><a xlink:href="inet.queueing.gate.PacketGate.html" xlink:title="Simple Module PacketGate" target="_parent">
<polygon fill="#fffcaf" stroke="black" points="207.5,-19 136.5,-19 136.5,0 207.5,0 207.5,-19"/>
<text text-anchor="middle" x="172" y="-7" font-family="Helvetica,sans-Serif" font-size="10.00">PacketGate</text>
</a>
</g>
</g>
<!-- Gate2TutorialStep&#45;&gt;PacketGate -->
<g id="edge2" class="edge">
<title>Gate2TutorialStep&#45;&gt;PacketGate</title>
<path fill="none" stroke="black" d="M211.24,-54.75C204.53,-47.18 194.66,-36.05 186.49,-26.84"/>
<polygon fill="black" stroke="black" points="188.87,-24.25 179.62,-19.09 183.63,-28.89 188.87,-24.25"/>
</g>
<!-- IdealChannel -->
<g id="node4" class="node">
<title>IdealChannel</title>
<g id="a_node4"><a xlink:href="ned.IdealChannel.html" xlink:title="Channel IdealChannel" target="_parent">
<polygon fill="#d0ffd0" stroke="black" points="306,-19 226,-19 226,0 306,0 306,-19"/>
<text text-anchor="middle" x="266" y="-7" font-family="Helvetica,sans-Serif" font-size="10.00">IdealChannel</text>
</a>
</g>
</g>
<!-- Gate2TutorialStep&#45;&gt;IdealChannel -->
<g id="edge3" class="edge">
<title>Gate2TutorialStep&#45;&gt;IdealChannel</title>
<path fill="none" stroke="black" d="M226.76,-54.75C233.47,-47.18 243.34,-36.05 251.51,-26.84"/>
<polygon fill="black" stroke="black" points="254.37,-28.89 258.38,-19.09 249.13,-24.25 254.37,-28.89"/>
</g>
<!-- ActivePacketSink -->
<g id="node5" class="node">
<title>ActivePacketSink</title>
<g id="a_node5"><a xlink:href="inet.queueing.sink.ActivePacketSink.html" xlink:title="Simple Module ActivePacketSink" target="_parent">
<polygon fill="#fffcaf" stroke="black" points="424,-19 324,-19 324,0 424,0 424,-19"/>
<text text-anchor="middle" x="374" y="-7" font-family="Helvetica,sans-Serif" font-size="10.00">ActivePacketSink</text>
</a>
</g>
</g>
<!-- Gate2TutorialStep&#45;&gt;ActivePacketSink -->
<g id="edge4" class="edge">
<title>Gate2TutorialStep&#45;&gt;ActivePacketSink</title>
<path fill="none" stroke="black" d="M243.9,-54.98C269.7,-46.16 310.22,-32.31 339.18,-22.41"/>
<polygon fill="black" stroke="black" points="340.57,-25.63 348.9,-19.08 338.31,-19.01 340.57,-25.63"/>
</g>
</g>
</svg>
