<?xml version="1.0" encoding="UTF-8" standalone="no"?>
<!DOCTYPE svg PUBLIC "-//W3C//DTD SVG 1.1//EN"
 "http://www.w3.org/Graphics/SVG/1.1/DTD/svg11.dtd">
<!-- Generated by graphviz version 2.43.0 (0)
 -->
<!-- Title: opp Pages: 1 -->
<svg width="173pt" height="137pt"
 viewBox="0.00 0.00 173.00 137.00" xmlns="http://www.w3.org/2000/svg" xmlns:xlink="http://www.w3.org/1999/xlink">
<g id="graph0" class="graph" transform="scale(1 1) rotate(0) translate(4 133)">
<title>opp</title>
<polygon fill="transparent" stroke="transparent" points="-4,4 -4,-133 169,-133 169,4 -4,4"/>
<!-- EpEnergyGeneratorBase -->
<g id="node1" class="node">
<title>EpEnergyGeneratorBase</title>
<g id="a_node1"><a xlink:href="inet.power.base.EpEnergyGeneratorBase.html" xlink:title="Simple Module EpEnergyGeneratorBase" target="_parent">
<polygon fill="#fff700" stroke="black" points="150,-74 15,-74 15,-55 150,-55 150,-74"/>
<text text-anchor="middle" x="82.5" y="-62" font-family="Helvetica,sans-Serif" font-size="10.00">EpEnergyGeneratorBase</text>
</a>
</g>
</g>
<!-- AlternatingEpEnergyGenerator -->
<g id="node3" class="node">
<title>AlternatingEpEnergyGenerator</title>
<g id="a_node3"><a xlink:href="inet.power.generator.AlternatingEpEnergyGenerator.html" xlink:title="Simple Module AlternatingEpEnergyGenerator" target="_parent">
<polygon fill="#fffcaf" stroke="black" points="165,-19 0,-19 0,0 165,0 165,-19"/>
<text text-anchor="middle" x="82.5" y="-7" font-family="Helvetica,sans-Serif" font-size="10.00">AlternatingEpEnergyGenerator</text>
</a>
</g>
</g>
<!-- EpEnergyGeneratorBase&#45;&gt;AlternatingEpEnergyGenerator -->
<g id="edge2" class="edge">
<title>EpEnergyGeneratorBase&#45;&gt;AlternatingEpEnergyGenerator</title>
<path fill="none" stroke="black" d="M82.5,-54.75C82.5,-44.87 82.5,-28.9 82.5,-19.09"/>
</g>
<!-- IEpEnergyGenerator -->
<g id="node2" class="node">
<title>IEpEnergyGenerator</title>
<g id="a_node2"><a xlink:href="inet.power.contract.IEpEnergyGenerator.html" xlink:title="Module Interface IEpEnergyGenerator" target="_parent">
<polygon fill="#fffcaf" stroke="black" stroke-dasharray="5,2" points="139.5,-129 25.5,-129 25.5,-110 139.5,-110 139.5,-129"/>
<text text-anchor="middle" x="82.5" y="-117" font-family="Helvetica,sans-Serif" font-size="10.00">IEpEnergyGenerator</text>
</a>
</g>
</g>
<!-- IEpEnergyGenerator&#45;&gt;EpEnergyGeneratorBase -->
<g id="edge1" class="edge">
<title>IEpEnergyGenerator&#45;&gt;EpEnergyGeneratorBase</title>
<path fill="none" stroke="black" stroke-dasharray="5,2" d="M82.5,-109.75C82.5,-99.87 82.5,-83.9 82.5,-74.09"/>
</g>
</g>
</svg>
