<?xml version="1.0" encoding="UTF-8" standalone="no"?>
<!DOCTYPE svg PUBLIC "-//W3C//DTD SVG 1.1//EN"
 "http://www.w3.org/Graphics/SVG/1.1/DTD/svg11.dtd">
<!-- Generated by graphviz version 2.43.0 (0)
 -->
<!-- Title: opp Pages: 1 -->
<svg width="547pt" height="82pt"
 viewBox="0.00 0.00 546.50 82.00" xmlns="http://www.w3.org/2000/svg" xmlns:xlink="http://www.w3.org/1999/xlink">
<g id="graph0" class="graph" transform="scale(1 1) rotate(0) translate(4 78)">
<title>opp</title>
<polygon fill="transparent" stroke="transparent" points="-4,4 -4,-78 542.5,-78 542.5,4 -4,4"/>
<!-- Network -->
<g id="node1" class="node">
<title>Network</title>
<g id="a_node1"><a xlink:href="inet.examples.pim.dm.assert.Network.html" xlink:title="Network Network" target="_parent">
<polygon fill="#9090ff" stroke="black" points="312,-74 254,-74 254,-55 312,-55 312,-74"/>
<text text-anchor="middle" x="283" y="-62" font-family="Helvetica,sans-Serif" font-size="10.00">Network</text>
</a>
</g>
</g>
<!-- MulticastRouter -->
<g id="node2" class="node">
<title>MulticastRouter</title>
<g id="a_node2"><a xlink:href="inet.node.inet.MulticastRouter.html" xlink:title="Compound Module MulticastRouter" target="_parent">
<polygon fill="#fffcaf" stroke="black" points="94,-19 0,-19 0,0 94,0 94,-19"/>
<text text-anchor="middle" x="47" y="-7" font-family="Helvetica,sans-Serif" font-size="10.00">MulticastRouter</text>
</a>
</g>
</g>
<!-- Network&#45;&gt;MulticastRouter -->
<g id="edge1" class="edge">
<title>Network&#45;&gt;MulticastRouter</title>
<path fill="none" stroke="black" d="M253.59,-56.89C213.79,-47.96 142.31,-31.9 94.76,-21.22"/>
<polygon fill="black" stroke="black" points="95.52,-17.81 84.99,-19.03 93.98,-24.64 95.52,-17.81"/>
</g>
<!-- StandardHost -->
<g id="node3" class="node">
<title>StandardHost</title>
<g id="a_node3"><a xlink:href="inet.node.inet.StandardHost.html" xlink:title="Compound Module StandardHost" target="_parent">
<polygon fill="#fffcaf" stroke="black" points="195.5,-19 112.5,-19 112.5,0 195.5,0 195.5,-19"/>
<text text-anchor="middle" x="154" y="-7" font-family="Helvetica,sans-Serif" font-size="10.00">StandardHost</text>
</a>
</g>
</g>
<!-- Network&#45;&gt;StandardHost -->
<g id="edge2" class="edge">
<title>Network&#45;&gt;StandardHost</title>
<path fill="none" stroke="black" d="M262.27,-54.98C241.24,-46.34 208.45,-32.87 184.46,-23.02"/>
<polygon fill="black" stroke="black" points="185.68,-19.73 175.1,-19.17 183.02,-26.21 185.68,-19.73"/>
</g>
<!-- Ipv4NetworkConfigurator -->
<g id="node4" class="node">
<title>Ipv4NetworkConfigurator</title>
<g id="a_node4"><a xlink:href="inet.networklayer.configurator.ipv4.Ipv4NetworkConfigurator.html" xlink:title="Simple Module Ipv4NetworkConfigurator" target="_parent">
<polygon fill="#fffcaf" stroke="black" points="352.5,-19 213.5,-19 213.5,0 352.5,0 352.5,-19"/>
<text text-anchor="middle" x="283" y="-7" font-family="Helvetica,sans-Serif" font-size="10.00">Ipv4NetworkConfigurator</text>
</a>
</g>
</g>
<!-- Network&#45;&gt;Ipv4NetworkConfigurator -->
<g id="edge3" class="edge">
<title>Network&#45;&gt;Ipv4NetworkConfigurator</title>
<path fill="none" stroke="black" d="M283,-54.75C283,-47.8 283,-37.85 283,-29.13"/>
<polygon fill="black" stroke="black" points="286.5,-29.09 283,-19.09 279.5,-29.09 286.5,-29.09"/>
</g>
<!-- EthernetSwitch -->
<g id="node5" class="node">
<title>EthernetSwitch</title>
<g id="a_node5"><a xlink:href="inet.node.ethernet.EthernetSwitch.html" xlink:title="Compound Module EthernetSwitch" target="_parent">
<polygon fill="#fffcaf" stroke="black" points="461,-19 371,-19 371,0 461,0 461,-19"/>
<text text-anchor="middle" x="416" y="-7" font-family="Helvetica,sans-Serif" font-size="10.00">EthernetSwitch</text>
</a>
</g>
</g>
<!-- Network&#45;&gt;EthernetSwitch -->
<g id="edge4" class="edge">
<title>Network&#45;&gt;EthernetSwitch</title>
<path fill="none" stroke="black" d="M304.37,-54.98C326.15,-46.3 360.16,-32.75 384.92,-22.88"/>
<polygon fill="black" stroke="black" points="386.25,-26.12 394.24,-19.17 383.66,-19.62 386.25,-26.12"/>
</g>
<!-- Eth100M -->
<g id="node6" class="node">
<title>Eth100M</title>
<g id="a_node6"><a xlink:href="inet.node.ethernet.Eth100M.html" xlink:title="Channel Eth100M" target="_parent">
<polygon fill="#d0ffd0" stroke="black" points="538.5,-19 479.5,-19 479.5,0 538.5,0 538.5,-19"/>
<text text-anchor="middle" x="509" y="-7" font-family="Helvetica,sans-Serif" font-size="10.00">Eth100M</text>
</a>
</g>
</g>
<!-- Network&#45;&gt;Eth100M -->
<g id="edge5" class="edge">
<title>Network&#45;&gt;Eth100M</title>
<path fill="none" stroke="black" d="M312.08,-56.68C352.12,-47.29 424.36,-30.35 469.33,-19.8"/>
<polygon fill="black" stroke="black" points="470.37,-23.15 479.31,-17.46 468.78,-16.34 470.37,-23.15"/>
</g>
</g>
</svg>
