<?xml version="1.0" encoding="UTF-8" standalone="no"?>
<!DOCTYPE svg PUBLIC "-//W3C//DTD SVG 1.1//EN"
 "http://www.w3.org/Graphics/SVG/1.1/DTD/svg11.dtd">
<!-- Generated by graphviz version 2.43.0 (0)
 -->
<!-- Title: opp Pages: 1 -->
<svg width="573pt" height="82pt"
 viewBox="0.00 0.00 573.00 82.00" xmlns="http://www.w3.org/2000/svg" xmlns:xlink="http://www.w3.org/1999/xlink">
<g id="graph0" class="graph" transform="scale(1 1) rotate(0) translate(4 78)">
<title>opp</title>
<polygon fill="transparent" stroke="transparent" points="-4,4 -4,-78 569,-78 569,4 -4,4"/>
<!-- IPassivePacketSource -->
<g id="node1" class="node">
<title>IPassivePacketSource</title>
<g id="a_node1"><a xlink:href="inet.queueing.contract.IPassivePacketSource.html" xlink:title="Module Interface IPassivePacketSource" target="_parent">
<polygon fill="#fff700" stroke="black" stroke-dasharray="5,2" points="368,-74 247,-74 247,-55 368,-55 368,-74"/>
<text text-anchor="middle" x="307.5" y="-62" font-family="Helvetica,sans-Serif" font-size="10.00">IPassivePacketSource</text>
</a>
</g>
</g>
<!-- EmptyPacketSource -->
<g id="node2" class="node">
<title>EmptyPacketSource</title>
<g id="a_node2"><a xlink:href="inet.queueing.source.EmptyPacketSource.html" xlink:title="Simple Module EmptyPacketSource" target="_parent">
<polygon fill="#fffcaf" stroke="black" points="113,-19 0,-19 0,0 113,0 113,-19"/>
<text text-anchor="middle" x="56.5" y="-7" font-family="Helvetica,sans-Serif" font-size="10.00">EmptyPacketSource</text>
</a>
</g>
</g>
<!-- IPassivePacketSource&#45;&gt;EmptyPacketSource -->
<g id="edge1" class="edge">
<title>IPassivePacketSource&#45;&gt;EmptyPacketSource</title>
<path fill="none" stroke="black" stroke-dasharray="5,2" d="M267.17,-54.98C220.47,-45.12 143.98,-28.97 97.14,-19.08"/>
</g>
<!-- PassivePacketSource -->
<g id="node3" class="node">
<title>PassivePacketSource</title>
<g id="a_node3"><a xlink:href="inet.queueing.source.PassivePacketSource.html" xlink:title="Simple Module PassivePacketSource" target="_parent">
<polygon fill="#fffcaf" stroke="black" points="249.5,-19 131.5,-19 131.5,0 249.5,0 249.5,-19"/>
<text text-anchor="middle" x="190.5" y="-7" font-family="Helvetica,sans-Serif" font-size="10.00">PassivePacketSource</text>
</a>
</g>
</g>
<!-- IPassivePacketSource&#45;&gt;PassivePacketSource -->
<g id="edge2" class="edge">
<title>IPassivePacketSource&#45;&gt;PassivePacketSource</title>
<path fill="none" stroke="black" stroke-dasharray="5,2" d="M288.7,-54.98C267,-45.15 231.49,-29.07 209.64,-19.17"/>
</g>
<!-- IPacketPuller -->
<g id="node4" class="node">
<title>IPacketPuller</title>
<g id="a_node4"><a xlink:href="inet.queueing.contract.IPacketPuller.html" xlink:title="Module Interface IPacketPuller" target="_parent">
<polygon fill="#fffcaf" stroke="black" stroke-dasharray="5,2" points="347,-19 268,-19 268,0 347,0 347,-19"/>
<text text-anchor="middle" x="307.5" y="-7" font-family="Helvetica,sans-Serif" font-size="10.00">IPacketPuller</text>
</a>
</g>
</g>
<!-- IPassivePacketSource&#45;&gt;IPacketPuller -->
<g id="edge3" class="edge">
<title>IPassivePacketSource&#45;&gt;IPacketPuller</title>
<path fill="none" stroke="black" d="M307.5,-54.75C307.5,-44.87 307.5,-28.9 307.5,-19.09"/>
</g>
<!-- IPacketQueue -->
<g id="node5" class="node">
<title>IPacketQueue</title>
<g id="a_node5"><a xlink:href="inet.queueing.contract.IPacketQueue.html" xlink:title="Module Interface IPacketQueue" target="_parent">
<polygon fill="#fffcaf" stroke="black" stroke-dasharray="5,2" points="448,-19 365,-19 365,0 448,0 448,-19"/>
<text text-anchor="middle" x="406.5" y="-7" font-family="Helvetica,sans-Serif" font-size="10.00">IPacketQueue</text>
</a>
</g>
</g>
<!-- IPassivePacketSource&#45;&gt;IPacketQueue -->
<g id="edge4" class="edge">
<title>IPassivePacketSource&#45;&gt;IPacketQueue</title>
<path fill="none" stroke="black" d="M323.41,-54.98C341.77,-45.15 371.82,-29.07 390.3,-19.17"/>
</g>
<!-- IPacketScheduler -->
<g id="node6" class="node">
<title>IPacketScheduler</title>
<g id="a_node6"><a xlink:href="inet.queueing.contract.IPacketScheduler.html" xlink:title="Module Interface IPacketScheduler" target="_parent">
<polygon fill="#fffcaf" stroke="black" stroke-dasharray="5,2" points="565,-19 466,-19 466,0 565,0 565,-19"/>
<text text-anchor="middle" x="515.5" y="-7" font-family="Helvetica,sans-Serif" font-size="10.00">IPacketScheduler</text>
</a>
</g>
</g>
<!-- IPassivePacketSource&#45;&gt;IPacketScheduler -->
<g id="edge5" class="edge">
<title>IPassivePacketSource&#45;&gt;IPacketScheduler</title>
<path fill="none" stroke="black" d="M340.92,-54.98C379.62,-45.12 443.01,-28.97 481.82,-19.08"/>
</g>
</g>
</svg>
