<?xml version="1.0" encoding="UTF-8" standalone="no"?>
<!DOCTYPE svg PUBLIC "-//W3C//DTD SVG 1.1//EN"
 "http://www.w3.org/Graphics/SVG/1.1/DTD/svg11.dtd">
<!-- Generated by graphviz version 2.43.0 (0)
 -->
<!-- Title: opp Pages: 1 -->
<svg width="270pt" height="137pt"
 viewBox="0.00 0.00 269.50 137.00" xmlns="http://www.w3.org/2000/svg" xmlns:xlink="http://www.w3.org/1999/xlink">
<g id="graph0" class="graph" transform="scale(1 1) rotate(0) translate(4 133)">
<title>opp</title>
<polygon fill="transparent" stroke="transparent" points="-4,4 -4,-133 265.5,-133 265.5,4 -4,4"/>
<!-- ActivePacketSourceBase -->
<g id="node1" class="node">
<title>ActivePacketSourceBase</title>
<g id="a_node1"><a xlink:href="inet.queueing.base.ActivePacketSourceBase.html" xlink:title="Simple Module ActivePacketSourceBase" target="_parent">
<polygon fill="#fff700" stroke="black" points="194,-74 58,-74 58,-55 194,-55 194,-74"/>
<text text-anchor="middle" x="126" y="-62" font-family="Helvetica,sans-Serif" font-size="10.00">ActivePacketSourceBase</text>
</a>
</g>
</g>
<!-- ActivePacketSource -->
<g id="node3" class="node">
<title>ActivePacketSource</title>
<g id="a_node3"><a xlink:href="inet.queueing.source.ActivePacketSource.html" xlink:title="Simple Module ActivePacketSource" target="_parent">
<polygon fill="#fffcaf" stroke="black" points="112,-19 0,-19 0,0 112,0 112,-19"/>
<text text-anchor="middle" x="56" y="-7" font-family="Helvetica,sans-Serif" font-size="10.00">ActivePacketSource</text>
</a>
</g>
</g>
<!-- ActivePacketSourceBase&#45;&gt;ActivePacketSource -->
<g id="edge2" class="edge">
<title>ActivePacketSourceBase&#45;&gt;ActivePacketSource</title>
<path fill="none" stroke="black" d="M114.75,-54.98C101.77,-45.15 80.52,-29.07 67.45,-19.17"/>
</g>
<!-- PcapFilePacketProducer -->
<g id="node4" class="node">
<title>PcapFilePacketProducer</title>
<g id="a_node4"><a xlink:href="inet.queueing.source.PcapFilePacketProducer.html" xlink:title="Simple Module PcapFilePacketProducer" target="_parent">
<polygon fill="#fffcaf" stroke="black" points="261.5,-19 130.5,-19 130.5,0 261.5,0 261.5,-19"/>
<text text-anchor="middle" x="196" y="-7" font-family="Helvetica,sans-Serif" font-size="10.00">PcapFilePacketProducer</text>
</a>
</g>
</g>
<!-- ActivePacketSourceBase&#45;&gt;PcapFilePacketProducer -->
<g id="edge3" class="edge">
<title>ActivePacketSourceBase&#45;&gt;PcapFilePacketProducer</title>
<path fill="none" stroke="black" d="M137.25,-54.98C150.23,-45.15 171.48,-29.07 184.55,-19.17"/>
</g>
<!-- PacketSourceBase -->
<g id="node2" class="node">
<title>PacketSourceBase</title>
<g id="a_node2"><a xlink:href="inet.queueing.base.PacketSourceBase.html" xlink:title="Simple Module PacketSourceBase" target="_parent">
<polygon fill="#fffcaf" stroke="black" points="178.5,-129 73.5,-129 73.5,-110 178.5,-110 178.5,-129"/>
<text text-anchor="middle" x="126" y="-117" font-family="Helvetica,sans-Serif" font-size="10.00">PacketSourceBase</text>
</a>
</g>
</g>
<!-- PacketSourceBase&#45;&gt;ActivePacketSourceBase -->
<g id="edge1" class="edge">
<title>PacketSourceBase&#45;&gt;ActivePacketSourceBase</title>
<path fill="none" stroke="black" d="M126,-109.75C126,-99.87 126,-83.9 126,-74.09"/>
</g>
</g>
</svg>
