<?xml version="1.0" encoding="UTF-8" standalone="no"?>
<!DOCTYPE svg PUBLIC "-//W3C//DTD SVG 1.1//EN"
 "http://www.w3.org/Graphics/SVG/1.1/DTD/svg11.dtd">
<!-- Generated by graphviz version 2.43.0 (0)
 -->
<!-- Title: opp Pages: 1 -->
<svg width="308pt" height="82pt"
 viewBox="0.00 0.00 308.00 82.00" xmlns="http://www.w3.org/2000/svg" xmlns:xlink="http://www.w3.org/1999/xlink">
<g id="graph0" class="graph" transform="scale(1 1) rotate(0) translate(4 78)">
<title>opp</title>
<polygon fill="transparent" stroke="transparent" points="-4,4 -4,-78 304,-78 304,4 -4,4"/>
<!-- IEnergySink -->
<g id="node1" class="node">
<title>IEnergySink</title>
<g id="a_node1"><a xlink:href="inet.power.contract.IEnergySink.html" xlink:title="Module Interface IEnergySink" target="_parent">
<polygon fill="#fff700" stroke="black" stroke-dasharray="5,2" points="187,-74 113,-74 113,-55 187,-55 187,-74"/>
<text text-anchor="middle" x="150" y="-62" font-family="Helvetica,sans-Serif" font-size="10.00">IEnergySink</text>
</a>
</g>
</g>
<!-- ICcEnergySink -->
<g id="node2" class="node">
<title>ICcEnergySink</title>
<g id="a_node2"><a xlink:href="inet.power.contract.ICcEnergySink.html" xlink:title="Module Interface ICcEnergySink" target="_parent">
<polygon fill="#fffcaf" stroke="black" stroke-dasharray="5,2" points="86,-19 0,-19 0,0 86,0 86,-19"/>
<text text-anchor="middle" x="43" y="-7" font-family="Helvetica,sans-Serif" font-size="10.00">ICcEnergySink</text>
</a>
</g>
</g>
<!-- IEnergySink&#45;&gt;ICcEnergySink -->
<g id="edge1" class="edge">
<title>IEnergySink&#45;&gt;ICcEnergySink</title>
<path fill="none" stroke="black" d="M132.81,-54.98C112.96,-45.15 80.48,-29.07 60.5,-19.17"/>
</g>
<!-- IEnergyStorage -->
<g id="node3" class="node">
<title>IEnergyStorage</title>
<g id="a_node3"><a xlink:href="inet.power.contract.IEnergyStorage.html" xlink:title="Module Interface IEnergyStorage" target="_parent">
<polygon fill="#fffcaf" stroke="black" stroke-dasharray="5,2" points="195.5,-19 104.5,-19 104.5,0 195.5,0 195.5,-19"/>
<text text-anchor="middle" x="150" y="-7" font-family="Helvetica,sans-Serif" font-size="10.00">IEnergyStorage</text>
</a>
</g>
</g>
<!-- IEnergySink&#45;&gt;IEnergyStorage -->
<g id="edge2" class="edge">
<title>IEnergySink&#45;&gt;IEnergyStorage</title>
<path fill="none" stroke="black" d="M150,-54.75C150,-44.87 150,-28.9 150,-19.09"/>
</g>
<!-- IEpEnergySink -->
<g id="node4" class="node">
<title>IEpEnergySink</title>
<g id="a_node4"><a xlink:href="inet.power.contract.IEpEnergySink.html" xlink:title="Module Interface IEpEnergySink" target="_parent">
<polygon fill="#fffcaf" stroke="black" stroke-dasharray="5,2" points="300,-19 214,-19 214,0 300,0 300,-19"/>
<text text-anchor="middle" x="257" y="-7" font-family="Helvetica,sans-Serif" font-size="10.00">IEpEnergySink</text>
</a>
</g>
</g>
<!-- IEnergySink&#45;&gt;IEpEnergySink -->
<g id="edge3" class="edge">
<title>IEnergySink&#45;&gt;IEpEnergySink</title>
<path fill="none" stroke="black" d="M167.19,-54.98C187.04,-45.15 219.52,-29.07 239.5,-19.17"/>
</g>
</g>
</svg>
