<?xml version="1.0" encoding="UTF-8" standalone="no"?>
<!DOCTYPE svg PUBLIC "-//W3C//DTD SVG 1.1//EN"
 "http://www.w3.org/Graphics/SVG/1.1/DTD/svg11.dtd">
<!-- Generated by graphviz version 2.43.0 (0)
 -->
<!-- Title: opp Pages: 1 -->
<svg width="280pt" height="82pt"
 viewBox="0.00 0.00 279.50 82.00" xmlns="http://www.w3.org/2000/svg" xmlns:xlink="http://www.w3.org/1999/xlink">
<g id="graph0" class="graph" transform="scale(1 1) rotate(0) translate(4 78)">
<title>opp</title>
<polygon fill="transparent" stroke="transparent" points="-4,4 -4,-78 275.5,-78 275.5,4 -4,4"/>
<!-- LinkBreakCanvasVisualizer -->
<g id="node1" class="node">
<title>LinkBreakCanvasVisualizer</title>
<g id="a_node1"><a xlink:href="inet.visualizer.canvas.linklayer.LinkBreakCanvasVisualizer.html" xlink:title="Simple Module LinkBreakCanvasVisualizer" target="_parent">
<polygon fill="#fff700" stroke="black" points="215,-19 66,-19 66,0 215,0 215,-19"/>
<text text-anchor="middle" x="140.5" y="-7" font-family="Helvetica,sans-Serif" font-size="10.00">LinkBreakCanvasVisualizer</text>
</a>
</g>
</g>
<!-- LinkBreakVisualizerBase -->
<g id="node2" class="node">
<title>LinkBreakVisualizerBase</title>
<g id="a_node2"><a xlink:href="inet.visualizer.base.LinkBreakVisualizerBase.html" xlink:title="Simple Module LinkBreakVisualizerBase" target="_parent">
<polygon fill="#fffcaf" stroke="black" points="137,-74 0,-74 0,-55 137,-55 137,-74"/>
<text text-anchor="middle" x="68.5" y="-62" font-family="Helvetica,sans-Serif" font-size="10.00">LinkBreakVisualizerBase</text>
</a>
</g>
</g>
<!-- LinkBreakVisualizerBase&#45;&gt;LinkBreakCanvasVisualizer -->
<g id="edge1" class="edge">
<title>LinkBreakVisualizerBase&#45;&gt;LinkBreakCanvasVisualizer</title>
<path fill="none" stroke="black" d="M80.07,-54.98C93.42,-45.15 115.28,-29.07 128.72,-19.17"/>
</g>
<!-- ILinkBreakVisualizer -->
<g id="node3" class="node">
<title>ILinkBreakVisualizer</title>
<g id="a_node3"><a xlink:href="inet.visualizer.contract.ILinkBreakVisualizer.html" xlink:title="Module Interface ILinkBreakVisualizer" target="_parent">
<polygon fill="#fffcaf" stroke="black" stroke-dasharray="5,2" points="271.5,-74 155.5,-74 155.5,-55 271.5,-55 271.5,-74"/>
<text text-anchor="middle" x="213.5" y="-62" font-family="Helvetica,sans-Serif" font-size="10.00">ILinkBreakVisualizer</text>
</a>
</g>
</g>
<!-- ILinkBreakVisualizer&#45;&gt;LinkBreakCanvasVisualizer -->
<g id="edge2" class="edge">
<title>ILinkBreakVisualizer&#45;&gt;LinkBreakCanvasVisualizer</title>
<path fill="none" stroke="black" stroke-dasharray="5,2" d="M201.77,-54.98C188.23,-45.15 166.07,-29.07 152.44,-19.17"/>
</g>
</g>
</svg>
