<?xml version="1.0" encoding="UTF-8" standalone="no"?>
<!DOCTYPE svg PUBLIC "-//W3C//DTD SVG 1.1//EN"
 "http://www.w3.org/Graphics/SVG/1.1/DTD/svg11.dtd">
<!-- Generated by graphviz version 2.43.0 (0)
 -->
<!-- Title: opp Pages: 1 -->
<svg width="738pt" height="82pt"
 viewBox="0.00 0.00 738.00 82.00" xmlns="http://www.w3.org/2000/svg" xmlns:xlink="http://www.w3.org/1999/xlink">
<g id="graph0" class="graph" transform="scale(1 1) rotate(0) translate(4 78)">
<title>opp</title>
<polygon fill="transparent" stroke="transparent" points="-4,4 -4,-78 734,-78 734,4 -4,4"/>
<!-- QueueBasedTokenGeneratorTutorialStep -->
<g id="node1" class="node">
<title>QueueBasedTokenGeneratorTutorialStep</title>
<g id="a_node1"><a xlink:href="inet.tutorials.queueing.QueueBasedTokenGeneratorTutorialStep.html" xlink:title="Network QueueBasedTokenGeneratorTutorialStep" target="_parent">
<polygon fill="#9090ff" stroke="black" points="455,-74 243,-74 243,-55 455,-55 455,-74"/>
<text text-anchor="middle" x="349" y="-62" font-family="Helvetica,sans-Serif" font-size="10.00">QueueBasedTokenGeneratorTutorialStep</text>
</a>
</g>
</g>
<!-- PassivePacketSource -->
<g id="node2" class="node">
<title>PassivePacketSource</title>
<g id="a_node2"><a xlink:href="inet.queueing.source.PassivePacketSource.html" xlink:title="Simple Module PassivePacketSource" target="_parent">
<polygon fill="#fffcaf" stroke="black" points="118,-19 0,-19 0,0 118,0 118,-19"/>
<text text-anchor="middle" x="59" y="-7" font-family="Helvetica,sans-Serif" font-size="10.00">PassivePacketSource</text>
</a>
</g>
</g>
<!-- QueueBasedTokenGeneratorTutorialStep&#45;&gt;PassivePacketSource -->
<g id="edge1" class="edge">
<title>QueueBasedTokenGeneratorTutorialStep&#45;&gt;PassivePacketSource</title>
<path fill="none" stroke="black" d="M302.41,-54.98C251.61,-45.7 170.31,-30.84 115.81,-20.88"/>
<polygon fill="black" stroke="black" points="116.43,-17.44 105.96,-19.08 115.17,-24.32 116.43,-17.44"/>
</g>
<!-- TokenBasedServer -->
<g id="node3" class="node">
<title>TokenBasedServer</title>
<g id="a_node3"><a xlink:href="inet.queueing.server.TokenBasedServer.html" xlink:title="Simple Module TokenBasedServer" target="_parent">
<polygon fill="#fffcaf" stroke="black" points="242,-19 136,-19 136,0 242,0 242,-19"/>
<text text-anchor="middle" x="189" y="-7" font-family="Helvetica,sans-Serif" font-size="10.00">TokenBasedServer</text>
</a>
</g>
</g>
<!-- QueueBasedTokenGeneratorTutorialStep&#45;&gt;TokenBasedServer -->
<g id="edge2" class="edge">
<title>QueueBasedTokenGeneratorTutorialStep&#45;&gt;TokenBasedServer</title>
<path fill="none" stroke="black" d="M323.29,-54.98C296.55,-46.13 254.47,-32.19 224.55,-22.28"/>
<polygon fill="black" stroke="black" points="225.5,-18.9 214.91,-19.08 223.3,-25.55 225.5,-18.9"/>
</g>
<!-- PacketQueue -->
<g id="node4" class="node">
<title>PacketQueue</title>
<g id="a_node4"><a xlink:href="inet.queueing.queue.PacketQueue.html" xlink:title="Simple Module PacketQueue" target="_parent">
<polygon fill="#fffcaf" stroke="black" points="340,-19 260,-19 260,0 340,0 340,-19"/>
<text text-anchor="middle" x="300" y="-7" font-family="Helvetica,sans-Serif" font-size="10.00">PacketQueue</text>
</a>
</g>
</g>
<!-- QueueBasedTokenGeneratorTutorialStep&#45;&gt;PacketQueue -->
<g id="edge3" class="edge">
<title>QueueBasedTokenGeneratorTutorialStep&#45;&gt;PacketQueue</title>
<path fill="none" stroke="black" d="M340.91,-54.75C333.84,-47.11 323.41,-35.82 314.85,-26.56"/>
<polygon fill="black" stroke="black" points="317.3,-24.06 307.94,-19.09 312.16,-28.81 317.3,-24.06"/>
</g>
<!-- IdealChannel -->
<g id="node5" class="node">
<title>IdealChannel</title>
<g id="a_node5"><a xlink:href="ned.IdealChannel.html" xlink:title="Channel IdealChannel" target="_parent">
<polygon fill="#d0ffd0" stroke="black" points="438,-19 358,-19 358,0 438,0 438,-19"/>
<text text-anchor="middle" x="398" y="-7" font-family="Helvetica,sans-Serif" font-size="10.00">IdealChannel</text>
</a>
</g>
</g>
<!-- QueueBasedTokenGeneratorTutorialStep&#45;&gt;IdealChannel -->
<g id="edge4" class="edge">
<title>QueueBasedTokenGeneratorTutorialStep&#45;&gt;IdealChannel</title>
<path fill="none" stroke="black" d="M357.09,-54.75C364.16,-47.11 374.59,-35.82 383.15,-26.56"/>
<polygon fill="black" stroke="black" points="385.84,-28.81 390.06,-19.09 380.7,-24.06 385.84,-28.81"/>
</g>
<!-- QueueBasedTokenGenerator -->
<g id="node6" class="node">
<title>QueueBasedTokenGenerator</title>
<g id="a_node6"><a xlink:href="inet.queueing.tokengenerator.QueueBasedTokenGenerator.html" xlink:title="Simple Module QueueBasedTokenGenerator" target="_parent">
<polygon fill="#fffcaf" stroke="black" points="611.5,-19 456.5,-19 456.5,0 611.5,0 611.5,-19"/>
<text text-anchor="middle" x="534" y="-7" font-family="Helvetica,sans-Serif" font-size="10.00">QueueBasedTokenGenerator</text>
</a>
</g>
</g>
<!-- QueueBasedTokenGeneratorTutorialStep&#45;&gt;QueueBasedTokenGenerator -->
<g id="edge5" class="edge">
<title>QueueBasedTokenGeneratorTutorialStep&#45;&gt;QueueBasedTokenGenerator</title>
<path fill="none" stroke="black" d="M378.72,-54.98C410.05,-46.01 459.57,-31.82 494.24,-21.89"/>
<polygon fill="black" stroke="black" points="495.39,-25.2 504.04,-19.08 493.47,-18.47 495.39,-25.2"/>
</g>
<!-- ActivePacketSink -->
<g id="node7" class="node">
<title>ActivePacketSink</title>
<g id="a_node7"><a xlink:href="inet.queueing.sink.ActivePacketSink.html" xlink:title="Simple Module ActivePacketSink" target="_parent">
<polygon fill="#fffcaf" stroke="black" points="730,-19 630,-19 630,0 730,0 730,-19"/>
<text text-anchor="middle" x="680" y="-7" font-family="Helvetica,sans-Serif" font-size="10.00">ActivePacketSink</text>
</a>
</g>
</g>
<!-- QueueBasedTokenGeneratorTutorialStep&#45;&gt;ActivePacketSink -->
<g id="edge6" class="edge">
<title>QueueBasedTokenGeneratorTutorialStep&#45;&gt;ActivePacketSink</title>
<path fill="none" stroke="black" d="M402.18,-54.98C461.64,-45.46 557.73,-30.08 619.88,-20.13"/>
<polygon fill="black" stroke="black" points="620.61,-23.55 629.93,-18.52 619.5,-16.64 620.61,-23.55"/>
</g>
</g>
</svg>
