<?xml version="1.0" encoding="UTF-8" standalone="no"?>
<!DOCTYPE svg PUBLIC "-//W3C//DTD SVG 1.1//EN"
 "http://www.w3.org/Graphics/SVG/1.1/DTD/svg11.dtd">
<!-- Generated by graphviz version 2.43.0 (0)
 -->
<!-- Title: opp Pages: 1 -->
<svg width="185pt" height="82pt"
 viewBox="0.00 0.00 184.50 82.00" xmlns="http://www.w3.org/2000/svg" xmlns:xlink="http://www.w3.org/1999/xlink">
<g id="graph0" class="graph" transform="scale(1 1) rotate(0) translate(4 78)">
<title>opp</title>
<polygon fill="transparent" stroke="transparent" points="-4,4 -4,-78 180.5,-78 180.5,4 -4,4"/>
<!-- Ieee80211LlcLpd -->
<g id="node1" class="node">
<title>Ieee80211LlcLpd</title>
<g id="a_node1"><a xlink:href="inet.linklayer.ieee80211.llc.Ieee80211LlcLpd.html" xlink:title="Simple Module Ieee80211LlcLpd" target="_parent">
<polygon fill="#fff700" stroke="black" points="134.5,-19 36.5,-19 36.5,0 134.5,0 134.5,-19"/>
<text text-anchor="middle" x="85.5" y="-7" font-family="Helvetica,sans-Serif" font-size="10.00">Ieee80211LlcLpd</text>
</a>
</g>
</g>
<!-- Ieee8022Llc -->
<g id="node2" class="node">
<title>Ieee8022Llc</title>
<g id="a_node2"><a xlink:href="inet.linklayer.ieee8022.Ieee8022Llc.html" xlink:title="Simple Module Ieee8022Llc" target="_parent">
<polygon fill="#fffcaf" stroke="black" points="75,-74 0,-74 0,-55 75,-55 75,-74"/>
<text text-anchor="middle" x="37.5" y="-62" font-family="Helvetica,sans-Serif" font-size="10.00">Ieee8022Llc</text>
</a>
</g>
</g>
<!-- Ieee8022Llc&#45;&gt;Ieee80211LlcLpd -->
<g id="edge1" class="edge">
<title>Ieee8022Llc&#45;&gt;Ieee80211LlcLpd</title>
<path fill="none" stroke="black" d="M45.43,-54.75C54.37,-44.87 68.84,-28.9 77.72,-19.09"/>
</g>
<!-- IIeee80211Llc -->
<g id="node3" class="node">
<title>IIeee80211Llc</title>
<g id="a_node3"><a xlink:href="inet.linklayer.ieee80211.llc.IIeee80211Llc.html" xlink:title="Module Interface IIeee80211Llc" target="_parent">
<polygon fill="#fffcaf" stroke="black" stroke-dasharray="5,2" points="176.5,-74 92.5,-74 92.5,-55 176.5,-55 176.5,-74"/>
<text text-anchor="middle" x="134.5" y="-62" font-family="Helvetica,sans-Serif" font-size="10.00">IIeee80211Llc</text>
</a>
</g>
</g>
<!-- IIeee80211Llc&#45;&gt;Ieee80211LlcLpd -->
<g id="edge2" class="edge">
<title>IIeee80211Llc&#45;&gt;Ieee80211LlcLpd</title>
<path fill="none" stroke="black" stroke-dasharray="5,2" d="M126.41,-54.75C117.28,-44.87 102.51,-28.9 93.44,-19.09"/>
</g>
</g>
</svg>
