<?xml version="1.0" encoding="UTF-8" standalone="no"?>
<!DOCTYPE svg PUBLIC "-//W3C//DTD SVG 1.1//EN"
 "http://www.w3.org/Graphics/SVG/1.1/DTD/svg11.dtd">
<!-- Generated by graphviz version 2.43.0 (0)
 -->
<!-- Title: opp Pages: 1 -->
<svg width="4622pt" height="137pt"
 viewBox="0.00 0.00 4622.00 137.00" xmlns="http://www.w3.org/2000/svg" xmlns:xlink="http://www.w3.org/1999/xlink">
<g id="graph0" class="graph" transform="scale(1 1) rotate(0) translate(4 133)">
<title>opp</title>
<polygon fill="transparent" stroke="transparent" points="-4,4 -4,-133 4618,-133 4618,4 -4,4"/>
<!-- IPacketFlow -->
<g id="node1" class="node">
<title>IPacketFlow</title>
<g id="a_node1"><a xlink:href="inet.queueing.contract.IPacketFlow.html" xlink:title="Module Interface IPacketFlow" target="_parent">
<polygon fill="#fff700" stroke="black" stroke-dasharray="5,2" points="2798,-74 2724,-74 2724,-55 2798,-55 2798,-74"/>
<text text-anchor="middle" x="2761" y="-62" font-family="Helvetica,sans-Serif" font-size="10.00">IPacketFlow</text>
</a>
</g>
</g>
<!-- EthernetAddressInserter -->
<g id="node4" class="node">
<title>EthernetAddressInserter</title>
<g id="a_node4"><a xlink:href="inet.linklayer.ethernet.modular.EthernetAddressInserter.html" xlink:title="Simple Module EthernetAddressInserter" target="_parent">
<polygon fill="#fffcaf" stroke="black" points="134,-19 0,-19 0,0 134,0 134,-19"/>
<text text-anchor="middle" x="67" y="-7" font-family="Helvetica,sans-Serif" font-size="10.00">EthernetAddressInserter</text>
</a>
</g>
</g>
<!-- IPacketFlow&#45;&gt;EthernetAddressInserter -->
<g id="edge3" class="edge">
<title>IPacketFlow&#45;&gt;EthernetAddressInserter</title>
<path fill="none" stroke="black" stroke-dasharray="5,2" d="M2723.6,-63.35C2444.05,-62.16 677.17,-53.33 143,-19 140.09,-18.81 137.11,-18.59 134.11,-18.35"/>
</g>
<!-- EthernetFcsInserter -->
<g id="node5" class="node">
<title>EthernetFcsInserter</title>
<g id="a_node5"><a xlink:href="inet.linklayer.ethernet.modular.EthernetFcsInserter.html" xlink:title="Simple Module EthernetFcsInserter" target="_parent">
<polygon fill="#fffcaf" stroke="black" points="264,-19 152,-19 152,0 264,0 264,-19"/>
<text text-anchor="middle" x="208" y="-7" font-family="Helvetica,sans-Serif" font-size="10.00">EthernetFcsInserter</text>
</a>
</g>
</g>
<!-- IPacketFlow&#45;&gt;EthernetFcsInserter -->
<g id="edge4" class="edge">
<title>IPacketFlow&#45;&gt;EthernetFcsInserter</title>
<path fill="none" stroke="black" stroke-dasharray="5,2" d="M2723.74,-63.41C2452.61,-62.65 779.23,-56.51 273,-19 270.16,-18.79 267.26,-18.54 264.33,-18.26"/>
</g>
<!-- EthernetFragmentFcsInserter -->
<g id="node6" class="node">
<title>EthernetFragmentFcsInserter</title>
<g id="a_node6"><a xlink:href="inet.linklayer.ethernet.modular.EthernetFragmentFcsInserter.html" xlink:title="Simple Module EthernetFragmentFcsInserter" target="_parent">
<polygon fill="#fffcaf" stroke="black" points="440,-19 282,-19 282,0 440,0 440,-19"/>
<text text-anchor="middle" x="361" y="-7" font-family="Helvetica,sans-Serif" font-size="10.00">EthernetFragmentFcsInserter</text>
</a>
</g>
</g>
<!-- IPacketFlow&#45;&gt;EthernetFragmentFcsInserter -->
<g id="edge5" class="edge">
<title>IPacketFlow&#45;&gt;EthernetFragmentFcsInserter</title>
<path fill="none" stroke="black" stroke-dasharray="5,2" d="M2723.92,-63.18C2464.47,-60.92 917.62,-46.42 448,-19 445.42,-18.85 442.81,-18.68 440.17,-18.5"/>
</g>
<!-- EthernetFragmentPhyHeaderInserter -->
<g id="node7" class="node">
<title>EthernetFragmentPhyHeaderInserter</title>
<g id="a_node7"><a xlink:href="inet.physicallayer.wired.ethernet.EthernetFragmentPhyHeaderInserter.html" xlink:title="Simple Module EthernetFragmentPhyHeaderInserter" target="_parent">
<polygon fill="#fffcaf" stroke="black" points="652.5,-19 457.5,-19 457.5,0 652.5,0 652.5,-19"/>
<text text-anchor="middle" x="555" y="-7" font-family="Helvetica,sans-Serif" font-size="10.00">EthernetFragmentPhyHeaderInserter</text>
</a>
</g>
</g>
<!-- IPacketFlow&#45;&gt;EthernetFragmentPhyHeaderInserter -->
<g id="edge6" class="edge">
<title>IPacketFlow&#45;&gt;EthernetFragmentPhyHeaderInserter</title>
<path fill="none" stroke="black" stroke-dasharray="5,2" d="M2723.68,-63.53C2517.32,-63.52 1495.01,-61.24 661,-19 658.23,-18.86 655.43,-18.71 652.6,-18.54"/>
</g>
<!-- EthernetPhyHeaderInserter -->
<g id="node8" class="node">
<title>EthernetPhyHeaderInserter</title>
<g id="a_node8"><a xlink:href="inet.physicallayer.wired.ethernet.EthernetPhyHeaderInserter.html" xlink:title="Simple Module EthernetPhyHeaderInserter" target="_parent">
<polygon fill="#fffcaf" stroke="black" points="819.5,-19 670.5,-19 670.5,0 819.5,0 819.5,-19"/>
<text text-anchor="middle" x="745" y="-7" font-family="Helvetica,sans-Serif" font-size="10.00">EthernetPhyHeaderInserter</text>
</a>
</g>
</g>
<!-- IPacketFlow&#45;&gt;EthernetPhyHeaderInserter -->
<g id="edge7" class="edge">
<title>IPacketFlow&#45;&gt;EthernetPhyHeaderInserter</title>
<path fill="none" stroke="black" stroke-dasharray="5,2" d="M2723.8,-63.72C2527.47,-64.66 1592.07,-66.32 829,-19 825.93,-18.81 822.79,-18.59 819.63,-18.36"/>
</g>
<!-- EthernetSocketCommandProcessor -->
<g id="node9" class="node">
<title>EthernetSocketCommandProcessor</title>
<g id="a_node9"><a xlink:href="inet.linklayer.ethernet.modular.EthernetSocketCommandProcessor.html" xlink:title="Simple Module EthernetSocketCommandProcessor" target="_parent">
<polygon fill="#fffcaf" stroke="black" points="1026,-19 838,-19 838,0 1026,0 1026,-19"/>
<text text-anchor="middle" x="932" y="-7" font-family="Helvetica,sans-Serif" font-size="10.00">EthernetSocketCommandProcessor</text>
</a>
</g>
</g>
<!-- IPacketFlow&#45;&gt;EthernetSocketCommandProcessor -->
<g id="edge8" class="edge">
<title>IPacketFlow&#45;&gt;EthernetSocketCommandProcessor</title>
<path fill="none" stroke="black" stroke-dasharray="5,2" d="M2723.93,-63.32C2540.55,-62.27 1712.2,-55.64 1035,-19 1032.04,-18.84 1029.04,-18.67 1026.01,-18.48"/>
</g>
<!-- EthernetSocketPacketProcessor -->
<g id="node10" class="node">
<title>EthernetSocketPacketProcessor</title>
<g id="a_node10"><a xlink:href="inet.linklayer.ethernet.modular.EthernetSocketPacketProcessor.html" xlink:title="Simple Module EthernetSocketPacketProcessor" target="_parent">
<polygon fill="#fffcaf" stroke="black" points="1213.5,-19 1044.5,-19 1044.5,0 1213.5,0 1213.5,-19"/>
<text text-anchor="middle" x="1129" y="-7" font-family="Helvetica,sans-Serif" font-size="10.00">EthernetSocketPacketProcessor</text>
</a>
</g>
</g>
<!-- IPacketFlow&#45;&gt;EthernetSocketPacketProcessor -->
<g id="edge9" class="edge">
<title>IPacketFlow&#45;&gt;EthernetSocketPacketProcessor</title>
<path fill="none" stroke="black" stroke-dasharray="5,2" d="M2723.78,-63.26C2552.3,-62 1821.3,-54.67 1223,-19 1219.89,-18.81 1216.73,-18.61 1213.53,-18.39"/>
</g>
<!-- EthernetTypeOrLengthInserter -->
<g id="node11" class="node">
<title>EthernetTypeOrLengthInserter</title>
<g id="a_node11"><a xlink:href="inet.linklayer.ethernet.modular.EthernetTypeOrLengthInserter.html" xlink:title="Simple Module EthernetTypeOrLengthInserter" target="_parent">
<polygon fill="#fffcaf" stroke="black" points="1394,-19 1232,-19 1232,0 1394,0 1394,-19"/>
<text text-anchor="middle" x="1313" y="-7" font-family="Helvetica,sans-Serif" font-size="10.00">EthernetTypeOrLengthInserter</text>
</a>
</g>
</g>
<!-- IPacketFlow&#45;&gt;EthernetTypeOrLengthInserter -->
<g id="edge10" class="edge">
<title>IPacketFlow&#45;&gt;EthernetTypeOrLengthInserter</title>
<path fill="none" stroke="black" stroke-dasharray="5,2" d="M2723.96,-63.12C2565.21,-61.32 1926.51,-52.27 1403,-19 1400.18,-18.82 1397.31,-18.62 1394.42,-18.42"/>
</g>
<!-- FlowMeasurementRecorder -->
<g id="node12" class="node">
<title>FlowMeasurementRecorder</title>
<g id="a_node12"><a xlink:href="inet.queueing.flow.FlowMeasurementRecorder.html" xlink:title="Simple Module FlowMeasurementRecorder" target="_parent">
<polygon fill="#fffcaf" stroke="black" points="1563.5,-19 1412.5,-19 1412.5,0 1563.5,0 1563.5,-19"/>
<text text-anchor="middle" x="1488" y="-7" font-family="Helvetica,sans-Serif" font-size="10.00">FlowMeasurementRecorder</text>
</a>
</g>
</g>
<!-- IPacketFlow&#45;&gt;FlowMeasurementRecorder -->
<g id="edge11" class="edge">
<title>IPacketFlow&#45;&gt;FlowMeasurementRecorder</title>
<path fill="none" stroke="black" stroke-dasharray="5,2" d="M2723.75,-62.95C2577.15,-60.6 2025.74,-50.09 1573,-19 1569.89,-18.79 1566.72,-18.55 1563.52,-18.3"/>
</g>
<!-- FlowMeasurementStarter -->
<g id="node13" class="node">
<title>FlowMeasurementStarter</title>
<g id="a_node13"><a xlink:href="inet.queueing.flow.FlowMeasurementStarter.html" xlink:title="Simple Module FlowMeasurementStarter" target="_parent">
<polygon fill="#fffcaf" stroke="black" points="1722,-19 1582,-19 1582,0 1722,0 1722,-19"/>
<text text-anchor="middle" x="1652" y="-7" font-family="Helvetica,sans-Serif" font-size="10.00">FlowMeasurementStarter</text>
</a>
</g>
</g>
<!-- IPacketFlow&#45;&gt;FlowMeasurementStarter -->
<g id="edge12" class="edge">
<title>IPacketFlow&#45;&gt;FlowMeasurementStarter</title>
<path fill="none" stroke="black" stroke-dasharray="5,2" d="M2724,-62.76C2590.17,-59.89 2118.75,-48.21 1731,-19 1728.11,-18.78 1725.17,-18.54 1722.19,-18.29"/>
</g>
<!-- Ieee8021qSocketCommandProcessor -->
<g id="node14" class="node">
<title>Ieee8021qSocketCommandProcessor</title>
<g id="a_node14"><a xlink:href="inet.linklayer.ieee8021q.Ieee8021qSocketCommandProcessor.html" xlink:title="Simple Module Ieee8021qSocketCommandProcessor" target="_parent">
<polygon fill="#fffcaf" stroke="black" points="1937.5,-19 1740.5,-19 1740.5,0 1937.5,0 1937.5,-19"/>
<text text-anchor="middle" x="1839" y="-7" font-family="Helvetica,sans-Serif" font-size="10.00">Ieee8021qSocketCommandProcessor</text>
</a>
</g>
</g>
<!-- IPacketFlow&#45;&gt;Ieee8021qSocketCommandProcessor -->
<g id="edge13" class="edge">
<title>IPacketFlow&#45;&gt;Ieee8021qSocketCommandProcessor</title>
<path fill="none" stroke="black" stroke-dasharray="5,2" d="M2723.61,-61.79C2607.96,-56.42 2245.74,-39.09 1946,-19 1943.21,-18.81 1940.38,-18.62 1937.53,-18.42"/>
</g>
<!-- Ieee8021qSocketPacketProcessor -->
<g id="node15" class="node">
<title>Ieee8021qSocketPacketProcessor</title>
<g id="a_node15"><a xlink:href="inet.linklayer.ieee8021q.Ieee8021qSocketPacketProcessor.html" xlink:title="Simple Module Ieee8021qSocketPacketProcessor" target="_parent">
<polygon fill="#fffcaf" stroke="black" points="2134.5,-19 1955.5,-19 1955.5,0 2134.5,0 2134.5,-19"/>
<text text-anchor="middle" x="2045" y="-7" font-family="Helvetica,sans-Serif" font-size="10.00">Ieee8021qSocketPacketProcessor</text>
</a>
</g>
</g>
<!-- IPacketFlow&#45;&gt;Ieee8021qSocketPacketProcessor -->
<g id="edge14" class="edge">
<title>IPacketFlow&#45;&gt;Ieee8021qSocketPacketProcessor</title>
<path fill="none" stroke="black" stroke-dasharray="5,2" d="M2723.72,-61.01C2627.52,-54.53 2363.09,-36.47 2143,-19 2140.28,-18.78 2137.51,-18.56 2134.72,-18.33"/>
</g>
<!-- Ieee8022LlcSocketCommandProcessor -->
<g id="node16" class="node">
<title>Ieee8022LlcSocketCommandProcessor</title>
<g id="a_node16"><a xlink:href="inet.linklayer.ieee8022.Ieee8022LlcSocketCommandProcessor.html" xlink:title="Simple Module Ieee8022LlcSocketCommandProcessor" target="_parent">
<polygon fill="#fffcaf" stroke="black" points="2357.5,-19 2152.5,-19 2152.5,0 2357.5,0 2357.5,-19"/>
<text text-anchor="middle" x="2255" y="-7" font-family="Helvetica,sans-Serif" font-size="10.00">Ieee8022LlcSocketCommandProcessor</text>
</a>
</g>
</g>
<!-- IPacketFlow&#45;&gt;Ieee8022LlcSocketCommandProcessor -->
<g id="edge15" class="edge">
<title>IPacketFlow&#45;&gt;Ieee8022LlcSocketCommandProcessor</title>
<path fill="none" stroke="black" stroke-dasharray="5,2" d="M2723.79,-59.6C2642.54,-51.09 2447.64,-30.68 2336.41,-19.03"/>
</g>
<!-- Ieee8022LlcSocketPacketProcessor -->
<g id="node17" class="node">
<title>Ieee8022LlcSocketPacketProcessor</title>
<g id="a_node17"><a xlink:href="inet.linklayer.ieee8022.Ieee8022LlcSocketPacketProcessor.html" xlink:title="Simple Module Ieee8022LlcSocketPacketProcessor" target="_parent">
<polygon fill="#fffcaf" stroke="black" points="2561,-19 2375,-19 2375,0 2561,0 2561,-19"/>
<text text-anchor="middle" x="2468" y="-7" font-family="Helvetica,sans-Serif" font-size="10.00">Ieee8022LlcSocketPacketProcessor</text>
</a>
</g>
</g>
<!-- IPacketFlow&#45;&gt;Ieee8022LlcSocketPacketProcessor -->
<g id="edge16" class="edge">
<title>IPacketFlow&#45;&gt;Ieee8022LlcSocketPacketProcessor</title>
<path fill="none" stroke="black" stroke-dasharray="5,2" d="M2723.89,-56.79C2670.84,-47.19 2573.33,-29.55 2515.21,-19.04"/>
</g>
<!-- OmittedPacketFlow -->
<g id="node18" class="node">
<title>OmittedPacketFlow</title>
<g id="a_node18"><a xlink:href="inet.queueing.common.OmittedPacketFlow.html" xlink:title="Compound Module OmittedPacketFlow" target="_parent">
<polygon fill="#fffcaf" stroke="black" points="2689.5,-19 2578.5,-19 2578.5,0 2689.5,0 2689.5,-19"/>
<text text-anchor="middle" x="2634" y="-7" font-family="Helvetica,sans-Serif" font-size="10.00">OmittedPacketFlow</text>
</a>
</g>
</g>
<!-- IPacketFlow&#45;&gt;OmittedPacketFlow -->
<g id="edge17" class="edge">
<title>IPacketFlow&#45;&gt;OmittedPacketFlow</title>
<path fill="none" stroke="black" stroke-dasharray="5,2" d="M2740.6,-54.98C2717.04,-45.15 2678.49,-29.07 2654.78,-19.17"/>
</g>
<!-- PacketDestreamer -->
<g id="node19" class="node">
<title>PacketDestreamer</title>
<g id="a_node19"><a xlink:href="inet.protocolelement.common.PacketDestreamer.html" xlink:title="Simple Module PacketDestreamer" target="_parent">
<polygon fill="#fffcaf" stroke="black" points="2814,-19 2708,-19 2708,0 2814,0 2814,-19"/>
<text text-anchor="middle" x="2761" y="-7" font-family="Helvetica,sans-Serif" font-size="10.00">PacketDestreamer</text>
</a>
</g>
</g>
<!-- IPacketFlow&#45;&gt;PacketDestreamer -->
<g id="edge18" class="edge">
<title>IPacketFlow&#45;&gt;PacketDestreamer</title>
<path fill="none" stroke="black" stroke-dasharray="5,2" d="M2761,-54.75C2761,-44.87 2761,-28.9 2761,-19.09"/>
</g>
<!-- PacketDirectionReverser -->
<g id="node20" class="node">
<title>PacketDirectionReverser</title>
<g id="a_node20"><a xlink:href="inet.linklayer.ethernet.common.PacketDirectionReverser.html" xlink:title="Simple Module PacketDirectionReverser" target="_parent">
<polygon fill="#fffcaf" stroke="black" points="2968,-19 2832,-19 2832,0 2968,0 2968,-19"/>
<text text-anchor="middle" x="2900" y="-7" font-family="Helvetica,sans-Serif" font-size="10.00">PacketDirectionReverser</text>
</a>
</g>
</g>
<!-- IPacketFlow&#45;&gt;PacketDirectionReverser -->
<g id="edge19" class="edge">
<title>IPacketFlow&#45;&gt;PacketDirectionReverser</title>
<path fill="none" stroke="black" stroke-dasharray="5,2" d="M2783.33,-54.98C2809.12,-45.15 2851.3,-29.07 2877.26,-19.17"/>
</g>
<!-- PacketEmitter -->
<g id="node21" class="node">
<title>PacketEmitter</title>
<g id="a_node21"><a xlink:href="inet.protocolelement.common.PacketEmitter.html" xlink:title="Simple Module PacketEmitter" target="_parent">
<polygon fill="#fffcaf" stroke="black" points="3070,-19 2986,-19 2986,0 3070,0 3070,-19"/>
<text text-anchor="middle" x="3028" y="-7" font-family="Helvetica,sans-Serif" font-size="10.00">PacketEmitter</text>
</a>
</g>
</g>
<!-- IPacketFlow&#45;&gt;PacketEmitter -->
<g id="edge20" class="edge">
<title>IPacketFlow&#45;&gt;PacketEmitter</title>
<path fill="none" stroke="black" stroke-dasharray="5,2" d="M2798.13,-56.13C2847.42,-46.35 2934.24,-29.11 2985.91,-18.85"/>
</g>
<!-- PacketStreamer -->
<g id="node22" class="node">
<title>PacketStreamer</title>
<g id="a_node22"><a xlink:href="inet.protocolelement.common.PacketStreamer.html" xlink:title="Simple Module PacketStreamer" target="_parent">
<polygon fill="#fffcaf" stroke="black" points="3180.5,-19 3087.5,-19 3087.5,0 3180.5,0 3180.5,-19"/>
<text text-anchor="middle" x="3134" y="-7" font-family="Helvetica,sans-Serif" font-size="10.00">PacketStreamer</text>
</a>
</g>
</g>
<!-- IPacketFlow&#45;&gt;PacketStreamer -->
<g id="edge21" class="edge">
<title>IPacketFlow&#45;&gt;PacketStreamer</title>
<path fill="none" stroke="black" stroke-dasharray="5,2" d="M2798.23,-58.47C2857.64,-50.39 2977.52,-33.94 3079,-19 3081.77,-18.59 3084.62,-18.17 3087.5,-17.73"/>
</g>
<!-- PaddingInserter -->
<g id="node23" class="node">
<title>PaddingInserter</title>
<g id="a_node23"><a xlink:href="inet.protocolelement.common.PaddingInserter.html" xlink:title="Simple Module PaddingInserter" target="_parent">
<polygon fill="#fffcaf" stroke="black" points="3291,-19 3199,-19 3199,0 3291,0 3291,-19"/>
<text text-anchor="middle" x="3245" y="-7" font-family="Helvetica,sans-Serif" font-size="10.00">PaddingInserter</text>
</a>
</g>
</g>
<!-- IPacketFlow&#45;&gt;PaddingInserter -->
<g id="edge22" class="edge">
<title>IPacketFlow&#45;&gt;PaddingInserter</title>
<path fill="none" stroke="black" stroke-dasharray="5,2" d="M2798.08,-60.28C2872.52,-53.68 3045.37,-37.66 3190,-19 3192.87,-18.63 3195.83,-18.23 3198.81,-17.81"/>
</g>
<!-- PreemptableStreamer -->
<g id="node24" class="node">
<title>PreemptableStreamer</title>
<g id="a_node24"><a xlink:href="inet.protocolelement.common.PreemptableStreamer.html" xlink:title="Simple Module PreemptableStreamer" target="_parent">
<polygon fill="#fffcaf" stroke="black" points="3433,-19 3309,-19 3309,0 3433,0 3433,-19"/>
<text text-anchor="middle" x="3371" y="-7" font-family="Helvetica,sans-Serif" font-size="10.00">PreemptableStreamer</text>
</a>
</g>
</g>
<!-- IPacketFlow&#45;&gt;PreemptableStreamer -->
<g id="edge23" class="edge">
<title>IPacketFlow&#45;&gt;PreemptableStreamer</title>
<path fill="none" stroke="black" stroke-dasharray="5,2" d="M2798.29,-60.9C2885.92,-54.67 3111.76,-38.03 3300,-19 3302.84,-18.71 3305.74,-18.41 3308.68,-18.09"/>
</g>
<!-- RelayInterfaceLearner -->
<g id="node25" class="node">
<title>RelayInterfaceLearner</title>
<g id="a_node25"><a xlink:href="inet.linklayer.ethernet.common.RelayInterfaceLearner.html" xlink:title="Simple Module RelayInterfaceLearner" target="_parent">
<polygon fill="#fffcaf" stroke="black" points="3576.5,-19 3451.5,-19 3451.5,0 3576.5,0 3576.5,-19"/>
<text text-anchor="middle" x="3514" y="-7" font-family="Helvetica,sans-Serif" font-size="10.00">RelayInterfaceLearner</text>
</a>
</g>
</g>
<!-- IPacketFlow&#45;&gt;RelayInterfaceLearner -->
<g id="edge24" class="edge">
<title>IPacketFlow&#45;&gt;RelayInterfaceLearner</title>
<path fill="none" stroke="black" stroke-dasharray="5,2" d="M2798.33,-61.75C2901.12,-56.77 3196.88,-41.46 3442,-19 3445.01,-18.72 3448.09,-18.43 3451.19,-18.11"/>
</g>
<!-- RelayInterfaceSelector -->
<g id="node26" class="node">
<title>RelayInterfaceSelector</title>
<g id="a_node26"><a xlink:href="inet.linklayer.ethernet.common.RelayInterfaceSelector.html" xlink:title="Simple Module RelayInterfaceSelector" target="_parent">
<polygon fill="#fffcaf" stroke="black" points="3723,-19 3595,-19 3595,0 3723,0 3723,-19"/>
<text text-anchor="middle" x="3659" y="-7" font-family="Helvetica,sans-Serif" font-size="10.00">RelayInterfaceSelector</text>
</a>
</g>
</g>
<!-- IPacketFlow&#45;&gt;RelayInterfaceSelector -->
<g id="edge25" class="edge">
<title>IPacketFlow&#45;&gt;RelayInterfaceSelector</title>
<path fill="none" stroke="black" stroke-dasharray="5,2" d="M2798.06,-62.32C2914.34,-58.45 3282.29,-44.85 3586,-19 3588.92,-18.75 3591.91,-18.48 3594.93,-18.19"/>
</g>
<!-- StreamDecoder -->
<g id="node27" class="node">
<title>StreamDecoder</title>
<g id="a_node27"><a xlink:href="inet.protocolelement.redundancy.StreamDecoder.html" xlink:title="Simple Module StreamDecoder" target="_parent">
<polygon fill="#fffcaf" stroke="black" points="3833,-19 3741,-19 3741,0 3833,0 3833,-19"/>
<text text-anchor="middle" x="3787" y="-7" font-family="Helvetica,sans-Serif" font-size="10.00">StreamDecoder</text>
</a>
</g>
</g>
<!-- IPacketFlow&#45;&gt;StreamDecoder -->
<g id="edge26" class="edge">
<title>IPacketFlow&#45;&gt;StreamDecoder</title>
<path fill="none" stroke="black" stroke-dasharray="5,2" d="M2798.14,-63.23C2927.39,-62 3369.3,-55.23 3732,-19 3734.88,-18.71 3737.85,-18.37 3740.83,-18"/>
</g>
<!-- StreamEncoder -->
<g id="node28" class="node">
<title>StreamEncoder</title>
<g id="a_node28"><a xlink:href="inet.protocolelement.redundancy.StreamEncoder.html" xlink:title="Simple Module StreamEncoder" target="_parent">
<polygon fill="#fffcaf" stroke="black" points="3942.5,-19 3851.5,-19 3851.5,0 3942.5,0 3942.5,-19"/>
<text text-anchor="middle" x="3897" y="-7" font-family="Helvetica,sans-Serif" font-size="10.00">StreamEncoder</text>
</a>
</g>
</g>
<!-- IPacketFlow&#45;&gt;StreamEncoder -->
<g id="edge27" class="edge">
<title>IPacketFlow&#45;&gt;StreamEncoder</title>
<path fill="none" stroke="black" stroke-dasharray="5,2" d="M2798.45,-63.48C2937.11,-63.07 3434.46,-58.75 3842,-19 3845.08,-18.7 3848.24,-18.34 3851.43,-17.95"/>
</g>
<!-- StreamIdentifier -->
<g id="node29" class="node">
<title>StreamIdentifier</title>
<g id="a_node29"><a xlink:href="inet.protocolelement.redundancy.StreamIdentifier.html" xlink:title="Simple Module StreamIdentifier" target="_parent">
<polygon fill="#fffcaf" stroke="black" points="4055.5,-19 3960.5,-19 3960.5,0 4055.5,0 4055.5,-19"/>
<text text-anchor="middle" x="4008" y="-7" font-family="Helvetica,sans-Serif" font-size="10.00">StreamIdentifier</text>
</a>
</g>
</g>
<!-- IPacketFlow&#45;&gt;StreamIdentifier -->
<g id="edge28" class="edge">
<title>IPacketFlow&#45;&gt;StreamIdentifier</title>
<path fill="none" stroke="black" stroke-dasharray="5,2" d="M2798.15,-63.64C2944.95,-63.88 3498.8,-61.72 3952,-19 3954.74,-18.74 3957.55,-18.44 3960.39,-18.1"/>
</g>
<!-- VlanReqMapper -->
<g id="node30" class="node">
<title>VlanReqMapper</title>
<g id="a_node30"><a xlink:href="inet.linklayer.vlan.VlanReqMapper.html" xlink:title="Simple Module VlanReqMapper" target="_parent">
<polygon fill="#fffcaf" stroke="black" points="4168,-19 4074,-19 4074,0 4168,0 4168,-19"/>
<text text-anchor="middle" x="4121" y="-7" font-family="Helvetica,sans-Serif" font-size="10.00">VlanReqMapper</text>
</a>
</g>
</g>
<!-- IPacketFlow&#45;&gt;VlanReqMapper -->
<g id="edge29" class="edge">
<title>IPacketFlow&#45;&gt;VlanReqMapper</title>
<path fill="none" stroke="black" stroke-dasharray="5,2" d="M2798.18,-63.81C2953.44,-64.79 3565.11,-65.31 4065,-19 4067.94,-18.73 4070.96,-18.4 4073.99,-18.04"/>
</g>
<!-- IPacketFilter -->
<g id="node31" class="node">
<title>IPacketFilter</title>
<g id="a_node31"><a xlink:href="inet.queueing.contract.IPacketFilter.html" xlink:title="Module Interface IPacketFilter" target="_parent">
<polygon fill="#fffcaf" stroke="black" stroke-dasharray="5,2" points="4262,-19 4186,-19 4186,0 4262,0 4262,-19"/>
<text text-anchor="middle" x="4224" y="-7" font-family="Helvetica,sans-Serif" font-size="10.00">IPacketFilter</text>
</a>
</g>
</g>
<!-- IPacketFlow&#45;&gt;IPacketFilter -->
<g id="edge30" class="edge">
<title>IPacketFlow&#45;&gt;IPacketFilter</title>
<path fill="none" stroke="black" d="M2798.11,-63.08C2992.81,-60.74 3898.16,-48.43 4177,-19 4179.89,-18.7 4182.86,-18.32 4185.85,-17.89"/>
</g>
<!-- IPacketMarker -->
<g id="node32" class="node">
<title>IPacketMarker</title>
<g id="a_node32"><a xlink:href="inet.queueing.contract.IPacketMarker.html" xlink:title="Module Interface IPacketMarker" target="_parent">
<polygon fill="#fffcaf" stroke="black" stroke-dasharray="5,2" points="4365.5,-19 4280.5,-19 4280.5,0 4365.5,0 4365.5,-19"/>
<text text-anchor="middle" x="4323" y="-7" font-family="Helvetica,sans-Serif" font-size="10.00">IPacketMarker</text>
</a>
</g>
</g>
<!-- IPacketFlow&#45;&gt;IPacketMarker -->
<g id="edge31" class="edge">
<title>IPacketFlow&#45;&gt;IPacketMarker</title>
<path fill="none" stroke="black" d="M2798.2,-63.07C3000.73,-60.65 3972.24,-47.69 4271,-19 4274.1,-18.7 4277.29,-18.33 4280.49,-17.92"/>
</g>
<!-- IPacketMeter -->
<g id="node33" class="node">
<title>IPacketMeter</title>
<g id="a_node33"><a xlink:href="inet.queueing.contract.IPacketMeter.html" xlink:title="Module Interface IPacketMeter" target="_parent">
<polygon fill="#fffcaf" stroke="black" stroke-dasharray="5,2" points="4464,-19 4384,-19 4384,0 4464,0 4464,-19"/>
<text text-anchor="middle" x="4424" y="-7" font-family="Helvetica,sans-Serif" font-size="10.00">IPacketMeter</text>
</a>
</g>
</g>
<!-- IPacketFlow&#45;&gt;IPacketMeter -->
<g id="edge32" class="edge">
<title>IPacketFlow&#45;&gt;IPacketMeter</title>
<path fill="none" stroke="black" d="M2798.32,-63.2C3009.32,-61.41 4054.59,-51.04 4375,-19 4377.92,-18.71 4380.93,-18.34 4383.95,-17.93"/>
</g>
<!-- IProtocolHeaderInserter -->
<g id="node34" class="node">
<title>IProtocolHeaderInserter</title>
<g id="a_node34"><a xlink:href="inet.protocolelement.contract.IProtocolHeaderInserter.html" xlink:title="Module Interface IProtocolHeaderInserter" target="_parent">
<polygon fill="#fffcaf" stroke="black" stroke-dasharray="5,2" points="4614,-19 4482,-19 4482,0 4614,0 4614,-19"/>
<text text-anchor="middle" x="4548" y="-7" font-family="Helvetica,sans-Serif" font-size="10.00">IProtocolHeaderInserter</text>
</a>
</g>
</g>
<!-- IPacketFlow&#45;&gt;IProtocolHeaderInserter -->
<g id="edge33" class="edge">
<title>IPacketFlow&#45;&gt;IProtocolHeaderInserter</title>
<path fill="none" stroke="black" d="M2798.1,-63.73C2980.72,-64.6 3802.3,-65.63 4473,-19 4475.88,-18.8 4478.81,-18.57 4481.78,-18.32"/>
</g>
<!-- IPacketSink -->
<g id="node2" class="node">
<title>IPacketSink</title>
<g id="a_node2"><a xlink:href="inet.queueing.contract.IPacketSink.html" xlink:title="Module Interface IPacketSink" target="_parent">
<polygon fill="#fffcaf" stroke="black" stroke-dasharray="5,2" points="2749,-129 2677,-129 2677,-110 2749,-110 2749,-129"/>
<text text-anchor="middle" x="2713" y="-117" font-family="Helvetica,sans-Serif" font-size="10.00">IPacketSink</text>
</a>
</g>
</g>
<!-- IPacketSink&#45;&gt;IPacketFlow -->
<g id="edge1" class="edge">
<title>IPacketSink&#45;&gt;IPacketFlow</title>
<path fill="none" stroke="black" d="M2720.93,-109.75C2729.87,-99.87 2744.34,-83.9 2753.22,-74.09"/>
</g>
<!-- IPacketSource -->
<g id="node3" class="node">
<title>IPacketSource</title>
<g id="a_node3"><a xlink:href="inet.queueing.contract.IPacketSource.html" xlink:title="Module Interface IPacketSource" target="_parent">
<polygon fill="#fffcaf" stroke="black" stroke-dasharray="5,2" points="2851,-129 2767,-129 2767,-110 2851,-110 2851,-129"/>
<text text-anchor="middle" x="2809" y="-117" font-family="Helvetica,sans-Serif" font-size="10.00">IPacketSource</text>
</a>
</g>
</g>
<!-- IPacketSource&#45;&gt;IPacketFlow -->
<g id="edge2" class="edge">
<title>IPacketSource&#45;&gt;IPacketFlow</title>
<path fill="none" stroke="black" d="M2801.07,-109.75C2792.13,-99.87 2777.66,-83.9 2768.78,-74.09"/>
</g>
</g>
</svg>
