<?xml version="1.0" encoding="UTF-8" standalone="no"?>
<!DOCTYPE svg PUBLIC "-//W3C//DTD SVG 1.1//EN"
 "http://www.w3.org/Graphics/SVG/1.1/DTD/svg11.dtd">
<!-- Generated by graphviz version 2.43.0 (0)
 -->
<!-- Title: opp Pages: 1 -->
<svg width="532pt" height="137pt"
 viewBox="0.00 0.00 531.50 137.00" xmlns="http://www.w3.org/2000/svg" xmlns:xlink="http://www.w3.org/1999/xlink">
<g id="graph0" class="graph" transform="scale(1 1) rotate(0) translate(4 133)">
<title>opp</title>
<polygon fill="transparent" stroke="transparent" points="-4,4 -4,-133 527.5,-133 527.5,4 -4,4"/>
<!-- ThroughputClient -->
<g id="node1" class="node">
<title>ThroughputClient</title>
<g id="a_node1"><a xlink:href="inet.examples.wireless.testnewmac.ThroughputClient.html" xlink:title="Compound Module ThroughputClient" target="_parent">
<polygon fill="#fff700" stroke="black" points="326.5,-74 225.5,-74 225.5,-55 326.5,-55 326.5,-74"/>
<text text-anchor="middle" x="276" y="-62" font-family="Helvetica,sans-Serif" font-size="10.00">ThroughputClient</text>
</a>
</g>
</g>
<!-- InterfaceTable -->
<g id="node2" class="node">
<title>InterfaceTable</title>
<g id="a_node2"><a xlink:href="inet.networklayer.common.InterfaceTable.html" xlink:title="Simple Module InterfaceTable" target="_parent">
<polygon fill="#fffcaf" stroke="black" points="86,-19 0,-19 0,0 86,0 86,-19"/>
<text text-anchor="middle" x="43" y="-7" font-family="Helvetica,sans-Serif" font-size="10.00">InterfaceTable</text>
</a>
</g>
</g>
<!-- ThroughputClient&#45;&gt;InterfaceTable -->
<g id="edge1" class="edge">
<title>ThroughputClient&#45;&gt;InterfaceTable</title>
<path fill="none" stroke="black" d="M238.56,-54.98C198.35,-45.84 134.32,-31.27 90.56,-21.32"/>
<polygon fill="black" stroke="black" points="91.26,-17.89 80.73,-19.08 89.7,-24.71 91.26,-17.89"/>
</g>
<!-- Ieee80211Interface -->
<g id="node3" class="node">
<title>Ieee80211Interface</title>
<g id="a_node3"><a xlink:href="inet.linklayer.ieee80211.Ieee80211Interface.html" xlink:title="Compound Module Ieee80211Interface" target="_parent">
<polygon fill="#fffcaf" stroke="black" points="215.5,-19 104.5,-19 104.5,0 215.5,0 215.5,-19"/>
<text text-anchor="middle" x="160" y="-7" font-family="Helvetica,sans-Serif" font-size="10.00">Ieee80211Interface</text>
</a>
</g>
</g>
<!-- ThroughputClient&#45;&gt;Ieee80211Interface -->
<g id="edge2" class="edge">
<title>ThroughputClient&#45;&gt;Ieee80211Interface</title>
<path fill="none" stroke="black" d="M257.36,-54.98C238.7,-46.46 209.75,-33.23 188.26,-23.41"/>
<polygon fill="black" stroke="black" points="189.53,-20.14 178.98,-19.17 186.62,-26.51 189.53,-20.14"/>
</g>
<!-- CircleMobility -->
<g id="node4" class="node">
<title>CircleMobility</title>
<g id="a_node4"><a xlink:href="inet.mobility.single.CircleMobility.html" xlink:title="Simple Module CircleMobility" target="_parent">
<polygon fill="#fffcaf" stroke="black" points="318,-19 234,-19 234,0 318,0 318,-19"/>
<text text-anchor="middle" x="276" y="-7" font-family="Helvetica,sans-Serif" font-size="10.00">CircleMobility</text>
</a>
</g>
</g>
<!-- ThroughputClient&#45;&gt;CircleMobility -->
<g id="edge3" class="edge">
<title>ThroughputClient&#45;&gt;CircleMobility</title>
<path fill="none" stroke="black" d="M276,-54.75C276,-47.8 276,-37.85 276,-29.13"/>
<polygon fill="black" stroke="black" points="279.5,-29.09 276,-19.09 272.5,-29.09 279.5,-29.09"/>
</g>
<!-- IdealChannel -->
<g id="node5" class="node">
<title>IdealChannel</title>
<g id="a_node5"><a xlink:href="ned.IdealChannel.html" xlink:title="Channel IdealChannel" target="_parent">
<polygon fill="#d0ffd0" stroke="black" points="416,-19 336,-19 336,0 416,0 416,-19"/>
<text text-anchor="middle" x="376" y="-7" font-family="Helvetica,sans-Serif" font-size="10.00">IdealChannel</text>
</a>
</g>
</g>
<!-- ThroughputClient&#45;&gt;IdealChannel -->
<g id="edge4" class="edge">
<title>ThroughputClient&#45;&gt;IdealChannel</title>
<path fill="none" stroke="black" d="M292.07,-54.98C307.86,-46.61 332.22,-33.7 350.63,-23.95"/>
<polygon fill="black" stroke="black" points="352.44,-26.95 359.64,-19.17 349.17,-20.76 352.44,-26.95"/>
</g>
<!-- EtherAppClient -->
<g id="node6" class="node">
<title>EtherAppClient</title>
<g id="a_node6"><a xlink:href="inet.applications.ethernet.EtherAppClient.html" xlink:title="Simple Module EtherAppClient" target="_parent">
<polygon fill="#fffcaf" stroke="black" points="523.5,-19 434.5,-19 434.5,0 523.5,0 523.5,-19"/>
<text text-anchor="middle" x="479" y="-7" font-family="Helvetica,sans-Serif" font-size="10.00">EtherAppClient</text>
</a>
</g>
</g>
<!-- ThroughputClient&#45;&gt;EtherAppClient -->
<g id="edge5" class="edge">
<title>ThroughputClient&#45;&gt;EtherAppClient</title>
<path fill="none" stroke="black" d="M308.62,-54.98C343.29,-45.93 398.26,-31.58 436.35,-21.64"/>
<polygon fill="black" stroke="black" points="437.34,-24.99 446.13,-19.08 435.57,-18.22 437.34,-24.99"/>
</g>
<!-- Throughput -->
<g id="node7" class="node">
<title>Throughput</title>
<g id="a_node7"><a xlink:href="inet.examples.wireless.testnewmac.Throughput.html" xlink:title="Network Throughput" target="_parent">
<polygon fill="#d0d0ff" stroke="black" points="312,-129 240,-129 240,-110 312,-110 312,-129"/>
<text text-anchor="middle" x="276" y="-117" font-family="Helvetica,sans-Serif" font-size="10.00">Throughput</text>
</a>
</g>
</g>
<!-- Throughput&#45;&gt;ThroughputClient -->
<g id="edge6" class="edge">
<title>Throughput&#45;&gt;ThroughputClient</title>
<path fill="none" stroke="black" d="M276,-109.75C276,-102.8 276,-92.85 276,-84.13"/>
<polygon fill="black" stroke="black" points="279.5,-84.09 276,-74.09 272.5,-84.09 279.5,-84.09"/>
</g>
</g>
</svg>
