<?xml version="1.0" encoding="UTF-8" standalone="no"?>
<!DOCTYPE svg PUBLIC "-//W3C//DTD SVG 1.1//EN"
 "http://www.w3.org/Graphics/SVG/1.1/DTD/svg11.dtd">
<!-- Generated by graphviz version 2.43.0 (0)
 -->
<!-- Title: opp Pages: 1 -->
<svg width="129pt" height="137pt"
 viewBox="0.00 0.00 129.00 137.00" xmlns="http://www.w3.org/2000/svg" xmlns:xlink="http://www.w3.org/1999/xlink">
<g id="graph0" class="graph" transform="scale(1 1) rotate(0) translate(4 133)">
<title>opp</title>
<polygon fill="transparent" stroke="transparent" points="-4,4 -4,-133 125,-133 125,4 -4,4"/>
<!-- PacketLabelerBase -->
<g id="node1" class="node">
<title>PacketLabelerBase</title>
<g id="a_node1"><a xlink:href="inet.queueing.base.PacketLabelerBase.html" xlink:title="Simple Module PacketLabelerBase" target="_parent">
<polygon fill="#fff700" stroke="black" points="114.5,-74 6.5,-74 6.5,-55 114.5,-55 114.5,-74"/>
<text text-anchor="middle" x="60.5" y="-62" font-family="Helvetica,sans-Serif" font-size="10.00">PacketLabelerBase</text>
</a>
</g>
</g>
<!-- ContentBasedLabeler -->
<g id="node3" class="node">
<title>ContentBasedLabeler</title>
<g id="a_node3"><a xlink:href="inet.queueing.marker.ContentBasedLabeler.html" xlink:title="Simple Module ContentBasedLabeler" target="_parent">
<polygon fill="#fffcaf" stroke="black" points="121,-19 0,-19 0,0 121,0 121,-19"/>
<text text-anchor="middle" x="60.5" y="-7" font-family="Helvetica,sans-Serif" font-size="10.00">ContentBasedLabeler</text>
</a>
</g>
</g>
<!-- PacketLabelerBase&#45;&gt;ContentBasedLabeler -->
<g id="edge2" class="edge">
<title>PacketLabelerBase&#45;&gt;ContentBasedLabeler</title>
<path fill="none" stroke="black" d="M60.5,-54.75C60.5,-44.87 60.5,-28.9 60.5,-19.09"/>
</g>
<!-- PacketMarkerBase -->
<g id="node2" class="node">
<title>PacketMarkerBase</title>
<g id="a_node2"><a xlink:href="inet.queueing.base.PacketMarkerBase.html" xlink:title="Simple Module PacketMarkerBase" target="_parent">
<polygon fill="#fffcaf" stroke="black" points="113.5,-129 7.5,-129 7.5,-110 113.5,-110 113.5,-129"/>
<text text-anchor="middle" x="60.5" y="-117" font-family="Helvetica,sans-Serif" font-size="10.00">PacketMarkerBase</text>
</a>
</g>
</g>
<!-- PacketMarkerBase&#45;&gt;PacketLabelerBase -->
<g id="edge1" class="edge">
<title>PacketMarkerBase&#45;&gt;PacketLabelerBase</title>
<path fill="none" stroke="black" d="M60.5,-109.75C60.5,-99.87 60.5,-83.9 60.5,-74.09"/>
</g>
</g>
</svg>
