<?xml version="1.0" encoding="UTF-8" standalone="no"?>
<!DOCTYPE svg PUBLIC "-//W3C//DTD SVG 1.1//EN"
 "http://www.w3.org/Graphics/SVG/1.1/DTD/svg11.dtd">
<!-- Generated by graphviz version 2.43.0 (0)
 -->
<!-- Title: opp Pages: 1 -->
<svg width="558pt" height="137pt"
 viewBox="0.00 0.00 558.00 137.00" xmlns="http://www.w3.org/2000/svg" xmlns:xlink="http://www.w3.org/1999/xlink">
<g id="graph0" class="graph" transform="scale(1 1) rotate(0) translate(4 133)">
<title>opp</title>
<polygon fill="transparent" stroke="transparent" points="-4,4 -4,-133 554,-133 554,4 -4,4"/>
<!-- SinkNode -->
<g id="node1" class="node">
<title>SinkNode</title>
<g id="a_node1"><a xlink:href="inet.examples.wireless.hiddennode.SinkNode.html" xlink:title="Compound Module SinkNode" target="_parent">
<polygon fill="#fff700" stroke="black" points="311.5,-74 248.5,-74 248.5,-55 311.5,-55 311.5,-74"/>
<text text-anchor="middle" x="280" y="-62" font-family="Helvetica,sans-Serif" font-size="10.00">SinkNode</text>
</a>
</g>
</g>
<!-- InterfaceTable -->
<g id="node2" class="node">
<title>InterfaceTable</title>
<g id="a_node2"><a xlink:href="inet.networklayer.common.InterfaceTable.html" xlink:title="Simple Module InterfaceTable" target="_parent">
<polygon fill="#fffcaf" stroke="black" points="86,-19 0,-19 0,0 86,0 86,-19"/>
<text text-anchor="middle" x="43" y="-7" font-family="Helvetica,sans-Serif" font-size="10.00">InterfaceTable</text>
</a>
</g>
</g>
<!-- SinkNode&#45;&gt;InterfaceTable -->
<g id="edge1" class="edge">
<title>SinkNode&#45;&gt;InterfaceTable</title>
<path fill="none" stroke="black" d="M248.04,-56.35C207.66,-47.32 137.82,-31.7 91.01,-21.24"/>
<polygon fill="black" stroke="black" points="91.63,-17.79 81.1,-19.02 90.1,-24.62 91.63,-17.79"/>
</g>
<!-- Ieee80211Interface -->
<g id="node3" class="node">
<title>Ieee80211Interface</title>
<g id="a_node3"><a xlink:href="inet.linklayer.ieee80211.Ieee80211Interface.html" xlink:title="Compound Module Ieee80211Interface" target="_parent">
<polygon fill="#fffcaf" stroke="black" points="215.5,-19 104.5,-19 104.5,0 215.5,0 215.5,-19"/>
<text text-anchor="middle" x="160" y="-7" font-family="Helvetica,sans-Serif" font-size="10.00">Ieee80211Interface</text>
</a>
</g>
</g>
<!-- SinkNode&#45;&gt;Ieee80211Interface -->
<g id="edge2" class="edge">
<title>SinkNode&#45;&gt;Ieee80211Interface</title>
<path fill="none" stroke="black" d="M260.72,-54.98C241.33,-46.42 211.19,-33.11 188.93,-23.28"/>
<polygon fill="black" stroke="black" points="190.19,-20.01 179.63,-19.17 187.36,-26.41 190.19,-20.01"/>
</g>
<!-- EtherAppServer -->
<g id="node4" class="node">
<title>EtherAppServer</title>
<g id="a_node4"><a xlink:href="inet.applications.ethernet.EtherAppServer.html" xlink:title="Simple Module EtherAppServer" target="_parent">
<polygon fill="#fffcaf" stroke="black" points="326,-19 234,-19 234,0 326,0 326,-19"/>
<text text-anchor="middle" x="280" y="-7" font-family="Helvetica,sans-Serif" font-size="10.00">EtherAppServer</text>
</a>
</g>
</g>
<!-- SinkNode&#45;&gt;EtherAppServer -->
<g id="edge3" class="edge">
<title>SinkNode&#45;&gt;EtherAppServer</title>
<path fill="none" stroke="black" d="M280,-54.75C280,-47.8 280,-37.85 280,-29.13"/>
<polygon fill="black" stroke="black" points="283.5,-29.09 280,-19.09 276.5,-29.09 283.5,-29.09"/>
</g>
<!-- StationaryMobility -->
<g id="node5" class="node">
<title>StationaryMobility</title>
<g id="a_node5"><a xlink:href="inet.mobility.static.StationaryMobility.html" xlink:title="Simple Module StationaryMobility" target="_parent">
<polygon fill="#fffcaf" stroke="black" points="451.5,-19 344.5,-19 344.5,0 451.5,0 451.5,-19"/>
<text text-anchor="middle" x="398" y="-7" font-family="Helvetica,sans-Serif" font-size="10.00">StationaryMobility</text>
</a>
</g>
</g>
<!-- SinkNode&#45;&gt;StationaryMobility -->
<g id="edge4" class="edge">
<title>SinkNode&#45;&gt;StationaryMobility</title>
<path fill="none" stroke="black" d="M298.96,-54.98C318.03,-46.42 347.66,-33.11 369.55,-23.28"/>
<polygon fill="black" stroke="black" points="371.01,-26.46 378.7,-19.17 368.14,-20.07 371.01,-26.46"/>
</g>
<!-- IdealChannel -->
<g id="node6" class="node">
<title>IdealChannel</title>
<g id="a_node6"><a xlink:href="ned.IdealChannel.html" xlink:title="Channel IdealChannel" target="_parent">
<polygon fill="#d0ffd0" stroke="black" points="550,-19 470,-19 470,0 550,0 550,-19"/>
<text text-anchor="middle" x="510" y="-7" font-family="Helvetica,sans-Serif" font-size="10.00">IdealChannel</text>
</a>
</g>
</g>
<!-- SinkNode&#45;&gt;IdealChannel -->
<g id="edge5" class="edge">
<title>SinkNode&#45;&gt;IdealChannel</title>
<path fill="none" stroke="black" d="M311.98,-56.13C351.23,-47.09 418.09,-31.68 463.14,-21.3"/>
<polygon fill="black" stroke="black" points="464.01,-24.69 472.97,-19.03 462.44,-17.87 464.01,-24.69"/>
</g>
<!-- HiddenNode -->
<g id="node7" class="node">
<title>HiddenNode</title>
<g id="a_node7"><a xlink:href="inet.examples.wireless.hiddennode.HiddenNode.html" xlink:title="Network HiddenNode" target="_parent">
<polygon fill="#d0d0ff" stroke="black" points="318.5,-129 241.5,-129 241.5,-110 318.5,-110 318.5,-129"/>
<text text-anchor="middle" x="280" y="-117" font-family="Helvetica,sans-Serif" font-size="10.00">HiddenNode</text>
</a>
</g>
</g>
<!-- HiddenNode&#45;&gt;SinkNode -->
<g id="edge6" class="edge">
<title>HiddenNode&#45;&gt;SinkNode</title>
<path fill="none" stroke="black" d="M280,-109.75C280,-102.8 280,-92.85 280,-84.13"/>
<polygon fill="black" stroke="black" points="283.5,-84.09 280,-74.09 276.5,-84.09 283.5,-84.09"/>
</g>
</g>
</svg>
