<?xml version="1.0" encoding="UTF-8" standalone="no"?>
<!DOCTYPE svg PUBLIC "-//W3C//DTD SVG 1.1//EN"
 "http://www.w3.org/Graphics/SVG/1.1/DTD/svg11.dtd">
<!-- Generated by graphviz version 2.43.0 (0)
 -->
<!-- Title: opp Pages: 1 -->
<svg width="926pt" height="82pt"
 viewBox="0.00 0.00 925.50 82.00" xmlns="http://www.w3.org/2000/svg" xmlns:xlink="http://www.w3.org/1999/xlink">
<g id="graph0" class="graph" transform="scale(1 1) rotate(0) translate(4 78)">
<title>opp</title>
<polygon fill="transparent" stroke="transparent" points="-4,4 -4,-78 921.5,-78 921.5,4 -4,4"/>
<!-- DiffservQueue -->
<g id="node1" class="node">
<title>DiffservQueue</title>
<g id="a_node1"><a xlink:href="inet.networklayer.diffserv.DiffservQueue.html" xlink:title="Compound Module DiffservQueue" target="_parent">
<polygon fill="#fff700" stroke="black" points="554.5,-74 468.5,-74 468.5,-55 554.5,-55 554.5,-74"/>
<text text-anchor="middle" x="511.5" y="-62" font-family="Helvetica,sans-Serif" font-size="10.00">DiffservQueue</text>
</a>
</g>
</g>
<!-- BehaviorAggregateClassifier -->
<g id="node2" class="node">
<title>BehaviorAggregateClassifier</title>
<g id="a_node2"><a xlink:href="inet.networklayer.diffserv.BehaviorAggregateClassifier.html" xlink:title="Simple Module BehaviorAggregateClassifier" target="_parent">
<polygon fill="#fffcaf" stroke="black" points="155,-19 0,-19 0,0 155,0 155,-19"/>
<text text-anchor="middle" x="77.5" y="-7" font-family="Helvetica,sans-Serif" font-size="10.00">BehaviorAggregateClassifier</text>
</a>
</g>
</g>
<!-- DiffservQueue&#45;&gt;BehaviorAggregateClassifier -->
<g id="edge1" class="edge">
<title>DiffservQueue&#45;&gt;BehaviorAggregateClassifier</title>
<path fill="none" stroke="black" d="M468.3,-58.22C395.87,-49.38 248.87,-31.43 157.25,-20.24"/>
<polygon fill="black" stroke="black" points="157.54,-16.75 147.19,-19.01 156.69,-23.7 157.54,-16.75"/>
</g>
<!-- TokenBucketMeter -->
<g id="node3" class="node">
<title>TokenBucketMeter</title>
<g id="a_node3"><a xlink:href="inet.networklayer.diffserv.TokenBucketMeter.html" xlink:title="Simple Module TokenBucketMeter" target="_parent">
<polygon fill="#fffcaf" stroke="black" points="279.5,-19 173.5,-19 173.5,0 279.5,0 279.5,-19"/>
<text text-anchor="middle" x="226.5" y="-7" font-family="Helvetica,sans-Serif" font-size="10.00">TokenBucketMeter</text>
</a>
</g>
</g>
<!-- DiffservQueue&#45;&gt;TokenBucketMeter -->
<g id="edge2" class="edge">
<title>DiffservQueue&#45;&gt;TokenBucketMeter</title>
<path fill="none" stroke="black" d="M468.21,-55.45C418.52,-46.21 336.86,-31.02 282.4,-20.9"/>
<polygon fill="black" stroke="black" points="283.03,-17.45 272.56,-19.07 281.75,-24.33 283.03,-17.45"/>
</g>
<!-- DropTailQueue -->
<g id="node4" class="node">
<title>DropTailQueue</title>
<g id="a_node4"><a xlink:href="inet.queueing.queue.DropTailQueue.html" xlink:title="Simple Module DropTailQueue" target="_parent">
<polygon fill="#fffcaf" stroke="black" points="385.5,-19 297.5,-19 297.5,0 385.5,0 385.5,-19"/>
<text text-anchor="middle" x="341.5" y="-7" font-family="Helvetica,sans-Serif" font-size="10.00">DropTailQueue</text>
</a>
</g>
</g>
<!-- DiffservQueue&#45;&gt;DropTailQueue -->
<g id="edge3" class="edge">
<title>DiffservQueue&#45;&gt;DropTailQueue</title>
<path fill="none" stroke="black" d="M484.19,-54.98C455.65,-46.09 410.67,-32.07 378.86,-22.15"/>
<polygon fill="black" stroke="black" points="379.62,-18.72 369.03,-19.08 377.53,-25.4 379.62,-18.72"/>
</g>
<!-- PassivePacketSink -->
<g id="node5" class="node">
<title>PassivePacketSink</title>
<g id="a_node5"><a xlink:href="inet.queueing.sink.PassivePacketSink.html" xlink:title="Simple Module PassivePacketSink" target="_parent">
<polygon fill="#fffcaf" stroke="black" points="509.5,-19 403.5,-19 403.5,0 509.5,0 509.5,-19"/>
<text text-anchor="middle" x="456.5" y="-7" font-family="Helvetica,sans-Serif" font-size="10.00">PassivePacketSink</text>
</a>
</g>
</g>
<!-- DiffservQueue&#45;&gt;PassivePacketSink -->
<g id="edge4" class="edge">
<title>DiffservQueue&#45;&gt;PassivePacketSink</title>
<path fill="none" stroke="black" d="M502.42,-54.75C494.41,-47.03 482.54,-35.6 472.88,-26.28"/>
<polygon fill="black" stroke="black" points="475.04,-23.51 465.41,-19.09 470.19,-28.55 475.04,-23.51"/>
</g>
<!-- IdealChannel -->
<g id="node6" class="node">
<title>IdealChannel</title>
<g id="a_node6"><a xlink:href="ned.IdealChannel.html" xlink:title="Channel IdealChannel" target="_parent">
<polygon fill="#d0ffd0" stroke="black" points="607.5,-19 527.5,-19 527.5,0 607.5,0 607.5,-19"/>
<text text-anchor="middle" x="567.5" y="-7" font-family="Helvetica,sans-Serif" font-size="10.00">IdealChannel</text>
</a>
</g>
</g>
<!-- DiffservQueue&#45;&gt;IdealChannel -->
<g id="edge5" class="edge">
<title>DiffservQueue&#45;&gt;IdealChannel</title>
<path fill="none" stroke="black" d="M520.5,-54.98C528.69,-47.23 541.01,-35.58 550.97,-26.14"/>
<polygon fill="black" stroke="black" points="553.48,-28.59 558.34,-19.17 548.67,-23.5 553.48,-28.59"/>
</g>
<!-- AFxyQueue -->
<g id="node7" class="node">
<title>AFxyQueue</title>
<g id="a_node7"><a xlink:href="inet.networklayer.diffserv.AFxyQueue.html" xlink:title="Compound Module AFxyQueue" target="_parent">
<polygon fill="#fffcaf" stroke="black" points="699,-19 626,-19 626,0 699,0 699,-19"/>
<text text-anchor="middle" x="662.5" y="-7" font-family="Helvetica,sans-Serif" font-size="10.00">AFxyQueue</text>
</a>
</g>
</g>
<!-- DiffservQueue&#45;&gt;AFxyQueue -->
<g id="edge6" class="edge">
<title>DiffservQueue&#45;&gt;AFxyQueue</title>
<path fill="none" stroke="black" d="M535.76,-54.98C560.82,-46.19 600.13,-32.39 628.33,-22.49"/>
<polygon fill="black" stroke="black" points="629.52,-25.78 637.8,-19.17 627.2,-19.18 629.52,-25.78"/>
</g>
<!-- PriorityScheduler -->
<g id="node8" class="node">
<title>PriorityScheduler</title>
<g id="a_node8"><a xlink:href="inet.queueing.scheduler.PriorityScheduler.html" xlink:title="Simple Module PriorityScheduler" target="_parent">
<polygon fill="#fffcaf" stroke="black" points="817.5,-19 717.5,-19 717.5,0 817.5,0 817.5,-19"/>
<text text-anchor="middle" x="767.5" y="-7" font-family="Helvetica,sans-Serif" font-size="10.00">PriorityScheduler</text>
</a>
</g>
</g>
<!-- DiffservQueue&#45;&gt;PriorityScheduler -->
<g id="edge7" class="edge">
<title>DiffservQueue&#45;&gt;PriorityScheduler</title>
<path fill="none" stroke="black" d="M552.63,-54.98C597.1,-45.78 668.05,-31.09 716.15,-21.13"/>
<polygon fill="black" stroke="black" points="716.96,-24.54 726.05,-19.08 715.54,-17.68 716.96,-24.54"/>
</g>
<!-- WrrScheduler -->
<g id="node9" class="node">
<title>WrrScheduler</title>
<g id="a_node9"><a xlink:href="inet.queueing.scheduler.WrrScheduler.html" xlink:title="Simple Module WrrScheduler" target="_parent">
<polygon fill="#fffcaf" stroke="black" points="917.5,-19 835.5,-19 835.5,0 917.5,0 917.5,-19"/>
<text text-anchor="middle" x="876.5" y="-7" font-family="Helvetica,sans-Serif" font-size="10.00">WrrScheduler</text>
</a>
</g>
</g>
<!-- DiffservQueue&#45;&gt;WrrScheduler -->
<g id="edge8" class="edge">
<title>DiffservQueue&#45;&gt;WrrScheduler</title>
<path fill="none" stroke="black" d="M554.61,-57.8C613.44,-49.93 722.41,-35.06 825.37,-19.14"/>
<polygon fill="black" stroke="black" points="825.97,-22.59 835.31,-17.6 824.9,-15.67 825.97,-22.59"/>
</g>
</g>
</svg>
