<?xml version="1.0" encoding="UTF-8" standalone="no"?>
<!DOCTYPE svg PUBLIC "-//W3C//DTD SVG 1.1//EN"
 "http://www.w3.org/Graphics/SVG/1.1/DTD/svg11.dtd">
<!-- Generated by graphviz version 2.43.0 (0)
 -->
<!-- Title: opp Pages: 1 -->
<svg width="234pt" height="82pt"
 viewBox="0.00 0.00 233.50 82.00" xmlns="http://www.w3.org/2000/svg" xmlns:xlink="http://www.w3.org/1999/xlink">
<g id="graph0" class="graph" transform="scale(1 1) rotate(0) translate(4 78)">
<title>opp</title>
<polygon fill="transparent" stroke="transparent" points="-4,4 -4,-78 229.5,-78 229.5,4 -4,4"/>
<!-- FragmentNumberHeaderBasedFragmenter -->
<g id="node1" class="node">
<title>FragmentNumberHeaderBasedFragmenter</title>
<g id="a_node1"><a xlink:href="inet.protocolelement.fragmentation.FragmentNumberHeaderBasedFragmenter.html" xlink:title="Compound Module FragmentNumberHeaderBasedFragmenter" target="_parent">
<polygon fill="#fff700" stroke="black" points="224,-19 0,-19 0,0 224,0 224,-19"/>
<text text-anchor="middle" x="112" y="-7" font-family="Helvetica,sans-Serif" font-size="10.00">FragmentNumberHeaderBasedFragmenter</text>
</a>
</g>
</g>
<!-- FragmenterBase -->
<g id="node2" class="node">
<title>FragmenterBase</title>
<g id="a_node2"><a xlink:href="inet.protocolelement.fragmentation.base.FragmenterBase.html" xlink:title="Compound Module FragmenterBase" target="_parent">
<polygon fill="#fffcaf" stroke="black" points="100.5,-74 3.5,-74 3.5,-55 100.5,-55 100.5,-74"/>
<text text-anchor="middle" x="52" y="-62" font-family="Helvetica,sans-Serif" font-size="10.00">FragmenterBase</text>
</a>
</g>
</g>
<!-- FragmenterBase&#45;&gt;FragmentNumberHeaderBasedFragmenter -->
<g id="edge1" class="edge">
<title>FragmenterBase&#45;&gt;FragmentNumberHeaderBasedFragmenter</title>
<path fill="none" stroke="black" d="M61.64,-54.98C72.77,-45.15 90.98,-29.07 102.18,-19.17"/>
</g>
<!-- IPacketFragmenter -->
<g id="node3" class="node">
<title>IPacketFragmenter</title>
<g id="a_node3"><a xlink:href="inet.protocolelement.fragmentation.contract.IPacketFragmenter.html" xlink:title="Module Interface IPacketFragmenter" target="_parent">
<polygon fill="#fffcaf" stroke="black" stroke-dasharray="5,2" points="225.5,-74 118.5,-74 118.5,-55 225.5,-55 225.5,-74"/>
<text text-anchor="middle" x="172" y="-62" font-family="Helvetica,sans-Serif" font-size="10.00">IPacketFragmenter</text>
</a>
</g>
</g>
<!-- IPacketFragmenter&#45;&gt;FragmentNumberHeaderBasedFragmenter -->
<g id="edge2" class="edge">
<title>IPacketFragmenter&#45;&gt;FragmentNumberHeaderBasedFragmenter</title>
<path fill="none" stroke="black" stroke-dasharray="5,2" d="M162.36,-54.98C151.23,-45.15 133.02,-29.07 121.82,-19.17"/>
</g>
</g>
</svg>
