<?xml version="1.0" encoding="UTF-8" standalone="no"?>
<!DOCTYPE svg PUBLIC "-//W3C//DTD SVG 1.1//EN"
 "http://www.w3.org/Graphics/SVG/1.1/DTD/svg11.dtd">
<!-- Generated by graphviz version 2.43.0 (0)
 -->
<!-- Title: opp Pages: 1 -->
<svg width="91pt" height="137pt"
 viewBox="0.00 0.00 91.00 137.00" xmlns="http://www.w3.org/2000/svg" xmlns:xlink="http://www.w3.org/1999/xlink">
<g id="graph0" class="graph" transform="scale(1 1) rotate(0) translate(4 133)">
<title>opp</title>
<polygon fill="transparent" stroke="transparent" points="-4,4 -4,-133 87,-133 87,4 -4,4"/>
<!-- WirelessHost -->
<g id="node1" class="node">
<title>WirelessHost</title>
<g id="a_node1"><a xlink:href="inet.node.inet.WirelessHost.html" xlink:title="Compound Module WirelessHost" target="_parent">
<polygon fill="#fff700" stroke="black" points="82,-74 1,-74 1,-55 82,-55 82,-74"/>
<text text-anchor="middle" x="41.5" y="-62" font-family="Helvetica,sans-Serif" font-size="10.00">WirelessHost</text>
</a>
</g>
</g>
<!-- AdhocHost -->
<g id="node3" class="node">
<title>AdhocHost</title>
<g id="a_node3"><a xlink:href="inet.node.inet.AdhocHost.html" xlink:title="Compound Module AdhocHost" target="_parent">
<polygon fill="#fffcaf" stroke="black" points="76,-19 7,-19 7,0 76,0 76,-19"/>
<text text-anchor="middle" x="41.5" y="-7" font-family="Helvetica,sans-Serif" font-size="10.00">AdhocHost</text>
</a>
</g>
</g>
<!-- WirelessHost&#45;&gt;AdhocHost -->
<g id="edge2" class="edge">
<title>WirelessHost&#45;&gt;AdhocHost</title>
<path fill="none" stroke="black" d="M41.5,-54.75C41.5,-44.87 41.5,-28.9 41.5,-19.09"/>
</g>
<!-- StandardHost -->
<g id="node2" class="node">
<title>StandardHost</title>
<g id="a_node2"><a xlink:href="inet.node.inet.StandardHost.html" xlink:title="Compound Module StandardHost" target="_parent">
<polygon fill="#fffcaf" stroke="black" points="83,-129 0,-129 0,-110 83,-110 83,-129"/>
<text text-anchor="middle" x="41.5" y="-117" font-family="Helvetica,sans-Serif" font-size="10.00">StandardHost</text>
</a>
</g>
</g>
<!-- StandardHost&#45;&gt;WirelessHost -->
<g id="edge1" class="edge">
<title>StandardHost&#45;&gt;WirelessHost</title>
<path fill="none" stroke="black" d="M41.5,-109.75C41.5,-99.87 41.5,-83.9 41.5,-74.09"/>
</g>
</g>
</svg>
