<?xml version="1.0" encoding="UTF-8" standalone="no"?>
<!DOCTYPE svg PUBLIC "-//W3C//DTD SVG 1.1//EN"
 "http://www.w3.org/Graphics/SVG/1.1/DTD/svg11.dtd">
<!-- Generated by graphviz version 2.43.0 (0)
 -->
<!-- Title: opp Pages: 1 -->
<svg width="626pt" height="82pt"
 viewBox="0.00 0.00 626.00 82.00" xmlns="http://www.w3.org/2000/svg" xmlns:xlink="http://www.w3.org/1999/xlink">
<g id="graph0" class="graph" transform="scale(1 1) rotate(0) translate(4 78)">
<title>opp</title>
<polygon fill="transparent" stroke="transparent" points="-4,4 -4,-78 622,-78 622,4 -4,4"/>
<!-- MeterTutorialStep -->
<g id="node1" class="node">
<title>MeterTutorialStep</title>
<g id="a_node1"><a xlink:href="inet.tutorials.queueing.MeterTutorialStep.html" xlink:title="Network MeterTutorialStep" target="_parent">
<polygon fill="#9090ff" stroke="black" points="388.5,-74 285.5,-74 285.5,-55 388.5,-55 388.5,-74"/>
<text text-anchor="middle" x="337" y="-62" font-family="Helvetica,sans-Serif" font-size="10.00">MeterTutorialStep</text>
</a>
</g>
</g>
<!-- StatisticalRateLimiter -->
<g id="node2" class="node">
<title>StatisticalRateLimiter</title>
<g id="a_node2"><a xlink:href="inet.queueing.filter.StatisticalRateLimiter.html" xlink:title="Simple Module StatisticalRateLimiter" target="_parent">
<polygon fill="#fffcaf" stroke="black" points="122,-19 0,-19 0,0 122,0 122,-19"/>
<text text-anchor="middle" x="61" y="-7" font-family="Helvetica,sans-Serif" font-size="10.00">StatisticalRateLimiter</text>
</a>
</g>
</g>
<!-- MeterTutorialStep&#45;&gt;StatisticalRateLimiter -->
<g id="edge1" class="edge">
<title>MeterTutorialStep&#45;&gt;StatisticalRateLimiter</title>
<path fill="none" stroke="black" d="M292.66,-54.98C244.51,-45.74 167.58,-30.97 115.71,-21.01"/>
<polygon fill="black" stroke="black" points="116.17,-17.53 105.69,-19.08 114.85,-24.41 116.17,-17.53"/>
</g>
<!-- ExponentialRateMeter -->
<g id="node3" class="node">
<title>ExponentialRateMeter</title>
<g id="a_node3"><a xlink:href="inet.queueing.meter.ExponentialRateMeter.html" xlink:title="Simple Module ExponentialRateMeter" target="_parent">
<polygon fill="#fffcaf" stroke="black" points="265.5,-19 140.5,-19 140.5,0 265.5,0 265.5,-19"/>
<text text-anchor="middle" x="203" y="-7" font-family="Helvetica,sans-Serif" font-size="10.00">ExponentialRateMeter</text>
</a>
</g>
</g>
<!-- MeterTutorialStep&#45;&gt;ExponentialRateMeter -->
<g id="edge2" class="edge">
<title>MeterTutorialStep&#45;&gt;ExponentialRateMeter</title>
<path fill="none" stroke="black" d="M315.47,-54.98C293.53,-46.3 259.26,-32.75 234.31,-22.88"/>
<polygon fill="black" stroke="black" points="235.51,-19.59 224.92,-19.17 232.93,-26.1 235.51,-19.59"/>
</g>
<!-- PassivePacketSink -->
<g id="node4" class="node">
<title>PassivePacketSink</title>
<g id="a_node4"><a xlink:href="inet.queueing.sink.PassivePacketSink.html" xlink:title="Simple Module PassivePacketSink" target="_parent">
<polygon fill="#fffcaf" stroke="black" points="390,-19 284,-19 284,0 390,0 390,-19"/>
<text text-anchor="middle" x="337" y="-7" font-family="Helvetica,sans-Serif" font-size="10.00">PassivePacketSink</text>
</a>
</g>
</g>
<!-- MeterTutorialStep&#45;&gt;PassivePacketSink -->
<g id="edge3" class="edge">
<title>MeterTutorialStep&#45;&gt;PassivePacketSink</title>
<path fill="none" stroke="black" d="M337,-54.75C337,-47.8 337,-37.85 337,-29.13"/>
<polygon fill="black" stroke="black" points="340.5,-29.09 337,-19.09 333.5,-29.09 340.5,-29.09"/>
</g>
<!-- IdealChannel -->
<g id="node5" class="node">
<title>IdealChannel</title>
<g id="a_node5"><a xlink:href="ned.IdealChannel.html" xlink:title="Channel IdealChannel" target="_parent">
<polygon fill="#d0ffd0" stroke="black" points="488,-19 408,-19 408,0 488,0 488,-19"/>
<text text-anchor="middle" x="448" y="-7" font-family="Helvetica,sans-Serif" font-size="10.00">IdealChannel</text>
</a>
</g>
</g>
<!-- MeterTutorialStep&#45;&gt;IdealChannel -->
<g id="edge4" class="edge">
<title>MeterTutorialStep&#45;&gt;IdealChannel</title>
<path fill="none" stroke="black" d="M354.83,-54.98C372.61,-46.5 400.15,-33.35 420.68,-23.54"/>
<polygon fill="black" stroke="black" points="422.33,-26.64 429.84,-19.17 419.31,-20.32 422.33,-26.64"/>
</g>
<!-- ActivePacketSource -->
<g id="node6" class="node">
<title>ActivePacketSource</title>
<g id="a_node6"><a xlink:href="inet.queueing.source.ActivePacketSource.html" xlink:title="Simple Module ActivePacketSource" target="_parent">
<polygon fill="#fffcaf" stroke="black" points="618,-19 506,-19 506,0 618,0 618,-19"/>
<text text-anchor="middle" x="562" y="-7" font-family="Helvetica,sans-Serif" font-size="10.00">ActivePacketSource</text>
</a>
</g>
</g>
<!-- MeterTutorialStep&#45;&gt;ActivePacketSource -->
<g id="edge5" class="edge">
<title>MeterTutorialStep&#45;&gt;ActivePacketSource</title>
<path fill="none" stroke="black" d="M373.15,-54.98C411.91,-45.86 473.55,-31.33 515.8,-21.38"/>
<polygon fill="black" stroke="black" points="516.64,-24.78 525.57,-19.08 515.03,-17.97 516.64,-24.78"/>
</g>
</g>
</svg>
