<?xml version="1.0" encoding="UTF-8" standalone="no"?>
<!DOCTYPE svg PUBLIC "-//W3C//DTD SVG 1.1//EN"
 "http://www.w3.org/Graphics/SVG/1.1/DTD/svg11.dtd">
<!-- Generated by graphviz version 2.43.0 (0)
 -->
<!-- Title: opp Pages: 1 -->
<svg width="403pt" height="82pt"
 viewBox="0.00 0.00 403.00 82.00" xmlns="http://www.w3.org/2000/svg" xmlns:xlink="http://www.w3.org/1999/xlink">
<g id="graph0" class="graph" transform="scale(1 1) rotate(0) translate(4 78)">
<title>opp</title>
<polygon fill="transparent" stroke="transparent" points="-4,4 -4,-78 399,-78 399,4 -4,4"/>
<!-- EthernetCutthroughLayer -->
<g id="node1" class="node">
<title>EthernetCutthroughLayer</title>
<g id="a_node1"><a xlink:href="inet.linklayer.ethernet.modular.EthernetCutthroughLayer.html" xlink:title="Compound Module EthernetCutthroughLayer" target="_parent">
<polygon fill="#fff700" stroke="black" points="261,-74 122,-74 122,-55 261,-55 261,-74"/>
<text text-anchor="middle" x="191.5" y="-62" font-family="Helvetica,sans-Serif" font-size="10.00">EthernetCutthroughLayer</text>
</a>
</g>
</g>
<!-- EthernetCutthroughSink -->
<g id="node2" class="node">
<title>EthernetCutthroughSink</title>
<g id="a_node2"><a xlink:href="inet.linklayer.ethernet.modular.EthernetCutthroughSink.html" xlink:title="Simple Module EthernetCutthroughSink" target="_parent">
<polygon fill="#fffcaf" stroke="black" points="133,-19 0,-19 0,0 133,0 133,-19"/>
<text text-anchor="middle" x="66.5" y="-7" font-family="Helvetica,sans-Serif" font-size="10.00">EthernetCutthroughSink</text>
</a>
</g>
</g>
<!-- EthernetCutthroughLayer&#45;&gt;EthernetCutthroughSink -->
<g id="edge1" class="edge">
<title>EthernetCutthroughLayer&#45;&gt;EthernetCutthroughSink</title>
<path fill="none" stroke="black" d="M171.42,-54.98C151.13,-46.38 119.54,-32.99 96.33,-23.15"/>
<polygon fill="black" stroke="black" points="97.52,-19.85 86.95,-19.17 94.79,-26.3 97.52,-19.85"/>
</g>
<!-- IdealChannel -->
<g id="node3" class="node">
<title>IdealChannel</title>
<g id="a_node3"><a xlink:href="ned.IdealChannel.html" xlink:title="Channel IdealChannel" target="_parent">
<polygon fill="#d0ffd0" stroke="black" points="231.5,-19 151.5,-19 151.5,0 231.5,0 231.5,-19"/>
<text text-anchor="middle" x="191.5" y="-7" font-family="Helvetica,sans-Serif" font-size="10.00">IdealChannel</text>
</a>
</g>
</g>
<!-- EthernetCutthroughLayer&#45;&gt;IdealChannel -->
<g id="edge2" class="edge">
<title>EthernetCutthroughLayer&#45;&gt;IdealChannel</title>
<path fill="none" stroke="black" d="M191.5,-54.75C191.5,-47.8 191.5,-37.85 191.5,-29.13"/>
<polygon fill="black" stroke="black" points="195,-29.09 191.5,-19.09 188,-29.09 195,-29.09"/>
</g>
<!-- EthernetCutthroughSource -->
<g id="node4" class="node">
<title>EthernetCutthroughSource</title>
<g id="a_node4"><a xlink:href="inet.linklayer.ethernet.modular.EthernetCutthroughSource.html" xlink:title="Simple Module EthernetCutthroughSource" target="_parent">
<polygon fill="#fffcaf" stroke="black" points="395,-19 250,-19 250,0 395,0 395,-19"/>
<text text-anchor="middle" x="322.5" y="-7" font-family="Helvetica,sans-Serif" font-size="10.00">EthernetCutthroughSource</text>
</a>
</g>
</g>
<!-- EthernetCutthroughLayer&#45;&gt;EthernetCutthroughSource -->
<g id="edge3" class="edge">
<title>EthernetCutthroughLayer&#45;&gt;EthernetCutthroughSource</title>
<path fill="none" stroke="black" d="M212.55,-54.98C233.91,-46.34 267.2,-32.87 291.56,-23.02"/>
<polygon fill="black" stroke="black" points="293.11,-26.17 301.07,-19.17 290.49,-19.68 293.11,-26.17"/>
</g>
</g>
</svg>
