<?xml version="1.0" encoding="UTF-8" standalone="no"?>
<!DOCTYPE svg PUBLIC "-//W3C//DTD SVG 1.1//EN"
 "http://www.w3.org/Graphics/SVG/1.1/DTD/svg11.dtd">
<!-- Generated by graphviz version 2.43.0 (0)
 -->
<!-- Title: opp Pages: 1 -->
<svg width="679pt" height="82pt"
 viewBox="0.00 0.00 679.00 82.00" xmlns="http://www.w3.org/2000/svg" xmlns:xlink="http://www.w3.org/1999/xlink">
<g id="graph0" class="graph" transform="scale(1 1) rotate(0) translate(4 78)">
<title>opp</title>
<polygon fill="transparent" stroke="transparent" points="-4,4 -4,-78 675,-78 675,4 -4,4"/>
<!-- GPSRNetworkRandom -->
<g id="node1" class="node">
<title>GPSRNetworkRandom</title>
<g id="a_node1"><a xlink:href="inet.examples.manetrouting.gpsr.GPSRNetworkRandom.html" xlink:title="Network GPSRNetworkRandom" target="_parent">
<polygon fill="#9090ff" stroke="black" points="422,-74 297,-74 297,-55 422,-55 422,-74"/>
<text text-anchor="middle" x="359.5" y="-62" font-family="Helvetica,sans-Serif" font-size="10.00">GPSRNetworkRandom</text>
</a>
</g>
</g>
<!-- Ieee80211ScalarRadioMedium -->
<g id="node2" class="node">
<title>Ieee80211ScalarRadioMedium</title>
<g id="a_node2"><a xlink:href="inet.physicallayer.wireless.ieee80211.packetlevel.Ieee80211ScalarRadioMedium.html" xlink:title="Compound Module Ieee80211ScalarRadioMedium" target="_parent">
<polygon fill="#fffcaf" stroke="black" points="165,-19 0,-19 0,0 165,0 165,-19"/>
<text text-anchor="middle" x="82.5" y="-7" font-family="Helvetica,sans-Serif" font-size="10.00">Ieee80211ScalarRadioMedium</text>
</a>
</g>
</g>
<!-- GPSRNetworkRandom&#45;&gt;Ieee80211ScalarRadioMedium -->
<g id="edge1" class="edge">
<title>GPSRNetworkRandom&#45;&gt;Ieee80211ScalarRadioMedium</title>
<path fill="none" stroke="black" d="M315,-54.98C266.68,-45.74 189.46,-30.97 137.41,-21.01"/>
<polygon fill="black" stroke="black" points="137.83,-17.52 127.35,-19.08 136.52,-24.4 137.83,-17.52"/>
</g>
<!-- RoutingTableRecorder -->
<g id="node3" class="node">
<title>RoutingTableRecorder</title>
<g id="a_node3"><a xlink:href="inet.networklayer.ipv4.RoutingTableRecorder.html" xlink:title="Simple Module RoutingTableRecorder" target="_parent">
<polygon fill="#fffcaf" stroke="black" points="306,-19 183,-19 183,0 306,0 306,-19"/>
<text text-anchor="middle" x="244.5" y="-7" font-family="Helvetica,sans-Serif" font-size="10.00">RoutingTableRecorder</text>
</a>
</g>
</g>
<!-- GPSRNetworkRandom&#45;&gt;RoutingTableRecorder -->
<g id="edge2" class="edge">
<title>GPSRNetworkRandom&#45;&gt;RoutingTableRecorder</title>
<path fill="none" stroke="black" d="M341.02,-54.98C322.52,-46.46 293.82,-33.23 272.52,-23.41"/>
<polygon fill="black" stroke="black" points="273.86,-20.18 263.31,-19.17 270.93,-26.53 273.86,-20.18"/>
</g>
<!-- GpsrRouter -->
<g id="node4" class="node">
<title>GpsrRouter</title>
<g id="a_node4"><a xlink:href="inet.node.gpsr.GpsrRouter.html" xlink:title="Compound Module GpsrRouter" target="_parent">
<polygon fill="#fffcaf" stroke="black" points="395,-19 324,-19 324,0 395,0 395,-19"/>
<text text-anchor="middle" x="359.5" y="-7" font-family="Helvetica,sans-Serif" font-size="10.00">GpsrRouter</text>
</a>
</g>
</g>
<!-- GPSRNetworkRandom&#45;&gt;GpsrRouter -->
<g id="edge3" class="edge">
<title>GPSRNetworkRandom&#45;&gt;GpsrRouter</title>
<path fill="none" stroke="black" d="M359.5,-54.75C359.5,-47.8 359.5,-37.85 359.5,-29.13"/>
<polygon fill="black" stroke="black" points="363,-29.09 359.5,-19.09 356,-29.09 363,-29.09"/>
</g>
<!-- Ipv4NetworkConfigurator -->
<g id="node5" class="node">
<title>Ipv4NetworkConfigurator</title>
<g id="a_node5"><a xlink:href="inet.networklayer.configurator.ipv4.Ipv4NetworkConfigurator.html" xlink:title="Simple Module Ipv4NetworkConfigurator" target="_parent">
<polygon fill="#fffcaf" stroke="black" points="552,-19 413,-19 413,0 552,0 552,-19"/>
<text text-anchor="middle" x="482.5" y="-7" font-family="Helvetica,sans-Serif" font-size="10.00">Ipv4NetworkConfigurator</text>
</a>
</g>
</g>
<!-- GPSRNetworkRandom&#45;&gt;Ipv4NetworkConfigurator -->
<g id="edge4" class="edge">
<title>GPSRNetworkRandom&#45;&gt;Ipv4NetworkConfigurator</title>
<path fill="none" stroke="black" d="M379.26,-54.98C399.23,-46.38 430.3,-32.99 453.15,-23.15"/>
<polygon fill="black" stroke="black" points="454.58,-26.34 462.38,-19.17 451.81,-19.91 454.58,-26.34"/>
</g>
<!-- ScenarioManager -->
<g id="node6" class="node">
<title>ScenarioManager</title>
<g id="a_node6"><a xlink:href="inet.common.scenario.ScenarioManager.html" xlink:title="Simple Module ScenarioManager" target="_parent">
<polygon fill="#fffcaf" stroke="black" points="671,-19 570,-19 570,0 671,0 671,-19"/>
<text text-anchor="middle" x="620.5" y="-7" font-family="Helvetica,sans-Serif" font-size="10.00">ScenarioManager</text>
</a>
</g>
</g>
<!-- GPSRNetworkRandom&#45;&gt;ScenarioManager -->
<g id="edge5" class="edge">
<title>GPSRNetworkRandom&#45;&gt;ScenarioManager</title>
<path fill="none" stroke="black" d="M401.43,-54.98C446.77,-45.78 519.11,-31.09 568.15,-21.13"/>
<polygon fill="black" stroke="black" points="569.13,-24.5 578.24,-19.08 567.74,-17.64 569.13,-24.5"/>
</g>
</g>
</svg>
