<?xml version="1.0" encoding="UTF-8" standalone="no"?>
<!DOCTYPE svg PUBLIC "-//W3C//DTD SVG 1.1//EN"
 "http://www.w3.org/Graphics/SVG/1.1/DTD/svg11.dtd">
<!-- Generated by graphviz version 2.43.0 (0)
 -->
<!-- Title: opp Pages: 1 -->
<svg width="464pt" height="137pt"
 viewBox="0.00 0.00 463.50 137.00" xmlns="http://www.w3.org/2000/svg" xmlns:xlink="http://www.w3.org/1999/xlink">
<g id="graph0" class="graph" transform="scale(1 1) rotate(0) translate(4 133)">
<title>opp</title>
<polygon fill="transparent" stroke="transparent" points="-4,4 -4,-133 459.5,-133 459.5,4 -4,4"/>
<!-- ExampleHost -->
<g id="node1" class="node">
<title>ExampleHost</title>
<g id="a_node1"><a xlink:href="inet.tutorials.queueing.ExampleHost.html" xlink:title="Compound Module ExampleHost" target="_parent">
<polygon fill="#fff700" stroke="black" points="270.5,-74 188.5,-74 188.5,-55 270.5,-55 270.5,-74"/>
<text text-anchor="middle" x="229.5" y="-62" font-family="Helvetica,sans-Serif" font-size="10.00">ExampleHost</text>
</a>
</g>
</g>
<!-- ExampleInterface -->
<g id="node2" class="node">
<title>ExampleInterface</title>
<g id="a_node2"><a xlink:href="inet.tutorials.queueing.ExampleInterface.html" xlink:title="Compound Module ExampleInterface" target="_parent">
<polygon fill="#fffcaf" stroke="black" points="103,-19 0,-19 0,0 103,0 103,-19"/>
<text text-anchor="middle" x="51.5" y="-7" font-family="Helvetica,sans-Serif" font-size="10.00">ExampleInterface</text>
</a>
</g>
</g>
<!-- ExampleHost&#45;&gt;ExampleInterface -->
<g id="edge1" class="edge">
<title>ExampleHost&#45;&gt;ExampleInterface</title>
<path fill="none" stroke="black" d="M200.9,-54.98C170.89,-46.05 123.52,-31.94 90.18,-22.02"/>
<polygon fill="black" stroke="black" points="90.91,-18.58 80.32,-19.08 88.91,-25.29 90.91,-18.58"/>
</g>
<!-- PassivePacketSink -->
<g id="node3" class="node">
<title>PassivePacketSink</title>
<g id="a_node3"><a xlink:href="inet.queueing.sink.PassivePacketSink.html" xlink:title="Simple Module PassivePacketSink" target="_parent">
<polygon fill="#fffcaf" stroke="black" points="227.5,-19 121.5,-19 121.5,0 227.5,0 227.5,-19"/>
<text text-anchor="middle" x="174.5" y="-7" font-family="Helvetica,sans-Serif" font-size="10.00">PassivePacketSink</text>
</a>
</g>
</g>
<!-- ExampleHost&#45;&gt;PassivePacketSink -->
<g id="edge2" class="edge">
<title>ExampleHost&#45;&gt;PassivePacketSink</title>
<path fill="none" stroke="black" d="M220.42,-54.75C212.41,-47.03 200.54,-35.6 190.88,-26.28"/>
<polygon fill="black" stroke="black" points="193.04,-23.51 183.41,-19.09 188.19,-28.55 193.04,-23.51"/>
</g>
<!-- IdealChannel -->
<g id="node4" class="node">
<title>IdealChannel</title>
<g id="a_node4"><a xlink:href="ned.IdealChannel.html" xlink:title="Channel IdealChannel" target="_parent">
<polygon fill="#d0ffd0" stroke="black" points="325.5,-19 245.5,-19 245.5,0 325.5,0 325.5,-19"/>
<text text-anchor="middle" x="285.5" y="-7" font-family="Helvetica,sans-Serif" font-size="10.00">IdealChannel</text>
</a>
</g>
</g>
<!-- ExampleHost&#45;&gt;IdealChannel -->
<g id="edge3" class="edge">
<title>ExampleHost&#45;&gt;IdealChannel</title>
<path fill="none" stroke="black" d="M238.5,-54.98C246.69,-47.23 259.01,-35.58 268.97,-26.14"/>
<polygon fill="black" stroke="black" points="271.48,-28.59 276.34,-19.17 266.67,-23.5 271.48,-28.59"/>
</g>
<!-- ActivePacketSource -->
<g id="node5" class="node">
<title>ActivePacketSource</title>
<g id="a_node5"><a xlink:href="inet.queueing.source.ActivePacketSource.html" xlink:title="Simple Module ActivePacketSource" target="_parent">
<polygon fill="#fffcaf" stroke="black" points="455.5,-19 343.5,-19 343.5,0 455.5,0 455.5,-19"/>
<text text-anchor="middle" x="399.5" y="-7" font-family="Helvetica,sans-Serif" font-size="10.00">ActivePacketSource</text>
</a>
</g>
</g>
<!-- ExampleHost&#45;&gt;ActivePacketSource -->
<g id="edge4" class="edge">
<title>ExampleHost&#45;&gt;ActivePacketSource</title>
<path fill="none" stroke="black" d="M256.81,-54.98C285.35,-46.09 330.33,-32.07 362.14,-22.15"/>
<polygon fill="black" stroke="black" points="363.47,-25.4 371.97,-19.08 361.38,-18.72 363.47,-25.4"/>
</g>
<!-- ExampleNetworkTutorialStep -->
<g id="node6" class="node">
<title>ExampleNetworkTutorialStep</title>
<g id="a_node6"><a xlink:href="inet.tutorials.queueing.ExampleNetworkTutorialStep.html" xlink:title="Network ExampleNetworkTutorialStep" target="_parent">
<polygon fill="#d0d0ff" stroke="black" points="308.5,-129 150.5,-129 150.5,-110 308.5,-110 308.5,-129"/>
<text text-anchor="middle" x="229.5" y="-117" font-family="Helvetica,sans-Serif" font-size="10.00">ExampleNetworkTutorialStep</text>
</a>
</g>
</g>
<!-- ExampleNetworkTutorialStep&#45;&gt;ExampleHost -->
<g id="edge5" class="edge">
<title>ExampleNetworkTutorialStep&#45;&gt;ExampleHost</title>
<path fill="none" stroke="black" d="M229.5,-109.75C229.5,-102.8 229.5,-92.85 229.5,-84.13"/>
<polygon fill="black" stroke="black" points="233,-84.09 229.5,-74.09 226,-84.09 233,-84.09"/>
</g>
</g>
</svg>
