<?xml version="1.0" encoding="UTF-8" standalone="no"?>
<!DOCTYPE svg PUBLIC "-//W3C//DTD SVG 1.1//EN"
 "http://www.w3.org/Graphics/SVG/1.1/DTD/svg11.dtd">
<!-- Generated by graphviz version 2.43.0 (0)
 -->
<!-- Title: opp Pages: 1 -->
<svg width="488pt" height="82pt"
 viewBox="0.00 0.00 487.50 82.00" xmlns="http://www.w3.org/2000/svg" xmlns:xlink="http://www.w3.org/1999/xlink">
<g id="graph0" class="graph" transform="scale(1 1) rotate(0) translate(4 78)">
<title>opp</title>
<polygon fill="transparent" stroke="transparent" points="-4,4 -4,-78 483.5,-78 483.5,4 -4,4"/>
<!-- ARPTest -->
<g id="node1" class="node">
<title>ARPTest</title>
<g id="a_node1"><a xlink:href="inet.examples.ethernet.arptest2.ARPTest.html" xlink:title="Network ARPTest" target="_parent">
<polygon fill="#9090ff" stroke="black" points="293.5,-74 237.5,-74 237.5,-55 293.5,-55 293.5,-74"/>
<text text-anchor="middle" x="265.5" y="-62" font-family="Helvetica,sans-Serif" font-size="10.00">ARPTest</text>
</a>
</g>
</g>
<!-- EthernetHub -->
<g id="node2" class="node">
<title>EthernetHub</title>
<g id="a_node2"><a xlink:href="inet.node.ethernet.EthernetHub.html" xlink:title="Simple Module EthernetHub" target="_parent">
<polygon fill="#fffcaf" stroke="black" points="77,-19 0,-19 0,0 77,0 77,-19"/>
<text text-anchor="middle" x="38.5" y="-7" font-family="Helvetica,sans-Serif" font-size="10.00">EthernetHub</text>
</a>
</g>
</g>
<!-- ARPTest&#45;&gt;EthernetHub -->
<g id="edge1" class="edge">
<title>ARPTest&#45;&gt;EthernetHub</title>
<path fill="none" stroke="black" d="M237.21,-56.89C199.09,-47.99 130.75,-32.04 85.01,-21.36"/>
<polygon fill="black" stroke="black" points="85.58,-17.9 75.04,-19.03 83.99,-24.71 85.58,-17.9"/>
</g>
<!-- StandardHost -->
<g id="node3" class="node">
<title>StandardHost</title>
<g id="a_node3"><a xlink:href="inet.node.inet.StandardHost.html" xlink:title="Compound Module StandardHost" target="_parent">
<polygon fill="#fffcaf" stroke="black" points="178,-19 95,-19 95,0 178,0 178,-19"/>
<text text-anchor="middle" x="136.5" y="-7" font-family="Helvetica,sans-Serif" font-size="10.00">StandardHost</text>
</a>
</g>
</g>
<!-- ARPTest&#45;&gt;StandardHost -->
<g id="edge2" class="edge">
<title>ARPTest&#45;&gt;StandardHost</title>
<path fill="none" stroke="black" d="M244.77,-54.98C223.74,-46.34 190.95,-32.87 166.96,-23.02"/>
<polygon fill="black" stroke="black" points="168.18,-19.73 157.6,-19.17 165.52,-26.21 168.18,-19.73"/>
</g>
<!-- Ipv4NetworkConfigurator -->
<g id="node4" class="node">
<title>Ipv4NetworkConfigurator</title>
<g id="a_node4"><a xlink:href="inet.networklayer.configurator.ipv4.Ipv4NetworkConfigurator.html" xlink:title="Simple Module Ipv4NetworkConfigurator" target="_parent">
<polygon fill="#fffcaf" stroke="black" points="335,-19 196,-19 196,0 335,0 335,-19"/>
<text text-anchor="middle" x="265.5" y="-7" font-family="Helvetica,sans-Serif" font-size="10.00">Ipv4NetworkConfigurator</text>
</a>
</g>
</g>
<!-- ARPTest&#45;&gt;Ipv4NetworkConfigurator -->
<g id="edge3" class="edge">
<title>ARPTest&#45;&gt;Ipv4NetworkConfigurator</title>
<path fill="none" stroke="black" d="M265.5,-54.75C265.5,-47.8 265.5,-37.85 265.5,-29.13"/>
<polygon fill="black" stroke="black" points="269,-29.09 265.5,-19.09 262,-29.09 269,-29.09"/>
</g>
<!-- ethline -->
<g id="node5" class="node">
<title>ethline</title>
<g id="a_node5"><a xlink:href="inet.examples.ethernet.arptest2.ARPTest.ethline.html" xlink:title="Channel ethline" target="_parent">
<polygon fill="#d0ffd0" stroke="black" points="407.5,-19 353.5,-19 353.5,0 407.5,0 407.5,-19"/>
<text text-anchor="middle" x="380.5" y="-7" font-family="Helvetica,sans-Serif" font-size="10.00">ethline</text>
</a>
</g>
</g>
<!-- ARPTest&#45;&gt;ethline -->
<g id="edge4" class="edge">
<title>ARPTest&#45;&gt;ethline</title>
<path fill="none" stroke="black" d="M283.98,-54.98C302.48,-46.46 331.18,-33.23 352.48,-23.41"/>
<polygon fill="black" stroke="black" points="354.07,-26.53 361.69,-19.17 351.14,-20.18 354.07,-26.53"/>
</g>
<!-- Router -->
<g id="node6" class="node">
<title>Router</title>
<g id="a_node6"><a xlink:href="inet.node.inet.Router.html" xlink:title="Compound Module Router" target="_parent">
<polygon fill="#fffcaf" stroke="black" points="479.5,-19 425.5,-19 425.5,0 479.5,0 479.5,-19"/>
<text text-anchor="middle" x="452.5" y="-7" font-family="Helvetica,sans-Serif" font-size="10.00">Router</text>
</a>
</g>
</g>
<!-- ARPTest&#45;&gt;Router -->
<g id="edge5" class="edge">
<title>ARPTest&#45;&gt;Router</title>
<path fill="none" stroke="black" d="M293.9,-55.45C326.36,-46.25 379.58,-31.17 415.32,-21.04"/>
<polygon fill="black" stroke="black" points="416.69,-24.29 425.35,-18.19 414.78,-17.55 416.69,-24.29"/>
</g>
</g>
</svg>
