<?xml version="1.0" encoding="UTF-8" standalone="no"?>
<!DOCTYPE svg PUBLIC "-//W3C//DTD SVG 1.1//EN"
 "http://www.w3.org/Graphics/SVG/1.1/DTD/svg11.dtd">
<!-- Generated by graphviz version 2.43.0 (0)
 -->
<!-- Title: opp Pages: 1 -->
<svg width="392pt" height="82pt"
 viewBox="0.00 0.00 392.00 82.00" xmlns="http://www.w3.org/2000/svg" xmlns:xlink="http://www.w3.org/1999/xlink">
<g id="graph0" class="graph" transform="scale(1 1) rotate(0) translate(4 78)">
<title>opp</title>
<polygon fill="transparent" stroke="transparent" points="-4,4 -4,-78 388,-78 388,4 -4,4"/>
<!-- IPacketReceiver -->
<g id="node1" class="node">
<title>IPacketReceiver</title>
<g id="a_node1"><a xlink:href="inet.protocolelement.transceiver.contract.IPacketReceiver.html" xlink:title="Module Interface IPacketReceiver" target="_parent">
<polygon fill="#fff700" stroke="black" stroke-dasharray="5,2" points="233,-74 139,-74 139,-55 233,-55 233,-74"/>
<text text-anchor="middle" x="186" y="-62" font-family="Helvetica,sans-Serif" font-size="10.00">IPacketReceiver</text>
</a>
</g>
</g>
<!-- DestreamingReceiver -->
<g id="node2" class="node">
<title>DestreamingReceiver</title>
<g id="a_node2"><a xlink:href="inet.protocolelement.transceiver.DestreamingReceiver.html" xlink:title="Simple Module DestreamingReceiver" target="_parent">
<polygon fill="#fffcaf" stroke="black" points="122,-19 0,-19 0,0 122,0 122,-19"/>
<text text-anchor="middle" x="61" y="-7" font-family="Helvetica,sans-Serif" font-size="10.00">DestreamingReceiver</text>
</a>
</g>
</g>
<!-- IPacketReceiver&#45;&gt;DestreamingReceiver -->
<g id="edge1" class="edge">
<title>IPacketReceiver&#45;&gt;DestreamingReceiver</title>
<path fill="none" stroke="black" stroke-dasharray="5,2" d="M165.92,-54.98C142.73,-45.15 104.79,-29.07 81.45,-19.17"/>
</g>
<!-- PacketReceiver -->
<g id="node3" class="node">
<title>PacketReceiver</title>
<g id="a_node3"><a xlink:href="inet.protocolelement.transceiver.PacketReceiver.html" xlink:title="Simple Module PacketReceiver" target="_parent">
<polygon fill="#fffcaf" stroke="black" points="231.5,-19 140.5,-19 140.5,0 231.5,0 231.5,-19"/>
<text text-anchor="middle" x="186" y="-7" font-family="Helvetica,sans-Serif" font-size="10.00">PacketReceiver</text>
</a>
</g>
</g>
<!-- IPacketReceiver&#45;&gt;PacketReceiver -->
<g id="edge2" class="edge">
<title>IPacketReceiver&#45;&gt;PacketReceiver</title>
<path fill="none" stroke="black" stroke-dasharray="5,2" d="M186,-54.75C186,-44.87 186,-28.9 186,-19.09"/>
</g>
<!-- StreamThroughReceiver -->
<g id="node4" class="node">
<title>StreamThroughReceiver</title>
<g id="a_node4"><a xlink:href="inet.protocolelement.transceiver.StreamThroughReceiver.html" xlink:title="Simple Module StreamThroughReceiver" target="_parent">
<polygon fill="#fffcaf" stroke="black" points="384,-19 250,-19 250,0 384,0 384,-19"/>
<text text-anchor="middle" x="317" y="-7" font-family="Helvetica,sans-Serif" font-size="10.00">StreamThroughReceiver</text>
</a>
</g>
</g>
<!-- IPacketReceiver&#45;&gt;StreamThroughReceiver -->
<g id="edge3" class="edge">
<title>IPacketReceiver&#45;&gt;StreamThroughReceiver</title>
<path fill="none" stroke="black" stroke-dasharray="5,2" d="M207.05,-54.98C231.35,-45.15 271.11,-29.07 295.57,-19.17"/>
</g>
</g>
</svg>
