<?xml version="1.0" encoding="UTF-8" standalone="no"?>
<!DOCTYPE svg PUBLIC "-//W3C//DTD SVG 1.1//EN"
 "http://www.w3.org/Graphics/SVG/1.1/DTD/svg11.dtd">
<!-- Generated by graphviz version 2.43.0 (0)
 -->
<!-- Title: opp Pages: 1 -->
<svg width="261pt" height="137pt"
 viewBox="0.00 0.00 261.00 137.00" xmlns="http://www.w3.org/2000/svg" xmlns:xlink="http://www.w3.org/1999/xlink">
<g id="graph0" class="graph" transform="scale(1 1) rotate(0) translate(4 133)">
<title>opp</title>
<polygon fill="transparent" stroke="transparent" points="-4,4 -4,-133 257,-133 257,4 -4,4"/>
<!-- IRadio -->
<g id="node1" class="node">
<title>IRadio</title>
<g id="a_node1"><a xlink:href="inet.physicallayer.wireless.common.contract.packetlevel.IRadio.html" xlink:title="Module Interface IRadio" target="_parent">
<polygon fill="#fff700" stroke="black" stroke-dasharray="5,2" points="149.5,-74 95.5,-74 95.5,-55 149.5,-55 149.5,-74"/>
<text text-anchor="middle" x="122.5" y="-62" font-family="Helvetica,sans-Serif" font-size="10.00">IRadio</text>
</a>
</g>
</g>
<!-- NoiseSource -->
<g id="node3" class="node">
<title>NoiseSource</title>
<g id="a_node3"><a xlink:href="inet.physicallayer.wireless.noise.NoiseSource.html" xlink:title="Compound Module NoiseSource" target="_parent">
<polygon fill="#fffcaf" stroke="black" points="77,-19 0,-19 0,0 77,0 77,-19"/>
<text text-anchor="middle" x="38.5" y="-7" font-family="Helvetica,sans-Serif" font-size="10.00">NoiseSource</text>
</a>
</g>
</g>
<!-- IRadio&#45;&gt;NoiseSource -->
<g id="edge2" class="edge">
<title>IRadio&#45;&gt;NoiseSource</title>
<path fill="none" stroke="black" stroke-dasharray="5,2" d="M109,-54.98C93.42,-45.15 67.93,-29.07 52.24,-19.17"/>
</g>
<!-- Radio -->
<g id="node4" class="node">
<title>Radio</title>
<g id="a_node4"><a xlink:href="inet.physicallayer.wireless.common.radio.packetlevel.Radio.html" xlink:title="Compound Module Radio" target="_parent">
<polygon fill="#fffcaf" stroke="black" points="149.5,-19 95.5,-19 95.5,0 149.5,0 149.5,-19"/>
<text text-anchor="middle" x="122.5" y="-7" font-family="Helvetica,sans-Serif" font-size="10.00">Radio</text>
</a>
</g>
</g>
<!-- IRadio&#45;&gt;Radio -->
<g id="edge3" class="edge">
<title>IRadio&#45;&gt;Radio</title>
<path fill="none" stroke="black" stroke-dasharray="5,2" d="M122.5,-54.75C122.5,-44.87 122.5,-28.9 122.5,-19.09"/>
</g>
<!-- ShortcutRadio -->
<g id="node5" class="node">
<title>ShortcutRadio</title>
<g id="a_node5"><a xlink:href="inet.physicallayer.wireless.shortcut.ShortcutRadio.html" xlink:title="Simple Module ShortcutRadio" target="_parent">
<polygon fill="#fffcaf" stroke="black" points="253,-19 168,-19 168,0 253,0 253,-19"/>
<text text-anchor="middle" x="210.5" y="-7" font-family="Helvetica,sans-Serif" font-size="10.00">ShortcutRadio</text>
</a>
</g>
</g>
<!-- IRadio&#45;&gt;ShortcutRadio -->
<g id="edge4" class="edge">
<title>IRadio&#45;&gt;ShortcutRadio</title>
<path fill="none" stroke="black" stroke-dasharray="5,2" d="M136.64,-54.98C152.96,-45.15 179.67,-29.07 196.1,-19.17"/>
</g>
<!-- IPhysicalLayer -->
<g id="node2" class="node">
<title>IPhysicalLayer</title>
<g id="a_node2"><a xlink:href="inet.physicallayer.wireless.common.contract.packetlevel.IPhysicalLayer.html" xlink:title="Module Interface IPhysicalLayer" target="_parent">
<polygon fill="#fffcaf" stroke="black" stroke-dasharray="5,2" points="166,-129 79,-129 79,-110 166,-110 166,-129"/>
<text text-anchor="middle" x="122.5" y="-117" font-family="Helvetica,sans-Serif" font-size="10.00">IPhysicalLayer</text>
</a>
</g>
</g>
<!-- IPhysicalLayer&#45;&gt;IRadio -->
<g id="edge1" class="edge">
<title>IPhysicalLayer&#45;&gt;IRadio</title>
<path fill="none" stroke="black" d="M122.5,-109.75C122.5,-99.87 122.5,-83.9 122.5,-74.09"/>
</g>
</g>
</svg>
