<?xml version="1.0" encoding="UTF-8" standalone="no"?>
<!DOCTYPE svg PUBLIC "-//W3C//DTD SVG 1.1//EN"
 "http://www.w3.org/Graphics/SVG/1.1/DTD/svg11.dtd">
<!-- Generated by graphviz version 2.43.0 (0)
 -->
<!-- Title: opp Pages: 1 -->
<svg width="422pt" height="82pt"
 viewBox="0.00 0.00 421.50 82.00" xmlns="http://www.w3.org/2000/svg" xmlns:xlink="http://www.w3.org/1999/xlink">
<g id="graph0" class="graph" transform="scale(1 1) rotate(0) translate(4 78)">
<title>opp</title>
<polygon fill="transparent" stroke="transparent" points="-4,4 -4,-78 417.5,-78 417.5,4 -4,4"/>
<!-- EthernetQosQueue -->
<g id="node1" class="node">
<title>EthernetQosQueue</title>
<g id="a_node1"><a xlink:href="inet.linklayer.ethernet.common.EthernetQosQueue.html" xlink:title="Compound Module EthernetQosQueue" target="_parent">
<polygon fill="#fff700" stroke="black" points="260,-74 152,-74 152,-55 260,-55 260,-74"/>
<text text-anchor="middle" x="206" y="-62" font-family="Helvetica,sans-Serif" font-size="10.00">EthernetQosQueue</text>
</a>
</g>
</g>
<!-- IPacketClassifier -->
<g id="node2" class="node">
<title>IPacketClassifier</title>
<g id="a_node2"><a xlink:href="inet.queueing.contract.IPacketClassifier.html" xlink:title="Module Interface IPacketClassifier" target="_parent">
<polygon fill="#fffcaf" stroke="black" stroke-dasharray="5,2" points="96,-19 0,-19 0,0 96,0 96,-19"/>
<text text-anchor="middle" x="48" y="-7" font-family="Helvetica,sans-Serif" font-size="10.00">IPacketClassifier</text>
</a>
</g>
</g>
<!-- EthernetQosQueue&#45;&gt;IPacketClassifier -->
<g id="edge1" class="edge">
<title>EthernetQosQueue&#45;&gt;IPacketClassifier</title>
<path fill="none" stroke="black" d="M180.61,-54.98C154.2,-46.13 112.65,-32.19 83.11,-22.28"/>
<polygon fill="black" stroke="black" points="84.18,-18.94 73.58,-19.08 81.95,-25.58 84.18,-18.94"/>
</g>
<!-- IPacketQueue -->
<g id="node3" class="node">
<title>IPacketQueue</title>
<g id="a_node3"><a xlink:href="inet.queueing.contract.IPacketQueue.html" xlink:title="Module Interface IPacketQueue" target="_parent">
<polygon fill="#fffcaf" stroke="black" stroke-dasharray="5,2" points="197.5,-19 114.5,-19 114.5,0 197.5,0 197.5,-19"/>
<text text-anchor="middle" x="156" y="-7" font-family="Helvetica,sans-Serif" font-size="10.00">IPacketQueue</text>
</a>
</g>
</g>
<!-- EthernetQosQueue&#45;&gt;IPacketQueue -->
<g id="edge2" class="edge">
<title>EthernetQosQueue&#45;&gt;IPacketQueue</title>
<path fill="none" stroke="black" d="M197.74,-54.75C190.54,-47.11 179.89,-35.82 171.15,-26.56"/>
<polygon fill="black" stroke="black" points="173.51,-23.96 164.1,-19.09 168.42,-28.76 173.51,-23.96"/>
</g>
<!-- IdealChannel -->
<g id="node4" class="node">
<title>IdealChannel</title>
<g id="a_node4"><a xlink:href="ned.IdealChannel.html" xlink:title="Channel IdealChannel" target="_parent">
<polygon fill="#d0ffd0" stroke="black" points="296,-19 216,-19 216,0 296,0 296,-19"/>
<text text-anchor="middle" x="256" y="-7" font-family="Helvetica,sans-Serif" font-size="10.00">IdealChannel</text>
</a>
</g>
</g>
<!-- EthernetQosQueue&#45;&gt;IdealChannel -->
<g id="edge3" class="edge">
<title>EthernetQosQueue&#45;&gt;IdealChannel</title>
<path fill="none" stroke="black" d="M214.26,-54.75C221.46,-47.11 232.11,-35.82 240.85,-26.56"/>
<polygon fill="black" stroke="black" points="243.58,-28.76 247.9,-19.09 238.49,-23.96 243.58,-28.76"/>
</g>
<!-- IPacketScheduler -->
<g id="node5" class="node">
<title>IPacketScheduler</title>
<g id="a_node5"><a xlink:href="inet.queueing.contract.IPacketScheduler.html" xlink:title="Module Interface IPacketScheduler" target="_parent">
<polygon fill="#fffcaf" stroke="black" stroke-dasharray="5,2" points="413.5,-19 314.5,-19 314.5,0 413.5,0 413.5,-19"/>
<text text-anchor="middle" x="364" y="-7" font-family="Helvetica,sans-Serif" font-size="10.00">IPacketScheduler</text>
</a>
</g>
</g>
<!-- EthernetQosQueue&#45;&gt;IPacketScheduler -->
<g id="edge4" class="edge">
<title>EthernetQosQueue&#45;&gt;IPacketScheduler</title>
<path fill="none" stroke="black" d="M231.39,-54.98C257.8,-46.13 299.35,-32.19 328.89,-22.28"/>
<polygon fill="black" stroke="black" points="330.05,-25.58 338.42,-19.08 327.82,-18.94 330.05,-25.58"/>
</g>
</g>
</svg>
