<?xml version="1.0" encoding="UTF-8" standalone="no"?>
<!DOCTYPE svg PUBLIC "-//W3C//DTD SVG 1.1//EN"
 "http://www.w3.org/Graphics/SVG/1.1/DTD/svg11.dtd">
<!-- Generated by graphviz version 2.43.0 (0)
 -->
<!-- Title: opp Pages: 1 -->
<svg width="328pt" height="82pt"
 viewBox="0.00 0.00 328.00 82.00" xmlns="http://www.w3.org/2000/svg" xmlns:xlink="http://www.w3.org/1999/xlink">
<g id="graph0" class="graph" transform="scale(1 1) rotate(0) translate(4 78)">
<title>opp</title>
<polygon fill="transparent" stroke="transparent" points="-4,4 -4,-78 324,-78 324,4 -4,4"/>
<!-- BusLAN -->
<g id="node1" class="node">
<title>BusLAN</title>
<g id="a_node1"><a xlink:href="inet.examples.ethernet.lans.BusLAN.html" xlink:title="Network BusLAN" target="_parent">
<polygon fill="#9090ff" stroke="black" points="180.5,-74 125.5,-74 125.5,-55 180.5,-55 180.5,-74"/>
<text text-anchor="middle" x="153" y="-62" font-family="Helvetica,sans-Serif" font-size="10.00">BusLAN</text>
</a>
</g>
</g>
<!-- C -->
<g id="node2" class="node">
<title>C</title>
<g id="a_node2"><a xlink:href="inet.examples.ethernet.lans.BusLAN.C.html" xlink:title="Channel C" target="_parent">
<polygon fill="#d0ffd0" stroke="black" points="54,-19 0,-19 0,0 54,0 54,-19"/>
<text text-anchor="middle" x="27" y="-7" font-family="Helvetica,sans-Serif" font-size="10.00">C</text>
</a>
</g>
</g>
<!-- BusLAN&#45;&gt;C -->
<g id="edge1" class="edge">
<title>BusLAN&#45;&gt;C</title>
<path fill="none" stroke="black" d="M132.76,-54.98C112.3,-46.38 80.47,-32.99 57.07,-23.15"/>
<polygon fill="black" stroke="black" points="58.19,-19.82 47.61,-19.17 55.47,-26.27 58.19,-19.82"/>
</g>
<!-- WireJunction -->
<g id="node3" class="node">
<title>WireJunction</title>
<g id="a_node3"><a xlink:href="inet.physicallayer.wired.common.WireJunction.html" xlink:title="Simple Module WireJunction" target="_parent">
<polygon fill="#fffcaf" stroke="black" points="150,-19 72,-19 72,0 150,0 150,-19"/>
<text text-anchor="middle" x="111" y="-7" font-family="Helvetica,sans-Serif" font-size="10.00">WireJunction</text>
</a>
</g>
</g>
<!-- BusLAN&#45;&gt;WireJunction -->
<g id="edge2" class="edge">
<title>BusLAN&#45;&gt;WireJunction</title>
<path fill="none" stroke="black" d="M146.06,-54.75C140.13,-47.26 131.43,-36.28 124.18,-27.13"/>
<polygon fill="black" stroke="black" points="126.76,-24.75 117.81,-19.09 121.27,-29.1 126.76,-24.75"/>
</g>
<!-- Eth10M -->
<g id="node4" class="node">
<title>Eth10M</title>
<g id="a_node4"><a xlink:href="inet.node.ethernet.Eth10M.html" xlink:title="Channel Eth10M" target="_parent">
<polygon fill="#d0ffd0" stroke="black" points="222,-19 168,-19 168,0 222,0 222,-19"/>
<text text-anchor="middle" x="195" y="-7" font-family="Helvetica,sans-Serif" font-size="10.00">Eth10M</text>
</a>
</g>
</g>
<!-- BusLAN&#45;&gt;Eth10M -->
<g id="edge3" class="edge">
<title>BusLAN&#45;&gt;Eth10M</title>
<path fill="none" stroke="black" d="M159.94,-54.75C165.87,-47.26 174.57,-36.28 181.82,-27.13"/>
<polygon fill="black" stroke="black" points="184.73,-29.1 188.19,-19.09 179.24,-24.75 184.73,-29.1"/>
</g>
<!-- EthernetHost -->
<g id="node5" class="node">
<title>EthernetHost</title>
<g id="a_node5"><a xlink:href="inet.node.ethernet.EthernetHost.html" xlink:title="Compound Module EthernetHost" target="_parent">
<polygon fill="#fffcaf" stroke="black" points="320,-19 240,-19 240,0 320,0 320,-19"/>
<text text-anchor="middle" x="280" y="-7" font-family="Helvetica,sans-Serif" font-size="10.00">EthernetHost</text>
</a>
</g>
</g>
<!-- BusLAN&#45;&gt;EthernetHost -->
<g id="edge4" class="edge">
<title>BusLAN&#45;&gt;EthernetHost</title>
<path fill="none" stroke="black" d="M173.4,-54.98C194.02,-46.38 226.11,-32.99 249.69,-23.15"/>
<polygon fill="black" stroke="black" points="251.34,-26.25 259.22,-19.17 248.65,-19.79 251.34,-26.25"/>
</g>
</g>
</svg>
