<?xml version="1.0" encoding="UTF-8" standalone="no"?>
<!DOCTYPE svg PUBLIC "-//W3C//DTD SVG 1.1//EN"
 "http://www.w3.org/Graphics/SVG/1.1/DTD/svg11.dtd">
<!-- Generated by graphviz version 2.43.0 (0)
 -->
<!-- Title: opp Pages: 1 -->
<svg width="282pt" height="82pt"
 viewBox="0.00 0.00 282.00 82.00" xmlns="http://www.w3.org/2000/svg" xmlns:xlink="http://www.w3.org/1999/xlink">
<g id="graph0" class="graph" transform="scale(1 1) rotate(0) translate(4 78)">
<title>opp</title>
<polygon fill="transparent" stroke="transparent" points="-4,4 -4,-78 278,-78 278,4 -4,4"/>
<!-- PacketShaper -->
<g id="node1" class="node">
<title>PacketShaper</title>
<g id="a_node1"><a xlink:href="inet.queueing.shaper.PacketShaper.html" xlink:title="Compound Module PacketShaper" target="_parent">
<polygon fill="#fff700" stroke="black" points="175,-74 93,-74 93,-55 175,-55 175,-74"/>
<text text-anchor="middle" x="134" y="-62" font-family="Helvetica,sans-Serif" font-size="10.00">PacketShaper</text>
</a>
</g>
</g>
<!-- IPacketGate -->
<g id="node2" class="node">
<title>IPacketGate</title>
<g id="a_node2"><a xlink:href="inet.queueing.contract.IPacketGate.html" xlink:title="Module Interface IPacketGate" target="_parent">
<polygon fill="#fffcaf" stroke="black" stroke-dasharray="5,2" points="74,-19 0,-19 0,0 74,0 74,-19"/>
<text text-anchor="middle" x="37" y="-7" font-family="Helvetica,sans-Serif" font-size="10.00">IPacketGate</text>
</a>
</g>
</g>
<!-- PacketShaper&#45;&gt;IPacketGate -->
<g id="edge1" class="edge">
<title>PacketShaper&#45;&gt;IPacketGate</title>
<path fill="none" stroke="black" d="M118.42,-54.98C103.23,-46.69 79.9,-33.94 62.1,-24.22"/>
<polygon fill="black" stroke="black" points="63.32,-20.89 52.87,-19.17 59.97,-27.04 63.32,-20.89"/>
</g>
<!-- IPacketQueue -->
<g id="node3" class="node">
<title>IPacketQueue</title>
<g id="a_node3"><a xlink:href="inet.queueing.contract.IPacketQueue.html" xlink:title="Module Interface IPacketQueue" target="_parent">
<polygon fill="#fffcaf" stroke="black" stroke-dasharray="5,2" points="175.5,-19 92.5,-19 92.5,0 175.5,0 175.5,-19"/>
<text text-anchor="middle" x="134" y="-7" font-family="Helvetica,sans-Serif" font-size="10.00">IPacketQueue</text>
</a>
</g>
</g>
<!-- PacketShaper&#45;&gt;IPacketQueue -->
<g id="edge2" class="edge">
<title>PacketShaper&#45;&gt;IPacketQueue</title>
<path fill="none" stroke="black" d="M134,-54.75C134,-47.8 134,-37.85 134,-29.13"/>
<polygon fill="black" stroke="black" points="137.5,-29.09 134,-19.09 130.5,-29.09 137.5,-29.09"/>
</g>
<!-- IdealChannel -->
<g id="node4" class="node">
<title>IdealChannel</title>
<g id="a_node4"><a xlink:href="ned.IdealChannel.html" xlink:title="Channel IdealChannel" target="_parent">
<polygon fill="#d0ffd0" stroke="black" points="274,-19 194,-19 194,0 274,0 274,-19"/>
<text text-anchor="middle" x="234" y="-7" font-family="Helvetica,sans-Serif" font-size="10.00">IdealChannel</text>
</a>
</g>
</g>
<!-- PacketShaper&#45;&gt;IdealChannel -->
<g id="edge3" class="edge">
<title>PacketShaper&#45;&gt;IdealChannel</title>
<path fill="none" stroke="black" d="M150.07,-54.98C165.86,-46.61 190.22,-33.7 208.63,-23.95"/>
<polygon fill="black" stroke="black" points="210.44,-26.95 217.64,-19.17 207.17,-20.76 210.44,-26.95"/>
</g>
</g>
</svg>
