<?xml version="1.0" encoding="UTF-8" standalone="no"?>
<!DOCTYPE svg PUBLIC "-//W3C//DTD SVG 1.1//EN"
 "http://www.w3.org/Graphics/SVG/1.1/DTD/svg11.dtd">
<!-- Generated by graphviz version 2.43.0 (0)
 -->
<!-- Title: opp Pages: 1 -->
<svg width="324pt" height="82pt"
 viewBox="0.00 0.00 324.00 82.00" xmlns="http://www.w3.org/2000/svg" xmlns:xlink="http://www.w3.org/1999/xlink">
<g id="graph0" class="graph" transform="scale(1 1) rotate(0) translate(4 78)">
<title>opp</title>
<polygon fill="transparent" stroke="transparent" points="-4,4 -4,-78 320,-78 320,4 -4,4"/>
<!-- ITrafficConditionerLayer -->
<g id="node1" class="node">
<title>ITrafficConditionerLayer</title>
<g id="a_node1"><a xlink:href="inet.protocolelement.trafficconditioner.ITrafficConditionerLayer.html" xlink:title="Module Interface ITrafficConditionerLayer" target="_parent">
<polygon fill="#fff700" stroke="black" stroke-dasharray="5,2" points="233.5,-74 101.5,-74 101.5,-55 233.5,-55 233.5,-74"/>
<text text-anchor="middle" x="167.5" y="-62" font-family="Helvetica,sans-Serif" font-size="10.00">ITrafficConditionerLayer</text>
</a>
</g>
</g>
<!-- OmittedTrafficConditionerLayer -->
<g id="node2" class="node">
<title>OmittedTrafficConditionerLayer</title>
<g id="a_node2"><a xlink:href="inet.protocolelement.trafficconditioner.OmittedTrafficConditionerLayer.html" xlink:title="Compound Module OmittedTrafficConditionerLayer" target="_parent">
<polygon fill="#fffcaf" stroke="black" points="169,-19 0,-19 0,0 169,0 169,-19"/>
<text text-anchor="middle" x="84.5" y="-7" font-family="Helvetica,sans-Serif" font-size="10.00">OmittedTrafficConditionerLayer</text>
</a>
</g>
</g>
<!-- ITrafficConditionerLayer&#45;&gt;OmittedTrafficConditionerLayer -->
<g id="edge1" class="edge">
<title>ITrafficConditionerLayer&#45;&gt;OmittedTrafficConditionerLayer</title>
<path fill="none" stroke="black" stroke-dasharray="5,2" d="M154.16,-54.98C138.77,-45.15 113.58,-29.07 98.08,-19.17"/>
</g>
<!-- TrafficConditionerLayer -->
<g id="node3" class="node">
<title>TrafficConditionerLayer</title>
<g id="a_node3"><a xlink:href="inet.protocolelement.trafficconditioner.TrafficConditionerLayer.html" xlink:title="Compound Module TrafficConditionerLayer" target="_parent">
<polygon fill="#fffcaf" stroke="black" points="316,-19 187,-19 187,0 316,0 316,-19"/>
<text text-anchor="middle" x="251.5" y="-7" font-family="Helvetica,sans-Serif" font-size="10.00">TrafficConditionerLayer</text>
</a>
</g>
</g>
<!-- ITrafficConditionerLayer&#45;&gt;TrafficConditionerLayer -->
<g id="edge2" class="edge">
<title>ITrafficConditionerLayer&#45;&gt;TrafficConditionerLayer</title>
<path fill="none" stroke="black" stroke-dasharray="5,2" d="M181,-54.98C196.58,-45.15 222.07,-29.07 237.76,-19.17"/>
</g>
</g>
</svg>
