<?xml version="1.0" encoding="UTF-8" standalone="no"?>
<!DOCTYPE svg PUBLIC "-//W3C//DTD SVG 1.1//EN"
 "http://www.w3.org/Graphics/SVG/1.1/DTD/svg11.dtd">
<!-- Generated by graphviz version 2.43.0 (0)
 -->
<!-- Title: opp Pages: 1 -->
<svg width="236pt" height="137pt"
 viewBox="0.00 0.00 236.00 137.00" xmlns="http://www.w3.org/2000/svg" xmlns:xlink="http://www.w3.org/1999/xlink">
<g id="graph0" class="graph" transform="scale(1 1) rotate(0) translate(4 133)">
<title>opp</title>
<polygon fill="transparent" stroke="transparent" points="-4,4 -4,-133 232,-133 232,4 -4,4"/>
<!-- IEpEnergySink -->
<g id="node1" class="node">
<title>IEpEnergySink</title>
<g id="a_node1"><a xlink:href="inet.power.contract.IEpEnergySink.html" xlink:title="Module Interface IEpEnergySink" target="_parent">
<polygon fill="#fff700" stroke="black" stroke-dasharray="5,2" points="157.5,-74 71.5,-74 71.5,-55 157.5,-55 157.5,-74"/>
<text text-anchor="middle" x="114.5" y="-62" font-family="Helvetica,sans-Serif" font-size="10.00">IEpEnergySink</text>
</a>
</g>
</g>
<!-- EpEnergySinkBase -->
<g id="node3" class="node">
<title>EpEnergySinkBase</title>
<g id="a_node3"><a xlink:href="inet.power.base.EpEnergySinkBase.html" xlink:title="Simple Module EpEnergySinkBase" target="_parent">
<polygon fill="#fffcaf" stroke="black" points="107,-19 0,-19 0,0 107,0 107,-19"/>
<text text-anchor="middle" x="53.5" y="-7" font-family="Helvetica,sans-Serif" font-size="10.00">EpEnergySinkBase</text>
</a>
</g>
</g>
<!-- IEpEnergySink&#45;&gt;EpEnergySinkBase -->
<g id="edge2" class="edge">
<title>IEpEnergySink&#45;&gt;EpEnergySinkBase</title>
<path fill="none" stroke="black" stroke-dasharray="5,2" d="M104.7,-54.98C93.38,-45.15 74.87,-29.07 63.48,-19.17"/>
</g>
<!-- IEpEnergyStorage -->
<g id="node4" class="node">
<title>IEpEnergyStorage</title>
<g id="a_node4"><a xlink:href="inet.power.contract.IEpEnergyStorage.html" xlink:title="Module Interface IEpEnergyStorage" target="_parent">
<polygon fill="#fffcaf" stroke="black" stroke-dasharray="5,2" points="228,-19 125,-19 125,0 228,0 228,-19"/>
<text text-anchor="middle" x="176.5" y="-7" font-family="Helvetica,sans-Serif" font-size="10.00">IEpEnergyStorage</text>
</a>
</g>
</g>
<!-- IEpEnergySink&#45;&gt;IEpEnergyStorage -->
<g id="edge3" class="edge">
<title>IEpEnergySink&#45;&gt;IEpEnergyStorage</title>
<path fill="none" stroke="black" d="M124.46,-54.98C135.96,-45.15 154.78,-29.07 166.36,-19.17"/>
</g>
<!-- IEnergySink -->
<g id="node2" class="node">
<title>IEnergySink</title>
<g id="a_node2"><a xlink:href="inet.power.contract.IEnergySink.html" xlink:title="Module Interface IEnergySink" target="_parent">
<polygon fill="#fffcaf" stroke="black" stroke-dasharray="5,2" points="151.5,-129 77.5,-129 77.5,-110 151.5,-110 151.5,-129"/>
<text text-anchor="middle" x="114.5" y="-117" font-family="Helvetica,sans-Serif" font-size="10.00">IEnergySink</text>
</a>
</g>
</g>
<!-- IEnergySink&#45;&gt;IEpEnergySink -->
<g id="edge1" class="edge">
<title>IEnergySink&#45;&gt;IEpEnergySink</title>
<path fill="none" stroke="black" d="M114.5,-109.75C114.5,-99.87 114.5,-83.9 114.5,-74.09"/>
</g>
</g>
</svg>
