<?xml version="1.0" encoding="UTF-8" standalone="no"?>
<!DOCTYPE svg PUBLIC "-//W3C//DTD SVG 1.1//EN"
 "http://www.w3.org/Graphics/SVG/1.1/DTD/svg11.dtd">
<!-- Generated by graphviz version 2.43.0 (0)
 -->
<!-- Title: opp Pages: 1 -->
<svg width="253pt" height="137pt"
 viewBox="0.00 0.00 253.00 137.00" xmlns="http://www.w3.org/2000/svg" xmlns:xlink="http://www.w3.org/1999/xlink">
<g id="graph0" class="graph" transform="scale(1 1) rotate(0) translate(4 133)">
<title>opp</title>
<polygon fill="transparent" stroke="transparent" points="-4,4 -4,-133 249,-133 249,4 -4,4"/>
<!-- PacketClassifier -->
<g id="node1" class="node">
<title>PacketClassifier</title>
<g id="a_node1"><a xlink:href="inet.queueing.classifier.PacketClassifier.html" xlink:title="Simple Module PacketClassifier" target="_parent">
<polygon fill="#fff700" stroke="black" points="167,-74 74,-74 74,-55 167,-55 167,-74"/>
<text text-anchor="middle" x="120.5" y="-62" font-family="Helvetica,sans-Serif" font-size="10.00">PacketClassifier</text>
</a>
</g>
</g>
<!-- DynamicClassifier -->
<g id="node4" class="node">
<title>DynamicClassifier</title>
<g id="a_node4"><a xlink:href="inet.queueing.classifier.DynamicClassifier.html" xlink:title="Simple Module DynamicClassifier" target="_parent">
<polygon fill="#fffcaf" stroke="black" points="108,-19 3,-19 3,0 108,0 108,-19"/>
<text text-anchor="middle" x="55.5" y="-7" font-family="Helvetica,sans-Serif" font-size="10.00">DynamicClassifier</text>
</a>
</g>
</g>
<!-- PacketClassifier&#45;&gt;DynamicClassifier -->
<g id="edge3" class="edge">
<title>PacketClassifier&#45;&gt;DynamicClassifier</title>
<path fill="none" stroke="black" d="M110.06,-54.98C98,-45.15 78.27,-29.07 66.13,-19.17"/>
</g>
<!-- UserPriorityClassifier -->
<g id="node5" class="node">
<title>UserPriorityClassifier</title>
<g id="a_node5"><a xlink:href="inet.queueing.classifier.UserPriorityClassifier.html" xlink:title="Simple Module UserPriorityClassifier" target="_parent">
<polygon fill="#fffcaf" stroke="black" points="245,-19 126,-19 126,0 245,0 245,-19"/>
<text text-anchor="middle" x="185.5" y="-7" font-family="Helvetica,sans-Serif" font-size="10.00">UserPriorityClassifier</text>
</a>
</g>
</g>
<!-- PacketClassifier&#45;&gt;UserPriorityClassifier -->
<g id="edge4" class="edge">
<title>PacketClassifier&#45;&gt;UserPriorityClassifier</title>
<path fill="none" stroke="black" d="M130.94,-54.98C143,-45.15 162.73,-29.07 174.87,-19.17"/>
</g>
<!-- PacketClassifierBase -->
<g id="node2" class="node">
<title>PacketClassifierBase</title>
<g id="a_node2"><a xlink:href="inet.queueing.base.PacketClassifierBase.html" xlink:title="Simple Module PacketClassifierBase" target="_parent">
<polygon fill="#fffcaf" stroke="black" points="117,-129 0,-129 0,-110 117,-110 117,-129"/>
<text text-anchor="middle" x="58.5" y="-117" font-family="Helvetica,sans-Serif" font-size="10.00">PacketClassifierBase</text>
</a>
</g>
</g>
<!-- PacketClassifierBase&#45;&gt;PacketClassifier -->
<g id="edge1" class="edge">
<title>PacketClassifierBase&#45;&gt;PacketClassifier</title>
<path fill="none" stroke="black" d="M68.46,-109.98C79.96,-100.15 98.78,-84.07 110.36,-74.17"/>
</g>
<!-- IPacketClassifier -->
<g id="node3" class="node">
<title>IPacketClassifier</title>
<g id="a_node3"><a xlink:href="inet.queueing.contract.IPacketClassifier.html" xlink:title="Module Interface IPacketClassifier" target="_parent">
<polygon fill="#fffcaf" stroke="black" stroke-dasharray="5,2" points="231.5,-129 135.5,-129 135.5,-110 231.5,-110 231.5,-129"/>
<text text-anchor="middle" x="183.5" y="-117" font-family="Helvetica,sans-Serif" font-size="10.00">IPacketClassifier</text>
</a>
</g>
</g>
<!-- IPacketClassifier&#45;&gt;PacketClassifier -->
<g id="edge2" class="edge">
<title>IPacketClassifier&#45;&gt;PacketClassifier</title>
<path fill="none" stroke="black" stroke-dasharray="5,2" d="M173.38,-109.98C161.69,-100.15 142.57,-84.07 130.81,-74.17"/>
</g>
</g>
</svg>
