<?xml version="1.0" encoding="UTF-8" standalone="no"?>
<!DOCTYPE svg PUBLIC "-//W3C//DTD SVG 1.1//EN"
 "http://www.w3.org/Graphics/SVG/1.1/DTD/svg11.dtd">
<!-- Generated by graphviz version 2.43.0 (0)
 -->
<!-- Title: opp Pages: 1 -->
<svg width="506pt" height="82pt"
 viewBox="0.00 0.00 505.50 82.00" xmlns="http://www.w3.org/2000/svg" xmlns:xlink="http://www.w3.org/1999/xlink">
<g id="graph0" class="graph" transform="scale(1 1) rotate(0) translate(4 78)">
<title>opp</title>
<polygon fill="transparent" stroke="transparent" points="-4,4 -4,-78 501.5,-78 501.5,4 -4,4"/>
<!-- CoexistenceShowcase -->
<g id="node1" class="node">
<title>CoexistenceShowcase</title>
<g id="a_node1"><a xlink:href="inet.showcases.wireless.coexistence.CoexistenceShowcase.html" xlink:title="Network CoexistenceShowcase" target="_parent">
<polygon fill="#9090ff" stroke="black" points="362,-74 237,-74 237,-55 362,-55 362,-74"/>
<text text-anchor="middle" x="299.5" y="-62" font-family="Helvetica,sans-Serif" font-size="10.00">CoexistenceShowcase</text>
</a>
</g>
</g>
<!-- IntegratedCanvasVisualizer -->
<g id="node2" class="node">
<title>IntegratedCanvasVisualizer</title>
<g id="a_node2"><a xlink:href="inet.visualizer.canvas.integrated.IntegratedCanvasVisualizer.html" xlink:title="Compound Module IntegratedCanvasVisualizer" target="_parent">
<polygon fill="#fffcaf" stroke="black" points="151,-19 0,-19 0,0 151,0 151,-19"/>
<text text-anchor="middle" x="75.5" y="-7" font-family="Helvetica,sans-Serif" font-size="10.00">IntegratedCanvasVisualizer</text>
</a>
</g>
</g>
<!-- CoexistenceShowcase&#45;&gt;IntegratedCanvasVisualizer -->
<g id="edge1" class="edge">
<title>CoexistenceShowcase&#45;&gt;IntegratedCanvasVisualizer</title>
<path fill="none" stroke="black" d="M263.51,-54.98C225.01,-45.87 163.81,-31.4 121.76,-21.45"/>
<polygon fill="black" stroke="black" points="122.31,-17.98 111.77,-19.08 120.7,-24.79 122.31,-17.98"/>
</g>
<!-- Ipv4NetworkConfigurator -->
<g id="node3" class="node">
<title>Ipv4NetworkConfigurator</title>
<g id="a_node3"><a xlink:href="inet.networklayer.configurator.ipv4.Ipv4NetworkConfigurator.html" xlink:title="Simple Module Ipv4NetworkConfigurator" target="_parent">
<polygon fill="#fffcaf" stroke="black" points="308,-19 169,-19 169,0 308,0 308,-19"/>
<text text-anchor="middle" x="238.5" y="-7" font-family="Helvetica,sans-Serif" font-size="10.00">Ipv4NetworkConfigurator</text>
</a>
</g>
</g>
<!-- CoexistenceShowcase&#45;&gt;Ipv4NetworkConfigurator -->
<g id="edge2" class="edge">
<title>CoexistenceShowcase&#45;&gt;Ipv4NetworkConfigurator</title>
<path fill="none" stroke="black" d="M289.7,-54.98C280.68,-47.15 267.09,-35.34 256.18,-25.86"/>
<polygon fill="black" stroke="black" points="258.32,-23.09 248.48,-19.17 253.73,-28.37 258.32,-23.09"/>
</g>
<!-- AdhocHost -->
<g id="node4" class="node">
<title>AdhocHost</title>
<g id="a_node4"><a xlink:href="inet.node.inet.AdhocHost.html" xlink:title="Compound Module AdhocHost" target="_parent">
<polygon fill="#fffcaf" stroke="black" points="395,-19 326,-19 326,0 395,0 395,-19"/>
<text text-anchor="middle" x="360.5" y="-7" font-family="Helvetica,sans-Serif" font-size="10.00">AdhocHost</text>
</a>
</g>
</g>
<!-- CoexistenceShowcase&#45;&gt;AdhocHost -->
<g id="edge3" class="edge">
<title>CoexistenceShowcase&#45;&gt;AdhocHost</title>
<path fill="none" stroke="black" d="M309.3,-54.98C318.32,-47.15 331.91,-35.34 342.82,-25.86"/>
<polygon fill="black" stroke="black" points="345.27,-28.37 350.52,-19.17 340.68,-23.09 345.27,-28.37"/>
</g>
<!-- RadioMedium -->
<g id="node5" class="node">
<title>RadioMedium</title>
<g id="a_node5"><a xlink:href="inet.physicallayer.wireless.common.medium.RadioMedium.html" xlink:title="Compound Module RadioMedium" target="_parent">
<polygon fill="#fffcaf" stroke="black" points="497.5,-19 413.5,-19 413.5,0 497.5,0 497.5,-19"/>
<text text-anchor="middle" x="455.5" y="-7" font-family="Helvetica,sans-Serif" font-size="10.00">RadioMedium</text>
</a>
</g>
</g>
<!-- CoexistenceShowcase&#45;&gt;RadioMedium -->
<g id="edge4" class="edge">
<title>CoexistenceShowcase&#45;&gt;RadioMedium</title>
<path fill="none" stroke="black" d="M324.56,-54.98C350.53,-46.16 391.31,-32.31 420.46,-22.41"/>
<polygon fill="black" stroke="black" points="421.9,-25.61 430.24,-19.08 419.65,-18.99 421.9,-25.61"/>
</g>
</g>
</svg>
