<?xml version="1.0" encoding="UTF-8" standalone="no"?>
<!DOCTYPE svg PUBLIC "-//W3C//DTD SVG 1.1//EN"
 "http://www.w3.org/Graphics/SVG/1.1/DTD/svg11.dtd">
<!-- Generated by graphviz version 2.43.0 (0)
 -->
<!-- Title: opp Pages: 1 -->
<svg width="292pt" height="82pt"
 viewBox="0.00 0.00 291.50 82.00" xmlns="http://www.w3.org/2000/svg" xmlns:xlink="http://www.w3.org/1999/xlink">
<g id="graph0" class="graph" transform="scale(1 1) rotate(0) translate(4 78)">
<title>opp</title>
<polygon fill="transparent" stroke="transparent" points="-4,4 -4,-78 287.5,-78 287.5,4 -4,4"/>
<!-- Hierarchical -->
<g id="node1" class="node">
<title>Hierarchical</title>
<g id="a_node1"><a xlink:href="inet.examples.inet.hierarchical.Hierarchical.html" xlink:title="Network Hierarchical" target="_parent">
<polygon fill="#9090ff" stroke="black" points="222,-74 147,-74 147,-55 222,-55 222,-74"/>
<text text-anchor="middle" x="184.5" y="-62" font-family="Helvetica,sans-Serif" font-size="10.00">Hierarchical</text>
</a>
</g>
</g>
<!-- Ipv4NetworkConfigurator -->
<g id="node2" class="node">
<title>Ipv4NetworkConfigurator</title>
<g id="a_node2"><a xlink:href="inet.networklayer.configurator.ipv4.Ipv4NetworkConfigurator.html" xlink:title="Simple Module Ipv4NetworkConfigurator" target="_parent">
<polygon fill="#fffcaf" stroke="black" points="139,-19 0,-19 0,0 139,0 139,-19"/>
<text text-anchor="middle" x="69.5" y="-7" font-family="Helvetica,sans-Serif" font-size="10.00">Ipv4NetworkConfigurator</text>
</a>
</g>
</g>
<!-- Hierarchical&#45;&gt;Ipv4NetworkConfigurator -->
<g id="edge1" class="edge">
<title>Hierarchical&#45;&gt;Ipv4NetworkConfigurator</title>
<path fill="none" stroke="black" d="M166.02,-54.98C147.52,-46.46 118.82,-33.23 97.52,-23.41"/>
<polygon fill="black" stroke="black" points="98.86,-20.18 88.31,-19.17 95.93,-26.53 98.86,-20.18"/>
</g>
<!-- Router -->
<g id="node3" class="node">
<title>Router</title>
<g id="a_node3"><a xlink:href="inet.node.inet.Router.html" xlink:title="Compound Module Router" target="_parent">
<polygon fill="#fffcaf" stroke="black" points="211.5,-19 157.5,-19 157.5,0 211.5,0 211.5,-19"/>
<text text-anchor="middle" x="184.5" y="-7" font-family="Helvetica,sans-Serif" font-size="10.00">Router</text>
</a>
</g>
</g>
<!-- Hierarchical&#45;&gt;Router -->
<g id="edge2" class="edge">
<title>Hierarchical&#45;&gt;Router</title>
<path fill="none" stroke="black" d="M184.5,-54.75C184.5,-47.8 184.5,-37.85 184.5,-29.13"/>
<polygon fill="black" stroke="black" points="188,-29.09 184.5,-19.09 181,-29.09 188,-29.09"/>
</g>
<!-- Area -->
<g id="node4" class="node">
<title>Area</title>
<g id="a_node4"><a xlink:href="inet.examples.inet.hierarchical.Hierarchical.Area.html" xlink:title="Compound Module Area" target="_parent">
<polygon fill="#fffcaf" stroke="black" points="283.5,-19 229.5,-19 229.5,0 283.5,0 283.5,-19"/>
<text text-anchor="middle" x="256.5" y="-7" font-family="Helvetica,sans-Serif" font-size="10.00">Area</text>
</a>
</g>
</g>
<!-- Hierarchical&#45;&gt;Area -->
<g id="edge3" class="edge">
<title>Hierarchical&#45;&gt;Area</title>
<path fill="none" stroke="black" d="M196.07,-54.98C206.92,-47 223.38,-34.88 236.38,-25.31"/>
<polygon fill="black" stroke="black" points="238.74,-27.92 244.72,-19.17 234.59,-22.28 238.74,-27.92"/>
</g>
</g>
</svg>
