<?xml version="1.0" encoding="UTF-8" standalone="no"?>
<!DOCTYPE svg PUBLIC "-//W3C//DTD SVG 1.1//EN"
 "http://www.w3.org/Graphics/SVG/1.1/DTD/svg11.dtd">
<!-- Generated by graphviz version 2.43.0 (0)
 -->
<!-- Title: opp Pages: 1 -->
<svg width="1677pt" height="82pt"
 viewBox="0.00 0.00 1677.00 82.00" xmlns="http://www.w3.org/2000/svg" xmlns:xlink="http://www.w3.org/1999/xlink">
<g id="graph0" class="graph" transform="scale(1 1) rotate(0) translate(4 78)">
<title>opp</title>
<polygon fill="transparent" stroke="transparent" points="-4,4 -4,-78 1673,-78 1673,4 -4,4"/>
<!-- IProtocolLayer -->
<g id="node1" class="node">
<title>IProtocolLayer</title>
<g id="a_node1"><a xlink:href="inet.protocolelement.contract.IProtocolLayer.html" xlink:title="Module Interface IProtocolLayer" target="_parent">
<polygon fill="#fff700" stroke="black" stroke-dasharray="5,2" points="884,-74 798,-74 798,-55 884,-55 884,-74"/>
<text text-anchor="middle" x="841" y="-62" font-family="Helvetica,sans-Serif" font-size="10.00">IProtocolLayer</text>
</a>
</g>
</g>
<!-- BridgingLayer -->
<g id="node2" class="node">
<title>BridgingLayer</title>
<g id="a_node2"><a xlink:href="inet.linklayer.ethernet.common.BridgingLayer.html" xlink:title="Compound Module BridgingLayer" target="_parent">
<polygon fill="#fffcaf" stroke="black" points="84,-19 0,-19 0,0 84,0 84,-19"/>
<text text-anchor="middle" x="42" y="-7" font-family="Helvetica,sans-Serif" font-size="10.00">BridgingLayer</text>
</a>
</g>
</g>
<!-- IProtocolLayer&#45;&gt;BridgingLayer -->
<g id="edge1" class="edge">
<title>IProtocolLayer&#45;&gt;BridgingLayer</title>
<path fill="none" stroke="black" stroke-dasharray="5,2" d="M797.86,-62.53C682.93,-59.6 359.95,-49.1 93,-19 90.15,-18.68 87.21,-18.3 84.25,-17.9"/>
</g>
<!-- DirectionReverserLayer -->
<g id="node3" class="node">
<title>DirectionReverserLayer</title>
<g id="a_node3"><a xlink:href="inet.linklayer.ethernet.common.DirectionReverserLayer.html" xlink:title="Compound Module DirectionReverserLayer" target="_parent">
<polygon fill="#fffcaf" stroke="black" points="233.5,-19 102.5,-19 102.5,0 233.5,0 233.5,-19"/>
<text text-anchor="middle" x="168" y="-7" font-family="Helvetica,sans-Serif" font-size="10.00">DirectionReverserLayer</text>
</a>
</g>
</g>
<!-- IProtocolLayer&#45;&gt;DirectionReverserLayer -->
<g id="edge2" class="edge">
<title>IProtocolLayer&#45;&gt;DirectionReverserLayer</title>
<path fill="none" stroke="black" stroke-dasharray="5,2" d="M797.73,-60.88C699.06,-54.79 449.89,-38.65 242,-19 239.3,-18.74 236.54,-18.47 233.75,-18.19"/>
</g>
<!-- InterfaceRelayLayer -->
<g id="node4" class="node">
<title>InterfaceRelayLayer</title>
<g id="a_node4"><a xlink:href="inet.linklayer.ethernet.common.InterfaceRelayLayer.html" xlink:title="Compound Module InterfaceRelayLayer" target="_parent">
<polygon fill="#fffcaf" stroke="black" points="366.5,-19 251.5,-19 251.5,0 366.5,0 366.5,-19"/>
<text text-anchor="middle" x="309" y="-7" font-family="Helvetica,sans-Serif" font-size="10.00">InterfaceRelayLayer</text>
</a>
</g>
</g>
<!-- IProtocolLayer&#45;&gt;InterfaceRelayLayer -->
<g id="edge3" class="edge">
<title>IProtocolLayer&#45;&gt;InterfaceRelayLayer</title>
<path fill="none" stroke="black" stroke-dasharray="5,2" d="M797.68,-59.8C715.42,-52.68 530.95,-36.24 376,-19 372.97,-18.66 369.86,-18.31 366.73,-17.94"/>
</g>
<!-- Mpls -->
<g id="node5" class="node">
<title>Mpls</title>
<g id="a_node5"><a xlink:href="inet.networklayer.mpls.Mpls.html" xlink:title="Simple Module Mpls" target="_parent">
<polygon fill="#fffcaf" stroke="black" points="439,-19 385,-19 385,0 439,0 439,-19"/>
<text text-anchor="middle" x="412" y="-7" font-family="Helvetica,sans-Serif" font-size="10.00">Mpls</text>
</a>
</g>
</g>
<!-- IProtocolLayer&#45;&gt;Mpls -->
<g id="edge4" class="edge">
<title>IProtocolLayer&#45;&gt;Mpls</title>
<path fill="none" stroke="black" stroke-dasharray="5,2" d="M797.73,-60.3C725.08,-54.54 574.16,-40.96 448,-19 445.09,-18.49 442.06,-17.89 439.06,-17.25"/>
</g>
<!-- OmittedProtocolLayer -->
<g id="node6" class="node">
<title>OmittedProtocolLayer</title>
<g id="a_node6"><a xlink:href="inet.protocolelement.common.OmittedProtocolLayer.html" xlink:title="Compound Module OmittedProtocolLayer" target="_parent">
<polygon fill="#fffcaf" stroke="black" points="580.5,-19 457.5,-19 457.5,0 580.5,0 580.5,-19"/>
<text text-anchor="middle" x="519" y="-7" font-family="Helvetica,sans-Serif" font-size="10.00">OmittedProtocolLayer</text>
</a>
</g>
</g>
<!-- IProtocolLayer&#45;&gt;OmittedProtocolLayer -->
<g id="edge5" class="edge">
<title>IProtocolLayer&#45;&gt;OmittedProtocolLayer</title>
<path fill="none" stroke="black" stroke-dasharray="5,2" d="M797.91,-56.41C739.13,-46.73 633.93,-29.42 570.89,-19.04"/>
</g>
<!-- StreamCoderLayer -->
<g id="node7" class="node">
<title>StreamCoderLayer</title>
<g id="a_node7"><a xlink:href="inet.protocolelement.redundancy.StreamCoderLayer.html" xlink:title="Compound Module StreamCoderLayer" target="_parent">
<polygon fill="#fffcaf" stroke="black" points="705.5,-19 598.5,-19 598.5,0 705.5,0 705.5,-19"/>
<text text-anchor="middle" x="652" y="-7" font-family="Helvetica,sans-Serif" font-size="10.00">StreamCoderLayer</text>
</a>
</g>
</g>
<!-- IProtocolLayer&#45;&gt;StreamCoderLayer -->
<g id="edge6" class="edge">
<title>IProtocolLayer&#45;&gt;StreamCoderLayer</title>
<path fill="none" stroke="black" stroke-dasharray="5,2" d="M810.63,-54.98C775.47,-45.12 717.87,-28.97 682.6,-19.08"/>
</g>
<!-- StreamFilterLayer -->
<g id="node8" class="node">
<title>StreamFilterLayer</title>
<g id="a_node8"><a xlink:href="inet.linklayer.ieee8021q.StreamFilterLayer.html" xlink:title="Compound Module StreamFilterLayer" target="_parent">
<polygon fill="#fffcaf" stroke="black" points="828,-19 724,-19 724,0 828,0 828,-19"/>
<text text-anchor="middle" x="776" y="-7" font-family="Helvetica,sans-Serif" font-size="10.00">StreamFilterLayer</text>
</a>
</g>
</g>
<!-- IProtocolLayer&#45;&gt;StreamFilterLayer -->
<g id="edge7" class="edge">
<title>IProtocolLayer&#45;&gt;StreamFilterLayer</title>
<path fill="none" stroke="black" stroke-dasharray="5,2" d="M830.56,-54.98C818.5,-45.15 798.77,-29.07 786.63,-19.17"/>
</g>
<!-- StreamIdentifierLayer -->
<g id="node9" class="node">
<title>StreamIdentifierLayer</title>
<g id="a_node9"><a xlink:href="inet.protocolelement.redundancy.StreamIdentifierLayer.html" xlink:title="Compound Module StreamIdentifierLayer" target="_parent">
<polygon fill="#fffcaf" stroke="black" points="968,-19 846,-19 846,0 968,0 968,-19"/>
<text text-anchor="middle" x="907" y="-7" font-family="Helvetica,sans-Serif" font-size="10.00">StreamIdentifierLayer</text>
</a>
</g>
</g>
<!-- IProtocolLayer&#45;&gt;StreamIdentifierLayer -->
<g id="edge8" class="edge">
<title>IProtocolLayer&#45;&gt;StreamIdentifierLayer</title>
<path fill="none" stroke="black" stroke-dasharray="5,2" d="M851.6,-54.98C863.85,-45.15 883.88,-29.07 896.2,-19.17"/>
</g>
<!-- StreamPolicyLayer -->
<g id="node10" class="node">
<title>StreamPolicyLayer</title>
<g id="a_node10"><a xlink:href="inet.linklayer.ieee8021q.StreamPolicyLayer.html" xlink:title="Compound Module StreamPolicyLayer" target="_parent">
<polygon fill="#fffcaf" stroke="black" points="1094,-19 986,-19 986,0 1094,0 1094,-19"/>
<text text-anchor="middle" x="1040" y="-7" font-family="Helvetica,sans-Serif" font-size="10.00">StreamPolicyLayer</text>
</a>
</g>
</g>
<!-- IProtocolLayer&#45;&gt;StreamPolicyLayer -->
<g id="edge9" class="edge">
<title>IProtocolLayer&#45;&gt;StreamPolicyLayer</title>
<path fill="none" stroke="black" stroke-dasharray="5,2" d="M872.97,-54.98C910,-45.12 970.64,-28.97 1007.78,-19.08"/>
</g>
<!-- StreamRelayLayer -->
<g id="node11" class="node">
<title>StreamRelayLayer</title>
<g id="a_node11"><a xlink:href="inet.protocolelement.redundancy.StreamRelayLayer.html" xlink:title="Compound Module StreamRelayLayer" target="_parent">
<polygon fill="#fffcaf" stroke="black" points="1219.5,-19 1112.5,-19 1112.5,0 1219.5,0 1219.5,-19"/>
<text text-anchor="middle" x="1166" y="-7" font-family="Helvetica,sans-Serif" font-size="10.00">StreamRelayLayer</text>
</a>
</g>
</g>
<!-- IProtocolLayer&#45;&gt;StreamRelayLayer -->
<g id="edge10" class="edge">
<title>IProtocolLayer&#45;&gt;StreamRelayLayer</title>
<path fill="none" stroke="black" stroke-dasharray="5,2" d="M884.16,-56.46C943.47,-46.79 1050.06,-29.41 1113.79,-19.01"/>
</g>
<!-- VlanPolicyLayer -->
<g id="node12" class="node">
<title>VlanPolicyLayer</title>
<g id="a_node12"><a xlink:href="inet.linklayer.vlan.VlanPolicyLayer.html" xlink:title="Compound Module VlanPolicyLayer" target="_parent">
<polygon fill="#fffcaf" stroke="black" points="1332.5,-19 1237.5,-19 1237.5,0 1332.5,0 1332.5,-19"/>
<text text-anchor="middle" x="1285" y="-7" font-family="Helvetica,sans-Serif" font-size="10.00">VlanPolicyLayer</text>
</a>
</g>
</g>
<!-- IProtocolLayer&#45;&gt;VlanPolicyLayer -->
<g id="edge11" class="edge">
<title>IProtocolLayer&#45;&gt;VlanPolicyLayer</title>
<path fill="none" stroke="black" stroke-dasharray="5,2" d="M884.13,-59.07C955.81,-51.6 1103.99,-35.65 1229,-19 1231.73,-18.64 1234.53,-18.25 1237.36,-17.85"/>
</g>
<!-- IIeee8021qLayer -->
<g id="node13" class="node">
<title>IIeee8021qLayer</title>
<g id="a_node13"><a xlink:href="inet.linklayer.ieee8021q.IIeee8021qLayer.html" xlink:title="Module Interface IIeee8021qLayer" target="_parent">
<polygon fill="#fffcaf" stroke="black" stroke-dasharray="5,2" points="1449,-19 1351,-19 1351,0 1449,0 1449,-19"/>
<text text-anchor="middle" x="1400" y="-7" font-family="Helvetica,sans-Serif" font-size="10.00">IIeee8021qLayer</text>
</a>
</g>
</g>
<!-- IProtocolLayer&#45;&gt;IIeee8021qLayer -->
<g id="edge12" class="edge">
<title>IProtocolLayer&#45;&gt;IIeee8021qLayer</title>
<path fill="none" stroke="black" d="M884.31,-60.49C971.24,-54.26 1173.1,-38.86 1342,-19 1344.93,-18.66 1347.94,-18.28 1350.98,-17.88"/>
</g>
<!-- IIeee8021rLayer -->
<g id="node14" class="node">
<title>IIeee8021rLayer</title>
<g id="a_node14"><a xlink:href="inet.linklayer.ieee8021r.IIeee8021rLayer.html" xlink:title="Module Interface IIeee8021rLayer" target="_parent">
<polygon fill="#fffcaf" stroke="black" stroke-dasharray="5,2" points="1562.5,-19 1467.5,-19 1467.5,0 1562.5,0 1562.5,-19"/>
<text text-anchor="middle" x="1515" y="-7" font-family="Helvetica,sans-Serif" font-size="10.00">IIeee8021rLayer</text>
</a>
</g>
</g>
<!-- IProtocolLayer&#45;&gt;IIeee8021rLayer -->
<g id="edge13" class="edge">
<title>IProtocolLayer&#45;&gt;IIeee8021rLayer</title>
<path fill="none" stroke="black" d="M884.11,-61.52C984.8,-56.65 1243.17,-42.73 1458,-19 1461.08,-18.66 1464.25,-18.28 1467.45,-17.87"/>
</g>
<!-- IMacRelayUnit -->
<g id="node15" class="node">
<title>IMacRelayUnit</title>
<g id="a_node15"><a xlink:href="inet.linklayer.contract.IMacRelayUnit.html" xlink:title="Module Interface IMacRelayUnit" target="_parent">
<polygon fill="#fffcaf" stroke="black" stroke-dasharray="5,2" points="1669,-19 1581,-19 1581,0 1669,0 1669,-19"/>
<text text-anchor="middle" x="1625" y="-7" font-family="Helvetica,sans-Serif" font-size="10.00">IMacRelayUnit</text>
</a>
</g>
</g>
<!-- IProtocolLayer&#45;&gt;IMacRelayUnit -->
<g id="edge14" class="edge">
<title>IProtocolLayer&#45;&gt;IMacRelayUnit</title>
<path fill="none" stroke="black" d="M884.38,-62.35C997.73,-59.01 1311.98,-47.7 1572,-19 1574.87,-18.68 1577.82,-18.32 1580.8,-17.92"/>
</g>
</g>
</svg>
