<?xml version="1.0" encoding="UTF-8" standalone="no"?>
<!DOCTYPE svg PUBLIC "-//W3C//DTD SVG 1.1//EN"
 "http://www.w3.org/Graphics/SVG/1.1/DTD/svg11.dtd">
<!-- Generated by graphviz version 2.43.0 (0)
 -->
<!-- Title: opp Pages: 1 -->
<svg width="509pt" height="137pt"
 viewBox="0.00 0.00 508.50 137.00" xmlns="http://www.w3.org/2000/svg" xmlns:xlink="http://www.w3.org/1999/xlink">
<g id="graph0" class="graph" transform="scale(1 1) rotate(0) translate(4 133)">
<title>opp</title>
<polygon fill="transparent" stroke="transparent" points="-4,4 -4,-133 504.5,-133 504.5,4 -4,4"/>
<!-- FlatRadioBase -->
<g id="node1" class="node">
<title>FlatRadioBase</title>
<g id="a_node1"><a xlink:href="inet.physicallayer.wireless.common.base.packetlevel.FlatRadioBase.html" xlink:title="Compound Module FlatRadioBase" target="_parent">
<polygon fill="#fff700" stroke="black" points="253.5,-74 166.5,-74 166.5,-55 253.5,-55 253.5,-74"/>
<text text-anchor="middle" x="210" y="-62" font-family="Helvetica,sans-Serif" font-size="10.00">FlatRadioBase</text>
</a>
</g>
</g>
<!-- ApskRadio -->
<g id="node3" class="node">
<title>ApskRadio</title>
<g id="a_node3"><a xlink:href="inet.physicallayer.wireless.apsk.packetlevel.ApskRadio.html" xlink:title="Compound Module ApskRadio" target="_parent">
<polygon fill="#fffcaf" stroke="black" points="68,-19 0,-19 0,0 68,0 68,-19"/>
<text text-anchor="middle" x="34" y="-7" font-family="Helvetica,sans-Serif" font-size="10.00">ApskRadio</text>
</a>
</g>
</g>
<!-- FlatRadioBase&#45;&gt;ApskRadio -->
<g id="edge2" class="edge">
<title>FlatRadioBase&#45;&gt;ApskRadio</title>
<path fill="none" stroke="black" d="M181.72,-54.98C148.98,-45.12 95.34,-28.97 62.5,-19.08"/>
</g>
<!-- Ieee80211OfdmRadio -->
<g id="node4" class="node">
<title>Ieee80211OfdmRadio</title>
<g id="a_node4"><a xlink:href="inet.physicallayer.wireless.ieee80211.bitlevel.Ieee80211OfdmRadio.html" xlink:title="Compound Module Ieee80211OfdmRadio" target="_parent">
<polygon fill="#fffcaf" stroke="black" points="208,-19 86,-19 86,0 208,0 208,-19"/>
<text text-anchor="middle" x="147" y="-7" font-family="Helvetica,sans-Serif" font-size="10.00">Ieee80211OfdmRadio</text>
</a>
</g>
</g>
<!-- FlatRadioBase&#45;&gt;Ieee80211OfdmRadio -->
<g id="edge3" class="edge">
<title>FlatRadioBase&#45;&gt;Ieee80211OfdmRadio</title>
<path fill="none" stroke="black" d="M199.88,-54.98C188.19,-45.15 169.07,-29.07 157.31,-19.17"/>
</g>
<!-- Ieee80211Radio -->
<g id="node5" class="node">
<title>Ieee80211Radio</title>
<g id="a_node5"><a xlink:href="inet.physicallayer.wireless.ieee80211.packetlevel.Ieee80211Radio.html" xlink:title="Compound Module Ieee80211Radio" target="_parent">
<polygon fill="#fffcaf" stroke="black" points="321.5,-19 226.5,-19 226.5,0 321.5,0 321.5,-19"/>
<text text-anchor="middle" x="274" y="-7" font-family="Helvetica,sans-Serif" font-size="10.00">Ieee80211Radio</text>
</a>
</g>
</g>
<!-- FlatRadioBase&#45;&gt;Ieee80211Radio -->
<g id="edge4" class="edge">
<title>FlatRadioBase&#45;&gt;Ieee80211Radio</title>
<path fill="none" stroke="black" d="M220.28,-54.98C232.16,-45.15 251.58,-29.07 263.53,-19.17"/>
</g>
<!-- Ieee802154NarrowbandRadio -->
<g id="node6" class="node">
<title>Ieee802154NarrowbandRadio</title>
<g id="a_node6"><a xlink:href="inet.physicallayer.wireless.ieee802154.packetlevel.Ieee802154NarrowbandRadio.html" xlink:title="Compound Module Ieee802154NarrowbandRadio" target="_parent">
<polygon fill="#fffcaf" stroke="black" points="500.5,-19 339.5,-19 339.5,0 500.5,0 500.5,-19"/>
<text text-anchor="middle" x="420" y="-7" font-family="Helvetica,sans-Serif" font-size="10.00">Ieee802154NarrowbandRadio</text>
</a>
</g>
</g>
<!-- FlatRadioBase&#45;&gt;Ieee802154NarrowbandRadio -->
<g id="edge5" class="edge">
<title>FlatRadioBase&#45;&gt;Ieee802154NarrowbandRadio</title>
<path fill="none" stroke="black" d="M243.74,-54.98C282.81,-45.12 346.81,-28.97 386,-19.08"/>
</g>
<!-- NarrowbandRadioBase -->
<g id="node2" class="node">
<title>NarrowbandRadioBase</title>
<g id="a_node2"><a xlink:href="inet.physicallayer.wireless.common.base.packetlevel.NarrowbandRadioBase.html" xlink:title="Compound Module NarrowbandRadioBase" target="_parent">
<polygon fill="#fffcaf" stroke="black" points="274,-129 146,-129 146,-110 274,-110 274,-129"/>
<text text-anchor="middle" x="210" y="-117" font-family="Helvetica,sans-Serif" font-size="10.00">NarrowbandRadioBase</text>
</a>
</g>
</g>
<!-- NarrowbandRadioBase&#45;&gt;FlatRadioBase -->
<g id="edge1" class="edge">
<title>NarrowbandRadioBase&#45;&gt;FlatRadioBase</title>
<path fill="none" stroke="black" d="M210,-109.75C210,-99.87 210,-83.9 210,-74.09"/>
</g>
</g>
</svg>
