<?xml version="1.0" encoding="UTF-8" standalone="no"?>
<!DOCTYPE svg PUBLIC "-//W3C//DTD SVG 1.1//EN"
 "http://www.w3.org/Graphics/SVG/1.1/DTD/svg11.dtd">
<!-- Generated by graphviz version 2.43.0 (0)
 -->
<!-- Title: opp Pages: 1 -->
<svg width="588pt" height="82pt"
 viewBox="0.00 0.00 587.50 82.00" xmlns="http://www.w3.org/2000/svg" xmlns:xlink="http://www.w3.org/1999/xlink">
<g id="graph0" class="graph" transform="scale(1 1) rotate(0) translate(4 78)">
<title>opp</title>
<polygon fill="transparent" stroke="transparent" points="-4,4 -4,-78 583.5,-78 583.5,4 -4,4"/>
<!-- LabelerTutorialStep -->
<g id="node1" class="node">
<title>LabelerTutorialStep</title>
<g id="a_node1"><a xlink:href="inet.tutorials.queueing.LabelerTutorialStep.html" xlink:title="Network LabelerTutorialStep" target="_parent">
<polygon fill="#9090ff" stroke="black" points="325,-74 215,-74 215,-55 325,-55 325,-74"/>
<text text-anchor="middle" x="270" y="-62" font-family="Helvetica,sans-Serif" font-size="10.00">LabelerTutorialStep</text>
</a>
</g>
</g>
<!-- LabelClassifier -->
<g id="node2" class="node">
<title>LabelClassifier</title>
<g id="a_node2"><a xlink:href="inet.queueing.classifier.LabelClassifier.html" xlink:title="Simple Module LabelClassifier" target="_parent">
<polygon fill="#fffcaf" stroke="black" points="88,-19 0,-19 0,0 88,0 88,-19"/>
<text text-anchor="middle" x="44" y="-7" font-family="Helvetica,sans-Serif" font-size="10.00">LabelClassifier</text>
</a>
</g>
</g>
<!-- LabelerTutorialStep&#45;&gt;LabelClassifier -->
<g id="edge1" class="edge">
<title>LabelerTutorialStep&#45;&gt;LabelClassifier</title>
<path fill="none" stroke="black" d="M233.69,-54.98C194.76,-45.86 132.84,-31.33 90.4,-21.38"/>
<polygon fill="black" stroke="black" points="91.13,-17.96 80.6,-19.08 89.53,-24.77 91.13,-17.96"/>
</g>
<!-- PassivePacketSink -->
<g id="node3" class="node">
<title>PassivePacketSink</title>
<g id="a_node3"><a xlink:href="inet.queueing.sink.PassivePacketSink.html" xlink:title="Simple Module PassivePacketSink" target="_parent">
<polygon fill="#fffcaf" stroke="black" points="212,-19 106,-19 106,0 212,0 212,-19"/>
<text text-anchor="middle" x="159" y="-7" font-family="Helvetica,sans-Serif" font-size="10.00">PassivePacketSink</text>
</a>
</g>
</g>
<!-- LabelerTutorialStep&#45;&gt;PassivePacketSink -->
<g id="edge2" class="edge">
<title>LabelerTutorialStep&#45;&gt;PassivePacketSink</title>
<path fill="none" stroke="black" d="M252.17,-54.98C234.39,-46.5 206.85,-33.35 186.32,-23.54"/>
<polygon fill="black" stroke="black" points="187.69,-20.32 177.16,-19.17 184.67,-26.64 187.69,-20.32"/>
</g>
<!-- IdealChannel -->
<g id="node4" class="node">
<title>IdealChannel</title>
<g id="a_node4"><a xlink:href="ned.IdealChannel.html" xlink:title="Channel IdealChannel" target="_parent">
<polygon fill="#d0ffd0" stroke="black" points="310,-19 230,-19 230,0 310,0 310,-19"/>
<text text-anchor="middle" x="270" y="-7" font-family="Helvetica,sans-Serif" font-size="10.00">IdealChannel</text>
</a>
</g>
</g>
<!-- LabelerTutorialStep&#45;&gt;IdealChannel -->
<g id="edge3" class="edge">
<title>LabelerTutorialStep&#45;&gt;IdealChannel</title>
<path fill="none" stroke="black" d="M270,-54.75C270,-47.8 270,-37.85 270,-29.13"/>
<polygon fill="black" stroke="black" points="273.5,-29.09 270,-19.09 266.5,-29.09 273.5,-29.09"/>
</g>
<!-- ActivePacketSource -->
<g id="node5" class="node">
<title>ActivePacketSource</title>
<g id="a_node5"><a xlink:href="inet.queueing.source.ActivePacketSource.html" xlink:title="Simple Module ActivePacketSource" target="_parent">
<polygon fill="#fffcaf" stroke="black" points="440,-19 328,-19 328,0 440,0 440,-19"/>
<text text-anchor="middle" x="384" y="-7" font-family="Helvetica,sans-Serif" font-size="10.00">ActivePacketSource</text>
</a>
</g>
</g>
<!-- LabelerTutorialStep&#45;&gt;ActivePacketSource -->
<g id="edge4" class="edge">
<title>LabelerTutorialStep&#45;&gt;ActivePacketSource</title>
<path fill="none" stroke="black" d="M288.32,-54.98C306.66,-46.46 335.11,-33.23 356.23,-23.41"/>
<polygon fill="black" stroke="black" points="357.76,-26.56 365.35,-19.17 354.81,-20.21 357.76,-26.56"/>
</g>
<!-- ContentBasedLabeler -->
<g id="node6" class="node">
<title>ContentBasedLabeler</title>
<g id="a_node6"><a xlink:href="inet.queueing.marker.ContentBasedLabeler.html" xlink:title="Simple Module ContentBasedLabeler" target="_parent">
<polygon fill="#fffcaf" stroke="black" points="579.5,-19 458.5,-19 458.5,0 579.5,0 579.5,-19"/>
<text text-anchor="middle" x="519" y="-7" font-family="Helvetica,sans-Serif" font-size="10.00">ContentBasedLabeler</text>
</a>
</g>
</g>
<!-- LabelerTutorialStep&#45;&gt;ContentBasedLabeler -->
<g id="edge5" class="edge">
<title>LabelerTutorialStep&#45;&gt;ContentBasedLabeler</title>
<path fill="none" stroke="black" d="M310.01,-54.98C353.17,-45.8 421.98,-31.15 468.76,-21.19"/>
<polygon fill="black" stroke="black" points="469.63,-24.59 478.68,-19.08 468.17,-17.74 469.63,-24.59"/>
</g>
</g>
</svg>
