<?xml version="1.0" encoding="UTF-8" standalone="no"?>
<!DOCTYPE svg PUBLIC "-//W3C//DTD SVG 1.1//EN"
 "http://www.w3.org/Graphics/SVG/1.1/DTD/svg11.dtd">
<!-- Generated by graphviz version 2.43.0 (0)
 -->
<!-- Title: opp Pages: 1 -->
<svg width="532pt" height="137pt"
 viewBox="0.00 0.00 532.00 137.00" xmlns="http://www.w3.org/2000/svg" xmlns:xlink="http://www.w3.org/1999/xlink">
<g id="graph0" class="graph" transform="scale(1 1) rotate(0) translate(4 133)">
<title>opp</title>
<polygon fill="transparent" stroke="transparent" points="-4,4 -4,-133 528,-133 528,4 -4,4"/>
<!-- PacketGateBase -->
<g id="node1" class="node">
<title>PacketGateBase</title>
<g id="a_node1"><a xlink:href="inet.queueing.base.PacketGateBase.html" xlink:title="Simple Module PacketGateBase" target="_parent">
<polygon fill="#fff700" stroke="black" points="339,-74 244,-74 244,-55 339,-55 339,-74"/>
<text text-anchor="middle" x="291.5" y="-62" font-family="Helvetica,sans-Serif" font-size="10.00">PacketGateBase</text>
</a>
</g>
</g>
<!-- CreditBasedGate -->
<g id="node3" class="node">
<title>CreditBasedGate</title>
<g id="a_node3"><a xlink:href="inet.queueing.gate.CreditBasedGate.html" xlink:title="Simple Module CreditBasedGate" target="_parent">
<polygon fill="#fffcaf" stroke="black" points="99,-19 0,-19 0,0 99,0 99,-19"/>
<text text-anchor="middle" x="49.5" y="-7" font-family="Helvetica,sans-Serif" font-size="10.00">CreditBasedGate</text>
</a>
</g>
</g>
<!-- PacketGateBase&#45;&gt;CreditBasedGate -->
<g id="edge2" class="edge">
<title>PacketGateBase&#45;&gt;CreditBasedGate</title>
<path fill="none" stroke="black" d="M252.62,-54.98C207.59,-45.12 133.84,-28.97 88.69,-19.08"/>
</g>
<!-- EligibilityTimeGate -->
<g id="node4" class="node">
<title>EligibilityTimeGate</title>
<g id="a_node4"><a xlink:href="inet.protocolelement.shaper.EligibilityTimeGate.html" xlink:title="Simple Module EligibilityTimeGate" target="_parent">
<polygon fill="#fffcaf" stroke="black" points="227.5,-19 117.5,-19 117.5,0 227.5,0 227.5,-19"/>
<text text-anchor="middle" x="172.5" y="-7" font-family="Helvetica,sans-Serif" font-size="10.00">EligibilityTimeGate</text>
</a>
</g>
</g>
<!-- PacketGateBase&#45;&gt;EligibilityTimeGate -->
<g id="edge3" class="edge">
<title>PacketGateBase&#45;&gt;EligibilityTimeGate</title>
<path fill="none" stroke="black" d="M272.38,-54.98C250.31,-45.15 214.19,-29.07 191.97,-19.17"/>
</g>
<!-- InteractiveGate -->
<g id="node5" class="node">
<title>InteractiveGate</title>
<g id="a_node5"><a xlink:href="inet.queueing.gate.InteractiveGate.html" xlink:title="Simple Module InteractiveGate" target="_parent">
<polygon fill="#fffcaf" stroke="black" points="337.5,-19 245.5,-19 245.5,0 337.5,0 337.5,-19"/>
<text text-anchor="middle" x="291.5" y="-7" font-family="Helvetica,sans-Serif" font-size="10.00">InteractiveGate</text>
</a>
</g>
</g>
<!-- PacketGateBase&#45;&gt;InteractiveGate -->
<g id="edge4" class="edge">
<title>PacketGateBase&#45;&gt;InteractiveGate</title>
<path fill="none" stroke="black" d="M291.5,-54.75C291.5,-44.87 291.5,-28.9 291.5,-19.09"/>
</g>
<!-- PacketGate -->
<g id="node6" class="node">
<title>PacketGate</title>
<g id="a_node6"><a xlink:href="inet.queueing.gate.PacketGate.html" xlink:title="Simple Module PacketGate" target="_parent">
<polygon fill="#fffcaf" stroke="black" points="427,-19 356,-19 356,0 427,0 427,-19"/>
<text text-anchor="middle" x="391.5" y="-7" font-family="Helvetica,sans-Serif" font-size="10.00">PacketGate</text>
</a>
</g>
</g>
<!-- PacketGateBase&#45;&gt;PacketGate -->
<g id="edge5" class="edge">
<title>PacketGateBase&#45;&gt;PacketGate</title>
<path fill="none" stroke="black" d="M307.57,-54.98C326.12,-45.15 356.47,-29.07 375.14,-19.17"/>
</g>
<!-- PeriodicGate -->
<g id="node7" class="node">
<title>PeriodicGate</title>
<g id="a_node7"><a xlink:href="inet.queueing.gate.PeriodicGate.html" xlink:title="Simple Module PeriodicGate" target="_parent">
<polygon fill="#fffcaf" stroke="black" points="524,-19 445,-19 445,0 524,0 524,-19"/>
<text text-anchor="middle" x="484.5" y="-7" font-family="Helvetica,sans-Serif" font-size="10.00">PeriodicGate</text>
</a>
</g>
</g>
<!-- PacketGateBase&#45;&gt;PeriodicGate -->
<g id="edge6" class="edge">
<title>PacketGateBase&#45;&gt;PeriodicGate</title>
<path fill="none" stroke="black" d="M322.51,-54.98C358.42,-45.12 417.24,-28.97 453.25,-19.08"/>
</g>
<!-- PacketFlowBase -->
<g id="node2" class="node">
<title>PacketFlowBase</title>
<g id="a_node2"><a xlink:href="inet.queueing.base.PacketFlowBase.html" xlink:title="Simple Module PacketFlowBase" target="_parent">
<polygon fill="#fffcaf" stroke="black" points="339,-129 244,-129 244,-110 339,-110 339,-129"/>
<text text-anchor="middle" x="291.5" y="-117" font-family="Helvetica,sans-Serif" font-size="10.00">PacketFlowBase</text>
</a>
</g>
</g>
<!-- PacketFlowBase&#45;&gt;PacketGateBase -->
<g id="edge1" class="edge">
<title>PacketFlowBase&#45;&gt;PacketGateBase</title>
<path fill="none" stroke="black" d="M291.5,-109.75C291.5,-99.87 291.5,-83.9 291.5,-74.09"/>
</g>
</g>
</svg>
