<?xml version="1.0" encoding="UTF-8" standalone="no"?>
<!DOCTYPE svg PUBLIC "-//W3C//DTD SVG 1.1//EN"
 "http://www.w3.org/Graphics/SVG/1.1/DTD/svg11.dtd">
<!-- Generated by graphviz version 2.43.0 (0)
 -->
<!-- Title: opp Pages: 1 -->
<svg width="472pt" height="82pt"
 viewBox="0.00 0.00 472.00 82.00" xmlns="http://www.w3.org/2000/svg" xmlns:xlink="http://www.w3.org/1999/xlink">
<g id="graph0" class="graph" transform="scale(1 1) rotate(0) translate(4 78)">
<title>opp</title>
<polygon fill="transparent" stroke="transparent" points="-4,4 -4,-78 468,-78 468,4 -4,4"/>
<!-- RegressionTestingTutorialWireless -->
<g id="node1" class="node">
<title>RegressionTestingTutorialWireless</title>
<g id="a_node1"><a xlink:href="inet.tutorials.fingerprint.RegressionTestingTutorialWireless.html" xlink:title="Network RegressionTestingTutorialWireless" target="_parent">
<polygon fill="#9090ff" stroke="black" points="326,-74 143,-74 143,-55 326,-55 326,-74"/>
<text text-anchor="middle" x="234.5" y="-62" font-family="Helvetica,sans-Serif" font-size="10.00">RegressionTestingTutorialWireless</text>
</a>
</g>
</g>
<!-- IRadioMedium -->
<g id="node2" class="node">
<title>IRadioMedium</title>
<g id="a_node2"><a xlink:href="inet.physicallayer.wireless.common.contract.packetlevel.IRadioMedium.html" xlink:title="Module Interface IRadioMedium" target="_parent">
<polygon fill="#fffcaf" stroke="black" stroke-dasharray="5,2" points="87,-19 0,-19 0,0 87,0 87,-19"/>
<text text-anchor="middle" x="43.5" y="-7" font-family="Helvetica,sans-Serif" font-size="10.00">IRadioMedium</text>
</a>
</g>
</g>
<!-- RegressionTestingTutorialWireless&#45;&gt;IRadioMedium -->
<g id="edge1" class="edge">
<title>RegressionTestingTutorialWireless&#45;&gt;IRadioMedium</title>
<path fill="none" stroke="black" d="M203.81,-54.98C171.33,-45.97 119.9,-31.7 84.09,-21.76"/>
<polygon fill="black" stroke="black" points="85,-18.38 74.43,-19.08 83.13,-25.13 85,-18.38"/>
</g>
<!-- IntegratedVisualizer -->
<g id="node3" class="node">
<title>IntegratedVisualizer</title>
<g id="a_node3"><a xlink:href="inet.visualizer.common.IntegratedVisualizer.html" xlink:title="Compound Module IntegratedVisualizer" target="_parent">
<polygon fill="#fffcaf" stroke="black" points="220,-19 105,-19 105,0 220,0 220,-19"/>
<text text-anchor="middle" x="162.5" y="-7" font-family="Helvetica,sans-Serif" font-size="10.00">IntegratedVisualizer</text>
</a>
</g>
</g>
<!-- RegressionTestingTutorialWireless&#45;&gt;IntegratedVisualizer -->
<g id="edge2" class="edge">
<title>RegressionTestingTutorialWireless&#45;&gt;IntegratedVisualizer</title>
<path fill="none" stroke="black" d="M222.93,-54.98C212.08,-47 195.62,-34.88 182.62,-25.31"/>
<polygon fill="black" stroke="black" points="184.41,-22.28 174.28,-19.17 180.26,-27.92 184.41,-22.28"/>
</g>
<!-- Ipv4NetworkConfigurator -->
<g id="node4" class="node">
<title>Ipv4NetworkConfigurator</title>
<g id="a_node4"><a xlink:href="inet.networklayer.configurator.ipv4.Ipv4NetworkConfigurator.html" xlink:title="Simple Module Ipv4NetworkConfigurator" target="_parent">
<polygon fill="#fffcaf" stroke="black" points="377,-19 238,-19 238,0 377,0 377,-19"/>
<text text-anchor="middle" x="307.5" y="-7" font-family="Helvetica,sans-Serif" font-size="10.00">Ipv4NetworkConfigurator</text>
</a>
</g>
</g>
<!-- RegressionTestingTutorialWireless&#45;&gt;Ipv4NetworkConfigurator -->
<g id="edge3" class="edge">
<title>RegressionTestingTutorialWireless&#45;&gt;Ipv4NetworkConfigurator</title>
<path fill="none" stroke="black" d="M246.23,-54.98C257.23,-47 273.92,-34.88 287.1,-25.31"/>
<polygon fill="black" stroke="black" points="289.52,-27.88 295.56,-19.17 285.41,-22.21 289.52,-27.88"/>
</g>
<!-- AdhocHost -->
<g id="node5" class="node">
<title>AdhocHost</title>
<g id="a_node5"><a xlink:href="inet.node.inet.AdhocHost.html" xlink:title="Compound Module AdhocHost" target="_parent">
<polygon fill="#fffcaf" stroke="black" points="464,-19 395,-19 395,0 464,0 464,-19"/>
<text text-anchor="middle" x="429.5" y="-7" font-family="Helvetica,sans-Serif" font-size="10.00">AdhocHost</text>
</a>
</g>
</g>
<!-- RegressionTestingTutorialWireless&#45;&gt;AdhocHost -->
<g id="edge4" class="edge">
<title>RegressionTestingTutorialWireless&#45;&gt;AdhocHost</title>
<path fill="none" stroke="black" d="M265.83,-54.98C298.99,-45.97 351.5,-31.7 388.06,-21.76"/>
<polygon fill="black" stroke="black" points="389.19,-25.08 397.92,-19.08 387.36,-18.33 389.19,-25.08"/>
</g>
</g>
</svg>
