<?xml version="1.0" encoding="UTF-8" standalone="no"?>
<!DOCTYPE svg PUBLIC "-//W3C//DTD SVG 1.1//EN"
 "http://www.w3.org/Graphics/SVG/1.1/DTD/svg11.dtd">
<!-- Generated by graphviz version 2.43.0 (0)
 -->
<!-- Title: opp Pages: 1 -->
<svg width="182pt" height="82pt"
 viewBox="0.00 0.00 182.00 82.00" xmlns="http://www.w3.org/2000/svg" xmlns:xlink="http://www.w3.org/1999/xlink">
<g id="graph0" class="graph" transform="scale(1 1) rotate(0) translate(4 78)">
<title>opp</title>
<polygon fill="transparent" stroke="transparent" points="-4,4 -4,-78 178,-78 178,4 -4,4"/>
<!-- MultiPacketFilter -->
<g id="node1" class="node">
<title>MultiPacketFilter</title>
<g id="a_node1"><a xlink:href="inet.queueing.filter.MultiPacketFilter.html" xlink:title="Compound Module MultiPacketFilter" target="_parent">
<polygon fill="#fff700" stroke="black" points="135,-74 37,-74 37,-55 135,-55 135,-74"/>
<text text-anchor="middle" x="86" y="-62" font-family="Helvetica,sans-Serif" font-size="10.00">MultiPacketFilter</text>
</a>
</g>
</g>
<!-- IPacketFilter -->
<g id="node2" class="node">
<title>IPacketFilter</title>
<g id="a_node2"><a xlink:href="inet.queueing.contract.IPacketFilter.html" xlink:title="Module Interface IPacketFilter" target="_parent">
<polygon fill="#fffcaf" stroke="black" stroke-dasharray="5,2" points="76,-19 0,-19 0,0 76,0 76,-19"/>
<text text-anchor="middle" x="38" y="-7" font-family="Helvetica,sans-Serif" font-size="10.00">IPacketFilter</text>
</a>
</g>
</g>
<!-- MultiPacketFilter&#45;&gt;IPacketFilter -->
<g id="edge1" class="edge">
<title>MultiPacketFilter&#45;&gt;IPacketFilter</title>
<path fill="none" stroke="black" d="M78.07,-54.75C71.15,-47.11 60.93,-35.82 52.55,-26.56"/>
<polygon fill="black" stroke="black" points="55.09,-24.15 45.78,-19.09 49.9,-28.85 55.09,-24.15"/>
</g>
<!-- IdealChannel -->
<g id="node3" class="node">
<title>IdealChannel</title>
<g id="a_node3"><a xlink:href="ned.IdealChannel.html" xlink:title="Channel IdealChannel" target="_parent">
<polygon fill="#d0ffd0" stroke="black" points="174,-19 94,-19 94,0 174,0 174,-19"/>
<text text-anchor="middle" x="134" y="-7" font-family="Helvetica,sans-Serif" font-size="10.00">IdealChannel</text>
</a>
</g>
</g>
<!-- MultiPacketFilter&#45;&gt;IdealChannel -->
<g id="edge2" class="edge">
<title>MultiPacketFilter&#45;&gt;IdealChannel</title>
<path fill="none" stroke="black" d="M93.93,-54.75C100.85,-47.11 111.07,-35.82 119.45,-26.56"/>
<polygon fill="black" stroke="black" points="122.1,-28.85 126.22,-19.09 116.91,-24.15 122.1,-28.85"/>
</g>
</g>
</svg>
