<?xml version="1.0" encoding="UTF-8" standalone="no"?>
<!DOCTYPE svg PUBLIC "-//W3C//DTD SVG 1.1//EN"
 "http://www.w3.org/Graphics/SVG/1.1/DTD/svg11.dtd">
<!-- Generated by graphviz version 2.43.0 (0)
 -->
<!-- Title: opp Pages: 1 -->
<svg width="574pt" height="82pt"
 viewBox="0.00 0.00 574.00 82.00" xmlns="http://www.w3.org/2000/svg" xmlns:xlink="http://www.w3.org/1999/xlink">
<g id="graph0" class="graph" transform="scale(1 1) rotate(0) translate(4 78)">
<title>opp</title>
<polygon fill="transparent" stroke="transparent" points="-4,4 -4,-78 570,-78 570,4 -4,4"/>
<!-- TransportPathVisualizerSimpleWirelessShowcase -->
<g id="node1" class="node">
<title>TransportPathVisualizerSimpleWirelessShowcase</title>
<g id="a_node1"><a xlink:href="inet.showcases.visualizer.canvas.transportpathactivity.TransportPathVisualizerSimpleWirelessShowcase.html" xlink:title="Network TransportPathVisualizerSimpleWirelessShowcase" target="_parent">
<polygon fill="#9090ff" stroke="black" points="458,-74 203,-74 203,-55 458,-55 458,-74"/>
<text text-anchor="middle" x="330.5" y="-62" font-family="Helvetica,sans-Serif" font-size="10.00">TransportPathVisualizerSimpleWirelessShowcase</text>
</a>
</g>
</g>
<!-- Ieee80211ScalarRadioMedium -->
<g id="node2" class="node">
<title>Ieee80211ScalarRadioMedium</title>
<g id="a_node2"><a xlink:href="inet.physicallayer.wireless.ieee80211.packetlevel.Ieee80211ScalarRadioMedium.html" xlink:title="Compound Module Ieee80211ScalarRadioMedium" target="_parent">
<polygon fill="#fffcaf" stroke="black" points="165,-19 0,-19 0,0 165,0 165,-19"/>
<text text-anchor="middle" x="82.5" y="-7" font-family="Helvetica,sans-Serif" font-size="10.00">Ieee80211ScalarRadioMedium</text>
</a>
</g>
</g>
<!-- TransportPathVisualizerSimpleWirelessShowcase&#45;&gt;Ieee80211ScalarRadioMedium -->
<g id="edge1" class="edge">
<title>TransportPathVisualizerSimpleWirelessShowcase&#45;&gt;Ieee80211ScalarRadioMedium</title>
<path fill="none" stroke="black" d="M290.65,-54.98C247.67,-45.8 179.13,-31.15 132.54,-21.19"/>
<polygon fill="black" stroke="black" points="133.17,-17.75 122.66,-19.08 131.71,-24.59 133.17,-17.75"/>
</g>
<!-- Ipv4NetworkConfigurator -->
<g id="node3" class="node">
<title>Ipv4NetworkConfigurator</title>
<g id="a_node3"><a xlink:href="inet.networklayer.configurator.ipv4.Ipv4NetworkConfigurator.html" xlink:title="Simple Module Ipv4NetworkConfigurator" target="_parent">
<polygon fill="#fffcaf" stroke="black" points="322,-19 183,-19 183,0 322,0 322,-19"/>
<text text-anchor="middle" x="252.5" y="-7" font-family="Helvetica,sans-Serif" font-size="10.00">Ipv4NetworkConfigurator</text>
</a>
</g>
</g>
<!-- TransportPathVisualizerSimpleWirelessShowcase&#45;&gt;Ipv4NetworkConfigurator -->
<g id="edge2" class="edge">
<title>TransportPathVisualizerSimpleWirelessShowcase&#45;&gt;Ipv4NetworkConfigurator</title>
<path fill="none" stroke="black" d="M317.97,-54.98C306.1,-46.92 288.04,-34.65 273.89,-25.03"/>
<polygon fill="black" stroke="black" points="275.5,-21.9 265.26,-19.17 271.56,-27.69 275.5,-21.9"/>
</g>
<!-- TransportRouteVisualizer -->
<g id="node4" class="node">
<title>TransportRouteVisualizer</title>
<g id="a_node4"><a xlink:href="inet.visualizer.common.TransportRouteVisualizer.html" xlink:title="Compound Module TransportRouteVisualizer" target="_parent">
<polygon fill="#fffcaf" stroke="black" points="478.5,-19 340.5,-19 340.5,0 478.5,0 478.5,-19"/>
<text text-anchor="middle" x="409.5" y="-7" font-family="Helvetica,sans-Serif" font-size="10.00">TransportRouteVisualizer</text>
</a>
</g>
</g>
<!-- TransportPathVisualizerSimpleWirelessShowcase&#45;&gt;TransportRouteVisualizer -->
<g id="edge3" class="edge">
<title>TransportPathVisualizerSimpleWirelessShowcase&#45;&gt;TransportRouteVisualizer</title>
<path fill="none" stroke="black" d="M343.19,-54.98C355.33,-46.84 373.86,-34.41 388.25,-24.76"/>
<polygon fill="black" stroke="black" points="390.22,-27.65 396.58,-19.17 386.32,-21.84 390.22,-27.65"/>
</g>
<!-- AdhocHost -->
<g id="node5" class="node">
<title>AdhocHost</title>
<g id="a_node5"><a xlink:href="inet.node.inet.AdhocHost.html" xlink:title="Compound Module AdhocHost" target="_parent">
<polygon fill="#fffcaf" stroke="black" points="566,-19 497,-19 497,0 566,0 566,-19"/>
<text text-anchor="middle" x="531.5" y="-7" font-family="Helvetica,sans-Serif" font-size="10.00">AdhocHost</text>
</a>
</g>
</g>
<!-- TransportPathVisualizerSimpleWirelessShowcase&#45;&gt;AdhocHost -->
<g id="edge4" class="edge">
<title>TransportPathVisualizerSimpleWirelessShowcase&#45;&gt;AdhocHost</title>
<path fill="none" stroke="black" d="M362.79,-54.98C397.12,-45.93 451.56,-31.58 489.27,-21.64"/>
<polygon fill="black" stroke="black" points="490.18,-25.02 498.95,-19.08 488.39,-18.25 490.18,-25.02"/>
</g>
</g>
</svg>
