<?xml version="1.0" encoding="UTF-8" standalone="no"?>
<!DOCTYPE svg PUBLIC "-//W3C//DTD SVG 1.1//EN"
 "http://www.w3.org/Graphics/SVG/1.1/DTD/svg11.dtd">
<!-- Generated by graphviz version 2.43.0 (0)
 -->
<!-- Title: opp Pages: 1 -->
<svg width="270pt" height="82pt"
 viewBox="0.00 0.00 269.50 82.00" xmlns="http://www.w3.org/2000/svg" xmlns:xlink="http://www.w3.org/1999/xlink">
<g id="graph0" class="graph" transform="scale(1 1) rotate(0) translate(4 78)">
<title>opp</title>
<polygon fill="transparent" stroke="transparent" points="-4,4 -4,-78 265.5,-78 265.5,4 -4,4"/>
<!-- DataLinkCanvasVisualizer -->
<g id="node1" class="node">
<title>DataLinkCanvasVisualizer</title>
<g id="a_node1"><a xlink:href="inet.visualizer.canvas.linklayer.DataLinkCanvasVisualizer.html" xlink:title="Simple Module DataLinkCanvasVisualizer" target="_parent">
<polygon fill="#fff700" stroke="black" points="208,-19 64,-19 64,0 208,0 208,-19"/>
<text text-anchor="middle" x="136" y="-7" font-family="Helvetica,sans-Serif" font-size="10.00">DataLinkCanvasVisualizer</text>
</a>
</g>
</g>
<!-- DataLinkVisualizerBase -->
<g id="node2" class="node">
<title>DataLinkVisualizerBase</title>
<g id="a_node2"><a xlink:href="inet.visualizer.base.DataLinkVisualizerBase.html" xlink:title="Simple Module DataLinkVisualizerBase" target="_parent">
<polygon fill="#fffcaf" stroke="black" points="132,-74 0,-74 0,-55 132,-55 132,-74"/>
<text text-anchor="middle" x="66" y="-62" font-family="Helvetica,sans-Serif" font-size="10.00">DataLinkVisualizerBase</text>
</a>
</g>
</g>
<!-- DataLinkVisualizerBase&#45;&gt;DataLinkCanvasVisualizer -->
<g id="edge1" class="edge">
<title>DataLinkVisualizerBase&#45;&gt;DataLinkCanvasVisualizer</title>
<path fill="none" stroke="black" d="M77.25,-54.98C90.23,-45.15 111.48,-29.07 124.55,-19.17"/>
</g>
<!-- IDataLinkVisualizer -->
<g id="node3" class="node">
<title>IDataLinkVisualizer</title>
<g id="a_node3"><a xlink:href="inet.visualizer.contract.IDataLinkVisualizer.html" xlink:title="Module Interface IDataLinkVisualizer" target="_parent">
<polygon fill="#fffcaf" stroke="black" stroke-dasharray="5,2" points="261.5,-74 150.5,-74 150.5,-55 261.5,-55 261.5,-74"/>
<text text-anchor="middle" x="206" y="-62" font-family="Helvetica,sans-Serif" font-size="10.00">IDataLinkVisualizer</text>
</a>
</g>
</g>
<!-- IDataLinkVisualizer&#45;&gt;DataLinkCanvasVisualizer -->
<g id="edge2" class="edge">
<title>IDataLinkVisualizer&#45;&gt;DataLinkCanvasVisualizer</title>
<path fill="none" stroke="black" stroke-dasharray="5,2" d="M194.75,-54.98C181.77,-45.15 160.52,-29.07 147.45,-19.17"/>
</g>
</g>
</svg>
