<?xml version="1.0" encoding="UTF-8" standalone="no"?>
<!DOCTYPE svg PUBLIC "-//W3C//DTD SVG 1.1//EN"
 "http://www.w3.org/Graphics/SVG/1.1/DTD/svg11.dtd">
<!-- Generated by graphviz version 2.43.0 (0)
 -->
<!-- Title: opp Pages: 1 -->
<svg width="231pt" height="82pt"
 viewBox="0.00 0.00 231.00 82.00" xmlns="http://www.w3.org/2000/svg" xmlns:xlink="http://www.w3.org/1999/xlink">
<g id="graph0" class="graph" transform="scale(1 1) rotate(0) translate(4 78)">
<title>opp</title>
<polygon fill="transparent" stroke="transparent" points="-4,4 -4,-78 227,-78 227,4 -4,4"/>
<!-- ChannelUtilizationMeasurementShowcase -->
<g id="node1" class="node">
<title>ChannelUtilizationMeasurementShowcase</title>
<g id="a_node1"><a xlink:href="inet.showcases.measurement.utilization.ChannelUtilizationMeasurementShowcase.html" xlink:title="Network ChannelUtilizationMeasurementShowcase" target="_parent">
<polygon fill="#9090ff" stroke="black" points="223,-74 0,-74 0,-55 223,-55 223,-74"/>
<text text-anchor="middle" x="111.5" y="-62" font-family="Helvetica,sans-Serif" font-size="10.00">ChannelUtilizationMeasurementShowcase</text>
</a>
</g>
</g>
<!-- StandardHost -->
<g id="node2" class="node">
<title>StandardHost</title>
<g id="a_node2"><a xlink:href="inet.node.inet.StandardHost.html" xlink:title="Compound Module StandardHost" target="_parent">
<polygon fill="#fffcaf" stroke="black" points="104,-19 21,-19 21,0 104,0 104,-19"/>
<text text-anchor="middle" x="62.5" y="-7" font-family="Helvetica,sans-Serif" font-size="10.00">StandardHost</text>
</a>
</g>
</g>
<!-- ChannelUtilizationMeasurementShowcase&#45;&gt;StandardHost -->
<g id="edge1" class="edge">
<title>ChannelUtilizationMeasurementShowcase&#45;&gt;StandardHost</title>
<path fill="none" stroke="black" d="M103.41,-54.75C96.34,-47.11 85.91,-35.82 77.35,-26.56"/>
<polygon fill="black" stroke="black" points="79.8,-24.06 70.44,-19.09 74.66,-28.81 79.8,-24.06"/>
</g>
<!-- EthernetLink -->
<g id="node3" class="node">
<title>EthernetLink</title>
<g id="a_node3"><a xlink:href="inet.node.ethernet.EthernetLink.html" xlink:title="Channel EthernetLink" target="_parent">
<polygon fill="#d0ffd0" stroke="black" points="200.5,-19 122.5,-19 122.5,0 200.5,0 200.5,-19"/>
<text text-anchor="middle" x="161.5" y="-7" font-family="Helvetica,sans-Serif" font-size="10.00">EthernetLink</text>
</a>
</g>
</g>
<!-- ChannelUtilizationMeasurementShowcase&#45;&gt;EthernetLink -->
<g id="edge2" class="edge">
<title>ChannelUtilizationMeasurementShowcase&#45;&gt;EthernetLink</title>
<path fill="none" stroke="black" d="M119.76,-54.75C126.96,-47.11 137.61,-35.82 146.35,-26.56"/>
<polygon fill="black" stroke="black" points="149.08,-28.76 153.4,-19.09 143.99,-23.96 149.08,-28.76"/>
</g>
</g>
</svg>
