<?xml version="1.0" encoding="UTF-8" standalone="no"?>
<!DOCTYPE svg PUBLIC "-//W3C//DTD SVG 1.1//EN"
 "http://www.w3.org/Graphics/SVG/1.1/DTD/svg11.dtd">
<!-- Generated by graphviz version 2.43.0 (0)
 -->
<!-- Title: opp Pages: 1 -->
<svg width="588pt" height="82pt"
 viewBox="0.00 0.00 588.00 82.00" xmlns="http://www.w3.org/2000/svg" xmlns:xlink="http://www.w3.org/1999/xlink">
<g id="graph0" class="graph" transform="scale(1 1) rotate(0) translate(4 78)">
<title>opp</title>
<polygon fill="transparent" stroke="transparent" points="-4,4 -4,-78 584,-78 584,4 -4,4"/>
<!-- AnalogModelShowcaseDistanceNetwork_ -->
<g id="node1" class="node">
<title>AnalogModelShowcaseDistanceNetwork_</title>
<g id="a_node1"><a xlink:href="inet.showcases.wireless.analogmodel.AnalogModelShowcaseDistanceNetwork_.html" xlink:title="Network AnalogModelShowcaseDistanceNetwork_" target="_parent">
<polygon fill="#9090ff" stroke="black" points="397.5,-74 179.5,-74 179.5,-55 397.5,-55 397.5,-74"/>
<text text-anchor="middle" x="288.5" y="-62" font-family="Helvetica,sans-Serif" font-size="10.00">AnalogModelShowcaseDistanceNetwork_</text>
</a>
</g>
</g>
<!-- Ipv4NetworkConfigurator -->
<g id="node2" class="node">
<title>Ipv4NetworkConfigurator</title>
<g id="a_node2"><a xlink:href="inet.networklayer.configurator.ipv4.Ipv4NetworkConfigurator.html" xlink:title="Simple Module Ipv4NetworkConfigurator" target="_parent">
<polygon fill="#fffcaf" stroke="black" points="139,-19 0,-19 0,0 139,0 139,-19"/>
<text text-anchor="middle" x="69.5" y="-7" font-family="Helvetica,sans-Serif" font-size="10.00">Ipv4NetworkConfigurator</text>
</a>
</g>
</g>
<!-- AnalogModelShowcaseDistanceNetwork_&#45;&gt;Ipv4NetworkConfigurator -->
<g id="edge1" class="edge">
<title>AnalogModelShowcaseDistanceNetwork_&#45;&gt;Ipv4NetworkConfigurator</title>
<path fill="none" stroke="black" d="M253.31,-54.98C215.67,-45.87 155.84,-31.4 114.73,-21.45"/>
<polygon fill="black" stroke="black" points="115.5,-18.03 104.96,-19.08 113.86,-24.84 115.5,-18.03"/>
</g>
<!-- IntegratedMultiVisualizer -->
<g id="node3" class="node">
<title>IntegratedMultiVisualizer</title>
<g id="a_node3"><a xlink:href="inet.visualizer.common.IntegratedMultiVisualizer.html" xlink:title="Compound Module IntegratedMultiVisualizer" target="_parent">
<polygon fill="#fffcaf" stroke="black" points="297.5,-19 157.5,-19 157.5,0 297.5,0 297.5,-19"/>
<text text-anchor="middle" x="227.5" y="-7" font-family="Helvetica,sans-Serif" font-size="10.00">IntegratedMultiVisualizer</text>
</a>
</g>
</g>
<!-- AnalogModelShowcaseDistanceNetwork_&#45;&gt;IntegratedMultiVisualizer -->
<g id="edge2" class="edge">
<title>AnalogModelShowcaseDistanceNetwork_&#45;&gt;IntegratedMultiVisualizer</title>
<path fill="none" stroke="black" d="M278.7,-54.98C269.68,-47.15 256.09,-35.34 245.18,-25.86"/>
<polygon fill="black" stroke="black" points="247.32,-23.09 237.48,-19.17 242.73,-28.37 247.32,-23.09"/>
</g>
<!-- AdhocHost -->
<g id="node4" class="node">
<title>AdhocHost</title>
<g id="a_node4"><a xlink:href="inet.node.inet.AdhocHost.html" xlink:title="Compound Module AdhocHost" target="_parent">
<polygon fill="#fffcaf" stroke="black" points="385,-19 316,-19 316,0 385,0 385,-19"/>
<text text-anchor="middle" x="350.5" y="-7" font-family="Helvetica,sans-Serif" font-size="10.00">AdhocHost</text>
</a>
</g>
</g>
<!-- AnalogModelShowcaseDistanceNetwork_&#45;&gt;AdhocHost -->
<g id="edge3" class="edge">
<title>AnalogModelShowcaseDistanceNetwork_&#45;&gt;AdhocHost</title>
<path fill="none" stroke="black" d="M298.46,-54.98C307.63,-47.15 321.44,-35.34 332.53,-25.86"/>
<polygon fill="black" stroke="black" points="335.03,-28.33 340.36,-19.17 330.48,-23.01 335.03,-28.33"/>
</g>
<!-- ApskLayeredScalarRadioMedium -->
<g id="node5" class="node">
<title>ApskLayeredScalarRadioMedium</title>
<g id="a_node5"><a xlink:href="inet.physicallayer.wireless.apsk.bitlevel.ApskLayeredScalarRadioMedium.html" xlink:title="Compound Module ApskLayeredScalarRadioMedium" target="_parent">
<polygon fill="#fffcaf" stroke="black" points="580,-19 403,-19 403,0 580,0 580,-19"/>
<text text-anchor="middle" x="491.5" y="-7" font-family="Helvetica,sans-Serif" font-size="10.00">ApskLayeredScalarRadioMedium</text>
</a>
</g>
</g>
<!-- AnalogModelShowcaseDistanceNetwork_&#45;&gt;ApskLayeredScalarRadioMedium -->
<g id="edge4" class="edge">
<title>AnalogModelShowcaseDistanceNetwork_&#45;&gt;ApskLayeredScalarRadioMedium</title>
<path fill="none" stroke="black" d="M321.12,-54.98C355.79,-45.93 410.76,-31.58 448.85,-21.64"/>
<polygon fill="black" stroke="black" points="449.84,-24.99 458.63,-19.08 448.07,-18.22 449.84,-24.99"/>
</g>
</g>
</svg>
