<?xml version="1.0" encoding="UTF-8" standalone="no"?>
<!DOCTYPE svg PUBLIC "-//W3C//DTD SVG 1.1//EN"
 "http://www.w3.org/Graphics/SVG/1.1/DTD/svg11.dtd">
<!-- Generated by graphviz version 2.43.0 (0)
 -->
<!-- Title: opp Pages: 1 -->
<svg width="599pt" height="82pt"
 viewBox="0.00 0.00 598.50 82.00" xmlns="http://www.w3.org/2000/svg" xmlns:xlink="http://www.w3.org/1999/xlink">
<g id="graph0" class="graph" transform="scale(1 1) rotate(0) translate(4 78)">
<title>opp</title>
<polygon fill="transparent" stroke="transparent" points="-4,4 -4,-78 594.5,-78 594.5,4 -4,4"/>
<!-- RSVPTE4 -->
<g id="node1" class="node">
<title>RSVPTE4</title>
<g id="a_node1"><a xlink:href="inet.examples.mpls.testte_failure2.RSVPTE4.html" xlink:title="Network RSVPTE4" target="_parent">
<polygon fill="#9090ff" stroke="black" points="295,-74 235,-74 235,-55 295,-55 295,-74"/>
<text text-anchor="middle" x="265" y="-62" font-family="Helvetica,sans-Serif" font-size="10.00">RSVPTE4</text>
</a>
</g>
</g>
<!-- RsvpMplsRouter -->
<g id="node2" class="node">
<title>RsvpMplsRouter</title>
<g id="a_node2"><a xlink:href="inet.node.mpls.RsvpMplsRouter.html" xlink:title="Compound Module RsvpMplsRouter" target="_parent">
<polygon fill="#fffcaf" stroke="black" points="96,-19 0,-19 0,0 96,0 96,-19"/>
<text text-anchor="middle" x="48" y="-7" font-family="Helvetica,sans-Serif" font-size="10.00">RsvpMplsRouter</text>
</a>
</g>
</g>
<!-- RSVPTE4&#45;&gt;RsvpMplsRouter -->
<g id="edge1" class="edge">
<title>RSVPTE4&#45;&gt;RsvpMplsRouter</title>
<path fill="none" stroke="black" d="M234.83,-56.13C197.95,-47.12 135.24,-31.81 92.75,-21.43"/>
<polygon fill="black" stroke="black" points="93.49,-18.01 82.94,-19.03 91.82,-24.81 93.49,-18.01"/>
</g>
<!-- StandardHost -->
<g id="node3" class="node">
<title>StandardHost</title>
<g id="a_node3"><a xlink:href="inet.node.inet.StandardHost.html" xlink:title="Compound Module StandardHost" target="_parent">
<polygon fill="#fffcaf" stroke="black" points="197.5,-19 114.5,-19 114.5,0 197.5,0 197.5,-19"/>
<text text-anchor="middle" x="156" y="-7" font-family="Helvetica,sans-Serif" font-size="10.00">StandardHost</text>
</a>
</g>
</g>
<!-- RSVPTE4&#45;&gt;StandardHost -->
<g id="edge2" class="edge">
<title>RSVPTE4&#45;&gt;StandardHost</title>
<path fill="none" stroke="black" d="M247.49,-54.98C230.03,-46.5 202.99,-33.35 182.83,-23.54"/>
<polygon fill="black" stroke="black" points="184.36,-20.4 173.83,-19.17 181.29,-26.69 184.36,-20.4"/>
</g>
<!-- DatarateChannel -->
<g id="node4" class="node">
<title>DatarateChannel</title>
<g id="a_node4"><a xlink:href="ned.DatarateChannel.html" xlink:title="Channel DatarateChannel" target="_parent">
<polygon fill="#d0ffd0" stroke="black" points="314.5,-19 215.5,-19 215.5,0 314.5,0 314.5,-19"/>
<text text-anchor="middle" x="265" y="-7" font-family="Helvetica,sans-Serif" font-size="10.00">DatarateChannel</text>
</a>
</g>
</g>
<!-- RSVPTE4&#45;&gt;DatarateChannel -->
<g id="edge3" class="edge">
<title>RSVPTE4&#45;&gt;DatarateChannel</title>
<path fill="none" stroke="black" d="M265,-54.75C265,-47.8 265,-37.85 265,-29.13"/>
<polygon fill="black" stroke="black" points="268.5,-29.09 265,-19.09 261.5,-29.09 268.5,-29.09"/>
</g>
<!-- Ipv4NetworkConfigurator -->
<g id="node5" class="node">
<title>Ipv4NetworkConfigurator</title>
<g id="a_node5"><a xlink:href="inet.networklayer.configurator.ipv4.Ipv4NetworkConfigurator.html" xlink:title="Simple Module Ipv4NetworkConfigurator" target="_parent">
<polygon fill="#fffcaf" stroke="black" points="471.5,-19 332.5,-19 332.5,0 471.5,0 471.5,-19"/>
<text text-anchor="middle" x="402" y="-7" font-family="Helvetica,sans-Serif" font-size="10.00">Ipv4NetworkConfigurator</text>
</a>
</g>
</g>
<!-- RSVPTE4&#45;&gt;Ipv4NetworkConfigurator -->
<g id="edge4" class="edge">
<title>RSVPTE4&#45;&gt;Ipv4NetworkConfigurator</title>
<path fill="none" stroke="black" d="M287.01,-54.98C309.45,-46.3 344.48,-32.75 369.99,-22.88"/>
<polygon fill="black" stroke="black" points="371.52,-26.04 379.59,-19.17 369,-19.51 371.52,-26.04"/>
</g>
<!-- ScenarioManager -->
<g id="node6" class="node">
<title>ScenarioManager</title>
<g id="a_node6"><a xlink:href="inet.common.scenario.ScenarioManager.html" xlink:title="Simple Module ScenarioManager" target="_parent">
<polygon fill="#fffcaf" stroke="black" points="590.5,-19 489.5,-19 489.5,0 590.5,0 590.5,-19"/>
<text text-anchor="middle" x="540" y="-7" font-family="Helvetica,sans-Serif" font-size="10.00">ScenarioManager</text>
</a>
</g>
</g>
<!-- RSVPTE4&#45;&gt;ScenarioManager -->
<g id="edge5" class="edge">
<title>RSVPTE4&#45;&gt;ScenarioManager</title>
<path fill="none" stroke="black" d="M295.22,-57.68C341.02,-48.85 428.72,-31.95 485.76,-20.95"/>
<polygon fill="black" stroke="black" points="486.53,-24.37 495.69,-19.04 485.21,-17.5 486.53,-24.37"/>
</g>
</g>
</svg>
