<?xml version="1.0" encoding="UTF-8" standalone="no"?>
<!DOCTYPE svg PUBLIC "-//W3C//DTD SVG 1.1//EN"
 "http://www.w3.org/Graphics/SVG/1.1/DTD/svg11.dtd">
<!-- Generated by graphviz version 2.43.0 (0)
 -->
<!-- Title: opp Pages: 1 -->
<svg width="262pt" height="137pt"
 viewBox="0.00 0.00 262.00 137.00" xmlns="http://www.w3.org/2000/svg" xmlns:xlink="http://www.w3.org/1999/xlink">
<g id="graph0" class="graph" transform="scale(1 1) rotate(0) translate(4 133)">
<title>opp</title>
<polygon fill="transparent" stroke="transparent" points="-4,4 -4,-133 258,-133 258,4 -4,4"/>
<!-- PacketQueueBase -->
<g id="node1" class="node">
<title>PacketQueueBase</title>
<g id="a_node1"><a xlink:href="inet.queueing.base.PacketQueueBase.html" xlink:title="Simple Module PacketQueueBase" target="_parent">
<polygon fill="#fff700" stroke="black" points="198,-74 94,-74 94,-55 198,-55 198,-74"/>
<text text-anchor="middle" x="146" y="-62" font-family="Helvetica,sans-Serif" font-size="10.00">PacketQueueBase</text>
</a>
</g>
</g>
<!-- CompoundPacketQueueBase -->
<g id="node3" class="node">
<title>CompoundPacketQueueBase</title>
<g id="a_node3"><a xlink:href="inet.queueing.queue.CompoundPacketQueueBase.html" xlink:title="Compound Module CompoundPacketQueueBase" target="_parent">
<polygon fill="#fffcaf" stroke="black" points="156,-19 0,-19 0,0 156,0 156,-19"/>
<text text-anchor="middle" x="78" y="-7" font-family="Helvetica,sans-Serif" font-size="10.00">CompoundPacketQueueBase</text>
</a>
</g>
</g>
<!-- PacketQueueBase&#45;&gt;CompoundPacketQueueBase -->
<g id="edge2" class="edge">
<title>PacketQueueBase&#45;&gt;CompoundPacketQueueBase</title>
<path fill="none" stroke="black" d="M135.07,-54.98C122.46,-45.15 101.82,-29.07 89.12,-19.17"/>
</g>
<!-- PacketQueue -->
<g id="node4" class="node">
<title>PacketQueue</title>
<g id="a_node4"><a xlink:href="inet.queueing.queue.PacketQueue.html" xlink:title="Simple Module PacketQueue" target="_parent">
<polygon fill="#fffcaf" stroke="black" points="254,-19 174,-19 174,0 254,0 254,-19"/>
<text text-anchor="middle" x="214" y="-7" font-family="Helvetica,sans-Serif" font-size="10.00">PacketQueue</text>
</a>
</g>
</g>
<!-- PacketQueueBase&#45;&gt;PacketQueue -->
<g id="edge3" class="edge">
<title>PacketQueueBase&#45;&gt;PacketQueue</title>
<path fill="none" stroke="black" d="M156.93,-54.98C169.54,-45.15 190.18,-29.07 202.88,-19.17"/>
</g>
<!-- PacketProcessorBase -->
<g id="node2" class="node">
<title>PacketProcessorBase</title>
<g id="a_node2"><a xlink:href="inet.queueing.base.PacketProcessorBase.html" xlink:title="Simple Module PacketProcessorBase" target="_parent">
<polygon fill="#fffcaf" stroke="black" points="205.5,-129 86.5,-129 86.5,-110 205.5,-110 205.5,-129"/>
<text text-anchor="middle" x="146" y="-117" font-family="Helvetica,sans-Serif" font-size="10.00">PacketProcessorBase</text>
</a>
</g>
</g>
<!-- PacketProcessorBase&#45;&gt;PacketQueueBase -->
<g id="edge1" class="edge">
<title>PacketProcessorBase&#45;&gt;PacketQueueBase</title>
<path fill="none" stroke="black" d="M146,-109.75C146,-99.87 146,-83.9 146,-74.09"/>
</g>
</g>
</svg>
