<?xml version="1.0" encoding="UTF-8" standalone="no"?>
<!DOCTYPE svg PUBLIC "-//W3C//DTD SVG 1.1//EN"
 "http://www.w3.org/Graphics/SVG/1.1/DTD/svg11.dtd">
<!-- Generated by graphviz version 2.43.0 (0)
 -->
<!-- Title: opp Pages: 1 -->
<svg width="170pt" height="82pt"
 viewBox="0.00 0.00 169.50 82.00" xmlns="http://www.w3.org/2000/svg" xmlns:xlink="http://www.w3.org/1999/xlink">
<g id="graph0" class="graph" transform="scale(1 1) rotate(0) translate(4 78)">
<title>opp</title>
<polygon fill="transparent" stroke="transparent" points="-4,4 -4,-78 165.5,-78 165.5,4 -4,4"/>
<!-- LoopbackInterface -->
<g id="node1" class="node">
<title>LoopbackInterface</title>
<g id="a_node1"><a xlink:href="inet.linklayer.loopback.LoopbackInterface.html" xlink:title="Compound Module LoopbackInterface" target="_parent">
<polygon fill="#fff700" stroke="black" points="130,-74 23,-74 23,-55 130,-55 130,-74"/>
<text text-anchor="middle" x="76.5" y="-62" font-family="Helvetica,sans-Serif" font-size="10.00">LoopbackInterface</text>
</a>
</g>
</g>
<!-- Loopback -->
<g id="node2" class="node">
<title>Loopback</title>
<g id="a_node2"><a xlink:href="inet.linklayer.loopback.Loopback.html" xlink:title="Simple Module Loopback" target="_parent">
<polygon fill="#fffcaf" stroke="black" points="63,-19 0,-19 0,0 63,0 63,-19"/>
<text text-anchor="middle" x="31.5" y="-7" font-family="Helvetica,sans-Serif" font-size="10.00">Loopback</text>
</a>
</g>
</g>
<!-- LoopbackInterface&#45;&gt;Loopback -->
<g id="edge1" class="edge">
<title>LoopbackInterface&#45;&gt;Loopback</title>
<path fill="none" stroke="black" d="M69.07,-54.75C62.65,-47.18 53.19,-36.05 45.38,-26.84"/>
<polygon fill="black" stroke="black" points="47.93,-24.45 38.79,-19.09 42.6,-28.98 47.93,-24.45"/>
</g>
<!-- IdealChannel -->
<g id="node3" class="node">
<title>IdealChannel</title>
<g id="a_node3"><a xlink:href="ned.IdealChannel.html" xlink:title="Channel IdealChannel" target="_parent">
<polygon fill="#d0ffd0" stroke="black" points="161.5,-19 81.5,-19 81.5,0 161.5,0 161.5,-19"/>
<text text-anchor="middle" x="121.5" y="-7" font-family="Helvetica,sans-Serif" font-size="10.00">IdealChannel</text>
</a>
</g>
</g>
<!-- LoopbackInterface&#45;&gt;IdealChannel -->
<g id="edge2" class="edge">
<title>LoopbackInterface&#45;&gt;IdealChannel</title>
<path fill="none" stroke="black" d="M83.93,-54.75C90.35,-47.18 99.81,-36.05 107.62,-26.84"/>
<polygon fill="black" stroke="black" points="110.4,-28.98 114.21,-19.09 105.07,-24.45 110.4,-28.98"/>
</g>
</g>
</svg>
