<?xml version="1.0" encoding="UTF-8" standalone="no"?>
<!DOCTYPE svg PUBLIC "-//W3C//DTD SVG 1.1//EN"
 "http://www.w3.org/Graphics/SVG/1.1/DTD/svg11.dtd">
<!-- Generated by graphviz version 2.43.0 (0)
 -->
<!-- Title: opp Pages: 1 -->
<svg width="422pt" height="82pt"
 viewBox="0.00 0.00 422.00 82.00" xmlns="http://www.w3.org/2000/svg" xmlns:xlink="http://www.w3.org/1999/xlink">
<g id="graph0" class="graph" transform="scale(1 1) rotate(0) translate(4 78)">
<title>opp</title>
<polygon fill="transparent" stroke="transparent" points="-4,4 -4,-78 418,-78 418,4 -4,4"/>
<!-- IEthernetLayer -->
<g id="node1" class="node">
<title>IEthernetLayer</title>
<g id="a_node1"><a xlink:href="inet.linklayer.ethernet.contract.IEthernetLayer.html" xlink:title="Module Interface IEthernetLayer" target="_parent">
<polygon fill="#fff700" stroke="black" stroke-dasharray="5,2" points="231,-74 143,-74 143,-55 231,-55 231,-74"/>
<text text-anchor="middle" x="187" y="-62" font-family="Helvetica,sans-Serif" font-size="10.00">IEthernetLayer</text>
</a>
</g>
</g>
<!-- EthernetEncapsulation -->
<g id="node2" class="node">
<title>EthernetEncapsulation</title>
<g id="a_node2"><a xlink:href="inet.linklayer.ethernet.basic.EthernetEncapsulation.html" xlink:title="Simple Module EthernetEncapsulation" target="_parent">
<polygon fill="#fffcaf" stroke="black" points="126,-19 0,-19 0,0 126,0 126,-19"/>
<text text-anchor="middle" x="63" y="-7" font-family="Helvetica,sans-Serif" font-size="10.00">EthernetEncapsulation</text>
</a>
</g>
</g>
<!-- IEthernetLayer&#45;&gt;EthernetEncapsulation -->
<g id="edge1" class="edge">
<title>IEthernetLayer&#45;&gt;EthernetEncapsulation</title>
<path fill="none" stroke="black" stroke-dasharray="5,2" d="M167.08,-54.98C144.07,-45.15 106.44,-29.07 83.29,-19.17"/>
</g>
<!-- EthernetLayer -->
<g id="node3" class="node">
<title>EthernetLayer</title>
<g id="a_node3"><a xlink:href="inet.linklayer.ethernet.modular.EthernetLayer.html" xlink:title="Compound Module EthernetLayer" target="_parent">
<polygon fill="#fffcaf" stroke="black" points="229.5,-19 144.5,-19 144.5,0 229.5,0 229.5,-19"/>
<text text-anchor="middle" x="187" y="-7" font-family="Helvetica,sans-Serif" font-size="10.00">EthernetLayer</text>
</a>
</g>
</g>
<!-- IEthernetLayer&#45;&gt;EthernetLayer -->
<g id="edge2" class="edge">
<title>IEthernetLayer&#45;&gt;EthernetLayer</title>
<path fill="none" stroke="black" stroke-dasharray="5,2" d="M187,-54.75C187,-44.87 187,-28.9 187,-19.09"/>
</g>
<!-- OmittedEthernetEncapsulation -->
<g id="node4" class="node">
<title>OmittedEthernetEncapsulation</title>
<g id="a_node4"><a xlink:href="inet.linklayer.ethernet.basic.OmittedEthernetEncapsulation.html" xlink:title="Compound Module OmittedEthernetEncapsulation" target="_parent">
<polygon fill="#fffcaf" stroke="black" points="414,-19 248,-19 248,0 414,0 414,-19"/>
<text text-anchor="middle" x="331" y="-7" font-family="Helvetica,sans-Serif" font-size="10.00">OmittedEthernetEncapsulation</text>
</a>
</g>
</g>
<!-- IEthernetLayer&#45;&gt;OmittedEthernetEncapsulation -->
<g id="edge3" class="edge">
<title>IEthernetLayer&#45;&gt;OmittedEthernetEncapsulation</title>
<path fill="none" stroke="black" stroke-dasharray="5,2" d="M210.14,-54.98C236.85,-45.15 280.55,-29.07 307.44,-19.17"/>
</g>
</g>
</svg>
