<?xml version="1.0" encoding="UTF-8" standalone="no"?>
<!DOCTYPE svg PUBLIC "-//W3C//DTD SVG 1.1//EN"
 "http://www.w3.org/Graphics/SVG/1.1/DTD/svg11.dtd">
<!-- Generated by graphviz version 2.43.0 (0)
 -->
<!-- Title: opp Pages: 1 -->
<svg width="571pt" height="137pt"
 viewBox="0.00 0.00 571.00 137.00" xmlns="http://www.w3.org/2000/svg" xmlns:xlink="http://www.w3.org/1999/xlink">
<g id="graph0" class="graph" transform="scale(1 1) rotate(0) translate(4 133)">
<title>opp</title>
<polygon fill="transparent" stroke="transparent" points="-4,4 -4,-133 567,-133 567,4 -4,4"/>
<!-- WirelessAPWithSink -->
<g id="node1" class="node">
<title>WirelessAPWithSink</title>
<g id="a_node1"><a xlink:href="inet.examples.wireless.throughput.WirelessAPWithSink.html" xlink:title="Compound Module WirelessAPWithSink" target="_parent">
<polygon fill="#fff700" stroke="black" points="344.5,-74 229.5,-74 229.5,-55 344.5,-55 344.5,-74"/>
<text text-anchor="middle" x="287" y="-62" font-family="Helvetica,sans-Serif" font-size="10.00">WirelessAPWithSink</text>
</a>
</g>
</g>
<!-- InterfaceTable -->
<g id="node2" class="node">
<title>InterfaceTable</title>
<g id="a_node2"><a xlink:href="inet.networklayer.common.InterfaceTable.html" xlink:title="Simple Module InterfaceTable" target="_parent">
<polygon fill="#fffcaf" stroke="black" points="86,-19 0,-19 0,0 86,0 86,-19"/>
<text text-anchor="middle" x="43" y="-7" font-family="Helvetica,sans-Serif" font-size="10.00">InterfaceTable</text>
</a>
</g>
</g>
<!-- WirelessAPWithSink&#45;&gt;InterfaceTable -->
<g id="edge1" class="edge">
<title>WirelessAPWithSink&#45;&gt;InterfaceTable</title>
<path fill="none" stroke="black" d="M247.8,-54.98C205.59,-45.82 138.35,-31.21 92.52,-21.26"/>
<polygon fill="black" stroke="black" points="93.03,-17.78 82.51,-19.08 91.54,-24.63 93.03,-17.78"/>
</g>
<!-- Ieee80211Interface -->
<g id="node3" class="node">
<title>Ieee80211Interface</title>
<g id="a_node3"><a xlink:href="inet.linklayer.ieee80211.Ieee80211Interface.html" xlink:title="Compound Module Ieee80211Interface" target="_parent">
<polygon fill="#fffcaf" stroke="black" points="215.5,-19 104.5,-19 104.5,0 215.5,0 215.5,-19"/>
<text text-anchor="middle" x="160" y="-7" font-family="Helvetica,sans-Serif" font-size="10.00">Ieee80211Interface</text>
</a>
</g>
</g>
<!-- WirelessAPWithSink&#45;&gt;Ieee80211Interface -->
<g id="edge2" class="edge">
<title>WirelessAPWithSink&#45;&gt;Ieee80211Interface</title>
<path fill="none" stroke="black" d="M266.6,-54.98C245.98,-46.38 213.89,-32.99 190.31,-23.15"/>
<polygon fill="black" stroke="black" points="191.35,-19.79 180.78,-19.17 188.66,-26.25 191.35,-19.79"/>
</g>
<!-- StationaryMobility -->
<g id="node4" class="node">
<title>StationaryMobility</title>
<g id="a_node4"><a xlink:href="inet.mobility.static.StationaryMobility.html" xlink:title="Simple Module StationaryMobility" target="_parent">
<polygon fill="#fffcaf" stroke="black" points="340.5,-19 233.5,-19 233.5,0 340.5,0 340.5,-19"/>
<text text-anchor="middle" x="287" y="-7" font-family="Helvetica,sans-Serif" font-size="10.00">StationaryMobility</text>
</a>
</g>
</g>
<!-- WirelessAPWithSink&#45;&gt;StationaryMobility -->
<g id="edge3" class="edge">
<title>WirelessAPWithSink&#45;&gt;StationaryMobility</title>
<path fill="none" stroke="black" d="M287,-54.75C287,-47.8 287,-37.85 287,-29.13"/>
<polygon fill="black" stroke="black" points="290.5,-29.09 287,-19.09 283.5,-29.09 290.5,-29.09"/>
</g>
<!-- PassivePacketSink -->
<g id="node5" class="node">
<title>PassivePacketSink</title>
<g id="a_node5"><a xlink:href="inet.queueing.sink.PassivePacketSink.html" xlink:title="Simple Module PassivePacketSink" target="_parent">
<polygon fill="#fffcaf" stroke="black" points="465,-19 359,-19 359,0 465,0 465,-19"/>
<text text-anchor="middle" x="412" y="-7" font-family="Helvetica,sans-Serif" font-size="10.00">PassivePacketSink</text>
</a>
</g>
</g>
<!-- WirelessAPWithSink&#45;&gt;PassivePacketSink -->
<g id="edge4" class="edge">
<title>WirelessAPWithSink&#45;&gt;PassivePacketSink</title>
<path fill="none" stroke="black" d="M307.08,-54.98C327.37,-46.38 358.96,-32.99 382.17,-23.15"/>
<polygon fill="black" stroke="black" points="383.71,-26.3 391.55,-19.17 380.98,-19.85 383.71,-26.3"/>
</g>
<!-- IdealChannel -->
<g id="node6" class="node">
<title>IdealChannel</title>
<g id="a_node6"><a xlink:href="ned.IdealChannel.html" xlink:title="Channel IdealChannel" target="_parent">
<polygon fill="#d0ffd0" stroke="black" points="563,-19 483,-19 483,0 563,0 563,-19"/>
<text text-anchor="middle" x="523" y="-7" font-family="Helvetica,sans-Serif" font-size="10.00">IdealChannel</text>
</a>
</g>
</g>
<!-- WirelessAPWithSink&#45;&gt;IdealChannel -->
<g id="edge5" class="edge">
<title>WirelessAPWithSink&#45;&gt;IdealChannel</title>
<path fill="none" stroke="black" d="M324.92,-54.98C365.65,-45.84 430.5,-31.27 474.82,-21.32"/>
<polygon fill="black" stroke="black" points="475.8,-24.69 484.79,-19.08 474.26,-17.86 475.8,-24.69"/>
</g>
<!-- Throughput -->
<g id="node7" class="node">
<title>Throughput</title>
<g id="a_node7"><a xlink:href="inet.examples.wireless.throughput.Throughput.html" xlink:title="Network Throughput" target="_parent">
<polygon fill="#d0d0ff" stroke="black" points="323,-129 251,-129 251,-110 323,-110 323,-129"/>
<text text-anchor="middle" x="287" y="-117" font-family="Helvetica,sans-Serif" font-size="10.00">Throughput</text>
</a>
</g>
</g>
<!-- Throughput&#45;&gt;WirelessAPWithSink -->
<g id="edge6" class="edge">
<title>Throughput&#45;&gt;WirelessAPWithSink</title>
<path fill="none" stroke="black" d="M287,-109.75C287,-102.8 287,-92.85 287,-84.13"/>
<polygon fill="black" stroke="black" points="290.5,-84.09 287,-74.09 283.5,-84.09 290.5,-84.09"/>
</g>
</g>
</svg>
