<?xml version="1.0" encoding="UTF-8" standalone="no"?>
<!DOCTYPE svg PUBLIC "-//W3C//DTD SVG 1.1//EN"
 "http://www.w3.org/Graphics/SVG/1.1/DTD/svg11.dtd">
<!-- Generated by graphviz version 2.43.0 (0)
 -->
<!-- Title: opp Pages: 1 -->
<svg width="276pt" height="137pt"
 viewBox="0.00 0.00 275.50 137.00" xmlns="http://www.w3.org/2000/svg" xmlns:xlink="http://www.w3.org/1999/xlink">
<g id="graph0" class="graph" transform="scale(1 1) rotate(0) translate(4 133)">
<title>opp</title>
<polygon fill="transparent" stroke="transparent" points="-4,4 -4,-133 271.5,-133 271.5,4 -4,4"/>
<!-- PacketDestreamer -->
<g id="node1" class="node">
<title>PacketDestreamer</title>
<g id="a_node1"><a xlink:href="inet.protocolelement.common.PacketDestreamer.html" xlink:title="Simple Module PacketDestreamer" target="_parent">
<polygon fill="#fff700" stroke="black" points="176,-74 70,-74 70,-55 176,-55 176,-74"/>
<text text-anchor="middle" x="123" y="-62" font-family="Helvetica,sans-Serif" font-size="10.00">PacketDestreamer</text>
</a>
</g>
</g>
<!-- CutthroughSource -->
<g id="node4" class="node">
<title>CutthroughSource</title>
<g id="a_node4"><a xlink:href="inet.protocolelement.cutthrough.CutthroughSource.html" xlink:title="Simple Module CutthroughSource" target="_parent">
<polygon fill="#fffcaf" stroke="black" points="104,-19 0,-19 0,0 104,0 104,-19"/>
<text text-anchor="middle" x="52" y="-7" font-family="Helvetica,sans-Serif" font-size="10.00">CutthroughSource</text>
</a>
</g>
</g>
<!-- PacketDestreamer&#45;&gt;CutthroughSource -->
<g id="edge3" class="edge">
<title>PacketDestreamer&#45;&gt;CutthroughSource</title>
<path fill="none" stroke="black" d="M111.59,-54.98C98.42,-45.15 76.87,-29.07 63.61,-19.17"/>
</g>
<!-- EthernetCutthroughSource -->
<g id="node5" class="node">
<title>EthernetCutthroughSource</title>
<g id="a_node5"><a xlink:href="inet.linklayer.ethernet.modular.EthernetCutthroughSource.html" xlink:title="Simple Module EthernetCutthroughSource" target="_parent">
<polygon fill="#fffcaf" stroke="black" points="267.5,-19 122.5,-19 122.5,0 267.5,0 267.5,-19"/>
<text text-anchor="middle" x="195" y="-7" font-family="Helvetica,sans-Serif" font-size="10.00">EthernetCutthroughSource</text>
</a>
</g>
</g>
<!-- PacketDestreamer&#45;&gt;EthernetCutthroughSource -->
<g id="edge4" class="edge">
<title>PacketDestreamer&#45;&gt;EthernetCutthroughSource</title>
<path fill="none" stroke="black" d="M134.57,-54.98C147.92,-45.15 169.78,-29.07 183.22,-19.17"/>
</g>
<!-- PacketProcessorBase -->
<g id="node2" class="node">
<title>PacketProcessorBase</title>
<g id="a_node2"><a xlink:href="inet.queueing.base.PacketProcessorBase.html" xlink:title="Simple Module PacketProcessorBase" target="_parent">
<polygon fill="#fffcaf" stroke="black" points="125.5,-129 6.5,-129 6.5,-110 125.5,-110 125.5,-129"/>
<text text-anchor="middle" x="66" y="-117" font-family="Helvetica,sans-Serif" font-size="10.00">PacketProcessorBase</text>
</a>
</g>
</g>
<!-- PacketProcessorBase&#45;&gt;PacketDestreamer -->
<g id="edge1" class="edge">
<title>PacketProcessorBase&#45;&gt;PacketDestreamer</title>
<path fill="none" stroke="black" d="M75.16,-109.98C85.73,-100.15 103.03,-84.07 113.68,-74.17"/>
</g>
<!-- IPacketFlow -->
<g id="node3" class="node">
<title>IPacketFlow</title>
<g id="a_node3"><a xlink:href="inet.queueing.contract.IPacketFlow.html" xlink:title="Module Interface IPacketFlow" target="_parent">
<polygon fill="#fffcaf" stroke="black" stroke-dasharray="5,2" points="218,-129 144,-129 144,-110 218,-110 218,-129"/>
<text text-anchor="middle" x="181" y="-117" font-family="Helvetica,sans-Serif" font-size="10.00">IPacketFlow</text>
</a>
</g>
</g>
<!-- IPacketFlow&#45;&gt;PacketDestreamer -->
<g id="edge2" class="edge">
<title>IPacketFlow&#45;&gt;PacketDestreamer</title>
<path fill="none" stroke="black" stroke-dasharray="5,2" d="M171.68,-109.98C160.92,-100.15 143.32,-84.07 132.49,-74.17"/>
</g>
</g>
</svg>
