<?xml version="1.0" encoding="UTF-8" standalone="no"?>
<!DOCTYPE svg PUBLIC "-//W3C//DTD SVG 1.1//EN"
 "http://www.w3.org/Graphics/SVG/1.1/DTD/svg11.dtd">
<!-- Generated by graphviz version 2.43.0 (0)
 -->
<!-- Title: opp Pages: 1 -->
<svg width="206pt" height="82pt"
 viewBox="0.00 0.00 205.50 82.00" xmlns="http://www.w3.org/2000/svg" xmlns:xlink="http://www.w3.org/1999/xlink">
<g id="graph0" class="graph" transform="scale(1 1) rotate(0) translate(4 78)">
<title>opp</title>
<polygon fill="transparent" stroke="transparent" points="-4,4 -4,-78 201.5,-78 201.5,4 -4,4"/>
<!-- MoBANNetwork -->
<g id="node1" class="node">
<title>MoBANNetwork</title>
<g id="a_node1"><a xlink:href="inet.examples.mobility.MoBANNetwork.html" xlink:title="Network MoBANNetwork" target="_parent">
<polygon fill="#9090ff" stroke="black" points="137,-74 43,-74 43,-55 137,-55 137,-74"/>
<text text-anchor="middle" x="90" y="-62" font-family="Helvetica,sans-Serif" font-size="10.00">MoBANNetwork</text>
</a>
</g>
</g>
<!-- MobileHost -->
<g id="node2" class="node">
<title>MobileHost</title>
<g id="a_node2"><a xlink:href="inet.examples.mobility.MobileHost.html" xlink:title="Compound Module MobileHost" target="_parent">
<polygon fill="#fffcaf" stroke="black" points="72,-19 0,-19 0,0 72,0 72,-19"/>
<text text-anchor="middle" x="36" y="-7" font-family="Helvetica,sans-Serif" font-size="10.00">MobileHost</text>
</a>
</g>
</g>
<!-- MoBANNetwork&#45;&gt;MobileHost -->
<g id="edge1" class="edge">
<title>MoBANNetwork&#45;&gt;MobileHost</title>
<path fill="none" stroke="black" d="M81.08,-54.75C73.22,-47.03 61.57,-35.6 52.08,-26.28"/>
<polygon fill="black" stroke="black" points="54.34,-23.6 44.75,-19.09 49.44,-28.59 54.34,-23.6"/>
</g>
<!-- MoBanCoordinator -->
<g id="node3" class="node">
<title>MoBanCoordinator</title>
<g id="a_node3"><a xlink:href="inet.mobility.group.MoBanCoordinator.html" xlink:title="Simple Module MoBanCoordinator" target="_parent">
<polygon fill="#fffcaf" stroke="black" points="197.5,-19 90.5,-19 90.5,0 197.5,0 197.5,-19"/>
<text text-anchor="middle" x="144" y="-7" font-family="Helvetica,sans-Serif" font-size="10.00">MoBanCoordinator</text>
</a>
</g>
</g>
<!-- MoBANNetwork&#45;&gt;MoBanCoordinator -->
<g id="edge2" class="edge">
<title>MoBANNetwork&#45;&gt;MoBanCoordinator</title>
<path fill="none" stroke="black" d="M98.92,-54.75C106.78,-47.03 118.43,-35.6 127.92,-26.28"/>
<polygon fill="black" stroke="black" points="130.56,-28.59 135.25,-19.09 125.66,-23.6 130.56,-28.59"/>
</g>
</g>
</svg>
