<?xml version="1.0" encoding="UTF-8" standalone="no"?>
<!DOCTYPE svg PUBLIC "-//W3C//DTD SVG 1.1//EN"
 "http://www.w3.org/Graphics/SVG/1.1/DTD/svg11.dtd">
<!-- Generated by graphviz version 2.43.0 (0)
 -->
<!-- Title: opp Pages: 1 -->
<svg width="416pt" height="82pt"
 viewBox="0.00 0.00 415.50 82.00" xmlns="http://www.w3.org/2000/svg" xmlns:xlink="http://www.w3.org/1999/xlink">
<g id="graph0" class="graph" transform="scale(1 1) rotate(0) translate(4 78)">
<title>opp</title>
<polygon fill="transparent" stroke="transparent" points="-4,4 -4,-78 411.5,-78 411.5,4 -4,4"/>
<!-- NClients -->
<g id="node1" class="node">
<title>NClients</title>
<g id="a_node1"><a xlink:href="inet.examples.inet.nclients.NClients.html" xlink:title="Network NClients" target="_parent">
<polygon fill="#9090ff" stroke="black" points="231.5,-74 173.5,-74 173.5,-55 231.5,-55 231.5,-74"/>
<text text-anchor="middle" x="202.5" y="-62" font-family="Helvetica,sans-Serif" font-size="10.00">NClients</text>
</a>
</g>
</g>
<!-- StandardHost -->
<g id="node2" class="node">
<title>StandardHost</title>
<g id="a_node2"><a xlink:href="inet.node.inet.StandardHost.html" xlink:title="Compound Module StandardHost" target="_parent">
<polygon fill="#fffcaf" stroke="black" points="83,-19 0,-19 0,0 83,0 83,-19"/>
<text text-anchor="middle" x="41.5" y="-7" font-family="Helvetica,sans-Serif" font-size="10.00">StandardHost</text>
</a>
</g>
</g>
<!-- NClients&#45;&gt;StandardHost -->
<g id="edge1" class="edge">
<title>NClients&#45;&gt;StandardHost</title>
<path fill="none" stroke="black" d="M176.63,-54.98C149.72,-46.13 107.38,-32.19 77.27,-22.28"/>
<polygon fill="black" stroke="black" points="78.16,-18.88 67.57,-19.08 75.97,-25.53 78.16,-18.88"/>
</g>
<!-- ethernetline -->
<g id="node3" class="node">
<title>ethernetline</title>
<g id="a_node3"><a xlink:href="inet.examples.inet.nclients.NClients.ethernetline.html" xlink:title="Channel ethernetline" target="_parent">
<polygon fill="#d0ffd0" stroke="black" points="177.5,-19 101.5,-19 101.5,0 177.5,0 177.5,-19"/>
<text text-anchor="middle" x="139.5" y="-7" font-family="Helvetica,sans-Serif" font-size="10.00">ethernetline</text>
</a>
</g>
</g>
<!-- NClients&#45;&gt;ethernetline -->
<g id="edge2" class="edge">
<title>NClients&#45;&gt;ethernetline</title>
<path fill="none" stroke="black" d="M192.38,-54.98C183.06,-47.15 169.03,-35.34 157.76,-25.86"/>
<polygon fill="black" stroke="black" points="159.71,-22.93 149.81,-19.17 155.21,-28.29 159.71,-22.93"/>
</g>
<!-- Ipv4NetworkConfigurator -->
<g id="node4" class="node">
<title>Ipv4NetworkConfigurator</title>
<g id="a_node4"><a xlink:href="inet.networklayer.configurator.ipv4.Ipv4NetworkConfigurator.html" xlink:title="Simple Module Ipv4NetworkConfigurator" target="_parent">
<polygon fill="#fffcaf" stroke="black" points="335,-19 196,-19 196,0 335,0 335,-19"/>
<text text-anchor="middle" x="265.5" y="-7" font-family="Helvetica,sans-Serif" font-size="10.00">Ipv4NetworkConfigurator</text>
</a>
</g>
</g>
<!-- NClients&#45;&gt;Ipv4NetworkConfigurator -->
<g id="edge3" class="edge">
<title>NClients&#45;&gt;Ipv4NetworkConfigurator</title>
<path fill="none" stroke="black" d="M212.62,-54.98C221.94,-47.15 235.97,-35.34 247.24,-25.86"/>
<polygon fill="black" stroke="black" points="249.79,-28.29 255.19,-19.17 245.29,-22.93 249.79,-28.29"/>
</g>
<!-- Router -->
<g id="node5" class="node">
<title>Router</title>
<g id="a_node5"><a xlink:href="inet.node.inet.Router.html" xlink:title="Compound Module Router" target="_parent">
<polygon fill="#fffcaf" stroke="black" points="407.5,-19 353.5,-19 353.5,0 407.5,0 407.5,-19"/>
<text text-anchor="middle" x="380.5" y="-7" font-family="Helvetica,sans-Serif" font-size="10.00">Router</text>
</a>
</g>
</g>
<!-- NClients&#45;&gt;Router -->
<g id="edge4" class="edge">
<title>NClients&#45;&gt;Router</title>
<path fill="none" stroke="black" d="M231.1,-54.98C261.65,-45.89 310.17,-31.44 343.58,-21.49"/>
<polygon fill="black" stroke="black" points="344.85,-24.77 353.43,-18.56 342.85,-18.06 344.85,-24.77"/>
</g>
</g>
</svg>
