<?xml version="1.0" encoding="UTF-8" standalone="no"?>
<!DOCTYPE svg PUBLIC "-//W3C//DTD SVG 1.1//EN"
 "http://www.w3.org/Graphics/SVG/1.1/DTD/svg11.dtd">
<!-- Generated by graphviz version 2.43.0 (0)
 -->
<!-- Title: opp Pages: 1 -->
<svg width="534pt" height="82pt"
 viewBox="0.00 0.00 534.00 82.00" xmlns="http://www.w3.org/2000/svg" xmlns:xlink="http://www.w3.org/1999/xlink">
<g id="graph0" class="graph" transform="scale(1 1) rotate(0) translate(4 78)">
<title>opp</title>
<polygon fill="transparent" stroke="transparent" points="-4,4 -4,-78 530,-78 530,4 -4,4"/>
<!-- PriorityBufferTutorialStep -->
<g id="node1" class="node">
<title>PriorityBufferTutorialStep</title>
<g id="a_node1"><a xlink:href="inet.tutorials.queueing.PriorityBufferTutorialStep.html" xlink:title="Network PriorityBufferTutorialStep" target="_parent">
<polygon fill="#9090ff" stroke="black" points="321.5,-74 182.5,-74 182.5,-55 321.5,-55 321.5,-74"/>
<text text-anchor="middle" x="252" y="-62" font-family="Helvetica,sans-Serif" font-size="10.00">PriorityBufferTutorialStep</text>
</a>
</g>
</g>
<!-- PacketQueue -->
<g id="node2" class="node">
<title>PacketQueue</title>
<g id="a_node2"><a xlink:href="inet.queueing.queue.PacketQueue.html" xlink:title="Simple Module PacketQueue" target="_parent">
<polygon fill="#fffcaf" stroke="black" points="80,-19 0,-19 0,0 80,0 80,-19"/>
<text text-anchor="middle" x="40" y="-7" font-family="Helvetica,sans-Serif" font-size="10.00">PacketQueue</text>
</a>
</g>
</g>
<!-- PriorityBufferTutorialStep&#45;&gt;PacketQueue -->
<g id="edge1" class="edge">
<title>PriorityBufferTutorialStep&#45;&gt;PacketQueue</title>
<path fill="none" stroke="black" d="M217.94,-54.98C181.58,-45.89 123.83,-31.46 84.03,-21.51"/>
<polygon fill="black" stroke="black" points="84.88,-18.11 74.33,-19.08 83.18,-24.9 84.88,-18.11"/>
</g>
<!-- IdealChannel -->
<g id="node3" class="node">
<title>IdealChannel</title>
<g id="a_node3"><a xlink:href="ned.IdealChannel.html" xlink:title="Channel IdealChannel" target="_parent">
<polygon fill="#d0ffd0" stroke="black" points="178,-19 98,-19 98,0 178,0 178,-19"/>
<text text-anchor="middle" x="138" y="-7" font-family="Helvetica,sans-Serif" font-size="10.00">IdealChannel</text>
</a>
</g>
</g>
<!-- PriorityBufferTutorialStep&#45;&gt;IdealChannel -->
<g id="edge2" class="edge">
<title>PriorityBufferTutorialStep&#45;&gt;IdealChannel</title>
<path fill="none" stroke="black" d="M233.68,-54.98C215.34,-46.46 186.89,-33.23 165.77,-23.41"/>
<polygon fill="black" stroke="black" points="167.19,-20.21 156.65,-19.17 164.24,-26.56 167.19,-20.21"/>
</g>
<!-- ActivePacketSource -->
<g id="node4" class="node">
<title>ActivePacketSource</title>
<g id="a_node4"><a xlink:href="inet.queueing.source.ActivePacketSource.html" xlink:title="Simple Module ActivePacketSource" target="_parent">
<polygon fill="#fffcaf" stroke="black" points="308,-19 196,-19 196,0 308,0 308,-19"/>
<text text-anchor="middle" x="252" y="-7" font-family="Helvetica,sans-Serif" font-size="10.00">ActivePacketSource</text>
</a>
</g>
</g>
<!-- PriorityBufferTutorialStep&#45;&gt;ActivePacketSource -->
<g id="edge3" class="edge">
<title>PriorityBufferTutorialStep&#45;&gt;ActivePacketSource</title>
<path fill="none" stroke="black" d="M252,-54.75C252,-47.8 252,-37.85 252,-29.13"/>
<polygon fill="black" stroke="black" points="255.5,-29.09 252,-19.09 248.5,-29.09 255.5,-29.09"/>
</g>
<!-- PriorityBuffer -->
<g id="node5" class="node">
<title>PriorityBuffer</title>
<g id="a_node5"><a xlink:href="inet.queueing.buffer.PriorityBuffer.html" xlink:title="Simple Module PriorityBuffer" target="_parent">
<polygon fill="#fffcaf" stroke="black" points="407.5,-19 326.5,-19 326.5,0 407.5,0 407.5,-19"/>
<text text-anchor="middle" x="367" y="-7" font-family="Helvetica,sans-Serif" font-size="10.00">PriorityBuffer</text>
</a>
</g>
</g>
<!-- PriorityBufferTutorialStep&#45;&gt;PriorityBuffer -->
<g id="edge4" class="edge">
<title>PriorityBufferTutorialStep&#45;&gt;PriorityBuffer</title>
<path fill="none" stroke="black" d="M270.48,-54.98C288.98,-46.46 317.68,-33.23 338.98,-23.41"/>
<polygon fill="black" stroke="black" points="340.57,-26.53 348.19,-19.17 337.64,-20.18 340.57,-26.53"/>
</g>
<!-- ActivePacketSink -->
<g id="node6" class="node">
<title>ActivePacketSink</title>
<g id="a_node6"><a xlink:href="inet.queueing.sink.ActivePacketSink.html" xlink:title="Simple Module ActivePacketSink" target="_parent">
<polygon fill="#fffcaf" stroke="black" points="526,-19 426,-19 426,0 526,0 526,-19"/>
<text text-anchor="middle" x="476" y="-7" font-family="Helvetica,sans-Serif" font-size="10.00">ActivePacketSink</text>
</a>
</g>
</g>
<!-- PriorityBufferTutorialStep&#45;&gt;ActivePacketSink -->
<g id="edge5" class="edge">
<title>PriorityBufferTutorialStep&#45;&gt;ActivePacketSink</title>
<path fill="none" stroke="black" d="M287.99,-54.98C326.49,-45.87 387.69,-31.4 429.74,-21.45"/>
<polygon fill="black" stroke="black" points="430.8,-24.79 439.73,-19.08 429.19,-17.98 430.8,-24.79"/>
</g>
</g>
</svg>
