<?xml version="1.0" encoding="UTF-8" standalone="no"?>
<!DOCTYPE svg PUBLIC "-//W3C//DTD SVG 1.1//EN"
 "http://www.w3.org/Graphics/SVG/1.1/DTD/svg11.dtd">
<!-- Generated by graphviz version 2.43.0 (0)
 -->
<!-- Title: opp Pages: 1 -->
<svg width="350pt" height="82pt"
 viewBox="0.00 0.00 350.00 82.00" xmlns="http://www.w3.org/2000/svg" xmlns:xlink="http://www.w3.org/1999/xlink">
<g id="graph0" class="graph" transform="scale(1 1) rotate(0) translate(4 78)">
<title>opp</title>
<polygon fill="transparent" stroke="transparent" points="-4,4 -4,-78 346,-78 346,4 -4,4"/>
<!-- Ieee80211Mac -->
<g id="node1" class="node">
<title>Ieee80211Mac</title>
<g id="a_node1"><a xlink:href="inet.linklayer.ieee80211.mac.Ieee80211Mac.html" xlink:title="Compound Module Ieee80211Mac" target="_parent">
<polygon fill="#fff700" stroke="black" points="215,-74 127,-74 127,-55 215,-55 215,-74"/>
<text text-anchor="middle" x="171" y="-62" font-family="Helvetica,sans-Serif" font-size="10.00">Ieee80211Mac</text>
</a>
</g>
</g>
<!-- ITx -->
<g id="node2" class="node">
<title>ITx</title>
<g id="a_node2"><a xlink:href="inet.linklayer.ieee80211.mac.contract.ITx.html" xlink:title="Module Interface ITx" target="_parent">
<polygon fill="#fffcaf" stroke="black" stroke-dasharray="5,2" points="54,-19 0,-19 0,0 54,0 54,-19"/>
<text text-anchor="middle" x="27" y="-7" font-family="Helvetica,sans-Serif" font-size="10.00">ITx</text>
</a>
</g>
</g>
<!-- Ieee80211Mac&#45;&gt;ITx -->
<g id="edge1" class="edge">
<title>Ieee80211Mac&#45;&gt;ITx</title>
<path fill="none" stroke="black" d="M147.86,-54.98C124.18,-46.27 87.13,-32.63 60.29,-22.75"/>
<polygon fill="black" stroke="black" points="61.15,-19.34 50.56,-19.17 58.73,-25.91 61.15,-19.34"/>
</g>
<!-- IDs -->
<g id="node3" class="node">
<title>IDs</title>
<g id="a_node3"><a xlink:href="inet.linklayer.ieee80211.mac.contract.IDs.html" xlink:title="Module Interface IDs" target="_parent">
<polygon fill="#fffcaf" stroke="black" stroke-dasharray="5,2" points="126,-19 72,-19 72,0 126,0 126,-19"/>
<text text-anchor="middle" x="99" y="-7" font-family="Helvetica,sans-Serif" font-size="10.00">IDs</text>
</a>
</g>
</g>
<!-- Ieee80211Mac&#45;&gt;IDs -->
<g id="edge2" class="edge">
<title>Ieee80211Mac&#45;&gt;IDs</title>
<path fill="none" stroke="black" d="M159.43,-54.98C148.58,-47 132.12,-34.88 119.12,-25.31"/>
<polygon fill="black" stroke="black" points="120.91,-22.28 110.78,-19.17 116.76,-27.92 120.91,-22.28"/>
</g>
<!-- IHcf -->
<g id="node4" class="node">
<title>IHcf</title>
<g id="a_node4"><a xlink:href="inet.linklayer.ieee80211.mac.contract.IHcf.html" xlink:title="Module Interface IHcf" target="_parent">
<polygon fill="#fffcaf" stroke="black" stroke-dasharray="5,2" points="198,-19 144,-19 144,0 198,0 198,-19"/>
<text text-anchor="middle" x="171" y="-7" font-family="Helvetica,sans-Serif" font-size="10.00">IHcf</text>
</a>
</g>
</g>
<!-- Ieee80211Mac&#45;&gt;IHcf -->
<g id="edge3" class="edge">
<title>Ieee80211Mac&#45;&gt;IHcf</title>
<path fill="none" stroke="black" d="M171,-54.75C171,-47.8 171,-37.85 171,-29.13"/>
<polygon fill="black" stroke="black" points="174.5,-29.09 171,-19.09 167.5,-29.09 174.5,-29.09"/>
</g>
<!-- IRx -->
<g id="node5" class="node">
<title>IRx</title>
<g id="a_node5"><a xlink:href="inet.linklayer.ieee80211.mac.contract.IRx.html" xlink:title="Module Interface IRx" target="_parent">
<polygon fill="#fffcaf" stroke="black" stroke-dasharray="5,2" points="270,-19 216,-19 216,0 270,0 270,-19"/>
<text text-anchor="middle" x="243" y="-7" font-family="Helvetica,sans-Serif" font-size="10.00">IRx</text>
</a>
</g>
</g>
<!-- Ieee80211Mac&#45;&gt;IRx -->
<g id="edge4" class="edge">
<title>Ieee80211Mac&#45;&gt;IRx</title>
<path fill="none" stroke="black" d="M182.57,-54.98C193.42,-47 209.88,-34.88 222.88,-25.31"/>
<polygon fill="black" stroke="black" points="225.24,-27.92 231.22,-19.17 221.09,-22.28 225.24,-27.92"/>
</g>
<!-- IDcf -->
<g id="node6" class="node">
<title>IDcf</title>
<g id="a_node6"><a xlink:href="inet.linklayer.ieee80211.mac.contract.IDcf.html" xlink:title="Module Interface IDcf" target="_parent">
<polygon fill="#fffcaf" stroke="black" stroke-dasharray="5,2" points="342,-19 288,-19 288,0 342,0 342,-19"/>
<text text-anchor="middle" x="315" y="-7" font-family="Helvetica,sans-Serif" font-size="10.00">IDcf</text>
</a>
</g>
</g>
<!-- Ieee80211Mac&#45;&gt;IDcf -->
<g id="edge5" class="edge">
<title>Ieee80211Mac&#45;&gt;IDcf</title>
<path fill="none" stroke="black" d="M194.14,-54.98C217.82,-46.27 254.87,-32.63 281.71,-22.75"/>
<polygon fill="black" stroke="black" points="283.27,-25.91 291.44,-19.17 280.85,-19.34 283.27,-25.91"/>
</g>
</g>
</svg>
