<?xml version="1.0" encoding="UTF-8" standalone="no"?>
<!DOCTYPE svg PUBLIC "-//W3C//DTD SVG 1.1//EN"
 "http://www.w3.org/Graphics/SVG/1.1/DTD/svg11.dtd">
<!-- Generated by graphviz version 2.43.0 (0)
 -->
<!-- Title: opp Pages: 1 -->
<svg width="296pt" height="137pt"
 viewBox="0.00 0.00 295.50 137.00" xmlns="http://www.w3.org/2000/svg" xmlns:xlink="http://www.w3.org/1999/xlink">
<g id="graph0" class="graph" transform="scale(1 1) rotate(0) translate(4 133)">
<title>opp</title>
<polygon fill="transparent" stroke="transparent" points="-4,4 -4,-133 291.5,-133 291.5,4 -4,4"/>
<!-- StreamingTransmitterBase -->
<g id="node1" class="node">
<title>StreamingTransmitterBase</title>
<g id="a_node1"><a xlink:href="inet.protocolelement.transceiver.base.StreamingTransmitterBase.html" xlink:title="Simple Module StreamingTransmitterBase" target="_parent">
<polygon fill="#fff700" stroke="black" points="210,-74 64,-74 64,-55 210,-55 210,-74"/>
<text text-anchor="middle" x="137" y="-62" font-family="Helvetica,sans-Serif" font-size="10.00">StreamingTransmitterBase</text>
</a>
</g>
</g>
<!-- StreamingTransmitter -->
<g id="node3" class="node">
<title>StreamingTransmitter</title>
<g id="a_node3"><a xlink:href="inet.protocolelement.transceiver.StreamingTransmitter.html" xlink:title="Simple Module StreamingTransmitter" target="_parent">
<polygon fill="#fffcaf" stroke="black" points="122,-19 0,-19 0,0 122,0 122,-19"/>
<text text-anchor="middle" x="61" y="-7" font-family="Helvetica,sans-Serif" font-size="10.00">StreamingTransmitter</text>
</a>
</g>
</g>
<!-- StreamingTransmitterBase&#45;&gt;StreamingTransmitter -->
<g id="edge2" class="edge">
<title>StreamingTransmitterBase&#45;&gt;StreamingTransmitter</title>
<path fill="none" stroke="black" d="M124.79,-54.98C110.69,-45.15 87.62,-29.07 73.43,-19.17"/>
</g>
<!-- StreamThroughTransmitter -->
<g id="node4" class="node">
<title>StreamThroughTransmitter</title>
<g id="a_node4"><a xlink:href="inet.protocolelement.transceiver.StreamThroughTransmitter.html" xlink:title="Simple Module StreamThroughTransmitter" target="_parent">
<polygon fill="#fffcaf" stroke="black" points="287.5,-19 140.5,-19 140.5,0 287.5,0 287.5,-19"/>
<text text-anchor="middle" x="214" y="-7" font-family="Helvetica,sans-Serif" font-size="10.00">StreamThroughTransmitter</text>
</a>
</g>
</g>
<!-- StreamingTransmitterBase&#45;&gt;StreamThroughTransmitter -->
<g id="edge3" class="edge">
<title>StreamingTransmitterBase&#45;&gt;StreamThroughTransmitter</title>
<path fill="none" stroke="black" d="M149.37,-54.98C163.66,-45.15 187.02,-29.07 201.4,-19.17"/>
</g>
<!-- PacketTransmitterBase -->
<g id="node2" class="node">
<title>PacketTransmitterBase</title>
<g id="a_node2"><a xlink:href="inet.protocolelement.transceiver.base.PacketTransmitterBase.html" xlink:title="Simple Module PacketTransmitterBase" target="_parent">
<polygon fill="#fffcaf" stroke="black" points="201,-129 73,-129 73,-110 201,-110 201,-129"/>
<text text-anchor="middle" x="137" y="-117" font-family="Helvetica,sans-Serif" font-size="10.00">PacketTransmitterBase</text>
</a>
</g>
</g>
<!-- PacketTransmitterBase&#45;&gt;StreamingTransmitterBase -->
<g id="edge1" class="edge">
<title>PacketTransmitterBase&#45;&gt;StreamingTransmitterBase</title>
<path fill="none" stroke="black" d="M137,-109.75C137,-99.87 137,-83.9 137,-74.09"/>
</g>
</g>
</svg>
