<?xml version="1.0" encoding="UTF-8" standalone="no"?>
<!DOCTYPE svg PUBLIC "-//W3C//DTD SVG 1.1//EN"
 "http://www.w3.org/Graphics/SVG/1.1/DTD/svg11.dtd">
<!-- Generated by graphviz version 2.43.0 (0)
 -->
<!-- Title: opp Pages: 1 -->
<svg width="576pt" height="82pt"
 viewBox="0.00 0.00 576.00 82.00" xmlns="http://www.w3.org/2000/svg" xmlns:xlink="http://www.w3.org/1999/xlink">
<g id="graph0" class="graph" transform="scale(1 1) rotate(0) translate(4 78)">
<title>opp</title>
<polygon fill="transparent" stroke="transparent" points="-4,4 -4,-78 572,-78 572,4 -4,4"/>
<!-- ARPTest -->
<g id="node1" class="node">
<title>ARPTest</title>
<g id="a_node1"><a xlink:href="inet.examples.ethernet.arptest.ARPTest.html" xlink:title="Network ARPTest" target="_parent">
<polygon fill="#9090ff" stroke="black" points="313,-74 257,-74 257,-55 313,-55 313,-74"/>
<text text-anchor="middle" x="285" y="-62" font-family="Helvetica,sans-Serif" font-size="10.00">ARPTest</text>
</a>
</g>
</g>
<!-- ethline -->
<g id="node2" class="node">
<title>ethline</title>
<g id="a_node2"><a xlink:href="inet.examples.ethernet.arptest.ARPTest.ethline.html" xlink:title="Channel ethline" target="_parent">
<polygon fill="#d0ffd0" stroke="black" points="54,-19 0,-19 0,0 54,0 54,-19"/>
<text text-anchor="middle" x="27" y="-7" font-family="Helvetica,sans-Serif" font-size="10.00">ethline</text>
</a>
</g>
</g>
<!-- ARPTest&#45;&gt;ethline -->
<g id="edge1" class="edge">
<title>ARPTest&#45;&gt;ethline</title>
<path fill="none" stroke="black" d="M256.9,-58.19C216.52,-50.48 139.5,-35.53 64.23,-19.21"/>
<polygon fill="black" stroke="black" points="64.62,-15.71 54.1,-17 63.13,-22.55 64.62,-15.71"/>
</g>
<!-- StandardHost -->
<g id="node3" class="node">
<title>StandardHost</title>
<g id="a_node3"><a xlink:href="inet.node.inet.StandardHost.html" xlink:title="Compound Module StandardHost" target="_parent">
<polygon fill="#fffcaf" stroke="black" points="155.5,-19 72.5,-19 72.5,0 155.5,0 155.5,-19"/>
<text text-anchor="middle" x="114" y="-7" font-family="Helvetica,sans-Serif" font-size="10.00">StandardHost</text>
</a>
</g>
</g>
<!-- ARPTest&#45;&gt;StandardHost -->
<g id="edge2" class="edge">
<title>ARPTest&#45;&gt;StandardHost</title>
<path fill="none" stroke="black" d="M257.53,-54.98C228.82,-46.09 183.58,-32.07 151.58,-22.15"/>
<polygon fill="black" stroke="black" points="152.28,-18.7 141.69,-19.08 150.2,-25.39 152.28,-18.7"/>
</g>
<!-- EthernetSwitch -->
<g id="node4" class="node">
<title>EthernetSwitch</title>
<g id="a_node4"><a xlink:href="inet.node.ethernet.EthernetSwitch.html" xlink:title="Compound Module EthernetSwitch" target="_parent">
<polygon fill="#fffcaf" stroke="black" points="264,-19 174,-19 174,0 264,0 264,-19"/>
<text text-anchor="middle" x="219" y="-7" font-family="Helvetica,sans-Serif" font-size="10.00">EthernetSwitch</text>
</a>
</g>
</g>
<!-- ARPTest&#45;&gt;EthernetSwitch -->
<g id="edge3" class="edge">
<title>ARPTest&#45;&gt;EthernetSwitch</title>
<path fill="none" stroke="black" d="M274.4,-54.98C264.54,-47.07 249.65,-35.11 237.78,-25.58"/>
<polygon fill="black" stroke="black" points="239.79,-22.7 229.8,-19.17 235.4,-28.16 239.79,-22.7"/>
</g>
<!-- Ipv4NetworkConfigurator -->
<g id="node5" class="node">
<title>Ipv4NetworkConfigurator</title>
<g id="a_node5"><a xlink:href="inet.networklayer.configurator.ipv4.Ipv4NetworkConfigurator.html" xlink:title="Simple Module Ipv4NetworkConfigurator" target="_parent">
<polygon fill="#fffcaf" stroke="black" points="421.5,-19 282.5,-19 282.5,0 421.5,0 421.5,-19"/>
<text text-anchor="middle" x="352" y="-7" font-family="Helvetica,sans-Serif" font-size="10.00">Ipv4NetworkConfigurator</text>
</a>
</g>
</g>
<!-- ARPTest&#45;&gt;Ipv4NetworkConfigurator -->
<g id="edge4" class="edge">
<title>ARPTest&#45;&gt;Ipv4NetworkConfigurator</title>
<path fill="none" stroke="black" d="M295.76,-54.98C305.77,-47.07 320.89,-35.11 332.93,-25.58"/>
<polygon fill="black" stroke="black" points="335.37,-28.12 341.04,-19.17 331.03,-22.63 335.37,-28.12"/>
</g>
<!-- fiberline -->
<g id="node6" class="node">
<title>fiberline</title>
<g id="a_node6"><a xlink:href="inet.examples.ethernet.arptest.ARPTest.fiberline.html" xlink:title="Channel fiberline" target="_parent">
<polygon fill="#d0ffd0" stroke="black" points="496,-19 440,-19 440,0 496,0 496,-19"/>
<text text-anchor="middle" x="468" y="-7" font-family="Helvetica,sans-Serif" font-size="10.00">fiberline</text>
</a>
</g>
</g>
<!-- ARPTest&#45;&gt;fiberline -->
<g id="edge5" class="edge">
<title>ARPTest&#45;&gt;fiberline</title>
<path fill="none" stroke="black" d="M313.19,-55.33C344.49,-46.27 395.18,-31.59 429.97,-21.51"/>
<polygon fill="black" stroke="black" points="431.14,-24.82 439.78,-18.67 429.2,-18.09 431.14,-24.82"/>
</g>
<!-- Router -->
<g id="node7" class="node">
<title>Router</title>
<g id="a_node7"><a xlink:href="inet.node.inet.Router.html" xlink:title="Compound Module Router" target="_parent">
<polygon fill="#fffcaf" stroke="black" points="568,-19 514,-19 514,0 568,0 568,-19"/>
<text text-anchor="middle" x="541" y="-7" font-family="Helvetica,sans-Serif" font-size="10.00">Router</text>
</a>
</g>
</g>
<!-- ARPTest&#45;&gt;Router -->
<g id="edge6" class="edge">
<title>ARPTest&#45;&gt;Router</title>
<path fill="none" stroke="black" d="M313.19,-58.1C353.3,-50.35 429.39,-35.41 503.87,-19.19"/>
<polygon fill="black" stroke="black" points="504.87,-22.56 513.89,-17 503.38,-15.72 504.87,-22.56"/>
</g>
</g>
</svg>
