<?xml version="1.0" encoding="UTF-8" standalone="no"?>
<!DOCTYPE svg PUBLIC "-//W3C//DTD SVG 1.1//EN"
 "http://www.w3.org/Graphics/SVG/1.1/DTD/svg11.dtd">
<!-- Generated by graphviz version 2.43.0 (0)
 -->
<!-- Title: opp Pages: 1 -->
<svg width="1086pt" height="82pt"
 viewBox="0.00 0.00 1086.00 82.00" xmlns="http://www.w3.org/2000/svg" xmlns:xlink="http://www.w3.org/1999/xlink">
<g id="graph0" class="graph" transform="scale(1 1) rotate(0) translate(4 78)">
<title>opp</title>
<polygon fill="transparent" stroke="transparent" points="-4,4 -4,-78 1082,-78 1082,4 -4,4"/>
<!-- TelnetServerConnection -->
<g id="node1" class="node">
<title>TelnetServerConnection</title>
<g id="a_node1"><a xlink:href="inet.applications.tcpapp.TelnetServerConnection.html" xlink:title="Compound Module TelnetServerConnection" target="_parent">
<polygon fill="#fff700" stroke="black" points="570.5,-74 438.5,-74 438.5,-55 570.5,-55 570.5,-74"/>
<text text-anchor="middle" x="504.5" y="-62" font-family="Helvetica,sans-Serif" font-size="10.00">TelnetServerConnection</text>
</a>
</g>
</g>
<!-- TcpServerSocketIo -->
<g id="node2" class="node">
<title>TcpServerSocketIo</title>
<g id="a_node2"><a xlink:href="inet.applications.tcpapp.TcpServerSocketIo.html" xlink:title="Simple Module TcpServerSocketIo" target="_parent">
<polygon fill="#fffcaf" stroke="black" points="105,-19 0,-19 0,0 105,0 105,-19"/>
<text text-anchor="middle" x="52.5" y="-7" font-family="Helvetica,sans-Serif" font-size="10.00">TcpServerSocketIo</text>
</a>
</g>
</g>
<!-- TelnetServerConnection&#45;&gt;TcpServerSocketIo -->
<g id="edge1" class="edge">
<title>TelnetServerConnection&#45;&gt;TcpServerSocketIo</title>
<path fill="none" stroke="black" d="M438.37,-56.49C362.7,-48.34 234.77,-34.23 115.13,-19.18"/>
<polygon fill="black" stroke="black" points="115.42,-15.69 105.06,-17.91 114.54,-22.63 115.42,-15.69"/>
</g>
<!-- IPassivePacketSink -->
<g id="node3" class="node">
<title>IPassivePacketSink</title>
<g id="a_node3"><a xlink:href="inet.queueing.contract.IPassivePacketSink.html" xlink:title="Module Interface IPassivePacketSink" target="_parent">
<polygon fill="#fffcaf" stroke="black" stroke-dasharray="5,2" points="232,-19 123,-19 123,0 232,0 232,-19"/>
<text text-anchor="middle" x="177.5" y="-7" font-family="Helvetica,sans-Serif" font-size="10.00">IPassivePacketSink</text>
</a>
</g>
</g>
<!-- TelnetServerConnection&#45;&gt;IPassivePacketSink -->
<g id="edge2" class="edge">
<title>TelnetServerConnection&#45;&gt;IPassivePacketSink</title>
<path fill="none" stroke="black" d="M451.96,-54.98C394.24,-45.63 301.59,-30.61 240.14,-20.65"/>
<polygon fill="black" stroke="black" points="240.61,-17.18 230.18,-19.04 239.49,-24.09 240.61,-17.18"/>
</g>
<!-- PacketCloner -->
<g id="node4" class="node">
<title>PacketCloner</title>
<g id="a_node4"><a xlink:href="inet.queueing.common.PacketCloner.html" xlink:title="Simple Module PacketCloner" target="_parent">
<polygon fill="#fffcaf" stroke="black" points="330.5,-19 250.5,-19 250.5,0 330.5,0 330.5,-19"/>
<text text-anchor="middle" x="290.5" y="-7" font-family="Helvetica,sans-Serif" font-size="10.00">PacketCloner</text>
</a>
</g>
</g>
<!-- TelnetServerConnection&#45;&gt;PacketCloner -->
<g id="edge3" class="edge">
<title>TelnetServerConnection&#45;&gt;PacketCloner</title>
<path fill="none" stroke="black" d="M470.12,-54.98C433.41,-45.89 375.12,-31.46 334.95,-21.51"/>
<polygon fill="black" stroke="black" points="335.7,-18.09 325.15,-19.08 334.02,-24.88 335.7,-18.09"/>
</g>
<!-- IPacketClassifier -->
<g id="node5" class="node">
<title>IPacketClassifier</title>
<g id="a_node5"><a xlink:href="inet.queueing.contract.IPacketClassifier.html" xlink:title="Module Interface IPacketClassifier" target="_parent">
<polygon fill="#fffcaf" stroke="black" stroke-dasharray="5,2" points="444.5,-19 348.5,-19 348.5,0 444.5,0 444.5,-19"/>
<text text-anchor="middle" x="396.5" y="-7" font-family="Helvetica,sans-Serif" font-size="10.00">IPacketClassifier</text>
</a>
</g>
</g>
<!-- TelnetServerConnection&#45;&gt;IPacketClassifier -->
<g id="edge4" class="edge">
<title>TelnetServerConnection&#45;&gt;IPacketClassifier</title>
<path fill="none" stroke="black" d="M487.15,-54.98C469.93,-46.54 443.3,-33.47 423.35,-23.68"/>
<polygon fill="black" stroke="black" points="424.69,-20.43 414.17,-19.17 421.6,-26.72 424.69,-20.43"/>
</g>
<!-- IPacketServer -->
<g id="node6" class="node">
<title>IPacketServer</title>
<g id="a_node6"><a xlink:href="inet.queueing.contract.IPacketServer.html" xlink:title="Module Interface IPacketServer" target="_parent">
<polygon fill="#fffcaf" stroke="black" stroke-dasharray="5,2" points="546,-19 463,-19 463,0 546,0 546,-19"/>
<text text-anchor="middle" x="504.5" y="-7" font-family="Helvetica,sans-Serif" font-size="10.00">IPacketServer</text>
</a>
</g>
</g>
<!-- TelnetServerConnection&#45;&gt;IPacketServer -->
<g id="edge5" class="edge">
<title>TelnetServerConnection&#45;&gt;IPacketServer</title>
<path fill="none" stroke="black" d="M504.5,-54.75C504.5,-47.8 504.5,-37.85 504.5,-29.13"/>
<polygon fill="black" stroke="black" points="508,-29.09 504.5,-19.09 501,-29.09 508,-29.09"/>
</g>
<!-- PacketBasedTokenGenerator -->
<g id="node7" class="node">
<title>PacketBasedTokenGenerator</title>
<g id="a_node7"><a xlink:href="inet.queueing.tokengenerator.PacketBasedTokenGenerator.html" xlink:title="Simple Module PacketBasedTokenGenerator" target="_parent">
<polygon fill="#fffcaf" stroke="black" points="719,-19 564,-19 564,0 719,0 719,-19"/>
<text text-anchor="middle" x="641.5" y="-7" font-family="Helvetica,sans-Serif" font-size="10.00">PacketBasedTokenGenerator</text>
</a>
</g>
</g>
<!-- TelnetServerConnection&#45;&gt;PacketBasedTokenGenerator -->
<g id="edge6" class="edge">
<title>TelnetServerConnection&#45;&gt;PacketBasedTokenGenerator</title>
<path fill="none" stroke="black" d="M526.51,-54.98C548.95,-46.3 583.98,-32.75 609.49,-22.88"/>
<polygon fill="black" stroke="black" points="611.02,-26.04 619.09,-19.17 608.5,-19.51 611.02,-26.04"/>
</g>
<!-- IdealChannel -->
<g id="node8" class="node">
<title>IdealChannel</title>
<g id="a_node8"><a xlink:href="ned.IdealChannel.html" xlink:title="Channel IdealChannel" target="_parent">
<polygon fill="#d0ffd0" stroke="black" points="817.5,-19 737.5,-19 737.5,0 817.5,0 817.5,-19"/>
<text text-anchor="middle" x="777.5" y="-7" font-family="Helvetica,sans-Serif" font-size="10.00">IdealChannel</text>
</a>
</g>
</g>
<!-- TelnetServerConnection&#45;&gt;IdealChannel -->
<g id="edge7" class="edge">
<title>TelnetServerConnection&#45;&gt;IdealChannel</title>
<path fill="none" stroke="black" d="M548.36,-54.98C597.25,-45.49 676.17,-30.17 727.44,-20.22"/>
<polygon fill="black" stroke="black" points="728.16,-23.65 737.31,-18.3 726.82,-16.77 728.16,-23.65"/>
</g>
<!-- IPassivePacketSource -->
<g id="node9" class="node">
<title>IPassivePacketSource</title>
<g id="a_node9"><a xlink:href="inet.queueing.contract.IPassivePacketSource.html" xlink:title="Module Interface IPassivePacketSource" target="_parent">
<polygon fill="#fffcaf" stroke="black" stroke-dasharray="5,2" points="957,-19 836,-19 836,0 957,0 957,-19"/>
<text text-anchor="middle" x="896.5" y="-7" font-family="Helvetica,sans-Serif" font-size="10.00">IPassivePacketSource</text>
</a>
</g>
</g>
<!-- TelnetServerConnection&#45;&gt;IPassivePacketSource -->
<g id="edge8" class="edge">
<title>TelnetServerConnection&#45;&gt;IPassivePacketSource</title>
<path fill="none" stroke="black" d="M567.48,-54.98C638.07,-45.44 752.24,-30 825.83,-20.06"/>
<polygon fill="black" stroke="black" points="826.49,-23.5 835.93,-18.69 825.55,-16.56 826.49,-23.5"/>
</g>
<!-- PacketMultiplexer -->
<g id="node10" class="node">
<title>PacketMultiplexer</title>
<g id="a_node10"><a xlink:href="inet.queueing.common.PacketMultiplexer.html" xlink:title="Simple Module PacketMultiplexer" target="_parent">
<polygon fill="#fffcaf" stroke="black" points="1078,-19 975,-19 975,0 1078,0 1078,-19"/>
<text text-anchor="middle" x="1026.5" y="-7" font-family="Helvetica,sans-Serif" font-size="10.00">PacketMultiplexer</text>
</a>
</g>
</g>
<!-- TelnetServerConnection&#45;&gt;PacketMultiplexer -->
<g id="edge9" class="edge">
<title>TelnetServerConnection&#45;&gt;PacketMultiplexer</title>
<path fill="none" stroke="black" d="M570.78,-58.05C658.57,-50.63 818.49,-36.38 964.75,-19.16"/>
<polygon fill="black" stroke="black" points="965.29,-22.62 974.81,-17.97 964.47,-15.67 965.29,-22.62"/>
</g>
</g>
</svg>
