<?xml version="1.0" encoding="UTF-8" standalone="no"?>
<!DOCTYPE svg PUBLIC "-//W3C//DTD SVG 1.1//EN"
 "http://www.w3.org/Graphics/SVG/1.1/DTD/svg11.dtd">
<!-- Generated by graphviz version 2.43.0 (0)
 -->
<!-- Title: opp Pages: 1 -->
<svg width="292pt" height="82pt"
 viewBox="0.00 0.00 291.50 82.00" xmlns="http://www.w3.org/2000/svg" xmlns:xlink="http://www.w3.org/1999/xlink">
<g id="graph0" class="graph" transform="scale(1 1) rotate(0) translate(4 78)">
<title>opp</title>
<polygon fill="transparent" stroke="transparent" points="-4,4 -4,-78 287.5,-78 287.5,4 -4,4"/>
<!-- ApplicationLayerNodeBase -->
<g id="node1" class="node">
<title>ApplicationLayerNodeBase</title>
<g id="a_node1"><a xlink:href="inet.node.base.ApplicationLayerNodeBase.html" xlink:title="Compound Module ApplicationLayerNodeBase" target="_parent">
<polygon fill="#fff700" stroke="black" points="232.5,-74 84.5,-74 84.5,-55 232.5,-55 232.5,-74"/>
<text text-anchor="middle" x="158.5" y="-62" font-family="Helvetica,sans-Serif" font-size="10.00">ApplicationLayerNodeBase</text>
</a>
</g>
</g>
<!-- MessageDispatcher -->
<g id="node2" class="node">
<title>MessageDispatcher</title>
<g id="a_node2"><a xlink:href="inet.common.MessageDispatcher.html" xlink:title="Simple Module MessageDispatcher" target="_parent">
<polygon fill="#fffcaf" stroke="black" points="113,-19 0,-19 0,0 113,0 113,-19"/>
<text text-anchor="middle" x="56.5" y="-7" font-family="Helvetica,sans-Serif" font-size="10.00">MessageDispatcher</text>
</a>
</g>
</g>
<!-- ApplicationLayerNodeBase&#45;&gt;MessageDispatcher -->
<g id="edge1" class="edge">
<title>ApplicationLayerNodeBase&#45;&gt;MessageDispatcher</title>
<path fill="none" stroke="black" d="M142.11,-54.98C125.93,-46.57 100.93,-33.59 82.12,-23.81"/>
<polygon fill="black" stroke="black" points="83.67,-20.68 73.19,-19.17 80.45,-26.89 83.67,-20.68"/>
</g>
<!-- IApp -->
<g id="node3" class="node">
<title>IApp</title>
<g id="a_node3"><a xlink:href="inet.applications.contract.IApp.html" xlink:title="Module Interface IApp" target="_parent">
<polygon fill="#fffcaf" stroke="black" stroke-dasharray="5,2" points="185.5,-19 131.5,-19 131.5,0 185.5,0 185.5,-19"/>
<text text-anchor="middle" x="158.5" y="-7" font-family="Helvetica,sans-Serif" font-size="10.00">IApp</text>
</a>
</g>
</g>
<!-- ApplicationLayerNodeBase&#45;&gt;IApp -->
<g id="edge2" class="edge">
<title>ApplicationLayerNodeBase&#45;&gt;IApp</title>
<path fill="none" stroke="black" d="M158.5,-54.75C158.5,-47.8 158.5,-37.85 158.5,-29.13"/>
<polygon fill="black" stroke="black" points="162,-29.09 158.5,-19.09 155,-29.09 162,-29.09"/>
</g>
<!-- IdealChannel -->
<g id="node4" class="node">
<title>IdealChannel</title>
<g id="a_node4"><a xlink:href="ned.IdealChannel.html" xlink:title="Channel IdealChannel" target="_parent">
<polygon fill="#d0ffd0" stroke="black" points="283.5,-19 203.5,-19 203.5,0 283.5,0 283.5,-19"/>
<text text-anchor="middle" x="243.5" y="-7" font-family="Helvetica,sans-Serif" font-size="10.00">IdealChannel</text>
</a>
</g>
</g>
<!-- ApplicationLayerNodeBase&#45;&gt;IdealChannel -->
<g id="edge3" class="edge">
<title>ApplicationLayerNodeBase&#45;&gt;IdealChannel</title>
<path fill="none" stroke="black" d="M172.16,-54.98C185.34,-46.77 205.53,-34.18 221.07,-24.49"/>
<polygon fill="black" stroke="black" points="222.96,-27.43 229.59,-19.17 219.26,-21.49 222.96,-27.43"/>
</g>
</g>
</svg>
