<?xml version="1.0" encoding="UTF-8" standalone="no"?>
<!DOCTYPE svg PUBLIC "-//W3C//DTD SVG 1.1//EN"
 "http://www.w3.org/Graphics/SVG/1.1/DTD/svg11.dtd">
<!-- Generated by graphviz version 2.43.0 (0)
 -->
<!-- Title: opp Pages: 1 -->
<svg width="286pt" height="82pt"
 viewBox="0.00 0.00 286.00 82.00" xmlns="http://www.w3.org/2000/svg" xmlns:xlink="http://www.w3.org/1999/xlink">
<g id="graph0" class="graph" transform="scale(1 1) rotate(0) translate(4 78)">
<title>opp</title>
<polygon fill="transparent" stroke="transparent" points="-4,4 -4,-78 282,-78 282,4 -4,4"/>
<!-- IEnergyManagement -->
<g id="node1" class="node">
<title>IEnergyManagement</title>
<g id="a_node1"><a xlink:href="inet.power.contract.IEnergyManagement.html" xlink:title="Module Interface IEnergyManagement" target="_parent">
<polygon fill="#fff700" stroke="black" stroke-dasharray="5,2" points="198,-74 80,-74 80,-55 198,-55 198,-74"/>
<text text-anchor="middle" x="139" y="-62" font-family="Helvetica,sans-Serif" font-size="10.00">IEnergyManagement</text>
</a>
</g>
</g>
<!-- ICcEnergyManagement -->
<g id="node2" class="node">
<title>ICcEnergyManagement</title>
<g id="a_node2"><a xlink:href="inet.power.contract.ICcEnergyManagement.html" xlink:title="Module Interface ICcEnergyManagement" target="_parent">
<polygon fill="#fffcaf" stroke="black" stroke-dasharray="5,2" points="130,-19 0,-19 0,0 130,0 130,-19"/>
<text text-anchor="middle" x="65" y="-7" font-family="Helvetica,sans-Serif" font-size="10.00">ICcEnergyManagement</text>
</a>
</g>
</g>
<!-- IEnergyManagement&#45;&gt;ICcEnergyManagement -->
<g id="edge1" class="edge">
<title>IEnergyManagement&#45;&gt;ICcEnergyManagement</title>
<path fill="none" stroke="black" d="M127.11,-54.98C113.38,-45.15 90.92,-29.07 77.11,-19.17"/>
</g>
<!-- IEpEnergyManagement -->
<g id="node3" class="node">
<title>IEpEnergyManagement</title>
<g id="a_node3"><a xlink:href="inet.power.contract.IEpEnergyManagement.html" xlink:title="Module Interface IEpEnergyManagement" target="_parent">
<polygon fill="#fffcaf" stroke="black" stroke-dasharray="5,2" points="278,-19 148,-19 148,0 278,0 278,-19"/>
<text text-anchor="middle" x="213" y="-7" font-family="Helvetica,sans-Serif" font-size="10.00">IEpEnergyManagement</text>
</a>
</g>
</g>
<!-- IEnergyManagement&#45;&gt;IEpEnergyManagement -->
<g id="edge2" class="edge">
<title>IEnergyManagement&#45;&gt;IEpEnergyManagement</title>
<path fill="none" stroke="black" d="M150.89,-54.98C164.62,-45.15 187.08,-29.07 200.89,-19.17"/>
</g>
</g>
</svg>
