<?xml version="1.0" encoding="UTF-8" standalone="no"?>
<!DOCTYPE svg PUBLIC "-//W3C//DTD SVG 1.1//EN"
 "http://www.w3.org/Graphics/SVG/1.1/DTD/svg11.dtd">
<!-- Generated by graphviz version 2.43.0 (0)
 -->
<!-- Title: opp Pages: 1 -->
<svg width="587pt" height="82pt"
 viewBox="0.00 0.00 587.00 82.00" xmlns="http://www.w3.org/2000/svg" xmlns:xlink="http://www.w3.org/1999/xlink">
<g id="graph0" class="graph" transform="scale(1 1) rotate(0) translate(4 78)">
<title>opp</title>
<polygon fill="transparent" stroke="transparent" points="-4,4 -4,-78 583,-78 583,4 -4,4"/>
<!-- TelnetClientApp -->
<g id="node1" class="node">
<title>TelnetClientApp</title>
<g id="a_node1"><a xlink:href="inet.applications.tcpapp.TelnetClientApp.html" xlink:title="Compound Module TelnetClientApp" target="_parent">
<polygon fill="#fff700" stroke="black" points="352,-74 259,-74 259,-55 352,-55 352,-74"/>
<text text-anchor="middle" x="305.5" y="-62" font-family="Helvetica,sans-Serif" font-size="10.00">TelnetClientApp</text>
</a>
</g>
</g>
<!-- IPassivePacketSink -->
<g id="node2" class="node">
<title>IPassivePacketSink</title>
<g id="a_node2"><a xlink:href="inet.queueing.contract.IPassivePacketSink.html" xlink:title="Module Interface IPassivePacketSink" target="_parent">
<polygon fill="#fffcaf" stroke="black" stroke-dasharray="5,2" points="109,-19 0,-19 0,0 109,0 109,-19"/>
<text text-anchor="middle" x="54.5" y="-7" font-family="Helvetica,sans-Serif" font-size="10.00">IPassivePacketSink</text>
</a>
</g>
</g>
<!-- TelnetClientApp&#45;&gt;IPassivePacketSink -->
<g id="edge1" class="edge">
<title>TelnetClientApp&#45;&gt;IPassivePacketSink</title>
<path fill="none" stroke="black" d="M265.17,-54.98C221.66,-45.8 152.3,-31.15 105.15,-21.19"/>
<polygon fill="black" stroke="black" points="105.65,-17.72 95.14,-19.08 104.2,-24.57 105.65,-17.72"/>
</g>
<!-- TcpClientSocketIo -->
<g id="node3" class="node">
<title>TcpClientSocketIo</title>
<g id="a_node3"><a xlink:href="inet.applications.tcpapp.TcpClientSocketIo.html" xlink:title="Simple Module TcpClientSocketIo" target="_parent">
<polygon fill="#fffcaf" stroke="black" points="229.5,-19 127.5,-19 127.5,0 229.5,0 229.5,-19"/>
<text text-anchor="middle" x="178.5" y="-7" font-family="Helvetica,sans-Serif" font-size="10.00">TcpClientSocketIo</text>
</a>
</g>
</g>
<!-- TelnetClientApp&#45;&gt;TcpClientSocketIo -->
<g id="edge2" class="edge">
<title>TelnetClientApp&#45;&gt;TcpClientSocketIo</title>
<path fill="none" stroke="black" d="M285.1,-54.98C264.48,-46.38 232.39,-32.99 208.81,-23.15"/>
<polygon fill="black" stroke="black" points="209.85,-19.79 199.28,-19.17 207.16,-26.25 209.85,-19.79"/>
</g>
<!-- IActivePacketSource -->
<g id="node4" class="node">
<title>IActivePacketSource</title>
<g id="a_node4"><a xlink:href="inet.queueing.contract.IActivePacketSource.html" xlink:title="Module Interface IActivePacketSource" target="_parent">
<polygon fill="#fffcaf" stroke="black" stroke-dasharray="5,2" points="363,-19 248,-19 248,0 363,0 363,-19"/>
<text text-anchor="middle" x="305.5" y="-7" font-family="Helvetica,sans-Serif" font-size="10.00">IActivePacketSource</text>
</a>
</g>
</g>
<!-- TelnetClientApp&#45;&gt;IActivePacketSource -->
<g id="edge3" class="edge">
<title>TelnetClientApp&#45;&gt;IActivePacketSource</title>
<path fill="none" stroke="black" d="M305.5,-54.75C305.5,-47.8 305.5,-37.85 305.5,-29.13"/>
<polygon fill="black" stroke="black" points="309,-29.09 305.5,-19.09 302,-29.09 309,-29.09"/>
</g>
<!-- IdealChannel -->
<g id="node5" class="node">
<title>IdealChannel</title>
<g id="a_node5"><a xlink:href="ned.IdealChannel.html" xlink:title="Channel IdealChannel" target="_parent">
<polygon fill="#d0ffd0" stroke="black" points="461.5,-19 381.5,-19 381.5,0 461.5,0 461.5,-19"/>
<text text-anchor="middle" x="421.5" y="-7" font-family="Helvetica,sans-Serif" font-size="10.00">IdealChannel</text>
</a>
</g>
</g>
<!-- TelnetClientApp&#45;&gt;IdealChannel -->
<g id="edge4" class="edge">
<title>TelnetClientApp&#45;&gt;IdealChannel</title>
<path fill="none" stroke="black" d="M324.14,-54.98C342.8,-46.46 371.75,-33.23 393.24,-23.41"/>
<polygon fill="black" stroke="black" points="394.88,-26.51 402.52,-19.17 391.97,-20.14 394.88,-26.51"/>
</g>
<!-- IPacketScheduler -->
<g id="node6" class="node">
<title>IPacketScheduler</title>
<g id="a_node6"><a xlink:href="inet.queueing.contract.IPacketScheduler.html" xlink:title="Module Interface IPacketScheduler" target="_parent">
<polygon fill="#fffcaf" stroke="black" stroke-dasharray="5,2" points="579,-19 480,-19 480,0 579,0 579,-19"/>
<text text-anchor="middle" x="529.5" y="-7" font-family="Helvetica,sans-Serif" font-size="10.00">IPacketScheduler</text>
</a>
</g>
</g>
<!-- TelnetClientApp&#45;&gt;IPacketScheduler -->
<g id="edge5" class="edge">
<title>TelnetClientApp&#45;&gt;IPacketScheduler</title>
<path fill="none" stroke="black" d="M341.49,-54.98C379.99,-45.87 441.19,-31.4 483.24,-21.45"/>
<polygon fill="black" stroke="black" points="484.3,-24.79 493.23,-19.08 482.69,-17.98 484.3,-24.79"/>
</g>
</g>
</svg>
