<?xml version="1.0" encoding="UTF-8" standalone="no"?>
<!DOCTYPE svg PUBLIC "-//W3C//DTD SVG 1.1//EN"
 "http://www.w3.org/Graphics/SVG/1.1/DTD/svg11.dtd">
<!-- Generated by graphviz version 2.43.0 (0)
 -->
<!-- Title: opp Pages: 1 -->
<svg width="1009pt" height="137pt"
 viewBox="0.00 0.00 1008.50 137.00" xmlns="http://www.w3.org/2000/svg" xmlns:xlink="http://www.w3.org/1999/xlink">
<g id="graph0" class="graph" transform="scale(1 1) rotate(0) translate(4 133)">
<title>opp</title>
<polygon fill="transparent" stroke="transparent" points="-4,4 -4,-133 1004.5,-133 1004.5,4 -4,4"/>
<!-- EthernetHost -->
<g id="node1" class="node">
<title>EthernetHost</title>
<g id="a_node1"><a xlink:href="inet.node.ethernet.EthernetHost.html" xlink:title="Compound Module EthernetHost" target="_parent">
<polygon fill="#fff700" stroke="black" points="519,-74 439,-74 439,-55 519,-55 519,-74"/>
<text text-anchor="middle" x="479" y="-62" font-family="Helvetica,sans-Serif" font-size="10.00">EthernetHost</text>
</a>
</g>
</g>
<!-- InterfaceTable -->
<g id="node2" class="node">
<title>InterfaceTable</title>
<g id="a_node2"><a xlink:href="inet.networklayer.common.InterfaceTable.html" xlink:title="Simple Module InterfaceTable" target="_parent">
<polygon fill="#fffcaf" stroke="black" points="86,-19 0,-19 0,0 86,0 86,-19"/>
<text text-anchor="middle" x="43" y="-7" font-family="Helvetica,sans-Serif" font-size="10.00">InterfaceTable</text>
</a>
</g>
</g>
<!-- EthernetHost&#45;&gt;InterfaceTable -->
<g id="edge1" class="edge">
<title>EthernetHost&#45;&gt;InterfaceTable</title>
<path fill="none" stroke="black" d="M438.84,-59.47C370.65,-52.49 227.63,-37.27 96.34,-19.13"/>
<polygon fill="black" stroke="black" points="96.49,-15.62 86.11,-17.71 95.53,-22.55 96.49,-15.62"/>
</g>
<!-- MessageDispatcher -->
<g id="node3" class="node">
<title>MessageDispatcher</title>
<g id="a_node3"><a xlink:href="inet.common.MessageDispatcher.html" xlink:title="Simple Module MessageDispatcher" target="_parent">
<polygon fill="#fffcaf" stroke="black" points="217.5,-19 104.5,-19 104.5,0 217.5,0 217.5,-19"/>
<text text-anchor="middle" x="161" y="-7" font-family="Helvetica,sans-Serif" font-size="10.00">MessageDispatcher</text>
</a>
</g>
</g>
<!-- EthernetHost&#45;&gt;MessageDispatcher -->
<g id="edge2" class="edge">
<title>EthernetHost&#45;&gt;MessageDispatcher</title>
<path fill="none" stroke="black" d="M438.73,-56.79C384.07,-47.68 285.94,-31.32 222.17,-20.69"/>
<polygon fill="black" stroke="black" points="222.68,-17.23 212.24,-19.04 221.53,-24.14 222.68,-17.23"/>
</g>
<!-- IIeee8022Llc -->
<g id="node4" class="node">
<title>IIeee8022Llc</title>
<g id="a_node4"><a xlink:href="inet.linklayer.ieee8022.IIeee8022Llc.html" xlink:title="Module Interface IIeee8022Llc" target="_parent">
<polygon fill="#fffcaf" stroke="black" stroke-dasharray="5,2" points="314,-19 236,-19 236,0 314,0 314,-19"/>
<text text-anchor="middle" x="275" y="-7" font-family="Helvetica,sans-Serif" font-size="10.00">IIeee8022Llc</text>
</a>
</g>
</g>
<!-- EthernetHost&#45;&gt;IIeee8022Llc -->
<g id="edge3" class="edge">
<title>EthernetHost&#45;&gt;IIeee8022Llc</title>
<path fill="none" stroke="black" d="M446.22,-54.98C411.38,-45.93 356.13,-31.58 317.86,-21.64"/>
<polygon fill="black" stroke="black" points="318.59,-18.21 308.03,-19.08 316.83,-24.98 318.59,-18.21"/>
</g>
<!-- EtherAppServer -->
<g id="node5" class="node">
<title>EtherAppServer</title>
<g id="a_node5"><a xlink:href="inet.applications.ethernet.EtherAppServer.html" xlink:title="Simple Module EtherAppServer" target="_parent">
<polygon fill="#fffcaf" stroke="black" points="424,-19 332,-19 332,0 424,0 424,-19"/>
<text text-anchor="middle" x="378" y="-7" font-family="Helvetica,sans-Serif" font-size="10.00">EtherAppServer</text>
</a>
</g>
</g>
<!-- EthernetHost&#45;&gt;EtherAppServer -->
<g id="edge4" class="edge">
<title>EthernetHost&#45;&gt;EtherAppServer</title>
<path fill="none" stroke="black" d="M462.77,-54.98C446.82,-46.61 422.22,-33.7 403.62,-23.95"/>
<polygon fill="black" stroke="black" points="405,-20.72 394.52,-19.17 401.75,-26.92 405,-20.72"/>
</g>
<!-- NodeStatus -->
<g id="node6" class="node">
<title>NodeStatus</title>
<g id="a_node6"><a xlink:href="inet.common.lifecycle.NodeStatus.html" xlink:title="Simple Module NodeStatus" target="_parent">
<polygon fill="#fffcaf" stroke="black" points="515.5,-19 442.5,-19 442.5,0 515.5,0 515.5,-19"/>
<text text-anchor="middle" x="479" y="-7" font-family="Helvetica,sans-Serif" font-size="10.00">NodeStatus</text>
</a>
</g>
</g>
<!-- EthernetHost&#45;&gt;NodeStatus -->
<g id="edge5" class="edge">
<title>EthernetHost&#45;&gt;NodeStatus</title>
<path fill="none" stroke="black" d="M479,-54.75C479,-47.8 479,-37.85 479,-29.13"/>
<polygon fill="black" stroke="black" points="482.5,-29.09 479,-19.09 475.5,-29.09 482.5,-29.09"/>
</g>
<!-- IEthernetLayer -->
<g id="node7" class="node">
<title>IEthernetLayer</title>
<g id="a_node7"><a xlink:href="inet.linklayer.ethernet.contract.IEthernetLayer.html" xlink:title="Module Interface IEthernetLayer" target="_parent">
<polygon fill="#fffcaf" stroke="black" stroke-dasharray="5,2" points="622,-19 534,-19 534,0 622,0 622,-19"/>
<text text-anchor="middle" x="578" y="-7" font-family="Helvetica,sans-Serif" font-size="10.00">IEthernetLayer</text>
</a>
</g>
</g>
<!-- EthernetHost&#45;&gt;IEthernetLayer -->
<g id="edge6" class="edge">
<title>EthernetHost&#45;&gt;IEthernetLayer</title>
<path fill="none" stroke="black" d="M494.91,-54.98C510.55,-46.61 534.66,-33.7 552.88,-23.95"/>
<polygon fill="black" stroke="black" points="554.64,-26.98 561.8,-19.17 551.34,-20.8 554.64,-26.98"/>
</g>
<!-- IdealChannel -->
<g id="node8" class="node">
<title>IdealChannel</title>
<g id="a_node8"><a xlink:href="ned.IdealChannel.html" xlink:title="Channel IdealChannel" target="_parent">
<polygon fill="#d0ffd0" stroke="black" points="720,-19 640,-19 640,0 720,0 720,-19"/>
<text text-anchor="middle" x="680" y="-7" font-family="Helvetica,sans-Serif" font-size="10.00">IdealChannel</text>
</a>
</g>
</g>
<!-- EthernetHost&#45;&gt;IdealChannel -->
<g id="edge7" class="edge">
<title>EthernetHost&#45;&gt;IdealChannel</title>
<path fill="none" stroke="black" d="M511.29,-54.98C545.62,-45.93 600.06,-31.58 637.77,-21.64"/>
<polygon fill="black" stroke="black" points="638.68,-25.02 647.45,-19.08 636.89,-18.25 638.68,-25.02"/>
</g>
<!-- EtherAppClient -->
<g id="node9" class="node">
<title>EtherAppClient</title>
<g id="a_node9"><a xlink:href="inet.applications.ethernet.EtherAppClient.html" xlink:title="Simple Module EtherAppClient" target="_parent">
<polygon fill="#fffcaf" stroke="black" points="827.5,-19 738.5,-19 738.5,0 827.5,0 827.5,-19"/>
<text text-anchor="middle" x="783" y="-7" font-family="Helvetica,sans-Serif" font-size="10.00">EtherAppClient</text>
</a>
</g>
</g>
<!-- EthernetHost&#45;&gt;EtherAppClient -->
<g id="edge8" class="edge">
<title>EthernetHost&#45;&gt;EtherAppClient</title>
<path fill="none" stroke="black" d="M519.06,-56.52C572.7,-47.16 668.1,-30.53 728.33,-20.03"/>
<polygon fill="black" stroke="black" points="729.16,-23.44 738.41,-18.27 727.96,-16.54 729.16,-23.44"/>
</g>
<!-- IEthernetInterface -->
<g id="node10" class="node">
<title>IEthernetInterface</title>
<g id="a_node10"><a xlink:href="inet.linklayer.contract.IEthernetInterface.html" xlink:title="Module Interface IEthernetInterface" target="_parent">
<polygon fill="#fffcaf" stroke="black" stroke-dasharray="5,2" points="950,-19 846,-19 846,0 950,0 950,-19"/>
<text text-anchor="middle" x="898" y="-7" font-family="Helvetica,sans-Serif" font-size="10.00">IEthernetInterface</text>
</a>
</g>
</g>
<!-- EthernetHost&#45;&gt;IEthernetInterface -->
<g id="edge9" class="edge">
<title>EthernetHost&#45;&gt;IEthernetInterface</title>
<path fill="none" stroke="black" d="M519.02,-58.72C583.41,-50.99 714.25,-35.1 835.56,-19.17"/>
<polygon fill="black" stroke="black" points="836.31,-22.61 845.76,-17.83 835.39,-15.67 836.31,-22.61"/>
</g>
<!-- BusLAN -->
<g id="node11" class="node">
<title>BusLAN</title>
<g id="a_node11"><a xlink:href="inet.examples.ethernet.lans.BusLAN.html" xlink:title="Network BusLAN" target="_parent">
<polygon fill="#d0d0ff" stroke="black" points="186.5,-129 131.5,-129 131.5,-110 186.5,-110 186.5,-129"/>
<text text-anchor="middle" x="159" y="-117" font-family="Helvetica,sans-Serif" font-size="10.00">BusLAN</text>
</a>
</g>
</g>
<!-- BusLAN&#45;&gt;EthernetHost -->
<g id="edge10" class="edge">
<title>BusLAN&#45;&gt;EthernetHost</title>
<path fill="none" stroke="black" d="M186.84,-111.89C189.92,-111.22 193.02,-110.58 196,-110 276.91,-94.36 371.63,-80.33 428.4,-72.37"/>
<polygon fill="black" stroke="black" points="429.12,-75.8 438.54,-70.96 428.15,-68.87 429.12,-75.8"/>
</g>
<!-- HubLAN -->
<g id="node12" class="node">
<title>HubLAN</title>
<g id="a_node12"><a xlink:href="inet.examples.ethernet.lans.HubLAN.html" xlink:title="Network HubLAN" target="_parent">
<polygon fill="#d0d0ff" stroke="black" points="261,-129 205,-129 205,-110 261,-110 261,-129"/>
<text text-anchor="middle" x="233" y="-117" font-family="Helvetica,sans-Serif" font-size="10.00">HubLAN</text>
</a>
</g>
</g>
<!-- HubLAN&#45;&gt;EthernetHost -->
<g id="edge11" class="edge">
<title>HubLAN&#45;&gt;EthernetHost</title>
<path fill="none" stroke="black" d="M261.27,-111.96C264.22,-111.29 267.17,-110.63 270,-110 324.32,-97.98 386.73,-84.77 429.1,-75.89"/>
<polygon fill="black" stroke="black" points="429.82,-79.32 438.89,-73.84 428.39,-72.46 429.82,-79.32"/>
</g>
<!-- LargeLAN -->
<g id="node13" class="node">
<title>LargeLAN</title>
<g id="a_node13"><a xlink:href="inet.examples.ethernet.lans.LargeLAN.html" xlink:title="Compound Module LargeLAN" target="_parent">
<polygon fill="#fffcaf" stroke="black" points="343,-129 279,-129 279,-110 343,-110 343,-129"/>
<text text-anchor="middle" x="311" y="-117" font-family="Helvetica,sans-Serif" font-size="10.00">LargeLAN</text>
</a>
</g>
</g>
<!-- LargeLAN&#45;&gt;EthernetHost -->
<g id="edge12" class="edge">
<title>LargeLAN&#45;&gt;EthernetHost</title>
<path fill="none" stroke="black" d="M337.99,-109.98C366.2,-101.09 410.64,-87.07 442.08,-77.15"/>
<polygon fill="black" stroke="black" points="443.31,-80.43 451.8,-74.08 441.21,-73.75 443.31,-80.43"/>
</g>
<!-- LargeNet -->
<g id="node14" class="node">
<title>LargeNet</title>
<g id="a_node14"><a xlink:href="inet.examples.ieee8021d.LargeNet.html" xlink:title="Network LargeNet" target="_parent">
<polygon fill="#d0d0ff" stroke="black" points="422.5,-129 361.5,-129 361.5,-110 422.5,-110 422.5,-129"/>
<text text-anchor="middle" x="392" y="-117" font-family="Helvetica,sans-Serif" font-size="10.00">LargeNet</text>
</a>
</g>
</g>
<!-- LargeNet&#45;&gt;EthernetHost -->
<g id="edge13" class="edge">
<title>LargeNet&#45;&gt;EthernetHost</title>
<path fill="none" stroke="black" d="M400.86,-109.98C412.65,-101.69 433.28,-88.94 450.49,-79.22"/>
<polygon fill="black" stroke="black" points="452.56,-82.07 459.62,-74.17 449.17,-75.94 452.56,-82.07"/>
</g>
<!-- LargeNet&#45;&gt;EthernetHost -->
<g id="edge14" class="edge">
<title>LargeNet&#45;&gt;EthernetHost</title>
<path fill="none" stroke="black" d="M411.09,-109.98C426.11,-101.92 446.59,-89.65 461.24,-80.03"/>
<polygon fill="black" stroke="black" points="463.59,-82.67 469.92,-74.17 459.67,-76.87 463.59,-82.67"/>
</g>
<!-- MediumLAN -->
<g id="node15" class="node">
<title>MediumLAN</title>
<g id="a_node15"><a xlink:href="inet.examples.ethernet.lans.MediumLAN.html" xlink:title="Compound Module MediumLAN" target="_parent">
<polygon fill="#fffcaf" stroke="black" points="517.5,-129 440.5,-129 440.5,-110 517.5,-110 517.5,-129"/>
<text text-anchor="middle" x="479" y="-117" font-family="Helvetica,sans-Serif" font-size="10.00">MediumLAN</text>
</a>
</g>
</g>
<!-- MediumLAN&#45;&gt;EthernetHost -->
<g id="edge15" class="edge">
<title>MediumLAN&#45;&gt;EthernetHost</title>
<path fill="none" stroke="black" d="M479,-109.75C479,-102.8 479,-92.85 479,-84.13"/>
<polygon fill="black" stroke="black" points="482.5,-84.09 479,-74.09 475.5,-84.09 482.5,-84.09"/>
</g>
<!-- MixedLAN -->
<g id="node16" class="node">
<title>MixedLAN</title>
<g id="a_node16"><a xlink:href="inet.examples.ethernet.lans.MixedLAN.html" xlink:title="Network MixedLAN" target="_parent">
<polygon fill="#d0d0ff" stroke="black" points="602,-129 536,-129 536,-110 602,-110 602,-129"/>
<text text-anchor="middle" x="569" y="-117" font-family="Helvetica,sans-Serif" font-size="10.00">MixedLAN</text>
</a>
</g>
</g>
<!-- MixedLAN&#45;&gt;EthernetHost -->
<g id="edge16" class="edge">
<title>MixedLAN&#45;&gt;EthernetHost</title>
<path fill="none" stroke="black" d="M554.54,-109.98C540.58,-101.77 519.21,-89.18 502.75,-79.49"/>
<polygon fill="black" stroke="black" points="504.12,-76.23 493.72,-74.17 500.56,-82.26 504.12,-76.23"/>
</g>
<!-- SmallLAN -->
<g id="node17" class="node">
<title>SmallLAN</title>
<g id="a_node17"><a xlink:href="inet.examples.ethernet.lans.SmallLAN.html" xlink:title="Compound Module SmallLAN" target="_parent">
<polygon fill="#fffcaf" stroke="black" points="685.5,-129 620.5,-129 620.5,-110 685.5,-110 685.5,-129"/>
<text text-anchor="middle" x="653" y="-117" font-family="Helvetica,sans-Serif" font-size="10.00">SmallLAN</text>
</a>
</g>
</g>
<!-- SmallLAN&#45;&gt;EthernetHost -->
<g id="edge17" class="edge">
<title>SmallLAN&#45;&gt;EthernetHost</title>
<path fill="none" stroke="black" d="M625.04,-109.98C595.7,-101.05 549.4,-86.94 516.81,-77.02"/>
<polygon fill="black" stroke="black" points="517.76,-73.65 507.18,-74.08 515.72,-80.34 517.76,-73.65"/>
</g>
<!-- SwitchedDuplexLAN -->
<g id="node18" class="node">
<title>SwitchedDuplexLAN</title>
<g id="a_node18"><a xlink:href="inet.examples.ethernet.lans.SwitchedDuplexLAN.html" xlink:title="Network SwitchedDuplexLAN" target="_parent">
<polygon fill="#d0d0ff" stroke="black" points="820,-129 704,-129 704,-110 820,-110 820,-129"/>
<text text-anchor="middle" x="762" y="-117" font-family="Helvetica,sans-Serif" font-size="10.00">SwitchedDuplexLAN</text>
</a>
</g>
</g>
<!-- SwitchedDuplexLAN&#45;&gt;EthernetHost -->
<g id="edge18" class="edge">
<title>SwitchedDuplexLAN&#45;&gt;EthernetHost</title>
<path fill="none" stroke="black" d="M716.53,-109.98C665.3,-100.39 582.28,-84.84 529.19,-74.9"/>
<polygon fill="black" stroke="black" points="529.79,-71.45 519.31,-73.05 528.5,-78.33 529.79,-71.45"/>
</g>
<!-- SwitchedLAN -->
<g id="node19" class="node">
<title>SwitchedLAN</title>
<g id="a_node19"><a xlink:href="inet.examples.ethernet.lans.SwitchedLAN.html" xlink:title="Network SwitchedLAN" target="_parent">
<polygon fill="#d0d0ff" stroke="black" points="919.5,-129 838.5,-129 838.5,-110 919.5,-110 919.5,-129"/>
<text text-anchor="middle" x="879" y="-117" font-family="Helvetica,sans-Serif" font-size="10.00">SwitchedLAN</text>
</a>
</g>
</g>
<!-- SwitchedLAN&#45;&gt;EthernetHost -->
<g id="edge19" class="edge">
<title>SwitchedLAN&#45;&gt;EthernetHost</title>
<path fill="none" stroke="black" d="M838.36,-111.45C835.2,-110.94 832.05,-110.45 829,-110 722.53,-94.19 597.31,-79.12 529.25,-71.22"/>
<polygon fill="black" stroke="black" points="529.57,-67.73 519.23,-70.06 528.76,-74.69 529.57,-67.73"/>
</g>
<!-- TwoHosts -->
<g id="node20" class="node">
<title>TwoHosts</title>
<g id="a_node20"><a xlink:href="inet.examples.ethernet.lans.TwoHosts.html" xlink:title="Network TwoHosts" target="_parent">
<polygon fill="#d0d0ff" stroke="black" points="1000.5,-129 937.5,-129 937.5,-110 1000.5,-110 1000.5,-129"/>
<text text-anchor="middle" x="969" y="-117" font-family="Helvetica,sans-Serif" font-size="10.00">TwoHosts</text>
</a>
</g>
</g>
<!-- TwoHosts&#45;&gt;EthernetHost -->
<g id="edge20" class="edge">
<title>TwoHosts&#45;&gt;EthernetHost</title>
<path fill="none" stroke="black" d="M937.18,-111.41C934.42,-110.89 931.67,-110.41 929,-110 784.86,-87.63 612.9,-74.29 529.44,-68.66"/>
<polygon fill="black" stroke="black" points="529.43,-65.15 519.22,-67.98 528.97,-72.13 529.43,-65.15"/>
</g>
</g>
</svg>
