<?xml version="1.0" encoding="UTF-8" standalone="no"?>
<!DOCTYPE svg PUBLIC "-//W3C//DTD SVG 1.1//EN"
 "http://www.w3.org/Graphics/SVG/1.1/DTD/svg11.dtd">
<!-- Generated by graphviz version 2.43.0 (0)
 -->
<!-- Title: opp Pages: 1 -->
<svg width="285pt" height="82pt"
 viewBox="0.00 0.00 284.50 82.00" xmlns="http://www.w3.org/2000/svg" xmlns:xlink="http://www.w3.org/1999/xlink">
<g id="graph0" class="graph" transform="scale(1 1) rotate(0) translate(4 78)">
<title>opp</title>
<polygon fill="transparent" stroke="transparent" points="-4,4 -4,-78 280.5,-78 280.5,4 -4,4"/>
<!-- Network90 -->
<g id="node1" class="node">
<title>Network90</title>
<g id="a_node1"><a xlink:href="inet.tutorials.protocol.Network90.html" xlink:title="Network Network90" target="_parent">
<polygon fill="#9090ff" stroke="black" points="178,-74 108,-74 108,-55 178,-55 178,-74"/>
<text text-anchor="middle" x="143" y="-62" font-family="Helvetica,sans-Serif" font-size="10.00">Network90</text>
</a>
</g>
</g>
<!-- ReceiverHost -->
<g id="node2" class="node">
<title>ReceiverHost</title>
<g id="a_node2"><a xlink:href="inet.tutorials.protocol.ReceiverHost.html" xlink:title="Compound Module ReceiverHost" target="_parent">
<polygon fill="#fffcaf" stroke="black" points="82,-19 0,-19 0,0 82,0 82,-19"/>
<text text-anchor="middle" x="41" y="-7" font-family="Helvetica,sans-Serif" font-size="10.00">ReceiverHost</text>
</a>
</g>
</g>
<!-- Network90&#45;&gt;ReceiverHost -->
<g id="edge1" class="edge">
<title>Network90&#45;&gt;ReceiverHost</title>
<path fill="none" stroke="black" d="M126.61,-54.98C110.43,-46.57 85.43,-33.59 66.62,-23.81"/>
<polygon fill="black" stroke="black" points="68.17,-20.68 57.69,-19.17 64.95,-26.89 68.17,-20.68"/>
</g>
<!-- DelayChannel -->
<g id="node3" class="node">
<title>DelayChannel</title>
<g id="a_node3"><a xlink:href="ned.DelayChannel.html" xlink:title="Channel DelayChannel" target="_parent">
<polygon fill="#d0ffd0" stroke="black" points="185.5,-19 100.5,-19 100.5,0 185.5,0 185.5,-19"/>
<text text-anchor="middle" x="143" y="-7" font-family="Helvetica,sans-Serif" font-size="10.00">DelayChannel</text>
</a>
</g>
</g>
<!-- Network90&#45;&gt;DelayChannel -->
<g id="edge2" class="edge">
<title>Network90&#45;&gt;DelayChannel</title>
<path fill="none" stroke="black" d="M143,-54.75C143,-47.8 143,-37.85 143,-29.13"/>
<polygon fill="black" stroke="black" points="146.5,-29.09 143,-19.09 139.5,-29.09 146.5,-29.09"/>
</g>
<!-- SenderHost -->
<g id="node4" class="node">
<title>SenderHost</title>
<g id="a_node4"><a xlink:href="inet.tutorials.protocol.SenderHost.html" xlink:title="Compound Module SenderHost" target="_parent">
<polygon fill="#fffcaf" stroke="black" points="276.5,-19 203.5,-19 203.5,0 276.5,0 276.5,-19"/>
<text text-anchor="middle" x="240" y="-7" font-family="Helvetica,sans-Serif" font-size="10.00">SenderHost</text>
</a>
</g>
</g>
<!-- Network90&#45;&gt;SenderHost -->
<g id="edge3" class="edge">
<title>Network90&#45;&gt;SenderHost</title>
<path fill="none" stroke="black" d="M158.58,-54.98C173.77,-46.69 197.1,-33.94 214.9,-24.22"/>
<polygon fill="black" stroke="black" points="217.03,-27.04 224.13,-19.17 213.68,-20.89 217.03,-27.04"/>
</g>
</g>
</svg>
