<?xml version="1.0" encoding="UTF-8" standalone="no"?>
<!DOCTYPE svg PUBLIC "-//W3C//DTD SVG 1.1//EN"
 "http://www.w3.org/Graphics/SVG/1.1/DTD/svg11.dtd">
<!-- Generated by graphviz version 2.43.0 (0)
 -->
<!-- Title: opp Pages: 1 -->
<svg width="519pt" height="82pt"
 viewBox="0.00 0.00 519.00 82.00" xmlns="http://www.w3.org/2000/svg" xmlns:xlink="http://www.w3.org/1999/xlink">
<g id="graph0" class="graph" transform="scale(1 1) rotate(0) translate(4 78)">
<title>opp</title>
<polygon fill="transparent" stroke="transparent" points="-4,4 -4,-78 515,-78 515,4 -4,4"/>
<!-- LayeredProtocolBase -->
<g id="node1" class="node">
<title>LayeredProtocolBase</title>
<g id="a_node1"><a xlink:href="inet.common.LayeredProtocolBase.html" xlink:title="Simple Module LayeredProtocolBase" target="_parent">
<polygon fill="#fff700" stroke="black" points="306,-74 187,-74 187,-55 306,-55 306,-74"/>
<text text-anchor="middle" x="246.5" y="-62" font-family="Helvetica,sans-Serif" font-size="10.00">LayeredProtocolBase</text>
</a>
</g>
</g>
<!-- MacProtocolBase -->
<g id="node2" class="node">
<title>MacProtocolBase</title>
<g id="a_node2"><a xlink:href="inet.linklayer.base.MacProtocolBase.html" xlink:title="Simple Module MacProtocolBase" target="_parent">
<polygon fill="#fffcaf" stroke="black" points="101,-19 0,-19 0,0 101,0 101,-19"/>
<text text-anchor="middle" x="50.5" y="-7" font-family="Helvetica,sans-Serif" font-size="10.00">MacProtocolBase</text>
</a>
</g>
</g>
<!-- LayeredProtocolBase&#45;&gt;MacProtocolBase -->
<g id="edge1" class="edge">
<title>LayeredProtocolBase&#45;&gt;MacProtocolBase</title>
<path fill="none" stroke="black" d="M215.01,-54.98C178.54,-45.12 118.81,-28.97 82.24,-19.08"/>
</g>
<!-- NetworkProtocolBase -->
<g id="node3" class="node">
<title>NetworkProtocolBase</title>
<g id="a_node3"><a xlink:href="inet.networklayer.base.NetworkProtocolBase.html" xlink:title="Simple Module NetworkProtocolBase" target="_parent">
<polygon fill="#fffcaf" stroke="black" points="241.5,-19 119.5,-19 119.5,0 241.5,0 241.5,-19"/>
<text text-anchor="middle" x="180.5" y="-7" font-family="Helvetica,sans-Serif" font-size="10.00">NetworkProtocolBase</text>
</a>
</g>
</g>
<!-- LayeredProtocolBase&#45;&gt;NetworkProtocolBase -->
<g id="edge2" class="edge">
<title>LayeredProtocolBase&#45;&gt;NetworkProtocolBase</title>
<path fill="none" stroke="black" d="M235.9,-54.98C223.65,-45.15 203.62,-29.07 191.3,-19.17"/>
</g>
<!-- PhysicalLayerBase -->
<g id="node4" class="node">
<title>PhysicalLayerBase</title>
<g id="a_node4"><a xlink:href="inet.physicallayer.wireless.common.base.packetlevel.PhysicalLayerBase.html" xlink:title="Simple Module PhysicalLayerBase" target="_parent">
<polygon fill="#fffcaf" stroke="black" points="367.5,-19 259.5,-19 259.5,0 367.5,0 367.5,-19"/>
<text text-anchor="middle" x="313.5" y="-7" font-family="Helvetica,sans-Serif" font-size="10.00">PhysicalLayerBase</text>
</a>
</g>
</g>
<!-- LayeredProtocolBase&#45;&gt;PhysicalLayerBase -->
<g id="edge3" class="edge">
<title>LayeredProtocolBase&#45;&gt;PhysicalLayerBase</title>
<path fill="none" stroke="black" d="M257.26,-54.98C269.69,-45.15 290.03,-29.07 302.54,-19.17"/>
</g>
<!-- TransportProtocolBase -->
<g id="node5" class="node">
<title>TransportProtocolBase</title>
<g id="a_node5"><a xlink:href="inet.transportlayer.base.TransportProtocolBase.html" xlink:title="Simple Module TransportProtocolBase" target="_parent">
<polygon fill="#fffcaf" stroke="black" points="511,-19 386,-19 386,0 511,0 511,-19"/>
<text text-anchor="middle" x="448.5" y="-7" font-family="Helvetica,sans-Serif" font-size="10.00">TransportProtocolBase</text>
</a>
</g>
</g>
<!-- LayeredProtocolBase&#45;&gt;TransportProtocolBase -->
<g id="edge4" class="edge">
<title>LayeredProtocolBase&#45;&gt;TransportProtocolBase</title>
<path fill="none" stroke="black" d="M278.95,-54.98C316.54,-45.12 378.1,-28.97 415.79,-19.08"/>
</g>
</g>
</svg>
