<?xml version="1.0" encoding="UTF-8" standalone="no"?>
<!DOCTYPE svg PUBLIC "-//W3C//DTD SVG 1.1//EN"
 "http://www.w3.org/Graphics/SVG/1.1/DTD/svg11.dtd">
<!-- Generated by graphviz version 2.43.0 (0)
 -->
<!-- Title: opp Pages: 1 -->
<svg width="227pt" height="137pt"
 viewBox="0.00 0.00 227.00 137.00" xmlns="http://www.w3.org/2000/svg" xmlns:xlink="http://www.w3.org/1999/xlink">
<g id="graph0" class="graph" transform="scale(1 1) rotate(0) translate(4 133)">
<title>opp</title>
<polygon fill="transparent" stroke="transparent" points="-4,4 -4,-133 223,-133 223,4 -4,4"/>
<!-- AggregatorBase -->
<g id="node1" class="node">
<title>AggregatorBase</title>
<g id="a_node1"><a xlink:href="inet.protocolelement.aggregation.base.AggregatorBase.html" xlink:title="Compound Module AggregatorBase" target="_parent">
<polygon fill="#fff700" stroke="black" points="157,-74 62,-74 62,-55 157,-55 157,-74"/>
<text text-anchor="middle" x="109.5" y="-62" font-family="Helvetica,sans-Serif" font-size="10.00">AggregatorBase</text>
</a>
</g>
</g>
<!-- SubpacketLengthHeaderBasedAggregator -->
<g id="node3" class="node">
<title>SubpacketLengthHeaderBasedAggregator</title>
<g id="a_node3"><a xlink:href="inet.protocolelement.aggregation.SubpacketLengthHeaderBasedAggregator.html" xlink:title="Compound Module SubpacketLengthHeaderBasedAggregator" target="_parent">
<polygon fill="#fffcaf" stroke="black" points="219,-19 0,-19 0,0 219,0 219,-19"/>
<text text-anchor="middle" x="109.5" y="-7" font-family="Helvetica,sans-Serif" font-size="10.00">SubpacketLengthHeaderBasedAggregator</text>
</a>
</g>
</g>
<!-- AggregatorBase&#45;&gt;SubpacketLengthHeaderBasedAggregator -->
<g id="edge2" class="edge">
<title>AggregatorBase&#45;&gt;SubpacketLengthHeaderBasedAggregator</title>
<path fill="none" stroke="black" d="M109.5,-54.75C109.5,-44.87 109.5,-28.9 109.5,-19.09"/>
</g>
<!-- PacketPusherBase -->
<g id="node2" class="node">
<title>PacketPusherBase</title>
<g id="a_node2"><a xlink:href="inet.queueing.base.PacketPusherBase.html" xlink:title="Simple Module PacketPusherBase" target="_parent">
<polygon fill="#fffcaf" stroke="black" points="162,-129 57,-129 57,-110 162,-110 162,-129"/>
<text text-anchor="middle" x="109.5" y="-117" font-family="Helvetica,sans-Serif" font-size="10.00">PacketPusherBase</text>
</a>
</g>
</g>
<!-- PacketPusherBase&#45;&gt;AggregatorBase -->
<g id="edge1" class="edge">
<title>PacketPusherBase&#45;&gt;AggregatorBase</title>
<path fill="none" stroke="black" d="M109.5,-109.75C109.5,-99.87 109.5,-83.9 109.5,-74.09"/>
</g>
</g>
</svg>
