<?xml version="1.0" encoding="UTF-8" standalone="no"?>
<!DOCTYPE svg PUBLIC "-//W3C//DTD SVG 1.1//EN"
 "http://www.w3.org/Graphics/SVG/1.1/DTD/svg11.dtd">
<!-- Generated by graphviz version 2.43.0 (0)
 -->
<!-- Title: opp Pages: 1 -->
<svg width="224pt" height="137pt"
 viewBox="0.00 0.00 223.50 137.00" xmlns="http://www.w3.org/2000/svg" xmlns:xlink="http://www.w3.org/1999/xlink">
<g id="graph0" class="graph" transform="scale(1 1) rotate(0) translate(4 133)">
<title>opp</title>
<polygon fill="transparent" stroke="transparent" points="-4,4 -4,-133 219.5,-133 219.5,4 -4,4"/>
<!-- IIeee8021rLayer -->
<g id="node1" class="node">
<title>IIeee8021rLayer</title>
<g id="a_node1"><a xlink:href="inet.linklayer.ieee8021r.IIeee8021rLayer.html" xlink:title="Module Interface IIeee8021rLayer" target="_parent">
<polygon fill="#fff700" stroke="black" stroke-dasharray="5,2" points="151.5,-74 56.5,-74 56.5,-55 151.5,-55 151.5,-74"/>
<text text-anchor="middle" x="104" y="-62" font-family="Helvetica,sans-Serif" font-size="10.00">IIeee8021rLayer</text>
</a>
</g>
</g>
<!-- Ieee8021rLayer -->
<g id="node3" class="node">
<title>Ieee8021rLayer</title>
<g id="a_node3"><a xlink:href="inet.linklayer.ieee8021r.Ieee8021rLayer.html" xlink:title="Compound Module Ieee8021rLayer" target="_parent">
<polygon fill="#fffcaf" stroke="black" points="92,-19 0,-19 0,0 92,0 92,-19"/>
<text text-anchor="middle" x="46" y="-7" font-family="Helvetica,sans-Serif" font-size="10.00">Ieee8021rLayer</text>
</a>
</g>
</g>
<!-- IIeee8021rLayer&#45;&gt;Ieee8021rLayer -->
<g id="edge2" class="edge">
<title>IIeee8021rLayer&#45;&gt;Ieee8021rLayer</title>
<path fill="none" stroke="black" stroke-dasharray="5,2" d="M94.68,-54.98C83.92,-45.15 66.32,-29.07 55.49,-19.17"/>
</g>
<!-- Ieee8021rProtocol -->
<g id="node4" class="node">
<title>Ieee8021rProtocol</title>
<g id="a_node4"><a xlink:href="inet.linklayer.ieee8021r.Ieee8021rProtocol.html" xlink:title="Compound Module Ieee8021rProtocol" target="_parent">
<polygon fill="#fffcaf" stroke="black" points="215.5,-19 110.5,-19 110.5,0 215.5,0 215.5,-19"/>
<text text-anchor="middle" x="163" y="-7" font-family="Helvetica,sans-Serif" font-size="10.00">Ieee8021rProtocol</text>
</a>
</g>
</g>
<!-- IIeee8021rLayer&#45;&gt;Ieee8021rProtocol -->
<g id="edge3" class="edge">
<title>IIeee8021rLayer&#45;&gt;Ieee8021rProtocol</title>
<path fill="none" stroke="black" stroke-dasharray="5,2" d="M113.48,-54.98C124.42,-45.15 142.33,-29.07 153.35,-19.17"/>
</g>
<!-- IProtocolLayer -->
<g id="node2" class="node">
<title>IProtocolLayer</title>
<g id="a_node2"><a xlink:href="inet.protocolelement.contract.IProtocolLayer.html" xlink:title="Module Interface IProtocolLayer" target="_parent">
<polygon fill="#fffcaf" stroke="black" stroke-dasharray="5,2" points="147,-129 61,-129 61,-110 147,-110 147,-129"/>
<text text-anchor="middle" x="104" y="-117" font-family="Helvetica,sans-Serif" font-size="10.00">IProtocolLayer</text>
</a>
</g>
</g>
<!-- IProtocolLayer&#45;&gt;IIeee8021rLayer -->
<g id="edge1" class="edge">
<title>IProtocolLayer&#45;&gt;IIeee8021rLayer</title>
<path fill="none" stroke="black" d="M104,-109.75C104,-99.87 104,-83.9 104,-74.09"/>
</g>
</g>
</svg>
