<?xml version="1.0" encoding="UTF-8" standalone="no"?>
<!DOCTYPE svg PUBLIC "-//W3C//DTD SVG 1.1//EN"
 "http://www.w3.org/Graphics/SVG/1.1/DTD/svg11.dtd">
<!-- Generated by graphviz version 2.43.0 (0)
 -->
<!-- Title: opp Pages: 1 -->
<svg width="308pt" height="82pt"
 viewBox="0.00 0.00 308.00 82.00" xmlns="http://www.w3.org/2000/svg" xmlns:xlink="http://www.w3.org/1999/xlink">
<g id="graph0" class="graph" transform="scale(1 1) rotate(0) translate(4 78)">
<title>opp</title>
<polygon fill="transparent" stroke="transparent" points="-4,4 -4,-78 304,-78 304,4 -4,4"/>
<!-- Ieee8021qLayer -->
<g id="node1" class="node">
<title>Ieee8021qLayer</title>
<g id="a_node1"><a xlink:href="inet.linklayer.ieee8021q.Ieee8021qLayer.html" xlink:title="Compound Module Ieee8021qLayer" target="_parent">
<polygon fill="#fff700" stroke="black" points="203.5,-74 108.5,-74 108.5,-55 203.5,-55 203.5,-74"/>
<text text-anchor="middle" x="156" y="-62" font-family="Helvetica,sans-Serif" font-size="10.00">Ieee8021qLayer</text>
</a>
</g>
</g>
<!-- IIeee8021qLayer -->
<g id="node2" class="node">
<title>IIeee8021qLayer</title>
<g id="a_node2"><a xlink:href="inet.linklayer.ieee8021q.IIeee8021qLayer.html" xlink:title="Module Interface IIeee8021qLayer" target="_parent">
<polygon fill="#fffcaf" stroke="black" stroke-dasharray="5,2" points="98,-19 0,-19 0,0 98,0 98,-19"/>
<text text-anchor="middle" x="49" y="-7" font-family="Helvetica,sans-Serif" font-size="10.00">IIeee8021qLayer</text>
</a>
</g>
</g>
<!-- Ieee8021qLayer&#45;&gt;IIeee8021qLayer -->
<g id="edge1" class="edge">
<title>Ieee8021qLayer&#45;&gt;IIeee8021qLayer</title>
<path fill="none" stroke="black" d="M138.81,-54.98C121.75,-46.54 95.37,-33.47 75.6,-23.68"/>
<polygon fill="black" stroke="black" points="77.02,-20.47 66.5,-19.17 73.91,-26.75 77.02,-20.47"/>
</g>
<!-- IdealChannel -->
<g id="node3" class="node">
<title>IdealChannel</title>
<g id="a_node3"><a xlink:href="ned.IdealChannel.html" xlink:title="Channel IdealChannel" target="_parent">
<polygon fill="#d0ffd0" stroke="black" points="196,-19 116,-19 116,0 196,0 196,-19"/>
<text text-anchor="middle" x="156" y="-7" font-family="Helvetica,sans-Serif" font-size="10.00">IdealChannel</text>
</a>
</g>
</g>
<!-- Ieee8021qLayer&#45;&gt;IdealChannel -->
<g id="edge2" class="edge">
<title>Ieee8021qLayer&#45;&gt;IdealChannel</title>
<path fill="none" stroke="black" d="M156,-54.75C156,-47.8 156,-37.85 156,-29.13"/>
<polygon fill="black" stroke="black" points="159.5,-29.09 156,-19.09 152.5,-29.09 159.5,-29.09"/>
</g>
<!-- IProtocolLayer -->
<g id="node4" class="node">
<title>IProtocolLayer</title>
<g id="a_node4"><a xlink:href="inet.protocolelement.contract.IProtocolLayer.html" xlink:title="Module Interface IProtocolLayer" target="_parent">
<polygon fill="#fffcaf" stroke="black" stroke-dasharray="5,2" points="300,-19 214,-19 214,0 300,0 300,-19"/>
<text text-anchor="middle" x="257" y="-7" font-family="Helvetica,sans-Serif" font-size="10.00">IProtocolLayer</text>
</a>
</g>
</g>
<!-- Ieee8021qLayer&#45;&gt;IProtocolLayer -->
<g id="edge3" class="edge">
<title>Ieee8021qLayer&#45;&gt;IProtocolLayer</title>
<path fill="none" stroke="black" d="M172.23,-54.98C188.18,-46.61 212.78,-33.7 231.38,-23.95"/>
<polygon fill="black" stroke="black" points="233.25,-26.92 240.48,-19.17 230,-20.72 233.25,-26.92"/>
</g>
</g>
</svg>
