<?xml version="1.0" encoding="UTF-8" standalone="no"?>
<!DOCTYPE svg PUBLIC "-//W3C//DTD SVG 1.1//EN"
 "http://www.w3.org/Graphics/SVG/1.1/DTD/svg11.dtd">
<!-- Generated by graphviz version 2.43.0 (0)
 -->
<!-- Title: opp Pages: 1 -->
<svg width="478pt" height="82pt"
 viewBox="0.00 0.00 477.50 82.00" xmlns="http://www.w3.org/2000/svg" xmlns:xlink="http://www.w3.org/1999/xlink">
<g id="graph0" class="graph" transform="scale(1 1) rotate(0) translate(4 78)">
<title>opp</title>
<polygon fill="transparent" stroke="transparent" points="-4,4 -4,-78 473.5,-78 473.5,4 -4,4"/>
<!-- Ieee8021rProtocol -->
<g id="node1" class="node">
<title>Ieee8021rProtocol</title>
<g id="a_node1"><a xlink:href="inet.linklayer.ieee8021r.Ieee8021rProtocol.html" xlink:title="Compound Module Ieee8021rProtocol" target="_parent">
<polygon fill="#fff700" stroke="black" points="288,-74 183,-74 183,-55 288,-55 288,-74"/>
<text text-anchor="middle" x="235.5" y="-62" font-family="Helvetica,sans-Serif" font-size="10.00">Ieee8021rProtocol</text>
</a>
</g>
</g>
<!-- IIeee8021rTagEpdHeaderChecker -->
<g id="node2" class="node">
<title>IIeee8021rTagEpdHeaderChecker</title>
<g id="a_node2"><a xlink:href="inet.linklayer.ieee8021r.IIeee8021rTagEpdHeaderChecker.html" xlink:title="Module Interface IIeee8021rTagEpdHeaderChecker" target="_parent">
<polygon fill="#fffcaf" stroke="black" stroke-dasharray="5,2" points="177,-19 0,-19 0,0 177,0 177,-19"/>
<text text-anchor="middle" x="88.5" y="-7" font-family="Helvetica,sans-Serif" font-size="10.00">IIeee8021rTagEpdHeaderChecker</text>
</a>
</g>
</g>
<!-- Ieee8021rProtocol&#45;&gt;IIeee8021rTagEpdHeaderChecker -->
<g id="edge1" class="edge">
<title>Ieee8021rProtocol&#45;&gt;IIeee8021rTagEpdHeaderChecker</title>
<path fill="none" stroke="black" d="M211.88,-54.98C187.6,-46.23 149.55,-32.51 122.13,-22.62"/>
<polygon fill="black" stroke="black" points="123.14,-19.27 112.55,-19.17 120.77,-25.85 123.14,-19.27"/>
</g>
<!-- IdealChannel -->
<g id="node3" class="node">
<title>IdealChannel</title>
<g id="a_node3"><a xlink:href="ned.IdealChannel.html" xlink:title="Channel IdealChannel" target="_parent">
<polygon fill="#d0ffd0" stroke="black" points="275.5,-19 195.5,-19 195.5,0 275.5,0 275.5,-19"/>
<text text-anchor="middle" x="235.5" y="-7" font-family="Helvetica,sans-Serif" font-size="10.00">IdealChannel</text>
</a>
</g>
</g>
<!-- Ieee8021rProtocol&#45;&gt;IdealChannel -->
<g id="edge2" class="edge">
<title>Ieee8021rProtocol&#45;&gt;IdealChannel</title>
<path fill="none" stroke="black" d="M235.5,-54.75C235.5,-47.8 235.5,-37.85 235.5,-29.13"/>
<polygon fill="black" stroke="black" points="239,-29.09 235.5,-19.09 232,-29.09 239,-29.09"/>
</g>
<!-- IIeee8021rTagEpdHeaderInserter -->
<g id="node4" class="node">
<title>IIeee8021rTagEpdHeaderInserter</title>
<g id="a_node4"><a xlink:href="inet.linklayer.ieee8021r.IIeee8021rTagEpdHeaderInserter.html" xlink:title="Module Interface IIeee8021rTagEpdHeaderInserter" target="_parent">
<polygon fill="#fffcaf" stroke="black" stroke-dasharray="5,2" points="469.5,-19 293.5,-19 293.5,0 469.5,0 469.5,-19"/>
<text text-anchor="middle" x="381.5" y="-7" font-family="Helvetica,sans-Serif" font-size="10.00">IIeee8021rTagEpdHeaderInserter</text>
</a>
</g>
</g>
<!-- Ieee8021rProtocol&#45;&gt;IIeee8021rTagEpdHeaderInserter -->
<g id="edge3" class="edge">
<title>Ieee8021rProtocol&#45;&gt;IIeee8021rTagEpdHeaderInserter</title>
<path fill="none" stroke="black" d="M258.96,-54.98C283.08,-46.23 320.87,-32.51 348.1,-22.62"/>
<polygon fill="black" stroke="black" points="349.41,-25.87 357.62,-19.17 347.02,-19.29 349.41,-25.87"/>
</g>
</g>
</svg>
