<?xml version="1.0" encoding="UTF-8" standalone="no"?>
<!DOCTYPE svg PUBLIC "-//W3C//DTD SVG 1.1//EN"
 "http://www.w3.org/Graphics/SVG/1.1/DTD/svg11.dtd">
<!-- Generated by graphviz version 2.43.0 (0)
 -->
<!-- Title: opp Pages: 1 -->
<svg width="556pt" height="82pt"
 viewBox="0.00 0.00 556.00 82.00" xmlns="http://www.w3.org/2000/svg" xmlns:xlink="http://www.w3.org/1999/xlink">
<g id="graph0" class="graph" transform="scale(1 1) rotate(0) translate(4 78)">
<title>opp</title>
<polygon fill="transparent" stroke="transparent" points="-4,4 -4,-78 552,-78 552,4 -4,4"/>
<!-- MulticastNetwork -->
<g id="node1" class="node">
<title>MulticastNetwork</title>
<g id="a_node1"><a xlink:href="inet.examples.inet.multicast.MulticastNetwork.html" xlink:title="Network MulticastNetwork" target="_parent">
<polygon fill="#9090ff" stroke="black" points="298.5,-74 195.5,-74 195.5,-55 298.5,-55 298.5,-74"/>
<text text-anchor="middle" x="247" y="-62" font-family="Helvetica,sans-Serif" font-size="10.00">MulticastNetwork</text>
</a>
</g>
</g>
<!-- fiberrouter -->
<g id="node2" class="node">
<title>fiberrouter</title>
<g id="a_node2"><a xlink:href="inet.examples.inet.multicast.MulticastNetwork.fiberrouter.html" xlink:title="Channel fiberrouter" target="_parent">
<polygon fill="#d0ffd0" stroke="black" points="68,-19 0,-19 0,0 68,0 68,-19"/>
<text text-anchor="middle" x="34" y="-7" font-family="Helvetica,sans-Serif" font-size="10.00">fiberrouter</text>
</a>
</g>
</g>
<!-- MulticastNetwork&#45;&gt;fiberrouter -->
<g id="edge1" class="edge">
<title>MulticastNetwork&#45;&gt;fiberrouter</title>
<path fill="none" stroke="black" d="M212.78,-54.98C176.14,-45.87 117.88,-31.37 77.89,-21.42"/>
<polygon fill="black" stroke="black" points="78.69,-18.01 68.14,-18.99 77,-24.81 78.69,-18.01"/>
</g>
<!-- ethernet -->
<g id="node3" class="node">
<title>ethernet</title>
<g id="a_node3"><a xlink:href="inet.examples.inet.multicast.MulticastNetwork.ethernet.html" xlink:title="Channel ethernet" target="_parent">
<polygon fill="#d0ffd0" stroke="black" points="144,-19 86,-19 86,0 144,0 144,-19"/>
<text text-anchor="middle" x="115" y="-7" font-family="Helvetica,sans-Serif" font-size="10.00">ethernet</text>
</a>
</g>
</g>
<!-- MulticastNetwork&#45;&gt;ethernet -->
<g id="edge2" class="edge">
<title>MulticastNetwork&#45;&gt;ethernet</title>
<path fill="none" stroke="black" d="M225.79,-54.98C204.27,-46.34 170.72,-32.87 146.17,-23.02"/>
<polygon fill="black" stroke="black" points="147.18,-19.65 136.59,-19.17 144.57,-26.14 147.18,-19.65"/>
</g>
<!-- StandardHost -->
<g id="node4" class="node">
<title>StandardHost</title>
<g id="a_node4"><a xlink:href="inet.node.inet.StandardHost.html" xlink:title="Compound Module StandardHost" target="_parent">
<polygon fill="#fffcaf" stroke="black" points="245.5,-19 162.5,-19 162.5,0 245.5,0 245.5,-19"/>
<text text-anchor="middle" x="204" y="-7" font-family="Helvetica,sans-Serif" font-size="10.00">StandardHost</text>
</a>
</g>
</g>
<!-- MulticastNetwork&#45;&gt;StandardHost -->
<g id="edge3" class="edge">
<title>MulticastNetwork&#45;&gt;StandardHost</title>
<path fill="none" stroke="black" d="M239.9,-54.75C233.83,-47.26 224.91,-36.28 217.49,-27.13"/>
<polygon fill="black" stroke="black" points="219.99,-24.65 210.97,-19.09 214.55,-29.06 219.99,-24.65"/>
</g>
<!-- dialup -->
<g id="node5" class="node">
<title>dialup</title>
<g id="a_node5"><a xlink:href="inet.examples.inet.multicast.MulticastNetwork.dialup.html" xlink:title="Channel dialup" target="_parent">
<polygon fill="#d0ffd0" stroke="black" points="318,-19 264,-19 264,0 318,0 318,-19"/>
<text text-anchor="middle" x="291" y="-7" font-family="Helvetica,sans-Serif" font-size="10.00">dialup</text>
</a>
</g>
</g>
<!-- MulticastNetwork&#45;&gt;dialup -->
<g id="edge4" class="edge">
<title>MulticastNetwork&#45;&gt;dialup</title>
<path fill="none" stroke="black" d="M254.27,-54.75C260.54,-47.18 269.79,-36.05 277.43,-26.84"/>
<polygon fill="black" stroke="black" points="280.17,-29.02 283.87,-19.09 274.79,-24.55 280.17,-29.02"/>
</g>
<!-- Ipv4NetworkConfigurator -->
<g id="node6" class="node">
<title>Ipv4NetworkConfigurator</title>
<g id="a_node6"><a xlink:href="inet.networklayer.configurator.ipv4.Ipv4NetworkConfigurator.html" xlink:title="Simple Module Ipv4NetworkConfigurator" target="_parent">
<polygon fill="#fffcaf" stroke="black" points="475.5,-19 336.5,-19 336.5,0 475.5,0 475.5,-19"/>
<text text-anchor="middle" x="406" y="-7" font-family="Helvetica,sans-Serif" font-size="10.00">Ipv4NetworkConfigurator</text>
</a>
</g>
</g>
<!-- MulticastNetwork&#45;&gt;Ipv4NetworkConfigurator -->
<g id="edge5" class="edge">
<title>MulticastNetwork&#45;&gt;Ipv4NetworkConfigurator</title>
<path fill="none" stroke="black" d="M272.55,-54.98C299.12,-46.13 340.94,-32.19 370.67,-22.28"/>
<polygon fill="black" stroke="black" points="371.87,-25.56 380.25,-19.08 369.66,-18.92 371.87,-25.56"/>
</g>
<!-- Router -->
<g id="node7" class="node">
<title>Router</title>
<g id="a_node7"><a xlink:href="inet.node.inet.Router.html" xlink:title="Compound Module Router" target="_parent">
<polygon fill="#fffcaf" stroke="black" points="548,-19 494,-19 494,0 548,0 548,-19"/>
<text text-anchor="middle" x="521" y="-7" font-family="Helvetica,sans-Serif" font-size="10.00">Router</text>
</a>
</g>
</g>
<!-- MulticastNetwork&#45;&gt;Router -->
<g id="edge6" class="edge">
<title>MulticastNetwork&#45;&gt;Router</title>
<path fill="none" stroke="black" d="M296.36,-54.97C342.42,-46.85 413.3,-33.96 483.94,-19.14"/>
<polygon fill="black" stroke="black" points="484.84,-22.53 493.9,-17.04 483.4,-15.68 484.84,-22.53"/>
</g>
</g>
</svg>
