<?xml version="1.0" encoding="UTF-8" standalone="no"?>
<!DOCTYPE svg PUBLIC "-//W3C//DTD SVG 1.1//EN"
 "http://www.w3.org/Graphics/SVG/1.1/DTD/svg11.dtd">
<!-- Generated by graphviz version 2.43.0 (0)
 -->
<!-- Title: opp Pages: 1 -->
<svg width="254pt" height="82pt"
 viewBox="0.00 0.00 254.00 82.00" xmlns="http://www.w3.org/2000/svg" xmlns:xlink="http://www.w3.org/1999/xlink">
<g id="graph0" class="graph" transform="scale(1 1) rotate(0) translate(4 78)">
<title>opp</title>
<polygon fill="transparent" stroke="transparent" points="-4,4 -4,-78 250,-78 250,4 -4,4"/>
<!-- IQueueVisualizer -->
<g id="node1" class="node">
<title>IQueueVisualizer</title>
<g id="a_node1"><a xlink:href="inet.visualizer.contract.IQueueVisualizer.html" xlink:title="Module Interface IQueueVisualizer" target="_parent">
<polygon fill="#fff700" stroke="black" stroke-dasharray="5,2" points="181.5,-74 82.5,-74 82.5,-55 181.5,-55 181.5,-74"/>
<text text-anchor="middle" x="132" y="-62" font-family="Helvetica,sans-Serif" font-size="10.00">IQueueVisualizer</text>
</a>
</g>
</g>
<!-- QueueCanvasVisualizer -->
<g id="node2" class="node">
<title>QueueCanvasVisualizer</title>
<g id="a_node2"><a xlink:href="inet.visualizer.canvas.common.QueueCanvasVisualizer.html" xlink:title="Simple Module QueueCanvasVisualizer" target="_parent">
<polygon fill="#fffcaf" stroke="black" points="132,-19 0,-19 0,0 132,0 132,-19"/>
<text text-anchor="middle" x="66" y="-7" font-family="Helvetica,sans-Serif" font-size="10.00">QueueCanvasVisualizer</text>
</a>
</g>
</g>
<!-- IQueueVisualizer&#45;&gt;QueueCanvasVisualizer -->
<g id="edge1" class="edge">
<title>IQueueVisualizer&#45;&gt;QueueCanvasVisualizer</title>
<path fill="none" stroke="black" stroke-dasharray="5,2" d="M121.4,-54.98C109.15,-45.15 89.12,-29.07 76.8,-19.17"/>
</g>
<!-- QueueVisualizer -->
<g id="node3" class="node">
<title>QueueVisualizer</title>
<g id="a_node3"><a xlink:href="inet.visualizer.common.QueueVisualizer.html" xlink:title="Compound Module QueueVisualizer" target="_parent">
<polygon fill="#fffcaf" stroke="black" points="246,-19 150,-19 150,0 246,0 246,-19"/>
<text text-anchor="middle" x="198" y="-7" font-family="Helvetica,sans-Serif" font-size="10.00">QueueVisualizer</text>
</a>
</g>
</g>
<!-- IQueueVisualizer&#45;&gt;QueueVisualizer -->
<g id="edge2" class="edge">
<title>IQueueVisualizer&#45;&gt;QueueVisualizer</title>
<path fill="none" stroke="black" stroke-dasharray="5,2" d="M142.6,-54.98C154.85,-45.15 174.88,-29.07 187.2,-19.17"/>
</g>
</g>
</svg>
