<?xml version="1.0" encoding="UTF-8" standalone="no"?>
<!DOCTYPE svg PUBLIC "-//W3C//DTD SVG 1.1//EN"
 "http://www.w3.org/Graphics/SVG/1.1/DTD/svg11.dtd">
<!-- Generated by graphviz version 2.43.0 (0)
 -->
<!-- Title: opp Pages: 1 -->
<svg width="536pt" height="137pt"
 viewBox="0.00 0.00 535.50 137.00" xmlns="http://www.w3.org/2000/svg" xmlns:xlink="http://www.w3.org/1999/xlink">
<g id="graph0" class="graph" transform="scale(1 1) rotate(0) translate(4 133)">
<title>opp</title>
<polygon fill="transparent" stroke="transparent" points="-4,4 -4,-133 531.5,-133 531.5,4 -4,4"/>
<!-- TreeVisualizerBase -->
<g id="node1" class="node">
<title>TreeVisualizerBase</title>
<g id="a_node1"><a xlink:href="inet.visualizer.base.TreeVisualizerBase.html" xlink:title="Simple Module TreeVisualizerBase" target="_parent">
<polygon fill="#fff700" stroke="black" points="314.5,-74 205.5,-74 205.5,-55 314.5,-55 314.5,-74"/>
<text text-anchor="middle" x="260" y="-62" font-family="Helvetica,sans-Serif" font-size="10.00">TreeVisualizerBase</text>
</a>
</g>
</g>
<!-- FailureProtectionConfigurationCanvasVisualizer -->
<g id="node3" class="node">
<title>FailureProtectionConfigurationCanvasVisualizer</title>
<g id="a_node3"><a xlink:href="inet.visualizer.canvas.configurator.FailureProtectionConfigurationCanvasVisualizer.html" xlink:title="Simple Module FailureProtectionConfigurationCanvasVisualizer" target="_parent">
<polygon fill="#fffcaf" stroke="black" points="248,-19 0,-19 0,0 248,0 248,-19"/>
<text text-anchor="middle" x="124" y="-7" font-family="Helvetica,sans-Serif" font-size="10.00">FailureProtectionConfigurationCanvasVisualizer</text>
</a>
</g>
</g>
<!-- TreeVisualizerBase&#45;&gt;FailureProtectionConfigurationCanvasVisualizer -->
<g id="edge2" class="edge">
<title>TreeVisualizerBase&#45;&gt;FailureProtectionConfigurationCanvasVisualizer</title>
<path fill="none" stroke="black" d="M238.15,-54.98C212.92,-45.15 171.64,-29.07 146.25,-19.17"/>
</g>
<!-- StreamRedundancyConfigurationCanvasVisualizer -->
<g id="node4" class="node">
<title>StreamRedundancyConfigurationCanvasVisualizer</title>
<g id="a_node4"><a xlink:href="inet.visualizer.canvas.configurator.StreamRedundancyConfigurationCanvasVisualizer.html" xlink:title="Simple Module StreamRedundancyConfigurationCanvasVisualizer" target="_parent">
<polygon fill="#fffcaf" stroke="black" points="527.5,-19 266.5,-19 266.5,0 527.5,0 527.5,-19"/>
<text text-anchor="middle" x="397" y="-7" font-family="Helvetica,sans-Serif" font-size="10.00">StreamRedundancyConfigurationCanvasVisualizer</text>
</a>
</g>
</g>
<!-- TreeVisualizerBase&#45;&gt;StreamRedundancyConfigurationCanvasVisualizer -->
<g id="edge3" class="edge">
<title>TreeVisualizerBase&#45;&gt;StreamRedundancyConfigurationCanvasVisualizer</title>
<path fill="none" stroke="black" d="M282.01,-54.98C307.43,-45.15 349.01,-29.07 374.59,-19.17"/>
</g>
<!-- VisualizerBase -->
<g id="node2" class="node">
<title>VisualizerBase</title>
<g id="a_node2"><a xlink:href="inet.visualizer.base.VisualizerBase.html" xlink:title="Simple Module VisualizerBase" target="_parent">
<polygon fill="#fffcaf" stroke="black" points="304.5,-129 215.5,-129 215.5,-110 304.5,-110 304.5,-129"/>
<text text-anchor="middle" x="260" y="-117" font-family="Helvetica,sans-Serif" font-size="10.00">VisualizerBase</text>
</a>
</g>
</g>
<!-- VisualizerBase&#45;&gt;TreeVisualizerBase -->
<g id="edge1" class="edge">
<title>VisualizerBase&#45;&gt;TreeVisualizerBase</title>
<path fill="none" stroke="black" d="M260,-109.75C260,-99.87 260,-83.9 260,-74.09"/>
</g>
</g>
</svg>
