<?xml version="1.0" encoding="UTF-8" standalone="no"?>
<!DOCTYPE svg PUBLIC "-//W3C//DTD SVG 1.1//EN"
 "http://www.w3.org/Graphics/SVG/1.1/DTD/svg11.dtd">
<!-- Generated by graphviz version 2.43.0 (0)
 -->
<!-- Title: opp Pages: 1 -->
<svg width="112pt" height="137pt"
 viewBox="0.00 0.00 112.00 137.00" xmlns="http://www.w3.org/2000/svg" xmlns:xlink="http://www.w3.org/1999/xlink">
<g id="graph0" class="graph" transform="scale(1 1) rotate(0) translate(4 133)">
<title>opp</title>
<polygon fill="transparent" stroke="transparent" points="-4,4 -4,-133 108,-133 108,4 -4,4"/>
<!-- IVirtualInterface -->
<g id="node1" class="node">
<title>IVirtualInterface</title>
<g id="a_node1"><a xlink:href="inet.linklayer.contract.IVirtualInterface.html" xlink:title="Module Interface IVirtualInterface" target="_parent">
<polygon fill="#fff700" stroke="black" stroke-dasharray="5,2" points="99.5,-74 4.5,-74 4.5,-55 99.5,-55 99.5,-74"/>
<text text-anchor="middle" x="52" y="-62" font-family="Helvetica,sans-Serif" font-size="10.00">IVirtualInterface</text>
</a>
</g>
</g>
<!-- VirtualInterface -->
<g id="node3" class="node">
<title>VirtualInterface</title>
<g id="a_node3"><a xlink:href="inet.linklayer.virtual.VirtualInterface.html" xlink:title="Compound Module VirtualInterface" target="_parent">
<polygon fill="#fffcaf" stroke="black" points="98,-19 6,-19 6,0 98,0 98,-19"/>
<text text-anchor="middle" x="52" y="-7" font-family="Helvetica,sans-Serif" font-size="10.00">VirtualInterface</text>
</a>
</g>
</g>
<!-- IVirtualInterface&#45;&gt;VirtualInterface -->
<g id="edge2" class="edge">
<title>IVirtualInterface&#45;&gt;VirtualInterface</title>
<path fill="none" stroke="black" stroke-dasharray="5,2" d="M52,-54.75C52,-44.87 52,-28.9 52,-19.09"/>
</g>
<!-- INetworkInterface -->
<g id="node2" class="node">
<title>INetworkInterface</title>
<g id="a_node2"><a xlink:href="inet.linklayer.contract.INetworkInterface.html" xlink:title="Module Interface INetworkInterface" target="_parent">
<polygon fill="#fffcaf" stroke="black" stroke-dasharray="5,2" points="104,-129 0,-129 0,-110 104,-110 104,-129"/>
<text text-anchor="middle" x="52" y="-117" font-family="Helvetica,sans-Serif" font-size="10.00">INetworkInterface</text>
</a>
</g>
</g>
<!-- INetworkInterface&#45;&gt;IVirtualInterface -->
<g id="edge1" class="edge">
<title>INetworkInterface&#45;&gt;IVirtualInterface</title>
<path fill="none" stroke="black" d="M52,-109.75C52,-99.87 52,-83.9 52,-74.09"/>
</g>
</g>
</svg>
