<?xml version="1.0" encoding="UTF-8" standalone="no"?>
<!DOCTYPE svg PUBLIC "-//W3C//DTD SVG 1.1//EN"
 "http://www.w3.org/Graphics/SVG/1.1/DTD/svg11.dtd">
<!-- Generated by graphviz version 2.43.0 (0)
 -->
<!-- Title: opp Pages: 1 -->
<svg width="1110pt" height="137pt"
 viewBox="0.00 0.00 1109.50 137.00" xmlns="http://www.w3.org/2000/svg" xmlns:xlink="http://www.w3.org/1999/xlink">
<g id="graph0" class="graph" transform="scale(1 1) rotate(0) translate(4 133)">
<title>opp</title>
<polygon fill="transparent" stroke="transparent" points="-4,4 -4,-133 1105.5,-133 1105.5,4 -4,4"/>
<!-- BGPRouterEx -->
<g id="node1" class="node">
<title>BGPRouterEx</title>
<g id="a_node1"><a xlink:href="inet.examples.bgpv4.BgpUpdate.BGPRouterEx.html" xlink:title="Compound Module BGPRouterEx" target="_parent">
<polygon fill="#fff700" stroke="black" points="571.5,-74 490.5,-74 490.5,-55 571.5,-55 571.5,-74"/>
<text text-anchor="middle" x="531" y="-62" font-family="Helvetica,sans-Serif" font-size="10.00">BGPRouterEx</text>
</a>
</g>
</g>
<!-- InterfaceTable -->
<g id="node2" class="node">
<title>InterfaceTable</title>
<g id="a_node2"><a xlink:href="inet.networklayer.common.InterfaceTable.html" xlink:title="Simple Module InterfaceTable" target="_parent">
<polygon fill="#fffcaf" stroke="black" points="86,-19 0,-19 0,0 86,0 86,-19"/>
<text text-anchor="middle" x="43" y="-7" font-family="Helvetica,sans-Serif" font-size="10.00">InterfaceTable</text>
</a>
</g>
</g>
<!-- BGPRouterEx&#45;&gt;InterfaceTable -->
<g id="edge1" class="edge">
<title>BGPRouterEx&#45;&gt;InterfaceTable</title>
<path fill="none" stroke="black" d="M490.33,-60.17C414.77,-53.82 247.4,-38.89 96.05,-19.06"/>
<polygon fill="black" stroke="black" points="96.47,-15.59 86.1,-17.75 95.56,-22.53 96.47,-15.59"/>
</g>
<!-- Ipv4NetworkLayer -->
<g id="node3" class="node">
<title>Ipv4NetworkLayer</title>
<g id="a_node3"><a xlink:href="inet.networklayer.ipv4.Ipv4NetworkLayer.html" xlink:title="Compound Module Ipv4NetworkLayer" target="_parent">
<polygon fill="#fffcaf" stroke="black" points="210,-19 104,-19 104,0 210,0 210,-19"/>
<text text-anchor="middle" x="157" y="-7" font-family="Helvetica,sans-Serif" font-size="10.00">Ipv4NetworkLayer</text>
</a>
</g>
</g>
<!-- BGPRouterEx&#45;&gt;Ipv4NetworkLayer -->
<g id="edge2" class="edge">
<title>BGPRouterEx&#45;&gt;Ipv4NetworkLayer</title>
<path fill="none" stroke="black" d="M490.26,-57.73C425.22,-48.51 297.4,-30.4 220.35,-19.48"/>
<polygon fill="black" stroke="black" points="220.68,-15.99 210.29,-18.05 219.7,-22.92 220.68,-15.99"/>
</g>
<!-- MessageDispatcher -->
<g id="node4" class="node">
<title>MessageDispatcher</title>
<g id="a_node4"><a xlink:href="inet.common.MessageDispatcher.html" xlink:title="Simple Module MessageDispatcher" target="_parent">
<polygon fill="#fffcaf" stroke="black" points="341.5,-19 228.5,-19 228.5,0 341.5,0 341.5,-19"/>
<text text-anchor="middle" x="285" y="-7" font-family="Helvetica,sans-Serif" font-size="10.00">MessageDispatcher</text>
</a>
</g>
</g>
<!-- BGPRouterEx&#45;&gt;MessageDispatcher -->
<g id="edge3" class="edge">
<title>BGPRouterEx&#45;&gt;MessageDispatcher</title>
<path fill="none" stroke="black" d="M491.48,-54.98C448.83,-45.8 380.85,-31.15 334.64,-21.19"/>
<polygon fill="black" stroke="black" points="335.35,-17.77 324.83,-19.08 333.87,-24.61 335.35,-17.77"/>
</g>
<!-- ITcp -->
<g id="node5" class="node">
<title>ITcp</title>
<g id="a_node5"><a xlink:href="inet.transportlayer.contract.ITcp.html" xlink:title="Module Interface ITcp" target="_parent">
<polygon fill="#fffcaf" stroke="black" stroke-dasharray="5,2" points="414,-19 360,-19 360,0 414,0 414,-19"/>
<text text-anchor="middle" x="387" y="-7" font-family="Helvetica,sans-Serif" font-size="10.00">ITcp</text>
</a>
</g>
</g>
<!-- BGPRouterEx&#45;&gt;ITcp -->
<g id="edge4" class="edge">
<title>BGPRouterEx&#45;&gt;ITcp</title>
<path fill="none" stroke="black" d="M507.86,-54.98C484.18,-46.27 447.13,-32.63 420.29,-22.75"/>
<polygon fill="black" stroke="black" points="421.15,-19.34 410.56,-19.17 418.73,-25.91 421.15,-19.34"/>
</g>
<!-- Ospfv2 -->
<g id="node6" class="node">
<title>Ospfv2</title>
<g id="a_node6"><a xlink:href="inet.routing.ospfv2.Ospfv2.html" xlink:title="Simple Module Ospfv2" target="_parent">
<polygon fill="#fffcaf" stroke="black" points="486,-19 432,-19 432,0 486,0 486,-19"/>
<text text-anchor="middle" x="459" y="-7" font-family="Helvetica,sans-Serif" font-size="10.00">Ospfv2</text>
</a>
</g>
</g>
<!-- BGPRouterEx&#45;&gt;Ospfv2 -->
<g id="edge5" class="edge">
<title>BGPRouterEx&#45;&gt;Ospfv2</title>
<path fill="none" stroke="black" d="M519.43,-54.98C508.58,-47 492.12,-34.88 479.12,-25.31"/>
<polygon fill="black" stroke="black" points="480.91,-22.28 470.78,-19.17 476.76,-27.92 480.91,-22.28"/>
</g>
<!-- Bgp -->
<g id="node7" class="node">
<title>Bgp</title>
<g id="a_node7"><a xlink:href="inet.routing.bgpv4.Bgp.html" xlink:title="Simple Module Bgp" target="_parent">
<polygon fill="#fffcaf" stroke="black" points="558,-19 504,-19 504,0 558,0 558,-19"/>
<text text-anchor="middle" x="531" y="-7" font-family="Helvetica,sans-Serif" font-size="10.00">Bgp</text>
</a>
</g>
</g>
<!-- BGPRouterEx&#45;&gt;Bgp -->
<g id="edge6" class="edge">
<title>BGPRouterEx&#45;&gt;Bgp</title>
<path fill="none" stroke="black" d="M531,-54.75C531,-47.8 531,-37.85 531,-29.13"/>
<polygon fill="black" stroke="black" points="534.5,-29.09 531,-19.09 527.5,-29.09 534.5,-29.09"/>
</g>
<!-- IEthernetLayer -->
<g id="node8" class="node">
<title>IEthernetLayer</title>
<g id="a_node8"><a xlink:href="inet.linklayer.ethernet.contract.IEthernetLayer.html" xlink:title="Module Interface IEthernetLayer" target="_parent">
<polygon fill="#fffcaf" stroke="black" stroke-dasharray="5,2" points="664,-19 576,-19 576,0 664,0 664,-19"/>
<text text-anchor="middle" x="620" y="-7" font-family="Helvetica,sans-Serif" font-size="10.00">IEthernetLayer</text>
</a>
</g>
</g>
<!-- BGPRouterEx&#45;&gt;IEthernetLayer -->
<g id="edge7" class="edge">
<title>BGPRouterEx&#45;&gt;IEthernetLayer</title>
<path fill="none" stroke="black" d="M545.3,-54.98C559.1,-46.77 580.24,-34.18 596.51,-24.49"/>
<polygon fill="black" stroke="black" points="598.64,-27.29 605.44,-19.17 595.06,-21.28 598.64,-27.29"/>
</g>
<!-- IdealChannel -->
<g id="node9" class="node">
<title>IdealChannel</title>
<g id="a_node9"><a xlink:href="ned.IdealChannel.html" xlink:title="Channel IdealChannel" target="_parent">
<polygon fill="#d0ffd0" stroke="black" points="762,-19 682,-19 682,0 762,0 762,-19"/>
<text text-anchor="middle" x="722" y="-7" font-family="Helvetica,sans-Serif" font-size="10.00">IdealChannel</text>
</a>
</g>
</g>
<!-- BGPRouterEx&#45;&gt;IdealChannel -->
<g id="edge8" class="edge">
<title>BGPRouterEx&#45;&gt;IdealChannel</title>
<path fill="none" stroke="black" d="M561.69,-54.98C594.17,-45.97 645.6,-31.7 681.41,-21.76"/>
<polygon fill="black" stroke="black" points="682.37,-25.13 691.07,-19.08 680.5,-18.38 682.37,-25.13"/>
</g>
<!-- MessageChecker -->
<g id="node10" class="node">
<title>MessageChecker</title>
<g id="a_node10"><a xlink:href="inet.common.misc.MessageChecker.html" xlink:title="Simple Module MessageChecker" target="_parent">
<polygon fill="#fffcaf" stroke="black" points="879.5,-19 780.5,-19 780.5,0 879.5,0 879.5,-19"/>
<text text-anchor="middle" x="830" y="-7" font-family="Helvetica,sans-Serif" font-size="10.00">MessageChecker</text>
</a>
</g>
</g>
<!-- BGPRouterEx&#45;&gt;MessageChecker -->
<g id="edge9" class="edge">
<title>BGPRouterEx&#45;&gt;MessageChecker</title>
<path fill="none" stroke="black" d="M571.64,-56.3C623.41,-47.12 713.22,-31.2 772.14,-20.76"/>
<polygon fill="black" stroke="black" points="772.8,-24.19 782.04,-19 771.58,-17.3 772.8,-24.19"/>
</g>
<!-- IEthernetInterface -->
<g id="node11" class="node">
<title>IEthernetInterface</title>
<g id="a_node11"><a xlink:href="inet.linklayer.contract.IEthernetInterface.html" xlink:title="Module Interface IEthernetInterface" target="_parent">
<polygon fill="#fffcaf" stroke="black" stroke-dasharray="5,2" points="1002,-19 898,-19 898,0 1002,0 1002,-19"/>
<text text-anchor="middle" x="950" y="-7" font-family="Helvetica,sans-Serif" font-size="10.00">IEthernetInterface</text>
</a>
</g>
</g>
<!-- BGPRouterEx&#45;&gt;IEthernetInterface -->
<g id="edge10" class="edge">
<title>BGPRouterEx&#45;&gt;IEthernetInterface</title>
<path fill="none" stroke="black" d="M571.56,-58.66C636.14,-50.9 766.58,-35.06 887.58,-19.17"/>
<polygon fill="black" stroke="black" points="888.31,-22.61 897.76,-17.83 887.39,-15.67 888.31,-22.61"/>
</g>
<!-- IPppInterface -->
<g id="node12" class="node">
<title>IPppInterface</title>
<g id="a_node12"><a xlink:href="inet.linklayer.contract.IPppInterface.html" xlink:title="Module Interface IPppInterface" target="_parent">
<polygon fill="#fffcaf" stroke="black" stroke-dasharray="5,2" points="1101.5,-19 1020.5,-19 1020.5,0 1101.5,0 1101.5,-19"/>
<text text-anchor="middle" x="1061" y="-7" font-family="Helvetica,sans-Serif" font-size="10.00">IPppInterface</text>
</a>
</g>
</g>
<!-- BGPRouterEx&#45;&gt;IPppInterface -->
<g id="edge11" class="edge">
<title>BGPRouterEx&#45;&gt;IPppInterface</title>
<path fill="none" stroke="black" d="M571.57,-60.78C652.77,-55.12 841.22,-40.85 1010.3,-18.99"/>
<polygon fill="black" stroke="black" points="1010.92,-22.44 1020.38,-17.67 1010.01,-15.49 1010.92,-22.44"/>
</g>
<!-- BgpNetwork -->
<g id="node13" class="node">
<title>BgpNetwork</title>
<g id="a_node13"><a xlink:href="inet.examples.bgpv4.BgpUpdate.BgpNetwork.html" xlink:title="Network BgpNetwork" target="_parent">
<polygon fill="#d0d0ff" stroke="black" points="569.5,-129 492.5,-129 492.5,-110 569.5,-110 569.5,-129"/>
<text text-anchor="middle" x="531" y="-117" font-family="Helvetica,sans-Serif" font-size="10.00">BgpNetwork</text>
</a>
</g>
</g>
<!-- BgpNetwork&#45;&gt;BGPRouterEx -->
<g id="edge12" class="edge">
<title>BgpNetwork&#45;&gt;BGPRouterEx</title>
<path fill="none" stroke="black" d="M531,-109.75C531,-102.8 531,-92.85 531,-84.13"/>
<polygon fill="black" stroke="black" points="534.5,-84.09 531,-74.09 527.5,-84.09 534.5,-84.09"/>
</g>
</g>
</svg>
