<?xml version="1.0" encoding="UTF-8" standalone="no"?>
<!DOCTYPE svg PUBLIC "-//W3C//DTD SVG 1.1//EN"
 "http://www.w3.org/Graphics/SVG/1.1/DTD/svg11.dtd">
<!-- Generated by graphviz version 2.43.0 (0)
 -->
<!-- Title: opp Pages: 1 -->
<svg width="488pt" height="82pt"
 viewBox="0.00 0.00 488.00 82.00" xmlns="http://www.w3.org/2000/svg" xmlns:xlink="http://www.w3.org/1999/xlink">
<g id="graph0" class="graph" transform="scale(1 1) rotate(0) translate(4 78)">
<title>opp</title>
<polygon fill="transparent" stroke="transparent" points="-4,4 -4,-78 484,-78 484,4 -4,4"/>
<!-- WiseRouteNetworkLayer -->
<g id="node1" class="node">
<title>WiseRouteNetworkLayer</title>
<g id="a_node1"><a xlink:href="inet.networklayer.wiseroute.WiseRouteNetworkLayer.html" xlink:title="Compound Module WiseRouteNetworkLayer" target="_parent">
<polygon fill="#fff700" stroke="black" points="327,-74 190,-74 190,-55 327,-55 327,-74"/>
<text text-anchor="middle" x="258.5" y="-62" font-family="Helvetica,sans-Serif" font-size="10.00">WiseRouteNetworkLayer</text>
</a>
</g>
</g>
<!-- MessageDispatcher -->
<g id="node2" class="node">
<title>MessageDispatcher</title>
<g id="a_node2"><a xlink:href="inet.common.MessageDispatcher.html" xlink:title="Simple Module MessageDispatcher" target="_parent">
<polygon fill="#fffcaf" stroke="black" points="113,-19 0,-19 0,0 113,0 113,-19"/>
<text text-anchor="middle" x="56.5" y="-7" font-family="Helvetica,sans-Serif" font-size="10.00">MessageDispatcher</text>
</a>
</g>
</g>
<!-- WiseRouteNetworkLayer&#45;&gt;MessageDispatcher -->
<g id="edge1" class="edge">
<title>WiseRouteNetworkLayer&#45;&gt;MessageDispatcher</title>
<path fill="none" stroke="black" d="M226.05,-54.98C191.54,-45.93 136.84,-31.58 98.94,-21.64"/>
<polygon fill="black" stroke="black" points="99.77,-18.23 89.21,-19.08 97.99,-25.01 99.77,-18.23"/>
</g>
<!-- WiseRoute -->
<g id="node3" class="node">
<title>WiseRoute</title>
<g id="a_node3"><a xlink:href="inet.networklayer.wiseroute.WiseRoute.html" xlink:title="Simple Module WiseRoute" target="_parent">
<polygon fill="#fffcaf" stroke="black" points="200,-19 131,-19 131,0 200,0 200,-19"/>
<text text-anchor="middle" x="165.5" y="-7" font-family="Helvetica,sans-Serif" font-size="10.00">WiseRoute</text>
</a>
</g>
</g>
<!-- WiseRouteNetworkLayer&#45;&gt;WiseRoute -->
<g id="edge2" class="edge">
<title>WiseRouteNetworkLayer&#45;&gt;WiseRoute</title>
<path fill="none" stroke="black" d="M243.56,-54.98C229,-46.69 206.63,-33.94 189.57,-24.22"/>
<polygon fill="black" stroke="black" points="191.14,-21.08 180.71,-19.17 187.67,-27.16 191.14,-21.08"/>
</g>
<!-- EchoProtocol -->
<g id="node4" class="node">
<title>EchoProtocol</title>
<g id="a_node4"><a xlink:href="inet.networklayer.common.EchoProtocol.html" xlink:title="Simple Module EchoProtocol" target="_parent">
<polygon fill="#fffcaf" stroke="black" points="298.5,-19 218.5,-19 218.5,0 298.5,0 298.5,-19"/>
<text text-anchor="middle" x="258.5" y="-7" font-family="Helvetica,sans-Serif" font-size="10.00">EchoProtocol</text>
</a>
</g>
</g>
<!-- WiseRouteNetworkLayer&#45;&gt;EchoProtocol -->
<g id="edge3" class="edge">
<title>WiseRouteNetworkLayer&#45;&gt;EchoProtocol</title>
<path fill="none" stroke="black" d="M258.5,-54.75C258.5,-47.8 258.5,-37.85 258.5,-29.13"/>
<polygon fill="black" stroke="black" points="262,-29.09 258.5,-19.09 255,-29.09 262,-29.09"/>
</g>
<!-- IdealChannel -->
<g id="node5" class="node">
<title>IdealChannel</title>
<g id="a_node5"><a xlink:href="ned.IdealChannel.html" xlink:title="Channel IdealChannel" target="_parent">
<polygon fill="#d0ffd0" stroke="black" points="396.5,-19 316.5,-19 316.5,0 396.5,0 396.5,-19"/>
<text text-anchor="middle" x="356.5" y="-7" font-family="Helvetica,sans-Serif" font-size="10.00">IdealChannel</text>
</a>
</g>
</g>
<!-- WiseRouteNetworkLayer&#45;&gt;IdealChannel -->
<g id="edge4" class="edge">
<title>WiseRouteNetworkLayer&#45;&gt;IdealChannel</title>
<path fill="none" stroke="black" d="M274.25,-54.98C289.73,-46.61 313.59,-33.7 331.64,-23.95"/>
<polygon fill="black" stroke="black" points="333.34,-27.01 340.47,-19.17 330.01,-20.85 333.34,-27.01"/>
</g>
<!-- GlobalArp -->
<g id="node6" class="node">
<title>GlobalArp</title>
<g id="a_node6"><a xlink:href="inet.networklayer.arp.ipv4.GlobalArp.html" xlink:title="Simple Module GlobalArp" target="_parent">
<polygon fill="#fffcaf" stroke="black" points="480,-19 415,-19 415,0 480,0 480,-19"/>
<text text-anchor="middle" x="447.5" y="-7" font-family="Helvetica,sans-Serif" font-size="10.00">GlobalArp</text>
</a>
</g>
</g>
<!-- WiseRouteNetworkLayer&#45;&gt;GlobalArp -->
<g id="edge5" class="edge">
<title>WiseRouteNetworkLayer&#45;&gt;GlobalArp</title>
<path fill="none" stroke="black" d="M288.87,-54.98C320.87,-46.01 371.46,-31.82 406.88,-21.89"/>
<polygon fill="black" stroke="black" points="408.21,-25.15 416.9,-19.08 406.32,-18.41 408.21,-25.15"/>
</g>
</g>
</svg>
