<?xml version="1.0" encoding="UTF-8" standalone="no"?>
<!DOCTYPE svg PUBLIC "-//W3C//DTD SVG 1.1//EN"
 "http://www.w3.org/Graphics/SVG/1.1/DTD/svg11.dtd">
<!-- Generated by graphviz version 2.43.0 (0)
 -->
<!-- Title: opp Pages: 1 -->
<svg width="257pt" height="137pt"
 viewBox="0.00 0.00 257.00 137.00" xmlns="http://www.w3.org/2000/svg" xmlns:xlink="http://www.w3.org/1999/xlink">
<g id="graph0" class="graph" transform="scale(1 1) rotate(0) translate(4 133)">
<title>opp</title>
<polygon fill="transparent" stroke="transparent" points="-4,4 -4,-133 253,-133 253,4 -4,4"/>
<!-- PacketStreamer -->
<g id="node1" class="node">
<title>PacketStreamer</title>
<g id="a_node1"><a xlink:href="inet.protocolelement.common.PacketStreamer.html" xlink:title="Simple Module PacketStreamer" target="_parent">
<polygon fill="#fff700" stroke="black" points="163,-74 70,-74 70,-55 163,-55 163,-74"/>
<text text-anchor="middle" x="116.5" y="-62" font-family="Helvetica,sans-Serif" font-size="10.00">PacketStreamer</text>
</a>
</g>
</g>
<!-- CutthroughSink -->
<g id="node4" class="node">
<title>CutthroughSink</title>
<g id="a_node4"><a xlink:href="inet.protocolelement.cutthrough.CutthroughSink.html" xlink:title="Simple Module CutthroughSink" target="_parent">
<polygon fill="#fffcaf" stroke="black" points="97.5,-19 5.5,-19 5.5,0 97.5,0 97.5,-19"/>
<text text-anchor="middle" x="51.5" y="-7" font-family="Helvetica,sans-Serif" font-size="10.00">CutthroughSink</text>
</a>
</g>
</g>
<!-- PacketStreamer&#45;&gt;CutthroughSink -->
<g id="edge3" class="edge">
<title>PacketStreamer&#45;&gt;CutthroughSink</title>
<path fill="none" stroke="black" d="M106.06,-54.98C94,-45.15 74.27,-29.07 62.13,-19.17"/>
</g>
<!-- EthernetCutthroughSink -->
<g id="node5" class="node">
<title>EthernetCutthroughSink</title>
<g id="a_node5"><a xlink:href="inet.linklayer.ethernet.modular.EthernetCutthroughSink.html" xlink:title="Simple Module EthernetCutthroughSink" target="_parent">
<polygon fill="#fffcaf" stroke="black" points="249,-19 116,-19 116,0 249,0 249,-19"/>
<text text-anchor="middle" x="182.5" y="-7" font-family="Helvetica,sans-Serif" font-size="10.00">EthernetCutthroughSink</text>
</a>
</g>
</g>
<!-- PacketStreamer&#45;&gt;EthernetCutthroughSink -->
<g id="edge4" class="edge">
<title>PacketStreamer&#45;&gt;EthernetCutthroughSink</title>
<path fill="none" stroke="black" d="M127.1,-54.98C139.35,-45.15 159.38,-29.07 171.7,-19.17"/>
</g>
<!-- PacketProcessorBase -->
<g id="node2" class="node">
<title>PacketProcessorBase</title>
<g id="a_node2"><a xlink:href="inet.queueing.base.PacketProcessorBase.html" xlink:title="Simple Module PacketProcessorBase" target="_parent">
<polygon fill="#fffcaf" stroke="black" points="119,-129 0,-129 0,-110 119,-110 119,-129"/>
<text text-anchor="middle" x="59.5" y="-117" font-family="Helvetica,sans-Serif" font-size="10.00">PacketProcessorBase</text>
</a>
</g>
</g>
<!-- PacketProcessorBase&#45;&gt;PacketStreamer -->
<g id="edge1" class="edge">
<title>PacketProcessorBase&#45;&gt;PacketStreamer</title>
<path fill="none" stroke="black" d="M68.66,-109.98C79.23,-100.15 96.53,-84.07 107.18,-74.17"/>
</g>
<!-- IPacketFlow -->
<g id="node3" class="node">
<title>IPacketFlow</title>
<g id="a_node3"><a xlink:href="inet.queueing.contract.IPacketFlow.html" xlink:title="Module Interface IPacketFlow" target="_parent">
<polygon fill="#fffcaf" stroke="black" stroke-dasharray="5,2" points="211.5,-129 137.5,-129 137.5,-110 211.5,-110 211.5,-129"/>
<text text-anchor="middle" x="174.5" y="-117" font-family="Helvetica,sans-Serif" font-size="10.00">IPacketFlow</text>
</a>
</g>
</g>
<!-- IPacketFlow&#45;&gt;PacketStreamer -->
<g id="edge2" class="edge">
<title>IPacketFlow&#45;&gt;PacketStreamer</title>
<path fill="none" stroke="black" stroke-dasharray="5,2" d="M165.18,-109.98C154.42,-100.15 136.82,-84.07 125.99,-74.17"/>
</g>
</g>
</svg>
