<?xml version="1.0" encoding="UTF-8" standalone="no"?>
<!DOCTYPE svg PUBLIC "-//W3C//DTD SVG 1.1//EN"
 "http://www.w3.org/Graphics/SVG/1.1/DTD/svg11.dtd">
<!-- Generated by graphviz version 2.43.0 (0)
 -->
<!-- Title: opp Pages: 1 -->
<svg width="302pt" height="82pt"
 viewBox="0.00 0.00 302.00 82.00" xmlns="http://www.w3.org/2000/svg" xmlns:xlink="http://www.w3.org/1999/xlink">
<g id="graph0" class="graph" transform="scale(1 1) rotate(0) translate(4 78)">
<title>opp</title>
<polygon fill="transparent" stroke="transparent" points="-4,4 -4,-78 298,-78 298,4 -4,4"/>
<!-- Ieee8021qTagEpdHeaderChecker -->
<g id="node1" class="node">
<title>Ieee8021qTagEpdHeaderChecker</title>
<g id="a_node1"><a xlink:href="inet.linklayer.ieee8021q.Ieee8021qTagEpdHeaderChecker.html" xlink:title="Simple Module Ieee8021qTagEpdHeaderChecker" target="_parent">
<polygon fill="#fff700" stroke="black" points="214.5,-19 38.5,-19 38.5,0 214.5,0 214.5,-19"/>
<text text-anchor="middle" x="126.5" y="-7" font-family="Helvetica,sans-Serif" font-size="10.00">Ieee8021qTagEpdHeaderChecker</text>
</a>
</g>
</g>
<!-- PacketFilterBase -->
<g id="node2" class="node">
<title>PacketFilterBase</title>
<g id="a_node2"><a xlink:href="inet.queueing.base.PacketFilterBase.html" xlink:title="Simple Module PacketFilterBase" target="_parent">
<polygon fill="#fffcaf" stroke="black" points="97,-74 0,-74 0,-55 97,-55 97,-74"/>
<text text-anchor="middle" x="48.5" y="-62" font-family="Helvetica,sans-Serif" font-size="10.00">PacketFilterBase</text>
</a>
</g>
</g>
<!-- PacketFilterBase&#45;&gt;Ieee8021qTagEpdHeaderChecker -->
<g id="edge1" class="edge">
<title>PacketFilterBase&#45;&gt;Ieee8021qTagEpdHeaderChecker</title>
<path fill="none" stroke="black" d="M61.03,-54.98C75.5,-45.15 99.17,-29.07 113.74,-19.17"/>
</g>
<!-- IIeee8021qTagEpdHeaderChecker -->
<g id="node3" class="node">
<title>IIeee8021qTagEpdHeaderChecker</title>
<g id="a_node3"><a xlink:href="inet.linklayer.ieee8021q.IIeee8021qTagEpdHeaderChecker.html" xlink:title="Module Interface IIeee8021qTagEpdHeaderChecker" target="_parent">
<polygon fill="#fffcaf" stroke="black" stroke-dasharray="5,2" points="294,-74 115,-74 115,-55 294,-55 294,-74"/>
<text text-anchor="middle" x="204.5" y="-62" font-family="Helvetica,sans-Serif" font-size="10.00">IIeee8021qTagEpdHeaderChecker</text>
</a>
</g>
</g>
<!-- IIeee8021qTagEpdHeaderChecker&#45;&gt;Ieee8021qTagEpdHeaderChecker -->
<g id="edge2" class="edge">
<title>IIeee8021qTagEpdHeaderChecker&#45;&gt;Ieee8021qTagEpdHeaderChecker</title>
<path fill="none" stroke="black" stroke-dasharray="5,2" d="M191.97,-54.98C177.5,-45.15 153.83,-29.07 139.26,-19.17"/>
</g>
</g>
</svg>
