<?xml version="1.0" encoding="UTF-8" standalone="no"?>
<!DOCTYPE svg PUBLIC "-//W3C//DTD SVG 1.1//EN"
 "http://www.w3.org/Graphics/SVG/1.1/DTD/svg11.dtd">
<!-- Generated by graphviz version 2.43.0 (0)
 -->
<!-- Title: opp Pages: 1 -->
<svg width="1133pt" height="82pt"
 viewBox="0.00 0.00 1133.00 82.00" xmlns="http://www.w3.org/2000/svg" xmlns:xlink="http://www.w3.org/1999/xlink">
<g id="graph0" class="graph" transform="scale(1 1) rotate(0) translate(4 78)">
<title>opp</title>
<polygon fill="transparent" stroke="transparent" points="-4,4 -4,-78 1129,-78 1129,4 -4,4"/>
<!-- NetworkPathRIPShowcase -->
<g id="node1" class="node">
<title>NetworkPathRIPShowcase</title>
<g id="a_node1"><a xlink:href="inet.showcases.visualizer.canvas.networkpathactivity.NetworkPathRIPShowcase.html" xlink:title="Network NetworkPathRIPShowcase" target="_parent">
<polygon fill="#9090ff" stroke="black" points="687,-74 544,-74 544,-55 687,-55 687,-74"/>
<text text-anchor="middle" x="615.5" y="-62" font-family="Helvetica,sans-Serif" font-size="10.00">NetworkPathRIPShowcase</text>
</a>
</g>
</g>
<!-- IntegratedVisualizer -->
<g id="node2" class="node">
<title>IntegratedVisualizer</title>
<g id="a_node2"><a xlink:href="inet.visualizer.common.IntegratedVisualizer.html" xlink:title="Compound Module IntegratedVisualizer" target="_parent">
<polygon fill="#fffcaf" stroke="black" points="115,-19 0,-19 0,0 115,0 115,-19"/>
<text text-anchor="middle" x="57.5" y="-7" font-family="Helvetica,sans-Serif" font-size="10.00">IntegratedVisualizer</text>
</a>
</g>
</g>
<!-- NetworkPathRIPShowcase&#45;&gt;IntegratedVisualizer -->
<g id="edge1" class="edge">
<title>NetworkPathRIPShowcase&#45;&gt;IntegratedVisualizer</title>
<path fill="none" stroke="black" d="M543.71,-57.86C449.89,-50.31 280.18,-35.98 125.26,-19.16"/>
<polygon fill="black" stroke="black" points="125.4,-15.65 115.08,-18.05 124.64,-22.61 125.4,-15.65"/>
</g>
<!-- Ieee80211ScalarRadioMedium -->
<g id="node3" class="node">
<title>Ieee80211ScalarRadioMedium</title>
<g id="a_node3"><a xlink:href="inet.physicallayer.wireless.ieee80211.packetlevel.Ieee80211ScalarRadioMedium.html" xlink:title="Compound Module Ieee80211ScalarRadioMedium" target="_parent">
<polygon fill="#fffcaf" stroke="black" points="298,-19 133,-19 133,0 298,0 298,-19"/>
<text text-anchor="middle" x="215.5" y="-7" font-family="Helvetica,sans-Serif" font-size="10.00">Ieee80211ScalarRadioMedium</text>
</a>
</g>
</g>
<!-- NetworkPathRIPShowcase&#45;&gt;Ieee80211ScalarRadioMedium -->
<g id="edge2" class="edge">
<title>NetworkPathRIPShowcase&#45;&gt;Ieee80211ScalarRadioMedium</title>
<path fill="none" stroke="black" d="M551.23,-54.98C480.05,-45.55 365.42,-30.36 290.27,-20.41"/>
<polygon fill="black" stroke="black" points="290.31,-16.88 279.94,-19.04 289.39,-23.82 290.31,-16.88"/>
</g>
<!-- StandardHost -->
<g id="node4" class="node">
<title>StandardHost</title>
<g id="a_node4"><a xlink:href="inet.node.inet.StandardHost.html" xlink:title="Compound Module StandardHost" target="_parent">
<polygon fill="#fffcaf" stroke="black" points="399,-19 316,-19 316,0 399,0 399,-19"/>
<text text-anchor="middle" x="357.5" y="-7" font-family="Helvetica,sans-Serif" font-size="10.00">StandardHost</text>
</a>
</g>
</g>
<!-- NetworkPathRIPShowcase&#45;&gt;StandardHost -->
<g id="edge3" class="edge">
<title>NetworkPathRIPShowcase&#45;&gt;StandardHost</title>
<path fill="none" stroke="black" d="M574.05,-54.98C529.23,-45.78 457.73,-31.09 409.25,-21.13"/>
<polygon fill="black" stroke="black" points="409.78,-17.67 399.28,-19.08 408.37,-24.52 409.78,-17.67"/>
</g>
<!-- WirelessHost -->
<g id="node5" class="node">
<title>WirelessHost</title>
<g id="a_node5"><a xlink:href="inet.node.inet.WirelessHost.html" xlink:title="Compound Module WirelessHost" target="_parent">
<polygon fill="#fffcaf" stroke="black" points="498,-19 417,-19 417,0 498,0 498,-19"/>
<text text-anchor="middle" x="457.5" y="-7" font-family="Helvetica,sans-Serif" font-size="10.00">WirelessHost</text>
</a>
</g>
</g>
<!-- NetworkPathRIPShowcase&#45;&gt;WirelessHost -->
<g id="edge4" class="edge">
<title>NetworkPathRIPShowcase&#45;&gt;WirelessHost</title>
<path fill="none" stroke="black" d="M590.11,-54.98C563.7,-46.13 522.15,-32.19 492.61,-22.28"/>
<polygon fill="black" stroke="black" points="493.68,-18.94 483.08,-19.08 491.45,-25.58 493.68,-18.94"/>
</g>
<!-- AccessPoint -->
<g id="node6" class="node">
<title>AccessPoint</title>
<g id="a_node6"><a xlink:href="inet.node.wireless.AccessPoint.html" xlink:title="Compound Module AccessPoint" target="_parent">
<polygon fill="#fffcaf" stroke="black" points="591,-19 516,-19 516,0 591,0 591,-19"/>
<text text-anchor="middle" x="553.5" y="-7" font-family="Helvetica,sans-Serif" font-size="10.00">AccessPoint</text>
</a>
</g>
</g>
<!-- NetworkPathRIPShowcase&#45;&gt;AccessPoint -->
<g id="edge5" class="edge">
<title>NetworkPathRIPShowcase&#45;&gt;AccessPoint</title>
<path fill="none" stroke="black" d="M605.54,-54.98C596.37,-47.15 582.56,-35.34 571.47,-25.86"/>
<polygon fill="black" stroke="black" points="573.52,-23.01 563.64,-19.17 568.97,-28.33 573.52,-23.01"/>
</g>
<!-- Ipv4NetworkConfigurator -->
<g id="node7" class="node">
<title>Ipv4NetworkConfigurator</title>
<g id="a_node7"><a xlink:href="inet.networklayer.configurator.ipv4.Ipv4NetworkConfigurator.html" xlink:title="Simple Module Ipv4NetworkConfigurator" target="_parent">
<polygon fill="#fffcaf" stroke="black" points="748,-19 609,-19 609,0 748,0 748,-19"/>
<text text-anchor="middle" x="678.5" y="-7" font-family="Helvetica,sans-Serif" font-size="10.00">Ipv4NetworkConfigurator</text>
</a>
</g>
</g>
<!-- NetworkPathRIPShowcase&#45;&gt;Ipv4NetworkConfigurator -->
<g id="edge6" class="edge">
<title>NetworkPathRIPShowcase&#45;&gt;Ipv4NetworkConfigurator</title>
<path fill="none" stroke="black" d="M625.62,-54.98C634.94,-47.15 648.97,-35.34 660.24,-25.86"/>
<polygon fill="black" stroke="black" points="662.79,-28.29 668.19,-19.17 658.29,-22.93 662.79,-28.29"/>
</g>
<!-- EthernetSwitch -->
<g id="node8" class="node">
<title>EthernetSwitch</title>
<g id="a_node8"><a xlink:href="inet.node.ethernet.EthernetSwitch.html" xlink:title="Compound Module EthernetSwitch" target="_parent">
<polygon fill="#fffcaf" stroke="black" points="856.5,-19 766.5,-19 766.5,0 856.5,0 856.5,-19"/>
<text text-anchor="middle" x="811.5" y="-7" font-family="Helvetica,sans-Serif" font-size="10.00">EthernetSwitch</text>
</a>
</g>
</g>
<!-- NetworkPathRIPShowcase&#45;&gt;EthernetSwitch -->
<g id="edge7" class="edge">
<title>NetworkPathRIPShowcase&#45;&gt;EthernetSwitch</title>
<path fill="none" stroke="black" d="M646.99,-54.98C680.32,-45.97 733.1,-31.7 769.85,-21.76"/>
<polygon fill="black" stroke="black" points="771.02,-25.07 779.76,-19.08 769.2,-18.31 771.02,-25.07"/>
</g>
<!-- Router -->
<g id="node9" class="node">
<title>Router</title>
<g id="a_node9"><a xlink:href="inet.node.inet.Router.html" xlink:title="Compound Module Router" target="_parent">
<polygon fill="#fffcaf" stroke="black" points="928.5,-19 874.5,-19 874.5,0 928.5,0 928.5,-19"/>
<text text-anchor="middle" x="901.5" y="-7" font-family="Helvetica,sans-Serif" font-size="10.00">Router</text>
</a>
</g>
</g>
<!-- NetworkPathRIPShowcase&#45;&gt;Router -->
<g id="edge8" class="edge">
<title>NetworkPathRIPShowcase&#45;&gt;Router</title>
<path fill="none" stroke="black" d="M668.34,-54.97C716.87,-46.94 791.01,-34.18 864.52,-19.11"/>
<polygon fill="black" stroke="black" points="865.32,-22.52 874.41,-17.07 863.91,-15.66 865.32,-22.52"/>
</g>
<!-- ScenarioManager -->
<g id="node10" class="node">
<title>ScenarioManager</title>
<g id="a_node10"><a xlink:href="inet.common.scenario.ScenarioManager.html" xlink:title="Simple Module ScenarioManager" target="_parent">
<polygon fill="#fffcaf" stroke="black" points="1048,-19 947,-19 947,0 1048,0 1048,-19"/>
<text text-anchor="middle" x="997.5" y="-7" font-family="Helvetica,sans-Serif" font-size="10.00">ScenarioManager</text>
</a>
</g>
</g>
<!-- NetworkPathRIPShowcase&#45;&gt;ScenarioManager -->
<g id="edge9" class="edge">
<title>NetworkPathRIPShowcase&#45;&gt;ScenarioManager</title>
<path fill="none" stroke="black" d="M677.54,-54.99C740.23,-46.38 840.19,-32.6 936.82,-19.09"/>
<polygon fill="black" stroke="black" points="937.34,-22.55 946.76,-17.7 936.37,-15.62 937.34,-22.55"/>
</g>
<!-- Eth100M -->
<g id="node11" class="node">
<title>Eth100M</title>
<g id="a_node11"><a xlink:href="inet.node.ethernet.Eth100M.html" xlink:title="Channel Eth100M" target="_parent">
<polygon fill="#d0ffd0" stroke="black" points="1125,-19 1066,-19 1066,0 1125,0 1125,-19"/>
<text text-anchor="middle" x="1095.5" y="-7" font-family="Helvetica,sans-Serif" font-size="10.00">Eth100M</text>
</a>
</g>
</g>
<!-- NetworkPathRIPShowcase&#45;&gt;Eth100M -->
<g id="edge10" class="edge">
<title>NetworkPathRIPShowcase&#45;&gt;Eth100M</title>
<path fill="none" stroke="black" d="M687.04,-58.94C772.59,-52.9 920.26,-40.6 1055.56,-19.15"/>
<polygon fill="black" stroke="black" points="1056.38,-22.56 1065.69,-17.52 1055.27,-15.65 1056.38,-22.56"/>
</g>
</g>
</svg>
