<?xml version="1.0" encoding="UTF-8" standalone="no"?>
<!DOCTYPE svg PUBLIC "-//W3C//DTD SVG 1.1//EN"
 "http://www.w3.org/Graphics/SVG/1.1/DTD/svg11.dtd">
<!-- Generated by graphviz version 2.43.0 (0)
 -->
<!-- Title: opp Pages: 1 -->
<svg width="250pt" height="82pt"
 viewBox="0.00 0.00 249.50 82.00" xmlns="http://www.w3.org/2000/svg" xmlns:xlink="http://www.w3.org/1999/xlink">
<g id="graph0" class="graph" transform="scale(1 1) rotate(0) translate(4 78)">
<title>opp</title>
<polygon fill="transparent" stroke="transparent" points="-4,4 -4,-78 245.5,-78 245.5,4 -4,4"/>
<!-- WiseRoute -->
<g id="node1" class="node">
<title>WiseRoute</title>
<g id="a_node1"><a xlink:href="inet.networklayer.wiseroute.WiseRoute.html" xlink:title="Simple Module WiseRoute" target="_parent">
<polygon fill="#fff700" stroke="black" points="160.5,-19 91.5,-19 91.5,0 160.5,0 160.5,-19"/>
<text text-anchor="middle" x="126" y="-7" font-family="Helvetica,sans-Serif" font-size="10.00">WiseRoute</text>
</a>
</g>
</g>
<!-- NetworkProtocolBase -->
<g id="node2" class="node">
<title>NetworkProtocolBase</title>
<g id="a_node2"><a xlink:href="inet.networklayer.base.NetworkProtocolBase.html" xlink:title="Simple Module NetworkProtocolBase" target="_parent">
<polygon fill="#fffcaf" stroke="black" points="122,-74 0,-74 0,-55 122,-55 122,-74"/>
<text text-anchor="middle" x="61" y="-62" font-family="Helvetica,sans-Serif" font-size="10.00">NetworkProtocolBase</text>
</a>
</g>
</g>
<!-- NetworkProtocolBase&#45;&gt;WiseRoute -->
<g id="edge1" class="edge">
<title>NetworkProtocolBase&#45;&gt;WiseRoute</title>
<path fill="none" stroke="black" d="M71.44,-54.98C83.5,-45.15 103.23,-29.07 115.37,-19.17"/>
</g>
<!-- INetworkProtocol -->
<g id="node3" class="node">
<title>INetworkProtocol</title>
<g id="a_node3"><a xlink:href="inet.networklayer.contract.INetworkProtocol.html" xlink:title="Module Interface INetworkProtocol" target="_parent">
<polygon fill="#fffcaf" stroke="black" stroke-dasharray="5,2" points="241.5,-74 140.5,-74 140.5,-55 241.5,-55 241.5,-74"/>
<text text-anchor="middle" x="191" y="-62" font-family="Helvetica,sans-Serif" font-size="10.00">INetworkProtocol</text>
</a>
</g>
</g>
<!-- INetworkProtocol&#45;&gt;WiseRoute -->
<g id="edge2" class="edge">
<title>INetworkProtocol&#45;&gt;WiseRoute</title>
<path fill="none" stroke="black" stroke-dasharray="5,2" d="M180.56,-54.98C168.5,-45.15 148.77,-29.07 136.63,-19.17"/>
</g>
</g>
</svg>
