<?xml version="1.0" encoding="UTF-8" standalone="no"?>
<!DOCTYPE svg PUBLIC "-//W3C//DTD SVG 1.1//EN"
 "http://www.w3.org/Graphics/SVG/1.1/DTD/svg11.dtd">
<!-- Generated by graphviz version 2.43.0 (0)
 -->
<!-- Title: opp Pages: 1 -->
<svg width="334pt" height="82pt"
 viewBox="0.00 0.00 334.00 82.00" xmlns="http://www.w3.org/2000/svg" xmlns:xlink="http://www.w3.org/1999/xlink">
<g id="graph0" class="graph" transform="scale(1 1) rotate(0) translate(4 78)">
<title>opp</title>
<polygon fill="transparent" stroke="transparent" points="-4,4 -4,-78 330,-78 330,4 -4,4"/>
<!-- IEnergyStorageVisualizer -->
<g id="node1" class="node">
<title>IEnergyStorageVisualizer</title>
<g id="a_node1"><a xlink:href="inet.visualizer.contract.IEnergyStorageVisualizer.html" xlink:title="Module Interface IEnergyStorageVisualizer" target="_parent">
<polygon fill="#fff700" stroke="black" stroke-dasharray="5,2" points="241.5,-74 102.5,-74 102.5,-55 241.5,-55 241.5,-74"/>
<text text-anchor="middle" x="172" y="-62" font-family="Helvetica,sans-Serif" font-size="10.00">IEnergyStorageVisualizer</text>
</a>
</g>
</g>
<!-- EnergyStorageCanvasVisualizer -->
<g id="node2" class="node">
<title>EnergyStorageCanvasVisualizer</title>
<g id="a_node2"><a xlink:href="inet.visualizer.canvas.power.EnergyStorageCanvasVisualizer.html" xlink:title="Simple Module EnergyStorageCanvasVisualizer" target="_parent">
<polygon fill="#fffcaf" stroke="black" points="172,-19 0,-19 0,0 172,0 172,-19"/>
<text text-anchor="middle" x="86" y="-7" font-family="Helvetica,sans-Serif" font-size="10.00">EnergyStorageCanvasVisualizer</text>
</a>
</g>
</g>
<!-- IEnergyStorageVisualizer&#45;&gt;EnergyStorageCanvasVisualizer -->
<g id="edge1" class="edge">
<title>IEnergyStorageVisualizer&#45;&gt;EnergyStorageCanvasVisualizer</title>
<path fill="none" stroke="black" stroke-dasharray="5,2" d="M158.18,-54.98C142.23,-45.15 116.13,-29.07 100.07,-19.17"/>
</g>
<!-- EnergyStorageVisualizer -->
<g id="node3" class="node">
<title>EnergyStorageVisualizer</title>
<g id="a_node3"><a xlink:href="inet.visualizer.common.EnergyStorageVisualizer.html" xlink:title="Compound Module EnergyStorageVisualizer" target="_parent">
<polygon fill="#fffcaf" stroke="black" points="326,-19 190,-19 190,0 326,0 326,-19"/>
<text text-anchor="middle" x="258" y="-7" font-family="Helvetica,sans-Serif" font-size="10.00">EnergyStorageVisualizer</text>
</a>
</g>
</g>
<!-- IEnergyStorageVisualizer&#45;&gt;EnergyStorageVisualizer -->
<g id="edge2" class="edge">
<title>IEnergyStorageVisualizer&#45;&gt;EnergyStorageVisualizer</title>
<path fill="none" stroke="black" stroke-dasharray="5,2" d="M185.82,-54.98C201.77,-45.15 227.87,-29.07 243.93,-19.17"/>
</g>
</g>
</svg>
