<?xml version="1.0" encoding="UTF-8" standalone="no"?>
<!DOCTYPE svg PUBLIC "-//W3C//DTD SVG 1.1//EN"
 "http://www.w3.org/Graphics/SVG/1.1/DTD/svg11.dtd">
<!-- Generated by graphviz version 2.43.0 (0)
 -->
<!-- Title: opp Pages: 1 -->
<svg width="928pt" height="137pt"
 viewBox="0.00 0.00 927.50 137.00" xmlns="http://www.w3.org/2000/svg" xmlns:xlink="http://www.w3.org/1999/xlink">
<g id="graph0" class="graph" transform="scale(1 1) rotate(0) translate(4 133)">
<title>opp</title>
<polygon fill="transparent" stroke="transparent" points="-4,4 -4,-133 923.5,-133 923.5,4 -4,4"/>
<!-- BGPRouterSimple -->
<g id="node1" class="node">
<title>BGPRouterSimple</title>
<g id="a_node1"><a xlink:href="inet.examples.bgpv4.BgpOpen.BGPRouterSimple.html" xlink:title="Compound Module BGPRouterSimple" target="_parent">
<polygon fill="#fff700" stroke="black" points="557.5,-74 454.5,-74 454.5,-55 557.5,-55 557.5,-74"/>
<text text-anchor="middle" x="506" y="-62" font-family="Helvetica,sans-Serif" font-size="10.00">BGPRouterSimple</text>
</a>
</g>
</g>
<!-- InterfaceTable -->
<g id="node2" class="node">
<title>InterfaceTable</title>
<g id="a_node2"><a xlink:href="inet.networklayer.common.InterfaceTable.html" xlink:title="Simple Module InterfaceTable" target="_parent">
<polygon fill="#fffcaf" stroke="black" points="86,-19 0,-19 0,0 86,0 86,-19"/>
<text text-anchor="middle" x="43" y="-7" font-family="Helvetica,sans-Serif" font-size="10.00">InterfaceTable</text>
</a>
</g>
</g>
<!-- BGPRouterSimple&#45;&gt;InterfaceTable -->
<g id="edge1" class="edge">
<title>BGPRouterSimple&#45;&gt;InterfaceTable</title>
<path fill="none" stroke="black" d="M454.31,-58.81C378.21,-51.7 231.3,-37.23 96.22,-19.1"/>
<polygon fill="black" stroke="black" points="96.48,-15.6 86.1,-17.73 95.54,-22.54 96.48,-15.6"/>
</g>
<!-- Ipv4NetworkLayer -->
<g id="node3" class="node">
<title>Ipv4NetworkLayer</title>
<g id="a_node3"><a xlink:href="inet.networklayer.ipv4.Ipv4NetworkLayer.html" xlink:title="Compound Module Ipv4NetworkLayer" target="_parent">
<polygon fill="#fffcaf" stroke="black" points="210,-19 104,-19 104,0 210,0 210,-19"/>
<text text-anchor="middle" x="157" y="-7" font-family="Helvetica,sans-Serif" font-size="10.00">Ipv4NetworkLayer</text>
</a>
</g>
</g>
<!-- BGPRouterSimple&#45;&gt;Ipv4NetworkLayer -->
<g id="edge2" class="edge">
<title>BGPRouterSimple&#45;&gt;Ipv4NetworkLayer</title>
<path fill="none" stroke="black" d="M454.13,-55.62C391.73,-46.15 287.02,-30.25 220.02,-20.07"/>
<polygon fill="black" stroke="black" points="220.43,-16.59 210.02,-18.55 219.38,-23.51 220.43,-16.59"/>
</g>
<!-- MessageDispatcher -->
<g id="node4" class="node">
<title>MessageDispatcher</title>
<g id="a_node4"><a xlink:href="inet.common.MessageDispatcher.html" xlink:title="Simple Module MessageDispatcher" target="_parent">
<polygon fill="#fffcaf" stroke="black" points="341.5,-19 228.5,-19 228.5,0 341.5,0 341.5,-19"/>
<text text-anchor="middle" x="285" y="-7" font-family="Helvetica,sans-Serif" font-size="10.00">MessageDispatcher</text>
</a>
</g>
</g>
<!-- BGPRouterSimple&#45;&gt;MessageDispatcher -->
<g id="edge3" class="edge">
<title>BGPRouterSimple&#45;&gt;MessageDispatcher</title>
<path fill="none" stroke="black" d="M470.49,-54.98C432.51,-45.87 372.13,-31.4 330.64,-21.45"/>
<polygon fill="black" stroke="black" points="331.33,-18.01 320.79,-19.08 329.69,-24.82 331.33,-18.01"/>
</g>
<!-- Ipv4RoutingTable -->
<g id="node5" class="node">
<title>Ipv4RoutingTable</title>
<g id="a_node5"><a xlink:href="inet.networklayer.ipv4.Ipv4RoutingTable.html" xlink:title="Simple Module Ipv4RoutingTable" target="_parent">
<polygon fill="#fffcaf" stroke="black" points="460.5,-19 359.5,-19 359.5,0 460.5,0 460.5,-19"/>
<text text-anchor="middle" x="410" y="-7" font-family="Helvetica,sans-Serif" font-size="10.00">Ipv4RoutingTable</text>
</a>
</g>
</g>
<!-- BGPRouterSimple&#45;&gt;Ipv4RoutingTable -->
<g id="edge4" class="edge">
<title>BGPRouterSimple&#45;&gt;Ipv4RoutingTable</title>
<path fill="none" stroke="black" d="M490.58,-54.98C475.55,-46.69 452.46,-33.94 434.84,-24.22"/>
<polygon fill="black" stroke="black" points="436.15,-20.94 425.7,-19.17 432.77,-27.07 436.15,-20.94"/>
</g>
<!-- ITcp -->
<g id="node6" class="node">
<title>ITcp</title>
<g id="a_node6"><a xlink:href="inet.transportlayer.contract.ITcp.html" xlink:title="Module Interface ITcp" target="_parent">
<polygon fill="#fffcaf" stroke="black" stroke-dasharray="5,2" points="533,-19 479,-19 479,0 533,0 533,-19"/>
<text text-anchor="middle" x="506" y="-7" font-family="Helvetica,sans-Serif" font-size="10.00">ITcp</text>
</a>
</g>
</g>
<!-- BGPRouterSimple&#45;&gt;ITcp -->
<g id="edge5" class="edge">
<title>BGPRouterSimple&#45;&gt;ITcp</title>
<path fill="none" stroke="black" d="M506,-54.75C506,-47.8 506,-37.85 506,-29.13"/>
<polygon fill="black" stroke="black" points="509.5,-29.09 506,-19.09 502.5,-29.09 509.5,-29.09"/>
</g>
<!-- Bgp -->
<g id="node7" class="node">
<title>Bgp</title>
<g id="a_node7"><a xlink:href="inet.routing.bgpv4.Bgp.html" xlink:title="Simple Module Bgp" target="_parent">
<polygon fill="#fffcaf" stroke="black" points="605,-19 551,-19 551,0 605,0 605,-19"/>
<text text-anchor="middle" x="578" y="-7" font-family="Helvetica,sans-Serif" font-size="10.00">Bgp</text>
</a>
</g>
</g>
<!-- BGPRouterSimple&#45;&gt;Bgp -->
<g id="edge6" class="edge">
<title>BGPRouterSimple&#45;&gt;Bgp</title>
<path fill="none" stroke="black" d="M517.57,-54.98C528.42,-47 544.88,-34.88 557.88,-25.31"/>
<polygon fill="black" stroke="black" points="560.24,-27.92 566.22,-19.17 556.09,-22.28 560.24,-27.92"/>
</g>
<!-- IdealChannel -->
<g id="node8" class="node">
<title>IdealChannel</title>
<g id="a_node8"><a xlink:href="ned.IdealChannel.html" xlink:title="Channel IdealChannel" target="_parent">
<polygon fill="#d0ffd0" stroke="black" points="703,-19 623,-19 623,0 703,0 703,-19"/>
<text text-anchor="middle" x="663" y="-7" font-family="Helvetica,sans-Serif" font-size="10.00">IdealChannel</text>
</a>
</g>
</g>
<!-- BGPRouterSimple&#45;&gt;IdealChannel -->
<g id="edge7" class="edge">
<title>BGPRouterSimple&#45;&gt;IdealChannel</title>
<path fill="none" stroke="black" d="M531.22,-54.98C557.36,-46.16 598.4,-32.31 627.73,-22.41"/>
<polygon fill="black" stroke="black" points="629.22,-25.6 637.58,-19.08 626.98,-18.96 629.22,-25.6"/>
</g>
<!-- MessageChecker -->
<g id="node9" class="node">
<title>MessageChecker</title>
<g id="a_node9"><a xlink:href="inet.common.misc.MessageChecker.html" xlink:title="Simple Module MessageChecker" target="_parent">
<polygon fill="#fffcaf" stroke="black" points="820.5,-19 721.5,-19 721.5,0 820.5,0 820.5,-19"/>
<text text-anchor="middle" x="771" y="-7" font-family="Helvetica,sans-Serif" font-size="10.00">MessageChecker</text>
</a>
</g>
</g>
<!-- BGPRouterSimple&#45;&gt;MessageChecker -->
<g id="edge8" class="edge">
<title>BGPRouterSimple&#45;&gt;MessageChecker</title>
<path fill="none" stroke="black" d="M548.58,-54.98C594.7,-45.76 668.36,-31.03 718.16,-21.07"/>
<polygon fill="black" stroke="black" points="718.97,-24.48 728.09,-19.08 717.6,-17.61 718.97,-24.48"/>
</g>
<!-- IPppInterface -->
<g id="node10" class="node">
<title>IPppInterface</title>
<g id="a_node10"><a xlink:href="inet.linklayer.contract.IPppInterface.html" xlink:title="Module Interface IPppInterface" target="_parent">
<polygon fill="#fffcaf" stroke="black" stroke-dasharray="5,2" points="919.5,-19 838.5,-19 838.5,0 919.5,0 919.5,-19"/>
<text text-anchor="middle" x="879" y="-7" font-family="Helvetica,sans-Serif" font-size="10.00">IPppInterface</text>
</a>
</g>
</g>
<!-- BGPRouterSimple&#45;&gt;IPppInterface -->
<g id="edge9" class="edge">
<title>BGPRouterSimple&#45;&gt;IPppInterface</title>
<path fill="none" stroke="black" d="M557.71,-56.97C619.66,-49.02 726.87,-34.86 828.27,-19.23"/>
<polygon fill="black" stroke="black" points="829.03,-22.65 838.38,-17.66 827.96,-15.73 829.03,-22.65"/>
</g>
<!-- BgpNetwork -->
<g id="node11" class="node">
<title>BgpNetwork</title>
<g id="a_node11"><a xlink:href="inet.examples.bgpv4.BgpOpen.BgpNetwork.html" xlink:title="Network BgpNetwork" target="_parent">
<polygon fill="#d0d0ff" stroke="black" points="544.5,-129 467.5,-129 467.5,-110 544.5,-110 544.5,-129"/>
<text text-anchor="middle" x="506" y="-117" font-family="Helvetica,sans-Serif" font-size="10.00">BgpNetwork</text>
</a>
</g>
</g>
<!-- BgpNetwork&#45;&gt;BGPRouterSimple -->
<g id="edge10" class="edge">
<title>BgpNetwork&#45;&gt;BGPRouterSimple</title>
<path fill="none" stroke="black" d="M506,-109.75C506,-102.8 506,-92.85 506,-84.13"/>
<polygon fill="black" stroke="black" points="509.5,-84.09 506,-74.09 502.5,-84.09 509.5,-84.09"/>
</g>
</g>
</svg>
