<?xml version="1.0" encoding="UTF-8" standalone="no"?>
<!DOCTYPE svg PUBLIC "-//W3C//DTD SVG 1.1//EN"
 "http://www.w3.org/Graphics/SVG/1.1/DTD/svg11.dtd">
<!-- Generated by graphviz version 2.43.0 (0)
 -->
<!-- Title: opp Pages: 1 -->
<svg width="478pt" height="82pt"
 viewBox="0.00 0.00 478.00 82.00" xmlns="http://www.w3.org/2000/svg" xmlns:xlink="http://www.w3.org/1999/xlink">
<g id="graph0" class="graph" transform="scale(1 1) rotate(0) translate(4 78)">
<title>opp</title>
<polygon fill="transparent" stroke="transparent" points="-4,4 -4,-78 474,-78 474,4 -4,4"/>
<!-- NetworkPathSimpleShowcase -->
<g id="node1" class="node">
<title>NetworkPathSimpleShowcase</title>
<g id="a_node1"><a xlink:href="inet.showcases.visualizer.canvas.networkpathactivity.NetworkPathSimpleShowcase.html" xlink:title="Network NetworkPathSimpleShowcase" target="_parent">
<polygon fill="#9090ff" stroke="black" points="328,-74 167,-74 167,-55 328,-55 328,-74"/>
<text text-anchor="middle" x="247.5" y="-62" font-family="Helvetica,sans-Serif" font-size="10.00">NetworkPathSimpleShowcase</text>
</a>
</g>
</g>
<!-- StandardHost -->
<g id="node2" class="node">
<title>StandardHost</title>
<g id="a_node2"><a xlink:href="inet.node.inet.StandardHost.html" xlink:title="Compound Module StandardHost" target="_parent">
<polygon fill="#fffcaf" stroke="black" points="83,-19 0,-19 0,0 83,0 83,-19"/>
<text text-anchor="middle" x="41.5" y="-7" font-family="Helvetica,sans-Serif" font-size="10.00">StandardHost</text>
</a>
</g>
</g>
<!-- NetworkPathSimpleShowcase&#45;&gt;StandardHost -->
<g id="edge1" class="edge">
<title>NetworkPathSimpleShowcase&#45;&gt;StandardHost</title>
<path fill="none" stroke="black" d="M214.4,-54.98C179.22,-45.93 123.43,-31.58 84.78,-21.64"/>
<polygon fill="black" stroke="black" points="85.41,-18.18 74.86,-19.08 83.67,-24.96 85.41,-18.18"/>
</g>
<!-- Ipv4NetworkConfigurator -->
<g id="node3" class="node">
<title>Ipv4NetworkConfigurator</title>
<g id="a_node3"><a xlink:href="inet.networklayer.configurator.ipv4.Ipv4NetworkConfigurator.html" xlink:title="Simple Module Ipv4NetworkConfigurator" target="_parent">
<polygon fill="#fffcaf" stroke="black" points="240,-19 101,-19 101,0 240,0 240,-19"/>
<text text-anchor="middle" x="170.5" y="-7" font-family="Helvetica,sans-Serif" font-size="10.00">Ipv4NetworkConfigurator</text>
</a>
</g>
</g>
<!-- NetworkPathSimpleShowcase&#45;&gt;Ipv4NetworkConfigurator -->
<g id="edge2" class="edge">
<title>NetworkPathSimpleShowcase&#45;&gt;Ipv4NetworkConfigurator</title>
<path fill="none" stroke="black" d="M235.13,-54.98C223.41,-46.92 205.58,-34.65 191.61,-25.03"/>
<polygon fill="black" stroke="black" points="193.32,-21.96 183.1,-19.17 189.35,-27.72 193.32,-21.96"/>
</g>
<!-- NetworkRouteVisualizer -->
<g id="node4" class="node">
<title>NetworkRouteVisualizer</title>
<g id="a_node4"><a xlink:href="inet.visualizer.common.NetworkRouteVisualizer.html" xlink:title="Compound Module NetworkRouteVisualizer" target="_parent">
<polygon fill="#fffcaf" stroke="black" points="392.5,-19 258.5,-19 258.5,0 392.5,0 392.5,-19"/>
<text text-anchor="middle" x="325.5" y="-7" font-family="Helvetica,sans-Serif" font-size="10.00">NetworkRouteVisualizer</text>
</a>
</g>
</g>
<!-- NetworkPathSimpleShowcase&#45;&gt;NetworkRouteVisualizer -->
<g id="edge3" class="edge">
<title>NetworkPathSimpleShowcase&#45;&gt;NetworkRouteVisualizer</title>
<path fill="none" stroke="black" d="M260.03,-54.98C271.9,-46.92 289.96,-34.65 304.11,-25.03"/>
<polygon fill="black" stroke="black" points="306.44,-27.69 312.74,-19.17 302.5,-21.9 306.44,-27.69"/>
</g>
<!-- Eth100M -->
<g id="node5" class="node">
<title>Eth100M</title>
<g id="a_node5"><a xlink:href="inet.node.ethernet.Eth100M.html" xlink:title="Channel Eth100M" target="_parent">
<polygon fill="#d0ffd0" stroke="black" points="470,-19 411,-19 411,0 470,0 470,-19"/>
<text text-anchor="middle" x="440.5" y="-7" font-family="Helvetica,sans-Serif" font-size="10.00">Eth100M</text>
</a>
</g>
</g>
<!-- NetworkPathSimpleShowcase&#45;&gt;Eth100M -->
<g id="edge4" class="edge">
<title>NetworkPathSimpleShowcase&#45;&gt;Eth100M</title>
<path fill="none" stroke="black" d="M278.51,-54.98C311.82,-45.84 364.84,-31.28 401.09,-21.32"/>
<polygon fill="black" stroke="black" points="402.12,-24.67 410.84,-18.65 400.27,-17.92 402.12,-24.67"/>
</g>
</g>
</svg>
