<?xml version="1.0" encoding="UTF-8" standalone="no"?>
<!DOCTYPE svg PUBLIC "-//W3C//DTD SVG 1.1//EN"
 "http://www.w3.org/Graphics/SVG/1.1/DTD/svg11.dtd">
<!-- Generated by graphviz version 2.43.0 (0)
 -->
<!-- Title: opp Pages: 1 -->
<svg width="297pt" height="137pt"
 viewBox="0.00 0.00 297.00 137.00" xmlns="http://www.w3.org/2000/svg" xmlns:xlink="http://www.w3.org/1999/xlink">
<g id="graph0" class="graph" transform="scale(1 1) rotate(0) translate(4 133)">
<title>opp</title>
<polygon fill="transparent" stroke="transparent" points="-4,4 -4,-133 293,-133 293,4 -4,4"/>
<!-- NetworkProtocolBase -->
<g id="node1" class="node">
<title>NetworkProtocolBase</title>
<g id="a_node1"><a xlink:href="inet.networklayer.base.NetworkProtocolBase.html" xlink:title="Simple Module NetworkProtocolBase" target="_parent">
<polygon fill="#fff700" stroke="black" points="200.5,-74 78.5,-74 78.5,-55 200.5,-55 200.5,-74"/>
<text text-anchor="middle" x="139.5" y="-62" font-family="Helvetica,sans-Serif" font-size="10.00">NetworkProtocolBase</text>
</a>
</g>
</g>
<!-- Flooding -->
<g id="node3" class="node">
<title>Flooding</title>
<g id="a_node3"><a xlink:href="inet.networklayer.flooding.Flooding.html" xlink:title="Simple Module Flooding" target="_parent">
<polygon fill="#fffcaf" stroke="black" points="59,-19 0,-19 0,0 59,0 59,-19"/>
<text text-anchor="middle" x="29.5" y="-7" font-family="Helvetica,sans-Serif" font-size="10.00">Flooding</text>
</a>
</g>
</g>
<!-- NetworkProtocolBase&#45;&gt;Flooding -->
<g id="edge2" class="edge">
<title>NetworkProtocolBase&#45;&gt;Flooding</title>
<path fill="none" stroke="black" d="M121.83,-54.98C101.42,-45.15 68.04,-29.07 47.49,-19.17"/>
</g>
<!-- ProbabilisticBroadcast -->
<g id="node4" class="node">
<title>ProbabilisticBroadcast</title>
<g id="a_node4"><a xlink:href="inet.networklayer.probabilistic.ProbabilisticBroadcast.html" xlink:title="Simple Module ProbabilisticBroadcast" target="_parent">
<polygon fill="#fffcaf" stroke="black" points="202,-19 77,-19 77,0 202,0 202,-19"/>
<text text-anchor="middle" x="139.5" y="-7" font-family="Helvetica,sans-Serif" font-size="10.00">ProbabilisticBroadcast</text>
</a>
</g>
</g>
<!-- NetworkProtocolBase&#45;&gt;ProbabilisticBroadcast -->
<g id="edge3" class="edge">
<title>NetworkProtocolBase&#45;&gt;ProbabilisticBroadcast</title>
<path fill="none" stroke="black" d="M139.5,-54.75C139.5,-44.87 139.5,-28.9 139.5,-19.09"/>
</g>
<!-- WiseRoute -->
<g id="node5" class="node">
<title>WiseRoute</title>
<g id="a_node5"><a xlink:href="inet.networklayer.wiseroute.WiseRoute.html" xlink:title="Simple Module WiseRoute" target="_parent">
<polygon fill="#fffcaf" stroke="black" points="289,-19 220,-19 220,0 289,0 289,-19"/>
<text text-anchor="middle" x="254.5" y="-7" font-family="Helvetica,sans-Serif" font-size="10.00">WiseRoute</text>
</a>
</g>
</g>
<!-- NetworkProtocolBase&#45;&gt;WiseRoute -->
<g id="edge4" class="edge">
<title>NetworkProtocolBase&#45;&gt;WiseRoute</title>
<path fill="none" stroke="black" d="M157.98,-54.98C179.31,-45.15 214.21,-29.07 235.69,-19.17"/>
</g>
<!-- LayeredProtocolBase -->
<g id="node2" class="node">
<title>LayeredProtocolBase</title>
<g id="a_node2"><a xlink:href="inet.common.LayeredProtocolBase.html" xlink:title="Simple Module LayeredProtocolBase" target="_parent">
<polygon fill="#fffcaf" stroke="black" points="199,-129 80,-129 80,-110 199,-110 199,-129"/>
<text text-anchor="middle" x="139.5" y="-117" font-family="Helvetica,sans-Serif" font-size="10.00">LayeredProtocolBase</text>
</a>
</g>
</g>
<!-- LayeredProtocolBase&#45;&gt;NetworkProtocolBase -->
<g id="edge1" class="edge">
<title>LayeredProtocolBase&#45;&gt;NetworkProtocolBase</title>
<path fill="none" stroke="black" d="M139.5,-109.75C139.5,-99.87 139.5,-83.9 139.5,-74.09"/>
</g>
</g>
</svg>
