<?xml version="1.0" encoding="UTF-8" standalone="no"?>
<!DOCTYPE svg PUBLIC "-//W3C//DTD SVG 1.1//EN"
 "http://www.w3.org/Graphics/SVG/1.1/DTD/svg11.dtd">
<!-- Generated by graphviz version 2.43.0 (0)
 -->
<!-- Title: opp Pages: 1 -->
<svg width="241pt" height="137pt"
 viewBox="0.00 0.00 241.00 137.00" xmlns="http://www.w3.org/2000/svg" xmlns:xlink="http://www.w3.org/1999/xlink">
<g id="graph0" class="graph" transform="scale(1 1) rotate(0) translate(4 133)">
<title>opp</title>
<polygon fill="transparent" stroke="transparent" points="-4,4 -4,-133 237,-133 237,4 -4,4"/>
<!-- SimpleContinentCloud -->
<g id="node1" class="node">
<title>SimpleContinentCloud</title>
<g id="a_node1"><a xlink:href="inet.examples.internetcloud.earthcloud.SimpleContinentCloud.html" xlink:title="Network SimpleContinentCloud" target="_parent">
<polygon fill="#9090ff" stroke="black" points="191,-74 66,-74 66,-55 191,-55 191,-74"/>
<text text-anchor="middle" x="128.5" y="-62" font-family="Helvetica,sans-Serif" font-size="10.00">SimpleContinentCloud</text>
</a>
</g>
</g>
<!-- StandardHost -->
<g id="node2" class="node">
<title>StandardHost</title>
<g id="a_node2"><a xlink:href="inet.node.inet.StandardHost.html" xlink:title="Compound Module StandardHost" target="_parent">
<polygon fill="#fffcaf" stroke="black" points="83,-19 0,-19 0,0 83,0 83,-19"/>
<text text-anchor="middle" x="41.5" y="-7" font-family="Helvetica,sans-Serif" font-size="10.00">StandardHost</text>
</a>
</g>
</g>
<!-- SimpleContinentCloud&#45;&gt;StandardHost -->
<g id="edge1" class="edge">
<title>SimpleContinentCloud&#45;&gt;StandardHost</title>
<path fill="none" stroke="black" d="M114.52,-54.98C101.03,-46.77 80.37,-34.18 64.46,-24.49"/>
<polygon fill="black" stroke="black" points="66.09,-21.38 55.73,-19.17 62.45,-27.36 66.09,-21.38"/>
</g>
<!-- Router -->
<g id="node3" class="node">
<title>Router</title>
<g id="a_node3"><a xlink:href="inet.node.inet.Router.html" xlink:title="Compound Module Router" target="_parent">
<polygon fill="#fffcaf" stroke="black" points="155.5,-19 101.5,-19 101.5,0 155.5,0 155.5,-19"/>
<text text-anchor="middle" x="128.5" y="-7" font-family="Helvetica,sans-Serif" font-size="10.00">Router</text>
</a>
</g>
</g>
<!-- SimpleContinentCloud&#45;&gt;Router -->
<g id="edge2" class="edge">
<title>SimpleContinentCloud&#45;&gt;Router</title>
<path fill="none" stroke="black" d="M128.5,-54.75C128.5,-47.8 128.5,-37.85 128.5,-29.13"/>
<polygon fill="black" stroke="black" points="132,-29.09 128.5,-19.09 125,-29.09 132,-29.09"/>
</g>
<!-- Eth100M -->
<g id="node4" class="node">
<title>Eth100M</title>
<g id="a_node4"><a xlink:href="inet.node.ethernet.Eth100M.html" xlink:title="Channel Eth100M" target="_parent">
<polygon fill="#d0ffd0" stroke="black" points="233,-19 174,-19 174,0 233,0 233,-19"/>
<text text-anchor="middle" x="203.5" y="-7" font-family="Helvetica,sans-Serif" font-size="10.00">Eth100M</text>
</a>
</g>
</g>
<!-- SimpleContinentCloud&#45;&gt;Eth100M -->
<g id="edge3" class="edge">
<title>SimpleContinentCloud&#45;&gt;Eth100M</title>
<path fill="none" stroke="black" d="M140.55,-54.98C151.96,-46.92 169.33,-34.65 182.93,-25.03"/>
<polygon fill="black" stroke="black" points="185.08,-27.8 191.23,-19.17 181.04,-22.08 185.08,-27.8"/>
</g>
<!-- EarthCloud -->
<g id="node5" class="node">
<title>EarthCloud</title>
<g id="a_node5"><a xlink:href="inet.examples.internetcloud.earthcloud.EarthCloud.html" xlink:title="Network EarthCloud" target="_parent">
<polygon fill="#d0d0ff" stroke="black" points="163.5,-129 93.5,-129 93.5,-110 163.5,-110 163.5,-129"/>
<text text-anchor="middle" x="128.5" y="-117" font-family="Helvetica,sans-Serif" font-size="10.00">EarthCloud</text>
</a>
</g>
</g>
<!-- EarthCloud&#45;&gt;SimpleContinentCloud -->
<g id="edge4" class="edge">
<title>EarthCloud&#45;&gt;SimpleContinentCloud</title>
<path fill="none" stroke="black" d="M128.5,-109.75C128.5,-102.8 128.5,-92.85 128.5,-84.13"/>
<polygon fill="black" stroke="black" points="132,-84.09 128.5,-74.09 125,-84.09 132,-84.09"/>
</g>
</g>
</svg>
