<?xml version="1.0" encoding="UTF-8" standalone="no"?>
<!DOCTYPE svg PUBLIC "-//W3C//DTD SVG 1.1//EN"
 "http://www.w3.org/Graphics/SVG/1.1/DTD/svg11.dtd">
<!-- Generated by graphviz version 2.43.0 (0)
 -->
<!-- Title: opp Pages: 1 -->
<svg width="604pt" height="82pt"
 viewBox="0.00 0.00 603.50 82.00" xmlns="http://www.w3.org/2000/svg" xmlns:xlink="http://www.w3.org/1999/xlink">
<g id="graph0" class="graph" transform="scale(1 1) rotate(0) translate(4 78)">
<title>opp</title>
<polygon fill="transparent" stroke="transparent" points="-4,4 -4,-78 599.5,-78 599.5,4 -4,4"/>
<!-- TokenBucketTutorialStep -->
<g id="node1" class="node">
<title>TokenBucketTutorialStep</title>
<g id="a_node1"><a xlink:href="inet.tutorials.queueing.TokenBucketTutorialStep.html" xlink:title="Network TokenBucketTutorialStep" target="_parent">
<polygon fill="#9090ff" stroke="black" points="327,-74 192,-74 192,-55 327,-55 327,-74"/>
<text text-anchor="middle" x="259.5" y="-62" font-family="Helvetica,sans-Serif" font-size="10.00">TokenBucketTutorialStep</text>
</a>
</g>
</g>
<!-- TokenBucket -->
<g id="node2" class="node">
<title>TokenBucket</title>
<g id="a_node2"><a xlink:href="inet.queueing.shaper.TokenBucket.html" xlink:title="Compound Module TokenBucket" target="_parent">
<polygon fill="#fffcaf" stroke="black" points="77,-19 0,-19 0,0 77,0 77,-19"/>
<text text-anchor="middle" x="38.5" y="-7" font-family="Helvetica,sans-Serif" font-size="10.00">TokenBucket</text>
</a>
</g>
</g>
<!-- TokenBucketTutorialStep&#45;&gt;TokenBucket -->
<g id="edge1" class="edge">
<title>TokenBucketTutorialStep&#45;&gt;TokenBucket</title>
<path fill="none" stroke="black" d="M223.99,-54.98C186.01,-45.87 125.63,-31.4 84.14,-21.45"/>
<polygon fill="black" stroke="black" points="84.83,-18.01 74.29,-19.08 83.19,-24.82 84.83,-18.01"/>
</g>
<!-- PassivePacketSink -->
<g id="node3" class="node">
<title>PassivePacketSink</title>
<g id="a_node3"><a xlink:href="inet.queueing.sink.PassivePacketSink.html" xlink:title="Simple Module PassivePacketSink" target="_parent">
<polygon fill="#fffcaf" stroke="black" points="201.5,-19 95.5,-19 95.5,0 201.5,0 201.5,-19"/>
<text text-anchor="middle" x="148.5" y="-7" font-family="Helvetica,sans-Serif" font-size="10.00">PassivePacketSink</text>
</a>
</g>
</g>
<!-- TokenBucketTutorialStep&#45;&gt;PassivePacketSink -->
<g id="edge2" class="edge">
<title>TokenBucketTutorialStep&#45;&gt;PassivePacketSink</title>
<path fill="none" stroke="black" d="M241.67,-54.98C223.89,-46.5 196.35,-33.35 175.82,-23.54"/>
<polygon fill="black" stroke="black" points="177.19,-20.32 166.66,-19.17 174.17,-26.64 177.19,-20.32"/>
</g>
<!-- IdealChannel -->
<g id="node4" class="node">
<title>IdealChannel</title>
<g id="a_node4"><a xlink:href="ned.IdealChannel.html" xlink:title="Channel IdealChannel" target="_parent">
<polygon fill="#d0ffd0" stroke="black" points="299.5,-19 219.5,-19 219.5,0 299.5,0 299.5,-19"/>
<text text-anchor="middle" x="259.5" y="-7" font-family="Helvetica,sans-Serif" font-size="10.00">IdealChannel</text>
</a>
</g>
</g>
<!-- TokenBucketTutorialStep&#45;&gt;IdealChannel -->
<g id="edge3" class="edge">
<title>TokenBucketTutorialStep&#45;&gt;IdealChannel</title>
<path fill="none" stroke="black" d="M259.5,-54.75C259.5,-47.8 259.5,-37.85 259.5,-29.13"/>
<polygon fill="black" stroke="black" points="263,-29.09 259.5,-19.09 256,-29.09 263,-29.09"/>
</g>
<!-- ActivePacketSource -->
<g id="node5" class="node">
<title>ActivePacketSource</title>
<g id="a_node5"><a xlink:href="inet.queueing.source.ActivePacketSource.html" xlink:title="Simple Module ActivePacketSource" target="_parent">
<polygon fill="#fffcaf" stroke="black" points="429.5,-19 317.5,-19 317.5,0 429.5,0 429.5,-19"/>
<text text-anchor="middle" x="373.5" y="-7" font-family="Helvetica,sans-Serif" font-size="10.00">ActivePacketSource</text>
</a>
</g>
</g>
<!-- TokenBucketTutorialStep&#45;&gt;ActivePacketSource -->
<g id="edge4" class="edge">
<title>TokenBucketTutorialStep&#45;&gt;ActivePacketSource</title>
<path fill="none" stroke="black" d="M277.82,-54.98C296.16,-46.46 324.61,-33.23 345.73,-23.41"/>
<polygon fill="black" stroke="black" points="347.26,-26.56 354.85,-19.17 344.31,-20.21 347.26,-26.56"/>
</g>
<!-- TimeBasedTokenGenerator -->
<g id="node6" class="node">
<title>TimeBasedTokenGenerator</title>
<g id="a_node6"><a xlink:href="inet.queueing.tokengenerator.TimeBasedTokenGenerator.html" xlink:title="Simple Module TimeBasedTokenGenerator" target="_parent">
<polygon fill="#fffcaf" stroke="black" points="595.5,-19 447.5,-19 447.5,0 595.5,0 595.5,-19"/>
<text text-anchor="middle" x="521.5" y="-7" font-family="Helvetica,sans-Serif" font-size="10.00">TimeBasedTokenGenerator</text>
</a>
</g>
</g>
<!-- TokenBucketTutorialStep&#45;&gt;TimeBasedTokenGenerator -->
<g id="edge5" class="edge">
<title>TokenBucketTutorialStep&#45;&gt;TimeBasedTokenGenerator</title>
<path fill="none" stroke="black" d="M301.59,-54.98C347.2,-45.76 420.02,-31.03 469.25,-21.07"/>
<polygon fill="black" stroke="black" points="469.97,-24.5 479.08,-19.08 468.58,-17.63 469.97,-24.5"/>
</g>
</g>
</svg>
