<?xml version="1.0" encoding="UTF-8" standalone="no"?>
<!DOCTYPE svg PUBLIC "-//W3C//DTD SVG 1.1//EN"
 "http://www.w3.org/Graphics/SVG/1.1/DTD/svg11.dtd">
<!-- Generated by graphviz version 2.43.0 (0)
 -->
<!-- Title: opp Pages: 1 -->
<svg width="432pt" height="82pt"
 viewBox="0.00 0.00 431.50 82.00" xmlns="http://www.w3.org/2000/svg" xmlns:xlink="http://www.w3.org/1999/xlink">
<g id="graph0" class="graph" transform="scale(1 1) rotate(0) translate(4 78)">
<title>opp</title>
<polygon fill="transparent" stroke="transparent" points="-4,4 -4,-78 427.5,-78 427.5,4 -4,4"/>
<!-- Gate1TutorialStep -->
<g id="node1" class="node">
<title>Gate1TutorialStep</title>
<g id="a_node1"><a xlink:href="inet.tutorials.queueing.Gate1TutorialStep.html" xlink:title="Network Gate1TutorialStep" target="_parent">
<polygon fill="#9090ff" stroke="black" points="249.5,-74 145.5,-74 145.5,-55 249.5,-55 249.5,-74"/>
<text text-anchor="middle" x="197.5" y="-62" font-family="Helvetica,sans-Serif" font-size="10.00">Gate1TutorialStep</text>
</a>
</g>
</g>
<!-- PacketGate -->
<g id="node2" class="node">
<title>PacketGate</title>
<g id="a_node2"><a xlink:href="inet.queueing.gate.PacketGate.html" xlink:title="Simple Module PacketGate" target="_parent">
<polygon fill="#fffcaf" stroke="black" points="71,-19 0,-19 0,0 71,0 71,-19"/>
<text text-anchor="middle" x="35.5" y="-7" font-family="Helvetica,sans-Serif" font-size="10.00">PacketGate</text>
</a>
</g>
</g>
<!-- Gate1TutorialStep&#45;&gt;PacketGate -->
<g id="edge1" class="edge">
<title>Gate1TutorialStep&#45;&gt;PacketGate</title>
<path fill="none" stroke="black" d="M171.47,-54.98C144.39,-46.13 101.79,-32.19 71.49,-22.28"/>
<polygon fill="black" stroke="black" points="72.32,-18.87 61.73,-19.08 70.15,-25.52 72.32,-18.87"/>
</g>
<!-- PassivePacketSink -->
<g id="node3" class="node">
<title>PassivePacketSink</title>
<g id="a_node3"><a xlink:href="inet.queueing.sink.PassivePacketSink.html" xlink:title="Simple Module PassivePacketSink" target="_parent">
<polygon fill="#fffcaf" stroke="black" points="195.5,-19 89.5,-19 89.5,0 195.5,0 195.5,-19"/>
<text text-anchor="middle" x="142.5" y="-7" font-family="Helvetica,sans-Serif" font-size="10.00">PassivePacketSink</text>
</a>
</g>
</g>
<!-- Gate1TutorialStep&#45;&gt;PassivePacketSink -->
<g id="edge2" class="edge">
<title>Gate1TutorialStep&#45;&gt;PassivePacketSink</title>
<path fill="none" stroke="black" d="M188.42,-54.75C180.41,-47.03 168.54,-35.6 158.88,-26.28"/>
<polygon fill="black" stroke="black" points="161.04,-23.51 151.41,-19.09 156.19,-28.55 161.04,-23.51"/>
</g>
<!-- IdealChannel -->
<g id="node4" class="node">
<title>IdealChannel</title>
<g id="a_node4"><a xlink:href="ned.IdealChannel.html" xlink:title="Channel IdealChannel" target="_parent">
<polygon fill="#d0ffd0" stroke="black" points="293.5,-19 213.5,-19 213.5,0 293.5,0 293.5,-19"/>
<text text-anchor="middle" x="253.5" y="-7" font-family="Helvetica,sans-Serif" font-size="10.00">IdealChannel</text>
</a>
</g>
</g>
<!-- Gate1TutorialStep&#45;&gt;IdealChannel -->
<g id="edge3" class="edge">
<title>Gate1TutorialStep&#45;&gt;IdealChannel</title>
<path fill="none" stroke="black" d="M206.5,-54.98C214.69,-47.23 227.01,-35.58 236.97,-26.14"/>
<polygon fill="black" stroke="black" points="239.48,-28.59 244.34,-19.17 234.67,-23.5 239.48,-28.59"/>
</g>
<!-- ActivePacketSource -->
<g id="node5" class="node">
<title>ActivePacketSource</title>
<g id="a_node5"><a xlink:href="inet.queueing.source.ActivePacketSource.html" xlink:title="Simple Module ActivePacketSource" target="_parent">
<polygon fill="#fffcaf" stroke="black" points="423.5,-19 311.5,-19 311.5,0 423.5,0 423.5,-19"/>
<text text-anchor="middle" x="367.5" y="-7" font-family="Helvetica,sans-Serif" font-size="10.00">ActivePacketSource</text>
</a>
</g>
</g>
<!-- Gate1TutorialStep&#45;&gt;ActivePacketSource -->
<g id="edge4" class="edge">
<title>Gate1TutorialStep&#45;&gt;ActivePacketSource</title>
<path fill="none" stroke="black" d="M224.81,-54.98C253.35,-46.09 298.33,-32.07 330.14,-22.15"/>
<polygon fill="black" stroke="black" points="331.47,-25.4 339.97,-19.08 329.38,-18.72 331.47,-25.4"/>
</g>
</g>
</svg>
