<?xml version="1.0" encoding="UTF-8" standalone="no"?>
<!DOCTYPE svg PUBLIC "-//W3C//DTD SVG 1.1//EN"
 "http://www.w3.org/Graphics/SVG/1.1/DTD/svg11.dtd">
<!-- Generated by graphviz version 2.43.0 (0)
 -->
<!-- Title: opp Pages: 1 -->
<svg width="320pt" height="137pt"
 viewBox="0.00 0.00 320.00 137.00" xmlns="http://www.w3.org/2000/svg" xmlns:xlink="http://www.w3.org/1999/xlink">
<g id="graph0" class="graph" transform="scale(1 1) rotate(0) translate(4 133)">
<title>opp</title>
<polygon fill="transparent" stroke="transparent" points="-4,4 -4,-133 316,-133 316,4 -4,4"/>
<!-- IEpEnergyStorage -->
<g id="node1" class="node">
<title>IEpEnergyStorage</title>
<g id="a_node1"><a xlink:href="inet.power.contract.IEpEnergyStorage.html" xlink:title="Module Interface IEpEnergyStorage" target="_parent">
<polygon fill="#fff700" stroke="black" stroke-dasharray="5,2" points="201.5,-74 98.5,-74 98.5,-55 201.5,-55 201.5,-74"/>
<text text-anchor="middle" x="150" y="-62" font-family="Helvetica,sans-Serif" font-size="10.00">IEpEnergyStorage</text>
</a>
</g>
</g>
<!-- EpEnergyStorageBase -->
<g id="node5" class="node">
<title>EpEnergyStorageBase</title>
<g id="a_node5"><a xlink:href="inet.power.base.EpEnergyStorageBase.html" xlink:title="Simple Module EpEnergyStorageBase" target="_parent">
<polygon fill="#fffcaf" stroke="black" points="212,-19 88,-19 88,0 212,0 212,-19"/>
<text text-anchor="middle" x="150" y="-7" font-family="Helvetica,sans-Serif" font-size="10.00">EpEnergyStorageBase</text>
</a>
</g>
</g>
<!-- IEpEnergyStorage&#45;&gt;EpEnergyStorageBase -->
<g id="edge4" class="edge">
<title>IEpEnergyStorage&#45;&gt;EpEnergyStorageBase</title>
<path fill="none" stroke="black" stroke-dasharray="5,2" d="M150,-54.75C150,-44.87 150,-28.9 150,-19.09"/>
</g>
<!-- IEpEnergySink -->
<g id="node2" class="node">
<title>IEpEnergySink</title>
<g id="a_node2"><a xlink:href="inet.power.contract.IEpEnergySink.html" xlink:title="Module Interface IEpEnergySink" target="_parent">
<polygon fill="#fffcaf" stroke="black" stroke-dasharray="5,2" points="86,-129 0,-129 0,-110 86,-110 86,-129"/>
<text text-anchor="middle" x="43" y="-117" font-family="Helvetica,sans-Serif" font-size="10.00">IEpEnergySink</text>
</a>
</g>
</g>
<!-- IEpEnergySink&#45;&gt;IEpEnergyStorage -->
<g id="edge1" class="edge">
<title>IEpEnergySink&#45;&gt;IEpEnergyStorage</title>
<path fill="none" stroke="black" d="M60.19,-109.98C80.04,-100.15 112.52,-84.07 132.5,-74.17"/>
</g>
<!-- IEnergyStorage -->
<g id="node3" class="node">
<title>IEnergyStorage</title>
<g id="a_node3"><a xlink:href="inet.power.contract.IEnergyStorage.html" xlink:title="Module Interface IEnergyStorage" target="_parent">
<polygon fill="#fffcaf" stroke="black" stroke-dasharray="5,2" points="195.5,-129 104.5,-129 104.5,-110 195.5,-110 195.5,-129"/>
<text text-anchor="middle" x="150" y="-117" font-family="Helvetica,sans-Serif" font-size="10.00">IEnergyStorage</text>
</a>
</g>
</g>
<!-- IEnergyStorage&#45;&gt;IEpEnergyStorage -->
<g id="edge2" class="edge">
<title>IEnergyStorage&#45;&gt;IEpEnergyStorage</title>
<path fill="none" stroke="black" d="M150,-109.75C150,-99.87 150,-83.9 150,-74.09"/>
</g>
<!-- IEpEnergySource -->
<g id="node4" class="node">
<title>IEpEnergySource</title>
<g id="a_node4"><a xlink:href="inet.power.contract.IEpEnergySource.html" xlink:title="Module Interface IEpEnergySource" target="_parent">
<polygon fill="#fffcaf" stroke="black" stroke-dasharray="5,2" points="312,-129 214,-129 214,-110 312,-110 312,-129"/>
<text text-anchor="middle" x="263" y="-117" font-family="Helvetica,sans-Serif" font-size="10.00">IEpEnergySource</text>
</a>
</g>
</g>
<!-- IEpEnergySource&#45;&gt;IEpEnergyStorage -->
<g id="edge3" class="edge">
<title>IEpEnergySource&#45;&gt;IEpEnergyStorage</title>
<path fill="none" stroke="black" d="M244.84,-109.98C223.88,-100.15 189.59,-84.07 168.49,-74.17"/>
</g>
</g>
</svg>
