<?xml version="1.0" encoding="UTF-8" standalone="no"?>
<!DOCTYPE svg PUBLIC "-//W3C//DTD SVG 1.1//EN"
 "http://www.w3.org/Graphics/SVG/1.1/DTD/svg11.dtd">
<!-- Generated by graphviz version 2.43.0 (0)
 -->
<!-- Title: opp Pages: 1 -->
<svg width="708pt" height="82pt"
 viewBox="0.00 0.00 707.50 82.00" xmlns="http://www.w3.org/2000/svg" xmlns:xlink="http://www.w3.org/1999/xlink">
<g id="graph0" class="graph" transform="scale(1 1) rotate(0) translate(4 78)">
<title>opp</title>
<polygon fill="transparent" stroke="transparent" points="-4,4 -4,-78 703.5,-78 703.5,4 -4,4"/>
<!-- IMacProtocol -->
<g id="node1" class="node">
<title>IMacProtocol</title>
<g id="a_node1"><a xlink:href="inet.linklayer.contract.IMacProtocol.html" xlink:title="Module Interface IMacProtocol" target="_parent">
<polygon fill="#fff700" stroke="black" stroke-dasharray="5,2" points="389,-74 309,-74 309,-55 389,-55 389,-74"/>
<text text-anchor="middle" x="349" y="-62" font-family="Helvetica,sans-Serif" font-size="10.00">IMacProtocol</text>
</a>
</g>
</g>
<!-- AckingMac -->
<g id="node2" class="node">
<title>AckingMac</title>
<g id="a_node2"><a xlink:href="inet.linklayer.acking.AckingMac.html" xlink:title="Compound Module AckingMac" target="_parent">
<polygon fill="#fffcaf" stroke="black" points="70,-19 0,-19 0,0 70,0 70,-19"/>
<text text-anchor="middle" x="35" y="-7" font-family="Helvetica,sans-Serif" font-size="10.00">AckingMac</text>
</a>
</g>
</g>
<!-- IMacProtocol&#45;&gt;AckingMac -->
<g id="edge1" class="edge">
<title>IMacProtocol&#45;&gt;AckingMac</title>
<path fill="none" stroke="black" stroke-dasharray="5,2" d="M308.69,-57.21C255.86,-48.89 160.37,-33.56 79,-19 76.09,-18.48 73.07,-17.93 70.05,-17.36"/>
</g>
<!-- BMac -->
<g id="node3" class="node">
<title>BMac</title>
<g id="a_node3"><a xlink:href="inet.linklayer.bmac.BMac.html" xlink:title="Compound Module BMac" target="_parent">
<polygon fill="#fffcaf" stroke="black" points="142,-19 88,-19 88,0 142,0 142,-19"/>
<text text-anchor="middle" x="115" y="-7" font-family="Helvetica,sans-Serif" font-size="10.00">BMac</text>
</a>
</g>
</g>
<!-- IMacProtocol&#45;&gt;BMac -->
<g id="edge2" class="edge">
<title>IMacProtocol&#45;&gt;BMac</title>
<path fill="none" stroke="black" stroke-dasharray="5,2" d="M310.27,-54.93C270.34,-46.05 206.28,-31.74 151,-19 148.12,-18.34 145.11,-17.64 142.12,-16.94"/>
</g>
<!-- CsmaCaMac -->
<g id="node4" class="node">
<title>CsmaCaMac</title>
<g id="a_node4"><a xlink:href="inet.linklayer.csmaca.CsmaCaMac.html" xlink:title="Compound Module CsmaCaMac" target="_parent">
<polygon fill="#fffcaf" stroke="black" points="237.5,-19 160.5,-19 160.5,0 237.5,0 237.5,-19"/>
<text text-anchor="middle" x="199" y="-7" font-family="Helvetica,sans-Serif" font-size="10.00">CsmaCaMac</text>
</a>
</g>
</g>
<!-- IMacProtocol&#45;&gt;CsmaCaMac -->
<g id="edge3" class="edge">
<title>IMacProtocol&#45;&gt;CsmaCaMac</title>
<path fill="none" stroke="black" stroke-dasharray="5,2" d="M324.9,-54.98C297.07,-45.15 251.55,-29.07 223.54,-19.17"/>
</g>
<!-- Ieee802154Mac -->
<g id="node5" class="node">
<title>Ieee802154Mac</title>
<g id="a_node5"><a xlink:href="inet.linklayer.ieee802154.Ieee802154Mac.html" xlink:title="Compound Module Ieee802154Mac" target="_parent">
<polygon fill="#fffcaf" stroke="black" points="350,-19 256,-19 256,0 350,0 350,-19"/>
<text text-anchor="middle" x="303" y="-7" font-family="Helvetica,sans-Serif" font-size="10.00">Ieee802154Mac</text>
</a>
</g>
</g>
<!-- IMacProtocol&#45;&gt;Ieee802154Mac -->
<g id="edge4" class="edge">
<title>IMacProtocol&#45;&gt;Ieee802154Mac</title>
<path fill="none" stroke="black" stroke-dasharray="5,2" d="M341.4,-54.75C332.83,-44.87 318.97,-28.9 310.45,-19.09"/>
</g>
<!-- LMac -->
<g id="node6" class="node">
<title>LMac</title>
<g id="a_node6"><a xlink:href="inet.linklayer.lmac.LMac.html" xlink:title="Compound Module LMac" target="_parent">
<polygon fill="#fffcaf" stroke="black" points="422,-19 368,-19 368,0 422,0 422,-19"/>
<text text-anchor="middle" x="395" y="-7" font-family="Helvetica,sans-Serif" font-size="10.00">LMac</text>
</a>
</g>
</g>
<!-- IMacProtocol&#45;&gt;LMac -->
<g id="edge5" class="edge">
<title>IMacProtocol&#45;&gt;LMac</title>
<path fill="none" stroke="black" stroke-dasharray="5,2" d="M356.6,-54.75C365.17,-44.87 379.03,-28.9 387.55,-19.09"/>
</g>
<!-- ShortcutMac -->
<g id="node7" class="node">
<title>ShortcutMac</title>
<g id="a_node7"><a xlink:href="inet.linklayer.shortcut.ShortcutMac.html" xlink:title="Simple Module ShortcutMac" target="_parent">
<polygon fill="#fffcaf" stroke="black" points="517.5,-19 440.5,-19 440.5,0 517.5,0 517.5,-19"/>
<text text-anchor="middle" x="479" y="-7" font-family="Helvetica,sans-Serif" font-size="10.00">ShortcutMac</text>
</a>
</g>
</g>
<!-- IMacProtocol&#45;&gt;ShortcutMac -->
<g id="edge6" class="edge">
<title>IMacProtocol&#45;&gt;ShortcutMac</title>
<path fill="none" stroke="black" stroke-dasharray="5,2" d="M369.89,-54.98C394,-45.15 433.46,-29.07 457.73,-19.17"/>
</g>
<!-- XMac -->
<g id="node8" class="node">
<title>XMac</title>
<g id="a_node8"><a xlink:href="inet.linklayer.xmac.XMac.html" xlink:title="Compound Module XMac" target="_parent">
<polygon fill="#fffcaf" stroke="black" points="590,-19 536,-19 536,0 590,0 590,-19"/>
<text text-anchor="middle" x="563" y="-7" font-family="Helvetica,sans-Serif" font-size="10.00">XMac</text>
</a>
</g>
</g>
<!-- IMacProtocol&#45;&gt;XMac -->
<g id="edge7" class="edge">
<title>IMacProtocol&#45;&gt;XMac</title>
<path fill="none" stroke="black" stroke-dasharray="5,2" d="M383.38,-54.98C425.8,-44.48 497.04,-26.84 535.83,-17.23"/>
</g>
<!-- IIeee80211Mac -->
<g id="node9" class="node">
<title>IIeee80211Mac</title>
<g id="a_node9"><a xlink:href="inet.linklayer.ieee80211.IIeee80211Mac.html" xlink:title="Module Interface IIeee80211Mac" target="_parent">
<polygon fill="#fffcaf" stroke="black" stroke-dasharray="5,2" points="699.5,-19 608.5,-19 608.5,0 699.5,0 699.5,-19"/>
<text text-anchor="middle" x="654" y="-7" font-family="Helvetica,sans-Serif" font-size="10.00">IIeee80211Mac</text>
</a>
</g>
</g>
<!-- IMacProtocol&#45;&gt;IIeee80211Mac -->
<g id="edge8" class="edge">
<title>IMacProtocol&#45;&gt;IIeee80211Mac</title>
<path fill="none" stroke="black" d="M389.19,-56.52C445.8,-46.68 548.76,-28.79 608.25,-18.45"/>
</g>
</g>
</svg>
