<?xml version="1.0" encoding="UTF-8" standalone="no"?>
<!DOCTYPE svg PUBLIC "-//W3C//DTD SVG 1.1//EN"
 "http://www.w3.org/Graphics/SVG/1.1/DTD/svg11.dtd">
<!-- Generated by graphviz version 2.43.0 (0)
 -->
<!-- Title: opp Pages: 1 -->
<svg width="210pt" height="82pt"
 viewBox="0.00 0.00 210.00 82.00" xmlns="http://www.w3.org/2000/svg" xmlns:xlink="http://www.w3.org/1999/xlink">
<g id="graph0" class="graph" transform="scale(1 1) rotate(0) translate(4 78)">
<title>opp</title>
<polygon fill="transparent" stroke="transparent" points="-4,4 -4,-78 206,-78 206,4 -4,4"/>
<!-- IEtherMac -->
<g id="node1" class="node">
<title>IEtherMac</title>
<g id="a_node1"><a xlink:href="inet.linklayer.contract.IEtherMac.html" xlink:title="Module Interface IEtherMac" target="_parent">
<polygon fill="#fff700" stroke="black" stroke-dasharray="5,2" points="140.5,-74 75.5,-74 75.5,-55 140.5,-55 140.5,-74"/>
<text text-anchor="middle" x="108" y="-62" font-family="Helvetica,sans-Serif" font-size="10.00">IEtherMac</text>
</a>
</g>
</g>
<!-- EthernetCsmaMac -->
<g id="node2" class="node">
<title>EthernetCsmaMac</title>
<g id="a_node2"><a xlink:href="inet.linklayer.ethernet.basic.EthernetCsmaMac.html" xlink:title="Compound Module EthernetCsmaMac" target="_parent">
<polygon fill="#fffcaf" stroke="black" points="106,-19 0,-19 0,0 106,0 106,-19"/>
<text text-anchor="middle" x="53" y="-7" font-family="Helvetica,sans-Serif" font-size="10.00">EthernetCsmaMac</text>
</a>
</g>
</g>
<!-- IEtherMac&#45;&gt;EthernetCsmaMac -->
<g id="edge1" class="edge">
<title>IEtherMac&#45;&gt;EthernetCsmaMac</title>
<path fill="none" stroke="black" stroke-dasharray="5,2" d="M98.92,-54.75C88.67,-44.87 72.09,-28.9 61.91,-19.09"/>
</g>
<!-- EthernetMac -->
<g id="node3" class="node">
<title>EthernetMac</title>
<g id="a_node3"><a xlink:href="inet.linklayer.ethernet.basic.EthernetMac.html" xlink:title="Compound Module EthernetMac" target="_parent">
<polygon fill="#fffcaf" stroke="black" points="202,-19 124,-19 124,0 202,0 202,-19"/>
<text text-anchor="middle" x="163" y="-7" font-family="Helvetica,sans-Serif" font-size="10.00">EthernetMac</text>
</a>
</g>
</g>
<!-- IEtherMac&#45;&gt;EthernetMac -->
<g id="edge2" class="edge">
<title>IEtherMac&#45;&gt;EthernetMac</title>
<path fill="none" stroke="black" stroke-dasharray="5,2" d="M117.08,-54.75C127.33,-44.87 143.91,-28.9 154.09,-19.09"/>
</g>
</g>
</svg>
