<?xml version="1.0" encoding="UTF-8" standalone="no"?>
<!DOCTYPE svg PUBLIC "-//W3C//DTD SVG 1.1//EN"
 "http://www.w3.org/Graphics/SVG/1.1/DTD/svg11.dtd">
<!-- Generated by graphviz version 2.43.0 (0)
 -->
<!-- Title: opp Pages: 1 -->
<svg width="293pt" height="82pt"
 viewBox="0.00 0.00 293.00 82.00" xmlns="http://www.w3.org/2000/svg" xmlns:xlink="http://www.w3.org/1999/xlink">
<g id="graph0" class="graph" transform="scale(1 1) rotate(0) translate(4 78)">
<title>opp</title>
<polygon fill="transparent" stroke="transparent" points="-4,4 -4,-78 289,-78 289,4 -4,4"/>
<!-- AckingMac -->
<g id="node1" class="node">
<title>AckingMac</title>
<g id="a_node1"><a xlink:href="inet.linklayer.acking.AckingMac.html" xlink:title="Compound Module AckingMac" target="_parent">
<polygon fill="#fff700" stroke="black" points="194.5,-19 124.5,-19 124.5,0 194.5,0 194.5,-19"/>
<text text-anchor="middle" x="159.5" y="-7" font-family="Helvetica,sans-Serif" font-size="10.00">AckingMac</text>
</a>
</g>
</g>
<!-- MacProtocolBase -->
<g id="node2" class="node">
<title>MacProtocolBase</title>
<g id="a_node2"><a xlink:href="inet.linklayer.base.MacProtocolBase.html" xlink:title="Simple Module MacProtocolBase" target="_parent">
<polygon fill="#fffcaf" stroke="black" points="101,-74 0,-74 0,-55 101,-55 101,-74"/>
<text text-anchor="middle" x="50.5" y="-62" font-family="Helvetica,sans-Serif" font-size="10.00">MacProtocolBase</text>
</a>
</g>
</g>
<!-- MacProtocolBase&#45;&gt;AckingMac -->
<g id="edge1" class="edge">
<title>MacProtocolBase&#45;&gt;AckingMac</title>
<path fill="none" stroke="black" d="M68.01,-54.98C88.23,-45.15 121.31,-29.07 141.67,-19.17"/>
</g>
<!-- IMacProtocol -->
<g id="node3" class="node">
<title>IMacProtocol</title>
<g id="a_node3"><a xlink:href="inet.linklayer.contract.IMacProtocol.html" xlink:title="Module Interface IMacProtocol" target="_parent">
<polygon fill="#fffcaf" stroke="black" stroke-dasharray="5,2" points="199.5,-74 119.5,-74 119.5,-55 199.5,-55 199.5,-74"/>
<text text-anchor="middle" x="159.5" y="-62" font-family="Helvetica,sans-Serif" font-size="10.00">IMacProtocol</text>
</a>
</g>
</g>
<!-- IMacProtocol&#45;&gt;AckingMac -->
<g id="edge2" class="edge">
<title>IMacProtocol&#45;&gt;AckingMac</title>
<path fill="none" stroke="black" stroke-dasharray="5,2" d="M159.5,-54.75C159.5,-44.87 159.5,-28.9 159.5,-19.09"/>
</g>
<!-- ILinkLayer -->
<g id="node4" class="node">
<title>ILinkLayer</title>
<g id="a_node4"><a xlink:href="inet.linklayer.contract.ILinkLayer.html" xlink:title="Module Interface ILinkLayer" target="_parent">
<polygon fill="#fffcaf" stroke="black" stroke-dasharray="5,2" points="285,-74 218,-74 218,-55 285,-55 285,-74"/>
<text text-anchor="middle" x="251.5" y="-62" font-family="Helvetica,sans-Serif" font-size="10.00">ILinkLayer</text>
</a>
</g>
</g>
<!-- ILinkLayer&#45;&gt;AckingMac -->
<g id="edge3" class="edge">
<title>ILinkLayer&#45;&gt;AckingMac</title>
<path fill="none" stroke="black" stroke-dasharray="5,2" d="M236.72,-54.98C219.65,-45.15 191.73,-29.07 174.55,-19.17"/>
</g>
</g>
</svg>
