<?xml version="1.0" encoding="UTF-8" standalone="no"?>
<!DOCTYPE svg PUBLIC "-//W3C//DTD SVG 1.1//EN"
 "http://www.w3.org/Graphics/SVG/1.1/DTD/svg11.dtd">
<!-- Generated by graphviz version 2.43.0 (0)
 -->
<!-- Title: opp Pages: 1 -->
<svg width="1702pt" height="137pt"
 viewBox="0.00 0.00 1701.50 137.00" xmlns="http://www.w3.org/2000/svg" xmlns:xlink="http://www.w3.org/1999/xlink">
<g id="graph0" class="graph" transform="scale(1 1) rotate(0) translate(4 133)">
<title>opp</title>
<polygon fill="transparent" stroke="transparent" points="-4,4 -4,-133 1697.5,-133 1697.5,4 -4,4"/>
<!-- SenderHost -->
<g id="node1" class="node">
<title>SenderHost</title>
<g id="a_node1"><a xlink:href="inet.tutorials.protocol.SenderHost.html" xlink:title="Compound Module SenderHost" target="_parent">
<polygon fill="#fff700" stroke="black" points="968.5,-74 895.5,-74 895.5,-55 968.5,-55 968.5,-74"/>
<text text-anchor="middle" x="932" y="-62" font-family="Helvetica,sans-Serif" font-size="10.00">SenderHost</text>
</a>
</g>
</g>
<!-- FcsHeaderInserter -->
<g id="node2" class="node">
<title>FcsHeaderInserter</title>
<g id="a_node2"><a xlink:href="inet.protocolelement.checksum.FcsHeaderInserter.html" xlink:title="Simple Module FcsHeaderInserter" target="_parent">
<polygon fill="#fffcaf" stroke="black" points="106,-19 0,-19 0,0 106,0 106,-19"/>
<text text-anchor="middle" x="53" y="-7" font-family="Helvetica,sans-Serif" font-size="10.00">FcsHeaderInserter</text>
</a>
</g>
</g>
<!-- SenderHost&#45;&gt;FcsHeaderInserter -->
<g id="edge1" class="edge">
<title>SenderHost&#45;&gt;FcsHeaderInserter</title>
<path fill="none" stroke="black" d="M895.28,-62.57C781.29,-59.46 423.29,-47.98 116.06,-19.02"/>
<polygon fill="black" stroke="black" points="116.35,-15.53 106.07,-18.07 115.69,-22.5 116.35,-15.53"/>
</g>
<!-- SequenceNumbering -->
<g id="node3" class="node">
<title>SequenceNumbering</title>
<g id="a_node3"><a xlink:href="inet.protocolelement.ordering.SequenceNumbering.html" xlink:title="Simple Module SequenceNumbering" target="_parent">
<polygon fill="#fffcaf" stroke="black" points="242,-19 124,-19 124,0 242,0 242,-19"/>
<text text-anchor="middle" x="183" y="-7" font-family="Helvetica,sans-Serif" font-size="10.00">SequenceNumbering</text>
</a>
</g>
</g>
<!-- SenderHost&#45;&gt;SequenceNumbering -->
<g id="edge2" class="edge">
<title>SenderHost&#45;&gt;SequenceNumbering</title>
<path fill="none" stroke="black" d="M895.4,-61.87C794.63,-57.22 504.42,-42.75 252.4,-19.08"/>
<polygon fill="black" stroke="black" points="252.6,-15.58 242.32,-18.12 251.94,-22.55 252.6,-15.58"/>
</g>
<!-- InstantServer -->
<g id="node4" class="node">
<title>InstantServer</title>
<g id="a_node4"><a xlink:href="inet.queueing.server.InstantServer.html" xlink:title="Simple Module InstantServer" target="_parent">
<polygon fill="#fffcaf" stroke="black" points="342,-19 260,-19 260,0 342,0 342,-19"/>
<text text-anchor="middle" x="301" y="-7" font-family="Helvetica,sans-Serif" font-size="10.00">InstantServer</text>
</a>
</g>
</g>
<!-- SenderHost&#45;&gt;InstantServer -->
<g id="edge3" class="edge">
<title>SenderHost&#45;&gt;InstantServer</title>
<path fill="none" stroke="black" d="M895.18,-61.86C804.59,-57.56 563.52,-44.61 352.2,-19.03"/>
<polygon fill="black" stroke="black" points="352.51,-15.54 342.16,-17.8 351.66,-22.49 352.51,-15.54"/>
</g>
<!-- InterpacketGapInserter -->
<g id="node5" class="node">
<title>InterpacketGapInserter</title>
<g id="a_node5"><a xlink:href="inet.protocolelement.common.InterpacketGapInserter.html" xlink:title="Simple Module InterpacketGapInserter" target="_parent">
<polygon fill="#fffcaf" stroke="black" points="488,-19 360,-19 360,0 488,0 488,-19"/>
<text text-anchor="middle" x="424" y="-7" font-family="Helvetica,sans-Serif" font-size="10.00">InterpacketGapInserter</text>
</a>
</g>
</g>
<!-- SenderHost&#45;&gt;InterpacketGapInserter -->
<g id="edge4" class="edge">
<title>SenderHost&#45;&gt;InterpacketGapInserter</title>
<path fill="none" stroke="black" d="M895.32,-59.92C822.03,-52.74 652.05,-35.88 498.2,-19.12"/>
<polygon fill="black" stroke="black" points="498.41,-15.62 488.09,-18.01 497.65,-22.58 498.41,-15.62"/>
</g>
<!-- PreemptingServer -->
<g id="node6" class="node">
<title>PreemptingServer</title>
<g id="a_node6"><a xlink:href="inet.queueing.server.PreemptingServer.html" xlink:title="Simple Module PreemptingServer" target="_parent">
<polygon fill="#fffcaf" stroke="black" points="610,-19 506,-19 506,0 610,0 610,-19"/>
<text text-anchor="middle" x="558" y="-7" font-family="Helvetica,sans-Serif" font-size="10.00">PreemptingServer</text>
</a>
</g>
</g>
<!-- SenderHost&#45;&gt;PreemptingServer -->
<g id="edge5" class="edge">
<title>SenderHost&#45;&gt;PreemptingServer</title>
<path fill="none" stroke="black" d="M895.46,-58.32C831.6,-49.27 699.04,-30.49 620.41,-19.34"/>
<polygon fill="black" stroke="black" points="620.54,-15.83 610.15,-17.89 619.56,-22.76 620.54,-15.83"/>
</g>
<!-- FragmentNumberHeaderBasedDefragmenter -->
<g id="node7" class="node">
<title>FragmentNumberHeaderBasedDefragmenter</title>
<g id="a_node7"><a xlink:href="inet.protocolelement.fragmentation.FragmentNumberHeaderBasedDefragmenter.html" xlink:title="Simple Module FragmentNumberHeaderBasedDefragmenter" target="_parent">
<polygon fill="#fffcaf" stroke="black" points="864,-19 628,-19 628,0 864,0 864,-19"/>
<text text-anchor="middle" x="746" y="-7" font-family="Helvetica,sans-Serif" font-size="10.00">FragmentNumberHeaderBasedDefragmenter</text>
</a>
</g>
</g>
<!-- SenderHost&#45;&gt;FragmentNumberHeaderBasedDefragmenter -->
<g id="edge6" class="edge">
<title>SenderHost&#45;&gt;FragmentNumberHeaderBasedDefragmenter</title>
<path fill="none" stroke="black" d="M902.12,-54.98C870.62,-46.01 820.83,-31.82 785.97,-21.89"/>
<polygon fill="black" stroke="black" points="786.69,-18.46 776.12,-19.08 784.78,-25.19 786.69,-18.46"/>
</g>
<!-- InProgressQueue -->
<g id="node8" class="node">
<title>InProgressQueue</title>
<g id="a_node8"><a xlink:href="inet.queueing.queue.InProgressQueue.html" xlink:title="Simple Module InProgressQueue" target="_parent">
<polygon fill="#fffcaf" stroke="black" points="981.5,-19 882.5,-19 882.5,0 981.5,0 981.5,-19"/>
<text text-anchor="middle" x="932" y="-7" font-family="Helvetica,sans-Serif" font-size="10.00">InProgressQueue</text>
</a>
</g>
</g>
<!-- SenderHost&#45;&gt;InProgressQueue -->
<g id="edge7" class="edge">
<title>SenderHost&#45;&gt;InProgressQueue</title>
<path fill="none" stroke="black" d="M932,-54.75C932,-47.8 932,-37.85 932,-29.13"/>
<polygon fill="black" stroke="black" points="935.5,-29.09 932,-19.09 928.5,-29.09 935.5,-29.09"/>
</g>
<!-- PacketTagger -->
<g id="node9" class="node">
<title>PacketTagger</title>
<g id="a_node9"><a xlink:href="inet.queueing.marker.PacketTagger.html" xlink:title="Simple Module PacketTagger" target="_parent">
<polygon fill="#fffcaf" stroke="black" points="1080,-19 1000,-19 1000,0 1080,0 1080,-19"/>
<text text-anchor="middle" x="1040" y="-7" font-family="Helvetica,sans-Serif" font-size="10.00">PacketTagger</text>
</a>
</g>
</g>
<!-- SenderHost&#45;&gt;PacketTagger -->
<g id="edge8" class="edge">
<title>SenderHost&#45;&gt;PacketTagger</title>
<path fill="none" stroke="black" d="M949.35,-54.98C966.57,-46.54 993.2,-33.47 1013.15,-23.68"/>
<polygon fill="black" stroke="black" points="1014.9,-26.72 1022.33,-19.17 1011.81,-20.43 1014.9,-26.72"/>
</g>
<!-- StreamThroughTransmitter -->
<g id="node10" class="node">
<title>StreamThroughTransmitter</title>
<g id="a_node10"><a xlink:href="inet.protocolelement.transceiver.StreamThroughTransmitter.html" xlink:title="Simple Module StreamThroughTransmitter" target="_parent">
<polygon fill="#fffcaf" stroke="black" points="1245.5,-19 1098.5,-19 1098.5,0 1245.5,0 1245.5,-19"/>
<text text-anchor="middle" x="1172" y="-7" font-family="Helvetica,sans-Serif" font-size="10.00">StreamThroughTransmitter</text>
</a>
</g>
</g>
<!-- SenderHost&#45;&gt;StreamThroughTransmitter -->
<g id="edge9" class="edge">
<title>SenderHost&#45;&gt;StreamThroughTransmitter</title>
<path fill="none" stroke="black" d="M968.71,-55.39C1010.1,-46.25 1077.56,-31.36 1123.31,-21.25"/>
<polygon fill="black" stroke="black" points="1124.29,-24.62 1133.3,-19.05 1122.78,-17.78 1124.29,-24.62"/>
</g>
<!-- PacketQueue -->
<g id="node11" class="node">
<title>PacketQueue</title>
<g id="a_node11"><a xlink:href="inet.queueing.queue.PacketQueue.html" xlink:title="Simple Module PacketQueue" target="_parent">
<polygon fill="#fffcaf" stroke="black" points="1344,-19 1264,-19 1264,0 1344,0 1344,-19"/>
<text text-anchor="middle" x="1304" y="-7" font-family="Helvetica,sans-Serif" font-size="10.00">PacketQueue</text>
</a>
</g>
</g>
<!-- SenderHost&#45;&gt;PacketQueue -->
<g id="edge10" class="edge">
<title>SenderHost&#45;&gt;PacketQueue</title>
<path fill="none" stroke="black" d="M968.88,-58.84C1027.16,-51.39 1144.39,-36.03 1254.01,-19.11"/>
<polygon fill="black" stroke="black" points="1254.56,-22.56 1263.91,-17.57 1253.49,-15.65 1254.56,-22.56"/>
</g>
<!-- IdealChannel -->
<g id="node12" class="node">
<title>IdealChannel</title>
<g id="a_node12"><a xlink:href="ned.IdealChannel.html" xlink:title="Channel IdealChannel" target="_parent">
<polygon fill="#d0ffd0" stroke="black" points="1442,-19 1362,-19 1362,0 1442,0 1442,-19"/>
<text text-anchor="middle" x="1402" y="-7" font-family="Helvetica,sans-Serif" font-size="10.00">IdealChannel</text>
</a>
</g>
</g>
<!-- SenderHost&#45;&gt;IdealChannel -->
<g id="edge11" class="edge">
<title>SenderHost&#45;&gt;IdealChannel</title>
<path fill="none" stroke="black" d="M968.7,-60.45C1040.31,-54.31 1203.85,-39.43 1351.75,-19.09"/>
<polygon fill="black" stroke="black" points="1352.5,-22.52 1361.92,-17.68 1351.54,-15.58 1352.5,-22.52"/>
</g>
<!-- ActivePacketSource -->
<g id="node13" class="node">
<title>ActivePacketSource</title>
<g id="a_node13"><a xlink:href="inet.queueing.source.ActivePacketSource.html" xlink:title="Simple Module ActivePacketSource" target="_parent">
<polygon fill="#fffcaf" stroke="black" points="1572,-19 1460,-19 1460,0 1572,0 1572,-19"/>
<text text-anchor="middle" x="1516" y="-7" font-family="Helvetica,sans-Serif" font-size="10.00">ActivePacketSource</text>
</a>
</g>
</g>
<!-- SenderHost&#45;&gt;ActivePacketSource -->
<g id="edge12" class="edge">
<title>SenderHost&#45;&gt;ActivePacketSource</title>
<path fill="none" stroke="black" d="M968.55,-60.93C1051.91,-54.94 1262.7,-39.12 1449.97,-19.06"/>
<polygon fill="black" stroke="black" points="1450.43,-22.54 1460,-17.98 1449.68,-15.58 1450.43,-22.54"/>
</g>
<!-- PacketMultiplexer -->
<g id="node14" class="node">
<title>PacketMultiplexer</title>
<g id="a_node14"><a xlink:href="inet.queueing.common.PacketMultiplexer.html" xlink:title="Simple Module PacketMultiplexer" target="_parent">
<polygon fill="#fffcaf" stroke="black" points="1693.5,-19 1590.5,-19 1590.5,0 1693.5,0 1693.5,-19"/>
<text text-anchor="middle" x="1642" y="-7" font-family="Helvetica,sans-Serif" font-size="10.00">PacketMultiplexer</text>
</a>
</g>
</g>
<!-- SenderHost&#45;&gt;PacketMultiplexer -->
<g id="edge13" class="edge">
<title>SenderHost&#45;&gt;PacketMultiplexer</title>
<path fill="none" stroke="black" d="M968.67,-61.89C1066.25,-57.4 1340.55,-43.54 1580.14,-19.01"/>
<polygon fill="black" stroke="black" points="1580.86,-22.45 1590.45,-17.94 1580.14,-15.49 1580.86,-22.45"/>
</g>
<!-- Network90 -->
<g id="node15" class="node">
<title>Network90</title>
<g id="a_node15"><a xlink:href="inet.tutorials.protocol.Network90.html" xlink:title="Network Network90" target="_parent">
<polygon fill="#d0d0ff" stroke="black" points="967,-129 897,-129 897,-110 967,-110 967,-129"/>
<text text-anchor="middle" x="932" y="-117" font-family="Helvetica,sans-Serif" font-size="10.00">Network90</text>
</a>
</g>
</g>
<!-- Network90&#45;&gt;SenderHost -->
<g id="edge14" class="edge">
<title>Network90&#45;&gt;SenderHost</title>
<path fill="none" stroke="black" d="M932,-109.75C932,-102.8 932,-92.85 932,-84.13"/>
<polygon fill="black" stroke="black" points="935.5,-84.09 932,-74.09 928.5,-84.09 935.5,-84.09"/>
</g>
</g>
</svg>
