<?xml version="1.0" encoding="UTF-8" standalone="no"?>
<!DOCTYPE svg PUBLIC "-//W3C//DTD SVG 1.1//EN"
 "http://www.w3.org/Graphics/SVG/1.1/DTD/svg11.dtd">
<!-- Generated by graphviz version 2.43.0 (0)
 -->
<!-- Title: opp Pages: 1 -->
<svg width="766pt" height="82pt"
 viewBox="0.00 0.00 766.00 82.00" xmlns="http://www.w3.org/2000/svg" xmlns:xlink="http://www.w3.org/1999/xlink">
<g id="graph0" class="graph" transform="scale(1 1) rotate(0) translate(4 78)">
<title>opp</title>
<polygon fill="transparent" stroke="transparent" points="-4,4 -4,-78 762,-78 762,4 -4,4"/>
<!-- LayeredEthernetInterface -->
<g id="node1" class="node">
<title>LayeredEthernetInterface</title>
<g id="a_node1"><a xlink:href="inet.linklayer.ethernet.LayeredEthernetInterface.html" xlink:title="Compound Module LayeredEthernetInterface" target="_parent">
<polygon fill="#fff700" stroke="black" points="472,-74 332,-74 332,-55 472,-55 472,-74"/>
<text text-anchor="middle" x="402" y="-62" font-family="Helvetica,sans-Serif" font-size="10.00">LayeredEthernetInterface</text>
</a>
</g>
</g>
<!-- IMeasurementLayer -->
<g id="node2" class="node">
<title>IMeasurementLayer</title>
<g id="a_node2"><a xlink:href="inet.protocolelement.measurement.IMeasurementLayer.html" xlink:title="Module Interface IMeasurementLayer" target="_parent">
<polygon fill="#fffcaf" stroke="black" stroke-dasharray="5,2" points="114,-19 0,-19 0,0 114,0 114,-19"/>
<text text-anchor="middle" x="57" y="-7" font-family="Helvetica,sans-Serif" font-size="10.00">IMeasurementLayer</text>
</a>
</g>
</g>
<!-- LayeredEthernetInterface&#45;&gt;IMeasurementLayer -->
<g id="edge1" class="edge">
<title>LayeredEthernetInterface&#45;&gt;IMeasurementLayer</title>
<path fill="none" stroke="black" d="M346.57,-54.98C285.55,-45.61 187.52,-30.55 122.69,-20.59"/>
<polygon fill="black" stroke="black" points="122.99,-17.1 112.58,-19.04 121.93,-24.02 122.99,-17.1"/>
</g>
<!-- ITrafficConditionerLayer -->
<g id="node3" class="node">
<title>ITrafficConditionerLayer</title>
<g id="a_node3"><a xlink:href="inet.protocolelement.trafficconditioner.ITrafficConditionerLayer.html" xlink:title="Module Interface ITrafficConditionerLayer" target="_parent">
<polygon fill="#fffcaf" stroke="black" stroke-dasharray="5,2" points="264,-19 132,-19 132,0 264,0 264,-19"/>
<text text-anchor="middle" x="198" y="-7" font-family="Helvetica,sans-Serif" font-size="10.00">ITrafficConditionerLayer</text>
</a>
</g>
</g>
<!-- LayeredEthernetInterface&#45;&gt;ITrafficConditionerLayer -->
<g id="edge2" class="edge">
<title>LayeredEthernetInterface&#45;&gt;ITrafficConditionerLayer</title>
<path fill="none" stroke="black" d="M369.22,-54.98C334.38,-45.93 279.13,-31.58 240.86,-21.64"/>
<polygon fill="black" stroke="black" points="241.59,-18.21 231.03,-19.08 239.83,-24.98 241.59,-18.21"/>
</g>
<!-- IEthernetPhyLayer -->
<g id="node4" class="node">
<title>IEthernetPhyLayer</title>
<g id="a_node4"><a xlink:href="inet.physicallayer.wired.ethernet.IEthernetPhyLayer.html" xlink:title="Module Interface IEthernetPhyLayer" target="_parent">
<polygon fill="#fffcaf" stroke="black" stroke-dasharray="5,2" points="388,-19 282,-19 282,0 388,0 388,-19"/>
<text text-anchor="middle" x="335" y="-7" font-family="Helvetica,sans-Serif" font-size="10.00">IEthernetPhyLayer</text>
</a>
</g>
</g>
<!-- LayeredEthernetInterface&#45;&gt;IEthernetPhyLayer -->
<g id="edge3" class="edge">
<title>LayeredEthernetInterface&#45;&gt;IEthernetPhyLayer</title>
<path fill="none" stroke="black" d="M391.24,-54.98C381.23,-47.07 366.11,-35.11 354.07,-25.58"/>
<polygon fill="black" stroke="black" points="355.97,-22.63 345.96,-19.17 351.63,-28.12 355.97,-22.63"/>
</g>
<!-- IProcessingDelayLayer -->
<g id="node5" class="node">
<title>IProcessingDelayLayer</title>
<g id="a_node5"><a xlink:href="inet.protocolelement.processing.IProcessingDelayLayer.html" xlink:title="Module Interface IProcessingDelayLayer" target="_parent">
<polygon fill="#fffcaf" stroke="black" stroke-dasharray="5,2" points="534,-19 406,-19 406,0 534,0 534,-19"/>
<text text-anchor="middle" x="470" y="-7" font-family="Helvetica,sans-Serif" font-size="10.00">IProcessingDelayLayer</text>
</a>
</g>
</g>
<!-- LayeredEthernetInterface&#45;&gt;IProcessingDelayLayer -->
<g id="edge4" class="edge">
<title>LayeredEthernetInterface&#45;&gt;IProcessingDelayLayer</title>
<path fill="none" stroke="black" d="M412.93,-54.98C423.08,-47.07 438.42,-35.11 450.65,-25.58"/>
<polygon fill="black" stroke="black" points="453.14,-28.08 458.88,-19.17 448.84,-22.56 453.14,-28.08"/>
</g>
<!-- IdealChannel -->
<g id="node6" class="node">
<title>IdealChannel</title>
<g id="a_node6"><a xlink:href="ned.IdealChannel.html" xlink:title="Channel IdealChannel" target="_parent">
<polygon fill="#d0ffd0" stroke="black" points="632,-19 552,-19 552,0 632,0 632,-19"/>
<text text-anchor="middle" x="592" y="-7" font-family="Helvetica,sans-Serif" font-size="10.00">IdealChannel</text>
</a>
</g>
</g>
<!-- LayeredEthernetInterface&#45;&gt;IdealChannel -->
<g id="edge5" class="edge">
<title>LayeredEthernetInterface&#45;&gt;IdealChannel</title>
<path fill="none" stroke="black" d="M432.53,-54.98C464.7,-46.01 515.56,-31.82 551.17,-21.89"/>
<polygon fill="black" stroke="black" points="552.54,-25.14 561.23,-19.08 550.66,-18.4 552.54,-25.14"/>
</g>
<!-- IEthernetMacLayer -->
<g id="node7" class="node">
<title>IEthernetMacLayer</title>
<g id="a_node7"><a xlink:href="inet.linklayer.ethernet.contract.IEthernetMacLayer.html" xlink:title="Module Interface IEthernetMacLayer" target="_parent">
<polygon fill="#fffcaf" stroke="black" stroke-dasharray="5,2" points="758,-19 650,-19 650,0 758,0 758,-19"/>
<text text-anchor="middle" x="704" y="-7" font-family="Helvetica,sans-Serif" font-size="10.00">IEthernetMacLayer</text>
</a>
</g>
</g>
<!-- LayeredEthernetInterface&#45;&gt;IEthernetMacLayer -->
<g id="edge6" class="edge">
<title>LayeredEthernetInterface&#45;&gt;IEthernetMacLayer</title>
<path fill="none" stroke="black" d="M450.52,-54.98C503.61,-45.67 588.69,-30.74 645.44,-20.78"/>
<polygon fill="black" stroke="black" points="646.1,-24.21 655.35,-19.04 644.89,-17.32 646.1,-24.21"/>
</g>
</g>
</svg>
