<?xml version="1.0" encoding="UTF-8" standalone="no"?>
<!DOCTYPE svg PUBLIC "-//W3C//DTD SVG 1.1//EN"
 "http://www.w3.org/Graphics/SVG/1.1/DTD/svg11.dtd">
<!-- Generated by graphviz version 2.43.0 (0)
 -->
<!-- Title: opp Pages: 1 -->
<svg width="446pt" height="82pt"
 viewBox="0.00 0.00 446.00 82.00" xmlns="http://www.w3.org/2000/svg" xmlns:xlink="http://www.w3.org/1999/xlink">
<g id="graph0" class="graph" transform="scale(1 1) rotate(0) translate(4 78)">
<title>opp</title>
<polygon fill="transparent" stroke="transparent" points="-4,4 -4,-78 442,-78 442,4 -4,4"/>
<!-- ServerTutorialStep -->
<g id="node1" class="node">
<title>ServerTutorialStep</title>
<g id="a_node1"><a xlink:href="inet.tutorials.queueing.ServerTutorialStep.html" xlink:title="Network ServerTutorialStep" target="_parent">
<polygon fill="#9090ff" stroke="black" points="297,-74 191,-74 191,-55 297,-55 297,-74"/>
<text text-anchor="middle" x="244" y="-62" font-family="Helvetica,sans-Serif" font-size="10.00">ServerTutorialStep</text>
</a>
</g>
</g>
<!-- PassivePacketSource -->
<g id="node2" class="node">
<title>PassivePacketSource</title>
<g id="a_node2"><a xlink:href="inet.queueing.source.PassivePacketSource.html" xlink:title="Simple Module PassivePacketSource" target="_parent">
<polygon fill="#fffcaf" stroke="black" points="118,-19 0,-19 0,0 118,0 118,-19"/>
<text text-anchor="middle" x="59" y="-7" font-family="Helvetica,sans-Serif" font-size="10.00">PassivePacketSource</text>
</a>
</g>
</g>
<!-- ServerTutorialStep&#45;&gt;PassivePacketSource -->
<g id="edge1" class="edge">
<title>ServerTutorialStep&#45;&gt;PassivePacketSource</title>
<path fill="none" stroke="black" d="M214.28,-54.98C182.95,-46.01 133.43,-31.82 98.76,-21.89"/>
<polygon fill="black" stroke="black" points="99.53,-18.47 88.96,-19.08 97.61,-25.2 99.53,-18.47"/>
</g>
<!-- PassivePacketSink -->
<g id="node3" class="node">
<title>PassivePacketSink</title>
<g id="a_node3"><a xlink:href="inet.queueing.sink.PassivePacketSink.html" xlink:title="Simple Module PassivePacketSink" target="_parent">
<polygon fill="#fffcaf" stroke="black" points="242,-19 136,-19 136,0 242,0 242,-19"/>
<text text-anchor="middle" x="189" y="-7" font-family="Helvetica,sans-Serif" font-size="10.00">PassivePacketSink</text>
</a>
</g>
</g>
<!-- ServerTutorialStep&#45;&gt;PassivePacketSink -->
<g id="edge2" class="edge">
<title>ServerTutorialStep&#45;&gt;PassivePacketSink</title>
<path fill="none" stroke="black" d="M234.92,-54.75C226.91,-47.03 215.04,-35.6 205.38,-26.28"/>
<polygon fill="black" stroke="black" points="207.54,-23.51 197.91,-19.09 202.69,-28.55 207.54,-23.51"/>
</g>
<!-- IdealChannel -->
<g id="node4" class="node">
<title>IdealChannel</title>
<g id="a_node4"><a xlink:href="ned.IdealChannel.html" xlink:title="Channel IdealChannel" target="_parent">
<polygon fill="#d0ffd0" stroke="black" points="340,-19 260,-19 260,0 340,0 340,-19"/>
<text text-anchor="middle" x="300" y="-7" font-family="Helvetica,sans-Serif" font-size="10.00">IdealChannel</text>
</a>
</g>
</g>
<!-- ServerTutorialStep&#45;&gt;IdealChannel -->
<g id="edge3" class="edge">
<title>ServerTutorialStep&#45;&gt;IdealChannel</title>
<path fill="none" stroke="black" d="M253,-54.98C261.19,-47.23 273.51,-35.58 283.47,-26.14"/>
<polygon fill="black" stroke="black" points="285.98,-28.59 290.84,-19.17 281.17,-23.5 285.98,-28.59"/>
</g>
<!-- PacketServer -->
<g id="node5" class="node">
<title>PacketServer</title>
<g id="a_node5"><a xlink:href="inet.queueing.server.PacketServer.html" xlink:title="Simple Module PacketServer" target="_parent">
<polygon fill="#fffcaf" stroke="black" points="438,-19 358,-19 358,0 438,0 438,-19"/>
<text text-anchor="middle" x="398" y="-7" font-family="Helvetica,sans-Serif" font-size="10.00">PacketServer</text>
</a>
</g>
</g>
<!-- ServerTutorialStep&#45;&gt;PacketServer -->
<g id="edge4" class="edge">
<title>ServerTutorialStep&#45;&gt;PacketServer</title>
<path fill="none" stroke="black" d="M268.74,-54.98C294.37,-46.16 334.63,-32.31 363.41,-22.41"/>
<polygon fill="black" stroke="black" points="364.75,-25.65 373.06,-19.08 362.47,-19.03 364.75,-25.65"/>
</g>
</g>
</svg>
