<?xml version="1.0" encoding="UTF-8" standalone="no"?>
<!DOCTYPE svg PUBLIC "-//W3C//DTD SVG 1.1//EN"
 "http://www.w3.org/Graphics/SVG/1.1/DTD/svg11.dtd">
<!-- Generated by graphviz version 2.43.0 (0)
 -->
<!-- Title: opp Pages: 1 -->
<svg width="597pt" height="82pt"
 viewBox="0.00 0.00 596.50 82.00" xmlns="http://www.w3.org/2000/svg" xmlns:xlink="http://www.w3.org/1999/xlink">
<g id="graph0" class="graph" transform="scale(1 1) rotate(0) translate(4 78)">
<title>opp</title>
<polygon fill="transparent" stroke="transparent" points="-4,4 -4,-78 592.5,-78 592.5,4 -4,4"/>
<!-- BgpNetwork -->
<g id="node1" class="node">
<title>BgpNetwork</title>
<g id="a_node1"><a xlink:href="inet.examples.bgpv4.BgpUpdate.BgpNetwork.html" xlink:title="Network BgpNetwork" target="_parent">
<polygon fill="#9090ff" stroke="black" points="260.5,-74 183.5,-74 183.5,-55 260.5,-55 260.5,-74"/>
<text text-anchor="middle" x="222" y="-62" font-family="Helvetica,sans-Serif" font-size="10.00">BgpNetwork</text>
</a>
</g>
</g>
<!-- LINK_100 -->
<g id="node2" class="node">
<title>LINK_100</title>
<g id="a_node2"><a xlink:href="inet.examples.bgpv4.BgpUpdate.BgpNetwork.LINK_100.html" xlink:title="Channel LINK_100" target="_parent">
<polygon fill="#d0ffd0" stroke="black" points="62,-19 0,-19 0,0 62,0 62,-19"/>
<text text-anchor="middle" x="31" y="-7" font-family="Helvetica,sans-Serif" font-size="10.00">LINK_100</text>
</a>
</g>
</g>
<!-- BgpNetwork&#45;&gt;LINK_100 -->
<g id="edge1" class="edge">
<title>BgpNetwork&#45;&gt;LINK_100</title>
<path fill="none" stroke="black" d="M191.31,-54.98C158.83,-45.97 107.4,-31.7 71.59,-21.76"/>
<polygon fill="black" stroke="black" points="72.5,-18.38 61.93,-19.08 70.63,-25.13 72.5,-18.38"/>
</g>
<!-- StandardHost -->
<g id="node3" class="node">
<title>StandardHost</title>
<g id="a_node3"><a xlink:href="inet.node.inet.StandardHost.html" xlink:title="Compound Module StandardHost" target="_parent">
<polygon fill="#fffcaf" stroke="black" points="163.5,-19 80.5,-19 80.5,0 163.5,0 163.5,-19"/>
<text text-anchor="middle" x="122" y="-7" font-family="Helvetica,sans-Serif" font-size="10.00">StandardHost</text>
</a>
</g>
</g>
<!-- BgpNetwork&#45;&gt;StandardHost -->
<g id="edge2" class="edge">
<title>BgpNetwork&#45;&gt;StandardHost</title>
<path fill="none" stroke="black" d="M205.93,-54.98C190.14,-46.61 165.78,-33.7 147.37,-23.95"/>
<polygon fill="black" stroke="black" points="148.83,-20.76 138.36,-19.17 145.56,-26.95 148.83,-20.76"/>
</g>
<!-- BGPRouterEx -->
<g id="node4" class="node">
<title>BGPRouterEx</title>
<g id="a_node4"><a xlink:href="inet.examples.bgpv4.BgpUpdate.BGPRouterEx.html" xlink:title="Compound Module BGPRouterEx" target="_parent">
<polygon fill="#fffcaf" stroke="black" points="262.5,-19 181.5,-19 181.5,0 262.5,0 262.5,-19"/>
<text text-anchor="middle" x="222" y="-7" font-family="Helvetica,sans-Serif" font-size="10.00">BGPRouterEx</text>
</a>
</g>
</g>
<!-- BgpNetwork&#45;&gt;BGPRouterEx -->
<g id="edge3" class="edge">
<title>BgpNetwork&#45;&gt;BGPRouterEx</title>
<path fill="none" stroke="black" d="M222,-54.75C222,-47.8 222,-37.85 222,-29.13"/>
<polygon fill="black" stroke="black" points="225.5,-29.09 222,-19.09 218.5,-29.09 225.5,-29.09"/>
</g>
<!-- IntegratedCanvasVisualizer -->
<g id="node5" class="node">
<title>IntegratedCanvasVisualizer</title>
<g id="a_node5"><a xlink:href="inet.visualizer.canvas.integrated.IntegratedCanvasVisualizer.html" xlink:title="Compound Module IntegratedCanvasVisualizer" target="_parent">
<polygon fill="#fffcaf" stroke="black" points="431.5,-19 280.5,-19 280.5,0 431.5,0 431.5,-19"/>
<text text-anchor="middle" x="356" y="-7" font-family="Helvetica,sans-Serif" font-size="10.00">IntegratedCanvasVisualizer</text>
</a>
</g>
</g>
<!-- BgpNetwork&#45;&gt;IntegratedCanvasVisualizer -->
<g id="edge4" class="edge">
<title>BgpNetwork&#45;&gt;IntegratedCanvasVisualizer</title>
<path fill="none" stroke="black" d="M243.53,-54.98C265.47,-46.3 299.74,-32.75 324.69,-22.88"/>
<polygon fill="black" stroke="black" points="326.07,-26.1 334.08,-19.17 323.49,-19.59 326.07,-26.1"/>
</g>
<!-- Ipv4NetworkConfigurator -->
<g id="node6" class="node">
<title>Ipv4NetworkConfigurator</title>
<g id="a_node6"><a xlink:href="inet.networklayer.configurator.ipv4.Ipv4NetworkConfigurator.html" xlink:title="Simple Module Ipv4NetworkConfigurator" target="_parent">
<polygon fill="#fffcaf" stroke="black" points="588.5,-19 449.5,-19 449.5,0 588.5,0 588.5,-19"/>
<text text-anchor="middle" x="519" y="-7" font-family="Helvetica,sans-Serif" font-size="10.00">Ipv4NetworkConfigurator</text>
</a>
</g>
</g>
<!-- BgpNetwork&#45;&gt;Ipv4NetworkConfigurator -->
<g id="edge5" class="edge">
<title>BgpNetwork&#45;&gt;Ipv4NetworkConfigurator</title>
<path fill="none" stroke="black" d="M260.52,-56.63C311.56,-47.52 402.04,-31.37 461.26,-20.8"/>
<polygon fill="black" stroke="black" points="461.99,-24.23 471.21,-19.03 460.76,-17.34 461.99,-24.23"/>
</g>
</g>
</svg>
