<?xml version="1.0" encoding="UTF-8" standalone="no"?>
<!DOCTYPE svg PUBLIC "-//W3C//DTD SVG 1.1//EN"
 "http://www.w3.org/Graphics/SVG/1.1/DTD/svg11.dtd">
<!-- Generated by graphviz version 2.43.0 (0)
 -->
<!-- Title: opp Pages: 1 -->
<svg width="4370pt" height="82pt"
 viewBox="0.00 0.00 4370.00 82.00" xmlns="http://www.w3.org/2000/svg" xmlns:xlink="http://www.w3.org/1999/xlink">
<g id="graph0" class="graph" transform="scale(1 1) rotate(0) translate(4 78)">
<title>opp</title>
<polygon fill="transparent" stroke="transparent" points="-4,4 -4,-78 4366,-78 4366,4 -4,4"/>
<!-- IApp -->
<g id="node1" class="node">
<title>IApp</title>
<g id="a_node1"><a xlink:href="inet.applications.contract.IApp.html" xlink:title="Module Interface IApp" target="_parent">
<polygon fill="#fff700" stroke="black" stroke-dasharray="5,2" points="2041,-74 1987,-74 1987,-55 2041,-55 2041,-74"/>
<text text-anchor="middle" x="2014" y="-62" font-family="Helvetica,sans-Serif" font-size="10.00">IApp</text>
</a>
</g>
</g>
<!-- Aodv -->
<g id="node2" class="node">
<title>Aodv</title>
<g id="a_node2"><a xlink:href="inet.routing.aodv.Aodv.html" xlink:title="Simple Module Aodv" target="_parent">
<polygon fill="#fffcaf" stroke="black" points="54,-19 0,-19 0,0 54,0 54,-19"/>
<text text-anchor="middle" x="27" y="-7" font-family="Helvetica,sans-Serif" font-size="10.00">Aodv</text>
</a>
</g>
</g>
<!-- IApp&#45;&gt;Aodv -->
<g id="edge1" class="edge">
<title>IApp&#45;&gt;Aodv</title>
<path fill="none" stroke="black" stroke-dasharray="5,2" d="M1986.74,-63.66C1780.22,-64.76 459.13,-69.72 63,-19 60.07,-18.62 57.03,-18.11 54.02,-17.52"/>
</g>
<!-- DhcpClient -->
<g id="node3" class="node">
<title>DhcpClient</title>
<g id="a_node3"><a xlink:href="inet.applications.dhcp.DhcpClient.html" xlink:title="Simple Module DhcpClient" target="_parent">
<polygon fill="#fffcaf" stroke="black" points="142,-19 72,-19 72,0 142,0 142,-19"/>
<text text-anchor="middle" x="107" y="-7" font-family="Helvetica,sans-Serif" font-size="10.00">DhcpClient</text>
</a>
</g>
</g>
<!-- IApp&#45;&gt;DhcpClient -->
<g id="edge2" class="edge">
<title>IApp&#45;&gt;DhcpClient</title>
<path fill="none" stroke="black" stroke-dasharray="5,2" d="M1986.72,-63.47C1785.57,-63.19 529.36,-59.78 151,-19 148.22,-18.7 145.34,-18.32 142.46,-17.88"/>
</g>
<!-- DhcpServer -->
<g id="node4" class="node">
<title>DhcpServer</title>
<g id="a_node4"><a xlink:href="inet.applications.dhcp.DhcpServer.html" xlink:title="Simple Module DhcpServer" target="_parent">
<polygon fill="#fffcaf" stroke="black" points="233.5,-19 160.5,-19 160.5,0 233.5,0 233.5,-19"/>
<text text-anchor="middle" x="197" y="-7" font-family="Helvetica,sans-Serif" font-size="10.00">DhcpServer</text>
</a>
</g>
</g>
<!-- IApp&#45;&gt;DhcpServer -->
<g id="edge3" class="edge">
<title>IApp&#45;&gt;DhcpServer</title>
<path fill="none" stroke="black" stroke-dasharray="5,2" d="M1986.82,-63.42C1791.66,-62.76 601.18,-57.18 242,-19 239.31,-18.71 236.54,-18.35 233.77,-17.95"/>
</g>
<!-- EthernetApp -->
<g id="node5" class="node">
<title>EthernetApp</title>
<g id="a_node5"><a xlink:href="inet.applications.ethernet.EthernetApp.html" xlink:title="Compound Module EthernetApp" target="_parent">
<polygon fill="#fffcaf" stroke="black" points="328.5,-19 251.5,-19 251.5,0 328.5,0 328.5,-19"/>
<text text-anchor="middle" x="290" y="-7" font-family="Helvetica,sans-Serif" font-size="10.00">EthernetApp</text>
</a>
</g>
</g>
<!-- IApp&#45;&gt;EthernetApp -->
<g id="edge4" class="edge">
<title>IApp&#45;&gt;EthernetApp</title>
<path fill="none" stroke="black" stroke-dasharray="5,2" d="M1986.8,-63.33C1797.75,-62.09 677.01,-53.32 338,-19 334.97,-18.69 331.84,-18.3 328.7,-17.86"/>
</g>
<!-- Gptp -->
<g id="node6" class="node">
<title>Gptp</title>
<g id="a_node6"><a xlink:href="inet.linklayer.ieee8021as.Gptp.html" xlink:title="Simple Module Gptp" target="_parent">
<polygon fill="#fffcaf" stroke="black" points="401,-19 347,-19 347,0 401,0 401,-19"/>
<text text-anchor="middle" x="374" y="-7" font-family="Helvetica,sans-Serif" font-size="10.00">Gptp</text>
</a>
</g>
</g>
<!-- IApp&#45;&gt;Gptp -->
<g id="edge5" class="edge">
<title>IApp&#45;&gt;Gptp</title>
<path fill="none" stroke="black" stroke-dasharray="5,2" d="M1986.78,-63.5C1802.27,-63.42 732.68,-61.12 410,-19 407.07,-18.62 404.03,-18.1 401.02,-17.5"/>
</g>
<!-- Ieee8022LlcApp -->
<g id="node7" class="node">
<title>Ieee8022LlcApp</title>
<g id="a_node7"><a xlink:href="inet.applications.ieee8022.Ieee8022LlcApp.html" xlink:title="Compound Module Ieee8022LlcApp" target="_parent">
<polygon fill="#fffcaf" stroke="black" points="513,-19 419,-19 419,0 513,0 513,-19"/>
<text text-anchor="middle" x="466" y="-7" font-family="Helvetica,sans-Serif" font-size="10.00">Ieee8022LlcApp</text>
</a>
</g>
</g>
<!-- IApp&#45;&gt;Ieee8022LlcApp -->
<g id="edge6" class="edge">
<title>IApp&#45;&gt;Ieee8022LlcApp</title>
<path fill="none" stroke="black" stroke-dasharray="5,2" d="M1986.75,-63.14C1809.85,-60.72 822.35,-46.17 522,-19 519.06,-18.73 516.04,-18.41 513,-18.06"/>
</g>
<!-- IpApp -->
<g id="node8" class="node">
<title>IpApp</title>
<g id="a_node8"><a xlink:href="inet.applications.ipapp.IpApp.html" xlink:title="Compound Module IpApp" target="_parent">
<polygon fill="#fffcaf" stroke="black" points="585,-19 531,-19 531,0 585,0 585,-19"/>
<text text-anchor="middle" x="558" y="-7" font-family="Helvetica,sans-Serif" font-size="10.00">IpApp</text>
</a>
</g>
</g>
<!-- IApp&#45;&gt;IpApp -->
<g id="edge7" class="edge">
<title>IApp&#45;&gt;IpApp</title>
<path fill="none" stroke="black" stroke-dasharray="5,2" d="M1986.93,-63.39C1815.43,-62.6 877.94,-56.58 594,-19 591.07,-18.61 588.03,-18.09 585.02,-17.49"/>
</g>
<!-- Ldp -->
<g id="node9" class="node">
<title>Ldp</title>
<g id="a_node9"><a xlink:href="inet.networklayer.ldp.Ldp.html" xlink:title="Simple Module Ldp" target="_parent">
<polygon fill="#fffcaf" stroke="black" points="657,-19 603,-19 603,0 657,0 657,-19"/>
<text text-anchor="middle" x="630" y="-7" font-family="Helvetica,sans-Serif" font-size="10.00">Ldp</text>
</a>
</g>
</g>
<!-- IApp&#45;&gt;Ldp -->
<g id="edge8" class="edge">
<title>IApp&#45;&gt;Ldp</title>
<path fill="none" stroke="black" stroke-dasharray="5,2" d="M1986.98,-63.34C1820.71,-62.25 934.81,-54.81 666,-19 663.07,-18.61 660.03,-18.09 657.02,-17.49"/>
</g>
<!-- MultiDomainGptp -->
<g id="node10" class="node">
<title>MultiDomainGptp</title>
<g id="a_node10"><a xlink:href="inet.linklayer.ieee8021as.MultiDomainGptp.html" xlink:title="Compound Module MultiDomainGptp" target="_parent">
<polygon fill="#fffcaf" stroke="black" points="778.5,-19 675.5,-19 675.5,0 778.5,0 778.5,-19"/>
<text text-anchor="middle" x="727" y="-7" font-family="Helvetica,sans-Serif" font-size="10.00">MultiDomainGptp</text>
</a>
</g>
</g>
<!-- IApp&#45;&gt;MultiDomainGptp -->
<g id="edge9" class="edge">
<title>IApp&#45;&gt;MultiDomainGptp</title>
<path fill="none" stroke="black" stroke-dasharray="5,2" d="M1986.75,-63.54C1854.58,-63.52 1266.99,-60.95 788,-19 784.91,-18.73 781.74,-18.41 778.54,-18.06"/>
</g>
<!-- NetPerfMeter -->
<g id="node11" class="node">
<title>NetPerfMeter</title>
<g id="a_node11"><a xlink:href="inet.applications.netperfmeter.NetPerfMeter.html" xlink:title="Simple Module NetPerfMeter" target="_parent">
<polygon fill="#fffcaf" stroke="black" points="879,-19 797,-19 797,0 879,0 879,-19"/>
<text text-anchor="middle" x="838" y="-7" font-family="Helvetica,sans-Serif" font-size="10.00">NetPerfMeter</text>
</a>
</g>
</g>
<!-- IApp&#45;&gt;NetPerfMeter -->
<g id="edge10" class="edge">
<title>IApp&#45;&gt;NetPerfMeter</title>
<path fill="none" stroke="black" stroke-dasharray="5,2" d="M1986.89,-63.71C1861.45,-64.44 1324.84,-64.57 888,-19 885.11,-18.7 882.13,-18.33 879.14,-17.93"/>
</g>
<!-- PingApp -->
<g id="node12" class="node">
<title>PingApp</title>
<g id="a_node12"><a xlink:href="inet.applications.pingapp.PingApp.html" xlink:title="Simple Module PingApp" target="_parent">
<polygon fill="#fffcaf" stroke="black" points="953,-19 897,-19 897,0 953,0 953,-19"/>
<text text-anchor="middle" x="925" y="-7" font-family="Helvetica,sans-Serif" font-size="10.00">PingApp</text>
</a>
</g>
</g>
<!-- IApp&#45;&gt;PingApp -->
<g id="edge11" class="edge">
<title>IApp&#45;&gt;PingApp</title>
<path fill="none" stroke="black" stroke-dasharray="5,2" d="M1986.88,-63.03C1843.11,-60.42 1168.75,-46.88 962,-19 959.13,-18.61 956.15,-18.11 953.18,-17.54"/>
</g>
<!-- Rip -->
<g id="node13" class="node">
<title>Rip</title>
<g id="a_node13"><a xlink:href="inet.routing.rip.Rip.html" xlink:title="Simple Module Rip" target="_parent">
<polygon fill="#fffcaf" stroke="black" points="1025,-19 971,-19 971,0 1025,0 1025,-19"/>
<text text-anchor="middle" x="998" y="-7" font-family="Helvetica,sans-Serif" font-size="10.00">Rip</text>
</a>
</g>
</g>
<!-- IApp&#45;&gt;Rip -->
<g id="edge12" class="edge">
<title>IApp&#45;&gt;Rip</title>
<path fill="none" stroke="black" stroke-dasharray="5,2" d="M1986.95,-62.95C1849.29,-60.07 1225.66,-45.74 1034,-19 1031.07,-18.59 1028.04,-18.06 1025.02,-17.45"/>
</g>
<!-- SctpClient -->
<g id="node14" class="node">
<title>SctpClient</title>
<g id="a_node14"><a xlink:href="inet.applications.sctpapp.SctpClient.html" xlink:title="Simple Module SctpClient" target="_parent">
<polygon fill="#fffcaf" stroke="black" points="1109,-19 1043,-19 1043,0 1109,0 1109,-19"/>
<text text-anchor="middle" x="1076" y="-7" font-family="Helvetica,sans-Serif" font-size="10.00">SctpClient</text>
</a>
</g>
</g>
<!-- IApp&#45;&gt;SctpClient -->
<g id="edge13" class="edge">
<title>IApp&#45;&gt;SctpClient</title>
<path fill="none" stroke="black" stroke-dasharray="5,2" d="M1986.75,-63.63C1877.24,-63.86 1458.76,-61.7 1118,-19 1115.19,-18.65 1112.3,-18.21 1109.4,-17.73"/>
</g>
<!-- SctpNatPeer -->
<g id="node15" class="node">
<title>SctpNatPeer</title>
<g id="a_node15"><a xlink:href="inet.applications.sctpapp.SctpNatPeer.html" xlink:title="Simple Module SctpNatPeer" target="_parent">
<polygon fill="#fffcaf" stroke="black" points="1204.5,-19 1127.5,-19 1127.5,0 1204.5,0 1204.5,-19"/>
<text text-anchor="middle" x="1166" y="-7" font-family="Helvetica,sans-Serif" font-size="10.00">SctpNatPeer</text>
</a>
</g>
</g>
<!-- IApp&#45;&gt;SctpNatPeer -->
<g id="edge14" class="edge">
<title>IApp&#45;&gt;SctpNatPeer</title>
<path fill="none" stroke="black" stroke-dasharray="5,2" d="M1986.97,-63.17C1885.24,-61.67 1515.92,-54 1214,-19 1210.97,-18.65 1207.85,-18.23 1204.71,-17.77"/>
</g>
<!-- SctpNatServer -->
<g id="node16" class="node">
<title>SctpNatServer</title>
<g id="a_node16"><a xlink:href="inet.applications.sctpapp.SctpNatServer.html" xlink:title="Simple Module SctpNatServer" target="_parent">
<polygon fill="#fffcaf" stroke="black" points="1309,-19 1223,-19 1223,0 1309,0 1309,-19"/>
<text text-anchor="middle" x="1266" y="-7" font-family="Helvetica,sans-Serif" font-size="10.00">SctpNatServer</text>
</a>
</g>
</g>
<!-- IApp&#45;&gt;SctpNatServer -->
<g id="edge15" class="edge">
<title>IApp&#45;&gt;SctpNatServer</title>
<path fill="none" stroke="black" stroke-dasharray="5,2" d="M1986.72,-62.72C1893.23,-59.84 1577.27,-48.41 1318,-19 1315.09,-18.67 1312.1,-18.29 1309.08,-17.88"/>
</g>
<!-- SctpPeer -->
<g id="node17" class="node">
<title>SctpPeer</title>
<g id="a_node17"><a xlink:href="inet.applications.sctpapp.SctpPeer.html" xlink:title="Simple Module SctpPeer" target="_parent">
<polygon fill="#fffcaf" stroke="black" points="1386.5,-19 1327.5,-19 1327.5,0 1386.5,0 1386.5,-19"/>
<text text-anchor="middle" x="1357" y="-7" font-family="Helvetica,sans-Serif" font-size="10.00">SctpPeer</text>
</a>
</g>
</g>
<!-- IApp&#45;&gt;SctpPeer -->
<g id="edge16" class="edge">
<title>IApp&#45;&gt;SctpPeer</title>
<path fill="none" stroke="black" stroke-dasharray="5,2" d="M1987,-62.99C1900.45,-61.04 1622.32,-52.41 1395,-19 1392.32,-18.61 1389.56,-18.13 1386.79,-17.6"/>
</g>
<!-- SctpServer -->
<g id="node18" class="node">
<title>SctpServer</title>
<g id="a_node18"><a xlink:href="inet.applications.sctpapp.SctpServer.html" xlink:title="Simple Module SctpServer" target="_parent">
<polygon fill="#fffcaf" stroke="black" points="1473.5,-19 1404.5,-19 1404.5,0 1473.5,0 1473.5,-19"/>
<text text-anchor="middle" x="1439" y="-7" font-family="Helvetica,sans-Serif" font-size="10.00">SctpServer</text>
</a>
</g>
</g>
<!-- IApp&#45;&gt;SctpServer -->
<g id="edge17" class="edge">
<title>IApp&#45;&gt;SctpServer</title>
<path fill="none" stroke="black" stroke-dasharray="5,2" d="M1986.81,-62.25C1908.36,-58.43 1674.99,-45.51 1483,-19 1479.92,-18.57 1476.72,-18.07 1473.53,-17.53"/>
</g>
<!-- SimpleClockSynchronizer -->
<g id="node19" class="node">
<title>SimpleClockSynchronizer</title>
<g id="a_node19"><a xlink:href="inet.applications.clock.SimpleClockSynchronizer.html" xlink:title="Simple Module SimpleClockSynchronizer" target="_parent">
<polygon fill="#fffcaf" stroke="black" points="1632,-19 1492,-19 1492,0 1632,0 1632,-19"/>
<text text-anchor="middle" x="1562" y="-7" font-family="Helvetica,sans-Serif" font-size="10.00">SimpleClockSynchronizer</text>
</a>
</g>
</g>
<!-- IApp&#45;&gt;SimpleClockSynchronizer -->
<g id="edge18" class="edge">
<title>IApp&#45;&gt;SimpleClockSynchronizer</title>
<path fill="none" stroke="black" stroke-dasharray="5,2" d="M1986.74,-60.3C1917.65,-52.2 1733.93,-30.66 1632.22,-18.73"/>
</g>
<!-- SimpleVoipReceiver -->
<g id="node20" class="node">
<title>SimpleVoipReceiver</title>
<g id="a_node20"><a xlink:href="inet.applications.voip.SimpleVoipReceiver.html" xlink:title="Simple Module SimpleVoipReceiver" target="_parent">
<polygon fill="#fffcaf" stroke="black" points="1764,-19 1650,-19 1650,0 1764,0 1764,-19"/>
<text text-anchor="middle" x="1707" y="-7" font-family="Helvetica,sans-Serif" font-size="10.00">SimpleVoipReceiver</text>
</a>
</g>
</g>
<!-- IApp&#45;&gt;SimpleVoipReceiver -->
<g id="edge19" class="edge">
<title>IApp&#45;&gt;SimpleVoipReceiver</title>
<path fill="none" stroke="black" stroke-dasharray="5,2" d="M1986.76,-58.8C1935.03,-49.87 1821.92,-30.34 1756.47,-19.04"/>
</g>
<!-- SimpleVoipSender -->
<g id="node21" class="node">
<title>SimpleVoipSender</title>
<g id="a_node21"><a xlink:href="inet.applications.voip.SimpleVoipSender.html" xlink:title="Simple Module SimpleVoipSender" target="_parent">
<polygon fill="#fffcaf" stroke="black" points="1887.5,-19 1782.5,-19 1782.5,0 1887.5,0 1887.5,-19"/>
<text text-anchor="middle" x="1835" y="-7" font-family="Helvetica,sans-Serif" font-size="10.00">SimpleVoipSender</text>
</a>
</g>
</g>
<!-- IApp&#45;&gt;SimpleVoipSender -->
<g id="edge20" class="edge">
<title>IApp&#45;&gt;SimpleVoipSender</title>
<path fill="none" stroke="black" stroke-dasharray="5,2" d="M1986.81,-55.45C1953.66,-45.63 1897.85,-29.11 1863.93,-19.07"/>
</g>
<!-- SinkApp -->
<g id="node22" class="node">
<title>SinkApp</title>
<g id="a_node22"><a xlink:href="inet.applications.common.SinkApp.html" xlink:title="Compound Module SinkApp" target="_parent">
<polygon fill="#fffcaf" stroke="black" points="1962,-19 1906,-19 1906,0 1962,0 1962,-19"/>
<text text-anchor="middle" x="1934" y="-7" font-family="Helvetica,sans-Serif" font-size="10.00">SinkApp</text>
</a>
</g>
</g>
<!-- IApp&#45;&gt;SinkApp -->
<g id="edge21" class="edge">
<title>IApp&#45;&gt;SinkApp</title>
<path fill="none" stroke="black" stroke-dasharray="5,2" d="M2001.15,-54.98C1986.31,-45.15 1962.03,-29.07 1947.09,-19.17"/>
</g>
<!-- SourceApp -->
<g id="node23" class="node">
<title>SourceApp</title>
<g id="a_node23"><a xlink:href="inet.applications.common.SourceApp.html" xlink:title="Compound Module SourceApp" target="_parent">
<polygon fill="#fffcaf" stroke="black" points="2048,-19 1980,-19 1980,0 2048,0 2048,-19"/>
<text text-anchor="middle" x="2014" y="-7" font-family="Helvetica,sans-Serif" font-size="10.00">SourceApp</text>
</a>
</g>
</g>
<!-- IApp&#45;&gt;SourceApp -->
<g id="edge22" class="edge">
<title>IApp&#45;&gt;SourceApp</title>
<path fill="none" stroke="black" stroke-dasharray="5,2" d="M2014,-54.75C2014,-44.87 2014,-28.9 2014,-19.09"/>
</g>
<!-- TcpBasicClientApp -->
<g id="node24" class="node">
<title>TcpBasicClientApp</title>
<g id="a_node24"><a xlink:href="inet.applications.tcpapp.TcpBasicClientApp.html" xlink:title="Simple Module TcpBasicClientApp" target="_parent">
<polygon fill="#fffcaf" stroke="black" points="2172,-19 2066,-19 2066,0 2172,0 2172,-19"/>
<text text-anchor="middle" x="2119" y="-7" font-family="Helvetica,sans-Serif" font-size="10.00">TcpBasicClientApp</text>
</a>
</g>
</g>
<!-- IApp&#45;&gt;TcpBasicClientApp -->
<g id="edge23" class="edge">
<title>IApp&#45;&gt;TcpBasicClientApp</title>
<path fill="none" stroke="black" stroke-dasharray="5,2" d="M2030.87,-54.98C2050.35,-45.15 2082.22,-29.07 2101.82,-19.17"/>
</g>
<!-- TcpClientApp -->
<g id="node25" class="node">
<title>TcpClientApp</title>
<g id="a_node25"><a xlink:href="inet.applications.tcpapp.TcpClientApp.html" xlink:title="Compound Module TcpClientApp" target="_parent">
<polygon fill="#fffcaf" stroke="black" points="2270,-19 2190,-19 2190,0 2270,0 2270,-19"/>
<text text-anchor="middle" x="2230" y="-7" font-family="Helvetica,sans-Serif" font-size="10.00">TcpClientApp</text>
</a>
</g>
</g>
<!-- IApp&#45;&gt;TcpClientApp -->
<g id="edge24" class="edge">
<title>IApp&#45;&gt;TcpClientApp</title>
<path fill="none" stroke="black" stroke-dasharray="5,2" d="M2041.36,-56.79C2080.41,-47.21 2152.14,-29.6 2195.01,-19.09"/>
</g>
<!-- TcpGenericServerApp -->
<g id="node26" class="node">
<title>TcpGenericServerApp</title>
<g id="a_node26"><a xlink:href="inet.applications.tcpapp.TcpGenericServerApp.html" xlink:title="Simple Module TcpGenericServerApp" target="_parent">
<polygon fill="#fffcaf" stroke="black" points="2408,-19 2288,-19 2288,0 2408,0 2408,-19"/>
<text text-anchor="middle" x="2348" y="-7" font-family="Helvetica,sans-Serif" font-size="10.00">TcpGenericServerApp</text>
</a>
</g>
</g>
<!-- IApp&#45;&gt;TcpGenericServerApp -->
<g id="edge25" class="edge">
<title>IApp&#45;&gt;TcpGenericServerApp</title>
<path fill="none" stroke="black" stroke-dasharray="5,2" d="M2041.05,-59.21C2096.1,-50.47 2222.07,-30.48 2294.36,-19.01"/>
</g>
<!-- TcpServerApp -->
<g id="node27" class="node">
<title>TcpServerApp</title>
<g id="a_node27"><a xlink:href="inet.applications.tcpapp.TcpServerApp.html" xlink:title="Compound Module TcpServerApp" target="_parent">
<polygon fill="#fffcaf" stroke="black" points="2509.5,-19 2426.5,-19 2426.5,0 2509.5,0 2509.5,-19"/>
<text text-anchor="middle" x="2468" y="-7" font-family="Helvetica,sans-Serif" font-size="10.00">TcpServerApp</text>
</a>
</g>
</g>
<!-- IApp&#45;&gt;TcpServerApp -->
<g id="edge26" class="edge">
<title>IApp&#45;&gt;TcpServerApp</title>
<path fill="none" stroke="black" stroke-dasharray="5,2" d="M2041.43,-61C2106.67,-54.93 2276.15,-38.5 2417,-19 2420.02,-18.58 2423.14,-18.12 2426.28,-17.65"/>
</g>
<!-- TcpServerConnection -->
<g id="node28" class="node">
<title>TcpServerConnection</title>
<g id="a_node28"><a xlink:href="inet.applications.tcpapp.TcpServerConnection.html" xlink:title="Compound Module TcpServerConnection" target="_parent">
<polygon fill="#fffcaf" stroke="black" points="2646.5,-19 2527.5,-19 2527.5,0 2646.5,0 2646.5,-19"/>
<text text-anchor="middle" x="2587" y="-7" font-family="Helvetica,sans-Serif" font-size="10.00">TcpServerConnection</text>
</a>
</g>
</g>
<!-- IApp&#45;&gt;TcpServerConnection -->
<g id="edge27" class="edge">
<title>IApp&#45;&gt;TcpServerConnection</title>
<path fill="none" stroke="black" stroke-dasharray="5,2" d="M2041.13,-61.46C2116.83,-55.69 2336.74,-38.41 2519,-19 2521.72,-18.71 2524.5,-18.4 2527.31,-18.09"/>
</g>
<!-- TcpServerHostApp -->
<g id="node29" class="node">
<title>TcpServerHostApp</title>
<g id="a_node29"><a xlink:href="inet.applications.tcpapp.TcpServerHostApp.html" xlink:title="Simple Module TcpServerHostApp" target="_parent">
<polygon fill="#fffcaf" stroke="black" points="2769.5,-19 2664.5,-19 2664.5,0 2769.5,0 2769.5,-19"/>
<text text-anchor="middle" x="2717" y="-7" font-family="Helvetica,sans-Serif" font-size="10.00">TcpServerHostApp</text>
</a>
</g>
</g>
<!-- IApp&#45;&gt;TcpServerHostApp -->
<g id="edge28" class="edge">
<title>IApp&#45;&gt;TcpServerHostApp</title>
<path fill="none" stroke="black" stroke-dasharray="5,2" d="M2041.28,-62.29C2130.02,-58.19 2418.47,-43.75 2656,-19 2658.77,-18.71 2661.6,-18.39 2664.46,-18.06"/>
</g>
<!-- TcpServerListener -->
<g id="node30" class="node">
<title>TcpServerListener</title>
<g id="a_node30"><a xlink:href="inet.applications.tcpapp.TcpServerListener.html" xlink:title="Simple Module TcpServerListener" target="_parent">
<polygon fill="#fffcaf" stroke="black" points="2890.5,-19 2787.5,-19 2787.5,0 2890.5,0 2890.5,-19"/>
<text text-anchor="middle" x="2839" y="-7" font-family="Helvetica,sans-Serif" font-size="10.00">TcpServerListener</text>
</a>
</g>
</g>
<!-- IApp&#45;&gt;TcpServerListener -->
<g id="edge29" class="edge">
<title>IApp&#45;&gt;TcpServerListener</title>
<path fill="none" stroke="black" stroke-dasharray="5,2" d="M2041.17,-62.73C2140.19,-59.76 2491.07,-47.72 2779,-19 2781.72,-18.73 2784.51,-18.42 2787.32,-18.1"/>
</g>
<!-- TcpSessionApp -->
<g id="node31" class="node">
<title>TcpSessionApp</title>
<g id="a_node31"><a xlink:href="inet.applications.tcpapp.TcpSessionApp.html" xlink:title="Simple Module TcpSessionApp" target="_parent">
<polygon fill="#fffcaf" stroke="black" points="2997.5,-19 2908.5,-19 2908.5,0 2997.5,0 2997.5,-19"/>
<text text-anchor="middle" x="2953" y="-7" font-family="Helvetica,sans-Serif" font-size="10.00">TcpSessionApp</text>
</a>
</g>
</g>
<!-- IApp&#45;&gt;TcpSessionApp -->
<g id="edge30" class="edge">
<title>IApp&#45;&gt;TcpSessionApp</title>
<path fill="none" stroke="black" stroke-dasharray="5,2" d="M2041.27,-63.21C2149.95,-61.83 2562.64,-54.42 2900,-19 2902.69,-18.72 2905.45,-18.39 2908.23,-18.03"/>
</g>
<!-- TelnetApp -->
<g id="node32" class="node">
<title>TelnetApp</title>
<g id="a_node32"><a xlink:href="inet.applications.tcpapp.TelnetApp.html" xlink:title="Simple Module TelnetApp" target="_parent">
<polygon fill="#fffcaf" stroke="black" points="3080.5,-19 3015.5,-19 3015.5,0 3080.5,0 3080.5,-19"/>
<text text-anchor="middle" x="3048" y="-7" font-family="Helvetica,sans-Serif" font-size="10.00">TelnetApp</text>
</a>
</g>
</g>
<!-- IApp&#45;&gt;TelnetApp -->
<g id="edge31" class="edge">
<title>IApp&#45;&gt;TelnetApp</title>
<path fill="none" stroke="black" stroke-dasharray="5,2" d="M2041.38,-63.87C2158.22,-65.11 2626.44,-66.67 3007,-19 3009.74,-18.66 3012.57,-18.23 3015.4,-17.75"/>
</g>
<!-- TelnetClientApp -->
<g id="node33" class="node">
<title>TelnetClientApp</title>
<g id="a_node33"><a xlink:href="inet.applications.tcpapp.TelnetClientApp.html" xlink:title="Compound Module TelnetClientApp" target="_parent">
<polygon fill="#fffcaf" stroke="black" points="3191.5,-19 3098.5,-19 3098.5,0 3191.5,0 3191.5,-19"/>
<text text-anchor="middle" x="3145" y="-7" font-family="Helvetica,sans-Serif" font-size="10.00">TelnetClientApp</text>
</a>
</g>
</g>
<!-- IApp&#45;&gt;TelnetClientApp -->
<g id="edge32" class="edge">
<title>IApp&#45;&gt;TelnetClientApp</title>
<path fill="none" stroke="black" stroke-dasharray="5,2" d="M2041.1,-63.49C2163.12,-63.24 2673.65,-59.65 3090,-19 3092.69,-18.74 3095.45,-18.43 3098.24,-18.09"/>
</g>
<!-- TelnetServerConnection -->
<g id="node34" class="node">
<title>TelnetServerConnection</title>
<g id="a_node34"><a xlink:href="inet.applications.tcpapp.TelnetServerConnection.html" xlink:title="Compound Module TelnetServerConnection" target="_parent">
<polygon fill="#fffcaf" stroke="black" points="3342,-19 3210,-19 3210,0 3342,0 3342,-19"/>
<text text-anchor="middle" x="3276" y="-7" font-family="Helvetica,sans-Serif" font-size="10.00">TelnetServerConnection</text>
</a>
</g>
</g>
<!-- IApp&#45;&gt;TelnetServerConnection -->
<g id="edge33" class="edge">
<title>IApp&#45;&gt;TelnetServerConnection</title>
<path fill="none" stroke="black" stroke-dasharray="5,2" d="M2041.21,-63.24C2170.76,-61.83 2737.8,-53.88 3201,-19 3203.87,-18.78 3206.81,-18.54 3209.77,-18.28"/>
</g>
<!-- TunLoopbackApp -->
<g id="node35" class="node">
<title>TunLoopbackApp</title>
<g id="a_node35"><a xlink:href="inet.applications.tunapp.TunLoopbackApp.html" xlink:title="Simple Module TunLoopbackApp" target="_parent">
<polygon fill="#fffcaf" stroke="black" points="3458,-19 3360,-19 3360,0 3458,0 3458,-19"/>
<text text-anchor="middle" x="3409" y="-7" font-family="Helvetica,sans-Serif" font-size="10.00">TunLoopbackApp</text>
</a>
</g>
</g>
<!-- IApp&#45;&gt;TunLoopbackApp -->
<g id="edge34" class="edge">
<title>IApp&#45;&gt;TunLoopbackApp</title>
<path fill="none" stroke="black" stroke-dasharray="5,2" d="M2041.37,-63.73C2180.79,-64.65 2825.91,-66.07 3351,-19 3353.94,-18.74 3356.96,-18.42 3360,-18.08"/>
</g>
<!-- TunnelApp -->
<g id="node36" class="node">
<title>TunnelApp</title>
<g id="a_node36"><a xlink:href="inet.applications.tunapp.TunnelApp.html" xlink:title="Simple Module TunnelApp" target="_parent">
<polygon fill="#fffcaf" stroke="black" points="3543.5,-19 3476.5,-19 3476.5,0 3543.5,0 3543.5,-19"/>
<text text-anchor="middle" x="3510" y="-7" font-family="Helvetica,sans-Serif" font-size="10.00">TunnelApp</text>
</a>
</g>
</g>
<!-- IApp&#45;&gt;TunnelApp -->
<g id="edge35" class="edge">
<title>IApp&#45;&gt;TunnelApp</title>
<path fill="none" stroke="black" stroke-dasharray="5,2" d="M2041.11,-63.28C2215,-61.77 3175.48,-52.05 3467,-19 3470.02,-18.66 3473.15,-18.21 3476.28,-17.71"/>
</g>
<!-- UdpApp -->
<g id="node37" class="node">
<title>UdpApp</title>
<g id="a_node37"><a xlink:href="inet.applications.udpapp.UdpApp.html" xlink:title="Compound Module UdpApp" target="_parent">
<polygon fill="#fffcaf" stroke="black" points="3616.5,-19 3561.5,-19 3561.5,0 3616.5,0 3616.5,-19"/>
<text text-anchor="middle" x="3589" y="-7" font-family="Helvetica,sans-Serif" font-size="10.00">UdpApp</text>
</a>
</g>
</g>
<!-- IApp&#45;&gt;UdpApp -->
<g id="edge36" class="edge">
<title>IApp&#45;&gt;UdpApp</title>
<path fill="none" stroke="black" stroke-dasharray="5,2" d="M2041.27,-63.47C2221.54,-63.14 3244.07,-59.51 3553,-19 3555.67,-18.65 3558.44,-18.18 3561.2,-17.65"/>
</g>
<!-- UdpBasicApp -->
<g id="node38" class="node">
<title>UdpBasicApp</title>
<g id="a_node38"><a xlink:href="inet.applications.udpapp.UdpBasicApp.html" xlink:title="Simple Module UdpBasicApp" target="_parent">
<polygon fill="#fffcaf" stroke="black" points="3715.5,-19 3634.5,-19 3634.5,0 3715.5,0 3715.5,-19"/>
<text text-anchor="middle" x="3675" y="-7" font-family="Helvetica,sans-Serif" font-size="10.00">UdpBasicApp</text>
</a>
</g>
</g>
<!-- IApp&#45;&gt;UdpBasicApp -->
<g id="edge37" class="edge">
<title>IApp&#45;&gt;UdpBasicApp</title>
<path fill="none" stroke="black" stroke-dasharray="5,2" d="M2041.04,-63.29C2225.44,-61.76 3300.41,-51.56 3626,-19 3628.75,-18.73 3631.58,-18.39 3634.42,-18"/>
</g>
<!-- UdpBasicBurst -->
<g id="node39" class="node">
<title>UdpBasicBurst</title>
<g id="a_node39"><a xlink:href="inet.applications.udpapp.UdpBasicBurst.html" xlink:title="Simple Module UdpBasicBurst" target="_parent">
<polygon fill="#fffcaf" stroke="black" points="3822,-19 3734,-19 3734,0 3822,0 3822,-19"/>
<text text-anchor="middle" x="3778" y="-7" font-family="Helvetica,sans-Serif" font-size="10.00">UdpBasicBurst</text>
</a>
</g>
</g>
<!-- IApp&#45;&gt;UdpBasicBurst -->
<g id="edge38" class="edge">
<title>IApp&#45;&gt;UdpBasicBurst</title>
<path fill="none" stroke="black" stroke-dasharray="5,2" d="M2041.14,-63.29C2232.28,-61.73 3378.27,-51.17 3725,-19 3727.88,-18.73 3730.83,-18.41 3733.81,-18.04"/>
</g>
<!-- UdpEchoApp -->
<g id="node40" class="node">
<title>UdpEchoApp</title>
<g id="a_node40"><a xlink:href="inet.applications.udpapp.UdpEchoApp.html" xlink:title="Simple Module UdpEchoApp" target="_parent">
<polygon fill="#fffcaf" stroke="black" points="3918,-19 3840,-19 3840,0 3918,0 3918,-19"/>
<text text-anchor="middle" x="3879" y="-7" font-family="Helvetica,sans-Serif" font-size="10.00">UdpEchoApp</text>
</a>
</g>
</g>
<!-- IApp&#45;&gt;UdpEchoApp -->
<g id="edge39" class="edge">
<title>IApp&#45;&gt;UdpEchoApp</title>
<path fill="none" stroke="black" stroke-dasharray="5,2" d="M2041.23,-63.4C2239.35,-62.56 3462.08,-55.97 3831,-19 3833.86,-18.71 3836.81,-18.35 3839.77,-17.94"/>
</g>
<!-- UdpSink -->
<g id="node41" class="node">
<title>UdpSink</title>
<g id="a_node41"><a xlink:href="inet.applications.udpapp.UdpSink.html" xlink:title="Simple Module UdpSink" target="_parent">
<polygon fill="#fffcaf" stroke="black" points="3993.5,-19 3936.5,-19 3936.5,0 3993.5,0 3993.5,-19"/>
<text text-anchor="middle" x="3965" y="-7" font-family="Helvetica,sans-Serif" font-size="10.00">UdpSink</text>
</a>
</g>
</g>
<!-- IApp&#45;&gt;UdpSink -->
<g id="edge40" class="edge">
<title>IApp&#45;&gt;UdpSink</title>
<path fill="none" stroke="black" stroke-dasharray="5,2" d="M2041.04,-63.6C2244.55,-64.26 3538.51,-66.5 3927,-19 3930.09,-18.62 3933.29,-18.11 3936.47,-17.51"/>
</g>
<!-- UdpVideoStreamClient -->
<g id="node42" class="node">
<title>UdpVideoStreamClient</title>
<g id="a_node42"><a xlink:href="inet.applications.udpapp.UdpVideoStreamClient.html" xlink:title="Simple Module UdpVideoStreamClient" target="_parent">
<polygon fill="#fffcaf" stroke="black" points="4140,-19 4012,-19 4012,0 4140,0 4140,-19"/>
<text text-anchor="middle" x="4076" y="-7" font-family="Helvetica,sans-Serif" font-size="10.00">UdpVideoStreamClient</text>
</a>
</g>
</g>
<!-- IApp&#45;&gt;UdpVideoStreamClient -->
<g id="edge41" class="edge">
<title>IApp&#45;&gt;UdpVideoStreamClient</title>
<path fill="none" stroke="black" stroke-dasharray="5,2" d="M2041.08,-63.24C2249.11,-61.22 3596.4,-47.16 4003,-19 4005.93,-18.8 4008.92,-18.56 4011.94,-18.3"/>
</g>
<!-- UdpVideoStreamServer -->
<g id="node43" class="node">
<title>UdpVideoStreamServer</title>
<g id="a_node43"><a xlink:href="inet.applications.udpapp.UdpVideoStreamServer.html" xlink:title="Simple Module UdpVideoStreamServer" target="_parent">
<polygon fill="#fffcaf" stroke="black" points="4289.5,-19 4158.5,-19 4158.5,0 4289.5,0 4289.5,-19"/>
<text text-anchor="middle" x="4224" y="-7" font-family="Helvetica,sans-Serif" font-size="10.00">UdpVideoStreamServer</text>
</a>
</g>
</g>
<!-- IApp&#45;&gt;UdpVideoStreamServer -->
<g id="edge42" class="edge">
<title>IApp&#45;&gt;UdpVideoStreamServer</title>
<path fill="none" stroke="black" stroke-dasharray="5,2" d="M2041.32,-63.28C2258.69,-61.45 3711.35,-48.3 4149,-19 4152.01,-18.8 4155.08,-18.56 4158.18,-18.31"/>
</g>
<!-- IBgp -->
<g id="node44" class="node">
<title>IBgp</title>
<g id="a_node44"><a xlink:href="inet.routing.contract.IBgp.html" xlink:title="Module Interface IBgp" target="_parent">
<polygon fill="#fffcaf" stroke="black" stroke-dasharray="5,2" points="4362,-19 4308,-19 4308,0 4362,0 4362,-19"/>
<text text-anchor="middle" x="4335" y="-7" font-family="Helvetica,sans-Serif" font-size="10.00">IBgp</text>
</a>
</g>
</g>
<!-- IApp&#45;&gt;IBgp -->
<g id="edge43" class="edge">
<title>IApp&#45;&gt;IBgp</title>
<path fill="none" stroke="black" d="M2041.28,-63.32C2283.63,-61.68 4064.29,-48.65 4299,-19 4301.93,-18.63 4304.97,-18.12 4307.99,-17.53"/>
</g>
</g>
</svg>
