<?xml version="1.0" encoding="UTF-8" standalone="no"?>
<!DOCTYPE svg PUBLIC "-//W3C//DTD SVG 1.1//EN"
 "http://www.w3.org/Graphics/SVG/1.1/DTD/svg11.dtd">
<!-- Generated by graphviz version 2.43.0 (0)
 -->
<!-- Title: opp Pages: 1 -->
<svg width="567pt" height="82pt"
 viewBox="0.00 0.00 567.00 82.00" xmlns="http://www.w3.org/2000/svg" xmlns:xlink="http://www.w3.org/1999/xlink">
<g id="graph0" class="graph" transform="scale(1 1) rotate(0) translate(4 78)">
<title>opp</title>
<polygon fill="transparent" stroke="transparent" points="-4,4 -4,-78 563,-78 563,4 -4,4"/>
<!-- DataLinkVisualizerFilteringShowcase -->
<g id="node1" class="node">
<title>DataLinkVisualizerFilteringShowcase</title>
<g id="a_node1"><a xlink:href="inet.showcases.visualizer.canvas.datalinkactivity.DataLinkVisualizerFilteringShowcase.html" xlink:title="Network DataLinkVisualizerFilteringShowcase" target="_parent">
<polygon fill="#9090ff" stroke="black" points="402,-74 205,-74 205,-55 402,-55 402,-74"/>
<text text-anchor="middle" x="303.5" y="-62" font-family="Helvetica,sans-Serif" font-size="10.00">DataLinkVisualizerFilteringShowcase</text>
</a>
</g>
</g>
<!-- IntegratedVisualizer -->
<g id="node2" class="node">
<title>IntegratedVisualizer</title>
<g id="a_node2"><a xlink:href="inet.visualizer.common.IntegratedVisualizer.html" xlink:title="Compound Module IntegratedVisualizer" target="_parent">
<polygon fill="#fffcaf" stroke="black" points="115,-19 0,-19 0,0 115,0 115,-19"/>
<text text-anchor="middle" x="57.5" y="-7" font-family="Helvetica,sans-Serif" font-size="10.00">IntegratedVisualizer</text>
</a>
</g>
</g>
<!-- DataLinkVisualizerFilteringShowcase&#45;&gt;IntegratedVisualizer -->
<g id="edge1" class="edge">
<title>DataLinkVisualizerFilteringShowcase&#45;&gt;IntegratedVisualizer</title>
<path fill="none" stroke="black" d="M263.98,-54.98C221.33,-45.8 153.35,-31.15 107.14,-21.19"/>
<polygon fill="black" stroke="black" points="107.85,-17.77 97.33,-19.08 106.37,-24.61 107.85,-17.77"/>
</g>
<!-- StandardHost -->
<g id="node3" class="node">
<title>StandardHost</title>
<g id="a_node3"><a xlink:href="inet.node.inet.StandardHost.html" xlink:title="Compound Module StandardHost" target="_parent">
<polygon fill="#fffcaf" stroke="black" points="216,-19 133,-19 133,0 216,0 216,-19"/>
<text text-anchor="middle" x="174.5" y="-7" font-family="Helvetica,sans-Serif" font-size="10.00">StandardHost</text>
</a>
</g>
</g>
<!-- DataLinkVisualizerFilteringShowcase&#45;&gt;StandardHost -->
<g id="edge2" class="edge">
<title>DataLinkVisualizerFilteringShowcase&#45;&gt;StandardHost</title>
<path fill="none" stroke="black" d="M282.77,-54.98C261.74,-46.34 228.95,-32.87 204.96,-23.02"/>
<polygon fill="black" stroke="black" points="206.18,-19.73 195.6,-19.17 203.52,-26.21 206.18,-19.73"/>
</g>
<!-- Ipv4NetworkConfigurator -->
<g id="node4" class="node">
<title>Ipv4NetworkConfigurator</title>
<g id="a_node4"><a xlink:href="inet.networklayer.configurator.ipv4.Ipv4NetworkConfigurator.html" xlink:title="Simple Module Ipv4NetworkConfigurator" target="_parent">
<polygon fill="#fffcaf" stroke="black" points="373,-19 234,-19 234,0 373,0 373,-19"/>
<text text-anchor="middle" x="303.5" y="-7" font-family="Helvetica,sans-Serif" font-size="10.00">Ipv4NetworkConfigurator</text>
</a>
</g>
</g>
<!-- DataLinkVisualizerFilteringShowcase&#45;&gt;Ipv4NetworkConfigurator -->
<g id="edge3" class="edge">
<title>DataLinkVisualizerFilteringShowcase&#45;&gt;Ipv4NetworkConfigurator</title>
<path fill="none" stroke="black" d="M303.5,-54.75C303.5,-47.8 303.5,-37.85 303.5,-29.13"/>
<polygon fill="black" stroke="black" points="307,-29.09 303.5,-19.09 300,-29.09 307,-29.09"/>
</g>
<!-- EthernetSwitch -->
<g id="node5" class="node">
<title>EthernetSwitch</title>
<g id="a_node5"><a xlink:href="inet.node.ethernet.EthernetSwitch.html" xlink:title="Compound Module EthernetSwitch" target="_parent">
<polygon fill="#fffcaf" stroke="black" points="481.5,-19 391.5,-19 391.5,0 481.5,0 481.5,-19"/>
<text text-anchor="middle" x="436.5" y="-7" font-family="Helvetica,sans-Serif" font-size="10.00">EthernetSwitch</text>
</a>
</g>
</g>
<!-- DataLinkVisualizerFilteringShowcase&#45;&gt;EthernetSwitch -->
<g id="edge4" class="edge">
<title>DataLinkVisualizerFilteringShowcase&#45;&gt;EthernetSwitch</title>
<path fill="none" stroke="black" d="M324.87,-54.98C346.65,-46.3 380.66,-32.75 405.42,-22.88"/>
<polygon fill="black" stroke="black" points="406.75,-26.12 414.74,-19.17 404.16,-19.62 406.75,-26.12"/>
</g>
<!-- Eth100M -->
<g id="node6" class="node">
<title>Eth100M</title>
<g id="a_node6"><a xlink:href="inet.node.ethernet.Eth100M.html" xlink:title="Channel Eth100M" target="_parent">
<polygon fill="#d0ffd0" stroke="black" points="559,-19 500,-19 500,0 559,0 559,-19"/>
<text text-anchor="middle" x="529.5" y="-7" font-family="Helvetica,sans-Serif" font-size="10.00">Eth100M</text>
</a>
</g>
</g>
<!-- DataLinkVisualizerFilteringShowcase&#45;&gt;Eth100M -->
<g id="edge5" class="edge">
<title>DataLinkVisualizerFilteringShowcase&#45;&gt;Eth100M</title>
<path fill="none" stroke="black" d="M339.81,-54.98C380.85,-45.36 447.43,-29.75 489.81,-19.81"/>
<polygon fill="black" stroke="black" points="490.84,-23.16 499.77,-17.47 489.24,-16.35 490.84,-23.16"/>
</g>
</g>
</svg>
