<?xml version="1.0" encoding="UTF-8" standalone="no"?>
<!DOCTYPE svg PUBLIC "-//W3C//DTD SVG 1.1//EN"
 "http://www.w3.org/Graphics/SVG/1.1/DTD/svg11.dtd">
<!-- Generated by graphviz version 2.43.0 (0)
 -->
<!-- Title: opp Pages: 1 -->
<svg width="214pt" height="82pt"
 viewBox="0.00 0.00 213.50 82.00" xmlns="http://www.w3.org/2000/svg" xmlns:xlink="http://www.w3.org/1999/xlink">
<g id="graph0" class="graph" transform="scale(1 1) rotate(0) translate(4 78)">
<title>opp</title>
<polygon fill="transparent" stroke="transparent" points="-4,4 -4,-78 209.5,-78 209.5,4 -4,4"/>
<!-- InstantServer -->
<g id="node1" class="node">
<title>InstantServer</title>
<g id="a_node1"><a xlink:href="inet.queueing.server.InstantServer.html" xlink:title="Simple Module InstantServer" target="_parent">
<polygon fill="#fff700" stroke="black" points="149,-19 67,-19 67,0 149,0 149,-19"/>
<text text-anchor="middle" x="108" y="-7" font-family="Helvetica,sans-Serif" font-size="10.00">InstantServer</text>
</a>
</g>
</g>
<!-- PacketServerBase -->
<g id="node2" class="node">
<title>PacketServerBase</title>
<g id="a_node2"><a xlink:href="inet.queueing.base.PacketServerBase.html" xlink:title="Simple Module PacketServerBase" target="_parent">
<polygon fill="#fffcaf" stroke="black" points="104,-74 0,-74 0,-55 104,-55 104,-74"/>
<text text-anchor="middle" x="52" y="-62" font-family="Helvetica,sans-Serif" font-size="10.00">PacketServerBase</text>
</a>
</g>
</g>
<!-- PacketServerBase&#45;&gt;InstantServer -->
<g id="edge1" class="edge">
<title>PacketServerBase&#45;&gt;InstantServer</title>
<path fill="none" stroke="black" d="M61,-54.98C71.39,-45.15 88.38,-29.07 98.84,-19.17"/>
</g>
<!-- IPacketServer -->
<g id="node3" class="node">
<title>IPacketServer</title>
<g id="a_node3"><a xlink:href="inet.queueing.contract.IPacketServer.html" xlink:title="Module Interface IPacketServer" target="_parent">
<polygon fill="#fffcaf" stroke="black" stroke-dasharray="5,2" points="205.5,-74 122.5,-74 122.5,-55 205.5,-55 205.5,-74"/>
<text text-anchor="middle" x="164" y="-62" font-family="Helvetica,sans-Serif" font-size="10.00">IPacketServer</text>
</a>
</g>
</g>
<!-- IPacketServer&#45;&gt;InstantServer -->
<g id="edge2" class="edge">
<title>IPacketServer&#45;&gt;InstantServer</title>
<path fill="none" stroke="black" stroke-dasharray="5,2" d="M155,-54.98C144.61,-45.15 127.62,-29.07 117.16,-19.17"/>
</g>
</g>
</svg>
