<?xml version="1.0" encoding="UTF-8" standalone="no"?>
<!DOCTYPE svg PUBLIC "-//W3C//DTD SVG 1.1//EN"
 "http://www.w3.org/Graphics/SVG/1.1/DTD/svg11.dtd">
<!-- Generated by graphviz version 2.43.0 (0)
 -->
<!-- Title: opp Pages: 1 -->
<svg width="430pt" height="82pt"
 viewBox="0.00 0.00 429.50 82.00" xmlns="http://www.w3.org/2000/svg" xmlns:xlink="http://www.w3.org/1999/xlink">
<g id="graph0" class="graph" transform="scale(1 1) rotate(0) translate(4 78)">
<title>opp</title>
<polygon fill="transparent" stroke="transparent" points="-4,4 -4,-78 425.5,-78 425.5,4 -4,4"/>
<!-- WiredNetWithDHCP -->
<g id="node1" class="node">
<title>WiredNetWithDHCP</title>
<g id="a_node1"><a xlink:href="inet.examples.dhcp.WiredNetWithDHCP.html" xlink:title="Network WiredNetWithDHCP" target="_parent">
<polygon fill="#9090ff" stroke="black" points="269,-74 156,-74 156,-55 269,-55 269,-74"/>
<text text-anchor="middle" x="212.5" y="-62" font-family="Helvetica,sans-Serif" font-size="10.00">WiredNetWithDHCP</text>
</a>
</g>
</g>
<!-- StandardHost -->
<g id="node2" class="node">
<title>StandardHost</title>
<g id="a_node2"><a xlink:href="inet.node.inet.StandardHost.html" xlink:title="Compound Module StandardHost" target="_parent">
<polygon fill="#fffcaf" stroke="black" points="83,-19 0,-19 0,0 83,0 83,-19"/>
<text text-anchor="middle" x="41.5" y="-7" font-family="Helvetica,sans-Serif" font-size="10.00">StandardHost</text>
</a>
</g>
</g>
<!-- WiredNetWithDHCP&#45;&gt;StandardHost -->
<g id="edge1" class="edge">
<title>WiredNetWithDHCP&#45;&gt;StandardHost</title>
<path fill="none" stroke="black" d="M185.03,-54.98C156.32,-46.09 111.08,-32.07 79.08,-22.15"/>
<polygon fill="black" stroke="black" points="79.78,-18.7 69.19,-19.08 77.7,-25.39 79.78,-18.7"/>
</g>
<!-- EthernetSwitch -->
<g id="node3" class="node">
<title>EthernetSwitch</title>
<g id="a_node3"><a xlink:href="inet.node.ethernet.EthernetSwitch.html" xlink:title="Compound Module EthernetSwitch" target="_parent">
<polygon fill="#fffcaf" stroke="black" points="191.5,-19 101.5,-19 101.5,0 191.5,0 191.5,-19"/>
<text text-anchor="middle" x="146.5" y="-7" font-family="Helvetica,sans-Serif" font-size="10.00">EthernetSwitch</text>
</a>
</g>
</g>
<!-- WiredNetWithDHCP&#45;&gt;EthernetSwitch -->
<g id="edge2" class="edge">
<title>WiredNetWithDHCP&#45;&gt;EthernetSwitch</title>
<path fill="none" stroke="black" d="M201.9,-54.98C192.04,-47.07 177.15,-35.11 165.28,-25.58"/>
<polygon fill="black" stroke="black" points="167.29,-22.7 157.3,-19.17 162.9,-28.16 167.29,-22.7"/>
</g>
<!-- Ipv4NetworkConfigurator -->
<g id="node4" class="node">
<title>Ipv4NetworkConfigurator</title>
<g id="a_node4"><a xlink:href="inet.networklayer.configurator.ipv4.Ipv4NetworkConfigurator.html" xlink:title="Simple Module Ipv4NetworkConfigurator" target="_parent">
<polygon fill="#fffcaf" stroke="black" points="349,-19 210,-19 210,0 349,0 349,-19"/>
<text text-anchor="middle" x="279.5" y="-7" font-family="Helvetica,sans-Serif" font-size="10.00">Ipv4NetworkConfigurator</text>
</a>
</g>
</g>
<!-- WiredNetWithDHCP&#45;&gt;Ipv4NetworkConfigurator -->
<g id="edge3" class="edge">
<title>WiredNetWithDHCP&#45;&gt;Ipv4NetworkConfigurator</title>
<path fill="none" stroke="black" d="M223.26,-54.98C233.27,-47.07 248.39,-35.11 260.43,-25.58"/>
<polygon fill="black" stroke="black" points="262.87,-28.12 268.54,-19.17 258.53,-22.63 262.87,-28.12"/>
</g>
<!-- Eth10M -->
<g id="node5" class="node">
<title>Eth10M</title>
<g id="a_node5"><a xlink:href="inet.node.ethernet.Eth10M.html" xlink:title="Channel Eth10M" target="_parent">
<polygon fill="#d0ffd0" stroke="black" points="421.5,-19 367.5,-19 367.5,0 421.5,0 421.5,-19"/>
<text text-anchor="middle" x="394.5" y="-7" font-family="Helvetica,sans-Serif" font-size="10.00">Eth10M</text>
</a>
</g>
</g>
<!-- WiredNetWithDHCP&#45;&gt;Eth10M -->
<g id="edge4" class="edge">
<title>WiredNetWithDHCP&#45;&gt;Eth10M</title>
<path fill="none" stroke="black" d="M241.74,-54.98C273.29,-45.8 323.6,-31.15 357.79,-21.19"/>
<polygon fill="black" stroke="black" points="358.79,-24.55 367.41,-18.39 356.83,-17.82 358.79,-24.55"/>
</g>
</g>
</svg>
