<?xml version="1.0" encoding="UTF-8" standalone="no"?>
<!DOCTYPE svg PUBLIC "-//W3C//DTD SVG 1.1//EN"
 "http://www.w3.org/Graphics/SVG/1.1/DTD/svg11.dtd">
<!-- Generated by graphviz version 2.43.0 (0)
 -->
<!-- Title: opp Pages: 1 -->
<svg width="242pt" height="82pt"
 viewBox="0.00 0.00 242.00 82.00" xmlns="http://www.w3.org/2000/svg" xmlns:xlink="http://www.w3.org/1999/xlink">
<g id="graph0" class="graph" transform="scale(1 1) rotate(0) translate(4 78)">
<title>opp</title>
<polygon fill="transparent" stroke="transparent" points="-4,4 -4,-78 238,-78 238,4 -4,4"/>
<!-- IDecoder -->
<g id="node1" class="node">
<title>IDecoder</title>
<g id="a_node1"><a xlink:href="inet.physicallayer.wireless.common.contract.bitlevel.IDecoder.html" xlink:title="Module Interface IDecoder" target="_parent">
<polygon fill="#fff700" stroke="black" stroke-dasharray="5,2" points="133.5,-74 73.5,-74 73.5,-55 133.5,-55 133.5,-74"/>
<text text-anchor="middle" x="103.5" y="-62" font-family="Helvetica,sans-Serif" font-size="10.00">IDecoder</text>
</a>
</g>
</g>
<!-- ApskDecoder -->
<g id="node2" class="node">
<title>ApskDecoder</title>
<g id="a_node2"><a xlink:href="inet.physicallayer.wireless.apsk.bitlevel.ApskDecoder.html" xlink:title="Compound Module ApskDecoder" target="_parent">
<polygon fill="#fffcaf" stroke="black" points="81,-19 0,-19 0,0 81,0 81,-19"/>
<text text-anchor="middle" x="40.5" y="-7" font-family="Helvetica,sans-Serif" font-size="10.00">ApskDecoder</text>
</a>
</g>
</g>
<!-- IDecoder&#45;&gt;ApskDecoder -->
<g id="edge1" class="edge">
<title>IDecoder&#45;&gt;ApskDecoder</title>
<path fill="none" stroke="black" stroke-dasharray="5,2" d="M93.38,-54.98C81.69,-45.15 62.57,-29.07 50.81,-19.17"/>
</g>
<!-- Ieee80211OfdmDecoder -->
<g id="node3" class="node">
<title>Ieee80211OfdmDecoder</title>
<g id="a_node3"><a xlink:href="inet.physicallayer.wireless.ieee80211.bitlevel.Ieee80211OfdmDecoder.html" xlink:title="Compound Module Ieee80211OfdmDecoder" target="_parent">
<polygon fill="#fffcaf" stroke="black" points="234,-19 99,-19 99,0 234,0 234,-19"/>
<text text-anchor="middle" x="166.5" y="-7" font-family="Helvetica,sans-Serif" font-size="10.00">Ieee80211OfdmDecoder</text>
</a>
</g>
</g>
<!-- IDecoder&#45;&gt;Ieee80211OfdmDecoder -->
<g id="edge2" class="edge">
<title>IDecoder&#45;&gt;Ieee80211OfdmDecoder</title>
<path fill="none" stroke="black" stroke-dasharray="5,2" d="M113.62,-54.98C125.31,-45.15 144.43,-29.07 156.19,-19.17"/>
</g>
</g>
</svg>
