<?xml version="1.0" encoding="UTF-8" standalone="no"?>
<!DOCTYPE svg PUBLIC "-//W3C//DTD SVG 1.1//EN"
 "http://www.w3.org/Graphics/SVG/1.1/DTD/svg11.dtd">
<!-- Generated by graphviz version 2.43.0 (0)
 -->
<!-- Title: opp Pages: 1 -->
<svg width="240pt" height="82pt"
 viewBox="0.00 0.00 240.00 82.00" xmlns="http://www.w3.org/2000/svg" xmlns:xlink="http://www.w3.org/1999/xlink">
<g id="graph0" class="graph" transform="scale(1 1) rotate(0) translate(4 78)">
<title>opp</title>
<polygon fill="transparent" stroke="transparent" points="-4,4 -4,-78 236,-78 236,4 -4,4"/>
<!-- IEncoder -->
<g id="node1" class="node">
<title>IEncoder</title>
<g id="a_node1"><a xlink:href="inet.physicallayer.wireless.common.contract.bitlevel.IEncoder.html" xlink:title="Module Interface IEncoder" target="_parent">
<polygon fill="#fff700" stroke="black" stroke-dasharray="5,2" points="131.5,-74 72.5,-74 72.5,-55 131.5,-55 131.5,-74"/>
<text text-anchor="middle" x="102" y="-62" font-family="Helvetica,sans-Serif" font-size="10.00">IEncoder</text>
</a>
</g>
</g>
<!-- ApskEncoder -->
<g id="node2" class="node">
<title>ApskEncoder</title>
<g id="a_node2"><a xlink:href="inet.physicallayer.wireless.apsk.bitlevel.ApskEncoder.html" xlink:title="Compound Module ApskEncoder" target="_parent">
<polygon fill="#fffcaf" stroke="black" points="80,-19 0,-19 0,0 80,0 80,-19"/>
<text text-anchor="middle" x="40" y="-7" font-family="Helvetica,sans-Serif" font-size="10.00">ApskEncoder</text>
</a>
</g>
</g>
<!-- IEncoder&#45;&gt;ApskEncoder -->
<g id="edge1" class="edge">
<title>IEncoder&#45;&gt;ApskEncoder</title>
<path fill="none" stroke="black" stroke-dasharray="5,2" d="M92.04,-54.98C80.54,-45.15 61.72,-29.07 50.14,-19.17"/>
</g>
<!-- Ieee80211OfdmEncoder -->
<g id="node3" class="node">
<title>Ieee80211OfdmEncoder</title>
<g id="a_node3"><a xlink:href="inet.physicallayer.wireless.ieee80211.bitlevel.Ieee80211OfdmEncoder.html" xlink:title="Compound Module Ieee80211OfdmEncoder" target="_parent">
<polygon fill="#fffcaf" stroke="black" points="232,-19 98,-19 98,0 232,0 232,-19"/>
<text text-anchor="middle" x="165" y="-7" font-family="Helvetica,sans-Serif" font-size="10.00">Ieee80211OfdmEncoder</text>
</a>
</g>
</g>
<!-- IEncoder&#45;&gt;Ieee80211OfdmEncoder -->
<g id="edge2" class="edge">
<title>IEncoder&#45;&gt;Ieee80211OfdmEncoder</title>
<path fill="none" stroke="black" stroke-dasharray="5,2" d="M112.12,-54.98C123.81,-45.15 142.93,-29.07 154.69,-19.17"/>
</g>
</g>
</svg>
