<?xml version="1.0" encoding="UTF-8" standalone="no"?>
<!DOCTYPE svg PUBLIC "-//W3C//DTD SVG 1.1//EN"
 "http://www.w3.org/Graphics/SVG/1.1/DTD/svg11.dtd">
<!-- Generated by graphviz version 2.43.0 (0)
 -->
<!-- Title: opp Pages: 1 -->
<svg width="208pt" height="137pt"
 viewBox="0.00 0.00 207.50 137.00" xmlns="http://www.w3.org/2000/svg" xmlns:xlink="http://www.w3.org/1999/xlink">
<g id="graph0" class="graph" transform="scale(1 1) rotate(0) translate(4 133)">
<title>opp</title>
<polygon fill="transparent" stroke="transparent" points="-4,4 -4,-133 203.5,-133 203.5,4 -4,4"/>
<!-- Ieee802154Mac -->
<g id="node1" class="node">
<title>Ieee802154Mac</title>
<g id="a_node1"><a xlink:href="inet.linklayer.ieee802154.Ieee802154Mac.html" xlink:title="Compound Module Ieee802154Mac" target="_parent">
<polygon fill="#fff700" stroke="black" points="151.5,-74 57.5,-74 57.5,-55 151.5,-55 151.5,-74"/>
<text text-anchor="middle" x="104.5" y="-62" font-family="Helvetica,sans-Serif" font-size="10.00">Ieee802154Mac</text>
</a>
</g>
</g>
<!-- Ieee802154NarrowbandMac -->
<g id="node4" class="node">
<title>Ieee802154NarrowbandMac</title>
<g id="a_node4"><a xlink:href="inet.linklayer.ieee802154.Ieee802154NarrowbandMac.html" xlink:title="Compound Module Ieee802154NarrowbandMac" target="_parent">
<polygon fill="#fffcaf" stroke="black" points="181,-19 28,-19 28,0 181,0 181,-19"/>
<text text-anchor="middle" x="104.5" y="-7" font-family="Helvetica,sans-Serif" font-size="10.00">Ieee802154NarrowbandMac</text>
</a>
</g>
</g>
<!-- Ieee802154Mac&#45;&gt;Ieee802154NarrowbandMac -->
<g id="edge3" class="edge">
<title>Ieee802154Mac&#45;&gt;Ieee802154NarrowbandMac</title>
<path fill="none" stroke="black" d="M104.5,-54.75C104.5,-44.87 104.5,-28.9 104.5,-19.09"/>
</g>
<!-- MacProtocolBase -->
<g id="node2" class="node">
<title>MacProtocolBase</title>
<g id="a_node2"><a xlink:href="inet.linklayer.base.MacProtocolBase.html" xlink:title="Simple Module MacProtocolBase" target="_parent">
<polygon fill="#fffcaf" stroke="black" points="101,-129 0,-129 0,-110 101,-110 101,-129"/>
<text text-anchor="middle" x="50.5" y="-117" font-family="Helvetica,sans-Serif" font-size="10.00">MacProtocolBase</text>
</a>
</g>
</g>
<!-- MacProtocolBase&#45;&gt;Ieee802154Mac -->
<g id="edge1" class="edge">
<title>MacProtocolBase&#45;&gt;Ieee802154Mac</title>
<path fill="none" stroke="black" d="M59.42,-109.75C69.48,-99.87 85.75,-83.9 95.75,-74.09"/>
</g>
<!-- IMacProtocol -->
<g id="node3" class="node">
<title>IMacProtocol</title>
<g id="a_node3"><a xlink:href="inet.linklayer.contract.IMacProtocol.html" xlink:title="Module Interface IMacProtocol" target="_parent">
<polygon fill="#fffcaf" stroke="black" stroke-dasharray="5,2" points="199.5,-129 119.5,-129 119.5,-110 199.5,-110 199.5,-129"/>
<text text-anchor="middle" x="159.5" y="-117" font-family="Helvetica,sans-Serif" font-size="10.00">IMacProtocol</text>
</a>
</g>
</g>
<!-- IMacProtocol&#45;&gt;Ieee802154Mac -->
<g id="edge2" class="edge">
<title>IMacProtocol&#45;&gt;Ieee802154Mac</title>
<path fill="none" stroke="black" stroke-dasharray="5,2" d="M150.42,-109.75C140.17,-99.87 123.59,-83.9 113.41,-74.09"/>
</g>
</g>
</svg>
