<?xml version="1.0" encoding="UTF-8" standalone="no"?>
<!DOCTYPE svg PUBLIC "-//W3C//DTD SVG 1.1//EN"
 "http://www.w3.org/Graphics/SVG/1.1/DTD/svg11.dtd">
<!-- Generated by graphviz version 2.43.0 (0)
 -->
<!-- Title: opp Pages: 1 -->
<svg width="212pt" height="137pt"
 viewBox="0.00 0.00 211.50 137.00" xmlns="http://www.w3.org/2000/svg" xmlns:xlink="http://www.w3.org/1999/xlink">
<g id="graph0" class="graph" transform="scale(1 1) rotate(0) translate(4 133)">
<title>opp</title>
<polygon fill="transparent" stroke="transparent" points="-4,4 -4,-133 207.5,-133 207.5,4 -4,4"/>
<!-- IWiredInterface -->
<g id="node1" class="node">
<title>IWiredInterface</title>
<g id="a_node1"><a xlink:href="inet.linklayer.contract.IWiredInterface.html" xlink:title="Module Interface IWiredInterface" target="_parent">
<polygon fill="#fff700" stroke="black" stroke-dasharray="5,2" points="153,-74 61,-74 61,-55 153,-55 153,-74"/>
<text text-anchor="middle" x="107" y="-62" font-family="Helvetica,sans-Serif" font-size="10.00">IWiredInterface</text>
</a>
</g>
</g>
<!-- IEthernetInterface -->
<g id="node3" class="node">
<title>IEthernetInterface</title>
<g id="a_node3"><a xlink:href="inet.linklayer.contract.IEthernetInterface.html" xlink:title="Module Interface IEthernetInterface" target="_parent">
<polygon fill="#fffcaf" stroke="black" stroke-dasharray="5,2" points="104,-19 0,-19 0,0 104,0 104,-19"/>
<text text-anchor="middle" x="52" y="-7" font-family="Helvetica,sans-Serif" font-size="10.00">IEthernetInterface</text>
</a>
</g>
</g>
<!-- IWiredInterface&#45;&gt;IEthernetInterface -->
<g id="edge2" class="edge">
<title>IWiredInterface&#45;&gt;IEthernetInterface</title>
<path fill="none" stroke="black" d="M97.92,-54.75C87.67,-44.87 71.09,-28.9 60.91,-19.09"/>
</g>
<!-- IPppInterface -->
<g id="node4" class="node">
<title>IPppInterface</title>
<g id="a_node4"><a xlink:href="inet.linklayer.contract.IPppInterface.html" xlink:title="Module Interface IPppInterface" target="_parent">
<polygon fill="#fffcaf" stroke="black" stroke-dasharray="5,2" points="203.5,-19 122.5,-19 122.5,0 203.5,0 203.5,-19"/>
<text text-anchor="middle" x="163" y="-7" font-family="Helvetica,sans-Serif" font-size="10.00">IPppInterface</text>
</a>
</g>
</g>
<!-- IWiredInterface&#45;&gt;IPppInterface -->
<g id="edge3" class="edge">
<title>IWiredInterface&#45;&gt;IPppInterface</title>
<path fill="none" stroke="black" d="M116,-54.98C126.39,-45.15 143.38,-29.07 153.84,-19.17"/>
</g>
<!-- INetworkInterface -->
<g id="node2" class="node">
<title>INetworkInterface</title>
<g id="a_node2"><a xlink:href="inet.linklayer.contract.INetworkInterface.html" xlink:title="Module Interface INetworkInterface" target="_parent">
<polygon fill="#fffcaf" stroke="black" stroke-dasharray="5,2" points="159,-129 55,-129 55,-110 159,-110 159,-129"/>
<text text-anchor="middle" x="107" y="-117" font-family="Helvetica,sans-Serif" font-size="10.00">INetworkInterface</text>
</a>
</g>
</g>
<!-- INetworkInterface&#45;&gt;IWiredInterface -->
<g id="edge1" class="edge">
<title>INetworkInterface&#45;&gt;IWiredInterface</title>
<path fill="none" stroke="black" d="M107,-109.75C107,-99.87 107,-83.9 107,-74.09"/>
</g>
</g>
</svg>
