<?xml version="1.0" encoding="UTF-8" standalone="no"?>
<!DOCTYPE svg PUBLIC "-//W3C//DTD SVG 1.1//EN"
 "http://www.w3.org/Graphics/SVG/1.1/DTD/svg11.dtd">
<!-- Generated by graphviz version 2.43.0 (0)
 -->
<!-- Title: opp Pages: 1 -->
<svg width="572pt" height="82pt"
 viewBox="0.00 0.00 571.50 82.00" xmlns="http://www.w3.org/2000/svg" xmlns:xlink="http://www.w3.org/1999/xlink">
<g id="graph0" class="graph" transform="scale(1 1) rotate(0) translate(4 78)">
<title>opp</title>
<polygon fill="transparent" stroke="transparent" points="-4,4 -4,-78 567.5,-78 567.5,4 -4,4"/>
<!-- CloudAndRouters -->
<g id="node1" class="node">
<title>CloudAndRouters</title>
<g id="a_node1"><a xlink:href="inet.examples.internetcloud.cloudandrouters.CloudAndRouters.html" xlink:title="Network CloudAndRouters" target="_parent">
<polygon fill="#9090ff" stroke="black" points="329.5,-74 228.5,-74 228.5,-55 329.5,-55 329.5,-74"/>
<text text-anchor="middle" x="279" y="-62" font-family="Helvetica,sans-Serif" font-size="10.00">CloudAndRouters</text>
</a>
</g>
</g>
<!-- C -->
<g id="node2" class="node">
<title>C</title>
<g id="a_node2"><a xlink:href="inet.examples.internetcloud.cloudandrouters.CloudAndRouters.C.html" xlink:title="Channel C" target="_parent">
<polygon fill="#d0ffd0" stroke="black" points="54,-19 0,-19 0,0 54,0 54,-19"/>
<text text-anchor="middle" x="27" y="-7" font-family="Helvetica,sans-Serif" font-size="10.00">C</text>
</a>
</g>
</g>
<!-- CloudAndRouters&#45;&gt;C -->
<g id="edge1" class="edge">
<title>CloudAndRouters&#45;&gt;C</title>
<path fill="none" stroke="black" d="M235.89,-55C194.37,-46.72 129.53,-33.58 64.17,-19.21"/>
<polygon fill="black" stroke="black" points="64.63,-15.73 54.11,-16.99 63.12,-22.56 64.63,-15.73"/>
</g>
<!-- InternetCloud -->
<g id="node3" class="node">
<title>InternetCloud</title>
<g id="a_node3"><a xlink:href="inet.node.internetcloud.InternetCloud.html" xlink:title="Compound Module InternetCloud" target="_parent">
<polygon fill="#fffcaf" stroke="black" points="155.5,-19 72.5,-19 72.5,0 155.5,0 155.5,-19"/>
<text text-anchor="middle" x="114" y="-7" font-family="Helvetica,sans-Serif" font-size="10.00">InternetCloud</text>
</a>
</g>
</g>
<!-- CloudAndRouters&#45;&gt;InternetCloud -->
<g id="edge2" class="edge">
<title>CloudAndRouters&#45;&gt;InternetCloud</title>
<path fill="none" stroke="black" d="M252.49,-54.98C224.79,-46.09 181.14,-32.07 150.26,-22.15"/>
<polygon fill="black" stroke="black" points="151.31,-18.81 140.72,-19.08 149.17,-25.47 151.31,-18.81"/>
</g>
<!-- StandardHost -->
<g id="node4" class="node">
<title>StandardHost</title>
<g id="a_node4"><a xlink:href="inet.node.inet.StandardHost.html" xlink:title="Compound Module StandardHost" target="_parent">
<polygon fill="#fffcaf" stroke="black" points="256.5,-19 173.5,-19 173.5,0 256.5,0 256.5,-19"/>
<text text-anchor="middle" x="215" y="-7" font-family="Helvetica,sans-Serif" font-size="10.00">StandardHost</text>
</a>
</g>
</g>
<!-- CloudAndRouters&#45;&gt;StandardHost -->
<g id="edge3" class="edge">
<title>CloudAndRouters&#45;&gt;StandardHost</title>
<path fill="none" stroke="black" d="M268.72,-54.98C259.16,-47.07 244.72,-35.11 233.22,-25.58"/>
<polygon fill="black" stroke="black" points="235.4,-22.85 225.47,-19.17 230.94,-28.24 235.4,-22.85"/>
</g>
<!-- Ipv4NetworkConfigurator -->
<g id="node5" class="node">
<title>Ipv4NetworkConfigurator</title>
<g id="a_node5"><a xlink:href="inet.networklayer.configurator.ipv4.Ipv4NetworkConfigurator.html" xlink:title="Simple Module Ipv4NetworkConfigurator" target="_parent">
<polygon fill="#fffcaf" stroke="black" points="413.5,-19 274.5,-19 274.5,0 413.5,0 413.5,-19"/>
<text text-anchor="middle" x="344" y="-7" font-family="Helvetica,sans-Serif" font-size="10.00">Ipv4NetworkConfigurator</text>
</a>
</g>
</g>
<!-- CloudAndRouters&#45;&gt;Ipv4NetworkConfigurator -->
<g id="edge4" class="edge">
<title>CloudAndRouters&#45;&gt;Ipv4NetworkConfigurator</title>
<path fill="none" stroke="black" d="M289.44,-54.98C299.15,-47.07 313.82,-35.11 325.5,-25.58"/>
<polygon fill="black" stroke="black" points="327.83,-28.2 333.37,-19.17 323.4,-22.78 327.83,-28.2"/>
</g>
<!-- Router -->
<g id="node6" class="node">
<title>Router</title>
<g id="a_node6"><a xlink:href="inet.node.inet.Router.html" xlink:title="Compound Module Router" target="_parent">
<polygon fill="#fffcaf" stroke="black" points="486,-19 432,-19 432,0 486,0 486,-19"/>
<text text-anchor="middle" x="459" y="-7" font-family="Helvetica,sans-Serif" font-size="10.00">Router</text>
</a>
</g>
</g>
<!-- CloudAndRouters&#45;&gt;Router -->
<g id="edge5" class="edge">
<title>CloudAndRouters&#45;&gt;Router</title>
<path fill="none" stroke="black" d="M307.92,-54.98C338.9,-45.86 388.17,-31.36 421.96,-21.41"/>
<polygon fill="black" stroke="black" points="423.31,-24.66 431.92,-18.47 421.34,-17.94 423.31,-24.66"/>
</g>
<!-- Eth100M -->
<g id="node7" class="node">
<title>Eth100M</title>
<g id="a_node7"><a xlink:href="inet.node.ethernet.Eth100M.html" xlink:title="Channel Eth100M" target="_parent">
<polygon fill="#d0ffd0" stroke="black" points="563.5,-19 504.5,-19 504.5,0 563.5,0 563.5,-19"/>
<text text-anchor="middle" x="534" y="-7" font-family="Helvetica,sans-Serif" font-size="10.00">Eth100M</text>
</a>
</g>
</g>
<!-- CloudAndRouters&#45;&gt;Eth100M -->
<g id="edge6" class="edge">
<title>CloudAndRouters&#45;&gt;Eth100M</title>
<path fill="none" stroke="black" d="M321.25,-54.94C362.68,-46.52 427.93,-33.17 494.02,-19.19"/>
<polygon fill="black" stroke="black" points="495.14,-22.53 504.2,-17.03 493.69,-15.68 495.14,-22.53"/>
</g>
</g>
</svg>
