<?xml version="1.0" encoding="UTF-8" standalone="no"?>
<!DOCTYPE svg PUBLIC "-//W3C//DTD SVG 1.1//EN"
 "http://www.w3.org/Graphics/SVG/1.1/DTD/svg11.dtd">
<!-- Generated by graphviz version 2.43.0 (0)
 -->
<!-- Title: opp Pages: 1 -->
<svg width="1257pt" height="137pt"
 viewBox="0.00 0.00 1256.50 137.00" xmlns="http://www.w3.org/2000/svg" xmlns:xlink="http://www.w3.org/1999/xlink">
<g id="graph0" class="graph" transform="scale(1 1) rotate(0) translate(4 133)">
<title>opp</title>
<polygon fill="transparent" stroke="transparent" points="-4,4 -4,-133 1252.5,-133 1252.5,4 -4,4"/>
<!-- DataService -->
<g id="node1" class="node">
<title>DataService</title>
<g id="a_node1"><a xlink:href="inet.tutorials.protocol.DataService.html" xlink:title="Compound Module DataService" target="_parent">
<polygon fill="#fff700" stroke="black" points="621,-74 545,-74 545,-55 621,-55 621,-74"/>
<text text-anchor="middle" x="583" y="-62" font-family="Helvetica,sans-Serif" font-size="10.00">DataService</text>
</a>
</g>
</g>
<!-- SequenceNumbering -->
<g id="node2" class="node">
<title>SequenceNumbering</title>
<g id="a_node2"><a xlink:href="inet.protocolelement.ordering.SequenceNumbering.html" xlink:title="Simple Module SequenceNumbering" target="_parent">
<polygon fill="#fffcaf" stroke="black" points="118,-19 0,-19 0,0 118,0 118,-19"/>
<text text-anchor="middle" x="59" y="-7" font-family="Helvetica,sans-Serif" font-size="10.00">SequenceNumbering</text>
</a>
</g>
</g>
<!-- DataService&#45;&gt;SequenceNumbering -->
<g id="edge1" class="edge">
<title>DataService&#45;&gt;SequenceNumbering</title>
<path fill="none" stroke="black" d="M544.83,-60.13C468.07,-53.27 289.28,-36.91 128.41,-19.13"/>
<polygon fill="black" stroke="black" points="128.65,-15.64 118.33,-18.01 127.88,-22.59 128.65,-15.64"/>
</g>
<!-- IPacketServer -->
<g id="node3" class="node">
<title>IPacketServer</title>
<g id="a_node3"><a xlink:href="inet.queueing.contract.IPacketServer.html" xlink:title="Module Interface IPacketServer" target="_parent">
<polygon fill="#fffcaf" stroke="black" stroke-dasharray="5,2" points="219.5,-19 136.5,-19 136.5,0 219.5,0 219.5,-19"/>
<text text-anchor="middle" x="178" y="-7" font-family="Helvetica,sans-Serif" font-size="10.00">IPacketServer</text>
</a>
</g>
</g>
<!-- DataService&#45;&gt;IPacketServer -->
<g id="edge2" class="edge">
<title>DataService&#45;&gt;IPacketServer</title>
<path fill="none" stroke="black" d="M544.84,-59.27C481.51,-52.13 350.48,-36.85 229.87,-19.22"/>
<polygon fill="black" stroke="black" points="230.12,-15.72 219.72,-17.73 229.1,-22.65 230.12,-15.72"/>
</g>
<!-- IPacketQueue -->
<g id="node4" class="node">
<title>IPacketQueue</title>
<g id="a_node4"><a xlink:href="inet.queueing.contract.IPacketQueue.html" xlink:title="Module Interface IPacketQueue" target="_parent">
<polygon fill="#fffcaf" stroke="black" stroke-dasharray="5,2" points="320.5,-19 237.5,-19 237.5,0 320.5,0 320.5,-19"/>
<text text-anchor="middle" x="279" y="-7" font-family="Helvetica,sans-Serif" font-size="10.00">IPacketQueue</text>
</a>
</g>
</g>
<!-- DataService&#45;&gt;IPacketQueue -->
<g id="edge3" class="edge">
<title>DataService&#45;&gt;IPacketQueue</title>
<path fill="none" stroke="black" d="M544.81,-56.84C490.69,-47.41 391.53,-30.12 330.82,-19.53"/>
<polygon fill="black" stroke="black" points="331.14,-16.04 320.69,-17.77 329.94,-22.93 331.14,-16.04"/>
</g>
<!-- FragmentNumberHeaderBasedDefragmenter -->
<g id="node5" class="node">
<title>FragmentNumberHeaderBasedDefragmenter</title>
<g id="a_node5"><a xlink:href="inet.protocolelement.fragmentation.FragmentNumberHeaderBasedDefragmenter.html" xlink:title="Simple Module FragmentNumberHeaderBasedDefragmenter" target="_parent">
<polygon fill="#fffcaf" stroke="black" points="575,-19 339,-19 339,0 575,0 575,-19"/>
<text text-anchor="middle" x="457" y="-7" font-family="Helvetica,sans-Serif" font-size="10.00">FragmentNumberHeaderBasedDefragmenter</text>
</a>
</g>
</g>
<!-- DataService&#45;&gt;FragmentNumberHeaderBasedDefragmenter -->
<g id="edge4" class="edge">
<title>DataService&#45;&gt;FragmentNumberHeaderBasedDefragmenter</title>
<path fill="none" stroke="black" d="M562.76,-54.98C542.3,-46.38 510.47,-32.99 487.07,-23.15"/>
<polygon fill="black" stroke="black" points="488.19,-19.82 477.61,-19.17 485.47,-26.27 488.19,-19.82"/>
</g>
<!-- SubpacketLengthHeaderBasedDeaggregator -->
<g id="node6" class="node">
<title>SubpacketLengthHeaderBasedDeaggregator</title>
<g id="a_node6"><a xlink:href="inet.protocolelement.aggregation.SubpacketLengthHeaderBasedDeaggregator.html" xlink:title="Simple Module SubpacketLengthHeaderBasedDeaggregator" target="_parent">
<polygon fill="#fffcaf" stroke="black" points="825,-19 593,-19 593,0 825,0 825,-19"/>
<text text-anchor="middle" x="709" y="-7" font-family="Helvetica,sans-Serif" font-size="10.00">SubpacketLengthHeaderBasedDeaggregator</text>
</a>
</g>
</g>
<!-- DataService&#45;&gt;SubpacketLengthHeaderBasedDeaggregator -->
<g id="edge5" class="edge">
<title>DataService&#45;&gt;SubpacketLengthHeaderBasedDeaggregator</title>
<path fill="none" stroke="black" d="M603.24,-54.98C623.7,-46.38 655.53,-32.99 678.93,-23.15"/>
<polygon fill="black" stroke="black" points="680.53,-26.27 688.39,-19.17 677.81,-19.82 680.53,-26.27"/>
</g>
<!-- Reordering -->
<g id="node7" class="node">
<title>Reordering</title>
<g id="a_node7"><a xlink:href="inet.protocolelement.ordering.Reordering.html" xlink:title="Simple Module Reordering" target="_parent">
<polygon fill="#fffcaf" stroke="black" points="913,-19 843,-19 843,0 913,0 913,-19"/>
<text text-anchor="middle" x="878" y="-7" font-family="Helvetica,sans-Serif" font-size="10.00">Reordering</text>
</a>
</g>
</g>
<!-- DataService&#45;&gt;Reordering -->
<g id="edge6" class="edge">
<title>DataService&#45;&gt;Reordering</title>
<path fill="none" stroke="black" d="M621.3,-56.9C668.63,-48.7 751.89,-34.14 833.06,-19.15"/>
<polygon fill="black" stroke="black" points="833.75,-22.58 842.94,-17.32 832.47,-15.7 833.75,-22.58"/>
</g>
<!-- IdealChannel -->
<g id="node8" class="node">
<title>IdealChannel</title>
<g id="a_node8"><a xlink:href="ned.IdealChannel.html" xlink:title="Channel IdealChannel" target="_parent">
<polygon fill="#d0ffd0" stroke="black" points="1011,-19 931,-19 931,0 1011,0 1011,-19"/>
<text text-anchor="middle" x="971" y="-7" font-family="Helvetica,sans-Serif" font-size="10.00">IdealChannel</text>
</a>
</g>
</g>
<!-- DataService&#45;&gt;IdealChannel -->
<g id="edge7" class="edge">
<title>DataService&#45;&gt;IdealChannel</title>
<path fill="none" stroke="black" d="M621.2,-59.01C682.27,-51.71 805.89,-36.47 920.88,-19.12"/>
<polygon fill="black" stroke="black" points="921.55,-22.55 930.91,-17.59 920.5,-15.63 921.55,-22.55"/>
</g>
<!-- SubpacketLengthHeaderBasedAggregator -->
<g id="node9" class="node">
<title>SubpacketLengthHeaderBasedAggregator</title>
<g id="a_node9"><a xlink:href="inet.protocolelement.aggregation.SubpacketLengthHeaderBasedAggregator.html" xlink:title="Compound Module SubpacketLengthHeaderBasedAggregator" target="_parent">
<polygon fill="#fffcaf" stroke="black" points="1248.5,-19 1029.5,-19 1029.5,0 1248.5,0 1248.5,-19"/>
<text text-anchor="middle" x="1139" y="-7" font-family="Helvetica,sans-Serif" font-size="10.00">SubpacketLengthHeaderBasedAggregator</text>
</a>
</g>
</g>
<!-- DataService&#45;&gt;SubpacketLengthHeaderBasedAggregator -->
<g id="edge8" class="edge">
<title>DataService&#45;&gt;SubpacketLengthHeaderBasedAggregator</title>
<path fill="none" stroke="black" d="M621.22,-59.86C706.55,-51.72 914.91,-31.86 1039.76,-19.96"/>
<polygon fill="black" stroke="black" points="1040.09,-23.44 1049.71,-19.01 1039.42,-16.48 1040.09,-23.44"/>
</g>
<!-- Node -->
<g id="node10" class="node">
<title>Node</title>
<g id="a_node10"><a xlink:href="inet.tutorials.protocol.Node.html" xlink:title="Compound Module Node" target="_parent">
<polygon fill="#fffcaf" stroke="black" points="610,-129 556,-129 556,-110 610,-110 610,-129"/>
<text text-anchor="middle" x="583" y="-117" font-family="Helvetica,sans-Serif" font-size="10.00">Node</text>
</a>
</g>
</g>
<!-- Node&#45;&gt;DataService -->
<g id="edge9" class="edge">
<title>Node&#45;&gt;DataService</title>
<path fill="none" stroke="black" d="M583,-109.75C583,-102.8 583,-92.85 583,-84.13"/>
<polygon fill="black" stroke="black" points="586.5,-84.09 583,-74.09 579.5,-84.09 586.5,-84.09"/>
</g>
</g>
</svg>
