<?xml version="1.0" encoding="UTF-8" standalone="no"?>
<!DOCTYPE svg PUBLIC "-//W3C//DTD SVG 1.1//EN"
 "http://www.w3.org/Graphics/SVG/1.1/DTD/svg11.dtd">
<!-- Generated by graphviz version 2.43.0 (0)
 -->
<!-- Title: opp Pages: 1 -->
<svg width="3146pt" height="137pt"
 viewBox="0.00 0.00 3146.00 137.00" xmlns="http://www.w3.org/2000/svg" xmlns:xlink="http://www.w3.org/1999/xlink">
<g id="graph0" class="graph" transform="scale(1 1) rotate(0) translate(4 133)">
<title>opp</title>
<polygon fill="transparent" stroke="transparent" points="-4,4 -4,-133 3142,-133 3142,4 -4,4"/>
<!-- WiredNetworkBase -->
<g id="node1" class="node">
<title>WiredNetworkBase</title>
<g id="a_node1"><a xlink:href="inet.networks.base.WiredNetworkBase.html" xlink:title="Network WiredNetworkBase" target="_parent">
<polygon fill="#9090ff" stroke="black" points="1642,-74 1532,-74 1532,-55 1642,-55 1642,-74"/>
<text text-anchor="middle" x="1587" y="-62" font-family="Helvetica,sans-Serif" font-size="10.00">WiredNetworkBase</text>
</a>
</g>
</g>
<!-- ChannelThroughputMeasurementShowcase -->
<g id="node3" class="node">
<title>ChannelThroughputMeasurementShowcase</title>
<g id="a_node3"><a xlink:href="inet.showcases.measurement.throughput.ChannelThroughputMeasurementShowcase.html" xlink:title="Network ChannelThroughputMeasurementShowcase" target="_parent">
<polygon fill="#d0d0ff" stroke="black" points="228,-19 0,-19 0,0 228,0 228,-19"/>
<text text-anchor="middle" x="114" y="-7" font-family="Helvetica,sans-Serif" font-size="10.00">ChannelThroughputMeasurementShowcase</text>
</a>
</g>
</g>
<!-- WiredNetworkBase&#45;&gt;ChannelThroughputMeasurementShowcase -->
<g id="edge2" class="edge">
<title>WiredNetworkBase&#45;&gt;ChannelThroughputMeasurementShowcase</title>
<path fill="none" stroke="black" d="M1532,-62.4C1348.36,-58.57 739.65,-44.64 237,-19 234.11,-18.85 231.19,-18.7 228.24,-18.54"/>
</g>
<!-- ChannelUtilizationMeasurementShowcase -->
<g id="node4" class="node">
<title>ChannelUtilizationMeasurementShowcase</title>
<g id="a_node4"><a xlink:href="inet.showcases.measurement.utilization.ChannelUtilizationMeasurementShowcase.html" xlink:title="Network ChannelUtilizationMeasurementShowcase" target="_parent">
<polygon fill="#d0d0ff" stroke="black" points="469.5,-19 246.5,-19 246.5,0 469.5,0 469.5,-19"/>
<text text-anchor="middle" x="358" y="-7" font-family="Helvetica,sans-Serif" font-size="10.00">ChannelUtilizationMeasurementShowcase</text>
</a>
</g>
</g>
<!-- WiredNetworkBase&#45;&gt;ChannelUtilizationMeasurementShowcase -->
<g id="edge3" class="edge">
<title>WiredNetworkBase&#45;&gt;ChannelUtilizationMeasurementShowcase</title>
<path fill="none" stroke="black" d="M1531.87,-61.89C1370.04,-57.02 882.27,-41.42 478,-19 475.29,-18.85 472.54,-18.69 469.78,-18.53"/>
</g>
<!-- ClockDriftShowcase -->
<g id="node5" class="node">
<title>ClockDriftShowcase</title>
<g id="a_node5"><a xlink:href="inet.showcases.tsn.timesynchronization.clockdrift.ClockDriftShowcase.html" xlink:title="Network ClockDriftShowcase" target="_parent">
<polygon fill="#d0d0ff" stroke="black" points="600.5,-19 487.5,-19 487.5,0 600.5,0 600.5,-19"/>
<text text-anchor="middle" x="544" y="-7" font-family="Helvetica,sans-Serif" font-size="10.00">ClockDriftShowcase</text>
</a>
</g>
</g>
<!-- WiredNetworkBase&#45;&gt;ClockDriftShowcase -->
<g id="edge4" class="edge">
<title>WiredNetworkBase&#45;&gt;ClockDriftShowcase</title>
<path fill="none" stroke="black" d="M1531.75,-62.62C1382.61,-59.9 959.48,-49.83 609,-19 606.28,-18.76 603.5,-18.49 600.69,-18.2"/>
</g>
<!-- DataRateMeasurementShowcase -->
<g id="node6" class="node">
<title>DataRateMeasurementShowcase</title>
<g id="a_node6"><a xlink:href="inet.showcases.measurement.datarate.DataRateMeasurementShowcase.html" xlink:title="Network DataRateMeasurementShowcase" target="_parent">
<polygon fill="#d0d0ff" stroke="black" points="797.5,-19 618.5,-19 618.5,0 797.5,0 797.5,-19"/>
<text text-anchor="middle" x="708" y="-7" font-family="Helvetica,sans-Serif" font-size="10.00">DataRateMeasurementShowcase</text>
</a>
</g>
</g>
<!-- WiredNetworkBase&#45;&gt;DataRateMeasurementShowcase -->
<g id="edge5" class="edge">
<title>WiredNetworkBase&#45;&gt;DataRateMeasurementShowcase</title>
<path fill="none" stroke="black" d="M1531.57,-60.91C1403.65,-54.8 1077.94,-38.54 806,-19 803.27,-18.8 800.51,-18.6 797.71,-18.39"/>
</g>
<!-- DumbbellNetwork -->
<g id="node7" class="node">
<title>DumbbellNetwork</title>
<g id="a_node7"><a xlink:href="inet.networks.ethernet.DumbbellNetwork.html" xlink:title="Network DumbbellNetwork" target="_parent">
<polygon fill="#d0d0ff" stroke="black" points="920.5,-19 815.5,-19 815.5,0 920.5,0 920.5,-19"/>
<text text-anchor="middle" x="868" y="-7" font-family="Helvetica,sans-Serif" font-size="10.00">DumbbellNetwork</text>
</a>
</g>
</g>
<!-- WiredNetworkBase&#45;&gt;DumbbellNetwork -->
<g id="edge6" class="edge">
<title>WiredNetworkBase&#45;&gt;DumbbellNetwork</title>
<path fill="none" stroke="black" d="M1531.95,-61.05C1418.93,-55.74 1152.63,-41.77 930,-19 926.97,-18.69 923.87,-18.35 920.74,-17.98"/>
</g>
<!-- EndToEndDelayMeasurementShowcase -->
<g id="node8" class="node">
<title>EndToEndDelayMeasurementShowcase</title>
<g id="a_node8"><a xlink:href="inet.showcases.measurement.endtoenddelay.EndToEndDelayMeasurementShowcase.html" xlink:title="Network EndToEndDelayMeasurementShowcase" target="_parent">
<polygon fill="#d0d0ff" stroke="black" points="1147,-19 939,-19 939,0 1147,0 1147,-19"/>
<text text-anchor="middle" x="1043" y="-7" font-family="Helvetica,sans-Serif" font-size="10.00">EndToEndDelayMeasurementShowcase</text>
</a>
</g>
</g>
<!-- WiredNetworkBase&#45;&gt;EndToEndDelayMeasurementShowcase -->
<g id="edge7" class="edge">
<title>WiredNetworkBase&#45;&gt;EndToEndDelayMeasurementShowcase</title>
<path fill="none" stroke="black" d="M1531.84,-58.13C1437.3,-48.92 1243.58,-30.04 1130.45,-19.02"/>
</g>
<!-- FlowMeasurementShowcase -->
<g id="node9" class="node">
<title>FlowMeasurementShowcase</title>
<g id="a_node9"><a xlink:href="inet.showcases.measurement.flow.FlowMeasurementShowcase.html" xlink:title="Network FlowMeasurementShowcase" target="_parent">
<polygon fill="#d0d0ff" stroke="black" points="1321,-19 1165,-19 1165,0 1321,0 1321,-19"/>
<text text-anchor="middle" x="1243" y="-7" font-family="Helvetica,sans-Serif" font-size="10.00">FlowMeasurementShowcase</text>
</a>
</g>
</g>
<!-- WiredNetworkBase&#45;&gt;FlowMeasurementShowcase -->
<g id="edge8" class="edge">
<title>WiredNetworkBase&#45;&gt;FlowMeasurementShowcase</title>
<path fill="none" stroke="black" d="M1531.73,-54.98C1467.63,-45.11 1362.58,-28.92 1298.42,-19.04"/>
</g>
<!-- FramePreemptionShowcase -->
<g id="node10" class="node">
<title>FramePreemptionShowcase</title>
<g id="a_node10"><a xlink:href="inet.showcases.tsn.framepreemption.FramePreemptionShowcase.html" xlink:title="Network FramePreemptionShowcase" target="_parent">
<polygon fill="#d0d0ff" stroke="black" points="1491,-19 1339,-19 1339,0 1491,0 1491,-19"/>
<text text-anchor="middle" x="1415" y="-7" font-family="Helvetica,sans-Serif" font-size="10.00">FramePreemptionShowcase</text>
</a>
</g>
</g>
<!-- WiredNetworkBase&#45;&gt;FramePreemptionShowcase -->
<g id="edge9" class="edge">
<title>WiredNetworkBase&#45;&gt;FramePreemptionShowcase</title>
<path fill="none" stroke="black" d="M1559.37,-54.98C1527.36,-45.12 1474.95,-28.97 1442.85,-19.08"/>
</g>
<!-- JitterMeasurementShowcase -->
<g id="node11" class="node">
<title>JitterMeasurementShowcase</title>
<g id="a_node11"><a xlink:href="inet.showcases.measurement.jitter.JitterMeasurementShowcase.html" xlink:title="Network JitterMeasurementShowcase" target="_parent">
<polygon fill="#d0d0ff" stroke="black" points="1665,-19 1509,-19 1509,0 1665,0 1665,-19"/>
<text text-anchor="middle" x="1587" y="-7" font-family="Helvetica,sans-Serif" font-size="10.00">JitterMeasurementShowcase</text>
</a>
</g>
</g>
<!-- WiredNetworkBase&#45;&gt;JitterMeasurementShowcase -->
<g id="edge10" class="edge">
<title>WiredNetworkBase&#45;&gt;JitterMeasurementShowcase</title>
<path fill="none" stroke="black" d="M1587,-54.75C1587,-44.87 1587,-28.9 1587,-19.09"/>
</g>
<!-- LinearNetwork -->
<g id="node12" class="node">
<title>LinearNetwork</title>
<g id="a_node12"><a xlink:href="inet.networks.ethernet.LinearNetwork.html" xlink:title="Network LinearNetwork" target="_parent">
<polygon fill="#d0d0ff" stroke="black" points="1771,-19 1683,-19 1683,0 1771,0 1771,-19"/>
<text text-anchor="middle" x="1727" y="-7" font-family="Helvetica,sans-Serif" font-size="10.00">LinearNetwork</text>
</a>
</g>
</g>
<!-- WiredNetworkBase&#45;&gt;LinearNetwork -->
<g id="edge11" class="edge">
<title>WiredNetworkBase&#45;&gt;LinearNetwork</title>
<path fill="none" stroke="black" d="M1609.49,-54.98C1635.46,-45.15 1677.95,-29.07 1704.1,-19.17"/>
</g>
<!-- MeasurementRelationshipsShowcase -->
<g id="node13" class="node">
<title>MeasurementRelationshipsShowcase</title>
<g id="a_node13"><a xlink:href="inet.showcases.measurement.relationships.MeasurementRelationshipsShowcase.html" xlink:title="Network MeasurementRelationshipsShowcase" target="_parent">
<polygon fill="#d0d0ff" stroke="black" points="1988.5,-19 1789.5,-19 1789.5,0 1988.5,0 1988.5,-19"/>
<text text-anchor="middle" x="1889" y="-7" font-family="Helvetica,sans-Serif" font-size="10.00">MeasurementRelationshipsShowcase</text>
</a>
</g>
</g>
<!-- WiredNetworkBase&#45;&gt;MeasurementRelationshipsShowcase -->
<g id="edge12" class="edge">
<title>WiredNetworkBase&#45;&gt;MeasurementRelationshipsShowcase</title>
<path fill="none" stroke="black" d="M1635.52,-54.98C1691.79,-45.11 1784.02,-28.92 1840.35,-19.04"/>
</g>
<!-- PropagationTimeMeasurementShowcase -->
<g id="node14" class="node">
<title>PropagationTimeMeasurementShowcase</title>
<g id="a_node14"><a xlink:href="inet.showcases.measurement.propagationtime.PropagationTimeMeasurementShowcase.html" xlink:title="Network PropagationTimeMeasurementShowcase" target="_parent">
<polygon fill="#d0d0ff" stroke="black" points="2223,-19 2007,-19 2007,0 2223,0 2223,-19"/>
<text text-anchor="middle" x="2115" y="-7" font-family="Helvetica,sans-Serif" font-size="10.00">PropagationTimeMeasurementShowcase</text>
</a>
</g>
</g>
<!-- WiredNetworkBase&#45;&gt;PropagationTimeMeasurementShowcase -->
<g id="edge13" class="edge">
<title>WiredNetworkBase&#45;&gt;PropagationTimeMeasurementShowcase</title>
<path fill="none" stroke="black" d="M1642.01,-57.98C1734.32,-48.71 1921.01,-29.97 2030.2,-19.01"/>
</g>
<!-- QueueingTimeMeasurementShowcase -->
<g id="node15" class="node">
<title>QueueingTimeMeasurementShowcase</title>
<g id="a_node15"><a xlink:href="inet.showcases.measurement.queueingtime.QueueingTimeMeasurementShowcase.html" xlink:title="Network QueueingTimeMeasurementShowcase" target="_parent">
<polygon fill="#d0d0ff" stroke="black" points="2445,-19 2241,-19 2241,0 2445,0 2445,-19"/>
<text text-anchor="middle" x="2343" y="-7" font-family="Helvetica,sans-Serif" font-size="10.00">QueueingTimeMeasurementShowcase</text>
</a>
</g>
</g>
<!-- WiredNetworkBase&#45;&gt;QueueingTimeMeasurementShowcase -->
<g id="edge14" class="edge">
<title>WiredNetworkBase&#45;&gt;QueueingTimeMeasurementShowcase</title>
<path fill="none" stroke="black" d="M1642.23,-59.83C1753.73,-52.39 2013.7,-34.89 2232,-19 2234.89,-18.79 2237.83,-18.57 2240.79,-18.36"/>
</g>
<!-- ResidenceTimeMeasurementShowcase -->
<g id="node16" class="node">
<title>ResidenceTimeMeasurementShowcase</title>
<g id="a_node16"><a xlink:href="inet.showcases.measurement.residencetime.ResidenceTimeMeasurementShowcase.html" xlink:title="Network ResidenceTimeMeasurementShowcase" target="_parent">
<polygon fill="#d0d0ff" stroke="black" points="2671,-19 2463,-19 2463,0 2671,0 2671,-19"/>
<text text-anchor="middle" x="2567" y="-7" font-family="Helvetica,sans-Serif" font-size="10.00">ResidenceTimeMeasurementShowcase</text>
</a>
</g>
</g>
<!-- WiredNetworkBase&#45;&gt;ResidenceTimeMeasurementShowcase -->
<g id="edge15" class="edge">
<title>WiredNetworkBase&#45;&gt;ResidenceTimeMeasurementShowcase</title>
<path fill="none" stroke="black" d="M1642.05,-61.13C1779.24,-55.12 2147.33,-38.4 2454,-19 2456.95,-18.81 2459.93,-18.62 2462.95,-18.42"/>
</g>
<!-- TimingExample -->
<g id="node17" class="node">
<title>TimingExample</title>
<g id="a_node17"><a xlink:href="inet.examples.timing.TimingExample.html" xlink:title="Network TimingExample" target="_parent">
<polygon fill="#d0d0ff" stroke="black" points="2782.5,-19 2689.5,-19 2689.5,0 2782.5,0 2782.5,-19"/>
<text text-anchor="middle" x="2736" y="-7" font-family="Helvetica,sans-Serif" font-size="10.00">TimingExample</text>
</a>
</g>
</g>
<!-- WiredNetworkBase&#45;&gt;TimingExample -->
<g id="edge16" class="edge">
<title>WiredNetworkBase&#45;&gt;TimingExample</title>
<path fill="none" stroke="black" d="M1642.02,-63.39C1802.41,-62.63 2283.24,-57.07 2680,-19 2683.03,-18.71 2686.16,-18.36 2689.3,-17.98"/>
</g>
<!-- TransmissionTimeMeasurementShowcase -->
<g id="node18" class="node">
<title>TransmissionTimeMeasurementShowcase</title>
<g id="a_node18"><a xlink:href="inet.showcases.measurement.transmissiontime.TransmissionTimeMeasurementShowcase.html" xlink:title="Network TransmissionTimeMeasurementShowcase" target="_parent">
<polygon fill="#d0d0ff" stroke="black" points="3021.5,-19 2800.5,-19 2800.5,0 3021.5,0 3021.5,-19"/>
<text text-anchor="middle" x="2911" y="-7" font-family="Helvetica,sans-Serif" font-size="10.00">TransmissionTimeMeasurementShowcase</text>
</a>
</g>
</g>
<!-- WiredNetworkBase&#45;&gt;TransmissionTimeMeasurementShowcase -->
<g id="edge17" class="edge">
<title>WiredNetworkBase&#45;&gt;TransmissionTimeMeasurementShowcase</title>
<path fill="none" stroke="black" d="M1642.28,-62.14C1813.29,-57.77 2348.84,-43 2792,-19 2794.79,-18.85 2797.62,-18.69 2800.47,-18.52"/>
</g>
<!-- TsnNetworkBase -->
<g id="node19" class="node">
<title>TsnNetworkBase</title>
<g id="a_node19"><a xlink:href="inet.networks.base.TsnNetworkBase.html" xlink:title="Network TsnNetworkBase" target="_parent">
<polygon fill="#d0d0ff" stroke="black" points="3138,-19 3040,-19 3040,0 3138,0 3138,-19"/>
<text text-anchor="middle" x="3089" y="-7" font-family="Helvetica,sans-Serif" font-size="10.00">TsnNetworkBase</text>
</a>
</g>
</g>
<!-- WiredNetworkBase&#45;&gt;TsnNetworkBase -->
<g id="edge18" class="edge">
<title>WiredNetworkBase&#45;&gt;TsnNetworkBase</title>
<path fill="none" stroke="black" d="M1642.36,-62.64C1872.42,-58.96 2753.83,-43.5 3031,-19 3033.94,-18.74 3036.96,-18.43 3040,-18.08"/>
</g>
<!-- NetworkBase -->
<g id="node2" class="node">
<title>NetworkBase</title>
<g id="a_node2"><a xlink:href="inet.networks.base.NetworkBase.html" xlink:title="Network NetworkBase" target="_parent">
<polygon fill="#d0d0ff" stroke="black" points="1628,-129 1546,-129 1546,-110 1628,-110 1628,-129"/>
<text text-anchor="middle" x="1587" y="-117" font-family="Helvetica,sans-Serif" font-size="10.00">NetworkBase</text>
</a>
</g>
</g>
<!-- NetworkBase&#45;&gt;WiredNetworkBase -->
<g id="edge1" class="edge">
<title>NetworkBase&#45;&gt;WiredNetworkBase</title>
<path fill="none" stroke="black" d="M1587,-109.75C1587,-99.87 1587,-83.9 1587,-74.09"/>
</g>
</g>
</svg>
