<?xml version="1.0" encoding="UTF-8" standalone="no"?>
<!DOCTYPE svg PUBLIC "-//W3C//DTD SVG 1.1//EN"
 "http://www.w3.org/Graphics/SVG/1.1/DTD/svg11.dtd">
<!-- Generated by graphviz version 2.43.0 (0)
 -->
<!-- Title: opp Pages: 1 -->
<svg width="687pt" height="82pt"
 viewBox="0.00 0.00 687.00 82.00" xmlns="http://www.w3.org/2000/svg" xmlns:xlink="http://www.w3.org/1999/xlink">
<g id="graph0" class="graph" transform="scale(1 1) rotate(0) translate(4 78)">
<title>opp</title>
<polygon fill="transparent" stroke="transparent" points="-4,4 -4,-78 683,-78 683,4 -4,4"/>
<!-- MediumActivityInterferingSignalsShowcase -->
<g id="node1" class="node">
<title>MediumActivityInterferingSignalsShowcase</title>
<g id="a_node1"><a xlink:href="inet.showcases.visualizer.canvas.radiomediumactivity.MediumActivityInterferingSignalsShowcase.html" xlink:title="Network MediumActivityInterferingSignalsShowcase" target="_parent">
<polygon fill="#9090ff" stroke="black" points="500,-74 271,-74 271,-55 500,-55 500,-74"/>
<text text-anchor="middle" x="385.5" y="-62" font-family="Helvetica,sans-Serif" font-size="10.00">MediumActivityInterferingSignalsShowcase</text>
</a>
</g>
</g>
<!-- IntegratedVisualizer -->
<g id="node2" class="node">
<title>IntegratedVisualizer</title>
<g id="a_node2"><a xlink:href="inet.visualizer.common.IntegratedVisualizer.html" xlink:title="Compound Module IntegratedVisualizer" target="_parent">
<polygon fill="#fffcaf" stroke="black" points="115,-19 0,-19 0,0 115,0 115,-19"/>
<text text-anchor="middle" x="57.5" y="-7" font-family="Helvetica,sans-Serif" font-size="10.00">IntegratedVisualizer</text>
</a>
</g>
</g>
<!-- MediumActivityInterferingSignalsShowcase&#45;&gt;IntegratedVisualizer -->
<g id="edge1" class="edge">
<title>MediumActivityInterferingSignalsShowcase&#45;&gt;IntegratedVisualizer</title>
<path fill="none" stroke="black" d="M332.8,-54.98C274.91,-45.63 181.97,-30.61 120.33,-20.65"/>
<polygon fill="black" stroke="black" points="120.77,-17.18 110.34,-19.04 119.65,-24.09 120.77,-17.18"/>
</g>
<!-- Ieee80211ScalarRadioMedium -->
<g id="node3" class="node">
<title>Ieee80211ScalarRadioMedium</title>
<g id="a_node3"><a xlink:href="inet.physicallayer.wireless.ieee80211.packetlevel.Ieee80211ScalarRadioMedium.html" xlink:title="Compound Module Ieee80211ScalarRadioMedium" target="_parent">
<polygon fill="#fffcaf" stroke="black" points="298,-19 133,-19 133,0 298,0 298,-19"/>
<text text-anchor="middle" x="215.5" y="-7" font-family="Helvetica,sans-Serif" font-size="10.00">Ieee80211ScalarRadioMedium</text>
</a>
</g>
</g>
<!-- MediumActivityInterferingSignalsShowcase&#45;&gt;Ieee80211ScalarRadioMedium -->
<g id="edge2" class="edge">
<title>MediumActivityInterferingSignalsShowcase&#45;&gt;Ieee80211ScalarRadioMedium</title>
<path fill="none" stroke="black" d="M358.19,-54.98C329.65,-46.09 284.67,-32.07 252.86,-22.15"/>
<polygon fill="black" stroke="black" points="253.62,-18.72 243.03,-19.08 251.53,-25.4 253.62,-18.72"/>
</g>
<!-- Ipv4NetworkConfigurator -->
<g id="node4" class="node">
<title>Ipv4NetworkConfigurator</title>
<g id="a_node4"><a xlink:href="inet.networklayer.configurator.ipv4.Ipv4NetworkConfigurator.html" xlink:title="Simple Module Ipv4NetworkConfigurator" target="_parent">
<polygon fill="#fffcaf" stroke="black" points="455,-19 316,-19 316,0 455,0 455,-19"/>
<text text-anchor="middle" x="385.5" y="-7" font-family="Helvetica,sans-Serif" font-size="10.00">Ipv4NetworkConfigurator</text>
</a>
</g>
</g>
<!-- MediumActivityInterferingSignalsShowcase&#45;&gt;Ipv4NetworkConfigurator -->
<g id="edge3" class="edge">
<title>MediumActivityInterferingSignalsShowcase&#45;&gt;Ipv4NetworkConfigurator</title>
<path fill="none" stroke="black" d="M385.5,-54.75C385.5,-47.8 385.5,-37.85 385.5,-29.13"/>
<polygon fill="black" stroke="black" points="389,-29.09 385.5,-19.09 382,-29.09 389,-29.09"/>
</g>
<!-- PhysicalEnvironment -->
<g id="node5" class="node">
<title>PhysicalEnvironment</title>
<g id="a_node5"><a xlink:href="inet.environment.common.PhysicalEnvironment.html" xlink:title="Compound Module PhysicalEnvironment" target="_parent">
<polygon fill="#fffcaf" stroke="black" points="592,-19 473,-19 473,0 592,0 592,-19"/>
<text text-anchor="middle" x="532.5" y="-7" font-family="Helvetica,sans-Serif" font-size="10.00">PhysicalEnvironment</text>
</a>
</g>
</g>
<!-- MediumActivityInterferingSignalsShowcase&#45;&gt;PhysicalEnvironment -->
<g id="edge4" class="edge">
<title>MediumActivityInterferingSignalsShowcase&#45;&gt;PhysicalEnvironment</title>
<path fill="none" stroke="black" d="M409.12,-54.98C433.4,-46.23 471.45,-32.51 498.87,-22.62"/>
<polygon fill="black" stroke="black" points="500.23,-25.85 508.45,-19.17 497.86,-19.27 500.23,-25.85"/>
</g>
<!-- AdhocHost -->
<g id="node6" class="node">
<title>AdhocHost</title>
<g id="a_node6"><a xlink:href="inet.node.inet.AdhocHost.html" xlink:title="Compound Module AdhocHost" target="_parent">
<polygon fill="#fffcaf" stroke="black" points="679,-19 610,-19 610,0 679,0 679,-19"/>
<text text-anchor="middle" x="644.5" y="-7" font-family="Helvetica,sans-Serif" font-size="10.00">AdhocHost</text>
</a>
</g>
</g>
<!-- MediumActivityInterferingSignalsShowcase&#45;&gt;AdhocHost -->
<g id="edge5" class="edge">
<title>MediumActivityInterferingSignalsShowcase&#45;&gt;AdhocHost</title>
<path fill="none" stroke="black" d="M427.11,-54.98C474.37,-45.31 551.2,-29.59 599.73,-19.66"/>
<polygon fill="black" stroke="black" points="600.54,-23.07 609.63,-17.63 599.13,-16.21 600.54,-23.07"/>
</g>
</g>
</svg>
