<?xml version="1.0" encoding="UTF-8" standalone="no"?>
<!DOCTYPE svg PUBLIC "-//W3C//DTD SVG 1.1//EN"
 "http://www.w3.org/Graphics/SVG/1.1/DTD/svg11.dtd">
<!-- Generated by graphviz version 2.43.0 (0)
 -->
<!-- Title: opp Pages: 1 -->
<svg width="316pt" height="82pt"
 viewBox="0.00 0.00 315.50 82.00" xmlns="http://www.w3.org/2000/svg" xmlns:xlink="http://www.w3.org/1999/xlink">
<g id="graph0" class="graph" transform="scale(1 1) rotate(0) translate(4 78)">
<title>opp</title>
<polygon fill="transparent" stroke="transparent" points="-4,4 -4,-78 311.5,-78 311.5,4 -4,4"/>
<!-- NetworkNodeCanvasVisualizer -->
<g id="node1" class="node">
<title>NetworkNodeCanvasVisualizer</title>
<g id="a_node1"><a xlink:href="inet.visualizer.canvas.scene.NetworkNodeCanvasVisualizer.html" xlink:title="Simple Module NetworkNodeCanvasVisualizer" target="_parent">
<polygon fill="#fff700" stroke="black" points="242,-19 75,-19 75,0 242,0 242,-19"/>
<text text-anchor="middle" x="158.5" y="-7" font-family="Helvetica,sans-Serif" font-size="10.00">NetworkNodeCanvasVisualizer</text>
</a>
</g>
</g>
<!-- NetworkNodeVisualizerBase -->
<g id="node2" class="node">
<title>NetworkNodeVisualizerBase</title>
<g id="a_node2"><a xlink:href="inet.visualizer.base.NetworkNodeVisualizerBase.html" xlink:title="Simple Module NetworkNodeVisualizerBase" target="_parent">
<polygon fill="#fffcaf" stroke="black" points="155,-74 0,-74 0,-55 155,-55 155,-74"/>
<text text-anchor="middle" x="77.5" y="-62" font-family="Helvetica,sans-Serif" font-size="10.00">NetworkNodeVisualizerBase</text>
</a>
</g>
</g>
<!-- NetworkNodeVisualizerBase&#45;&gt;NetworkNodeCanvasVisualizer -->
<g id="edge1" class="edge">
<title>NetworkNodeVisualizerBase&#45;&gt;NetworkNodeCanvasVisualizer</title>
<path fill="none" stroke="black" d="M90.51,-54.98C105.54,-45.15 130.12,-29.07 145.25,-19.17"/>
</g>
<!-- INetworkNodeVisualizer -->
<g id="node3" class="node">
<title>INetworkNodeVisualizer</title>
<g id="a_node3"><a xlink:href="inet.visualizer.contract.INetworkNodeVisualizer.html" xlink:title="Module Interface INetworkNodeVisualizer" target="_parent">
<polygon fill="#fffcaf" stroke="black" stroke-dasharray="5,2" points="307.5,-74 173.5,-74 173.5,-55 307.5,-55 307.5,-74"/>
<text text-anchor="middle" x="240.5" y="-62" font-family="Helvetica,sans-Serif" font-size="10.00">INetworkNodeVisualizer</text>
</a>
</g>
</g>
<!-- INetworkNodeVisualizer&#45;&gt;NetworkNodeCanvasVisualizer -->
<g id="edge2" class="edge">
<title>INetworkNodeVisualizer&#45;&gt;NetworkNodeCanvasVisualizer</title>
<path fill="none" stroke="black" stroke-dasharray="5,2" d="M227.33,-54.98C212.11,-45.15 187.23,-29.07 171.91,-19.17"/>
</g>
</g>
</svg>
