<?xml version="1.0" encoding="UTF-8" standalone="no"?>
<!DOCTYPE svg PUBLIC "-//W3C//DTD SVG 1.1//EN"
 "http://www.w3.org/Graphics/SVG/1.1/DTD/svg11.dtd">
<!-- Generated by graphviz version 2.43.0 (0)
 -->
<!-- Title: opp Pages: 1 -->
<svg width="288pt" height="82pt"
 viewBox="0.00 0.00 288.00 82.00" xmlns="http://www.w3.org/2000/svg" xmlns:xlink="http://www.w3.org/1999/xlink">
<g id="graph0" class="graph" transform="scale(1 1) rotate(0) translate(4 78)">
<title>opp</title>
<polygon fill="transparent" stroke="transparent" points="-4,4 -4,-78 284,-78 284,4 -4,4"/>
<!-- ILinkBreakVisualizer -->
<g id="node1" class="node">
<title>ILinkBreakVisualizer</title>
<g id="a_node1"><a xlink:href="inet.visualizer.contract.ILinkBreakVisualizer.html" xlink:title="Module Interface ILinkBreakVisualizer" target="_parent">
<polygon fill="#fff700" stroke="black" stroke-dasharray="5,2" points="206.5,-74 90.5,-74 90.5,-55 206.5,-55 206.5,-74"/>
<text text-anchor="middle" x="148.5" y="-62" font-family="Helvetica,sans-Serif" font-size="10.00">ILinkBreakVisualizer</text>
</a>
</g>
</g>
<!-- LinkBreakCanvasVisualizer -->
<g id="node2" class="node">
<title>LinkBreakCanvasVisualizer</title>
<g id="a_node2"><a xlink:href="inet.visualizer.canvas.linklayer.LinkBreakCanvasVisualizer.html" xlink:title="Simple Module LinkBreakCanvasVisualizer" target="_parent">
<polygon fill="#fffcaf" stroke="black" points="149,-19 0,-19 0,0 149,0 149,-19"/>
<text text-anchor="middle" x="74.5" y="-7" font-family="Helvetica,sans-Serif" font-size="10.00">LinkBreakCanvasVisualizer</text>
</a>
</g>
</g>
<!-- ILinkBreakVisualizer&#45;&gt;LinkBreakCanvasVisualizer -->
<g id="edge1" class="edge">
<title>ILinkBreakVisualizer&#45;&gt;LinkBreakCanvasVisualizer</title>
<path fill="none" stroke="black" stroke-dasharray="5,2" d="M136.61,-54.98C122.88,-45.15 100.42,-29.07 86.61,-19.17"/>
</g>
<!-- LinkBreakVisualizer -->
<g id="node3" class="node">
<title>LinkBreakVisualizer</title>
<g id="a_node3"><a xlink:href="inet.visualizer.common.LinkBreakVisualizer.html" xlink:title="Compound Module LinkBreakVisualizer" target="_parent">
<polygon fill="#fffcaf" stroke="black" points="280,-19 167,-19 167,0 280,0 280,-19"/>
<text text-anchor="middle" x="223.5" y="-7" font-family="Helvetica,sans-Serif" font-size="10.00">LinkBreakVisualizer</text>
</a>
</g>
</g>
<!-- ILinkBreakVisualizer&#45;&gt;LinkBreakVisualizer -->
<g id="edge2" class="edge">
<title>ILinkBreakVisualizer&#45;&gt;LinkBreakVisualizer</title>
<path fill="none" stroke="black" stroke-dasharray="5,2" d="M160.55,-54.98C174.46,-45.15 197.23,-29.07 211.23,-19.17"/>
</g>
</g>
</svg>
