<?xml version="1.0" encoding="UTF-8" standalone="no"?>
<!DOCTYPE svg PUBLIC "-//W3C//DTD SVG 1.1//EN"
 "http://www.w3.org/Graphics/SVG/1.1/DTD/svg11.dtd">
<!-- Generated by graphviz version 2.43.0 (0)
 -->
<!-- Title: opp Pages: 1 -->
<svg width="531pt" height="82pt"
 viewBox="0.00 0.00 531.00 82.00" xmlns="http://www.w3.org/2000/svg" xmlns:xlink="http://www.w3.org/1999/xlink">
<g id="graph0" class="graph" transform="scale(1 1) rotate(0) translate(4 78)">
<title>opp</title>
<polygon fill="transparent" stroke="transparent" points="-4,4 -4,-78 527,-78 527,4 -4,4"/>
<!-- RoutingTableVisualizationDisplayingAllShowcase -->
<g id="node1" class="node">
<title>RoutingTableVisualizationDisplayingAllShowcase</title>
<g id="a_node1"><a xlink:href="inet.showcases.visualizer.canvas.routingtable.RoutingTableVisualizationDisplayingAllShowcase.html" xlink:title="Network RoutingTableVisualizationDisplayingAllShowcase" target="_parent">
<polygon fill="#9090ff" stroke="black" points="431.5,-74 175.5,-74 175.5,-55 431.5,-55 431.5,-74"/>
<text text-anchor="middle" x="303.5" y="-62" font-family="Helvetica,sans-Serif" font-size="10.00">RoutingTableVisualizationDisplayingAllShowcase</text>
</a>
</g>
</g>
<!-- IntegratedVisualizer -->
<g id="node2" class="node">
<title>IntegratedVisualizer</title>
<g id="a_node2"><a xlink:href="inet.visualizer.common.IntegratedVisualizer.html" xlink:title="Compound Module IntegratedVisualizer" target="_parent">
<polygon fill="#fffcaf" stroke="black" points="115,-19 0,-19 0,0 115,0 115,-19"/>
<text text-anchor="middle" x="57.5" y="-7" font-family="Helvetica,sans-Serif" font-size="10.00">IntegratedVisualizer</text>
</a>
</g>
</g>
<!-- RoutingTableVisualizationDisplayingAllShowcase&#45;&gt;IntegratedVisualizer -->
<g id="edge1" class="edge">
<title>RoutingTableVisualizationDisplayingAllShowcase&#45;&gt;IntegratedVisualizer</title>
<path fill="none" stroke="black" d="M263.98,-54.98C221.33,-45.8 153.35,-31.15 107.14,-21.19"/>
<polygon fill="black" stroke="black" points="107.85,-17.77 97.33,-19.08 106.37,-24.61 107.85,-17.77"/>
</g>
<!-- StandardHost -->
<g id="node3" class="node">
<title>StandardHost</title>
<g id="a_node3"><a xlink:href="inet.node.inet.StandardHost.html" xlink:title="Compound Module StandardHost" target="_parent">
<polygon fill="#fffcaf" stroke="black" points="216,-19 133,-19 133,0 216,0 216,-19"/>
<text text-anchor="middle" x="174.5" y="-7" font-family="Helvetica,sans-Serif" font-size="10.00">StandardHost</text>
</a>
</g>
</g>
<!-- RoutingTableVisualizationDisplayingAllShowcase&#45;&gt;StandardHost -->
<g id="edge2" class="edge">
<title>RoutingTableVisualizationDisplayingAllShowcase&#45;&gt;StandardHost</title>
<path fill="none" stroke="black" d="M282.77,-54.98C261.74,-46.34 228.95,-32.87 204.96,-23.02"/>
<polygon fill="black" stroke="black" points="206.18,-19.73 195.6,-19.17 203.52,-26.21 206.18,-19.73"/>
</g>
<!-- Ipv4NetworkConfigurator -->
<g id="node4" class="node">
<title>Ipv4NetworkConfigurator</title>
<g id="a_node4"><a xlink:href="inet.networklayer.configurator.ipv4.Ipv4NetworkConfigurator.html" xlink:title="Simple Module Ipv4NetworkConfigurator" target="_parent">
<polygon fill="#fffcaf" stroke="black" points="373,-19 234,-19 234,0 373,0 373,-19"/>
<text text-anchor="middle" x="303.5" y="-7" font-family="Helvetica,sans-Serif" font-size="10.00">Ipv4NetworkConfigurator</text>
</a>
</g>
</g>
<!-- RoutingTableVisualizationDisplayingAllShowcase&#45;&gt;Ipv4NetworkConfigurator -->
<g id="edge3" class="edge">
<title>RoutingTableVisualizationDisplayingAllShowcase&#45;&gt;Ipv4NetworkConfigurator</title>
<path fill="none" stroke="black" d="M303.5,-54.75C303.5,-47.8 303.5,-37.85 303.5,-29.13"/>
<polygon fill="black" stroke="black" points="307,-29.09 303.5,-19.09 300,-29.09 307,-29.09"/>
</g>
<!-- Router -->
<g id="node5" class="node">
<title>Router</title>
<g id="a_node5"><a xlink:href="inet.node.inet.Router.html" xlink:title="Compound Module Router" target="_parent">
<polygon fill="#fffcaf" stroke="black" points="445.5,-19 391.5,-19 391.5,0 445.5,0 445.5,-19"/>
<text text-anchor="middle" x="418.5" y="-7" font-family="Helvetica,sans-Serif" font-size="10.00">Router</text>
</a>
</g>
</g>
<!-- RoutingTableVisualizationDisplayingAllShowcase&#45;&gt;Router -->
<g id="edge4" class="edge">
<title>RoutingTableVisualizationDisplayingAllShowcase&#45;&gt;Router</title>
<path fill="none" stroke="black" d="M321.98,-54.98C340.48,-46.46 369.18,-33.23 390.48,-23.41"/>
<polygon fill="black" stroke="black" points="392.07,-26.53 399.69,-19.17 389.14,-20.18 392.07,-26.53"/>
</g>
<!-- Eth100M -->
<g id="node6" class="node">
<title>Eth100M</title>
<g id="a_node6"><a xlink:href="inet.node.ethernet.Eth100M.html" xlink:title="Channel Eth100M" target="_parent">
<polygon fill="#d0ffd0" stroke="black" points="523,-19 464,-19 464,0 523,0 523,-19"/>
<text text-anchor="middle" x="493.5" y="-7" font-family="Helvetica,sans-Serif" font-size="10.00">Eth100M</text>
</a>
</g>
</g>
<!-- RoutingTableVisualizationDisplayingAllShowcase&#45;&gt;Eth100M -->
<g id="edge5" class="edge">
<title>RoutingTableVisualizationDisplayingAllShowcase&#45;&gt;Eth100M</title>
<path fill="none" stroke="black" d="M334.03,-54.98C366.58,-45.9 418.27,-31.49 453.93,-21.54"/>
<polygon fill="black" stroke="black" points="455.29,-24.79 463.99,-18.73 453.41,-18.05 455.29,-24.79"/>
</g>
</g>
</svg>
