<?xml version="1.0" encoding="UTF-8" standalone="no"?>
<!DOCTYPE svg PUBLIC "-//W3C//DTD SVG 1.1//EN"
 "http://www.w3.org/Graphics/SVG/1.1/DTD/svg11.dtd">
<!-- Generated by graphviz version 2.43.0 (0)
 -->
<!-- Title: opp Pages: 1 -->
<svg width="644pt" height="82pt"
 viewBox="0.00 0.00 644.00 82.00" xmlns="http://www.w3.org/2000/svg" xmlns:xlink="http://www.w3.org/1999/xlink">
<g id="graph0" class="graph" transform="scale(1 1) rotate(0) translate(4 78)">
<title>opp</title>
<polygon fill="transparent" stroke="transparent" points="-4,4 -4,-78 640,-78 640,4 -4,4"/>
<!-- SignalBasedTokenGeneratorTutorialStep -->
<g id="node1" class="node">
<title>SignalBasedTokenGeneratorTutorialStep</title>
<g id="a_node1"><a xlink:href="inet.tutorials.queueing.SignalBasedTokenGeneratorTutorialStep.html" xlink:title="Network SignalBasedTokenGeneratorTutorialStep" target="_parent">
<polygon fill="#9090ff" stroke="black" points="442.5,-74 231.5,-74 231.5,-55 442.5,-55 442.5,-74"/>
<text text-anchor="middle" x="337" y="-62" font-family="Helvetica,sans-Serif" font-size="10.00">SignalBasedTokenGeneratorTutorialStep</text>
</a>
</g>
</g>
<!-- PassivePacketSource -->
<g id="node2" class="node">
<title>PassivePacketSource</title>
<g id="a_node2"><a xlink:href="inet.queueing.source.PassivePacketSource.html" xlink:title="Simple Module PassivePacketSource" target="_parent">
<polygon fill="#fffcaf" stroke="black" points="118,-19 0,-19 0,0 118,0 118,-19"/>
<text text-anchor="middle" x="59" y="-7" font-family="Helvetica,sans-Serif" font-size="10.00">PassivePacketSource</text>
</a>
</g>
</g>
<!-- SignalBasedTokenGeneratorTutorialStep&#45;&gt;PassivePacketSource -->
<g id="edge1" class="edge">
<title>SignalBasedTokenGeneratorTutorialStep&#45;&gt;PassivePacketSource</title>
<path fill="none" stroke="black" d="M292.33,-54.98C243.84,-45.74 166.35,-30.97 114.11,-21.01"/>
<polygon fill="black" stroke="black" points="114.49,-17.52 104.02,-19.08 113.18,-24.39 114.49,-17.52"/>
</g>
<!-- TokenBasedServer -->
<g id="node3" class="node">
<title>TokenBasedServer</title>
<g id="a_node3"><a xlink:href="inet.queueing.server.TokenBasedServer.html" xlink:title="Simple Module TokenBasedServer" target="_parent">
<polygon fill="#fffcaf" stroke="black" points="242,-19 136,-19 136,0 242,0 242,-19"/>
<text text-anchor="middle" x="189" y="-7" font-family="Helvetica,sans-Serif" font-size="10.00">TokenBasedServer</text>
</a>
</g>
</g>
<!-- SignalBasedTokenGeneratorTutorialStep&#45;&gt;TokenBasedServer -->
<g id="edge2" class="edge">
<title>SignalBasedTokenGeneratorTutorialStep&#45;&gt;TokenBasedServer</title>
<path fill="none" stroke="black" d="M313.22,-54.98C288.77,-46.23 250.47,-32.51 222.85,-22.62"/>
<polygon fill="black" stroke="black" points="223.81,-19.25 213.21,-19.17 221.45,-25.84 223.81,-19.25"/>
</g>
<!-- SignalBasedTokenGenerator -->
<g id="node4" class="node">
<title>SignalBasedTokenGenerator</title>
<g id="a_node4"><a xlink:href="inet.queueing.tokengenerator.SignalBasedTokenGenerator.html" xlink:title="Simple Module SignalBasedTokenGenerator" target="_parent">
<polygon fill="#fffcaf" stroke="black" points="413.5,-19 260.5,-19 260.5,0 413.5,0 413.5,-19"/>
<text text-anchor="middle" x="337" y="-7" font-family="Helvetica,sans-Serif" font-size="10.00">SignalBasedTokenGenerator</text>
</a>
</g>
</g>
<!-- SignalBasedTokenGeneratorTutorialStep&#45;&gt;SignalBasedTokenGenerator -->
<g id="edge3" class="edge">
<title>SignalBasedTokenGeneratorTutorialStep&#45;&gt;SignalBasedTokenGenerator</title>
<path fill="none" stroke="black" d="M337,-54.75C337,-47.8 337,-37.85 337,-29.13"/>
<polygon fill="black" stroke="black" points="340.5,-29.09 337,-19.09 333.5,-29.09 340.5,-29.09"/>
</g>
<!-- PassivePacketSink -->
<g id="node5" class="node">
<title>PassivePacketSink</title>
<g id="a_node5"><a xlink:href="inet.queueing.sink.PassivePacketSink.html" xlink:title="Simple Module PassivePacketSink" target="_parent">
<polygon fill="#fffcaf" stroke="black" points="538,-19 432,-19 432,0 538,0 538,-19"/>
<text text-anchor="middle" x="485" y="-7" font-family="Helvetica,sans-Serif" font-size="10.00">PassivePacketSink</text>
</a>
</g>
</g>
<!-- SignalBasedTokenGeneratorTutorialStep&#45;&gt;PassivePacketSink -->
<g id="edge4" class="edge">
<title>SignalBasedTokenGeneratorTutorialStep&#45;&gt;PassivePacketSink</title>
<path fill="none" stroke="black" d="M360.78,-54.98C385.23,-46.23 423.53,-32.51 451.15,-22.62"/>
<polygon fill="black" stroke="black" points="452.55,-25.84 460.79,-19.17 450.19,-19.25 452.55,-25.84"/>
</g>
<!-- IdealChannel -->
<g id="node6" class="node">
<title>IdealChannel</title>
<g id="a_node6"><a xlink:href="ned.IdealChannel.html" xlink:title="Channel IdealChannel" target="_parent">
<polygon fill="#d0ffd0" stroke="black" points="636,-19 556,-19 556,0 636,0 636,-19"/>
<text text-anchor="middle" x="596" y="-7" font-family="Helvetica,sans-Serif" font-size="10.00">IdealChannel</text>
</a>
</g>
</g>
<!-- SignalBasedTokenGeneratorTutorialStep&#45;&gt;IdealChannel -->
<g id="edge5" class="edge">
<title>SignalBasedTokenGeneratorTutorialStep&#45;&gt;IdealChannel</title>
<path fill="none" stroke="black" d="M378.61,-54.98C424.14,-45.67 497.09,-30.74 545.77,-20.78"/>
<polygon fill="black" stroke="black" points="546.67,-24.17 555.77,-18.73 545.27,-17.31 546.67,-24.17"/>
</g>
</g>
</svg>
