<?xml version="1.0" encoding="UTF-8" standalone="no"?>
<!DOCTYPE svg PUBLIC "-//W3C//DTD SVG 1.1//EN"
 "http://www.w3.org/Graphics/SVG/1.1/DTD/svg11.dtd">
<!-- Generated by graphviz version 2.43.0 (0)
 -->
<!-- Title: opp Pages: 1 -->
<svg width="1856pt" height="137pt"
 viewBox="0.00 0.00 1856.00 137.00" xmlns="http://www.w3.org/2000/svg" xmlns:xlink="http://www.w3.org/1999/xlink">
<g id="graph0" class="graph" transform="scale(1 1) rotate(0) translate(4 133)">
<title>opp</title>
<polygon fill="transparent" stroke="transparent" points="-4,4 -4,-133 1852,-133 1852,4 -4,4"/>
<!-- IntegratedMultiVisualizer -->
<g id="node1" class="node">
<title>IntegratedMultiVisualizer</title>
<g id="a_node1"><a xlink:href="inet.visualizer.common.IntegratedMultiVisualizer.html" xlink:title="Compound Module IntegratedMultiVisualizer" target="_parent">
<polygon fill="#fff700" stroke="black" points="1075.5,-74 935.5,-74 935.5,-55 1075.5,-55 1075.5,-74"/>
<text text-anchor="middle" x="1005.5" y="-62" font-family="Helvetica,sans-Serif" font-size="10.00">IntegratedMultiVisualizer</text>
</a>
</g>
</g>
<!-- IIntegratedVisualizer -->
<g id="node2" class="node">
<title>IIntegratedVisualizer</title>
<g id="a_node2"><a xlink:href="inet.visualizer.contract.IIntegratedVisualizer.html" xlink:title="Module Interface IIntegratedVisualizer" target="_parent">
<polygon fill="#fffcaf" stroke="black" stroke-dasharray="5,2" points="1064.5,-19 946.5,-19 946.5,0 1064.5,0 1064.5,-19"/>
<text text-anchor="middle" x="1005.5" y="-7" font-family="Helvetica,sans-Serif" font-size="10.00">IIntegratedVisualizer</text>
</a>
</g>
</g>
<!-- IntegratedMultiVisualizer&#45;&gt;IIntegratedVisualizer -->
<g id="edge1" class="edge">
<title>IntegratedMultiVisualizer&#45;&gt;IIntegratedVisualizer</title>
<path fill="none" stroke="black" d="M1005.5,-54.75C1005.5,-47.8 1005.5,-37.85 1005.5,-29.13"/>
<polygon fill="black" stroke="black" points="1009,-29.09 1005.5,-19.09 1002,-29.09 1009,-29.09"/>
</g>
<!-- AnalogModelShowcaseDistanceNetwork -->
<g id="node3" class="node">
<title>AnalogModelShowcaseDistanceNetwork</title>
<g id="a_node3"><a xlink:href="inet.showcases.wireless.analogmodel.AnalogModelShowcaseDistanceNetwork.html" xlink:title="Network AnalogModelShowcaseDistanceNetwork" target="_parent">
<polygon fill="#d0d0ff" stroke="black" points="213,-129 0,-129 0,-110 213,-110 213,-129"/>
<text text-anchor="middle" x="106.5" y="-117" font-family="Helvetica,sans-Serif" font-size="10.00">AnalogModelShowcaseDistanceNetwork</text>
</a>
</g>
</g>
<!-- AnalogModelShowcaseDistanceNetwork&#45;&gt;IntegratedMultiVisualizer -->
<g id="edge2" class="edge">
<title>AnalogModelShowcaseDistanceNetwork&#45;&gt;IntegratedMultiVisualizer</title>
<path fill="none" stroke="black" d="M213.01,-110.63C216.21,-110.41 219.38,-110.2 222.5,-110 478.99,-93.32 782.97,-77.04 924.94,-69.64"/>
<polygon fill="black" stroke="black" points="925.48,-73.12 935.29,-69.1 925.12,-66.13 925.48,-73.12"/>
</g>
<!-- AnalogModelShowcaseDistanceNetwork_ -->
<g id="node4" class="node">
<title>AnalogModelShowcaseDistanceNetwork_</title>
<g id="a_node4"><a xlink:href="inet.showcases.wireless.analogmodel.AnalogModelShowcaseDistanceNetwork_.html" xlink:title="Network AnalogModelShowcaseDistanceNetwork_" target="_parent">
<polygon fill="#d0d0ff" stroke="black" points="449.5,-129 231.5,-129 231.5,-110 449.5,-110 449.5,-129"/>
<text text-anchor="middle" x="340.5" y="-117" font-family="Helvetica,sans-Serif" font-size="10.00">AnalogModelShowcaseDistanceNetwork_</text>
</a>
</g>
</g>
<!-- AnalogModelShowcaseDistanceNetwork_&#45;&gt;IntegratedMultiVisualizer -->
<g id="edge3" class="edge">
<title>AnalogModelShowcaseDistanceNetwork_&#45;&gt;IntegratedMultiVisualizer</title>
<path fill="none" stroke="black" d="M447.34,-109.98C580.59,-99.36 805.38,-81.45 924.99,-71.92"/>
<polygon fill="black" stroke="black" points="925.48,-75.39 935.17,-71.11 924.92,-68.41 925.48,-75.39"/>
</g>
<!-- AnalogModelShowcaseRoutingNetwork -->
<g id="node5" class="node">
<title>AnalogModelShowcaseRoutingNetwork</title>
<g id="a_node5"><a xlink:href="inet.showcases.wireless.analogmodel.AnalogModelShowcaseRoutingNetwork.html" xlink:title="Network AnalogModelShowcaseRoutingNetwork" target="_parent">
<polygon fill="#d0d0ff" stroke="black" points="675.5,-129 467.5,-129 467.5,-110 675.5,-110 675.5,-129"/>
<text text-anchor="middle" x="571.5" y="-117" font-family="Helvetica,sans-Serif" font-size="10.00">AnalogModelShowcaseRoutingNetwork</text>
</a>
</g>
</g>
<!-- AnalogModelShowcaseRoutingNetwork&#45;&gt;IntegratedMultiVisualizer -->
<g id="edge4" class="edge">
<title>AnalogModelShowcaseRoutingNetwork&#45;&gt;IntegratedMultiVisualizer</title>
<path fill="none" stroke="black" d="M641.23,-109.98C718.78,-100.51 843.85,-85.24 925.37,-75.29"/>
<polygon fill="black" stroke="black" points="926.08,-78.72 935.58,-74.04 925.23,-71.78 926.08,-78.72"/>
</g>
<!-- AntennaOrientation -->
<g id="node6" class="node">
<title>AntennaOrientation</title>
<g id="a_node6"><a xlink:href="inet.showcases.mobility.combining.AntennaOrientation.html" xlink:title="Network AntennaOrientation" target="_parent">
<polygon fill="#d0d0ff" stroke="black" points="805.5,-129 693.5,-129 693.5,-110 805.5,-110 805.5,-129"/>
<text text-anchor="middle" x="749.5" y="-117" font-family="Helvetica,sans-Serif" font-size="10.00">AntennaOrientation</text>
</a>
</g>
</g>
<!-- AntennaOrientation&#45;&gt;IntegratedMultiVisualizer -->
<g id="edge5" class="edge">
<title>AntennaOrientation&#45;&gt;IntegratedMultiVisualizer</title>
<path fill="none" stroke="black" d="M790.63,-109.98C835.1,-100.78 906.05,-86.09 954.15,-76.13"/>
<polygon fill="black" stroke="black" points="954.96,-79.54 964.05,-74.08 953.54,-72.68 954.96,-79.54"/>
</g>
<!-- CombiningMobilityShowcase -->
<g id="node7" class="node">
<title>CombiningMobilityShowcase</title>
<g id="a_node7"><a xlink:href="inet.showcases.mobility.combining.CombiningMobilityShowcase.html" xlink:title="Network CombiningMobilityShowcase" target="_parent">
<polygon fill="#d0d0ff" stroke="black" points="981.5,-129 823.5,-129 823.5,-110 981.5,-110 981.5,-129"/>
<text text-anchor="middle" x="902.5" y="-117" font-family="Helvetica,sans-Serif" font-size="10.00">CombiningMobilityShowcase</text>
</a>
</g>
</g>
<!-- CombiningMobilityShowcase&#45;&gt;IntegratedMultiVisualizer -->
<g id="edge6" class="edge">
<title>CombiningMobilityShowcase&#45;&gt;IntegratedMultiVisualizer</title>
<path fill="none" stroke="black" d="M919.05,-109.98C935.39,-101.57 960.63,-88.59 979.63,-78.81"/>
<polygon fill="black" stroke="black" points="981.36,-81.86 988.65,-74.17 978.16,-75.63 981.36,-81.86"/>
</g>
<!-- DataLinkVisualizerActivityLevelShowcase -->
<g id="node8" class="node">
<title>DataLinkVisualizerActivityLevelShowcase</title>
<g id="a_node8"><a xlink:href="inet.showcases.visualizer.canvas.datalinkactivity.DataLinkVisualizerActivityLevelShowcase.html" xlink:title="Network DataLinkVisualizerActivityLevelShowcase" target="_parent">
<polygon fill="#d0d0ff" stroke="black" points="1220,-129 999,-129 999,-110 1220,-110 1220,-129"/>
<text text-anchor="middle" x="1109.5" y="-117" font-family="Helvetica,sans-Serif" font-size="10.00">DataLinkVisualizerActivityLevelShowcase</text>
</a>
</g>
</g>
<!-- DataLinkVisualizerActivityLevelShowcase&#45;&gt;IntegratedMultiVisualizer -->
<g id="edge7" class="edge">
<title>DataLinkVisualizerActivityLevelShowcase&#45;&gt;IntegratedMultiVisualizer</title>
<path fill="none" stroke="black" d="M1092.79,-109.98C1076.29,-101.57 1050.8,-88.59 1031.62,-78.81"/>
<polygon fill="black" stroke="black" points="1033.01,-75.59 1022.51,-74.17 1029.83,-81.83 1033.01,-75.59"/>
</g>
<!-- Ieee802154Showcase -->
<g id="node9" class="node">
<title>Ieee802154Showcase</title>
<g id="a_node9"><a xlink:href="inet.showcases.wireless.ieee802154.Ieee802154Showcase.html" xlink:title="Network Ieee802154Showcase" target="_parent">
<polygon fill="#d0d0ff" stroke="black" points="1360.5,-129 1238.5,-129 1238.5,-110 1360.5,-110 1360.5,-129"/>
<text text-anchor="middle" x="1299.5" y="-117" font-family="Helvetica,sans-Serif" font-size="10.00">Ieee802154Showcase</text>
</a>
</g>
</g>
<!-- Ieee802154Showcase&#45;&gt;IntegratedMultiVisualizer -->
<g id="edge8" class="edge">
<title>Ieee802154Showcase&#45;&gt;IntegratedMultiVisualizer</title>
<path fill="none" stroke="black" d="M1252.26,-109.98C1200.77,-100.7 1118.34,-85.84 1063.09,-75.88"/>
<polygon fill="black" stroke="black" points="1063.57,-72.41 1053.11,-74.08 1062.33,-79.3 1063.57,-72.41"/>
</g>
<!-- ManetprotocolsShowcaseA -->
<g id="node10" class="node">
<title>ManetprotocolsShowcaseA</title>
<g id="a_node10"><a xlink:href="inet.showcases.routing.manet.ManetprotocolsShowcaseA.html" xlink:title="Network ManetprotocolsShowcaseA" target="_parent">
<polygon fill="#d0d0ff" stroke="black" points="1526.5,-129 1378.5,-129 1378.5,-110 1526.5,-110 1526.5,-129"/>
<text text-anchor="middle" x="1452.5" y="-117" font-family="Helvetica,sans-Serif" font-size="10.00">ManetprotocolsShowcaseA</text>
</a>
</g>
</g>
<!-- ManetprotocolsShowcaseA&#45;&gt;IntegratedMultiVisualizer -->
<g id="edge9" class="edge">
<title>ManetprotocolsShowcaseA&#45;&gt;IntegratedMultiVisualizer</title>
<path fill="none" stroke="black" d="M1380.68,-109.98C1300.05,-100.42 1169.55,-84.95 1085.66,-75"/>
<polygon fill="black" stroke="black" points="1086.01,-71.52 1075.67,-73.82 1085.18,-78.47 1086.01,-71.52"/>
</g>
<!-- ManetprotocolsShowcaseB -->
<g id="node11" class="node">
<title>ManetprotocolsShowcaseB</title>
<g id="a_node11"><a xlink:href="inet.showcases.routing.manet.ManetprotocolsShowcaseB.html" xlink:title="Network ManetprotocolsShowcaseB" target="_parent">
<polygon fill="#d0d0ff" stroke="black" points="1692.5,-129 1544.5,-129 1544.5,-110 1692.5,-110 1692.5,-129"/>
<text text-anchor="middle" x="1618.5" y="-117" font-family="Helvetica,sans-Serif" font-size="10.00">ManetprotocolsShowcaseB</text>
</a>
</g>
</g>
<!-- ManetprotocolsShowcaseB&#45;&gt;IntegratedMultiVisualizer -->
<g id="edge10" class="edge">
<title>ManetprotocolsShowcaseB&#45;&gt;IntegratedMultiVisualizer</title>
<path fill="none" stroke="black" d="M1544.29,-110.83C1541.32,-110.55 1538.38,-110.27 1535.5,-110 1376.23,-95.16 1189.82,-80.03 1085.94,-71.79"/>
<polygon fill="black" stroke="black" points="1086.08,-68.29 1075.84,-70.99 1085.53,-75.27 1086.08,-68.29"/>
</g>
<!-- PcapRecordingShowcase -->
<g id="node12" class="node">
<title>PcapRecordingShowcase</title>
<g id="a_node12"><a xlink:href="inet.showcases.general.pcaprecording.PcapRecordingShowcase.html" xlink:title="Network PcapRecordingShowcase" target="_parent">
<polygon fill="#d0d0ff" stroke="black" points="1848,-129 1711,-129 1711,-110 1848,-110 1848,-129"/>
<text text-anchor="middle" x="1779.5" y="-117" font-family="Helvetica,sans-Serif" font-size="10.00">PcapRecordingShowcase</text>
</a>
</g>
</g>
<!-- PcapRecordingShowcase&#45;&gt;IntegratedMultiVisualizer -->
<g id="edge11" class="edge">
<title>PcapRecordingShowcase&#45;&gt;IntegratedMultiVisualizer</title>
<path fill="none" stroke="black" d="M1710.61,-110.82C1707.53,-110.53 1704.49,-110.26 1701.5,-110 1478.93,-90.77 1215.66,-76.14 1085.96,-69.47"/>
<polygon fill="black" stroke="black" points="1085.89,-65.97 1075.72,-68.95 1085.53,-72.96 1085.89,-65.97"/>
</g>
</g>
</svg>
