<?xml version="1.0" encoding="UTF-8" standalone="no"?>
<!DOCTYPE svg PUBLIC "-//W3C//DTD SVG 1.1//EN"
 "http://www.w3.org/Graphics/SVG/1.1/DTD/svg11.dtd">
<!-- Generated by graphviz version 2.43.0 (0)
 -->
<!-- Title: opp Pages: 1 -->
<svg width="174pt" height="137pt"
 viewBox="0.00 0.00 174.00 137.00" xmlns="http://www.w3.org/2000/svg" xmlns:xlink="http://www.w3.org/1999/xlink">
<g id="graph0" class="graph" transform="scale(1 1) rotate(0) translate(4 133)">
<title>opp</title>
<polygon fill="transparent" stroke="transparent" points="-4,4 -4,-133 170,-133 170,4 -4,4"/>
<!-- EpEnergyConsumerBase -->
<g id="node1" class="node">
<title>EpEnergyConsumerBase</title>
<g id="a_node1"><a xlink:href="inet.power.base.EpEnergyConsumerBase.html" xlink:title="Simple Module EpEnergyConsumerBase" target="_parent">
<polygon fill="#fff700" stroke="black" points="151,-74 15,-74 15,-55 151,-55 151,-74"/>
<text text-anchor="middle" x="83" y="-62" font-family="Helvetica,sans-Serif" font-size="10.00">EpEnergyConsumerBase</text>
</a>
</g>
</g>
<!-- AlternatingEpEnergyConsumer -->
<g id="node3" class="node">
<title>AlternatingEpEnergyConsumer</title>
<g id="a_node3"><a xlink:href="inet.power.consumer.AlternatingEpEnergyConsumer.html" xlink:title="Simple Module AlternatingEpEnergyConsumer" target="_parent">
<polygon fill="#fffcaf" stroke="black" points="166,-19 0,-19 0,0 166,0 166,-19"/>
<text text-anchor="middle" x="83" y="-7" font-family="Helvetica,sans-Serif" font-size="10.00">AlternatingEpEnergyConsumer</text>
</a>
</g>
</g>
<!-- EpEnergyConsumerBase&#45;&gt;AlternatingEpEnergyConsumer -->
<g id="edge2" class="edge">
<title>EpEnergyConsumerBase&#45;&gt;AlternatingEpEnergyConsumer</title>
<path fill="none" stroke="black" d="M83,-54.75C83,-44.87 83,-28.9 83,-19.09"/>
</g>
<!-- IEpEnergyConsumer -->
<g id="node2" class="node">
<title>IEpEnergyConsumer</title>
<g id="a_node2"><a xlink:href="inet.power.contract.IEpEnergyConsumer.html" xlink:title="Module Interface IEpEnergyConsumer" target="_parent">
<polygon fill="#fffcaf" stroke="black" stroke-dasharray="5,2" points="140.5,-129 25.5,-129 25.5,-110 140.5,-110 140.5,-129"/>
<text text-anchor="middle" x="83" y="-117" font-family="Helvetica,sans-Serif" font-size="10.00">IEpEnergyConsumer</text>
</a>
</g>
</g>
<!-- IEpEnergyConsumer&#45;&gt;EpEnergyConsumerBase -->
<g id="edge1" class="edge">
<title>IEpEnergyConsumer&#45;&gt;EpEnergyConsumerBase</title>
<path fill="none" stroke="black" stroke-dasharray="5,2" d="M83,-109.75C83,-99.87 83,-83.9 83,-74.09"/>
</g>
</g>
</svg>
