<?xml version="1.0" encoding="UTF-8" standalone="no"?>
<!DOCTYPE svg PUBLIC "-//W3C//DTD SVG 1.1//EN"
 "http://www.w3.org/Graphics/SVG/1.1/DTD/svg11.dtd">
<!-- Generated by graphviz version 2.43.0 (0)
 -->
<!-- Title: opp Pages: 1 -->
<svg width="1635pt" height="82pt"
 viewBox="0.00 0.00 1635.00 82.00" xmlns="http://www.w3.org/2000/svg" xmlns:xlink="http://www.w3.org/1999/xlink">
<g id="graph0" class="graph" transform="scale(1 1) rotate(0) translate(4 78)">
<title>opp</title>
<polygon fill="transparent" stroke="transparent" points="-4,4 -4,-78 1631,-78 1631,4 -4,4"/>
<!-- InterfaceService -->
<g id="node1" class="node">
<title>InterfaceService</title>
<g id="a_node1"><a xlink:href="inet.protocolelement.service.InterfaceService.html" xlink:title="Compound Module InterfaceService" target="_parent">
<polygon fill="#fff700" stroke="black" points="912.5,-74 816.5,-74 816.5,-55 912.5,-55 912.5,-74"/>
<text text-anchor="middle" x="864.5" y="-62" font-family="Helvetica,sans-Serif" font-size="10.00">InterfaceService</text>
</a>
</g>
</g>
<!-- ReceiveWithAcknowledge -->
<g id="node2" class="node">
<title>ReceiveWithAcknowledge</title>
<g id="a_node2"><a xlink:href="inet.protocolelement.acknowledgement.ReceiveWithAcknowledge.html" xlink:title="Simple Module ReceiveWithAcknowledge" target="_parent">
<polygon fill="#fffcaf" stroke="black" points="143,-19 0,-19 0,0 143,0 143,-19"/>
<text text-anchor="middle" x="71.5" y="-7" font-family="Helvetica,sans-Serif" font-size="10.00">ReceiveWithAcknowledge</text>
</a>
</g>
</g>
<!-- InterfaceService&#45;&gt;ReceiveWithAcknowledge -->
<g id="edge1" class="edge">
<title>InterfaceService&#45;&gt;ReceiveWithAcknowledge</title>
<path fill="none" stroke="black" d="M816.1,-61.18C702.5,-55.58 409.67,-40.27 153.29,-19.03"/>
<polygon fill="black" stroke="black" points="153.29,-15.52 143.04,-18.17 152.71,-22.49 153.29,-15.52"/>
</g>
<!-- ReceiveWithProtocol -->
<g id="node3" class="node">
<title>ReceiveWithProtocol</title>
<g id="a_node3"><a xlink:href="inet.protocolelement.dispatching.ReceiveWithProtocol.html" xlink:title="Simple Module ReceiveWithProtocol" target="_parent">
<polygon fill="#fffcaf" stroke="black" points="279.5,-19 161.5,-19 161.5,0 279.5,0 279.5,-19"/>
<text text-anchor="middle" x="220.5" y="-7" font-family="Helvetica,sans-Serif" font-size="10.00">ReceiveWithProtocol</text>
</a>
</g>
</g>
<!-- InterfaceService&#45;&gt;ReceiveWithProtocol -->
<g id="edge2" class="edge">
<title>InterfaceService&#45;&gt;ReceiveWithProtocol</title>
<path fill="none" stroke="black" d="M816.26,-60.55C718.87,-54.42 491.55,-39.26 290,-19.11"/>
<polygon fill="black" stroke="black" points="290.12,-15.6 279.82,-18.08 289.42,-22.57 290.12,-15.6"/>
</g>
<!-- CrcHeaderInserter -->
<g id="node4" class="node">
<title>CrcHeaderInserter</title>
<g id="a_node4"><a xlink:href="inet.protocolelement.checksum.CrcHeaderInserter.html" xlink:title="Simple Module CrcHeaderInserter" target="_parent">
<polygon fill="#fffcaf" stroke="black" points="403,-19 298,-19 298,0 403,0 403,-19"/>
<text text-anchor="middle" x="350.5" y="-7" font-family="Helvetica,sans-Serif" font-size="10.00">CrcHeaderInserter</text>
</a>
</g>
</g>
<!-- InterfaceService&#45;&gt;CrcHeaderInserter -->
<g id="edge3" class="edge">
<title>InterfaceService&#45;&gt;CrcHeaderInserter</title>
<path fill="none" stroke="black" d="M816.49,-59.43C735.49,-52.42 566.31,-37.17 413.12,-19.15"/>
<polygon fill="black" stroke="black" points="413.4,-15.66 403.05,-17.96 412.57,-22.61 413.4,-15.66"/>
</g>
<!-- ReceiveAtMacAddress -->
<g id="node5" class="node">
<title>ReceiveAtMacAddress</title>
<g id="a_node5"><a xlink:href="inet.protocolelement.selectivity.ReceiveAtMacAddress.html" xlink:title="Simple Module ReceiveAtMacAddress" target="_parent">
<polygon fill="#fffcaf" stroke="black" points="546,-19 421,-19 421,0 546,0 546,-19"/>
<text text-anchor="middle" x="483.5" y="-7" font-family="Helvetica,sans-Serif" font-size="10.00">ReceiveAtMacAddress</text>
</a>
</g>
</g>
<!-- InterfaceService&#45;&gt;ReceiveAtMacAddress -->
<g id="edge4" class="edge">
<title>InterfaceService&#45;&gt;ReceiveAtMacAddress</title>
<path fill="none" stroke="black" d="M816.25,-56.79C750.23,-47.6 631.26,-31.05 554.91,-20.43"/>
<polygon fill="black" stroke="black" points="555.27,-16.95 544.89,-19.04 554.31,-23.88 555.27,-16.95"/>
</g>
<!-- PacketTransmitter -->
<g id="node6" class="node">
<title>PacketTransmitter</title>
<g id="a_node6"><a xlink:href="inet.protocolelement.transceiver.PacketTransmitter.html" xlink:title="Simple Module PacketTransmitter" target="_parent">
<polygon fill="#fffcaf" stroke="black" points="668.5,-19 564.5,-19 564.5,0 668.5,0 668.5,-19"/>
<text text-anchor="middle" x="616.5" y="-7" font-family="Helvetica,sans-Serif" font-size="10.00">PacketTransmitter</text>
</a>
</g>
</g>
<!-- InterfaceService&#45;&gt;PacketTransmitter -->
<g id="edge5" class="edge">
<title>InterfaceService&#45;&gt;PacketTransmitter</title>
<path fill="none" stroke="black" d="M824.65,-54.98C781.67,-45.8 713.13,-31.15 666.54,-21.19"/>
<polygon fill="black" stroke="black" points="667.17,-17.75 656.66,-19.08 665.71,-24.59 667.17,-17.75"/>
</g>
<!-- SendWithProtocol -->
<g id="node7" class="node">
<title>SendWithProtocol</title>
<g id="a_node7"><a xlink:href="inet.protocolelement.dispatching.SendWithProtocol.html" xlink:title="Simple Module SendWithProtocol" target="_parent">
<polygon fill="#fffcaf" stroke="black" points="790,-19 687,-19 687,0 790,0 790,-19"/>
<text text-anchor="middle" x="738.5" y="-7" font-family="Helvetica,sans-Serif" font-size="10.00">SendWithProtocol</text>
</a>
</g>
</g>
<!-- InterfaceService&#45;&gt;SendWithProtocol -->
<g id="edge6" class="edge">
<title>InterfaceService&#45;&gt;SendWithProtocol</title>
<path fill="none" stroke="black" d="M844.26,-54.98C823.8,-46.38 791.97,-32.99 768.57,-23.15"/>
<polygon fill="black" stroke="black" points="769.69,-19.82 759.11,-19.17 766.97,-26.27 769.69,-19.82"/>
</g>
<!-- MessageDispatcher -->
<g id="node8" class="node">
<title>MessageDispatcher</title>
<g id="a_node8"><a xlink:href="inet.common.MessageDispatcher.html" xlink:title="Simple Module MessageDispatcher" target="_parent">
<polygon fill="#fffcaf" stroke="black" points="921,-19 808,-19 808,0 921,0 921,-19"/>
<text text-anchor="middle" x="864.5" y="-7" font-family="Helvetica,sans-Serif" font-size="10.00">MessageDispatcher</text>
</a>
</g>
</g>
<!-- InterfaceService&#45;&gt;MessageDispatcher -->
<g id="edge7" class="edge">
<title>InterfaceService&#45;&gt;MessageDispatcher</title>
<path fill="none" stroke="black" d="M864.5,-54.75C864.5,-47.8 864.5,-37.85 864.5,-29.13"/>
<polygon fill="black" stroke="black" points="868,-29.09 864.5,-19.09 861,-29.09 868,-29.09"/>
</g>
<!-- SendWithAcknowledge -->
<g id="node9" class="node">
<title>SendWithAcknowledge</title>
<g id="a_node9"><a xlink:href="inet.protocolelement.acknowledgement.SendWithAcknowledge.html" xlink:title="Simple Module SendWithAcknowledge" target="_parent">
<polygon fill="#fffcaf" stroke="black" points="1067.5,-19 939.5,-19 939.5,0 1067.5,0 1067.5,-19"/>
<text text-anchor="middle" x="1003.5" y="-7" font-family="Helvetica,sans-Serif" font-size="10.00">SendWithAcknowledge</text>
</a>
</g>
</g>
<!-- InterfaceService&#45;&gt;SendWithAcknowledge -->
<g id="edge8" class="edge">
<title>InterfaceService&#45;&gt;SendWithAcknowledge</title>
<path fill="none" stroke="black" d="M886.83,-54.98C909.7,-46.27 945.46,-32.63 971.36,-22.75"/>
<polygon fill="black" stroke="black" points="972.66,-26 980.76,-19.17 970.17,-19.46 972.66,-26"/>
</g>
<!-- SendToMacAddress -->
<g id="node10" class="node">
<title>SendToMacAddress</title>
<g id="a_node10"><a xlink:href="inet.protocolelement.selectivity.SendToMacAddress.html" xlink:title="Simple Module SendToMacAddress" target="_parent">
<polygon fill="#fffcaf" stroke="black" points="1195.5,-19 1085.5,-19 1085.5,0 1195.5,0 1195.5,-19"/>
<text text-anchor="middle" x="1140.5" y="-7" font-family="Helvetica,sans-Serif" font-size="10.00">SendToMacAddress</text>
</a>
</g>
</g>
<!-- InterfaceService&#45;&gt;SendToMacAddress -->
<g id="edge9" class="edge">
<title>InterfaceService&#45;&gt;SendToMacAddress</title>
<path fill="none" stroke="black" d="M908.84,-54.98C956.99,-45.74 1033.92,-30.97 1085.79,-21.01"/>
<polygon fill="black" stroke="black" points="1086.65,-24.41 1095.81,-19.08 1085.33,-17.53 1086.65,-24.41"/>
</g>
<!-- CrcHeaderChecker -->
<g id="node11" class="node">
<title>CrcHeaderChecker</title>
<g id="a_node11"><a xlink:href="inet.protocolelement.checksum.CrcHeaderChecker.html" xlink:title="Simple Module CrcHeaderChecker" target="_parent">
<polygon fill="#fffcaf" stroke="black" points="1321,-19 1214,-19 1214,0 1321,0 1321,-19"/>
<text text-anchor="middle" x="1267.5" y="-7" font-family="Helvetica,sans-Serif" font-size="10.00">CrcHeaderChecker</text>
</a>
</g>
</g>
<!-- InterfaceService&#45;&gt;CrcHeaderChecker -->
<g id="edge10" class="edge">
<title>InterfaceService&#45;&gt;CrcHeaderChecker</title>
<path fill="none" stroke="black" d="M912.65,-57.26C976.61,-48.96 1093.39,-33.75 1203.9,-19.08"/>
<polygon fill="black" stroke="black" points="1204.43,-22.53 1213.89,-17.75 1203.51,-15.6 1204.43,-22.53"/>
</g>
<!-- IdealChannel -->
<g id="node12" class="node">
<title>IdealChannel</title>
<g id="a_node12"><a xlink:href="ned.IdealChannel.html" xlink:title="Channel IdealChannel" target="_parent">
<polygon fill="#d0ffd0" stroke="black" points="1419.5,-19 1339.5,-19 1339.5,0 1419.5,0 1419.5,-19"/>
<text text-anchor="middle" x="1379.5" y="-7" font-family="Helvetica,sans-Serif" font-size="10.00">IdealChannel</text>
</a>
</g>
</g>
<!-- InterfaceService&#45;&gt;IdealChannel -->
<g id="edge11" class="edge">
<title>InterfaceService&#45;&gt;IdealChannel</title>
<path fill="none" stroke="black" d="M912.6,-60.13C995.56,-54.04 1171.08,-40.01 1329.5,-19.03"/>
<polygon fill="black" stroke="black" points="1329.98,-22.5 1339.43,-17.71 1329.05,-15.56 1329.98,-22.5"/>
</g>
<!-- Resending -->
<g id="node13" class="node">
<title>Resending</title>
<g id="a_node13"><a xlink:href="inet.protocolelement.acknowledgement.Resending.html" xlink:title="Simple Module Resending" target="_parent">
<polygon fill="#fffcaf" stroke="black" points="1505.5,-19 1437.5,-19 1437.5,0 1505.5,0 1505.5,-19"/>
<text text-anchor="middle" x="1471.5" y="-7" font-family="Helvetica,sans-Serif" font-size="10.00">Resending</text>
</a>
</g>
</g>
<!-- InterfaceService&#45;&gt;Resending -->
<g id="edge12" class="edge">
<title>InterfaceService&#45;&gt;Resending</title>
<path fill="none" stroke="black" d="M912.61,-61.59C1008.63,-57.38 1230.98,-45.58 1427.37,-18.99"/>
<polygon fill="black" stroke="black" points="1427.86,-22.46 1437.29,-17.63 1426.91,-15.52 1427.86,-22.46"/>
</g>
<!-- PacketMultiplexer -->
<g id="node14" class="node">
<title>PacketMultiplexer</title>
<g id="a_node14"><a xlink:href="inet.queueing.common.PacketMultiplexer.html" xlink:title="Simple Module PacketMultiplexer" target="_parent">
<polygon fill="#fffcaf" stroke="black" points="1627,-19 1524,-19 1524,0 1627,0 1627,-19"/>
<text text-anchor="middle" x="1575.5" y="-7" font-family="Helvetica,sans-Serif" font-size="10.00">PacketMultiplexer</text>
</a>
</g>
</g>
<!-- InterfaceService&#45;&gt;PacketMultiplexer -->
<g id="edge13" class="edge">
<title>InterfaceService&#45;&gt;PacketMultiplexer</title>
<path fill="none" stroke="black" d="M912.71,-61.36C1019.15,-56.38 1282.45,-42.69 1513.99,-18.97"/>
<polygon fill="black" stroke="black" points="1514.36,-22.45 1523.95,-17.94 1513.64,-15.49 1514.36,-22.45"/>
</g>
</g>
</svg>
