<?xml version="1.0" encoding="UTF-8" standalone="no"?>
<!DOCTYPE svg PUBLIC "-//W3C//DTD SVG 1.1//EN"
 "http://www.w3.org/Graphics/SVG/1.1/DTD/svg11.dtd">
<!-- Generated by graphviz version 2.43.0 (0)
 -->
<!-- Title: opp Pages: 1 -->
<svg width="566pt" height="82pt"
 viewBox="0.00 0.00 565.50 82.00" xmlns="http://www.w3.org/2000/svg" xmlns:xlink="http://www.w3.org/1999/xlink">
<g id="graph0" class="graph" transform="scale(1 1) rotate(0) translate(4 78)">
<title>opp</title>
<polygon fill="transparent" stroke="transparent" points="-4,4 -4,-78 561.5,-78 561.5,4 -4,4"/>
<!-- LayeredApsk -->
<g id="node1" class="node">
<title>LayeredApsk</title>
<g id="a_node1"><a xlink:href="inet.examples.wireless.layeredapsk.LayeredApsk.html" xlink:title="Network LayeredApsk" target="_parent">
<polygon fill="#9090ff" stroke="black" points="307,-74 227,-74 227,-55 307,-55 307,-74"/>
<text text-anchor="middle" x="267" y="-62" font-family="Helvetica,sans-Serif" font-size="10.00">LayeredApsk</text>
</a>
</g>
</g>
<!-- IIntegratedVisualizer -->
<g id="node2" class="node">
<title>IIntegratedVisualizer</title>
<g id="a_node2"><a xlink:href="inet.visualizer.contract.IIntegratedVisualizer.html" xlink:title="Module Interface IIntegratedVisualizer" target="_parent">
<polygon fill="#fffcaf" stroke="black" stroke-dasharray="5,2" points="118,-19 0,-19 0,0 118,0 118,-19"/>
<text text-anchor="middle" x="59" y="-7" font-family="Helvetica,sans-Serif" font-size="10.00">IIntegratedVisualizer</text>
</a>
</g>
</g>
<!-- LayeredApsk&#45;&gt;IIntegratedVisualizer -->
<g id="edge1" class="edge">
<title>LayeredApsk&#45;&gt;IIntegratedVisualizer</title>
<path fill="none" stroke="black" d="M233.58,-54.98C198.06,-45.93 141.73,-31.58 102.7,-21.64"/>
<polygon fill="black" stroke="black" points="103.24,-18.16 92.68,-19.08 101.51,-24.94 103.24,-18.16"/>
</g>
<!-- Ipv4NetworkConfigurator -->
<g id="node3" class="node">
<title>Ipv4NetworkConfigurator</title>
<g id="a_node3"><a xlink:href="inet.networklayer.configurator.ipv4.Ipv4NetworkConfigurator.html" xlink:title="Simple Module Ipv4NetworkConfigurator" target="_parent">
<polygon fill="#fffcaf" stroke="black" points="275.5,-19 136.5,-19 136.5,0 275.5,0 275.5,-19"/>
<text text-anchor="middle" x="206" y="-7" font-family="Helvetica,sans-Serif" font-size="10.00">Ipv4NetworkConfigurator</text>
</a>
</g>
</g>
<!-- LayeredApsk&#45;&gt;Ipv4NetworkConfigurator -->
<g id="edge2" class="edge">
<title>LayeredApsk&#45;&gt;Ipv4NetworkConfigurator</title>
<path fill="none" stroke="black" d="M257.2,-54.98C248.18,-47.15 234.59,-35.34 223.68,-25.86"/>
<polygon fill="black" stroke="black" points="225.82,-23.09 215.98,-19.17 221.23,-28.37 225.82,-23.09"/>
</g>
<!-- AdhocHost -->
<g id="node4" class="node">
<title>AdhocHost</title>
<g id="a_node4"><a xlink:href="inet.node.inet.AdhocHost.html" xlink:title="Compound Module AdhocHost" target="_parent">
<polygon fill="#fffcaf" stroke="black" points="362.5,-19 293.5,-19 293.5,0 362.5,0 362.5,-19"/>
<text text-anchor="middle" x="328" y="-7" font-family="Helvetica,sans-Serif" font-size="10.00">AdhocHost</text>
</a>
</g>
</g>
<!-- LayeredApsk&#45;&gt;AdhocHost -->
<g id="edge3" class="edge">
<title>LayeredApsk&#45;&gt;AdhocHost</title>
<path fill="none" stroke="black" d="M276.8,-54.98C285.82,-47.15 299.41,-35.34 310.32,-25.86"/>
<polygon fill="black" stroke="black" points="312.77,-28.37 318.02,-19.17 308.18,-23.09 312.77,-28.37"/>
</g>
<!-- ApskLayeredScalarRadioMedium -->
<g id="node5" class="node">
<title>ApskLayeredScalarRadioMedium</title>
<g id="a_node5"><a xlink:href="inet.physicallayer.wireless.apsk.bitlevel.ApskLayeredScalarRadioMedium.html" xlink:title="Compound Module ApskLayeredScalarRadioMedium" target="_parent">
<polygon fill="#fffcaf" stroke="black" points="557.5,-19 380.5,-19 380.5,0 557.5,0 557.5,-19"/>
<text text-anchor="middle" x="469" y="-7" font-family="Helvetica,sans-Serif" font-size="10.00">ApskLayeredScalarRadioMedium</text>
</a>
</g>
</g>
<!-- LayeredApsk&#45;&gt;ApskLayeredScalarRadioMedium -->
<g id="edge4" class="edge">
<title>LayeredApsk&#45;&gt;ApskLayeredScalarRadioMedium</title>
<path fill="none" stroke="black" d="M299.45,-54.98C333.96,-45.93 388.66,-31.58 426.56,-21.64"/>
<polygon fill="black" stroke="black" points="427.51,-25.01 436.29,-19.08 425.73,-18.23 427.51,-25.01"/>
</g>
</g>
</svg>
