<?xml version="1.0" encoding="UTF-8" standalone="no"?>
<!DOCTYPE svg PUBLIC "-//W3C//DTD SVG 1.1//EN"
 "http://www.w3.org/Graphics/SVG/1.1/DTD/svg11.dtd">
<!-- Generated by graphviz version 2.43.0 (0)
 -->
<!-- Title: opp Pages: 1 -->
<svg width="537pt" height="82pt"
 viewBox="0.00 0.00 537.00 82.00" xmlns="http://www.w3.org/2000/svg" xmlns:xlink="http://www.w3.org/1999/xlink">
<g id="graph0" class="graph" transform="scale(1 1) rotate(0) translate(4 78)">
<title>opp</title>
<polygon fill="transparent" stroke="transparent" points="-4,4 -4,-78 533,-78 533,4 -4,4"/>
<!-- UdpApp -->
<g id="node1" class="node">
<title>UdpApp</title>
<g id="a_node1"><a xlink:href="inet.applications.udpapp.UdpApp.html" xlink:title="Compound Module UdpApp" target="_parent">
<polygon fill="#fff700" stroke="black" points="305,-74 250,-74 250,-55 305,-55 305,-74"/>
<text text-anchor="middle" x="277.5" y="-62" font-family="Helvetica,sans-Serif" font-size="10.00">UdpApp</text>
</a>
</g>
</g>
<!-- IPassivePacketSink -->
<g id="node2" class="node">
<title>IPassivePacketSink</title>
<g id="a_node2"><a xlink:href="inet.queueing.contract.IPassivePacketSink.html" xlink:title="Module Interface IPassivePacketSink" target="_parent">
<polygon fill="#fffcaf" stroke="black" stroke-dasharray="5,2" points="109,-19 0,-19 0,0 109,0 109,-19"/>
<text text-anchor="middle" x="54.5" y="-7" font-family="Helvetica,sans-Serif" font-size="10.00">IPassivePacketSink</text>
</a>
</g>
</g>
<!-- UdpApp&#45;&gt;IPassivePacketSink -->
<g id="edge1" class="edge">
<title>UdpApp&#45;&gt;IPassivePacketSink</title>
<path fill="none" stroke="black" d="M249.71,-56.89C212.26,-47.99 145.12,-32.04 100.19,-21.36"/>
<polygon fill="black" stroke="black" points="100.94,-17.94 90.4,-19.03 99.32,-24.75 100.94,-17.94"/>
</g>
<!-- IPacketFlow -->
<g id="node3" class="node">
<title>IPacketFlow</title>
<g id="a_node3"><a xlink:href="inet.queueing.contract.IPacketFlow.html" xlink:title="Module Interface IPacketFlow" target="_parent">
<polygon fill="#fffcaf" stroke="black" stroke-dasharray="5,2" points="201.5,-19 127.5,-19 127.5,0 201.5,0 201.5,-19"/>
<text text-anchor="middle" x="164.5" y="-7" font-family="Helvetica,sans-Serif" font-size="10.00">IPacketFlow</text>
</a>
</g>
</g>
<!-- UdpApp&#45;&gt;IPacketFlow -->
<g id="edge2" class="edge">
<title>UdpApp&#45;&gt;IPacketFlow</title>
<path fill="none" stroke="black" d="M259.34,-54.98C241.25,-46.5 213.22,-33.35 192.31,-23.54"/>
<polygon fill="black" stroke="black" points="193.53,-20.25 182.99,-19.17 190.55,-26.59 193.53,-20.25"/>
</g>
<!-- IActivePacketSource -->
<g id="node4" class="node">
<title>IActivePacketSource</title>
<g id="a_node4"><a xlink:href="inet.queueing.contract.IActivePacketSource.html" xlink:title="Module Interface IActivePacketSource" target="_parent">
<polygon fill="#fffcaf" stroke="black" stroke-dasharray="5,2" points="335,-19 220,-19 220,0 335,0 335,-19"/>
<text text-anchor="middle" x="277.5" y="-7" font-family="Helvetica,sans-Serif" font-size="10.00">IActivePacketSource</text>
</a>
</g>
</g>
<!-- UdpApp&#45;&gt;IActivePacketSource -->
<g id="edge3" class="edge">
<title>UdpApp&#45;&gt;IActivePacketSource</title>
<path fill="none" stroke="black" d="M277.5,-54.75C277.5,-47.8 277.5,-37.85 277.5,-29.13"/>
<polygon fill="black" stroke="black" points="281,-29.09 277.5,-19.09 274,-29.09 281,-29.09"/>
</g>
<!-- IdealChannel -->
<g id="node5" class="node">
<title>IdealChannel</title>
<g id="a_node5"><a xlink:href="ned.IdealChannel.html" xlink:title="Channel IdealChannel" target="_parent">
<polygon fill="#d0ffd0" stroke="black" points="433.5,-19 353.5,-19 353.5,0 433.5,0 433.5,-19"/>
<text text-anchor="middle" x="393.5" y="-7" font-family="Helvetica,sans-Serif" font-size="10.00">IdealChannel</text>
</a>
</g>
</g>
<!-- UdpApp&#45;&gt;IdealChannel -->
<g id="edge4" class="edge">
<title>UdpApp&#45;&gt;IdealChannel</title>
<path fill="none" stroke="black" d="M296.14,-54.98C314.8,-46.46 343.75,-33.23 365.24,-23.41"/>
<polygon fill="black" stroke="black" points="366.88,-26.51 374.52,-19.17 363.97,-20.14 366.88,-26.51"/>
</g>
<!-- UdpSocketIo -->
<g id="node6" class="node">
<title>UdpSocketIo</title>
<g id="a_node6"><a xlink:href="inet.applications.udpapp.UdpSocketIo.html" xlink:title="Simple Module UdpSocketIo" target="_parent">
<polygon fill="#fffcaf" stroke="black" points="529,-19 452,-19 452,0 529,0 529,-19"/>
<text text-anchor="middle" x="490.5" y="-7" font-family="Helvetica,sans-Serif" font-size="10.00">UdpSocketIo</text>
</a>
</g>
</g>
<!-- UdpApp&#45;&gt;UdpSocketIo -->
<g id="edge5" class="edge">
<title>UdpApp&#45;&gt;UdpSocketIo</title>
<path fill="none" stroke="black" d="M305.35,-56.57C341.26,-47.64 404.13,-31.99 446.53,-21.44"/>
<polygon fill="black" stroke="black" points="447.45,-24.82 456.31,-19.01 445.76,-18.03 447.45,-24.82"/>
</g>
</g>
</svg>
