<?xml version="1.0" encoding="UTF-8" standalone="no"?>
<!DOCTYPE svg PUBLIC "-//W3C//DTD SVG 1.1//EN"
 "http://www.w3.org/Graphics/SVG/1.1/DTD/svg11.dtd">
<!-- Generated by graphviz version 2.43.0 (0)
 -->
<!-- Title: opp Pages: 1 -->
<svg width="436pt" height="82pt"
 viewBox="0.00 0.00 435.50 82.00" xmlns="http://www.w3.org/2000/svg" xmlns:xlink="http://www.w3.org/1999/xlink">
<g id="graph0" class="graph" transform="scale(1 1) rotate(0) translate(4 78)">
<title>opp</title>
<polygon fill="transparent" stroke="transparent" points="-4,4 -4,-78 431.5,-78 431.5,4 -4,4"/>
<!-- TransportLayerNodeBase -->
<g id="node1" class="node">
<title>TransportLayerNodeBase</title>
<g id="a_node1"><a xlink:href="inet.node.base.TransportLayerNodeBase.html" xlink:title="Compound Module TransportLayerNodeBase" target="_parent">
<polygon fill="#fff700" stroke="black" points="299.5,-74 161.5,-74 161.5,-55 299.5,-55 299.5,-74"/>
<text text-anchor="middle" x="230.5" y="-62" font-family="Helvetica,sans-Serif" font-size="10.00">TransportLayerNodeBase</text>
</a>
</g>
</g>
<!-- MessageDispatcher -->
<g id="node2" class="node">
<title>MessageDispatcher</title>
<g id="a_node2"><a xlink:href="inet.common.MessageDispatcher.html" xlink:title="Simple Module MessageDispatcher" target="_parent">
<polygon fill="#fffcaf" stroke="black" points="113,-19 0,-19 0,0 113,0 113,-19"/>
<text text-anchor="middle" x="56.5" y="-7" font-family="Helvetica,sans-Serif" font-size="10.00">MessageDispatcher</text>
</a>
</g>
</g>
<!-- TransportLayerNodeBase&#45;&gt;MessageDispatcher -->
<g id="edge1" class="edge">
<title>TransportLayerNodeBase&#45;&gt;MessageDispatcher</title>
<path fill="none" stroke="black" d="M202.54,-54.98C173.2,-46.05 126.9,-31.94 94.31,-22.02"/>
<polygon fill="black" stroke="black" points="95.26,-18.65 84.68,-19.08 93.22,-25.34 95.26,-18.65"/>
</g>
<!-- ITcp -->
<g id="node3" class="node">
<title>ITcp</title>
<g id="a_node3"><a xlink:href="inet.transportlayer.contract.ITcp.html" xlink:title="Module Interface ITcp" target="_parent">
<polygon fill="#fffcaf" stroke="black" stroke-dasharray="5,2" points="185.5,-19 131.5,-19 131.5,0 185.5,0 185.5,-19"/>
<text text-anchor="middle" x="158.5" y="-7" font-family="Helvetica,sans-Serif" font-size="10.00">ITcp</text>
</a>
</g>
</g>
<!-- TransportLayerNodeBase&#45;&gt;ITcp -->
<g id="edge2" class="edge">
<title>TransportLayerNodeBase&#45;&gt;ITcp</title>
<path fill="none" stroke="black" d="M218.93,-54.98C208.08,-47 191.62,-34.88 178.62,-25.31"/>
<polygon fill="black" stroke="black" points="180.41,-22.28 170.28,-19.17 176.26,-27.92 180.41,-22.28"/>
</g>
<!-- ISctp -->
<g id="node4" class="node">
<title>ISctp</title>
<g id="a_node4"><a xlink:href="inet.transportlayer.contract.ISctp.html" xlink:title="Module Interface ISctp" target="_parent">
<polygon fill="#fffcaf" stroke="black" stroke-dasharray="5,2" points="257.5,-19 203.5,-19 203.5,0 257.5,0 257.5,-19"/>
<text text-anchor="middle" x="230.5" y="-7" font-family="Helvetica,sans-Serif" font-size="10.00">ISctp</text>
</a>
</g>
</g>
<!-- TransportLayerNodeBase&#45;&gt;ISctp -->
<g id="edge3" class="edge">
<title>TransportLayerNodeBase&#45;&gt;ISctp</title>
<path fill="none" stroke="black" d="M230.5,-54.75C230.5,-47.8 230.5,-37.85 230.5,-29.13"/>
<polygon fill="black" stroke="black" points="234,-29.09 230.5,-19.09 227,-29.09 234,-29.09"/>
</g>
<!-- IdealChannel -->
<g id="node5" class="node">
<title>IdealChannel</title>
<g id="a_node5"><a xlink:href="ned.IdealChannel.html" xlink:title="Channel IdealChannel" target="_parent">
<polygon fill="#d0ffd0" stroke="black" points="355.5,-19 275.5,-19 275.5,0 355.5,0 355.5,-19"/>
<text text-anchor="middle" x="315.5" y="-7" font-family="Helvetica,sans-Serif" font-size="10.00">IdealChannel</text>
</a>
</g>
</g>
<!-- TransportLayerNodeBase&#45;&gt;IdealChannel -->
<g id="edge4" class="edge">
<title>TransportLayerNodeBase&#45;&gt;IdealChannel</title>
<path fill="none" stroke="black" d="M244.16,-54.98C257.34,-46.77 277.53,-34.18 293.07,-24.49"/>
<polygon fill="black" stroke="black" points="294.96,-27.43 301.59,-19.17 291.26,-21.49 294.96,-27.43"/>
</g>
<!-- IUdp -->
<g id="node6" class="node">
<title>IUdp</title>
<g id="a_node6"><a xlink:href="inet.transportlayer.contract.IUdp.html" xlink:title="Module Interface IUdp" target="_parent">
<polygon fill="#fffcaf" stroke="black" stroke-dasharray="5,2" points="427.5,-19 373.5,-19 373.5,0 427.5,0 427.5,-19"/>
<text text-anchor="middle" x="400.5" y="-7" font-family="Helvetica,sans-Serif" font-size="10.00">IUdp</text>
</a>
</g>
</g>
<!-- TransportLayerNodeBase&#45;&gt;IUdp -->
<g id="edge5" class="edge">
<title>TransportLayerNodeBase&#45;&gt;IUdp</title>
<path fill="none" stroke="black" d="M257.81,-54.98C286.44,-46.06 331.59,-31.98 363.42,-22.06"/>
<polygon fill="black" stroke="black" points="364.75,-25.31 373.25,-18.99 362.67,-18.63 364.75,-25.31"/>
</g>
</g>
</svg>
