<?xml version="1.0" encoding="UTF-8" standalone="no"?>
<!DOCTYPE svg PUBLIC "-//W3C//DTD SVG 1.1//EN"
 "http://www.w3.org/Graphics/SVG/1.1/DTD/svg11.dtd">
<!-- Generated by graphviz version 2.43.0 (0)
 -->
<!-- Title: opp Pages: 1 -->
<svg width="115pt" height="137pt"
 viewBox="0.00 0.00 115.00 137.00" xmlns="http://www.w3.org/2000/svg" xmlns:xlink="http://www.w3.org/1999/xlink">
<g id="graph0" class="graph" transform="scale(1 1) rotate(0) translate(4 133)">
<title>opp</title>
<polygon fill="transparent" stroke="transparent" points="-4,4 -4,-133 111,-133 111,4 -4,4"/>
<!-- CrcCheckerBase -->
<g id="node1" class="node">
<title>CrcCheckerBase</title>
<g id="a_node1"><a xlink:href="inet.protocolelement.checksum.base.CrcCheckerBase.html" xlink:title="Simple Module CrcCheckerBase" target="_parent">
<polygon fill="#fff700" stroke="black" points="101,-74 6,-74 6,-55 101,-55 101,-74"/>
<text text-anchor="middle" x="53.5" y="-62" font-family="Helvetica,sans-Serif" font-size="10.00">CrcCheckerBase</text>
</a>
</g>
</g>
<!-- CrcHeaderChecker -->
<g id="node3" class="node">
<title>CrcHeaderChecker</title>
<g id="a_node3"><a xlink:href="inet.protocolelement.checksum.CrcHeaderChecker.html" xlink:title="Simple Module CrcHeaderChecker" target="_parent">
<polygon fill="#fffcaf" stroke="black" points="107,-19 0,-19 0,0 107,0 107,-19"/>
<text text-anchor="middle" x="53.5" y="-7" font-family="Helvetica,sans-Serif" font-size="10.00">CrcHeaderChecker</text>
</a>
</g>
</g>
<!-- CrcCheckerBase&#45;&gt;CrcHeaderChecker -->
<g id="edge2" class="edge">
<title>CrcCheckerBase&#45;&gt;CrcHeaderChecker</title>
<path fill="none" stroke="black" d="M53.5,-54.75C53.5,-44.87 53.5,-28.9 53.5,-19.09"/>
</g>
<!-- PacketFilterBase -->
<g id="node2" class="node">
<title>PacketFilterBase</title>
<g id="a_node2"><a xlink:href="inet.queueing.base.PacketFilterBase.html" xlink:title="Simple Module PacketFilterBase" target="_parent">
<polygon fill="#fffcaf" stroke="black" points="102,-129 5,-129 5,-110 102,-110 102,-129"/>
<text text-anchor="middle" x="53.5" y="-117" font-family="Helvetica,sans-Serif" font-size="10.00">PacketFilterBase</text>
</a>
</g>
</g>
<!-- PacketFilterBase&#45;&gt;CrcCheckerBase -->
<g id="edge1" class="edge">
<title>PacketFilterBase&#45;&gt;CrcCheckerBase</title>
<path fill="none" stroke="black" d="M53.5,-109.75C53.5,-99.87 53.5,-83.9 53.5,-74.09"/>
</g>
</g>
</svg>
