<?xml version="1.0" encoding="UTF-8" standalone="no"?>
<!DOCTYPE svg PUBLIC "-//W3C//DTD SVG 1.1//EN"
 "http://www.w3.org/Graphics/SVG/1.1/DTD/svg11.dtd">
<!-- Generated by graphviz version 2.43.0 (0)
 -->
<!-- Title: opp Pages: 1 -->
<svg width="502pt" height="82pt"
 viewBox="0.00 0.00 501.50 82.00" xmlns="http://www.w3.org/2000/svg" xmlns:xlink="http://www.w3.org/1999/xlink">
<g id="graph0" class="graph" transform="scale(1 1) rotate(0) translate(4 78)">
<title>opp</title>
<polygon fill="transparent" stroke="transparent" points="-4,4 -4,-78 497.5,-78 497.5,4 -4,4"/>
<!-- KIDSNw1 -->
<g id="node1" class="node">
<title>KIDSNw1</title>
<g id="a_node1"><a xlink:href="inet.examples.inet.kidsnw1.KIDSNw1.html" xlink:title="Network KIDSNw1" target="_parent">
<polygon fill="#9090ff" stroke="black" points="278.5,-74 216.5,-74 216.5,-55 278.5,-55 278.5,-74"/>
<text text-anchor="middle" x="247.5" y="-62" font-family="Helvetica,sans-Serif" font-size="10.00">KIDSNw1</text>
</a>
</g>
</g>
<!-- StandardHost -->
<g id="node2" class="node">
<title>StandardHost</title>
<g id="a_node2"><a xlink:href="inet.node.inet.StandardHost.html" xlink:title="Compound Module StandardHost" target="_parent">
<polygon fill="#fffcaf" stroke="black" points="83,-19 0,-19 0,0 83,0 83,-19"/>
<text text-anchor="middle" x="41.5" y="-7" font-family="Helvetica,sans-Serif" font-size="10.00">StandardHost</text>
</a>
</g>
</g>
<!-- KIDSNw1&#45;&gt;StandardHost -->
<g id="edge1" class="edge">
<title>KIDSNw1&#45;&gt;StandardHost</title>
<path fill="none" stroke="black" d="M216.21,-55.45C181.11,-46.42 123.95,-31.71 84.63,-21.6"/>
<polygon fill="black" stroke="black" points="85.35,-18.17 74.79,-19.07 83.6,-24.95 85.35,-18.17"/>
</g>
<!-- ethernet -->
<g id="node3" class="node">
<title>ethernet</title>
<g id="a_node3"><a xlink:href="inet.examples.inet.kidsnw1.KIDSNw1.ethernet.html" xlink:title="Channel ethernet" target="_parent">
<polygon fill="#d0ffd0" stroke="black" points="159.5,-19 101.5,-19 101.5,0 159.5,0 159.5,-19"/>
<text text-anchor="middle" x="130.5" y="-7" font-family="Helvetica,sans-Serif" font-size="10.00">ethernet</text>
</a>
</g>
</g>
<!-- KIDSNw1&#45;&gt;ethernet -->
<g id="edge2" class="edge">
<title>KIDSNw1&#45;&gt;ethernet</title>
<path fill="none" stroke="black" d="M228.7,-54.98C209.88,-46.46 180.68,-33.23 159,-23.41"/>
<polygon fill="black" stroke="black" points="160.19,-20.11 149.64,-19.17 157.3,-26.48 160.19,-20.11"/>
</g>
<!-- Ipv4NetworkConfigurator -->
<g id="node4" class="node">
<title>Ipv4NetworkConfigurator</title>
<g id="a_node4"><a xlink:href="inet.networklayer.configurator.ipv4.Ipv4NetworkConfigurator.html" xlink:title="Simple Module Ipv4NetworkConfigurator" target="_parent">
<polygon fill="#fffcaf" stroke="black" points="317,-19 178,-19 178,0 317,0 317,-19"/>
<text text-anchor="middle" x="247.5" y="-7" font-family="Helvetica,sans-Serif" font-size="10.00">Ipv4NetworkConfigurator</text>
</a>
</g>
</g>
<!-- KIDSNw1&#45;&gt;Ipv4NetworkConfigurator -->
<g id="edge3" class="edge">
<title>KIDSNw1&#45;&gt;Ipv4NetworkConfigurator</title>
<path fill="none" stroke="black" d="M247.5,-54.75C247.5,-47.8 247.5,-37.85 247.5,-29.13"/>
<polygon fill="black" stroke="black" points="251,-29.09 247.5,-19.09 244,-29.09 251,-29.09"/>
</g>
<!-- fiberrouterline -->
<g id="node5" class="node">
<title>fiberrouterline</title>
<g id="a_node5"><a xlink:href="inet.examples.inet.kidsnw1.KIDSNw1.fiberrouterline.html" xlink:title="Channel fiberrouterline" target="_parent">
<polygon fill="#d0ffd0" stroke="black" points="421.5,-19 335.5,-19 335.5,0 421.5,0 421.5,-19"/>
<text text-anchor="middle" x="378.5" y="-7" font-family="Helvetica,sans-Serif" font-size="10.00">fiberrouterline</text>
</a>
</g>
</g>
<!-- KIDSNw1&#45;&gt;fiberrouterline -->
<g id="edge4" class="edge">
<title>KIDSNw1&#45;&gt;fiberrouterline</title>
<path fill="none" stroke="black" d="M268.55,-54.98C289.91,-46.34 323.2,-32.87 347.56,-23.02"/>
<polygon fill="black" stroke="black" points="349.11,-26.17 357.07,-19.17 346.49,-19.68 349.11,-26.17"/>
</g>
<!-- Router -->
<g id="node6" class="node">
<title>Router</title>
<g id="a_node6"><a xlink:href="inet.node.inet.Router.html" xlink:title="Compound Module Router" target="_parent">
<polygon fill="#fffcaf" stroke="black" points="493.5,-19 439.5,-19 439.5,0 493.5,0 493.5,-19"/>
<text text-anchor="middle" x="466.5" y="-7" font-family="Helvetica,sans-Serif" font-size="10.00">Router</text>
</a>
</g>
</g>
<!-- KIDSNw1&#45;&gt;Router -->
<g id="edge5" class="edge">
<title>KIDSNw1&#45;&gt;Router</title>
<path fill="none" stroke="black" d="M278.88,-55.91C318.65,-46.28 387.11,-29.71 429.42,-19.47"/>
<polygon fill="black" stroke="black" points="430.43,-22.83 439.32,-17.08 428.78,-16.03 430.43,-22.83"/>
</g>
</g>
</svg>
