<?xml version="1.0" encoding="UTF-8" standalone="no"?>
<!DOCTYPE svg PUBLIC "-//W3C//DTD SVG 1.1//EN"
 "http://www.w3.org/Graphics/SVG/1.1/DTD/svg11.dtd">
<!-- Generated by graphviz version 2.43.0 (0)
 -->
<!-- Title: opp Pages: 1 -->
<svg width="238pt" height="82pt"
 viewBox="0.00 0.00 237.50 82.00" xmlns="http://www.w3.org/2000/svg" xmlns:xlink="http://www.w3.org/1999/xlink">
<g id="graph0" class="graph" transform="scale(1 1) rotate(0) translate(4 78)">
<title>opp</title>
<polygon fill="transparent" stroke="transparent" points="-4,4 -4,-78 233.5,-78 233.5,4 -4,4"/>
<!-- Ieee8022LlcInserter -->
<g id="node1" class="node">
<title>Ieee8022LlcInserter</title>
<g id="a_node1"><a xlink:href="inet.linklayer.ieee8022.Ieee8022LlcInserter.html" xlink:title="Simple Module Ieee8022LlcInserter" target="_parent">
<polygon fill="#fff700" stroke="black" points="166,-19 53,-19 53,0 166,0 166,-19"/>
<text text-anchor="middle" x="109.5" y="-7" font-family="Helvetica,sans-Serif" font-size="10.00">Ieee8022LlcInserter</text>
</a>
</g>
</g>
<!-- PacketFlowBase -->
<g id="node2" class="node">
<title>PacketFlowBase</title>
<g id="a_node2"><a xlink:href="inet.queueing.base.PacketFlowBase.html" xlink:title="Simple Module PacketFlowBase" target="_parent">
<polygon fill="#fffcaf" stroke="black" points="95,-74 0,-74 0,-55 95,-55 95,-74"/>
<text text-anchor="middle" x="47.5" y="-62" font-family="Helvetica,sans-Serif" font-size="10.00">PacketFlowBase</text>
</a>
</g>
</g>
<!-- PacketFlowBase&#45;&gt;Ieee8022LlcInserter -->
<g id="edge1" class="edge">
<title>PacketFlowBase&#45;&gt;Ieee8022LlcInserter</title>
<path fill="none" stroke="black" d="M57.46,-54.98C68.96,-45.15 87.78,-29.07 99.36,-19.17"/>
</g>
<!-- IIeee8022LlcInserter -->
<g id="node3" class="node">
<title>IIeee8022LlcInserter</title>
<g id="a_node3"><a xlink:href="inet.linklayer.ieee8022.IIeee8022LlcInserter.html" xlink:title="Module Interface IIeee8022LlcInserter" target="_parent">
<polygon fill="#fffcaf" stroke="black" stroke-dasharray="5,2" points="229.5,-74 113.5,-74 113.5,-55 229.5,-55 229.5,-74"/>
<text text-anchor="middle" x="171.5" y="-62" font-family="Helvetica,sans-Serif" font-size="10.00">IIeee8022LlcInserter</text>
</a>
</g>
</g>
<!-- IIeee8022LlcInserter&#45;&gt;Ieee8022LlcInserter -->
<g id="edge2" class="edge">
<title>IIeee8022LlcInserter&#45;&gt;Ieee8022LlcInserter</title>
<path fill="none" stroke="black" stroke-dasharray="5,2" d="M161.54,-54.98C150.04,-45.15 131.22,-29.07 119.64,-19.17"/>
</g>
</g>
</svg>
