<?xml version="1.0" encoding="UTF-8" standalone="no"?>
<!DOCTYPE svg PUBLIC "-//W3C//DTD SVG 1.1//EN"
 "http://www.w3.org/Graphics/SVG/1.1/DTD/svg11.dtd">
<!-- Generated by graphviz version 2.43.0 (0)
 -->
<!-- Title: opp Pages: 1 -->
<svg width="573pt" height="82pt"
 viewBox="0.00 0.00 572.50 82.00" xmlns="http://www.w3.org/2000/svg" xmlns:xlink="http://www.w3.org/1999/xlink">
<g id="graph0" class="graph" transform="scale(1 1) rotate(0) translate(4 78)">
<title>opp</title>
<polygon fill="transparent" stroke="transparent" points="-4,4 -4,-78 568.5,-78 568.5,4 -4,4"/>
<!-- DiffservNetwork -->
<g id="node1" class="node">
<title>DiffservNetwork</title>
<g id="a_node1"><a xlink:href="inet.showcases.general.diffserv.DiffservNetwork.html" xlink:title="Network DiffservNetwork" target="_parent">
<polygon fill="#9090ff" stroke="black" points="396.5,-74 300.5,-74 300.5,-55 396.5,-55 396.5,-74"/>
<text text-anchor="middle" x="348.5" y="-62" font-family="Helvetica,sans-Serif" font-size="10.00">DiffservNetwork</text>
</a>
</g>
</g>
<!-- StandardHost -->
<g id="node2" class="node">
<title>StandardHost</title>
<g id="a_node2"><a xlink:href="inet.node.inet.StandardHost.html" xlink:title="Compound Module StandardHost" target="_parent">
<polygon fill="#fffcaf" stroke="black" points="83,-19 0,-19 0,0 83,0 83,-19"/>
<text text-anchor="middle" x="41.5" y="-7" font-family="Helvetica,sans-Serif" font-size="10.00">StandardHost</text>
</a>
</g>
</g>
<!-- DiffservNetwork&#45;&gt;StandardHost -->
<g id="edge1" class="edge">
<title>DiffservNetwork&#45;&gt;StandardHost</title>
<path fill="none" stroke="black" d="M300.19,-55.16C243.8,-45.43 150.92,-29.39 93.14,-19.41"/>
<polygon fill="black" stroke="black" points="93.57,-15.94 83.12,-17.69 92.38,-22.84 93.57,-15.94"/>
</g>
<!-- Ipv4NetworkConfigurator -->
<g id="node3" class="node">
<title>Ipv4NetworkConfigurator</title>
<g id="a_node3"><a xlink:href="inet.networklayer.configurator.ipv4.Ipv4NetworkConfigurator.html" xlink:title="Simple Module Ipv4NetworkConfigurator" target="_parent">
<polygon fill="#fffcaf" stroke="black" points="240,-19 101,-19 101,0 240,0 240,-19"/>
<text text-anchor="middle" x="170.5" y="-7" font-family="Helvetica,sans-Serif" font-size="10.00">Ipv4NetworkConfigurator</text>
</a>
</g>
</g>
<!-- DiffservNetwork&#45;&gt;Ipv4NetworkConfigurator -->
<g id="edge2" class="edge">
<title>DiffservNetwork&#45;&gt;Ipv4NetworkConfigurator</title>
<path fill="none" stroke="black" d="M319.9,-54.98C289.89,-46.05 242.52,-31.94 209.18,-22.02"/>
<polygon fill="black" stroke="black" points="209.91,-18.58 199.32,-19.08 207.91,-25.29 209.91,-18.58"/>
</g>
<!-- EthernetSwitch -->
<g id="node4" class="node">
<title>EthernetSwitch</title>
<g id="a_node4"><a xlink:href="inet.node.ethernet.EthernetSwitch.html" xlink:title="Compound Module EthernetSwitch" target="_parent">
<polygon fill="#fffcaf" stroke="black" points="348.5,-19 258.5,-19 258.5,0 348.5,0 348.5,-19"/>
<text text-anchor="middle" x="303.5" y="-7" font-family="Helvetica,sans-Serif" font-size="10.00">EthernetSwitch</text>
</a>
</g>
</g>
<!-- DiffservNetwork&#45;&gt;EthernetSwitch -->
<g id="edge3" class="edge">
<title>DiffservNetwork&#45;&gt;EthernetSwitch</title>
<path fill="none" stroke="black" d="M341.07,-54.75C334.65,-47.18 325.19,-36.05 317.38,-26.84"/>
<polygon fill="black" stroke="black" points="319.93,-24.45 310.79,-19.09 314.6,-28.98 319.93,-24.45"/>
</g>
<!-- Eth10M -->
<g id="node5" class="node">
<title>Eth10M</title>
<g id="a_node5"><a xlink:href="inet.node.ethernet.Eth10M.html" xlink:title="Channel Eth10M" target="_parent">
<polygon fill="#d0ffd0" stroke="black" points="420.5,-19 366.5,-19 366.5,0 420.5,0 420.5,-19"/>
<text text-anchor="middle" x="393.5" y="-7" font-family="Helvetica,sans-Serif" font-size="10.00">Eth10M</text>
</a>
</g>
</g>
<!-- DiffservNetwork&#45;&gt;Eth10M -->
<g id="edge4" class="edge">
<title>DiffservNetwork&#45;&gt;Eth10M</title>
<path fill="none" stroke="black" d="M355.93,-54.75C362.35,-47.18 371.81,-36.05 379.62,-26.84"/>
<polygon fill="black" stroke="black" points="382.4,-28.98 386.21,-19.09 377.07,-24.45 382.4,-28.98"/>
</g>
<!-- line -->
<g id="node6" class="node">
<title>line</title>
<g id="a_node6"><a xlink:href="inet.showcases.general.diffserv.DiffservNetwork.line.html" xlink:title="Channel line" target="_parent">
<polygon fill="#d0ffd0" stroke="black" points="492.5,-19 438.5,-19 438.5,0 492.5,0 492.5,-19"/>
<text text-anchor="middle" x="465.5" y="-7" font-family="Helvetica,sans-Serif" font-size="10.00">line</text>
</a>
</g>
</g>
<!-- DiffservNetwork&#45;&gt;line -->
<g id="edge5" class="edge">
<title>DiffservNetwork&#45;&gt;line</title>
<path fill="none" stroke="black" d="M367.3,-54.98C386.12,-46.46 415.32,-33.23 437,-23.41"/>
<polygon fill="black" stroke="black" points="438.7,-26.48 446.36,-19.17 435.81,-20.11 438.7,-26.48"/>
</g>
<!-- Router -->
<g id="node7" class="node">
<title>Router</title>
<g id="a_node7"><a xlink:href="inet.node.inet.Router.html" xlink:title="Compound Module Router" target="_parent">
<polygon fill="#fffcaf" stroke="black" points="564.5,-19 510.5,-19 510.5,0 564.5,0 564.5,-19"/>
<text text-anchor="middle" x="537.5" y="-7" font-family="Helvetica,sans-Serif" font-size="10.00">Router</text>
</a>
</g>
</g>
<!-- DiffservNetwork&#45;&gt;Router -->
<g id="edge6" class="edge">
<title>DiffservNetwork&#45;&gt;Router</title>
<path fill="none" stroke="black" d="M378.87,-54.98C411.92,-45.72 464.78,-30.89 500.3,-20.93"/>
<polygon fill="black" stroke="black" points="501.59,-24.2 510.28,-18.13 499.7,-17.46 501.59,-24.2"/>
</g>
</g>
</svg>
