<?xml version="1.0" encoding="UTF-8" standalone="no"?>
<!DOCTYPE svg PUBLIC "-//W3C//DTD SVG 1.1//EN"
 "http://www.w3.org/Graphics/SVG/1.1/DTD/svg11.dtd">
<!-- Generated by graphviz version 2.43.0 (0)
 -->
<!-- Title: opp Pages: 1 -->
<svg width="218pt" height="82pt"
 viewBox="0.00 0.00 218.00 82.00" xmlns="http://www.w3.org/2000/svg" xmlns:xlink="http://www.w3.org/1999/xlink">
<g id="graph0" class="graph" transform="scale(1 1) rotate(0) translate(4 78)">
<title>opp</title>
<polygon fill="transparent" stroke="transparent" points="-4,4 -4,-78 214,-78 214,4 -4,4"/>
<!-- Ieee80211Mac -->
<g id="node1" class="node">
<title>Ieee80211Mac</title>
<g id="a_node1"><a xlink:href="inet.linklayer.ieee80211.mac.Ieee80211Mac.html" xlink:title="Compound Module Ieee80211Mac" target="_parent">
<polygon fill="#fff700" stroke="black" points="151.5,-19 63.5,-19 63.5,0 151.5,0 151.5,-19"/>
<text text-anchor="middle" x="107.5" y="-7" font-family="Helvetica,sans-Serif" font-size="10.00">Ieee80211Mac</text>
</a>
</g>
</g>
<!-- MacProtocolBase -->
<g id="node2" class="node">
<title>MacProtocolBase</title>
<g id="a_node2"><a xlink:href="inet.linklayer.base.MacProtocolBase.html" xlink:title="Simple Module MacProtocolBase" target="_parent">
<polygon fill="#fffcaf" stroke="black" points="101,-74 0,-74 0,-55 101,-55 101,-74"/>
<text text-anchor="middle" x="50.5" y="-62" font-family="Helvetica,sans-Serif" font-size="10.00">MacProtocolBase</text>
</a>
</g>
</g>
<!-- MacProtocolBase&#45;&gt;Ieee80211Mac -->
<g id="edge1" class="edge">
<title>MacProtocolBase&#45;&gt;Ieee80211Mac</title>
<path fill="none" stroke="black" d="M59.66,-54.98C70.23,-45.15 87.53,-29.07 98.18,-19.17"/>
</g>
<!-- IIeee80211Mac -->
<g id="node3" class="node">
<title>IIeee80211Mac</title>
<g id="a_node3"><a xlink:href="inet.linklayer.ieee80211.IIeee80211Mac.html" xlink:title="Module Interface IIeee80211Mac" target="_parent">
<polygon fill="#fffcaf" stroke="black" stroke-dasharray="5,2" points="210,-74 119,-74 119,-55 210,-55 210,-74"/>
<text text-anchor="middle" x="164.5" y="-62" font-family="Helvetica,sans-Serif" font-size="10.00">IIeee80211Mac</text>
</a>
</g>
</g>
<!-- IIeee80211Mac&#45;&gt;Ieee80211Mac -->
<g id="edge2" class="edge">
<title>IIeee80211Mac&#45;&gt;Ieee80211Mac</title>
<path fill="none" stroke="black" stroke-dasharray="5,2" d="M155.34,-54.98C144.77,-45.15 127.47,-29.07 116.82,-19.17"/>
</g>
</g>
</svg>
