<?xml version="1.0" encoding="UTF-8" standalone="no"?>
<!DOCTYPE svg PUBLIC "-//W3C//DTD SVG 1.1//EN"
 "http://www.w3.org/Graphics/SVG/1.1/DTD/svg11.dtd">
<!-- Generated by graphviz version 2.43.0 (0)
 -->
<!-- Title: opp Pages: 1 -->
<svg width="391pt" height="82pt"
 viewBox="0.00 0.00 390.50 82.00" xmlns="http://www.w3.org/2000/svg" xmlns:xlink="http://www.w3.org/1999/xlink">
<g id="graph0" class="graph" transform="scale(1 1) rotate(0) translate(4 78)">
<title>opp</title>
<polygon fill="transparent" stroke="transparent" points="-4,4 -4,-78 386.5,-78 386.5,4 -4,4"/>
<!-- PacketDuplicator -->
<g id="node1" class="node">
<title>PacketDuplicator</title>
<g id="a_node1"><a xlink:href="inet.queueing.common.PacketDuplicator.html" xlink:title="Simple Module PacketDuplicator" target="_parent">
<polygon fill="#fff700" stroke="black" points="244,-19 146,-19 146,0 244,0 244,-19"/>
<text text-anchor="middle" x="195" y="-7" font-family="Helvetica,sans-Serif" font-size="10.00">PacketDuplicator</text>
</a>
</g>
</g>
<!-- PacketDuplicatorBase -->
<g id="node2" class="node">
<title>PacketDuplicatorBase</title>
<g id="a_node2"><a xlink:href="inet.queueing.base.PacketDuplicatorBase.html" xlink:title="Simple Module PacketDuplicatorBase" target="_parent">
<polygon fill="#fffcaf" stroke="black" points="122,-74 0,-74 0,-55 122,-55 122,-74"/>
<text text-anchor="middle" x="61" y="-62" font-family="Helvetica,sans-Serif" font-size="10.00">PacketDuplicatorBase</text>
</a>
</g>
</g>
<!-- PacketDuplicatorBase&#45;&gt;PacketDuplicator -->
<g id="edge1" class="edge">
<title>PacketDuplicatorBase&#45;&gt;PacketDuplicator</title>
<path fill="none" stroke="black" d="M82.53,-54.98C107.39,-45.15 148.06,-29.07 173.08,-19.17"/>
</g>
<!-- IPassivePacketSink -->
<g id="node3" class="node">
<title>IPassivePacketSink</title>
<g id="a_node3"><a xlink:href="inet.queueing.contract.IPassivePacketSink.html" xlink:title="Module Interface IPassivePacketSink" target="_parent">
<polygon fill="#fffcaf" stroke="black" stroke-dasharray="5,2" points="249.5,-74 140.5,-74 140.5,-55 249.5,-55 249.5,-74"/>
<text text-anchor="middle" x="195" y="-62" font-family="Helvetica,sans-Serif" font-size="10.00">IPassivePacketSink</text>
</a>
</g>
</g>
<!-- IPassivePacketSink&#45;&gt;PacketDuplicator -->
<g id="edge2" class="edge">
<title>IPassivePacketSink&#45;&gt;PacketDuplicator</title>
<path fill="none" stroke="black" stroke-dasharray="5,2" d="M195,-54.75C195,-44.87 195,-28.9 195,-19.09"/>
</g>
<!-- IActivePacketSource -->
<g id="node4" class="node">
<title>IActivePacketSource</title>
<g id="a_node4"><a xlink:href="inet.queueing.contract.IActivePacketSource.html" xlink:title="Module Interface IActivePacketSource" target="_parent">
<polygon fill="#fffcaf" stroke="black" stroke-dasharray="5,2" points="382.5,-74 267.5,-74 267.5,-55 382.5,-55 382.5,-74"/>
<text text-anchor="middle" x="325" y="-62" font-family="Helvetica,sans-Serif" font-size="10.00">IActivePacketSource</text>
</a>
</g>
</g>
<!-- IActivePacketSource&#45;&gt;PacketDuplicator -->
<g id="edge3" class="edge">
<title>IActivePacketSource&#45;&gt;PacketDuplicator</title>
<path fill="none" stroke="black" stroke-dasharray="5,2" d="M304.11,-54.98C280,-45.15 240.54,-29.07 216.27,-19.17"/>
</g>
</g>
</svg>
