<?xml version="1.0" encoding="UTF-8" standalone="no"?>
<!DOCTYPE svg PUBLIC "-//W3C//DTD SVG 1.1//EN"
 "http://www.w3.org/Graphics/SVG/1.1/DTD/svg11.dtd">
<!-- Generated by graphviz version 2.43.0 (0)
 -->
<!-- Title: opp Pages: 1 -->
<svg width="754pt" height="137pt"
 viewBox="0.00 0.00 753.50 137.00" xmlns="http://www.w3.org/2000/svg" xmlns:xlink="http://www.w3.org/1999/xlink">
<g id="graph0" class="graph" transform="scale(1 1) rotate(0) translate(4 133)">
<title>opp</title>
<polygon fill="transparent" stroke="transparent" points="-4,4 -4,-133 749.5,-133 749.5,4 -4,4"/>
<!-- IProtocolHeaderChecker -->
<g id="node1" class="node">
<title>IProtocolHeaderChecker</title>
<g id="a_node1"><a xlink:href="inet.protocolelement.contract.IProtocolHeaderChecker.html" xlink:title="Module Interface IProtocolHeaderChecker" target="_parent">
<polygon fill="#fff700" stroke="black" stroke-dasharray="5,2" points="426,-74 292,-74 292,-55 426,-55 426,-74"/>
<text text-anchor="middle" x="359" y="-62" font-family="Helvetica,sans-Serif" font-size="10.00">IProtocolHeaderChecker</text>
</a>
</g>
</g>
<!-- EthernetMacHeaderChecker -->
<g id="node3" class="node">
<title>EthernetMacHeaderChecker</title>
<g id="a_node3"><a xlink:href="inet.linklayer.ethernet.modular.EthernetMacHeaderChecker.html" xlink:title="Simple Module EthernetMacHeaderChecker" target="_parent">
<polygon fill="#fffcaf" stroke="black" points="152,-19 0,-19 0,0 152,0 152,-19"/>
<text text-anchor="middle" x="76" y="-7" font-family="Helvetica,sans-Serif" font-size="10.00">EthernetMacHeaderChecker</text>
</a>
</g>
</g>
<!-- IProtocolHeaderChecker&#45;&gt;EthernetMacHeaderChecker -->
<g id="edge2" class="edge">
<title>IProtocolHeaderChecker&#45;&gt;EthernetMacHeaderChecker</title>
<path fill="none" stroke="black" stroke-dasharray="5,2" d="M313.53,-54.98C260.88,-45.12 174.63,-28.97 121.83,-19.08"/>
</g>
<!-- IIeee8021qTagEpdHeaderChecker -->
<g id="node4" class="node">
<title>IIeee8021qTagEpdHeaderChecker</title>
<g id="a_node4"><a xlink:href="inet.linklayer.ieee8021q.IIeee8021qTagEpdHeaderChecker.html" xlink:title="Module Interface IIeee8021qTagEpdHeaderChecker" target="_parent">
<polygon fill="#fffcaf" stroke="black" stroke-dasharray="5,2" points="349.5,-19 170.5,-19 170.5,0 349.5,0 349.5,-19"/>
<text text-anchor="middle" x="260" y="-7" font-family="Helvetica,sans-Serif" font-size="10.00">IIeee8021qTagEpdHeaderChecker</text>
</a>
</g>
</g>
<!-- IProtocolHeaderChecker&#45;&gt;IIeee8021qTagEpdHeaderChecker -->
<g id="edge3" class="edge">
<title>IProtocolHeaderChecker&#45;&gt;IIeee8021qTagEpdHeaderChecker</title>
<path fill="none" stroke="black" d="M343.09,-54.98C324.73,-45.15 294.68,-29.07 276.2,-19.17"/>
</g>
<!-- IIeee8021qTagTpidHeaderChecker -->
<g id="node5" class="node">
<title>IIeee8021qTagTpidHeaderChecker</title>
<g id="a_node5"><a xlink:href="inet.linklayer.ieee8021q.IIeee8021qTagTpidHeaderChecker.html" xlink:title="Module Interface IIeee8021qTagTpidHeaderChecker" target="_parent">
<polygon fill="#fffcaf" stroke="black" stroke-dasharray="5,2" points="550,-19 368,-19 368,0 550,0 550,-19"/>
<text text-anchor="middle" x="459" y="-7" font-family="Helvetica,sans-Serif" font-size="10.00">IIeee8021qTagTpidHeaderChecker</text>
</a>
</g>
</g>
<!-- IProtocolHeaderChecker&#45;&gt;IIeee8021qTagTpidHeaderChecker -->
<g id="edge4" class="edge">
<title>IProtocolHeaderChecker&#45;&gt;IIeee8021qTagTpidHeaderChecker</title>
<path fill="none" stroke="black" d="M375.07,-54.98C393.62,-45.15 423.97,-29.07 442.64,-19.17"/>
</g>
<!-- IIeee8021rTagEpdHeaderChecker -->
<g id="node6" class="node">
<title>IIeee8021rTagEpdHeaderChecker</title>
<g id="a_node6"><a xlink:href="inet.linklayer.ieee8021r.IIeee8021rTagEpdHeaderChecker.html" xlink:title="Module Interface IIeee8021rTagEpdHeaderChecker" target="_parent">
<polygon fill="#fffcaf" stroke="black" stroke-dasharray="5,2" points="745.5,-19 568.5,-19 568.5,0 745.5,0 745.5,-19"/>
<text text-anchor="middle" x="657" y="-7" font-family="Helvetica,sans-Serif" font-size="10.00">IIeee8021rTagEpdHeaderChecker</text>
</a>
</g>
</g>
<!-- IProtocolHeaderChecker&#45;&gt;IIeee8021rTagEpdHeaderChecker -->
<g id="edge5" class="edge">
<title>IProtocolHeaderChecker&#45;&gt;IIeee8021rTagEpdHeaderChecker</title>
<path fill="none" stroke="black" d="M406.88,-54.98C462.32,-45.12 553.14,-28.97 608.75,-19.08"/>
</g>
<!-- IPacketFilter -->
<g id="node2" class="node">
<title>IPacketFilter</title>
<g id="a_node2"><a xlink:href="inet.queueing.contract.IPacketFilter.html" xlink:title="Module Interface IPacketFilter" target="_parent">
<polygon fill="#fffcaf" stroke="black" stroke-dasharray="5,2" points="397,-129 321,-129 321,-110 397,-110 397,-129"/>
<text text-anchor="middle" x="359" y="-117" font-family="Helvetica,sans-Serif" font-size="10.00">IPacketFilter</text>
</a>
</g>
</g>
<!-- IPacketFilter&#45;&gt;IProtocolHeaderChecker -->
<g id="edge1" class="edge">
<title>IPacketFilter&#45;&gt;IProtocolHeaderChecker</title>
<path fill="none" stroke="black" d="M359,-109.75C359,-99.87 359,-83.9 359,-74.09"/>
</g>
</g>
</svg>
