<?xml version="1.0" encoding="UTF-8" standalone="no"?>
<!DOCTYPE svg PUBLIC "-//W3C//DTD SVG 1.1//EN"
 "http://www.w3.org/Graphics/SVG/1.1/DTD/svg11.dtd">
<!-- Generated by graphviz version 2.43.0 (0)
 -->
<!-- Title: opp Pages: 1 -->
<svg width="168pt" height="82pt"
 viewBox="0.00 0.00 168.00 82.00" xmlns="http://www.w3.org/2000/svg" xmlns:xlink="http://www.w3.org/1999/xlink">
<g id="graph0" class="graph" transform="scale(1 1) rotate(0) translate(4 78)">
<title>opp</title>
<polygon fill="transparent" stroke="transparent" points="-4,4 -4,-78 164,-78 164,4 -4,4"/>
<!-- IRtsPolicy -->
<g id="node1" class="node">
<title>IRtsPolicy</title>
<g id="a_node1"><a xlink:href="inet.linklayer.ieee80211.mac.contract.IRtsPolicy.html" xlink:title="Module Interface IRtsPolicy" target="_parent">
<polygon fill="#fff700" stroke="black" stroke-dasharray="5,2" points="116.5,-74 51.5,-74 51.5,-55 116.5,-55 116.5,-74"/>
<text text-anchor="middle" x="84" y="-62" font-family="Helvetica,sans-Serif" font-size="10.00">IRtsPolicy</text>
</a>
</g>
</g>
<!-- QosRtsPolicy -->
<g id="node2" class="node">
<title>QosRtsPolicy</title>
<g id="a_node2"><a xlink:href="inet.linklayer.ieee80211.mac.originator.QosRtsPolicy.html" xlink:title="Simple Module QosRtsPolicy" target="_parent">
<polygon fill="#fffcaf" stroke="black" points="80,-19 0,-19 0,0 80,0 80,-19"/>
<text text-anchor="middle" x="40" y="-7" font-family="Helvetica,sans-Serif" font-size="10.00">QosRtsPolicy</text>
</a>
</g>
</g>
<!-- IRtsPolicy&#45;&gt;QosRtsPolicy -->
<g id="edge1" class="edge">
<title>IRtsPolicy&#45;&gt;QosRtsPolicy</title>
<path fill="none" stroke="black" stroke-dasharray="5,2" d="M76.73,-54.75C68.53,-44.87 55.28,-28.9 47.13,-19.09"/>
</g>
<!-- RtsPolicy -->
<g id="node3" class="node">
<title>RtsPolicy</title>
<g id="a_node3"><a xlink:href="inet.linklayer.ieee80211.mac.originator.RtsPolicy.html" xlink:title="Simple Module RtsPolicy" target="_parent">
<polygon fill="#fffcaf" stroke="black" points="160,-19 98,-19 98,0 160,0 160,-19"/>
<text text-anchor="middle" x="129" y="-7" font-family="Helvetica,sans-Serif" font-size="10.00">RtsPolicy</text>
</a>
</g>
</g>
<!-- IRtsPolicy&#45;&gt;RtsPolicy -->
<g id="edge2" class="edge">
<title>IRtsPolicy&#45;&gt;RtsPolicy</title>
<path fill="none" stroke="black" stroke-dasharray="5,2" d="M91.43,-54.75C99.82,-44.87 113.38,-28.9 121.71,-19.09"/>
</g>
</g>
</svg>
