<?xml version="1.0" encoding="UTF-8" standalone="no"?>
<!DOCTYPE svg PUBLIC "-//W3C//DTD SVG 1.1//EN"
 "http://www.w3.org/Graphics/SVG/1.1/DTD/svg11.dtd">
<!-- Generated by graphviz version 2.43.0 (0)
 -->
<!-- Title: opp Pages: 1 -->
<svg width="280pt" height="82pt"
 viewBox="0.00 0.00 280.00 82.00" xmlns="http://www.w3.org/2000/svg" xmlns:xlink="http://www.w3.org/1999/xlink">
<g id="graph0" class="graph" transform="scale(1 1) rotate(0) translate(4 78)">
<title>opp</title>
<polygon fill="transparent" stroke="transparent" points="-4,4 -4,-78 276,-78 276,4 -4,4"/>
<!-- PacketPolicing -->
<g id="node1" class="node">
<title>PacketPolicing</title>
<g id="a_node1"><a xlink:href="inet.queueing.policing.PacketPolicing.html" xlink:title="Compound Module PacketPolicing" target="_parent">
<polygon fill="#fff700" stroke="black" points="179,-74 93,-74 93,-55 179,-55 179,-74"/>
<text text-anchor="middle" x="136" y="-62" font-family="Helvetica,sans-Serif" font-size="10.00">PacketPolicing</text>
</a>
</g>
</g>
<!-- IPacketMeter -->
<g id="node2" class="node">
<title>IPacketMeter</title>
<g id="a_node2"><a xlink:href="inet.queueing.contract.IPacketMeter.html" xlink:title="Module Interface IPacketMeter" target="_parent">
<polygon fill="#fffcaf" stroke="black" stroke-dasharray="5,2" points="80,-19 0,-19 0,0 80,0 80,-19"/>
<text text-anchor="middle" x="40" y="-7" font-family="Helvetica,sans-Serif" font-size="10.00">IPacketMeter</text>
</a>
</g>
</g>
<!-- PacketPolicing&#45;&gt;IPacketMeter -->
<g id="edge1" class="edge">
<title>PacketPolicing&#45;&gt;IPacketMeter</title>
<path fill="none" stroke="black" d="M120.58,-54.98C105.55,-46.69 82.46,-33.94 64.84,-24.22"/>
<polygon fill="black" stroke="black" points="66.15,-20.94 55.7,-19.17 62.77,-27.07 66.15,-20.94"/>
</g>
<!-- IPacketFilter -->
<g id="node3" class="node">
<title>IPacketFilter</title>
<g id="a_node3"><a xlink:href="inet.queueing.contract.IPacketFilter.html" xlink:title="Module Interface IPacketFilter" target="_parent">
<polygon fill="#fffcaf" stroke="black" stroke-dasharray="5,2" points="174,-19 98,-19 98,0 174,0 174,-19"/>
<text text-anchor="middle" x="136" y="-7" font-family="Helvetica,sans-Serif" font-size="10.00">IPacketFilter</text>
</a>
</g>
</g>
<!-- PacketPolicing&#45;&gt;IPacketFilter -->
<g id="edge2" class="edge">
<title>PacketPolicing&#45;&gt;IPacketFilter</title>
<path fill="none" stroke="black" d="M136,-54.75C136,-47.8 136,-37.85 136,-29.13"/>
<polygon fill="black" stroke="black" points="139.5,-29.09 136,-19.09 132.5,-29.09 139.5,-29.09"/>
</g>
<!-- IdealChannel -->
<g id="node4" class="node">
<title>IdealChannel</title>
<g id="a_node4"><a xlink:href="ned.IdealChannel.html" xlink:title="Channel IdealChannel" target="_parent">
<polygon fill="#d0ffd0" stroke="black" points="272,-19 192,-19 192,0 272,0 272,-19"/>
<text text-anchor="middle" x="232" y="-7" font-family="Helvetica,sans-Serif" font-size="10.00">IdealChannel</text>
</a>
</g>
</g>
<!-- PacketPolicing&#45;&gt;IdealChannel -->
<g id="edge3" class="edge">
<title>PacketPolicing&#45;&gt;IdealChannel</title>
<path fill="none" stroke="black" d="M151.42,-54.98C166.45,-46.69 189.54,-33.94 207.16,-24.22"/>
<polygon fill="black" stroke="black" points="209.23,-27.07 216.3,-19.17 205.85,-20.94 209.23,-27.07"/>
</g>
</g>
</svg>
