<?xml version="1.0" encoding="UTF-8" standalone="no"?>
<!DOCTYPE svg PUBLIC "-//W3C//DTD SVG 1.1//EN"
 "http://www.w3.org/Graphics/SVG/1.1/DTD/svg11.dtd">
<!-- Generated by graphviz version 2.43.0 (0)
 -->
<!-- Title: opp Pages: 1 -->
<svg width="508pt" height="82pt"
 viewBox="0.00 0.00 508.00 82.00" xmlns="http://www.w3.org/2000/svg" xmlns:xlink="http://www.w3.org/1999/xlink">
<g id="graph0" class="graph" transform="scale(1 1) rotate(0) translate(4 78)">
<title>opp</title>
<polygon fill="transparent" stroke="transparent" points="-4,4 -4,-78 504,-78 504,4 -4,4"/>
<!-- EarthCloud -->
<g id="node1" class="node">
<title>EarthCloud</title>
<g id="a_node1"><a xlink:href="inet.examples.internetcloud.earthcloud.EarthCloud.html" xlink:title="Network EarthCloud" target="_parent">
<polygon fill="#9090ff" stroke="black" points="253.5,-74 183.5,-74 183.5,-55 253.5,-55 253.5,-74"/>
<text text-anchor="middle" x="218.5" y="-62" font-family="Helvetica,sans-Serif" font-size="10.00">EarthCloud</text>
</a>
</g>
</g>
<!-- InternetCloud -->
<g id="node2" class="node">
<title>InternetCloud</title>
<g id="a_node2"><a xlink:href="inet.node.internetcloud.InternetCloud.html" xlink:title="Compound Module InternetCloud" target="_parent">
<polygon fill="#fffcaf" stroke="black" points="83,-19 0,-19 0,0 83,0 83,-19"/>
<text text-anchor="middle" x="41.5" y="-7" font-family="Helvetica,sans-Serif" font-size="10.00">InternetCloud</text>
</a>
</g>
</g>
<!-- EarthCloud&#45;&gt;InternetCloud -->
<g id="edge1" class="edge">
<title>EarthCloud&#45;&gt;InternetCloud</title>
<path fill="none" stroke="black" d="M190.06,-54.98C160.22,-46.05 113.12,-31.94 79.97,-22.02"/>
<polygon fill="black" stroke="black" points="80.74,-18.6 70.16,-19.08 78.74,-25.3 80.74,-18.6"/>
</g>
<!-- DatarateChannel -->
<g id="node3" class="node">
<title>DatarateChannel</title>
<g id="a_node3"><a xlink:href="ned.DatarateChannel.html" xlink:title="Channel DatarateChannel" target="_parent">
<polygon fill="#d0ffd0" stroke="black" points="200,-19 101,-19 101,0 200,0 200,-19"/>
<text text-anchor="middle" x="150.5" y="-7" font-family="Helvetica,sans-Serif" font-size="10.00">DatarateChannel</text>
</a>
</g>
</g>
<!-- EarthCloud&#45;&gt;DatarateChannel -->
<g id="edge2" class="edge">
<title>EarthCloud&#45;&gt;DatarateChannel</title>
<path fill="none" stroke="black" d="M207.57,-54.98C197.42,-47.07 182.08,-35.11 169.85,-25.58"/>
<polygon fill="black" stroke="black" points="171.66,-22.56 161.62,-19.17 167.36,-28.08 171.66,-22.56"/>
</g>
<!-- Ipv4NetworkConfigurator -->
<g id="node4" class="node">
<title>Ipv4NetworkConfigurator</title>
<g id="a_node4"><a xlink:href="inet.networklayer.configurator.ipv4.Ipv4NetworkConfigurator.html" xlink:title="Simple Module Ipv4NetworkConfigurator" target="_parent">
<polygon fill="#fffcaf" stroke="black" points="357,-19 218,-19 218,0 357,0 357,-19"/>
<text text-anchor="middle" x="287.5" y="-7" font-family="Helvetica,sans-Serif" font-size="10.00">Ipv4NetworkConfigurator</text>
</a>
</g>
</g>
<!-- EarthCloud&#45;&gt;Ipv4NetworkConfigurator -->
<g id="edge3" class="edge">
<title>EarthCloud&#45;&gt;Ipv4NetworkConfigurator</title>
<path fill="none" stroke="black" d="M229.59,-54.98C239.99,-47 255.76,-34.88 268.22,-25.31"/>
<polygon fill="black" stroke="black" points="270.41,-28.04 276.21,-19.17 266.15,-22.49 270.41,-28.04"/>
</g>
<!-- SimpleContinentCloud -->
<g id="node5" class="node">
<title>SimpleContinentCloud</title>
<g id="a_node5"><a xlink:href="inet.examples.internetcloud.earthcloud.SimpleContinentCloud.html" xlink:title="Network SimpleContinentCloud" target="_parent">
<polygon fill="#d0d0ff" stroke="black" points="500,-19 375,-19 375,0 500,0 500,-19"/>
<text text-anchor="middle" x="437.5" y="-7" font-family="Helvetica,sans-Serif" font-size="10.00">SimpleContinentCloud</text>
</a>
</g>
</g>
<!-- EarthCloud&#45;&gt;SimpleContinentCloud -->
<g id="edge4" class="edge">
<title>EarthCloud&#45;&gt;SimpleContinentCloud</title>
<path fill="none" stroke="black" d="M253.69,-54.98C291.33,-45.87 351.16,-31.4 392.27,-21.45"/>
<polygon fill="black" stroke="black" points="393.14,-24.84 402.04,-19.08 391.5,-18.03 393.14,-24.84"/>
</g>
</g>
</svg>
