<?xml version="1.0" encoding="UTF-8" standalone="no"?>
<!DOCTYPE svg PUBLIC "-//W3C//DTD SVG 1.1//EN"
 "http://www.w3.org/Graphics/SVG/1.1/DTD/svg11.dtd">
<!-- Generated by graphviz version 2.43.0 (0)
 -->
<!-- Title: opp Pages: 1 -->
<svg width="298pt" height="82pt"
 viewBox="0.00 0.00 297.50 82.00" xmlns="http://www.w3.org/2000/svg" xmlns:xlink="http://www.w3.org/1999/xlink">
<g id="graph0" class="graph" transform="scale(1 1) rotate(0) translate(4 78)">
<title>opp</title>
<polygon fill="transparent" stroke="transparent" points="-4,4 -4,-78 293.5,-78 293.5,4 -4,4"/>
<!-- RTPNetwork -->
<g id="node1" class="node">
<title>RTPNetwork</title>
<g id="a_node1"><a xlink:href="inet.examples.rtp.unicast.RTPNetwork.html" xlink:title="Network RTPNetwork" target="_parent">
<polygon fill="#9090ff" stroke="black" points="142,-74 66,-74 66,-55 142,-55 142,-74"/>
<text text-anchor="middle" x="104" y="-62" font-family="Helvetica,sans-Serif" font-size="10.00">RTPNetwork</text>
</a>
</g>
</g>
<!-- ethernet -->
<g id="node2" class="node">
<title>ethernet</title>
<g id="a_node2"><a xlink:href="inet.examples.rtp.unicast.RTPNetwork.ethernet.html" xlink:title="Channel ethernet" target="_parent">
<polygon fill="#d0ffd0" stroke="black" points="58,-19 0,-19 0,0 58,0 58,-19"/>
<text text-anchor="middle" x="29" y="-7" font-family="Helvetica,sans-Serif" font-size="10.00">ethernet</text>
</a>
</g>
</g>
<!-- RTPNetwork&#45;&gt;ethernet -->
<g id="edge1" class="edge">
<title>RTPNetwork&#45;&gt;ethernet</title>
<path fill="none" stroke="black" d="M91.95,-54.98C80.54,-46.92 63.17,-34.65 49.57,-25.03"/>
<polygon fill="black" stroke="black" points="51.46,-22.08 41.27,-19.17 47.42,-27.8 51.46,-22.08"/>
</g>
<!-- RtpHost -->
<g id="node3" class="node">
<title>RtpHost</title>
<g id="a_node3"><a xlink:href="inet.node.rtp.RtpHost.html" xlink:title="Compound Module RtpHost" target="_parent">
<polygon fill="#fffcaf" stroke="black" points="132,-19 76,-19 76,0 132,0 132,-19"/>
<text text-anchor="middle" x="104" y="-7" font-family="Helvetica,sans-Serif" font-size="10.00">RtpHost</text>
</a>
</g>
</g>
<!-- RTPNetwork&#45;&gt;RtpHost -->
<g id="edge2" class="edge">
<title>RTPNetwork&#45;&gt;RtpHost</title>
<path fill="none" stroke="black" d="M104,-54.75C104,-47.8 104,-37.85 104,-29.13"/>
<polygon fill="black" stroke="black" points="107.5,-29.09 104,-19.09 100.5,-29.09 107.5,-29.09"/>
</g>
<!-- Ipv4NetworkConfigurator -->
<g id="node4" class="node">
<title>Ipv4NetworkConfigurator</title>
<g id="a_node4"><a xlink:href="inet.networklayer.configurator.ipv4.Ipv4NetworkConfigurator.html" xlink:title="Simple Module Ipv4NetworkConfigurator" target="_parent">
<polygon fill="#fffcaf" stroke="black" points="289.5,-19 150.5,-19 150.5,0 289.5,0 289.5,-19"/>
<text text-anchor="middle" x="220" y="-7" font-family="Helvetica,sans-Serif" font-size="10.00">Ipv4NetworkConfigurator</text>
</a>
</g>
</g>
<!-- RTPNetwork&#45;&gt;Ipv4NetworkConfigurator -->
<g id="edge3" class="edge">
<title>RTPNetwork&#45;&gt;Ipv4NetworkConfigurator</title>
<path fill="none" stroke="black" d="M122.64,-54.98C141.3,-46.46 170.25,-33.23 191.74,-23.41"/>
<polygon fill="black" stroke="black" points="193.38,-26.51 201.02,-19.17 190.47,-20.14 193.38,-26.51"/>
</g>
</g>
</svg>
