<?xml version="1.0" encoding="UTF-8" standalone="no"?>
<!DOCTYPE svg PUBLIC "-//W3C//DTD SVG 1.1//EN"
 "http://www.w3.org/Graphics/SVG/1.1/DTD/svg11.dtd">
<!-- Generated by graphviz version 2.43.0 (0)
 -->
<!-- Title: opp Pages: 1 -->
<svg width="482pt" height="82pt"
 viewBox="0.00 0.00 482.00 82.00" xmlns="http://www.w3.org/2000/svg" xmlns:xlink="http://www.w3.org/1999/xlink">
<g id="graph0" class="graph" transform="scale(1 1) rotate(0) translate(4 78)">
<title>opp</title>
<polygon fill="transparent" stroke="transparent" points="-4,4 -4,-78 478,-78 478,4 -4,4"/>
<!-- TransportPathVisualizerSimpleWiredShowcase -->
<g id="node1" class="node">
<title>TransportPathVisualizerSimpleWiredShowcase</title>
<g id="a_node1"><a xlink:href="inet.showcases.visualizer.canvas.transportpathactivity.TransportPathVisualizerSimpleWiredShowcase.html" xlink:title="Network TransportPathVisualizerSimpleWiredShowcase" target="_parent">
<polygon fill="#9090ff" stroke="black" points="369.5,-74 127.5,-74 127.5,-55 369.5,-55 369.5,-74"/>
<text text-anchor="middle" x="248.5" y="-62" font-family="Helvetica,sans-Serif" font-size="10.00">TransportPathVisualizerSimpleWiredShowcase</text>
</a>
</g>
</g>
<!-- StandardHost -->
<g id="node2" class="node">
<title>StandardHost</title>
<g id="a_node2"><a xlink:href="inet.node.inet.StandardHost.html" xlink:title="Compound Module StandardHost" target="_parent">
<polygon fill="#fffcaf" stroke="black" points="83,-19 0,-19 0,0 83,0 83,-19"/>
<text text-anchor="middle" x="41.5" y="-7" font-family="Helvetica,sans-Serif" font-size="10.00">StandardHost</text>
</a>
</g>
</g>
<!-- TransportPathVisualizerSimpleWiredShowcase&#45;&gt;StandardHost -->
<g id="edge1" class="edge">
<title>TransportPathVisualizerSimpleWiredShowcase&#45;&gt;StandardHost</title>
<path fill="none" stroke="black" d="M215.24,-54.98C179.89,-45.93 123.83,-31.58 84.99,-21.64"/>
<polygon fill="black" stroke="black" points="85.57,-18.17 75.02,-19.08 83.84,-24.95 85.57,-18.17"/>
</g>
<!-- Ipv4NetworkConfigurator -->
<g id="node3" class="node">
<title>Ipv4NetworkConfigurator</title>
<g id="a_node3"><a xlink:href="inet.networklayer.configurator.ipv4.Ipv4NetworkConfigurator.html" xlink:title="Simple Module Ipv4NetworkConfigurator" target="_parent">
<polygon fill="#fffcaf" stroke="black" points="240,-19 101,-19 101,0 240,0 240,-19"/>
<text text-anchor="middle" x="170.5" y="-7" font-family="Helvetica,sans-Serif" font-size="10.00">Ipv4NetworkConfigurator</text>
</a>
</g>
</g>
<!-- TransportPathVisualizerSimpleWiredShowcase&#45;&gt;Ipv4NetworkConfigurator -->
<g id="edge2" class="edge">
<title>TransportPathVisualizerSimpleWiredShowcase&#45;&gt;Ipv4NetworkConfigurator</title>
<path fill="none" stroke="black" d="M235.97,-54.98C224.1,-46.92 206.04,-34.65 191.89,-25.03"/>
<polygon fill="black" stroke="black" points="193.5,-21.9 183.26,-19.17 189.56,-27.69 193.5,-21.9"/>
</g>
<!-- TransportRouteVisualizer -->
<g id="node4" class="node">
<title>TransportRouteVisualizer</title>
<g id="a_node4"><a xlink:href="inet.visualizer.common.TransportRouteVisualizer.html" xlink:title="Compound Module TransportRouteVisualizer" target="_parent">
<polygon fill="#fffcaf" stroke="black" points="396.5,-19 258.5,-19 258.5,0 396.5,0 396.5,-19"/>
<text text-anchor="middle" x="327.5" y="-7" font-family="Helvetica,sans-Serif" font-size="10.00">TransportRouteVisualizer</text>
</a>
</g>
</g>
<!-- TransportPathVisualizerSimpleWiredShowcase&#45;&gt;TransportRouteVisualizer -->
<g id="edge3" class="edge">
<title>TransportPathVisualizerSimpleWiredShowcase&#45;&gt;TransportRouteVisualizer</title>
<path fill="none" stroke="black" d="M261.19,-54.98C273.33,-46.84 291.86,-34.41 306.25,-24.76"/>
<polygon fill="black" stroke="black" points="308.22,-27.65 314.58,-19.17 304.32,-21.84 308.22,-27.65"/>
</g>
<!-- Eth100M -->
<g id="node5" class="node">
<title>Eth100M</title>
<g id="a_node5"><a xlink:href="inet.node.ethernet.Eth100M.html" xlink:title="Channel Eth100M" target="_parent">
<polygon fill="#d0ffd0" stroke="black" points="474,-19 415,-19 415,0 474,0 474,-19"/>
<text text-anchor="middle" x="444.5" y="-7" font-family="Helvetica,sans-Serif" font-size="10.00">Eth100M</text>
</a>
</g>
</g>
<!-- TransportPathVisualizerSimpleWiredShowcase&#45;&gt;Eth100M -->
<g id="edge4" class="edge">
<title>TransportPathVisualizerSimpleWiredShowcase&#45;&gt;Eth100M</title>
<path fill="none" stroke="black" d="M279.99,-54.98C313.92,-45.81 367.98,-31.19 404.8,-21.24"/>
<polygon fill="black" stroke="black" points="405.95,-24.55 414.69,-18.56 404.13,-17.79 405.95,-24.55"/>
</g>
</g>
</svg>
