<?xml version="1.0" encoding="UTF-8" standalone="no"?>
<!DOCTYPE svg PUBLIC "-//W3C//DTD SVG 1.1//EN"
 "http://www.w3.org/Graphics/SVG/1.1/DTD/svg11.dtd">
<!-- Generated by graphviz version 2.43.0 (0)
 -->
<!-- Title: opp Pages: 1 -->
<svg width="114pt" height="137pt"
 viewBox="0.00 0.00 114.00 137.00" xmlns="http://www.w3.org/2000/svg" xmlns:xlink="http://www.w3.org/1999/xlink">
<g id="graph0" class="graph" transform="scale(1 1) rotate(0) translate(4 133)">
<title>opp</title>
<polygon fill="transparent" stroke="transparent" points="-4,4 -4,-133 110,-133 110,4 -4,4"/>
<!-- FcsInserterBase -->
<g id="node1" class="node">
<title>FcsInserterBase</title>
<g id="a_node1"><a xlink:href="inet.protocolelement.checksum.base.FcsInserterBase.html" xlink:title="Simple Module FcsInserterBase" target="_parent">
<polygon fill="#fff700" stroke="black" points="100.5,-74 5.5,-74 5.5,-55 100.5,-55 100.5,-74"/>
<text text-anchor="middle" x="53" y="-62" font-family="Helvetica,sans-Serif" font-size="10.00">FcsInserterBase</text>
</a>
</g>
</g>
<!-- FcsHeaderInserter -->
<g id="node3" class="node">
<title>FcsHeaderInserter</title>
<g id="a_node3"><a xlink:href="inet.protocolelement.checksum.FcsHeaderInserter.html" xlink:title="Simple Module FcsHeaderInserter" target="_parent">
<polygon fill="#fffcaf" stroke="black" points="106,-19 0,-19 0,0 106,0 106,-19"/>
<text text-anchor="middle" x="53" y="-7" font-family="Helvetica,sans-Serif" font-size="10.00">FcsHeaderInserter</text>
</a>
</g>
</g>
<!-- FcsInserterBase&#45;&gt;FcsHeaderInserter -->
<g id="edge2" class="edge">
<title>FcsInserterBase&#45;&gt;FcsHeaderInserter</title>
<path fill="none" stroke="black" d="M53,-54.75C53,-44.87 53,-28.9 53,-19.09"/>
</g>
<!-- PacketFlowBase -->
<g id="node2" class="node">
<title>PacketFlowBase</title>
<g id="a_node2"><a xlink:href="inet.queueing.base.PacketFlowBase.html" xlink:title="Simple Module PacketFlowBase" target="_parent">
<polygon fill="#fffcaf" stroke="black" points="100.5,-129 5.5,-129 5.5,-110 100.5,-110 100.5,-129"/>
<text text-anchor="middle" x="53" y="-117" font-family="Helvetica,sans-Serif" font-size="10.00">PacketFlowBase</text>
</a>
</g>
</g>
<!-- PacketFlowBase&#45;&gt;FcsInserterBase -->
<g id="edge1" class="edge">
<title>PacketFlowBase&#45;&gt;FcsInserterBase</title>
<path fill="none" stroke="black" d="M53,-109.75C53,-99.87 53,-83.9 53,-74.09"/>
</g>
</g>
</svg>
