<?xml version="1.0" encoding="UTF-8" standalone="no"?>
<!DOCTYPE svg PUBLIC "-//W3C//DTD SVG 1.1//EN"
 "http://www.w3.org/Graphics/SVG/1.1/DTD/svg11.dtd">
<!-- Generated by graphviz version 2.43.0 (0)
 -->
<!-- Title: opp Pages: 1 -->
<svg width="530pt" height="82pt"
 viewBox="0.00 0.00 530.00 82.00" xmlns="http://www.w3.org/2000/svg" xmlns:xlink="http://www.w3.org/1999/xlink">
<g id="graph0" class="graph" transform="scale(1 1) rotate(0) translate(4 78)">
<title>opp</title>
<polygon fill="transparent" stroke="transparent" points="-4,4 -4,-78 526,-78 526,4 -4,4"/>
<!-- BufferTutorialStep -->
<g id="node1" class="node">
<title>BufferTutorialStep</title>
<g id="a_node1"><a xlink:href="inet.tutorials.queueing.BufferTutorialStep.html" xlink:title="Network BufferTutorialStep" target="_parent">
<polygon fill="#9090ff" stroke="black" points="286,-74 182,-74 182,-55 286,-55 286,-74"/>
<text text-anchor="middle" x="234" y="-62" font-family="Helvetica,sans-Serif" font-size="10.00">BufferTutorialStep</text>
</a>
</g>
</g>
<!-- PacketQueue -->
<g id="node2" class="node">
<title>PacketQueue</title>
<g id="a_node2"><a xlink:href="inet.queueing.queue.PacketQueue.html" xlink:title="Simple Module PacketQueue" target="_parent">
<polygon fill="#fffcaf" stroke="black" points="80,-19 0,-19 0,0 80,0 80,-19"/>
<text text-anchor="middle" x="40" y="-7" font-family="Helvetica,sans-Serif" font-size="10.00">PacketQueue</text>
</a>
</g>
</g>
<!-- BufferTutorialStep&#45;&gt;PacketQueue -->
<g id="edge1" class="edge">
<title>BufferTutorialStep&#45;&gt;PacketQueue</title>
<path fill="none" stroke="black" d="M202.83,-54.98C169.84,-45.97 117.6,-31.7 81.23,-21.76"/>
<polygon fill="black" stroke="black" points="81.98,-18.34 71.41,-19.08 80.14,-25.09 81.98,-18.34"/>
</g>
<!-- PacketBuffer -->
<g id="node3" class="node">
<title>PacketBuffer</title>
<g id="a_node3"><a xlink:href="inet.queueing.buffer.PacketBuffer.html" xlink:title="Simple Module PacketBuffer" target="_parent">
<polygon fill="#fffcaf" stroke="black" points="175.5,-19 98.5,-19 98.5,0 175.5,0 175.5,-19"/>
<text text-anchor="middle" x="137" y="-7" font-family="Helvetica,sans-Serif" font-size="10.00">PacketBuffer</text>
</a>
</g>
</g>
<!-- BufferTutorialStep&#45;&gt;PacketBuffer -->
<g id="edge2" class="edge">
<title>BufferTutorialStep&#45;&gt;PacketBuffer</title>
<path fill="none" stroke="black" d="M218.42,-54.98C203.23,-46.69 179.9,-33.94 162.1,-24.22"/>
<polygon fill="black" stroke="black" points="163.32,-20.89 152.87,-19.17 159.97,-27.04 163.32,-20.89"/>
</g>
<!-- IdealChannel -->
<g id="node4" class="node">
<title>IdealChannel</title>
<g id="a_node4"><a xlink:href="ned.IdealChannel.html" xlink:title="Channel IdealChannel" target="_parent">
<polygon fill="#d0ffd0" stroke="black" points="274,-19 194,-19 194,0 274,0 274,-19"/>
<text text-anchor="middle" x="234" y="-7" font-family="Helvetica,sans-Serif" font-size="10.00">IdealChannel</text>
</a>
</g>
</g>
<!-- BufferTutorialStep&#45;&gt;IdealChannel -->
<g id="edge3" class="edge">
<title>BufferTutorialStep&#45;&gt;IdealChannel</title>
<path fill="none" stroke="black" d="M234,-54.75C234,-47.8 234,-37.85 234,-29.13"/>
<polygon fill="black" stroke="black" points="237.5,-29.09 234,-19.09 230.5,-29.09 237.5,-29.09"/>
</g>
<!-- ActivePacketSource -->
<g id="node5" class="node">
<title>ActivePacketSource</title>
<g id="a_node5"><a xlink:href="inet.queueing.source.ActivePacketSource.html" xlink:title="Simple Module ActivePacketSource" target="_parent">
<polygon fill="#fffcaf" stroke="black" points="404,-19 292,-19 292,0 404,0 404,-19"/>
<text text-anchor="middle" x="348" y="-7" font-family="Helvetica,sans-Serif" font-size="10.00">ActivePacketSource</text>
</a>
</g>
</g>
<!-- BufferTutorialStep&#45;&gt;ActivePacketSource -->
<g id="edge4" class="edge">
<title>BufferTutorialStep&#45;&gt;ActivePacketSource</title>
<path fill="none" stroke="black" d="M252.32,-54.98C270.66,-46.46 299.11,-33.23 320.23,-23.41"/>
<polygon fill="black" stroke="black" points="321.76,-26.56 329.35,-19.17 318.81,-20.21 321.76,-26.56"/>
</g>
<!-- ActivePacketSink -->
<g id="node6" class="node">
<title>ActivePacketSink</title>
<g id="a_node6"><a xlink:href="inet.queueing.sink.ActivePacketSink.html" xlink:title="Simple Module ActivePacketSink" target="_parent">
<polygon fill="#fffcaf" stroke="black" points="522,-19 422,-19 422,0 522,0 522,-19"/>
<text text-anchor="middle" x="472" y="-7" font-family="Helvetica,sans-Serif" font-size="10.00">ActivePacketSink</text>
</a>
</g>
</g>
<!-- BufferTutorialStep&#45;&gt;ActivePacketSink -->
<g id="edge5" class="edge">
<title>BufferTutorialStep&#45;&gt;ActivePacketSink</title>
<path fill="none" stroke="black" d="M272.24,-54.98C313.41,-45.82 378.99,-31.21 423.7,-21.26"/>
<polygon fill="black" stroke="black" points="424.46,-24.67 433.46,-19.08 422.94,-17.84 424.46,-24.67"/>
</g>
</g>
</svg>
