<?xml version="1.0" encoding="UTF-8" standalone="no"?>
<!DOCTYPE svg PUBLIC "-//W3C//DTD SVG 1.1//EN"
 "http://www.w3.org/Graphics/SVG/1.1/DTD/svg11.dtd">
<!-- Generated by graphviz version 2.43.0 (0)
 -->
<!-- Title: opp Pages: 1 -->
<svg width="310pt" height="82pt"
 viewBox="0.00 0.00 309.50 82.00" xmlns="http://www.w3.org/2000/svg" xmlns:xlink="http://www.w3.org/1999/xlink">
<g id="graph0" class="graph" transform="scale(1 1) rotate(0) translate(4 78)">
<title>opp</title>
<polygon fill="transparent" stroke="transparent" points="-4,4 -4,-78 305.5,-78 305.5,4 -4,4"/>
<!-- RoutingTableCanvasVisualizer -->
<g id="node1" class="node">
<title>RoutingTableCanvasVisualizer</title>
<g id="a_node1"><a xlink:href="inet.visualizer.canvas.networklayer.RoutingTableCanvasVisualizer.html" xlink:title="Simple Module RoutingTableCanvasVisualizer" target="_parent">
<polygon fill="#fff700" stroke="black" points="238,-19 74,-19 74,0 238,0 238,-19"/>
<text text-anchor="middle" x="156" y="-7" font-family="Helvetica,sans-Serif" font-size="10.00">RoutingTableCanvasVisualizer</text>
</a>
</g>
</g>
<!-- RoutingTableVisualizerBase -->
<g id="node2" class="node">
<title>RoutingTableVisualizerBase</title>
<g id="a_node2"><a xlink:href="inet.visualizer.base.RoutingTableVisualizerBase.html" xlink:title="Simple Module RoutingTableVisualizerBase" target="_parent">
<polygon fill="#fffcaf" stroke="black" points="152,-74 0,-74 0,-55 152,-55 152,-74"/>
<text text-anchor="middle" x="76" y="-62" font-family="Helvetica,sans-Serif" font-size="10.00">RoutingTableVisualizerBase</text>
</a>
</g>
</g>
<!-- RoutingTableVisualizerBase&#45;&gt;RoutingTableCanvasVisualizer -->
<g id="edge1" class="edge">
<title>RoutingTableVisualizerBase&#45;&gt;RoutingTableCanvasVisualizer</title>
<path fill="none" stroke="black" d="M88.85,-54.98C103.69,-45.15 127.97,-29.07 142.91,-19.17"/>
</g>
<!-- IRoutingTableVisualizer -->
<g id="node3" class="node">
<title>IRoutingTableVisualizer</title>
<g id="a_node3"><a xlink:href="inet.visualizer.contract.IRoutingTableVisualizer.html" xlink:title="Module Interface IRoutingTableVisualizer" target="_parent">
<polygon fill="#fffcaf" stroke="black" stroke-dasharray="5,2" points="301.5,-74 170.5,-74 170.5,-55 301.5,-55 301.5,-74"/>
<text text-anchor="middle" x="236" y="-62" font-family="Helvetica,sans-Serif" font-size="10.00">IRoutingTableVisualizer</text>
</a>
</g>
</g>
<!-- IRoutingTableVisualizer&#45;&gt;RoutingTableCanvasVisualizer -->
<g id="edge2" class="edge">
<title>IRoutingTableVisualizer&#45;&gt;RoutingTableCanvasVisualizer</title>
<path fill="none" stroke="black" stroke-dasharray="5,2" d="M223.15,-54.98C208.31,-45.15 184.03,-29.07 169.09,-19.17"/>
</g>
</g>
</svg>
