<?xml version="1.0" encoding="UTF-8" standalone="no"?>
<!DOCTYPE svg PUBLIC "-//W3C//DTD SVG 1.1//EN"
 "http://www.w3.org/Graphics/SVG/1.1/DTD/svg11.dtd">
<!-- Generated by graphviz version 2.43.0 (0)
 -->
<!-- Title: opp Pages: 1 -->
<svg width="639pt" height="82pt"
 viewBox="0.00 0.00 639.00 82.00" xmlns="http://www.w3.org/2000/svg" xmlns:xlink="http://www.w3.org/1999/xlink">
<g id="graph0" class="graph" transform="scale(1 1) rotate(0) translate(4 78)">
<title>opp</title>
<polygon fill="transparent" stroke="transparent" points="-4,4 -4,-78 635,-78 635,4 -4,4"/>
<!-- NetworkPathComplexShowcase -->
<g id="node1" class="node">
<title>NetworkPathComplexShowcase</title>
<g id="a_node1"><a xlink:href="inet.showcases.visualizer.canvas.networkpathactivity.NetworkPathComplexShowcase.html" xlink:title="Network NetworkPathComplexShowcase" target="_parent">
<polygon fill="#9090ff" stroke="black" points="455,-74 284,-74 284,-55 455,-55 455,-74"/>
<text text-anchor="middle" x="369.5" y="-62" font-family="Helvetica,sans-Serif" font-size="10.00">NetworkPathComplexShowcase</text>
</a>
</g>
</g>
<!-- IntegratedVisualizer -->
<g id="node2" class="node">
<title>IntegratedVisualizer</title>
<g id="a_node2"><a xlink:href="inet.visualizer.common.IntegratedVisualizer.html" xlink:title="Compound Module IntegratedVisualizer" target="_parent">
<polygon fill="#fffcaf" stroke="black" points="115,-19 0,-19 0,0 115,0 115,-19"/>
<text text-anchor="middle" x="57.5" y="-7" font-family="Helvetica,sans-Serif" font-size="10.00">IntegratedVisualizer</text>
</a>
</g>
</g>
<!-- NetworkPathComplexShowcase&#45;&gt;IntegratedVisualizer -->
<g id="edge1" class="edge">
<title>NetworkPathComplexShowcase&#45;&gt;IntegratedVisualizer</title>
<path fill="none" stroke="black" d="M319.37,-54.98C264.41,-45.65 176.27,-30.67 117.63,-20.71"/>
<polygon fill="black" stroke="black" points="118.21,-17.26 107.76,-19.04 117.03,-24.16 118.21,-17.26"/>
</g>
<!-- StandardHost -->
<g id="node3" class="node">
<title>StandardHost</title>
<g id="a_node3"><a xlink:href="inet.node.inet.StandardHost.html" xlink:title="Compound Module StandardHost" target="_parent">
<polygon fill="#fffcaf" stroke="black" points="216,-19 133,-19 133,0 216,0 216,-19"/>
<text text-anchor="middle" x="174.5" y="-7" font-family="Helvetica,sans-Serif" font-size="10.00">StandardHost</text>
</a>
</g>
</g>
<!-- NetworkPathComplexShowcase&#45;&gt;StandardHost -->
<g id="edge2" class="edge">
<title>NetworkPathComplexShowcase&#45;&gt;StandardHost</title>
<path fill="none" stroke="black" d="M338.17,-54.98C305.01,-45.97 252.5,-31.7 215.94,-21.76"/>
<polygon fill="black" stroke="black" points="216.64,-18.33 206.08,-19.08 214.81,-25.08 216.64,-18.33"/>
</g>
<!-- Ipv4NetworkConfigurator -->
<g id="node4" class="node">
<title>Ipv4NetworkConfigurator</title>
<g id="a_node4"><a xlink:href="inet.networklayer.configurator.ipv4.Ipv4NetworkConfigurator.html" xlink:title="Simple Module Ipv4NetworkConfigurator" target="_parent">
<polygon fill="#fffcaf" stroke="black" points="373,-19 234,-19 234,0 373,0 373,-19"/>
<text text-anchor="middle" x="303.5" y="-7" font-family="Helvetica,sans-Serif" font-size="10.00">Ipv4NetworkConfigurator</text>
</a>
</g>
</g>
<!-- NetworkPathComplexShowcase&#45;&gt;Ipv4NetworkConfigurator -->
<g id="edge3" class="edge">
<title>NetworkPathComplexShowcase&#45;&gt;Ipv4NetworkConfigurator</title>
<path fill="none" stroke="black" d="M358.9,-54.98C349.04,-47.07 334.15,-35.11 322.28,-25.58"/>
<polygon fill="black" stroke="black" points="324.29,-22.7 314.3,-19.17 319.9,-28.16 324.29,-22.7"/>
</g>
<!-- EthernetSwitch -->
<g id="node5" class="node">
<title>EthernetSwitch</title>
<g id="a_node5"><a xlink:href="inet.node.ethernet.EthernetSwitch.html" xlink:title="Compound Module EthernetSwitch" target="_parent">
<polygon fill="#fffcaf" stroke="black" points="481.5,-19 391.5,-19 391.5,0 481.5,0 481.5,-19"/>
<text text-anchor="middle" x="436.5" y="-7" font-family="Helvetica,sans-Serif" font-size="10.00">EthernetSwitch</text>
</a>
</g>
</g>
<!-- NetworkPathComplexShowcase&#45;&gt;EthernetSwitch -->
<g id="edge4" class="edge">
<title>NetworkPathComplexShowcase&#45;&gt;EthernetSwitch</title>
<path fill="none" stroke="black" d="M380.26,-54.98C390.27,-47.07 405.39,-35.11 417.43,-25.58"/>
<polygon fill="black" stroke="black" points="419.87,-28.12 425.54,-19.17 415.53,-22.63 419.87,-28.12"/>
</g>
<!-- Router -->
<g id="node6" class="node">
<title>Router</title>
<g id="a_node6"><a xlink:href="inet.node.inet.Router.html" xlink:title="Compound Module Router" target="_parent">
<polygon fill="#fffcaf" stroke="black" points="553.5,-19 499.5,-19 499.5,0 553.5,0 553.5,-19"/>
<text text-anchor="middle" x="526.5" y="-7" font-family="Helvetica,sans-Serif" font-size="10.00">Router</text>
</a>
</g>
</g>
<!-- NetworkPathComplexShowcase&#45;&gt;Router -->
<g id="edge5" class="edge">
<title>NetworkPathComplexShowcase&#45;&gt;Router</title>
<path fill="none" stroke="black" d="M394.72,-54.98C420.86,-46.16 461.9,-32.31 491.23,-22.41"/>
<polygon fill="black" stroke="black" points="492.72,-25.6 501.08,-19.08 490.48,-18.96 492.72,-25.6"/>
</g>
<!-- Eth100M -->
<g id="node7" class="node">
<title>Eth100M</title>
<g id="a_node7"><a xlink:href="inet.node.ethernet.Eth100M.html" xlink:title="Channel Eth100M" target="_parent">
<polygon fill="#d0ffd0" stroke="black" points="631,-19 572,-19 572,0 631,0 631,-19"/>
<text text-anchor="middle" x="601.5" y="-7" font-family="Helvetica,sans-Serif" font-size="10.00">Eth100M</text>
</a>
</g>
</g>
<!-- NetworkPathComplexShowcase&#45;&gt;Eth100M -->
<g id="edge6" class="edge">
<title>NetworkPathComplexShowcase&#45;&gt;Eth100M</title>
<path fill="none" stroke="black" d="M406.77,-54.98C449.23,-45.29 518.31,-29.5 561.76,-19.58"/>
<polygon fill="black" stroke="black" points="562.72,-22.95 571.69,-17.31 561.16,-16.12 562.72,-22.95"/>
</g>
</g>
</svg>
