<?xml version="1.0" encoding="UTF-8" standalone="no"?>
<!DOCTYPE svg PUBLIC "-//W3C//DTD SVG 1.1//EN"
 "http://www.w3.org/Graphics/SVG/1.1/DTD/svg11.dtd">
<!-- Generated by graphviz version 2.43.0 (0)
 -->
<!-- Title: opp Pages: 1 -->
<svg width="216pt" height="82pt"
 viewBox="0.00 0.00 215.50 82.00" xmlns="http://www.w3.org/2000/svg" xmlns:xlink="http://www.w3.org/1999/xlink">
<g id="graph0" class="graph" transform="scale(1 1) rotate(0) translate(4 78)">
<title>opp</title>
<polygon fill="transparent" stroke="transparent" points="-4,4 -4,-78 211.5,-78 211.5,4 -4,4"/>
<!-- ConstantDriftOscillator -->
<g id="node1" class="node">
<title>ConstantDriftOscillator</title>
<g id="a_node1"><a xlink:href="inet.clock.oscillator.ConstantDriftOscillator.html" xlink:title="Simple Module ConstantDriftOscillator" target="_parent">
<polygon fill="#fff700" stroke="black" points="181.5,-19 53.5,-19 53.5,0 181.5,0 181.5,-19"/>
<text text-anchor="middle" x="117.5" y="-7" font-family="Helvetica,sans-Serif" font-size="10.00">ConstantDriftOscillator</text>
</a>
</g>
</g>
<!-- DriftingOscillatorBase -->
<g id="node2" class="node">
<title>DriftingOscillatorBase</title>
<g id="a_node2"><a xlink:href="inet.clock.base.DriftingOscillatorBase.html" xlink:title="Simple Module DriftingOscillatorBase" target="_parent">
<polygon fill="#fffcaf" stroke="black" points="123,-74 0,-74 0,-55 123,-55 123,-74"/>
<text text-anchor="middle" x="61.5" y="-62" font-family="Helvetica,sans-Serif" font-size="10.00">DriftingOscillatorBase</text>
</a>
</g>
</g>
<!-- DriftingOscillatorBase&#45;&gt;ConstantDriftOscillator -->
<g id="edge1" class="edge">
<title>DriftingOscillatorBase&#45;&gt;ConstantDriftOscillator</title>
<path fill="none" stroke="black" d="M70.5,-54.98C80.89,-45.15 97.88,-29.07 108.34,-19.17"/>
</g>
<!-- IOscillator -->
<g id="node3" class="node">
<title>IOscillator</title>
<g id="a_node3"><a xlink:href="inet.clock.contract.IOscillator.html" xlink:title="Module Interface IOscillator" target="_parent">
<polygon fill="#fffcaf" stroke="black" stroke-dasharray="5,2" points="207.5,-74 141.5,-74 141.5,-55 207.5,-55 207.5,-74"/>
<text text-anchor="middle" x="174.5" y="-62" font-family="Helvetica,sans-Serif" font-size="10.00">IOscillator</text>
</a>
</g>
</g>
<!-- IOscillator&#45;&gt;ConstantDriftOscillator -->
<g id="edge2" class="edge">
<title>IOscillator&#45;&gt;ConstantDriftOscillator</title>
<path fill="none" stroke="black" stroke-dasharray="5,2" d="M165.34,-54.98C154.77,-45.15 137.47,-29.07 126.82,-19.17"/>
</g>
</g>
</svg>
