<?xml version="1.0" encoding="UTF-8" standalone="no"?>
<!DOCTYPE svg PUBLIC "-//W3C//DTD SVG 1.1//EN"
 "http://www.w3.org/Graphics/SVG/1.1/DTD/svg11.dtd">
<!-- Generated by graphviz version 2.43.0 (0)
 -->
<!-- Title: opp Pages: 1 -->
<svg width="248pt" height="137pt"
 viewBox="0.00 0.00 247.50 137.00" xmlns="http://www.w3.org/2000/svg" xmlns:xlink="http://www.w3.org/1999/xlink">
<g id="graph0" class="graph" transform="scale(1 1) rotate(0) translate(4 133)">
<title>opp</title>
<polygon fill="transparent" stroke="transparent" points="-4,4 -4,-133 243.5,-133 243.5,4 -4,4"/>
<!-- NetworkLayerNodeBase -->
<g id="node1" class="node">
<title>NetworkLayerNodeBase</title>
<g id="a_node1"><a xlink:href="inet.node.base.NetworkLayerNodeBase.html" xlink:title="Compound Module NetworkLayerNodeBase" target="_parent">
<polygon fill="#fff700" stroke="black" points="172.5,-74 38.5,-74 38.5,-55 172.5,-55 172.5,-74"/>
<text text-anchor="middle" x="105.5" y="-62" font-family="Helvetica,sans-Serif" font-size="10.00">NetworkLayerNodeBase</text>
</a>
</g>
</g>
<!-- InternetCloud -->
<g id="node3" class="node">
<title>InternetCloud</title>
<g id="a_node3"><a xlink:href="inet.node.internetcloud.InternetCloud.html" xlink:title="Compound Module InternetCloud" target="_parent">
<polygon fill="#fffcaf" stroke="black" points="83,-19 0,-19 0,0 83,0 83,-19"/>
<text text-anchor="middle" x="41.5" y="-7" font-family="Helvetica,sans-Serif" font-size="10.00">InternetCloud</text>
</a>
</g>
</g>
<!-- NetworkLayerNodeBase&#45;&gt;InternetCloud -->
<g id="edge2" class="edge">
<title>NetworkLayerNodeBase&#45;&gt;InternetCloud</title>
<path fill="none" stroke="black" d="M95.22,-54.98C83.34,-45.15 63.92,-29.07 51.97,-19.17"/>
</g>
<!-- TransportLayerNodeBase -->
<g id="node4" class="node">
<title>TransportLayerNodeBase</title>
<g id="a_node4"><a xlink:href="inet.node.base.TransportLayerNodeBase.html" xlink:title="Compound Module TransportLayerNodeBase" target="_parent">
<polygon fill="#fffcaf" stroke="black" points="239.5,-19 101.5,-19 101.5,0 239.5,0 239.5,-19"/>
<text text-anchor="middle" x="170.5" y="-7" font-family="Helvetica,sans-Serif" font-size="10.00">TransportLayerNodeBase</text>
</a>
</g>
</g>
<!-- NetworkLayerNodeBase&#45;&gt;TransportLayerNodeBase -->
<g id="edge3" class="edge">
<title>NetworkLayerNodeBase&#45;&gt;TransportLayerNodeBase</title>
<path fill="none" stroke="black" d="M115.94,-54.98C128,-45.15 147.73,-29.07 159.87,-19.17"/>
</g>
<!-- LinkLayerNodeBase -->
<g id="node2" class="node">
<title>LinkLayerNodeBase</title>
<g id="a_node2"><a xlink:href="inet.node.base.LinkLayerNodeBase.html" xlink:title="Compound Module LinkLayerNodeBase" target="_parent">
<polygon fill="#fffcaf" stroke="black" points="162,-129 49,-129 49,-110 162,-110 162,-129"/>
<text text-anchor="middle" x="105.5" y="-117" font-family="Helvetica,sans-Serif" font-size="10.00">LinkLayerNodeBase</text>
</a>
</g>
</g>
<!-- LinkLayerNodeBase&#45;&gt;NetworkLayerNodeBase -->
<g id="edge1" class="edge">
<title>LinkLayerNodeBase&#45;&gt;NetworkLayerNodeBase</title>
<path fill="none" stroke="black" d="M105.5,-109.75C105.5,-99.87 105.5,-83.9 105.5,-74.09"/>
</g>
</g>
</svg>
