<?xml version="1.0" encoding="UTF-8" standalone="no"?>
<!DOCTYPE svg PUBLIC "-//W3C//DTD SVG 1.1//EN"
 "http://www.w3.org/Graphics/SVG/1.1/DTD/svg11.dtd">
<!-- Generated by graphviz version 2.43.0 (0)
 -->
<!-- Title: opp Pages: 1 -->
<svg width="196pt" height="137pt"
 viewBox="0.00 0.00 195.50 137.00" xmlns="http://www.w3.org/2000/svg" xmlns:xlink="http://www.w3.org/1999/xlink">
<g id="graph0" class="graph" transform="scale(1 1) rotate(0) translate(4 133)">
<title>opp</title>
<polygon fill="transparent" stroke="transparent" points="-4,4 -4,-133 191.5,-133 191.5,4 -4,4"/>
<!-- CreditBasedGate -->
<g id="node1" class="node">
<title>CreditBasedGate</title>
<g id="a_node1"><a xlink:href="inet.queueing.gate.CreditBasedGate.html" xlink:title="Simple Module CreditBasedGate" target="_parent">
<polygon fill="#fff700" stroke="black" points="148,-74 49,-74 49,-55 148,-55 148,-74"/>
<text text-anchor="middle" x="98.5" y="-62" font-family="Helvetica,sans-Serif" font-size="10.00">CreditBasedGate</text>
</a>
</g>
</g>
<!-- Ieee8021qCreditBasedGate -->
<g id="node4" class="node">
<title>Ieee8021qCreditBasedGate</title>
<g id="a_node4"><a xlink:href="inet.linklayer.ieee8021q.Ieee8021qCreditBasedGate.html" xlink:title="Simple Module Ieee8021qCreditBasedGate" target="_parent">
<polygon fill="#fffcaf" stroke="black" points="173.5,-19 23.5,-19 23.5,0 173.5,0 173.5,-19"/>
<text text-anchor="middle" x="98.5" y="-7" font-family="Helvetica,sans-Serif" font-size="10.00">Ieee8021qCreditBasedGate</text>
</a>
</g>
</g>
<!-- CreditBasedGate&#45;&gt;Ieee8021qCreditBasedGate -->
<g id="edge3" class="edge">
<title>CreditBasedGate&#45;&gt;Ieee8021qCreditBasedGate</title>
<path fill="none" stroke="black" d="M98.5,-54.75C98.5,-44.87 98.5,-28.9 98.5,-19.09"/>
</g>
<!-- PacketGateBase -->
<g id="node2" class="node">
<title>PacketGateBase</title>
<g id="a_node2"><a xlink:href="inet.queueing.base.PacketGateBase.html" xlink:title="Simple Module PacketGateBase" target="_parent">
<polygon fill="#fffcaf" stroke="black" points="95,-129 0,-129 0,-110 95,-110 95,-129"/>
<text text-anchor="middle" x="47.5" y="-117" font-family="Helvetica,sans-Serif" font-size="10.00">PacketGateBase</text>
</a>
</g>
</g>
<!-- PacketGateBase&#45;&gt;CreditBasedGate -->
<g id="edge1" class="edge">
<title>PacketGateBase&#45;&gt;CreditBasedGate</title>
<path fill="none" stroke="black" d="M55.92,-109.75C65.43,-99.87 80.79,-83.9 90.24,-74.09"/>
</g>
<!-- IPacketGate -->
<g id="node3" class="node">
<title>IPacketGate</title>
<g id="a_node3"><a xlink:href="inet.queueing.contract.IPacketGate.html" xlink:title="Module Interface IPacketGate" target="_parent">
<polygon fill="#fffcaf" stroke="black" stroke-dasharray="5,2" points="187.5,-129 113.5,-129 113.5,-110 187.5,-110 187.5,-129"/>
<text text-anchor="middle" x="150.5" y="-117" font-family="Helvetica,sans-Serif" font-size="10.00">IPacketGate</text>
</a>
</g>
</g>
<!-- IPacketGate&#45;&gt;CreditBasedGate -->
<g id="edge2" class="edge">
<title>IPacketGate&#45;&gt;CreditBasedGate</title>
<path fill="none" stroke="black" stroke-dasharray="5,2" d="M141.91,-109.75C132.22,-99.87 116.55,-83.9 106.93,-74.09"/>
</g>
</g>
</svg>
