<?xml version="1.0" encoding="UTF-8" standalone="no"?>
<!DOCTYPE svg PUBLIC "-//W3C//DTD SVG 1.1//EN"
 "http://www.w3.org/Graphics/SVG/1.1/DTD/svg11.dtd">
<!-- Generated by graphviz version 2.43.0 (0)
 -->
<!-- Title: opp Pages: 1 -->
<svg width="260pt" height="137pt"
 viewBox="0.00 0.00 259.50 137.00" xmlns="http://www.w3.org/2000/svg" xmlns:xlink="http://www.w3.org/1999/xlink">
<g id="graph0" class="graph" transform="scale(1 1) rotate(0) translate(4 133)">
<title>opp</title>
<polygon fill="transparent" stroke="transparent" points="-4,4 -4,-133 255.5,-133 255.5,4 -4,4"/>
<!-- TracingObstacleLossBase -->
<g id="node1" class="node">
<title>TracingObstacleLossBase</title>
<g id="a_node1"><a xlink:href="inet.physicallayer.wireless.common.base.packetlevel.TracingObstacleLossBase.html" xlink:title="Compound Module TracingObstacleLossBase" target="_parent">
<polygon fill="#fff700" stroke="black" points="201,-74 61,-74 61,-55 201,-55 201,-74"/>
<text text-anchor="middle" x="131" y="-62" font-family="Helvetica,sans-Serif" font-size="10.00">TracingObstacleLossBase</text>
</a>
</g>
</g>
<!-- DielectricObstacleLoss -->
<g id="node3" class="node">
<title>DielectricObstacleLoss</title>
<g id="a_node3"><a xlink:href="inet.physicallayer.wireless.common.obstacleloss.DielectricObstacleLoss.html" xlink:title="Compound Module DielectricObstacleLoss" target="_parent">
<polygon fill="#fffcaf" stroke="black" points="128,-19 0,-19 0,0 128,0 128,-19"/>
<text text-anchor="middle" x="64" y="-7" font-family="Helvetica,sans-Serif" font-size="10.00">DielectricObstacleLoss</text>
</a>
</g>
</g>
<!-- TracingObstacleLossBase&#45;&gt;DielectricObstacleLoss -->
<g id="edge2" class="edge">
<title>TracingObstacleLossBase&#45;&gt;DielectricObstacleLoss</title>
<path fill="none" stroke="black" d="M120.24,-54.98C107.81,-45.15 87.47,-29.07 74.96,-19.17"/>
</g>
<!-- IdealObstacleLoss -->
<g id="node4" class="node">
<title>IdealObstacleLoss</title>
<g id="a_node4"><a xlink:href="inet.physicallayer.wireless.common.obstacleloss.IdealObstacleLoss.html" xlink:title="Compound Module IdealObstacleLoss" target="_parent">
<polygon fill="#fffcaf" stroke="black" points="251.5,-19 146.5,-19 146.5,0 251.5,0 251.5,-19"/>
<text text-anchor="middle" x="199" y="-7" font-family="Helvetica,sans-Serif" font-size="10.00">IdealObstacleLoss</text>
</a>
</g>
</g>
<!-- TracingObstacleLossBase&#45;&gt;IdealObstacleLoss -->
<g id="edge3" class="edge">
<title>TracingObstacleLossBase&#45;&gt;IdealObstacleLoss</title>
<path fill="none" stroke="black" d="M141.93,-54.98C154.54,-45.15 175.18,-29.07 187.88,-19.17"/>
</g>
<!-- IObstacleLoss -->
<g id="node2" class="node">
<title>IObstacleLoss</title>
<g id="a_node2"><a xlink:href="inet.physicallayer.wireless.common.contract.packetlevel.IObstacleLoss.html" xlink:title="Module Interface IObstacleLoss" target="_parent">
<polygon fill="#fffcaf" stroke="black" stroke-dasharray="5,2" points="173,-129 89,-129 89,-110 173,-110 173,-129"/>
<text text-anchor="middle" x="131" y="-117" font-family="Helvetica,sans-Serif" font-size="10.00">IObstacleLoss</text>
</a>
</g>
</g>
<!-- IObstacleLoss&#45;&gt;TracingObstacleLossBase -->
<g id="edge1" class="edge">
<title>IObstacleLoss&#45;&gt;TracingObstacleLossBase</title>
<path fill="none" stroke="black" stroke-dasharray="5,2" d="M131,-109.75C131,-99.87 131,-83.9 131,-74.09"/>
</g>
</g>
</svg>
