<?xml version="1.0" encoding="UTF-8" standalone="no"?>
<!DOCTYPE svg PUBLIC "-//W3C//DTD SVG 1.1//EN"
 "http://www.w3.org/Graphics/SVG/1.1/DTD/svg11.dtd">
<!-- Generated by graphviz version 2.43.0 (0)
 -->
<!-- Title: opp Pages: 1 -->
<svg width="262pt" height="82pt"
 viewBox="0.00 0.00 261.50 82.00" xmlns="http://www.w3.org/2000/svg" xmlns:xlink="http://www.w3.org/1999/xlink">
<g id="graph0" class="graph" transform="scale(1 1) rotate(0) translate(4 78)">
<title>opp</title>
<polygon fill="transparent" stroke="transparent" points="-4,4 -4,-78 257.5,-78 257.5,4 -4,4"/>
<!-- MediumCanvasVisualizer -->
<g id="node1" class="node">
<title>MediumCanvasVisualizer</title>
<g id="a_node1"><a xlink:href="inet.visualizer.canvas.physicallayer.MediumCanvasVisualizer.html" xlink:title="Simple Module MediumCanvasVisualizer" target="_parent">
<polygon fill="#fff700" stroke="black" points="202,-19 62,-19 62,0 202,0 202,-19"/>
<text text-anchor="middle" x="132" y="-7" font-family="Helvetica,sans-Serif" font-size="10.00">MediumCanvasVisualizer</text>
</a>
</g>
</g>
<!-- MediumVisualizerBase -->
<g id="node2" class="node">
<title>MediumVisualizerBase</title>
<g id="a_node2"><a xlink:href="inet.visualizer.base.MediumVisualizerBase.html" xlink:title="Simple Module MediumVisualizerBase" target="_parent">
<polygon fill="#fffcaf" stroke="black" points="128,-74 0,-74 0,-55 128,-55 128,-74"/>
<text text-anchor="middle" x="64" y="-62" font-family="Helvetica,sans-Serif" font-size="10.00">MediumVisualizerBase</text>
</a>
</g>
</g>
<!-- MediumVisualizerBase&#45;&gt;MediumCanvasVisualizer -->
<g id="edge1" class="edge">
<title>MediumVisualizerBase&#45;&gt;MediumCanvasVisualizer</title>
<path fill="none" stroke="black" d="M74.93,-54.98C87.54,-45.15 108.18,-29.07 120.88,-19.17"/>
</g>
<!-- IMediumVisualizer -->
<g id="node3" class="node">
<title>IMediumVisualizer</title>
<g id="a_node3"><a xlink:href="inet.visualizer.contract.IMediumVisualizer.html" xlink:title="Module Interface IMediumVisualizer" target="_parent">
<polygon fill="#fffcaf" stroke="black" stroke-dasharray="5,2" points="253.5,-74 146.5,-74 146.5,-55 253.5,-55 253.5,-74"/>
<text text-anchor="middle" x="200" y="-62" font-family="Helvetica,sans-Serif" font-size="10.00">IMediumVisualizer</text>
</a>
</g>
</g>
<!-- IMediumVisualizer&#45;&gt;MediumCanvasVisualizer -->
<g id="edge2" class="edge">
<title>IMediumVisualizer&#45;&gt;MediumCanvasVisualizer</title>
<path fill="none" stroke="black" stroke-dasharray="5,2" d="M189.07,-54.98C176.46,-45.15 155.82,-29.07 143.12,-19.17"/>
</g>
</g>
</svg>
