<?xml version="1.0" encoding="UTF-8" standalone="no"?>
<!DOCTYPE svg PUBLIC "-//W3C//DTD SVG 1.1//EN"
 "http://www.w3.org/Graphics/SVG/1.1/DTD/svg11.dtd">
<!-- Generated by graphviz version 2.43.0 (0)
 -->
<!-- Title: opp Pages: 1 -->
<svg width="284pt" height="137pt"
 viewBox="0.00 0.00 284.00 137.00" xmlns="http://www.w3.org/2000/svg" xmlns:xlink="http://www.w3.org/1999/xlink">
<g id="graph0" class="graph" transform="scale(1 1) rotate(0) translate(4 133)">
<title>opp</title>
<polygon fill="transparent" stroke="transparent" points="-4,4 -4,-133 280,-133 280,4 -4,4"/>
<!-- ExampleInterface -->
<g id="node1" class="node">
<title>ExampleInterface</title>
<g id="a_node1"><a xlink:href="inet.tutorials.queueing.ExampleInterface.html" xlink:title="Compound Module ExampleInterface" target="_parent">
<polygon fill="#fff700" stroke="black" points="189.5,-74 86.5,-74 86.5,-55 189.5,-55 189.5,-74"/>
<text text-anchor="middle" x="138" y="-62" font-family="Helvetica,sans-Serif" font-size="10.00">ExampleInterface</text>
</a>
</g>
</g>
<!-- PacketQueue -->
<g id="node2" class="node">
<title>PacketQueue</title>
<g id="a_node2"><a xlink:href="inet.queueing.queue.PacketQueue.html" xlink:title="Simple Module PacketQueue" target="_parent">
<polygon fill="#fffcaf" stroke="black" points="80,-19 0,-19 0,0 80,0 80,-19"/>
<text text-anchor="middle" x="40" y="-7" font-family="Helvetica,sans-Serif" font-size="10.00">PacketQueue</text>
</a>
</g>
</g>
<!-- ExampleInterface&#45;&gt;PacketQueue -->
<g id="edge1" class="edge">
<title>ExampleInterface&#45;&gt;PacketQueue</title>
<path fill="none" stroke="black" d="M122.25,-54.98C106.77,-46.61 82.91,-33.7 64.86,-23.95"/>
<polygon fill="black" stroke="black" points="66.49,-20.85 56.03,-19.17 63.16,-27.01 66.49,-20.85"/>
</g>
<!-- IdealChannel -->
<g id="node3" class="node">
<title>IdealChannel</title>
<g id="a_node3"><a xlink:href="ned.IdealChannel.html" xlink:title="Channel IdealChannel" target="_parent">
<polygon fill="#d0ffd0" stroke="black" points="178,-19 98,-19 98,0 178,0 178,-19"/>
<text text-anchor="middle" x="138" y="-7" font-family="Helvetica,sans-Serif" font-size="10.00">IdealChannel</text>
</a>
</g>
</g>
<!-- ExampleInterface&#45;&gt;IdealChannel -->
<g id="edge2" class="edge">
<title>ExampleInterface&#45;&gt;IdealChannel</title>
<path fill="none" stroke="black" d="M138,-54.75C138,-47.8 138,-37.85 138,-29.13"/>
<polygon fill="black" stroke="black" points="141.5,-29.09 138,-19.09 134.5,-29.09 141.5,-29.09"/>
</g>
<!-- PacketServer -->
<g id="node4" class="node">
<title>PacketServer</title>
<g id="a_node4"><a xlink:href="inet.queueing.server.PacketServer.html" xlink:title="Simple Module PacketServer" target="_parent">
<polygon fill="#fffcaf" stroke="black" points="276,-19 196,-19 196,0 276,0 276,-19"/>
<text text-anchor="middle" x="236" y="-7" font-family="Helvetica,sans-Serif" font-size="10.00">PacketServer</text>
</a>
</g>
</g>
<!-- ExampleInterface&#45;&gt;PacketServer -->
<g id="edge3" class="edge">
<title>ExampleInterface&#45;&gt;PacketServer</title>
<path fill="none" stroke="black" d="M153.75,-54.98C169.23,-46.61 193.09,-33.7 211.14,-23.95"/>
<polygon fill="black" stroke="black" points="212.84,-27.01 219.97,-19.17 209.51,-20.85 212.84,-27.01"/>
</g>
<!-- ExampleHost -->
<g id="node5" class="node">
<title>ExampleHost</title>
<g id="a_node5"><a xlink:href="inet.tutorials.queueing.ExampleHost.html" xlink:title="Compound Module ExampleHost" target="_parent">
<polygon fill="#fffcaf" stroke="black" points="179,-129 97,-129 97,-110 179,-110 179,-129"/>
<text text-anchor="middle" x="138" y="-117" font-family="Helvetica,sans-Serif" font-size="10.00">ExampleHost</text>
</a>
</g>
</g>
<!-- ExampleHost&#45;&gt;ExampleInterface -->
<g id="edge4" class="edge">
<title>ExampleHost&#45;&gt;ExampleInterface</title>
<path fill="none" stroke="black" d="M138,-109.75C138,-102.8 138,-92.85 138,-84.13"/>
<polygon fill="black" stroke="black" points="141.5,-84.09 138,-74.09 134.5,-84.09 141.5,-84.09"/>
</g>
</g>
</svg>
