<?xml version="1.0" encoding="UTF-8" standalone="no"?>
<!DOCTYPE svg PUBLIC "-//W3C//DTD SVG 1.1//EN"
 "http://www.w3.org/Graphics/SVG/1.1/DTD/svg11.dtd">
<!-- Generated by graphviz version 2.43.0 (0)
 -->
<!-- Title: opp Pages: 1 -->
<svg width="416pt" height="82pt"
 viewBox="0.00 0.00 415.50 82.00" xmlns="http://www.w3.org/2000/svg" xmlns:xlink="http://www.w3.org/1999/xlink">
<g id="graph0" class="graph" transform="scale(1 1) rotate(0) translate(4 78)">
<title>opp</title>
<polygon fill="transparent" stroke="transparent" points="-4,4 -4,-78 411.5,-78 411.5,4 -4,4"/>
<!-- OSPF_BackboneAndOneStubTest -->
<g id="node1" class="node">
<title>OSPF_BackboneAndOneStubTest</title>
<g id="a_node1"><a xlink:href="inet.examples.ospfv2.areatests.OSPF_BackboneAndOneStubTest.html" xlink:title="Network OSPF_BackboneAndOneStubTest" target="_parent">
<polygon fill="#9090ff" stroke="black" points="287.5,-74 112.5,-74 112.5,-55 287.5,-55 287.5,-74"/>
<text text-anchor="middle" x="200" y="-62" font-family="Helvetica,sans-Serif" font-size="10.00">OSPF_BackboneAndOneStubTest</text>
</a>
</g>
</g>
<!-- C -->
<g id="node2" class="node">
<title>C</title>
<g id="a_node2"><a xlink:href="inet.examples.ospfv2.areatests.OSPF_BackboneAndOneStubTest.C.html" xlink:title="Channel C" target="_parent">
<polygon fill="#d0ffd0" stroke="black" points="54,-19 0,-19 0,0 54,0 54,-19"/>
<text text-anchor="middle" x="27" y="-7" font-family="Helvetica,sans-Serif" font-size="10.00">C</text>
</a>
</g>
</g>
<!-- OSPF_BackboneAndOneStubTest&#45;&gt;C -->
<g id="edge1" class="edge">
<title>OSPF_BackboneAndOneStubTest&#45;&gt;C</title>
<path fill="none" stroke="black" d="M172.2,-54.98C142.77,-45.97 96.18,-31.69 63.74,-21.75"/>
<polygon fill="black" stroke="black" points="64.74,-18.4 54.16,-18.82 62.69,-25.1 64.74,-18.4"/>
</g>
<!-- Ipv4NetworkConfigurator -->
<g id="node3" class="node">
<title>Ipv4NetworkConfigurator</title>
<g id="a_node3"><a xlink:href="inet.networklayer.configurator.ipv4.Ipv4NetworkConfigurator.html" xlink:title="Simple Module Ipv4NetworkConfigurator" target="_parent">
<polygon fill="#fffcaf" stroke="black" points="211.5,-19 72.5,-19 72.5,0 211.5,0 211.5,-19"/>
<text text-anchor="middle" x="142" y="-7" font-family="Helvetica,sans-Serif" font-size="10.00">Ipv4NetworkConfigurator</text>
</a>
</g>
</g>
<!-- OSPF_BackboneAndOneStubTest&#45;&gt;Ipv4NetworkConfigurator -->
<g id="edge2" class="edge">
<title>OSPF_BackboneAndOneStubTest&#45;&gt;Ipv4NetworkConfigurator</title>
<path fill="none" stroke="black" d="M190.68,-54.98C182.19,-47.23 169.44,-35.58 159.12,-26.14"/>
<polygon fill="black" stroke="black" points="161.23,-23.33 151.49,-19.17 156.51,-28.5 161.23,-23.33"/>
</g>
<!-- TestArea -->
<g id="node4" class="node">
<title>TestArea</title>
<g id="a_node4"><a xlink:href="inet.examples.ospfv2.areatests.TestArea.html" xlink:title="Compound Module TestArea" target="_parent">
<polygon fill="#fffcaf" stroke="black" points="288.5,-19 229.5,-19 229.5,0 288.5,0 288.5,-19"/>
<text text-anchor="middle" x="259" y="-7" font-family="Helvetica,sans-Serif" font-size="10.00">TestArea</text>
</a>
</g>
</g>
<!-- OSPF_BackboneAndOneStubTest&#45;&gt;TestArea -->
<g id="edge3" class="edge">
<title>OSPF_BackboneAndOneStubTest&#45;&gt;TestArea</title>
<path fill="none" stroke="black" d="M209.48,-54.98C218.2,-47.15 231.34,-35.34 241.9,-25.86"/>
<polygon fill="black" stroke="black" points="244.25,-28.46 249.35,-19.17 239.57,-23.25 244.25,-28.46"/>
</g>
<!-- ScenarioManager -->
<g id="node5" class="node">
<title>ScenarioManager</title>
<g id="a_node5"><a xlink:href="inet.common.scenario.ScenarioManager.html" xlink:title="Simple Module ScenarioManager" target="_parent">
<polygon fill="#fffcaf" stroke="black" points="407.5,-19 306.5,-19 306.5,0 407.5,0 407.5,-19"/>
<text text-anchor="middle" x="357" y="-7" font-family="Helvetica,sans-Serif" font-size="10.00">ScenarioManager</text>
</a>
</g>
</g>
<!-- OSPF_BackboneAndOneStubTest&#45;&gt;ScenarioManager -->
<g id="edge4" class="edge">
<title>OSPF_BackboneAndOneStubTest&#45;&gt;ScenarioManager</title>
<path fill="none" stroke="black" d="M225.22,-54.98C251.36,-46.16 292.4,-32.31 321.73,-22.41"/>
<polygon fill="black" stroke="black" points="323.22,-25.6 331.58,-19.08 320.98,-18.96 323.22,-25.6"/>
</g>
</g>
</svg>
