<?xml version="1.0" encoding="UTF-8" standalone="no"?>
<!DOCTYPE svg PUBLIC "-//W3C//DTD SVG 1.1//EN"
 "http://www.w3.org/Graphics/SVG/1.1/DTD/svg11.dtd">
<!-- Generated by graphviz version 2.43.0 (0)
 -->
<!-- Title: opp Pages: 1 -->
<svg width="62pt" height="137pt"
 viewBox="0.00 0.00 62.00 137.00" xmlns="http://www.w3.org/2000/svg" xmlns:xlink="http://www.w3.org/1999/xlink">
<g id="graph0" class="graph" transform="scale(1 1) rotate(0) translate(4 133)">
<title>opp</title>
<polygon fill="transparent" stroke="transparent" points="-4,4 -4,-133 58,-133 58,4 -4,4"/>
<!-- IBgp -->
<g id="node1" class="node">
<title>IBgp</title>
<g id="a_node1"><a xlink:href="inet.routing.contract.IBgp.html" xlink:title="Module Interface IBgp" target="_parent">
<polygon fill="#fff700" stroke="black" stroke-dasharray="5,2" points="54,-74 0,-74 0,-55 54,-55 54,-74"/>
<text text-anchor="middle" x="27" y="-62" font-family="Helvetica,sans-Serif" font-size="10.00">IBgp</text>
</a>
</g>
</g>
<!-- Bgp -->
<g id="node3" class="node">
<title>Bgp</title>
<g id="a_node3"><a xlink:href="inet.routing.bgpv4.Bgp.html" xlink:title="Simple Module Bgp" target="_parent">
<polygon fill="#fffcaf" stroke="black" points="54,-19 0,-19 0,0 54,0 54,-19"/>
<text text-anchor="middle" x="27" y="-7" font-family="Helvetica,sans-Serif" font-size="10.00">Bgp</text>
</a>
</g>
</g>
<!-- IBgp&#45;&gt;Bgp -->
<g id="edge2" class="edge">
<title>IBgp&#45;&gt;Bgp</title>
<path fill="none" stroke="black" stroke-dasharray="5,2" d="M27,-54.75C27,-44.87 27,-28.9 27,-19.09"/>
</g>
<!-- IApp -->
<g id="node2" class="node">
<title>IApp</title>
<g id="a_node2"><a xlink:href="inet.applications.contract.IApp.html" xlink:title="Module Interface IApp" target="_parent">
<polygon fill="#fffcaf" stroke="black" stroke-dasharray="5,2" points="54,-129 0,-129 0,-110 54,-110 54,-129"/>
<text text-anchor="middle" x="27" y="-117" font-family="Helvetica,sans-Serif" font-size="10.00">IApp</text>
</a>
</g>
</g>
<!-- IApp&#45;&gt;IBgp -->
<g id="edge1" class="edge">
<title>IApp&#45;&gt;IBgp</title>
<path fill="none" stroke="black" d="M27,-109.75C27,-99.87 27,-83.9 27,-74.09"/>
</g>
</g>
</svg>
