<?xml version="1.0" encoding="UTF-8" standalone="no"?>
<!DOCTYPE svg PUBLIC "-//W3C//DTD SVG 1.1//EN"
 "http://www.w3.org/Graphics/SVG/1.1/DTD/svg11.dtd">
<!-- Generated by graphviz version 2.43.0 (0)
 -->
<!-- Title: opp Pages: 1 -->
<svg width="212pt" height="137pt"
 viewBox="0.00 0.00 211.50 137.00" xmlns="http://www.w3.org/2000/svg" xmlns:xlink="http://www.w3.org/1999/xlink">
<g id="graph0" class="graph" transform="scale(1 1) rotate(0) translate(4 133)">
<title>opp</title>
<polygon fill="transparent" stroke="transparent" points="-4,4 -4,-133 207.5,-133 207.5,4 -4,4"/>
<!-- MobileHost -->
<g id="node1" class="node">
<title>MobileHost</title>
<g id="a_node1"><a xlink:href="inet.examples.mobility.MobileHost.html" xlink:title="Compound Module MobileHost" target="_parent">
<polygon fill="#fff700" stroke="black" points="138,-74 66,-74 66,-55 138,-55 138,-74"/>
<text text-anchor="middle" x="102" y="-62" font-family="Helvetica,sans-Serif" font-size="10.00">MobileHost</text>
</a>
</g>
</g>
<!-- IMobility -->
<g id="node2" class="node">
<title>IMobility</title>
<g id="a_node2"><a xlink:href="inet.mobility.contract.IMobility.html" xlink:title="Module Interface IMobility" target="_parent">
<polygon fill="#fffcaf" stroke="black" stroke-dasharray="5,2" points="131.5,-19 72.5,-19 72.5,0 131.5,0 131.5,-19"/>
<text text-anchor="middle" x="102" y="-7" font-family="Helvetica,sans-Serif" font-size="10.00">IMobility</text>
</a>
</g>
</g>
<!-- MobileHost&#45;&gt;IMobility -->
<g id="edge1" class="edge">
<title>MobileHost&#45;&gt;IMobility</title>
<path fill="none" stroke="black" d="M102,-54.75C102,-47.8 102,-37.85 102,-29.13"/>
<polygon fill="black" stroke="black" points="105.5,-29.09 102,-19.09 98.5,-29.09 105.5,-29.09"/>
</g>
<!-- MoBANNetwork -->
<g id="node3" class="node">
<title>MoBANNetwork</title>
<g id="a_node3"><a xlink:href="inet.examples.mobility.MoBANNetwork.html" xlink:title="Network MoBANNetwork" target="_parent">
<polygon fill="#d0d0ff" stroke="black" points="94,-129 0,-129 0,-110 94,-110 94,-129"/>
<text text-anchor="middle" x="47" y="-117" font-family="Helvetica,sans-Serif" font-size="10.00">MoBANNetwork</text>
</a>
</g>
</g>
<!-- MoBANNetwork&#45;&gt;MobileHost -->
<g id="edge2" class="edge">
<title>MoBANNetwork&#45;&gt;MobileHost</title>
<path fill="none" stroke="black" d="M56.08,-109.75C64.09,-102.03 75.96,-90.6 85.62,-81.28"/>
<polygon fill="black" stroke="black" points="88.31,-83.55 93.09,-74.09 83.46,-78.51 88.31,-83.55"/>
</g>
<!-- MobileNetwork -->
<g id="node4" class="node">
<title>MobileNetwork</title>
<g id="a_node4"><a xlink:href="inet.examples.mobility.MobileNetwork.html" xlink:title="Network MobileNetwork" target="_parent">
<polygon fill="#d0d0ff" stroke="black" points="203.5,-129 112.5,-129 112.5,-110 203.5,-110 203.5,-129"/>
<text text-anchor="middle" x="158" y="-117" font-family="Helvetica,sans-Serif" font-size="10.00">MobileNetwork</text>
</a>
</g>
</g>
<!-- MobileNetwork&#45;&gt;MobileHost -->
<g id="edge3" class="edge">
<title>MobileNetwork&#45;&gt;MobileHost</title>
<path fill="none" stroke="black" d="M149,-109.98C140.81,-102.23 128.49,-90.58 118.53,-81.14"/>
<polygon fill="black" stroke="black" points="120.83,-78.5 111.16,-74.17 116.02,-83.59 120.83,-78.5"/>
</g>
</g>
</svg>
