<?xml version="1.0" encoding="UTF-8" standalone="no"?>
<!DOCTYPE svg PUBLIC "-//W3C//DTD SVG 1.1//EN"
 "http://www.w3.org/Graphics/SVG/1.1/DTD/svg11.dtd">
<!-- Generated by graphviz version 2.43.0 (0)
 -->
<!-- Title: opp Pages: 1 -->
<svg width="740pt" height="82pt"
 viewBox="0.00 0.00 740.00 82.00" xmlns="http://www.w3.org/2000/svg" xmlns:xlink="http://www.w3.org/1999/xlink">
<g id="graph0" class="graph" transform="scale(1 1) rotate(0) translate(4 78)">
<title>opp</title>
<polygon fill="transparent" stroke="transparent" points="-4,4 -4,-78 736,-78 736,4 -4,4"/>
<!-- ManetSensorNetwork -->
<g id="node1" class="node">
<title>ManetSensorNetwork</title>
<g id="a_node1"><a xlink:href="inet.showcases.wireless.sensornetwork.ManetSensorNetwork.html" xlink:title="Network ManetSensorNetwork" target="_parent">
<polygon fill="#9090ff" stroke="black" points="418.5,-74 296.5,-74 296.5,-55 418.5,-55 418.5,-74"/>
<text text-anchor="middle" x="357.5" y="-62" font-family="Helvetica,sans-Serif" font-size="10.00">ManetSensorNetwork</text>
</a>
</g>
</g>
<!-- IntegratedVisualizer -->
<g id="node2" class="node">
<title>IntegratedVisualizer</title>
<g id="a_node2"><a xlink:href="inet.visualizer.common.IntegratedVisualizer.html" xlink:title="Compound Module IntegratedVisualizer" target="_parent">
<polygon fill="#fffcaf" stroke="black" points="115,-19 0,-19 0,0 115,0 115,-19"/>
<text text-anchor="middle" x="57.5" y="-7" font-family="Helvetica,sans-Serif" font-size="10.00">IntegratedVisualizer</text>
</a>
</g>
</g>
<!-- ManetSensorNetwork&#45;&gt;IntegratedVisualizer -->
<g id="edge1" class="edge">
<title>ManetSensorNetwork&#45;&gt;IntegratedVisualizer</title>
<path fill="none" stroke="black" d="M309.3,-54.98C256.75,-45.7 172.65,-30.84 116.27,-20.88"/>
<polygon fill="black" stroke="black" points="116.53,-17.38 106.08,-19.08 115.32,-24.27 116.53,-17.38"/>
</g>
<!-- StandardHost -->
<g id="node3" class="node">
<title>StandardHost</title>
<g id="a_node3"><a xlink:href="inet.node.inet.StandardHost.html" xlink:title="Compound Module StandardHost" target="_parent">
<polygon fill="#fffcaf" stroke="black" points="216,-19 133,-19 133,0 216,0 216,-19"/>
<text text-anchor="middle" x="174.5" y="-7" font-family="Helvetica,sans-Serif" font-size="10.00">StandardHost</text>
</a>
</g>
</g>
<!-- ManetSensorNetwork&#45;&gt;StandardHost -->
<g id="edge2" class="edge">
<title>ManetSensorNetwork&#45;&gt;StandardHost</title>
<path fill="none" stroke="black" d="M328.1,-54.98C297.11,-46.01 248.12,-31.82 213.83,-21.89"/>
<polygon fill="black" stroke="black" points="214.71,-18.5 204.13,-19.08 212.76,-25.23 214.71,-18.5"/>
</g>
<!-- ManetSensorNode -->
<g id="node4" class="node">
<title>ManetSensorNode</title>
<g id="a_node4"><a xlink:href="inet.showcases.wireless.sensornetwork.ManetSensorNode.html" xlink:title="Compound Module ManetSensorNode" target="_parent">
<polygon fill="#fffcaf" stroke="black" points="340.5,-19 234.5,-19 234.5,0 340.5,0 340.5,-19"/>
<text text-anchor="middle" x="287.5" y="-7" font-family="Helvetica,sans-Serif" font-size="10.00">ManetSensorNode</text>
</a>
</g>
</g>
<!-- ManetSensorNetwork&#45;&gt;ManetSensorNode -->
<g id="edge3" class="edge">
<title>ManetSensorNetwork&#45;&gt;ManetSensorNode</title>
<path fill="none" stroke="black" d="M346.25,-54.98C335.7,-47 319.7,-34.88 307.06,-25.31"/>
<polygon fill="black" stroke="black" points="309.04,-22.42 298.95,-19.17 304.81,-28 309.04,-22.42"/>
</g>
<!-- Ipv4NetworkConfigurator -->
<g id="node5" class="node">
<title>Ipv4NetworkConfigurator</title>
<g id="a_node5"><a xlink:href="inet.networklayer.configurator.ipv4.Ipv4NetworkConfigurator.html" xlink:title="Simple Module Ipv4NetworkConfigurator" target="_parent">
<polygon fill="#fffcaf" stroke="black" points="498,-19 359,-19 359,0 498,0 498,-19"/>
<text text-anchor="middle" x="428.5" y="-7" font-family="Helvetica,sans-Serif" font-size="10.00">Ipv4NetworkConfigurator</text>
</a>
</g>
</g>
<!-- ManetSensorNetwork&#45;&gt;Ipv4NetworkConfigurator -->
<g id="edge4" class="edge">
<title>ManetSensorNetwork&#45;&gt;Ipv4NetworkConfigurator</title>
<path fill="none" stroke="black" d="M368.91,-54.98C379.61,-47 395.84,-34.88 408.66,-25.31"/>
<polygon fill="black" stroke="black" points="410.97,-27.96 416.89,-19.17 406.78,-22.35 410.97,-27.96"/>
</g>
<!-- ApskScalarRadioMedium -->
<g id="node6" class="node">
<title>ApskScalarRadioMedium</title>
<g id="a_node6"><a xlink:href="inet.physicallayer.wireless.apsk.packetlevel.ApskScalarRadioMedium.html" xlink:title="Compound Module ApskScalarRadioMedium" target="_parent">
<polygon fill="#fffcaf" stroke="black" points="654.5,-19 516.5,-19 516.5,0 654.5,0 654.5,-19"/>
<text text-anchor="middle" x="585.5" y="-7" font-family="Helvetica,sans-Serif" font-size="10.00">ApskScalarRadioMedium</text>
</a>
</g>
</g>
<!-- ManetSensorNetwork&#45;&gt;ApskScalarRadioMedium -->
<g id="edge5" class="edge">
<title>ManetSensorNetwork&#45;&gt;ApskScalarRadioMedium</title>
<path fill="none" stroke="black" d="M394.13,-54.98C433.41,-45.86 495.87,-31.33 538.69,-21.38"/>
<polygon fill="black" stroke="black" points="539.63,-24.76 548.58,-19.08 538.05,-17.94 539.63,-24.76"/>
</g>
<!-- Eth100M -->
<g id="node7" class="node">
<title>Eth100M</title>
<g id="a_node7"><a xlink:href="inet.node.ethernet.Eth100M.html" xlink:title="Channel Eth100M" target="_parent">
<polygon fill="#d0ffd0" stroke="black" points="732,-19 673,-19 673,0 732,0 732,-19"/>
<text text-anchor="middle" x="702.5" y="-7" font-family="Helvetica,sans-Serif" font-size="10.00">Eth100M</text>
</a>
</g>
</g>
<!-- ManetSensorNetwork&#45;&gt;Eth100M -->
<g id="edge6" class="edge">
<title>ManetSensorNetwork&#45;&gt;Eth100M</title>
<path fill="none" stroke="black" d="M418.67,-55.89C478.41,-48.17 572.11,-35.28 662.83,-19.01"/>
<polygon fill="black" stroke="black" points="663.52,-22.44 672.73,-17.21 662.27,-15.55 663.52,-22.44"/>
</g>
</g>
</svg>
