<?xml version="1.0" encoding="UTF-8" standalone="no"?>
<!DOCTYPE svg PUBLIC "-//W3C//DTD SVG 1.1//EN"
 "http://www.w3.org/Graphics/SVG/1.1/DTD/svg11.dtd">
<!-- Generated by graphviz version 2.43.0 (0)
 -->
<!-- Title: opp Pages: 1 -->
<svg width="266pt" height="82pt"
 viewBox="0.00 0.00 265.50 82.00" xmlns="http://www.w3.org/2000/svg" xmlns:xlink="http://www.w3.org/1999/xlink">
<g id="graph0" class="graph" transform="scale(1 1) rotate(0) translate(4 78)">
<title>opp</title>
<polygon fill="transparent" stroke="transparent" points="-4,4 -4,-78 261.5,-78 261.5,4 -4,4"/>
<!-- EthernetQosQueue -->
<g id="node1" class="node">
<title>EthernetQosQueue</title>
<g id="a_node1"><a xlink:href="inet.linklayer.ethernet.common.EthernetQosQueue.html" xlink:title="Compound Module EthernetQosQueue" target="_parent">
<polygon fill="#fff700" stroke="black" points="201,-19 93,-19 93,0 201,0 201,-19"/>
<text text-anchor="middle" x="147" y="-7" font-family="Helvetica,sans-Serif" font-size="10.00">EthernetQosQueue</text>
</a>
</g>
</g>
<!-- CompoundPacketQueueBase -->
<g id="node2" class="node">
<title>CompoundPacketQueueBase</title>
<g id="a_node2"><a xlink:href="inet.queueing.queue.CompoundPacketQueueBase.html" xlink:title="Compound Module CompoundPacketQueueBase" target="_parent">
<polygon fill="#fffcaf" stroke="black" points="156,-74 0,-74 0,-55 156,-55 156,-74"/>
<text text-anchor="middle" x="78" y="-62" font-family="Helvetica,sans-Serif" font-size="10.00">CompoundPacketQueueBase</text>
</a>
</g>
</g>
<!-- CompoundPacketQueueBase&#45;&gt;EthernetQosQueue -->
<g id="edge1" class="edge">
<title>CompoundPacketQueueBase&#45;&gt;EthernetQosQueue</title>
<path fill="none" stroke="black" d="M89.09,-54.98C101.89,-45.15 122.83,-29.07 135.71,-19.17"/>
</g>
<!-- IPacketQueue -->
<g id="node3" class="node">
<title>IPacketQueue</title>
<g id="a_node3"><a xlink:href="inet.queueing.contract.IPacketQueue.html" xlink:title="Module Interface IPacketQueue" target="_parent">
<polygon fill="#fffcaf" stroke="black" stroke-dasharray="5,2" points="257.5,-74 174.5,-74 174.5,-55 257.5,-55 257.5,-74"/>
<text text-anchor="middle" x="216" y="-62" font-family="Helvetica,sans-Serif" font-size="10.00">IPacketQueue</text>
</a>
</g>
</g>
<!-- IPacketQueue&#45;&gt;EthernetQosQueue -->
<g id="edge2" class="edge">
<title>IPacketQueue&#45;&gt;EthernetQosQueue</title>
<path fill="none" stroke="black" stroke-dasharray="5,2" d="M204.91,-54.98C192.11,-45.15 171.17,-29.07 158.29,-19.17"/>
</g>
</g>
</svg>
