<?xml version="1.0" encoding="UTF-8" standalone="no"?>
<!DOCTYPE svg PUBLIC "-//W3C//DTD SVG 1.1//EN"
 "http://www.w3.org/Graphics/SVG/1.1/DTD/svg11.dtd">
<!-- Generated by graphviz version 2.43.0 (0)
 -->
<!-- Title: opp Pages: 1 -->
<svg width="742pt" height="82pt"
 viewBox="0.00 0.00 741.50 82.00" xmlns="http://www.w3.org/2000/svg" xmlns:xlink="http://www.w3.org/1999/xlink">
<g id="graph0" class="graph" transform="scale(1 1) rotate(0) translate(4 78)">
<title>opp</title>
<polygon fill="transparent" stroke="transparent" points="-4,4 -4,-78 737.5,-78 737.5,4 -4,4"/>
<!-- Ieee8021qFilter -->
<g id="node1" class="node">
<title>Ieee8021qFilter</title>
<g id="a_node1"><a xlink:href="inet.linklayer.ieee8021q.Ieee8021qFilter.html" xlink:title="Compound Module Ieee8021qFilter" target="_parent">
<polygon fill="#fff700" stroke="black" points="424,-74 332,-74 332,-55 424,-55 424,-74"/>
<text text-anchor="middle" x="378" y="-62" font-family="Helvetica,sans-Serif" font-size="10.00">Ieee8021qFilter</text>
</a>
</g>
</g>
<!-- BackPressureBarrier -->
<g id="node2" class="node">
<title>BackPressureBarrier</title>
<g id="a_node2"><a xlink:href="inet.queueing.common.BackPressureBarrier.html" xlink:title="Simple Module BackPressureBarrier" target="_parent">
<polygon fill="#fffcaf" stroke="black" points="116,-19 0,-19 0,0 116,0 116,-19"/>
<text text-anchor="middle" x="58" y="-7" font-family="Helvetica,sans-Serif" font-size="10.00">BackPressureBarrier</text>
</a>
</g>
</g>
<!-- Ieee8021qFilter&#45;&gt;BackPressureBarrier -->
<g id="edge1" class="edge">
<title>Ieee8021qFilter&#45;&gt;BackPressureBarrier</title>
<path fill="none" stroke="black" d="M331.81,-55.85C275.9,-46.59 181.55,-30.96 119.52,-20.69"/>
<polygon fill="black" stroke="black" points="119.91,-17.21 109.48,-19.03 118.77,-24.11 119.91,-17.21"/>
</g>
<!-- IPacketClassifier -->
<g id="node3" class="node">
<title>IPacketClassifier</title>
<g id="a_node3"><a xlink:href="inet.queueing.contract.IPacketClassifier.html" xlink:title="Module Interface IPacketClassifier" target="_parent">
<polygon fill="#fffcaf" stroke="black" stroke-dasharray="5,2" points="230,-19 134,-19 134,0 230,0 230,-19"/>
<text text-anchor="middle" x="182" y="-7" font-family="Helvetica,sans-Serif" font-size="10.00">IPacketClassifier</text>
</a>
</g>
</g>
<!-- Ieee8021qFilter&#45;&gt;IPacketClassifier -->
<g id="edge2" class="edge">
<title>Ieee8021qFilter&#45;&gt;IPacketClassifier</title>
<path fill="none" stroke="black" d="M346.51,-54.98C313.18,-45.97 260.4,-31.7 223.65,-21.76"/>
<polygon fill="black" stroke="black" points="224.3,-18.31 213.74,-19.08 222.48,-25.07 224.3,-18.31"/>
</g>
<!-- IPacketGate -->
<g id="node4" class="node">
<title>IPacketGate</title>
<g id="a_node4"><a xlink:href="inet.queueing.contract.IPacketGate.html" xlink:title="Module Interface IPacketGate" target="_parent">
<polygon fill="#fffcaf" stroke="black" stroke-dasharray="5,2" points="322,-19 248,-19 248,0 322,0 322,-19"/>
<text text-anchor="middle" x="285" y="-7" font-family="Helvetica,sans-Serif" font-size="10.00">IPacketGate</text>
</a>
</g>
</g>
<!-- Ieee8021qFilter&#45;&gt;IPacketGate -->
<g id="edge3" class="edge">
<title>Ieee8021qFilter&#45;&gt;IPacketGate</title>
<path fill="none" stroke="black" d="M363.06,-54.98C348.5,-46.69 326.13,-33.94 309.07,-24.22"/>
<polygon fill="black" stroke="black" points="310.64,-21.08 300.21,-19.17 307.17,-27.16 310.64,-21.08"/>
</g>
<!-- IPacketFilter -->
<g id="node5" class="node">
<title>IPacketFilter</title>
<g id="a_node5"><a xlink:href="inet.queueing.contract.IPacketFilter.html" xlink:title="Module Interface IPacketFilter" target="_parent">
<polygon fill="#fffcaf" stroke="black" stroke-dasharray="5,2" points="416,-19 340,-19 340,0 416,0 416,-19"/>
<text text-anchor="middle" x="378" y="-7" font-family="Helvetica,sans-Serif" font-size="10.00">IPacketFilter</text>
</a>
</g>
</g>
<!-- Ieee8021qFilter&#45;&gt;IPacketFilter -->
<g id="edge4" class="edge">
<title>Ieee8021qFilter&#45;&gt;IPacketFilter</title>
<path fill="none" stroke="black" d="M378,-54.75C378,-47.8 378,-37.85 378,-29.13"/>
<polygon fill="black" stroke="black" points="381.5,-29.09 378,-19.09 374.5,-29.09 381.5,-29.09"/>
</g>
<!-- IPacketMeter -->
<g id="node6" class="node">
<title>IPacketMeter</title>
<g id="a_node6"><a xlink:href="inet.queueing.contract.IPacketMeter.html" xlink:title="Module Interface IPacketMeter" target="_parent">
<polygon fill="#fffcaf" stroke="black" stroke-dasharray="5,2" points="514,-19 434,-19 434,0 514,0 514,-19"/>
<text text-anchor="middle" x="474" y="-7" font-family="Helvetica,sans-Serif" font-size="10.00">IPacketMeter</text>
</a>
</g>
</g>
<!-- Ieee8021qFilter&#45;&gt;IPacketMeter -->
<g id="edge5" class="edge">
<title>Ieee8021qFilter&#45;&gt;IPacketMeter</title>
<path fill="none" stroke="black" d="M393.42,-54.98C408.45,-46.69 431.54,-33.94 449.16,-24.22"/>
<polygon fill="black" stroke="black" points="451.23,-27.07 458.3,-19.17 447.85,-20.94 451.23,-27.07"/>
</g>
<!-- IdealChannel -->
<g id="node7" class="node">
<title>IdealChannel</title>
<g id="a_node7"><a xlink:href="ned.IdealChannel.html" xlink:title="Channel IdealChannel" target="_parent">
<polygon fill="#d0ffd0" stroke="black" points="612,-19 532,-19 532,0 612,0 612,-19"/>
<text text-anchor="middle" x="572" y="-7" font-family="Helvetica,sans-Serif" font-size="10.00">IdealChannel</text>
</a>
</g>
</g>
<!-- Ieee8021qFilter&#45;&gt;IdealChannel -->
<g id="edge6" class="edge">
<title>Ieee8021qFilter&#45;&gt;IdealChannel</title>
<path fill="none" stroke="black" d="M409.17,-54.98C442.16,-45.97 494.4,-31.7 530.77,-21.76"/>
<polygon fill="black" stroke="black" points="531.86,-25.09 540.59,-19.08 530.02,-18.34 531.86,-25.09"/>
</g>
<!-- PacketMultiplexer -->
<g id="node8" class="node">
<title>PacketMultiplexer</title>
<g id="a_node8"><a xlink:href="inet.queueing.common.PacketMultiplexer.html" xlink:title="Simple Module PacketMultiplexer" target="_parent">
<polygon fill="#fffcaf" stroke="black" points="733.5,-19 630.5,-19 630.5,0 733.5,0 733.5,-19"/>
<text text-anchor="middle" x="682" y="-7" font-family="Helvetica,sans-Serif" font-size="10.00">PacketMultiplexer</text>
</a>
</g>
</g>
<!-- Ieee8021qFilter&#45;&gt;PacketMultiplexer -->
<g id="edge7" class="edge">
<title>Ieee8021qFilter&#45;&gt;PacketMultiplexer</title>
<path fill="none" stroke="black" d="M424.17,-55.45C477.37,-46.18 564.9,-30.92 622.99,-20.79"/>
<polygon fill="black" stroke="black" points="623.87,-24.19 633.12,-19.02 622.67,-17.29 623.87,-24.19"/>
</g>
</g>
</svg>
