<?xml version="1.0" encoding="UTF-8" standalone="no"?>
<!DOCTYPE svg PUBLIC "-//W3C//DTD SVG 1.1//EN"
 "http://www.w3.org/Graphics/SVG/1.1/DTD/svg11.dtd">
<!-- Generated by graphviz version 2.43.0 (0)
 -->
<!-- Title: opp Pages: 1 -->
<svg width="192pt" height="82pt"
 viewBox="0.00 0.00 192.00 82.00" xmlns="http://www.w3.org/2000/svg" xmlns:xlink="http://www.w3.org/1999/xlink">
<g id="graph0" class="graph" transform="scale(1 1) rotate(0) translate(4 78)">
<title>opp</title>
<polygon fill="transparent" stroke="transparent" points="-4,4 -4,-78 188,-78 188,4 -4,4"/>
<!-- Ospfv3 -->
<g id="node1" class="node">
<title>Ospfv3</title>
<g id="a_node1"><a xlink:href="inet.routing.ospfv3.Ospfv3.html" xlink:title="Compound Module Ospfv3" target="_parent">
<polygon fill="#fff700" stroke="black" points="117,-74 63,-74 63,-55 117,-55 117,-74"/>
<text text-anchor="middle" x="90" y="-62" font-family="Helvetica,sans-Serif" font-size="10.00">Ospfv3</text>
</a>
</g>
</g>
<!-- IdealChannel -->
<g id="node2" class="node">
<title>IdealChannel</title>
<g id="a_node2"><a xlink:href="ned.IdealChannel.html" xlink:title="Channel IdealChannel" target="_parent">
<polygon fill="#d0ffd0" stroke="black" points="80,-19 0,-19 0,0 80,0 80,-19"/>
<text text-anchor="middle" x="40" y="-7" font-family="Helvetica,sans-Serif" font-size="10.00">IdealChannel</text>
</a>
</g>
</g>
<!-- Ospfv3&#45;&gt;IdealChannel -->
<g id="edge1" class="edge">
<title>Ospfv3&#45;&gt;IdealChannel</title>
<path fill="none" stroke="black" d="M81.74,-54.75C74.54,-47.11 63.89,-35.82 55.15,-26.56"/>
<polygon fill="black" stroke="black" points="57.51,-23.96 48.1,-19.09 52.42,-28.76 57.51,-23.96"/>
</g>
<!-- Ospfv3Splitter -->
<g id="node3" class="node">
<title>Ospfv3Splitter</title>
<g id="a_node3"><a xlink:href="inet.routing.ospfv3.Ospfv3Splitter.html" xlink:title="Simple Module Ospfv3Splitter" target="_parent">
<polygon fill="#fffcaf" stroke="black" points="184,-19 98,-19 98,0 184,0 184,-19"/>
<text text-anchor="middle" x="141" y="-7" font-family="Helvetica,sans-Serif" font-size="10.00">Ospfv3Splitter</text>
</a>
</g>
</g>
<!-- Ospfv3&#45;&gt;Ospfv3Splitter -->
<g id="edge2" class="edge">
<title>Ospfv3&#45;&gt;Ospfv3Splitter</title>
<path fill="none" stroke="black" d="M98.42,-54.75C105.77,-47.11 116.63,-35.82 125.54,-26.56"/>
<polygon fill="black" stroke="black" points="128.32,-28.72 132.74,-19.09 123.28,-23.87 128.32,-28.72"/>
</g>
</g>
</svg>
