<?xml version="1.0" encoding="UTF-8" standalone="no"?>
<!DOCTYPE svg PUBLIC "-//W3C//DTD SVG 1.1//EN"
 "http://www.w3.org/Graphics/SVG/1.1/DTD/svg11.dtd">
<!-- Generated by graphviz version 2.43.0 (0)
 -->
<!-- Title: opp Pages: 1 -->
<svg width="252pt" height="137pt"
 viewBox="0.00 0.00 251.50 137.00" xmlns="http://www.w3.org/2000/svg" xmlns:xlink="http://www.w3.org/1999/xlink">
<g id="graph0" class="graph" transform="scale(1 1) rotate(0) translate(4 133)">
<title>opp</title>
<polygon fill="transparent" stroke="transparent" points="-4,4 -4,-133 247.5,-133 247.5,4 -4,4"/>
<!-- StreamingReceiverBase -->
<g id="node1" class="node">
<title>StreamingReceiverBase</title>
<g id="a_node1"><a xlink:href="inet.protocolelement.transceiver.base.StreamingReceiverBase.html" xlink:title="Simple Module StreamingReceiverBase" target="_parent">
<polygon fill="#fff700" stroke="black" points="177.5,-74 43.5,-74 43.5,-55 177.5,-55 177.5,-74"/>
<text text-anchor="middle" x="110.5" y="-62" font-family="Helvetica,sans-Serif" font-size="10.00">StreamingReceiverBase</text>
</a>
</g>
</g>
<!-- PacketReceiver -->
<g id="node3" class="node">
<title>PacketReceiver</title>
<g id="a_node3"><a xlink:href="inet.protocolelement.transceiver.PacketReceiver.html" xlink:title="Simple Module PacketReceiver" target="_parent">
<polygon fill="#fffcaf" stroke="black" points="91,-19 0,-19 0,0 91,0 91,-19"/>
<text text-anchor="middle" x="45.5" y="-7" font-family="Helvetica,sans-Serif" font-size="10.00">PacketReceiver</text>
</a>
</g>
</g>
<!-- StreamingReceiverBase&#45;&gt;PacketReceiver -->
<g id="edge2" class="edge">
<title>StreamingReceiverBase&#45;&gt;PacketReceiver</title>
<path fill="none" stroke="black" d="M100.06,-54.98C88,-45.15 68.27,-29.07 56.13,-19.17"/>
</g>
<!-- StreamThroughReceiver -->
<g id="node4" class="node">
<title>StreamThroughReceiver</title>
<g id="a_node4"><a xlink:href="inet.protocolelement.transceiver.StreamThroughReceiver.html" xlink:title="Simple Module StreamThroughReceiver" target="_parent">
<polygon fill="#fffcaf" stroke="black" points="243.5,-19 109.5,-19 109.5,0 243.5,0 243.5,-19"/>
<text text-anchor="middle" x="176.5" y="-7" font-family="Helvetica,sans-Serif" font-size="10.00">StreamThroughReceiver</text>
</a>
</g>
</g>
<!-- StreamingReceiverBase&#45;&gt;StreamThroughReceiver -->
<g id="edge3" class="edge">
<title>StreamingReceiverBase&#45;&gt;StreamThroughReceiver</title>
<path fill="none" stroke="black" d="M121.1,-54.98C133.35,-45.15 153.38,-29.07 165.7,-19.17"/>
</g>
<!-- PacketReceiverBase -->
<g id="node2" class="node">
<title>PacketReceiverBase</title>
<g id="a_node2"><a xlink:href="inet.protocolelement.transceiver.base.PacketReceiverBase.html" xlink:title="Simple Module PacketReceiverBase" target="_parent">
<polygon fill="#fffcaf" stroke="black" points="168,-129 53,-129 53,-110 168,-110 168,-129"/>
<text text-anchor="middle" x="110.5" y="-117" font-family="Helvetica,sans-Serif" font-size="10.00">PacketReceiverBase</text>
</a>
</g>
</g>
<!-- PacketReceiverBase&#45;&gt;StreamingReceiverBase -->
<g id="edge1" class="edge">
<title>PacketReceiverBase&#45;&gt;StreamingReceiverBase</title>
<path fill="none" stroke="black" d="M110.5,-109.75C110.5,-99.87 110.5,-83.9 110.5,-74.09"/>
</g>
</g>
</svg>
