<?xml version="1.0" encoding="UTF-8" standalone="no"?>
<!DOCTYPE svg PUBLIC "-//W3C//DTD SVG 1.1//EN"
 "http://www.w3.org/Graphics/SVG/1.1/DTD/svg11.dtd">
<!-- Generated by graphviz version 2.43.0 (0)
 -->
<!-- Title: opp Pages: 1 -->
<svg width="318pt" height="82pt"
 viewBox="0.00 0.00 318.00 82.00" xmlns="http://www.w3.org/2000/svg" xmlns:xlink="http://www.w3.org/1999/xlink">
<g id="graph0" class="graph" transform="scale(1 1) rotate(0) translate(4 78)">
<title>opp</title>
<polygon fill="transparent" stroke="transparent" points="-4,4 -4,-78 314,-78 314,4 -4,4"/>
<!-- IRoutingTableVisualizer -->
<g id="node1" class="node">
<title>IRoutingTableVisualizer</title>
<g id="a_node1"><a xlink:href="inet.visualizer.contract.IRoutingTableVisualizer.html" xlink:title="Module Interface IRoutingTableVisualizer" target="_parent">
<polygon fill="#fff700" stroke="black" stroke-dasharray="5,2" points="229.5,-74 98.5,-74 98.5,-55 229.5,-55 229.5,-74"/>
<text text-anchor="middle" x="164" y="-62" font-family="Helvetica,sans-Serif" font-size="10.00">IRoutingTableVisualizer</text>
</a>
</g>
</g>
<!-- RoutingTableCanvasVisualizer -->
<g id="node2" class="node">
<title>RoutingTableCanvasVisualizer</title>
<g id="a_node2"><a xlink:href="inet.visualizer.canvas.networklayer.RoutingTableCanvasVisualizer.html" xlink:title="Simple Module RoutingTableCanvasVisualizer" target="_parent">
<polygon fill="#fffcaf" stroke="black" points="164,-19 0,-19 0,0 164,0 164,-19"/>
<text text-anchor="middle" x="82" y="-7" font-family="Helvetica,sans-Serif" font-size="10.00">RoutingTableCanvasVisualizer</text>
</a>
</g>
</g>
<!-- IRoutingTableVisualizer&#45;&gt;RoutingTableCanvasVisualizer -->
<g id="edge1" class="edge">
<title>IRoutingTableVisualizer&#45;&gt;RoutingTableCanvasVisualizer</title>
<path fill="none" stroke="black" stroke-dasharray="5,2" d="M150.83,-54.98C135.61,-45.15 110.73,-29.07 95.41,-19.17"/>
</g>
<!-- RoutingTableVisualizer -->
<g id="node3" class="node">
<title>RoutingTableVisualizer</title>
<g id="a_node3"><a xlink:href="inet.visualizer.common.RoutingTableVisualizer.html" xlink:title="Compound Module RoutingTableVisualizer" target="_parent">
<polygon fill="#fffcaf" stroke="black" points="310,-19 182,-19 182,0 310,0 310,-19"/>
<text text-anchor="middle" x="246" y="-7" font-family="Helvetica,sans-Serif" font-size="10.00">RoutingTableVisualizer</text>
</a>
</g>
</g>
<!-- IRoutingTableVisualizer&#45;&gt;RoutingTableVisualizer -->
<g id="edge2" class="edge">
<title>IRoutingTableVisualizer&#45;&gt;RoutingTableVisualizer</title>
<path fill="none" stroke="black" stroke-dasharray="5,2" d="M177.17,-54.98C192.39,-45.15 217.27,-29.07 232.59,-19.17"/>
</g>
</g>
</svg>
