<?xml version="1.0" encoding="UTF-8" standalone="no"?>
<!DOCTYPE svg PUBLIC "-//W3C//DTD SVG 1.1//EN"
 "http://www.w3.org/Graphics/SVG/1.1/DTD/svg11.dtd">
<!-- Generated by graphviz version 2.43.0 (0)
 -->
<!-- Title: opp Pages: 1 -->
<svg width="610pt" height="82pt"
 viewBox="0.00 0.00 609.50 82.00" xmlns="http://www.w3.org/2000/svg" xmlns:xlink="http://www.w3.org/1999/xlink">
<g id="graph0" class="graph" transform="scale(1 1) rotate(0) translate(4 78)">
<title>opp</title>
<polygon fill="transparent" stroke="transparent" points="-4,4 -4,-78 605.5,-78 605.5,4 -4,4"/>
<!-- DemoNetworkEth -->
<g id="node1" class="node">
<title>DemoNetworkEth</title>
<g id="a_node1"><a xlink:href="inet.examples.ipv6.demonetworketh.DemoNetworkEth.html" xlink:title="Network DemoNetworkEth" target="_parent">
<polygon fill="#9090ff" stroke="black" points="294.5,-74 191.5,-74 191.5,-55 294.5,-55 294.5,-74"/>
<text text-anchor="middle" x="243" y="-62" font-family="Helvetica,sans-Serif" font-size="10.00">DemoNetworkEth</text>
</a>
</g>
</g>
<!-- ethernetline -->
<g id="node2" class="node">
<title>ethernetline</title>
<g id="a_node2"><a xlink:href="inet.examples.ipv6.demonetworketh.DemoNetworkEth.ethernetline.html" xlink:title="Channel ethernetline" target="_parent">
<polygon fill="#d0ffd0" stroke="black" points="76,-19 0,-19 0,0 76,0 76,-19"/>
<text text-anchor="middle" x="38" y="-7" font-family="Helvetica,sans-Serif" font-size="10.00">ethernetline</text>
</a>
</g>
</g>
<!-- DemoNetworkEth&#45;&gt;ethernetline -->
<g id="edge1" class="edge">
<title>DemoNetworkEth&#45;&gt;ethernetline</title>
<path fill="none" stroke="black" d="M210.06,-54.98C175.05,-45.93 119.53,-31.58 81.07,-21.64"/>
<polygon fill="black" stroke="black" points="81.75,-18.2 71.19,-19.08 80,-24.97 81.75,-18.2"/>
</g>
<!-- Router6 -->
<g id="node3" class="node">
<title>Router6</title>
<g id="a_node3"><a xlink:href="inet.node.ipv6.Router6.html" xlink:title="Compound Module Router6" target="_parent">
<polygon fill="#fffcaf" stroke="black" points="149.5,-19 94.5,-19 94.5,0 149.5,0 149.5,-19"/>
<text text-anchor="middle" x="122" y="-7" font-family="Helvetica,sans-Serif" font-size="10.00">Router6</text>
</a>
</g>
</g>
<!-- DemoNetworkEth&#45;&gt;Router6 -->
<g id="edge2" class="edge">
<title>DemoNetworkEth&#45;&gt;Router6</title>
<path fill="none" stroke="black" d="M223.56,-54.98C204.01,-46.42 173.62,-33.11 151.18,-23.28"/>
<polygon fill="black" stroke="black" points="152.36,-19.98 141.79,-19.17 149.55,-26.39 152.36,-19.98"/>
</g>
<!-- IntegratedCanvasVisualizer -->
<g id="node4" class="node">
<title>IntegratedCanvasVisualizer</title>
<g id="a_node4"><a xlink:href="inet.visualizer.canvas.integrated.IntegratedCanvasVisualizer.html" xlink:title="Compound Module IntegratedCanvasVisualizer" target="_parent">
<polygon fill="#fffcaf" stroke="black" points="318.5,-19 167.5,-19 167.5,0 318.5,0 318.5,-19"/>
<text text-anchor="middle" x="243" y="-7" font-family="Helvetica,sans-Serif" font-size="10.00">IntegratedCanvasVisualizer</text>
</a>
</g>
</g>
<!-- DemoNetworkEth&#45;&gt;IntegratedCanvasVisualizer -->
<g id="edge3" class="edge">
<title>DemoNetworkEth&#45;&gt;IntegratedCanvasVisualizer</title>
<path fill="none" stroke="black" d="M243,-54.75C243,-47.8 243,-37.85 243,-29.13"/>
<polygon fill="black" stroke="black" points="246.5,-29.09 243,-19.09 239.5,-29.09 246.5,-29.09"/>
</g>
<!-- Ipv6FlatNetworkConfigurator -->
<g id="node5" class="node">
<title>Ipv6FlatNetworkConfigurator</title>
<g id="a_node5"><a xlink:href="inet.networklayer.configurator.ipv6.Ipv6FlatNetworkConfigurator.html" xlink:title="Simple Module Ipv6FlatNetworkConfigurator" target="_parent">
<polygon fill="#fffcaf" stroke="black" points="495,-19 337,-19 337,0 495,0 495,-19"/>
<text text-anchor="middle" x="416" y="-7" font-family="Helvetica,sans-Serif" font-size="10.00">Ipv6FlatNetworkConfigurator</text>
</a>
</g>
</g>
<!-- DemoNetworkEth&#45;&gt;Ipv6FlatNetworkConfigurator -->
<g id="edge4" class="edge">
<title>DemoNetworkEth&#45;&gt;Ipv6FlatNetworkConfigurator</title>
<path fill="none" stroke="black" d="M270.8,-54.98C299.97,-46.05 346,-31.94 378.4,-22.02"/>
<polygon fill="black" stroke="black" points="379.45,-25.36 387.99,-19.08 377.4,-18.66 379.45,-25.36"/>
</g>
<!-- StandardHost6 -->
<g id="node6" class="node">
<title>StandardHost6</title>
<g id="a_node6"><a xlink:href="inet.node.ipv6.StandardHost6.html" xlink:title="Compound Module StandardHost6" target="_parent">
<polygon fill="#fffcaf" stroke="black" points="601.5,-19 512.5,-19 512.5,0 601.5,0 601.5,-19"/>
<text text-anchor="middle" x="557" y="-7" font-family="Helvetica,sans-Serif" font-size="10.00">StandardHost6</text>
</a>
</g>
</g>
<!-- DemoNetworkEth&#45;&gt;StandardHost6 -->
<g id="edge5" class="edge">
<title>DemoNetworkEth&#45;&gt;StandardHost6</title>
<path fill="none" stroke="black" d="M293.45,-54.98C350.53,-45.35 443.17,-29.71 502.05,-19.78"/>
<polygon fill="black" stroke="black" points="502.99,-23.17 512.27,-18.05 501.83,-16.26 502.99,-23.17"/>
</g>
</g>
</svg>
