<?xml version="1.0" encoding="UTF-8" standalone="no"?>
<!DOCTYPE svg PUBLIC "-//W3C//DTD SVG 1.1//EN"
 "http://www.w3.org/Graphics/SVG/1.1/DTD/svg11.dtd">
<!-- Generated by graphviz version 2.43.0 (0)
 -->
<!-- Title: opp Pages: 1 -->
<svg width="380pt" height="137pt"
 viewBox="0.00 0.00 379.50 137.00" xmlns="http://www.w3.org/2000/svg" xmlns:xlink="http://www.w3.org/1999/xlink">
<g id="graph0" class="graph" transform="scale(1 1) rotate(0) translate(4 133)">
<title>opp</title>
<polygon fill="transparent" stroke="transparent" points="-4,4 -4,-133 375.5,-133 375.5,4 -4,4"/>
<!-- PacketShaper -->
<g id="node1" class="node">
<title>PacketShaper</title>
<g id="a_node1"><a xlink:href="inet.queueing.shaper.PacketShaper.html" xlink:title="Compound Module PacketShaper" target="_parent">
<polygon fill="#fff700" stroke="black" points="233.5,-74 151.5,-74 151.5,-55 233.5,-55 233.5,-74"/>
<text text-anchor="middle" x="192.5" y="-62" font-family="Helvetica,sans-Serif" font-size="10.00">PacketShaper</text>
</a>
</g>
</g>
<!-- AsynchronousShaper -->
<g id="node3" class="node">
<title>AsynchronousShaper</title>
<g id="a_node3"><a xlink:href="inet.queueing.shaper.AsynchronousShaper.html" xlink:title="Compound Module AsynchronousShaper" target="_parent">
<polygon fill="#fffcaf" stroke="black" points="119,-19 0,-19 0,0 119,0 119,-19"/>
<text text-anchor="middle" x="59.5" y="-7" font-family="Helvetica,sans-Serif" font-size="10.00">AsynchronousShaper</text>
</a>
</g>
</g>
<!-- PacketShaper&#45;&gt;AsynchronousShaper -->
<g id="edge2" class="edge">
<title>PacketShaper&#45;&gt;AsynchronousShaper</title>
<path fill="none" stroke="black" d="M171.13,-54.98C146.46,-45.15 106.09,-29.07 81.26,-19.17"/>
</g>
<!-- CreditBasedShaper -->
<g id="node4" class="node">
<title>CreditBasedShaper</title>
<g id="a_node4"><a xlink:href="inet.queueing.shaper.CreditBasedShaper.html" xlink:title="Compound Module CreditBasedShaper" target="_parent">
<polygon fill="#fffcaf" stroke="black" points="247.5,-19 137.5,-19 137.5,0 247.5,0 247.5,-19"/>
<text text-anchor="middle" x="192.5" y="-7" font-family="Helvetica,sans-Serif" font-size="10.00">CreditBasedShaper</text>
</a>
</g>
</g>
<!-- PacketShaper&#45;&gt;CreditBasedShaper -->
<g id="edge3" class="edge">
<title>PacketShaper&#45;&gt;CreditBasedShaper</title>
<path fill="none" stroke="black" d="M192.5,-54.75C192.5,-44.87 192.5,-28.9 192.5,-19.09"/>
</g>
<!-- TimeAwareShaper -->
<g id="node5" class="node">
<title>TimeAwareShaper</title>
<g id="a_node5"><a xlink:href="inet.queueing.shaper.TimeAwareShaper.html" xlink:title="Compound Module TimeAwareShaper" target="_parent">
<polygon fill="#fffcaf" stroke="black" points="371.5,-19 265.5,-19 265.5,0 371.5,0 371.5,-19"/>
<text text-anchor="middle" x="318.5" y="-7" font-family="Helvetica,sans-Serif" font-size="10.00">TimeAwareShaper</text>
</a>
</g>
</g>
<!-- PacketShaper&#45;&gt;TimeAwareShaper -->
<g id="edge4" class="edge">
<title>PacketShaper&#45;&gt;TimeAwareShaper</title>
<path fill="none" stroke="black" d="M212.74,-54.98C236.12,-45.15 274.36,-29.07 297.89,-19.17"/>
</g>
<!-- IPacketShaper -->
<g id="node2" class="node">
<title>IPacketShaper</title>
<g id="a_node2"><a xlink:href="inet.queueing.contract.IPacketShaper.html" xlink:title="Module Interface IPacketShaper" target="_parent">
<polygon fill="#fffcaf" stroke="black" stroke-dasharray="5,2" points="235,-129 150,-129 150,-110 235,-110 235,-129"/>
<text text-anchor="middle" x="192.5" y="-117" font-family="Helvetica,sans-Serif" font-size="10.00">IPacketShaper</text>
</a>
</g>
</g>
<!-- IPacketShaper&#45;&gt;PacketShaper -->
<g id="edge1" class="edge">
<title>IPacketShaper&#45;&gt;PacketShaper</title>
<path fill="none" stroke="black" stroke-dasharray="5,2" d="M192.5,-109.75C192.5,-99.87 192.5,-83.9 192.5,-74.09"/>
</g>
</g>
</svg>
