<?xml version="1.0" encoding="UTF-8" standalone="no"?>
<!DOCTYPE svg PUBLIC "-//W3C//DTD SVG 1.1//EN"
 "http://www.w3.org/Graphics/SVG/1.1/DTD/svg11.dtd">
<!-- Generated by graphviz version 2.43.0 (0)
 -->
<!-- Title: opp Pages: 1 -->
<svg width="658pt" height="82pt"
 viewBox="0.00 0.00 658.00 82.00" xmlns="http://www.w3.org/2000/svg" xmlns:xlink="http://www.w3.org/1999/xlink">
<g id="graph0" class="graph" transform="scale(1 1) rotate(0) translate(4 78)">
<title>opp</title>
<polygon fill="transparent" stroke="transparent" points="-4,4 -4,-78 654,-78 654,4 -4,4"/>
<!-- EthernetPhyLayer -->
<g id="node1" class="node">
<title>EthernetPhyLayer</title>
<g id="a_node1"><a xlink:href="inet.physicallayer.wired.ethernet.EthernetPhyLayer.html" xlink:title="Compound Module EthernetPhyLayer" target="_parent">
<polygon fill="#fff700" stroke="black" points="367.5,-74 264.5,-74 264.5,-55 367.5,-55 367.5,-74"/>
<text text-anchor="middle" x="316" y="-62" font-family="Helvetica,sans-Serif" font-size="10.00">EthernetPhyLayer</text>
</a>
</g>
</g>
<!-- IPacketFlow -->
<g id="node2" class="node">
<title>IPacketFlow</title>
<g id="a_node2"><a xlink:href="inet.queueing.contract.IPacketFlow.html" xlink:title="Module Interface IPacketFlow" target="_parent">
<polygon fill="#fffcaf" stroke="black" stroke-dasharray="5,2" points="74,-19 0,-19 0,0 74,0 74,-19"/>
<text text-anchor="middle" x="37" y="-7" font-family="Helvetica,sans-Serif" font-size="10.00">IPacketFlow</text>
</a>
</g>
</g>
<!-- EthernetPhyLayer&#45;&gt;IPacketFlow -->
<g id="edge1" class="edge">
<title>EthernetPhyLayer&#45;&gt;IPacketFlow</title>
<path fill="none" stroke="black" d="M271.17,-54.98C219.91,-45.25 136.34,-29.37 84.13,-19.45"/>
<polygon fill="black" stroke="black" points="84.61,-15.98 74.13,-17.55 83.3,-22.86 84.61,-15.98"/>
</g>
<!-- IPacketTransmitter -->
<g id="node3" class="node">
<title>IPacketTransmitter</title>
<g id="a_node3"><a xlink:href="inet.protocolelement.transceiver.contract.IPacketTransmitter.html" xlink:title="Module Interface IPacketTransmitter" target="_parent">
<polygon fill="#fffcaf" stroke="black" stroke-dasharray="5,2" points="199.5,-19 92.5,-19 92.5,0 199.5,0 199.5,-19"/>
<text text-anchor="middle" x="146" y="-7" font-family="Helvetica,sans-Serif" font-size="10.00">IPacketTransmitter</text>
</a>
</g>
</g>
<!-- EthernetPhyLayer&#45;&gt;IPacketTransmitter -->
<g id="edge2" class="edge">
<title>EthernetPhyLayer&#45;&gt;IPacketTransmitter</title>
<path fill="none" stroke="black" d="M288.69,-54.98C260.15,-46.09 215.17,-32.07 183.36,-22.15"/>
<polygon fill="black" stroke="black" points="184.12,-18.72 173.53,-19.08 182.03,-25.4 184.12,-18.72"/>
</g>
<!-- IPacketFilter -->
<g id="node4" class="node">
<title>IPacketFilter</title>
<g id="a_node4"><a xlink:href="inet.queueing.contract.IPacketFilter.html" xlink:title="Module Interface IPacketFilter" target="_parent">
<polygon fill="#fffcaf" stroke="black" stroke-dasharray="5,2" points="294,-19 218,-19 218,0 294,0 294,-19"/>
<text text-anchor="middle" x="256" y="-7" font-family="Helvetica,sans-Serif" font-size="10.00">IPacketFilter</text>
</a>
</g>
</g>
<!-- EthernetPhyLayer&#45;&gt;IPacketFilter -->
<g id="edge3" class="edge">
<title>EthernetPhyLayer&#45;&gt;IPacketFilter</title>
<path fill="none" stroke="black" d="M306.36,-54.98C297.49,-47.15 284.13,-35.34 273.39,-25.86"/>
<polygon fill="black" stroke="black" points="275.63,-23.17 265.82,-19.17 270.99,-28.41 275.63,-23.17"/>
</g>
<!-- InterpacketGapInserter -->
<g id="node5" class="node">
<title>InterpacketGapInserter</title>
<g id="a_node5"><a xlink:href="inet.protocolelement.common.InterpacketGapInserter.html" xlink:title="Simple Module InterpacketGapInserter" target="_parent">
<polygon fill="#fffcaf" stroke="black" points="440,-19 312,-19 312,0 440,0 440,-19"/>
<text text-anchor="middle" x="376" y="-7" font-family="Helvetica,sans-Serif" font-size="10.00">InterpacketGapInserter</text>
</a>
</g>
</g>
<!-- EthernetPhyLayer&#45;&gt;InterpacketGapInserter -->
<g id="edge4" class="edge">
<title>EthernetPhyLayer&#45;&gt;InterpacketGapInserter</title>
<path fill="none" stroke="black" d="M325.64,-54.98C334.51,-47.15 347.87,-35.34 358.61,-25.86"/>
<polygon fill="black" stroke="black" points="361.01,-28.41 366.18,-19.17 356.37,-23.17 361.01,-28.41"/>
</g>
<!-- IPacketReceiver -->
<g id="node6" class="node">
<title>IPacketReceiver</title>
<g id="a_node6"><a xlink:href="inet.protocolelement.transceiver.contract.IPacketReceiver.html" xlink:title="Module Interface IPacketReceiver" target="_parent">
<polygon fill="#fffcaf" stroke="black" stroke-dasharray="5,2" points="552,-19 458,-19 458,0 552,0 552,-19"/>
<text text-anchor="middle" x="505" y="-7" font-family="Helvetica,sans-Serif" font-size="10.00">IPacketReceiver</text>
</a>
</g>
</g>
<!-- EthernetPhyLayer&#45;&gt;IPacketReceiver -->
<g id="edge5" class="edge">
<title>EthernetPhyLayer&#45;&gt;IPacketReceiver</title>
<path fill="none" stroke="black" d="M346.37,-54.98C378.37,-46.01 428.96,-31.82 464.38,-21.89"/>
<polygon fill="black" stroke="black" points="465.71,-25.15 474.4,-19.08 463.82,-18.41 465.71,-25.15"/>
</g>
<!-- IdealChannel -->
<g id="node7" class="node">
<title>IdealChannel</title>
<g id="a_node7"><a xlink:href="ned.IdealChannel.html" xlink:title="Channel IdealChannel" target="_parent">
<polygon fill="#d0ffd0" stroke="black" points="650,-19 570,-19 570,0 650,0 650,-19"/>
<text text-anchor="middle" x="610" y="-7" font-family="Helvetica,sans-Serif" font-size="10.00">IdealChannel</text>
</a>
</g>
</g>
<!-- EthernetPhyLayer&#45;&gt;IdealChannel -->
<g id="edge6" class="edge">
<title>EthernetPhyLayer&#45;&gt;IdealChannel</title>
<path fill="none" stroke="black" d="M363.24,-54.98C417.18,-45.26 505.05,-29.42 560.09,-19.5"/>
<polygon fill="black" stroke="black" points="560.74,-22.94 569.96,-17.72 559.5,-16.05 560.74,-22.94"/>
</g>
</g>
</svg>
