<?xml version="1.0" encoding="UTF-8" standalone="no"?>
<!DOCTYPE svg PUBLIC "-//W3C//DTD SVG 1.1//EN"
 "http://www.w3.org/Graphics/SVG/1.1/DTD/svg11.dtd">
<!-- Generated by graphviz version 2.43.0 (0)
 -->
<!-- Title: opp Pages: 1 -->
<svg width="518pt" height="82pt"
 viewBox="0.00 0.00 517.50 82.00" xmlns="http://www.w3.org/2000/svg" xmlns:xlink="http://www.w3.org/1999/xlink">
<g id="graph0" class="graph" transform="scale(1 1) rotate(0) translate(4 78)">
<title>opp</title>
<polygon fill="transparent" stroke="transparent" points="-4,4 -4,-78 513.5,-78 513.5,4 -4,4"/>
<!-- SwitchNetwork -->
<g id="node1" class="node">
<title>SwitchNetwork</title>
<g id="a_node1"><a xlink:href="inet.examples.ieee8021d.SwitchNetwork.html" xlink:title="Network SwitchNetwork" target="_parent">
<polygon fill="#9090ff" stroke="black" points="298,-74 208,-74 208,-55 298,-55 298,-74"/>
<text text-anchor="middle" x="253" y="-62" font-family="Helvetica,sans-Serif" font-size="10.00">SwitchNetwork</text>
</a>
</g>
</g>
<!-- EthernetSwitch -->
<g id="node2" class="node">
<title>EthernetSwitch</title>
<g id="a_node2"><a xlink:href="inet.node.ethernet.EthernetSwitch.html" xlink:title="Compound Module EthernetSwitch" target="_parent">
<polygon fill="#fffcaf" stroke="black" points="90,-19 0,-19 0,0 90,0 90,-19"/>
<text text-anchor="middle" x="45" y="-7" font-family="Helvetica,sans-Serif" font-size="10.00">EthernetSwitch</text>
</a>
</g>
</g>
<!-- SwitchNetwork&#45;&gt;EthernetSwitch -->
<g id="edge1" class="edge">
<title>SwitchNetwork&#45;&gt;EthernetSwitch</title>
<path fill="none" stroke="black" d="M219.58,-54.98C184.06,-45.93 127.73,-31.58 88.7,-21.64"/>
<polygon fill="black" stroke="black" points="89.24,-18.16 78.68,-19.08 87.51,-24.94 89.24,-18.16"/>
</g>
<!-- StpTester -->
<g id="node3" class="node">
<title>StpTester</title>
<g id="a_node3"><a xlink:href="inet.linklayer.ieee8021d.tester.StpTester.html" xlink:title="Simple Module StpTester" target="_parent">
<polygon fill="#fffcaf" stroke="black" points="170,-19 108,-19 108,0 170,0 170,-19"/>
<text text-anchor="middle" x="139" y="-7" font-family="Helvetica,sans-Serif" font-size="10.00">StpTester</text>
</a>
</g>
</g>
<!-- SwitchNetwork&#45;&gt;StpTester -->
<g id="edge2" class="edge">
<title>SwitchNetwork&#45;&gt;StpTester</title>
<path fill="none" stroke="black" d="M234.68,-54.98C216.34,-46.46 187.89,-33.23 166.77,-23.41"/>
<polygon fill="black" stroke="black" points="168.19,-20.21 157.65,-19.17 165.24,-26.56 168.19,-20.21"/>
</g>
<!-- L2NetworkConfigurator -->
<g id="node4" class="node">
<title>L2NetworkConfigurator</title>
<g id="a_node4"><a xlink:href="inet.linklayer.configurator.L2NetworkConfigurator.html" xlink:title="Simple Module L2NetworkConfigurator" target="_parent">
<polygon fill="#fffcaf" stroke="black" points="317.5,-19 188.5,-19 188.5,0 317.5,0 317.5,-19"/>
<text text-anchor="middle" x="253" y="-7" font-family="Helvetica,sans-Serif" font-size="10.00">L2NetworkConfigurator</text>
</a>
</g>
</g>
<!-- SwitchNetwork&#45;&gt;L2NetworkConfigurator -->
<g id="edge3" class="edge">
<title>SwitchNetwork&#45;&gt;L2NetworkConfigurator</title>
<path fill="none" stroke="black" d="M253,-54.75C253,-47.8 253,-37.85 253,-29.13"/>
<polygon fill="black" stroke="black" points="256.5,-29.09 253,-19.09 249.5,-29.09 256.5,-29.09"/>
</g>
<!-- Eth1G -->
<g id="node5" class="node">
<title>Eth1G</title>
<g id="a_node5"><a xlink:href="inet.node.ethernet.Eth1G.html" xlink:title="Channel Eth1G" target="_parent">
<polygon fill="#d0ffd0" stroke="black" points="390,-19 336,-19 336,0 390,0 390,-19"/>
<text text-anchor="middle" x="363" y="-7" font-family="Helvetica,sans-Serif" font-size="10.00">Eth1G</text>
</a>
</g>
</g>
<!-- SwitchNetwork&#45;&gt;Eth1G -->
<g id="edge4" class="edge">
<title>SwitchNetwork&#45;&gt;Eth1G</title>
<path fill="none" stroke="black" d="M270.67,-54.98C288.29,-46.5 315.58,-33.35 335.93,-23.54"/>
<polygon fill="black" stroke="black" points="337.52,-26.66 345.01,-19.17 334.48,-20.36 337.52,-26.66"/>
</g>
<!-- ScenarioManager -->
<g id="node6" class="node">
<title>ScenarioManager</title>
<g id="a_node6"><a xlink:href="inet.common.scenario.ScenarioManager.html" xlink:title="Simple Module ScenarioManager" target="_parent">
<polygon fill="#fffcaf" stroke="black" points="509.5,-19 408.5,-19 408.5,0 509.5,0 509.5,-19"/>
<text text-anchor="middle" x="459" y="-7" font-family="Helvetica,sans-Serif" font-size="10.00">ScenarioManager</text>
</a>
</g>
</g>
<!-- SwitchNetwork&#45;&gt;ScenarioManager -->
<g id="edge5" class="edge">
<title>SwitchNetwork&#45;&gt;ScenarioManager</title>
<path fill="none" stroke="black" d="M286.1,-54.98C321.28,-45.93 377.07,-31.58 415.72,-21.64"/>
<polygon fill="black" stroke="black" points="416.83,-24.96 425.64,-19.08 415.09,-18.18 416.83,-24.96"/>
</g>
</g>
</svg>
