<?xml version="1.0" encoding="UTF-8" standalone="no"?>
<!DOCTYPE svg PUBLIC "-//W3C//DTD SVG 1.1//EN"
 "http://www.w3.org/Graphics/SVG/1.1/DTD/svg11.dtd">
<!-- Generated by graphviz version 2.43.0 (0)
 -->
<!-- Title: opp Pages: 1 -->
<svg width="586pt" height="82pt"
 viewBox="0.00 0.00 585.50 82.00" xmlns="http://www.w3.org/2000/svg" xmlns:xlink="http://www.w3.org/1999/xlink">
<g id="graph0" class="graph" transform="scale(1 1) rotate(0) translate(4 78)">
<title>opp</title>
<polygon fill="transparent" stroke="transparent" points="-4,4 -4,-78 581.5,-78 581.5,4 -4,4"/>
<!-- DSQueue1 -->
<g id="node1" class="node">
<title>DSQueue1</title>
<g id="a_node1"><a xlink:href="inet.examples.diffserv.onedomain.DSQueue1.html" xlink:title="Compound Module DSQueue1" target="_parent">
<polygon fill="#fff700" stroke="black" points="353.5,-74 285.5,-74 285.5,-55 353.5,-55 353.5,-74"/>
<text text-anchor="middle" x="319.5" y="-62" font-family="Helvetica,sans-Serif" font-size="10.00">DSQueue1</text>
</a>
</g>
</g>
<!-- BehaviorAggregateClassifier -->
<g id="node2" class="node">
<title>BehaviorAggregateClassifier</title>
<g id="a_node2"><a xlink:href="inet.networklayer.diffserv.BehaviorAggregateClassifier.html" xlink:title="Simple Module BehaviorAggregateClassifier" target="_parent">
<polygon fill="#fffcaf" stroke="black" points="155,-19 0,-19 0,0 155,0 155,-19"/>
<text text-anchor="middle" x="77.5" y="-7" font-family="Helvetica,sans-Serif" font-size="10.00">BehaviorAggregateClassifier</text>
</a>
</g>
</g>
<!-- DSQueue1&#45;&gt;BehaviorAggregateClassifier -->
<g id="edge1" class="edge">
<title>DSQueue1&#45;&gt;BehaviorAggregateClassifier</title>
<path fill="none" stroke="black" d="M285.34,-56.02C243.95,-46.95 173.9,-31.61 126.7,-21.28"/>
<polygon fill="black" stroke="black" points="127.22,-17.81 116.7,-19.08 125.72,-24.64 127.22,-17.81"/>
</g>
<!-- DropTailQueue -->
<g id="node3" class="node">
<title>DropTailQueue</title>
<g id="a_node3"><a xlink:href="inet.queueing.queue.DropTailQueue.html" xlink:title="Simple Module DropTailQueue" target="_parent">
<polygon fill="#fffcaf" stroke="black" points="261.5,-19 173.5,-19 173.5,0 261.5,0 261.5,-19"/>
<text text-anchor="middle" x="217.5" y="-7" font-family="Helvetica,sans-Serif" font-size="10.00">DropTailQueue</text>
</a>
</g>
</g>
<!-- DSQueue1&#45;&gt;DropTailQueue -->
<g id="edge2" class="edge">
<title>DSQueue1&#45;&gt;DropTailQueue</title>
<path fill="none" stroke="black" d="M303.11,-54.98C286.93,-46.57 261.93,-33.59 243.12,-23.81"/>
<polygon fill="black" stroke="black" points="244.67,-20.68 234.19,-19.17 241.45,-26.89 244.67,-20.68"/>
</g>
<!-- IdealChannel -->
<g id="node4" class="node">
<title>IdealChannel</title>
<g id="a_node4"><a xlink:href="ned.IdealChannel.html" xlink:title="Channel IdealChannel" target="_parent">
<polygon fill="#d0ffd0" stroke="black" points="359.5,-19 279.5,-19 279.5,0 359.5,0 359.5,-19"/>
<text text-anchor="middle" x="319.5" y="-7" font-family="Helvetica,sans-Serif" font-size="10.00">IdealChannel</text>
</a>
</g>
</g>
<!-- DSQueue1&#45;&gt;IdealChannel -->
<g id="edge3" class="edge">
<title>DSQueue1&#45;&gt;IdealChannel</title>
<path fill="none" stroke="black" d="M319.5,-54.75C319.5,-47.8 319.5,-37.85 319.5,-29.13"/>
<polygon fill="black" stroke="black" points="323,-29.09 319.5,-19.09 316,-29.09 323,-29.09"/>
</g>
<!-- PriorityScheduler -->
<g id="node5" class="node">
<title>PriorityScheduler</title>
<g id="a_node5"><a xlink:href="inet.queueing.scheduler.PriorityScheduler.html" xlink:title="Simple Module PriorityScheduler" target="_parent">
<polygon fill="#fffcaf" stroke="black" points="477.5,-19 377.5,-19 377.5,0 477.5,0 477.5,-19"/>
<text text-anchor="middle" x="427.5" y="-7" font-family="Helvetica,sans-Serif" font-size="10.00">PriorityScheduler</text>
</a>
</g>
</g>
<!-- DSQueue1&#45;&gt;PriorityScheduler -->
<g id="edge4" class="edge">
<title>DSQueue1&#45;&gt;PriorityScheduler</title>
<path fill="none" stroke="black" d="M336.85,-54.98C354.07,-46.54 380.7,-33.47 400.65,-23.68"/>
<polygon fill="black" stroke="black" points="402.4,-26.72 409.83,-19.17 399.31,-20.43 402.4,-26.72"/>
</g>
<!-- WrrScheduler -->
<g id="node6" class="node">
<title>WrrScheduler</title>
<g id="a_node6"><a xlink:href="inet.queueing.scheduler.WrrScheduler.html" xlink:title="Simple Module WrrScheduler" target="_parent">
<polygon fill="#fffcaf" stroke="black" points="577.5,-19 495.5,-19 495.5,0 577.5,0 577.5,-19"/>
<text text-anchor="middle" x="536.5" y="-7" font-family="Helvetica,sans-Serif" font-size="10.00">WrrScheduler</text>
</a>
</g>
</g>
<!-- DSQueue1&#45;&gt;WrrScheduler -->
<g id="edge5" class="edge">
<title>DSQueue1&#45;&gt;WrrScheduler</title>
<path fill="none" stroke="black" d="M353.88,-55.1C391.2,-45.99 450.92,-31.4 491.84,-21.41"/>
<polygon fill="black" stroke="black" points="492.67,-24.81 501.56,-19.03 491.01,-18.01 492.67,-24.81"/>
</g>
</g>
</svg>
