<?xml version="1.0" encoding="UTF-8" standalone="no"?>
<!DOCTYPE svg PUBLIC "-//W3C//DTD SVG 1.1//EN"
 "http://www.w3.org/Graphics/SVG/1.1/DTD/svg11.dtd">
<!-- Generated by graphviz version 2.43.0 (0)
 -->
<!-- Title: opp Pages: 1 -->
<svg width="190pt" height="82pt"
 viewBox="0.00 0.00 190.00 82.00" xmlns="http://www.w3.org/2000/svg" xmlns:xlink="http://www.w3.org/1999/xlink">
<g id="graph0" class="graph" transform="scale(1 1) rotate(0) translate(4 78)">
<title>opp</title>
<polygon fill="transparent" stroke="transparent" points="-4,4 -4,-78 186,-78 186,4 -4,4"/>
<!-- ApskLayeredReceiver -->
<g id="node1" class="node">
<title>ApskLayeredReceiver</title>
<g id="a_node1"><a xlink:href="inet.physicallayer.wireless.apsk.bitlevel.ApskLayeredReceiver.html" xlink:title="Compound Module ApskLayeredReceiver" target="_parent">
<polygon fill="#fff700" stroke="black" points="162,-19 40,-19 40,0 162,0 162,-19"/>
<text text-anchor="middle" x="101" y="-7" font-family="Helvetica,sans-Serif" font-size="10.00">ApskLayeredReceiver</text>
</a>
</g>
</g>
<!-- SnirReceiverBase -->
<g id="node2" class="node">
<title>SnirReceiverBase</title>
<g id="a_node2"><a xlink:href="inet.physicallayer.wireless.common.base.packetlevel.SnirReceiverBase.html" xlink:title="Compound Module SnirReceiverBase" target="_parent">
<polygon fill="#fffcaf" stroke="black" points="102,-74 0,-74 0,-55 102,-55 102,-74"/>
<text text-anchor="middle" x="51" y="-62" font-family="Helvetica,sans-Serif" font-size="10.00">SnirReceiverBase</text>
</a>
</g>
</g>
<!-- SnirReceiverBase&#45;&gt;ApskLayeredReceiver -->
<g id="edge1" class="edge">
<title>SnirReceiverBase&#45;&gt;ApskLayeredReceiver</title>
<path fill="none" stroke="black" d="M59.26,-54.75C68.58,-44.87 83.64,-28.9 92.9,-19.09"/>
</g>
<!-- IReceiver -->
<g id="node3" class="node">
<title>IReceiver</title>
<g id="a_node3"><a xlink:href="inet.physicallayer.wireless.common.contract.packetlevel.IReceiver.html" xlink:title="Module Interface IReceiver" target="_parent">
<polygon fill="#fffcaf" stroke="black" stroke-dasharray="5,2" points="182,-74 120,-74 120,-55 182,-55 182,-74"/>
<text text-anchor="middle" x="151" y="-62" font-family="Helvetica,sans-Serif" font-size="10.00">IReceiver</text>
</a>
</g>
</g>
<!-- IReceiver&#45;&gt;ApskLayeredReceiver -->
<g id="edge2" class="edge">
<title>IReceiver&#45;&gt;ApskLayeredReceiver</title>
<path fill="none" stroke="black" stroke-dasharray="5,2" d="M142.74,-54.75C133.42,-44.87 118.36,-28.9 109.1,-19.09"/>
</g>
</g>
</svg>
