<?xml version="1.0" encoding="UTF-8" standalone="no"?>
<!DOCTYPE svg PUBLIC "-//W3C//DTD SVG 1.1//EN"
 "http://www.w3.org/Graphics/SVG/1.1/DTD/svg11.dtd">
<!-- Generated by graphviz version 2.43.0 (0)
 -->
<!-- Title: opp Pages: 1 -->
<svg width="312pt" height="82pt"
 viewBox="0.00 0.00 312.00 82.00" xmlns="http://www.w3.org/2000/svg" xmlns:xlink="http://www.w3.org/1999/xlink">
<g id="graph0" class="graph" transform="scale(1 1) rotate(0) translate(4 78)">
<title>opp</title>
<polygon fill="transparent" stroke="transparent" points="-4,4 -4,-78 308,-78 308,4 -4,4"/>
<!-- IIeee8022SnapInserter -->
<g id="node1" class="node">
<title>IIeee8022SnapInserter</title>
<g id="a_node1"><a xlink:href="inet.linklayer.ieee8022.IIeee8022SnapInserter.html" xlink:title="Module Interface IIeee8022SnapInserter" target="_parent">
<polygon fill="#fff700" stroke="black" stroke-dasharray="5,2" points="204.5,-74 78.5,-74 78.5,-55 204.5,-55 204.5,-74"/>
<text text-anchor="middle" x="141.5" y="-62" font-family="Helvetica,sans-Serif" font-size="10.00">IIeee8022SnapInserter</text>
</a>
</g>
</g>
<!-- Ieee8022SnapInserter -->
<g id="node2" class="node">
<title>Ieee8022SnapInserter</title>
<g id="a_node2"><a xlink:href="inet.linklayer.ieee8022.Ieee8022SnapInserter.html" xlink:title="Simple Module Ieee8022SnapInserter" target="_parent">
<polygon fill="#fffcaf" stroke="black" points="123,-19 0,-19 0,0 123,0 123,-19"/>
<text text-anchor="middle" x="61.5" y="-7" font-family="Helvetica,sans-Serif" font-size="10.00">Ieee8022SnapInserter</text>
</a>
</g>
</g>
<!-- IIeee8022SnapInserter&#45;&gt;Ieee8022SnapInserter -->
<g id="edge1" class="edge">
<title>IIeee8022SnapInserter&#45;&gt;Ieee8022SnapInserter</title>
<path fill="none" stroke="black" stroke-dasharray="5,2" d="M128.65,-54.98C113.81,-45.15 89.53,-29.07 74.59,-19.17"/>
</g>
<!-- OmittedIeee8022SnapInserter -->
<g id="node3" class="node">
<title>OmittedIeee8022SnapInserter</title>
<g id="a_node3"><a xlink:href="inet.linklayer.ieee8022.OmittedIeee8022SnapInserter.html" xlink:title="Compound Module OmittedIeee8022SnapInserter" target="_parent">
<polygon fill="#fffcaf" stroke="black" points="304,-19 141,-19 141,0 304,0 304,-19"/>
<text text-anchor="middle" x="222.5" y="-7" font-family="Helvetica,sans-Serif" font-size="10.00">OmittedIeee8022SnapInserter</text>
</a>
</g>
</g>
<!-- IIeee8022SnapInserter&#45;&gt;OmittedIeee8022SnapInserter -->
<g id="edge2" class="edge">
<title>IIeee8022SnapInserter&#45;&gt;OmittedIeee8022SnapInserter</title>
<path fill="none" stroke="black" stroke-dasharray="5,2" d="M154.51,-54.98C169.54,-45.15 194.12,-29.07 209.25,-19.17"/>
</g>
</g>
</svg>
