<?xml version="1.0" encoding="UTF-8" standalone="no"?>
<!DOCTYPE svg PUBLIC "-//W3C//DTD SVG 1.1//EN"
 "http://www.w3.org/Graphics/SVG/1.1/DTD/svg11.dtd">
<!-- Generated by graphviz version 2.43.0 (0)
 -->
<!-- Title: opp Pages: 1 -->
<svg width="206pt" height="82pt"
 viewBox="0.00 0.00 205.50 82.00" xmlns="http://www.w3.org/2000/svg" xmlns:xlink="http://www.w3.org/1999/xlink">
<g id="graph0" class="graph" transform="scale(1 1) rotate(0) translate(4 78)">
<title>opp</title>
<polygon fill="transparent" stroke="transparent" points="-4,4 -4,-78 201.5,-78 201.5,4 -4,4"/>
<!-- TwoHosts -->
<g id="node1" class="node">
<title>TwoHosts</title>
<g id="a_node1"><a xlink:href="inet.examples.ethernet.lans.TwoHosts.html" xlink:title="Network TwoHosts" target="_parent">
<polygon fill="#9090ff" stroke="black" points="135,-74 72,-74 72,-55 135,-55 135,-74"/>
<text text-anchor="middle" x="103.5" y="-62" font-family="Helvetica,sans-Serif" font-size="10.00">TwoHosts</text>
</a>
</g>
</g>
<!-- DatarateChannel -->
<g id="node2" class="node">
<title>DatarateChannel</title>
<g id="a_node2"><a xlink:href="ned.DatarateChannel.html" xlink:title="Channel DatarateChannel" target="_parent">
<polygon fill="#d0ffd0" stroke="black" points="99,-19 0,-19 0,0 99,0 99,-19"/>
<text text-anchor="middle" x="49.5" y="-7" font-family="Helvetica,sans-Serif" font-size="10.00">DatarateChannel</text>
</a>
</g>
</g>
<!-- TwoHosts&#45;&gt;DatarateChannel -->
<g id="edge1" class="edge">
<title>TwoHosts&#45;&gt;DatarateChannel</title>
<path fill="none" stroke="black" d="M94.58,-54.75C86.72,-47.03 75.07,-35.6 65.58,-26.28"/>
<polygon fill="black" stroke="black" points="67.84,-23.6 58.25,-19.09 62.94,-28.59 67.84,-23.6"/>
</g>
<!-- EthernetHost -->
<g id="node3" class="node">
<title>EthernetHost</title>
<g id="a_node3"><a xlink:href="inet.node.ethernet.EthernetHost.html" xlink:title="Compound Module EthernetHost" target="_parent">
<polygon fill="#fffcaf" stroke="black" points="197.5,-19 117.5,-19 117.5,0 197.5,0 197.5,-19"/>
<text text-anchor="middle" x="157.5" y="-7" font-family="Helvetica,sans-Serif" font-size="10.00">EthernetHost</text>
</a>
</g>
</g>
<!-- TwoHosts&#45;&gt;EthernetHost -->
<g id="edge2" class="edge">
<title>TwoHosts&#45;&gt;EthernetHost</title>
<path fill="none" stroke="black" d="M112.42,-54.75C120.28,-47.03 131.93,-35.6 141.42,-26.28"/>
<polygon fill="black" stroke="black" points="144.06,-28.59 148.75,-19.09 139.16,-23.6 144.06,-28.59"/>
</g>
</g>
</svg>
