<?xml version="1.0" encoding="UTF-8" standalone="no"?>
<!DOCTYPE svg PUBLIC "-//W3C//DTD SVG 1.1//EN"
 "http://www.w3.org/Graphics/SVG/1.1/DTD/svg11.dtd">
<!-- Generated by graphviz version 2.43.0 (0)
 -->
<!-- Title: opp Pages: 1 -->
<svg width="236pt" height="82pt"
 viewBox="0.00 0.00 235.50 82.00" xmlns="http://www.w3.org/2000/svg" xmlns:xlink="http://www.w3.org/1999/xlink">
<g id="graph0" class="graph" transform="scale(1 1) rotate(0) translate(4 78)">
<title>opp</title>
<polygon fill="transparent" stroke="transparent" points="-4,4 -4,-78 231.5,-78 231.5,4 -4,4"/>
<!-- WirelessNetworkBase -->
<g id="node1" class="node">
<title>WirelessNetworkBase</title>
<g id="a_node1"><a xlink:href="inet.networks.base.WirelessNetworkBase.html" xlink:title="Network WirelessNetworkBase" target="_parent">
<polygon fill="#9090ff" stroke="black" points="166.5,-74 42.5,-74 42.5,-55 166.5,-55 166.5,-74"/>
<text text-anchor="middle" x="104.5" y="-62" font-family="Helvetica,sans-Serif" font-size="10.00">WirelessNetworkBase</text>
</a>
</g>
</g>
<!-- IRadioMedium -->
<g id="node2" class="node">
<title>IRadioMedium</title>
<g id="a_node2"><a xlink:href="inet.physicallayer.wireless.common.contract.packetlevel.IRadioMedium.html" xlink:title="Module Interface IRadioMedium" target="_parent">
<polygon fill="#fffcaf" stroke="black" stroke-dasharray="5,2" points="87,-19 0,-19 0,0 87,0 87,-19"/>
<text text-anchor="middle" x="43.5" y="-7" font-family="Helvetica,sans-Serif" font-size="10.00">IRadioMedium</text>
</a>
</g>
</g>
<!-- WirelessNetworkBase&#45;&gt;IRadioMedium -->
<g id="edge1" class="edge">
<title>WirelessNetworkBase&#45;&gt;IRadioMedium</title>
<path fill="none" stroke="black" d="M94.7,-54.98C85.68,-47.15 72.09,-35.34 61.18,-25.86"/>
<polygon fill="black" stroke="black" points="63.32,-23.09 53.48,-19.17 58.73,-28.37 63.32,-23.09"/>
</g>
<!-- IPhysicalEnvironment -->
<g id="node3" class="node">
<title>IPhysicalEnvironment</title>
<g id="a_node3"><a xlink:href="inet.environment.contract.IPhysicalEnvironment.html" xlink:title="Module Interface IPhysicalEnvironment" target="_parent">
<polygon fill="#fffcaf" stroke="black" stroke-dasharray="5,2" points="227.5,-19 105.5,-19 105.5,0 227.5,0 227.5,-19"/>
<text text-anchor="middle" x="166.5" y="-7" font-family="Helvetica,sans-Serif" font-size="10.00">IPhysicalEnvironment</text>
</a>
</g>
</g>
<!-- WirelessNetworkBase&#45;&gt;IPhysicalEnvironment -->
<g id="edge2" class="edge">
<title>WirelessNetworkBase&#45;&gt;IPhysicalEnvironment</title>
<path fill="none" stroke="black" d="M114.46,-54.98C123.63,-47.15 137.44,-35.34 148.53,-25.86"/>
<polygon fill="black" stroke="black" points="151.03,-28.33 156.36,-19.17 146.48,-23.01 151.03,-28.33"/>
</g>
</g>
</svg>
