<?xml version="1.0" encoding="UTF-8" standalone="no"?>
<!DOCTYPE svg PUBLIC "-//W3C//DTD SVG 1.1//EN"
 "http://www.w3.org/Graphics/SVG/1.1/DTD/svg11.dtd">
<!-- Generated by graphviz version 2.43.0 (0)
 -->
<!-- Title: opp Pages: 1 -->
<svg width="88pt" height="137pt"
 viewBox="0.00 0.00 88.00 137.00" xmlns="http://www.w3.org/2000/svg" xmlns:xlink="http://www.w3.org/1999/xlink">
<g id="graph0" class="graph" transform="scale(1 1) rotate(0) translate(4 133)">
<title>opp</title>
<polygon fill="transparent" stroke="transparent" points="-4,4 -4,-133 84,-133 84,4 -4,4"/>
<!-- Router6 -->
<g id="node1" class="node">
<title>Router6</title>
<g id="a_node1"><a xlink:href="inet.node.ipv6.Router6.html" xlink:title="Compound Module Router6" target="_parent">
<polygon fill="#fff700" stroke="black" points="67.5,-74 12.5,-74 12.5,-55 67.5,-55 67.5,-74"/>
<text text-anchor="middle" x="40" y="-62" font-family="Helvetica,sans-Serif" font-size="10.00">Router6</text>
</a>
</g>
</g>
<!-- HomeAgent6 -->
<g id="node3" class="node">
<title>HomeAgent6</title>
<g id="a_node3"><a xlink:href="inet.node.xmipv6.HomeAgent6.html" xlink:title="Compound Module HomeAgent6" target="_parent">
<polygon fill="#fffcaf" stroke="black" points="80,-19 0,-19 0,0 80,0 80,-19"/>
<text text-anchor="middle" x="40" y="-7" font-family="Helvetica,sans-Serif" font-size="10.00">HomeAgent6</text>
</a>
</g>
</g>
<!-- Router6&#45;&gt;HomeAgent6 -->
<g id="edge2" class="edge">
<title>Router6&#45;&gt;HomeAgent6</title>
<path fill="none" stroke="black" d="M40,-54.75C40,-44.87 40,-28.9 40,-19.09"/>
</g>
<!-- Router -->
<g id="node2" class="node">
<title>Router</title>
<g id="a_node2"><a xlink:href="inet.node.inet.Router.html" xlink:title="Compound Module Router" target="_parent">
<polygon fill="#fffcaf" stroke="black" points="67,-129 13,-129 13,-110 67,-110 67,-129"/>
<text text-anchor="middle" x="40" y="-117" font-family="Helvetica,sans-Serif" font-size="10.00">Router</text>
</a>
</g>
</g>
<!-- Router&#45;&gt;Router6 -->
<g id="edge1" class="edge">
<title>Router&#45;&gt;Router6</title>
<path fill="none" stroke="black" d="M40,-109.75C40,-99.87 40,-83.9 40,-74.09"/>
</g>
</g>
</svg>
