<?xml version="1.0" encoding="UTF-8" standalone="no"?>
<!DOCTYPE svg PUBLIC "-//W3C//DTD SVG 1.1//EN"
 "http://www.w3.org/Graphics/SVG/1.1/DTD/svg11.dtd">
<!-- Generated by graphviz version 2.43.0 (0)
 -->
<!-- Title: opp Pages: 1 -->
<svg width="300pt" height="137pt"
 viewBox="0.00 0.00 300.00 137.00" xmlns="http://www.w3.org/2000/svg" xmlns:xlink="http://www.w3.org/1999/xlink">
<g id="graph0" class="graph" transform="scale(1 1) rotate(0) translate(4 133)">
<title>opp</title>
<polygon fill="transparent" stroke="transparent" points="-4,4 -4,-133 296,-133 296,4 -4,4"/>
<!-- Probe -->
<g id="node1" class="node">
<title>Probe</title>
<g id="a_node1"><a xlink:href="inet.node.wireless.Probe.html" xlink:title="Compound Module Probe" target="_parent">
<polygon fill="#fff700" stroke="black" points="173,-74 119,-74 119,-55 173,-55 173,-74"/>
<text text-anchor="middle" x="146" y="-62" font-family="Helvetica,sans-Serif" font-size="10.00">Probe</text>
</a>
</g>
</g>
<!-- IAntenna -->
<g id="node2" class="node">
<title>IAntenna</title>
<g id="a_node2"><a xlink:href="inet.physicallayer.wireless.common.contract.packetlevel.IAntenna.html" xlink:title="Module Interface IAntenna" target="_parent">
<polygon fill="#fffcaf" stroke="black" stroke-dasharray="5,2" points="137,-19 77,-19 77,0 137,0 137,-19"/>
<text text-anchor="middle" x="107" y="-7" font-family="Helvetica,sans-Serif" font-size="10.00">IAntenna</text>
</a>
</g>
</g>
<!-- Probe&#45;&gt;IAntenna -->
<g id="edge1" class="edge">
<title>Probe&#45;&gt;IAntenna</title>
<path fill="none" stroke="black" d="M139.56,-54.75C134.11,-47.34 126.14,-36.5 119.44,-27.41"/>
<polygon fill="black" stroke="black" points="122.07,-25.07 113.32,-19.09 116.43,-29.22 122.07,-25.07"/>
</g>
<!-- IMobility -->
<g id="node3" class="node">
<title>IMobility</title>
<g id="a_node3"><a xlink:href="inet.mobility.contract.IMobility.html" xlink:title="Module Interface IMobility" target="_parent">
<polygon fill="#fffcaf" stroke="black" stroke-dasharray="5,2" points="214.5,-19 155.5,-19 155.5,0 214.5,0 214.5,-19"/>
<text text-anchor="middle" x="185" y="-7" font-family="Helvetica,sans-Serif" font-size="10.00">IMobility</text>
</a>
</g>
</g>
<!-- Probe&#45;&gt;IMobility -->
<g id="edge2" class="edge">
<title>Probe&#45;&gt;IMobility</title>
<path fill="none" stroke="black" d="M152.44,-54.75C157.89,-47.34 165.86,-36.5 172.56,-27.41"/>
<polygon fill="black" stroke="black" points="175.57,-29.22 178.68,-19.09 169.93,-25.07 175.57,-29.22"/>
</g>
<!-- SpectrumShowcaseSpectrumFigureSpectrogramNetwork -->
<g id="node4" class="node">
<title>SpectrumShowcaseSpectrumFigureSpectrogramNetwork</title>
<g id="a_node4"><a xlink:href="inet.showcases.visualizer.canvas.spectrum.SpectrumShowcaseSpectrumFigureSpectrogramNetwork.html" xlink:title="Network SpectrumShowcaseSpectrumFigureSpectrogramNetwork" target="_parent">
<polygon fill="#d0d0ff" stroke="black" points="292,-129 0,-129 0,-110 292,-110 292,-129"/>
<text text-anchor="middle" x="146" y="-117" font-family="Helvetica,sans-Serif" font-size="10.00">SpectrumShowcaseSpectrumFigureSpectrogramNetwork</text>
</a>
</g>
</g>
<!-- SpectrumShowcaseSpectrumFigureSpectrogramNetwork&#45;&gt;Probe -->
<g id="edge3" class="edge">
<title>SpectrumShowcaseSpectrumFigureSpectrogramNetwork&#45;&gt;Probe</title>
<path fill="none" stroke="black" d="M146,-109.75C146,-102.8 146,-92.85 146,-84.13"/>
<polygon fill="black" stroke="black" points="149.5,-84.09 146,-74.09 142.5,-84.09 149.5,-84.09"/>
</g>
</g>
</svg>
