<?xml version="1.0" encoding="UTF-8" standalone="no"?>
<!DOCTYPE svg PUBLIC "-//W3C//DTD SVG 1.1//EN"
 "http://www.w3.org/Graphics/SVG/1.1/DTD/svg11.dtd">
<!-- Generated by graphviz version 2.43.0 (0)
 -->
<!-- Title: opp Pages: 1 -->
<svg width="592pt" height="82pt"
 viewBox="0.00 0.00 592.00 82.00" xmlns="http://www.w3.org/2000/svg" xmlns:xlink="http://www.w3.org/1999/xlink">
<g id="graph0" class="graph" transform="scale(1 1) rotate(0) translate(4 78)">
<title>opp</title>
<polygon fill="transparent" stroke="transparent" points="-4,4 -4,-78 588,-78 588,4 -4,4"/>
<!-- RequestResponseTutorialStep -->
<g id="node1" class="node">
<title>RequestResponseTutorialStep</title>
<g id="a_node1"><a xlink:href="inet.tutorials.queueing.RequestResponseTutorialStep.html" xlink:title="Network RequestResponseTutorialStep" target="_parent">
<polygon fill="#9090ff" stroke="black" points="358.5,-74 197.5,-74 197.5,-55 358.5,-55 358.5,-74"/>
<text text-anchor="middle" x="278" y="-62" font-family="Helvetica,sans-Serif" font-size="10.00">RequestResponseTutorialStep</text>
</a>
</g>
</g>
<!-- PassivePacketSink -->
<g id="node2" class="node">
<title>PassivePacketSink</title>
<g id="a_node2"><a xlink:href="inet.queueing.sink.PassivePacketSink.html" xlink:title="Simple Module PassivePacketSink" target="_parent">
<polygon fill="#fffcaf" stroke="black" points="106,-19 0,-19 0,0 106,0 106,-19"/>
<text text-anchor="middle" x="53" y="-7" font-family="Helvetica,sans-Serif" font-size="10.00">PassivePacketSink</text>
</a>
</g>
</g>
<!-- RequestResponseTutorialStep&#45;&gt;PassivePacketSink -->
<g id="edge1" class="edge">
<title>RequestResponseTutorialStep&#45;&gt;PassivePacketSink</title>
<path fill="none" stroke="black" d="M241.85,-54.98C203.09,-45.86 141.45,-31.33 99.2,-21.38"/>
<polygon fill="black" stroke="black" points="99.97,-17.97 89.43,-19.08 98.36,-24.78 99.97,-17.97"/>
</g>
<!-- IdealChannel -->
<g id="node3" class="node">
<title>IdealChannel</title>
<g id="a_node3"><a xlink:href="ned.IdealChannel.html" xlink:title="Channel IdealChannel" target="_parent">
<polygon fill="#d0ffd0" stroke="black" points="204,-19 124,-19 124,0 204,0 204,-19"/>
<text text-anchor="middle" x="164" y="-7" font-family="Helvetica,sans-Serif" font-size="10.00">IdealChannel</text>
</a>
</g>
</g>
<!-- RequestResponseTutorialStep&#45;&gt;IdealChannel -->
<g id="edge2" class="edge">
<title>RequestResponseTutorialStep&#45;&gt;IdealChannel</title>
<path fill="none" stroke="black" d="M259.68,-54.98C241.34,-46.46 212.89,-33.23 191.77,-23.41"/>
<polygon fill="black" stroke="black" points="193.19,-20.21 182.65,-19.17 190.24,-26.56 193.19,-20.21"/>
</g>
<!-- ActivePacketSource -->
<g id="node4" class="node">
<title>ActivePacketSource</title>
<g id="a_node4"><a xlink:href="inet.queueing.source.ActivePacketSource.html" xlink:title="Simple Module ActivePacketSource" target="_parent">
<polygon fill="#fffcaf" stroke="black" points="334,-19 222,-19 222,0 334,0 334,-19"/>
<text text-anchor="middle" x="278" y="-7" font-family="Helvetica,sans-Serif" font-size="10.00">ActivePacketSource</text>
</a>
</g>
</g>
<!-- RequestResponseTutorialStep&#45;&gt;ActivePacketSource -->
<g id="edge3" class="edge">
<title>RequestResponseTutorialStep&#45;&gt;ActivePacketSource</title>
<path fill="none" stroke="black" d="M278,-54.75C278,-47.8 278,-37.85 278,-29.13"/>
<polygon fill="black" stroke="black" points="281.5,-29.09 278,-19.09 274.5,-29.09 281.5,-29.09"/>
</g>
<!-- ResponseProducer -->
<g id="node5" class="node">
<title>ResponseProducer</title>
<g id="a_node5"><a xlink:href="inet.queueing.source.ResponseProducer.html" xlink:title="Compound Module ResponseProducer" target="_parent">
<polygon fill="#fffcaf" stroke="black" points="459.5,-19 352.5,-19 352.5,0 459.5,0 459.5,-19"/>
<text text-anchor="middle" x="406" y="-7" font-family="Helvetica,sans-Serif" font-size="10.00">ResponseProducer</text>
</a>
</g>
</g>
<!-- RequestResponseTutorialStep&#45;&gt;ResponseProducer -->
<g id="edge4" class="edge">
<title>RequestResponseTutorialStep&#45;&gt;ResponseProducer</title>
<path fill="none" stroke="black" d="M298.57,-54.98C319.43,-46.34 351.97,-32.87 375.77,-23.02"/>
<polygon fill="black" stroke="black" points="377.16,-26.23 385.06,-19.17 374.48,-19.76 377.16,-26.23"/>
</g>
<!-- RequestConsumer -->
<g id="node6" class="node">
<title>RequestConsumer</title>
<g id="a_node6"><a xlink:href="inet.queueing.sink.RequestConsumer.html" xlink:title="Compound Module RequestConsumer" target="_parent">
<polygon fill="#fffcaf" stroke="black" points="584,-19 478,-19 478,0 584,0 584,-19"/>
<text text-anchor="middle" x="531" y="-7" font-family="Helvetica,sans-Serif" font-size="10.00">RequestConsumer</text>
</a>
</g>
</g>
<!-- RequestResponseTutorialStep&#45;&gt;RequestConsumer -->
<g id="edge5" class="edge">
<title>RequestResponseTutorialStep&#45;&gt;RequestConsumer</title>
<path fill="none" stroke="black" d="M318.65,-54.98C362.5,-45.8 432.42,-31.15 479.95,-21.19"/>
<polygon fill="black" stroke="black" points="480.96,-24.56 490.03,-19.08 479.53,-17.71 480.96,-24.56"/>
</g>
</g>
</svg>
