<?xml version="1.0" encoding="UTF-8" standalone="no"?>
<!DOCTYPE svg PUBLIC "-//W3C//DTD SVG 1.1//EN"
 "http://www.w3.org/Graphics/SVG/1.1/DTD/svg11.dtd">
<!-- Generated by graphviz version 2.43.0 (0)
 -->
<!-- Title: opp Pages: 1 -->
<svg width="146pt" height="137pt"
 viewBox="0.00 0.00 146.00 137.00" xmlns="http://www.w3.org/2000/svg" xmlns:xlink="http://www.w3.org/1999/xlink">
<g id="graph0" class="graph" transform="scale(1 1) rotate(0) translate(4 133)">
<title>opp</title>
<polygon fill="transparent" stroke="transparent" points="-4,4 -4,-133 142,-133 142,4 -4,4"/>
<!-- TcpServerConnection -->
<g id="node1" class="node">
<title>TcpServerConnection</title>
<g id="a_node1"><a xlink:href="inet.applications.tcpapp.TcpServerConnection.html" xlink:title="Compound Module TcpServerConnection" target="_parent">
<polygon fill="#fff700" stroke="black" points="128.5,-74 9.5,-74 9.5,-55 128.5,-55 128.5,-74"/>
<text text-anchor="middle" x="69" y="-62" font-family="Helvetica,sans-Serif" font-size="10.00">TcpServerConnection</text>
</a>
</g>
</g>
<!-- TcpRequestResponseApp -->
<g id="node3" class="node">
<title>TcpRequestResponseApp</title>
<g id="a_node3"><a xlink:href="inet.applications.tcpapp.TcpRequestResponseApp.html" xlink:title="Compound Module TcpRequestResponseApp" target="_parent">
<polygon fill="#fffcaf" stroke="black" points="138,-19 0,-19 0,0 138,0 138,-19"/>
<text text-anchor="middle" x="69" y="-7" font-family="Helvetica,sans-Serif" font-size="10.00">TcpRequestResponseApp</text>
</a>
</g>
</g>
<!-- TcpServerConnection&#45;&gt;TcpRequestResponseApp -->
<g id="edge2" class="edge">
<title>TcpServerConnection&#45;&gt;TcpRequestResponseApp</title>
<path fill="none" stroke="black" d="M69,-54.75C69,-44.87 69,-28.9 69,-19.09"/>
</g>
<!-- IApp -->
<g id="node2" class="node">
<title>IApp</title>
<g id="a_node2"><a xlink:href="inet.applications.contract.IApp.html" xlink:title="Module Interface IApp" target="_parent">
<polygon fill="#fffcaf" stroke="black" stroke-dasharray="5,2" points="96,-129 42,-129 42,-110 96,-110 96,-129"/>
<text text-anchor="middle" x="69" y="-117" font-family="Helvetica,sans-Serif" font-size="10.00">IApp</text>
</a>
</g>
</g>
<!-- IApp&#45;&gt;TcpServerConnection -->
<g id="edge1" class="edge">
<title>IApp&#45;&gt;TcpServerConnection</title>
<path fill="none" stroke="black" stroke-dasharray="5,2" d="M69,-109.75C69,-99.87 69,-83.9 69,-74.09"/>
</g>
</g>
</svg>
