<?xml version="1.0" encoding="UTF-8" standalone="no"?>
<!DOCTYPE svg PUBLIC "-//W3C//DTD SVG 1.1//EN"
 "http://www.w3.org/Graphics/SVG/1.1/DTD/svg11.dtd">
<!-- Generated by graphviz version 2.43.0 (0)
 -->
<!-- Title: opp Pages: 1 -->
<svg width="697pt" height="82pt"
 viewBox="0.00 0.00 696.50 82.00" xmlns="http://www.w3.org/2000/svg" xmlns:xlink="http://www.w3.org/1999/xlink">
<g id="graph0" class="graph" transform="scale(1 1) rotate(0) translate(4 78)">
<title>opp</title>
<polygon fill="transparent" stroke="transparent" points="-4,4 -4,-78 692.5,-78 692.5,4 -4,4"/>
<!-- HiddenNodeShowcase -->
<g id="node1" class="node">
<title>HiddenNodeShowcase</title>
<g id="a_node1"><a xlink:href="inet.showcases.wireless.hiddennode.HiddenNodeShowcase.html" xlink:title="Network HiddenNodeShowcase" target="_parent">
<polygon fill="#9090ff" stroke="black" points="381.5,-74 256.5,-74 256.5,-55 381.5,-55 381.5,-74"/>
<text text-anchor="middle" x="319" y="-62" font-family="Helvetica,sans-Serif" font-size="10.00">HiddenNodeShowcase</text>
</a>
</g>
</g>
<!-- UnitDiskRadioMedium -->
<g id="node2" class="node">
<title>UnitDiskRadioMedium</title>
<g id="a_node2"><a xlink:href="inet.physicallayer.wireless.unitdisk.UnitDiskRadioMedium.html" xlink:title="Compound Module UnitDiskRadioMedium" target="_parent">
<polygon fill="#fffcaf" stroke="black" points="126,-19 0,-19 0,0 126,0 126,-19"/>
<text text-anchor="middle" x="63" y="-7" font-family="Helvetica,sans-Serif" font-size="10.00">UnitDiskRadioMedium</text>
</a>
</g>
</g>
<!-- HiddenNodeShowcase&#45;&gt;UnitDiskRadioMedium -->
<g id="edge1" class="edge">
<title>HiddenNodeShowcase&#45;&gt;UnitDiskRadioMedium</title>
<path fill="none" stroke="black" d="M277.87,-54.98C233.4,-45.78 162.45,-31.09 114.35,-21.13"/>
<polygon fill="black" stroke="black" points="114.96,-17.68 104.45,-19.08 113.54,-24.54 114.96,-17.68"/>
</g>
<!-- WirelessHost -->
<g id="node3" class="node">
<title>WirelessHost</title>
<g id="a_node3"><a xlink:href="inet.node.inet.WirelessHost.html" xlink:title="Compound Module WirelessHost" target="_parent">
<polygon fill="#fffcaf" stroke="black" points="225.5,-19 144.5,-19 144.5,0 225.5,0 225.5,-19"/>
<text text-anchor="middle" x="185" y="-7" font-family="Helvetica,sans-Serif" font-size="10.00">WirelessHost</text>
</a>
</g>
</g>
<!-- HiddenNodeShowcase&#45;&gt;WirelessHost -->
<g id="edge2" class="edge">
<title>HiddenNodeShowcase&#45;&gt;WirelessHost</title>
<path fill="none" stroke="black" d="M297.47,-54.98C275.53,-46.3 241.26,-32.75 216.31,-22.88"/>
<polygon fill="black" stroke="black" points="217.51,-19.59 206.92,-19.17 214.93,-26.1 217.51,-19.59"/>
</g>
<!-- IntegratedCanvasVisualizer -->
<g id="node4" class="node">
<title>IntegratedCanvasVisualizer</title>
<g id="a_node4"><a xlink:href="inet.visualizer.canvas.integrated.IntegratedCanvasVisualizer.html" xlink:title="Compound Module IntegratedCanvasVisualizer" target="_parent">
<polygon fill="#fffcaf" stroke="black" points="394.5,-19 243.5,-19 243.5,0 394.5,0 394.5,-19"/>
<text text-anchor="middle" x="319" y="-7" font-family="Helvetica,sans-Serif" font-size="10.00">IntegratedCanvasVisualizer</text>
</a>
</g>
</g>
<!-- HiddenNodeShowcase&#45;&gt;IntegratedCanvasVisualizer -->
<g id="edge3" class="edge">
<title>HiddenNodeShowcase&#45;&gt;IntegratedCanvasVisualizer</title>
<path fill="none" stroke="black" d="M319,-54.75C319,-47.8 319,-37.85 319,-29.13"/>
<polygon fill="black" stroke="black" points="322.5,-29.09 319,-19.09 315.5,-29.09 322.5,-29.09"/>
</g>
<!-- Ipv4NetworkConfigurator -->
<g id="node5" class="node">
<title>Ipv4NetworkConfigurator</title>
<g id="a_node5"><a xlink:href="inet.networklayer.configurator.ipv4.Ipv4NetworkConfigurator.html" xlink:title="Simple Module Ipv4NetworkConfigurator" target="_parent">
<polygon fill="#fffcaf" stroke="black" points="551.5,-19 412.5,-19 412.5,0 551.5,0 551.5,-19"/>
<text text-anchor="middle" x="482" y="-7" font-family="Helvetica,sans-Serif" font-size="10.00">Ipv4NetworkConfigurator</text>
</a>
</g>
</g>
<!-- HiddenNodeShowcase&#45;&gt;Ipv4NetworkConfigurator -->
<g id="edge4" class="edge">
<title>HiddenNodeShowcase&#45;&gt;Ipv4NetworkConfigurator</title>
<path fill="none" stroke="black" d="M345.19,-54.98C372.44,-46.13 415.3,-32.19 445.78,-22.28"/>
<polygon fill="black" stroke="black" points="447.18,-25.5 455.61,-19.08 445.01,-18.85 447.18,-25.5"/>
</g>
<!-- PhysicalEnvironment -->
<g id="node6" class="node">
<title>PhysicalEnvironment</title>
<g id="a_node6"><a xlink:href="inet.environment.common.PhysicalEnvironment.html" xlink:title="Compound Module PhysicalEnvironment" target="_parent">
<polygon fill="#fffcaf" stroke="black" points="688.5,-19 569.5,-19 569.5,0 688.5,0 688.5,-19"/>
<text text-anchor="middle" x="629" y="-7" font-family="Helvetica,sans-Serif" font-size="10.00">PhysicalEnvironment</text>
</a>
</g>
</g>
<!-- HiddenNodeShowcase&#45;&gt;PhysicalEnvironment -->
<g id="edge5" class="edge">
<title>HiddenNodeShowcase&#45;&gt;PhysicalEnvironment</title>
<path fill="none" stroke="black" d="M368.81,-54.98C423.3,-45.67 510.63,-30.74 568.89,-20.78"/>
<polygon fill="black" stroke="black" points="569.79,-24.17 579.06,-19.04 568.61,-17.27 569.79,-24.17"/>
</g>
</g>
</svg>
