<?xml version="1.0" encoding="UTF-8" standalone="no"?>
<!DOCTYPE svg PUBLIC "-//W3C//DTD SVG 1.1//EN"
 "http://www.w3.org/Graphics/SVG/1.1/DTD/svg11.dtd">
<!-- Generated by graphviz version 2.43.0 (0)
 -->
<!-- Title: opp Pages: 1 -->
<svg width="671pt" height="82pt"
 viewBox="0.00 0.00 670.50 82.00" xmlns="http://www.w3.org/2000/svg" xmlns:xlink="http://www.w3.org/1999/xlink">
<g id="graph0" class="graph" transform="scale(1 1) rotate(0) translate(4 78)">
<title>opp</title>
<polygon fill="transparent" stroke="transparent" points="-4,4 -4,-78 666.5,-78 666.5,4 -4,4"/>
<!-- ConfiguratorB -->
<g id="node1" class="node">
<title>ConfiguratorB</title>
<g id="a_node1"><a xlink:href="inet.tutorials.configurator.ConfiguratorB.html" xlink:title="Network ConfiguratorB" target="_parent">
<polygon fill="#9090ff" stroke="black" points="423,-74 340,-74 340,-55 423,-55 423,-74"/>
<text text-anchor="middle" x="381.5" y="-62" font-family="Helvetica,sans-Serif" font-size="10.00">ConfiguratorB</text>
</a>
</g>
</g>
<!-- StandardHost -->
<g id="node2" class="node">
<title>StandardHost</title>
<g id="a_node2"><a xlink:href="inet.node.inet.StandardHost.html" xlink:title="Compound Module StandardHost" target="_parent">
<polygon fill="#fffcaf" stroke="black" points="83,-19 0,-19 0,0 83,0 83,-19"/>
<text text-anchor="middle" x="41.5" y="-7" font-family="Helvetica,sans-Serif" font-size="10.00">StandardHost</text>
</a>
</g>
</g>
<!-- ConfiguratorB&#45;&gt;StandardHost -->
<g id="edge1" class="edge">
<title>ConfiguratorB&#45;&gt;StandardHost</title>
<path fill="none" stroke="black" d="M339.69,-57.3C285.22,-49.18 186.77,-34.33 93.15,-19.25"/>
<polygon fill="black" stroke="black" points="93.66,-15.79 83.23,-17.65 92.55,-22.7 93.66,-15.79"/>
</g>
<!-- IntegratedCanvasVisualizer -->
<g id="node3" class="node">
<title>IntegratedCanvasVisualizer</title>
<g id="a_node3"><a xlink:href="inet.visualizer.canvas.integrated.IntegratedCanvasVisualizer.html" xlink:title="Compound Module IntegratedCanvasVisualizer" target="_parent">
<polygon fill="#fffcaf" stroke="black" points="252,-19 101,-19 101,0 252,0 252,-19"/>
<text text-anchor="middle" x="176.5" y="-7" font-family="Helvetica,sans-Serif" font-size="10.00">IntegratedCanvasVisualizer</text>
</a>
</g>
</g>
<!-- ConfiguratorB&#45;&gt;IntegratedCanvasVisualizer -->
<g id="edge2" class="edge">
<title>ConfiguratorB&#45;&gt;IntegratedCanvasVisualizer</title>
<path fill="none" stroke="black" d="M348.56,-54.98C313.55,-45.93 258.03,-31.58 219.57,-21.64"/>
<polygon fill="black" stroke="black" points="220.25,-18.2 209.69,-19.08 218.5,-24.97 220.25,-18.2"/>
</g>
<!-- EthernetSwitch -->
<g id="node4" class="node">
<title>EthernetSwitch</title>
<g id="a_node4"><a xlink:href="inet.node.ethernet.EthernetSwitch.html" xlink:title="Compound Module EthernetSwitch" target="_parent">
<polygon fill="#fffcaf" stroke="black" points="360.5,-19 270.5,-19 270.5,0 360.5,0 360.5,-19"/>
<text text-anchor="middle" x="315.5" y="-7" font-family="Helvetica,sans-Serif" font-size="10.00">EthernetSwitch</text>
</a>
</g>
</g>
<!-- ConfiguratorB&#45;&gt;EthernetSwitch -->
<g id="edge3" class="edge">
<title>ConfiguratorB&#45;&gt;EthernetSwitch</title>
<path fill="none" stroke="black" d="M370.9,-54.98C361.04,-47.07 346.15,-35.11 334.28,-25.58"/>
<polygon fill="black" stroke="black" points="336.29,-22.7 326.3,-19.17 331.9,-28.16 336.29,-22.7"/>
</g>
<!-- Ipv4NetworkConfigurator -->
<g id="node5" class="node">
<title>Ipv4NetworkConfigurator</title>
<g id="a_node5"><a xlink:href="inet.networklayer.configurator.ipv4.Ipv4NetworkConfigurator.html" xlink:title="Simple Module Ipv4NetworkConfigurator" target="_parent">
<polygon fill="#fffcaf" stroke="black" points="518,-19 379,-19 379,0 518,0 518,-19"/>
<text text-anchor="middle" x="448.5" y="-7" font-family="Helvetica,sans-Serif" font-size="10.00">Ipv4NetworkConfigurator</text>
</a>
</g>
</g>
<!-- ConfiguratorB&#45;&gt;Ipv4NetworkConfigurator -->
<g id="edge4" class="edge">
<title>ConfiguratorB&#45;&gt;Ipv4NetworkConfigurator</title>
<path fill="none" stroke="black" d="M392.26,-54.98C402.27,-47.07 417.39,-35.11 429.43,-25.58"/>
<polygon fill="black" stroke="black" points="431.87,-28.12 437.54,-19.17 427.53,-22.63 431.87,-28.12"/>
</g>
<!-- Eth10M -->
<g id="node6" class="node">
<title>Eth10M</title>
<g id="a_node6"><a xlink:href="inet.node.ethernet.Eth10M.html" xlink:title="Channel Eth10M" target="_parent">
<polygon fill="#d0ffd0" stroke="black" points="590.5,-19 536.5,-19 536.5,0 590.5,0 590.5,-19"/>
<text text-anchor="middle" x="563.5" y="-7" font-family="Helvetica,sans-Serif" font-size="10.00">Eth10M</text>
</a>
</g>
</g>
<!-- ConfiguratorB&#45;&gt;Eth10M -->
<g id="edge5" class="edge">
<title>ConfiguratorB&#45;&gt;Eth10M</title>
<path fill="none" stroke="black" d="M410.74,-54.98C442.29,-45.8 492.6,-31.15 526.79,-21.19"/>
<polygon fill="black" stroke="black" points="527.79,-24.55 536.41,-18.39 525.83,-17.82 527.79,-24.55"/>
</g>
<!-- Router -->
<g id="node7" class="node">
<title>Router</title>
<g id="a_node7"><a xlink:href="inet.node.inet.Router.html" xlink:title="Compound Module Router" target="_parent">
<polygon fill="#fffcaf" stroke="black" points="662.5,-19 608.5,-19 608.5,0 662.5,0 662.5,-19"/>
<text text-anchor="middle" x="635.5" y="-7" font-family="Helvetica,sans-Serif" font-size="10.00">Router</text>
</a>
</g>
</g>
<!-- ConfiguratorB&#45;&gt;Router -->
<g id="edge6" class="edge">
<title>ConfiguratorB&#45;&gt;Router</title>
<path fill="none" stroke="black" d="M423.37,-55.35C465.26,-47.1 531.78,-33.77 598.54,-19.16"/>
<polygon fill="black" stroke="black" points="599.38,-22.56 608.39,-16.99 597.88,-15.72 599.38,-22.56"/>
</g>
</g>
</svg>
