<?xml version="1.0" encoding="UTF-8" standalone="no"?>
<!DOCTYPE svg PUBLIC "-//W3C//DTD SVG 1.1//EN"
 "http://www.w3.org/Graphics/SVG/1.1/DTD/svg11.dtd">
<!-- Generated by graphviz version 2.43.0 (0)
 -->
<!-- Title: opp Pages: 1 -->
<svg width="534pt" height="82pt"
 viewBox="0.00 0.00 534.00 82.00" xmlns="http://www.w3.org/2000/svg" xmlns:xlink="http://www.w3.org/1999/xlink">
<g id="graph0" class="graph" transform="scale(1 1) rotate(0) translate(4 78)">
<title>opp</title>
<polygon fill="transparent" stroke="transparent" points="-4,4 -4,-78 530,-78 530,4 -4,4"/>
<!-- CompoundPacketQueueTutorialStep -->
<g id="node1" class="node">
<title>CompoundPacketQueueTutorialStep</title>
<g id="a_node1"><a xlink:href="inet.tutorials.queueing.CompoundPacketQueueTutorialStep.html" xlink:title="Network CompoundPacketQueueTutorialStep" target="_parent">
<polygon fill="#9090ff" stroke="black" points="331,-74 141,-74 141,-55 331,-55 331,-74"/>
<text text-anchor="middle" x="236" y="-62" font-family="Helvetica,sans-Serif" font-size="10.00">CompoundPacketQueueTutorialStep</text>
</a>
</g>
</g>
<!-- IdealChannel -->
<g id="node2" class="node">
<title>IdealChannel</title>
<g id="a_node2"><a xlink:href="ned.IdealChannel.html" xlink:title="Channel IdealChannel" target="_parent">
<polygon fill="#d0ffd0" stroke="black" points="80,-19 0,-19 0,0 80,0 80,-19"/>
<text text-anchor="middle" x="40" y="-7" font-family="Helvetica,sans-Serif" font-size="10.00">IdealChannel</text>
</a>
</g>
</g>
<!-- CompoundPacketQueueTutorialStep&#45;&gt;IdealChannel -->
<g id="edge1" class="edge">
<title>CompoundPacketQueueTutorialStep&#45;&gt;IdealChannel</title>
<path fill="none" stroke="black" d="M204.51,-54.98C171.18,-45.97 118.4,-31.7 81.65,-21.76"/>
<polygon fill="black" stroke="black" points="82.3,-18.31 71.74,-19.08 80.48,-25.07 82.3,-18.31"/>
</g>
<!-- ActivePacketSource -->
<g id="node3" class="node">
<title>ActivePacketSource</title>
<g id="a_node3"><a xlink:href="inet.queueing.source.ActivePacketSource.html" xlink:title="Simple Module ActivePacketSource" target="_parent">
<polygon fill="#fffcaf" stroke="black" points="210,-19 98,-19 98,0 210,0 210,-19"/>
<text text-anchor="middle" x="154" y="-7" font-family="Helvetica,sans-Serif" font-size="10.00">ActivePacketSource</text>
</a>
</g>
</g>
<!-- CompoundPacketQueueTutorialStep&#45;&gt;ActivePacketSource -->
<g id="edge2" class="edge">
<title>CompoundPacketQueueTutorialStep&#45;&gt;ActivePacketSource</title>
<path fill="none" stroke="black" d="M222.83,-54.98C210.23,-46.84 191,-34.41 176.06,-24.76"/>
<polygon fill="black" stroke="black" points="177.71,-21.66 167.41,-19.17 173.91,-27.54 177.71,-21.66"/>
</g>
<!-- ExampleCompoundPriorityQueue -->
<g id="node4" class="node">
<title>ExampleCompoundPriorityQueue</title>
<g id="a_node4"><a xlink:href="inet.tutorials.queueing.ExampleCompoundPriorityQueue.html" xlink:title="Compound Module ExampleCompoundPriorityQueue" target="_parent">
<polygon fill="#fffcaf" stroke="black" points="407.5,-19 228.5,-19 228.5,0 407.5,0 407.5,-19"/>
<text text-anchor="middle" x="318" y="-7" font-family="Helvetica,sans-Serif" font-size="10.00">ExampleCompoundPriorityQueue</text>
</a>
</g>
</g>
<!-- CompoundPacketQueueTutorialStep&#45;&gt;ExampleCompoundPriorityQueue -->
<g id="edge3" class="edge">
<title>CompoundPacketQueueTutorialStep&#45;&gt;ExampleCompoundPriorityQueue</title>
<path fill="none" stroke="black" d="M249.17,-54.98C261.77,-46.84 281,-34.41 295.94,-24.76"/>
<polygon fill="black" stroke="black" points="298.09,-27.54 304.59,-19.17 294.29,-21.66 298.09,-27.54"/>
</g>
<!-- ActivePacketSink -->
<g id="node5" class="node">
<title>ActivePacketSink</title>
<g id="a_node5"><a xlink:href="inet.queueing.sink.ActivePacketSink.html" xlink:title="Simple Module ActivePacketSink" target="_parent">
<polygon fill="#fffcaf" stroke="black" points="526,-19 426,-19 426,0 526,0 526,-19"/>
<text text-anchor="middle" x="476" y="-7" font-family="Helvetica,sans-Serif" font-size="10.00">ActivePacketSink</text>
</a>
</g>
</g>
<!-- CompoundPacketQueueTutorialStep&#45;&gt;ActivePacketSink -->
<g id="edge4" class="edge">
<title>CompoundPacketQueueTutorialStep&#45;&gt;ActivePacketSink</title>
<path fill="none" stroke="black" d="M274.56,-54.98C316.07,-45.82 382.21,-31.21 427.29,-21.26"/>
<polygon fill="black" stroke="black" points="428.13,-24.66 437.14,-19.08 426.62,-17.82 428.13,-24.66"/>
</g>
</g>
</svg>
