<?xml version="1.0" encoding="UTF-8" standalone="no"?>
<!DOCTYPE svg PUBLIC "-//W3C//DTD SVG 1.1//EN"
 "http://www.w3.org/Graphics/SVG/1.1/DTD/svg11.dtd">
<!-- Generated by graphviz version 2.43.0 (0)
 -->
<!-- Title: opp Pages: 1 -->
<svg width="486pt" height="137pt"
 viewBox="0.00 0.00 485.50 137.00" xmlns="http://www.w3.org/2000/svg" xmlns:xlink="http://www.w3.org/1999/xlink">
<g id="graph0" class="graph" transform="scale(1 1) rotate(0) translate(4 133)">
<title>opp</title>
<polygon fill="transparent" stroke="transparent" points="-4,4 -4,-133 481.5,-133 481.5,4 -4,4"/>
<!-- SnirReceiverBase -->
<g id="node1" class="node">
<title>SnirReceiverBase</title>
<g id="a_node1"><a xlink:href="inet.physicallayer.wireless.common.base.packetlevel.SnirReceiverBase.html" xlink:title="Compound Module SnirReceiverBase" target="_parent">
<polygon fill="#fff700" stroke="black" points="279,-74 177,-74 177,-55 279,-55 279,-74"/>
<text text-anchor="middle" x="228" y="-62" font-family="Helvetica,sans-Serif" font-size="10.00">SnirReceiverBase</text>
</a>
</g>
</g>
<!-- ApskLayeredReceiver -->
<g id="node3" class="node">
<title>ApskLayeredReceiver</title>
<g id="a_node3"><a xlink:href="inet.physicallayer.wireless.apsk.bitlevel.ApskLayeredReceiver.html" xlink:title="Compound Module ApskLayeredReceiver" target="_parent">
<polygon fill="#fffcaf" stroke="black" points="122,-19 0,-19 0,0 122,0 122,-19"/>
<text text-anchor="middle" x="61" y="-7" font-family="Helvetica,sans-Serif" font-size="10.00">ApskLayeredReceiver</text>
</a>
</g>
</g>
<!-- SnirReceiverBase&#45;&gt;ApskLayeredReceiver -->
<g id="edge2" class="edge">
<title>SnirReceiverBase&#45;&gt;ApskLayeredReceiver</title>
<path fill="none" stroke="black" d="M201.17,-54.98C170.1,-45.12 119.2,-28.97 88.04,-19.08"/>
</g>
<!-- Ieee80211LayeredOfdmReceiver -->
<g id="node4" class="node">
<title>Ieee80211LayeredOfdmReceiver</title>
<g id="a_node4"><a xlink:href="inet.physicallayer.wireless.ieee80211.bitlevel.Ieee80211LayeredOfdmReceiver.html" xlink:title="Compound Module Ieee80211LayeredOfdmReceiver" target="_parent">
<polygon fill="#fffcaf" stroke="black" points="316,-19 140,-19 140,0 316,0 316,-19"/>
<text text-anchor="middle" x="228" y="-7" font-family="Helvetica,sans-Serif" font-size="10.00">Ieee80211LayeredOfdmReceiver</text>
</a>
</g>
</g>
<!-- SnirReceiverBase&#45;&gt;Ieee80211LayeredOfdmReceiver -->
<g id="edge3" class="edge">
<title>SnirReceiverBase&#45;&gt;Ieee80211LayeredOfdmReceiver</title>
<path fill="none" stroke="black" d="M228,-54.75C228,-44.87 228,-28.9 228,-19.09"/>
</g>
<!-- NarrowbandReceiverBase -->
<g id="node5" class="node">
<title>NarrowbandReceiverBase</title>
<g id="a_node5"><a xlink:href="inet.physicallayer.wireless.common.base.packetlevel.NarrowbandReceiverBase.html" xlink:title="Compound Module NarrowbandReceiverBase" target="_parent">
<polygon fill="#fffcaf" stroke="black" points="477.5,-19 334.5,-19 334.5,0 477.5,0 477.5,-19"/>
<text text-anchor="middle" x="406" y="-7" font-family="Helvetica,sans-Serif" font-size="10.00">NarrowbandReceiverBase</text>
</a>
</g>
</g>
<!-- SnirReceiverBase&#45;&gt;NarrowbandReceiverBase -->
<g id="edge4" class="edge">
<title>SnirReceiverBase&#45;&gt;NarrowbandReceiverBase</title>
<path fill="none" stroke="black" d="M256.6,-54.98C289.72,-45.12 343.96,-28.97 377.18,-19.08"/>
</g>
<!-- IReceiver -->
<g id="node2" class="node">
<title>IReceiver</title>
<g id="a_node2"><a xlink:href="inet.physicallayer.wireless.common.contract.packetlevel.IReceiver.html" xlink:title="Module Interface IReceiver" target="_parent">
<polygon fill="#fffcaf" stroke="black" stroke-dasharray="5,2" points="259,-129 197,-129 197,-110 259,-110 259,-129"/>
<text text-anchor="middle" x="228" y="-117" font-family="Helvetica,sans-Serif" font-size="10.00">IReceiver</text>
</a>
</g>
</g>
<!-- IReceiver&#45;&gt;SnirReceiverBase -->
<g id="edge1" class="edge">
<title>IReceiver&#45;&gt;SnirReceiverBase</title>
<path fill="none" stroke="black" stroke-dasharray="5,2" d="M228,-109.75C228,-99.87 228,-83.9 228,-74.09"/>
</g>
</g>
</svg>
