<?xml version="1.0" encoding="UTF-8" standalone="no"?>
<!DOCTYPE svg PUBLIC "-//W3C//DTD SVG 1.1//EN"
 "http://www.w3.org/Graphics/SVG/1.1/DTD/svg11.dtd">
<!-- Generated by graphviz version 2.43.0 (0)
 -->
<!-- Title: opp Pages: 1 -->
<svg width="1012pt" height="82pt"
 viewBox="0.00 0.00 1012.00 82.00" xmlns="http://www.w3.org/2000/svg" xmlns:xlink="http://www.w3.org/1999/xlink">
<g id="graph0" class="graph" transform="scale(1 1) rotate(0) translate(4 78)">
<title>opp</title>
<polygon fill="transparent" stroke="transparent" points="-4,4 -4,-78 1008,-78 1008,4 -4,4"/>
<!-- DatarateChannel -->
<g id="node1" class="node">
<title>DatarateChannel</title>
<g id="a_node1"><a xlink:href="ned.DatarateChannel.html" xlink:title="Channel DatarateChannel" target="_parent">
<polygon fill="#90ff90" stroke="black" points="495,-74 396,-74 396,-55 495,-55 495,-74"/>
<text text-anchor="middle" x="445.5" y="-62" font-family="Helvetica,sans-Serif" font-size="10.00">DatarateChannel</text>
</a>
</g>
</g>
<!-- accessChannel -->
<g id="node2" class="node">
<title>accessChannel</title>
<g id="a_node2"><a xlink:href="inet.examples.inet.netperfmeter.accessChannel.html" xlink:title="Channel accessChannel" target="_parent">
<polygon fill="#d0ffd0" stroke="black" points="89,-19 0,-19 0,0 89,0 89,-19"/>
<text text-anchor="middle" x="44.5" y="-7" font-family="Helvetica,sans-Serif" font-size="10.00">accessChannel</text>
</a>
</g>
</g>
<!-- DatarateChannel&#45;&gt;accessChannel -->
<g id="edge1" class="edge">
<title>DatarateChannel&#45;&gt;accessChannel</title>
<path fill="none" stroke="black" d="M395.87,-57.66C328.3,-49.59 203.6,-34.29 97.5,-19 94.73,-18.6 91.89,-18.18 89.02,-17.74"/>
</g>
<!-- BottlePath -->
<g id="node3" class="node">
<title>BottlePath</title>
<g id="a_node3"><a xlink:href="inet.examples.sctp.cmttest.BottlePath.html" xlink:title="Channel BottlePath" target="_parent">
<polygon fill="#d0ffd0" stroke="black" points="174,-19 107,-19 107,0 174,0 174,-19"/>
<text text-anchor="middle" x="140.5" y="-7" font-family="Helvetica,sans-Serif" font-size="10.00">BottlePath</text>
</a>
</g>
</g>
<!-- DatarateChannel&#45;&gt;BottlePath -->
<g id="edge2" class="edge">
<title>DatarateChannel&#45;&gt;BottlePath</title>
<path fill="none" stroke="black" d="M395.69,-55.45C342.93,-46.83 257.24,-32.55 183.5,-19 180.51,-18.45 177.4,-17.86 174.28,-17.27"/>
</g>
<!-- cable -->
<g id="node4" class="node">
<title>cable</title>
<g id="a_node4"><a xlink:href="inet.examples.inet.ipv4largenet.cable.html" xlink:title="Channel cable" target="_parent">
<polygon fill="#d0ffd0" stroke="black" points="246.5,-19 192.5,-19 192.5,0 246.5,0 246.5,-19"/>
<text text-anchor="middle" x="219.5" y="-7" font-family="Helvetica,sans-Serif" font-size="10.00">cable</text>
</a>
</g>
</g>
<!-- DatarateChannel&#45;&gt;cable -->
<g id="edge3" class="edge">
<title>DatarateChannel&#45;&gt;cable</title>
<path fill="none" stroke="black" d="M402.35,-54.99C361.9,-46.06 300.17,-31.62 246.81,-19.07"/>
</g>
<!-- DatarateChannel&#45;&gt;cable -->
<g id="edge4" class="edge">
<title>DatarateChannel&#45;&gt;cable</title>
<path fill="none" stroke="black" d="M415.79,-54.99C379.82,-46.05 317.93,-31.56 264.5,-19 258.87,-17.68 252.75,-16.23 246.79,-14.92"/>
</g>
<!-- coreChannel -->
<g id="node5" class="node">
<title>coreChannel</title>
<g id="a_node5"><a xlink:href="inet.examples.inet.netperfmeter.coreChannel.html" xlink:title="Channel coreChannel" target="_parent">
<polygon fill="#d0ffd0" stroke="black" points="342,-19 265,-19 265,0 342,0 342,-19"/>
<text text-anchor="middle" x="303.5" y="-7" font-family="Helvetica,sans-Serif" font-size="10.00">coreChannel</text>
</a>
</g>
</g>
<!-- DatarateChannel&#45;&gt;coreChannel -->
<g id="edge5" class="edge">
<title>DatarateChannel&#45;&gt;coreChannel</title>
<path fill="none" stroke="black" d="M422.69,-54.98C396.34,-45.15 353.25,-29.07 326.73,-19.17"/>
</g>
<!-- ethernetline -->
<g id="node6" class="node">
<title>ethernetline</title>
<g id="a_node6"><a xlink:href="inet.examples.mobileipv6.ethernetline.html" xlink:title="Channel ethernetline" target="_parent">
<polygon fill="#d0ffd0" stroke="black" points="436.5,-19 360.5,-19 360.5,0 436.5,0 436.5,-19"/>
<text text-anchor="middle" x="398.5" y="-7" font-family="Helvetica,sans-Serif" font-size="10.00">ethernetline</text>
</a>
</g>
</g>
<!-- DatarateChannel&#45;&gt;ethernetline -->
<g id="edge6" class="edge">
<title>DatarateChannel&#45;&gt;ethernetline</title>
<path fill="none" stroke="black" d="M437.74,-54.75C428.98,-44.87 414.82,-28.9 406.12,-19.09"/>
</g>
<!-- EthernetLink -->
<g id="node7" class="node">
<title>EthernetLink</title>
<g id="a_node7"><a xlink:href="inet.node.ethernet.EthernetLink.html" xlink:title="Channel EthernetLink" target="_parent">
<polygon fill="#d0ffd0" stroke="black" points="532.5,-19 454.5,-19 454.5,0 532.5,0 532.5,-19"/>
<text text-anchor="middle" x="493.5" y="-7" font-family="Helvetica,sans-Serif" font-size="10.00">EthernetLink</text>
</a>
</g>
</g>
<!-- DatarateChannel&#45;&gt;EthernetLink -->
<g id="edge7" class="edge">
<title>DatarateChannel&#45;&gt;EthernetLink</title>
<path fill="none" stroke="black" d="M453.43,-54.75C462.37,-44.87 476.84,-28.9 485.72,-19.09"/>
</g>
<!-- FastP -->
<g id="node8" class="node">
<title>FastP</title>
<g id="a_node8"><a xlink:href="inet.examples.inet.redmarker.FastP.html" xlink:title="Channel FastP" target="_parent">
<polygon fill="#d0ffd0" stroke="black" points="604.5,-19 550.5,-19 550.5,0 604.5,0 604.5,-19"/>
<text text-anchor="middle" x="577.5" y="-7" font-family="Helvetica,sans-Serif" font-size="10.00">FastP</text>
</a>
</g>
</g>
<!-- DatarateChannel&#45;&gt;FastP -->
<g id="edge8" class="edge">
<title>DatarateChannel&#45;&gt;FastP</title>
<path fill="none" stroke="black" d="M466.71,-54.98C491.19,-45.15 531.26,-29.07 555.91,-19.17"/>
</g>
<!-- fiberline -->
<g id="node9" class="node">
<title>fiberline</title>
<g id="a_node9"><a xlink:href="inet.examples.mobileipv6.fiberline.html" xlink:title="Channel fiberline" target="_parent">
<polygon fill="#d0ffd0" stroke="black" points="678.5,-19 622.5,-19 622.5,0 678.5,0 678.5,-19"/>
<text text-anchor="middle" x="650.5" y="-7" font-family="Helvetica,sans-Serif" font-size="10.00">fiberline</text>
</a>
</g>
</g>
<!-- DatarateChannel&#45;&gt;fiberline -->
<g id="edge9" class="edge">
<title>DatarateChannel&#45;&gt;fiberline</title>
<path fill="none" stroke="black" d="M478.44,-54.98C518.28,-44.68 584.66,-27.52 622.26,-17.8"/>
</g>
<!-- NormalP -->
<g id="node10" class="node">
<title>NormalP</title>
<g id="a_node10"><a xlink:href="inet.examples.inet.redmarker.NormalP.html" xlink:title="Channel NormalP" target="_parent">
<polygon fill="#d0ffd0" stroke="black" points="756,-19 697,-19 697,0 756,0 756,-19"/>
<text text-anchor="middle" x="726.5" y="-7" font-family="Helvetica,sans-Serif" font-size="10.00">NormalP</text>
</a>
</g>
</g>
<!-- DatarateChannel&#45;&gt;NormalP -->
<g id="edge10" class="edge">
<title>DatarateChannel&#45;&gt;NormalP</title>
<path fill="none" stroke="black" d="M494.72,-54.94C543.68,-46.3 620.91,-32.38 687.5,-19 690.49,-18.4 693.6,-17.75 696.71,-17.1"/>
</g>
<!-- NormalPath -->
<g id="node11" class="node">
<title>NormalPath</title>
<g id="a_node11"><a xlink:href="inet.examples.sctp.cmttest.NormalPath.html" xlink:title="Channel NormalPath" target="_parent">
<polygon fill="#d0ffd0" stroke="black" points="848.5,-19 774.5,-19 774.5,0 848.5,0 848.5,-19"/>
<text text-anchor="middle" x="811.5" y="-7" font-family="Helvetica,sans-Serif" font-size="10.00">NormalPath</text>
</a>
</g>
</g>
<!-- DatarateChannel&#45;&gt;NormalPath -->
<g id="edge11" class="edge">
<title>DatarateChannel&#45;&gt;NormalPath</title>
<path fill="none" stroke="black" d="M495.21,-57.28C558.22,-49.25 670.13,-34.44 765.5,-19 768.39,-18.53 771.37,-18.03 774.37,-17.51"/>
</g>
<!-- ThruputMeteringChannel -->
<g id="node12" class="node">
<title>ThruputMeteringChannel</title>
<g id="a_node12"><a xlink:href="inet.common.misc.ThruputMeteringChannel.html" xlink:title="Channel ThruputMeteringChannel" target="_parent">
<polygon fill="#d0ffd0" stroke="black" points="1004,-19 867,-19 867,0 1004,0 1004,-19"/>
<text text-anchor="middle" x="935.5" y="-7" font-family="Helvetica,sans-Serif" font-size="10.00">ThruputMeteringChannel</text>
</a>
</g>
</g>
<!-- DatarateChannel&#45;&gt;ThruputMeteringChannel -->
<g id="edge12" class="edge">
<title>DatarateChannel&#45;&gt;ThruputMeteringChannel</title>
<path fill="none" stroke="black" d="M495.29,-58.14C572.74,-49.79 726.79,-33.18 857.5,-19 860.48,-18.68 863.52,-18.35 866.6,-18.01"/>
</g>
</g>
</svg>
