<?xml version="1.0" encoding="UTF-8" standalone="no"?>
<!DOCTYPE svg PUBLIC "-//W3C//DTD SVG 1.1//EN"
 "http://www.w3.org/Graphics/SVG/1.1/DTD/svg11.dtd">
<!-- Generated by graphviz version 2.43.0 (0)
 -->
<!-- Title: opp Pages: 1 -->
<svg width="619pt" height="82pt"
 viewBox="0.00 0.00 619.00 82.00" xmlns="http://www.w3.org/2000/svg" xmlns:xlink="http://www.w3.org/1999/xlink">
<g id="graph0" class="graph" transform="scale(1 1) rotate(0) translate(4 78)">
<title>opp</title>
<polygon fill="transparent" stroke="transparent" points="-4,4 -4,-78 615,-78 615,4 -4,4"/>
<!-- EdgeCloudNetwork -->
<g id="node1" class="node">
<title>EdgeCloudNetwork</title>
<g id="a_node1"><a xlink:href="d6g.simulations.edgecloud.EdgeCloudNetwork.html" xlink:title="Network EdgeCloudNetwork" target="_parent">
<polygon fill="#9090ff" stroke="black" points="352.5,-74 242.5,-74 242.5,-55 352.5,-55 352.5,-74"/>
<text text-anchor="middle" x="297.5" y="-62" font-family="Helvetica,sans-Serif" font-size="10.00">EdgeCloudNetwork</text>
</a>
</g>
</g>
<!-- TsnSwitch -->
<g id="node2" class="node">
<title>TsnSwitch</title>
<g id="a_node2"><a xlink:href="../../../inet/doc/neddoc/inet.node.tsn.TsnSwitch.html" xlink:title="Compound Module TsnSwitch" target="_parent">
<polygon fill="#fffcaf" stroke="black" points="65,-19 0,-19 0,0 65,0 65,-19"/>
<text text-anchor="middle" x="32.5" y="-7" font-family="Helvetica,sans-Serif" font-size="10.00">TsnSwitch</text>
</a>
</g>
</g>
<!-- EdgeCloudNetwork&#45;&gt;TsnSwitch -->
<g id="edge1" class="edge">
<title>EdgeCloudNetwork&#45;&gt;TsnSwitch</title>
<path fill="none" stroke="black" d="M254.33,-54.92C211.5,-46.4 143.73,-32.9 75.18,-19.13"/>
<polygon fill="black" stroke="black" points="75.55,-15.64 65.06,-17.1 74.17,-22.5 75.55,-15.64"/>
</g>
<!-- TsnDevice -->
<g id="node3" class="node">
<title>TsnDevice</title>
<g id="a_node3"><a xlink:href="../../../inet/doc/neddoc/inet.node.tsn.TsnDevice.html" xlink:title="Compound Module TsnDevice" target="_parent">
<polygon fill="#fffcaf" stroke="black" points="149.5,-19 83.5,-19 83.5,0 149.5,0 149.5,-19"/>
<text text-anchor="middle" x="116.5" y="-7" font-family="Helvetica,sans-Serif" font-size="10.00">TsnDevice</text>
</a>
</g>
</g>
<!-- EdgeCloudNetwork&#45;&gt;TsnDevice -->
<g id="edge2" class="edge">
<title>EdgeCloudNetwork&#45;&gt;TsnDevice</title>
<path fill="none" stroke="black" d="M268.42,-54.98C237.9,-46.05 189.74,-31.94 155.84,-22.02"/>
<polygon fill="black" stroke="black" points="156.39,-18.53 145.81,-19.08 154.42,-25.25 156.39,-18.53"/>
</g>
<!-- EthernetLink -->
<g id="node4" class="node">
<title>EthernetLink</title>
<g id="a_node4"><a xlink:href="../../../inet/doc/neddoc/inet.node.ethernet.EthernetLink.html" xlink:title="Channel EthernetLink" target="_parent">
<polygon fill="#d0ffd0" stroke="black" points="245.5,-19 167.5,-19 167.5,0 245.5,0 245.5,-19"/>
<text text-anchor="middle" x="206.5" y="-7" font-family="Helvetica,sans-Serif" font-size="10.00">EthernetLink</text>
</a>
</g>
</g>
<!-- EdgeCloudNetwork&#45;&gt;EthernetLink -->
<g id="edge3" class="edge">
<title>EdgeCloudNetwork&#45;&gt;EthernetLink</title>
<path fill="none" stroke="black" d="M282.88,-54.98C268.64,-46.69 246.75,-33.94 230.05,-24.22"/>
<polygon fill="black" stroke="black" points="231.79,-21.18 221.39,-19.17 228.27,-27.23 231.79,-21.18"/>
</g>
<!-- Histogram -->
<g id="node5" class="node">
<title>Histogram</title>
<g id="a_node5"><a xlink:href="d6g.distribution.histogram.Histogram.html" xlink:title="Simple Module Histogram" target="_parent">
<polygon fill="#fffcaf" stroke="black" points="331.5,-19 263.5,-19 263.5,0 331.5,0 331.5,-19"/>
<text text-anchor="middle" x="297.5" y="-7" font-family="Helvetica,sans-Serif" font-size="10.00">Histogram</text>
</a>
</g>
</g>
<!-- EdgeCloudNetwork&#45;&gt;Histogram -->
<g id="edge4" class="edge">
<title>EdgeCloudNetwork&#45;&gt;Histogram</title>
<path fill="none" stroke="black" d="M297.5,-54.75C297.5,-47.8 297.5,-37.85 297.5,-29.13"/>
<polygon fill="black" stroke="black" points="301,-29.09 297.5,-19.09 294,-29.09 301,-29.09"/>
</g>
<!-- DetCom -->
<g id="node6" class="node">
<title>DetCom</title>
<g id="a_node6"><a xlink:href="d6g.devices.sixg.DetCom.html" xlink:title="Compound Module DetCom" target="_parent">
<polygon fill="#fffcaf" stroke="black" points="405.5,-19 349.5,-19 349.5,0 405.5,0 405.5,-19"/>
<text text-anchor="middle" x="377.5" y="-7" font-family="Helvetica,sans-Serif" font-size="10.00">DetCom</text>
</a>
</g>
</g>
<!-- EdgeCloudNetwork&#45;&gt;DetCom -->
<g id="edge5" class="edge">
<title>EdgeCloudNetwork&#45;&gt;DetCom</title>
<path fill="none" stroke="black" d="M310.35,-54.98C322.64,-46.84 341.41,-34.41 355.98,-24.76"/>
<polygon fill="black" stroke="black" points="358.01,-27.61 364.41,-19.17 354.14,-21.78 358.01,-27.61"/>
</g>
<!-- NNIChannel -->
<g id="node7" class="node">
<title>NNIChannel</title>
<g id="a_node7"><a xlink:href="d6g.devices.sixg.NNIChannel.html" xlink:title="Channel NNIChannel" target="_parent">
<polygon fill="#d0ffd0" stroke="black" points="497.5,-19 423.5,-19 423.5,0 497.5,0 497.5,-19"/>
<text text-anchor="middle" x="460.5" y="-7" font-family="Helvetica,sans-Serif" font-size="10.00">NNIChannel</text>
</a>
</g>
</g>
<!-- EdgeCloudNetwork&#45;&gt;NNIChannel -->
<g id="edge6" class="edge">
<title>EdgeCloudNetwork&#45;&gt;NNIChannel</title>
<path fill="none" stroke="black" d="M323.69,-54.98C350.94,-46.13 393.8,-32.19 424.28,-22.28"/>
<polygon fill="black" stroke="black" points="425.68,-25.5 434.11,-19.08 423.51,-18.85 425.68,-25.5"/>
</g>
<!-- DetComAdapter -->
<g id="node8" class="node">
<title>DetComAdapter</title>
<g id="a_node8"><a xlink:href="d6g.devices.sixg.DetComAdapter.html" xlink:title="Compound Module DetComAdapter" target="_parent">
<polygon fill="#fffcaf" stroke="black" points="611,-19 516,-19 516,0 611,0 611,-19"/>
<text text-anchor="middle" x="563.5" y="-7" font-family="Helvetica,sans-Serif" font-size="10.00">DetComAdapter</text>
</a>
</g>
</g>
<!-- EdgeCloudNetwork&#45;&gt;DetComAdapter -->
<g id="edge7" class="edge">
<title>EdgeCloudNetwork&#45;&gt;DetComAdapter</title>
<path fill="none" stroke="black" d="M340.24,-54.98C386.54,-45.76 460.48,-31.03 510.46,-21.07"/>
<polygon fill="black" stroke="black" points="511.3,-24.47 520.43,-19.08 509.94,-17.6 511.3,-24.47"/>
</g>
</g>
</svg>
