<?xml version="1.0" encoding="UTF-8" standalone="no"?>
<!DOCTYPE svg PUBLIC "-//W3C//DTD SVG 1.1//EN"
 "http://www.w3.org/Graphics/SVG/1.1/DTD/svg11.dtd">
<!-- Generated by graphviz version 2.43.0 (0)
 -->
<!-- Title: opp Pages: 1 -->
<svg width="430pt" height="82pt"
 viewBox="0.00 0.00 430.00 82.00" xmlns="http://www.w3.org/2000/svg" xmlns:xlink="http://www.w3.org/1999/xlink">
<g id="graph0" class="graph" transform="scale(1 1) rotate(0) translate(4 78)">
<title>opp</title>
<polygon fill="transparent" stroke="transparent" points="-4,4 -4,-78 426,-78 426,4 -4,4"/>
<!-- CooperativeManufacturing -->
<g id="node1" class="node">
<title>CooperativeManufacturing</title>
<g id="a_node1"><a xlink:href="d6g.simulations.cooperativemanufacturing.CooperativeManufacturing.html" xlink:title="Network CooperativeManufacturing" target="_parent">
<polygon fill="#9090ff" stroke="black" points="269,-74 123,-74 123,-55 269,-55 269,-74"/>
<text text-anchor="middle" x="196" y="-62" font-family="Helvetica,sans-Serif" font-size="10.00">CooperativeManufacturing</text>
</a>
</g>
</g>
<!-- AGV -->
<g id="node2" class="node">
<title>AGV</title>
<g id="a_node2"><a xlink:href="d6g.simulations.cooperativemanufacturing.AGV.html" xlink:title="Compound Module AGV" target="_parent">
<polygon fill="#fffcaf" stroke="black" points="54,-19 0,-19 0,0 54,0 54,-19"/>
<text text-anchor="middle" x="27" y="-7" font-family="Helvetica,sans-Serif" font-size="10.00">AGV</text>
</a>
</g>
</g>
<!-- CooperativeManufacturing&#45;&gt;AGV -->
<g id="edge1" class="edge">
<title>CooperativeManufacturing&#45;&gt;AGV</title>
<path fill="none" stroke="black" d="M168.85,-54.98C140.39,-46.06 95.5,-31.98 63.86,-22.06"/>
<polygon fill="black" stroke="black" points="64.67,-18.65 54.09,-18.99 62.58,-25.33 64.67,-18.65"/>
</g>
<!-- EthernetLink -->
<g id="node3" class="node">
<title>EthernetLink</title>
<g id="a_node3"><a xlink:href="../../../inet/doc/neddoc/inet.node.ethernet.EthernetLink.html" xlink:title="Channel EthernetLink" target="_parent">
<polygon fill="#d0ffd0" stroke="black" points="150,-19 72,-19 72,0 150,0 150,-19"/>
<text text-anchor="middle" x="111" y="-7" font-family="Helvetica,sans-Serif" font-size="10.00">EthernetLink</text>
</a>
</g>
</g>
<!-- CooperativeManufacturing&#45;&gt;EthernetLink -->
<g id="edge2" class="edge">
<title>CooperativeManufacturing&#45;&gt;EthernetLink</title>
<path fill="none" stroke="black" d="M182.34,-54.98C169.16,-46.77 148.97,-34.18 133.43,-24.49"/>
<polygon fill="black" stroke="black" points="135.24,-21.49 124.91,-19.17 131.54,-27.43 135.24,-21.49"/>
</g>
<!-- DetCom -->
<g id="node4" class="node">
<title>DetCom</title>
<g id="a_node4"><a xlink:href="d6g.devices.sixg.DetCom.html" xlink:title="Compound Module DetCom" target="_parent">
<polygon fill="#fffcaf" stroke="black" points="224,-19 168,-19 168,0 224,0 224,-19"/>
<text text-anchor="middle" x="196" y="-7" font-family="Helvetica,sans-Serif" font-size="10.00">DetCom</text>
</a>
</g>
</g>
<!-- CooperativeManufacturing&#45;&gt;DetCom -->
<g id="edge3" class="edge">
<title>CooperativeManufacturing&#45;&gt;DetCom</title>
<path fill="none" stroke="black" d="M196,-54.75C196,-47.8 196,-37.85 196,-29.13"/>
<polygon fill="black" stroke="black" points="199.5,-29.09 196,-19.09 192.5,-29.09 199.5,-29.09"/>
</g>
<!-- ProcessingCell -->
<g id="node5" class="node">
<title>ProcessingCell</title>
<g id="a_node5"><a xlink:href="d6g.simulations.cooperativemanufacturing.ProcessingCell.html" xlink:title="Compound Module ProcessingCell" target="_parent">
<polygon fill="#fffcaf" stroke="black" points="330,-19 242,-19 242,0 330,0 330,-19"/>
<text text-anchor="middle" x="286" y="-7" font-family="Helvetica,sans-Serif" font-size="10.00">ProcessingCell</text>
</a>
</g>
</g>
<!-- CooperativeManufacturing&#45;&gt;ProcessingCell -->
<g id="edge4" class="edge">
<title>CooperativeManufacturing&#45;&gt;ProcessingCell</title>
<path fill="none" stroke="black" d="M210.46,-54.98C224.42,-46.77 245.79,-34.18 262.25,-24.49"/>
<polygon fill="black" stroke="black" points="264.44,-27.26 271.28,-19.17 260.88,-21.23 264.44,-27.26"/>
</g>
<!-- NNIChannel -->
<g id="node6" class="node">
<title>NNIChannel</title>
<g id="a_node6"><a xlink:href="d6g.devices.sixg.NNIChannel.html" xlink:title="Channel NNIChannel" target="_parent">
<polygon fill="#d0ffd0" stroke="black" points="422,-19 348,-19 348,0 422,0 422,-19"/>
<text text-anchor="middle" x="385" y="-7" font-family="Helvetica,sans-Serif" font-size="10.00">NNIChannel</text>
</a>
</g>
</g>
<!-- CooperativeManufacturing&#45;&gt;NNIChannel -->
<g id="edge5" class="edge">
<title>CooperativeManufacturing&#45;&gt;NNIChannel</title>
<path fill="none" stroke="black" d="M226.37,-54.98C258.37,-46.01 308.96,-31.82 344.38,-21.89"/>
<polygon fill="black" stroke="black" points="345.71,-25.15 354.4,-19.08 343.82,-18.41 345.71,-25.15"/>
</g>
</g>
</svg>
