<?xml version="1.0" encoding="UTF-8" standalone="no"?>
<!DOCTYPE svg PUBLIC "-//W3C//DTD SVG 1.1//EN"
 "http://www.w3.org/Graphics/SVG/1.1/DTD/svg11.dtd">
<!-- Generated by graphviz version 2.43.0 (0)
 -->
<!-- Title: opp Pages: 1 -->
<svg width="318pt" height="82pt"
 viewBox="0.00 0.00 318.00 82.00" xmlns="http://www.w3.org/2000/svg" xmlns:xlink="http://www.w3.org/1999/xlink">
<g id="graph0" class="graph" transform="scale(1 1) rotate(0) translate(4 78)">
<title>opp</title>
<polygon fill="transparent" stroke="transparent" points="-4,4 -4,-78 314,-78 314,4 -4,4"/>
<!-- TsnTestNetwork -->
<g id="node1" class="node">
<title>TsnTestNetwork</title>
<g id="a_node1"><a xlink:href="d6g.simulations.TsnTestNetwork.html" xlink:title="Network TsnTestNetwork" target="_parent">
<polygon fill="#9090ff" stroke="black" points="231.5,-74 138.5,-74 138.5,-55 231.5,-55 231.5,-74"/>
<text text-anchor="middle" x="185" y="-62" font-family="Helvetica,sans-Serif" font-size="10.00">TsnTestNetwork</text>
</a>
</g>
</g>
<!-- IEthernetNetworkNode -->
<g id="node2" class="node">
<title>IEthernetNetworkNode</title>
<g id="a_node2"><a xlink:href="../../../inet/doc/neddoc/inet.node.contract.IEthernetNetworkNode.html" xlink:title="Module Interface IEthernetNetworkNode" target="_parent">
<polygon fill="#fffcaf" stroke="black" stroke-dasharray="5,2" points="128,-19 0,-19 0,0 128,0 128,-19"/>
<text text-anchor="middle" x="64" y="-7" font-family="Helvetica,sans-Serif" font-size="10.00">IEthernetNetworkNode</text>
</a>
</g>
</g>
<!-- TsnTestNetwork&#45;&gt;IEthernetNetworkNode -->
<g id="edge1" class="edge">
<title>TsnTestNetwork&#45;&gt;IEthernetNetworkNode</title>
<path fill="none" stroke="black" d="M165.56,-54.98C146.01,-46.42 115.62,-33.11 93.18,-23.28"/>
<polygon fill="black" stroke="black" points="94.36,-19.98 83.79,-19.17 91.55,-26.39 94.36,-19.98"/>
</g>
<!-- EthernetLink -->
<g id="node3" class="node">
<title>EthernetLink</title>
<g id="a_node3"><a xlink:href="../../../inet/doc/neddoc/inet.node.ethernet.EthernetLink.html" xlink:title="Channel EthernetLink" target="_parent">
<polygon fill="#d0ffd0" stroke="black" points="224,-19 146,-19 146,0 224,0 224,-19"/>
<text text-anchor="middle" x="185" y="-7" font-family="Helvetica,sans-Serif" font-size="10.00">EthernetLink</text>
</a>
</g>
</g>
<!-- TsnTestNetwork&#45;&gt;EthernetLink -->
<g id="edge2" class="edge">
<title>TsnTestNetwork&#45;&gt;EthernetLink</title>
<path fill="none" stroke="black" d="M185,-54.75C185,-47.8 185,-37.85 185,-29.13"/>
<polygon fill="black" stroke="black" points="188.5,-29.09 185,-19.09 181.5,-29.09 188.5,-29.09"/>
</g>
<!-- Histogram -->
<g id="node4" class="node">
<title>Histogram</title>
<g id="a_node4"><a xlink:href="d6g.distribution.histogram.Histogram.html" xlink:title="Simple Module Histogram" target="_parent">
<polygon fill="#fffcaf" stroke="black" points="310,-19 242,-19 242,0 310,0 310,-19"/>
<text text-anchor="middle" x="276" y="-7" font-family="Helvetica,sans-Serif" font-size="10.00">Histogram</text>
</a>
</g>
</g>
<!-- TsnTestNetwork&#45;&gt;Histogram -->
<g id="edge3" class="edge">
<title>TsnTestNetwork&#45;&gt;Histogram</title>
<path fill="none" stroke="black" d="M199.62,-54.98C213.86,-46.69 235.75,-33.94 252.45,-24.22"/>
<polygon fill="black" stroke="black" points="254.23,-27.23 261.11,-19.17 250.71,-21.18 254.23,-27.23"/>
</g>
</g>
</svg>
