<?xml version="1.0" encoding="UTF-8" standalone="no"?>
<!DOCTYPE svg PUBLIC "-//W3C//DTD SVG 1.1//EN"
 "http://www.w3.org/Graphics/SVG/1.1/DTD/svg11.dtd">
<!-- Generated by graphviz version 2.43.0 (0)
 -->
<!-- Title: opp Pages: 1 -->
<svg width="338pt" height="82pt"
 viewBox="0.00 0.00 338.00 82.00" xmlns="http://www.w3.org/2000/svg" xmlns:xlink="http://www.w3.org/1999/xlink">
<g id="graph0" class="graph" transform="scale(1 1) rotate(0) translate(4 78)">
<title>opp</title>
<polygon fill="transparent" stroke="transparent" points="-4,4 -4,-78 334,-78 334,4 -4,4"/>
<!-- BridgingLayerWithPairwiseDelay -->
<g id="node1" class="node">
<title>BridgingLayerWithPairwiseDelay</title>
<g id="a_node1"><a xlink:href="d6g.pairwise.BridgingLayerWithPairwiseDelay.html" xlink:title="Compound Module BridgingLayerWithPairwiseDelay" target="_parent">
<polygon fill="#fff700" stroke="black" points="232,-74 56,-74 56,-55 232,-55 232,-74"/>
<text text-anchor="middle" x="144" y="-62" font-family="Helvetica,sans-Serif" font-size="10.00">BridgingLayerWithPairwiseDelay</text>
</a>
</g>
</g>
<!-- IProtocolLayer -->
<g id="node2" class="node">
<title>IProtocolLayer</title>
<g id="a_node2"><a xlink:href="../../../inet/doc/neddoc/inet.protocolelement.contract.IProtocolLayer.html" xlink:title="Module Interface IProtocolLayer" target="_parent">
<polygon fill="#fffcaf" stroke="black" stroke-dasharray="5,2" points="86,-19 0,-19 0,0 86,0 86,-19"/>
<text text-anchor="middle" x="43" y="-7" font-family="Helvetica,sans-Serif" font-size="10.00">IProtocolLayer</text>
</a>
</g>
</g>
<!-- BridgingLayerWithPairwiseDelay&#45;&gt;IProtocolLayer -->
<g id="edge1" class="edge">
<title>BridgingLayerWithPairwiseDelay&#45;&gt;IProtocolLayer</title>
<path fill="none" stroke="black" d="M127.77,-54.98C111.82,-46.61 87.22,-33.7 68.62,-23.95"/>
<polygon fill="black" stroke="black" points="70,-20.72 59.52,-19.17 66.75,-26.92 70,-20.72"/>
</g>
<!-- IdealChannel -->
<g id="node3" class="node">
<title>IdealChannel</title>
<g id="a_node3"><a xlink:href="ned.IdealChannel.html" xlink:title="Channel IdealChannel" target="_parent">
<polygon fill="#d0ffd0" stroke="black" points="184,-19 104,-19 104,0 184,0 184,-19"/>
<text text-anchor="middle" x="144" y="-7" font-family="Helvetica,sans-Serif" font-size="10.00">IdealChannel</text>
</a>
</g>
</g>
<!-- BridgingLayerWithPairwiseDelay&#45;&gt;IdealChannel -->
<g id="edge2" class="edge">
<title>BridgingLayerWithPairwiseDelay&#45;&gt;IdealChannel</title>
<path fill="none" stroke="black" d="M144,-54.75C144,-47.8 144,-37.85 144,-29.13"/>
<polygon fill="black" stroke="black" points="147.5,-29.09 144,-19.09 140.5,-29.09 147.5,-29.09"/>
</g>
<!-- IProcessingDelayLayer -->
<g id="node4" class="node">
<title>IProcessingDelayLayer</title>
<g id="a_node4"><a xlink:href="../../../inet/doc/neddoc/inet.protocolelement.processing.IProcessingDelayLayer.html" xlink:title="Module Interface IProcessingDelayLayer" target="_parent">
<polygon fill="#fffcaf" stroke="black" stroke-dasharray="5,2" points="330,-19 202,-19 202,0 330,0 330,-19"/>
<text text-anchor="middle" x="266" y="-7" font-family="Helvetica,sans-Serif" font-size="10.00">IProcessingDelayLayer</text>
</a>
</g>
</g>
<!-- BridgingLayerWithPairwiseDelay&#45;&gt;IProcessingDelayLayer -->
<g id="edge3" class="edge">
<title>BridgingLayerWithPairwiseDelay&#45;&gt;IProcessingDelayLayer</title>
<path fill="none" stroke="black" d="M163.6,-54.98C183.32,-46.42 213.95,-33.11 236.58,-23.28"/>
<polygon fill="black" stroke="black" points="238.26,-26.37 246.04,-19.17 235.48,-19.94 238.26,-26.37"/>
</g>
</g>
</svg>
