<?xml version="1.0" encoding="UTF-8" standalone="no"?>
<!DOCTYPE svg PUBLIC "-//W3C//DTD SVG 1.1//EN"
 "http://www.w3.org/Graphics/SVG/1.1/DTD/svg11.dtd">
<!-- Generated by graphviz version 2.43.0 (0)
 -->
<!-- Title: opp Pages: 1 -->
<svg width="619pt" height="82pt"
 viewBox="0.00 0.00 619.00 82.00" xmlns="http://www.w3.org/2000/svg" xmlns:xlink="http://www.w3.org/1999/xlink">
<g id="graph0" class="graph" transform="scale(1 1) rotate(0) translate(4 78)">
<title>opp</title>
<polygon fill="transparent" stroke="transparent" points="-4,4 -4,-78 615,-78 615,4 -4,4"/>
<!-- EdgeCloudNetwork -->
<g id="node1" class="node">
<title>EdgeCloudNetwork</title>
<g id="a_node1"><a xlink:href="d6g.simulations.edgecloud.EdgeCloudNetwork.html" xlink:title="Network EdgeCloudNetwork" target="_parent">
<polygon fill="#9090ff" stroke="black" points="366,-74 256,-74 256,-55 366,-55 366,-74"/>
<text text-anchor="middle" x="311" y="-62" font-family="Helvetica,sans-Serif" font-size="10.00">EdgeCloudNetwork</text>
</a>
</g>
</g>
<!-- Histogram -->
<g id="node2" class="node">
<title>Histogram</title>
<g id="a_node2"><a xlink:href="d6g.distribution.histogram.Histogram.html" xlink:title="Simple Module Histogram" target="_parent">
<polygon fill="#fffcaf" stroke="black" points="68,-19 0,-19 0,0 68,0 68,-19"/>
<text text-anchor="middle" x="34" y="-7" font-family="Helvetica,sans-Serif" font-size="10.00">Histogram</text>
</a>
</g>
</g>
<!-- EdgeCloudNetwork&#45;&gt;Histogram -->
<g id="edge1" class="edge">
<title>EdgeCloudNetwork&#45;&gt;Histogram</title>
<path fill="none" stroke="black" d="M265.69,-54.98C220.65,-46.5 149.33,-33 78.28,-19.24"/>
<polygon fill="black" stroke="black" points="78.75,-15.76 68.26,-17.3 77.41,-22.64 78.75,-15.76"/>
</g>
<!-- TsnSwitch -->
<g id="node3" class="node">
<title>TsnSwitch</title>
<g id="a_node3"><a xlink:href="../../../inet/doc/neddoc/inet.node.tsn.TsnSwitch.html" xlink:title="Compound Module TsnSwitch" target="_parent">
<polygon fill="#fffcaf" stroke="black" points="151.5,-19 86.5,-19 86.5,0 151.5,0 151.5,-19"/>
<text text-anchor="middle" x="119" y="-7" font-family="Helvetica,sans-Serif" font-size="10.00">TsnSwitch</text>
</a>
</g>
</g>
<!-- EdgeCloudNetwork&#45;&gt;TsnSwitch -->
<g id="edge2" class="edge">
<title>EdgeCloudNetwork&#45;&gt;TsnSwitch</title>
<path fill="none" stroke="black" d="M280.15,-54.98C247.5,-45.97 195.8,-31.7 159.8,-21.76"/>
<polygon fill="black" stroke="black" points="160.66,-18.37 150.09,-19.08 158.8,-25.12 160.66,-18.37"/>
</g>
<!-- DetComAdapter -->
<g id="node4" class="node">
<title>DetComAdapter</title>
<g id="a_node4"><a xlink:href="d6g.devices.sixg.DetComAdapter.html" xlink:title="Compound Module DetComAdapter" target="_parent">
<polygon fill="#fffcaf" stroke="black" points="264.5,-19 169.5,-19 169.5,0 264.5,0 264.5,-19"/>
<text text-anchor="middle" x="217" y="-7" font-family="Helvetica,sans-Serif" font-size="10.00">DetComAdapter</text>
</a>
</g>
</g>
<!-- EdgeCloudNetwork&#45;&gt;DetComAdapter -->
<g id="edge3" class="edge">
<title>EdgeCloudNetwork&#45;&gt;DetComAdapter</title>
<path fill="none" stroke="black" d="M295.9,-54.98C281.18,-46.69 258.58,-33.94 241.33,-24.22"/>
<polygon fill="black" stroke="black" points="242.81,-21.03 232.38,-19.17 239.37,-27.13 242.81,-21.03"/>
</g>
<!-- DetCom -->
<g id="node5" class="node">
<title>DetCom</title>
<g id="a_node5"><a xlink:href="d6g.devices.sixg.DetCom.html" xlink:title="Compound Module DetCom" target="_parent">
<polygon fill="#fffcaf" stroke="black" points="339,-19 283,-19 283,0 339,0 339,-19"/>
<text text-anchor="middle" x="311" y="-7" font-family="Helvetica,sans-Serif" font-size="10.00">DetCom</text>
</a>
</g>
</g>
<!-- EdgeCloudNetwork&#45;&gt;DetCom -->
<g id="edge4" class="edge">
<title>EdgeCloudNetwork&#45;&gt;DetCom</title>
<path fill="none" stroke="black" d="M311,-54.75C311,-47.8 311,-37.85 311,-29.13"/>
<polygon fill="black" stroke="black" points="314.5,-29.09 311,-19.09 307.5,-29.09 314.5,-29.09"/>
</g>
<!-- TsnDevice -->
<g id="node6" class="node">
<title>TsnDevice</title>
<g id="a_node6"><a xlink:href="../../../inet/doc/neddoc/inet.node.tsn.TsnDevice.html" xlink:title="Compound Module TsnDevice" target="_parent">
<polygon fill="#fffcaf" stroke="black" points="423,-19 357,-19 357,0 423,0 423,-19"/>
<text text-anchor="middle" x="390" y="-7" font-family="Helvetica,sans-Serif" font-size="10.00">TsnDevice</text>
</a>
</g>
</g>
<!-- EdgeCloudNetwork&#45;&gt;TsnDevice -->
<g id="edge5" class="edge">
<title>EdgeCloudNetwork&#45;&gt;TsnDevice</title>
<path fill="none" stroke="black" d="M323.69,-54.98C335.83,-46.84 354.36,-34.41 368.75,-24.76"/>
<polygon fill="black" stroke="black" points="370.72,-27.65 377.08,-19.17 366.82,-21.84 370.72,-27.65"/>
</g>
<!-- EthernetLink -->
<g id="node7" class="node">
<title>EthernetLink</title>
<g id="a_node7"><a xlink:href="../../../inet/doc/neddoc/inet.node.ethernet.EthernetLink.html" xlink:title="Channel EthernetLink" target="_parent">
<polygon fill="#d0ffd0" stroke="black" points="519,-19 441,-19 441,0 519,0 519,-19"/>
<text text-anchor="middle" x="480" y="-7" font-family="Helvetica,sans-Serif" font-size="10.00">EthernetLink</text>
</a>
</g>
</g>
<!-- EdgeCloudNetwork&#45;&gt;EthernetLink -->
<g id="edge6" class="edge">
<title>EdgeCloudNetwork&#45;&gt;EthernetLink</title>
<path fill="none" stroke="black" d="M338.15,-54.98C366.53,-46.09 411.23,-32.07 442.86,-22.15"/>
<polygon fill="black" stroke="black" points="444.14,-25.41 452.63,-19.08 442.05,-18.73 444.14,-25.41"/>
</g>
<!-- NNIChannel -->
<g id="node8" class="node">
<title>NNIChannel</title>
<g id="a_node8"><a xlink:href="d6g.devices.sixg.NNIChannel.html" xlink:title="Channel NNIChannel" target="_parent">
<polygon fill="#d0ffd0" stroke="black" points="611,-19 537,-19 537,0 611,0 611,-19"/>
<text text-anchor="middle" x="574" y="-7" font-family="Helvetica,sans-Serif" font-size="10.00">NNIChannel</text>
</a>
</g>
</g>
<!-- EdgeCloudNetwork&#45;&gt;NNIChannel -->
<g id="edge7" class="edge">
<title>EdgeCloudNetwork&#45;&gt;NNIChannel</title>
<path fill="none" stroke="black" d="M353.26,-54.98C400.7,-45.42 477.5,-29.95 526.85,-20"/>
<polygon fill="black" stroke="black" points="527.84,-23.37 536.95,-17.97 526.46,-16.51 527.84,-23.37"/>
</g>
</g>
</svg>
