<?xml version="1.0" encoding="UTF-8" standalone="no"?>
<!DOCTYPE svg PUBLIC "-//W3C//DTD SVG 1.1//EN"
 "http://www.w3.org/Graphics/SVG/1.1/DTD/svg11.dtd">
<!-- Generated by graphviz version 2.43.0 (0)
 -->
<!-- Title: opp Pages: 1 -->
<svg width="430pt" height="82pt"
 viewBox="0.00 0.00 430.00 82.00" xmlns="http://www.w3.org/2000/svg" xmlns:xlink="http://www.w3.org/1999/xlink">
<g id="graph0" class="graph" transform="scale(1 1) rotate(0) translate(4 78)">
<title>opp</title>
<polygon fill="transparent" stroke="transparent" points="-4,4 -4,-78 426,-78 426,4 -4,4"/>
<!-- CooperativeManufacturing -->
<g id="node1" class="node">
<title>CooperativeManufacturing</title>
<g id="a_node1"><a xlink:href="d6g.simulations.cooperativemanufacturing.CooperativeManufacturing.html" xlink:title="Network CooperativeManufacturing" target="_parent">
<polygon fill="#9090ff" stroke="black" points="279,-74 133,-74 133,-55 279,-55 279,-74"/>
<text text-anchor="middle" x="206" y="-62" font-family="Helvetica,sans-Serif" font-size="10.00">CooperativeManufacturing</text>
</a>
</g>
</g>
<!-- ProcessingCell -->
<g id="node2" class="node">
<title>ProcessingCell</title>
<g id="a_node2"><a xlink:href="d6g.simulations.cooperativemanufacturing.ProcessingCell.html" xlink:title="Compound Module ProcessingCell" target="_parent">
<polygon fill="#fffcaf" stroke="black" points="88,-19 0,-19 0,0 88,0 88,-19"/>
<text text-anchor="middle" x="44" y="-7" font-family="Helvetica,sans-Serif" font-size="10.00">ProcessingCell</text>
</a>
</g>
</g>
<!-- CooperativeManufacturing&#45;&gt;ProcessingCell -->
<g id="edge1" class="edge">
<title>CooperativeManufacturing&#45;&gt;ProcessingCell</title>
<path fill="none" stroke="black" d="M179.97,-54.98C152.89,-46.13 110.29,-32.19 79.99,-22.28"/>
<polygon fill="black" stroke="black" points="80.82,-18.87 70.23,-19.08 78.65,-25.52 80.82,-18.87"/>
</g>
<!-- AGV -->
<g id="node3" class="node">
<title>AGV</title>
<g id="a_node3"><a xlink:href="d6g.simulations.cooperativemanufacturing.AGV.html" xlink:title="Compound Module AGV" target="_parent">
<polygon fill="#fffcaf" stroke="black" points="160,-19 106,-19 106,0 160,0 160,-19"/>
<text text-anchor="middle" x="133" y="-7" font-family="Helvetica,sans-Serif" font-size="10.00">AGV</text>
</a>
</g>
</g>
<!-- CooperativeManufacturing&#45;&gt;AGV -->
<g id="edge2" class="edge">
<title>CooperativeManufacturing&#45;&gt;AGV</title>
<path fill="none" stroke="black" d="M194.27,-54.98C183.27,-47 166.58,-34.88 153.4,-25.31"/>
<polygon fill="black" stroke="black" points="155.09,-22.21 144.94,-19.17 150.98,-27.88 155.09,-22.21"/>
</g>
<!-- DetCom -->
<g id="node4" class="node">
<title>DetCom</title>
<g id="a_node4"><a xlink:href="d6g.devices.sixg.DetCom.html" xlink:title="Compound Module DetCom" target="_parent">
<polygon fill="#fffcaf" stroke="black" points="234,-19 178,-19 178,0 234,0 234,-19"/>
<text text-anchor="middle" x="206" y="-7" font-family="Helvetica,sans-Serif" font-size="10.00">DetCom</text>
</a>
</g>
</g>
<!-- CooperativeManufacturing&#45;&gt;DetCom -->
<g id="edge3" class="edge">
<title>CooperativeManufacturing&#45;&gt;DetCom</title>
<path fill="none" stroke="black" d="M206,-54.75C206,-47.8 206,-37.85 206,-29.13"/>
<polygon fill="black" stroke="black" points="209.5,-29.09 206,-19.09 202.5,-29.09 209.5,-29.09"/>
</g>
<!-- EthernetLink -->
<g id="node5" class="node">
<title>EthernetLink</title>
<g id="a_node5"><a xlink:href="../../../inet/doc/neddoc/inet.node.ethernet.EthernetLink.html" xlink:title="Channel EthernetLink" target="_parent">
<polygon fill="#d0ffd0" stroke="black" points="330,-19 252,-19 252,0 330,0 330,-19"/>
<text text-anchor="middle" x="291" y="-7" font-family="Helvetica,sans-Serif" font-size="10.00">EthernetLink</text>
</a>
</g>
</g>
<!-- CooperativeManufacturing&#45;&gt;EthernetLink -->
<g id="edge4" class="edge">
<title>CooperativeManufacturing&#45;&gt;EthernetLink</title>
<path fill="none" stroke="black" d="M219.66,-54.98C232.84,-46.77 253.03,-34.18 268.57,-24.49"/>
<polygon fill="black" stroke="black" points="270.46,-27.43 277.09,-19.17 266.76,-21.49 270.46,-27.43"/>
</g>
<!-- NNIChannel -->
<g id="node6" class="node">
<title>NNIChannel</title>
<g id="a_node6"><a xlink:href="d6g.devices.sixg.NNIChannel.html" xlink:title="Channel NNIChannel" target="_parent">
<polygon fill="#d0ffd0" stroke="black" points="422,-19 348,-19 348,0 422,0 422,-19"/>
<text text-anchor="middle" x="385" y="-7" font-family="Helvetica,sans-Serif" font-size="10.00">NNIChannel</text>
</a>
</g>
</g>
<!-- CooperativeManufacturing&#45;&gt;NNIChannel -->
<g id="edge5" class="edge">
<title>CooperativeManufacturing&#45;&gt;NNIChannel</title>
<path fill="none" stroke="black" d="M234.76,-54.98C264.94,-46.05 312.57,-31.94 346.1,-22.02"/>
<polygon fill="black" stroke="black" points="347.42,-25.28 356.02,-19.08 345.43,-18.57 347.42,-25.28"/>
</g>
</g>
</svg>
