<?xml version="1.0" encoding="UTF-8" standalone="no"?>
<!DOCTYPE svg PUBLIC "-//W3C//DTD SVG 1.1//EN"
 "http://www.w3.org/Graphics/SVG/1.1/DTD/svg11.dtd">
<!-- Generated by graphviz version 2.43.0 (0)
 -->
<!-- Title: opp Pages: 1 -->
<svg width="360pt" height="137pt"
 viewBox="0.00 0.00 359.50 137.00" xmlns="http://www.w3.org/2000/svg" xmlns:xlink="http://www.w3.org/1999/xlink">
<g id="graph0" class="graph" transform="scale(1 1) rotate(0) translate(4 133)">
<title>opp</title>
<polygon fill="transparent" stroke="transparent" points="-4,4 -4,-133 355.5,-133 355.5,4 -4,4"/>
<!-- DetComNetworkBase -->
<g id="node1" class="node">
<title>DetComNetworkBase</title>
<g id="a_node1"><a xlink:href="d6g.networks.DetComNetworkBase.html" xlink:title="Network DetComNetworkBase" target="_parent">
<polygon fill="#9090ff" stroke="black" points="211.5,-74 89.5,-74 89.5,-55 211.5,-55 211.5,-74"/>
<text text-anchor="middle" x="150.5" y="-62" font-family="Helvetica,sans-Serif" font-size="10.00">DetComNetworkBase</text>
</a>
</g>
</g>
<!-- Baseline -->
<g id="node3" class="node">
<title>Baseline</title>
<g id="a_node3"><a xlink:href="d6g.simulations.baseline.Baseline.html" xlink:title="Network Baseline" target="_parent">
<polygon fill="#d0d0ff" stroke="black" points="59,-19 0,-19 0,0 59,0 59,-19"/>
<text text-anchor="middle" x="29.5" y="-7" font-family="Helvetica,sans-Serif" font-size="10.00">Baseline</text>
</a>
</g>
</g>
<!-- DetComNetworkBase&#45;&gt;Baseline -->
<g id="edge2" class="edge">
<title>DetComNetworkBase&#45;&gt;Baseline</title>
<path fill="none" stroke="black" d="M131.06,-54.98C108.61,-45.15 71.89,-29.07 49.29,-19.17"/>
</g>
<!-- CooperativeManufacturing -->
<g id="node4" class="node">
<title>CooperativeManufacturing</title>
<g id="a_node4"><a xlink:href="d6g.simulations.cooperativemanufacturing.CooperativeManufacturing.html" xlink:title="Network CooperativeManufacturing" target="_parent">
<polygon fill="#d0d0ff" stroke="black" points="223.5,-19 77.5,-19 77.5,0 223.5,0 223.5,-19"/>
<text text-anchor="middle" x="150.5" y="-7" font-family="Helvetica,sans-Serif" font-size="10.00">CooperativeManufacturing</text>
</a>
</g>
</g>
<!-- DetComNetworkBase&#45;&gt;CooperativeManufacturing -->
<g id="edge3" class="edge">
<title>DetComNetworkBase&#45;&gt;CooperativeManufacturing</title>
<path fill="none" stroke="black" d="M150.5,-54.75C150.5,-44.87 150.5,-28.9 150.5,-19.09"/>
</g>
<!-- EdgeCloudNetwork -->
<g id="node5" class="node">
<title>EdgeCloudNetwork</title>
<g id="a_node5"><a xlink:href="d6g.simulations.edgecloud.EdgeCloudNetwork.html" xlink:title="Network EdgeCloudNetwork" target="_parent">
<polygon fill="#d0d0ff" stroke="black" points="351.5,-19 241.5,-19 241.5,0 351.5,0 351.5,-19"/>
<text text-anchor="middle" x="296.5" y="-7" font-family="Helvetica,sans-Serif" font-size="10.00">EdgeCloudNetwork</text>
</a>
</g>
</g>
<!-- DetComNetworkBase&#45;&gt;EdgeCloudNetwork -->
<g id="edge4" class="edge">
<title>DetComNetworkBase&#45;&gt;EdgeCloudNetwork</title>
<path fill="none" stroke="black" d="M173.96,-54.98C201.04,-45.15 245.35,-29.07 272.62,-19.17"/>
</g>
<!-- TsnNetworkBase -->
<g id="node2" class="node">
<title>TsnNetworkBase</title>
<g id="a_node2"><a xlink:href="../../../inet/doc/neddoc/inet.networks.base.TsnNetworkBase.html" xlink:title="Network TsnNetworkBase" target="_parent">
<polygon fill="#d0d0ff" stroke="black" points="199.5,-129 101.5,-129 101.5,-110 199.5,-110 199.5,-129"/>
<text text-anchor="middle" x="150.5" y="-117" font-family="Helvetica,sans-Serif" font-size="10.00">TsnNetworkBase</text>
</a>
</g>
</g>
<!-- TsnNetworkBase&#45;&gt;DetComNetworkBase -->
<g id="edge1" class="edge">
<title>TsnNetworkBase&#45;&gt;DetComNetworkBase</title>
<path fill="none" stroke="black" d="M150.5,-109.75C150.5,-99.87 150.5,-83.9 150.5,-74.09"/>
</g>
</g>
</svg>
