<?xml version="1.0" encoding="UTF-8" standalone="no"?>
<!DOCTYPE svg PUBLIC "-//W3C//DTD SVG 1.1//EN"
 "http://www.w3.org/Graphics/SVG/1.1/DTD/svg11.dtd">
<!-- Generated by graphviz version 2.43.0 (0)
 -->
<!-- Title: opp Pages: 1 -->
<svg width="312pt" height="137pt"
 viewBox="0.00 0.00 311.50 137.00" xmlns="http://www.w3.org/2000/svg" xmlns:xlink="http://www.w3.org/1999/xlink">
<g id="graph0" class="graph" transform="scale(1 1) rotate(0) translate(4 133)">
<title>opp</title>
<polygon fill="transparent" stroke="transparent" points="-4,4 -4,-133 307.5,-133 307.5,4 -4,4"/>
<!-- DetComAdapter -->
<g id="node1" class="node">
<title>DetComAdapter</title>
<g id="a_node1"><a xlink:href="d6g.devices.sixg.DetComAdapter.html" xlink:title="Compound Module DetComAdapter" target="_parent">
<polygon fill="#fff700" stroke="black" points="180,-74 85,-74 85,-55 180,-55 180,-74"/>
<text text-anchor="middle" x="132.5" y="-62" font-family="Helvetica,sans-Serif" font-size="10.00">DetComAdapter</text>
</a>
</g>
</g>
<!-- IEthernetInterface -->
<g id="node2" class="node">
<title>IEthernetInterface</title>
<g id="a_node2"><a xlink:href="../../../inet/doc/neddoc/inet.linklayer.contract.IEthernetInterface.html" xlink:title="Module Interface IEthernetInterface" target="_parent">
<polygon fill="#fffcaf" stroke="black" stroke-dasharray="5,2" points="184.5,-19 80.5,-19 80.5,0 184.5,0 184.5,-19"/>
<text text-anchor="middle" x="132.5" y="-7" font-family="Helvetica,sans-Serif" font-size="10.00">IEthernetInterface</text>
</a>
</g>
</g>
<!-- DetComAdapter&#45;&gt;IEthernetInterface -->
<g id="edge1" class="edge">
<title>DetComAdapter&#45;&gt;IEthernetInterface</title>
<path fill="none" stroke="black" d="M132.5,-54.75C132.5,-47.8 132.5,-37.85 132.5,-29.13"/>
<polygon fill="black" stroke="black" points="136,-29.09 132.5,-19.09 129,-29.09 136,-29.09"/>
</g>
<!-- Baseline -->
<g id="node3" class="node">
<title>Baseline</title>
<g id="a_node3"><a xlink:href="d6g.simulations.baseline.Baseline.html" xlink:title="Network Baseline" target="_parent">
<polygon fill="#d0d0ff" stroke="black" points="59,-129 0,-129 0,-110 59,-110 59,-129"/>
<text text-anchor="middle" x="29.5" y="-117" font-family="Helvetica,sans-Serif" font-size="10.00">Baseline</text>
</a>
</g>
</g>
<!-- Baseline&#45;&gt;DetComAdapter -->
<g id="edge2" class="edge">
<title>Baseline&#45;&gt;DetComAdapter</title>
<path fill="none" stroke="black" d="M46.05,-109.98C62.39,-101.57 87.63,-88.59 106.63,-78.81"/>
<polygon fill="black" stroke="black" points="108.36,-81.86 115.65,-74.17 105.16,-75.63 108.36,-81.86"/>
</g>
<!-- EdgeCloudNetwork -->
<g id="node4" class="node">
<title>EdgeCloudNetwork</title>
<g id="a_node4"><a xlink:href="d6g.simulations.edgecloud.EdgeCloudNetwork.html" xlink:title="Network EdgeCloudNetwork" target="_parent">
<polygon fill="#d0d0ff" stroke="black" points="187.5,-129 77.5,-129 77.5,-110 187.5,-110 187.5,-129"/>
<text text-anchor="middle" x="132.5" y="-117" font-family="Helvetica,sans-Serif" font-size="10.00">EdgeCloudNetwork</text>
</a>
</g>
</g>
<!-- EdgeCloudNetwork&#45;&gt;DetComAdapter -->
<g id="edge3" class="edge">
<title>EdgeCloudNetwork&#45;&gt;DetComAdapter</title>
<path fill="none" stroke="black" d="M132.5,-109.75C132.5,-102.8 132.5,-92.85 132.5,-84.13"/>
<polygon fill="black" stroke="black" points="136,-84.09 132.5,-74.09 129,-84.09 136,-84.09"/>
</g>
<!-- UnitWithAdapter -->
<g id="node5" class="node">
<title>UnitWithAdapter</title>
<g id="a_node5"><a xlink:href="d6g.devices.sixg.UnitWithAdapter.html" xlink:title="Compound Module UnitWithAdapter" target="_parent">
<polygon fill="#fffcaf" stroke="black" points="303.5,-129 205.5,-129 205.5,-110 303.5,-110 303.5,-129"/>
<text text-anchor="middle" x="254.5" y="-117" font-family="Helvetica,sans-Serif" font-size="10.00">UnitWithAdapter</text>
</a>
</g>
</g>
<!-- UnitWithAdapter&#45;&gt;DetComAdapter -->
<g id="edge4" class="edge">
<title>UnitWithAdapter&#45;&gt;DetComAdapter</title>
<path fill="none" stroke="black" d="M234.9,-109.98C215.18,-101.42 184.55,-88.11 161.92,-78.28"/>
<polygon fill="black" stroke="black" points="163.02,-74.94 152.46,-74.17 160.24,-81.37 163.02,-74.94"/>
</g>
</g>
</svg>
