<?xml version="1.0" encoding="UTF-8" standalone="no"?>
<!DOCTYPE svg PUBLIC "-//W3C//DTD SVG 1.1//EN"
 "http://www.w3.org/Graphics/SVG/1.1/DTD/svg11.dtd">
<!-- Generated by graphviz version 2.43.0 (0)
 -->
<!-- Title: opp Pages: 1 -->
<svg width="533pt" height="82pt"
 viewBox="0.00 0.00 532.50 82.00" xmlns="http://www.w3.org/2000/svg" xmlns:xlink="http://www.w3.org/1999/xlink">
<g id="graph0" class="graph" transform="scale(1 1) rotate(0) translate(4 78)">
<title>opp</title>
<polygon fill="transparent" stroke="transparent" points="-4,4 -4,-78 528.5,-78 528.5,4 -4,4"/>
<!-- Baseline -->
<g id="node1" class="node">
<title>Baseline</title>
<g id="a_node1"><a xlink:href="d6g.simulations.baseline.Baseline.html" xlink:title="Network Baseline" target="_parent">
<polygon fill="#9090ff" stroke="black" points="293,-74 234,-74 234,-55 293,-55 293,-74"/>
<text text-anchor="middle" x="263.5" y="-62" font-family="Helvetica,sans-Serif" font-size="10.00">Baseline</text>
</a>
</g>
</g>
<!-- TsnSwitch -->
<g id="node2" class="node">
<title>TsnSwitch</title>
<g id="a_node2"><a xlink:href="../../../inet/doc/neddoc/inet.node.tsn.TsnSwitch.html" xlink:title="Compound Module TsnSwitch" target="_parent">
<polygon fill="#fffcaf" stroke="black" points="65,-19 0,-19 0,0 65,0 65,-19"/>
<text text-anchor="middle" x="32.5" y="-7" font-family="Helvetica,sans-Serif" font-size="10.00">TsnSwitch</text>
</a>
</g>
</g>
<!-- Baseline&#45;&gt;TsnSwitch -->
<g id="edge1" class="edge">
<title>Baseline&#45;&gt;TsnSwitch</title>
<path fill="none" stroke="black" d="M233.77,-56.68C193.44,-47.43 121.15,-30.84 75.07,-20.27"/>
<polygon fill="black" stroke="black" points="75.62,-16.8 65.09,-17.98 74.05,-23.62 75.62,-16.8"/>
</g>
<!-- DetComAdapter -->
<g id="node3" class="node">
<title>DetComAdapter</title>
<g id="a_node3"><a xlink:href="d6g.devices.sixg.DetComAdapter.html" xlink:title="Compound Module DetComAdapter" target="_parent">
<polygon fill="#fffcaf" stroke="black" points="178,-19 83,-19 83,0 178,0 178,-19"/>
<text text-anchor="middle" x="130.5" y="-7" font-family="Helvetica,sans-Serif" font-size="10.00">DetComAdapter</text>
</a>
</g>
</g>
<!-- Baseline&#45;&gt;DetComAdapter -->
<g id="edge2" class="edge">
<title>Baseline&#45;&gt;DetComAdapter</title>
<path fill="none" stroke="black" d="M242.13,-54.98C220.35,-46.3 186.34,-32.75 161.58,-22.88"/>
<polygon fill="black" stroke="black" points="162.84,-19.62 152.26,-19.17 160.25,-26.12 162.84,-19.62"/>
</g>
<!-- DetCom -->
<g id="node4" class="node">
<title>DetCom</title>
<g id="a_node4"><a xlink:href="d6g.devices.sixg.DetCom.html" xlink:title="Compound Module DetCom" target="_parent">
<polygon fill="#fffcaf" stroke="black" points="252.5,-19 196.5,-19 196.5,0 252.5,0 252.5,-19"/>
<text text-anchor="middle" x="224.5" y="-7" font-family="Helvetica,sans-Serif" font-size="10.00">DetCom</text>
</a>
</g>
</g>
<!-- Baseline&#45;&gt;DetCom -->
<g id="edge3" class="edge">
<title>Baseline&#45;&gt;DetCom</title>
<path fill="none" stroke="black" d="M257.06,-54.75C251.61,-47.34 243.64,-36.5 236.94,-27.41"/>
<polygon fill="black" stroke="black" points="239.57,-25.07 230.82,-19.09 233.93,-29.22 239.57,-25.07"/>
</g>
<!-- TsnDevice -->
<g id="node5" class="node">
<title>TsnDevice</title>
<g id="a_node5"><a xlink:href="../../../inet/doc/neddoc/inet.node.tsn.TsnDevice.html" xlink:title="Compound Module TsnDevice" target="_parent">
<polygon fill="#fffcaf" stroke="black" points="336.5,-19 270.5,-19 270.5,0 336.5,0 336.5,-19"/>
<text text-anchor="middle" x="303.5" y="-7" font-family="Helvetica,sans-Serif" font-size="10.00">TsnDevice</text>
</a>
</g>
</g>
<!-- Baseline&#45;&gt;TsnDevice -->
<g id="edge4" class="edge">
<title>Baseline&#45;&gt;TsnDevice</title>
<path fill="none" stroke="black" d="M270.11,-54.75C275.76,-47.26 284.04,-36.28 290.95,-27.13"/>
<polygon fill="black" stroke="black" points="293.79,-29.18 297.02,-19.09 288.2,-24.96 293.79,-29.18"/>
</g>
<!-- EthernetLink -->
<g id="node6" class="node">
<title>EthernetLink</title>
<g id="a_node6"><a xlink:href="../../../inet/doc/neddoc/inet.node.ethernet.EthernetLink.html" xlink:title="Channel EthernetLink" target="_parent">
<polygon fill="#d0ffd0" stroke="black" points="432.5,-19 354.5,-19 354.5,0 432.5,0 432.5,-19"/>
<text text-anchor="middle" x="393.5" y="-7" font-family="Helvetica,sans-Serif" font-size="10.00">EthernetLink</text>
</a>
</g>
</g>
<!-- Baseline&#45;&gt;EthernetLink -->
<g id="edge5" class="edge">
<title>Baseline&#45;&gt;EthernetLink</title>
<path fill="none" stroke="black" d="M284.39,-54.98C305.58,-46.34 338.63,-32.87 362.8,-23.02"/>
<polygon fill="black" stroke="black" points="364.29,-26.19 372.23,-19.17 361.65,-19.7 364.29,-26.19"/>
</g>
<!-- NNIChannel -->
<g id="node7" class="node">
<title>NNIChannel</title>
<g id="a_node7"><a xlink:href="d6g.devices.sixg.NNIChannel.html" xlink:title="Channel NNIChannel" target="_parent">
<polygon fill="#d0ffd0" stroke="black" points="524.5,-19 450.5,-19 450.5,0 524.5,0 524.5,-19"/>
<text text-anchor="middle" x="487.5" y="-7" font-family="Helvetica,sans-Serif" font-size="10.00">NNIChannel</text>
</a>
</g>
</g>
<!-- Baseline&#45;&gt;NNIChannel -->
<g id="edge6" class="edge">
<title>Baseline&#45;&gt;NNIChannel</title>
<path fill="none" stroke="black" d="M293.25,-56.46C331.12,-47.5 396.95,-31.93 441.36,-21.42"/>
<polygon fill="black" stroke="black" points="442.4,-24.77 451.32,-19.06 440.78,-17.96 442.4,-24.77"/>
</g>
</g>
</svg>
