<?xml version="1.0" encoding="UTF-8" standalone="no"?>
<!DOCTYPE svg PUBLIC "-//W3C//DTD SVG 1.1//EN"
 "http://www.w3.org/Graphics/SVG/1.1/DTD/svg11.dtd">
<!-- Generated by graphviz version 2.43.0 (0)
 -->
<!-- Title: opp Pages: 1 -->
<svg width="318pt" height="82pt"
 viewBox="0.00 0.00 318.00 82.00" xmlns="http://www.w3.org/2000/svg" xmlns:xlink="http://www.w3.org/1999/xlink">
<g id="graph0" class="graph" transform="scale(1 1) rotate(0) translate(4 78)">
<title>opp</title>
<polygon fill="transparent" stroke="transparent" points="-4,4 -4,-78 314,-78 314,4 -4,4"/>
<!-- TsnTestNetwork -->
<g id="node1" class="node">
<title>TsnTestNetwork</title>
<g id="a_node1"><a xlink:href="d6g.simulations.TsnTestNetwork.html" xlink:title="Network TsnTestNetwork" target="_parent">
<polygon fill="#9090ff" stroke="black" points="196.5,-74 103.5,-74 103.5,-55 196.5,-55 196.5,-74"/>
<text text-anchor="middle" x="150" y="-62" font-family="Helvetica,sans-Serif" font-size="10.00">TsnTestNetwork</text>
</a>
</g>
</g>
<!-- Histogram -->
<g id="node2" class="node">
<title>Histogram</title>
<g id="a_node2"><a xlink:href="d6g.distribution.histogram.Histogram.html" xlink:title="Simple Module Histogram" target="_parent">
<polygon fill="#fffcaf" stroke="black" points="68,-19 0,-19 0,0 68,0 68,-19"/>
<text text-anchor="middle" x="34" y="-7" font-family="Helvetica,sans-Serif" font-size="10.00">Histogram</text>
</a>
</g>
</g>
<!-- TsnTestNetwork&#45;&gt;Histogram -->
<g id="edge1" class="edge">
<title>TsnTestNetwork&#45;&gt;Histogram</title>
<path fill="none" stroke="black" d="M131.36,-54.98C112.7,-46.46 83.75,-33.23 62.26,-23.41"/>
<polygon fill="black" stroke="black" points="63.53,-20.14 52.98,-19.17 60.62,-26.51 63.53,-20.14"/>
</g>
<!-- IEthernetNetworkNode -->
<g id="node3" class="node">
<title>IEthernetNetworkNode</title>
<g id="a_node3"><a xlink:href="../../../inet/doc/neddoc/inet.node.contract.IEthernetNetworkNode.html" xlink:title="Module Interface IEthernetNetworkNode" target="_parent">
<polygon fill="#fffcaf" stroke="black" stroke-dasharray="5,2" points="214,-19 86,-19 86,0 214,0 214,-19"/>
<text text-anchor="middle" x="150" y="-7" font-family="Helvetica,sans-Serif" font-size="10.00">IEthernetNetworkNode</text>
</a>
</g>
</g>
<!-- TsnTestNetwork&#45;&gt;IEthernetNetworkNode -->
<g id="edge2" class="edge">
<title>TsnTestNetwork&#45;&gt;IEthernetNetworkNode</title>
<path fill="none" stroke="black" d="M150,-54.75C150,-47.8 150,-37.85 150,-29.13"/>
<polygon fill="black" stroke="black" points="153.5,-29.09 150,-19.09 146.5,-29.09 153.5,-29.09"/>
</g>
<!-- EthernetLink -->
<g id="node4" class="node">
<title>EthernetLink</title>
<g id="a_node4"><a xlink:href="../../../inet/doc/neddoc/inet.node.ethernet.EthernetLink.html" xlink:title="Channel EthernetLink" target="_parent">
<polygon fill="#d0ffd0" stroke="black" points="310,-19 232,-19 232,0 310,0 310,-19"/>
<text text-anchor="middle" x="271" y="-7" font-family="Helvetica,sans-Serif" font-size="10.00">EthernetLink</text>
</a>
</g>
</g>
<!-- TsnTestNetwork&#45;&gt;EthernetLink -->
<g id="edge3" class="edge">
<title>TsnTestNetwork&#45;&gt;EthernetLink</title>
<path fill="none" stroke="black" d="M169.44,-54.98C188.99,-46.42 219.38,-33.11 241.82,-23.28"/>
<polygon fill="black" stroke="black" points="243.45,-26.39 251.21,-19.17 240.64,-19.98 243.45,-26.39"/>
</g>
</g>
</svg>
