<?xml version="1.0" encoding="UTF-8" standalone="no"?>
<!DOCTYPE svg PUBLIC "-//W3C//DTD SVG 1.1//EN"
 "http://www.w3.org/Graphics/SVG/1.1/DTD/svg11.dtd">
<!-- Generated by graphviz version 2.43.0 (0)
 -->
<!-- Title: opp Pages: 1 -->
<svg width="168pt" height="82pt"
 viewBox="0.00 0.00 168.00 82.00" xmlns="http://www.w3.org/2000/svg" xmlns:xlink="http://www.w3.org/1999/xlink">
<g id="graph0" class="graph" transform="scale(1 1) rotate(0) translate(4 78)">
<title>opp</title>
<polygon fill="transparent" stroke="transparent" points="-4,4 -4,-78 164,-78 164,4 -4,4"/>
<!-- UnitWithAdapter -->
<g id="node1" class="node">
<title>UnitWithAdapter</title>
<g id="a_node1"><a xlink:href="d6g.devices.sixg.UnitWithAdapter.html" xlink:title="Compound Module UnitWithAdapter" target="_parent">
<polygon fill="#fff700" stroke="black" points="120,-74 22,-74 22,-55 120,-55 120,-74"/>
<text text-anchor="middle" x="71" y="-62" font-family="Helvetica,sans-Serif" font-size="10.00">UnitWithAdapter</text>
</a>
</g>
</g>
<!-- AGV -->
<g id="node2" class="node">
<title>AGV</title>
<g id="a_node2"><a xlink:href="d6g.simulations.cooperativemanufacturing.AGV.html" xlink:title="Compound Module AGV" target="_parent">
<polygon fill="#fffcaf" stroke="black" points="54,-19 0,-19 0,0 54,0 54,-19"/>
<text text-anchor="middle" x="27" y="-7" font-family="Helvetica,sans-Serif" font-size="10.00">AGV</text>
</a>
</g>
</g>
<!-- UnitWithAdapter&#45;&gt;AGV -->
<g id="edge1" class="edge">
<title>UnitWithAdapter&#45;&gt;AGV</title>
<path fill="none" stroke="black" d="M63.73,-54.75C55.53,-44.87 42.28,-28.9 34.13,-19.09"/>
</g>
<!-- ProcessingCell -->
<g id="node3" class="node">
<title>ProcessingCell</title>
<g id="a_node3"><a xlink:href="d6g.simulations.cooperativemanufacturing.ProcessingCell.html" xlink:title="Compound Module ProcessingCell" target="_parent">
<polygon fill="#fffcaf" stroke="black" points="160,-19 72,-19 72,0 160,0 160,-19"/>
<text text-anchor="middle" x="116" y="-7" font-family="Helvetica,sans-Serif" font-size="10.00">ProcessingCell</text>
</a>
</g>
</g>
<!-- UnitWithAdapter&#45;&gt;ProcessingCell -->
<g id="edge2" class="edge">
<title>UnitWithAdapter&#45;&gt;ProcessingCell</title>
<path fill="none" stroke="black" d="M78.43,-54.75C86.82,-44.87 100.38,-28.9 108.71,-19.09"/>
</g>
</g>
</svg>
