<?xml version="1.0" encoding="UTF-8" standalone="no"?>
<!DOCTYPE svg PUBLIC "-//W3C//DTD SVG 1.1//EN"
 "http://www.w3.org/Graphics/SVG/1.1/DTD/svg11.dtd">
<!-- Generated by graphviz version 2.43.0 (0)
 -->
<!-- Title: opp Pages: 1 -->
<svg width="103pt" height="137pt"
 viewBox="0.00 0.00 103.00 137.00" xmlns="http://www.w3.org/2000/svg" xmlns:xlink="http://www.w3.org/1999/xlink">
<g id="graph0" class="graph" transform="scale(1 1) rotate(0) translate(4 133)">
<title>opp</title>
<polygon fill="transparent" stroke="transparent" points="-4,4 -4,-133 99,-133 99,4 -4,4"/>
<!-- DetComAdapter -->
<g id="node1" class="node">
<title>DetComAdapter</title>
<g id="a_node1"><a xlink:href="d6g.devices.sixg.DetComAdapter.html" xlink:title="Compound Module DetComAdapter" target="_parent">
<polygon fill="#fff700" stroke="black" points="95,-74 0,-74 0,-55 95,-55 95,-74"/>
<text text-anchor="middle" x="47.5" y="-62" font-family="Helvetica,sans-Serif" font-size="10.00">DetComAdapter</text>
</a>
</g>
</g>
<!-- DetCom -->
<g id="node3" class="node">
<title>DetCom</title>
<g id="a_node3"><a xlink:href="d6g.devices.sixg.DetCom.html" xlink:title="Compound Module DetCom" target="_parent">
<polygon fill="#fffcaf" stroke="black" points="75.5,-19 19.5,-19 19.5,0 75.5,0 75.5,-19"/>
<text text-anchor="middle" x="47.5" y="-7" font-family="Helvetica,sans-Serif" font-size="10.00">DetCom</text>
</a>
</g>
</g>
<!-- DetComAdapter&#45;&gt;DetCom -->
<g id="edge2" class="edge">
<title>DetComAdapter&#45;&gt;DetCom</title>
<path fill="none" stroke="black" d="M47.5,-54.75C47.5,-44.87 47.5,-28.9 47.5,-19.09"/>
</g>
<!-- TsnSwitch -->
<g id="node2" class="node">
<title>TsnSwitch</title>
<g id="a_node2"><a xlink:href="../../../inet/doc/neddoc/inet.node.tsn.TsnSwitch.html" xlink:title="Compound Module TsnSwitch" target="_parent">
<polygon fill="#fffcaf" stroke="black" points="80,-129 15,-129 15,-110 80,-110 80,-129"/>
<text text-anchor="middle" x="47.5" y="-117" font-family="Helvetica,sans-Serif" font-size="10.00">TsnSwitch</text>
</a>
</g>
</g>
<!-- TsnSwitch&#45;&gt;DetComAdapter -->
<g id="edge1" class="edge">
<title>TsnSwitch&#45;&gt;DetComAdapter</title>
<path fill="none" stroke="black" d="M47.5,-109.75C47.5,-99.87 47.5,-83.9 47.5,-74.09"/>
</g>
</g>
</svg>
