<?xml version="1.0" encoding="UTF-8" standalone="no"?>
<!DOCTYPE svg PUBLIC "-//W3C//DTD SVG 1.1//EN"
 "http://www.w3.org/Graphics/SVG/1.1/DTD/svg11.dtd">
<!-- Generated by graphviz version 2.43.0 (0)
 -->
<!-- Title: opp Pages: 1 -->
<svg width="533pt" height="82pt"
 viewBox="0.00 0.00 533.00 82.00" xmlns="http://www.w3.org/2000/svg" xmlns:xlink="http://www.w3.org/1999/xlink">
<g id="graph0" class="graph" transform="scale(1 1) rotate(0) translate(4 78)">
<title>opp</title>
<polygon fill="transparent" stroke="transparent" points="-4,4 -4,-78 529,-78 529,4 -4,4"/>
<!-- Baseline -->
<g id="node1" class="node">
<title>Baseline</title>
<g id="a_node1"><a xlink:href="d6g.simulations.baseline.Baseline.html" xlink:title="Network Baseline" target="_parent">
<polygon fill="#9090ff" stroke="black" points="278,-74 219,-74 219,-55 278,-55 278,-74"/>
<text text-anchor="middle" x="248.5" y="-62" font-family="Helvetica,sans-Serif" font-size="10.00">Baseline</text>
</a>
</g>
</g>
<!-- TsnSwitch -->
<g id="node2" class="node">
<title>TsnSwitch</title>
<g id="a_node2"><a xlink:href="../../../inet/doc/neddoc/inet.node.tsn.TsnSwitch.html" xlink:title="Compound Module TsnSwitch" target="_parent">
<polygon fill="#fffcaf" stroke="black" points="65,-19 0,-19 0,0 65,0 65,-19"/>
<text text-anchor="middle" x="32.5" y="-7" font-family="Helvetica,sans-Serif" font-size="10.00">TsnSwitch</text>
</a>
</g>
</g>
<!-- Baseline&#45;&gt;TsnSwitch -->
<g id="edge1" class="edge">
<title>Baseline&#45;&gt;TsnSwitch</title>
<path fill="none" stroke="black" d="M218.92,-56.24C181.69,-47.11 117.51,-31.36 75.02,-20.93"/>
<polygon fill="black" stroke="black" points="75.8,-17.52 65.25,-18.54 74.13,-24.32 75.8,-17.52"/>
</g>
<!-- TsnDevice -->
<g id="node3" class="node">
<title>TsnDevice</title>
<g id="a_node3"><a xlink:href="../../../inet/doc/neddoc/inet.node.tsn.TsnDevice.html" xlink:title="Compound Module TsnDevice" target="_parent">
<polygon fill="#fffcaf" stroke="black" points="149.5,-19 83.5,-19 83.5,0 149.5,0 149.5,-19"/>
<text text-anchor="middle" x="116.5" y="-7" font-family="Helvetica,sans-Serif" font-size="10.00">TsnDevice</text>
</a>
</g>
</g>
<!-- Baseline&#45;&gt;TsnDevice -->
<g id="edge2" class="edge">
<title>Baseline&#45;&gt;TsnDevice</title>
<path fill="none" stroke="black" d="M227.29,-54.98C205.77,-46.34 172.22,-32.87 147.67,-23.02"/>
<polygon fill="black" stroke="black" points="148.68,-19.65 138.09,-19.17 146.07,-26.14 148.68,-19.65"/>
</g>
<!-- EthernetLink -->
<g id="node4" class="node">
<title>EthernetLink</title>
<g id="a_node4"><a xlink:href="../../../inet/doc/neddoc/inet.node.ethernet.EthernetLink.html" xlink:title="Channel EthernetLink" target="_parent">
<polygon fill="#d0ffd0" stroke="black" points="245.5,-19 167.5,-19 167.5,0 245.5,0 245.5,-19"/>
<text text-anchor="middle" x="206.5" y="-7" font-family="Helvetica,sans-Serif" font-size="10.00">EthernetLink</text>
</a>
</g>
</g>
<!-- Baseline&#45;&gt;EthernetLink -->
<g id="edge3" class="edge">
<title>Baseline&#45;&gt;EthernetLink</title>
<path fill="none" stroke="black" d="M241.56,-54.75C235.63,-47.26 226.93,-36.28 219.68,-27.13"/>
<polygon fill="black" stroke="black" points="222.26,-24.75 213.31,-19.09 216.77,-29.1 222.26,-24.75"/>
</g>
<!-- DetCom -->
<g id="node5" class="node">
<title>DetCom</title>
<g id="a_node5"><a xlink:href="d6g.devices.sixg.DetCom.html" xlink:title="Compound Module DetCom" target="_parent">
<polygon fill="#fffcaf" stroke="black" points="319.5,-19 263.5,-19 263.5,0 319.5,0 319.5,-19"/>
<text text-anchor="middle" x="291.5" y="-7" font-family="Helvetica,sans-Serif" font-size="10.00">DetCom</text>
</a>
</g>
</g>
<!-- Baseline&#45;&gt;DetCom -->
<g id="edge4" class="edge">
<title>Baseline&#45;&gt;DetCom</title>
<path fill="none" stroke="black" d="M255.6,-54.75C261.67,-47.26 270.59,-36.28 278.01,-27.13"/>
<polygon fill="black" stroke="black" points="280.95,-29.06 284.53,-19.09 275.51,-24.65 280.95,-29.06"/>
</g>
<!-- NNIChannel -->
<g id="node6" class="node">
<title>NNIChannel</title>
<g id="a_node6"><a xlink:href="d6g.devices.sixg.NNIChannel.html" xlink:title="Channel NNIChannel" target="_parent">
<polygon fill="#d0ffd0" stroke="black" points="411.5,-19 337.5,-19 337.5,0 411.5,0 411.5,-19"/>
<text text-anchor="middle" x="374.5" y="-7" font-family="Helvetica,sans-Serif" font-size="10.00">NNIChannel</text>
</a>
</g>
</g>
<!-- Baseline&#45;&gt;NNIChannel -->
<g id="edge5" class="edge">
<title>Baseline&#45;&gt;NNIChannel</title>
<path fill="none" stroke="black" d="M268.74,-54.98C289.2,-46.38 321.03,-32.99 344.43,-23.15"/>
<polygon fill="black" stroke="black" points="346.03,-26.27 353.89,-19.17 343.31,-19.82 346.03,-26.27"/>
</g>
<!-- DetComAdapter -->
<g id="node7" class="node">
<title>DetComAdapter</title>
<g id="a_node7"><a xlink:href="d6g.devices.sixg.DetComAdapter.html" xlink:title="Compound Module DetComAdapter" target="_parent">
<polygon fill="#fffcaf" stroke="black" points="525,-19 430,-19 430,0 525,0 525,-19"/>
<text text-anchor="middle" x="477.5" y="-7" font-family="Helvetica,sans-Serif" font-size="10.00">DetComAdapter</text>
</a>
</g>
</g>
<!-- Baseline&#45;&gt;DetComAdapter -->
<g id="edge6" class="edge">
<title>Baseline&#45;&gt;DetComAdapter</title>
<path fill="none" stroke="black" d="M278.44,-56.57C317.21,-47.6 385.21,-31.86 430.8,-21.31"/>
<polygon fill="black" stroke="black" points="431.79,-24.67 440.74,-19.01 430.21,-17.85 431.79,-24.67"/>
</g>
</g>
</svg>
