<?xml version="1.0" encoding="UTF-8" standalone="no"?>
<!DOCTYPE svg PUBLIC "-//W3C//DTD SVG 1.1//EN"
 "http://www.w3.org/Graphics/SVG/1.1/DTD/svg11.dtd">
<!-- Generated by graphviz version 2.43.0 (0)
 -->
<!-- Title: opp Pages: 1 -->
<svg width="226pt" height="82pt"
 viewBox="0.00 0.00 225.50 82.00" xmlns="http://www.w3.org/2000/svg" xmlns:xlink="http://www.w3.org/1999/xlink">
<g id="graph0" class="graph" transform="scale(1 1) rotate(0) translate(4 78)">
<title>opp</title>
<polygon fill="transparent" stroke="transparent" points="-4,4 -4,-78 221.5,-78 221.5,4 -4,4"/>
<!-- PairwiseDelayer -->
<g id="node1" class="node">
<title>PairwiseDelayer</title>
<g id="a_node1"><a xlink:href="d6g.pairwise.PairwiseDelayer.html" xlink:title="Simple Module PairwiseDelayer" target="_parent">
<polygon fill="#fff700" stroke="black" points="161.5,-19 66.5,-19 66.5,0 161.5,0 161.5,-19"/>
<text text-anchor="middle" x="114" y="-7" font-family="Helvetica,sans-Serif" font-size="10.00">PairwiseDelayer</text>
</a>
</g>
</g>
<!-- PacketDelayerBase -->
<g id="node2" class="node">
<title>PacketDelayerBase</title>
<g id="a_node2"><a xlink:href="../../../inet/doc/neddoc/inet.queueing.base.PacketDelayerBase.html" xlink:title="Simple Module PacketDelayerBase" target="_parent">
<polygon fill="#fffcaf" stroke="black" points="110,-74 0,-74 0,-55 110,-55 110,-74"/>
<text text-anchor="middle" x="55" y="-62" font-family="Helvetica,sans-Serif" font-size="10.00">PacketDelayerBase</text>
</a>
</g>
</g>
<!-- PacketDelayerBase&#45;&gt;PairwiseDelayer -->
<g id="edge1" class="edge">
<title>PacketDelayerBase&#45;&gt;PairwiseDelayer</title>
<path fill="none" stroke="black" d="M64.48,-54.98C75.42,-45.15 93.33,-29.07 104.35,-19.17"/>
</g>
<!-- IPacketDelayer -->
<g id="node3" class="node">
<title>IPacketDelayer</title>
<g id="a_node3"><a xlink:href="../../../inet/doc/neddoc/inet.queueing.contract.IPacketDelayer.html" xlink:title="Module Interface IPacketDelayer" target="_parent">
<polygon fill="#fffcaf" stroke="black" stroke-dasharray="5,2" points="217.5,-74 128.5,-74 128.5,-55 217.5,-55 217.5,-74"/>
<text text-anchor="middle" x="173" y="-62" font-family="Helvetica,sans-Serif" font-size="10.00">IPacketDelayer</text>
</a>
</g>
</g>
<!-- IPacketDelayer&#45;&gt;PairwiseDelayer -->
<g id="edge2" class="edge">
<title>IPacketDelayer&#45;&gt;PairwiseDelayer</title>
<path fill="none" stroke="black" stroke-dasharray="5,2" d="M163.52,-54.98C152.58,-45.15 134.67,-29.07 123.65,-19.17"/>
</g>
</g>
</svg>
