<?xml version="1.0" encoding="UTF-8" standalone="no"?>
<!DOCTYPE svg PUBLIC "-//W3C//DTD SVG 1.1//EN"
 "http://www.w3.org/Graphics/SVG/1.1/DTD/svg11.dtd">
<!-- Generated by graphviz version 2.43.0 (0)
 -->
<!-- Title: opp Pages: 1 -->
<svg width="534pt" height="82pt"
 viewBox="0.00 0.00 533.50 82.00" xmlns="http://www.w3.org/2000/svg" xmlns:xlink="http://www.w3.org/1999/xlink">
<g id="graph0" class="graph" transform="scale(1 1) rotate(0) translate(4 78)">
<title>opp</title>
<polygon fill="transparent" stroke="transparent" points="-4,4 -4,-78 529.5,-78 529.5,4 -4,4"/>
<!-- Baseline -->
<g id="node1" class="node">
<title>Baseline</title>
<g id="a_node1"><a xlink:href="d6g.simulations.baseline.Baseline.html" xlink:title="Network Baseline" target="_parent">
<polygon fill="#9090ff" stroke="black" points="286.5,-74 227.5,-74 227.5,-55 286.5,-55 286.5,-74"/>
<text text-anchor="middle" x="257" y="-62" font-family="Helvetica,sans-Serif" font-size="10.00">Baseline</text>
</a>
</g>
</g>
<!-- TsnDevice -->
<g id="node2" class="node">
<title>TsnDevice</title>
<g id="a_node2"><a xlink:href="../../../inet/doc/neddoc/inet.node.tsn.TsnDevice.html" xlink:title="Compound Module TsnDevice" target="_parent">
<polygon fill="#fffcaf" stroke="black" points="66,-19 0,-19 0,0 66,0 66,-19"/>
<text text-anchor="middle" x="33" y="-7" font-family="Helvetica,sans-Serif" font-size="10.00">TsnDevice</text>
</a>
</g>
</g>
<!-- Baseline&#45;&gt;TsnDevice -->
<g id="edge1" class="edge">
<title>Baseline&#45;&gt;TsnDevice</title>
<path fill="none" stroke="black" d="M227.25,-56.46C188.5,-47.29 120.47,-31.2 76.07,-20.69"/>
<polygon fill="black" stroke="black" points="76.69,-17.24 66.15,-18.34 75.08,-24.05 76.69,-17.24"/>
</g>
<!-- DetCom -->
<g id="node3" class="node">
<title>DetCom</title>
<g id="a_node3"><a xlink:href="d6g.devices.sixg.DetCom.html" xlink:title="Compound Module DetCom" target="_parent">
<polygon fill="#fffcaf" stroke="black" points="140,-19 84,-19 84,0 140,0 140,-19"/>
<text text-anchor="middle" x="112" y="-7" font-family="Helvetica,sans-Serif" font-size="10.00">DetCom</text>
</a>
</g>
</g>
<!-- Baseline&#45;&gt;DetCom -->
<g id="edge2" class="edge">
<title>Baseline&#45;&gt;DetCom</title>
<path fill="none" stroke="black" d="M233.7,-54.98C209.75,-46.23 172.22,-32.51 145.17,-22.62"/>
<polygon fill="black" stroke="black" points="146.31,-19.32 135.72,-19.17 143.91,-25.89 146.31,-19.32"/>
</g>
<!-- DetComAdapter -->
<g id="node4" class="node">
<title>DetComAdapter</title>
<g id="a_node4"><a xlink:href="d6g.devices.sixg.DetComAdapter.html" xlink:title="Compound Module DetComAdapter" target="_parent">
<polygon fill="#fffcaf" stroke="black" points="253.5,-19 158.5,-19 158.5,0 253.5,0 253.5,-19"/>
<text text-anchor="middle" x="206" y="-7" font-family="Helvetica,sans-Serif" font-size="10.00">DetComAdapter</text>
</a>
</g>
</g>
<!-- Baseline&#45;&gt;DetComAdapter -->
<g id="edge3" class="edge">
<title>Baseline&#45;&gt;DetComAdapter</title>
<path fill="none" stroke="black" d="M248.58,-54.75C241.23,-47.11 230.37,-35.82 221.46,-26.56"/>
<polygon fill="black" stroke="black" points="223.72,-23.87 214.26,-19.09 218.68,-28.72 223.72,-23.87"/>
</g>
<!-- NNIChannel -->
<g id="node5" class="node">
<title>NNIChannel</title>
<g id="a_node5"><a xlink:href="d6g.devices.sixg.NNIChannel.html" xlink:title="Channel NNIChannel" target="_parent">
<polygon fill="#d0ffd0" stroke="black" points="346,-19 272,-19 272,0 346,0 346,-19"/>
<text text-anchor="middle" x="309" y="-7" font-family="Helvetica,sans-Serif" font-size="10.00">NNIChannel</text>
</a>
</g>
</g>
<!-- Baseline&#45;&gt;NNIChannel -->
<g id="edge4" class="edge">
<title>Baseline&#45;&gt;NNIChannel</title>
<path fill="none" stroke="black" d="M265.59,-54.75C273.16,-47.03 284.38,-35.6 293.51,-26.28"/>
<polygon fill="black" stroke="black" points="296.07,-28.68 300.57,-19.09 291.07,-23.78 296.07,-28.68"/>
</g>
<!-- EthernetLink -->
<g id="node6" class="node">
<title>EthernetLink</title>
<g id="a_node6"><a xlink:href="../../../inet/doc/neddoc/inet.node.ethernet.EthernetLink.html" xlink:title="Channel EthernetLink" target="_parent">
<polygon fill="#d0ffd0" stroke="black" points="442,-19 364,-19 364,0 442,0 442,-19"/>
<text text-anchor="middle" x="403" y="-7" font-family="Helvetica,sans-Serif" font-size="10.00">EthernetLink</text>
</a>
</g>
</g>
<!-- Baseline&#45;&gt;EthernetLink -->
<g id="edge5" class="edge">
<title>Baseline&#45;&gt;EthernetLink</title>
<path fill="none" stroke="black" d="M280.46,-54.98C304.58,-46.23 342.37,-32.51 369.6,-22.62"/>
<polygon fill="black" stroke="black" points="370.91,-25.87 379.12,-19.17 368.52,-19.29 370.91,-25.87"/>
</g>
<!-- TsnSwitch -->
<g id="node7" class="node">
<title>TsnSwitch</title>
<g id="a_node7"><a xlink:href="../../../inet/doc/neddoc/inet.node.tsn.TsnSwitch.html" xlink:title="Compound Module TsnSwitch" target="_parent">
<polygon fill="#fffcaf" stroke="black" points="525.5,-19 460.5,-19 460.5,0 525.5,0 525.5,-19"/>
<text text-anchor="middle" x="493" y="-7" font-family="Helvetica,sans-Serif" font-size="10.00">TsnSwitch</text>
</a>
</g>
</g>
<!-- Baseline&#45;&gt;TsnSwitch -->
<g id="edge6" class="edge">
<title>Baseline&#45;&gt;TsnSwitch</title>
<path fill="none" stroke="black" d="M286.89,-56.79C328.26,-47.5 403.19,-30.67 450.41,-20.07"/>
<polygon fill="black" stroke="black" points="451.34,-23.44 460.33,-17.84 449.8,-16.61 451.34,-23.44"/>
</g>
</g>
</svg>
