<?xml version="1.0" encoding="UTF-8" standalone="no"?>
<!DOCTYPE svg PUBLIC "-//W3C//DTD SVG 1.1//EN"
 "http://www.w3.org/Graphics/SVG/1.1/DTD/svg11.dtd">
<!-- Generated by graphviz version 2.43.0 (0)
 -->
<!-- Title: opp Pages: 1 -->
<svg width="430pt" height="82pt"
 viewBox="0.00 0.00 430.00 82.00" xmlns="http://www.w3.org/2000/svg" xmlns:xlink="http://www.w3.org/1999/xlink">
<g id="graph0" class="graph" transform="scale(1 1) rotate(0) translate(4 78)">
<title>opp</title>
<polygon fill="transparent" stroke="transparent" points="-4,4 -4,-78 426,-78 426,4 -4,4"/>
<!-- CooperativeManufacturing -->
<g id="node1" class="node">
<title>CooperativeManufacturing</title>
<g id="a_node1"><a xlink:href="d6g.simulations.cooperativemanufacturing.CooperativeManufacturing.html" xlink:title="Network CooperativeManufacturing" target="_parent">
<polygon fill="#9090ff" stroke="black" points="280,-74 134,-74 134,-55 280,-55 280,-74"/>
<text text-anchor="middle" x="207" y="-62" font-family="Helvetica,sans-Serif" font-size="10.00">CooperativeManufacturing</text>
</a>
</g>
</g>
<!-- ProcessingCell -->
<g id="node2" class="node">
<title>ProcessingCell</title>
<g id="a_node2"><a xlink:href="d6g.simulations.cooperativemanufacturing.ProcessingCell.html" xlink:title="Compound Module ProcessingCell" target="_parent">
<polygon fill="#fffcaf" stroke="black" points="88,-19 0,-19 0,0 88,0 88,-19"/>
<text text-anchor="middle" x="44" y="-7" font-family="Helvetica,sans-Serif" font-size="10.00">ProcessingCell</text>
</a>
</g>
</g>
<!-- CooperativeManufacturing&#45;&gt;ProcessingCell -->
<g id="edge1" class="edge">
<title>CooperativeManufacturing&#45;&gt;ProcessingCell</title>
<path fill="none" stroke="black" d="M180.81,-54.98C153.56,-46.13 110.7,-32.19 80.22,-22.28"/>
<polygon fill="black" stroke="black" points="80.99,-18.85 70.39,-19.08 78.82,-25.5 80.99,-18.85"/>
</g>
<!-- DetCom -->
<g id="node3" class="node">
<title>DetCom</title>
<g id="a_node3"><a xlink:href="d6g.devices.sixg.DetCom.html" xlink:title="Compound Module DetCom" target="_parent">
<polygon fill="#fffcaf" stroke="black" points="162,-19 106,-19 106,0 162,0 162,-19"/>
<text text-anchor="middle" x="134" y="-7" font-family="Helvetica,sans-Serif" font-size="10.00">DetCom</text>
</a>
</g>
</g>
<!-- CooperativeManufacturing&#45;&gt;DetCom -->
<g id="edge2" class="edge">
<title>CooperativeManufacturing&#45;&gt;DetCom</title>
<path fill="none" stroke="black" d="M195.27,-54.98C184.27,-47 167.58,-34.88 154.4,-25.31"/>
<polygon fill="black" stroke="black" points="156.09,-22.21 145.94,-19.17 151.98,-27.88 156.09,-22.21"/>
</g>
<!-- AGV -->
<g id="node4" class="node">
<title>AGV</title>
<g id="a_node4"><a xlink:href="d6g.simulations.cooperativemanufacturing.AGV.html" xlink:title="Compound Module AGV" target="_parent">
<polygon fill="#fffcaf" stroke="black" points="234,-19 180,-19 180,0 234,0 234,-19"/>
<text text-anchor="middle" x="207" y="-7" font-family="Helvetica,sans-Serif" font-size="10.00">AGV</text>
</a>
</g>
</g>
<!-- CooperativeManufacturing&#45;&gt;AGV -->
<g id="edge3" class="edge">
<title>CooperativeManufacturing&#45;&gt;AGV</title>
<path fill="none" stroke="black" d="M207,-54.75C207,-47.8 207,-37.85 207,-29.13"/>
<polygon fill="black" stroke="black" points="210.5,-29.09 207,-19.09 203.5,-29.09 210.5,-29.09"/>
</g>
<!-- NNIChannel -->
<g id="node5" class="node">
<title>NNIChannel</title>
<g id="a_node5"><a xlink:href="d6g.devices.sixg.NNIChannel.html" xlink:title="Channel NNIChannel" target="_parent">
<polygon fill="#d0ffd0" stroke="black" points="326,-19 252,-19 252,0 326,0 326,-19"/>
<text text-anchor="middle" x="289" y="-7" font-family="Helvetica,sans-Serif" font-size="10.00">NNIChannel</text>
</a>
</g>
</g>
<!-- CooperativeManufacturing&#45;&gt;NNIChannel -->
<g id="edge4" class="edge">
<title>CooperativeManufacturing&#45;&gt;NNIChannel</title>
<path fill="none" stroke="black" d="M220.17,-54.98C232.77,-46.84 252,-34.41 266.94,-24.76"/>
<polygon fill="black" stroke="black" points="269.09,-27.54 275.59,-19.17 265.29,-21.66 269.09,-27.54"/>
</g>
<!-- EthernetLink -->
<g id="node6" class="node">
<title>EthernetLink</title>
<g id="a_node6"><a xlink:href="../../../inet/doc/neddoc/inet.node.ethernet.EthernetLink.html" xlink:title="Channel EthernetLink" target="_parent">
<polygon fill="#d0ffd0" stroke="black" points="422,-19 344,-19 344,0 422,0 422,-19"/>
<text text-anchor="middle" x="383" y="-7" font-family="Helvetica,sans-Serif" font-size="10.00">EthernetLink</text>
</a>
</g>
</g>
<!-- CooperativeManufacturing&#45;&gt;EthernetLink -->
<g id="edge5" class="edge">
<title>CooperativeManufacturing&#45;&gt;EthernetLink</title>
<path fill="none" stroke="black" d="M235.28,-54.98C264.95,-46.05 311.79,-31.94 344.75,-22.02"/>
<polygon fill="black" stroke="black" points="345.93,-25.32 354.5,-19.08 343.92,-18.61 345.93,-25.32"/>
</g>
</g>
</svg>
