<?xml version="1.0" encoding="UTF-8" standalone="no"?>
<!DOCTYPE svg PUBLIC "-//W3C//DTD SVG 1.1//EN"
 "http://www.w3.org/Graphics/SVG/1.1/DTD/svg11.dtd">
<!-- Generated by graphviz version 2.43.0 (0)
 -->
<!-- Title: opp Pages: 1 -->
<svg width="620pt" height="82pt"
 viewBox="0.00 0.00 619.50 82.00" xmlns="http://www.w3.org/2000/svg" xmlns:xlink="http://www.w3.org/1999/xlink">
<g id="graph0" class="graph" transform="scale(1 1) rotate(0) translate(4 78)">
<title>opp</title>
<polygon fill="transparent" stroke="transparent" points="-4,4 -4,-78 615.5,-78 615.5,4 -4,4"/>
<!-- EdgeCloudNetwork -->
<g id="node1" class="node">
<title>EdgeCloudNetwork</title>
<g id="a_node1"><a xlink:href="d6g.simulations.edgecloud.EdgeCloudNetwork.html" xlink:title="Network EdgeCloudNetwork" target="_parent">
<polygon fill="#9090ff" stroke="black" points="364,-74 254,-74 254,-55 364,-55 364,-74"/>
<text text-anchor="middle" x="309" y="-62" font-family="Helvetica,sans-Serif" font-size="10.00">EdgeCloudNetwork</text>
</a>
</g>
</g>
<!-- TsnDevice -->
<g id="node2" class="node">
<title>TsnDevice</title>
<g id="a_node2"><a xlink:href="../../../inet/doc/neddoc/inet.node.tsn.TsnDevice.html" xlink:title="Compound Module TsnDevice" target="_parent">
<polygon fill="#fffcaf" stroke="black" points="66,-19 0,-19 0,0 66,0 66,-19"/>
<text text-anchor="middle" x="33" y="-7" font-family="Helvetica,sans-Serif" font-size="10.00">TsnDevice</text>
</a>
</g>
</g>
<!-- EdgeCloudNetwork&#45;&gt;TsnDevice -->
<g id="edge1" class="edge">
<title>EdgeCloudNetwork&#45;&gt;TsnDevice</title>
<path fill="none" stroke="black" d="M263.23,-54.96C218.16,-46.51 147.08,-33.1 76.03,-19.18"/>
<polygon fill="black" stroke="black" points="76.49,-15.71 66.01,-17.22 75.15,-22.58 76.49,-15.71"/>
</g>
<!-- DetCom -->
<g id="node3" class="node">
<title>DetCom</title>
<g id="a_node3"><a xlink:href="d6g.devices.sixg.DetCom.html" xlink:title="Compound Module DetCom" target="_parent">
<polygon fill="#fffcaf" stroke="black" points="140,-19 84,-19 84,0 140,0 140,-19"/>
<text text-anchor="middle" x="112" y="-7" font-family="Helvetica,sans-Serif" font-size="10.00">DetCom</text>
</a>
</g>
</g>
<!-- EdgeCloudNetwork&#45;&gt;DetCom -->
<g id="edge2" class="edge">
<title>EdgeCloudNetwork&#45;&gt;DetCom</title>
<path fill="none" stroke="black" d="M277.35,-54.98C242.65,-45.65 187,-30.68 149.98,-20.72"/>
<polygon fill="black" stroke="black" points="150.63,-17.27 140.06,-18.05 148.81,-24.03 150.63,-17.27"/>
</g>
<!-- DetComAdapter -->
<g id="node4" class="node">
<title>DetComAdapter</title>
<g id="a_node4"><a xlink:href="d6g.devices.sixg.DetComAdapter.html" xlink:title="Compound Module DetComAdapter" target="_parent">
<polygon fill="#fffcaf" stroke="black" points="253.5,-19 158.5,-19 158.5,0 253.5,0 253.5,-19"/>
<text text-anchor="middle" x="206" y="-7" font-family="Helvetica,sans-Serif" font-size="10.00">DetComAdapter</text>
</a>
</g>
</g>
<!-- EdgeCloudNetwork&#45;&gt;DetComAdapter -->
<g id="edge3" class="edge">
<title>EdgeCloudNetwork&#45;&gt;DetComAdapter</title>
<path fill="none" stroke="black" d="M292.45,-54.98C276.11,-46.57 250.87,-33.59 231.87,-23.81"/>
<polygon fill="black" stroke="black" points="233.34,-20.63 222.85,-19.17 230.14,-26.86 233.34,-20.63"/>
</g>
<!-- NNIChannel -->
<g id="node5" class="node">
<title>NNIChannel</title>
<g id="a_node5"><a xlink:href="d6g.devices.sixg.NNIChannel.html" xlink:title="Channel NNIChannel" target="_parent">
<polygon fill="#d0ffd0" stroke="black" points="346,-19 272,-19 272,0 346,0 346,-19"/>
<text text-anchor="middle" x="309" y="-7" font-family="Helvetica,sans-Serif" font-size="10.00">NNIChannel</text>
</a>
</g>
</g>
<!-- EdgeCloudNetwork&#45;&gt;NNIChannel -->
<g id="edge4" class="edge">
<title>EdgeCloudNetwork&#45;&gt;NNIChannel</title>
<path fill="none" stroke="black" d="M309,-54.75C309,-47.8 309,-37.85 309,-29.13"/>
<polygon fill="black" stroke="black" points="312.5,-29.09 309,-19.09 305.5,-29.09 312.5,-29.09"/>
</g>
<!-- EthernetLink -->
<g id="node6" class="node">
<title>EthernetLink</title>
<g id="a_node6"><a xlink:href="../../../inet/doc/neddoc/inet.node.ethernet.EthernetLink.html" xlink:title="Channel EthernetLink" target="_parent">
<polygon fill="#d0ffd0" stroke="black" points="442,-19 364,-19 364,0 442,0 442,-19"/>
<text text-anchor="middle" x="403" y="-7" font-family="Helvetica,sans-Serif" font-size="10.00">EthernetLink</text>
</a>
</g>
</g>
<!-- EdgeCloudNetwork&#45;&gt;EthernetLink -->
<g id="edge5" class="edge">
<title>EdgeCloudNetwork&#45;&gt;EthernetLink</title>
<path fill="none" stroke="black" d="M324.1,-54.98C338.82,-46.69 361.42,-33.94 378.67,-24.22"/>
<polygon fill="black" stroke="black" points="380.63,-27.13 387.62,-19.17 377.19,-21.03 380.63,-27.13"/>
</g>
<!-- Histogram -->
<g id="node7" class="node">
<title>Histogram</title>
<g id="a_node7"><a xlink:href="d6g.distribution.histogram.Histogram.html" xlink:title="Simple Module Histogram" target="_parent">
<polygon fill="#fffcaf" stroke="black" points="528,-19 460,-19 460,0 528,0 528,-19"/>
<text text-anchor="middle" x="494" y="-7" font-family="Helvetica,sans-Serif" font-size="10.00">Histogram</text>
</a>
</g>
</g>
<!-- EdgeCloudNetwork&#45;&gt;Histogram -->
<g id="edge6" class="edge">
<title>EdgeCloudNetwork&#45;&gt;Histogram</title>
<path fill="none" stroke="black" d="M338.72,-54.98C370.05,-46.01 419.57,-31.82 454.24,-21.89"/>
<polygon fill="black" stroke="black" points="455.39,-25.2 464.04,-19.08 453.47,-18.47 455.39,-25.2"/>
</g>
<!-- TsnSwitch -->
<g id="node8" class="node">
<title>TsnSwitch</title>
<g id="a_node8"><a xlink:href="../../../inet/doc/neddoc/inet.node.tsn.TsnSwitch.html" xlink:title="Compound Module TsnSwitch" target="_parent">
<polygon fill="#fffcaf" stroke="black" points="611.5,-19 546.5,-19 546.5,0 611.5,0 611.5,-19"/>
<text text-anchor="middle" x="579" y="-7" font-family="Helvetica,sans-Serif" font-size="10.00">TsnSwitch</text>
</a>
</g>
</g>
<!-- EdgeCloudNetwork&#45;&gt;TsnSwitch -->
<g id="edge7" class="edge">
<title>EdgeCloudNetwork&#45;&gt;TsnSwitch</title>
<path fill="none" stroke="black" d="M353.15,-54.98C397.03,-46.48 466.52,-32.98 536.56,-19.08"/>
<polygon fill="black" stroke="black" points="537.32,-22.49 546.45,-17.11 535.95,-15.63 537.32,-22.49"/>
</g>
</g>
</svg>
